<?xml version="1.0" encoding="UTF-8" standalone="no"?>
<!DOCTYPE svg PUBLIC "-//W3C//DTD SVG 1.1//EN"
 "http://www.w3.org/Graphics/SVG/1.1/DTD/svg11.dtd">
<!-- Generated by graphviz version 2.40.1 (20161225.0304)
 -->
<!-- Title: G Pages: 1 -->
<svg width="4150pt" height="1515pt"
 viewBox="0.00 0.00 4150.00 1514.98" xmlns="http://www.w3.org/2000/svg" xmlns:xlink="http://www.w3.org/1999/xlink">
<g id="graph0" class="graph" transform="scale(1 1) rotate(0) translate(4 1510.9848)">
<title>G</title>
<polygon fill="#ffffff" stroke="transparent" points="-4,4 -4,-1510.9848 4146,-1510.9848 4146,4 -4,4"/>
<g id="clust1" class="cluster">
<title>cluster_0</title>
<polygon fill="none" stroke="#000000" points="8,-8 8,-1498.9848 792,-1498.9848 792,-8 8,-8"/>
<text text-anchor="middle" x="400" y="-1462.9848" font-family="Times,serif" font-size="40.00" fill="#000000">Tree 0, Class {&#39;code&#39;: 4, &#39;message&#39;: &#39;&#39;}</text>
</g>
<g id="clust10" class="cluster">
<title>cluster_1</title>
<polygon fill="none" stroke="#000000" points="800,-1008.132 800,-1498.9848 2426,-1498.9848 2426,-1008.132 800,-1008.132"/>
<text text-anchor="middle" x="1613" y="-1462.9848" font-family="Times,serif" font-size="40.00" fill="#000000">Tree 0, Class {&#39;code&#39;: 4, &#39;message&#39;: &#39;MEDIA_ELEMENT_ERROR: Format error&#39;}</text>
</g>
<g id="clust14" class="cluster">
<title>cluster_2</title>
<polygon fill="none" stroke="#000000" points="2434,-146.4264 2434,-1498.9848 4134,-1498.9848 4134,-146.4264 2434,-146.4264"/>
<text text-anchor="middle" x="3284" y="-1462.9848" font-family="Times,serif" font-size="40.00" fill="#000000">Tree 0, Class {&#39;code&#39;: 4, &#39;message&#39;: &#39;PIPELINE_ERROR_INITIALIZATION_FAILED&#39;}</text>
</g>
<!-- SG_0_Node_0 -->
<g id="node1" class="node">
<title>SG_0_Node_0</title>
<polygon fill="none" stroke="#000000" points="350.5,-1438.9848 33.5,-1438.9848 33.5,-1402.9848 350.5,-1402.9848 350.5,-1438.9848"/>
<text text-anchor="middle" x="192" y="-1415.9848" font-family="Times,serif" font-size="20.00" fill="#000000">Cross&#45;Origin&#45;Resource&#45;Policy</text>
</g>
<!-- SG_0_Node_7 -->
<g id="node2" class="node">
<title>SG_0_Node_7</title>
<ellipse fill="none" stroke="#000000" cx="121" cy="-1263.7716" rx="34.7971" ry="21.4286"/>
<text text-anchor="middle" x="121" y="-1258.7716" font-family="Times,serif" font-size="20.00" fill="#000000">0.0</text>
</g>
<!-- SG_0_Node_0&#45;&gt;SG_0_Node_7 -->
<g id="edge1" class="edge">
<title>SG_0_Node_0&#45;&gt;SG_0_Node_7</title>
<path fill="none" stroke="#000000" d="M166.5695,-1402.8828C155.0285,-1393.2703 142.3444,-1380.4544 135,-1365.9848 123.904,-1344.1239 120.6712,-1316.42 120.0652,-1295.3706"/>
<polygon fill="#000000" stroke="#000000" points="123.5646,-1295.2937 119.9577,-1285.3318 116.565,-1295.3687 123.5646,-1295.2937"/>
<text text-anchor="middle" x="196" y="-1349.9848" font-family="Times,serif" font-size="20.00" fill="#000000">[NA]</text>
<text text-anchor="middle" x="196" y="-1327.9848" font-family="Times,serif" font-size="20.00" fill="#000000">same&#45;origin</text>
</g>
<!-- SG_0_Node_1 -->
<g id="node3" class="node">
<title>SG_0_Node_1</title>
<polygon fill="none" stroke="#000000" points="350,-1281.7716 208,-1281.7716 208,-1245.7716 350,-1245.7716 350,-1281.7716"/>
<text text-anchor="middle" x="279" y="-1258.7716" font-family="Times,serif" font-size="20.00" fill="#000000">Status&#45;Code</text>
</g>
<!-- SG_0_Node_0&#45;&gt;SG_0_Node_1 -->
<g id="edge2" class="edge">
<title>SG_0_Node_0&#45;&gt;SG_0_Node_1</title>
<path fill="none" stroke="#000000" d="M221.1433,-1402.8228C234.007,-1393.3615 248.1798,-1380.6901 257,-1365.9848 270.4984,-1343.4799 275.7671,-1313.7946 277.7964,-1292.2167"/>
<polygon fill="#000000" stroke="#000000" points="281.3012,-1292.2851 278.5715,-1282.048 274.3215,-1291.753 281.3012,-1292.2851"/>
<text text-anchor="middle" x="305" y="-1338.9848" font-family="Times,serif" font-size="20.00" fill="#000000">empty</text>
</g>
<!-- SG_0_Node_8 -->
<g id="node4" class="node">
<title>SG_0_Node_8</title>
<ellipse fill="none" stroke="#000000" cx="237" cy="-1037.3452" rx="34.7971" ry="21.4286"/>
<text text-anchor="middle" x="237" y="-1032.3452" font-family="Times,serif" font-size="20.00" fill="#000000">0.0</text>
</g>
<!-- SG_0_Node_1&#45;&gt;SG_0_Node_8 -->
<g id="edge3" class="edge">
<title>SG_0_Node_1&#45;&gt;SG_0_Node_8</title>
<path fill="none" stroke="#000000" d="M271.3183,-1245.7362C266.785,-1234.3961 261.305,-1219.35 258,-1205.5584 246.7674,-1158.6858 241.312,-1102.9407 238.8392,-1068.8593"/>
<polygon fill="#000000" stroke="#000000" points="242.3114,-1068.3319 238.1376,-1058.5938 235.3277,-1068.8092 242.3114,-1068.3319"/>
<text text-anchor="middle" x="277.5" y="-1189.5584" font-family="Times,serif" font-size="20.00" fill="#000000">100</text>
<text text-anchor="middle" x="277.5" y="-1167.5584" font-family="Times,serif" font-size="20.00" fill="#000000">101</text>
<text text-anchor="middle" x="277.5" y="-1145.5584" font-family="Times,serif" font-size="20.00" fill="#000000">102</text>
<text text-anchor="middle" x="277.5" y="-1123.5584" font-family="Times,serif" font-size="20.00" fill="#000000">103</text>
<text text-anchor="middle" x="277.5" y="-1101.5584" font-family="Times,serif" font-size="20.00" fill="#000000">407</text>
</g>
<!-- SG_0_Node_2 -->
<g id="node5" class="node">
<title>SG_0_Node_2</title>
<polygon fill="none" stroke="#000000" points="354.5,-1055.3452 289.5,-1055.3452 289.5,-1019.3452 354.5,-1019.3452 354.5,-1055.3452"/>
<text text-anchor="middle" x="322" y="-1032.3452" font-family="Times,serif" font-size="20.00" fill="#000000">body</text>
</g>
<!-- SG_0_Node_1&#45;&gt;SG_0_Node_2 -->
<g id="edge4" class="edge">
<title>SG_0_Node_1&#45;&gt;SG_0_Node_2</title>
<path fill="none" stroke="#000000" d="M285.3978,-1245.6125C289.2133,-1234.2258 293.9021,-1219.1742 297,-1205.5584 308.0819,-1156.851 315.4355,-1099.0518 319.1483,-1065.453"/>
<polygon fill="#000000" stroke="#000000" points="322.6361,-1065.7539 320.226,-1055.4368 315.6762,-1065.005 322.6361,-1065.7539"/>
<text text-anchor="middle" x="361" y="-1156.5584" font-family="Times,serif" font-size="20.00" fill="#000000">[NA]</text>
<text text-anchor="middle" x="361" y="-1134.5584" font-family="Times,serif" font-size="20.00" fill="#000000">57 levels</text>
</g>
<!-- SG_0_Node_3 -->
<g id="node6" class="node">
<title>SG_0_Node_3</title>
<polygon fill="none" stroke="#000000" points="287,-894.9188 145,-894.9188 145,-858.9188 287,-858.9188 287,-894.9188"/>
<text text-anchor="middle" x="216" y="-871.9188" font-family="Times,serif" font-size="20.00" fill="#000000">Status&#45;Code</text>
</g>
<!-- SG_0_Node_2&#45;&gt;SG_0_Node_3 -->
<g id="edge5" class="edge">
<title>SG_0_Node_2&#45;&gt;SG_0_Node_3</title>
<path fill="none" stroke="#000000" d="M297.5637,-1019.3198C292.1778,-1015.5205 286.4519,-1011.6116 281,-1008.132 259.0202,-994.1039 244.614,-1000.7268 230,-979.132 215.3345,-957.4611 212.8481,-927.2363 213.4163,-905.2782"/>
<polygon fill="#000000" stroke="#000000" points="216.9147,-905.3936 213.9007,-895.2366 209.9229,-905.0563 216.9147,-905.3936"/>
<text text-anchor="middle" x="364.5" y="-952.132" font-family="Times,serif" font-size="20.00" fill="#000000">ecocnt_audio=duration=1</text>
</g>
<!-- SG_0_Node_9 -->
<g id="node7" class="node">
<title>SG_0_Node_9</title>
<ellipse fill="none" stroke="#000000" cx="521" cy="-876.9188" rx="34.7971" ry="21.4286"/>
<text text-anchor="middle" x="521" y="-871.9188" font-family="Times,serif" font-size="20.00" fill="#000000">1.0</text>
</g>
<!-- SG_0_Node_2&#45;&gt;SG_0_Node_9 -->
<g id="edge6" class="edge">
<title>SG_0_Node_2&#45;&gt;SG_0_Node_9</title>
<path fill="none" stroke="#000000" d="M354.7696,-1030.6397C400.3755,-1020.6528 479.5843,-1000.7175 499,-979.132 516.1861,-960.0252 521.0918,-930.7899 522.0438,-908.4728"/>
<polygon fill="#000000" stroke="#000000" points="525.5434,-908.5219 522.2316,-898.458 518.5446,-908.3905 525.5434,-908.5219"/>
<text text-anchor="middle" x="564" y="-963.132" font-family="Times,serif" font-size="20.00" fill="#000000">[NA]</text>
<text text-anchor="middle" x="564" y="-941.132" font-family="Times,serif" font-size="20.00" fill="#000000">12 levels</text>
</g>
<!-- SG_0_Node_4 -->
<g id="node8" class="node">
<title>SG_0_Node_4</title>
<polygon fill="none" stroke="#000000" points="228.5,-624.4924 73.5,-624.4924 73.5,-588.4924 228.5,-588.4924 228.5,-624.4924"/>
<text text-anchor="middle" x="151" y="-601.4924" font-family="Times,serif" font-size="20.00" fill="#000000">Content&#45;Type</text>
</g>
<!-- SG_0_Node_3&#45;&gt;SG_0_Node_4 -->
<g id="edge7" class="edge">
<title>SG_0_Node_3&#45;&gt;SG_0_Node_4</title>
<path fill="none" stroke="#000000" d="M211.6342,-858.7555C200.51,-812.474 171.0405,-689.8689 157.7132,-634.422"/>
<polygon fill="#000000" stroke="#000000" points="161.087,-633.4818 155.3468,-624.5767 154.2808,-635.1178 161.087,-633.4818"/>
<text text-anchor="middle" x="220.5" y="-736.7056" font-family="Times,serif" font-size="20.00" fill="#000000">200</text>
</g>
<!-- SG_0_Node_10 -->
<g id="node9" class="node">
<title>SG_0_Node_10</title>
<ellipse fill="none" stroke="#000000" cx="281" cy="-606.4924" rx="34.7971" ry="21.4286"/>
<text text-anchor="middle" x="281" y="-601.4924" font-family="Times,serif" font-size="20.00" fill="#000000">1.0</text>
</g>
<!-- SG_0_Node_3&#45;&gt;SG_0_Node_10 -->
<g id="edge8" class="edge">
<title>SG_0_Node_3&#45;&gt;SG_0_Node_10</title>
<path fill="none" stroke="#000000" d="M226.2976,-858.841C232.2849,-847.6102 239.5117,-832.6946 244,-818.7056 264.0226,-756.3002 273.9708,-679.8889 278.2547,-637.891"/>
<polygon fill="#000000" stroke="#000000" points="281.7576,-638.0309 279.2475,-627.7377 274.7908,-637.3495 281.7576,-638.0309"/>
<text text-anchor="middle" x="321" y="-747.7056" font-family="Times,serif" font-size="20.00" fill="#000000">[NA]</text>
<text text-anchor="middle" x="321" y="-725.7056" font-family="Times,serif" font-size="20.00" fill="#000000">56 levels</text>
</g>
<!-- SG_0_Node_11 -->
<g id="node10" class="node">
<title>SG_0_Node_11</title>
<ellipse fill="none" stroke="#000000" cx="52" cy="-336.066" rx="34.7971" ry="21.4286"/>
<text text-anchor="middle" x="52" y="-331.066" font-family="Times,serif" font-size="20.00" fill="#000000">0.0</text>
</g>
<!-- SG_0_Node_4&#45;&gt;SG_0_Node_11 -->
<g id="edge9" class="edge">
<title>SG_0_Node_4&#45;&gt;SG_0_Node_11</title>
<path fill="none" stroke="#000000" d="M109.9894,-588.4764C93.43,-579.0004 75.9204,-565.6826 66,-548.2792 33.4827,-491.2342 39.3873,-411.0361 46.0243,-367.3812"/>
<polygon fill="#000000" stroke="#000000" points="49.503,-367.7949 47.6598,-357.3616 42.5945,-366.6671 49.503,-367.7949"/>
<text text-anchor="middle" x="177" y="-532.2792" font-family="Times,serif" font-size="20.00" fill="#000000">[NA]</text>
<text text-anchor="middle" x="177" y="-510.2792" font-family="Times,serif" font-size="20.00" fill="#000000">application/javascript</text>
<text text-anchor="middle" x="177" y="-488.2792" font-family="Times,serif" font-size="20.00" fill="#000000">audio/wav</text>
<text text-anchor="middle" x="177" y="-466.2792" font-family="Times,serif" font-size="20.00" fill="#000000">empty</text>
<text text-anchor="middle" x="177" y="-444.2792" font-family="Times,serif" font-size="20.00" fill="#000000">image/png</text>
<text text-anchor="middle" x="177" y="-422.2792" font-family="Times,serif" font-size="20.00" fill="#000000">text/css</text>
<text text-anchor="middle" x="177" y="-400.2792" font-family="Times,serif" font-size="20.00" fill="#000000">video/mp4</text>
</g>
<!-- SG_0_Node_5 -->
<g id="node11" class="node">
<title>SG_0_Node_5</title>
<polygon fill="none" stroke="#000000" points="441,-354.066 179,-354.066 179,-318.066 441,-318.066 441,-354.066"/>
<text text-anchor="middle" x="310" y="-331.066" font-family="Times,serif" font-size="20.00" fill="#000000">X&#45;Content&#45;Type&#45;Options</text>
</g>
<!-- SG_0_Node_4&#45;&gt;SG_0_Node_5 -->
<g id="edge10" class="edge">
<title>SG_0_Node_4&#45;&gt;SG_0_Node_5</title>
<path fill="none" stroke="#000000" d="M209.1578,-588.4066C241.7594,-577.0475 277.8668,-561.9991 288,-548.2792 328.4554,-493.5043 322.1519,-407.9594 315.3842,-364.0865"/>
<polygon fill="#000000" stroke="#000000" points="318.8206,-363.4146 313.7266,-354.1247 311.9155,-364.5636 318.8206,-363.4146"/>
<text text-anchor="middle" x="397" y="-477.2792" font-family="Times,serif" font-size="20.00" fill="#000000">application/pdf</text>
<text text-anchor="middle" x="397" y="-455.2792" font-family="Times,serif" font-size="20.00" fill="#000000">text/html</text>
</g>
<!-- SG_0_Node_6 -->
<g id="node12" class="node">
<title>SG_0_Node_6</title>
<polygon fill="none" stroke="#000000" points="261.5,-193.6396 106.5,-193.6396 106.5,-157.6396 261.5,-157.6396 261.5,-193.6396"/>
<text text-anchor="middle" x="184" y="-170.6396" font-family="Times,serif" font-size="20.00" fill="#000000">Content&#45;Type</text>
</g>
<!-- SG_0_Node_5&#45;&gt;SG_0_Node_6 -->
<g id="edge11" class="edge">
<title>SG_0_Node_5&#45;&gt;SG_0_Node_6</title>
<path fill="none" stroke="#000000" d="M285.2699,-317.8666C271.7746,-307.1695 255.351,-292.8334 243,-277.8528 223.8979,-254.6837 207.3307,-224.5437 196.6564,-203.0074"/>
<polygon fill="#000000" stroke="#000000" points="199.6914,-201.2444 192.1788,-193.7738 193.3929,-204.2988 199.6914,-201.2444"/>
<text text-anchor="middle" x="275" y="-250.8528" font-family="Times,serif" font-size="20.00" fill="#000000">empty</text>
</g>
<!-- SG_0_Node_12 -->
<g id="node13" class="node">
<title>SG_0_Node_12</title>
<ellipse fill="none" stroke="#000000" cx="314" cy="-175.6396" rx="34.7971" ry="21.4286"/>
<text text-anchor="middle" x="314" y="-170.6396" font-family="Times,serif" font-size="20.00" fill="#000000">1.0</text>
</g>
<!-- SG_0_Node_5&#45;&gt;SG_0_Node_12 -->
<g id="edge12" class="edge">
<title>SG_0_Node_5&#45;&gt;SG_0_Node_12</title>
<path fill="none" stroke="#000000" d="M310.4511,-317.9749C311.1222,-291.06 312.3927,-240.1015 313.2175,-207.0242"/>
<polygon fill="#000000" stroke="#000000" points="316.7178,-207.0505 313.4682,-196.9663 309.72,-206.8759 316.7178,-207.0505"/>
<text text-anchor="middle" x="347" y="-261.8528" font-family="Times,serif" font-size="20.00" fill="#000000">[NA]</text>
<text text-anchor="middle" x="347" y="-239.8528" font-family="Times,serif" font-size="20.00" fill="#000000">nosniff</text>
</g>
<!-- SG_0_Node_13 -->
<g id="node14" class="node">
<title>SG_0_Node_13</title>
<ellipse fill="none" stroke="#000000" cx="58" cy="-37.2132" rx="34.7971" ry="21.4286"/>
<text text-anchor="middle" x="58" y="-32.2132" font-family="Times,serif" font-size="20.00" fill="#000000">0.0</text>
</g>
<!-- SG_0_Node_6&#45;&gt;SG_0_Node_13 -->
<g id="edge13" class="edge">
<title>SG_0_Node_6&#45;&gt;SG_0_Node_13</title>
<path fill="none" stroke="#000000" d="M140.2151,-157.4811C121.655,-147.9132 101.1029,-134.5628 87,-117.4264 75.4987,-103.4511 68.3692,-84.5357 64.0587,-68.5832"/>
<polygon fill="#000000" stroke="#000000" points="67.3944,-67.4897 61.6155,-58.6097 60.5954,-69.1553 67.3944,-67.4897"/>
<text text-anchor="middle" x="134" y="-101.4264" font-family="Times,serif" font-size="20.00" fill="#000000">text/html</text>
</g>
<!-- SG_0_Node_14 -->
<g id="node15" class="node">
<title>SG_0_Node_14</title>
<ellipse fill="none" stroke="#000000" cx="188" cy="-37.2132" rx="34.7971" ry="21.4286"/>
<text text-anchor="middle" x="188" y="-32.2132" font-family="Times,serif" font-size="20.00" fill="#000000">1.0</text>
</g>
<!-- SG_0_Node_6&#45;&gt;SG_0_Node_14 -->
<g id="edge14" class="edge">
<title>SG_0_Node_6&#45;&gt;SG_0_Node_14</title>
<path fill="none" stroke="#000000" d="M184.5229,-157.5428C185.1735,-135.0281 186.2953,-96.2088 187.0885,-68.7578"/>
<polygon fill="#000000" stroke="#000000" points="190.5947,-68.5887 187.3851,-58.4917 183.5977,-68.3864 190.5947,-68.5887"/>
<text text-anchor="middle" x="263" y="-101.4264" font-family="Times,serif" font-size="20.00" fill="#000000">application/pdf</text>
</g>
<!-- SG_1_Node_0 -->
<g id="node16" class="node">
<title>SG_1_Node_0</title>
<polygon fill="none" stroke="#000000" points="1163.5,-1438.9848 846.5,-1438.9848 846.5,-1402.9848 1163.5,-1402.9848 1163.5,-1438.9848"/>
<text text-anchor="middle" x="1005" y="-1415.9848" font-family="Times,serif" font-size="20.00" fill="#000000">Cross&#45;Origin&#45;Resource&#45;Policy</text>
</g>
<!-- SG_1_Node_1 -->
<g id="node17" class="node">
<title>SG_1_Node_1</title>
<polygon fill="none" stroke="#000000" points="996,-1281.7716 854,-1281.7716 854,-1245.7716 996,-1245.7716 996,-1281.7716"/>
<text text-anchor="middle" x="925" y="-1258.7716" font-family="Times,serif" font-size="20.00" fill="#000000">Status&#45;Code</text>
</g>
<!-- SG_1_Node_0&#45;&gt;SG_1_Node_1 -->
<g id="edge15" class="edge">
<title>SG_1_Node_0&#45;&gt;SG_1_Node_1</title>
<path fill="none" stroke="#000000" d="M982.8931,-1402.8971C972.1396,-1393.02 959.8689,-1379.9681 952,-1365.9848 938.9867,-1342.8598 932.0605,-1313.2548 928.4965,-1291.8643"/>
<polygon fill="#000000" stroke="#000000" points="931.9292,-1291.1566 926.9649,-1281.7968 925.0088,-1292.2095 931.9292,-1291.1566"/>
<text text-anchor="middle" x="984" y="-1338.9848" font-family="Times,serif" font-size="20.00" fill="#000000">empty</text>
</g>
<!-- SG_1_Node_2 -->
<g id="node18" class="node">
<title>SG_1_Node_2</title>
<ellipse fill="none" stroke="#000000" cx="1049" cy="-1263.7716" rx="34.7971" ry="21.4286"/>
<text text-anchor="middle" x="1049" y="-1258.7716" font-family="Times,serif" font-size="20.00" fill="#000000">1.0</text>
</g>
<!-- SG_1_Node_0&#45;&gt;SG_1_Node_2 -->
<g id="edge16" class="edge">
<title>SG_1_Node_0&#45;&gt;SG_1_Node_2</title>
<path fill="none" stroke="#000000" d="M1010.0474,-1402.9505C1017.4412,-1376.5322 1031.3171,-1326.9533 1040.3551,-1294.6601"/>
<polygon fill="#000000" stroke="#000000" points="1043.7804,-1295.4072 1043.1052,-1284.8339 1037.0395,-1293.5205 1043.7804,-1295.4072"/>
<text text-anchor="middle" x="1093" y="-1349.9848" font-family="Times,serif" font-size="20.00" fill="#000000">[NA]</text>
<text text-anchor="middle" x="1093" y="-1327.9848" font-family="Times,serif" font-size="20.00" fill="#000000">same&#45;origin</text>
</g>
<!-- SG_1_Node_3 -->
<g id="node19" class="node">
<title>SG_1_Node_3</title>
<ellipse fill="none" stroke="#000000" cx="884" cy="-1037.3452" rx="34.7971" ry="21.4286"/>
<text text-anchor="middle" x="884" y="-1032.3452" font-family="Times,serif" font-size="20.00" fill="#000000">0.0</text>
</g>
<!-- SG_1_Node_1&#45;&gt;SG_1_Node_3 -->
<g id="edge17" class="edge">
<title>SG_1_Node_1&#45;&gt;SG_1_Node_3</title>
<path fill="none" stroke="#000000" d="M914.5086,-1245.5223C908.6092,-1234.3523 901.7045,-1219.5594 898,-1205.5584 885.724,-1159.1612 883.4252,-1103.2832 883.3621,-1069.0444"/>
<polygon fill="#000000" stroke="#000000" points="886.8634,-1068.744 883.4104,-1058.7277 879.8635,-1068.7111 886.8634,-1068.744"/>
<text text-anchor="middle" x="944" y="-1156.5584" font-family="Times,serif" font-size="20.00" fill="#000000">[NA]</text>
<text text-anchor="middle" x="944" y="-1134.5584" font-family="Times,serif" font-size="20.00" fill="#000000">57 levels</text>
</g>
<!-- SG_1_Node_4 -->
<g id="node20" class="node">
<title>SG_1_Node_4</title>
<ellipse fill="none" stroke="#000000" cx="1012" cy="-1037.3452" rx="34.7971" ry="21.4286"/>
<text text-anchor="middle" x="1012" y="-1032.3452" font-family="Times,serif" font-size="20.00" fill="#000000">1.0</text>
</g>
<!-- SG_1_Node_1&#45;&gt;SG_1_Node_4 -->
<g id="edge18" class="edge">
<title>SG_1_Node_1&#45;&gt;SG_1_Node_4</title>
<path fill="none" stroke="#000000" d="M953.3641,-1245.5545C966.7091,-1235.4345 981.5212,-1221.6385 990,-1205.5584 1012.8444,-1162.2339 1015.293,-1104.2143 1014.204,-1068.8734"/>
<polygon fill="#000000" stroke="#000000" points="1017.6922,-1068.5175 1013.7712,-1058.675 1010.6985,-1068.8144 1017.6922,-1068.5175"/>
<text text-anchor="middle" x="1033.5" y="-1189.5584" font-family="Times,serif" font-size="20.00" fill="#000000">100</text>
<text text-anchor="middle" x="1033.5" y="-1167.5584" font-family="Times,serif" font-size="20.00" fill="#000000">101</text>
<text text-anchor="middle" x="1033.5" y="-1145.5584" font-family="Times,serif" font-size="20.00" fill="#000000">102</text>
<text text-anchor="middle" x="1033.5" y="-1123.5584" font-family="Times,serif" font-size="20.00" fill="#000000">103</text>
<text text-anchor="middle" x="1033.5" y="-1101.5584" font-family="Times,serif" font-size="20.00" fill="#000000">407</text>
</g>
<!-- SG_2_Node_0 -->
<g id="node21" class="node">
<title>SG_2_Node_0</title>
<polygon fill="none" stroke="#000000" points="2617.5,-1438.9848 2552.5,-1438.9848 2552.5,-1402.9848 2617.5,-1402.9848 2617.5,-1438.9848"/>
<text text-anchor="middle" x="2585" y="-1415.9848" font-family="Times,serif" font-size="20.00" fill="#000000">body</text>
</g>
<!-- SG_2_Node_6 -->
<g id="node22" class="node">
<title>SG_2_Node_6</title>
<ellipse fill="none" stroke="#000000" cx="2521" cy="-1263.7716" rx="34.7971" ry="21.4286"/>
<text text-anchor="middle" x="2521" y="-1258.7716" font-family="Times,serif" font-size="20.00" fill="#000000">0.0</text>
</g>
<!-- SG_2_Node_0&#45;&gt;SG_2_Node_6 -->
<g id="edge19" class="edge">
<title>SG_2_Node_0&#45;&gt;SG_2_Node_6</title>
<path fill="none" stroke="#000000" d="M2563.2079,-1402.7894C2552.9493,-1392.9772 2541.5534,-1380.0153 2535,-1365.9848 2524.6725,-1343.8741 2521.3724,-1316.3458 2520.5448,-1295.4298"/>
<polygon fill="#000000" stroke="#000000" points="2524.0378,-1295.0771 2520.3133,-1285.1586 2517.0396,-1295.2349 2524.0378,-1295.0771"/>
<text text-anchor="middle" x="2581" y="-1349.9848" font-family="Times,serif" font-size="20.00" fill="#000000">[NA]</text>
<text text-anchor="middle" x="2581" y="-1327.9848" font-family="Times,serif" font-size="20.00" fill="#000000">12 levels</text>
</g>
<!-- SG_2_Node_1 -->
<g id="node23" class="node">
<title>SG_2_Node_1</title>
<polygon fill="none" stroke="#000000" points="2720,-1281.7716 2578,-1281.7716 2578,-1245.7716 2720,-1245.7716 2720,-1281.7716"/>
<text text-anchor="middle" x="2649" y="-1258.7716" font-family="Times,serif" font-size="20.00" fill="#000000">Status&#45;Code</text>
</g>
<!-- SG_2_Node_0&#45;&gt;SG_2_Node_1 -->
<g id="edge20" class="edge">
<title>SG_2_Node_0&#45;&gt;SG_2_Node_1</title>
<path fill="none" stroke="#000000" d="M2602.4302,-1402.4933C2611.0355,-1392.4103 2620.8619,-1379.2952 2627,-1365.9848 2637.9246,-1342.295 2643.5168,-1312.9895 2646.3207,-1291.84"/>
<polygon fill="#000000" stroke="#000000" points="2649.7988,-1292.231 2647.5154,-1281.8852 2642.8487,-1291.3969 2649.7988,-1292.231"/>
<text text-anchor="middle" x="2775.5" y="-1338.9848" font-family="Times,serif" font-size="20.00" fill="#000000">ecocnt_audio=duration=1</text>
</g>
<!-- SG_2_Node_7 -->
<g id="node24" class="node">
<title>SG_2_Node_7</title>
<ellipse fill="none" stroke="#000000" cx="2503" cy="-1037.3452" rx="34.7971" ry="21.4286"/>
<text text-anchor="middle" x="2503" y="-1032.3452" font-family="Times,serif" font-size="20.00" fill="#000000">0.0</text>
</g>
<!-- SG_2_Node_1&#45;&gt;SG_2_Node_7 -->
<g id="edge21" class="edge">
<title>SG_2_Node_1&#45;&gt;SG_2_Node_7</title>
<path fill="none" stroke="#000000" d="M2615.9249,-1245.75C2599.9679,-1235.6798 2581.6022,-1221.8693 2569,-1205.5584 2536.7919,-1163.8717 2518.4397,-1104.4963 2509.6241,-1068.5748"/>
<polygon fill="#000000" stroke="#000000" points="2512.9886,-1067.5928 2507.2881,-1058.6623 2506.1753,-1069.1985 2512.9886,-1067.5928"/>
<text text-anchor="middle" x="2615" y="-1156.5584" font-family="Times,serif" font-size="20.00" fill="#000000">[NA]</text>
<text text-anchor="middle" x="2615" y="-1134.5584" font-family="Times,serif" font-size="20.00" fill="#000000">61 levels</text>
</g>
<!-- SG_2_Node_2 -->
<g id="node25" class="node">
<title>SG_2_Node_2</title>
<polygon fill="none" stroke="#000000" points="2872.5,-1055.3452 2555.5,-1055.3452 2555.5,-1019.3452 2872.5,-1019.3452 2872.5,-1055.3452"/>
<text text-anchor="middle" x="2714" y="-1032.3452" font-family="Times,serif" font-size="20.00" fill="#000000">Cross&#45;Origin&#45;Resource&#45;Policy</text>
</g>
<!-- SG_2_Node_1&#45;&gt;SG_2_Node_2 -->
<g id="edge22" class="edge">
<title>SG_2_Node_1&#45;&gt;SG_2_Node_2</title>
<path fill="none" stroke="#000000" d="M2654.2093,-1245.625C2665.5243,-1206.2095 2692.4142,-1112.5389 2705.939,-1065.4254"/>
<polygon fill="#000000" stroke="#000000" points="2709.3707,-1066.1559 2708.7658,-1055.5783 2702.6424,-1064.2244 2709.3707,-1066.1559"/>
<text text-anchor="middle" x="2716.5" y="-1145.5584" font-family="Times,serif" font-size="20.00" fill="#000000">200</text>
</g>
<!-- SG_2_Node_8 -->
<g id="node26" class="node">
<title>SG_2_Node_8</title>
<ellipse fill="none" stroke="#000000" cx="2582" cy="-876.9188" rx="34.7971" ry="21.4286"/>
<text text-anchor="middle" x="2582" y="-871.9188" font-family="Times,serif" font-size="20.00" fill="#000000">0.0</text>
</g>
<!-- SG_2_Node_2&#45;&gt;SG_2_Node_8 -->
<g id="edge23" class="edge">
<title>SG_2_Node_2&#45;&gt;SG_2_Node_8</title>
<path fill="none" stroke="#000000" d="M2651.4483,-1019.3014C2631.0852,-1010.3994 2610.3189,-997.499 2597,-979.132 2582.2512,-958.7932 2579.1518,-930.1092 2579.369,-908.3021"/>
<polygon fill="#000000" stroke="#000000" points="2582.8701,-908.3271 2579.7056,-898.2159 2575.8739,-908.0936 2582.8701,-908.3271"/>
<text text-anchor="middle" x="2658" y="-952.132" font-family="Times,serif" font-size="20.00" fill="#000000">same&#45;origin</text>
</g>
<!-- SG_2_Node_3 -->
<g id="node27" class="node">
<title>SG_2_Node_3</title>
<polygon fill="none" stroke="#000000" points="2817.5,-894.9188 2662.5,-894.9188 2662.5,-858.9188 2817.5,-858.9188 2817.5,-894.9188"/>
<text text-anchor="middle" x="2740" y="-871.9188" font-family="Times,serif" font-size="20.00" fill="#000000">Content&#45;Type</text>
</g>
<!-- SG_2_Node_2&#45;&gt;SG_2_Node_3 -->
<g id="edge24" class="edge">
<title>SG_2_Node_2&#45;&gt;SG_2_Node_3</title>
<path fill="none" stroke="#000000" d="M2716.932,-1019.2541C2721.4378,-991.4519 2730.1016,-937.9947 2735.434,-905.0919"/>
<polygon fill="#000000" stroke="#000000" points="2738.8939,-905.6211 2737.0388,-895.19 2731.984,-904.5012 2738.8939,-905.6211"/>
<text text-anchor="middle" x="2762" y="-963.132" font-family="Times,serif" font-size="20.00" fill="#000000">[NA]</text>
<text text-anchor="middle" x="2762" y="-941.132" font-family="Times,serif" font-size="20.00" fill="#000000">empty</text>
</g>
<!-- SG_2_Node_4 -->
<g id="node28" class="node">
<title>SG_2_Node_4</title>
<polygon fill="none" stroke="#000000" points="2733,-624.4924 2471,-624.4924 2471,-588.4924 2733,-588.4924 2733,-624.4924"/>
<text text-anchor="middle" x="2602" y="-601.4924" font-family="Times,serif" font-size="20.00" fill="#000000">X&#45;Content&#45;Type&#45;Options</text>
</g>
<!-- SG_2_Node_3&#45;&gt;SG_2_Node_4 -->
<g id="edge25" class="edge">
<title>SG_2_Node_3&#45;&gt;SG_2_Node_4</title>
<path fill="none" stroke="#000000" d="M2662.1994,-861.6344C2638.8959,-853.0318 2615.873,-839.6145 2602,-818.7056 2564.6471,-762.4085 2580.808,-677.8738 2592.9826,-634.4437"/>
<polygon fill="#000000" stroke="#000000" points="2596.4203,-635.1592 2595.8806,-624.5782 2589.704,-633.1863 2596.4203,-635.1592"/>
<text text-anchor="middle" x="2679" y="-747.7056" font-family="Times,serif" font-size="20.00" fill="#000000">application/pdf</text>
<text text-anchor="middle" x="2679" y="-725.7056" font-family="Times,serif" font-size="20.00" fill="#000000">text/html</text>
</g>
<!-- SG_2_Node_9 -->
<g id="node29" class="node">
<title>SG_2_Node_9</title>
<ellipse fill="none" stroke="#000000" cx="2792" cy="-606.4924" rx="34.7971" ry="21.4286"/>
<text text-anchor="middle" x="2792" y="-601.4924" font-family="Times,serif" font-size="20.00" fill="#000000">1.0</text>
</g>
<!-- SG_2_Node_3&#45;&gt;SG_2_Node_9 -->
<g id="edge26" class="edge">
<title>SG_2_Node_3&#45;&gt;SG_2_Node_9</title>
<path fill="none" stroke="#000000" d="M2747.1685,-858.8194C2751.4304,-847.4552 2756.6429,-832.4062 2760,-818.7056 2775.4988,-755.4535 2784.7508,-679.6487 2789.0612,-637.9173"/>
<polygon fill="#000000" stroke="#000000" points="2792.5579,-638.1245 2790.0754,-627.8246 2785.593,-637.4245 2792.5579,-638.1245"/>
<text text-anchor="middle" x="2896" y="-802.7056" font-family="Times,serif" font-size="20.00" fill="#000000">[NA]</text>
<text text-anchor="middle" x="2896" y="-780.7056" font-family="Times,serif" font-size="20.00" fill="#000000">application/javascript</text>
<text text-anchor="middle" x="2896" y="-758.7056" font-family="Times,serif" font-size="20.00" fill="#000000">audio/wav</text>
<text text-anchor="middle" x="2896" y="-736.7056" font-family="Times,serif" font-size="20.00" fill="#000000">empty</text>
<text text-anchor="middle" x="2896" y="-714.7056" font-family="Times,serif" font-size="20.00" fill="#000000">image/png</text>
<text text-anchor="middle" x="2896" y="-692.7056" font-family="Times,serif" font-size="20.00" fill="#000000">text/css</text>
<text text-anchor="middle" x="2896" y="-670.7056" font-family="Times,serif" font-size="20.00" fill="#000000">video/mp4</text>
</g>
<!-- SG_2_Node_10 -->
<g id="node30" class="node">
<title>SG_2_Node_10</title>
<ellipse fill="none" stroke="#000000" cx="2507" cy="-336.066" rx="34.7971" ry="21.4286"/>
<text text-anchor="middle" x="2507" y="-331.066" font-family="Times,serif" font-size="20.00" fill="#000000">0.0</text>
</g>
<!-- SG_2_Node_4&#45;&gt;SG_2_Node_10 -->
<g id="edge27" class="edge">
<title>SG_2_Node_4&#45;&gt;SG_2_Node_10</title>
<path fill="none" stroke="#000000" d="M2572.7774,-588.4499C2559.0255,-578.3743 2543.7565,-564.5655 2535,-548.2792 2503.8513,-490.3456 2502.3902,-411.0763 2504.4547,-367.6694"/>
<polygon fill="#000000" stroke="#000000" points="2507.9629,-367.6248 2505.0397,-357.4412 2500.9743,-367.225 2507.9629,-367.6248"/>
<text text-anchor="middle" x="2570" y="-466.2792" font-family="Times,serif" font-size="20.00" fill="#000000">nosniff</text>
</g>
<!-- SG_2_Node_5 -->
<g id="node31" class="node">
<title>SG_2_Node_5</title>
<polygon fill="none" stroke="#000000" points="2714.5,-354.066 2559.5,-354.066 2559.5,-318.066 2714.5,-318.066 2714.5,-354.066"/>
<text text-anchor="middle" x="2637" y="-331.066" font-family="Times,serif" font-size="20.00" fill="#000000">Content&#45;Type</text>
</g>
<!-- SG_2_Node_4&#45;&gt;SG_2_Node_5 -->
<g id="edge28" class="edge">
<title>SG_2_Node_4&#45;&gt;SG_2_Node_5</title>
<path fill="none" stroke="#000000" d="M2604.3508,-588.3291C2610.3283,-542.1438 2626.143,-419.952 2633.3403,-364.3422"/>
<polygon fill="#000000" stroke="#000000" points="2636.8469,-364.5169 2634.6594,-354.1503 2629.9048,-363.6183 2636.8469,-364.5169"/>
<text text-anchor="middle" x="2661" y="-477.2792" font-family="Times,serif" font-size="20.00" fill="#000000">[NA]</text>
<text text-anchor="middle" x="2661" y="-455.2792" font-family="Times,serif" font-size="20.00" fill="#000000">empty</text>
</g>
<!-- SG_2_Node_11 -->
<g id="node32" class="node">
<title>SG_2_Node_11</title>
<ellipse fill="none" stroke="#000000" cx="2557" cy="-175.6396" rx="34.7971" ry="21.4286"/>
<text text-anchor="middle" x="2557" y="-170.6396" font-family="Times,serif" font-size="20.00" fill="#000000">0.0</text>
</g>
<!-- SG_2_Node_5&#45;&gt;SG_2_Node_11 -->
<g id="edge29" class="edge">
<title>SG_2_Node_5&#45;&gt;SG_2_Node_11</title>
<path fill="none" stroke="#000000" d="M2608.2442,-317.9158C2594.7053,-307.8128 2579.6619,-294.0119 2571,-277.8528 2559.3453,-256.1106 2556.1789,-228.1774 2555.7407,-207.0081"/>
<polygon fill="#000000" stroke="#000000" points="2559.2407,-206.9146 2555.7245,-196.9202 2552.2407,-206.9259 2559.2407,-206.9146"/>
<text text-anchor="middle" x="2648" y="-250.8528" font-family="Times,serif" font-size="20.00" fill="#000000">application/pdf</text>
</g>
<!-- SG_2_Node_12 -->
<g id="node33" class="node">
<title>SG_2_Node_12</title>
<ellipse fill="none" stroke="#000000" cx="2747" cy="-175.6396" rx="34.7971" ry="21.4286"/>
<text text-anchor="middle" x="2747" y="-170.6396" font-family="Times,serif" font-size="20.00" fill="#000000">1.0</text>
</g>
<!-- SG_2_Node_5&#45;&gt;SG_2_Node_12 -->
<g id="edge30" class="edge">
<title>SG_2_Node_5&#45;&gt;SG_2_Node_12</title>
<path fill="none" stroke="#000000" d="M2677.7713,-317.8673C2694.8123,-308.2916 2713.3262,-294.9463 2725,-277.8528 2739.1871,-257.0793 2744.4611,-228.8426 2746.3146,-207.311"/>
<polygon fill="#000000" stroke="#000000" points="2749.8262,-207.2478 2746.9876,-197.0403 2742.8412,-206.79 2749.8262,-207.2478"/>
<text text-anchor="middle" x="2789" y="-250.8528" font-family="Times,serif" font-size="20.00" fill="#000000">text/html</text>
</g>
</g>
</svg>
