<?xml version="1.0" encoding="UTF-8" standalone="no"?>
<!DOCTYPE svg PUBLIC "-//W3C//DTD SVG 1.1//EN"
 "http://www.w3.org/Graphics/SVG/1.1/DTD/svg11.dtd">
<!-- Generated by graphviz version 2.40.1 (20161225.0304)
 -->
<!-- Title: G Pages: 1 -->
<svg width="1124pt" height="1179pt"
 viewBox="0.00 0.00 1124.00 1178.56" xmlns="http://www.w3.org/2000/svg" xmlns:xlink="http://www.w3.org/1999/xlink">
<g id="graph0" class="graph" transform="scale(1 1) rotate(0) translate(4 1174.5584)">
<title>G</title>
<polygon fill="#ffffff" stroke="transparent" points="-4,4 -4,-1174.5584 1120,-1174.5584 1120,4 -4,4"/>
<g id="clust1" class="cluster">
<title>cluster_0</title>
<polygon fill="none" stroke="#000000" points="8,-8 8,-1162.5584 554,-1162.5584 554,-8 8,-8"/>
<text text-anchor="middle" x="281" y="-1126.5584" font-family="Times,serif" font-size="40.00" fill="#000000">Tree 0, Class {&#39;length&#39;: 0}</text>
</g>
<g id="clust9" class="cluster">
<title>cluster_1</title>
<polygon fill="none" stroke="#000000" points="562,-8 562,-1162.5584 1108,-1162.5584 1108,-8 562,-8"/>
<text text-anchor="middle" x="835" y="-1126.5584" font-family="Times,serif" font-size="40.00" fill="#000000">Tree 0, Class {&#39;length&#39;: 1}</text>
</g>
<!-- SG_0_Node_0 -->
<g id="node1" class="node">
<title>SG_0_Node_0</title>
<polygon fill="none" stroke="#000000" points="333.5,-1102.5584 268.5,-1102.5584 268.5,-1066.5584 333.5,-1066.5584 333.5,-1102.5584"/>
<text text-anchor="middle" x="301" y="-1079.5584" font-family="Times,serif" font-size="20.00" fill="#000000">body</text>
</g>
<!-- SG_0_Node_1 -->
<g id="node2" class="node">
<title>SG_0_Node_1</title>
<polygon fill="none" stroke="#000000" points="246,-945.3452 104,-945.3452 104,-909.3452 246,-909.3452 246,-945.3452"/>
<text text-anchor="middle" x="175" y="-922.3452" font-family="Times,serif" font-size="20.00" fill="#000000">Status&#45;Code</text>
</g>
<!-- SG_0_Node_0&#45;&gt;SG_0_Node_1 -->
<g id="edge1" class="edge">
<title>SG_0_Node_0&#45;&gt;SG_0_Node_1</title>
<path fill="none" stroke="#000000" d="M268.3288,-1081.746C235.4801,-1076.9803 186.4455,-1064.1417 163,-1029.5584 148.2193,-1007.7562 154.4415,-977.1682 162.3785,-955.1433"/>
<polygon fill="#000000" stroke="#000000" points="165.6934,-956.2766 166.0766,-945.6887 159.1743,-953.7267 165.6934,-956.2766"/>
<text text-anchor="middle" x="297.5" y="-1002.5584" font-family="Times,serif" font-size="20.00" fill="#000000">ecocnt_audio=duration=1</text>
</g>
<!-- SG_0_Node_6 -->
<g id="node3" class="node">
<title>SG_0_Node_6</title>
<ellipse fill="none" stroke="#000000" cx="454" cy="-927.3452" rx="34.7971" ry="21.4286"/>
<text text-anchor="middle" x="454" y="-922.3452" font-family="Times,serif" font-size="20.00" fill="#000000">1.0</text>
</g>
<!-- SG_0_Node_0&#45;&gt;SG_0_Node_6 -->
<g id="edge2" class="edge">
<title>SG_0_Node_0&#45;&gt;SG_0_Node_6</title>
<path fill="none" stroke="#000000" d="M333.5261,-1079.6149C363.6023,-1073.2945 407.2704,-1059.3603 432,-1029.5584 448.3365,-1009.8712 453.3533,-980.8811 454.5628,-958.7984"/>
<polygon fill="#000000" stroke="#000000" points="458.0679,-958.6887 454.8836,-948.5837 451.0713,-958.4689 458.0679,-958.6887"/>
<text text-anchor="middle" x="497" y="-1013.5584" font-family="Times,serif" font-size="20.00" fill="#000000">[NA]</text>
<text text-anchor="middle" x="497" y="-991.5584" font-family="Times,serif" font-size="20.00" fill="#000000">12 levels</text>
</g>
<!-- SG_0_Node_2 -->
<g id="node4" class="node">
<title>SG_0_Node_2</title>
<polygon fill="none" stroke="#000000" points="333.5,-784.9188 16.5,-784.9188 16.5,-748.9188 333.5,-748.9188 333.5,-784.9188"/>
<text text-anchor="middle" x="175" y="-761.9188" font-family="Times,serif" font-size="20.00" fill="#000000">Cross&#45;Origin&#45;Resource&#45;Policy</text>
</g>
<!-- SG_0_Node_1&#45;&gt;SG_0_Node_2 -->
<g id="edge3" class="edge">
<title>SG_0_Node_1&#45;&gt;SG_0_Node_2</title>
<path fill="none" stroke="#000000" d="M175,-909.2541C175,-881.5723 175,-828.457 175,-795.5203"/>
<polygon fill="#000000" stroke="#000000" points="178.5001,-795.1899 175,-785.19 171.5001,-795.19 178.5001,-795.1899"/>
<text text-anchor="middle" x="194.5" y="-842.132" font-family="Times,serif" font-size="20.00" fill="#000000">200</text>
</g>
<!-- SG_0_Node_7 -->
<g id="node5" class="node">
<title>SG_0_Node_7</title>
<ellipse fill="none" stroke="#000000" cx="386" cy="-766.9188" rx="34.7971" ry="21.4286"/>
<text text-anchor="middle" x="386" y="-761.9188" font-family="Times,serif" font-size="20.00" fill="#000000">1.0</text>
</g>
<!-- SG_0_Node_1&#45;&gt;SG_0_Node_7 -->
<g id="edge4" class="edge">
<title>SG_0_Node_1&#45;&gt;SG_0_Node_7</title>
<path fill="none" stroke="#000000" d="M198.7942,-909.2541C237.4929,-879.8309 313.9836,-821.674 356.2271,-789.5556"/>
<polygon fill="#000000" stroke="#000000" points="358.3558,-792.3339 364.1978,-783.4953 354.119,-786.7616 358.3558,-792.3339"/>
<text text-anchor="middle" x="354" y="-853.132" font-family="Times,serif" font-size="20.00" fill="#000000">[NA]</text>
<text text-anchor="middle" x="354" y="-831.132" font-family="Times,serif" font-size="20.00" fill="#000000">61 levels</text>
</g>
<!-- SG_0_Node_3 -->
<g id="node6" class="node">
<title>SG_0_Node_3</title>
<polygon fill="none" stroke="#000000" points="211.5,-624.4924 56.5,-624.4924 56.5,-588.4924 211.5,-588.4924 211.5,-624.4924"/>
<text text-anchor="middle" x="134" y="-601.4924" font-family="Times,serif" font-size="20.00" fill="#000000">Content&#45;Type</text>
</g>
<!-- SG_0_Node_2&#45;&gt;SG_0_Node_3 -->
<g id="edge5" class="edge">
<title>SG_0_Node_2&#45;&gt;SG_0_Node_3</title>
<path fill="none" stroke="#000000" d="M170.3765,-748.8277C163.2711,-721.0255 149.6091,-667.5683 141.2002,-634.6655"/>
<polygon fill="#000000" stroke="#000000" points="144.5367,-633.5855 138.6695,-624.7636 137.7547,-635.3188 144.5367,-633.5855"/>
<text text-anchor="middle" x="191" y="-681.7056" font-family="Times,serif" font-size="20.00" fill="#000000">empty</text>
</g>
<!-- SG_0_Node_8 -->
<g id="node7" class="node">
<title>SG_0_Node_8</title>
<ellipse fill="none" stroke="#000000" cx="264" cy="-606.4924" rx="34.7971" ry="21.4286"/>
<text text-anchor="middle" x="264" y="-601.4924" font-family="Times,serif" font-size="20.00" fill="#000000">1.0</text>
</g>
<!-- SG_0_Node_2&#45;&gt;SG_0_Node_8 -->
<g id="edge6" class="edge">
<title>SG_0_Node_2&#45;&gt;SG_0_Node_8</title>
<path fill="none" stroke="#000000" d="M194.5845,-748.728C205.3116,-737.9252 218.1782,-723.483 227,-708.7056 240.3845,-686.2855 250.1091,-658.2431 256.2202,-637.2048"/>
<polygon fill="#000000" stroke="#000000" points="259.6131,-638.0677 258.9302,-627.4949 252.8708,-636.1859 259.6131,-638.0677"/>
<text text-anchor="middle" x="308" y="-692.7056" font-family="Times,serif" font-size="20.00" fill="#000000">[NA]</text>
<text text-anchor="middle" x="308" y="-670.7056" font-family="Times,serif" font-size="20.00" fill="#000000">same&#45;origin</text>
</g>
<!-- SG_0_Node_9 -->
<g id="node8" class="node">
<title>SG_0_Node_9</title>
<ellipse fill="none" stroke="#000000" cx="51" cy="-336.066" rx="34.7971" ry="21.4286"/>
<text text-anchor="middle" x="51" y="-331.066" font-family="Times,serif" font-size="20.00" fill="#000000">0.0</text>
</g>
<!-- SG_0_Node_3&#45;&gt;SG_0_Node_9 -->
<g id="edge7" class="edge">
<title>SG_0_Node_3&#45;&gt;SG_0_Node_9</title>
<path fill="none" stroke="#000000" d="M102.7372,-588.3712C88.6533,-578.4429 73.3416,-564.7852 65,-548.2792 35.4606,-489.8278 40.1342,-410.4977 45.7914,-367.2822"/>
<polygon fill="#000000" stroke="#000000" points="49.2597,-367.7522 47.1922,-357.361 42.3284,-366.7735 49.2597,-367.7522"/>
<text text-anchor="middle" x="176" y="-532.2792" font-family="Times,serif" font-size="20.00" fill="#000000">[NA]</text>
<text text-anchor="middle" x="176" y="-510.2792" font-family="Times,serif" font-size="20.00" fill="#000000">application/javascript</text>
<text text-anchor="middle" x="176" y="-488.2792" font-family="Times,serif" font-size="20.00" fill="#000000">audio/wav</text>
<text text-anchor="middle" x="176" y="-466.2792" font-family="Times,serif" font-size="20.00" fill="#000000">empty</text>
<text text-anchor="middle" x="176" y="-444.2792" font-family="Times,serif" font-size="20.00" fill="#000000">image/png</text>
<text text-anchor="middle" x="176" y="-422.2792" font-family="Times,serif" font-size="20.00" fill="#000000">text/css</text>
<text text-anchor="middle" x="176" y="-400.2792" font-family="Times,serif" font-size="20.00" fill="#000000">video/mp4</text>
</g>
<!-- SG_0_Node_4 -->
<g id="node9" class="node">
<title>SG_0_Node_4</title>
<polygon fill="none" stroke="#000000" points="440,-354.066 178,-354.066 178,-318.066 440,-318.066 440,-354.066"/>
<text text-anchor="middle" x="309" y="-331.066" font-family="Times,serif" font-size="20.00" fill="#000000">X&#45;Content&#45;Type&#45;Options</text>
</g>
<!-- SG_0_Node_3&#45;&gt;SG_0_Node_4 -->
<g id="edge8" class="edge">
<title>SG_0_Node_3&#45;&gt;SG_0_Node_4</title>
<path fill="none" stroke="#000000" d="M201.3561,-588.4581C237.0669,-577.4817 275.8296,-562.8136 287,-548.2792 328.4951,-494.2876 321.738,-408.401 314.632,-364.2732"/>
<polygon fill="#000000" stroke="#000000" points="318.0512,-363.5058 312.894,-354.2508 311.1541,-364.7018 318.0512,-363.5058"/>
<text text-anchor="middle" x="396" y="-477.2792" font-family="Times,serif" font-size="20.00" fill="#000000">application/pdf</text>
<text text-anchor="middle" x="396" y="-455.2792" font-family="Times,serif" font-size="20.00" fill="#000000">text/html</text>
</g>
<!-- SG_0_Node_5 -->
<g id="node10" class="node">
<title>SG_0_Node_5</title>
<polygon fill="none" stroke="#000000" points="289.5,-193.6396 134.5,-193.6396 134.5,-157.6396 289.5,-157.6396 289.5,-193.6396"/>
<text text-anchor="middle" x="212" y="-170.6396" font-family="Times,serif" font-size="20.00" fill="#000000">Content&#45;Type</text>
</g>
<!-- SG_0_Node_4&#45;&gt;SG_0_Node_5 -->
<g id="edge9" class="edge">
<title>SG_0_Node_4&#45;&gt;SG_0_Node_5</title>
<path fill="none" stroke="#000000" d="M288.0358,-318.0129C276.5246,-307.2546 262.667,-292.8109 253,-277.8528 238.0169,-254.6689 226.8934,-225.1252 220.0416,-203.769"/>
<polygon fill="#000000" stroke="#000000" points="223.3209,-202.5262 217.0229,-194.0064 216.6333,-204.5941 223.3209,-202.5262"/>
<text text-anchor="middle" x="285" y="-250.8528" font-family="Times,serif" font-size="20.00" fill="#000000">empty</text>
</g>
<!-- SG_0_Node_10 -->
<g id="node11" class="node">
<title>SG_0_Node_10</title>
<ellipse fill="none" stroke="#000000" cx="342" cy="-175.6396" rx="34.7971" ry="21.4286"/>
<text text-anchor="middle" x="342" y="-170.6396" font-family="Times,serif" font-size="20.00" fill="#000000">1.0</text>
</g>
<!-- SG_0_Node_4&#45;&gt;SG_0_Node_10 -->
<g id="edge10" class="edge">
<title>SG_0_Node_4&#45;&gt;SG_0_Node_10</title>
<path fill="none" stroke="#000000" d="M312.7214,-317.9749C318.273,-290.986 328.7977,-239.8213 335.6001,-206.752"/>
<polygon fill="#000000" stroke="#000000" points="339.0802,-207.2048 337.6669,-196.7046 332.2238,-205.7944 339.0802,-207.2048"/>
<text text-anchor="middle" x="364" y="-261.8528" font-family="Times,serif" font-size="20.00" fill="#000000">[NA]</text>
<text text-anchor="middle" x="364" y="-239.8528" font-family="Times,serif" font-size="20.00" fill="#000000">nosniff</text>
</g>
<!-- SG_0_Node_11 -->
<g id="node12" class="node">
<title>SG_0_Node_11</title>
<ellipse fill="none" stroke="#000000" cx="115" cy="-37.2132" rx="34.7971" ry="21.4286"/>
<text text-anchor="middle" x="115" y="-32.2132" font-family="Times,serif" font-size="20.00" fill="#000000">0.0</text>
</g>
<!-- SG_0_Node_5&#45;&gt;SG_0_Node_11 -->
<g id="edge11" class="edge">
<title>SG_0_Node_5&#45;&gt;SG_0_Node_11</title>
<path fill="none" stroke="#000000" d="M173.0973,-157.5681C156.6287,-147.9496 138.7909,-134.5345 128,-117.4264 118.9496,-103.0778 115.5333,-84.5106 114.455,-68.8538"/>
<polygon fill="#000000" stroke="#000000" points="117.9404,-68.4184 114.0415,-58.5671 110.9461,-68.6997 117.9404,-68.4184"/>
<text text-anchor="middle" x="175" y="-101.4264" font-family="Times,serif" font-size="20.00" fill="#000000">text/html</text>
</g>
<!-- SG_0_Node_12 -->
<g id="node13" class="node">
<title>SG_0_Node_12</title>
<ellipse fill="none" stroke="#000000" cx="245" cy="-37.2132" rx="34.7971" ry="21.4286"/>
<text text-anchor="middle" x="245" y="-32.2132" font-family="Times,serif" font-size="20.00" fill="#000000">1.0</text>
</g>
<!-- SG_0_Node_5&#45;&gt;SG_0_Node_12 -->
<g id="edge12" class="edge">
<title>SG_0_Node_5&#45;&gt;SG_0_Node_12</title>
<path fill="none" stroke="#000000" d="M216.3142,-157.5428C221.7053,-134.9285 231.0178,-95.8649 237.5667,-68.3941"/>
<polygon fill="#000000" stroke="#000000" points="241.0129,-69.0308 239.9273,-58.4917 234.2037,-67.4075 241.0129,-69.0308"/>
<text text-anchor="middle" x="307" y="-101.4264" font-family="Times,serif" font-size="20.00" fill="#000000">application/pdf</text>
</g>
<!-- SG_1_Node_0 -->
<g id="node14" class="node">
<title>SG_1_Node_0</title>
<polygon fill="none" stroke="#000000" points="734.5,-1102.5584 669.5,-1102.5584 669.5,-1066.5584 734.5,-1066.5584 734.5,-1102.5584"/>
<text text-anchor="middle" x="702" y="-1079.5584" font-family="Times,serif" font-size="20.00" fill="#000000">body</text>
</g>
<!-- SG_1_Node_6 -->
<g id="node15" class="node">
<title>SG_1_Node_6</title>
<ellipse fill="none" stroke="#000000" cx="638" cy="-927.3452" rx="34.7971" ry="21.4286"/>
<text text-anchor="middle" x="638" y="-922.3452" font-family="Times,serif" font-size="20.00" fill="#000000">0.0</text>
</g>
<!-- SG_1_Node_0&#45;&gt;SG_1_Node_6 -->
<g id="edge13" class="edge">
<title>SG_1_Node_0&#45;&gt;SG_1_Node_6</title>
<path fill="none" stroke="#000000" d="M680.2079,-1066.363C669.9493,-1056.5508 658.5534,-1043.5889 652,-1029.5584 641.6725,-1007.4477 638.3724,-979.9193 637.5448,-959.0034"/>
<polygon fill="#000000" stroke="#000000" points="641.0378,-958.6507 637.3133,-948.7322 634.0396,-958.8085 641.0378,-958.6507"/>
<text text-anchor="middle" x="698" y="-1013.5584" font-family="Times,serif" font-size="20.00" fill="#000000">[NA]</text>
<text text-anchor="middle" x="698" y="-991.5584" font-family="Times,serif" font-size="20.00" fill="#000000">12 levels</text>
</g>
<!-- SG_1_Node_1 -->
<g id="node16" class="node">
<title>SG_1_Node_1</title>
<polygon fill="none" stroke="#000000" points="837,-945.3452 695,-945.3452 695,-909.3452 837,-909.3452 837,-945.3452"/>
<text text-anchor="middle" x="766" y="-922.3452" font-family="Times,serif" font-size="20.00" fill="#000000">Status&#45;Code</text>
</g>
<!-- SG_1_Node_0&#45;&gt;SG_1_Node_1 -->
<g id="edge14" class="edge">
<title>SG_1_Node_0&#45;&gt;SG_1_Node_1</title>
<path fill="none" stroke="#000000" d="M719.4302,-1066.0669C728.0355,-1055.9839 737.8619,-1042.8688 744,-1029.5584 754.9246,-1005.8686 760.5168,-976.5631 763.3207,-955.4136"/>
<polygon fill="#000000" stroke="#000000" points="766.7988,-955.8046 764.5154,-945.4588 759.8487,-954.9704 766.7988,-955.8046"/>
<text text-anchor="middle" x="892.5" y="-1002.5584" font-family="Times,serif" font-size="20.00" fill="#000000">ecocnt_audio=duration=1</text>
</g>
<!-- SG_1_Node_7 -->
<g id="node17" class="node">
<title>SG_1_Node_7</title>
<ellipse fill="none" stroke="#000000" cx="621" cy="-766.9188" rx="34.7971" ry="21.4286"/>
<text text-anchor="middle" x="621" y="-761.9188" font-family="Times,serif" font-size="20.00" fill="#000000">0.0</text>
</g>
<!-- SG_1_Node_1&#45;&gt;SG_1_Node_7 -->
<g id="edge15" class="edge">
<title>SG_1_Node_1&#45;&gt;SG_1_Node_7</title>
<path fill="none" stroke="#000000" d="M740.2412,-909.2173C725.8271,-898.4348 707.9979,-883.9919 694,-869.132 672.5436,-846.3544 652.2043,-816.9959 638.4716,-795.5914"/>
<polygon fill="#000000" stroke="#000000" points="641.3089,-793.5294 633.0067,-786.9473 635.3922,-797.2701 641.3089,-793.5294"/>
<text text-anchor="middle" x="740" y="-853.132" font-family="Times,serif" font-size="20.00" fill="#000000">[NA]</text>
<text text-anchor="middle" x="740" y="-831.132" font-family="Times,serif" font-size="20.00" fill="#000000">61 levels</text>
</g>
<!-- SG_1_Node_2 -->
<g id="node18" class="node">
<title>SG_1_Node_2</title>
<polygon fill="none" stroke="#000000" points="990.5,-784.9188 673.5,-784.9188 673.5,-748.9188 990.5,-748.9188 990.5,-784.9188"/>
<text text-anchor="middle" x="832" y="-761.9188" font-family="Times,serif" font-size="20.00" fill="#000000">Cross&#45;Origin&#45;Resource&#45;Policy</text>
</g>
<!-- SG_1_Node_1&#45;&gt;SG_1_Node_2 -->
<g id="edge16" class="edge">
<title>SG_1_Node_1&#45;&gt;SG_1_Node_2</title>
<path fill="none" stroke="#000000" d="M773.4427,-909.2541C784.9302,-881.3315 807.0638,-827.5314 820.5848,-794.6657"/>
<polygon fill="#000000" stroke="#000000" points="823.9153,-795.7696 824.4832,-785.19 817.4417,-793.1063 823.9153,-795.7696"/>
<text text-anchor="middle" x="826.5" y="-842.132" font-family="Times,serif" font-size="20.00" fill="#000000">200</text>
</g>
<!-- SG_1_Node_8 -->
<g id="node19" class="node">
<title>SG_1_Node_8</title>
<ellipse fill="none" stroke="#000000" cx="689" cy="-606.4924" rx="34.7971" ry="21.4286"/>
<text text-anchor="middle" x="689" y="-601.4924" font-family="Times,serif" font-size="20.00" fill="#000000">0.0</text>
</g>
<!-- SG_1_Node_2&#45;&gt;SG_1_Node_8 -->
<g id="edge17" class="edge">
<title>SG_1_Node_2&#45;&gt;SG_1_Node_8</title>
<path fill="none" stroke="#000000" d="M768.0345,-748.8146C747.0434,-739.9069 725.4248,-727.0184 711,-708.7056 695.2665,-688.7314 690.1641,-660.013 688.7694,-638.1"/>
<polygon fill="#000000" stroke="#000000" points="692.2603,-637.8052 688.3522,-627.9575 685.2662,-638.0929 692.2603,-637.8052"/>
<text text-anchor="middle" x="772" y="-681.7056" font-family="Times,serif" font-size="20.00" fill="#000000">same&#45;origin</text>
</g>
<!-- SG_1_Node_3 -->
<g id="node20" class="node">
<title>SG_1_Node_3</title>
<polygon fill="none" stroke="#000000" points="924.5,-624.4924 769.5,-624.4924 769.5,-588.4924 924.5,-588.4924 924.5,-624.4924"/>
<text text-anchor="middle" x="847" y="-601.4924" font-family="Times,serif" font-size="20.00" fill="#000000">Content&#45;Type</text>
</g>
<!-- SG_1_Node_2&#45;&gt;SG_1_Node_3 -->
<g id="edge18" class="edge">
<title>SG_1_Node_2&#45;&gt;SG_1_Node_3</title>
<path fill="none" stroke="#000000" d="M833.6915,-748.8277C836.2798,-721.1459 841.2461,-668.0306 844.3257,-635.0939"/>
<polygon fill="#000000" stroke="#000000" points="847.8454,-635.046 845.2916,-624.7636 840.8758,-634.3943 847.8454,-635.046"/>
<text text-anchor="middle" x="873" y="-692.7056" font-family="Times,serif" font-size="20.00" fill="#000000">[NA]</text>
<text text-anchor="middle" x="873" y="-670.7056" font-family="Times,serif" font-size="20.00" fill="#000000">empty</text>
</g>
<!-- SG_1_Node_4 -->
<g id="node21" class="node">
<title>SG_1_Node_4</title>
<polygon fill="none" stroke="#000000" points="832,-354.066 570,-354.066 570,-318.066 832,-318.066 832,-354.066"/>
<text text-anchor="middle" x="701" y="-331.066" font-family="Times,serif" font-size="20.00" fill="#000000">X&#45;Content&#45;Type&#45;Options</text>
</g>
<!-- SG_1_Node_3&#45;&gt;SG_1_Node_4 -->
<g id="edge19" class="edge">
<title>SG_1_Node_3&#45;&gt;SG_1_Node_4</title>
<path fill="none" stroke="#000000" d="M779.5742,-588.4499C744.599,-577.5846 707.099,-563.0313 697,-548.2792 658.7475,-492.4017 677.4747,-407.3938 691.0881,-363.871"/>
<polygon fill="#000000" stroke="#000000" points="694.4561,-364.8323 694.2317,-354.2398 687.8015,-362.6602 694.4561,-364.8323"/>
<text text-anchor="middle" x="774" y="-477.2792" font-family="Times,serif" font-size="20.00" fill="#000000">application/pdf</text>
<text text-anchor="middle" x="774" y="-455.2792" font-family="Times,serif" font-size="20.00" fill="#000000">text/html</text>
</g>
<!-- SG_1_Node_9 -->
<g id="node22" class="node">
<title>SG_1_Node_9</title>
<ellipse fill="none" stroke="#000000" cx="885" cy="-336.066" rx="34.7971" ry="21.4286"/>
<text text-anchor="middle" x="885" y="-331.066" font-family="Times,serif" font-size="20.00" fill="#000000">1.0</text>
</g>
<!-- SG_1_Node_3&#45;&gt;SG_1_Node_9 -->
<g id="edge20" class="edge">
<title>SG_1_Node_3&#45;&gt;SG_1_Node_9</title>
<path fill="none" stroke="#000000" d="M849.5523,-588.3291C855.915,-543.0489 872.5436,-424.7118 880.5566,-367.6871"/>
<polygon fill="#000000" stroke="#000000" points="884.0679,-367.8513 881.9935,-357.4615 877.136,-366.8772 884.0679,-367.8513"/>
<text text-anchor="middle" x="987" y="-532.2792" font-family="Times,serif" font-size="20.00" fill="#000000">[NA]</text>
<text text-anchor="middle" x="987" y="-510.2792" font-family="Times,serif" font-size="20.00" fill="#000000">application/javascript</text>
<text text-anchor="middle" x="987" y="-488.2792" font-family="Times,serif" font-size="20.00" fill="#000000">audio/wav</text>
<text text-anchor="middle" x="987" y="-466.2792" font-family="Times,serif" font-size="20.00" fill="#000000">empty</text>
<text text-anchor="middle" x="987" y="-444.2792" font-family="Times,serif" font-size="20.00" fill="#000000">image/png</text>
<text text-anchor="middle" x="987" y="-422.2792" font-family="Times,serif" font-size="20.00" fill="#000000">text/css</text>
<text text-anchor="middle" x="987" y="-400.2792" font-family="Times,serif" font-size="20.00" fill="#000000">video/mp4</text>
</g>
<!-- SG_1_Node_10 -->
<g id="node23" class="node">
<title>SG_1_Node_10</title>
<ellipse fill="none" stroke="#000000" cx="635" cy="-175.6396" rx="34.7971" ry="21.4286"/>
<text text-anchor="middle" x="635" y="-170.6396" font-family="Times,serif" font-size="20.00" fill="#000000">0.0</text>
</g>
<!-- SG_1_Node_4&#45;&gt;SG_1_Node_10 -->
<g id="edge21" class="edge">
<title>SG_1_Node_4&#45;&gt;SG_1_Node_10</title>
<path fill="none" stroke="#000000" d="M680.1348,-317.915C669.3653,-307.3377 657.0409,-293.1012 650,-277.8528 639.7557,-255.6668 636.167,-228.1433 635.0512,-207.2484"/>
<polygon fill="#000000" stroke="#000000" points="638.539,-206.8527 634.6709,-196.9893 631.5438,-207.1121 638.539,-206.8527"/>
<text text-anchor="middle" x="685" y="-250.8528" font-family="Times,serif" font-size="20.00" fill="#000000">nosniff</text>
</g>
<!-- SG_1_Node_5 -->
<g id="node24" class="node">
<title>SG_1_Node_5</title>
<polygon fill="none" stroke="#000000" points="842.5,-193.6396 687.5,-193.6396 687.5,-157.6396 842.5,-157.6396 842.5,-193.6396"/>
<text text-anchor="middle" x="765" y="-170.6396" font-family="Times,serif" font-size="20.00" fill="#000000">Content&#45;Type</text>
</g>
<!-- SG_1_Node_4&#45;&gt;SG_1_Node_5 -->
<g id="edge22" class="edge">
<title>SG_1_Node_4&#45;&gt;SG_1_Node_5</title>
<path fill="none" stroke="#000000" d="M708.2172,-317.9749C719.3566,-290.0523 740.8194,-236.2521 753.9307,-203.3865"/>
<polygon fill="#000000" stroke="#000000" points="757.2564,-204.4958 757.711,-193.9107 750.7547,-201.902 757.2564,-204.4958"/>
<text text-anchor="middle" x="773" y="-261.8528" font-family="Times,serif" font-size="20.00" fill="#000000">[NA]</text>
<text text-anchor="middle" x="773" y="-239.8528" font-family="Times,serif" font-size="20.00" fill="#000000">empty</text>
</g>
<!-- SG_1_Node_11 -->
<g id="node25" class="node">
<title>SG_1_Node_11</title>
<ellipse fill="none" stroke="#000000" cx="685" cy="-37.2132" rx="34.7971" ry="21.4286"/>
<text text-anchor="middle" x="685" y="-32.2132" font-family="Times,serif" font-size="20.00" fill="#000000">0.0</text>
</g>
<!-- SG_1_Node_5&#45;&gt;SG_1_Node_11 -->
<g id="edge23" class="edge">
<title>SG_1_Node_5&#45;&gt;SG_1_Node_11</title>
<path fill="none" stroke="#000000" d="M736.8303,-157.6053C723.27,-147.4445 708.0314,-133.5573 699,-117.4264 690.7516,-102.6941 687.1525,-84.2485 685.6597,-68.7612"/>
<polygon fill="#000000" stroke="#000000" points="689.1371,-68.3184 684.9316,-58.5939 682.155,-68.8185 689.1371,-68.3184"/>
<text text-anchor="middle" x="776" y="-101.4264" font-family="Times,serif" font-size="20.00" fill="#000000">application/pdf</text>
</g>
<!-- SG_1_Node_12 -->
<g id="node26" class="node">
<title>SG_1_Node_12</title>
<ellipse fill="none" stroke="#000000" cx="875" cy="-37.2132" rx="34.7971" ry="21.4286"/>
<text text-anchor="middle" x="875" y="-32.2132" font-family="Times,serif" font-size="20.00" fill="#000000">1.0</text>
</g>
<!-- SG_1_Node_5&#45;&gt;SG_1_Node_12 -->
<g id="edge24" class="edge">
<title>SG_1_Node_5&#45;&gt;SG_1_Node_12</title>
<path fill="none" stroke="#000000" d="M804.4314,-157.6387C821.6264,-147.9647 840.6399,-134.4849 853,-117.4264 863.3558,-103.1341 868.838,-84.2043 871.7396,-68.3234"/>
<polygon fill="#000000" stroke="#000000" points="875.203,-68.8294 873.299,-58.4071 868.2879,-67.7419 875.203,-68.8294"/>
<text text-anchor="middle" x="911" y="-101.4264" font-family="Times,serif" font-size="20.00" fill="#000000">text/html</text>
</g>
</g>
</svg>
