<?xml version="1.0" encoding="UTF-8" standalone="no"?>
<!DOCTYPE svg PUBLIC "-//W3C//DTD SVG 1.1//EN"
 "http://www.w3.org/Graphics/SVG/1.1/DTD/svg11.dtd">
<!-- Generated by graphviz version 2.40.1 (20161225.0304)
 -->
<!-- Title: G Pages: 1 -->
<svg width="2567pt" height="1179pt"
 viewBox="0.00 0.00 2567.00 1178.56" xmlns="http://www.w3.org/2000/svg" xmlns:xlink="http://www.w3.org/1999/xlink">
<g id="graph0" class="graph" transform="scale(1 1) rotate(0) translate(4 1174.5584)">
<title>G</title>
<polygon fill="#ffffff" stroke="transparent" points="-4,4 -4,-1174.5584 2563,-1174.5584 2563,4 -4,4"/>
<g id="clust1" class="cluster">
<title>cluster_0</title>
<polygon fill="none" stroke="#000000" points="8,-8 8,-1162.5584 687,-1162.5584 687,-8 8,-8"/>
<text text-anchor="middle" x="347.5" y="-1126.5584" font-family="Times,serif" font-size="40.00" fill="#000000">Tree 0, Class [&#39;loadstart&#39;, &#39;error&#39;]</text>
</g>
<g id="clust9" class="cluster">
<title>cluster_1</title>
<polygon fill="none" stroke="#000000" points="695,-8 695,-1162.5584 2551,-1162.5584 2551,-8 695,-8"/>
<text text-anchor="middle" x="1623" y="-1126.5584" font-family="Times,serif" font-size="40.00" fill="#000000">Tree 0, Class [&#39;loadstart&#39;, &#39;progress&#39;, &#39;suspend&#39;, &#39;durationchange&#39;, &#39;loadedmetadata&#39;, &#39;error&#39;]</text>
</g>
<!-- SG_0_Node_0 -->
<g id="node1" class="node">
<title>SG_0_Node_0</title>
<polygon fill="none" stroke="#000000" points="435.5,-1102.5584 370.5,-1102.5584 370.5,-1066.5584 435.5,-1066.5584 435.5,-1102.5584"/>
<text text-anchor="middle" x="403" y="-1079.5584" font-family="Times,serif" font-size="20.00" fill="#000000">body</text>
</g>
<!-- SG_0_Node_1 -->
<g id="node2" class="node">
<title>SG_0_Node_1</title>
<polygon fill="none" stroke="#000000" points="322,-945.3452 180,-945.3452 180,-909.3452 322,-909.3452 322,-945.3452"/>
<text text-anchor="middle" x="251" y="-922.3452" font-family="Times,serif" font-size="20.00" fill="#000000">Status&#45;Code</text>
</g>
<!-- SG_0_Node_0&#45;&gt;SG_0_Node_1 -->
<g id="edge1" class="edge">
<title>SG_0_Node_0&#45;&gt;SG_0_Node_1</title>
<path fill="none" stroke="#000000" d="M370.3626,-1080.9189C338.2727,-1075.5029 290.5048,-1062.1624 265,-1029.5584 248.7827,-1008.8272 246.5708,-978.2159 247.629,-955.8989"/>
<polygon fill="#000000" stroke="#000000" points="251.1368,-955.9147 248.3641,-945.6892 244.1549,-955.412 251.1368,-955.9147"/>
<text text-anchor="middle" x="399.5" y="-1002.5584" font-family="Times,serif" font-size="20.00" fill="#000000">ecocnt_audio=duration=1</text>
</g>
<!-- SG_0_Node_6 -->
<g id="node3" class="node">
<title>SG_0_Node_6</title>
<ellipse fill="none" stroke="#000000" cx="556" cy="-927.3452" rx="34.7971" ry="21.4286"/>
<text text-anchor="middle" x="556" y="-922.3452" font-family="Times,serif" font-size="20.00" fill="#000000">1.0</text>
</g>
<!-- SG_0_Node_0&#45;&gt;SG_0_Node_6 -->
<g id="edge2" class="edge">
<title>SG_0_Node_0&#45;&gt;SG_0_Node_6</title>
<path fill="none" stroke="#000000" d="M435.5261,-1079.6149C465.6023,-1073.2945 509.2704,-1059.3603 534,-1029.5584 550.3365,-1009.8712 555.3533,-980.8811 556.5628,-958.7984"/>
<polygon fill="#000000" stroke="#000000" points="560.0679,-958.6887 556.8836,-948.5837 553.0713,-958.4689 560.0679,-958.6887"/>
<text text-anchor="middle" x="599" y="-1013.5584" font-family="Times,serif" font-size="20.00" fill="#000000">[NA]</text>
<text text-anchor="middle" x="599" y="-991.5584" font-family="Times,serif" font-size="20.00" fill="#000000">12 levels</text>
</g>
<!-- SG_0_Node_2 -->
<g id="node4" class="node">
<title>SG_0_Node_2</title>
<polygon fill="none" stroke="#000000" points="342.5,-784.9188 25.5,-784.9188 25.5,-748.9188 342.5,-748.9188 342.5,-784.9188"/>
<text text-anchor="middle" x="184" y="-761.9188" font-family="Times,serif" font-size="20.00" fill="#000000">Cross&#45;Origin&#45;Resource&#45;Policy</text>
</g>
<!-- SG_0_Node_1&#45;&gt;SG_0_Node_2 -->
<g id="edge3" class="edge">
<title>SG_0_Node_1&#45;&gt;SG_0_Node_2</title>
<path fill="none" stroke="#000000" d="M243.4445,-909.2541C231.783,-881.3315 209.314,-827.5314 195.5881,-794.6657"/>
<polygon fill="#000000" stroke="#000000" points="198.7142,-793.0687 191.6307,-785.19 192.2549,-795.7664 198.7142,-793.0687"/>
<text text-anchor="middle" x="245.5" y="-842.132" font-family="Times,serif" font-size="20.00" fill="#000000">200</text>
</g>
<!-- SG_0_Node_7 -->
<g id="node5" class="node">
<title>SG_0_Node_7</title>
<ellipse fill="none" stroke="#000000" cx="395" cy="-766.9188" rx="34.7971" ry="21.4286"/>
<text text-anchor="middle" x="395" y="-761.9188" font-family="Times,serif" font-size="20.00" fill="#000000">1.0</text>
</g>
<!-- SG_0_Node_1&#45;&gt;SG_0_Node_7 -->
<g id="edge4" class="edge">
<title>SG_0_Node_1&#45;&gt;SG_0_Node_7</title>
<path fill="none" stroke="#000000" d="M267.2387,-909.2541C292.5988,-881.0012 341.7396,-826.2548 371.1332,-793.5081"/>
<polygon fill="#000000" stroke="#000000" points="374.079,-795.466 378.1542,-785.6862 368.8698,-790.7901 374.079,-795.466"/>
<text text-anchor="middle" x="387" y="-853.132" font-family="Times,serif" font-size="20.00" fill="#000000">[NA]</text>
<text text-anchor="middle" x="387" y="-831.132" font-family="Times,serif" font-size="20.00" fill="#000000">61 levels</text>
</g>
<!-- SG_0_Node_3 -->
<g id="node6" class="node">
<title>SG_0_Node_3</title>
<polygon fill="none" stroke="#000000" points="216.5,-624.4924 61.5,-624.4924 61.5,-588.4924 216.5,-588.4924 216.5,-624.4924"/>
<text text-anchor="middle" x="139" y="-601.4924" font-family="Times,serif" font-size="20.00" fill="#000000">Content&#45;Type</text>
</g>
<!-- SG_0_Node_2&#45;&gt;SG_0_Node_3 -->
<g id="edge5" class="edge">
<title>SG_0_Node_2&#45;&gt;SG_0_Node_3</title>
<path fill="none" stroke="#000000" d="M178.9254,-748.8277C171.1268,-721.0255 156.1319,-667.5683 146.9026,-634.6655"/>
<polygon fill="#000000" stroke="#000000" points="150.1959,-633.4466 144.1251,-624.7636 143.456,-635.3372 150.1959,-633.4466"/>
<text text-anchor="middle" x="199" y="-681.7056" font-family="Times,serif" font-size="20.00" fill="#000000">empty</text>
</g>
<!-- SG_0_Node_8 -->
<g id="node7" class="node">
<title>SG_0_Node_8</title>
<ellipse fill="none" stroke="#000000" cx="269" cy="-606.4924" rx="34.7971" ry="21.4286"/>
<text text-anchor="middle" x="269" y="-601.4924" font-family="Times,serif" font-size="20.00" fill="#000000">1.0</text>
</g>
<!-- SG_0_Node_2&#45;&gt;SG_0_Node_8 -->
<g id="edge6" class="edge">
<title>SG_0_Node_2&#45;&gt;SG_0_Node_8</title>
<path fill="none" stroke="#000000" d="M203.3367,-748.75C213.8991,-737.9543 226.5169,-723.5119 235,-708.7056 247.7252,-686.4953 256.5625,-658.8156 262.0316,-637.8644"/>
<polygon fill="#000000" stroke="#000000" points="265.4976,-638.4297 264.5176,-627.8803 258.705,-636.7383 265.4976,-638.4297"/>
<text text-anchor="middle" x="314" y="-692.7056" font-family="Times,serif" font-size="20.00" fill="#000000">[NA]</text>
<text text-anchor="middle" x="314" y="-670.7056" font-family="Times,serif" font-size="20.00" fill="#000000">same&#45;origin</text>
</g>
<!-- SG_0_Node_9 -->
<g id="node8" class="node">
<title>SG_0_Node_9</title>
<ellipse fill="none" stroke="#000000" cx="51" cy="-336.066" rx="34.7971" ry="21.4286"/>
<text text-anchor="middle" x="51" y="-331.066" font-family="Times,serif" font-size="20.00" fill="#000000">0.0</text>
</g>
<!-- SG_0_Node_3&#45;&gt;SG_0_Node_9 -->
<g id="edge7" class="edge">
<title>SG_0_Node_3&#45;&gt;SG_0_Node_9</title>
<path fill="none" stroke="#000000" d="M104.7443,-588.3547C89.8636,-578.5784 73.8409,-565.0533 65,-548.2792 34.3844,-490.1914 39.5486,-410.3994 45.5562,-367.0896"/>
<polygon fill="#000000" stroke="#000000" points="49.0246,-367.5605 47.0398,-357.1532 42.1013,-366.5267 49.0246,-367.5605"/>
<text text-anchor="middle" x="176" y="-532.2792" font-family="Times,serif" font-size="20.00" fill="#000000">[NA]</text>
<text text-anchor="middle" x="176" y="-510.2792" font-family="Times,serif" font-size="20.00" fill="#000000">application/javascript</text>
<text text-anchor="middle" x="176" y="-488.2792" font-family="Times,serif" font-size="20.00" fill="#000000">audio/wav</text>
<text text-anchor="middle" x="176" y="-466.2792" font-family="Times,serif" font-size="20.00" fill="#000000">empty</text>
<text text-anchor="middle" x="176" y="-444.2792" font-family="Times,serif" font-size="20.00" fill="#000000">image/png</text>
<text text-anchor="middle" x="176" y="-422.2792" font-family="Times,serif" font-size="20.00" fill="#000000">text/css</text>
<text text-anchor="middle" x="176" y="-400.2792" font-family="Times,serif" font-size="20.00" fill="#000000">video/mp4</text>
</g>
<!-- SG_0_Node_4 -->
<g id="node9" class="node">
<title>SG_0_Node_4</title>
<polygon fill="none" stroke="#000000" points="440,-354.066 178,-354.066 178,-318.066 440,-318.066 440,-354.066"/>
<text text-anchor="middle" x="309" y="-331.066" font-family="Times,serif" font-size="20.00" fill="#000000">X&#45;Content&#45;Type&#45;Options</text>
</g>
<!-- SG_0_Node_3&#45;&gt;SG_0_Node_4 -->
<g id="edge8" class="edge">
<title>SG_0_Node_3&#45;&gt;SG_0_Node_4</title>
<path fill="none" stroke="#000000" d="M203.3758,-588.4537C238.1478,-577.3583 276.1434,-562.57 287,-548.2792 328.1926,-494.0565 321.5675,-408.2707 314.5599,-364.2181"/>
<polygon fill="#000000" stroke="#000000" points="317.9843,-363.4787 312.8453,-354.2136 311.0849,-364.6612 317.9843,-363.4787"/>
<text text-anchor="middle" x="396" y="-477.2792" font-family="Times,serif" font-size="20.00" fill="#000000">application/pdf</text>
<text text-anchor="middle" x="396" y="-455.2792" font-family="Times,serif" font-size="20.00" fill="#000000">text/html</text>
</g>
<!-- SG_0_Node_5 -->
<g id="node10" class="node">
<title>SG_0_Node_5</title>
<polygon fill="none" stroke="#000000" points="289.5,-193.6396 134.5,-193.6396 134.5,-157.6396 289.5,-157.6396 289.5,-193.6396"/>
<text text-anchor="middle" x="212" y="-170.6396" font-family="Times,serif" font-size="20.00" fill="#000000">Content&#45;Type</text>
</g>
<!-- SG_0_Node_4&#45;&gt;SG_0_Node_5 -->
<g id="edge9" class="edge">
<title>SG_0_Node_4&#45;&gt;SG_0_Node_5</title>
<path fill="none" stroke="#000000" d="M288.0358,-318.0129C276.5246,-307.2546 262.667,-292.8109 253,-277.8528 238.0169,-254.6689 226.8934,-225.1252 220.0416,-203.769"/>
<polygon fill="#000000" stroke="#000000" points="223.3209,-202.5262 217.0229,-194.0064 216.6333,-204.5941 223.3209,-202.5262"/>
<text text-anchor="middle" x="285" y="-250.8528" font-family="Times,serif" font-size="20.00" fill="#000000">empty</text>
</g>
<!-- SG_0_Node_10 -->
<g id="node11" class="node">
<title>SG_0_Node_10</title>
<ellipse fill="none" stroke="#000000" cx="342" cy="-175.6396" rx="34.7971" ry="21.4286"/>
<text text-anchor="middle" x="342" y="-170.6396" font-family="Times,serif" font-size="20.00" fill="#000000">1.0</text>
</g>
<!-- SG_0_Node_4&#45;&gt;SG_0_Node_10 -->
<g id="edge10" class="edge">
<title>SG_0_Node_4&#45;&gt;SG_0_Node_10</title>
<path fill="none" stroke="#000000" d="M312.7214,-317.9749C318.273,-290.986 328.7977,-239.8213 335.6001,-206.752"/>
<polygon fill="#000000" stroke="#000000" points="339.0802,-207.2048 337.6669,-196.7046 332.2238,-205.7944 339.0802,-207.2048"/>
<text text-anchor="middle" x="364" y="-261.8528" font-family="Times,serif" font-size="20.00" fill="#000000">[NA]</text>
<text text-anchor="middle" x="364" y="-239.8528" font-family="Times,serif" font-size="20.00" fill="#000000">nosniff</text>
</g>
<!-- SG_0_Node_11 -->
<g id="node12" class="node">
<title>SG_0_Node_11</title>
<ellipse fill="none" stroke="#000000" cx="115" cy="-37.2132" rx="34.7971" ry="21.4286"/>
<text text-anchor="middle" x="115" y="-32.2132" font-family="Times,serif" font-size="20.00" fill="#000000">0.0</text>
</g>
<!-- SG_0_Node_5&#45;&gt;SG_0_Node_11 -->
<g id="edge11" class="edge">
<title>SG_0_Node_5&#45;&gt;SG_0_Node_11</title>
<path fill="none" stroke="#000000" d="M173.0973,-157.5681C156.6287,-147.9496 138.7909,-134.5345 128,-117.4264 118.9496,-103.0778 115.5333,-84.5106 114.455,-68.8538"/>
<polygon fill="#000000" stroke="#000000" points="117.9404,-68.4184 114.0415,-58.5671 110.9461,-68.6997 117.9404,-68.4184"/>
<text text-anchor="middle" x="175" y="-101.4264" font-family="Times,serif" font-size="20.00" fill="#000000">text/html</text>
</g>
<!-- SG_0_Node_12 -->
<g id="node13" class="node">
<title>SG_0_Node_12</title>
<ellipse fill="none" stroke="#000000" cx="245" cy="-37.2132" rx="34.7971" ry="21.4286"/>
<text text-anchor="middle" x="245" y="-32.2132" font-family="Times,serif" font-size="20.00" fill="#000000">1.0</text>
</g>
<!-- SG_0_Node_5&#45;&gt;SG_0_Node_12 -->
<g id="edge12" class="edge">
<title>SG_0_Node_5&#45;&gt;SG_0_Node_12</title>
<path fill="none" stroke="#000000" d="M216.3142,-157.5428C221.7053,-134.9285 231.0178,-95.8649 237.5667,-68.3941"/>
<polygon fill="#000000" stroke="#000000" points="241.0129,-69.0308 239.9273,-58.4917 234.2037,-67.4075 241.0129,-69.0308"/>
<text text-anchor="middle" x="307" y="-101.4264" font-family="Times,serif" font-size="20.00" fill="#000000">application/pdf</text>
</g>
<!-- SG_1_Node_0 -->
<g id="node14" class="node">
<title>SG_1_Node_0</title>
<polygon fill="none" stroke="#000000" points="878.5,-1102.5584 813.5,-1102.5584 813.5,-1066.5584 878.5,-1066.5584 878.5,-1102.5584"/>
<text text-anchor="middle" x="846" y="-1079.5584" font-family="Times,serif" font-size="20.00" fill="#000000">body</text>
</g>
<!-- SG_1_Node_6 -->
<g id="node15" class="node">
<title>SG_1_Node_6</title>
<ellipse fill="none" stroke="#000000" cx="782" cy="-927.3452" rx="34.7971" ry="21.4286"/>
<text text-anchor="middle" x="782" y="-922.3452" font-family="Times,serif" font-size="20.00" fill="#000000">0.0</text>
</g>
<!-- SG_1_Node_0&#45;&gt;SG_1_Node_6 -->
<g id="edge13" class="edge">
<title>SG_1_Node_0&#45;&gt;SG_1_Node_6</title>
<path fill="none" stroke="#000000" d="M824.2079,-1066.363C813.9493,-1056.5508 802.5534,-1043.5889 796,-1029.5584 785.6725,-1007.4477 782.3724,-979.9193 781.5448,-959.0034"/>
<polygon fill="#000000" stroke="#000000" points="785.0378,-958.6507 781.3133,-948.7322 778.0396,-958.8085 785.0378,-958.6507"/>
<text text-anchor="middle" x="842" y="-1013.5584" font-family="Times,serif" font-size="20.00" fill="#000000">[NA]</text>
<text text-anchor="middle" x="842" y="-991.5584" font-family="Times,serif" font-size="20.00" fill="#000000">12 levels</text>
</g>
<!-- SG_1_Node_1 -->
<g id="node16" class="node">
<title>SG_1_Node_1</title>
<polygon fill="none" stroke="#000000" points="981,-945.3452 839,-945.3452 839,-909.3452 981,-909.3452 981,-945.3452"/>
<text text-anchor="middle" x="910" y="-922.3452" font-family="Times,serif" font-size="20.00" fill="#000000">Status&#45;Code</text>
</g>
<!-- SG_1_Node_0&#45;&gt;SG_1_Node_1 -->
<g id="edge14" class="edge">
<title>SG_1_Node_0&#45;&gt;SG_1_Node_1</title>
<path fill="none" stroke="#000000" d="M863.4302,-1066.0669C872.0355,-1055.9839 881.8619,-1042.8688 888,-1029.5584 898.9246,-1005.8686 904.5168,-976.5631 907.3207,-955.4136"/>
<polygon fill="#000000" stroke="#000000" points="910.7988,-955.8046 908.5154,-945.4588 903.8487,-954.9704 910.7988,-955.8046"/>
<text text-anchor="middle" x="1036.5" y="-1002.5584" font-family="Times,serif" font-size="20.00" fill="#000000">ecocnt_audio=duration=1</text>
</g>
<!-- SG_1_Node_7 -->
<g id="node17" class="node">
<title>SG_1_Node_7</title>
<ellipse fill="none" stroke="#000000" cx="764" cy="-766.9188" rx="34.7971" ry="21.4286"/>
<text text-anchor="middle" x="764" y="-761.9188" font-family="Times,serif" font-size="20.00" fill="#000000">0.0</text>
</g>
<!-- SG_1_Node_1&#45;&gt;SG_1_Node_7 -->
<g id="edge15" class="edge">
<title>SG_1_Node_1&#45;&gt;SG_1_Node_7</title>
<path fill="none" stroke="#000000" d="M883.8635,-909.2764C869.2428,-898.513 851.1662,-884.0695 837,-869.132 815.4671,-846.4267 795.137,-817.0595 781.4273,-795.6333"/>
<polygon fill="#000000" stroke="#000000" points="784.2659,-793.5729 775.9728,-786.9794 778.344,-797.3055 784.2659,-793.5729"/>
<text text-anchor="middle" x="883" y="-853.132" font-family="Times,serif" font-size="20.00" fill="#000000">[NA]</text>
<text text-anchor="middle" x="883" y="-831.132" font-family="Times,serif" font-size="20.00" fill="#000000">61 levels</text>
</g>
<!-- SG_1_Node_2 -->
<g id="node18" class="node">
<title>SG_1_Node_2</title>
<polygon fill="none" stroke="#000000" points="1133.5,-784.9188 816.5,-784.9188 816.5,-748.9188 1133.5,-748.9188 1133.5,-784.9188"/>
<text text-anchor="middle" x="975" y="-761.9188" font-family="Times,serif" font-size="20.00" fill="#000000">Cross&#45;Origin&#45;Resource&#45;Policy</text>
</g>
<!-- SG_1_Node_1&#45;&gt;SG_1_Node_2 -->
<g id="edge16" class="edge">
<title>SG_1_Node_1&#45;&gt;SG_1_Node_2</title>
<path fill="none" stroke="#000000" d="M917.33,-909.2541C928.6434,-881.3315 950.4416,-827.5314 963.7578,-794.6657"/>
<polygon fill="#000000" stroke="#000000" points="967.0857,-795.7725 967.5971,-785.19 960.598,-793.1438 967.0857,-795.7725"/>
<text text-anchor="middle" x="970.5" y="-842.132" font-family="Times,serif" font-size="20.00" fill="#000000">200</text>
</g>
<!-- SG_1_Node_8 -->
<g id="node19" class="node">
<title>SG_1_Node_8</title>
<ellipse fill="none" stroke="#000000" cx="843" cy="-606.4924" rx="34.7971" ry="21.4286"/>
<text text-anchor="middle" x="843" y="-601.4924" font-family="Times,serif" font-size="20.00" fill="#000000">0.0</text>
</g>
<!-- SG_1_Node_2&#45;&gt;SG_1_Node_8 -->
<g id="edge17" class="edge">
<title>SG_1_Node_2&#45;&gt;SG_1_Node_8</title>
<path fill="none" stroke="#000000" d="M912.4483,-748.875C892.0852,-739.973 871.3189,-727.0726 858,-708.7056 843.2512,-688.3668 840.1518,-659.6827 840.369,-637.8757"/>
<polygon fill="#000000" stroke="#000000" points="843.8701,-637.9007 840.7056,-627.7895 836.8739,-637.6672 843.8701,-637.9007"/>
<text text-anchor="middle" x="919" y="-681.7056" font-family="Times,serif" font-size="20.00" fill="#000000">same&#45;origin</text>
</g>
<!-- SG_1_Node_3 -->
<g id="node20" class="node">
<title>SG_1_Node_3</title>
<polygon fill="none" stroke="#000000" points="1078.5,-624.4924 923.5,-624.4924 923.5,-588.4924 1078.5,-588.4924 1078.5,-624.4924"/>
<text text-anchor="middle" x="1001" y="-601.4924" font-family="Times,serif" font-size="20.00" fill="#000000">Content&#45;Type</text>
</g>
<!-- SG_1_Node_2&#45;&gt;SG_1_Node_3 -->
<g id="edge18" class="edge">
<title>SG_1_Node_2&#45;&gt;SG_1_Node_3</title>
<path fill="none" stroke="#000000" d="M977.932,-748.8277C982.4378,-721.0255 991.1016,-667.5683 996.434,-634.6655"/>
<polygon fill="#000000" stroke="#000000" points="999.8939,-635.1947 998.0388,-624.7636 992.984,-634.0748 999.8939,-635.1947"/>
<text text-anchor="middle" x="1023" y="-692.7056" font-family="Times,serif" font-size="20.00" fill="#000000">[NA]</text>
<text text-anchor="middle" x="1023" y="-670.7056" font-family="Times,serif" font-size="20.00" fill="#000000">empty</text>
</g>
<!-- SG_1_Node_4 -->
<g id="node21" class="node">
<title>SG_1_Node_4</title>
<polygon fill="none" stroke="#000000" points="994,-354.066 732,-354.066 732,-318.066 994,-318.066 994,-354.066"/>
<text text-anchor="middle" x="863" y="-331.066" font-family="Times,serif" font-size="20.00" fill="#000000">X&#45;Content&#45;Type&#45;Options</text>
</g>
<!-- SG_1_Node_3&#45;&gt;SG_1_Node_4 -->
<g id="edge19" class="edge">
<title>SG_1_Node_3&#45;&gt;SG_1_Node_4</title>
<path fill="none" stroke="#000000" d="M923.1994,-591.208C899.8959,-582.6054 876.873,-569.1881 863,-548.2792 825.6471,-491.9821 841.808,-407.4474 853.9826,-364.0173"/>
<polygon fill="#000000" stroke="#000000" points="857.4203,-364.7328 856.8806,-354.1517 850.704,-362.7599 857.4203,-364.7328"/>
<text text-anchor="middle" x="940" y="-477.2792" font-family="Times,serif" font-size="20.00" fill="#000000">application/pdf</text>
<text text-anchor="middle" x="940" y="-455.2792" font-family="Times,serif" font-size="20.00" fill="#000000">text/html</text>
</g>
<!-- SG_1_Node_9 -->
<g id="node22" class="node">
<title>SG_1_Node_9</title>
<ellipse fill="none" stroke="#000000" cx="1053" cy="-336.066" rx="34.7971" ry="21.4286"/>
<text text-anchor="middle" x="1053" y="-331.066" font-family="Times,serif" font-size="20.00" fill="#000000">1.0</text>
</g>
<!-- SG_1_Node_3&#45;&gt;SG_1_Node_9 -->
<g id="edge20" class="edge">
<title>SG_1_Node_3&#45;&gt;SG_1_Node_9</title>
<path fill="none" stroke="#000000" d="M1008.1685,-588.393C1012.4304,-577.0288 1017.6429,-561.9798 1021,-548.2792 1036.4988,-485.027 1045.7508,-409.2223 1050.0612,-367.4909"/>
<polygon fill="#000000" stroke="#000000" points="1053.5579,-367.6981 1051.0754,-357.3982 1046.593,-366.9981 1053.5579,-367.6981"/>
<text text-anchor="middle" x="1157" y="-532.2792" font-family="Times,serif" font-size="20.00" fill="#000000">[NA]</text>
<text text-anchor="middle" x="1157" y="-510.2792" font-family="Times,serif" font-size="20.00" fill="#000000">application/javascript</text>
<text text-anchor="middle" x="1157" y="-488.2792" font-family="Times,serif" font-size="20.00" fill="#000000">audio/wav</text>
<text text-anchor="middle" x="1157" y="-466.2792" font-family="Times,serif" font-size="20.00" fill="#000000">empty</text>
<text text-anchor="middle" x="1157" y="-444.2792" font-family="Times,serif" font-size="20.00" fill="#000000">image/png</text>
<text text-anchor="middle" x="1157" y="-422.2792" font-family="Times,serif" font-size="20.00" fill="#000000">text/css</text>
<text text-anchor="middle" x="1157" y="-400.2792" font-family="Times,serif" font-size="20.00" fill="#000000">video/mp4</text>
</g>
<!-- SG_1_Node_10 -->
<g id="node23" class="node">
<title>SG_1_Node_10</title>
<ellipse fill="none" stroke="#000000" cx="768" cy="-175.6396" rx="34.7971" ry="21.4286"/>
<text text-anchor="middle" x="768" y="-170.6396" font-family="Times,serif" font-size="20.00" fill="#000000">0.0</text>
</g>
<!-- SG_1_Node_4&#45;&gt;SG_1_Node_10 -->
<g id="edge21" class="edge">
<title>SG_1_Node_4&#45;&gt;SG_1_Node_10</title>
<path fill="none" stroke="#000000" d="M838.3609,-317.9322C825.6488,-307.4612 810.7963,-293.32 801,-277.8528 787.1951,-256.0565 778.6729,-227.9637 773.7557,-206.7472"/>
<polygon fill="#000000" stroke="#000000" points="777.1686,-205.9702 771.624,-196.942 770.3284,-207.4573 777.1686,-205.9702"/>
<text text-anchor="middle" x="836" y="-250.8528" font-family="Times,serif" font-size="20.00" fill="#000000">nosniff</text>
</g>
<!-- SG_1_Node_5 -->
<g id="node24" class="node">
<title>SG_1_Node_5</title>
<polygon fill="none" stroke="#000000" points="975.5,-193.6396 820.5,-193.6396 820.5,-157.6396 975.5,-157.6396 975.5,-193.6396"/>
<text text-anchor="middle" x="898" y="-170.6396" font-family="Times,serif" font-size="20.00" fill="#000000">Content&#45;Type</text>
</g>
<!-- SG_1_Node_4&#45;&gt;SG_1_Node_5 -->
<g id="edge22" class="edge">
<title>SG_1_Node_4&#45;&gt;SG_1_Node_5</title>
<path fill="none" stroke="#000000" d="M866.9469,-317.9749C873.0125,-290.1727 884.6752,-236.7154 891.8535,-203.8126"/>
<polygon fill="#000000" stroke="#000000" points="895.3018,-204.427 894.0138,-193.9107 888.4626,-202.9349 895.3018,-204.427"/>
<text text-anchor="middle" x="917" y="-261.8528" font-family="Times,serif" font-size="20.00" fill="#000000">[NA]</text>
<text text-anchor="middle" x="917" y="-239.8528" font-family="Times,serif" font-size="20.00" fill="#000000">empty</text>
</g>
<!-- SG_1_Node_11 -->
<g id="node25" class="node">
<title>SG_1_Node_11</title>
<ellipse fill="none" stroke="#000000" cx="818" cy="-37.2132" rx="34.7971" ry="21.4286"/>
<text text-anchor="middle" x="818" y="-32.2132" font-family="Times,serif" font-size="20.00" fill="#000000">0.0</text>
</g>
<!-- SG_1_Node_5&#45;&gt;SG_1_Node_11 -->
<g id="edge23" class="edge">
<title>SG_1_Node_5&#45;&gt;SG_1_Node_11</title>
<path fill="none" stroke="#000000" d="M869.8303,-157.6053C856.27,-147.4445 841.0314,-133.5573 832,-117.4264 823.7516,-102.6941 820.1525,-84.2485 818.6597,-68.7612"/>
<polygon fill="#000000" stroke="#000000" points="822.1371,-68.3184 817.9316,-58.5939 815.155,-68.8185 822.1371,-68.3184"/>
<text text-anchor="middle" x="909" y="-101.4264" font-family="Times,serif" font-size="20.00" fill="#000000">application/pdf</text>
</g>
<!-- SG_1_Node_12 -->
<g id="node26" class="node">
<title>SG_1_Node_12</title>
<ellipse fill="none" stroke="#000000" cx="1008" cy="-37.2132" rx="34.7971" ry="21.4286"/>
<text text-anchor="middle" x="1008" y="-32.2132" font-family="Times,serif" font-size="20.00" fill="#000000">1.0</text>
</g>
<!-- SG_1_Node_5&#45;&gt;SG_1_Node_12 -->
<g id="edge24" class="edge">
<title>SG_1_Node_5&#45;&gt;SG_1_Node_12</title>
<path fill="none" stroke="#000000" d="M937.4314,-157.6387C954.6264,-147.9647 973.6399,-134.4849 986,-117.4264 996.3558,-103.1341 1001.838,-84.2043 1004.7396,-68.3234"/>
<polygon fill="#000000" stroke="#000000" points="1008.203,-68.8294 1006.299,-58.4071 1001.2879,-67.7419 1008.203,-68.8294"/>
<text text-anchor="middle" x="1044" y="-101.4264" font-family="Times,serif" font-size="20.00" fill="#000000">text/html</text>
</g>
</g>
</svg>
