<?xml version="1.0" encoding="UTF-8" standalone="no"?>
<!DOCTYPE svg PUBLIC "-//W3C//DTD SVG 1.1//EN"
 "http://www.w3.org/Graphics/SVG/1.1/DTD/svg11.dtd">
<!-- Generated by graphviz version 2.40.1 (20161225.0304)
 -->
<!-- Title: G Pages: 1 -->
<svg width="1124pt" height="1084pt"
 viewBox="0.00 0.00 1124.00 1084.13" xmlns="http://www.w3.org/2000/svg" xmlns:xlink="http://www.w3.org/1999/xlink">
<g id="graph0" class="graph" transform="scale(1 1) rotate(0) translate(4 1080.132)">
<title>G</title>
<polygon fill="#ffffff" stroke="transparent" points="-4,4 -4,-1080.132 1120,-1080.132 1120,4 -4,4"/>
<g id="clust1" class="cluster">
<title>cluster_0</title>
<polygon fill="none" stroke="#000000" points="8,-8 8,-1068.132 554,-1068.132 554,-8 8,-8"/>
<text text-anchor="middle" x="281" y="-1032.132" font-family="Times,serif" font-size="40.00" fill="#000000">Tree 0, Class {&#39;length&#39;: 0}</text>
</g>
<g id="clust8" class="cluster">
<title>cluster_1</title>
<polygon fill="none" stroke="#000000" points="562,-8 562,-1068.132 1108,-1068.132 1108,-8 562,-8"/>
<text text-anchor="middle" x="835" y="-1032.132" font-family="Times,serif" font-size="40.00" fill="#000000">Tree 0, Class {&#39;length&#39;: 1}</text>
</g>
<!-- SG_0_Node_0 -->
<g id="node1" class="node">
<title>SG_0_Node_0</title>
<polygon fill="none" stroke="#000000" points="371,-1008.132 229,-1008.132 229,-972.132 371,-972.132 371,-1008.132"/>
<text text-anchor="middle" x="300" y="-985.132" font-family="Times,serif" font-size="20.00" fill="#000000">Status&#45;Code</text>
</g>
<!-- SG_0_Node_1 -->
<g id="node2" class="node">
<title>SG_0_Node_1</title>
<polygon fill="none" stroke="#000000" points="326.5,-850.9188 171.5,-850.9188 171.5,-814.9188 326.5,-814.9188 326.5,-850.9188"/>
<text text-anchor="middle" x="249" y="-827.9188" font-family="Times,serif" font-size="20.00" fill="#000000">Content&#45;Type</text>
</g>
<!-- SG_0_Node_0&#45;&gt;SG_0_Node_1 -->
<g id="edge1" class="edge">
<title>SG_0_Node_0&#45;&gt;SG_0_Node_1</title>
<path fill="none" stroke="#000000" d="M294.1497,-972.0977C285.3199,-944.8789 268.5145,-893.0744 258.0837,-860.9202"/>
<polygon fill="#000000" stroke="#000000" points="261.3542,-859.6591 254.9392,-851.2271 254.6958,-861.8192 261.3542,-859.6591"/>
<text text-anchor="middle" x="301.5" y="-908.132" font-family="Times,serif" font-size="20.00" fill="#000000">206</text>
</g>
<!-- SG_0_Node_7 -->
<g id="node3" class="node">
<title>SG_0_Node_7</title>
<ellipse fill="none" stroke="#000000" cx="379" cy="-832.9188" rx="34.7971" ry="21.4286"/>
<text text-anchor="middle" x="379" y="-827.9188" font-family="Times,serif" font-size="20.00" fill="#000000">1.0</text>
</g>
<!-- SG_0_Node_0&#45;&gt;SG_0_Node_7 -->
<g id="edge2" class="edge">
<title>SG_0_Node_0&#45;&gt;SG_0_Node_7</title>
<path fill="none" stroke="#000000" d="M309.0623,-972.0977C322.5631,-945.2305 348.1012,-894.4087 364.2982,-862.176"/>
<polygon fill="#000000" stroke="#000000" points="367.4384,-863.7219 368.8011,-853.2151 361.1837,-860.5789 367.4384,-863.7219"/>
<text text-anchor="middle" x="395" y="-919.132" font-family="Times,serif" font-size="20.00" fill="#000000">[NA]</text>
<text text-anchor="middle" x="395" y="-897.132" font-family="Times,serif" font-size="20.00" fill="#000000">61 levels</text>
</g>
<!-- SG_0_Node_3 -->
<g id="node4" class="node">
<title>SG_0_Node_3</title>
<polygon fill="none" stroke="#000000" points="249.5,-558.4924 144.5,-558.4924 144.5,-522.4924 249.5,-522.4924 249.5,-558.4924"/>
<text text-anchor="middle" x="197" y="-535.4924" font-family="Times,serif" font-size="20.00" fill="#000000">Location</text>
</g>
<!-- SG_0_Node_1&#45;&gt;SG_0_Node_3 -->
<g id="edge3" class="edge">
<title>SG_0_Node_1&#45;&gt;SG_0_Node_3</title>
<path fill="none" stroke="#000000" d="M235.0981,-814.8602C227.447,-803.8755 218.5956,-789.2072 214,-774.7056 191.3576,-703.2571 192.4685,-613.6406 194.8937,-568.7971"/>
<polygon fill="#000000" stroke="#000000" points="198.3971,-568.8464 195.5079,-558.6532 191.4099,-568.4234 198.3971,-568.8464"/>
<text text-anchor="middle" x="246" y="-681.7056" font-family="Times,serif" font-size="20.00" fill="#000000">empty</text>
</g>
<!-- SG_0_Node_8 -->
<g id="node5" class="node">
<title>SG_0_Node_8</title>
<ellipse fill="none" stroke="#000000" cx="302" cy="-540.4924" rx="34.7971" ry="21.4286"/>
<text text-anchor="middle" x="302" y="-535.4924" font-family="Times,serif" font-size="20.00" fill="#000000">1.0</text>
</g>
<!-- SG_0_Node_1&#45;&gt;SG_0_Node_8 -->
<g id="edge4" class="edge">
<title>SG_0_Node_1&#45;&gt;SG_0_Node_8</title>
<path fill="none" stroke="#000000" d="M260.1902,-814.74C266.4988,-803.595 273.9132,-788.8037 278,-774.7056 298.3866,-704.3781 301.9937,-617.7895 302.3219,-572.1344"/>
<polygon fill="#000000" stroke="#000000" points="305.8222,-571.9806 302.3446,-561.9728 298.8222,-571.9649 305.8222,-571.9806"/>
<text text-anchor="middle" x="412" y="-758.7056" font-family="Times,serif" font-size="20.00" fill="#000000">[NA]</text>
<text text-anchor="middle" x="412" y="-736.7056" font-family="Times,serif" font-size="20.00" fill="#000000">application/javascript</text>
<text text-anchor="middle" x="412" y="-714.7056" font-family="Times,serif" font-size="20.00" fill="#000000">application/pdf</text>
<text text-anchor="middle" x="412" y="-692.7056" font-family="Times,serif" font-size="20.00" fill="#000000">audio/wav</text>
<text text-anchor="middle" x="412" y="-670.7056" font-family="Times,serif" font-size="20.00" fill="#000000">image/png</text>
<text text-anchor="middle" x="412" y="-648.7056" font-family="Times,serif" font-size="20.00" fill="#000000">text/css</text>
<text text-anchor="middle" x="412" y="-626.7056" font-family="Times,serif" font-size="20.00" fill="#000000">text/html</text>
<text text-anchor="middle" x="412" y="-604.7056" font-family="Times,serif" font-size="20.00" fill="#000000">video/mp4</text>
</g>
<!-- SG_0_Node_4 -->
<g id="node6" class="node">
<title>SG_0_Node_4</title>
<polygon fill="none" stroke="#000000" points="333.5,-376.066 16.5,-376.066 16.5,-340.066 333.5,-340.066 333.5,-376.066"/>
<text text-anchor="middle" x="175" y="-353.066" font-family="Times,serif" font-size="20.00" fill="#000000">Cross&#45;Origin&#45;Resource&#45;Policy</text>
</g>
<!-- SG_0_Node_3&#45;&gt;SG_0_Node_4 -->
<g id="edge5" class="edge">
<title>SG_0_Node_3&#45;&gt;SG_0_Node_4</title>
<path fill="none" stroke="#000000" d="M193.121,-522.4747C190.7714,-511.0127 187.8756,-495.8295 186,-482.2792 181.4548,-449.442 178.4114,-411.447 176.6994,-386.2128"/>
<polygon fill="#000000" stroke="#000000" points="180.1919,-385.9819 176.0467,-376.2316 173.2068,-386.4387 180.1919,-385.9819"/>
<text text-anchor="middle" x="218" y="-444.2792" font-family="Times,serif" font-size="20.00" fill="#000000">empty</text>
</g>
<!-- SG_0_Node_9 -->
<g id="node7" class="node">
<title>SG_0_Node_9</title>
<ellipse fill="none" stroke="#000000" cx="386" cy="-358.066" rx="34.7971" ry="21.4286"/>
<text text-anchor="middle" x="386" y="-353.066" font-family="Times,serif" font-size="20.00" fill="#000000">1.0</text>
</g>
<!-- SG_0_Node_3&#45;&gt;SG_0_Node_9 -->
<g id="edge6" class="edge">
<title>SG_0_Node_3&#45;&gt;SG_0_Node_9</title>
<path fill="none" stroke="#000000" d="M215.7627,-522.4182C226.5619,-511.4281 239.9412,-496.7597 250,-482.2792 268.825,-455.1792 261.1737,-440.1067 284,-416.2792 294.0497,-405.7888 324.5158,-388.9398 349.5553,-376.0617"/>
<polygon fill="#000000" stroke="#000000" points="351.1624,-379.171 358.4869,-371.5159 347.9872,-372.9325 351.1624,-379.171"/>
<text text-anchor="middle" x="421" y="-466.2792" font-family="Times,serif" font-size="20.00" fill="#000000">[NA]</text>
<text text-anchor="middle" x="421" y="-444.2792" font-family="Times,serif" font-size="20.00" fill="#000000">/</text>
<text text-anchor="middle" x="421" y="-422.2792" font-family="Times,serif" font-size="20.00" fill="#000000">http://localhost:8000/echo/</text>
</g>
<!-- SG_0_Node_5 -->
<g id="node8" class="node">
<title>SG_0_Node_5</title>
<polygon fill="none" stroke="#000000" points="157.5,-215.6396 92.5,-215.6396 92.5,-179.6396 157.5,-179.6396 157.5,-215.6396"/>
<text text-anchor="middle" x="125" y="-192.6396" font-family="Times,serif" font-size="20.00" fill="#000000">body</text>
</g>
<!-- SG_0_Node_4&#45;&gt;SG_0_Node_5 -->
<g id="edge7" class="edge">
<title>SG_0_Node_4&#45;&gt;SG_0_Node_5</title>
<path fill="none" stroke="#000000" d="M161.0384,-339.9514C153.2847,-328.9474 144.184,-314.2786 139,-299.8528 130.386,-275.8821 127.022,-247.0012 125.7334,-226.0625"/>
<polygon fill="#000000" stroke="#000000" points="129.2209,-225.7202 125.2319,-215.905 122.2294,-226.0655 129.2209,-225.7202"/>
<text text-anchor="middle" x="171" y="-272.8528" font-family="Times,serif" font-size="20.00" fill="#000000">empty</text>
</g>
<!-- SG_0_Node_10 -->
<g id="node9" class="node">
<title>SG_0_Node_10</title>
<ellipse fill="none" stroke="#000000" cx="225" cy="-197.6396" rx="34.7971" ry="21.4286"/>
<text text-anchor="middle" x="225" y="-192.6396" font-family="Times,serif" font-size="20.00" fill="#000000">1.0</text>
</g>
<!-- SG_0_Node_4&#45;&gt;SG_0_Node_10 -->
<g id="edge8" class="edge">
<title>SG_0_Node_4&#45;&gt;SG_0_Node_10</title>
<path fill="none" stroke="#000000" d="M185.1012,-339.923C191.0168,-328.6684 198.2371,-313.7507 203,-299.8528 210.9679,-276.6031 216.6615,-249.3543 220.2577,-228.8404"/>
<polygon fill="#000000" stroke="#000000" points="223.742,-229.2255 221.948,-218.7837 216.8388,-228.0652 223.742,-229.2255"/>
<text text-anchor="middle" x="275" y="-283.8528" font-family="Times,serif" font-size="20.00" fill="#000000">[NA]</text>
<text text-anchor="middle" x="275" y="-261.8528" font-family="Times,serif" font-size="20.00" fill="#000000">same&#45;origin</text>
</g>
<!-- SG_0_Node_11 -->
<g id="node10" class="node">
<title>SG_0_Node_11</title>
<ellipse fill="none" stroke="#000000" cx="63" cy="-37.2132" rx="34.7971" ry="21.4286"/>
<text text-anchor="middle" x="63" y="-32.2132" font-family="Times,serif" font-size="20.00" fill="#000000">0.0</text>
</g>
<!-- SG_0_Node_5&#45;&gt;SG_0_Node_11 -->
<g id="edge9" class="edge">
<title>SG_0_Node_5&#45;&gt;SG_0_Node_11</title>
<path fill="none" stroke="#000000" d="M105.5603,-179.5466C95.3531,-168.8829 83.6218,-154.5446 77,-139.4264 67.2092,-117.0728 63.8745,-89.5601 62.8971,-68.712"/>
<polygon fill="#000000" stroke="#000000" points="66.3882,-68.3663 62.5792,-58.4798 59.3915,-68.5837 66.3882,-68.3663"/>
<text text-anchor="middle" x="123" y="-123.4264" font-family="Times,serif" font-size="20.00" fill="#000000">[NA]</text>
<text text-anchor="middle" x="123" y="-101.4264" font-family="Times,serif" font-size="20.00" fill="#000000">11 levels</text>
</g>
<!-- SG_0_Node_12 -->
<g id="node11" class="node">
<title>SG_0_Node_12</title>
<ellipse fill="none" stroke="#000000" cx="191" cy="-37.2132" rx="34.7971" ry="21.4286"/>
<text text-anchor="middle" x="191" y="-32.2132" font-family="Times,serif" font-size="20.00" fill="#000000">0.5</text>
</g>
<!-- SG_0_Node_5&#45;&gt;SG_0_Node_12 -->
<g id="edge10" class="edge">
<title>SG_0_Node_5&#45;&gt;SG_0_Node_12</title>
<path fill="none" stroke="#000000" d="M141.9343,-179.5897C151.2458,-168.7219 162.2458,-154.1686 169,-139.4264 179.3486,-116.839 184.9202,-89.1855 187.8647,-68.3402"/>
<polygon fill="#000000" stroke="#000000" points="191.3368,-68.7802 189.1425,-58.4151 184.3941,-67.8863 191.3368,-68.7802"/>
<text text-anchor="middle" x="267" y="-123.4264" font-family="Times,serif" font-size="20.00" fill="#000000">ecocnt_pdf=a=a</text>
<text text-anchor="middle" x="267" y="-101.4264" font-family="Times,serif" font-size="20.00" fill="#000000">empty</text>
</g>
<!-- SG_1_Node_0 -->
<g id="node12" class="node">
<title>SG_1_Node_0</title>
<polygon fill="none" stroke="#000000" points="758,-1008.132 616,-1008.132 616,-972.132 758,-972.132 758,-1008.132"/>
<text text-anchor="middle" x="687" y="-985.132" font-family="Times,serif" font-size="20.00" fill="#000000">Status&#45;Code</text>
</g>
<!-- SG_1_Node_7 -->
<g id="node13" class="node">
<title>SG_1_Node_7</title>
<ellipse fill="none" stroke="#000000" cx="646" cy="-832.9188" rx="34.7971" ry="21.4286"/>
<text text-anchor="middle" x="646" y="-827.9188" font-family="Times,serif" font-size="20.00" fill="#000000">0.0</text>
</g>
<!-- SG_1_Node_0&#45;&gt;SG_1_Node_7 -->
<g id="edge11" class="edge">
<title>SG_1_Node_0&#45;&gt;SG_1_Node_7</title>
<path fill="none" stroke="#000000" d="M676.6753,-971.8421C671.2106,-961.3929 664.852,-947.8702 661,-935.132 654.0151,-912.0335 650.229,-884.9808 648.2086,-864.5108"/>
<polygon fill="#000000" stroke="#000000" points="651.6867,-864.1087 647.3055,-854.4622 644.7148,-864.7354 651.6867,-864.1087"/>
<text text-anchor="middle" x="707" y="-919.132" font-family="Times,serif" font-size="20.00" fill="#000000">[NA]</text>
<text text-anchor="middle" x="707" y="-897.132" font-family="Times,serif" font-size="20.00" fill="#000000">61 levels</text>
</g>
<!-- SG_1_Node_2 -->
<g id="node14" class="node">
<title>SG_1_Node_2</title>
<polygon fill="none" stroke="#000000" points="853.5,-850.9188 698.5,-850.9188 698.5,-814.9188 853.5,-814.9188 853.5,-850.9188"/>
<text text-anchor="middle" x="776" y="-827.9188" font-family="Times,serif" font-size="20.00" fill="#000000">Content&#45;Type</text>
</g>
<!-- SG_1_Node_0&#45;&gt;SG_1_Node_2 -->
<g id="edge12" class="edge">
<title>SG_1_Node_0&#45;&gt;SG_1_Node_2</title>
<path fill="none" stroke="#000000" d="M716.5303,-972.0209C729.5785,-962.5708 743.9758,-949.8941 753,-935.132 766.7157,-912.6956 772.2752,-883.0014 774.5164,-861.4028"/>
<polygon fill="#000000" stroke="#000000" points="778.0221,-861.4859 775.3915,-851.2229 771.0478,-860.8863 778.0221,-861.4859"/>
<text text-anchor="middle" x="788.5" y="-908.132" font-family="Times,serif" font-size="20.00" fill="#000000">206</text>
</g>
<!-- SG_1_Node_8 -->
<g id="node15" class="node">
<title>SG_1_Node_8</title>
<ellipse fill="none" stroke="#000000" cx="631" cy="-540.4924" rx="34.7971" ry="21.4286"/>
<text text-anchor="middle" x="631" y="-535.4924" font-family="Times,serif" font-size="20.00" fill="#000000">0.0</text>
</g>
<!-- SG_1_Node_2&#45;&gt;SG_1_Node_8 -->
<g id="edge13" class="edge">
<title>SG_1_Node_2&#45;&gt;SG_1_Node_8</title>
<path fill="none" stroke="#000000" d="M711.5852,-814.8551C677.542,-803.8686 640.7999,-789.2002 631,-774.7056 589.2004,-712.8819 607.3353,-619.3225 620.9517,-571.3082"/>
<polygon fill="#000000" stroke="#000000" points="624.3711,-572.0872 623.8506,-561.5051 617.6585,-570.1021 624.3711,-572.0872"/>
<text text-anchor="middle" x="742" y="-758.7056" font-family="Times,serif" font-size="20.00" fill="#000000">[NA]</text>
<text text-anchor="middle" x="742" y="-736.7056" font-family="Times,serif" font-size="20.00" fill="#000000">application/javascript</text>
<text text-anchor="middle" x="742" y="-714.7056" font-family="Times,serif" font-size="20.00" fill="#000000">application/pdf</text>
<text text-anchor="middle" x="742" y="-692.7056" font-family="Times,serif" font-size="20.00" fill="#000000">audio/wav</text>
<text text-anchor="middle" x="742" y="-670.7056" font-family="Times,serif" font-size="20.00" fill="#000000">image/png</text>
<text text-anchor="middle" x="742" y="-648.7056" font-family="Times,serif" font-size="20.00" fill="#000000">text/css</text>
<text text-anchor="middle" x="742" y="-626.7056" font-family="Times,serif" font-size="20.00" fill="#000000">text/html</text>
<text text-anchor="middle" x="742" y="-604.7056" font-family="Times,serif" font-size="20.00" fill="#000000">video/mp4</text>
</g>
<!-- SG_1_Node_3 -->
<g id="node16" class="node">
<title>SG_1_Node_3</title>
<polygon fill="none" stroke="#000000" points="941.5,-558.4924 836.5,-558.4924 836.5,-522.4924 941.5,-522.4924 941.5,-558.4924"/>
<text text-anchor="middle" x="889" y="-535.4924" font-family="Times,serif" font-size="20.00" fill="#000000">Location</text>
</g>
<!-- SG_1_Node_2&#45;&gt;SG_1_Node_3 -->
<g id="edge14" class="edge">
<title>SG_1_Node_2&#45;&gt;SG_1_Node_3</title>
<path fill="none" stroke="#000000" d="M813.7224,-814.6694C829.6451,-805.015 846.821,-791.621 857,-774.7056 896.3605,-709.2969 895.4165,-615.2869 891.9583,-568.7721"/>
<polygon fill="#000000" stroke="#000000" points="895.4458,-568.4753 891.1223,-558.8028 888.4703,-569.0603 895.4458,-568.4753"/>
<text text-anchor="middle" x="925" y="-681.7056" font-family="Times,serif" font-size="20.00" fill="#000000">empty</text>
</g>
<!-- SG_1_Node_9 -->
<g id="node17" class="node">
<title>SG_1_Node_9</title>
<ellipse fill="none" stroke="#000000" cx="611" cy="-358.066" rx="34.7971" ry="21.4286"/>
<text text-anchor="middle" x="611" y="-353.066" font-family="Times,serif" font-size="20.00" fill="#000000">0.0</text>
</g>
<!-- SG_1_Node_3&#45;&gt;SG_1_Node_9 -->
<g id="edge15" class="edge">
<title>SG_1_Node_3&#45;&gt;SG_1_Node_9</title>
<path fill="none" stroke="#000000" d="M836.4078,-536.3725C766.5689,-529.7275 648.7801,-514.0414 621,-482.2792 599.0246,-457.1538 599.9056,-417.1953 604.0746,-389.4097"/>
<polygon fill="#000000" stroke="#000000" points="607.5482,-389.8613 605.7925,-379.4129 600.6493,-388.6756 607.5482,-389.8613"/>
<text text-anchor="middle" x="758" y="-466.2792" font-family="Times,serif" font-size="20.00" fill="#000000">[NA]</text>
<text text-anchor="middle" x="758" y="-444.2792" font-family="Times,serif" font-size="20.00" fill="#000000">/</text>
<text text-anchor="middle" x="758" y="-422.2792" font-family="Times,serif" font-size="20.00" fill="#000000">http://localhost:8000/echo/</text>
</g>
<!-- SG_1_Node_4 -->
<g id="node18" class="node">
<title>SG_1_Node_4</title>
<polygon fill="none" stroke="#000000" points="1079.5,-376.066 762.5,-376.066 762.5,-340.066 1079.5,-340.066 1079.5,-376.066"/>
<text text-anchor="middle" x="921" y="-353.066" font-family="Times,serif" font-size="20.00" fill="#000000">Cross&#45;Origin&#45;Resource&#45;Policy</text>
</g>
<!-- SG_1_Node_3&#45;&gt;SG_1_Node_4 -->
<g id="edge16" class="edge">
<title>SG_1_Node_3&#45;&gt;SG_1_Node_4</title>
<path fill="none" stroke="#000000" d="M892.1853,-522.3337C897.7919,-490.3713 909.457,-423.8705 916.0972,-386.016"/>
<polygon fill="#000000" stroke="#000000" points="919.5471,-386.6056 917.8276,-376.1513 912.6524,-385.3961 919.5471,-386.6056"/>
<text text-anchor="middle" x="942" y="-444.2792" font-family="Times,serif" font-size="20.00" fill="#000000">empty</text>
</g>
<!-- SG_1_Node_10 -->
<g id="node19" class="node">
<title>SG_1_Node_10</title>
<ellipse fill="none" stroke="#000000" cx="786" cy="-197.6396" rx="34.7971" ry="21.4286"/>
<text text-anchor="middle" x="786" y="-192.6396" font-family="Times,serif" font-size="20.00" fill="#000000">0.0</text>
</g>
<!-- SG_1_Node_4&#45;&gt;SG_1_Node_10 -->
<g id="edge17" class="edge">
<title>SG_1_Node_4&#45;&gt;SG_1_Node_10</title>
<path fill="none" stroke="#000000" d="M858.1193,-339.9932C837.6015,-331.0885 816.6173,-318.1938 803,-299.8528 787.9786,-279.6207 784.3061,-250.9266 784.0603,-229.0885"/>
<polygon fill="#000000" stroke="#000000" points="787.5611,-229.0267 784.1801,-218.9859 780.5616,-228.9436 787.5611,-229.0267"/>
<text text-anchor="middle" x="864" y="-283.8528" font-family="Times,serif" font-size="20.00" fill="#000000">[NA]</text>
<text text-anchor="middle" x="864" y="-261.8528" font-family="Times,serif" font-size="20.00" fill="#000000">same&#45;origin</text>
</g>
<!-- SG_1_Node_5 -->
<g id="node20" class="node">
<title>SG_1_Node_5</title>
<polygon fill="none" stroke="#000000" points="976.5,-215.6396 911.5,-215.6396 911.5,-179.6396 976.5,-179.6396 976.5,-215.6396"/>
<text text-anchor="middle" x="944" y="-192.6396" font-family="Times,serif" font-size="20.00" fill="#000000">body</text>
</g>
<!-- SG_1_Node_4&#45;&gt;SG_1_Node_5 -->
<g id="edge18" class="edge">
<title>SG_1_Node_4&#45;&gt;SG_1_Node_5</title>
<path fill="none" stroke="#000000" d="M923.5937,-339.9749C927.5796,-312.1727 935.2437,-258.7154 939.9609,-225.8126"/>
<polygon fill="#000000" stroke="#000000" points="943.4258,-226.3063 941.3805,-215.9107 936.4967,-225.3128 943.4258,-226.3063"/>
<text text-anchor="middle" x="967" y="-272.8528" font-family="Times,serif" font-size="20.00" fill="#000000">empty</text>
</g>
<!-- SG_1_Node_11 -->
<g id="node21" class="node">
<title>SG_1_Node_11</title>
<ellipse fill="none" stroke="#000000" cx="662" cy="-37.2132" rx="52.1524" ry="21.4286"/>
<text text-anchor="middle" x="662" y="-32.2132" font-family="Times,serif" font-size="20.00" fill="#000000">0.462</text>
</g>
<!-- SG_1_Node_5&#45;&gt;SG_1_Node_11 -->
<g id="edge19" class="edge">
<title>SG_1_Node_5&#45;&gt;SG_1_Node_11</title>
<path fill="none" stroke="#000000" d="M911.3776,-191.4808C842.3324,-178.3092 687.0593,-147.9113 679,-139.4264 661.353,-120.8477 658.0809,-91.2992 658.6504,-68.7402"/>
<polygon fill="#000000" stroke="#000000" points="662.1525,-68.7852 659.1681,-58.6194 655.1617,-68.4275 662.1525,-68.7852"/>
<text text-anchor="middle" x="813.5" y="-123.4264" font-family="Times,serif" font-size="20.00" fill="#000000">ecocnt_audio=duration=1</text>
<text text-anchor="middle" x="813.5" y="-101.4264" font-family="Times,serif" font-size="20.00" fill="#000000">empty</text>
</g>
<!-- SG_1_Node_12 -->
<g id="node22" class="node">
<title>SG_1_Node_12</title>
<ellipse fill="none" stroke="#000000" cx="967" cy="-37.2132" rx="34.7971" ry="21.4286"/>
<text text-anchor="middle" x="967" y="-32.2132" font-family="Times,serif" font-size="20.00" fill="#000000">1.0</text>
</g>
<!-- SG_1_Node_5&#45;&gt;SG_1_Node_12 -->
<g id="edge20" class="edge">
<title>SG_1_Node_5&#45;&gt;SG_1_Node_12</title>
<path fill="none" stroke="#000000" d="M946.5937,-179.5485C950.4524,-152.6336 957.7582,-101.6751 962.5005,-68.5978"/>
<polygon fill="#000000" stroke="#000000" points="965.9878,-68.9354 963.9424,-58.5399 959.0586,-67.9419 965.9878,-68.9354"/>
<text text-anchor="middle" x="1004" y="-123.4264" font-family="Times,serif" font-size="20.00" fill="#000000">[NA]</text>
<text text-anchor="middle" x="1004" y="-101.4264" font-family="Times,serif" font-size="20.00" fill="#000000">11 levels</text>
</g>
</g>
</svg>
