<?xml version="1.0" encoding="UTF-8" standalone="no"?>
<!DOCTYPE svg PUBLIC "-//W3C//DTD SVG 1.1//EN"
 "http://www.w3.org/Graphics/SVG/1.1/DTD/svg11.dtd">
<!-- Generated by graphviz version 2.40.1 (20161225.0304)
 -->
<!-- Title: G Pages: 1 -->
<svg width="915pt" height="1465pt"
 viewBox="0.00 0.00 915.00 1464.56" xmlns="http://www.w3.org/2000/svg" xmlns:xlink="http://www.w3.org/1999/xlink">
<g id="graph0" class="graph" transform="scale(1 1) rotate(0) translate(4 1460.5584)">
<title>G</title>
<polygon fill="#ffffff" stroke="transparent" points="-4,4 -4,-1460.5584 911,-1460.5584 911,4 -4,4"/>
<g id="clust1" class="cluster">
<title>cluster_0</title>
<polygon fill="none" stroke="#000000" points="8,-8 8,-1448.5584 439,-1448.5584 439,-8 8,-8"/>
<text text-anchor="middle" x="223.5" y="-1412.5584" font-family="Times,serif" font-size="40.00" fill="#000000">Tree 0, Class 0</text>
</g>
<g id="clust9" class="cluster">
<title>cluster_1</title>
<polygon fill="none" stroke="#000000" points="447,-8 447,-1448.5584 878,-1448.5584 878,-8 447,-8"/>
<text text-anchor="middle" x="662.5" y="-1412.5584" font-family="Times,serif" font-size="40.00" fill="#000000">Tree 0, Class 4</text>
</g>
<!-- SG_0_Node_0 -->
<g id="node1" class="node">
<title>SG_0_Node_0</title>
<polygon fill="none" stroke="#000000" points="226.5,-1388.5584 161.5,-1388.5584 161.5,-1352.5584 226.5,-1352.5584 226.5,-1388.5584"/>
<text text-anchor="middle" x="194" y="-1365.5584" font-family="Times,serif" font-size="20.00" fill="#000000">body</text>
</g>
<!-- SG_0_Node_1 -->
<g id="node2" class="node">
<title>SG_0_Node_1</title>
<polygon fill="none" stroke="#000000" points="246,-1231.3452 104,-1231.3452 104,-1195.3452 246,-1195.3452 246,-1231.3452"/>
<text text-anchor="middle" x="175" y="-1208.3452" font-family="Times,serif" font-size="20.00" fill="#000000">Status&#45;Code</text>
</g>
<!-- SG_0_Node_0&#45;&gt;SG_0_Node_1 -->
<g id="edge1" class="edge">
<title>SG_0_Node_0&#45;&gt;SG_0_Node_1</title>
<path fill="none" stroke="#000000" d="M161.439,-1362.8669C122.6046,-1352.9574 61.2538,-1334.7144 48,-1315.5584 36.8733,-1299.4769 37.4389,-1288.017 48,-1271.5584 58.9254,-1254.532 76.2132,-1242.4209 94.5576,-1233.8296"/>
<polygon fill="#000000" stroke="#000000" points="96.1381,-1236.9592 103.9203,-1229.7697 93.3533,-1230.5369 96.1381,-1236.9592"/>
<text text-anchor="middle" x="182.5" y="-1288.5584" font-family="Times,serif" font-size="20.00" fill="#000000">ecocnt_audio=duration=1</text>
</g>
<!-- SG_0_Node_7 -->
<g id="node3" class="node">
<title>SG_0_Node_7</title>
<ellipse fill="none" stroke="#000000" cx="339" cy="-1213.3452" rx="34.7971" ry="21.4286"/>
<text text-anchor="middle" x="339" y="-1208.3452" font-family="Times,serif" font-size="20.00" fill="#000000">1.0</text>
</g>
<!-- SG_0_Node_0&#45;&gt;SG_0_Node_7 -->
<g id="edge2" class="edge">
<title>SG_0_Node_0&#45;&gt;SG_0_Node_7</title>
<path fill="none" stroke="#000000" d="M226.7669,-1364.5149C254.9306,-1357.5767 294.4637,-1343.3613 317,-1315.5584 333.0109,-1295.8059 338.0871,-1267.0665 339.4012,-1245.0891"/>
<polygon fill="#000000" stroke="#000000" points="342.9055,-1245.0344 339.7756,-1234.9124 335.9103,-1244.777 342.9055,-1245.0344"/>
<text text-anchor="middle" x="381" y="-1299.5584" font-family="Times,serif" font-size="20.00" fill="#000000">[NA]</text>
<text text-anchor="middle" x="381" y="-1277.5584" font-family="Times,serif" font-size="20.00" fill="#000000">12 levels</text>
</g>
<!-- SG_0_Node_2 -->
<g id="node4" class="node">
<title>SG_0_Node_2</title>
<polygon fill="none" stroke="#000000" points="333.5,-938.9188 16.5,-938.9188 16.5,-902.9188 333.5,-902.9188 333.5,-938.9188"/>
<text text-anchor="middle" x="175" y="-915.9188" font-family="Times,serif" font-size="20.00" fill="#000000">Cross&#45;Origin&#45;Resource&#45;Policy</text>
</g>
<!-- SG_0_Node_1&#45;&gt;SG_0_Node_2 -->
<g id="edge3" class="edge">
<title>SG_0_Node_1&#45;&gt;SG_0_Node_2</title>
<path fill="none" stroke="#000000" d="M175,-1195.0527C175,-1145.6139 175,-1009.049 175,-949.4074"/>
<polygon fill="#000000" stroke="#000000" points="178.5001,-949.2045 175,-939.2045 171.5001,-949.2045 178.5001,-949.2045"/>
<text text-anchor="middle" x="194.5" y="-1139.132" font-family="Times,serif" font-size="20.00" fill="#000000">200</text>
<text text-anchor="middle" x="194.5" y="-1117.132" font-family="Times,serif" font-size="20.00" fill="#000000">201</text>
<text text-anchor="middle" x="194.5" y="-1095.132" font-family="Times,serif" font-size="20.00" fill="#000000">202</text>
<text text-anchor="middle" x="194.5" y="-1073.132" font-family="Times,serif" font-size="20.00" fill="#000000">203</text>
<text text-anchor="middle" x="194.5" y="-1051.132" font-family="Times,serif" font-size="20.00" fill="#000000">206</text>
<text text-anchor="middle" x="194.5" y="-1029.132" font-family="Times,serif" font-size="20.00" fill="#000000">207</text>
<text text-anchor="middle" x="194.5" y="-1007.132" font-family="Times,serif" font-size="20.00" fill="#000000">208</text>
<text text-anchor="middle" x="194.5" y="-985.132" font-family="Times,serif" font-size="20.00" fill="#000000">226</text>
</g>
<!-- SG_0_Node_8 -->
<g id="node5" class="node">
<title>SG_0_Node_8</title>
<ellipse fill="none" stroke="#000000" cx="386" cy="-920.9188" rx="34.7971" ry="21.4286"/>
<text text-anchor="middle" x="386" y="-915.9188" font-family="Times,serif" font-size="20.00" fill="#000000">1.0</text>
</g>
<!-- SG_0_Node_1&#45;&gt;SG_0_Node_8 -->
<g id="edge4" class="edge">
<title>SG_0_Node_1&#45;&gt;SG_0_Node_8</title>
<path fill="none" stroke="#000000" d="M188.4298,-1195.3C196.9432,-1183.8274 208.1653,-1168.6426 218,-1155.132 272.1142,-1080.7917 335.0983,-992.504 366.3396,-948.5912"/>
<polygon fill="#000000" stroke="#000000" points="369.2091,-950.5953 372.1526,-940.4175 363.5046,-946.5383 369.2091,-950.5953"/>
<text text-anchor="middle" x="388" y="-1073.132" font-family="Times,serif" font-size="20.00" fill="#000000">[NA]</text>
<text text-anchor="middle" x="388" y="-1051.132" font-family="Times,serif" font-size="20.00" fill="#000000">54 levels</text>
</g>
<!-- SG_0_Node_3 -->
<g id="node6" class="node">
<title>SG_0_Node_3</title>
<polygon fill="none" stroke="#000000" points="177,-778.4924 35,-778.4924 35,-742.4924 177,-742.4924 177,-778.4924"/>
<text text-anchor="middle" x="106" y="-755.4924" font-family="Times,serif" font-size="20.00" fill="#000000">Status&#45;Code</text>
</g>
<!-- SG_0_Node_2&#45;&gt;SG_0_Node_3 -->
<g id="edge5" class="edge">
<title>SG_0_Node_2&#45;&gt;SG_0_Node_3</title>
<path fill="none" stroke="#000000" d="M156.1862,-902.9036C146.0466,-892.1575 134.1773,-877.7135 127,-862.7056 115.7671,-839.2173 110.5279,-809.8871 108.093,-788.6771"/>
<polygon fill="#000000" stroke="#000000" points="111.5715,-788.2868 107.0836,-778.6895 104.607,-788.9908 111.5715,-788.2868"/>
<text text-anchor="middle" x="159" y="-835.7056" font-family="Times,serif" font-size="20.00" fill="#000000">empty</text>
</g>
<!-- SG_0_Node_9 -->
<g id="node7" class="node">
<title>SG_0_Node_9</title>
<ellipse fill="none" stroke="#000000" cx="230" cy="-760.4924" rx="34.7971" ry="21.4286"/>
<text text-anchor="middle" x="230" y="-755.4924" font-family="Times,serif" font-size="20.00" fill="#000000">1.0</text>
</g>
<!-- SG_0_Node_2&#45;&gt;SG_0_Node_9 -->
<g id="edge6" class="edge">
<title>SG_0_Node_2&#45;&gt;SG_0_Node_9</title>
<path fill="none" stroke="#000000" d="M181.2023,-902.8277C190.5206,-875.6478 208.245,-823.9484 219.5734,-790.9051"/>
<polygon fill="#000000" stroke="#000000" points="222.9351,-791.8917 222.8674,-781.2971 216.3134,-789.6215 222.9351,-791.8917"/>
<text text-anchor="middle" x="270" y="-846.7056" font-family="Times,serif" font-size="20.00" fill="#000000">[NA]</text>
<text text-anchor="middle" x="270" y="-824.7056" font-family="Times,serif" font-size="20.00" fill="#000000">same&#45;origin</text>
</g>
<!-- SG_0_Node_10 -->
<g id="node8" class="node">
<title>SG_0_Node_10</title>
<ellipse fill="none" stroke="#000000" cx="78" cy="-490.066" rx="34.7971" ry="21.4286"/>
<text text-anchor="middle" x="78" y="-485.066" font-family="Times,serif" font-size="20.00" fill="#000000">0.0</text>
</g>
<!-- SG_0_Node_3&#45;&gt;SG_0_Node_10 -->
<g id="edge7" class="edge">
<title>SG_0_Node_3&#45;&gt;SG_0_Node_10</title>
<path fill="none" stroke="#000000" d="M104.1194,-742.3291C99.431,-697.0489 87.1784,-578.7118 81.2741,-521.6871"/>
<polygon fill="#000000" stroke="#000000" points="84.7267,-521.0479 80.2153,-511.4615 77.7639,-521.7689 84.7267,-521.0479"/>
<text text-anchor="middle" x="118.5" y="-686.2792" font-family="Times,serif" font-size="20.00" fill="#000000">200</text>
<text text-anchor="middle" x="118.5" y="-664.2792" font-family="Times,serif" font-size="20.00" fill="#000000">201</text>
<text text-anchor="middle" x="118.5" y="-642.2792" font-family="Times,serif" font-size="20.00" fill="#000000">202</text>
<text text-anchor="middle" x="118.5" y="-620.2792" font-family="Times,serif" font-size="20.00" fill="#000000">203</text>
<text text-anchor="middle" x="118.5" y="-598.2792" font-family="Times,serif" font-size="20.00" fill="#000000">206</text>
<text text-anchor="middle" x="118.5" y="-576.2792" font-family="Times,serif" font-size="20.00" fill="#000000">207</text>
<text text-anchor="middle" x="118.5" y="-554.2792" font-family="Times,serif" font-size="20.00" fill="#000000">226</text>
</g>
<!-- SG_0_Node_4 -->
<g id="node9" class="node">
<title>SG_0_Node_4</title>
<polygon fill="none" stroke="#000000" points="285.5,-508.066 130.5,-508.066 130.5,-472.066 285.5,-472.066 285.5,-508.066"/>
<text text-anchor="middle" x="208" y="-485.066" font-family="Times,serif" font-size="20.00" fill="#000000">Content&#45;Type</text>
</g>
<!-- SG_0_Node_3&#45;&gt;SG_0_Node_4 -->
<g id="edge8" class="edge">
<title>SG_0_Node_3&#45;&gt;SG_0_Node_4</title>
<path fill="none" stroke="#000000" d="M118.9217,-742.2833C126.4094,-731.1276 135.5928,-716.3356 142,-702.2792 170.8544,-638.9779 191.8035,-559.5743 201.6695,-518.1518"/>
<polygon fill="#000000" stroke="#000000" points="205.1198,-518.7682 203.992,-508.2336 198.3042,-517.1722 205.1198,-518.7682"/>
<text text-anchor="middle" x="212.5" y="-620.2792" font-family="Times,serif" font-size="20.00" fill="#000000">208</text>
</g>
<!-- SG_0_Node_11 -->
<g id="node10" class="node">
<title>SG_0_Node_11</title>
<ellipse fill="none" stroke="#000000" cx="64" cy="-197.6396" rx="34.7971" ry="21.4286"/>
<text text-anchor="middle" x="64" y="-192.6396" font-family="Times,serif" font-size="20.00" fill="#000000">0.0</text>
</g>
<!-- SG_0_Node_4&#45;&gt;SG_0_Node_11 -->
<g id="edge9" class="edge">
<title>SG_0_Node_4&#45;&gt;SG_0_Node_11</title>
<path fill="none" stroke="#000000" d="M144.0236,-471.9474C110.2132,-460.942 73.7245,-446.273 64,-431.8528 22.2746,-369.979 40.3773,-276.4414 53.9696,-228.4433"/>
<polygon fill="#000000" stroke="#000000" points="57.3879,-229.2256 56.8633,-218.6438 50.6745,-227.2431 57.3879,-229.2256"/>
<text text-anchor="middle" x="175" y="-415.8528" font-family="Times,serif" font-size="20.00" fill="#000000">[NA]</text>
<text text-anchor="middle" x="175" y="-393.8528" font-family="Times,serif" font-size="20.00" fill="#000000">application/javascript</text>
<text text-anchor="middle" x="175" y="-371.8528" font-family="Times,serif" font-size="20.00" fill="#000000">application/pdf</text>
<text text-anchor="middle" x="175" y="-349.8528" font-family="Times,serif" font-size="20.00" fill="#000000">audio/wav</text>
<text text-anchor="middle" x="175" y="-327.8528" font-family="Times,serif" font-size="20.00" fill="#000000">empty</text>
<text text-anchor="middle" x="175" y="-305.8528" font-family="Times,serif" font-size="20.00" fill="#000000">image/png</text>
<text text-anchor="middle" x="175" y="-283.8528" font-family="Times,serif" font-size="20.00" fill="#000000">text/html</text>
<text text-anchor="middle" x="175" y="-261.8528" font-family="Times,serif" font-size="20.00" fill="#000000">video/mp4</text>
</g>
<!-- SG_0_Node_5 -->
<g id="node11" class="node">
<title>SG_0_Node_5</title>
<polygon fill="none" stroke="#000000" points="417.5,-215.6396 226.5,-215.6396 226.5,-179.6396 417.5,-179.6396 417.5,-215.6396"/>
<text text-anchor="middle" x="322" y="-192.6396" font-family="Times,serif" font-size="20.00" fill="#000000">X&#45;Frame&#45;Options</text>
</g>
<!-- SG_0_Node_4&#45;&gt;SG_0_Node_5 -->
<g id="edge10" class="edge">
<title>SG_0_Node_4&#45;&gt;SG_0_Node_5</title>
<path fill="none" stroke="#000000" d="M246.1818,-471.9165C262.2998,-462.2821 279.6885,-448.8763 290,-431.8528 329.5653,-366.5336 328.5194,-272.4246 324.9968,-225.8914"/>
<polygon fill="#000000" stroke="#000000" points="328.461,-225.3219 324.1215,-215.6566 321.4864,-225.9185 328.461,-225.3219"/>
<text text-anchor="middle" x="365.5" y="-338.8528" font-family="Times,serif" font-size="20.00" fill="#000000">text/css</text>
</g>
<!-- SG_0_Node_12 -->
<g id="node12" class="node">
<title>SG_0_Node_12</title>
<ellipse fill="none" stroke="#000000" cx="246" cy="-37.2132" rx="34.7971" ry="21.4286"/>
<text text-anchor="middle" x="246" y="-32.2132" font-family="Times,serif" font-size="20.00" fill="#000000">0.0</text>
</g>
<!-- SG_0_Node_5&#45;&gt;SG_0_Node_12 -->
<g id="edge11" class="edge">
<title>SG_0_Node_5&#45;&gt;SG_0_Node_12</title>
<path fill="none" stroke="#000000" d="M297.8498,-179.4388C285.7919,-169.0467 272.0867,-154.9998 264,-139.4264 252.6345,-117.5387 248.2769,-89.8366 246.6824,-68.7947"/>
<polygon fill="#000000" stroke="#000000" points="250.1734,-68.5366 246.0904,-58.7601 243.1855,-68.9489 250.1734,-68.5366"/>
<text text-anchor="middle" x="296" y="-123.4264" font-family="Times,serif" font-size="20.00" fill="#000000">[NA]</text>
<text text-anchor="middle" x="296" y="-101.4264" font-family="Times,serif" font-size="20.00" fill="#000000">empty</text>
</g>
<!-- SG_0_Node_13 -->
<g id="node13" class="node">
<title>SG_0_Node_13</title>
<ellipse fill="none" stroke="#000000" cx="351" cy="-37.2132" rx="52.1524" ry="21.4286"/>
<text text-anchor="middle" x="351" y="-32.2132" font-family="Times,serif" font-size="20.00" fill="#000000">0.125</text>
</g>
<!-- SG_0_Node_5&#45;&gt;SG_0_Node_13 -->
<g id="edge12" class="edge">
<title>SG_0_Node_5&#45;&gt;SG_0_Node_13</title>
<path fill="none" stroke="#000000" d="M325.2703,-179.5485C330.1357,-152.6336 339.3473,-101.6751 345.3267,-68.5978"/>
<polygon fill="#000000" stroke="#000000" points="348.8101,-69.003 347.1448,-58.5399 341.9217,-67.7578 348.8101,-69.003"/>
<text text-anchor="middle" x="364.5" y="-112.4264" font-family="Times,serif" font-size="20.00" fill="#000000">deny</text>
</g>
<!-- SG_1_Node_0 -->
<g id="node14" class="node">
<title>SG_1_Node_0</title>
<polygon fill="none" stroke="#000000" points="576.5,-1388.5584 511.5,-1388.5584 511.5,-1352.5584 576.5,-1352.5584 576.5,-1388.5584"/>
<text text-anchor="middle" x="544" y="-1365.5584" font-family="Times,serif" font-size="20.00" fill="#000000">body</text>
</g>
<!-- SG_1_Node_7 -->
<g id="node15" class="node">
<title>SG_1_Node_7</title>
<ellipse fill="none" stroke="#000000" cx="490" cy="-1213.3452" rx="34.7971" ry="21.4286"/>
<text text-anchor="middle" x="490" y="-1208.3452" font-family="Times,serif" font-size="20.00" fill="#000000">0.0</text>
</g>
<!-- SG_1_Node_0&#45;&gt;SG_1_Node_7 -->
<g id="edge13" class="edge">
<title>SG_1_Node_0&#45;&gt;SG_1_Node_7</title>
<path fill="none" stroke="#000000" d="M517.0988,-1352.3759C505.5238,-1342.91 493.2358,-1330.2408 487,-1315.5584 477.501,-1293.1926 479.0172,-1265.5237 482.4852,-1244.6162"/>
<polygon fill="#000000" stroke="#000000" points="485.9495,-1245.1323 484.3663,-1234.6564 479.0711,-1243.8331 485.9495,-1245.1323"/>
<text text-anchor="middle" x="533" y="-1299.5584" font-family="Times,serif" font-size="20.00" fill="#000000">[NA]</text>
<text text-anchor="middle" x="533" y="-1277.5584" font-family="Times,serif" font-size="20.00" fill="#000000">12 levels</text>
</g>
<!-- SG_1_Node_1 -->
<g id="node16" class="node">
<title>SG_1_Node_1</title>
<polygon fill="none" stroke="#000000" points="685,-1231.3452 543,-1231.3452 543,-1195.3452 685,-1195.3452 685,-1231.3452"/>
<text text-anchor="middle" x="614" y="-1208.3452" font-family="Times,serif" font-size="20.00" fill="#000000">Status&#45;Code</text>
</g>
<!-- SG_1_Node_0&#45;&gt;SG_1_Node_1 -->
<g id="edge14" class="edge">
<title>SG_1_Node_0&#45;&gt;SG_1_Node_1</title>
<path fill="none" stroke="#000000" d="M557.1281,-1352.3561C564.2434,-1341.9344 572.8187,-1328.4099 579,-1315.5584 590.615,-1291.4099 600.1664,-1262.3817 606.3401,-1241.4407"/>
<polygon fill="#000000" stroke="#000000" points="609.7751,-1242.1596 609.1736,-1231.5818 603.0474,-1240.2259 609.7751,-1242.1596"/>
<text text-anchor="middle" x="730.5" y="-1288.5584" font-family="Times,serif" font-size="20.00" fill="#000000">ecocnt_audio=duration=1</text>
</g>
<!-- SG_1_Node_8 -->
<g id="node17" class="node">
<title>SG_1_Node_8</title>
<ellipse fill="none" stroke="#000000" cx="495" cy="-920.9188" rx="34.7971" ry="21.4286"/>
<text text-anchor="middle" x="495" y="-915.9188" font-family="Times,serif" font-size="20.00" fill="#000000">0.0</text>
</g>
<!-- SG_1_Node_1&#45;&gt;SG_1_Node_8 -->
<g id="edge15" class="edge">
<title>SG_1_Node_1&#45;&gt;SG_1_Node_8</title>
<path fill="none" stroke="#000000" d="M578.7459,-1195.1366C563.2477,-1185.3447 546.2697,-1171.8271 536,-1155.132 496.6714,-1091.1974 492.5274,-999.9223 493.4271,-952.4028"/>
<polygon fill="#000000" stroke="#000000" points="496.9334,-952.2225 493.7149,-942.1284 489.9361,-952.0264 496.9334,-952.2225"/>
<text text-anchor="middle" x="582" y="-1073.132" font-family="Times,serif" font-size="20.00" fill="#000000">[NA]</text>
<text text-anchor="middle" x="582" y="-1051.132" font-family="Times,serif" font-size="20.00" fill="#000000">54 levels</text>
</g>
<!-- SG_1_Node_2 -->
<g id="node18" class="node">
<title>SG_1_Node_2</title>
<polygon fill="none" stroke="#000000" points="864.5,-938.9188 547.5,-938.9188 547.5,-902.9188 864.5,-902.9188 864.5,-938.9188"/>
<text text-anchor="middle" x="706" y="-915.9188" font-family="Times,serif" font-size="20.00" fill="#000000">Cross&#45;Origin&#45;Resource&#45;Policy</text>
</g>
<!-- SG_1_Node_1&#45;&gt;SG_1_Node_2 -->
<g id="edge16" class="edge">
<title>SG_1_Node_1&#45;&gt;SG_1_Node_2</title>
<path fill="none" stroke="#000000" d="M619.755,-1195.0527C635.3411,-1145.5114 678.4518,-1008.482 697.1537,-949.0371"/>
<polygon fill="#000000" stroke="#000000" points="700.5847,-949.794 700.2472,-939.2045 693.9074,-947.6932 700.5847,-949.794"/>
<text text-anchor="middle" x="706.5" y="-1139.132" font-family="Times,serif" font-size="20.00" fill="#000000">200</text>
<text text-anchor="middle" x="706.5" y="-1117.132" font-family="Times,serif" font-size="20.00" fill="#000000">201</text>
<text text-anchor="middle" x="706.5" y="-1095.132" font-family="Times,serif" font-size="20.00" fill="#000000">202</text>
<text text-anchor="middle" x="706.5" y="-1073.132" font-family="Times,serif" font-size="20.00" fill="#000000">203</text>
<text text-anchor="middle" x="706.5" y="-1051.132" font-family="Times,serif" font-size="20.00" fill="#000000">206</text>
<text text-anchor="middle" x="706.5" y="-1029.132" font-family="Times,serif" font-size="20.00" fill="#000000">207</text>
<text text-anchor="middle" x="706.5" y="-1007.132" font-family="Times,serif" font-size="20.00" fill="#000000">208</text>
<text text-anchor="middle" x="706.5" y="-985.132" font-family="Times,serif" font-size="20.00" fill="#000000">226</text>
</g>
<!-- SG_1_Node_9 -->
<g id="node19" class="node">
<title>SG_1_Node_9</title>
<ellipse fill="none" stroke="#000000" cx="562" cy="-760.4924" rx="34.7971" ry="21.4286"/>
<text text-anchor="middle" x="562" y="-755.4924" font-family="Times,serif" font-size="20.00" fill="#000000">0.0</text>
</g>
<!-- SG_1_Node_2&#45;&gt;SG_1_Node_9 -->
<g id="edge17" class="edge">
<title>SG_1_Node_2&#45;&gt;SG_1_Node_9</title>
<path fill="none" stroke="#000000" d="M642.4442,-902.8728C621.3639,-893.9532 599.5827,-881.0421 585,-862.7056 569.1409,-842.7641 563.751,-814.0426 562.1216,-792.1201"/>
<polygon fill="#000000" stroke="#000000" points="565.6086,-791.7775 561.5944,-781.9726 558.618,-792.1407 565.6086,-791.7775"/>
<text text-anchor="middle" x="646" y="-846.7056" font-family="Times,serif" font-size="20.00" fill="#000000">[NA]</text>
<text text-anchor="middle" x="646" y="-824.7056" font-family="Times,serif" font-size="20.00" fill="#000000">same&#45;origin</text>
</g>
<!-- SG_1_Node_3 -->
<g id="node20" class="node">
<title>SG_1_Node_3</title>
<polygon fill="none" stroke="#000000" points="791,-778.4924 649,-778.4924 649,-742.4924 791,-742.4924 791,-778.4924"/>
<text text-anchor="middle" x="720" y="-755.4924" font-family="Times,serif" font-size="20.00" fill="#000000">Status&#45;Code</text>
</g>
<!-- SG_1_Node_2&#45;&gt;SG_1_Node_3 -->
<g id="edge18" class="edge">
<title>SG_1_Node_2&#45;&gt;SG_1_Node_3</title>
<path fill="none" stroke="#000000" d="M707.5788,-902.8277C709.9945,-875.1459 714.6297,-822.0306 717.504,-789.0939"/>
<polygon fill="#000000" stroke="#000000" points="721.0228,-789.03 718.4055,-778.7636 714.0493,-788.4214 721.0228,-789.03"/>
<text text-anchor="middle" x="746" y="-835.7056" font-family="Times,serif" font-size="20.00" fill="#000000">empty</text>
</g>
<!-- SG_1_Node_4 -->
<g id="node21" class="node">
<title>SG_1_Node_4</title>
<polygon fill="none" stroke="#000000" points="710.5,-508.066 555.5,-508.066 555.5,-472.066 710.5,-472.066 710.5,-508.066"/>
<text text-anchor="middle" x="633" y="-485.066" font-family="Times,serif" font-size="20.00" fill="#000000">Content&#45;Type</text>
</g>
<!-- SG_1_Node_3&#45;&gt;SG_1_Node_4 -->
<g id="edge19" class="edge">
<title>SG_1_Node_3&#45;&gt;SG_1_Node_4</title>
<path fill="none" stroke="#000000" d="M707.5684,-742.3091C700.4159,-731.1625 691.7379,-716.371 686,-702.2792 660.1792,-638.8653 644.4392,-559.5077 637.3885,-518.1223"/>
<polygon fill="#000000" stroke="#000000" points="640.8341,-517.5053 635.7439,-508.2134 633.9286,-518.6515 640.8341,-517.5053"/>
<text text-anchor="middle" x="705.5" y="-620.2792" font-family="Times,serif" font-size="20.00" fill="#000000">208</text>
</g>
<!-- SG_1_Node_10 -->
<g id="node22" class="node">
<title>SG_1_Node_10</title>
<ellipse fill="none" stroke="#000000" cx="763" cy="-490.066" rx="34.7971" ry="21.4286"/>
<text text-anchor="middle" x="763" y="-485.066" font-family="Times,serif" font-size="20.00" fill="#000000">1.0</text>
</g>
<!-- SG_1_Node_3&#45;&gt;SG_1_Node_10 -->
<g id="edge20" class="edge">
<title>SG_1_Node_3&#45;&gt;SG_1_Node_10</title>
<path fill="none" stroke="#000000" d="M722.8881,-742.3291C730.088,-697.0489 748.9046,-578.7118 757.972,-521.6871"/>
<polygon fill="#000000" stroke="#000000" points="761.4841,-521.8871 759.5979,-511.4615 754.5709,-520.7878 761.4841,-521.8871"/>
<text text-anchor="middle" x="772.5" y="-686.2792" font-family="Times,serif" font-size="20.00" fill="#000000">200</text>
<text text-anchor="middle" x="772.5" y="-664.2792" font-family="Times,serif" font-size="20.00" fill="#000000">201</text>
<text text-anchor="middle" x="772.5" y="-642.2792" font-family="Times,serif" font-size="20.00" fill="#000000">202</text>
<text text-anchor="middle" x="772.5" y="-620.2792" font-family="Times,serif" font-size="20.00" fill="#000000">203</text>
<text text-anchor="middle" x="772.5" y="-598.2792" font-family="Times,serif" font-size="20.00" fill="#000000">206</text>
<text text-anchor="middle" x="772.5" y="-576.2792" font-family="Times,serif" font-size="20.00" fill="#000000">207</text>
<text text-anchor="middle" x="772.5" y="-554.2792" font-family="Times,serif" font-size="20.00" fill="#000000">226</text>
</g>
<!-- SG_1_Node_5 -->
<g id="node23" class="node">
<title>SG_1_Node_5</title>
<polygon fill="none" stroke="#000000" points="646.5,-215.6396 455.5,-215.6396 455.5,-179.6396 646.5,-179.6396 646.5,-215.6396"/>
<text text-anchor="middle" x="551" y="-192.6396" font-family="Times,serif" font-size="20.00" fill="#000000">X&#45;Frame&#45;Options</text>
</g>
<!-- SG_1_Node_4&#45;&gt;SG_1_Node_5 -->
<g id="edge21" class="edge">
<title>SG_1_Node_4&#45;&gt;SG_1_Node_5</title>
<path fill="none" stroke="#000000" d="M600.8211,-471.8424C586.6112,-461.9701 571.2783,-448.3895 563,-431.8528 529.2533,-364.4409 538.0449,-272.0222 545.4952,-226.034"/>
<polygon fill="#000000" stroke="#000000" points="548.9914,-226.3545 547.2386,-215.9056 542.0929,-225.167 548.9914,-226.3545"/>
<text text-anchor="middle" x="602.5" y="-338.8528" font-family="Times,serif" font-size="20.00" fill="#000000">text/css</text>
</g>
<!-- SG_1_Node_11 -->
<g id="node24" class="node">
<title>SG_1_Node_11</title>
<ellipse fill="none" stroke="#000000" cx="699" cy="-197.6396" rx="34.7971" ry="21.4286"/>
<text text-anchor="middle" x="699" y="-192.6396" font-family="Times,serif" font-size="20.00" fill="#000000">1.0</text>
</g>
<!-- SG_1_Node_4&#45;&gt;SG_1_Node_11 -->
<g id="edge22" class="edge">
<title>SG_1_Node_4&#45;&gt;SG_1_Node_11</title>
<path fill="none" stroke="#000000" d="M637.1286,-471.7734C648.1197,-423.0752 678.1904,-289.841 691.9538,-228.8592"/>
<polygon fill="#000000" stroke="#000000" points="695.3844,-229.5566 694.1719,-219.0313 688.5561,-228.0154 695.3844,-229.5566"/>
<text text-anchor="middle" x="796" y="-415.8528" font-family="Times,serif" font-size="20.00" fill="#000000">[NA]</text>
<text text-anchor="middle" x="796" y="-393.8528" font-family="Times,serif" font-size="20.00" fill="#000000">application/javascript</text>
<text text-anchor="middle" x="796" y="-371.8528" font-family="Times,serif" font-size="20.00" fill="#000000">application/pdf</text>
<text text-anchor="middle" x="796" y="-349.8528" font-family="Times,serif" font-size="20.00" fill="#000000">audio/wav</text>
<text text-anchor="middle" x="796" y="-327.8528" font-family="Times,serif" font-size="20.00" fill="#000000">empty</text>
<text text-anchor="middle" x="796" y="-305.8528" font-family="Times,serif" font-size="20.00" fill="#000000">image/png</text>
<text text-anchor="middle" x="796" y="-283.8528" font-family="Times,serif" font-size="20.00" fill="#000000">text/html</text>
<text text-anchor="middle" x="796" y="-261.8528" font-family="Times,serif" font-size="20.00" fill="#000000">video/mp4</text>
</g>
<!-- SG_1_Node_12 -->
<g id="node25" class="node">
<title>SG_1_Node_12</title>
<ellipse fill="none" stroke="#000000" cx="529" cy="-37.2132" rx="52.1524" ry="21.4286"/>
<text text-anchor="middle" x="529" y="-32.2132" font-family="Times,serif" font-size="20.00" fill="#000000">0.875</text>
</g>
<!-- SG_1_Node_5&#45;&gt;SG_1_Node_12 -->
<g id="edge23" class="edge">
<title>SG_1_Node_5&#45;&gt;SG_1_Node_12</title>
<path fill="none" stroke="#000000" d="M548.5191,-179.5485C544.8281,-152.6336 537.8399,-101.6751 533.3039,-68.5978"/>
<polygon fill="#000000" stroke="#000000" points="536.7509,-67.9716 531.9246,-58.5399 529.8158,-68.9227 536.7509,-67.9716"/>
<text text-anchor="middle" x="566.5" y="-112.4264" font-family="Times,serif" font-size="20.00" fill="#000000">deny</text>
</g>
<!-- SG_1_Node_13 -->
<g id="node26" class="node">
<title>SG_1_Node_13</title>
<ellipse fill="none" stroke="#000000" cx="634" cy="-37.2132" rx="34.7971" ry="21.4286"/>
<text text-anchor="middle" x="634" y="-32.2132" font-family="Times,serif" font-size="20.00" fill="#000000">1.0</text>
</g>
<!-- SG_1_Node_5&#45;&gt;SG_1_Node_13 -->
<g id="edge24" class="edge">
<title>SG_1_Node_5&#45;&gt;SG_1_Node_13</title>
<path fill="none" stroke="#000000" d="M566.8954,-179.429C575.9703,-168.392 587.081,-153.7221 595,-139.4264 607.6548,-116.5816 617.9665,-88.79 624.8014,-67.956"/>
<polygon fill="#000000" stroke="#000000" points="628.1644,-68.9302 627.8725,-58.3394 621.4962,-66.8007 628.1644,-68.9302"/>
<text text-anchor="middle" x="647" y="-123.4264" font-family="Times,serif" font-size="20.00" fill="#000000">[NA]</text>
<text text-anchor="middle" x="647" y="-101.4264" font-family="Times,serif" font-size="20.00" fill="#000000">empty</text>
</g>
</g>
</svg>
