<?xml version="1.0" encoding="UTF-8" standalone="no"?>
<!DOCTYPE svg PUBLIC "-//W3C//DTD SVG 1.1//EN"
 "http://www.w3.org/Graphics/SVG/1.1/DTD/svg11.dtd">
<!-- Generated by graphviz version 2.40.1 (20161225.0304)
 -->
<!-- Title: G Pages: 1 -->
<svg width="1515pt" height="1179pt"
 viewBox="0.00 0.00 1515.00 1178.56" xmlns="http://www.w3.org/2000/svg" xmlns:xlink="http://www.w3.org/1999/xlink">
<g id="graph0" class="graph" transform="scale(1 1) rotate(0) translate(4 1174.5584)">
<title>G</title>
<polygon fill="#ffffff" stroke="transparent" points="-4,4 -4,-1174.5584 1511,-1174.5584 1511,4 -4,4"/>
<g id="clust1" class="cluster">
<title>cluster_0</title>
<polygon fill="none" stroke="#000000" points="8,-8 8,-1162.5584 1045,-1162.5584 1045,-8 8,-8"/>
<text text-anchor="middle" x="526.5" y="-1126.5584" font-family="Times,serif" font-size="40.00" fill="#000000">Tree 0, Class [&#39;suspend&#39;, &#39;loadedmetadata&#39;, &#39;error&#39;]</text>
</g>
<g id="clust9" class="cluster">
<title>cluster_1</title>
<polygon fill="none" stroke="#000000" points="1053,-8 1053,-1162.5584 1499,-1162.5584 1499,-8 1053,-8"/>
<text text-anchor="middle" x="1276" y="-1126.5584" font-family="Times,serif" font-size="40.00" fill="#000000">Tree 0, Class error</text>
</g>
<!-- SG_0_Node_0 -->
<g id="node1" class="node">
<title>SG_0_Node_0</title>
<polygon fill="none" stroke="#000000" points="168.5,-1102.5584 103.5,-1102.5584 103.5,-1066.5584 168.5,-1066.5584 168.5,-1102.5584"/>
<text text-anchor="middle" x="136" y="-1079.5584" font-family="Times,serif" font-size="20.00" fill="#000000">body</text>
</g>
<!-- SG_0_Node_6 -->
<g id="node2" class="node">
<title>SG_0_Node_6</title>
<ellipse fill="none" stroke="#000000" cx="72" cy="-927.3452" rx="34.7971" ry="21.4286"/>
<text text-anchor="middle" x="72" y="-922.3452" font-family="Times,serif" font-size="20.00" fill="#000000">0.0</text>
</g>
<!-- SG_0_Node_0&#45;&gt;SG_0_Node_6 -->
<g id="edge1" class="edge">
<title>SG_0_Node_0&#45;&gt;SG_0_Node_6</title>
<path fill="none" stroke="#000000" d="M114.2079,-1066.363C103.9493,-1056.5508 92.5534,-1043.5889 86,-1029.5584 75.6725,-1007.4477 72.3724,-979.9193 71.5448,-959.0034"/>
<polygon fill="#000000" stroke="#000000" points="75.0378,-958.6507 71.3133,-948.7322 68.0396,-958.8085 75.0378,-958.6507"/>
<text text-anchor="middle" x="132" y="-1013.5584" font-family="Times,serif" font-size="20.00" fill="#000000">[NA]</text>
<text text-anchor="middle" x="132" y="-991.5584" font-family="Times,serif" font-size="20.00" fill="#000000">12 levels</text>
</g>
<!-- SG_0_Node_1 -->
<g id="node3" class="node">
<title>SG_0_Node_1</title>
<polygon fill="none" stroke="#000000" points="271,-945.3452 129,-945.3452 129,-909.3452 271,-909.3452 271,-945.3452"/>
<text text-anchor="middle" x="200" y="-922.3452" font-family="Times,serif" font-size="20.00" fill="#000000">Status&#45;Code</text>
</g>
<!-- SG_0_Node_0&#45;&gt;SG_0_Node_1 -->
<g id="edge2" class="edge">
<title>SG_0_Node_0&#45;&gt;SG_0_Node_1</title>
<path fill="none" stroke="#000000" d="M153.4302,-1066.0669C162.0355,-1055.9839 171.8619,-1042.8688 178,-1029.5584 188.9246,-1005.8686 194.5168,-976.5631 197.3207,-955.4136"/>
<polygon fill="#000000" stroke="#000000" points="200.7988,-955.8046 198.5154,-945.4588 193.8487,-954.9704 200.7988,-955.8046"/>
<text text-anchor="middle" x="326.5" y="-1002.5584" font-family="Times,serif" font-size="20.00" fill="#000000">ecocnt_audio=duration=1</text>
</g>
<!-- SG_0_Node_7 -->
<g id="node4" class="node">
<title>SG_0_Node_7</title>
<ellipse fill="none" stroke="#000000" cx="66" cy="-766.9188" rx="34.7971" ry="21.4286"/>
<text text-anchor="middle" x="66" y="-761.9188" font-family="Times,serif" font-size="20.00" fill="#000000">0.0</text>
</g>
<!-- SG_0_Node_1&#45;&gt;SG_0_Node_7 -->
<g id="edge3" class="edge">
<title>SG_0_Node_1&#45;&gt;SG_0_Node_7</title>
<path fill="none" stroke="#000000" d="M175.4933,-909.2198C161.8222,-898.4382 144.9853,-883.9952 132,-869.132 112.267,-846.5453 94.1201,-817.5701 81.8702,-796.2413"/>
<polygon fill="#000000" stroke="#000000" points="84.7977,-794.3074 76.8333,-787.3203 78.7022,-797.749 84.7977,-794.3074"/>
<text text-anchor="middle" x="178" y="-853.132" font-family="Times,serif" font-size="20.00" fill="#000000">[NA]</text>
<text text-anchor="middle" x="178" y="-831.132" font-family="Times,serif" font-size="20.00" fill="#000000">61 levels</text>
</g>
<!-- SG_0_Node_2 -->
<g id="node5" class="node">
<title>SG_0_Node_2</title>
<polygon fill="none" stroke="#000000" points="435.5,-784.9188 118.5,-784.9188 118.5,-748.9188 435.5,-748.9188 435.5,-784.9188"/>
<text text-anchor="middle" x="277" y="-761.9188" font-family="Times,serif" font-size="20.00" fill="#000000">Cross&#45;Origin&#45;Resource&#45;Policy</text>
</g>
<!-- SG_0_Node_1&#45;&gt;SG_0_Node_2 -->
<g id="edge4" class="edge">
<title>SG_0_Node_1&#45;&gt;SG_0_Node_2</title>
<path fill="none" stroke="#000000" d="M208.6832,-909.2541C222.143,-881.2112 248.1306,-827.0671 263.8857,-794.2419"/>
<polygon fill="#000000" stroke="#000000" points="267.0586,-795.7198 268.2304,-785.19 260.7479,-792.6908 267.0586,-795.7198"/>
<text text-anchor="middle" x="267.5" y="-842.132" font-family="Times,serif" font-size="20.00" fill="#000000">200</text>
</g>
<!-- SG_0_Node_8 -->
<g id="node6" class="node">
<title>SG_0_Node_8</title>
<ellipse fill="none" stroke="#000000" cx="151" cy="-606.4924" rx="34.7971" ry="21.4286"/>
<text text-anchor="middle" x="151" y="-601.4924" font-family="Times,serif" font-size="20.00" fill="#000000">0.0</text>
</g>
<!-- SG_0_Node_2&#45;&gt;SG_0_Node_8 -->
<g id="edge5" class="edge">
<title>SG_0_Node_2&#45;&gt;SG_0_Node_8</title>
<path fill="none" stroke="#000000" d="M214.8054,-748.7884C194.8494,-739.8954 174.6584,-727.0229 162,-708.7056 147.7866,-688.1381 145.8343,-659.4756 146.9806,-637.735"/>
<polygon fill="#000000" stroke="#000000" points="150.4764,-637.9227 147.7521,-627.6842 143.4969,-637.3869 150.4764,-637.9227"/>
<text text-anchor="middle" x="223" y="-681.7056" font-family="Times,serif" font-size="20.00" fill="#000000">same&#45;origin</text>
</g>
<!-- SG_0_Node_3 -->
<g id="node7" class="node">
<title>SG_0_Node_3</title>
<polygon fill="none" stroke="#000000" points="386.5,-624.4924 231.5,-624.4924 231.5,-588.4924 386.5,-588.4924 386.5,-624.4924"/>
<text text-anchor="middle" x="309" y="-601.4924" font-family="Times,serif" font-size="20.00" fill="#000000">Content&#45;Type</text>
</g>
<!-- SG_0_Node_2&#45;&gt;SG_0_Node_3 -->
<g id="edge6" class="edge">
<title>SG_0_Node_2&#45;&gt;SG_0_Node_3</title>
<path fill="none" stroke="#000000" d="M280.6086,-748.8277C286.1543,-721.0255 296.8173,-667.5683 303.3804,-634.6655"/>
<polygon fill="#000000" stroke="#000000" points="306.8316,-635.255 305.3555,-624.7636 299.9669,-633.8857 306.8316,-635.255"/>
<text text-anchor="middle" x="329" y="-692.7056" font-family="Times,serif" font-size="20.00" fill="#000000">[NA]</text>
<text text-anchor="middle" x="329" y="-670.7056" font-family="Times,serif" font-size="20.00" fill="#000000">empty</text>
</g>
<!-- SG_0_Node_4 -->
<g id="node8" class="node">
<title>SG_0_Node_4</title>
<polygon fill="none" stroke="#000000" points="283,-354.066 21,-354.066 21,-318.066 283,-318.066 283,-354.066"/>
<text text-anchor="middle" x="152" y="-331.066" font-family="Times,serif" font-size="20.00" fill="#000000">X&#45;Content&#45;Type&#45;Options</text>
</g>
<!-- SG_0_Node_3&#45;&gt;SG_0_Node_4 -->
<g id="edge7" class="edge">
<title>SG_0_Node_3&#45;&gt;SG_0_Node_4</title>
<path fill="none" stroke="#000000" d="M241.287,-588.3966C206.1326,-577.5135 168.3826,-562.9602 158,-548.2792 118.8911,-492.9793 132.8384,-407.7197 143.8227,-364.009"/>
<polygon fill="#000000" stroke="#000000" points="147.2083,-364.8965 146.3785,-354.3342 140.4404,-363.1086 147.2083,-364.8965"/>
<text text-anchor="middle" x="235" y="-477.2792" font-family="Times,serif" font-size="20.00" fill="#000000">application/pdf</text>
<text text-anchor="middle" x="235" y="-455.2792" font-family="Times,serif" font-size="20.00" fill="#000000">text/html</text>
</g>
<!-- SG_0_Node_9 -->
<g id="node9" class="node">
<title>SG_0_Node_9</title>
<ellipse fill="none" stroke="#000000" cx="342" cy="-336.066" rx="34.7971" ry="21.4286"/>
<text text-anchor="middle" x="342" y="-331.066" font-family="Times,serif" font-size="20.00" fill="#000000">1.0</text>
</g>
<!-- SG_0_Node_3&#45;&gt;SG_0_Node_9 -->
<g id="edge8" class="edge">
<title>SG_0_Node_3&#45;&gt;SG_0_Node_9</title>
<path fill="none" stroke="#000000" d="M311.2165,-588.3291C316.742,-543.0489 331.1826,-424.7118 338.1413,-367.6871"/>
<polygon fill="#000000" stroke="#000000" points="341.6519,-367.8119 339.3891,-357.4615 334.7035,-366.9639 341.6519,-367.8119"/>
<text text-anchor="middle" x="445" y="-532.2792" font-family="Times,serif" font-size="20.00" fill="#000000">[NA]</text>
<text text-anchor="middle" x="445" y="-510.2792" font-family="Times,serif" font-size="20.00" fill="#000000">application/javascript</text>
<text text-anchor="middle" x="445" y="-488.2792" font-family="Times,serif" font-size="20.00" fill="#000000">audio/wav</text>
<text text-anchor="middle" x="445" y="-466.2792" font-family="Times,serif" font-size="20.00" fill="#000000">empty</text>
<text text-anchor="middle" x="445" y="-444.2792" font-family="Times,serif" font-size="20.00" fill="#000000">image/png</text>
<text text-anchor="middle" x="445" y="-422.2792" font-family="Times,serif" font-size="20.00" fill="#000000">text/css</text>
<text text-anchor="middle" x="445" y="-400.2792" font-family="Times,serif" font-size="20.00" fill="#000000">video/mp4</text>
</g>
<!-- SG_0_Node_10 -->
<g id="node10" class="node">
<title>SG_0_Node_10</title>
<ellipse fill="none" stroke="#000000" cx="81" cy="-175.6396" rx="34.7971" ry="21.4286"/>
<text text-anchor="middle" x="81" y="-170.6396" font-family="Times,serif" font-size="20.00" fill="#000000">0.0</text>
</g>
<!-- SG_0_Node_4&#45;&gt;SG_0_Node_10 -->
<g id="edge9" class="edge">
<title>SG_0_Node_4&#45;&gt;SG_0_Node_10</title>
<path fill="none" stroke="#000000" d="M130.4839,-317.9835C119.3427,-307.427 106.5301,-293.1885 99,-277.8528 88.1299,-255.7149 83.7379,-228.0301 82.0042,-207.0586"/>
<polygon fill="#000000" stroke="#000000" points="85.4953,-206.8069 81.3347,-197.0632 78.5109,-207.2747 85.4953,-206.8069"/>
<text text-anchor="middle" x="134" y="-250.8528" font-family="Times,serif" font-size="20.00" fill="#000000">nosniff</text>
</g>
<!-- SG_0_Node_5 -->
<g id="node11" class="node">
<title>SG_0_Node_5</title>
<polygon fill="none" stroke="#000000" points="288.5,-193.6396 133.5,-193.6396 133.5,-157.6396 288.5,-157.6396 288.5,-193.6396"/>
<text text-anchor="middle" x="211" y="-170.6396" font-family="Times,serif" font-size="20.00" fill="#000000">Content&#45;Type</text>
</g>
<!-- SG_0_Node_4&#45;&gt;SG_0_Node_5 -->
<g id="edge10" class="edge">
<title>SG_0_Node_4&#45;&gt;SG_0_Node_5</title>
<path fill="none" stroke="#000000" d="M158.6534,-317.9749C168.9224,-290.0523 188.7085,-236.2521 200.7955,-203.3865"/>
<polygon fill="#000000" stroke="#000000" points="204.1136,-204.5043 204.2804,-193.9107 197.5438,-202.088 204.1136,-204.5043"/>
<text text-anchor="middle" x="221" y="-261.8528" font-family="Times,serif" font-size="20.00" fill="#000000">[NA]</text>
<text text-anchor="middle" x="221" y="-239.8528" font-family="Times,serif" font-size="20.00" fill="#000000">empty</text>
</g>
<!-- SG_0_Node_11 -->
<g id="node12" class="node">
<title>SG_0_Node_11</title>
<ellipse fill="none" stroke="#000000" cx="131" cy="-37.2132" rx="34.7971" ry="21.4286"/>
<text text-anchor="middle" x="131" y="-32.2132" font-family="Times,serif" font-size="20.00" fill="#000000">0.0</text>
</g>
<!-- SG_0_Node_5&#45;&gt;SG_0_Node_11 -->
<g id="edge11" class="edge">
<title>SG_0_Node_5&#45;&gt;SG_0_Node_11</title>
<path fill="none" stroke="#000000" d="M182.8303,-157.6053C169.27,-147.4445 154.0314,-133.5573 145,-117.4264 136.7516,-102.6941 133.1525,-84.2485 131.6597,-68.7612"/>
<polygon fill="#000000" stroke="#000000" points="135.1371,-68.3184 130.9316,-58.5939 128.155,-68.8185 135.1371,-68.3184"/>
<text text-anchor="middle" x="222" y="-101.4264" font-family="Times,serif" font-size="20.00" fill="#000000">application/pdf</text>
</g>
<!-- SG_0_Node_12 -->
<g id="node13" class="node">
<title>SG_0_Node_12</title>
<ellipse fill="none" stroke="#000000" cx="321" cy="-37.2132" rx="34.7971" ry="21.4286"/>
<text text-anchor="middle" x="321" y="-32.2132" font-family="Times,serif" font-size="20.00" fill="#000000">1.0</text>
</g>
<!-- SG_0_Node_5&#45;&gt;SG_0_Node_12 -->
<g id="edge12" class="edge">
<title>SG_0_Node_5&#45;&gt;SG_0_Node_12</title>
<path fill="none" stroke="#000000" d="M250.4314,-157.6387C267.6264,-147.9647 286.6399,-134.4849 299,-117.4264 309.3558,-103.1341 314.838,-84.2043 317.7396,-68.3234"/>
<polygon fill="#000000" stroke="#000000" points="321.203,-68.8294 319.299,-58.4071 314.2879,-67.7419 321.203,-68.8294"/>
<text text-anchor="middle" x="357" y="-101.4264" font-family="Times,serif" font-size="20.00" fill="#000000">text/html</text>
</g>
<!-- SG_1_Node_0 -->
<g id="node14" class="node">
<title>SG_1_Node_0</title>
<polygon fill="none" stroke="#000000" points="1278.5,-1102.5584 1213.5,-1102.5584 1213.5,-1066.5584 1278.5,-1066.5584 1278.5,-1102.5584"/>
<text text-anchor="middle" x="1246" y="-1079.5584" font-family="Times,serif" font-size="20.00" fill="#000000">body</text>
</g>
<!-- SG_1_Node_1 -->
<g id="node15" class="node">
<title>SG_1_Node_1</title>
<polygon fill="none" stroke="#000000" points="1291,-945.3452 1149,-945.3452 1149,-909.3452 1291,-909.3452 1291,-945.3452"/>
<text text-anchor="middle" x="1220" y="-922.3452" font-family="Times,serif" font-size="20.00" fill="#000000">Status&#45;Code</text>
</g>
<!-- SG_1_Node_0&#45;&gt;SG_1_Node_1 -->
<g id="edge13" class="edge">
<title>SG_1_Node_0&#45;&gt;SG_1_Node_1</title>
<path fill="none" stroke="#000000" d="M1213.3288,-1081.746C1180.4801,-1076.9803 1131.4455,-1064.1417 1108,-1029.5584 1097.0265,-1013.372 1097.8498,-1002.2735 1108,-985.5584 1117.4532,-969.9912 1132.5727,-958.3963 1148.6832,-949.8352"/>
<polygon fill="#000000" stroke="#000000" points="1150.2854,-952.9476 1157.7057,-945.3852 1147.189,-946.6696 1150.2854,-952.9476"/>
<text text-anchor="middle" x="1242.5" y="-1002.5584" font-family="Times,serif" font-size="20.00" fill="#000000">ecocnt_audio=duration=1</text>
</g>
<!-- SG_1_Node_6 -->
<g id="node16" class="node">
<title>SG_1_Node_6</title>
<ellipse fill="none" stroke="#000000" cx="1399" cy="-927.3452" rx="34.7971" ry="21.4286"/>
<text text-anchor="middle" x="1399" y="-922.3452" font-family="Times,serif" font-size="20.00" fill="#000000">1.0</text>
</g>
<!-- SG_1_Node_0&#45;&gt;SG_1_Node_6 -->
<g id="edge14" class="edge">
<title>SG_1_Node_0&#45;&gt;SG_1_Node_6</title>
<path fill="none" stroke="#000000" d="M1278.5261,-1079.6149C1308.6023,-1073.2945 1352.2704,-1059.3603 1377,-1029.5584 1393.3365,-1009.8712 1398.3533,-980.8811 1399.5628,-958.7984"/>
<polygon fill="#000000" stroke="#000000" points="1403.0679,-958.6887 1399.8836,-948.5837 1396.0713,-958.4689 1403.0679,-958.6887"/>
<text text-anchor="middle" x="1442" y="-1013.5584" font-family="Times,serif" font-size="20.00" fill="#000000">[NA]</text>
<text text-anchor="middle" x="1442" y="-991.5584" font-family="Times,serif" font-size="20.00" fill="#000000">12 levels</text>
</g>
<!-- SG_1_Node_2 -->
<g id="node17" class="node">
<title>SG_1_Node_2</title>
<polygon fill="none" stroke="#000000" points="1378.5,-784.9188 1061.5,-784.9188 1061.5,-748.9188 1378.5,-748.9188 1378.5,-784.9188"/>
<text text-anchor="middle" x="1220" y="-761.9188" font-family="Times,serif" font-size="20.00" fill="#000000">Cross&#45;Origin&#45;Resource&#45;Policy</text>
</g>
<!-- SG_1_Node_1&#45;&gt;SG_1_Node_2 -->
<g id="edge15" class="edge">
<title>SG_1_Node_1&#45;&gt;SG_1_Node_2</title>
<path fill="none" stroke="#000000" d="M1220,-909.2541C1220,-881.5723 1220,-828.457 1220,-795.5203"/>
<polygon fill="#000000" stroke="#000000" points="1223.5001,-795.1899 1220,-785.19 1216.5001,-795.19 1223.5001,-795.1899"/>
<text text-anchor="middle" x="1239.5" y="-842.132" font-family="Times,serif" font-size="20.00" fill="#000000">200</text>
</g>
<!-- SG_1_Node_7 -->
<g id="node18" class="node">
<title>SG_1_Node_7</title>
<ellipse fill="none" stroke="#000000" cx="1431" cy="-766.9188" rx="34.7971" ry="21.4286"/>
<text text-anchor="middle" x="1431" y="-761.9188" font-family="Times,serif" font-size="20.00" fill="#000000">1.0</text>
</g>
<!-- SG_1_Node_1&#45;&gt;SG_1_Node_7 -->
<g id="edge16" class="edge">
<title>SG_1_Node_1&#45;&gt;SG_1_Node_7</title>
<path fill="none" stroke="#000000" d="M1243.7942,-909.2541C1282.4929,-879.8309 1358.9836,-821.674 1401.2271,-789.5556"/>
<polygon fill="#000000" stroke="#000000" points="1403.3558,-792.3339 1409.1978,-783.4953 1399.119,-786.7616 1403.3558,-792.3339"/>
<text text-anchor="middle" x="1399" y="-853.132" font-family="Times,serif" font-size="20.00" fill="#000000">[NA]</text>
<text text-anchor="middle" x="1399" y="-831.132" font-family="Times,serif" font-size="20.00" fill="#000000">61 levels</text>
</g>
<!-- SG_1_Node_3 -->
<g id="node19" class="node">
<title>SG_1_Node_3</title>
<polygon fill="none" stroke="#000000" points="1256.5,-624.4924 1101.5,-624.4924 1101.5,-588.4924 1256.5,-588.4924 1256.5,-624.4924"/>
<text text-anchor="middle" x="1179" y="-601.4924" font-family="Times,serif" font-size="20.00" fill="#000000">Content&#45;Type</text>
</g>
<!-- SG_1_Node_2&#45;&gt;SG_1_Node_3 -->
<g id="edge17" class="edge">
<title>SG_1_Node_2&#45;&gt;SG_1_Node_3</title>
<path fill="none" stroke="#000000" d="M1215.3765,-748.8277C1208.2711,-721.0255 1194.6091,-667.5683 1186.2002,-634.6655"/>
<polygon fill="#000000" stroke="#000000" points="1189.5367,-633.5855 1183.6695,-624.7636 1182.7547,-635.3188 1189.5367,-633.5855"/>
<text text-anchor="middle" x="1236" y="-681.7056" font-family="Times,serif" font-size="20.00" fill="#000000">empty</text>
</g>
<!-- SG_1_Node_8 -->
<g id="node20" class="node">
<title>SG_1_Node_8</title>
<ellipse fill="none" stroke="#000000" cx="1309" cy="-606.4924" rx="34.7971" ry="21.4286"/>
<text text-anchor="middle" x="1309" y="-601.4924" font-family="Times,serif" font-size="20.00" fill="#000000">1.0</text>
</g>
<!-- SG_1_Node_2&#45;&gt;SG_1_Node_8 -->
<g id="edge18" class="edge">
<title>SG_1_Node_2&#45;&gt;SG_1_Node_8</title>
<path fill="none" stroke="#000000" d="M1239.5845,-748.728C1250.3116,-737.9252 1263.1782,-723.483 1272,-708.7056 1285.3845,-686.2855 1295.1091,-658.2431 1301.2202,-637.2048"/>
<polygon fill="#000000" stroke="#000000" points="1304.6131,-638.0677 1303.9302,-627.4949 1297.8708,-636.1859 1304.6131,-638.0677"/>
<text text-anchor="middle" x="1353" y="-692.7056" font-family="Times,serif" font-size="20.00" fill="#000000">[NA]</text>
<text text-anchor="middle" x="1353" y="-670.7056" font-family="Times,serif" font-size="20.00" fill="#000000">same&#45;origin</text>
</g>
<!-- SG_1_Node_9 -->
<g id="node21" class="node">
<title>SG_1_Node_9</title>
<ellipse fill="none" stroke="#000000" cx="1096" cy="-336.066" rx="34.7971" ry="21.4286"/>
<text text-anchor="middle" x="1096" y="-331.066" font-family="Times,serif" font-size="20.00" fill="#000000">0.0</text>
</g>
<!-- SG_1_Node_3&#45;&gt;SG_1_Node_9 -->
<g id="edge19" class="edge">
<title>SG_1_Node_3&#45;&gt;SG_1_Node_9</title>
<path fill="none" stroke="#000000" d="M1136.0606,-588.3807C1119.482,-579.0094 1102.2964,-565.7978 1093,-548.2792 1062.2198,-490.2754 1075.7484,-410.1876 1086.8117,-366.8727"/>
<polygon fill="#000000" stroke="#000000" points="1090.1975,-367.7593 1089.4009,-357.1945 1083.4353,-365.9502 1090.1975,-367.7593"/>
<text text-anchor="middle" x="1204" y="-532.2792" font-family="Times,serif" font-size="20.00" fill="#000000">[NA]</text>
<text text-anchor="middle" x="1204" y="-510.2792" font-family="Times,serif" font-size="20.00" fill="#000000">application/javascript</text>
<text text-anchor="middle" x="1204" y="-488.2792" font-family="Times,serif" font-size="20.00" fill="#000000">audio/wav</text>
<text text-anchor="middle" x="1204" y="-466.2792" font-family="Times,serif" font-size="20.00" fill="#000000">empty</text>
<text text-anchor="middle" x="1204" y="-444.2792" font-family="Times,serif" font-size="20.00" fill="#000000">image/png</text>
<text text-anchor="middle" x="1204" y="-422.2792" font-family="Times,serif" font-size="20.00" fill="#000000">text/css</text>
<text text-anchor="middle" x="1204" y="-400.2792" font-family="Times,serif" font-size="20.00" fill="#000000">video/mp4</text>
</g>
<!-- SG_1_Node_4 -->
<g id="node22" class="node">
<title>SG_1_Node_4</title>
<polygon fill="none" stroke="#000000" points="1468,-354.066 1206,-354.066 1206,-318.066 1468,-318.066 1468,-354.066"/>
<text text-anchor="middle" x="1337" y="-331.066" font-family="Times,serif" font-size="20.00" fill="#000000">X&#45;Content&#45;Type&#45;Options</text>
</g>
<!-- SG_1_Node_3&#45;&gt;SG_1_Node_4 -->
<g id="edge20" class="edge">
<title>SG_1_Node_3&#45;&gt;SG_1_Node_4</title>
<path fill="none" stroke="#000000" d="M1236.3703,-588.4854C1268.8315,-577.0923 1304.9094,-561.9793 1315,-548.2792 1355.383,-493.4509 1349.111,-407.9293 1342.3669,-364.0738"/>
<polygon fill="#000000" stroke="#000000" points="1345.8045,-363.4085 1340.715,-354.1161 1338.8988,-364.5541 1345.8045,-363.4085"/>
<text text-anchor="middle" x="1424" y="-477.2792" font-family="Times,serif" font-size="20.00" fill="#000000">application/pdf</text>
<text text-anchor="middle" x="1424" y="-455.2792" font-family="Times,serif" font-size="20.00" fill="#000000">text/html</text>
</g>
<!-- SG_1_Node_5 -->
<g id="node23" class="node">
<title>SG_1_Node_5</title>
<polygon fill="none" stroke="#000000" points="1296.5,-193.6396 1141.5,-193.6396 1141.5,-157.6396 1296.5,-157.6396 1296.5,-193.6396"/>
<text text-anchor="middle" x="1219" y="-170.6396" font-family="Times,serif" font-size="20.00" fill="#000000">Content&#45;Type</text>
</g>
<!-- SG_1_Node_4&#45;&gt;SG_1_Node_5 -->
<g id="edge21" class="edge">
<title>SG_1_Node_4&#45;&gt;SG_1_Node_5</title>
<path fill="none" stroke="#000000" d="M1313.2194,-317.849C1300.279,-307.1465 1284.5939,-292.8107 1273,-277.8528 1254.981,-254.6056 1239.8954,-224.4769 1230.2901,-202.9646"/>
<polygon fill="#000000" stroke="#000000" points="1233.475,-201.5118 1226.2716,-193.7425 1227.0577,-204.3082 1233.475,-201.5118"/>
<text text-anchor="middle" x="1305" y="-250.8528" font-family="Times,serif" font-size="20.00" fill="#000000">empty</text>
</g>
<!-- SG_1_Node_10 -->
<g id="node24" class="node">
<title>SG_1_Node_10</title>
<ellipse fill="none" stroke="#000000" cx="1349" cy="-175.6396" rx="34.7971" ry="21.4286"/>
<text text-anchor="middle" x="1349" y="-170.6396" font-family="Times,serif" font-size="20.00" fill="#000000">1.0</text>
</g>
<!-- SG_1_Node_4&#45;&gt;SG_1_Node_10 -->
<g id="edge22" class="edge">
<title>SG_1_Node_4&#45;&gt;SG_1_Node_10</title>
<path fill="none" stroke="#000000" d="M1338.3532,-317.9749C1340.3665,-291.06 1344.1782,-240.1015 1346.6524,-207.0242"/>
<polygon fill="#000000" stroke="#000000" points="1350.149,-207.1996 1347.4047,-196.9663 1343.1685,-206.6773 1350.149,-207.1996"/>
<text text-anchor="middle" x="1379" y="-261.8528" font-family="Times,serif" font-size="20.00" fill="#000000">[NA]</text>
<text text-anchor="middle" x="1379" y="-239.8528" font-family="Times,serif" font-size="20.00" fill="#000000">nosniff</text>
</g>
<!-- SG_1_Node_11 -->
<g id="node25" class="node">
<title>SG_1_Node_11</title>
<ellipse fill="none" stroke="#000000" cx="1101" cy="-37.2132" rx="34.7971" ry="21.4286"/>
<text text-anchor="middle" x="1101" y="-32.2132" font-family="Times,serif" font-size="20.00" fill="#000000">0.0</text>
</g>
<!-- SG_1_Node_5&#45;&gt;SG_1_Node_11 -->
<g id="edge23" class="edge">
<title>SG_1_Node_5&#45;&gt;SG_1_Node_11</title>
<path fill="none" stroke="#000000" d="M1176.6663,-157.3964C1158.803,-147.8121 1139.1428,-134.4723 1126,-117.4264 1115.1137,-103.3072 1108.9238,-84.3853 1105.4273,-68.4653"/>
<polygon fill="#000000" stroke="#000000" points="1108.8379,-67.6674 1103.4963,-58.5177 1101.9661,-69.0014 1108.8379,-67.6674"/>
<text text-anchor="middle" x="1173" y="-101.4264" font-family="Times,serif" font-size="20.00" fill="#000000">text/html</text>
</g>
<!-- SG_1_Node_12 -->
<g id="node26" class="node">
<title>SG_1_Node_12</title>
<ellipse fill="none" stroke="#000000" cx="1231" cy="-37.2132" rx="34.7971" ry="21.4286"/>
<text text-anchor="middle" x="1231" y="-32.2132" font-family="Times,serif" font-size="20.00" fill="#000000">1.0</text>
</g>
<!-- SG_1_Node_5&#45;&gt;SG_1_Node_12 -->
<g id="edge24" class="edge">
<title>SG_1_Node_5&#45;&gt;SG_1_Node_12</title>
<path fill="none" stroke="#000000" d="M1220.5688,-157.5428C1222.5206,-135.0281 1225.8858,-96.2088 1228.2654,-68.7578"/>
<polygon fill="#000000" stroke="#000000" points="1231.7786,-68.7567 1229.1554,-58.4917 1224.8047,-68.152 1231.7786,-68.7567"/>
<text text-anchor="middle" x="1302" y="-101.4264" font-family="Times,serif" font-size="20.00" fill="#000000">application/pdf</text>
</g>
</g>
</svg>
