<?xml version="1.0" encoding="UTF-8" standalone="no"?>
<!DOCTYPE svg PUBLIC "-//W3C//DTD SVG 1.1//EN"
 "http://www.w3.org/Graphics/SVG/1.1/DTD/svg11.dtd">
<!-- Generated by graphviz version 2.40.1 (20161225.0304)
 -->
<!-- Title: G Pages: 1 -->
<svg width="1124pt" height="1465pt"
 viewBox="0.00 0.00 1124.00 1464.56" xmlns="http://www.w3.org/2000/svg" xmlns:xlink="http://www.w3.org/1999/xlink">
<g id="graph0" class="graph" transform="scale(1 1) rotate(0) translate(4 1460.5584)">
<title>G</title>
<polygon fill="#ffffff" stroke="transparent" points="-4,4 -4,-1460.5584 1120,-1460.5584 1120,4 -4,4"/>
<g id="clust1" class="cluster">
<title>cluster_0</title>
<polygon fill="none" stroke="#000000" points="8,-8 8,-1448.5584 554,-1448.5584 554,-8 8,-8"/>
<text text-anchor="middle" x="281" y="-1412.5584" font-family="Times,serif" font-size="40.00" fill="#000000">Tree 0, Class {&#39;length&#39;: 0}</text>
</g>
<g id="clust9" class="cluster">
<title>cluster_1</title>
<polygon fill="none" stroke="#000000" points="562,-8 562,-1448.5584 1108,-1448.5584 1108,-8 562,-8"/>
<text text-anchor="middle" x="835" y="-1412.5584" font-family="Times,serif" font-size="40.00" fill="#000000">Tree 0, Class {&#39;length&#39;: 1}</text>
</g>
<!-- SG_0_Node_0 -->
<g id="node1" class="node">
<title>SG_0_Node_0</title>
<polygon fill="none" stroke="#000000" points="333.5,-1388.5584 268.5,-1388.5584 268.5,-1352.5584 333.5,-1352.5584 333.5,-1388.5584"/>
<text text-anchor="middle" x="301" y="-1365.5584" font-family="Times,serif" font-size="20.00" fill="#000000">body</text>
</g>
<!-- SG_0_Node_1 -->
<g id="node2" class="node">
<title>SG_0_Node_1</title>
<polygon fill="none" stroke="#000000" points="246,-1231.3452 104,-1231.3452 104,-1195.3452 246,-1195.3452 246,-1231.3452"/>
<text text-anchor="middle" x="175" y="-1208.3452" font-family="Times,serif" font-size="20.00" fill="#000000">Status&#45;Code</text>
</g>
<!-- SG_0_Node_0&#45;&gt;SG_0_Node_1 -->
<g id="edge1" class="edge">
<title>SG_0_Node_0&#45;&gt;SG_0_Node_1</title>
<path fill="none" stroke="#000000" d="M268.3288,-1367.746C235.4801,-1362.9803 186.4455,-1350.1417 163,-1315.5584 148.2193,-1293.7562 154.4415,-1263.1682 162.3785,-1241.1433"/>
<polygon fill="#000000" stroke="#000000" points="165.6934,-1242.2766 166.0766,-1231.6887 159.1743,-1239.7267 165.6934,-1242.2766"/>
<text text-anchor="middle" x="297.5" y="-1288.5584" font-family="Times,serif" font-size="20.00" fill="#000000">ecocnt_audio=duration=1</text>
</g>
<!-- SG_0_Node_7 -->
<g id="node3" class="node">
<title>SG_0_Node_7</title>
<ellipse fill="none" stroke="#000000" cx="454" cy="-1213.3452" rx="34.7971" ry="21.4286"/>
<text text-anchor="middle" x="454" y="-1208.3452" font-family="Times,serif" font-size="20.00" fill="#000000">1.0</text>
</g>
<!-- SG_0_Node_0&#45;&gt;SG_0_Node_7 -->
<g id="edge2" class="edge">
<title>SG_0_Node_0&#45;&gt;SG_0_Node_7</title>
<path fill="none" stroke="#000000" d="M333.5261,-1365.6149C363.6023,-1359.2945 407.2704,-1345.3603 432,-1315.5584 448.3365,-1295.8712 453.3533,-1266.8811 454.5628,-1244.7984"/>
<polygon fill="#000000" stroke="#000000" points="458.0679,-1244.6887 454.8836,-1234.5837 451.0713,-1244.4689 458.0679,-1244.6887"/>
<text text-anchor="middle" x="497" y="-1299.5584" font-family="Times,serif" font-size="20.00" fill="#000000">[NA]</text>
<text text-anchor="middle" x="497" y="-1277.5584" font-family="Times,serif" font-size="20.00" fill="#000000">12 levels</text>
</g>
<!-- SG_0_Node_2 -->
<g id="node4" class="node">
<title>SG_0_Node_2</title>
<polygon fill="none" stroke="#000000" points="333.5,-938.9188 16.5,-938.9188 16.5,-902.9188 333.5,-902.9188 333.5,-938.9188"/>
<text text-anchor="middle" x="175" y="-915.9188" font-family="Times,serif" font-size="20.00" fill="#000000">Cross&#45;Origin&#45;Resource&#45;Policy</text>
</g>
<!-- SG_0_Node_1&#45;&gt;SG_0_Node_2 -->
<g id="edge3" class="edge">
<title>SG_0_Node_1&#45;&gt;SG_0_Node_2</title>
<path fill="none" stroke="#000000" d="M175,-1195.0527C175,-1145.6139 175,-1009.049 175,-949.4074"/>
<polygon fill="#000000" stroke="#000000" points="178.5001,-949.2045 175,-939.2045 171.5001,-949.2045 178.5001,-949.2045"/>
<text text-anchor="middle" x="194.5" y="-1139.132" font-family="Times,serif" font-size="20.00" fill="#000000">200</text>
<text text-anchor="middle" x="194.5" y="-1117.132" font-family="Times,serif" font-size="20.00" fill="#000000">201</text>
<text text-anchor="middle" x="194.5" y="-1095.132" font-family="Times,serif" font-size="20.00" fill="#000000">202</text>
<text text-anchor="middle" x="194.5" y="-1073.132" font-family="Times,serif" font-size="20.00" fill="#000000">203</text>
<text text-anchor="middle" x="194.5" y="-1051.132" font-family="Times,serif" font-size="20.00" fill="#000000">206</text>
<text text-anchor="middle" x="194.5" y="-1029.132" font-family="Times,serif" font-size="20.00" fill="#000000">207</text>
<text text-anchor="middle" x="194.5" y="-1007.132" font-family="Times,serif" font-size="20.00" fill="#000000">208</text>
<text text-anchor="middle" x="194.5" y="-985.132" font-family="Times,serif" font-size="20.00" fill="#000000">226</text>
</g>
<!-- SG_0_Node_8 -->
<g id="node5" class="node">
<title>SG_0_Node_8</title>
<ellipse fill="none" stroke="#000000" cx="386" cy="-920.9188" rx="34.7971" ry="21.4286"/>
<text text-anchor="middle" x="386" y="-915.9188" font-family="Times,serif" font-size="20.00" fill="#000000">1.0</text>
</g>
<!-- SG_0_Node_1&#45;&gt;SG_0_Node_8 -->
<g id="edge4" class="edge">
<title>SG_0_Node_1&#45;&gt;SG_0_Node_8</title>
<path fill="none" stroke="#000000" d="M188.4298,-1195.3C196.9432,-1183.8274 208.1653,-1168.6426 218,-1155.132 272.1142,-1080.7917 335.0983,-992.504 366.3396,-948.5912"/>
<polygon fill="#000000" stroke="#000000" points="369.2091,-950.5953 372.1526,-940.4175 363.5046,-946.5383 369.2091,-950.5953"/>
<text text-anchor="middle" x="388" y="-1073.132" font-family="Times,serif" font-size="20.00" fill="#000000">[NA]</text>
<text text-anchor="middle" x="388" y="-1051.132" font-family="Times,serif" font-size="20.00" fill="#000000">54 levels</text>
</g>
<!-- SG_0_Node_3 -->
<g id="node6" class="node">
<title>SG_0_Node_3</title>
<polygon fill="none" stroke="#000000" points="177,-778.4924 35,-778.4924 35,-742.4924 177,-742.4924 177,-778.4924"/>
<text text-anchor="middle" x="106" y="-755.4924" font-family="Times,serif" font-size="20.00" fill="#000000">Status&#45;Code</text>
</g>
<!-- SG_0_Node_2&#45;&gt;SG_0_Node_3 -->
<g id="edge5" class="edge">
<title>SG_0_Node_2&#45;&gt;SG_0_Node_3</title>
<path fill="none" stroke="#000000" d="M156.1862,-902.9036C146.0466,-892.1575 134.1773,-877.7135 127,-862.7056 115.7671,-839.2173 110.5279,-809.8871 108.093,-788.6771"/>
<polygon fill="#000000" stroke="#000000" points="111.5715,-788.2868 107.0836,-778.6895 104.607,-788.9908 111.5715,-788.2868"/>
<text text-anchor="middle" x="159" y="-835.7056" font-family="Times,serif" font-size="20.00" fill="#000000">empty</text>
</g>
<!-- SG_0_Node_9 -->
<g id="node7" class="node">
<title>SG_0_Node_9</title>
<ellipse fill="none" stroke="#000000" cx="230" cy="-760.4924" rx="34.7971" ry="21.4286"/>
<text text-anchor="middle" x="230" y="-755.4924" font-family="Times,serif" font-size="20.00" fill="#000000">1.0</text>
</g>
<!-- SG_0_Node_2&#45;&gt;SG_0_Node_9 -->
<g id="edge6" class="edge">
<title>SG_0_Node_2&#45;&gt;SG_0_Node_9</title>
<path fill="none" stroke="#000000" d="M181.2023,-902.8277C190.5206,-875.6478 208.245,-823.9484 219.5734,-790.9051"/>
<polygon fill="#000000" stroke="#000000" points="222.9351,-791.8917 222.8674,-781.2971 216.3134,-789.6215 222.9351,-791.8917"/>
<text text-anchor="middle" x="270" y="-846.7056" font-family="Times,serif" font-size="20.00" fill="#000000">[NA]</text>
<text text-anchor="middle" x="270" y="-824.7056" font-family="Times,serif" font-size="20.00" fill="#000000">same&#45;origin</text>
</g>
<!-- SG_0_Node_10 -->
<g id="node8" class="node">
<title>SG_0_Node_10</title>
<ellipse fill="none" stroke="#000000" cx="78" cy="-490.066" rx="34.7971" ry="21.4286"/>
<text text-anchor="middle" x="78" y="-485.066" font-family="Times,serif" font-size="20.00" fill="#000000">0.0</text>
</g>
<!-- SG_0_Node_3&#45;&gt;SG_0_Node_10 -->
<g id="edge7" class="edge">
<title>SG_0_Node_3&#45;&gt;SG_0_Node_10</title>
<path fill="none" stroke="#000000" d="M104.1194,-742.3291C99.431,-697.0489 87.1784,-578.7118 81.2741,-521.6871"/>
<polygon fill="#000000" stroke="#000000" points="84.7267,-521.0479 80.2153,-511.4615 77.7639,-521.7689 84.7267,-521.0479"/>
<text text-anchor="middle" x="118.5" y="-686.2792" font-family="Times,serif" font-size="20.00" fill="#000000">200</text>
<text text-anchor="middle" x="118.5" y="-664.2792" font-family="Times,serif" font-size="20.00" fill="#000000">201</text>
<text text-anchor="middle" x="118.5" y="-642.2792" font-family="Times,serif" font-size="20.00" fill="#000000">202</text>
<text text-anchor="middle" x="118.5" y="-620.2792" font-family="Times,serif" font-size="20.00" fill="#000000">203</text>
<text text-anchor="middle" x="118.5" y="-598.2792" font-family="Times,serif" font-size="20.00" fill="#000000">206</text>
<text text-anchor="middle" x="118.5" y="-576.2792" font-family="Times,serif" font-size="20.00" fill="#000000">207</text>
<text text-anchor="middle" x="118.5" y="-554.2792" font-family="Times,serif" font-size="20.00" fill="#000000">226</text>
</g>
<!-- SG_0_Node_4 -->
<g id="node9" class="node">
<title>SG_0_Node_4</title>
<polygon fill="none" stroke="#000000" points="285.5,-508.066 130.5,-508.066 130.5,-472.066 285.5,-472.066 285.5,-508.066"/>
<text text-anchor="middle" x="208" y="-485.066" font-family="Times,serif" font-size="20.00" fill="#000000">Content&#45;Type</text>
</g>
<!-- SG_0_Node_3&#45;&gt;SG_0_Node_4 -->
<g id="edge8" class="edge">
<title>SG_0_Node_3&#45;&gt;SG_0_Node_4</title>
<path fill="none" stroke="#000000" d="M118.9217,-742.2833C126.4094,-731.1276 135.5928,-716.3356 142,-702.2792 170.8544,-638.9779 191.8035,-559.5743 201.6695,-518.1518"/>
<polygon fill="#000000" stroke="#000000" points="205.1198,-518.7682 203.992,-508.2336 198.3042,-517.1722 205.1198,-518.7682"/>
<text text-anchor="middle" x="212.5" y="-620.2792" font-family="Times,serif" font-size="20.00" fill="#000000">208</text>
</g>
<!-- SG_0_Node_11 -->
<g id="node10" class="node">
<title>SG_0_Node_11</title>
<ellipse fill="none" stroke="#000000" cx="121" cy="-197.6396" rx="34.7971" ry="21.4286"/>
<text text-anchor="middle" x="121" y="-192.6396" font-family="Times,serif" font-size="20.00" fill="#000000">0.0</text>
</g>
<!-- SG_0_Node_4&#45;&gt;SG_0_Node_11 -->
<g id="edge9" class="edge">
<title>SG_0_Node_4&#45;&gt;SG_0_Node_11</title>
<path fill="none" stroke="#000000" d="M174.1528,-471.853C159.4612,-462.0602 143.6607,-448.543 135,-431.8528 100.8994,-366.1369 108.1631,-275.6755 115.2447,-228.7312"/>
<polygon fill="#000000" stroke="#000000" points="118.7006,-229.2847 116.8304,-218.8562 111.7891,-228.1748 118.7006,-229.2847"/>
<text text-anchor="middle" x="246" y="-415.8528" font-family="Times,serif" font-size="20.00" fill="#000000">[NA]</text>
<text text-anchor="middle" x="246" y="-393.8528" font-family="Times,serif" font-size="20.00" fill="#000000">application/javascript</text>
<text text-anchor="middle" x="246" y="-371.8528" font-family="Times,serif" font-size="20.00" fill="#000000">application/pdf</text>
<text text-anchor="middle" x="246" y="-349.8528" font-family="Times,serif" font-size="20.00" fill="#000000">audio/wav</text>
<text text-anchor="middle" x="246" y="-327.8528" font-family="Times,serif" font-size="20.00" fill="#000000">empty</text>
<text text-anchor="middle" x="246" y="-305.8528" font-family="Times,serif" font-size="20.00" fill="#000000">image/png</text>
<text text-anchor="middle" x="246" y="-283.8528" font-family="Times,serif" font-size="20.00" fill="#000000">text/html</text>
<text text-anchor="middle" x="246" y="-261.8528" font-family="Times,serif" font-size="20.00" fill="#000000">video/mp4</text>
</g>
<!-- SG_0_Node_5 -->
<g id="node11" class="node">
<title>SG_0_Node_5</title>
<polygon fill="none" stroke="#000000" points="474.5,-215.6396 283.5,-215.6396 283.5,-179.6396 474.5,-179.6396 474.5,-215.6396"/>
<text text-anchor="middle" x="379" y="-192.6396" font-family="Times,serif" font-size="20.00" fill="#000000">X&#45;Frame&#45;Options</text>
</g>
<!-- SG_0_Node_4&#45;&gt;SG_0_Node_5 -->
<g id="edge10" class="edge">
<title>SG_0_Node_4&#45;&gt;SG_0_Node_5</title>
<path fill="none" stroke="#000000" d="M285.5957,-477.0169C312.2961,-468.579 339.7797,-454.6942 357,-431.8528 403.1719,-370.6094 393.4412,-273.1801 384.9791,-225.6132"/>
<polygon fill="#000000" stroke="#000000" points="388.4042,-224.8883 383.1057,-215.7136 381.5262,-226.19 388.4042,-224.8883"/>
<text text-anchor="middle" x="431.5" y="-338.8528" font-family="Times,serif" font-size="20.00" fill="#000000">text/css</text>
</g>
<!-- SG_0_Node_12 -->
<g id="node12" class="node">
<title>SG_0_Node_12</title>
<ellipse fill="none" stroke="#000000" cx="326" cy="-37.2132" rx="34.7971" ry="21.4286"/>
<text text-anchor="middle" x="326" y="-32.2132" font-family="Times,serif" font-size="20.00" fill="#000000">0.0</text>
</g>
<!-- SG_0_Node_5&#45;&gt;SG_0_Node_12 -->
<g id="edge11" class="edge">
<title>SG_0_Node_5&#45;&gt;SG_0_Node_12</title>
<path fill="none" stroke="#000000" d="M358.3223,-179.6068C347.7842,-169.0653 335.9619,-154.8253 330,-139.4264 321.2638,-116.862 320.6938,-89.3629 322.0722,-68.5736"/>
<polygon fill="#000000" stroke="#000000" points="325.5794,-68.6356 322.9376,-58.3754 318.6045,-68.0436 325.5794,-68.6356"/>
<text text-anchor="middle" x="362" y="-123.4264" font-family="Times,serif" font-size="20.00" fill="#000000">[NA]</text>
<text text-anchor="middle" x="362" y="-101.4264" font-family="Times,serif" font-size="20.00" fill="#000000">empty</text>
</g>
<!-- SG_0_Node_13 -->
<g id="node13" class="node">
<title>SG_0_Node_13</title>
<ellipse fill="none" stroke="#000000" cx="431" cy="-37.2132" rx="52.1524" ry="21.4286"/>
<text text-anchor="middle" x="431" y="-32.2132" font-family="Times,serif" font-size="20.00" fill="#000000">0.125</text>
</g>
<!-- SG_0_Node_5&#45;&gt;SG_0_Node_13 -->
<g id="edge12" class="edge">
<title>SG_0_Node_5&#45;&gt;SG_0_Node_13</title>
<path fill="none" stroke="#000000" d="M384.864,-179.5485C393.6499,-152.4428 410.3401,-100.9515 421.0542,-67.8972"/>
<polygon fill="#000000" stroke="#000000" points="424.418,-68.8702 424.1721,-58.2782 417.7591,-66.7118 424.418,-68.8702"/>
<text text-anchor="middle" x="435.5" y="-112.4264" font-family="Times,serif" font-size="20.00" fill="#000000">deny</text>
</g>
<!-- SG_1_Node_0 -->
<g id="node14" class="node">
<title>SG_1_Node_0</title>
<polygon fill="none" stroke="#000000" points="722.5,-1388.5584 657.5,-1388.5584 657.5,-1352.5584 722.5,-1352.5584 722.5,-1388.5584"/>
<text text-anchor="middle" x="690" y="-1365.5584" font-family="Times,serif" font-size="20.00" fill="#000000">body</text>
</g>
<!-- SG_1_Node_7 -->
<g id="node15" class="node">
<title>SG_1_Node_7</title>
<ellipse fill="none" stroke="#000000" cx="626" cy="-1213.3452" rx="34.7971" ry="21.4286"/>
<text text-anchor="middle" x="626" y="-1208.3452" font-family="Times,serif" font-size="20.00" fill="#000000">0.0</text>
</g>
<!-- SG_1_Node_0&#45;&gt;SG_1_Node_7 -->
<g id="edge13" class="edge">
<title>SG_1_Node_0&#45;&gt;SG_1_Node_7</title>
<path fill="none" stroke="#000000" d="M668.2079,-1352.363C657.9493,-1342.5508 646.5534,-1329.5889 640,-1315.5584 629.6725,-1293.4477 626.3724,-1265.9193 625.5448,-1245.0034"/>
<polygon fill="#000000" stroke="#000000" points="629.0378,-1244.6507 625.3133,-1234.7322 622.0396,-1244.8085 629.0378,-1244.6507"/>
<text text-anchor="middle" x="686" y="-1299.5584" font-family="Times,serif" font-size="20.00" fill="#000000">[NA]</text>
<text text-anchor="middle" x="686" y="-1277.5584" font-family="Times,serif" font-size="20.00" fill="#000000">12 levels</text>
</g>
<!-- SG_1_Node_1 -->
<g id="node16" class="node">
<title>SG_1_Node_1</title>
<polygon fill="none" stroke="#000000" points="825,-1231.3452 683,-1231.3452 683,-1195.3452 825,-1195.3452 825,-1231.3452"/>
<text text-anchor="middle" x="754" y="-1208.3452" font-family="Times,serif" font-size="20.00" fill="#000000">Status&#45;Code</text>
</g>
<!-- SG_1_Node_0&#45;&gt;SG_1_Node_1 -->
<g id="edge14" class="edge">
<title>SG_1_Node_0&#45;&gt;SG_1_Node_1</title>
<path fill="none" stroke="#000000" d="M707.4302,-1352.0669C716.0355,-1341.9839 725.8619,-1328.8688 732,-1315.5584 742.9246,-1291.8686 748.5168,-1262.5631 751.3207,-1241.4136"/>
<polygon fill="#000000" stroke="#000000" points="754.7988,-1241.8046 752.5154,-1231.4588 747.8487,-1240.9704 754.7988,-1241.8046"/>
<text text-anchor="middle" x="880.5" y="-1288.5584" font-family="Times,serif" font-size="20.00" fill="#000000">ecocnt_audio=duration=1</text>
</g>
<!-- SG_1_Node_8 -->
<g id="node17" class="node">
<title>SG_1_Node_8</title>
<ellipse fill="none" stroke="#000000" cx="620" cy="-920.9188" rx="34.7971" ry="21.4286"/>
<text text-anchor="middle" x="620" y="-915.9188" font-family="Times,serif" font-size="20.00" fill="#000000">0.0</text>
</g>
<!-- SG_1_Node_1&#45;&gt;SG_1_Node_8 -->
<g id="edge15" class="edge">
<title>SG_1_Node_1&#45;&gt;SG_1_Node_8</title>
<path fill="none" stroke="#000000" d="M717.7753,-1195.183C701.7654,-1185.4013 684.0943,-1171.8788 673,-1155.132 631.0451,-1091.8011 621.9642,-999.9635 620.2148,-952.2873"/>
<polygon fill="#000000" stroke="#000000" points="623.7126,-952.1568 619.9326,-942.2592 616.7153,-952.3538 623.7126,-952.1568"/>
<text text-anchor="middle" x="719" y="-1073.132" font-family="Times,serif" font-size="20.00" fill="#000000">[NA]</text>
<text text-anchor="middle" x="719" y="-1051.132" font-family="Times,serif" font-size="20.00" fill="#000000">54 levels</text>
</g>
<!-- SG_1_Node_2 -->
<g id="node18" class="node">
<title>SG_1_Node_2</title>
<polygon fill="none" stroke="#000000" points="989.5,-938.9188 672.5,-938.9188 672.5,-902.9188 989.5,-902.9188 989.5,-938.9188"/>
<text text-anchor="middle" x="831" y="-915.9188" font-family="Times,serif" font-size="20.00" fill="#000000">Cross&#45;Origin&#45;Resource&#45;Policy</text>
</g>
<!-- SG_1_Node_1&#45;&gt;SG_1_Node_2 -->
<g id="edge16" class="edge">
<title>SG_1_Node_1&#45;&gt;SG_1_Node_2</title>
<path fill="none" stroke="#000000" d="M758.8167,-1195.0527C771.8616,-1145.5114 807.9434,-1008.482 823.5961,-949.0371"/>
<polygon fill="#000000" stroke="#000000" points="827.0233,-949.7661 826.1851,-939.2045 820.2541,-947.9836 827.0233,-949.7661"/>
<text text-anchor="middle" x="834.5" y="-1139.132" font-family="Times,serif" font-size="20.00" fill="#000000">200</text>
<text text-anchor="middle" x="834.5" y="-1117.132" font-family="Times,serif" font-size="20.00" fill="#000000">201</text>
<text text-anchor="middle" x="834.5" y="-1095.132" font-family="Times,serif" font-size="20.00" fill="#000000">202</text>
<text text-anchor="middle" x="834.5" y="-1073.132" font-family="Times,serif" font-size="20.00" fill="#000000">203</text>
<text text-anchor="middle" x="834.5" y="-1051.132" font-family="Times,serif" font-size="20.00" fill="#000000">206</text>
<text text-anchor="middle" x="834.5" y="-1029.132" font-family="Times,serif" font-size="20.00" fill="#000000">207</text>
<text text-anchor="middle" x="834.5" y="-1007.132" font-family="Times,serif" font-size="20.00" fill="#000000">208</text>
<text text-anchor="middle" x="834.5" y="-985.132" font-family="Times,serif" font-size="20.00" fill="#000000">226</text>
</g>
<!-- SG_1_Node_9 -->
<g id="node19" class="node">
<title>SG_1_Node_9</title>
<ellipse fill="none" stroke="#000000" cx="702" cy="-760.4924" rx="34.7971" ry="21.4286"/>
<text text-anchor="middle" x="702" y="-755.4924" font-family="Times,serif" font-size="20.00" fill="#000000">0.0</text>
</g>
<!-- SG_1_Node_2&#45;&gt;SG_1_Node_9 -->
<g id="edge17" class="edge">
<title>SG_1_Node_2&#45;&gt;SG_1_Node_9</title>
<path fill="none" stroke="#000000" d="M768.7773,-902.9004C748.5689,-894.0008 728.0204,-881.0954 715,-862.7056 700.5205,-842.2551 697.9945,-813.5815 698.6758,-791.8069"/>
<polygon fill="#000000" stroke="#000000" points="702.1751,-791.9152 699.2296,-781.738 695.1856,-791.5307 702.1751,-791.9152"/>
<text text-anchor="middle" x="776" y="-846.7056" font-family="Times,serif" font-size="20.00" fill="#000000">[NA]</text>
<text text-anchor="middle" x="776" y="-824.7056" font-family="Times,serif" font-size="20.00" fill="#000000">same&#45;origin</text>
</g>
<!-- SG_1_Node_3 -->
<g id="node20" class="node">
<title>SG_1_Node_3</title>
<polygon fill="none" stroke="#000000" points="931,-778.4924 789,-778.4924 789,-742.4924 931,-742.4924 931,-778.4924"/>
<text text-anchor="middle" x="860" y="-755.4924" font-family="Times,serif" font-size="20.00" fill="#000000">Status&#45;Code</text>
</g>
<!-- SG_1_Node_2&#45;&gt;SG_1_Node_3 -->
<g id="edge18" class="edge">
<title>SG_1_Node_2&#45;&gt;SG_1_Node_3</title>
<path fill="none" stroke="#000000" d="M834.2703,-902.8277C839.2961,-875.0255 848.9594,-821.5683 854.9072,-788.6655"/>
<polygon fill="#000000" stroke="#000000" points="858.3624,-789.2267 856.6972,-778.7636 851.474,-787.9814 858.3624,-789.2267"/>
<text text-anchor="middle" x="881" y="-835.7056" font-family="Times,serif" font-size="20.00" fill="#000000">empty</text>
</g>
<!-- SG_1_Node_4 -->
<g id="node21" class="node">
<title>SG_1_Node_4</title>
<polygon fill="none" stroke="#000000" points="872.5,-508.066 717.5,-508.066 717.5,-472.066 872.5,-472.066 872.5,-508.066"/>
<text text-anchor="middle" x="795" y="-485.066" font-family="Times,serif" font-size="20.00" fill="#000000">Content&#45;Type</text>
</g>
<!-- SG_1_Node_3&#45;&gt;SG_1_Node_4 -->
<g id="edge19" class="edge">
<title>SG_1_Node_3&#45;&gt;SG_1_Node_4</title>
<path fill="none" stroke="#000000" d="M855.6342,-742.3291C844.51,-696.0476 815.0405,-573.4425 801.7132,-517.9956"/>
<polygon fill="#000000" stroke="#000000" points="805.087,-517.0554 799.3468,-508.1503 798.2808,-518.6914 805.087,-517.0554"/>
<text text-anchor="middle" x="864.5" y="-620.2792" font-family="Times,serif" font-size="20.00" fill="#000000">208</text>
</g>
<!-- SG_1_Node_10 -->
<g id="node22" class="node">
<title>SG_1_Node_10</title>
<ellipse fill="none" stroke="#000000" cx="925" cy="-490.066" rx="34.7971" ry="21.4286"/>
<text text-anchor="middle" x="925" y="-485.066" font-family="Times,serif" font-size="20.00" fill="#000000">1.0</text>
</g>
<!-- SG_1_Node_3&#45;&gt;SG_1_Node_10 -->
<g id="edge20" class="edge">
<title>SG_1_Node_3&#45;&gt;SG_1_Node_10</title>
<path fill="none" stroke="#000000" d="M870.2976,-742.4146C876.2849,-731.1838 883.5117,-716.2682 888,-702.2792 908.0226,-639.8738 917.9708,-563.4625 922.2547,-521.4646"/>
<polygon fill="#000000" stroke="#000000" points="925.7576,-521.6044 923.2475,-511.3113 918.7908,-520.9231 925.7576,-521.6044"/>
<text text-anchor="middle" x="938.5" y="-686.2792" font-family="Times,serif" font-size="20.00" fill="#000000">200</text>
<text text-anchor="middle" x="938.5" y="-664.2792" font-family="Times,serif" font-size="20.00" fill="#000000">201</text>
<text text-anchor="middle" x="938.5" y="-642.2792" font-family="Times,serif" font-size="20.00" fill="#000000">202</text>
<text text-anchor="middle" x="938.5" y="-620.2792" font-family="Times,serif" font-size="20.00" fill="#000000">203</text>
<text text-anchor="middle" x="938.5" y="-598.2792" font-family="Times,serif" font-size="20.00" fill="#000000">206</text>
<text text-anchor="middle" x="938.5" y="-576.2792" font-family="Times,serif" font-size="20.00" fill="#000000">207</text>
<text text-anchor="middle" x="938.5" y="-554.2792" font-family="Times,serif" font-size="20.00" fill="#000000">226</text>
</g>
<!-- SG_1_Node_5 -->
<g id="node23" class="node">
<title>SG_1_Node_5</title>
<polygon fill="none" stroke="#000000" points="781.5,-215.6396 590.5,-215.6396 590.5,-179.6396 781.5,-179.6396 781.5,-215.6396"/>
<text text-anchor="middle" x="686" y="-192.6396" font-family="Times,serif" font-size="20.00" fill="#000000">X&#45;Frame&#45;Options</text>
</g>
<!-- SG_1_Node_4&#45;&gt;SG_1_Node_5 -->
<g id="edge21" class="edge">
<title>SG_1_Node_4&#45;&gt;SG_1_Node_5</title>
<path fill="none" stroke="#000000" d="M760.3952,-471.8156C745.2386,-462.0145 728.7226,-448.5013 719,-431.8528 680.5616,-366.0328 680.5154,-272.5279 683.3954,-226.0892"/>
<polygon fill="#000000" stroke="#000000" points="686.9041,-226.0905 684.1261,-215.8664 679.9219,-225.5913 686.9041,-226.0905"/>
<text text-anchor="middle" x="758.5" y="-338.8528" font-family="Times,serif" font-size="20.00" fill="#000000">text/css</text>
</g>
<!-- SG_1_Node_11 -->
<g id="node24" class="node">
<title>SG_1_Node_11</title>
<ellipse fill="none" stroke="#000000" cx="834" cy="-197.6396" rx="34.7971" ry="21.4286"/>
<text text-anchor="middle" x="834" y="-192.6396" font-family="Times,serif" font-size="20.00" fill="#000000">1.0</text>
</g>
<!-- SG_1_Node_4&#45;&gt;SG_1_Node_11 -->
<g id="edge22" class="edge">
<title>SG_1_Node_4&#45;&gt;SG_1_Node_11</title>
<path fill="none" stroke="#000000" d="M797.4396,-471.7734C803.9209,-423.1758 821.63,-290.3912 829.7858,-229.2381"/>
<polygon fill="#000000" stroke="#000000" points="833.2943,-229.4063 831.1471,-219.0313 826.3557,-228.4809 833.2943,-229.4063"/>
<text text-anchor="middle" x="937" y="-415.8528" font-family="Times,serif" font-size="20.00" fill="#000000">[NA]</text>
<text text-anchor="middle" x="937" y="-393.8528" font-family="Times,serif" font-size="20.00" fill="#000000">application/javascript</text>
<text text-anchor="middle" x="937" y="-371.8528" font-family="Times,serif" font-size="20.00" fill="#000000">application/pdf</text>
<text text-anchor="middle" x="937" y="-349.8528" font-family="Times,serif" font-size="20.00" fill="#000000">audio/wav</text>
<text text-anchor="middle" x="937" y="-327.8528" font-family="Times,serif" font-size="20.00" fill="#000000">empty</text>
<text text-anchor="middle" x="937" y="-305.8528" font-family="Times,serif" font-size="20.00" fill="#000000">image/png</text>
<text text-anchor="middle" x="937" y="-283.8528" font-family="Times,serif" font-size="20.00" fill="#000000">text/html</text>
<text text-anchor="middle" x="937" y="-261.8528" font-family="Times,serif" font-size="20.00" fill="#000000">video/mp4</text>
</g>
<!-- SG_1_Node_12 -->
<g id="node25" class="node">
<title>SG_1_Node_12</title>
<ellipse fill="none" stroke="#000000" cx="654" cy="-37.2132" rx="52.1524" ry="21.4286"/>
<text text-anchor="middle" x="654" y="-32.2132" font-family="Times,serif" font-size="20.00" fill="#000000">0.875</text>
</g>
<!-- SG_1_Node_5&#45;&gt;SG_1_Node_12 -->
<g id="edge23" class="edge">
<title>SG_1_Node_5&#45;&gt;SG_1_Node_12</title>
<path fill="none" stroke="#000000" d="M682.3914,-179.5485C677.0227,-152.6336 666.8581,-101.6751 660.2602,-68.5978"/>
<polygon fill="#000000" stroke="#000000" points="663.6426,-67.662 658.254,-58.5399 656.7778,-69.0314 663.6426,-67.662"/>
<text text-anchor="middle" x="698.5" y="-112.4264" font-family="Times,serif" font-size="20.00" fill="#000000">deny</text>
</g>
<!-- SG_1_Node_13 -->
<g id="node26" class="node">
<title>SG_1_Node_13</title>
<ellipse fill="none" stroke="#000000" cx="759" cy="-37.2132" rx="34.7971" ry="21.4286"/>
<text text-anchor="middle" x="759" y="-32.2132" font-family="Times,serif" font-size="20.00" fill="#000000">1.0</text>
</g>
<!-- SG_1_Node_5&#45;&gt;SG_1_Node_13 -->
<g id="edge24" class="edge">
<title>SG_1_Node_5&#45;&gt;SG_1_Node_13</title>
<path fill="none" stroke="#000000" d="M701.0486,-179.4317C709.5863,-168.3956 719.942,-153.7257 727,-139.4264 738.2651,-116.6037 746.6318,-88.9665 751.9792,-68.1874"/>
<polygon fill="#000000" stroke="#000000" points="755.4215,-68.8475 754.4304,-58.2991 748.6271,-67.1632 755.4215,-68.8475"/>
<text text-anchor="middle" x="776" y="-123.4264" font-family="Times,serif" font-size="20.00" fill="#000000">[NA]</text>
<text text-anchor="middle" x="776" y="-101.4264" font-family="Times,serif" font-size="20.00" fill="#000000">empty</text>
</g>
</g>
</svg>
