<?xml version="1.0" encoding="UTF-8" standalone="no"?>
<!DOCTYPE svg PUBLIC "-//W3C//DTD SVG 1.1//EN"
 "http://www.w3.org/Graphics/SVG/1.1/DTD/svg11.dtd">
<!-- Generated by graphviz version 2.40.1 (20161225.0304)
 -->
<!-- Title: G Pages: 1 -->
<svg width="992pt" height="1179pt"
 viewBox="0.00 0.00 992.00 1178.56" xmlns="http://www.w3.org/2000/svg" xmlns:xlink="http://www.w3.org/1999/xlink">
<g id="graph0" class="graph" transform="scale(1 1) rotate(0) translate(4 1174.5584)">
<title>G</title>
<polygon fill="#ffffff" stroke="transparent" points="-4,4 -4,-1174.5584 988,-1174.5584 988,4 -4,4"/>
<g id="clust1" class="cluster">
<title>cluster_0</title>
<polygon fill="none" stroke="#000000" points="8,-8 8,-1162.5584 454,-1162.5584 454,-8 8,-8"/>
<text text-anchor="middle" x="231" y="-1126.5584" font-family="Times,serif" font-size="40.00" fill="#000000">Tree 0, Class 0</text>
</g>
<g id="clust9" class="cluster">
<title>cluster_1</title>
<polygon fill="none" stroke="#000000" points="462,-8 462,-1162.5584 908,-1162.5584 908,-8 462,-8"/>
<text text-anchor="middle" x="685" y="-1126.5584" font-family="Times,serif" font-size="40.00" fill="#000000">Tree 0, Class 1</text>
</g>
<!-- SG_0_Node_0 -->
<g id="node1" class="node">
<title>SG_0_Node_0</title>
<polygon fill="none" stroke="#000000" points="233.5,-1102.5584 168.5,-1102.5584 168.5,-1066.5584 233.5,-1066.5584 233.5,-1102.5584"/>
<text text-anchor="middle" x="201" y="-1079.5584" font-family="Times,serif" font-size="20.00" fill="#000000">body</text>
</g>
<!-- SG_0_Node_1 -->
<g id="node2" class="node">
<title>SG_0_Node_1</title>
<polygon fill="none" stroke="#000000" points="246,-945.3452 104,-945.3452 104,-909.3452 246,-909.3452 246,-945.3452"/>
<text text-anchor="middle" x="175" y="-922.3452" font-family="Times,serif" font-size="20.00" fill="#000000">Status&#45;Code</text>
</g>
<!-- SG_0_Node_0&#45;&gt;SG_0_Node_1 -->
<g id="edge1" class="edge">
<title>SG_0_Node_0&#45;&gt;SG_0_Node_1</title>
<path fill="none" stroke="#000000" d="M168.3288,-1081.746C135.4801,-1076.9803 86.4455,-1064.1417 63,-1029.5584 52.0265,-1013.372 52.8498,-1002.2735 63,-985.5584 72.4532,-969.9912 87.5727,-958.3963 103.6832,-949.8352"/>
<polygon fill="#000000" stroke="#000000" points="105.2854,-952.9476 112.7057,-945.3852 102.189,-946.6696 105.2854,-952.9476"/>
<text text-anchor="middle" x="197.5" y="-1002.5584" font-family="Times,serif" font-size="20.00" fill="#000000">ecocnt_audio=duration=1</text>
</g>
<!-- SG_0_Node_6 -->
<g id="node3" class="node">
<title>SG_0_Node_6</title>
<ellipse fill="none" stroke="#000000" cx="354" cy="-927.3452" rx="34.7971" ry="21.4286"/>
<text text-anchor="middle" x="354" y="-922.3452" font-family="Times,serif" font-size="20.00" fill="#000000">1.0</text>
</g>
<!-- SG_0_Node_0&#45;&gt;SG_0_Node_6 -->
<g id="edge2" class="edge">
<title>SG_0_Node_0&#45;&gt;SG_0_Node_6</title>
<path fill="none" stroke="#000000" d="M233.5261,-1079.6149C263.6023,-1073.2945 307.2704,-1059.3603 332,-1029.5584 348.3365,-1009.8712 353.3533,-980.8811 354.5628,-958.7984"/>
<polygon fill="#000000" stroke="#000000" points="358.0679,-958.6887 354.8836,-948.5837 351.0713,-958.4689 358.0679,-958.6887"/>
<text text-anchor="middle" x="397" y="-1013.5584" font-family="Times,serif" font-size="20.00" fill="#000000">[NA]</text>
<text text-anchor="middle" x="397" y="-991.5584" font-family="Times,serif" font-size="20.00" fill="#000000">12 levels</text>
</g>
<!-- SG_0_Node_2 -->
<g id="node4" class="node">
<title>SG_0_Node_2</title>
<polygon fill="none" stroke="#000000" points="333.5,-784.9188 16.5,-784.9188 16.5,-748.9188 333.5,-748.9188 333.5,-784.9188"/>
<text text-anchor="middle" x="175" y="-761.9188" font-family="Times,serif" font-size="20.00" fill="#000000">Cross&#45;Origin&#45;Resource&#45;Policy</text>
</g>
<!-- SG_0_Node_1&#45;&gt;SG_0_Node_2 -->
<g id="edge3" class="edge">
<title>SG_0_Node_1&#45;&gt;SG_0_Node_2</title>
<path fill="none" stroke="#000000" d="M175,-909.2541C175,-881.5723 175,-828.457 175,-795.5203"/>
<polygon fill="#000000" stroke="#000000" points="178.5001,-795.1899 175,-785.19 171.5001,-795.19 178.5001,-795.1899"/>
<text text-anchor="middle" x="194.5" y="-842.132" font-family="Times,serif" font-size="20.00" fill="#000000">200</text>
</g>
<!-- SG_0_Node_7 -->
<g id="node5" class="node">
<title>SG_0_Node_7</title>
<ellipse fill="none" stroke="#000000" cx="386" cy="-766.9188" rx="34.7971" ry="21.4286"/>
<text text-anchor="middle" x="386" y="-761.9188" font-family="Times,serif" font-size="20.00" fill="#000000">1.0</text>
</g>
<!-- SG_0_Node_1&#45;&gt;SG_0_Node_7 -->
<g id="edge4" class="edge">
<title>SG_0_Node_1&#45;&gt;SG_0_Node_7</title>
<path fill="none" stroke="#000000" d="M198.7942,-909.2541C237.4929,-879.8309 313.9836,-821.674 356.2271,-789.5556"/>
<polygon fill="#000000" stroke="#000000" points="358.3558,-792.3339 364.1978,-783.4953 354.119,-786.7616 358.3558,-792.3339"/>
<text text-anchor="middle" x="354" y="-853.132" font-family="Times,serif" font-size="20.00" fill="#000000">[NA]</text>
<text text-anchor="middle" x="354" y="-831.132" font-family="Times,serif" font-size="20.00" fill="#000000">61 levels</text>
</g>
<!-- SG_0_Node_3 -->
<g id="node6" class="node">
<title>SG_0_Node_3</title>
<polygon fill="none" stroke="#000000" points="211.5,-624.4924 56.5,-624.4924 56.5,-588.4924 211.5,-588.4924 211.5,-624.4924"/>
<text text-anchor="middle" x="134" y="-601.4924" font-family="Times,serif" font-size="20.00" fill="#000000">Content&#45;Type</text>
</g>
<!-- SG_0_Node_2&#45;&gt;SG_0_Node_3 -->
<g id="edge5" class="edge">
<title>SG_0_Node_2&#45;&gt;SG_0_Node_3</title>
<path fill="none" stroke="#000000" d="M170.3765,-748.8277C163.2711,-721.0255 149.6091,-667.5683 141.2002,-634.6655"/>
<polygon fill="#000000" stroke="#000000" points="144.5367,-633.5855 138.6695,-624.7636 137.7547,-635.3188 144.5367,-633.5855"/>
<text text-anchor="middle" x="191" y="-681.7056" font-family="Times,serif" font-size="20.00" fill="#000000">empty</text>
</g>
<!-- SG_0_Node_8 -->
<g id="node7" class="node">
<title>SG_0_Node_8</title>
<ellipse fill="none" stroke="#000000" cx="264" cy="-606.4924" rx="34.7971" ry="21.4286"/>
<text text-anchor="middle" x="264" y="-601.4924" font-family="Times,serif" font-size="20.00" fill="#000000">1.0</text>
</g>
<!-- SG_0_Node_2&#45;&gt;SG_0_Node_8 -->
<g id="edge6" class="edge">
<title>SG_0_Node_2&#45;&gt;SG_0_Node_8</title>
<path fill="none" stroke="#000000" d="M194.5845,-748.728C205.3116,-737.9252 218.1782,-723.483 227,-708.7056 240.3845,-686.2855 250.1091,-658.2431 256.2202,-637.2048"/>
<polygon fill="#000000" stroke="#000000" points="259.6131,-638.0677 258.9302,-627.4949 252.8708,-636.1859 259.6131,-638.0677"/>
<text text-anchor="middle" x="308" y="-692.7056" font-family="Times,serif" font-size="20.00" fill="#000000">[NA]</text>
<text text-anchor="middle" x="308" y="-670.7056" font-family="Times,serif" font-size="20.00" fill="#000000">same&#45;origin</text>
</g>
<!-- SG_0_Node_9 -->
<g id="node8" class="node">
<title>SG_0_Node_9</title>
<ellipse fill="none" stroke="#000000" cx="51" cy="-336.066" rx="34.7971" ry="21.4286"/>
<text text-anchor="middle" x="51" y="-331.066" font-family="Times,serif" font-size="20.00" fill="#000000">0.0</text>
</g>
<!-- SG_0_Node_3&#45;&gt;SG_0_Node_9 -->
<g id="edge7" class="edge">
<title>SG_0_Node_3&#45;&gt;SG_0_Node_9</title>
<path fill="none" stroke="#000000" d="M91.0606,-588.3807C74.482,-579.0094 57.2964,-565.7978 48,-548.2792 17.2198,-490.2754 30.7484,-410.1876 41.8117,-366.8727"/>
<polygon fill="#000000" stroke="#000000" points="45.1975,-367.7593 44.4009,-357.1945 38.4353,-365.9502 45.1975,-367.7593"/>
<text text-anchor="middle" x="159" y="-532.2792" font-family="Times,serif" font-size="20.00" fill="#000000">[NA]</text>
<text text-anchor="middle" x="159" y="-510.2792" font-family="Times,serif" font-size="20.00" fill="#000000">application/javascript</text>
<text text-anchor="middle" x="159" y="-488.2792" font-family="Times,serif" font-size="20.00" fill="#000000">audio/wav</text>
<text text-anchor="middle" x="159" y="-466.2792" font-family="Times,serif" font-size="20.00" fill="#000000">empty</text>
<text text-anchor="middle" x="159" y="-444.2792" font-family="Times,serif" font-size="20.00" fill="#000000">image/png</text>
<text text-anchor="middle" x="159" y="-422.2792" font-family="Times,serif" font-size="20.00" fill="#000000">text/css</text>
<text text-anchor="middle" x="159" y="-400.2792" font-family="Times,serif" font-size="20.00" fill="#000000">video/mp4</text>
</g>
<!-- SG_0_Node_4 -->
<g id="node9" class="node">
<title>SG_0_Node_4</title>
<polygon fill="none" stroke="#000000" points="423,-354.066 161,-354.066 161,-318.066 423,-318.066 423,-354.066"/>
<text text-anchor="middle" x="292" y="-331.066" font-family="Times,serif" font-size="20.00" fill="#000000">X&#45;Content&#45;Type&#45;Options</text>
</g>
<!-- SG_0_Node_3&#45;&gt;SG_0_Node_4 -->
<g id="edge8" class="edge">
<title>SG_0_Node_3&#45;&gt;SG_0_Node_4</title>
<path fill="none" stroke="#000000" d="M191.3703,-588.4854C223.8315,-577.0923 259.9094,-561.9793 270,-548.2792 310.383,-493.4509 304.111,-407.9293 297.3669,-364.0738"/>
<polygon fill="#000000" stroke="#000000" points="300.8045,-363.4085 295.715,-354.1161 293.8988,-364.5541 300.8045,-363.4085"/>
<text text-anchor="middle" x="379" y="-477.2792" font-family="Times,serif" font-size="20.00" fill="#000000">application/pdf</text>
<text text-anchor="middle" x="379" y="-455.2792" font-family="Times,serif" font-size="20.00" fill="#000000">text/html</text>
</g>
<!-- SG_0_Node_5 -->
<g id="node10" class="node">
<title>SG_0_Node_5</title>
<polygon fill="none" stroke="#000000" points="250.5,-193.6396 95.5,-193.6396 95.5,-157.6396 250.5,-157.6396 250.5,-193.6396"/>
<text text-anchor="middle" x="173" y="-170.6396" font-family="Times,serif" font-size="20.00" fill="#000000">Content&#45;Type</text>
</g>
<!-- SG_0_Node_4&#45;&gt;SG_0_Node_5 -->
<g id="edge9" class="edge">
<title>SG_0_Node_4&#45;&gt;SG_0_Node_5</title>
<path fill="none" stroke="#000000" d="M268.2634,-317.8148C255.3368,-307.1015 239.6508,-292.7665 228,-277.8528 209.8189,-254.58 194.4291,-224.455 184.5932,-202.9506"/>
<polygon fill="#000000" stroke="#000000" points="187.7495,-201.4348 180.4748,-193.7323 181.3584,-204.2903 187.7495,-201.4348"/>
<text text-anchor="middle" x="260" y="-250.8528" font-family="Times,serif" font-size="20.00" fill="#000000">empty</text>
</g>
<!-- SG_0_Node_10 -->
<g id="node11" class="node">
<title>SG_0_Node_10</title>
<ellipse fill="none" stroke="#000000" cx="303" cy="-175.6396" rx="34.7971" ry="21.4286"/>
<text text-anchor="middle" x="303" y="-170.6396" font-family="Times,serif" font-size="20.00" fill="#000000">1.0</text>
</g>
<!-- SG_0_Node_4&#45;&gt;SG_0_Node_10 -->
<g id="edge10" class="edge">
<title>SG_0_Node_4&#45;&gt;SG_0_Node_10</title>
<path fill="none" stroke="#000000" d="M293.2405,-317.9749C295.0859,-291.06 298.58,-240.1015 300.848,-207.0242"/>
<polygon fill="#000000" stroke="#000000" points="304.3453,-207.1823 301.5377,-196.9663 297.3617,-206.7034 304.3453,-207.1823"/>
<text text-anchor="middle" x="333" y="-261.8528" font-family="Times,serif" font-size="20.00" fill="#000000">[NA]</text>
<text text-anchor="middle" x="333" y="-239.8528" font-family="Times,serif" font-size="20.00" fill="#000000">nosniff</text>
</g>
<!-- SG_0_Node_11 -->
<g id="node12" class="node">
<title>SG_0_Node_11</title>
<ellipse fill="none" stroke="#000000" cx="54" cy="-37.2132" rx="34.7971" ry="21.4286"/>
<text text-anchor="middle" x="54" y="-32.2132" font-family="Times,serif" font-size="20.00" fill="#000000">0.0</text>
</g>
<!-- SG_0_Node_5&#45;&gt;SG_0_Node_11 -->
<g id="edge11" class="edge">
<title>SG_0_Node_5&#45;&gt;SG_0_Node_11</title>
<path fill="none" stroke="#000000" d="M138.1535,-157.428C114.9628,-144.6968 87.2888,-128.1237 79,-117.4264 68.0799,-103.3334 61.8884,-84.4126 58.3996,-68.4867"/>
<polygon fill="#000000" stroke="#000000" points="61.81,-67.6878 56.4746,-58.5344 54.9374,-69.0171 61.81,-67.6878"/>
<text text-anchor="middle" x="126" y="-101.4264" font-family="Times,serif" font-size="20.00" fill="#000000">text/html</text>
</g>
<!-- SG_0_Node_12 -->
<g id="node13" class="node">
<title>SG_0_Node_12</title>
<ellipse fill="none" stroke="#000000" cx="184" cy="-37.2132" rx="34.7971" ry="21.4286"/>
<text text-anchor="middle" x="184" y="-32.2132" font-family="Times,serif" font-size="20.00" fill="#000000">1.0</text>
</g>
<!-- SG_0_Node_5&#45;&gt;SG_0_Node_12 -->
<g id="edge12" class="edge">
<title>SG_0_Node_5&#45;&gt;SG_0_Node_12</title>
<path fill="none" stroke="#000000" d="M174.4381,-157.5428C176.2272,-135.0281 179.3119,-96.2088 181.4933,-68.7578"/>
<polygon fill="#000000" stroke="#000000" points="185.0059,-68.7376 182.3091,-58.4917 178.0279,-68.183 185.0059,-68.7376"/>
<text text-anchor="middle" x="256" y="-101.4264" font-family="Times,serif" font-size="20.00" fill="#000000">application/pdf</text>
</g>
<!-- SG_1_Node_0 -->
<g id="node14" class="node">
<title>SG_1_Node_0</title>
<polygon fill="none" stroke="#000000" points="599.5,-1102.5584 534.5,-1102.5584 534.5,-1066.5584 599.5,-1066.5584 599.5,-1102.5584"/>
<text text-anchor="middle" x="567" y="-1079.5584" font-family="Times,serif" font-size="20.00" fill="#000000">body</text>
</g>
<!-- SG_1_Node_6 -->
<g id="node15" class="node">
<title>SG_1_Node_6</title>
<ellipse fill="none" stroke="#000000" cx="505" cy="-927.3452" rx="34.7971" ry="21.4286"/>
<text text-anchor="middle" x="505" y="-922.3452" font-family="Times,serif" font-size="20.00" fill="#000000">0.0</text>
</g>
<!-- SG_1_Node_0&#45;&gt;SG_1_Node_6 -->
<g id="edge13" class="edge">
<title>SG_1_Node_0&#45;&gt;SG_1_Node_6</title>
<path fill="none" stroke="#000000" d="M545.0933,-1066.4158C534.8054,-1056.6171 523.418,-1043.6513 517,-1029.5584 506.9105,-1007.4036 504.1617,-979.8781 503.7976,-958.9745"/>
<polygon fill="#000000" stroke="#000000" points="507.2976,-958.7106 503.7984,-948.7103 500.2976,-958.71 507.2976,-958.7106"/>
<text text-anchor="middle" x="563" y="-1013.5584" font-family="Times,serif" font-size="20.00" fill="#000000">[NA]</text>
<text text-anchor="middle" x="563" y="-991.5584" font-family="Times,serif" font-size="20.00" fill="#000000">12 levels</text>
</g>
<!-- SG_1_Node_1 -->
<g id="node16" class="node">
<title>SG_1_Node_1</title>
<polygon fill="none" stroke="#000000" points="702,-945.3452 560,-945.3452 560,-909.3452 702,-909.3452 702,-945.3452"/>
<text text-anchor="middle" x="631" y="-922.3452" font-family="Times,serif" font-size="20.00" fill="#000000">Status&#45;Code</text>
</g>
<!-- SG_1_Node_0&#45;&gt;SG_1_Node_1 -->
<g id="edge14" class="edge">
<title>SG_1_Node_0&#45;&gt;SG_1_Node_1</title>
<path fill="none" stroke="#000000" d="M584.4302,-1066.0669C593.0355,-1055.9839 602.8619,-1042.8688 609,-1029.5584 619.9246,-1005.8686 625.5168,-976.5631 628.3207,-955.4136"/>
<polygon fill="#000000" stroke="#000000" points="631.7988,-955.8046 629.5154,-945.4588 624.8487,-954.9704 631.7988,-955.8046"/>
<text text-anchor="middle" x="757.5" y="-1002.5584" font-family="Times,serif" font-size="20.00" fill="#000000">ecocnt_audio=duration=1</text>
</g>
<!-- SG_1_Node_7 -->
<g id="node17" class="node">
<title>SG_1_Node_7</title>
<ellipse fill="none" stroke="#000000" cx="505" cy="-766.9188" rx="34.7971" ry="21.4286"/>
<text text-anchor="middle" x="505" y="-761.9188" font-family="Times,serif" font-size="20.00" fill="#000000">0.0</text>
</g>
<!-- SG_1_Node_1&#45;&gt;SG_1_Node_7 -->
<g id="edge15" class="edge">
<title>SG_1_Node_1&#45;&gt;SG_1_Node_7</title>
<path fill="none" stroke="#000000" d="M607.4394,-909.2077C594.3277,-898.4221 578.235,-883.9793 566,-869.132 547.3398,-846.4878 530.6138,-817.5189 519.4168,-796.2071"/>
<polygon fill="#000000" stroke="#000000" points="522.5147,-794.578 514.8208,-787.2942 516.2932,-797.7862 522.5147,-794.578"/>
<text text-anchor="middle" x="612" y="-853.132" font-family="Times,serif" font-size="20.00" fill="#000000">[NA]</text>
<text text-anchor="middle" x="612" y="-831.132" font-family="Times,serif" font-size="20.00" fill="#000000">61 levels</text>
</g>
<!-- SG_1_Node_2 -->
<g id="node18" class="node">
<title>SG_1_Node_2</title>
<polygon fill="none" stroke="#000000" points="874.5,-784.9188 557.5,-784.9188 557.5,-748.9188 874.5,-748.9188 874.5,-784.9188"/>
<text text-anchor="middle" x="716" y="-761.9188" font-family="Times,serif" font-size="20.00" fill="#000000">Cross&#45;Origin&#45;Resource&#45;Policy</text>
</g>
<!-- SG_1_Node_1&#45;&gt;SG_1_Node_2 -->
<g id="edge16" class="edge">
<title>SG_1_Node_1&#45;&gt;SG_1_Node_2</title>
<path fill="none" stroke="#000000" d="M640.5854,-909.2541C655.4436,-881.2112 684.1312,-827.0671 701.5232,-794.2419"/>
<polygon fill="#000000" stroke="#000000" points="704.7301,-795.6649 706.3193,-785.19 698.5447,-792.3876 704.7301,-795.6649"/>
<text text-anchor="middle" x="703.5" y="-842.132" font-family="Times,serif" font-size="20.00" fill="#000000">200</text>
</g>
<!-- SG_1_Node_8 -->
<g id="node19" class="node">
<title>SG_1_Node_8</title>
<ellipse fill="none" stroke="#000000" cx="550" cy="-606.4924" rx="34.7971" ry="21.4286"/>
<text text-anchor="middle" x="550" y="-601.4924" font-family="Times,serif" font-size="20.00" fill="#000000">0.0</text>
</g>
<!-- SG_1_Node_2&#45;&gt;SG_1_Node_8 -->
<g id="edge17" class="edge">
<title>SG_1_Node_2&#45;&gt;SG_1_Node_8</title>
<path fill="none" stroke="#000000" d="M626.8313,-748.8376C604.3069,-740.2028 582.2224,-727.4693 567,-708.7056 551.0269,-689.0166 547.4888,-660.0268 547.5352,-637.9446"/>
<polygon fill="#000000" stroke="#000000" points="551.0397,-637.8197 547.8071,-627.7301 544.0422,-637.6334 551.0397,-637.8197"/>
<text text-anchor="middle" x="628" y="-681.7056" font-family="Times,serif" font-size="20.00" fill="#000000">same&#45;origin</text>
</g>
<!-- SG_1_Node_3 -->
<g id="node20" class="node">
<title>SG_1_Node_3</title>
<polygon fill="none" stroke="#000000" points="757.5,-624.4924 602.5,-624.4924 602.5,-588.4924 757.5,-588.4924 757.5,-624.4924"/>
<text text-anchor="middle" x="680" y="-601.4924" font-family="Times,serif" font-size="20.00" fill="#000000">Content&#45;Type</text>
</g>
<!-- SG_1_Node_2&#45;&gt;SG_1_Node_3 -->
<g id="edge18" class="edge">
<title>SG_1_Node_2&#45;&gt;SG_1_Node_3</title>
<path fill="none" stroke="#000000" d="M711.9403,-748.8277C705.7014,-721.0255 693.7055,-667.5683 686.3221,-634.6655"/>
<polygon fill="#000000" stroke="#000000" points="689.7048,-633.7545 684.1001,-624.7636 682.8746,-635.2873 689.7048,-633.7545"/>
<text text-anchor="middle" x="734" y="-692.7056" font-family="Times,serif" font-size="20.00" fill="#000000">[NA]</text>
<text text-anchor="middle" x="734" y="-670.7056" font-family="Times,serif" font-size="20.00" fill="#000000">empty</text>
</g>
<!-- SG_1_Node_4 -->
<g id="node21" class="node">
<title>SG_1_Node_4</title>
<polygon fill="none" stroke="#000000" points="732,-354.066 470,-354.066 470,-318.066 732,-318.066 732,-354.066"/>
<text text-anchor="middle" x="601" y="-331.066" font-family="Times,serif" font-size="20.00" fill="#000000">X&#45;Content&#45;Type&#45;Options</text>
</g>
<!-- SG_1_Node_3&#45;&gt;SG_1_Node_4 -->
<g id="edge19" class="edge">
<title>SG_1_Node_3&#45;&gt;SG_1_Node_4</title>
<path fill="none" stroke="#000000" d="M612.0375,-588.3942C564.718,-575.1095 508.8947,-557.7881 502,-548.2792 461.8225,-492.868 468.0139,-453.6896 502,-394.2792 510.6487,-379.1607 524.9224,-367.5817 539.9753,-358.887"/>
<polygon fill="#000000" stroke="#000000" points="541.7394,-361.9125 548.8916,-354.0961 538.4261,-355.7462 541.7394,-361.9125"/>
<text text-anchor="middle" x="579" y="-477.2792" font-family="Times,serif" font-size="20.00" fill="#000000">application/pdf</text>
<text text-anchor="middle" x="579" y="-455.2792" font-family="Times,serif" font-size="20.00" fill="#000000">text/html</text>
</g>
<!-- SG_1_Node_9 -->
<g id="node22" class="node">
<title>SG_1_Node_9</title>
<ellipse fill="none" stroke="#000000" cx="785" cy="-336.066" rx="34.7971" ry="21.4286"/>
<text text-anchor="middle" x="785" y="-331.066" font-family="Times,serif" font-size="20.00" fill="#000000">1.0</text>
</g>
<!-- SG_1_Node_3&#45;&gt;SG_1_Node_9 -->
<g id="edge20" class="edge">
<title>SG_1_Node_3&#45;&gt;SG_1_Node_9</title>
<path fill="none" stroke="#000000" d="M687.0524,-588.3291C704.7934,-542.6372 751.4189,-422.5538 773.3203,-366.147"/>
<polygon fill="#000000" stroke="#000000" points="776.6294,-367.2941 776.9863,-356.7052 770.104,-364.7604 776.6294,-367.2941"/>
<text text-anchor="middle" x="873" y="-532.2792" font-family="Times,serif" font-size="20.00" fill="#000000">[NA]</text>
<text text-anchor="middle" x="873" y="-510.2792" font-family="Times,serif" font-size="20.00" fill="#000000">application/javascript</text>
<text text-anchor="middle" x="873" y="-488.2792" font-family="Times,serif" font-size="20.00" fill="#000000">audio/wav</text>
<text text-anchor="middle" x="873" y="-466.2792" font-family="Times,serif" font-size="20.00" fill="#000000">empty</text>
<text text-anchor="middle" x="873" y="-444.2792" font-family="Times,serif" font-size="20.00" fill="#000000">image/png</text>
<text text-anchor="middle" x="873" y="-422.2792" font-family="Times,serif" font-size="20.00" fill="#000000">text/css</text>
<text text-anchor="middle" x="873" y="-400.2792" font-family="Times,serif" font-size="20.00" fill="#000000">video/mp4</text>
</g>
<!-- SG_1_Node_10 -->
<g id="node23" class="node">
<title>SG_1_Node_10</title>
<ellipse fill="none" stroke="#000000" cx="535" cy="-175.6396" rx="34.7971" ry="21.4286"/>
<text text-anchor="middle" x="535" y="-170.6396" font-family="Times,serif" font-size="20.00" fill="#000000">0.0</text>
</g>
<!-- SG_1_Node_4&#45;&gt;SG_1_Node_10 -->
<g id="edge21" class="edge">
<title>SG_1_Node_4&#45;&gt;SG_1_Node_10</title>
<path fill="none" stroke="#000000" d="M580.1348,-317.915C569.3653,-307.3377 557.0409,-293.1012 550,-277.8528 539.7557,-255.6668 536.167,-228.1433 535.0512,-207.2484"/>
<polygon fill="#000000" stroke="#000000" points="538.539,-206.8527 534.6709,-196.9893 531.5438,-207.1121 538.539,-206.8527"/>
<text text-anchor="middle" x="585" y="-250.8528" font-family="Times,serif" font-size="20.00" fill="#000000">nosniff</text>
</g>
<!-- SG_1_Node_5 -->
<g id="node24" class="node">
<title>SG_1_Node_5</title>
<polygon fill="none" stroke="#000000" points="742.5,-193.6396 587.5,-193.6396 587.5,-157.6396 742.5,-157.6396 742.5,-193.6396"/>
<text text-anchor="middle" x="665" y="-170.6396" font-family="Times,serif" font-size="20.00" fill="#000000">Content&#45;Type</text>
</g>
<!-- SG_1_Node_4&#45;&gt;SG_1_Node_5 -->
<g id="edge22" class="edge">
<title>SG_1_Node_4&#45;&gt;SG_1_Node_5</title>
<path fill="none" stroke="#000000" d="M608.2172,-317.9749C619.3566,-290.0523 640.8194,-236.2521 653.9307,-203.3865"/>
<polygon fill="#000000" stroke="#000000" points="657.2564,-204.4958 657.711,-193.9107 650.7547,-201.902 657.2564,-204.4958"/>
<text text-anchor="middle" x="673" y="-261.8528" font-family="Times,serif" font-size="20.00" fill="#000000">[NA]</text>
<text text-anchor="middle" x="673" y="-239.8528" font-family="Times,serif" font-size="20.00" fill="#000000">empty</text>
</g>
<!-- SG_1_Node_11 -->
<g id="node25" class="node">
<title>SG_1_Node_11</title>
<ellipse fill="none" stroke="#000000" cx="560" cy="-37.2132" rx="34.7971" ry="21.4286"/>
<text text-anchor="middle" x="560" y="-32.2132" font-family="Times,serif" font-size="20.00" fill="#000000">0.0</text>
</g>
<!-- SG_1_Node_5&#45;&gt;SG_1_Node_11 -->
<g id="edge23" class="edge">
<title>SG_1_Node_5&#45;&gt;SG_1_Node_11</title>
<path fill="none" stroke="#000000" d="M608.1612,-157.5419C589.4656,-148.5805 570.7367,-135.6554 560,-117.4264 551.444,-102.8998 550.9802,-84.174 552.8685,-68.4693"/>
<polygon fill="#000000" stroke="#000000" points="556.3923,-68.5892 554.481,-58.1682 549.4765,-67.5065 556.3923,-68.5892"/>
<text text-anchor="middle" x="637" y="-101.4264" font-family="Times,serif" font-size="20.00" fill="#000000">application/pdf</text>
</g>
<!-- SG_1_Node_12 -->
<g id="node26" class="node">
<title>SG_1_Node_12</title>
<ellipse fill="none" stroke="#000000" cx="750" cy="-37.2132" rx="34.7971" ry="21.4286"/>
<text text-anchor="middle" x="750" y="-32.2132" font-family="Times,serif" font-size="20.00" fill="#000000">1.0</text>
</g>
<!-- SG_1_Node_5&#45;&gt;SG_1_Node_12 -->
<g id="edge24" class="edge">
<title>SG_1_Node_5&#45;&gt;SG_1_Node_12</title>
<path fill="none" stroke="#000000" d="M684.7972,-157.4014C695.6776,-146.5833 708.7933,-132.1416 718,-117.4264 727.5895,-102.0994 735.245,-83.4142 740.6608,-67.9351"/>
<polygon fill="#000000" stroke="#000000" points="744.0329,-68.8875 743.8942,-58.2936 737.3962,-66.6618 744.0329,-68.8875"/>
<text text-anchor="middle" x="776" y="-101.4264" font-family="Times,serif" font-size="20.00" fill="#000000">text/html</text>
</g>
</g>
</svg>
