<?xml version="1.0" encoding="UTF-8" standalone="no"?>
<!DOCTYPE svg PUBLIC "-//W3C//DTD SVG 1.1//EN"
 "http://www.w3.org/Graphics/SVG/1.1/DTD/svg11.dtd">
<!-- Generated by graphviz version 2.40.1 (20161225.0304)
 -->
<!-- Title: G Pages: 1 -->
<svg width="24015pt" height="515pt"
 viewBox="0.00 0.00 24015.00 514.85" xmlns="http://www.w3.org/2000/svg" xmlns:xlink="http://www.w3.org/1999/xlink">
<g id="graph0" class="graph" transform="scale(1 1) rotate(0) translate(4 510.8528)">
<title>G</title>
<polygon fill="#ffffff" stroke="transparent" points="-4,4 -4,-510.8528 24011,-510.8528 24011,4 -4,4"/>
<g id="clust1" class="cluster">
<title>cluster_0</title>
<polygon fill="none" stroke="#000000" points="8,-8 8,-498.8528 9359,-498.8528 9359,-8 8,-8"/>
<text text-anchor="middle" x="4683.5" y="-462.8528" font-family="Times,serif" font-size="40.00" fill="#000000">Tree 0, Class [{&#39;size&#39;: {&#39;transferSize&#39;: 0, &#39;decodedBodySize&#39;: 0, &#39;encodedBodySize&#39;: 0}, &#39;timing&#39;: {&#39;duration&#39;: &gt;0, &#39;fetchStart&#39;: &gt;0, &#39;redirectEnd&#39;: 0, &#39;redirectStart&#39;: 0, &#39;secureConnectionStart&#39;: 0}, &#39;initiatorType&#39;: &#39;script&#39;, &#39;nextHopProtocol&#39;: &#39;&#39;}, {&#39;size&#39;: {&#39;transferSize&#39;: 0, &#39;decodedBodySize&#39;: 0, &#39;encodedBodySize&#39;: 0}, &#39;timing&#39;: {&#39;duration&#39;: &gt;0, &#39;fetchStart&#39;: &gt;0, &#39;redirectEnd&#39;: 0, &#39;redirectStart&#39;: 0, &#39;secureConnectionStart&#39;: 0}, &#39;initiatorType&#39;: &#39;script&#39;, &#39;nextHopProtocol&#39;: &#39;&#39;}]</text>
</g>
<g id="clust5" class="cluster">
<title>cluster_1</title>
<polygon fill="none" stroke="#000000" points="9367,-8 9367,-498.8528 19038,-498.8528 19038,-8 9367,-8"/>
<text text-anchor="middle" x="14202.5" y="-462.8528" font-family="Times,serif" font-size="40.00" fill="#000000">Tree 0, Class [{&#39;size&#39;: {&#39;transferSize&#39;: 0, &#39;decodedBodySize&#39;: 0, &#39;encodedBodySize&#39;: 0}, &#39;timing&#39;: {&#39;duration&#39;: &gt;0, &#39;fetchStart&#39;: &gt;0, &#39;redirectEnd&#39;: 0, &#39;redirectStart&#39;: 0, &#39;secureConnectionStart&#39;: 0}, &#39;initiatorType&#39;: &#39;script&#39;, &#39;nextHopProtocol&#39;: &#39;http/1.1&#39;}, {&#39;size&#39;: {&#39;transferSize&#39;: 0, &#39;decodedBodySize&#39;: 0, &#39;encodedBodySize&#39;: 0}, &#39;timing&#39;: {&#39;duration&#39;: &gt;0, &#39;fetchStart&#39;: &gt;0, &#39;redirectEnd&#39;: 0, &#39;redirectStart&#39;: 0, &#39;secureConnectionStart&#39;: 0}, &#39;initiatorType&#39;: &#39;script&#39;, &#39;nextHopProtocol&#39;: &#39;http/1.1&#39;}]</text>
</g>
<g id="clust9" class="cluster">
<title>cluster_2</title>
<polygon fill="none" stroke="#000000" points="19046,-8 19046,-498.8528 23999,-498.8528 23999,-8 19046,-8"/>
<text text-anchor="middle" x="21522.5" y="-462.8528" font-family="Times,serif" font-size="40.00" fill="#000000">Tree 0, Class {&#39;size&#39;: {&#39;transferSize&#39;: 0, &#39;decodedBodySize&#39;: 0, &#39;encodedBodySize&#39;: 0}, &#39;timing&#39;: {&#39;duration&#39;: &gt;0, &#39;fetchStart&#39;: &gt;0, &#39;redirectEnd&#39;: 0, &#39;redirectStart&#39;: 0, &#39;secureConnectionStart&#39;: 0}, &#39;initiatorType&#39;: &#39;script&#39;, &#39;nextHopProtocol&#39;: &#39;http/1.1&#39;}</text>
</g>
<!-- SG_0_Node_0 -->
<g id="node1" class="node">
<title>SG_0_Node_0</title>
<polygon fill="none" stroke="#000000" points="339.5,-438.8528 22.5,-438.8528 22.5,-402.8528 339.5,-402.8528 339.5,-438.8528"/>
<text text-anchor="middle" x="181" y="-415.8528" font-family="Times,serif" font-size="20.00" fill="#000000">Cross&#45;Origin&#45;Resource&#45;Policy</text>
</g>
<!-- SG_0_Node_1 -->
<g id="node2" class="node">
<title>SG_0_Node_1</title>
<polygon fill="none" stroke="#000000" points="204,-281.6396 62,-281.6396 62,-245.6396 204,-245.6396 204,-281.6396"/>
<text text-anchor="middle" x="133" y="-258.6396" font-family="Times,serif" font-size="20.00" fill="#000000">Status&#45;Code</text>
</g>
<!-- SG_0_Node_0&#45;&gt;SG_0_Node_1 -->
<g id="edge1" class="edge">
<title>SG_0_Node_0&#45;&gt;SG_0_Node_1</title>
<path fill="none" stroke="#000000" d="M175.4938,-402.8185C167.1834,-375.5996 151.3666,-323.7952 141.5493,-291.641"/>
<polygon fill="#000000" stroke="#000000" points="144.8575,-290.49 138.5898,-281.9479 138.1626,-292.5341 144.8575,-290.49"/>
<text text-anchor="middle" x="196" y="-338.8528" font-family="Times,serif" font-size="20.00" fill="#000000">empty</text>
</g>
<!-- SG_0_Node_2 -->
<g id="node3" class="node">
<title>SG_0_Node_2</title>
<ellipse fill="none" stroke="#000000" cx="257" cy="-263.6396" rx="34.7971" ry="21.4286"/>
<text text-anchor="middle" x="257" y="-258.6396" font-family="Times,serif" font-size="20.00" fill="#000000">1.0</text>
</g>
<!-- SG_0_Node_0&#45;&gt;SG_0_Node_2 -->
<g id="edge2" class="edge">
<title>SG_0_Node_0&#45;&gt;SG_0_Node_2</title>
<path fill="none" stroke="#000000" d="M200.6775,-402.6195C210.4457,-392.6071 221.6897,-379.4773 229,-365.8528 240.9068,-343.6615 248.0856,-315.9805 252.1884,-295.024"/>
<polygon fill="#000000" stroke="#000000" points="255.6587,-295.503 254.0125,-285.0369 248.7726,-294.2453 255.6587,-295.503"/>
<text text-anchor="middle" x="306" y="-349.8528" font-family="Times,serif" font-size="20.00" fill="#000000">[NA]</text>
<text text-anchor="middle" x="306" y="-327.8528" font-family="Times,serif" font-size="20.00" fill="#000000">same&#45;origin</text>
</g>
<!-- SG_0_Node_3 -->
<g id="node4" class="node">
<title>SG_0_Node_3</title>
<ellipse fill="none" stroke="#000000" cx="92" cy="-37.2132" rx="34.7971" ry="21.4286"/>
<text text-anchor="middle" x="92" y="-32.2132" font-family="Times,serif" font-size="20.00" fill="#000000">0.0</text>
</g>
<!-- SG_0_Node_1&#45;&gt;SG_0_Node_3 -->
<g id="edge3" class="edge">
<title>SG_0_Node_1&#45;&gt;SG_0_Node_3</title>
<path fill="none" stroke="#000000" d="M122.5086,-245.3903C116.6092,-234.2203 109.7045,-219.4274 106,-205.4264 93.724,-159.0292 91.4252,-103.1512 91.3621,-68.9123"/>
<polygon fill="#000000" stroke="#000000" points="94.8634,-68.6119 91.4104,-58.5956 87.8635,-68.5791 94.8634,-68.6119"/>
<text text-anchor="middle" x="152" y="-156.4264" font-family="Times,serif" font-size="20.00" fill="#000000">[NA]</text>
<text text-anchor="middle" x="152" y="-134.4264" font-family="Times,serif" font-size="20.00" fill="#000000">57 levels</text>
</g>
<!-- SG_0_Node_4 -->
<g id="node5" class="node">
<title>SG_0_Node_4</title>
<ellipse fill="none" stroke="#000000" cx="220" cy="-37.2132" rx="34.7971" ry="21.4286"/>
<text text-anchor="middle" x="220" y="-32.2132" font-family="Times,serif" font-size="20.00" fill="#000000">1.0</text>
</g>
<!-- SG_0_Node_1&#45;&gt;SG_0_Node_4 -->
<g id="edge4" class="edge">
<title>SG_0_Node_1&#45;&gt;SG_0_Node_4</title>
<path fill="none" stroke="#000000" d="M161.3641,-245.4225C174.7091,-235.3025 189.5212,-221.5065 198,-205.4264 220.8444,-162.1018 223.293,-104.0823 222.204,-68.7413"/>
<polygon fill="#000000" stroke="#000000" points="225.6922,-68.3855 221.7712,-58.5429 218.6985,-68.6824 225.6922,-68.3855"/>
<text text-anchor="middle" x="241.5" y="-189.4264" font-family="Times,serif" font-size="20.00" fill="#000000">100</text>
<text text-anchor="middle" x="241.5" y="-167.4264" font-family="Times,serif" font-size="20.00" fill="#000000">101</text>
<text text-anchor="middle" x="241.5" y="-145.4264" font-family="Times,serif" font-size="20.00" fill="#000000">102</text>
<text text-anchor="middle" x="241.5" y="-123.4264" font-family="Times,serif" font-size="20.00" fill="#000000">103</text>
<text text-anchor="middle" x="241.5" y="-101.4264" font-family="Times,serif" font-size="20.00" fill="#000000">407</text>
</g>
<!-- SG_1_Node_0 -->
<g id="node6" class="node">
<title>SG_1_Node_0</title>
<polygon fill="none" stroke="#000000" points="14212,-438.8528 14070,-438.8528 14070,-402.8528 14212,-402.8528 14212,-438.8528"/>
<text text-anchor="middle" x="14141" y="-415.8528" font-family="Times,serif" font-size="20.00" fill="#000000">Status&#45;Code</text>
</g>
<!-- SG_1_Node_2 -->
<g id="node7" class="node">
<title>SG_1_Node_2</title>
<ellipse fill="none" stroke="#000000" cx="14035" cy="-263.6396" rx="34.7971" ry="21.4286"/>
<text text-anchor="middle" x="14035" y="-258.6396" font-family="Times,serif" font-size="20.00" fill="#000000">0.0</text>
</g>
<!-- SG_1_Node_0&#45;&gt;SG_1_Node_2 -->
<g id="edge5" class="edge">
<title>SG_1_Node_0&#45;&gt;SG_1_Node_2</title>
<path fill="none" stroke="#000000" d="M14116.8978,-402.6602C14104.9683,-392.7554 14091.0163,-379.7103 14081,-365.8528 14065.0577,-343.7967 14052.8056,-315.3345 14044.9697,-294.0479"/>
<polygon fill="#000000" stroke="#000000" points="14048.2321,-292.7759 14041.5819,-284.5282 14041.6373,-295.1229 14048.2321,-292.7759"/>
<text text-anchor="middle" x="14127" y="-349.8528" font-family="Times,serif" font-size="20.00" fill="#000000">[NA]</text>
<text text-anchor="middle" x="14127" y="-327.8528" font-family="Times,serif" font-size="20.00" fill="#000000">22 levels</text>
</g>
<!-- SG_1_Node_1 -->
<g id="node8" class="node">
<title>SG_1_Node_1</title>
<polygon fill="none" stroke="#000000" points="14404.5,-281.6396 14087.5,-281.6396 14087.5,-245.6396 14404.5,-245.6396 14404.5,-281.6396"/>
<text text-anchor="middle" x="14246" y="-258.6396" font-family="Times,serif" font-size="20.00" fill="#000000">Cross&#45;Origin&#45;Resource&#45;Policy</text>
</g>
<!-- SG_1_Node_0&#45;&gt;SG_1_Node_1 -->
<g id="edge6" class="edge">
<title>SG_1_Node_0&#45;&gt;SG_1_Node_1</title>
<path fill="none" stroke="#000000" d="M14153.0448,-402.8185C14171.4599,-375.2462 14206.7246,-322.4455 14228.1283,-290.3983"/>
<polygon fill="#000000" stroke="#000000" points="14231.1287,-292.2077 14233.7722,-281.9479 14225.3076,-288.3198 14231.1287,-292.2077"/>
<text text-anchor="middle" x="14252" y="-338.8528" font-family="Times,serif" font-size="20.00" fill="#000000">40 levels</text>
</g>
<!-- SG_1_Node_3 -->
<g id="node9" class="node">
<title>SG_1_Node_3</title>
<ellipse fill="none" stroke="#000000" cx="14167" cy="-37.2132" rx="34.7971" ry="21.4286"/>
<text text-anchor="middle" x="14167" y="-32.2132" font-family="Times,serif" font-size="20.00" fill="#000000">0.0</text>
</g>
<!-- SG_1_Node_1&#45;&gt;SG_1_Node_3 -->
<g id="edge7" class="edge">
<title>SG_1_Node_1&#45;&gt;SG_1_Node_3</title>
<path fill="none" stroke="#000000" d="M14217.3139,-245.5875C14203.8869,-235.5095 14189.0985,-221.7013 14181,-205.4264 14159.2897,-161.7968 14159.8776,-103.8685 14162.9553,-68.629"/>
<polygon fill="#000000" stroke="#000000" points="14166.4595,-68.7597 14163.9684,-58.4619 14159.494,-68.0656 14166.4595,-68.7597"/>
<text text-anchor="middle" x="14242" y="-145.4264" font-family="Times,serif" font-size="20.00" fill="#000000">same&#45;origin</text>
</g>
<!-- SG_1_Node_4 -->
<g id="node10" class="node">
<title>SG_1_Node_4</title>
<ellipse fill="none" stroke="#000000" cx="14325" cy="-37.2132" rx="34.7971" ry="21.4286"/>
<text text-anchor="middle" x="14325" y="-32.2132" font-family="Times,serif" font-size="20.00" fill="#000000">1.0</text>
</g>
<!-- SG_1_Node_1&#45;&gt;SG_1_Node_4 -->
<g id="edge8" class="edge">
<title>SG_1_Node_1&#45;&gt;SG_1_Node_4</title>
<path fill="none" stroke="#000000" d="M14270.0103,-245.4985C14281.9385,-235.1233 14295.3941,-221.0735 14303,-205.4264 14324.3539,-161.4965 14327.2735,-103.8888 14326.6815,-68.7616"/>
<polygon fill="#000000" stroke="#000000" points="14330.1763,-68.5213 14326.4015,-58.6218 14323.1789,-68.7146 14330.1763,-68.5213"/>
<text text-anchor="middle" x="14358" y="-156.4264" font-family="Times,serif" font-size="20.00" fill="#000000">[NA]</text>
<text text-anchor="middle" x="14358" y="-134.4264" font-family="Times,serif" font-size="20.00" fill="#000000">empty</text>
</g>
<!-- SG_2_Node_0 -->
<g id="node11" class="node">
<title>SG_2_Node_0</title>
<polygon fill="none" stroke="#000000" points="21532,-438.8528 21390,-438.8528 21390,-402.8528 21532,-402.8528 21532,-438.8528"/>
<text text-anchor="middle" x="21461" y="-415.8528" font-family="Times,serif" font-size="20.00" fill="#000000">Status&#45;Code</text>
</g>
<!-- SG_2_Node_2 -->
<g id="node12" class="node">
<title>SG_2_Node_2</title>
<ellipse fill="none" stroke="#000000" cx="21355" cy="-263.6396" rx="34.7971" ry="21.4286"/>
<text text-anchor="middle" x="21355" y="-258.6396" font-family="Times,serif" font-size="20.00" fill="#000000">0.0</text>
</g>
<!-- SG_2_Node_0&#45;&gt;SG_2_Node_2 -->
<g id="edge9" class="edge">
<title>SG_2_Node_0&#45;&gt;SG_2_Node_2</title>
<path fill="none" stroke="#000000" d="M21436.8978,-402.6602C21424.9683,-392.7554 21411.0163,-379.7103 21401,-365.8528 21385.0577,-343.7967 21372.8056,-315.3345 21364.9697,-294.0479"/>
<polygon fill="#000000" stroke="#000000" points="21368.2321,-292.7759 21361.5819,-284.5282 21361.6373,-295.1229 21368.2321,-292.7759"/>
<text text-anchor="middle" x="21447" y="-349.8528" font-family="Times,serif" font-size="20.00" fill="#000000">[NA]</text>
<text text-anchor="middle" x="21447" y="-327.8528" font-family="Times,serif" font-size="20.00" fill="#000000">45 levels</text>
</g>
<!-- SG_2_Node_1 -->
<g id="node13" class="node">
<title>SG_2_Node_1</title>
<polygon fill="none" stroke="#000000" points="21724.5,-281.6396 21407.5,-281.6396 21407.5,-245.6396 21724.5,-245.6396 21724.5,-281.6396"/>
<text text-anchor="middle" x="21566" y="-258.6396" font-family="Times,serif" font-size="20.00" fill="#000000">Cross&#45;Origin&#45;Resource&#45;Policy</text>
</g>
<!-- SG_2_Node_0&#45;&gt;SG_2_Node_1 -->
<g id="edge10" class="edge">
<title>SG_2_Node_0&#45;&gt;SG_2_Node_1</title>
<path fill="none" stroke="#000000" d="M21473.0448,-402.8185C21491.4599,-375.2462 21526.7246,-322.4455 21548.1283,-290.3983"/>
<polygon fill="#000000" stroke="#000000" points="21551.1287,-292.2077 21553.7722,-281.9479 21545.3076,-288.3198 21551.1287,-292.2077"/>
<text text-anchor="middle" x="21572" y="-338.8528" font-family="Times,serif" font-size="20.00" fill="#000000">17 levels</text>
</g>
<!-- SG_2_Node_3 -->
<g id="node14" class="node">
<title>SG_2_Node_3</title>
<ellipse fill="none" stroke="#000000" cx="21487" cy="-37.2132" rx="34.7971" ry="21.4286"/>
<text text-anchor="middle" x="21487" y="-32.2132" font-family="Times,serif" font-size="20.00" fill="#000000">0.0</text>
</g>
<!-- SG_2_Node_1&#45;&gt;SG_2_Node_3 -->
<g id="edge11" class="edge">
<title>SG_2_Node_1&#45;&gt;SG_2_Node_3</title>
<path fill="none" stroke="#000000" d="M21537.3139,-245.5875C21523.8869,-235.5095 21509.0985,-221.7013 21501,-205.4264 21479.2897,-161.7968 21479.8776,-103.8685 21482.9553,-68.629"/>
<polygon fill="#000000" stroke="#000000" points="21486.4595,-68.7597 21483.9684,-58.4619 21479.494,-68.0656 21486.4595,-68.7597"/>
<text text-anchor="middle" x="21562" y="-156.4264" font-family="Times,serif" font-size="20.00" fill="#000000">[NA]</text>
<text text-anchor="middle" x="21562" y="-134.4264" font-family="Times,serif" font-size="20.00" fill="#000000">same&#45;origin</text>
</g>
<!-- SG_2_Node_4 -->
<g id="node15" class="node">
<title>SG_2_Node_4</title>
<ellipse fill="none" stroke="#000000" cx="21645" cy="-37.2132" rx="34.7971" ry="21.4286"/>
<text text-anchor="middle" x="21645" y="-32.2132" font-family="Times,serif" font-size="20.00" fill="#000000">1.0</text>
</g>
<!-- SG_2_Node_1&#45;&gt;SG_2_Node_4 -->
<g id="edge12" class="edge">
<title>SG_2_Node_1&#45;&gt;SG_2_Node_4</title>
<path fill="none" stroke="#000000" d="M21590.0103,-245.4985C21601.9385,-235.1233 21615.3941,-221.0735 21623,-205.4264 21644.3539,-161.4965 21647.2735,-103.8888 21646.6815,-68.7616"/>
<polygon fill="#000000" stroke="#000000" points="21650.1763,-68.5213 21646.4015,-58.6218 21643.1789,-68.7146 21650.1763,-68.5213"/>
<text text-anchor="middle" x="21678" y="-145.4264" font-family="Times,serif" font-size="20.00" fill="#000000">empty</text>
</g>
</g>
</svg>
