<?xml version="1.0" encoding="UTF-8" standalone="no"?>
<!DOCTYPE svg PUBLIC "-//W3C//DTD SVG 1.1//EN"
 "http://www.w3.org/Graphics/SVG/1.1/DTD/svg11.dtd">
<!-- Generated by graphviz version 2.40.1 (20161225.0304)
 -->
<!-- Title: G Pages: 1 -->
<svg width="1072pt" height="471pt"
 viewBox="0.00 0.00 1072.00 470.85" xmlns="http://www.w3.org/2000/svg" xmlns:xlink="http://www.w3.org/1999/xlink">
<g id="graph0" class="graph" transform="scale(1 1) rotate(0) translate(4 466.8528)">
<title>G</title>
<polygon fill="#ffffff" stroke="transparent" points="-4,4 -4,-466.8528 1068,-466.8528 1068,4 -4,4"/>
<g id="clust1" class="cluster">
<title>cluster_0</title>
<polygon fill="none" stroke="#000000" points="8,-8 8,-454.8528 535,-454.8528 535,-8 8,-8"/>
<text text-anchor="middle" x="271.5" y="-418.8528" font-family="Times,serif" font-size="40.00" fill="#000000">Tree 0, Class [{}, &#39;error&#39;]</text>
</g>
<g id="clust5" class="cluster">
<title>cluster_1</title>
<polygon fill="none" stroke="#000000" points="543,-8 543,-454.8528 1056,-454.8528 1056,-8 543,-8"/>
<text text-anchor="middle" x="799.5" y="-418.8528" font-family="Times,serif" font-size="40.00" fill="#000000">Tree 0, Class [{}, &#39;then&#39;]</text>
</g>
<!-- SG_0_Node_0 -->
<g id="node1" class="node">
<title>SG_0_Node_0</title>
<polygon fill="none" stroke="#000000" points="371.5,-394.8528 54.5,-394.8528 54.5,-358.8528 371.5,-358.8528 371.5,-394.8528"/>
<text text-anchor="middle" x="213" y="-371.8528" font-family="Times,serif" font-size="20.00" fill="#000000">Cross&#45;Origin&#45;Resource&#45;Policy</text>
</g>
<!-- SG_0_Node_1 -->
<g id="node2" class="node">
<title>SG_0_Node_1</title>
<polygon fill="none" stroke="#000000" points="204,-237.6396 62,-237.6396 62,-201.6396 204,-201.6396 204,-237.6396"/>
<text text-anchor="middle" x="133" y="-214.6396" font-family="Times,serif" font-size="20.00" fill="#000000">Status&#45;Code</text>
</g>
<!-- SG_0_Node_0&#45;&gt;SG_0_Node_1 -->
<g id="edge1" class="edge">
<title>SG_0_Node_0&#45;&gt;SG_0_Node_1</title>
<path fill="none" stroke="#000000" d="M190.8931,-358.7651C180.1396,-348.888 167.8689,-335.836 160,-321.8528 146.9867,-298.7277 140.0605,-269.1228 136.4965,-247.7323"/>
<polygon fill="#000000" stroke="#000000" points="139.9292,-247.0246 134.9649,-237.6648 133.0088,-248.0775 139.9292,-247.0246"/>
<text text-anchor="middle" x="192" y="-294.8528" font-family="Times,serif" font-size="20.00" fill="#000000">empty</text>
</g>
<!-- SG_0_Node_2 -->
<g id="node3" class="node">
<title>SG_0_Node_2</title>
<ellipse fill="none" stroke="#000000" cx="257" cy="-219.6396" rx="34.7971" ry="21.4286"/>
<text text-anchor="middle" x="257" y="-214.6396" font-family="Times,serif" font-size="20.00" fill="#000000">1.0</text>
</g>
<!-- SG_0_Node_0&#45;&gt;SG_0_Node_2 -->
<g id="edge2" class="edge">
<title>SG_0_Node_0&#45;&gt;SG_0_Node_2</title>
<path fill="none" stroke="#000000" d="M218.0474,-358.8185C225.4412,-332.4002 239.3171,-282.8213 248.3551,-250.528"/>
<polygon fill="#000000" stroke="#000000" points="251.7804,-251.2752 251.1052,-240.7019 245.0395,-249.3885 251.7804,-251.2752"/>
<text text-anchor="middle" x="301" y="-305.8528" font-family="Times,serif" font-size="20.00" fill="#000000">[NA]</text>
<text text-anchor="middle" x="301" y="-283.8528" font-family="Times,serif" font-size="20.00" fill="#000000">same&#45;origin</text>
</g>
<!-- SG_0_Node_3 -->
<g id="node4" class="node">
<title>SG_0_Node_3</title>
<ellipse fill="none" stroke="#000000" cx="92" cy="-37.2132" rx="34.7971" ry="21.4286"/>
<text text-anchor="middle" x="92" y="-32.2132" font-family="Times,serif" font-size="20.00" fill="#000000">0.0</text>
</g>
<!-- SG_0_Node_1&#45;&gt;SG_0_Node_3 -->
<g id="edge3" class="edge">
<title>SG_0_Node_1&#45;&gt;SG_0_Node_3</title>
<path fill="none" stroke="#000000" d="M122.7916,-201.6074C116.9163,-190.3932 109.9385,-175.4791 106,-161.4264 97.3909,-130.7091 94.0526,-94.3122 92.7706,-68.8867"/>
<polygon fill="#000000" stroke="#000000" points="96.2597,-68.5525 92.3377,-58.7104 89.266,-68.8501 96.2597,-68.5525"/>
<text text-anchor="middle" x="152" y="-134.4264" font-family="Times,serif" font-size="20.00" fill="#000000">[NA]</text>
<text text-anchor="middle" x="152" y="-112.4264" font-family="Times,serif" font-size="20.00" fill="#000000">59 levels</text>
</g>
<!-- SG_0_Node_4 -->
<g id="node5" class="node">
<title>SG_0_Node_4</title>
<ellipse fill="none" stroke="#000000" cx="220" cy="-37.2132" rx="34.7971" ry="21.4286"/>
<text text-anchor="middle" x="220" y="-32.2132" font-family="Times,serif" font-size="20.00" fill="#000000">1.0</text>
</g>
<!-- SG_0_Node_1&#45;&gt;SG_0_Node_4 -->
<g id="edge4" class="edge">
<title>SG_0_Node_1&#45;&gt;SG_0_Node_4</title>
<path fill="none" stroke="#000000" d="M160.7266,-201.5099C174.0772,-191.3239 189.0859,-177.4429 198,-161.4264 213.9132,-132.8341 218.7451,-95.3048 220.0102,-69.0105"/>
<polygon fill="#000000" stroke="#000000" points="223.5142,-68.9459 220.3496,-58.8348 216.5181,-68.7125 223.5142,-68.9459"/>
<text text-anchor="middle" x="236.5" y="-145.4264" font-family="Times,serif" font-size="20.00" fill="#000000">100</text>
<text text-anchor="middle" x="236.5" y="-123.4264" font-family="Times,serif" font-size="20.00" fill="#000000">102</text>
<text text-anchor="middle" x="236.5" y="-101.4264" font-family="Times,serif" font-size="20.00" fill="#000000">103</text>
</g>
<!-- SG_1_Node_0 -->
<g id="node6" class="node">
<title>SG_1_Node_0</title>
<polygon fill="none" stroke="#000000" points="921.5,-394.8528 604.5,-394.8528 604.5,-358.8528 921.5,-358.8528 921.5,-394.8528"/>
<text text-anchor="middle" x="763" y="-371.8528" font-family="Times,serif" font-size="20.00" fill="#000000">Cross&#45;Origin&#45;Resource&#45;Policy</text>
</g>
<!-- SG_1_Node_2 -->
<g id="node7" class="node">
<title>SG_1_Node_2</title>
<ellipse fill="none" stroke="#000000" cx="658" cy="-219.6396" rx="34.7971" ry="21.4286"/>
<text text-anchor="middle" x="658" y="-214.6396" font-family="Times,serif" font-size="20.00" fill="#000000">0.0</text>
</g>
<!-- SG_1_Node_0&#45;&gt;SG_1_Node_2 -->
<g id="edge5" class="edge">
<title>SG_1_Node_0&#45;&gt;SG_1_Node_2</title>
<path fill="none" stroke="#000000" d="M702.6558,-358.8004C685.1894,-350.4652 668.1205,-338.579 658,-321.8528 645.2107,-300.716 646.3316,-272.3397 650.0157,-250.8489"/>
<polygon fill="#000000" stroke="#000000" points="653.4739,-251.403 651.9805,-240.9139 646.6069,-250.0449 653.4739,-251.403"/>
<text text-anchor="middle" x="719" y="-305.8528" font-family="Times,serif" font-size="20.00" fill="#000000">[NA]</text>
<text text-anchor="middle" x="719" y="-283.8528" font-family="Times,serif" font-size="20.00" fill="#000000">same&#45;origin</text>
</g>
<!-- SG_1_Node_1 -->
<g id="node8" class="node">
<title>SG_1_Node_1</title>
<polygon fill="none" stroke="#000000" points="887,-237.6396 745,-237.6396 745,-201.6396 887,-201.6396 887,-237.6396"/>
<text text-anchor="middle" x="816" y="-214.6396" font-family="Times,serif" font-size="20.00" fill="#000000">Status&#45;Code</text>
</g>
<!-- SG_1_Node_0&#45;&gt;SG_1_Node_1 -->
<g id="edge6" class="edge">
<title>SG_1_Node_0&#45;&gt;SG_1_Node_1</title>
<path fill="none" stroke="#000000" d="M770.2827,-358.6225C774.4603,-347.9624 779.7103,-334.2124 784,-321.8528 792.6582,-296.9068 801.5575,-268.1845 807.7661,-247.5517"/>
<polygon fill="#000000" stroke="#000000" points="811.1573,-248.4275 810.6684,-237.844 804.4506,-246.4224 811.1573,-248.4275"/>
<text text-anchor="middle" x="830" y="-294.8528" font-family="Times,serif" font-size="20.00" fill="#000000">empty</text>
</g>
<!-- SG_1_Node_3 -->
<g id="node9" class="node">
<title>SG_1_Node_3</title>
<ellipse fill="none" stroke="#000000" cx="774" cy="-37.2132" rx="34.7971" ry="21.4286"/>
<text text-anchor="middle" x="774" y="-32.2132" font-family="Times,serif" font-size="20.00" fill="#000000">0.0</text>
</g>
<!-- SG_1_Node_1&#45;&gt;SG_1_Node_3 -->
<g id="edge7" class="edge">
<title>SG_1_Node_1&#45;&gt;SG_1_Node_3</title>
<path fill="none" stroke="#000000" d="M808.1007,-201.5963C803.4074,-190.2532 797.673,-175.2067 794,-161.4264 785.7304,-130.4011 780.3634,-94.0499 777.2922,-68.7192"/>
<polygon fill="#000000" stroke="#000000" points="780.7456,-68.1148 776.1148,-58.5856 773.7924,-68.9227 780.7456,-68.1148"/>
<text text-anchor="middle" x="813.5" y="-145.4264" font-family="Times,serif" font-size="20.00" fill="#000000">100</text>
<text text-anchor="middle" x="813.5" y="-123.4264" font-family="Times,serif" font-size="20.00" fill="#000000">102</text>
<text text-anchor="middle" x="813.5" y="-101.4264" font-family="Times,serif" font-size="20.00" fill="#000000">103</text>
</g>
<!-- SG_1_Node_4 -->
<g id="node10" class="node">
<title>SG_1_Node_4</title>
<ellipse fill="none" stroke="#000000" cx="861" cy="-37.2132" rx="34.7971" ry="21.4286"/>
<text text-anchor="middle" x="861" y="-32.2132" font-family="Times,serif" font-size="20.00" fill="#000000">1.0</text>
</g>
<!-- SG_1_Node_1&#45;&gt;SG_1_Node_4 -->
<g id="edge8" class="edge">
<title>SG_1_Node_1&#45;&gt;SG_1_Node_4</title>
<path fill="none" stroke="#000000" d="M821.5755,-201.6269C825.0443,-190.1668 829.496,-174.9839 833,-161.4264 841.1315,-129.9646 849.1568,-93.6782 854.5168,-68.4818"/>
<polygon fill="#000000" stroke="#000000" points="858.0022,-68.9161 856.6432,-58.4087 851.1531,-67.4702 858.0022,-68.9161"/>
<text text-anchor="middle" x="894" y="-134.4264" font-family="Times,serif" font-size="20.00" fill="#000000">[NA]</text>
<text text-anchor="middle" x="894" y="-112.4264" font-family="Times,serif" font-size="20.00" fill="#000000">59 levels</text>
</g>
</g>
</svg>
