<?xml version="1.0" encoding="UTF-8" standalone="no"?>
<!DOCTYPE svg PUBLIC "-//W3C//DTD SVG 1.1//EN"
 "http://www.w3.org/Graphics/SVG/1.1/DTD/svg11.dtd">
<!-- Generated by graphviz version 2.40.1 (20161225.0304)
 -->
<!-- Title: G Pages: 1 -->
<svg width="3004pt" height="493pt"
 viewBox="0.00 0.00 3004.00 492.85" xmlns="http://www.w3.org/2000/svg" xmlns:xlink="http://www.w3.org/1999/xlink">
<g id="graph0" class="graph" transform="scale(1 1) rotate(0) translate(4 488.8528)">
<title>G</title>
<polygon fill="#ffffff" stroke="transparent" points="-4,4 -4,-488.8528 3000,-488.8528 3000,4 -4,4"/>
<g id="clust1" class="cluster">
<title>cluster_0</title>
<polygon fill="none" stroke="#000000" points="8,-8 8,-476.8528 472,-476.8528 472,-8 8,-8"/>
<text text-anchor="middle" x="240" y="-440.8528" font-family="Times,serif" font-size="40.00" fill="#000000">Tree 0, Class uncalled</text>
</g>
<g id="clust5" class="cluster">
<title>cluster_1</title>
<polygon fill="none" stroke="#000000" points="480,-8 480,-476.8528 2988,-476.8528 2988,-8 480,-8"/>
<text text-anchor="middle" x="1734" y="-440.8528" font-family="Times,serif" font-size="40.00" fill="#000000">Tree 0, Class {&#39;ok&#39;: False, &#39;url&#39;: &#39;&#39;, &#39;body&#39;: None, &#39;type&#39;: &#39;opaque&#39;, &#39;status&#39;: 0, &#39;headers&#39;: {}, &#39;redirected&#39;: False, &#39;statusText&#39;: &#39;&#39;}</text>
</g>
<!-- SG_0_Node_0 -->
<g id="node1" class="node">
<title>SG_0_Node_0</title>
<polygon fill="none" stroke="#000000" points="371.5,-416.8528 54.5,-416.8528 54.5,-380.8528 371.5,-380.8528 371.5,-416.8528"/>
<text text-anchor="middle" x="213" y="-393.8528" font-family="Times,serif" font-size="20.00" fill="#000000">Cross&#45;Origin&#45;Resource&#45;Policy</text>
</g>
<!-- SG_0_Node_1 -->
<g id="node2" class="node">
<title>SG_0_Node_1</title>
<polygon fill="none" stroke="#000000" points="204,-259.6396 62,-259.6396 62,-223.6396 204,-223.6396 204,-259.6396"/>
<text text-anchor="middle" x="133" y="-236.6396" font-family="Times,serif" font-size="20.00" fill="#000000">Status&#45;Code</text>
</g>
<!-- SG_0_Node_0&#45;&gt;SG_0_Node_1 -->
<g id="edge1" class="edge">
<title>SG_0_Node_0&#45;&gt;SG_0_Node_1</title>
<path fill="none" stroke="#000000" d="M190.8931,-380.7651C180.1396,-370.888 167.8689,-357.836 160,-343.8528 146.9867,-320.7277 140.0605,-291.1228 136.4965,-269.7323"/>
<polygon fill="#000000" stroke="#000000" points="139.9292,-269.0246 134.9649,-259.6648 133.0088,-270.0775 139.9292,-269.0246"/>
<text text-anchor="middle" x="192" y="-316.8528" font-family="Times,serif" font-size="20.00" fill="#000000">empty</text>
</g>
<!-- SG_0_Node_2 -->
<g id="node3" class="node">
<title>SG_0_Node_2</title>
<ellipse fill="none" stroke="#000000" cx="257" cy="-241.6396" rx="34.7971" ry="21.4286"/>
<text text-anchor="middle" x="257" y="-236.6396" font-family="Times,serif" font-size="20.00" fill="#000000">1.0</text>
</g>
<!-- SG_0_Node_0&#45;&gt;SG_0_Node_2 -->
<g id="edge2" class="edge">
<title>SG_0_Node_0&#45;&gt;SG_0_Node_2</title>
<path fill="none" stroke="#000000" d="M218.0474,-380.8185C225.4412,-354.4002 239.3171,-304.8213 248.3551,-272.528"/>
<polygon fill="#000000" stroke="#000000" points="251.7804,-273.2752 251.1052,-262.7019 245.0395,-271.3885 251.7804,-273.2752"/>
<text text-anchor="middle" x="301" y="-327.8528" font-family="Times,serif" font-size="20.00" fill="#000000">[NA]</text>
<text text-anchor="middle" x="301" y="-305.8528" font-family="Times,serif" font-size="20.00" fill="#000000">same&#45;origin</text>
</g>
<!-- SG_0_Node_3 -->
<g id="node4" class="node">
<title>SG_0_Node_3</title>
<ellipse fill="none" stroke="#000000" cx="92" cy="-37.2132" rx="34.7971" ry="21.4286"/>
<text text-anchor="middle" x="92" y="-32.2132" font-family="Times,serif" font-size="20.00" fill="#000000">0.0</text>
</g>
<!-- SG_0_Node_1&#45;&gt;SG_0_Node_3 -->
<g id="edge3" class="edge">
<title>SG_0_Node_1&#45;&gt;SG_0_Node_3</title>
<path fill="none" stroke="#000000" d="M122.7072,-223.6307C116.8011,-212.425 109.8205,-197.5117 106,-183.4264 95.536,-144.8486 92.6375,-98.6957 91.9628,-68.7077"/>
<polygon fill="#000000" stroke="#000000" points="95.4583,-68.3799 91.805,-58.4349 88.4591,-68.4875 95.4583,-68.3799"/>
<text text-anchor="middle" x="152" y="-145.4264" font-family="Times,serif" font-size="20.00" fill="#000000">[NA]</text>
<text text-anchor="middle" x="152" y="-123.4264" font-family="Times,serif" font-size="20.00" fill="#000000">58 levels</text>
</g>
<!-- SG_0_Node_4 -->
<g id="node5" class="node">
<title>SG_0_Node_4</title>
<ellipse fill="none" stroke="#000000" cx="220" cy="-37.2132" rx="34.7971" ry="21.4286"/>
<text text-anchor="middle" x="220" y="-32.2132" font-family="Times,serif" font-size="20.00" fill="#000000">1.0</text>
</g>
<!-- SG_0_Node_1&#45;&gt;SG_0_Node_4 -->
<g id="edge4" class="edge">
<title>SG_0_Node_1&#45;&gt;SG_0_Node_4</title>
<path fill="none" stroke="#000000" d="M160.9006,-223.6053C174.2972,-213.4445 189.2945,-199.5573 198,-183.4264 217.412,-147.4568 221.1872,-99.6682 221.2674,-68.678"/>
<polygon fill="#000000" stroke="#000000" points="224.7651,-68.4269 221.1612,-58.4639 217.7654,-68.4998 224.7651,-68.4269"/>
<text text-anchor="middle" x="239.5" y="-167.4264" font-family="Times,serif" font-size="20.00" fill="#000000">100</text>
<text text-anchor="middle" x="239.5" y="-145.4264" font-family="Times,serif" font-size="20.00" fill="#000000">102</text>
<text text-anchor="middle" x="239.5" y="-123.4264" font-family="Times,serif" font-size="20.00" fill="#000000">103</text>
<text text-anchor="middle" x="239.5" y="-101.4264" font-family="Times,serif" font-size="20.00" fill="#000000">407</text>
</g>
<!-- SG_1_Node_0 -->
<g id="node6" class="node">
<title>SG_1_Node_0</title>
<polygon fill="none" stroke="#000000" points="1830.5,-416.8528 1513.5,-416.8528 1513.5,-380.8528 1830.5,-380.8528 1830.5,-416.8528"/>
<text text-anchor="middle" x="1672" y="-393.8528" font-family="Times,serif" font-size="20.00" fill="#000000">Cross&#45;Origin&#45;Resource&#45;Policy</text>
</g>
<!-- SG_1_Node_2 -->
<g id="node7" class="node">
<title>SG_1_Node_2</title>
<ellipse fill="none" stroke="#000000" cx="1593" cy="-241.6396" rx="34.7971" ry="21.4286"/>
<text text-anchor="middle" x="1593" y="-236.6396" font-family="Times,serif" font-size="20.00" fill="#000000">0.0</text>
</g>
<!-- SG_1_Node_0&#45;&gt;SG_1_Node_2 -->
<g id="edge5" class="edge">
<title>SG_1_Node_0&#45;&gt;SG_1_Node_2</title>
<path fill="none" stroke="#000000" d="M1642.0148,-380.7377C1629.133,-371.3646 1615.1849,-358.7525 1607,-343.8528 1595.1227,-322.2314 1591.9732,-294.289 1591.5982,-273.0855"/>
<polygon fill="#000000" stroke="#000000" points="1595.0983,-272.9851 1591.617,-262.9786 1588.0983,-272.972 1595.0983,-272.9851"/>
<text text-anchor="middle" x="1668" y="-327.8528" font-family="Times,serif" font-size="20.00" fill="#000000">[NA]</text>
<text text-anchor="middle" x="1668" y="-305.8528" font-family="Times,serif" font-size="20.00" fill="#000000">same&#45;origin</text>
</g>
<!-- SG_1_Node_1 -->
<g id="node8" class="node">
<title>SG_1_Node_1</title>
<polygon fill="none" stroke="#000000" points="1822,-259.6396 1680,-259.6396 1680,-223.6396 1822,-223.6396 1822,-259.6396"/>
<text text-anchor="middle" x="1751" y="-236.6396" font-family="Times,serif" font-size="20.00" fill="#000000">Status&#45;Code</text>
</g>
<!-- SG_1_Node_0&#45;&gt;SG_1_Node_1 -->
<g id="edge6" class="edge">
<title>SG_1_Node_0&#45;&gt;SG_1_Node_1</title>
<path fill="none" stroke="#000000" d="M1696.6664,-380.7441C1708.1694,-371.0435 1721.0452,-358.1536 1729,-343.8528 1741.7567,-320.9193 1747.1215,-291.2895 1749.3748,-269.8411"/>
<polygon fill="#000000" stroke="#000000" points="1752.8733,-270.0127 1750.2711,-259.7424 1745.9007,-269.3937 1752.8733,-270.0127"/>
<text text-anchor="middle" x="1776" y="-316.8528" font-family="Times,serif" font-size="20.00" fill="#000000">empty</text>
</g>
<!-- SG_1_Node_3 -->
<g id="node9" class="node">
<title>SG_1_Node_3</title>
<ellipse fill="none" stroke="#000000" cx="1709" cy="-37.2132" rx="34.7971" ry="21.4286"/>
<text text-anchor="middle" x="1709" y="-32.2132" font-family="Times,serif" font-size="20.00" fill="#000000">0.0</text>
</g>
<!-- SG_1_Node_1&#45;&gt;SG_1_Node_3 -->
<g id="edge7" class="edge">
<title>SG_1_Node_1&#45;&gt;SG_1_Node_3</title>
<path fill="none" stroke="#000000" d="M1742.9856,-223.6263C1738.2489,-212.2944 1732.5095,-197.2493 1729,-183.4264 1719.1734,-144.7222 1713.8988,-98.9496 1711.2759,-69.0618"/>
<polygon fill="#000000" stroke="#000000" points="1714.7404,-68.4883 1710.426,-58.8118 1707.7644,-69.0668 1714.7404,-68.4883"/>
<text text-anchor="middle" x="1748.5" y="-167.4264" font-family="Times,serif" font-size="20.00" fill="#000000">100</text>
<text text-anchor="middle" x="1748.5" y="-145.4264" font-family="Times,serif" font-size="20.00" fill="#000000">102</text>
<text text-anchor="middle" x="1748.5" y="-123.4264" font-family="Times,serif" font-size="20.00" fill="#000000">103</text>
<text text-anchor="middle" x="1748.5" y="-101.4264" font-family="Times,serif" font-size="20.00" fill="#000000">407</text>
</g>
<!-- SG_1_Node_4 -->
<g id="node10" class="node">
<title>SG_1_Node_4</title>
<ellipse fill="none" stroke="#000000" cx="1796" cy="-37.2132" rx="34.7971" ry="21.4286"/>
<text text-anchor="middle" x="1796" y="-32.2132" font-family="Times,serif" font-size="20.00" fill="#000000">1.0</text>
</g>
<!-- SG_1_Node_1&#45;&gt;SG_1_Node_4 -->
<g id="edge8" class="edge">
<title>SG_1_Node_1&#45;&gt;SG_1_Node_4</title>
<path fill="none" stroke="#000000" d="M1756.8081,-223.4063C1760.3235,-211.9916 1764.7414,-196.9367 1768,-183.4264 1777.4449,-144.2667 1785.7679,-98.5932 1790.8342,-68.8527"/>
<polygon fill="#000000" stroke="#000000" points="1794.3417,-69.1003 1792.5494,-58.6582 1787.4387,-67.9388 1794.3417,-69.1003"/>
<text text-anchor="middle" x="1832" y="-145.4264" font-family="Times,serif" font-size="20.00" fill="#000000">[NA]</text>
<text text-anchor="middle" x="1832" y="-123.4264" font-family="Times,serif" font-size="20.00" fill="#000000">58 levels</text>
</g>
</g>
</svg>
