<?xml version="1.0" encoding="UTF-8" standalone="no"?>
<!DOCTYPE svg PUBLIC "-//W3C//DTD SVG 1.1//EN"
 "http://www.w3.org/Graphics/SVG/1.1/DTD/svg11.dtd">
<!-- Generated by graphviz version 2.40.1 (20161225.0304)
 -->
<!-- Title: G Pages: 1 -->
<svg width="10224pt" height="873pt"
 viewBox="0.00 0.00 10224.00 873.28" xmlns="http://www.w3.org/2000/svg" xmlns:xlink="http://www.w3.org/1999/xlink">
<g id="graph0" class="graph" transform="scale(1 1) rotate(0) translate(4 869.2792)">
<title>G</title>
<polygon fill="#ffffff" stroke="transparent" points="-4,4 -4,-869.2792 10220,-869.2792 10220,4 -4,4"/>
<g id="clust1" class="cluster">
<title>cluster_0</title>
<polygon fill="none" stroke="#000000" points="8,-256.4264 8,-857.2792 472,-857.2792 472,-256.4264 8,-256.4264"/>
<text text-anchor="middle" x="240" y="-821.2792" font-family="Times,serif" font-size="40.00" fill="#000000">Tree 0, Class uncalled</text>
</g>
<g id="clust5" class="cluster">
<title>cluster_1</title>
<polygon fill="none" stroke="#000000" points="480,-438.8528 480,-857.2792 5260,-857.2792 5260,-438.8528 480,-438.8528"/>
<text text-anchor="middle" x="2870" y="-821.2792" font-family="Times,serif" font-size="40.00" fill="#000000">Tree 0, Class {&#39;size&#39;: {&#39;transferSize&#39;: 0, &#39;decodedBodySize&#39;: 0, &#39;encodedBodySize&#39;: 0}, &#39;timing&#39;: {&#39;duration&#39;: &gt;0, &#39;fetchStart&#39;: &gt;0, &#39;redirectEnd&#39;: 0, &#39;redirectStart&#39;: 0, &#39;secureConnectionStart&#39;: 0}, &#39;initiatorType&#39;: &#39;fetch&#39;, &#39;nextHopProtocol&#39;: &#39;&#39;}</text>
</g>
<g id="clust8" class="cluster">
<title>cluster_2</title>
<polygon fill="none" stroke="#000000" points="5268,-8 5268,-857.2792 10208,-857.2792 10208,-8 5268,-8"/>
<text text-anchor="middle" x="7738" y="-821.2792" font-family="Times,serif" font-size="40.00" fill="#000000">Tree 0, Class {&#39;size&#39;: {&#39;transferSize&#39;: 0, &#39;decodedBodySize&#39;: 0, &#39;encodedBodySize&#39;: 0}, &#39;timing&#39;: {&#39;duration&#39;: &gt;0, &#39;fetchStart&#39;: &gt;0, &#39;redirectEnd&#39;: 0, &#39;redirectStart&#39;: 0, &#39;secureConnectionStart&#39;: 0}, &#39;initiatorType&#39;: &#39;fetch&#39;, &#39;nextHopProtocol&#39;: &#39;http/1.1&#39;}</text>
</g>
<!-- SG_0_Node_0 -->
<g id="node1" class="node">
<title>SG_0_Node_0</title>
<polygon fill="none" stroke="#000000" points="204,-797.2792 62,-797.2792 62,-761.2792 204,-761.2792 204,-797.2792"/>
<text text-anchor="middle" x="133" y="-774.2792" font-family="Times,serif" font-size="20.00" fill="#000000">Status&#45;Code</text>
</g>
<!-- SG_0_Node_2 -->
<g id="node2" class="node">
<title>SG_0_Node_2</title>
<ellipse fill="none" stroke="#000000" cx="56" cy="-468.066" rx="34.7971" ry="21.4286"/>
<text text-anchor="middle" x="56" y="-463.066" font-family="Times,serif" font-size="20.00" fill="#000000">0.0</text>
</g>
<!-- SG_0_Node_0&#45;&gt;SG_0_Node_2 -->
<g id="edge1" class="edge">
<title>SG_0_Node_0&#45;&gt;SG_0_Node_2</title>
<path fill="none" stroke="#000000" d="M93.6903,-761.2046C79.0914,-752.3089 64.1185,-740.0551 56,-724.2792 18.2805,-650.9831 35.1713,-549.5414 47.3738,-499.1128"/>
<polygon fill="#000000" stroke="#000000" points="50.8335,-499.7069 49.8852,-489.1546 44.046,-497.9951 50.8335,-499.7069"/>
<text text-anchor="middle" x="102" y="-631.2792" font-family="Times,serif" font-size="20.00" fill="#000000">[NA]</text>
<text text-anchor="middle" x="102" y="-609.2792" font-family="Times,serif" font-size="20.00" fill="#000000">56 levels</text>
</g>
<!-- SG_0_Node_1 -->
<g id="node3" class="node">
<title>SG_0_Node_1</title>
<polygon fill="none" stroke="#000000" points="236.5,-486.066 131.5,-486.066 131.5,-450.066 236.5,-450.066 236.5,-486.066"/>
<text text-anchor="middle" x="184" y="-463.066" font-family="Times,serif" font-size="20.00" fill="#000000">Location</text>
</g>
<!-- SG_0_Node_0&#45;&gt;SG_0_Node_1 -->
<g id="edge2" class="edge">
<title>SG_0_Node_0&#45;&gt;SG_0_Node_1</title>
<path fill="none" stroke="#000000" d="M140.3038,-761.2255C144.3217,-750.6243 149.0717,-736.8743 152,-724.2792 170.9296,-642.8597 179.2608,-544.1105 182.3899,-496.4785"/>
<polygon fill="#000000" stroke="#000000" points="185.8947,-496.5104 183.0289,-486.3105 178.9085,-496.0712 185.8947,-496.5104"/>
<text text-anchor="middle" x="199.5" y="-675.2792" font-family="Times,serif" font-size="20.00" fill="#000000">300</text>
<text text-anchor="middle" x="199.5" y="-653.2792" font-family="Times,serif" font-size="20.00" fill="#000000">301</text>
<text text-anchor="middle" x="199.5" y="-631.2792" font-family="Times,serif" font-size="20.00" fill="#000000">302</text>
<text text-anchor="middle" x="199.5" y="-609.2792" font-family="Times,serif" font-size="20.00" fill="#000000">303</text>
<text text-anchor="middle" x="199.5" y="-587.2792" font-family="Times,serif" font-size="20.00" fill="#000000">307</text>
<text text-anchor="middle" x="199.5" y="-565.2792" font-family="Times,serif" font-size="20.00" fill="#000000">308</text>
</g>
<!-- SG_0_Node_3 -->
<g id="node4" class="node">
<title>SG_0_Node_3</title>
<ellipse fill="none" stroke="#000000" cx="87" cy="-285.6396" rx="34.7971" ry="21.4286"/>
<text text-anchor="middle" x="87" y="-280.6396" font-family="Times,serif" font-size="20.00" fill="#000000">0.0</text>
</g>
<!-- SG_0_Node_1&#45;&gt;SG_0_Node_3 -->
<g id="edge3" class="edge">
<title>SG_0_Node_1&#45;&gt;SG_0_Node_3</title>
<path fill="none" stroke="#000000" d="M155.361,-449.9805C141.4912,-439.8062 125.7657,-425.9223 116,-409.8528 98.7155,-381.411 91.7305,-343.5526 88.9091,-317.1371"/>
<polygon fill="#000000" stroke="#000000" points="92.3708,-316.5598 87.964,-306.9249 85.4006,-317.2049 92.3708,-316.5598"/>
<text text-anchor="middle" x="148" y="-371.8528" font-family="Times,serif" font-size="20.00" fill="#000000">empty</text>
</g>
<!-- SG_0_Node_4 -->
<g id="node5" class="node">
<title>SG_0_Node_4</title>
<ellipse fill="none" stroke="#000000" cx="187" cy="-285.6396" rx="34.7971" ry="21.4286"/>
<text text-anchor="middle" x="187" y="-280.6396" font-family="Times,serif" font-size="20.00" fill="#000000">1.0</text>
</g>
<!-- SG_0_Node_1&#45;&gt;SG_0_Node_4 -->
<g id="edge4" class="edge">
<title>SG_0_Node_1&#45;&gt;SG_0_Node_4</title>
<path fill="none" stroke="#000000" d="M184.2986,-449.9073C184.808,-418.9334 185.8507,-355.5245 186.4813,-317.1822"/>
<polygon fill="#000000" stroke="#000000" points="189.9824,-317.1365 186.6474,-307.0802 182.9834,-317.0213 189.9824,-317.1365"/>
<text text-anchor="middle" x="323" y="-393.8528" font-family="Times,serif" font-size="20.00" fill="#000000">[NA]</text>
<text text-anchor="middle" x="323" y="-371.8528" font-family="Times,serif" font-size="20.00" fill="#000000">/</text>
<text text-anchor="middle" x="323" y="-349.8528" font-family="Times,serif" font-size="20.00" fill="#000000">http://localhost:8000/echo/</text>
</g>
<!-- SG_1_Node_0 -->
<g id="node6" class="node">
<title>SG_1_Node_0</title>
<polygon fill="none" stroke="#000000" points="2923,-797.2792 2781,-797.2792 2781,-761.2792 2923,-761.2792 2923,-797.2792"/>
<text text-anchor="middle" x="2852" y="-774.2792" font-family="Times,serif" font-size="20.00" fill="#000000">Status&#45;Code</text>
</g>
<!-- SG_1_Node_1 -->
<g id="node7" class="node">
<title>SG_1_Node_1</title>
<ellipse fill="none" stroke="#000000" cx="2788" cy="-468.066" rx="34.7971" ry="21.4286"/>
<text text-anchor="middle" x="2788" y="-463.066" font-family="Times,serif" font-size="20.00" fill="#000000">0.0</text>
</g>
<!-- SG_1_Node_0&#45;&gt;SG_1_Node_1 -->
<g id="edge5" class="edge">
<title>SG_1_Node_0&#45;&gt;SG_1_Node_1</title>
<path fill="none" stroke="#000000" d="M2829.4594,-761.0554C2819.147,-751.3265 2807.9263,-738.4461 2802,-724.2792 2770.3673,-648.6614 2776.974,-549.3849 2783.1926,-499.5227"/>
<polygon fill="#000000" stroke="#000000" points="2786.6934,-499.7475 2784.54,-489.3738 2779.7543,-498.8262 2786.6934,-499.7475"/>
<text text-anchor="middle" x="2848" y="-631.2792" font-family="Times,serif" font-size="20.00" fill="#000000">[NA]</text>
<text text-anchor="middle" x="2848" y="-609.2792" font-family="Times,serif" font-size="20.00" fill="#000000">59 levels</text>
</g>
<!-- SG_1_Node_2 -->
<g id="node8" class="node">
<title>SG_1_Node_2</title>
<ellipse fill="none" stroke="#000000" cx="2916" cy="-468.066" rx="34.7971" ry="21.4286"/>
<text text-anchor="middle" x="2916" y="-463.066" font-family="Times,serif" font-size="20.00" fill="#000000">1.0</text>
</g>
<!-- SG_1_Node_0&#45;&gt;SG_1_Node_2 -->
<g id="edge6" class="edge">
<title>SG_1_Node_0&#45;&gt;SG_1_Node_2</title>
<path fill="none" stroke="#000000" d="M2870.131,-761.0843C2878.928,-751.0825 2888.7145,-737.9506 2894,-724.2792 2923.5473,-647.8534 2922.0357,-549.3216 2918.8123,-499.6621"/>
<polygon fill="#000000" stroke="#000000" points="2922.2935,-499.2721 2918.0867,-489.5482 2915.3114,-499.7731 2922.2935,-499.2721"/>
<text text-anchor="middle" x="2939.5" y="-642.2792" font-family="Times,serif" font-size="20.00" fill="#000000">100</text>
<text text-anchor="middle" x="2939.5" y="-620.2792" font-family="Times,serif" font-size="20.00" fill="#000000">102</text>
<text text-anchor="middle" x="2939.5" y="-598.2792" font-family="Times,serif" font-size="20.00" fill="#000000">103</text>
</g>
<!-- SG_2_Node_0 -->
<g id="node9" class="node">
<title>SG_2_Node_0</title>
<polygon fill="none" stroke="#000000" points="5598,-797.2792 5456,-797.2792 5456,-761.2792 5598,-761.2792 5598,-797.2792"/>
<text text-anchor="middle" x="5527" y="-774.2792" font-family="Times,serif" font-size="20.00" fill="#000000">Status&#45;Code</text>
</g>
<!-- SG_2_Node_1 -->
<g id="node10" class="node">
<title>SG_2_Node_1</title>
<polygon fill="none" stroke="#000000" points="5527.5,-486.066 5422.5,-486.066 5422.5,-450.066 5527.5,-450.066 5527.5,-486.066"/>
<text text-anchor="middle" x="5475" y="-463.066" font-family="Times,serif" font-size="20.00" fill="#000000">Location</text>
</g>
<!-- SG_2_Node_0&#45;&gt;SG_2_Node_1 -->
<g id="edge7" class="edge">
<title>SG_2_Node_0&#45;&gt;SG_2_Node_1</title>
<path fill="none" stroke="#000000" d="M5521.0027,-761.1135C5517.6702,-750.4749 5513.6702,-736.7249 5511,-724.2792 5493.4289,-642.3815 5482.3547,-543.8508 5477.6356,-496.3727"/>
<polygon fill="#000000" stroke="#000000" points="5481.1016,-495.8526 5476.6484,-486.2391 5474.1345,-496.5314 5481.1016,-495.8526"/>
<text text-anchor="middle" x="5530.5" y="-708.2792" font-family="Times,serif" font-size="20.00" fill="#000000">100</text>
<text text-anchor="middle" x="5530.5" y="-686.2792" font-family="Times,serif" font-size="20.00" fill="#000000">102</text>
<text text-anchor="middle" x="5530.5" y="-664.2792" font-family="Times,serif" font-size="20.00" fill="#000000">103</text>
<text text-anchor="middle" x="5530.5" y="-642.2792" font-family="Times,serif" font-size="20.00" fill="#000000">300</text>
<text text-anchor="middle" x="5530.5" y="-620.2792" font-family="Times,serif" font-size="20.00" fill="#000000">301</text>
<text text-anchor="middle" x="5530.5" y="-598.2792" font-family="Times,serif" font-size="20.00" fill="#000000">302</text>
<text text-anchor="middle" x="5530.5" y="-576.2792" font-family="Times,serif" font-size="20.00" fill="#000000">303</text>
<text text-anchor="middle" x="5530.5" y="-554.2792" font-family="Times,serif" font-size="20.00" fill="#000000">307</text>
<text text-anchor="middle" x="5530.5" y="-532.2792" font-family="Times,serif" font-size="20.00" fill="#000000">308</text>
</g>
<!-- SG_2_Node_3 -->
<g id="node11" class="node">
<title>SG_2_Node_3</title>
<ellipse fill="none" stroke="#000000" cx="5580" cy="-468.066" rx="34.7971" ry="21.4286"/>
<text text-anchor="middle" x="5580" y="-463.066" font-family="Times,serif" font-size="20.00" fill="#000000">1.0</text>
</g>
<!-- SG_2_Node_0&#45;&gt;SG_2_Node_3 -->
<g id="edge8" class="edge">
<title>SG_2_Node_0&#45;&gt;SG_2_Node_3</title>
<path fill="none" stroke="#000000" d="M5536.0963,-761.1428C5540.9811,-750.6295 5546.6676,-736.9942 5550,-724.2792 5570.7421,-645.1367 5577.1578,-548.4746 5579.1314,-499.5994"/>
<polygon fill="#000000" stroke="#000000" points="5582.638,-499.48 5579.5072,-489.3583 5575.6427,-499.2232 5582.638,-499.48"/>
<text text-anchor="middle" x="5623" y="-631.2792" font-family="Times,serif" font-size="20.00" fill="#000000">[NA]</text>
<text text-anchor="middle" x="5623" y="-609.2792" font-family="Times,serif" font-size="20.00" fill="#000000">53 levels</text>
</g>
<!-- SG_2_Node_4 -->
<g id="node12" class="node">
<title>SG_2_Node_4</title>
<ellipse fill="none" stroke="#000000" cx="5393" cy="-285.6396" rx="34.7971" ry="21.4286"/>
<text text-anchor="middle" x="5393" y="-280.6396" font-family="Times,serif" font-size="20.00" fill="#000000">0.0</text>
</g>
<!-- SG_2_Node_1&#45;&gt;SG_2_Node_4 -->
<g id="edge9" class="edge">
<title>SG_2_Node_1&#45;&gt;SG_2_Node_4</title>
<path fill="none" stroke="#000000" d="M5444.8629,-449.9327C5430.9653,-439.9193 5415.6628,-426.1917 5407,-409.8528 5391.8113,-381.2054 5389.5833,-343.6853 5390.361,-317.4083"/>
<polygon fill="#000000" stroke="#000000" points="5393.8654,-317.3899 5390.8275,-307.2399 5386.8727,-317.069 5393.8654,-317.3899"/>
<text text-anchor="middle" x="5544" y="-393.8528" font-family="Times,serif" font-size="20.00" fill="#000000">[NA]</text>
<text text-anchor="middle" x="5544" y="-371.8528" font-family="Times,serif" font-size="20.00" fill="#000000">/</text>
<text text-anchor="middle" x="5544" y="-349.8528" font-family="Times,serif" font-size="20.00" fill="#000000">http://localhost:8000/echo/</text>
</g>
<!-- SG_2_Node_2 -->
<g id="node13" class="node">
<title>SG_2_Node_2</title>
<polygon fill="none" stroke="#000000" points="5774,-303.6396 5632,-303.6396 5632,-267.6396 5774,-267.6396 5774,-303.6396"/>
<text text-anchor="middle" x="5703" y="-280.6396" font-family="Times,serif" font-size="20.00" fill="#000000">Status&#45;Code</text>
</g>
<!-- SG_2_Node_1&#45;&gt;SG_2_Node_2 -->
<g id="edge10" class="edge">
<title>SG_2_Node_1&#45;&gt;SG_2_Node_2</title>
<path fill="none" stroke="#000000" d="M5508.8956,-449.9957C5517.558,-445.8927 5526.9778,-441.8628 5536,-438.8528 5598.3427,-418.0538 5635.0448,-456.835 5681,-409.8528 5705.5782,-384.7254 5707.9855,-342.2825 5706.361,-314.1119"/>
<polygon fill="#000000" stroke="#000000" points="5709.8456,-313.7776 5705.5788,-304.08 5702.8668,-314.3218 5709.8456,-313.7776"/>
<text text-anchor="middle" x="5738" y="-371.8528" font-family="Times,serif" font-size="20.00" fill="#000000">empty</text>
</g>
<!-- SG_2_Node_5 -->
<g id="node14" class="node">
<title>SG_2_Node_5</title>
<ellipse fill="none" stroke="#000000" cx="5661" cy="-37.2132" rx="34.7971" ry="21.4286"/>
<text text-anchor="middle" x="5661" y="-32.2132" font-family="Times,serif" font-size="20.00" fill="#000000">0.0</text>
</g>
<!-- SG_2_Node_2&#45;&gt;SG_2_Node_5 -->
<g id="edge11" class="edge">
<title>SG_2_Node_2&#45;&gt;SG_2_Node_5</title>
<path fill="none" stroke="#000000" d="M5694.7245,-267.4057C5689.9528,-256.1179 5684.2686,-241.1972 5681,-227.4264 5668.0182,-172.7332 5663.4598,-107.1957 5661.8611,-69.0735"/>
<polygon fill="#000000" stroke="#000000" points="5665.3416,-68.484 5661.469,-58.6223 5658.3465,-68.7466 5665.3416,-68.484"/>
<text text-anchor="middle" x="5700.5" y="-178.4264" font-family="Times,serif" font-size="20.00" fill="#000000">100</text>
<text text-anchor="middle" x="5700.5" y="-156.4264" font-family="Times,serif" font-size="20.00" fill="#000000">102</text>
<text text-anchor="middle" x="5700.5" y="-134.4264" font-family="Times,serif" font-size="20.00" fill="#000000">103</text>
</g>
<!-- SG_2_Node_6 -->
<g id="node15" class="node">
<title>SG_2_Node_6</title>
<ellipse fill="none" stroke="#000000" cx="5748" cy="-37.2132" rx="34.7971" ry="21.4286"/>
<text text-anchor="middle" x="5748" y="-32.2132" font-family="Times,serif" font-size="20.00" fill="#000000">1.0</text>
</g>
<!-- SG_2_Node_2&#45;&gt;SG_2_Node_6 -->
<g id="edge12" class="edge">
<title>SG_2_Node_2&#45;&gt;SG_2_Node_6</title>
<path fill="none" stroke="#000000" d="M5709.0134,-267.4535C5712.606,-256.0566 5717.033,-241.0038 5720,-227.4264 5732.0634,-172.2221 5740.4165,-106.8495 5744.6911,-68.8976"/>
<polygon fill="#000000" stroke="#000000" points="5748.2208,-68.8196 5745.8373,-58.4964 5741.2629,-68.0528 5748.2208,-68.8196"/>
<text text-anchor="middle" x="5760.5" y="-211.4264" font-family="Times,serif" font-size="20.00" fill="#000000">300</text>
<text text-anchor="middle" x="5760.5" y="-189.4264" font-family="Times,serif" font-size="20.00" fill="#000000">301</text>
<text text-anchor="middle" x="5760.5" y="-167.4264" font-family="Times,serif" font-size="20.00" fill="#000000">302</text>
<text text-anchor="middle" x="5760.5" y="-145.4264" font-family="Times,serif" font-size="20.00" fill="#000000">303</text>
<text text-anchor="middle" x="5760.5" y="-123.4264" font-family="Times,serif" font-size="20.00" fill="#000000">307</text>
<text text-anchor="middle" x="5760.5" y="-101.4264" font-family="Times,serif" font-size="20.00" fill="#000000">308</text>
</g>
</g>
</svg>
