<?xml version="1.0" encoding="UTF-8" standalone="no"?>
<!DOCTYPE svg PUBLIC "-//W3C//DTD SVG 1.1//EN"
 "http://www.w3.org/Graphics/SVG/1.1/DTD/svg11.dtd">
<!-- Generated by graphviz version 2.40.1 (20161225.0304)
 -->
<!-- Title: G Pages: 1 -->
<svg width="9752pt" height="310pt"
 viewBox="0.00 0.00 9752.00 310.43" xmlns="http://www.w3.org/2000/svg" xmlns:xlink="http://www.w3.org/1999/xlink">
<g id="graph0" class="graph" transform="scale(1 1) rotate(0) translate(4 306.4264)">
<title>G</title>
<polygon fill="#ffffff" stroke="transparent" points="-4,4 -4,-306.4264 9748,-306.4264 9748,4 -4,4"/>
<g id="clust1" class="cluster">
<title>cluster_0</title>
<polygon fill="none" stroke="#000000" points="8,-8 8,-294.4264 4788,-294.4264 4788,-8 8,-8"/>
<text text-anchor="middle" x="2398" y="-258.4264" font-family="Times,serif" font-size="40.00" fill="#000000">Tree 0, Class {&#39;size&#39;: {&#39;transferSize&#39;: 0, &#39;decodedBodySize&#39;: 0, &#39;encodedBodySize&#39;: 0}, &#39;timing&#39;: {&#39;duration&#39;: &gt;0, &#39;fetchStart&#39;: &gt;0, &#39;redirectEnd&#39;: 0, &#39;redirectStart&#39;: 0, &#39;secureConnectionStart&#39;: 0}, &#39;initiatorType&#39;: &#39;fetch&#39;, &#39;nextHopProtocol&#39;: &#39;&#39;}</text>
</g>
<g id="clust4" class="cluster">
<title>cluster_1</title>
<polygon fill="none" stroke="#000000" points="4796,-8 4796,-294.4264 9736,-294.4264 9736,-8 4796,-8"/>
<text text-anchor="middle" x="7266" y="-258.4264" font-family="Times,serif" font-size="40.00" fill="#000000">Tree 0, Class {&#39;size&#39;: {&#39;transferSize&#39;: 0, &#39;decodedBodySize&#39;: 0, &#39;encodedBodySize&#39;: 0}, &#39;timing&#39;: {&#39;duration&#39;: &gt;0, &#39;fetchStart&#39;: &gt;0, &#39;redirectEnd&#39;: 0, &#39;redirectStart&#39;: 0, &#39;secureConnectionStart&#39;: 0}, &#39;initiatorType&#39;: &#39;fetch&#39;, &#39;nextHopProtocol&#39;: &#39;http/1.1&#39;}</text>
</g>
<!-- SG_0_Node_0 -->
<g id="node1" class="node">
<title>SG_0_Node_0</title>
<polygon fill="none" stroke="#000000" points="2451,-234.4264 2309,-234.4264 2309,-198.4264 2451,-198.4264 2451,-234.4264"/>
<text text-anchor="middle" x="2380" y="-211.4264" font-family="Times,serif" font-size="20.00" fill="#000000">Status&#45;Code</text>
</g>
<!-- SG_0_Node_1 -->
<g id="node2" class="node">
<title>SG_0_Node_1</title>
<ellipse fill="none" stroke="#000000" cx="2316" cy="-37.2132" rx="34.7971" ry="21.4286"/>
<text text-anchor="middle" x="2316" y="-32.2132" font-family="Times,serif" font-size="20.00" fill="#000000">0.0</text>
</g>
<!-- SG_0_Node_0&#45;&gt;SG_0_Node_1 -->
<g id="edge1" class="edge">
<title>SG_0_Node_0&#45;&gt;SG_0_Node_1</title>
<path fill="none" stroke="#000000" d="M2358.0656,-198.2964C2347.7708,-188.5008 2336.3853,-175.5341 2330,-161.4264 2316.6298,-131.8865 2314.0976,-94.5157 2314.3067,-68.5177"/>
<polygon fill="#000000" stroke="#000000" points="2317.8068,-68.5444 2314.528,-58.4697 2310.8085,-68.3902 2317.8068,-68.5444"/>
<text text-anchor="middle" x="2376" y="-134.4264" font-family="Times,serif" font-size="20.00" fill="#000000">[NA]</text>
<text text-anchor="middle" x="2376" y="-112.4264" font-family="Times,serif" font-size="20.00" fill="#000000">59 levels</text>
</g>
<!-- SG_0_Node_2 -->
<g id="node3" class="node">
<title>SG_0_Node_2</title>
<ellipse fill="none" stroke="#000000" cx="2444" cy="-37.2132" rx="34.7971" ry="21.4286"/>
<text text-anchor="middle" x="2444" y="-32.2132" font-family="Times,serif" font-size="20.00" fill="#000000">1.0</text>
</g>
<!-- SG_0_Node_0&#45;&gt;SG_0_Node_2 -->
<g id="edge2" class="edge">
<title>SG_0_Node_0&#45;&gt;SG_0_Node_2</title>
<path fill="none" stroke="#000000" d="M2397.6319,-198.0256C2406.2923,-187.9674 2416.1072,-174.8472 2422,-161.4264 2435.078,-131.6413 2440.3862,-94.6033 2442.5382,-68.7562"/>
<polygon fill="#000000" stroke="#000000" points="2446.0307,-68.9843 2443.26,-58.7582 2439.0489,-68.4802 2446.0307,-68.9843"/>
<text text-anchor="middle" x="2458.5" y="-145.4264" font-family="Times,serif" font-size="20.00" fill="#000000">100</text>
<text text-anchor="middle" x="2458.5" y="-123.4264" font-family="Times,serif" font-size="20.00" fill="#000000">102</text>
<text text-anchor="middle" x="2458.5" y="-101.4264" font-family="Times,serif" font-size="20.00" fill="#000000">103</text>
</g>
<!-- SG_1_Node_0 -->
<g id="node4" class="node">
<title>SG_1_Node_0</title>
<polygon fill="none" stroke="#000000" points="7312,-234.4264 7170,-234.4264 7170,-198.4264 7312,-198.4264 7312,-234.4264"/>
<text text-anchor="middle" x="7241" y="-211.4264" font-family="Times,serif" font-size="20.00" fill="#000000">Status&#45;Code</text>
</g>
<!-- SG_1_Node_1 -->
<g id="node5" class="node">
<title>SG_1_Node_1</title>
<ellipse fill="none" stroke="#000000" cx="7197" cy="-37.2132" rx="34.7971" ry="21.4286"/>
<text text-anchor="middle" x="7197" y="-32.2132" font-family="Times,serif" font-size="20.00" fill="#000000">0.0</text>
</g>
<!-- SG_1_Node_0&#45;&gt;SG_1_Node_1 -->
<g id="edge3" class="edge">
<title>SG_1_Node_0&#45;&gt;SG_1_Node_1</title>
<path fill="none" stroke="#000000" d="M7228.8402,-198.3923C7222.4577,-188.0232 7215.1258,-174.4953 7211,-161.4264 7201.3963,-131.0054 7198.2057,-94.5645 7197.2297,-69.0479"/>
<polygon fill="#000000" stroke="#000000" points="7200.7219,-68.7252 7196.9348,-58.8304 7193.7248,-68.9273 7200.7219,-68.7252"/>
<text text-anchor="middle" x="7230.5" y="-145.4264" font-family="Times,serif" font-size="20.00" fill="#000000">100</text>
<text text-anchor="middle" x="7230.5" y="-123.4264" font-family="Times,serif" font-size="20.00" fill="#000000">102</text>
<text text-anchor="middle" x="7230.5" y="-101.4264" font-family="Times,serif" font-size="20.00" fill="#000000">103</text>
</g>
<!-- SG_1_Node_2 -->
<g id="node6" class="node">
<title>SG_1_Node_2</title>
<ellipse fill="none" stroke="#000000" cx="7284" cy="-37.2132" rx="34.7971" ry="21.4286"/>
<text text-anchor="middle" x="7284" y="-32.2132" font-family="Times,serif" font-size="20.00" fill="#000000">1.0</text>
</g>
<!-- SG_1_Node_0&#45;&gt;SG_1_Node_2 -->
<g id="edge4" class="edge">
<title>SG_1_Node_0&#45;&gt;SG_1_Node_2</title>
<path fill="none" stroke="#000000" d="M7245.3597,-198.2562C7252.6784,-167.754 7267.5163,-105.9131 7276.5253,-68.3659"/>
<polygon fill="#000000" stroke="#000000" points="7279.9708,-69.0067 7278.9006,-58.4661 7273.164,-67.3735 7279.9708,-69.0067"/>
<text text-anchor="middle" x="7315" y="-134.4264" font-family="Times,serif" font-size="20.00" fill="#000000">[NA]</text>
<text text-anchor="middle" x="7315" y="-112.4264" font-family="Times,serif" font-size="20.00" fill="#000000">59 levels</text>
</g>
</g>
</svg>
