<?xml version="1.0" encoding="UTF-8" standalone="no"?>
<!DOCTYPE svg PUBLIC "-//W3C//DTD SVG 1.1//EN"
 "http://www.w3.org/Graphics/SVG/1.1/DTD/svg11.dtd">
<!-- Generated by graphviz version 2.40.1 (20161225.0304)
 -->
<!-- Title: G Pages: 1 -->
<svg width="3004pt" height="515pt"
 viewBox="0.00 0.00 3004.00 514.85" xmlns="http://www.w3.org/2000/svg" xmlns:xlink="http://www.w3.org/1999/xlink">
<g id="graph0" class="graph" transform="scale(1 1) rotate(0) translate(4 510.8528)">
<title>G</title>
<polygon fill="#ffffff" stroke="transparent" points="-4,4 -4,-510.8528 3000,-510.8528 3000,4 -4,4"/>
<g id="clust1" class="cluster">
<title>cluster_0</title>
<polygon fill="none" stroke="#000000" points="8,-8 8,-498.8528 472,-498.8528 472,-8 8,-8"/>
<text text-anchor="middle" x="240" y="-462.8528" font-family="Times,serif" font-size="40.00" fill="#000000">Tree 0, Class uncalled</text>
</g>
<g id="clust5" class="cluster">
<title>cluster_1</title>
<polygon fill="none" stroke="#000000" points="480,-8 480,-498.8528 2988,-498.8528 2988,-8 480,-8"/>
<text text-anchor="middle" x="1734" y="-462.8528" font-family="Times,serif" font-size="40.00" fill="#000000">Tree 0, Class {&#39;ok&#39;: False, &#39;url&#39;: &#39;&#39;, &#39;body&#39;: None, &#39;type&#39;: &#39;opaque&#39;, &#39;status&#39;: 0, &#39;headers&#39;: {}, &#39;redirected&#39;: False, &#39;statusText&#39;: &#39;&#39;}</text>
</g>
<!-- SG_0_Node_0 -->
<g id="node1" class="node">
<title>SG_0_Node_0</title>
<polygon fill="none" stroke="#000000" points="371.5,-438.8528 54.5,-438.8528 54.5,-402.8528 371.5,-402.8528 371.5,-438.8528"/>
<text text-anchor="middle" x="213" y="-415.8528" font-family="Times,serif" font-size="20.00" fill="#000000">Cross&#45;Origin&#45;Resource&#45;Policy</text>
</g>
<!-- SG_0_Node_1 -->
<g id="node2" class="node">
<title>SG_0_Node_1</title>
<polygon fill="none" stroke="#000000" points="204,-281.6396 62,-281.6396 62,-245.6396 204,-245.6396 204,-281.6396"/>
<text text-anchor="middle" x="133" y="-258.6396" font-family="Times,serif" font-size="20.00" fill="#000000">Status&#45;Code</text>
</g>
<!-- SG_0_Node_0&#45;&gt;SG_0_Node_1 -->
<g id="edge1" class="edge">
<title>SG_0_Node_0&#45;&gt;SG_0_Node_1</title>
<path fill="none" stroke="#000000" d="M190.8931,-402.7651C180.1396,-392.888 167.8689,-379.836 160,-365.8528 146.9867,-342.7277 140.0605,-313.1228 136.4965,-291.7323"/>
<polygon fill="#000000" stroke="#000000" points="139.9292,-291.0246 134.9649,-281.6648 133.0088,-292.0775 139.9292,-291.0246"/>
<text text-anchor="middle" x="192" y="-338.8528" font-family="Times,serif" font-size="20.00" fill="#000000">empty</text>
</g>
<!-- SG_0_Node_2 -->
<g id="node3" class="node">
<title>SG_0_Node_2</title>
<ellipse fill="none" stroke="#000000" cx="257" cy="-263.6396" rx="34.7971" ry="21.4286"/>
<text text-anchor="middle" x="257" y="-258.6396" font-family="Times,serif" font-size="20.00" fill="#000000">1.0</text>
</g>
<!-- SG_0_Node_0&#45;&gt;SG_0_Node_2 -->
<g id="edge2" class="edge">
<title>SG_0_Node_0&#45;&gt;SG_0_Node_2</title>
<path fill="none" stroke="#000000" d="M218.0474,-402.8185C225.4412,-376.4002 239.3171,-326.8213 248.3551,-294.528"/>
<polygon fill="#000000" stroke="#000000" points="251.7804,-295.2752 251.1052,-284.7019 245.0395,-293.3885 251.7804,-295.2752"/>
<text text-anchor="middle" x="301" y="-349.8528" font-family="Times,serif" font-size="20.00" fill="#000000">[NA]</text>
<text text-anchor="middle" x="301" y="-327.8528" font-family="Times,serif" font-size="20.00" fill="#000000">same&#45;origin</text>
</g>
<!-- SG_0_Node_3 -->
<g id="node4" class="node">
<title>SG_0_Node_3</title>
<ellipse fill="none" stroke="#000000" cx="92" cy="-37.2132" rx="34.7971" ry="21.4286"/>
<text text-anchor="middle" x="92" y="-32.2132" font-family="Times,serif" font-size="20.00" fill="#000000">0.0</text>
</g>
<!-- SG_0_Node_1&#45;&gt;SG_0_Node_3 -->
<g id="edge3" class="edge">
<title>SG_0_Node_1&#45;&gt;SG_0_Node_3</title>
<path fill="none" stroke="#000000" d="M122.5086,-245.3903C116.6092,-234.2203 109.7045,-219.4274 106,-205.4264 93.724,-159.0292 91.4252,-103.1512 91.3621,-68.9123"/>
<polygon fill="#000000" stroke="#000000" points="94.8634,-68.6119 91.4104,-58.5956 87.8635,-68.5791 94.8634,-68.6119"/>
<text text-anchor="middle" x="152" y="-156.4264" font-family="Times,serif" font-size="20.00" fill="#000000">[NA]</text>
<text text-anchor="middle" x="152" y="-134.4264" font-family="Times,serif" font-size="20.00" fill="#000000">57 levels</text>
</g>
<!-- SG_0_Node_4 -->
<g id="node5" class="node">
<title>SG_0_Node_4</title>
<ellipse fill="none" stroke="#000000" cx="220" cy="-37.2132" rx="34.7971" ry="21.4286"/>
<text text-anchor="middle" x="220" y="-32.2132" font-family="Times,serif" font-size="20.00" fill="#000000">1.0</text>
</g>
<!-- SG_0_Node_1&#45;&gt;SG_0_Node_4 -->
<g id="edge4" class="edge">
<title>SG_0_Node_1&#45;&gt;SG_0_Node_4</title>
<path fill="none" stroke="#000000" d="M161.3641,-245.4225C174.7091,-235.3025 189.5212,-221.5065 198,-205.4264 220.8444,-162.1018 223.293,-104.0823 222.204,-68.7413"/>
<polygon fill="#000000" stroke="#000000" points="225.6922,-68.3855 221.7712,-58.5429 218.6985,-68.6824 225.6922,-68.3855"/>
<text text-anchor="middle" x="241.5" y="-189.4264" font-family="Times,serif" font-size="20.00" fill="#000000">100</text>
<text text-anchor="middle" x="241.5" y="-167.4264" font-family="Times,serif" font-size="20.00" fill="#000000">101</text>
<text text-anchor="middle" x="241.5" y="-145.4264" font-family="Times,serif" font-size="20.00" fill="#000000">102</text>
<text text-anchor="middle" x="241.5" y="-123.4264" font-family="Times,serif" font-size="20.00" fill="#000000">103</text>
<text text-anchor="middle" x="241.5" y="-101.4264" font-family="Times,serif" font-size="20.00" fill="#000000">407</text>
</g>
<!-- SG_1_Node_0 -->
<g id="node6" class="node">
<title>SG_1_Node_0</title>
<polygon fill="none" stroke="#000000" points="1830.5,-438.8528 1513.5,-438.8528 1513.5,-402.8528 1830.5,-402.8528 1830.5,-438.8528"/>
<text text-anchor="middle" x="1672" y="-415.8528" font-family="Times,serif" font-size="20.00" fill="#000000">Cross&#45;Origin&#45;Resource&#45;Policy</text>
</g>
<!-- SG_1_Node_2 -->
<g id="node7" class="node">
<title>SG_1_Node_2</title>
<ellipse fill="none" stroke="#000000" cx="1593" cy="-263.6396" rx="34.7971" ry="21.4286"/>
<text text-anchor="middle" x="1593" y="-258.6396" font-family="Times,serif" font-size="20.00" fill="#000000">0.0</text>
</g>
<!-- SG_1_Node_0&#45;&gt;SG_1_Node_2 -->
<g id="edge5" class="edge">
<title>SG_1_Node_0&#45;&gt;SG_1_Node_2</title>
<path fill="none" stroke="#000000" d="M1642.0148,-402.7377C1629.133,-393.3646 1615.1849,-380.7525 1607,-365.8528 1595.1227,-344.2314 1591.9732,-316.289 1591.5982,-295.0855"/>
<polygon fill="#000000" stroke="#000000" points="1595.0983,-294.9851 1591.617,-284.9786 1588.0983,-294.972 1595.0983,-294.9851"/>
<text text-anchor="middle" x="1668" y="-349.8528" font-family="Times,serif" font-size="20.00" fill="#000000">[NA]</text>
<text text-anchor="middle" x="1668" y="-327.8528" font-family="Times,serif" font-size="20.00" fill="#000000">same&#45;origin</text>
</g>
<!-- SG_1_Node_1 -->
<g id="node8" class="node">
<title>SG_1_Node_1</title>
<polygon fill="none" stroke="#000000" points="1822,-281.6396 1680,-281.6396 1680,-245.6396 1822,-245.6396 1822,-281.6396"/>
<text text-anchor="middle" x="1751" y="-258.6396" font-family="Times,serif" font-size="20.00" fill="#000000">Status&#45;Code</text>
</g>
<!-- SG_1_Node_0&#45;&gt;SG_1_Node_1 -->
<g id="edge6" class="edge">
<title>SG_1_Node_0&#45;&gt;SG_1_Node_1</title>
<path fill="none" stroke="#000000" d="M1696.6664,-402.7441C1708.1694,-393.0435 1721.0452,-380.1536 1729,-365.8528 1741.7567,-342.9193 1747.1215,-313.2895 1749.3748,-291.8411"/>
<polygon fill="#000000" stroke="#000000" points="1752.8733,-292.0127 1750.2711,-281.7424 1745.9007,-291.3937 1752.8733,-292.0127"/>
<text text-anchor="middle" x="1776" y="-338.8528" font-family="Times,serif" font-size="20.00" fill="#000000">empty</text>
</g>
<!-- SG_1_Node_3 -->
<g id="node9" class="node">
<title>SG_1_Node_3</title>
<ellipse fill="none" stroke="#000000" cx="1709" cy="-37.2132" rx="34.7971" ry="21.4286"/>
<text text-anchor="middle" x="1709" y="-32.2132" font-family="Times,serif" font-size="20.00" fill="#000000">0.0</text>
</g>
<!-- SG_1_Node_1&#45;&gt;SG_1_Node_3 -->
<g id="edge7" class="edge">
<title>SG_1_Node_1&#45;&gt;SG_1_Node_3</title>
<path fill="none" stroke="#000000" d="M1742.7914,-245.3896C1738.0441,-234.0959 1732.362,-219.1747 1729,-205.4264 1717.5587,-158.6397 1712.5709,-102.8706 1710.4621,-68.7607"/>
<polygon fill="#000000" stroke="#000000" points="1713.9398,-68.2696 1709.8741,-58.486 1706.9513,-68.6697 1713.9398,-68.2696"/>
<text text-anchor="middle" x="1748.5" y="-189.4264" font-family="Times,serif" font-size="20.00" fill="#000000">100</text>
<text text-anchor="middle" x="1748.5" y="-167.4264" font-family="Times,serif" font-size="20.00" fill="#000000">101</text>
<text text-anchor="middle" x="1748.5" y="-145.4264" font-family="Times,serif" font-size="20.00" fill="#000000">102</text>
<text text-anchor="middle" x="1748.5" y="-123.4264" font-family="Times,serif" font-size="20.00" fill="#000000">103</text>
<text text-anchor="middle" x="1748.5" y="-101.4264" font-family="Times,serif" font-size="20.00" fill="#000000">407</text>
</g>
<!-- SG_1_Node_4 -->
<g id="node10" class="node">
<title>SG_1_Node_4</title>
<ellipse fill="none" stroke="#000000" cx="1796" cy="-37.2132" rx="34.7971" ry="21.4286"/>
<text text-anchor="middle" x="1796" y="-32.2132" font-family="Times,serif" font-size="20.00" fill="#000000">1.0</text>
</g>
<!-- SG_1_Node_1&#45;&gt;SG_1_Node_4 -->
<g id="edge8" class="edge">
<title>SG_1_Node_1&#45;&gt;SG_1_Node_4</title>
<path fill="none" stroke="#000000" d="M1756.9237,-245.4334C1760.4825,-234.029 1764.9056,-218.9753 1768,-205.4264 1778.766,-158.2872 1787.1916,-102.8293 1791.8811,-68.8538"/>
<polygon fill="#000000" stroke="#000000" points="1795.3938,-68.9954 1793.2706,-58.6155 1788.4574,-68.0539 1795.3938,-68.9954"/>
<text text-anchor="middle" x="1833" y="-156.4264" font-family="Times,serif" font-size="20.00" fill="#000000">[NA]</text>
<text text-anchor="middle" x="1833" y="-134.4264" font-family="Times,serif" font-size="20.00" fill="#000000">57 levels</text>
</g>
</g>
</svg>
