<?xml version="1.0" encoding="UTF-8" standalone="no"?>
<!DOCTYPE svg PUBLIC "-//W3C//DTD SVG 1.1//EN"
 "http://www.w3.org/Graphics/SVG/1.1/DTD/svg11.dtd">
<!-- Generated by graphviz version 2.40.1 (20161225.0304)
 -->
<!-- Title: G Pages: 1 -->
<svg width="4623pt" height="1267pt"
 viewBox="0.00 0.00 4623.00 1266.56" xmlns="http://www.w3.org/2000/svg" xmlns:xlink="http://www.w3.org/1999/xlink">
<g id="graph0" class="graph" transform="scale(1 1) rotate(0) translate(4 1262.5584)">
<title>G</title>
<polygon fill="#ffffff" stroke="transparent" points="-4,4 -4,-1262.5584 4619,-1262.5584 4619,4 -4,4"/>
<g id="clust1" class="cluster">
<title>cluster_0</title>
<polygon fill="none" stroke="#000000" points="8,-8 8,-1250.5584 464,-1250.5584 464,-8 8,-8"/>
<text text-anchor="middle" x="236" y="-1214.5584" font-family="Times,serif" font-size="40.00" fill="#000000">Tree 0, Class js&#45;null</text>
</g>
<g id="clust9" class="cluster">
<title>cluster_1</title>
<polygon fill="none" stroke="#000000" points="472,-8 472,-1250.5584 4607,-1250.5584 4607,-8 472,-8"/>
<text text-anchor="middle" x="2539.5" y="-1214.5584" font-family="Times,serif" font-size="40.00" fill="#000000">Tree 0, Class {&#39;location&#39;: {&#39;hash&#39;: &#39;&#39;, &#39;host&#39;: &#39;&#39;, &#39;href&#39;: &#39;about:blank&#39;, &#39;port&#39;: &#39;&#39;, &#39;origin&#39;: &#39;null&#39;, &#39;search&#39;: &#39;&#39;, &#39;hostname&#39;: &#39;&#39;, &#39;pathname&#39;: &#39;blank&#39;, &#39;protocol&#39;: &#39;about:&#39;, &#39;ancestorOrigins&#39;: {&#39;0&#39;: &#39;http://localhost:8001&#39;}}}</text>
</g>
<!-- SG_0_Node_0 -->
<g id="node1" class="node">
<title>SG_0_Node_0</title>
<polygon fill="none" stroke="#000000" points="177,-1190.5584 35,-1190.5584 35,-1154.5584 177,-1154.5584 177,-1190.5584"/>
<text text-anchor="middle" x="106" y="-1167.5584" font-family="Times,serif" font-size="20.00" fill="#000000">Status&#45;Code</text>
</g>
<!-- SG_0_Node_6 -->
<g id="node2" class="node">
<title>SG_0_Node_6</title>
<ellipse fill="none" stroke="#000000" cx="78" cy="-971.3452" rx="34.7971" ry="21.4286"/>
<text text-anchor="middle" x="78" y="-966.3452" font-family="Times,serif" font-size="20.00" fill="#000000">0.0</text>
</g>
<!-- SG_0_Node_0&#45;&gt;SG_0_Node_6 -->
<g id="edge1" class="edge">
<title>SG_0_Node_0&#45;&gt;SG_0_Node_6</title>
<path fill="none" stroke="#000000" d="M103.4658,-1154.3472C98.6879,-1120.0124 88.2969,-1045.3409 82.3709,-1002.7551"/>
<polygon fill="#000000" stroke="#000000" points="85.8115,-1002.0857 80.9666,-992.6636 78.8783,-1003.0506 85.8115,-1002.0857"/>
<text text-anchor="middle" x="117.5" y="-1101.5584" font-family="Times,serif" font-size="20.00" fill="#000000">100</text>
<text text-anchor="middle" x="117.5" y="-1079.5584" font-family="Times,serif" font-size="20.00" fill="#000000">102</text>
<text text-anchor="middle" x="117.5" y="-1057.5584" font-family="Times,serif" font-size="20.00" fill="#000000">103</text>
<text text-anchor="middle" x="117.5" y="-1035.5584" font-family="Times,serif" font-size="20.00" fill="#000000">407</text>
</g>
<!-- SG_0_Node_1 -->
<g id="node3" class="node">
<title>SG_0_Node_1</title>
<polygon fill="none" stroke="#000000" points="351.5,-989.3452 130.5,-989.3452 130.5,-953.3452 351.5,-953.3452 351.5,-989.3452"/>
<text text-anchor="middle" x="241" y="-966.3452" font-family="Times,serif" font-size="20.00" fill="#000000">Content&#45;Disposition</text>
</g>
<!-- SG_0_Node_0&#45;&gt;SG_0_Node_1 -->
<g id="edge2" class="edge">
<title>SG_0_Node_0&#45;&gt;SG_0_Node_1</title>
<path fill="none" stroke="#000000" d="M118.2185,-1154.3472C142.1639,-1118.6573 195.3508,-1039.3839 223.2056,-997.8672"/>
<polygon fill="#000000" stroke="#000000" points="226.2413,-999.6245 228.9064,-989.3703 220.4284,-995.7244 226.2413,-999.6245"/>
<text text-anchor="middle" x="247" y="-1079.5584" font-family="Times,serif" font-size="20.00" fill="#000000">[NA]</text>
<text text-anchor="middle" x="247" y="-1057.5584" font-family="Times,serif" font-size="20.00" fill="#000000">58 levels</text>
</g>
<!-- SG_0_Node_2 -->
<g id="node4" class="node">
<title>SG_0_Node_2</title>
<polygon fill="none" stroke="#000000" points="321.5,-828.9188 130.5,-828.9188 130.5,-792.9188 321.5,-792.9188 321.5,-828.9188"/>
<text text-anchor="middle" x="226" y="-805.9188" font-family="Times,serif" font-size="20.00" fill="#000000">X&#45;Frame&#45;Options</text>
</g>
<!-- SG_0_Node_1&#45;&gt;SG_0_Node_2 -->
<g id="edge3" class="edge">
<title>SG_0_Node_1&#45;&gt;SG_0_Node_2</title>
<path fill="none" stroke="#000000" d="M239.3085,-953.2541C236.7202,-925.5723 231.7539,-872.457 228.6743,-839.5203"/>
<polygon fill="#000000" stroke="#000000" points="232.1242,-838.8207 227.7084,-829.19 225.1546,-839.4724 232.1242,-838.8207"/>
<text text-anchor="middle" x="294" y="-886.132" font-family="Times,serif" font-size="20.00" fill="#000000">attachment</text>
</g>
<!-- SG_0_Node_7 -->
<g id="node5" class="node">
<title>SG_0_Node_7</title>
<ellipse fill="none" stroke="#000000" cx="380" cy="-810.9188" rx="34.7971" ry="21.4286"/>
<text text-anchor="middle" x="380" y="-805.9188" font-family="Times,serif" font-size="20.00" fill="#000000">1.0</text>
</g>
<!-- SG_0_Node_1&#45;&gt;SG_0_Node_7 -->
<g id="edge4" class="edge">
<title>SG_0_Node_1&#45;&gt;SG_0_Node_7</title>
<path fill="none" stroke="#000000" d="M300.7604,-953.2817C321.3456,-944.2851 342.7757,-931.3278 357,-913.132 372.692,-893.0588 378.0977,-864.3497 379.7756,-842.4655"/>
<polygon fill="#000000" stroke="#000000" points="383.2781,-842.5143 380.3287,-832.3383 376.2885,-842.1325 383.2781,-842.5143"/>
<text text-anchor="middle" x="407" y="-897.132" font-family="Times,serif" font-size="20.00" fill="#000000">[NA]</text>
<text text-anchor="middle" x="407" y="-875.132" font-family="Times,serif" font-size="20.00" fill="#000000">empty</text>
</g>
<!-- SG_0_Node_3 -->
<g id="node6" class="node">
<title>SG_0_Node_3</title>
<polygon fill="none" stroke="#000000" points="299,-668.4924 39,-668.4924 39,-632.4924 299,-632.4924 299,-668.4924"/>
<text text-anchor="middle" x="169" y="-645.4924" font-family="Times,serif" font-size="20.00" fill="#000000">Content&#45;Security&#45;Policy</text>
</g>
<!-- SG_0_Node_2&#45;&gt;SG_0_Node_3 -->
<g id="edge5" class="edge">
<title>SG_0_Node_2&#45;&gt;SG_0_Node_3</title>
<path fill="none" stroke="#000000" d="M219.5722,-792.8277C209.6512,-764.9051 190.5358,-711.1049 178.8586,-678.2393"/>
<polygon fill="#000000" stroke="#000000" points="182.1379,-677.0146 175.4918,-668.7636 175.5418,-679.3583 182.1379,-677.0146"/>
<text text-anchor="middle" x="237" y="-725.7056" font-family="Times,serif" font-size="20.00" fill="#000000">empty</text>
</g>
<!-- SG_0_Node_8 -->
<g id="node7" class="node">
<title>SG_0_Node_8</title>
<ellipse fill="none" stroke="#000000" cx="352" cy="-650.4924" rx="34.7971" ry="21.4286"/>
<text text-anchor="middle" x="352" y="-645.4924" font-family="Times,serif" font-size="20.00" fill="#000000">1.0</text>
</g>
<!-- SG_0_Node_2&#45;&gt;SG_0_Node_8 -->
<g id="edge6" class="edge">
<title>SG_0_Node_2&#45;&gt;SG_0_Node_8</title>
<path fill="none" stroke="#000000" d="M240.7071,-792.9051C250.0233,-781.4446 262.2909,-766.2617 273,-752.7056 292.9175,-727.4933 315.2831,-698.4893 331.1193,-677.8331"/>
<polygon fill="#000000" stroke="#000000" points="333.9681,-679.8697 337.2696,-669.8024 328.4106,-675.6136 333.9681,-679.8697"/>
<text text-anchor="middle" x="331" y="-736.7056" font-family="Times,serif" font-size="20.00" fill="#000000">[NA]</text>
<text text-anchor="middle" x="331" y="-714.7056" font-family="Times,serif" font-size="20.00" fill="#000000">deny</text>
</g>
<!-- SG_0_Node_4 -->
<g id="node8" class="node">
<title>SG_0_Node_4</title>
<polygon fill="none" stroke="#000000" points="158,-486.066 16,-486.066 16,-450.066 158,-450.066 158,-486.066"/>
<text text-anchor="middle" x="87" y="-463.066" font-family="Times,serif" font-size="20.00" fill="#000000">Status&#45;Code</text>
</g>
<!-- SG_0_Node_3&#45;&gt;SG_0_Node_4 -->
<g id="edge7" class="edge">
<title>SG_0_Node_3&#45;&gt;SG_0_Node_4</title>
<path fill="none" stroke="#000000" d="M86.8372,-632.4304C66.1531,-623.7869 46.3436,-611.0442 34,-592.2792 17.8795,-567.7726 23.4124,-553.6351 34,-526.2792 38.788,-513.9083 47.5633,-502.5504 56.6144,-493.2155"/>
<polygon fill="#000000" stroke="#000000" points="59.123,-495.6583 63.8615,-486.1821 54.2478,-490.635 59.123,-495.6583"/>
<text text-anchor="middle" x="116.5" y="-576.2792" font-family="Times,serif" font-size="20.00" fill="#000000">[NA]</text>
<text text-anchor="middle" x="116.5" y="-554.2792" font-family="Times,serif" font-size="20.00" fill="#000000">default&#45;src &#39;self&#39;</text>
<text text-anchor="middle" x="116.5" y="-532.2792" font-family="Times,serif" font-size="20.00" fill="#000000">empty</text>
</g>
<!-- SG_0_Node_9 -->
<g id="node9" class="node">
<title>SG_0_Node_9</title>
<ellipse fill="none" stroke="#000000" cx="235" cy="-468.066" rx="34.7971" ry="21.4286"/>
<text text-anchor="middle" x="235" y="-463.066" font-family="Times,serif" font-size="20.00" fill="#000000">1.0</text>
</g>
<!-- SG_0_Node_3&#45;&gt;SG_0_Node_9 -->
<g id="edge8" class="edge">
<title>SG_0_Node_3&#45;&gt;SG_0_Node_9</title>
<path fill="none" stroke="#000000" d="M181.3938,-632.2936C188.5328,-621.1415 197.21,-606.3497 203,-592.2792 215.5871,-561.6906 224.3405,-524.7816 229.4716,-499.1842"/>
<polygon fill="#000000" stroke="#000000" points="232.9217,-499.7773 231.3867,-489.2943 226.0493,-498.4465 232.9217,-499.7773"/>
<text text-anchor="middle" x="333.5" y="-554.2792" font-family="Times,serif" font-size="20.00" fill="#000000">frame&#45;ancestors &#39;self&#39;</text>
</g>
<!-- SG_0_Node_10 -->
<g id="node10" class="node">
<title>SG_0_Node_10</title>
<ellipse fill="none" stroke="#000000" cx="52" cy="-219.6396" rx="34.7971" ry="21.4286"/>
<text text-anchor="middle" x="52" y="-214.6396" font-family="Times,serif" font-size="20.00" fill="#000000">0.0</text>
</g>
<!-- SG_0_Node_4&#45;&gt;SG_0_Node_10 -->
<g id="edge9" class="edge">
<title>SG_0_Node_4&#45;&gt;SG_0_Node_10</title>
<path fill="none" stroke="#000000" d="M78.9661,-449.8286C74.3621,-438.5395 68.9318,-423.6187 66,-409.8528 54.3233,-355.0267 51.9677,-289.5321 51.7116,-251.4542"/>
<polygon fill="#000000" stroke="#000000" points="55.2108,-251.0087 51.6902,-241.016 48.2108,-251.0232 55.2108,-251.0087"/>
<text text-anchor="middle" x="112" y="-349.8528" font-family="Times,serif" font-size="20.00" fill="#000000">[NA]</text>
<text text-anchor="middle" x="112" y="-327.8528" font-family="Times,serif" font-size="20.00" fill="#000000">52 levels</text>
</g>
<!-- SG_0_Node_5 -->
<g id="node11" class="node">
<title>SG_0_Node_5</title>
<polygon fill="none" stroke="#000000" points="232.5,-237.6396 127.5,-237.6396 127.5,-201.6396 232.5,-201.6396 232.5,-237.6396"/>
<text text-anchor="middle" x="180" y="-214.6396" font-family="Times,serif" font-size="20.00" fill="#000000">Location</text>
</g>
<!-- SG_0_Node_4&#45;&gt;SG_0_Node_5 -->
<g id="edge10" class="edge">
<title>SG_0_Node_4&#45;&gt;SG_0_Node_5</title>
<path fill="none" stroke="#000000" d="M118.7964,-449.9484C133.2003,-440.021 148.9892,-426.363 158,-409.8528 186.2409,-358.1081 185.9135,-286.7818 183.0452,-247.8298"/>
<polygon fill="#000000" stroke="#000000" points="186.5225,-247.4136 182.1904,-237.7449 179.5476,-248.0048 186.5225,-247.4136"/>
<text text-anchor="middle" x="203.5" y="-393.8528" font-family="Times,serif" font-size="20.00" fill="#000000">301</text>
<text text-anchor="middle" x="203.5" y="-371.8528" font-family="Times,serif" font-size="20.00" fill="#000000">302</text>
<text text-anchor="middle" x="203.5" y="-349.8528" font-family="Times,serif" font-size="20.00" fill="#000000">303</text>
<text text-anchor="middle" x="203.5" y="-327.8528" font-family="Times,serif" font-size="20.00" fill="#000000">305</text>
<text text-anchor="middle" x="203.5" y="-305.8528" font-family="Times,serif" font-size="20.00" fill="#000000">307</text>
<text text-anchor="middle" x="203.5" y="-283.8528" font-family="Times,serif" font-size="20.00" fill="#000000">308</text>
</g>
<!-- SG_0_Node_11 -->
<g id="node12" class="node">
<title>SG_0_Node_11</title>
<ellipse fill="none" stroke="#000000" cx="81" cy="-37.2132" rx="34.7971" ry="21.4286"/>
<text text-anchor="middle" x="81" y="-32.2132" font-family="Times,serif" font-size="20.00" fill="#000000">0.0</text>
</g>
<!-- SG_0_Node_5&#45;&gt;SG_0_Node_11 -->
<g id="edge11" class="edge">
<title>SG_0_Node_5&#45;&gt;SG_0_Node_11</title>
<path fill="none" stroke="#000000" d="M151.4627,-201.4917C137.6198,-191.3009 121.8876,-177.4212 112,-161.4264 94.4352,-133.0127 86.8098,-95.1494 83.5072,-68.7251"/>
<polygon fill="#000000" stroke="#000000" points="86.9552,-68.062 82.3736,-58.5091 79.9979,-68.8341 86.9552,-68.062"/>
<text text-anchor="middle" x="144" y="-123.4264" font-family="Times,serif" font-size="20.00" fill="#000000">empty</text>
</g>
<!-- SG_0_Node_12 -->
<g id="node13" class="node">
<title>SG_0_Node_12</title>
<ellipse fill="none" stroke="#000000" cx="181" cy="-37.2132" rx="34.7971" ry="21.4286"/>
<text text-anchor="middle" x="181" y="-32.2132" font-family="Times,serif" font-size="20.00" fill="#000000">1.0</text>
</g>
<!-- SG_0_Node_5&#45;&gt;SG_0_Node_12 -->
<g id="edge12" class="edge">
<title>SG_0_Node_5&#45;&gt;SG_0_Node_12</title>
<path fill="none" stroke="#000000" d="M180.0995,-201.4809C180.2693,-170.507 180.6169,-107.0981 180.8271,-68.7558"/>
<polygon fill="#000000" stroke="#000000" points="184.3275,-68.6729 180.8825,-58.6538 177.3276,-68.6344 184.3275,-68.6729"/>
<text text-anchor="middle" x="317" y="-145.4264" font-family="Times,serif" font-size="20.00" fill="#000000">[NA]</text>
<text text-anchor="middle" x="317" y="-123.4264" font-family="Times,serif" font-size="20.00" fill="#000000">/</text>
<text text-anchor="middle" x="317" y="-101.4264" font-family="Times,serif" font-size="20.00" fill="#000000">http://localhost:8000/echo/</text>
</g>
<!-- SG_1_Node_0 -->
<g id="node14" class="node">
<title>SG_1_Node_0</title>
<polygon fill="none" stroke="#000000" points="755,-1190.5584 613,-1190.5584 613,-1154.5584 755,-1154.5584 755,-1190.5584"/>
<text text-anchor="middle" x="684" y="-1167.5584" font-family="Times,serif" font-size="20.00" fill="#000000">Status&#45;Code</text>
</g>
<!-- SG_1_Node_1 -->
<g id="node15" class="node">
<title>SG_1_Node_1</title>
<polygon fill="none" stroke="#000000" points="712.5,-989.3452 491.5,-989.3452 491.5,-953.3452 712.5,-953.3452 712.5,-989.3452"/>
<text text-anchor="middle" x="602" y="-966.3452" font-family="Times,serif" font-size="20.00" fill="#000000">Content&#45;Disposition</text>
</g>
<!-- SG_1_Node_0&#45;&gt;SG_1_Node_1 -->
<g id="edge13" class="edge">
<title>SG_1_Node_0&#45;&gt;SG_1_Node_1</title>
<path fill="none" stroke="#000000" d="M648.2986,-1154.5432C634.1725,-1145.4727 619.3405,-1133.0721 611,-1117.5584 591.1782,-1080.6891 593.1246,-1030.7884 597.0416,-999.8541"/>
<polygon fill="#000000" stroke="#000000" points="600.5349,-1000.1488 598.4769,-989.7558 593.6045,-999.1638 600.5349,-1000.1488"/>
<text text-anchor="middle" x="657" y="-1079.5584" font-family="Times,serif" font-size="20.00" fill="#000000">[NA]</text>
<text text-anchor="middle" x="657" y="-1057.5584" font-family="Times,serif" font-size="20.00" fill="#000000">58 levels</text>
</g>
<!-- SG_1_Node_6 -->
<g id="node16" class="node">
<title>SG_1_Node_6</title>
<ellipse fill="none" stroke="#000000" cx="765" cy="-971.3452" rx="34.7971" ry="21.4286"/>
<text text-anchor="middle" x="765" y="-966.3452" font-family="Times,serif" font-size="20.00" fill="#000000">1.0</text>
</g>
<!-- SG_1_Node_0&#45;&gt;SG_1_Node_6 -->
<g id="edge14" class="edge">
<title>SG_1_Node_0&#45;&gt;SG_1_Node_6</title>
<path fill="none" stroke="#000000" d="M691.7513,-1154.2601C696.2518,-1143.5773 702.0018,-1129.8273 707,-1117.5584 723.2917,-1077.5681 741.5858,-1031.1962 753.1929,-1001.5834"/>
<polygon fill="#000000" stroke="#000000" points="756.4735,-1002.8044 756.8604,-992.2167 749.9553,-1000.2523 756.4735,-1002.8044"/>
<text text-anchor="middle" x="761.5" y="-1101.5584" font-family="Times,serif" font-size="20.00" fill="#000000">100</text>
<text text-anchor="middle" x="761.5" y="-1079.5584" font-family="Times,serif" font-size="20.00" fill="#000000">102</text>
<text text-anchor="middle" x="761.5" y="-1057.5584" font-family="Times,serif" font-size="20.00" fill="#000000">103</text>
<text text-anchor="middle" x="761.5" y="-1035.5584" font-family="Times,serif" font-size="20.00" fill="#000000">407</text>
</g>
<!-- SG_1_Node_7 -->
<g id="node17" class="node">
<title>SG_1_Node_7</title>
<ellipse fill="none" stroke="#000000" cx="558" cy="-810.9188" rx="34.7971" ry="21.4286"/>
<text text-anchor="middle" x="558" y="-805.9188" font-family="Times,serif" font-size="20.00" fill="#000000">0.0</text>
</g>
<!-- SG_1_Node_1&#45;&gt;SG_1_Node_7 -->
<g id="edge15" class="edge">
<title>SG_1_Node_1&#45;&gt;SG_1_Node_7</title>
<path fill="none" stroke="#000000" d="M597.0382,-953.2541C589.636,-926.2653 575.6031,-875.1005 566.5332,-842.0312"/>
<polygon fill="#000000" stroke="#000000" points="569.7979,-840.7019 563.7775,-831.9839 563.0472,-842.5535 569.7979,-840.7019"/>
<text text-anchor="middle" x="617" y="-897.132" font-family="Times,serif" font-size="20.00" fill="#000000">[NA]</text>
<text text-anchor="middle" x="617" y="-875.132" font-family="Times,serif" font-size="20.00" fill="#000000">empty</text>
</g>
<!-- SG_1_Node_2 -->
<g id="node18" class="node">
<title>SG_1_Node_2</title>
<polygon fill="none" stroke="#000000" points="801.5,-828.9188 610.5,-828.9188 610.5,-792.9188 801.5,-792.9188 801.5,-828.9188"/>
<text text-anchor="middle" x="706" y="-805.9188" font-family="Times,serif" font-size="20.00" fill="#000000">X&#45;Frame&#45;Options</text>
</g>
<!-- SG_1_Node_1&#45;&gt;SG_1_Node_2 -->
<g id="edge16" class="edge">
<title>SG_1_Node_1&#45;&gt;SG_1_Node_2</title>
<path fill="none" stroke="#000000" d="M619.9868,-953.1498C630.3551,-942.118 643.2288,-927.4483 653,-913.132 669.3429,-889.1873 684.179,-859.5675 693.9702,-838.388"/>
<polygon fill="#000000" stroke="#000000" points="697.2781,-839.5686 698.2285,-829.0165 690.9051,-836.6728 697.2781,-839.5686"/>
<text text-anchor="middle" x="737" y="-886.132" font-family="Times,serif" font-size="20.00" fill="#000000">attachment</text>
</g>
<!-- SG_1_Node_8 -->
<g id="node19" class="node">
<title>SG_1_Node_8</title>
<ellipse fill="none" stroke="#000000" cx="597" cy="-650.4924" rx="34.7971" ry="21.4286"/>
<text text-anchor="middle" x="597" y="-645.4924" font-family="Times,serif" font-size="20.00" fill="#000000">0.0</text>
</g>
<!-- SG_1_Node_2&#45;&gt;SG_1_Node_8 -->
<g id="edge17" class="edge">
<title>SG_1_Node_2&#45;&gt;SG_1_Node_8</title>
<path fill="none" stroke="#000000" d="M693.7082,-792.8277C674.7978,-764.9954 638.4187,-711.4525 616.0693,-678.5587"/>
<polygon fill="#000000" stroke="#000000" points="618.9514,-676.5726 610.4364,-670.2681 613.1614,-680.5066 618.9514,-676.5726"/>
<text text-anchor="middle" x="690" y="-736.7056" font-family="Times,serif" font-size="20.00" fill="#000000">[NA]</text>
<text text-anchor="middle" x="690" y="-714.7056" font-family="Times,serif" font-size="20.00" fill="#000000">deny</text>
</g>
<!-- SG_1_Node_3 -->
<g id="node20" class="node">
<title>SG_1_Node_3</title>
<polygon fill="none" stroke="#000000" points="910,-668.4924 650,-668.4924 650,-632.4924 910,-632.4924 910,-668.4924"/>
<text text-anchor="middle" x="780" y="-645.4924" font-family="Times,serif" font-size="20.00" fill="#000000">Content&#45;Security&#45;Policy</text>
</g>
<!-- SG_1_Node_2&#45;&gt;SG_1_Node_3 -->
<g id="edge18" class="edge">
<title>SG_1_Node_2&#45;&gt;SG_1_Node_3</title>
<path fill="none" stroke="#000000" d="M714.3449,-792.8277C727.2248,-764.9051 752.0412,-711.1049 767.2012,-678.2393"/>
<polygon fill="#000000" stroke="#000000" points="770.5616,-679.3101 771.5721,-668.7636 764.2052,-676.3781 770.5616,-679.3101"/>
<text text-anchor="middle" x="784" y="-725.7056" font-family="Times,serif" font-size="20.00" fill="#000000">empty</text>
</g>
<!-- SG_1_Node_9 -->
<g id="node21" class="node">
<title>SG_1_Node_9</title>
<ellipse fill="none" stroke="#000000" cx="573" cy="-468.066" rx="34.7971" ry="21.4286"/>
<text text-anchor="middle" x="573" y="-463.066" font-family="Times,serif" font-size="20.00" fill="#000000">0.0</text>
</g>
<!-- SG_1_Node_3&#45;&gt;SG_1_Node_9 -->
<g id="edge19" class="edge">
<title>SG_1_Node_3&#45;&gt;SG_1_Node_9</title>
<path fill="none" stroke="#000000" d="M672.2993,-632.4754C628.8634,-622.8158 585.9339,-609.3522 573,-592.2792 552.9085,-565.7582 557.035,-526.0863 563.4854,-498.7488"/>
<polygon fill="#000000" stroke="#000000" points="566.9098,-499.4864 566.0258,-488.9285 560.1329,-497.7333 566.9098,-499.4864"/>
<text text-anchor="middle" x="683.5" y="-554.2792" font-family="Times,serif" font-size="20.00" fill="#000000">frame&#45;ancestors &#39;self&#39;</text>
</g>
<!-- SG_1_Node_4 -->
<g id="node22" class="node">
<title>SG_1_Node_4</title>
<polygon fill="none" stroke="#000000" points="901,-486.066 759,-486.066 759,-450.066 901,-450.066 901,-486.066"/>
<text text-anchor="middle" x="830" y="-463.066" font-family="Times,serif" font-size="20.00" fill="#000000">Status&#45;Code</text>
</g>
<!-- SG_1_Node_3&#45;&gt;SG_1_Node_4 -->
<g id="edge20" class="edge">
<title>SG_1_Node_3&#45;&gt;SG_1_Node_4</title>
<path fill="none" stroke="#000000" d="M785.8175,-632.4655C789.4571,-620.9999 794.1658,-605.8162 798,-592.2792 807.2927,-559.4706 816.9175,-521.47 823.1524,-496.2266"/>
<polygon fill="#000000" stroke="#000000" points="826.6186,-496.7878 825.6061,-486.2414 819.8208,-495.1173 826.6186,-496.7878"/>
<text text-anchor="middle" x="897.5" y="-576.2792" font-family="Times,serif" font-size="20.00" fill="#000000">[NA]</text>
<text text-anchor="middle" x="897.5" y="-554.2792" font-family="Times,serif" font-size="20.00" fill="#000000">default&#45;src &#39;self&#39;</text>
<text text-anchor="middle" x="897.5" y="-532.2792" font-family="Times,serif" font-size="20.00" fill="#000000">empty</text>
</g>
<!-- SG_1_Node_5 -->
<g id="node23" class="node">
<title>SG_1_Node_5</title>
<polygon fill="none" stroke="#000000" points="830.5,-237.6396 725.5,-237.6396 725.5,-201.6396 830.5,-201.6396 830.5,-237.6396"/>
<text text-anchor="middle" x="778" y="-214.6396" font-family="Times,serif" font-size="20.00" fill="#000000">Location</text>
</g>
<!-- SG_1_Node_4&#45;&gt;SG_1_Node_5 -->
<g id="edge21" class="edge">
<title>SG_1_Node_4&#45;&gt;SG_1_Node_5</title>
<path fill="none" stroke="#000000" d="M824.5725,-449.8102C821.2786,-438.387 817.1223,-423.3311 814,-409.8528 800.7799,-352.7846 788.8738,-285.2531 782.6205,-247.9595"/>
<polygon fill="#000000" stroke="#000000" points="786.0306,-247.1292 780.9381,-237.8385 779.1254,-248.2771 786.0306,-247.1292"/>
<text text-anchor="middle" x="833.5" y="-393.8528" font-family="Times,serif" font-size="20.00" fill="#000000">301</text>
<text text-anchor="middle" x="833.5" y="-371.8528" font-family="Times,serif" font-size="20.00" fill="#000000">302</text>
<text text-anchor="middle" x="833.5" y="-349.8528" font-family="Times,serif" font-size="20.00" fill="#000000">303</text>
<text text-anchor="middle" x="833.5" y="-327.8528" font-family="Times,serif" font-size="20.00" fill="#000000">305</text>
<text text-anchor="middle" x="833.5" y="-305.8528" font-family="Times,serif" font-size="20.00" fill="#000000">307</text>
<text text-anchor="middle" x="833.5" y="-283.8528" font-family="Times,serif" font-size="20.00" fill="#000000">308</text>
</g>
<!-- SG_1_Node_10 -->
<g id="node24" class="node">
<title>SG_1_Node_10</title>
<ellipse fill="none" stroke="#000000" cx="883" cy="-219.6396" rx="34.7971" ry="21.4286"/>
<text text-anchor="middle" x="883" y="-214.6396" font-family="Times,serif" font-size="20.00" fill="#000000">1.0</text>
</g>
<!-- SG_1_Node_4&#45;&gt;SG_1_Node_10 -->
<g id="edge22" class="edge">
<title>SG_1_Node_4&#45;&gt;SG_1_Node_10</title>
<path fill="none" stroke="#000000" d="M838.3037,-450.0635C843.2274,-438.7357 849.2245,-423.691 853,-409.8528 867.9607,-355.0186 876.2817,-289.1223 880.1836,-251.0423"/>
<polygon fill="#000000" stroke="#000000" points="883.6684,-251.3675 881.1688,-241.0717 876.7023,-250.6791 883.6684,-251.3675"/>
<text text-anchor="middle" x="923" y="-349.8528" font-family="Times,serif" font-size="20.00" fill="#000000">[NA]</text>
<text text-anchor="middle" x="923" y="-327.8528" font-family="Times,serif" font-size="20.00" fill="#000000">52 levels</text>
</g>
<!-- SG_1_Node_11 -->
<g id="node25" class="node">
<title>SG_1_Node_11</title>
<ellipse fill="none" stroke="#000000" cx="563" cy="-37.2132" rx="34.7971" ry="21.4286"/>
<text text-anchor="middle" x="563" y="-32.2132" font-family="Times,serif" font-size="20.00" fill="#000000">0.0</text>
</g>
<!-- SG_1_Node_5&#45;&gt;SG_1_Node_11 -->
<g id="edge23" class="edge">
<title>SG_1_Node_5&#45;&gt;SG_1_Node_11</title>
<path fill="none" stroke="#000000" d="M725.482,-212.761C668.3942,-204.0798 582.6526,-187.1077 563,-161.4264 542.7798,-135.0034 546.9327,-95.3113 553.4245,-67.9424"/>
<polygon fill="#000000" stroke="#000000" points="556.852,-68.6687 555.9811,-58.1097 550.0772,-66.9071 556.852,-68.6687"/>
<text text-anchor="middle" x="700" y="-145.4264" font-family="Times,serif" font-size="20.00" fill="#000000">[NA]</text>
<text text-anchor="middle" x="700" y="-123.4264" font-family="Times,serif" font-size="20.00" fill="#000000">/</text>
<text text-anchor="middle" x="700" y="-101.4264" font-family="Times,serif" font-size="20.00" fill="#000000">http://localhost:8000/echo/</text>
</g>
<!-- SG_1_Node_12 -->
<g id="node26" class="node">
<title>SG_1_Node_12</title>
<ellipse fill="none" stroke="#000000" cx="873" cy="-37.2132" rx="34.7971" ry="21.4286"/>
<text text-anchor="middle" x="873" y="-32.2132" font-family="Times,serif" font-size="20.00" fill="#000000">1.0</text>
</g>
<!-- SG_1_Node_5&#45;&gt;SG_1_Node_12 -->
<g id="edge24" class="edge">
<title>SG_1_Node_5&#45;&gt;SG_1_Node_12</title>
<path fill="none" stroke="#000000" d="M803.7381,-201.5614C816.6955,-191.204 831.6061,-177.1512 841,-161.4264 858.0641,-132.8624 866.11,-95.3284 869.8518,-69.0252"/>
<polygon fill="#000000" stroke="#000000" points="873.3567,-69.2114 871.1656,-58.8457 866.4143,-68.3154 873.3567,-69.2114"/>
<text text-anchor="middle" x="897" y="-123.4264" font-family="Times,serif" font-size="20.00" fill="#000000">empty</text>
</g>
</g>
</svg>
