<?xml version="1.0" encoding="UTF-8" standalone="no"?>
<!DOCTYPE svg PUBLIC "-//W3C//DTD SVG 1.1//EN"
 "http://www.w3.org/Graphics/SVG/1.1/DTD/svg11.dtd">
<!-- Generated by graphviz version 2.40.1 (20161225.0304)
 -->
<!-- Title: G Pages: 1 -->
<svg width="3723pt" height="1355pt"
 viewBox="0.00 0.00 3723.00 1354.56" xmlns="http://www.w3.org/2000/svg" xmlns:xlink="http://www.w3.org/1999/xlink">
<g id="graph0" class="graph" transform="scale(1 1) rotate(0) translate(4 1350.5584)">
<title>G</title>
<polygon fill="#ffffff" stroke="transparent" points="-4,4 -4,-1350.5584 3719,-1350.5584 3719,4 -4,4"/>
<g id="clust1" class="cluster">
<title>cluster_0</title>
<polygon fill="none" stroke="#000000" points="8,-8 8,-1338.5584 661,-1338.5584 661,-8 8,-8"/>
<text text-anchor="middle" x="334.5" y="-1302.5584" font-family="Times,serif" font-size="40.00" fill="#000000">Tree 0, Class js&#45;undefined</text>
</g>
<g id="clust9" class="cluster">
<title>cluster_1</title>
<polygon fill="none" stroke="#000000" points="669,-8 669,-1338.5584 3707,-1338.5584 3707,-8 669,-8"/>
<text text-anchor="middle" x="2188" y="-1302.5584" font-family="Times,serif" font-size="40.00" fill="#000000">Tree 0, Class {&#39;code&#39;: 18, &#39;name&#39;: &#39;SecurityError&#39;, &#39;message&#39;: &#39;Blocked a frame with origin http://localhost:8001 from accessing a cross&#45;origin frame.&#39;}</text>
</g>
<!-- SG_0_Node_0 -->
<g id="node1" class="node">
<title>SG_0_Node_0</title>
<polygon fill="none" stroke="#000000" points="204,-1278.5584 62,-1278.5584 62,-1242.5584 204,-1242.5584 204,-1278.5584"/>
<text text-anchor="middle" x="133" y="-1255.5584" font-family="Times,serif" font-size="20.00" fill="#000000">Status&#45;Code</text>
</g>
<!-- SG_0_Node_6 -->
<g id="node2" class="node">
<title>SG_0_Node_6</title>
<ellipse fill="none" stroke="#000000" cx="78" cy="-1103.3452" rx="34.7971" ry="21.4286"/>
<text text-anchor="middle" x="78" y="-1098.3452" font-family="Times,serif" font-size="20.00" fill="#000000">0.0</text>
</g>
<!-- SG_0_Node_0&#45;&gt;SG_0_Node_6 -->
<g id="edge1" class="edge">
<title>SG_0_Node_0&#45;&gt;SG_0_Node_6</title>
<path fill="none" stroke="#000000" d="M126.6908,-1242.5241C117.4231,-1216.033 100.0081,-1166.2536 88.7129,-1133.9672"/>
<polygon fill="#000000" stroke="#000000" points="91.8847,-1132.4342 85.2787,-1124.1509 85.2773,-1134.7458 91.8847,-1132.4342"/>
<text text-anchor="middle" x="159" y="-1189.5584" font-family="Times,serif" font-size="20.00" fill="#000000">[NA]</text>
<text text-anchor="middle" x="159" y="-1167.5584" font-family="Times,serif" font-size="20.00" fill="#000000">51 levels</text>
</g>
<!-- SG_0_Node_1 -->
<g id="node3" class="node">
<title>SG_0_Node_1</title>
<polygon fill="none" stroke="#000000" points="351.5,-1121.3452 130.5,-1121.3452 130.5,-1085.3452 351.5,-1085.3452 351.5,-1121.3452"/>
<text text-anchor="middle" x="241" y="-1098.3452" font-family="Times,serif" font-size="20.00" fill="#000000">Content&#45;Disposition</text>
</g>
<!-- SG_0_Node_0&#45;&gt;SG_0_Node_1 -->
<g id="edge2" class="edge">
<title>SG_0_Node_0&#45;&gt;SG_0_Node_1</title>
<path fill="none" stroke="#000000" d="M167.1976,-1242.4744C181.8958,-1233.1829 198.1532,-1220.628 209,-1205.5584 224.8698,-1183.5103 233.0481,-1153.3388 237.1452,-1131.496"/>
<polygon fill="#000000" stroke="#000000" points="240.6165,-1131.96 238.8445,-1121.5144 233.7158,-1130.7851 240.6165,-1131.96"/>
<text text-anchor="middle" x="275" y="-1178.5584" font-family="Times,serif" font-size="20.00" fill="#000000">11 levels</text>
</g>
<!-- SG_0_Node_2 -->
<g id="node4" class="node">
<title>SG_0_Node_2</title>
<polygon fill="none" stroke="#000000" points="244,-960.9188 102,-960.9188 102,-924.9188 244,-924.9188 244,-960.9188"/>
<text text-anchor="middle" x="173" y="-937.9188" font-family="Times,serif" font-size="20.00" fill="#000000">Status&#45;Code</text>
</g>
<!-- SG_0_Node_1&#45;&gt;SG_0_Node_2 -->
<g id="edge3" class="edge">
<title>SG_0_Node_1&#45;&gt;SG_0_Node_2</title>
<path fill="none" stroke="#000000" d="M221.8921,-1085.1013C211.7888,-1074.3903 200.0507,-1060.055 193,-1045.132 181.8986,-1021.6355 176.9585,-992.3063 174.7605,-971.0987"/>
<polygon fill="#000000" stroke="#000000" points="178.2443,-970.7598 173.8649,-961.1125 171.2723,-971.3852 178.2443,-970.7598"/>
<text text-anchor="middle" x="225" y="-1018.132" font-family="Times,serif" font-size="20.00" fill="#000000">empty</text>
</g>
<!-- SG_0_Node_7 -->
<g id="node5" class="node">
<title>SG_0_Node_7</title>
<ellipse fill="none" stroke="#000000" cx="297" cy="-942.9188" rx="34.7971" ry="21.4286"/>
<text text-anchor="middle" x="297" y="-937.9188" font-family="Times,serif" font-size="20.00" fill="#000000">1.0</text>
</g>
<!-- SG_0_Node_1&#45;&gt;SG_0_Node_7 -->
<g id="edge4" class="edge">
<title>SG_0_Node_1&#45;&gt;SG_0_Node_7</title>
<path fill="none" stroke="#000000" d="M247.3151,-1085.2541C256.8028,-1058.0742 274.8495,-1006.3748 286.3839,-973.3315"/>
<polygon fill="#000000" stroke="#000000" points="289.7465,-974.3183 289.7377,-963.7235 283.1375,-972.0113 289.7465,-974.3183"/>
<text text-anchor="middle" x="335" y="-1029.132" font-family="Times,serif" font-size="20.00" fill="#000000">[NA]</text>
<text text-anchor="middle" x="335" y="-1007.132" font-family="Times,serif" font-size="20.00" fill="#000000">attachment</text>
</g>
<!-- SG_0_Node_3 -->
<g id="node6" class="node">
<title>SG_0_Node_3</title>
<polygon fill="none" stroke="#000000" points="188.5,-668.4924 33.5,-668.4924 33.5,-632.4924 188.5,-632.4924 188.5,-668.4924"/>
<text text-anchor="middle" x="111" y="-645.4924" font-family="Times,serif" font-size="20.00" fill="#000000">Content&#45;Type</text>
</g>
<!-- SG_0_Node_2&#45;&gt;SG_0_Node_3 -->
<g id="edge5" class="edge">
<title>SG_0_Node_2&#45;&gt;SG_0_Node_3</title>
<path fill="none" stroke="#000000" d="M169.1216,-924.6262C158.6179,-875.085 129.5651,-738.0555 116.9616,-678.6107"/>
<polygon fill="#000000" stroke="#000000" points="120.375,-677.8347 114.8769,-668.7781 113.5272,-679.2866 120.375,-677.8347"/>
<text text-anchor="middle" x="179.5" y="-868.7056" font-family="Times,serif" font-size="20.00" fill="#000000">200</text>
<text text-anchor="middle" x="179.5" y="-846.7056" font-family="Times,serif" font-size="20.00" fill="#000000">201</text>
<text text-anchor="middle" x="179.5" y="-824.7056" font-family="Times,serif" font-size="20.00" fill="#000000">202</text>
<text text-anchor="middle" x="179.5" y="-802.7056" font-family="Times,serif" font-size="20.00" fill="#000000">203</text>
<text text-anchor="middle" x="179.5" y="-780.7056" font-family="Times,serif" font-size="20.00" fill="#000000">206</text>
<text text-anchor="middle" x="179.5" y="-758.7056" font-family="Times,serif" font-size="20.00" fill="#000000">207</text>
<text text-anchor="middle" x="179.5" y="-736.7056" font-family="Times,serif" font-size="20.00" fill="#000000">208</text>
<text text-anchor="middle" x="179.5" y="-714.7056" font-family="Times,serif" font-size="20.00" fill="#000000">226</text>
</g>
<!-- SG_0_Node_8 -->
<g id="node7" class="node">
<title>SG_0_Node_8</title>
<ellipse fill="none" stroke="#000000" cx="241" cy="-650.4924" rx="34.7971" ry="21.4286"/>
<text text-anchor="middle" x="241" y="-645.4924" font-family="Times,serif" font-size="20.00" fill="#000000">1.0</text>
</g>
<!-- SG_0_Node_2&#45;&gt;SG_0_Node_8 -->
<g id="edge6" class="edge">
<title>SG_0_Node_2&#45;&gt;SG_0_Node_8</title>
<path fill="none" stroke="#000000" d="M182.9029,-924.7959C188.6665,-913.5486 195.6343,-898.6316 200,-884.7056 222.121,-814.1427 233.3594,-727.6481 238.1138,-682.0708"/>
<polygon fill="#000000" stroke="#000000" points="241.6156,-682.2275 239.1345,-671.9273 234.6508,-681.5266 241.6156,-682.2275"/>
<text text-anchor="middle" x="254.5" y="-813.7056" font-family="Times,serif" font-size="20.00" fill="#000000">204</text>
<text text-anchor="middle" x="254.5" y="-791.7056" font-family="Times,serif" font-size="20.00" fill="#000000">205</text>
<text text-anchor="middle" x="254.5" y="-769.7056" font-family="Times,serif" font-size="20.00" fill="#000000">304</text>
</g>
<!-- SG_0_Node_9 -->
<g id="node8" class="node">
<title>SG_0_Node_9</title>
<ellipse fill="none" stroke="#000000" cx="51" cy="-358.066" rx="34.7971" ry="21.4286"/>
<text text-anchor="middle" x="51" y="-353.066" font-family="Times,serif" font-size="20.00" fill="#000000">0.0</text>
</g>
<!-- SG_0_Node_3&#45;&gt;SG_0_Node_9 -->
<g id="edge7" class="edge">
<title>SG_0_Node_3&#45;&gt;SG_0_Node_9</title>
<path fill="none" stroke="#000000" d="M78.8982,-632.351C64.8041,-622.4974 49.7275,-608.9088 42,-592.2792 10.8331,-525.2075 28.4583,-435.3155 41.3033,-388.8155"/>
<polygon fill="#000000" stroke="#000000" points="44.7149,-389.616 44.1126,-379.0383 37.9871,-387.6829 44.7149,-389.616"/>
<text text-anchor="middle" x="153" y="-576.2792" font-family="Times,serif" font-size="20.00" fill="#000000">[NA]</text>
<text text-anchor="middle" x="153" y="-554.2792" font-family="Times,serif" font-size="20.00" fill="#000000">application/javascript</text>
<text text-anchor="middle" x="153" y="-532.2792" font-family="Times,serif" font-size="20.00" fill="#000000">application/pdf</text>
<text text-anchor="middle" x="153" y="-510.2792" font-family="Times,serif" font-size="20.00" fill="#000000">audio/wav</text>
<text text-anchor="middle" x="153" y="-488.2792" font-family="Times,serif" font-size="20.00" fill="#000000">image/png</text>
<text text-anchor="middle" x="153" y="-466.2792" font-family="Times,serif" font-size="20.00" fill="#000000">text/css</text>
<text text-anchor="middle" x="153" y="-444.2792" font-family="Times,serif" font-size="20.00" fill="#000000">text/html</text>
<text text-anchor="middle" x="153" y="-422.2792" font-family="Times,serif" font-size="20.00" fill="#000000">video/mp4</text>
</g>
<!-- SG_0_Node_4 -->
<g id="node9" class="node">
<title>SG_0_Node_4</title>
<polygon fill="none" stroke="#000000" points="194.5,-376.066 129.5,-376.066 129.5,-340.066 194.5,-340.066 194.5,-376.066"/>
<text text-anchor="middle" x="162" y="-353.066" font-family="Times,serif" font-size="20.00" fill="#000000">body</text>
</g>
<!-- SG_0_Node_3&#45;&gt;SG_0_Node_4 -->
<g id="edge8" class="edge">
<title>SG_0_Node_3&#45;&gt;SG_0_Node_4</title>
<path fill="none" stroke="#000000" d="M182.8184,-632.4611C219.0404,-621.7636 257.4989,-607.3725 268,-592.2792 312.6739,-528.0689 307.8332,-483.5996 268,-416.2792 254.2481,-393.0377 227.5558,-378.4554 204.3984,-369.6981"/>
<polygon fill="#000000" stroke="#000000" points="205.333,-366.3166 194.7382,-366.2934 203.0061,-372.9185 205.333,-366.3166"/>
<text text-anchor="middle" x="331" y="-499.2792" font-family="Times,serif" font-size="20.00" fill="#000000">empty</text>
</g>
<!-- SG_0_Node_10 -->
<g id="node10" class="node">
<title>SG_0_Node_10</title>
<ellipse fill="none" stroke="#000000" cx="51" cy="-197.6396" rx="34.7971" ry="21.4286"/>
<text text-anchor="middle" x="51" y="-192.6396" font-family="Times,serif" font-size="20.00" fill="#000000">0.0</text>
</g>
<!-- SG_0_Node_4&#45;&gt;SG_0_Node_10 -->
<g id="edge9" class="edge">
<title>SG_0_Node_4&#45;&gt;SG_0_Node_10</title>
<path fill="none" stroke="#000000" d="M129.1573,-346.9815C107.339,-337.844 80.0339,-322.6401 65,-299.8528 51.3305,-279.1336 48.3581,-250.8924 48.5071,-229.3453"/>
<polygon fill="#000000" stroke="#000000" points="52.0139,-229.1658 48.8134,-219.066 45.017,-228.9573 52.0139,-229.1658"/>
<text text-anchor="middle" x="111" y="-283.8528" font-family="Times,serif" font-size="20.00" fill="#000000">[NA]</text>
<text text-anchor="middle" x="111" y="-261.8528" font-family="Times,serif" font-size="20.00" fill="#000000">11 levels</text>
</g>
<!-- SG_0_Node_5 -->
<g id="node11" class="node">
<title>SG_0_Node_5</title>
<polygon fill="none" stroke="#000000" points="366,-215.6396 104,-215.6396 104,-179.6396 366,-179.6396 366,-215.6396"/>
<text text-anchor="middle" x="235" y="-192.6396" font-family="Times,serif" font-size="20.00" fill="#000000">X&#45;Content&#45;Type&#45;Options</text>
</g>
<!-- SG_0_Node_4&#45;&gt;SG_0_Node_5 -->
<g id="edge10" class="edge">
<title>SG_0_Node_4&#45;&gt;SG_0_Node_5</title>
<path fill="none" stroke="#000000" d="M160.5447,-340.0363C159.6071,-318.7624 160.5185,-282.8718 174,-255.8528 180.354,-243.1184 190.6794,-231.6606 201.0433,-222.3464"/>
<polygon fill="#000000" stroke="#000000" points="203.5604,-224.8004 208.9111,-215.6559 199.0257,-219.4677 203.5604,-224.8004"/>
<text text-anchor="middle" x="419.5" y="-283.8528" font-family="Times,serif" font-size="20.00" fill="#000000">ecocnt_audio=duration=1</text>
<text text-anchor="middle" x="419.5" y="-261.8528" font-family="Times,serif" font-size="20.00" fill="#000000">ecocnt_vid=width=100,height=100,duration=2</text>
</g>
<!-- SG_0_Node_11 -->
<g id="node12" class="node">
<title>SG_0_Node_11</title>
<ellipse fill="none" stroke="#000000" cx="182" cy="-37.2132" rx="34.7971" ry="21.4286"/>
<text text-anchor="middle" x="182" y="-32.2132" font-family="Times,serif" font-size="20.00" fill="#000000">0.0</text>
</g>
<!-- SG_0_Node_5&#45;&gt;SG_0_Node_11 -->
<g id="edge11" class="edge">
<title>SG_0_Node_5&#45;&gt;SG_0_Node_11</title>
<path fill="none" stroke="#000000" d="M219.6489,-179.4495C211.2819,-168.535 201.5319,-153.9817 196,-139.4264 187.3844,-116.7572 183.9661,-89.4748 182.6575,-68.8005"/>
<polygon fill="#000000" stroke="#000000" points="186.145,-68.4633 182.1491,-58.6509 179.1538,-68.8135 186.145,-68.4633"/>
<text text-anchor="middle" x="231" y="-112.4264" font-family="Times,serif" font-size="20.00" fill="#000000">nosniff</text>
</g>
<!-- SG_0_Node_12 -->
<g id="node13" class="node">
<title>SG_0_Node_12</title>
<ellipse fill="none" stroke="#000000" cx="288" cy="-37.2132" rx="34.7971" ry="21.4286"/>
<text text-anchor="middle" x="288" y="-32.2132" font-family="Times,serif" font-size="20.00" fill="#000000">1.0</text>
</g>
<!-- SG_0_Node_5&#45;&gt;SG_0_Node_12 -->
<g id="edge12" class="edge">
<title>SG_0_Node_5&#45;&gt;SG_0_Node_12</title>
<path fill="none" stroke="#000000" d="M246.2697,-179.6318C252.8505,-168.4266 260.8473,-153.5133 266,-139.4264 274.4428,-116.3449 280.109,-89.0864 283.5739,-68.526"/>
<polygon fill="#000000" stroke="#000000" points="287.0633,-68.87 285.1882,-58.4424 280.1513,-67.7633 287.0633,-68.87"/>
<text text-anchor="middle" x="310" y="-123.4264" font-family="Times,serif" font-size="20.00" fill="#000000">[NA]</text>
<text text-anchor="middle" x="310" y="-101.4264" font-family="Times,serif" font-size="20.00" fill="#000000">empty</text>
</g>
<!-- SG_1_Node_0 -->
<g id="node14" class="node">
<title>SG_1_Node_0</title>
<polygon fill="none" stroke="#000000" points="979,-1278.5584 837,-1278.5584 837,-1242.5584 979,-1242.5584 979,-1278.5584"/>
<text text-anchor="middle" x="908" y="-1255.5584" font-family="Times,serif" font-size="20.00" fill="#000000">Status&#45;Code</text>
</g>
<!-- SG_1_Node_1 -->
<g id="node15" class="node">
<title>SG_1_Node_1</title>
<polygon fill="none" stroke="#000000" points="936.5,-1121.3452 715.5,-1121.3452 715.5,-1085.3452 936.5,-1085.3452 936.5,-1121.3452"/>
<text text-anchor="middle" x="826" y="-1098.3452" font-family="Times,serif" font-size="20.00" fill="#000000">Content&#45;Disposition</text>
</g>
<!-- SG_1_Node_0&#45;&gt;SG_1_Node_1 -->
<g id="edge13" class="edge">
<title>SG_1_Node_0&#45;&gt;SG_1_Node_1</title>
<path fill="none" stroke="#000000" d="M876.2914,-1242.4821C862.916,-1233.1921 848.5016,-1220.6363 840,-1205.5584 827.2818,-1183.0022 824.4635,-1153.3236 824.4197,-1131.7612"/>
<polygon fill="#000000" stroke="#000000" points="827.9219,-1131.6616 824.6006,-1121.6008 820.923,-1131.5368 827.9219,-1131.6616"/>
<text text-anchor="middle" x="886" y="-1178.5584" font-family="Times,serif" font-size="20.00" fill="#000000">11 levels</text>
</g>
<!-- SG_1_Node_6 -->
<g id="node16" class="node">
<title>SG_1_Node_6</title>
<ellipse fill="none" stroke="#000000" cx="989" cy="-1103.3452" rx="34.7971" ry="21.4286"/>
<text text-anchor="middle" x="989" y="-1098.3452" font-family="Times,serif" font-size="20.00" fill="#000000">1.0</text>
</g>
<!-- SG_1_Node_0&#45;&gt;SG_1_Node_6 -->
<g id="edge14" class="edge">
<title>SG_1_Node_0&#45;&gt;SG_1_Node_6</title>
<path fill="none" stroke="#000000" d="M917.2917,-1242.5241C931.1344,-1215.6569 957.3189,-1164.8351 973.926,-1132.6025"/>
<polygon fill="#000000" stroke="#000000" points="977.0741,-1134.134 978.5429,-1123.6415 970.8514,-1130.9279 977.0741,-1134.134"/>
<text text-anchor="middle" x="1004" y="-1189.5584" font-family="Times,serif" font-size="20.00" fill="#000000">[NA]</text>
<text text-anchor="middle" x="1004" y="-1167.5584" font-family="Times,serif" font-size="20.00" fill="#000000">51 levels</text>
</g>
<!-- SG_1_Node_7 -->
<g id="node17" class="node">
<title>SG_1_Node_7</title>
<ellipse fill="none" stroke="#000000" cx="769" cy="-942.9188" rx="34.7971" ry="21.4286"/>
<text text-anchor="middle" x="769" y="-937.9188" font-family="Times,serif" font-size="20.00" fill="#000000">0.0</text>
</g>
<!-- SG_1_Node_1&#45;&gt;SG_1_Node_7 -->
<g id="edge15" class="edge">
<title>SG_1_Node_1&#45;&gt;SG_1_Node_7</title>
<path fill="none" stroke="#000000" d="M808.8263,-1085.158C799.6397,-1074.3564 789.0101,-1059.9141 783,-1045.132 773.8661,-1022.6666 770.4777,-995.3725 769.3123,-974.6418"/>
<polygon fill="#000000" stroke="#000000" points="772.8014,-974.3048 768.8869,-964.4596 765.8075,-974.5971 772.8014,-974.3048"/>
<text text-anchor="middle" x="842" y="-1029.132" font-family="Times,serif" font-size="20.00" fill="#000000">[NA]</text>
<text text-anchor="middle" x="842" y="-1007.132" font-family="Times,serif" font-size="20.00" fill="#000000">attachment</text>
</g>
<!-- SG_1_Node_2 -->
<g id="node18" class="node">
<title>SG_1_Node_2</title>
<polygon fill="none" stroke="#000000" points="994,-960.9188 852,-960.9188 852,-924.9188 994,-924.9188 994,-960.9188"/>
<text text-anchor="middle" x="923" y="-937.9188" font-family="Times,serif" font-size="20.00" fill="#000000">Status&#45;Code</text>
</g>
<!-- SG_1_Node_1&#45;&gt;SG_1_Node_2 -->
<g id="edge16" class="edge">
<title>SG_1_Node_1&#45;&gt;SG_1_Node_2</title>
<path fill="none" stroke="#000000" d="M858.8593,-1085.1879C873.9022,-1075.2511 890.6459,-1061.5967 901,-1045.132 915.053,-1022.7855 920.2393,-992.8422 922.0977,-971.1449"/>
<polygon fill="#000000" stroke="#000000" points="925.6057,-971.1417 922.7814,-960.9302 918.6213,-970.6741 925.6057,-971.1417"/>
<text text-anchor="middle" x="949" y="-1018.132" font-family="Times,serif" font-size="20.00" fill="#000000">empty</text>
</g>
<!-- SG_1_Node_8 -->
<g id="node19" class="node">
<title>SG_1_Node_8</title>
<ellipse fill="none" stroke="#000000" cx="858" cy="-650.4924" rx="34.7971" ry="21.4286"/>
<text text-anchor="middle" x="858" y="-645.4924" font-family="Times,serif" font-size="20.00" fill="#000000">0.0</text>
</g>
<!-- SG_1_Node_2&#45;&gt;SG_1_Node_8 -->
<g id="edge17" class="edge">
<title>SG_1_Node_2&#45;&gt;SG_1_Node_8</title>
<path fill="none" stroke="#000000" d="M918.934,-924.6262C908.1094,-875.928 878.4943,-742.6938 864.9394,-681.712"/>
<polygon fill="#000000" stroke="#000000" points="868.3414,-680.8864 862.7549,-671.8842 861.5082,-682.4054 868.3414,-680.8864"/>
<text text-anchor="middle" x="928.5" y="-813.7056" font-family="Times,serif" font-size="20.00" fill="#000000">204</text>
<text text-anchor="middle" x="928.5" y="-791.7056" font-family="Times,serif" font-size="20.00" fill="#000000">205</text>
<text text-anchor="middle" x="928.5" y="-769.7056" font-family="Times,serif" font-size="20.00" fill="#000000">304</text>
</g>
<!-- SG_1_Node_3 -->
<g id="node20" class="node">
<title>SG_1_Node_3</title>
<polygon fill="none" stroke="#000000" points="1065.5,-668.4924 910.5,-668.4924 910.5,-632.4924 1065.5,-632.4924 1065.5,-668.4924"/>
<text text-anchor="middle" x="988" y="-645.4924" font-family="Times,serif" font-size="20.00" fill="#000000">Content&#45;Type</text>
</g>
<!-- SG_1_Node_2&#45;&gt;SG_1_Node_3 -->
<g id="edge18" class="edge">
<title>SG_1_Node_2&#45;&gt;SG_1_Node_3</title>
<path fill="none" stroke="#000000" d="M933.9329,-924.662C940.1504,-913.4893 947.5593,-898.6962 952,-884.7056 974.8809,-812.6181 983.4645,-723.2804 986.4855,-678.6448"/>
<polygon fill="#000000" stroke="#000000" points="989.9856,-678.7514 987.1242,-668.5503 982.9996,-678.3093 989.9856,-678.7514"/>
<text text-anchor="middle" x="1003.5" y="-868.7056" font-family="Times,serif" font-size="20.00" fill="#000000">200</text>
<text text-anchor="middle" x="1003.5" y="-846.7056" font-family="Times,serif" font-size="20.00" fill="#000000">201</text>
<text text-anchor="middle" x="1003.5" y="-824.7056" font-family="Times,serif" font-size="20.00" fill="#000000">202</text>
<text text-anchor="middle" x="1003.5" y="-802.7056" font-family="Times,serif" font-size="20.00" fill="#000000">203</text>
<text text-anchor="middle" x="1003.5" y="-780.7056" font-family="Times,serif" font-size="20.00" fill="#000000">206</text>
<text text-anchor="middle" x="1003.5" y="-758.7056" font-family="Times,serif" font-size="20.00" fill="#000000">207</text>
<text text-anchor="middle" x="1003.5" y="-736.7056" font-family="Times,serif" font-size="20.00" fill="#000000">208</text>
<text text-anchor="middle" x="1003.5" y="-714.7056" font-family="Times,serif" font-size="20.00" fill="#000000">226</text>
</g>
<!-- SG_1_Node_4 -->
<g id="node21" class="node">
<title>SG_1_Node_4</title>
<polygon fill="none" stroke="#000000" points="970.5,-376.066 905.5,-376.066 905.5,-340.066 970.5,-340.066 970.5,-376.066"/>
<text text-anchor="middle" x="938" y="-353.066" font-family="Times,serif" font-size="20.00" fill="#000000">body</text>
</g>
<!-- SG_1_Node_3&#45;&gt;SG_1_Node_4 -->
<g id="edge19" class="edge">
<title>SG_1_Node_3&#45;&gt;SG_1_Node_4</title>
<path fill="none" stroke="#000000" d="M973.4449,-632.2608C965.5933,-621.3325 956.5933,-606.7792 952,-592.2792 929.385,-520.8884 932.0311,-431.2467 935.3196,-386.3844"/>
<polygon fill="#000000" stroke="#000000" points="938.8228,-386.4836 936.1323,-376.236 931.8451,-385.9247 938.8228,-386.4836"/>
<text text-anchor="middle" x="984" y="-499.2792" font-family="Times,serif" font-size="20.00" fill="#000000">empty</text>
</g>
<!-- SG_1_Node_9 -->
<g id="node22" class="node">
<title>SG_1_Node_9</title>
<ellipse fill="none" stroke="#000000" cx="1038" cy="-358.066" rx="34.7971" ry="21.4286"/>
<text text-anchor="middle" x="1038" y="-353.066" font-family="Times,serif" font-size="20.00" fill="#000000">1.0</text>
</g>
<!-- SG_1_Node_3&#45;&gt;SG_1_Node_9 -->
<g id="edge20" class="edge">
<title>SG_1_Node_3&#45;&gt;SG_1_Node_9</title>
<path fill="none" stroke="#000000" d="M998.8357,-632.2767C1004.9379,-621.1185 1012.0974,-606.3264 1016,-592.2792 1035.5845,-521.7872 1038.5327,-435.2643 1038.5376,-389.6635"/>
<polygon fill="#000000" stroke="#000000" points="1042.037,-389.4977 1038.4891,-379.5146 1035.037,-389.5313 1042.037,-389.4977"/>
<text text-anchor="middle" x="1149" y="-576.2792" font-family="Times,serif" font-size="20.00" fill="#000000">[NA]</text>
<text text-anchor="middle" x="1149" y="-554.2792" font-family="Times,serif" font-size="20.00" fill="#000000">application/javascript</text>
<text text-anchor="middle" x="1149" y="-532.2792" font-family="Times,serif" font-size="20.00" fill="#000000">application/pdf</text>
<text text-anchor="middle" x="1149" y="-510.2792" font-family="Times,serif" font-size="20.00" fill="#000000">audio/wav</text>
<text text-anchor="middle" x="1149" y="-488.2792" font-family="Times,serif" font-size="20.00" fill="#000000">image/png</text>
<text text-anchor="middle" x="1149" y="-466.2792" font-family="Times,serif" font-size="20.00" fill="#000000">text/css</text>
<text text-anchor="middle" x="1149" y="-444.2792" font-family="Times,serif" font-size="20.00" fill="#000000">text/html</text>
<text text-anchor="middle" x="1149" y="-422.2792" font-family="Times,serif" font-size="20.00" fill="#000000">video/mp4</text>
</g>
<!-- SG_1_Node_5 -->
<g id="node23" class="node">
<title>SG_1_Node_5</title>
<polygon fill="none" stroke="#000000" points="951,-215.6396 689,-215.6396 689,-179.6396 951,-179.6396 951,-215.6396"/>
<text text-anchor="middle" x="820" y="-192.6396" font-family="Times,serif" font-size="20.00" fill="#000000">X&#45;Content&#45;Type&#45;Options</text>
</g>
<!-- SG_1_Node_4&#45;&gt;SG_1_Node_5 -->
<g id="edge21" class="edge">
<title>SG_1_Node_4&#45;&gt;SG_1_Node_5</title>
<path fill="none" stroke="#000000" d="M905.3361,-348.5257C881.591,-339.8143 850.7825,-324.4728 834,-299.8528 819.2615,-278.2314 816.7855,-247.9996 817.376,-226.0264"/>
<polygon fill="#000000" stroke="#000000" points="820.8747,-226.1373 817.8719,-215.9769 813.8832,-225.7922 820.8747,-226.1373"/>
<text text-anchor="middle" x="1079.5" y="-283.8528" font-family="Times,serif" font-size="20.00" fill="#000000">ecocnt_audio=duration=1</text>
<text text-anchor="middle" x="1079.5" y="-261.8528" font-family="Times,serif" font-size="20.00" fill="#000000">ecocnt_vid=width=100,height=100,duration=2</text>
</g>
<!-- SG_1_Node_10 -->
<g id="node24" class="node">
<title>SG_1_Node_10</title>
<ellipse fill="none" stroke="#000000" cx="1347" cy="-197.6396" rx="34.7971" ry="21.4286"/>
<text text-anchor="middle" x="1347" y="-192.6396" font-family="Times,serif" font-size="20.00" fill="#000000">1.0</text>
</g>
<!-- SG_1_Node_4&#45;&gt;SG_1_Node_10 -->
<g id="edge22" class="edge">
<title>SG_1_Node_4&#45;&gt;SG_1_Node_10</title>
<path fill="none" stroke="#000000" d="M970.7318,-344.0997C978.2632,-341.3281 986.3191,-338.7057 994,-336.8528 1065.9497,-319.496 1270.0972,-349.4886 1325,-299.8528 1344.383,-282.3293 1348.9237,-252.1934 1349.1852,-229.1705"/>
<polygon fill="#000000" stroke="#000000" points="1352.6849,-229.1127 1349.0422,-219.1638 1345.6856,-229.2128 1352.6849,-229.1127"/>
<text text-anchor="middle" x="1392" y="-283.8528" font-family="Times,serif" font-size="20.00" fill="#000000">[NA]</text>
<text text-anchor="middle" x="1392" y="-261.8528" font-family="Times,serif" font-size="20.00" fill="#000000">11 levels</text>
</g>
<!-- SG_1_Node_11 -->
<g id="node25" class="node">
<title>SG_1_Node_11</title>
<ellipse fill="none" stroke="#000000" cx="731" cy="-37.2132" rx="34.7971" ry="21.4286"/>
<text text-anchor="middle" x="731" y="-32.2132" font-family="Times,serif" font-size="20.00" fill="#000000">0.0</text>
</g>
<!-- SG_1_Node_5&#45;&gt;SG_1_Node_11 -->
<g id="edge23" class="edge">
<title>SG_1_Node_5&#45;&gt;SG_1_Node_11</title>
<path fill="none" stroke="#000000" d="M793.4476,-179.4352C780.3369,-169.1374 765.3629,-155.1781 756,-139.4264 743.1438,-117.7977 736.8847,-89.8558 733.8455,-68.6544"/>
<polygon fill="#000000" stroke="#000000" points="737.2943,-68.0291 732.5645,-58.5486 730.3499,-68.9094 737.2943,-68.0291"/>
<text text-anchor="middle" x="788" y="-123.4264" font-family="Times,serif" font-size="20.00" fill="#000000">[NA]</text>
<text text-anchor="middle" x="788" y="-101.4264" font-family="Times,serif" font-size="20.00" fill="#000000">empty</text>
</g>
<!-- SG_1_Node_12 -->
<g id="node26" class="node">
<title>SG_1_Node_12</title>
<ellipse fill="none" stroke="#000000" cx="831" cy="-37.2132" rx="34.7971" ry="21.4286"/>
<text text-anchor="middle" x="831" y="-32.2132" font-family="Times,serif" font-size="20.00" fill="#000000">1.0</text>
</g>
<!-- SG_1_Node_5&#45;&gt;SG_1_Node_12 -->
<g id="edge24" class="edge">
<title>SG_1_Node_5&#45;&gt;SG_1_Node_12</title>
<path fill="none" stroke="#000000" d="M821.2405,-179.5485C823.0859,-152.6336 826.58,-101.6751 828.848,-68.5978"/>
<polygon fill="#000000" stroke="#000000" points="832.3453,-68.7559 829.5377,-58.5399 825.3617,-68.277 832.3453,-68.7559"/>
<text text-anchor="middle" x="861" y="-112.4264" font-family="Times,serif" font-size="20.00" fill="#000000">nosniff</text>
</g>
</g>
</svg>
