<?xml version="1.0" encoding="UTF-8" standalone="no"?>
<!DOCTYPE svg PUBLIC "-//W3C//DTD SVG 1.1//EN"
 "http://www.w3.org/Graphics/SVG/1.1/DTD/svg11.dtd">
<!-- Generated by graphviz version 2.40.1 (20161225.0304)
 -->
<!-- Title: G Pages: 1 -->
<svg width="4971pt" height="1867pt"
 viewBox="0.00 0.00 4971.00 1866.98" xmlns="http://www.w3.org/2000/svg" xmlns:xlink="http://www.w3.org/1999/xlink">
<g id="graph0" class="graph" transform="scale(1 1) rotate(0) translate(4 1862.9848)">
<title>G</title>
<polygon fill="#ffffff" stroke="transparent" points="-4,4 -4,-1862.9848 4967,-1862.9848 4967,4 -4,4"/>
<g id="clust1" class="cluster">
<title>cluster_0</title>
<polygon fill="none" stroke="#000000" points="8,-8 8,-1850.9848 812,-1850.9848 812,-8 8,-8"/>
<text text-anchor="middle" x="410" y="-1814.9848" font-family="Times,serif" font-size="40.00" fill="#000000">Tree 0, Class js&#45;null</text>
</g>
<g id="clust11" class="cluster">
<title>cluster_1</title>
<polygon fill="none" stroke="#000000" points="820,-8 820,-1850.9848 4955,-1850.9848 4955,-8 820,-8"/>
<text text-anchor="middle" x="2887.5" y="-1814.9848" font-family="Times,serif" font-size="40.00" fill="#000000">Tree 0, Class {&#39;location&#39;: {&#39;hash&#39;: &#39;&#39;, &#39;host&#39;: &#39;&#39;, &#39;href&#39;: &#39;about:blank&#39;, &#39;port&#39;: &#39;&#39;, &#39;origin&#39;: &#39;null&#39;, &#39;search&#39;: &#39;&#39;, &#39;hostname&#39;: &#39;&#39;, &#39;pathname&#39;: &#39;blank&#39;, &#39;protocol&#39;: &#39;about:&#39;, &#39;ancestorOrigins&#39;: {&#39;0&#39;: &#39;http://localhost:8001&#39;}}}</text>
</g>
<!-- SG_0_Node_0 -->
<g id="node1" class="node">
<title>SG_0_Node_0</title>
<polygon fill="none" stroke="#000000" points="177,-1790.9848 35,-1790.9848 35,-1754.9848 177,-1754.9848 177,-1790.9848"/>
<text text-anchor="middle" x="106" y="-1767.9848" font-family="Times,serif" font-size="20.00" fill="#000000">Status&#45;Code</text>
</g>
<!-- SG_0_Node_10 -->
<g id="node2" class="node">
<title>SG_0_Node_10</title>
<ellipse fill="none" stroke="#000000" cx="74" cy="-1615.7716" rx="34.7971" ry="21.4286"/>
<text text-anchor="middle" x="74" y="-1610.7716" font-family="Times,serif" font-size="20.00" fill="#000000">0.0</text>
</g>
<!-- SG_0_Node_0&#45;&gt;SG_0_Node_10 -->
<g id="edge1" class="edge">
<title>SG_0_Node_0&#45;&gt;SG_0_Node_10</title>
<path fill="none" stroke="#000000" d="M102.3292,-1754.9505C96.9519,-1728.5322 86.8603,-1678.9533 80.2872,-1646.6601"/>
<polygon fill="#000000" stroke="#000000" points="83.7114,-1645.9348 78.2871,-1636.8339 76.8521,-1647.3311 83.7114,-1645.9348"/>
<text text-anchor="middle" x="113.5" y="-1690.9848" font-family="Times,serif" font-size="20.00" fill="#000000">304</text>
</g>
<!-- SG_0_Node_1 -->
<g id="node3" class="node">
<title>SG_0_Node_1</title>
<polygon fill="none" stroke="#000000" points="269,-1633.7716 127,-1633.7716 127,-1597.7716 269,-1597.7716 269,-1633.7716"/>
<text text-anchor="middle" x="198" y="-1610.7716" font-family="Times,serif" font-size="20.00" fill="#000000">Status&#45;Code</text>
</g>
<!-- SG_0_Node_0&#45;&gt;SG_0_Node_1 -->
<g id="edge2" class="edge">
<title>SG_0_Node_0&#45;&gt;SG_0_Node_1</title>
<path fill="none" stroke="#000000" d="M116.5536,-1754.9505C132.6197,-1727.496 163.3234,-1675.0284 182.0999,-1642.9423"/>
<polygon fill="#000000" stroke="#000000" points="185.2562,-1644.4785 187.2861,-1634.0799 179.2146,-1640.943 185.2562,-1644.4785"/>
<text text-anchor="middle" x="209" y="-1701.9848" font-family="Times,serif" font-size="20.00" fill="#000000">[NA]</text>
<text text-anchor="middle" x="209" y="-1679.9848" font-family="Times,serif" font-size="20.00" fill="#000000">61 levels</text>
</g>
<!-- SG_0_Node_2 -->
<g id="node4" class="node">
<title>SG_0_Node_2</title>
<polygon fill="none" stroke="#000000" points="302,-1297.3452 42,-1297.3452 42,-1261.3452 302,-1261.3452 302,-1297.3452"/>
<text text-anchor="middle" x="172" y="-1274.3452" font-family="Times,serif" font-size="20.00" fill="#000000">Content&#45;Security&#45;Policy</text>
</g>
<!-- SG_0_Node_1&#45;&gt;SG_0_Node_2 -->
<g id="edge3" class="edge">
<title>SG_0_Node_1&#45;&gt;SG_0_Node_2</title>
<path fill="none" stroke="#000000" d="M196.6021,-1597.6839C192.3257,-1542.3497 179.3955,-1375.0396 174.1981,-1307.7874"/>
<polygon fill="#000000" stroke="#000000" points="177.665,-1307.223 173.4048,-1297.5224 170.6858,-1307.7624 177.665,-1307.223"/>
<text text-anchor="middle" x="212.5" y="-1541.5584" font-family="Times,serif" font-size="20.00" fill="#000000">200</text>
<text text-anchor="middle" x="212.5" y="-1519.5584" font-family="Times,serif" font-size="20.00" fill="#000000">201</text>
<text text-anchor="middle" x="212.5" y="-1497.5584" font-family="Times,serif" font-size="20.00" fill="#000000">202</text>
<text text-anchor="middle" x="212.5" y="-1475.5584" font-family="Times,serif" font-size="20.00" fill="#000000">203</text>
<text text-anchor="middle" x="212.5" y="-1453.5584" font-family="Times,serif" font-size="20.00" fill="#000000">204</text>
<text text-anchor="middle" x="212.5" y="-1431.5584" font-family="Times,serif" font-size="20.00" fill="#000000">205</text>
<text text-anchor="middle" x="212.5" y="-1409.5584" font-family="Times,serif" font-size="20.00" fill="#000000">206</text>
<text text-anchor="middle" x="212.5" y="-1387.5584" font-family="Times,serif" font-size="20.00" fill="#000000">207</text>
<text text-anchor="middle" x="212.5" y="-1365.5584" font-family="Times,serif" font-size="20.00" fill="#000000">208</text>
<text text-anchor="middle" x="212.5" y="-1343.5584" font-family="Times,serif" font-size="20.00" fill="#000000">226</text>
</g>
<!-- SG_0_Node_11 -->
<g id="node5" class="node">
<title>SG_0_Node_11</title>
<ellipse fill="none" stroke="#000000" cx="355" cy="-1279.3452" rx="34.7971" ry="21.4286"/>
<text text-anchor="middle" x="355" y="-1274.3452" font-family="Times,serif" font-size="20.00" fill="#000000">1.0</text>
</g>
<!-- SG_0_Node_1&#45;&gt;SG_0_Node_11 -->
<g id="edge4" class="edge">
<title>SG_0_Node_1&#45;&gt;SG_0_Node_11</title>
<path fill="none" stroke="#000000" d="M210.9976,-1597.6594C218.766,-1586.416 228.5417,-1571.4993 236,-1557.5584 282.4658,-1470.7059 324.703,-1361.8336 343.9797,-1309.7883"/>
<polygon fill="#000000" stroke="#000000" points="347.3538,-1310.7538 347.5233,-1300.1603 340.7846,-1308.336 347.3538,-1310.7538"/>
<text text-anchor="middle" x="379" y="-1453.5584" font-family="Times,serif" font-size="20.00" fill="#000000">[NA]</text>
<text text-anchor="middle" x="379" y="-1431.5584" font-family="Times,serif" font-size="20.00" fill="#000000">51 levels</text>
</g>
<!-- SG_0_Node_4 -->
<g id="node6" class="node">
<title>SG_0_Node_4</title>
<polygon fill="none" stroke="#000000" points="277.5,-1114.9188 56.5,-1114.9188 56.5,-1078.9188 277.5,-1078.9188 277.5,-1114.9188"/>
<text text-anchor="middle" x="167" y="-1091.9188" font-family="Times,serif" font-size="20.00" fill="#000000">Content&#45;Disposition</text>
</g>
<!-- SG_0_Node_2&#45;&gt;SG_0_Node_4 -->
<g id="edge5" class="edge">
<title>SG_0_Node_2&#45;&gt;SG_0_Node_4</title>
<path fill="none" stroke="#000000" d="M171.5023,-1261.1866C170.63,-1229.3607 168.8192,-1163.291 167.7794,-1125.3557"/>
<polygon fill="#000000" stroke="#000000" points="171.2684,-1124.9044 167.4957,-1115.0041 164.2711,-1125.0962 171.2684,-1124.9044"/>
<text text-anchor="middle" x="252.5" y="-1183.132" font-family="Times,serif" font-size="20.00" fill="#000000">default&#45;src &#39;self&#39;</text>
</g>
<!-- SG_0_Node_12 -->
<g id="node7" class="node">
<title>SG_0_Node_12</title>
<ellipse fill="none" stroke="#000000" cx="368" cy="-1096.9188" rx="34.7971" ry="21.4286"/>
<text text-anchor="middle" x="368" y="-1091.9188" font-family="Times,serif" font-size="20.00" fill="#000000">1.0</text>
</g>
<!-- SG_0_Node_2&#45;&gt;SG_0_Node_12 -->
<g id="edge6" class="edge">
<title>SG_0_Node_2&#45;&gt;SG_0_Node_12</title>
<path fill="none" stroke="#000000" d="M245.1951,-1261.3252C283.7843,-1250.411 325.8096,-1235.8011 339,-1221.132 361.7446,-1195.8378 367.6353,-1156.1763 368.7089,-1128.4963"/>
<polygon fill="#000000" stroke="#000000" points="372.2146,-1128.2346 368.91,-1118.1683 365.2159,-1128.0983 372.2146,-1128.2346"/>
<text text-anchor="middle" x="476.5" y="-1205.132" font-family="Times,serif" font-size="20.00" fill="#000000">[NA]</text>
<text text-anchor="middle" x="476.5" y="-1183.132" font-family="Times,serif" font-size="20.00" fill="#000000">empty</text>
<text text-anchor="middle" x="476.5" y="-1161.132" font-family="Times,serif" font-size="20.00" fill="#000000">frame&#45;ancestors &#39;self&#39;</text>
</g>
<!-- SG_0_Node_13 -->
<g id="node8" class="node">
<title>SG_0_Node_13</title>
<ellipse fill="none" stroke="#000000" cx="150" cy="-936.4924" rx="34.7971" ry="21.4286"/>
<text text-anchor="middle" x="150" y="-931.4924" font-family="Times,serif" font-size="20.00" fill="#000000">0.0</text>
</g>
<!-- SG_0_Node_4&#45;&gt;SG_0_Node_13 -->
<g id="edge7" class="edge">
<title>SG_0_Node_4&#45;&gt;SG_0_Node_13</title>
<path fill="none" stroke="#000000" d="M165.0829,-1078.8277C162.2308,-1051.9128 156.8309,-1000.9543 153.3258,-967.877"/>
<polygon fill="#000000" stroke="#000000" points="156.7943,-967.3946 152.2599,-957.8191 149.8333,-968.1323 156.7943,-967.3946"/>
<text text-anchor="middle" x="219" y="-1022.7056" font-family="Times,serif" font-size="20.00" fill="#000000">[NA]</text>
<text text-anchor="middle" x="219" y="-1000.7056" font-family="Times,serif" font-size="20.00" fill="#000000">attachment</text>
</g>
<!-- SG_0_Node_5 -->
<g id="node9" class="node">
<title>SG_0_Node_5</title>
<polygon fill="none" stroke="#000000" points="375,-954.4924 233,-954.4924 233,-918.4924 375,-918.4924 375,-954.4924"/>
<text text-anchor="middle" x="304" y="-931.4924" font-family="Times,serif" font-size="20.00" fill="#000000">Status&#45;Code</text>
</g>
<!-- SG_0_Node_4&#45;&gt;SG_0_Node_5 -->
<g id="edge8" class="edge">
<title>SG_0_Node_4&#45;&gt;SG_0_Node_5</title>
<path fill="none" stroke="#000000" d="M226.3437,-1078.8175C246.7625,-1069.8166 267.9896,-1056.8663 282,-1038.7056 298.2935,-1017.5856 303.1302,-987.0319 304.2944,-964.8345"/>
<polygon fill="#000000" stroke="#000000" points="307.7974,-964.7892 304.6051,-954.6867 300.8007,-964.5749 307.7974,-964.7892"/>
<text text-anchor="middle" x="332" y="-1011.7056" font-family="Times,serif" font-size="20.00" fill="#000000">empty</text>
</g>
<!-- SG_0_Node_6 -->
<g id="node10" class="node">
<title>SG_0_Node_6</title>
<polygon fill="none" stroke="#000000" points="369.5,-665.2792 214.5,-665.2792 214.5,-629.2792 369.5,-629.2792 369.5,-665.2792"/>
<text text-anchor="middle" x="292" y="-642.2792" font-family="Times,serif" font-size="20.00" fill="#000000">Content&#45;Type</text>
</g>
<!-- SG_0_Node_5&#45;&gt;SG_0_Node_6 -->
<g id="edge9" class="edge">
<title>SG_0_Node_5&#45;&gt;SG_0_Node_6</title>
<path fill="none" stroke="#000000" d="M303.2493,-918.4008C301.2206,-869.5054 295.6165,-734.441 293.1691,-675.4547"/>
<polygon fill="#000000" stroke="#000000" points="296.662,-675.2102 292.7504,-665.364 289.668,-675.5005 296.662,-675.2102"/>
<text text-anchor="middle" x="320.5" y="-796.2792" font-family="Times,serif" font-size="20.00" fill="#000000">204</text>
<text text-anchor="middle" x="320.5" y="-774.2792" font-family="Times,serif" font-size="20.00" fill="#000000">205</text>
</g>
<!-- SG_0_Node_7 -->
<g id="node11" class="node">
<title>SG_0_Node_7</title>
<polygon fill="none" stroke="#000000" points="559.5,-665.2792 404.5,-665.2792 404.5,-629.2792 559.5,-629.2792 559.5,-665.2792"/>
<text text-anchor="middle" x="482" y="-642.2792" font-family="Times,serif" font-size="20.00" fill="#000000">Content&#45;Type</text>
</g>
<!-- SG_0_Node_5&#45;&gt;SG_0_Node_7 -->
<g id="edge10" class="edge">
<title>SG_0_Node_5&#45;&gt;SG_0_Node_7</title>
<path fill="none" stroke="#000000" d="M316.9122,-918.3397C324.8999,-906.9555 335.2616,-891.9041 344,-878.2792 390.5219,-805.742 441.6513,-717.8018 466.5933,-674.3187"/>
<polygon fill="#000000" stroke="#000000" points="469.7175,-675.9061 471.6485,-665.4887 463.6426,-672.4281 469.7175,-675.9061"/>
<text text-anchor="middle" x="468.5" y="-862.2792" font-family="Times,serif" font-size="20.00" fill="#000000">200</text>
<text text-anchor="middle" x="468.5" y="-840.2792" font-family="Times,serif" font-size="20.00" fill="#000000">201</text>
<text text-anchor="middle" x="468.5" y="-818.2792" font-family="Times,serif" font-size="20.00" fill="#000000">202</text>
<text text-anchor="middle" x="468.5" y="-796.2792" font-family="Times,serif" font-size="20.00" fill="#000000">203</text>
<text text-anchor="middle" x="468.5" y="-774.2792" font-family="Times,serif" font-size="20.00" fill="#000000">206</text>
<text text-anchor="middle" x="468.5" y="-752.2792" font-family="Times,serif" font-size="20.00" fill="#000000">207</text>
<text text-anchor="middle" x="468.5" y="-730.2792" font-family="Times,serif" font-size="20.00" fill="#000000">208</text>
<text text-anchor="middle" x="468.5" y="-708.2792" font-family="Times,serif" font-size="20.00" fill="#000000">226</text>
</g>
<!-- SG_0_Node_14 -->
<g id="node12" class="node">
<title>SG_0_Node_14</title>
<ellipse fill="none" stroke="#000000" cx="51" cy="-358.066" rx="34.7971" ry="21.4286"/>
<text text-anchor="middle" x="51" y="-353.066" font-family="Times,serif" font-size="20.00" fill="#000000">0.0</text>
</g>
<!-- SG_0_Node_6&#45;&gt;SG_0_Node_14 -->
<g id="edge17" class="edge">
<title>SG_0_Node_6&#45;&gt;SG_0_Node_14</title>
<path fill="none" stroke="#000000" d="M214.3499,-638.2241C156.7623,-629.7776 85.0755,-615.0178 66,-592.2792 17.593,-534.5764 31.2722,-438.0878 42.6148,-388.912"/>
<polygon fill="#000000" stroke="#000000" points="46.0225,-389.7106 44.9765,-379.1675 39.2194,-388.0617 46.0225,-389.7106"/>
<text text-anchor="middle" x="177" y="-576.2792" font-family="Times,serif" font-size="20.00" fill="#000000">[NA]</text>
<text text-anchor="middle" x="177" y="-554.2792" font-family="Times,serif" font-size="20.00" fill="#000000">application/javascript</text>
<text text-anchor="middle" x="177" y="-532.2792" font-family="Times,serif" font-size="20.00" fill="#000000">audio/wav</text>
<text text-anchor="middle" x="177" y="-510.2792" font-family="Times,serif" font-size="20.00" fill="#000000">empty</text>
<text text-anchor="middle" x="177" y="-488.2792" font-family="Times,serif" font-size="20.00" fill="#000000">image/png</text>
<text text-anchor="middle" x="177" y="-466.2792" font-family="Times,serif" font-size="20.00" fill="#000000">text/css</text>
<text text-anchor="middle" x="177" y="-444.2792" font-family="Times,serif" font-size="20.00" fill="#000000">text/html</text>
<text text-anchor="middle" x="177" y="-422.2792" font-family="Times,serif" font-size="20.00" fill="#000000">video/mp4</text>
</g>
<!-- SG_0_Node_15 -->
<g id="node13" class="node">
<title>SG_0_Node_15</title>
<ellipse fill="none" stroke="#000000" cx="292" cy="-358.066" rx="34.7971" ry="21.4286"/>
<text text-anchor="middle" x="292" y="-353.066" font-family="Times,serif" font-size="20.00" fill="#000000">1.0</text>
</g>
<!-- SG_0_Node_6&#45;&gt;SG_0_Node_15 -->
<g id="edge18" class="edge">
<title>SG_0_Node_6&#45;&gt;SG_0_Node_15</title>
<path fill="none" stroke="#000000" d="M292,-629.1876C292,-581.2407 292,-450.4354 292,-389.7589"/>
<polygon fill="#000000" stroke="#000000" points="295.5001,-389.6211 292,-379.6212 288.5001,-389.6212 295.5001,-389.6211"/>
<text text-anchor="middle" x="369" y="-499.2792" font-family="Times,serif" font-size="20.00" fill="#000000">application/pdf</text>
</g>
<!-- SG_0_Node_8 -->
<g id="node14" class="node">
<title>SG_0_Node_8</title>
<polygon fill="none" stroke="#000000" points="514.5,-376.066 449.5,-376.066 449.5,-340.066 514.5,-340.066 514.5,-376.066"/>
<text text-anchor="middle" x="482" y="-353.066" font-family="Times,serif" font-size="20.00" fill="#000000">body</text>
</g>
<!-- SG_0_Node_7&#45;&gt;SG_0_Node_8 -->
<g id="edge11" class="edge">
<title>SG_0_Node_7&#45;&gt;SG_0_Node_8</title>
<path fill="none" stroke="#000000" d="M482,-629.1876C482,-580.2922 482,-445.2278 482,-386.2415"/>
<polygon fill="#000000" stroke="#000000" points="485.5001,-386.1507 482,-376.1508 478.5001,-386.1508 485.5001,-386.1507"/>
<text text-anchor="middle" x="514" y="-499.2792" font-family="Times,serif" font-size="20.00" fill="#000000">empty</text>
</g>
<!-- SG_0_Node_16 -->
<g id="node15" class="node">
<title>SG_0_Node_16</title>
<ellipse fill="none" stroke="#000000" cx="582" cy="-358.066" rx="34.7971" ry="21.4286"/>
<text text-anchor="middle" x="582" y="-353.066" font-family="Times,serif" font-size="20.00" fill="#000000">1.0</text>
</g>
<!-- SG_0_Node_7&#45;&gt;SG_0_Node_16 -->
<g id="edge12" class="edge">
<title>SG_0_Node_7&#45;&gt;SG_0_Node_16</title>
<path fill="none" stroke="#000000" d="M513.711,-629.2042C527.0867,-619.9145 541.501,-607.3585 550,-592.2792 586.5478,-527.4349 587.3709,-436.9096 584.7449,-389.6411"/>
<polygon fill="#000000" stroke="#000000" points="588.2218,-389.1684 584.0837,-379.4151 581.2364,-389.6201 588.2218,-389.1684"/>
<text text-anchor="middle" x="696" y="-576.2792" font-family="Times,serif" font-size="20.00" fill="#000000">[NA]</text>
<text text-anchor="middle" x="696" y="-554.2792" font-family="Times,serif" font-size="20.00" fill="#000000">application/javascript</text>
<text text-anchor="middle" x="696" y="-532.2792" font-family="Times,serif" font-size="20.00" fill="#000000">application/pdf</text>
<text text-anchor="middle" x="696" y="-510.2792" font-family="Times,serif" font-size="20.00" fill="#000000">audio/wav</text>
<text text-anchor="middle" x="696" y="-488.2792" font-family="Times,serif" font-size="20.00" fill="#000000">image/png</text>
<text text-anchor="middle" x="696" y="-466.2792" font-family="Times,serif" font-size="20.00" fill="#000000">text/css</text>
<text text-anchor="middle" x="696" y="-444.2792" font-family="Times,serif" font-size="20.00" fill="#000000">text/html</text>
<text text-anchor="middle" x="696" y="-422.2792" font-family="Times,serif" font-size="20.00" fill="#000000">video/mp4</text>
</g>
<!-- SG_0_Node_9 -->
<g id="node16" class="node">
<title>SG_0_Node_9</title>
<polygon fill="none" stroke="#000000" points="280,-215.6396 18,-215.6396 18,-179.6396 280,-179.6396 280,-215.6396"/>
<text text-anchor="middle" x="149" y="-192.6396" font-family="Times,serif" font-size="20.00" fill="#000000">X&#45;Content&#45;Type&#45;Options</text>
</g>
<!-- SG_0_Node_8&#45;&gt;SG_0_Node_9 -->
<g id="edge13" class="edge">
<title>SG_0_Node_8&#45;&gt;SG_0_Node_9</title>
<path fill="none" stroke="#000000" d="M449.3699,-353.5112C367.4059,-341.9179 158.699,-311.3944 149,-299.8528 131.9716,-279.5894 134.7861,-248.2402 140.1016,-225.6021"/>
<polygon fill="#000000" stroke="#000000" points="143.4985,-226.4463 142.6575,-215.8849 136.7288,-224.6656 143.4985,-226.4463"/>
<text text-anchor="middle" x="394.5" y="-283.8528" font-family="Times,serif" font-size="20.00" fill="#000000">ecocnt_audio=duration=1</text>
<text text-anchor="middle" x="394.5" y="-261.8528" font-family="Times,serif" font-size="20.00" fill="#000000">ecocnt_vid=width=100,height=100,duration=2</text>
</g>
<!-- SG_0_Node_17 -->
<g id="node17" class="node">
<title>SG_0_Node_17</title>
<ellipse fill="none" stroke="#000000" cx="676" cy="-197.6396" rx="34.7971" ry="21.4286"/>
<text text-anchor="middle" x="676" y="-192.6396" font-family="Times,serif" font-size="20.00" fill="#000000">1.0</text>
</g>
<!-- SG_0_Node_8&#45;&gt;SG_0_Node_17 -->
<g id="edge14" class="edge">
<title>SG_0_Node_8&#45;&gt;SG_0_Node_17</title>
<path fill="none" stroke="#000000" d="M514.5193,-345.5823C522.2041,-342.678 530.3796,-339.6256 538,-336.8528 584.8911,-319.791 609.293,-335.7039 644,-299.8528 662.4227,-280.8228 670.2512,-251.3253 673.5714,-228.9002"/>
<polygon fill="#000000" stroke="#000000" points="677.0604,-229.2059 674.8338,-218.8477 670.115,-228.3336 677.0604,-229.2059"/>
<text text-anchor="middle" x="713" y="-283.8528" font-family="Times,serif" font-size="20.00" fill="#000000">[NA]</text>
<text text-anchor="middle" x="713" y="-261.8528" font-family="Times,serif" font-size="20.00" fill="#000000">11 levels</text>
</g>
<!-- SG_0_Node_18 -->
<g id="node18" class="node">
<title>SG_0_Node_18</title>
<ellipse fill="none" stroke="#000000" cx="100" cy="-37.2132" rx="34.7971" ry="21.4286"/>
<text text-anchor="middle" x="100" y="-32.2132" font-family="Times,serif" font-size="20.00" fill="#000000">0.0</text>
</g>
<!-- SG_0_Node_9&#45;&gt;SG_0_Node_18 -->
<g id="edge15" class="edge">
<title>SG_0_Node_9&#45;&gt;SG_0_Node_18</title>
<path fill="none" stroke="#000000" d="M135.4372,-179.4676C127.9026,-168.4438 119.0548,-153.7743 114,-139.4264 105.9417,-116.5531 102.4911,-89.2826 101.0285,-68.6646"/>
<polygon fill="#000000" stroke="#000000" points="104.5146,-68.3239 100.4309,-58.5477 97.5267,-68.7367 104.5146,-68.3239"/>
<text text-anchor="middle" x="146" y="-112.4264" font-family="Times,serif" font-size="20.00" fill="#000000">empty</text>
</g>
<!-- SG_0_Node_19 -->
<g id="node19" class="node">
<title>SG_0_Node_19</title>
<ellipse fill="none" stroke="#000000" cx="200" cy="-37.2132" rx="34.7971" ry="21.4286"/>
<text text-anchor="middle" x="200" y="-32.2132" font-family="Times,serif" font-size="20.00" fill="#000000">1.0</text>
</g>
<!-- SG_0_Node_9&#45;&gt;SG_0_Node_19 -->
<g id="edge16" class="edge">
<title>SG_0_Node_9&#45;&gt;SG_0_Node_19</title>
<path fill="none" stroke="#000000" d="M159.4912,-179.5403C165.6287,-168.3016 173.1079,-153.3853 178,-139.4264 186.1288,-116.2324 191.8131,-88.9804 195.3648,-68.4511"/>
<polygon fill="#000000" stroke="#000000" points="198.8508,-68.8226 197.0294,-58.3855 191.9446,-67.6804 198.8508,-68.8226"/>
<text text-anchor="middle" x="224" y="-123.4264" font-family="Times,serif" font-size="20.00" fill="#000000">[NA]</text>
<text text-anchor="middle" x="224" y="-101.4264" font-family="Times,serif" font-size="20.00" fill="#000000">nosniff</text>
</g>
<!-- SG_1_Node_0 -->
<g id="node20" class="node">
<title>SG_1_Node_0</title>
<polygon fill="none" stroke="#000000" points="1080,-1790.9848 938,-1790.9848 938,-1754.9848 1080,-1754.9848 1080,-1790.9848"/>
<text text-anchor="middle" x="1009" y="-1767.9848" font-family="Times,serif" font-size="20.00" fill="#000000">Status&#45;Code</text>
</g>
<!-- SG_1_Node_1 -->
<g id="node21" class="node">
<title>SG_1_Node_1</title>
<polygon fill="none" stroke="#000000" points="1016,-1633.7716 874,-1633.7716 874,-1597.7716 1016,-1597.7716 1016,-1633.7716"/>
<text text-anchor="middle" x="945" y="-1610.7716" font-family="Times,serif" font-size="20.00" fill="#000000">Status&#45;Code</text>
</g>
<!-- SG_1_Node_0&#45;&gt;SG_1_Node_1 -->
<g id="edge19" class="edge">
<title>SG_1_Node_0&#45;&gt;SG_1_Node_1</title>
<path fill="none" stroke="#000000" d="M987.2079,-1754.7894C976.9493,-1744.9772 965.5534,-1732.0153 959,-1717.9848 948.1063,-1694.662 945.0317,-1665.3115 944.4302,-1644.0518"/>
<polygon fill="#000000" stroke="#000000" points="947.9299,-1643.995 944.3114,-1634.0373 940.9304,-1644.0781 947.9299,-1643.995"/>
<text text-anchor="middle" x="1005" y="-1701.9848" font-family="Times,serif" font-size="20.00" fill="#000000">[NA]</text>
<text text-anchor="middle" x="1005" y="-1679.9848" font-family="Times,serif" font-size="20.00" fill="#000000">61 levels</text>
</g>
<!-- SG_1_Node_10 -->
<g id="node22" class="node">
<title>SG_1_Node_10</title>
<ellipse fill="none" stroke="#000000" cx="1073" cy="-1615.7716" rx="34.7971" ry="21.4286"/>
<text text-anchor="middle" x="1073" y="-1610.7716" font-family="Times,serif" font-size="20.00" fill="#000000">1.0</text>
</g>
<!-- SG_1_Node_0&#45;&gt;SG_1_Node_10 -->
<g id="edge20" class="edge">
<title>SG_1_Node_0&#45;&gt;SG_1_Node_10</title>
<path fill="none" stroke="#000000" d="M1026.4302,-1754.4933C1035.0355,-1744.4103 1044.8619,-1731.2952 1051,-1717.9848 1061.4043,-1695.4231 1066.9721,-1667.7678 1069.9009,-1646.9153"/>
<polygon fill="#000000" stroke="#000000" points="1073.3738,-1647.3493 1071.17,-1636.9862 1066.4303,-1646.4617 1073.3738,-1647.3493"/>
<text text-anchor="middle" x="1084.5" y="-1690.9848" font-family="Times,serif" font-size="20.00" fill="#000000">304</text>
</g>
<!-- SG_1_Node_11 -->
<g id="node23" class="node">
<title>SG_1_Node_11</title>
<ellipse fill="none" stroke="#000000" cx="900" cy="-1279.3452" rx="34.7971" ry="21.4286"/>
<text text-anchor="middle" x="900" y="-1274.3452" font-family="Times,serif" font-size="20.00" fill="#000000">0.0</text>
</g>
<!-- SG_1_Node_1&#45;&gt;SG_1_Node_11 -->
<g id="edge21" class="edge">
<title>SG_1_Node_1&#45;&gt;SG_1_Node_11</title>
<path fill="none" stroke="#000000" d="M942.5806,-1597.6839C935.2852,-1543.1425 913.4381,-1379.8107 904.1992,-1310.7389"/>
<polygon fill="#000000" stroke="#000000" points="907.6238,-1309.9414 902.8288,-1300.4937 900.6856,-1310.8695 907.6238,-1309.9414"/>
<text text-anchor="middle" x="983" y="-1453.5584" font-family="Times,serif" font-size="20.00" fill="#000000">[NA]</text>
<text text-anchor="middle" x="983" y="-1431.5584" font-family="Times,serif" font-size="20.00" fill="#000000">51 levels</text>
</g>
<!-- SG_1_Node_3 -->
<g id="node24" class="node">
<title>SG_1_Node_3</title>
<polygon fill="none" stroke="#000000" points="1213,-1297.3452 953,-1297.3452 953,-1261.3452 1213,-1261.3452 1213,-1297.3452"/>
<text text-anchor="middle" x="1083" y="-1274.3452" font-family="Times,serif" font-size="20.00" fill="#000000">Content&#45;Security&#45;Policy</text>
</g>
<!-- SG_1_Node_1&#45;&gt;SG_1_Node_3 -->
<g id="edge22" class="edge">
<title>SG_1_Node_1&#45;&gt;SG_1_Node_3</title>
<path fill="none" stroke="#000000" d="M986.0464,-1597.7574C1003.1405,-1588.2174 1021.62,-1574.8489 1033,-1557.5584 1084.9967,-1478.5561 1087.0419,-1360.8281 1084.8761,-1307.4556"/>
<polygon fill="#000000" stroke="#000000" points="1088.3675,-1307.1918 1084.3835,-1297.3745 1081.3759,-1307.5335 1088.3675,-1307.1918"/>
<text text-anchor="middle" x="1104.5" y="-1541.5584" font-family="Times,serif" font-size="20.00" fill="#000000">200</text>
<text text-anchor="middle" x="1104.5" y="-1519.5584" font-family="Times,serif" font-size="20.00" fill="#000000">201</text>
<text text-anchor="middle" x="1104.5" y="-1497.5584" font-family="Times,serif" font-size="20.00" fill="#000000">202</text>
<text text-anchor="middle" x="1104.5" y="-1475.5584" font-family="Times,serif" font-size="20.00" fill="#000000">203</text>
<text text-anchor="middle" x="1104.5" y="-1453.5584" font-family="Times,serif" font-size="20.00" fill="#000000">204</text>
<text text-anchor="middle" x="1104.5" y="-1431.5584" font-family="Times,serif" font-size="20.00" fill="#000000">205</text>
<text text-anchor="middle" x="1104.5" y="-1409.5584" font-family="Times,serif" font-size="20.00" fill="#000000">206</text>
<text text-anchor="middle" x="1104.5" y="-1387.5584" font-family="Times,serif" font-size="20.00" fill="#000000">207</text>
<text text-anchor="middle" x="1104.5" y="-1365.5584" font-family="Times,serif" font-size="20.00" fill="#000000">208</text>
<text text-anchor="middle" x="1104.5" y="-1343.5584" font-family="Times,serif" font-size="20.00" fill="#000000">226</text>
</g>
<!-- SG_1_Node_12 -->
<g id="node25" class="node">
<title>SG_1_Node_12</title>
<ellipse fill="none" stroke="#000000" cx="877" cy="-1096.9188" rx="34.7971" ry="21.4286"/>
<text text-anchor="middle" x="877" y="-1091.9188" font-family="Times,serif" font-size="20.00" fill="#000000">0.0</text>
</g>
<!-- SG_1_Node_3&#45;&gt;SG_1_Node_12 -->
<g id="edge23" class="edge">
<title>SG_1_Node_3&#45;&gt;SG_1_Node_12</title>
<path fill="none" stroke="#000000" d="M976.0965,-1261.329C932.7731,-1251.6518 889.8933,-1238.1738 877,-1221.132 856.9253,-1194.5983 861.0483,-1154.929 867.4934,-1127.5956"/>
<polygon fill="#000000" stroke="#000000" points="870.9173,-1128.3347 870.0316,-1117.7769 864.1401,-1126.5826 870.9173,-1128.3347"/>
<text text-anchor="middle" x="987.5" y="-1205.132" font-family="Times,serif" font-size="20.00" fill="#000000">[NA]</text>
<text text-anchor="middle" x="987.5" y="-1183.132" font-family="Times,serif" font-size="20.00" fill="#000000">empty</text>
<text text-anchor="middle" x="987.5" y="-1161.132" font-family="Times,serif" font-size="20.00" fill="#000000">frame&#45;ancestors &#39;self&#39;</text>
</g>
<!-- SG_1_Node_4 -->
<g id="node26" class="node">
<title>SG_1_Node_4</title>
<polygon fill="none" stroke="#000000" points="1244.5,-1114.9188 1023.5,-1114.9188 1023.5,-1078.9188 1244.5,-1078.9188 1244.5,-1114.9188"/>
<text text-anchor="middle" x="1134" y="-1091.9188" font-family="Times,serif" font-size="20.00" fill="#000000">Content&#45;Disposition</text>
</g>
<!-- SG_1_Node_3&#45;&gt;SG_1_Node_4 -->
<g id="edge24" class="edge">
<title>SG_1_Node_3&#45;&gt;SG_1_Node_4</title>
<path fill="none" stroke="#000000" d="M1089.2016,-1261.3438C1093.067,-1249.8881 1098.0407,-1234.7058 1102,-1221.132 1111.5484,-1188.3969 1121.123,-1150.3818 1127.2763,-1125.115"/>
<polygon fill="#000000" stroke="#000000" points="1130.7448,-1125.6621 1129.6939,-1115.1195 1123.941,-1124.0164 1130.7448,-1125.6621"/>
<text text-anchor="middle" x="1201.5" y="-1183.132" font-family="Times,serif" font-size="20.00" fill="#000000">default&#45;src &#39;self&#39;</text>
</g>
<!-- SG_1_Node_5 -->
<g id="node27" class="node">
<title>SG_1_Node_5</title>
<polygon fill="none" stroke="#000000" points="1201,-954.4924 1059,-954.4924 1059,-918.4924 1201,-918.4924 1201,-954.4924"/>
<text text-anchor="middle" x="1130" y="-931.4924" font-family="Times,serif" font-size="20.00" fill="#000000">Status&#45;Code</text>
</g>
<!-- SG_1_Node_4&#45;&gt;SG_1_Node_5 -->
<g id="edge25" class="edge">
<title>SG_1_Node_4&#45;&gt;SG_1_Node_5</title>
<path fill="none" stroke="#000000" d="M1133.5489,-1078.8277C1132.8587,-1051.1459 1131.5344,-998.0306 1130.7131,-965.0939"/>
<polygon fill="#000000" stroke="#000000" points="1134.2038,-964.6732 1130.4556,-954.7636 1127.206,-964.8477 1134.2038,-964.6732"/>
<text text-anchor="middle" x="1164" y="-1011.7056" font-family="Times,serif" font-size="20.00" fill="#000000">empty</text>
</g>
<!-- SG_1_Node_13 -->
<g id="node28" class="node">
<title>SG_1_Node_13</title>
<ellipse fill="none" stroke="#000000" cx="1254" cy="-936.4924" rx="34.7971" ry="21.4286"/>
<text text-anchor="middle" x="1254" y="-931.4924" font-family="Times,serif" font-size="20.00" fill="#000000">1.0</text>
</g>
<!-- SG_1_Node_4&#45;&gt;SG_1_Node_13 -->
<g id="edge26" class="edge">
<title>SG_1_Node_4&#45;&gt;SG_1_Node_13</title>
<path fill="none" stroke="#000000" d="M1158.5599,-1078.831C1171.9159,-1068.1689 1188.0904,-1053.8305 1200,-1038.7056 1217.4425,-1016.554 1232.0032,-987.9335 1241.5921,-966.6148"/>
<polygon fill="#000000" stroke="#000000" points="1244.8297,-967.9468 1245.6405,-957.383 1238.419,-965.1355 1244.8297,-967.9468"/>
<text text-anchor="middle" x="1286" y="-1022.7056" font-family="Times,serif" font-size="20.00" fill="#000000">[NA]</text>
<text text-anchor="middle" x="1286" y="-1000.7056" font-family="Times,serif" font-size="20.00" fill="#000000">attachment</text>
</g>
<!-- SG_1_Node_6 -->
<g id="node29" class="node">
<title>SG_1_Node_6</title>
<polygon fill="none" stroke="#000000" points="1198.5,-665.2792 1043.5,-665.2792 1043.5,-629.2792 1198.5,-629.2792 1198.5,-665.2792"/>
<text text-anchor="middle" x="1121" y="-642.2792" font-family="Times,serif" font-size="20.00" fill="#000000">Content&#45;Type</text>
</g>
<!-- SG_1_Node_5&#45;&gt;SG_1_Node_6 -->
<g id="edge27" class="edge">
<title>SG_1_Node_5&#45;&gt;SG_1_Node_6</title>
<path fill="none" stroke="#000000" d="M1129.437,-918.4008C1127.9154,-869.5054 1123.7124,-734.441 1121.8768,-675.4547"/>
<polygon fill="#000000" stroke="#000000" points="1125.3722,-675.2502 1121.5628,-665.364 1118.3756,-675.468 1125.3722,-675.2502"/>
<text text-anchor="middle" x="1147.5" y="-862.2792" font-family="Times,serif" font-size="20.00" fill="#000000">200</text>
<text text-anchor="middle" x="1147.5" y="-840.2792" font-family="Times,serif" font-size="20.00" fill="#000000">201</text>
<text text-anchor="middle" x="1147.5" y="-818.2792" font-family="Times,serif" font-size="20.00" fill="#000000">202</text>
<text text-anchor="middle" x="1147.5" y="-796.2792" font-family="Times,serif" font-size="20.00" fill="#000000">203</text>
<text text-anchor="middle" x="1147.5" y="-774.2792" font-family="Times,serif" font-size="20.00" fill="#000000">206</text>
<text text-anchor="middle" x="1147.5" y="-752.2792" font-family="Times,serif" font-size="20.00" fill="#000000">207</text>
<text text-anchor="middle" x="1147.5" y="-730.2792" font-family="Times,serif" font-size="20.00" fill="#000000">208</text>
<text text-anchor="middle" x="1147.5" y="-708.2792" font-family="Times,serif" font-size="20.00" fill="#000000">226</text>
</g>
<!-- SG_1_Node_7 -->
<g id="node30" class="node">
<title>SG_1_Node_7</title>
<polygon fill="none" stroke="#000000" points="1371.5,-665.2792 1216.5,-665.2792 1216.5,-629.2792 1371.5,-629.2792 1371.5,-665.2792"/>
<text text-anchor="middle" x="1294" y="-642.2792" font-family="Times,serif" font-size="20.00" fill="#000000">Content&#45;Type</text>
</g>
<!-- SG_1_Node_5&#45;&gt;SG_1_Node_7 -->
<g id="edge28" class="edge">
<title>SG_1_Node_5&#45;&gt;SG_1_Node_7</title>
<path fill="none" stroke="#000000" d="M1143.7111,-918.2746C1151.9786,-906.9926 1162.5158,-892.0724 1171,-878.2792 1214.9293,-806.8609 1259.4414,-718.3691 1280.868,-674.5322"/>
<polygon fill="#000000" stroke="#000000" points="1284.0937,-675.9023 1285.3232,-665.379 1277.7997,-672.8388 1284.0937,-675.9023"/>
<text text-anchor="middle" x="1285.5" y="-796.2792" font-family="Times,serif" font-size="20.00" fill="#000000">204</text>
<text text-anchor="middle" x="1285.5" y="-774.2792" font-family="Times,serif" font-size="20.00" fill="#000000">205</text>
</g>
<!-- SG_1_Node_14 -->
<g id="node31" class="node">
<title>SG_1_Node_14</title>
<ellipse fill="none" stroke="#000000" cx="888" cy="-358.066" rx="34.7971" ry="21.4286"/>
<text text-anchor="middle" x="888" y="-353.066" font-family="Times,serif" font-size="20.00" fill="#000000">0.0</text>
</g>
<!-- SG_1_Node_6&#45;&gt;SG_1_Node_14 -->
<g id="edge31" class="edge">
<title>SG_1_Node_6&#45;&gt;SG_1_Node_14</title>
<path fill="none" stroke="#000000" d="M1043.2419,-637.7933C987.1779,-629.2125 918.2881,-614.4811 900,-592.2792 852.1483,-534.1868 867.145,-437.8713 879.1771,-388.8217"/>
<polygon fill="#000000" stroke="#000000" points="882.5753,-389.6598 881.6759,-379.1033 875.7959,-387.9166 882.5753,-389.6598"/>
<text text-anchor="middle" x="1011" y="-576.2792" font-family="Times,serif" font-size="20.00" fill="#000000">[NA]</text>
<text text-anchor="middle" x="1011" y="-554.2792" font-family="Times,serif" font-size="20.00" fill="#000000">application/javascript</text>
<text text-anchor="middle" x="1011" y="-532.2792" font-family="Times,serif" font-size="20.00" fill="#000000">application/pdf</text>
<text text-anchor="middle" x="1011" y="-510.2792" font-family="Times,serif" font-size="20.00" fill="#000000">audio/wav</text>
<text text-anchor="middle" x="1011" y="-488.2792" font-family="Times,serif" font-size="20.00" fill="#000000">image/png</text>
<text text-anchor="middle" x="1011" y="-466.2792" font-family="Times,serif" font-size="20.00" fill="#000000">text/css</text>
<text text-anchor="middle" x="1011" y="-444.2792" font-family="Times,serif" font-size="20.00" fill="#000000">text/html</text>
<text text-anchor="middle" x="1011" y="-422.2792" font-family="Times,serif" font-size="20.00" fill="#000000">video/mp4</text>
</g>
<!-- SG_1_Node_8 -->
<g id="node32" class="node">
<title>SG_1_Node_8</title>
<polygon fill="none" stroke="#000000" points="1178.5,-376.066 1113.5,-376.066 1113.5,-340.066 1178.5,-340.066 1178.5,-376.066"/>
<text text-anchor="middle" x="1146" y="-353.066" font-family="Times,serif" font-size="20.00" fill="#000000">body</text>
</g>
<!-- SG_1_Node_6&#45;&gt;SG_1_Node_8 -->
<g id="edge32" class="edge">
<title>SG_1_Node_6&#45;&gt;SG_1_Node_8</title>
<path fill="none" stroke="#000000" d="M1122.5639,-629.1876C1126.7905,-580.2922 1138.4656,-445.2278 1143.5645,-386.2415"/>
<polygon fill="#000000" stroke="#000000" points="1147.0624,-386.4151 1144.4367,-376.1508 1140.0884,-385.8122 1147.0624,-386.4151"/>
<text text-anchor="middle" x="1172" y="-499.2792" font-family="Times,serif" font-size="20.00" fill="#000000">empty</text>
</g>
<!-- SG_1_Node_15 -->
<g id="node33" class="node">
<title>SG_1_Node_15</title>
<ellipse fill="none" stroke="#000000" cx="1282" cy="-358.066" rx="34.7971" ry="21.4286"/>
<text text-anchor="middle" x="1282" y="-353.066" font-family="Times,serif" font-size="20.00" fill="#000000">0.0</text>
</g>
<!-- SG_1_Node_7&#45;&gt;SG_1_Node_15 -->
<g id="edge29" class="edge">
<title>SG_1_Node_7&#45;&gt;SG_1_Node_15</title>
<path fill="none" stroke="#000000" d="M1293.2493,-629.1876C1291.2599,-581.2407 1285.8326,-450.4354 1283.315,-389.7589"/>
<polygon fill="#000000" stroke="#000000" points="1286.806,-389.4674 1282.8944,-379.6212 1279.812,-389.7577 1286.806,-389.4674"/>
<text text-anchor="middle" x="1368" y="-499.2792" font-family="Times,serif" font-size="20.00" fill="#000000">application/pdf</text>
</g>
<!-- SG_1_Node_16 -->
<g id="node34" class="node">
<title>SG_1_Node_16</title>
<ellipse fill="none" stroke="#000000" cx="1472" cy="-358.066" rx="34.7971" ry="21.4286"/>
<text text-anchor="middle" x="1472" y="-353.066" font-family="Times,serif" font-size="20.00" fill="#000000">1.0</text>
</g>
<!-- SG_1_Node_7&#45;&gt;SG_1_Node_16 -->
<g id="edge30" class="edge">
<title>SG_1_Node_7&#45;&gt;SG_1_Node_16</title>
<path fill="none" stroke="#000000" d="M1367.7006,-629.2459C1402.2695,-619.2397 1438.224,-606.0541 1449,-592.2792 1495.3211,-533.0675 1486.9377,-437.9786 1478.5578,-389.1742"/>
<polygon fill="#000000" stroke="#000000" points="1481.9776,-388.4178 1476.7348,-379.2111 1475.0919,-389.6778 1481.9776,-388.4178"/>
<text text-anchor="middle" x="1596" y="-576.2792" font-family="Times,serif" font-size="20.00" fill="#000000">[NA]</text>
<text text-anchor="middle" x="1596" y="-554.2792" font-family="Times,serif" font-size="20.00" fill="#000000">application/javascript</text>
<text text-anchor="middle" x="1596" y="-532.2792" font-family="Times,serif" font-size="20.00" fill="#000000">audio/wav</text>
<text text-anchor="middle" x="1596" y="-510.2792" font-family="Times,serif" font-size="20.00" fill="#000000">empty</text>
<text text-anchor="middle" x="1596" y="-488.2792" font-family="Times,serif" font-size="20.00" fill="#000000">image/png</text>
<text text-anchor="middle" x="1596" y="-466.2792" font-family="Times,serif" font-size="20.00" fill="#000000">text/css</text>
<text text-anchor="middle" x="1596" y="-444.2792" font-family="Times,serif" font-size="20.00" fill="#000000">text/html</text>
<text text-anchor="middle" x="1596" y="-422.2792" font-family="Times,serif" font-size="20.00" fill="#000000">video/mp4</text>
</g>
<!-- SG_1_Node_17 -->
<g id="node35" class="node">
<title>SG_1_Node_17</title>
<ellipse fill="none" stroke="#000000" cx="1054" cy="-197.6396" rx="34.7971" ry="21.4286"/>
<text text-anchor="middle" x="1054" y="-192.6396" font-family="Times,serif" font-size="20.00" fill="#000000">0.0</text>
</g>
<!-- SG_1_Node_8&#45;&gt;SG_1_Node_17 -->
<g id="edge33" class="edge">
<title>SG_1_Node_8&#45;&gt;SG_1_Node_17</title>
<path fill="none" stroke="#000000" d="M1134.4012,-339.8627C1127.2206,-328.4594 1117.8961,-313.4058 1110,-299.8528 1095.8671,-275.5947 1080.6037,-247.6063 1069.5869,-227.0571"/>
<polygon fill="#000000" stroke="#000000" points="1072.643,-225.3497 1064.8433,-218.1793 1066.469,-228.6486 1072.643,-225.3497"/>
<text text-anchor="middle" x="1156" y="-283.8528" font-family="Times,serif" font-size="20.00" fill="#000000">[NA]</text>
<text text-anchor="middle" x="1156" y="-261.8528" font-family="Times,serif" font-size="20.00" fill="#000000">11 levels</text>
</g>
<!-- SG_1_Node_9 -->
<g id="node36" class="node">
<title>SG_1_Node_9</title>
<polygon fill="none" stroke="#000000" points="1369,-215.6396 1107,-215.6396 1107,-179.6396 1369,-179.6396 1369,-215.6396"/>
<text text-anchor="middle" x="1238" y="-192.6396" font-family="Times,serif" font-size="20.00" fill="#000000">X&#45;Content&#45;Type&#45;Options</text>
</g>
<!-- SG_1_Node_8&#45;&gt;SG_1_Node_9 -->
<g id="edge34" class="edge">
<title>SG_1_Node_8&#45;&gt;SG_1_Node_9</title>
<path fill="none" stroke="#000000" d="M1167.4841,-339.9144C1179.0184,-329.2323 1192.7292,-314.8952 1202,-299.8528 1216.3362,-276.5917 1225.9927,-246.8259 1231.6651,-225.4226"/>
<polygon fill="#000000" stroke="#000000" points="1235.0773,-226.2051 1234.1327,-215.6525 1228.2904,-224.4909 1235.0773,-226.2051"/>
<text text-anchor="middle" x="1467.5" y="-283.8528" font-family="Times,serif" font-size="20.00" fill="#000000">ecocnt_audio=duration=1</text>
<text text-anchor="middle" x="1467.5" y="-261.8528" font-family="Times,serif" font-size="20.00" fill="#000000">ecocnt_vid=width=100,height=100,duration=2</text>
</g>
<!-- SG_1_Node_18 -->
<g id="node37" class="node">
<title>SG_1_Node_18</title>
<ellipse fill="none" stroke="#000000" cx="1185" cy="-37.2132" rx="34.7971" ry="21.4286"/>
<text text-anchor="middle" x="1185" y="-32.2132" font-family="Times,serif" font-size="20.00" fill="#000000">0.0</text>
</g>
<!-- SG_1_Node_9&#45;&gt;SG_1_Node_18 -->
<g id="edge35" class="edge">
<title>SG_1_Node_9&#45;&gt;SG_1_Node_18</title>
<path fill="none" stroke="#000000" d="M1222.6489,-179.4495C1214.2819,-168.535 1204.5319,-153.9817 1199,-139.4264 1190.3844,-116.7572 1186.9661,-89.4748 1185.6575,-68.8005"/>
<polygon fill="#000000" stroke="#000000" points="1189.145,-68.4633 1185.1491,-58.6509 1182.1538,-68.8135 1189.145,-68.4633"/>
<text text-anchor="middle" x="1234" y="-112.4264" font-family="Times,serif" font-size="20.00" fill="#000000">nosniff</text>
</g>
<!-- SG_1_Node_19 -->
<g id="node38" class="node">
<title>SG_1_Node_19</title>
<ellipse fill="none" stroke="#000000" cx="1291" cy="-37.2132" rx="34.7971" ry="21.4286"/>
<text text-anchor="middle" x="1291" y="-32.2132" font-family="Times,serif" font-size="20.00" fill="#000000">1.0</text>
</g>
<!-- SG_1_Node_9&#45;&gt;SG_1_Node_19 -->
<g id="edge36" class="edge">
<title>SG_1_Node_9&#45;&gt;SG_1_Node_19</title>
<path fill="none" stroke="#000000" d="M1249.2697,-179.6318C1255.8505,-168.4266 1263.8473,-153.5133 1269,-139.4264 1277.4428,-116.3449 1283.109,-89.0864 1286.5739,-68.526"/>
<polygon fill="#000000" stroke="#000000" points="1290.0633,-68.87 1288.1882,-58.4424 1283.1513,-67.7633 1290.0633,-68.87"/>
<text text-anchor="middle" x="1313" y="-123.4264" font-family="Times,serif" font-size="20.00" fill="#000000">[NA]</text>
<text text-anchor="middle" x="1313" y="-101.4264" font-family="Times,serif" font-size="20.00" fill="#000000">empty</text>
</g>
</g>
</svg>
