<?xml version="1.0" encoding="UTF-8" standalone="no"?>
<!DOCTYPE svg PUBLIC "-//W3C//DTD SVG 1.1//EN"
 "http://www.w3.org/Graphics/SVG/1.1/DTD/svg11.dtd">
<!-- Generated by graphviz version 2.40.1 (20161225.0304)
 -->
<!-- Title: G Pages: 1 -->
<svg width="4820pt" height="1355pt"
 viewBox="0.00 0.00 4820.00 1354.56" xmlns="http://www.w3.org/2000/svg" xmlns:xlink="http://www.w3.org/1999/xlink">
<g id="graph0" class="graph" transform="scale(1 1) rotate(0) translate(4 1350.5584)">
<title>G</title>
<polygon fill="#ffffff" stroke="transparent" points="-4,4 -4,-1350.5584 4816,-1350.5584 4816,4 -4,4"/>
<g id="clust1" class="cluster">
<title>cluster_0</title>
<polygon fill="none" stroke="#000000" points="8,-8 8,-1338.5584 661,-1338.5584 661,-8 8,-8"/>
<text text-anchor="middle" x="334.5" y="-1302.5584" font-family="Times,serif" font-size="40.00" fill="#000000">Tree 0, Class js&#45;null</text>
</g>
<g id="clust9" class="cluster">
<title>cluster_1</title>
<polygon fill="none" stroke="#000000" points="669,-8 669,-1338.5584 4804,-1338.5584 4804,-8 669,-8"/>
<text text-anchor="middle" x="2736.5" y="-1302.5584" font-family="Times,serif" font-size="40.00" fill="#000000">Tree 0, Class {&#39;location&#39;: {&#39;hash&#39;: &#39;&#39;, &#39;host&#39;: &#39;&#39;, &#39;href&#39;: &#39;about:blank&#39;, &#39;port&#39;: &#39;&#39;, &#39;origin&#39;: &#39;null&#39;, &#39;search&#39;: &#39;&#39;, &#39;hostname&#39;: &#39;&#39;, &#39;pathname&#39;: &#39;blank&#39;, &#39;protocol&#39;: &#39;about:&#39;, &#39;ancestorOrigins&#39;: {&#39;0&#39;: &#39;http://localhost:8001&#39;}}}</text>
</g>
<!-- SG_0_Node_0 -->
<g id="node1" class="node">
<title>SG_0_Node_0</title>
<polygon fill="none" stroke="#000000" points="309,-1278.5584 167,-1278.5584 167,-1242.5584 309,-1242.5584 309,-1278.5584"/>
<text text-anchor="middle" x="238" y="-1255.5584" font-family="Times,serif" font-size="20.00" fill="#000000">Status&#45;Code</text>
</g>
<!-- SG_0_Node_1 -->
<g id="node2" class="node">
<title>SG_0_Node_1</title>
<polygon fill="none" stroke="#000000" points="275.5,-1121.3452 54.5,-1121.3452 54.5,-1085.3452 275.5,-1085.3452 275.5,-1121.3452"/>
<text text-anchor="middle" x="165" y="-1098.3452" font-family="Times,serif" font-size="20.00" fill="#000000">Content&#45;Disposition</text>
</g>
<!-- SG_0_Node_0&#45;&gt;SG_0_Node_1 -->
<g id="edge1" class="edge">
<title>SG_0_Node_0&#45;&gt;SG_0_Node_1</title>
<path fill="none" stroke="#000000" d="M226.0576,-1242.4049C219.4071,-1231.8862 211.2367,-1218.251 205,-1205.5584 192.9394,-1181.0135 181.8301,-1151.865 174.3959,-1130.9886"/>
<polygon fill="#000000" stroke="#000000" points="177.6666,-1129.7387 171.0535,-1121.4611 171.0612,-1132.0559 177.6666,-1129.7387"/>
<text text-anchor="middle" x="251" y="-1178.5584" font-family="Times,serif" font-size="20.00" fill="#000000">11 levels</text>
</g>
<!-- SG_0_Node_6 -->
<g id="node3" class="node">
<title>SG_0_Node_6</title>
<ellipse fill="none" stroke="#000000" cx="328" cy="-1103.3452" rx="34.7971" ry="21.4286"/>
<text text-anchor="middle" x="328" y="-1098.3452" font-family="Times,serif" font-size="20.00" fill="#000000">1.0</text>
</g>
<!-- SG_0_Node_0&#45;&gt;SG_0_Node_6 -->
<g id="edge2" class="edge">
<title>SG_0_Node_0&#45;&gt;SG_0_Node_6</title>
<path fill="none" stroke="#000000" d="M262.735,-1242.5572C274.5904,-1232.7946 288.1099,-1219.8183 297,-1205.5584 310.5118,-1183.8852 318.4577,-1155.9467 322.9157,-1134.758"/>
<polygon fill="#000000" stroke="#000000" points="326.4062,-1135.1445 324.8866,-1124.6592 319.5358,-1133.8036 326.4062,-1135.1445"/>
<text text-anchor="middle" x="361" y="-1189.5584" font-family="Times,serif" font-size="20.00" fill="#000000">[NA]</text>
<text text-anchor="middle" x="361" y="-1167.5584" font-family="Times,serif" font-size="20.00" fill="#000000">51 levels</text>
</g>
<!-- SG_0_Node_7 -->
<g id="node4" class="node">
<title>SG_0_Node_7</title>
<ellipse fill="none" stroke="#000000" cx="108" cy="-942.9188" rx="34.7971" ry="21.4286"/>
<text text-anchor="middle" x="108" y="-937.9188" font-family="Times,serif" font-size="20.00" fill="#000000">0.0</text>
</g>
<!-- SG_0_Node_1&#45;&gt;SG_0_Node_7 -->
<g id="edge3" class="edge">
<title>SG_0_Node_1&#45;&gt;SG_0_Node_7</title>
<path fill="none" stroke="#000000" d="M147.8263,-1085.158C138.6397,-1074.3564 128.0101,-1059.9141 122,-1045.132 112.8661,-1022.6666 109.4777,-995.3725 108.3123,-974.6418"/>
<polygon fill="#000000" stroke="#000000" points="111.8014,-974.3048 107.8869,-964.4596 104.8075,-974.5971 111.8014,-974.3048"/>
<text text-anchor="middle" x="181" y="-1029.132" font-family="Times,serif" font-size="20.00" fill="#000000">[NA]</text>
<text text-anchor="middle" x="181" y="-1007.132" font-family="Times,serif" font-size="20.00" fill="#000000">attachment</text>
</g>
<!-- SG_0_Node_2 -->
<g id="node5" class="node">
<title>SG_0_Node_2</title>
<polygon fill="none" stroke="#000000" points="333,-960.9188 191,-960.9188 191,-924.9188 333,-924.9188 333,-960.9188"/>
<text text-anchor="middle" x="262" y="-937.9188" font-family="Times,serif" font-size="20.00" fill="#000000">Status&#45;Code</text>
</g>
<!-- SG_0_Node_1&#45;&gt;SG_0_Node_2 -->
<g id="edge4" class="edge">
<title>SG_0_Node_1&#45;&gt;SG_0_Node_2</title>
<path fill="none" stroke="#000000" d="M197.8593,-1085.1879C212.9022,-1075.2511 229.6459,-1061.5967 240,-1045.132 254.053,-1022.7855 259.2393,-992.8422 261.0977,-971.1449"/>
<polygon fill="#000000" stroke="#000000" points="264.6057,-971.1417 261.7814,-960.9302 257.6213,-970.6741 264.6057,-971.1417"/>
<text text-anchor="middle" x="288" y="-1018.132" font-family="Times,serif" font-size="20.00" fill="#000000">empty</text>
</g>
<!-- SG_0_Node_8 -->
<g id="node6" class="node">
<title>SG_0_Node_8</title>
<ellipse fill="none" stroke="#000000" cx="197" cy="-650.4924" rx="34.7971" ry="21.4286"/>
<text text-anchor="middle" x="197" y="-645.4924" font-family="Times,serif" font-size="20.00" fill="#000000">0.0</text>
</g>
<!-- SG_0_Node_2&#45;&gt;SG_0_Node_8 -->
<g id="edge5" class="edge">
<title>SG_0_Node_2&#45;&gt;SG_0_Node_8</title>
<path fill="none" stroke="#000000" d="M257.934,-924.6262C247.1094,-875.928 217.4943,-742.6938 203.9394,-681.712"/>
<polygon fill="#000000" stroke="#000000" points="207.3414,-680.8864 201.7549,-671.8842 200.5082,-682.4054 207.3414,-680.8864"/>
<text text-anchor="middle" x="267.5" y="-813.7056" font-family="Times,serif" font-size="20.00" fill="#000000">204</text>
<text text-anchor="middle" x="267.5" y="-791.7056" font-family="Times,serif" font-size="20.00" fill="#000000">205</text>
<text text-anchor="middle" x="267.5" y="-769.7056" font-family="Times,serif" font-size="20.00" fill="#000000">304</text>
</g>
<!-- SG_0_Node_3 -->
<g id="node7" class="node">
<title>SG_0_Node_3</title>
<polygon fill="none" stroke="#000000" points="404.5,-668.4924 249.5,-668.4924 249.5,-632.4924 404.5,-632.4924 404.5,-668.4924"/>
<text text-anchor="middle" x="327" y="-645.4924" font-family="Times,serif" font-size="20.00" fill="#000000">Content&#45;Type</text>
</g>
<!-- SG_0_Node_2&#45;&gt;SG_0_Node_3 -->
<g id="edge6" class="edge">
<title>SG_0_Node_2&#45;&gt;SG_0_Node_3</title>
<path fill="none" stroke="#000000" d="M272.9329,-924.662C279.1504,-913.4893 286.5593,-898.6962 291,-884.7056 313.8809,-812.6181 322.4645,-723.2804 325.4855,-678.6448"/>
<polygon fill="#000000" stroke="#000000" points="328.9856,-678.7514 326.1242,-668.5503 321.9996,-678.3093 328.9856,-678.7514"/>
<text text-anchor="middle" x="342.5" y="-868.7056" font-family="Times,serif" font-size="20.00" fill="#000000">200</text>
<text text-anchor="middle" x="342.5" y="-846.7056" font-family="Times,serif" font-size="20.00" fill="#000000">201</text>
<text text-anchor="middle" x="342.5" y="-824.7056" font-family="Times,serif" font-size="20.00" fill="#000000">202</text>
<text text-anchor="middle" x="342.5" y="-802.7056" font-family="Times,serif" font-size="20.00" fill="#000000">203</text>
<text text-anchor="middle" x="342.5" y="-780.7056" font-family="Times,serif" font-size="20.00" fill="#000000">206</text>
<text text-anchor="middle" x="342.5" y="-758.7056" font-family="Times,serif" font-size="20.00" fill="#000000">207</text>
<text text-anchor="middle" x="342.5" y="-736.7056" font-family="Times,serif" font-size="20.00" fill="#000000">208</text>
<text text-anchor="middle" x="342.5" y="-714.7056" font-family="Times,serif" font-size="20.00" fill="#000000">226</text>
</g>
<!-- SG_0_Node_4 -->
<g id="node8" class="node">
<title>SG_0_Node_4</title>
<polygon fill="none" stroke="#000000" points="309.5,-376.066 244.5,-376.066 244.5,-340.066 309.5,-340.066 309.5,-376.066"/>
<text text-anchor="middle" x="277" y="-353.066" font-family="Times,serif" font-size="20.00" fill="#000000">body</text>
</g>
<!-- SG_0_Node_3&#45;&gt;SG_0_Node_4 -->
<g id="edge7" class="edge">
<title>SG_0_Node_3&#45;&gt;SG_0_Node_4</title>
<path fill="none" stroke="#000000" d="M312.4449,-632.2608C304.5933,-621.3325 295.5933,-606.7792 291,-592.2792 268.385,-520.8884 271.0311,-431.2467 274.3196,-386.3844"/>
<polygon fill="#000000" stroke="#000000" points="277.8228,-386.4836 275.1323,-376.236 270.8451,-385.9247 277.8228,-386.4836"/>
<text text-anchor="middle" x="323" y="-499.2792" font-family="Times,serif" font-size="20.00" fill="#000000">empty</text>
</g>
<!-- SG_0_Node_9 -->
<g id="node9" class="node">
<title>SG_0_Node_9</title>
<ellipse fill="none" stroke="#000000" cx="377" cy="-358.066" rx="34.7971" ry="21.4286"/>
<text text-anchor="middle" x="377" y="-353.066" font-family="Times,serif" font-size="20.00" fill="#000000">1.0</text>
</g>
<!-- SG_0_Node_3&#45;&gt;SG_0_Node_9 -->
<g id="edge8" class="edge">
<title>SG_0_Node_3&#45;&gt;SG_0_Node_9</title>
<path fill="none" stroke="#000000" d="M337.8357,-632.2767C343.9379,-621.1185 351.0974,-606.3264 355,-592.2792 374.5845,-521.7872 377.5327,-435.2643 377.5376,-389.6635"/>
<polygon fill="#000000" stroke="#000000" points="381.037,-389.4977 377.4891,-379.5146 374.037,-389.5313 381.037,-389.4977"/>
<text text-anchor="middle" x="488" y="-576.2792" font-family="Times,serif" font-size="20.00" fill="#000000">[NA]</text>
<text text-anchor="middle" x="488" y="-554.2792" font-family="Times,serif" font-size="20.00" fill="#000000">application/javascript</text>
<text text-anchor="middle" x="488" y="-532.2792" font-family="Times,serif" font-size="20.00" fill="#000000">application/pdf</text>
<text text-anchor="middle" x="488" y="-510.2792" font-family="Times,serif" font-size="20.00" fill="#000000">audio/wav</text>
<text text-anchor="middle" x="488" y="-488.2792" font-family="Times,serif" font-size="20.00" fill="#000000">image/png</text>
<text text-anchor="middle" x="488" y="-466.2792" font-family="Times,serif" font-size="20.00" fill="#000000">text/css</text>
<text text-anchor="middle" x="488" y="-444.2792" font-family="Times,serif" font-size="20.00" fill="#000000">text/html</text>
<text text-anchor="middle" x="488" y="-422.2792" font-family="Times,serif" font-size="20.00" fill="#000000">video/mp4</text>
</g>
<!-- SG_0_Node_5 -->
<g id="node10" class="node">
<title>SG_0_Node_5</title>
<polygon fill="none" stroke="#000000" points="278,-215.6396 16,-215.6396 16,-179.6396 278,-179.6396 278,-215.6396"/>
<text text-anchor="middle" x="147" y="-192.6396" font-family="Times,serif" font-size="20.00" fill="#000000">X&#45;Content&#45;Type&#45;Options</text>
</g>
<!-- SG_0_Node_4&#45;&gt;SG_0_Node_5 -->
<g id="edge9" class="edge">
<title>SG_0_Node_4&#45;&gt;SG_0_Node_5</title>
<path fill="none" stroke="#000000" d="M244.408,-354.6412C187.0812,-347.872 71.985,-330.6978 48,-299.8528 35.9958,-284.4153 38.2897,-272.8272 48,-255.8528 56.6487,-240.7343 70.9224,-229.1553 85.9753,-220.4606"/>
<polygon fill="#000000" stroke="#000000" points="87.7394,-223.4861 94.8916,-215.6697 84.4261,-217.3198 87.7394,-223.4861"/>
<text text-anchor="middle" x="293.5" y="-283.8528" font-family="Times,serif" font-size="20.00" fill="#000000">ecocnt_audio=duration=1</text>
<text text-anchor="middle" x="293.5" y="-261.8528" font-family="Times,serif" font-size="20.00" fill="#000000">ecocnt_vid=width=100,height=100,duration=2</text>
</g>
<!-- SG_0_Node_10 -->
<g id="node11" class="node">
<title>SG_0_Node_10</title>
<ellipse fill="none" stroke="#000000" cx="561" cy="-197.6396" rx="34.7971" ry="21.4286"/>
<text text-anchor="middle" x="561" y="-192.6396" font-family="Times,serif" font-size="20.00" fill="#000000">1.0</text>
</g>
<!-- SG_0_Node_4&#45;&gt;SG_0_Node_10 -->
<g id="edge10" class="edge">
<title>SG_0_Node_4&#45;&gt;SG_0_Node_10</title>
<path fill="none" stroke="#000000" d="M309.5325,-344.5866C317.1442,-341.757 325.2846,-338.9874 333,-336.8528 422.6528,-312.0493 472.1066,-364.4912 539,-299.8528 557.7061,-281.7773 562.3633,-251.9093 562.8386,-229.1153"/>
<polygon fill="#000000" stroke="#000000" points="566.3376,-228.8757 562.789,-218.8928 559.3377,-228.9097 566.3376,-228.8757"/>
<text text-anchor="middle" x="606" y="-283.8528" font-family="Times,serif" font-size="20.00" fill="#000000">[NA]</text>
<text text-anchor="middle" x="606" y="-261.8528" font-family="Times,serif" font-size="20.00" fill="#000000">11 levels</text>
</g>
<!-- SG_0_Node_11 -->
<g id="node12" class="node">
<title>SG_0_Node_11</title>
<ellipse fill="none" stroke="#000000" cx="99" cy="-37.2132" rx="34.7971" ry="21.4286"/>
<text text-anchor="middle" x="99" y="-32.2132" font-family="Times,serif" font-size="20.00" fill="#000000">0.0</text>
</g>
<!-- SG_0_Node_5&#45;&gt;SG_0_Node_11 -->
<g id="edge11" class="edge">
<title>SG_0_Node_5&#45;&gt;SG_0_Node_11</title>
<path fill="none" stroke="#000000" d="M133.8364,-179.4114C126.5211,-168.3683 117.9263,-153.6983 113,-139.4264 105.0872,-116.5024 101.6283,-89.2347 100.1254,-68.6308"/>
<polygon fill="#000000" stroke="#000000" points="103.6111,-68.2886 99.5046,-58.522 96.6242,-68.7178 103.6111,-68.2886"/>
<text text-anchor="middle" x="145" y="-123.4264" font-family="Times,serif" font-size="20.00" fill="#000000">[NA]</text>
<text text-anchor="middle" x="145" y="-101.4264" font-family="Times,serif" font-size="20.00" fill="#000000">empty</text>
</g>
<!-- SG_0_Node_12 -->
<g id="node13" class="node">
<title>SG_0_Node_12</title>
<ellipse fill="none" stroke="#000000" cx="199" cy="-37.2132" rx="34.7971" ry="21.4286"/>
<text text-anchor="middle" x="199" y="-32.2132" font-family="Times,serif" font-size="20.00" fill="#000000">1.0</text>
</g>
<!-- SG_0_Node_5&#45;&gt;SG_0_Node_12 -->
<g id="edge12" class="edge">
<title>SG_0_Node_5&#45;&gt;SG_0_Node_12</title>
<path fill="none" stroke="#000000" d="M157.8807,-179.5854C164.2399,-168.3632 171.9779,-153.4483 177,-139.4264 185.2871,-116.2885 190.9623,-89.0333 194.4702,-68.4885"/>
<polygon fill="#000000" stroke="#000000" points="197.958,-68.8462 196.1095,-58.4139 191.0488,-67.7219 197.958,-68.8462"/>
<text text-anchor="middle" x="224" y="-112.4264" font-family="Times,serif" font-size="20.00" fill="#000000">nosniff</text>
</g>
<!-- SG_1_Node_0 -->
<g id="node14" class="node">
<title>SG_1_Node_0</title>
<polygon fill="none" stroke="#000000" points="978,-1278.5584 836,-1278.5584 836,-1242.5584 978,-1242.5584 978,-1278.5584"/>
<text text-anchor="middle" x="907" y="-1255.5584" font-family="Times,serif" font-size="20.00" fill="#000000">Status&#45;Code</text>
</g>
<!-- SG_1_Node_6 -->
<g id="node15" class="node">
<title>SG_1_Node_6</title>
<ellipse fill="none" stroke="#000000" cx="826" cy="-1103.3452" rx="34.7971" ry="21.4286"/>
<text text-anchor="middle" x="826" y="-1098.3452" font-family="Times,serif" font-size="20.00" fill="#000000">0.0</text>
</g>
<!-- SG_1_Node_0&#45;&gt;SG_1_Node_6 -->
<g id="edge13" class="edge">
<title>SG_1_Node_0&#45;&gt;SG_1_Node_6</title>
<path fill="none" stroke="#000000" d="M891.2568,-1242.0683C883.0116,-1231.7778 873.1682,-1218.4702 866,-1205.5584 853.2821,-1182.6503 842.6866,-1154.8634 835.6024,-1134.0472"/>
<polygon fill="#000000" stroke="#000000" points="838.8856,-1132.8281 832.4129,-1124.4403 832.2422,-1135.0338 838.8856,-1132.8281"/>
<text text-anchor="middle" x="912" y="-1189.5584" font-family="Times,serif" font-size="20.00" fill="#000000">[NA]</text>
<text text-anchor="middle" x="912" y="-1167.5584" font-family="Times,serif" font-size="20.00" fill="#000000">51 levels</text>
</g>
<!-- SG_1_Node_1 -->
<g id="node16" class="node">
<title>SG_1_Node_1</title>
<polygon fill="none" stroke="#000000" points="1099.5,-1121.3452 878.5,-1121.3452 878.5,-1085.3452 1099.5,-1085.3452 1099.5,-1121.3452"/>
<text text-anchor="middle" x="989" y="-1098.3452" font-family="Times,serif" font-size="20.00" fill="#000000">Content&#45;Disposition</text>
</g>
<!-- SG_1_Node_0&#45;&gt;SG_1_Node_1 -->
<g id="edge14" class="edge">
<title>SG_1_Node_0&#45;&gt;SG_1_Node_1</title>
<path fill="none" stroke="#000000" d="M927.791,-1242.4516C938.1379,-1232.4739 950.0913,-1219.3368 958,-1205.5584 971.267,-1182.4448 979.4081,-1153.0686 983.9973,-1131.7461"/>
<polygon fill="#000000" stroke="#000000" points="987.4777,-1132.1926 986.0267,-1121.6976 980.6162,-1130.8067 987.4777,-1132.1926"/>
<text text-anchor="middle" x="1022" y="-1178.5584" font-family="Times,serif" font-size="20.00" fill="#000000">11 levels</text>
</g>
<!-- SG_1_Node_2 -->
<g id="node17" class="node">
<title>SG_1_Node_2</title>
<polygon fill="none" stroke="#000000" points="998,-960.9188 856,-960.9188 856,-924.9188 998,-924.9188 998,-960.9188"/>
<text text-anchor="middle" x="927" y="-937.9188" font-family="Times,serif" font-size="20.00" fill="#000000">Status&#45;Code</text>
</g>
<!-- SG_1_Node_1&#45;&gt;SG_1_Node_2 -->
<g id="edge15" class="edge">
<title>SG_1_Node_1&#45;&gt;SG_1_Node_2</title>
<path fill="none" stroke="#000000" d="M978.5738,-1085.1164C972.3805,-1073.8304 964.6574,-1058.9099 959,-1045.132 948.9095,-1020.5581 940.1154,-991.5793 934.3133,-970.7651"/>
<polygon fill="#000000" stroke="#000000" points="937.6501,-969.6982 931.6369,-960.9751 930.8979,-971.5442 937.6501,-969.6982"/>
<text text-anchor="middle" x="991" y="-1018.132" font-family="Times,serif" font-size="20.00" fill="#000000">empty</text>
</g>
<!-- SG_1_Node_7 -->
<g id="node18" class="node">
<title>SG_1_Node_7</title>
<ellipse fill="none" stroke="#000000" cx="1051" cy="-942.9188" rx="34.7971" ry="21.4286"/>
<text text-anchor="middle" x="1051" y="-937.9188" font-family="Times,serif" font-size="20.00" fill="#000000">1.0</text>
</g>
<!-- SG_1_Node_1&#45;&gt;SG_1_Node_7 -->
<g id="edge16" class="edge">
<title>SG_1_Node_1&#45;&gt;SG_1_Node_7</title>
<path fill="none" stroke="#000000" d="M1001.316,-1085.1141C1008.4274,-1073.9505 1017.103,-1059.158 1023,-1045.132 1032.6996,-1022.0617 1039.9965,-994.6516 1044.7057,-974.0262"/>
<polygon fill="#000000" stroke="#000000" points="1048.1354,-974.726 1046.87,-964.207 1041.2995,-973.2191 1048.1354,-974.726"/>
<text text-anchor="middle" x="1096" y="-1029.132" font-family="Times,serif" font-size="20.00" fill="#000000">[NA]</text>
<text text-anchor="middle" x="1096" y="-1007.132" font-family="Times,serif" font-size="20.00" fill="#000000">attachment</text>
</g>
<!-- SG_1_Node_3 -->
<g id="node19" class="node">
<title>SG_1_Node_3</title>
<polygon fill="none" stroke="#000000" points="939.5,-668.4924 784.5,-668.4924 784.5,-632.4924 939.5,-632.4924 939.5,-668.4924"/>
<text text-anchor="middle" x="862" y="-645.4924" font-family="Times,serif" font-size="20.00" fill="#000000">Content&#45;Type</text>
</g>
<!-- SG_1_Node_2&#45;&gt;SG_1_Node_3 -->
<g id="edge17" class="edge">
<title>SG_1_Node_2&#45;&gt;SG_1_Node_3</title>
<path fill="none" stroke="#000000" d="M922.934,-924.6262C911.922,-875.085 881.4634,-738.0555 868.2501,-678.6107"/>
<polygon fill="#000000" stroke="#000000" points="871.651,-677.7804 866.0645,-668.7781 864.8178,-679.2993 871.651,-677.7804"/>
<text text-anchor="middle" x="932.5" y="-868.7056" font-family="Times,serif" font-size="20.00" fill="#000000">200</text>
<text text-anchor="middle" x="932.5" y="-846.7056" font-family="Times,serif" font-size="20.00" fill="#000000">201</text>
<text text-anchor="middle" x="932.5" y="-824.7056" font-family="Times,serif" font-size="20.00" fill="#000000">202</text>
<text text-anchor="middle" x="932.5" y="-802.7056" font-family="Times,serif" font-size="20.00" fill="#000000">203</text>
<text text-anchor="middle" x="932.5" y="-780.7056" font-family="Times,serif" font-size="20.00" fill="#000000">206</text>
<text text-anchor="middle" x="932.5" y="-758.7056" font-family="Times,serif" font-size="20.00" fill="#000000">207</text>
<text text-anchor="middle" x="932.5" y="-736.7056" font-family="Times,serif" font-size="20.00" fill="#000000">208</text>
<text text-anchor="middle" x="932.5" y="-714.7056" font-family="Times,serif" font-size="20.00" fill="#000000">226</text>
</g>
<!-- SG_1_Node_8 -->
<g id="node20" class="node">
<title>SG_1_Node_8</title>
<ellipse fill="none" stroke="#000000" cx="992" cy="-650.4924" rx="34.7971" ry="21.4286"/>
<text text-anchor="middle" x="992" y="-645.4924" font-family="Times,serif" font-size="20.00" fill="#000000">1.0</text>
</g>
<!-- SG_1_Node_2&#45;&gt;SG_1_Node_8 -->
<g id="edge18" class="edge">
<title>SG_1_Node_2&#45;&gt;SG_1_Node_8</title>
<path fill="none" stroke="#000000" d="M937.9329,-924.662C944.1504,-913.4893 951.5593,-898.6962 956,-884.7056 978.2956,-814.4623 987.016,-727.84 990.2426,-682.1572"/>
<polygon fill="#000000" stroke="#000000" points="993.7474,-682.1988 990.9168,-671.9891 986.7627,-681.7355 993.7474,-682.1988"/>
<text text-anchor="middle" x="1007.5" y="-813.7056" font-family="Times,serif" font-size="20.00" fill="#000000">204</text>
<text text-anchor="middle" x="1007.5" y="-791.7056" font-family="Times,serif" font-size="20.00" fill="#000000">205</text>
<text text-anchor="middle" x="1007.5" y="-769.7056" font-family="Times,serif" font-size="20.00" fill="#000000">304</text>
</g>
<!-- SG_1_Node_9 -->
<g id="node21" class="node">
<title>SG_1_Node_9</title>
<ellipse fill="none" stroke="#000000" cx="787" cy="-358.066" rx="34.7971" ry="21.4286"/>
<text text-anchor="middle" x="787" y="-353.066" font-family="Times,serif" font-size="20.00" fill="#000000">0.0</text>
</g>
<!-- SG_1_Node_3&#45;&gt;SG_1_Node_9 -->
<g id="edge19" class="edge">
<title>SG_1_Node_3&#45;&gt;SG_1_Node_9</title>
<path fill="none" stroke="#000000" d="M835.2177,-632.4065C822.4873,-622.2321 808.4522,-608.3483 801,-592.2792 769.9963,-525.4263 775.8201,-436.0968 781.9043,-389.4433"/>
<polygon fill="#000000" stroke="#000000" points="785.3972,-389.7366 783.3135,-379.3487 778.4644,-388.7687 785.3972,-389.7366"/>
<text text-anchor="middle" x="912" y="-576.2792" font-family="Times,serif" font-size="20.00" fill="#000000">[NA]</text>
<text text-anchor="middle" x="912" y="-554.2792" font-family="Times,serif" font-size="20.00" fill="#000000">application/javascript</text>
<text text-anchor="middle" x="912" y="-532.2792" font-family="Times,serif" font-size="20.00" fill="#000000">application/pdf</text>
<text text-anchor="middle" x="912" y="-510.2792" font-family="Times,serif" font-size="20.00" fill="#000000">audio/wav</text>
<text text-anchor="middle" x="912" y="-488.2792" font-family="Times,serif" font-size="20.00" fill="#000000">image/png</text>
<text text-anchor="middle" x="912" y="-466.2792" font-family="Times,serif" font-size="20.00" fill="#000000">text/css</text>
<text text-anchor="middle" x="912" y="-444.2792" font-family="Times,serif" font-size="20.00" fill="#000000">text/html</text>
<text text-anchor="middle" x="912" y="-422.2792" font-family="Times,serif" font-size="20.00" fill="#000000">video/mp4</text>
</g>
<!-- SG_1_Node_4 -->
<g id="node22" class="node">
<title>SG_1_Node_4</title>
<polygon fill="none" stroke="#000000" points="1077.5,-376.066 1012.5,-376.066 1012.5,-340.066 1077.5,-340.066 1077.5,-376.066"/>
<text text-anchor="middle" x="1045" y="-353.066" font-family="Times,serif" font-size="20.00" fill="#000000">body</text>
</g>
<!-- SG_1_Node_3&#45;&gt;SG_1_Node_4 -->
<g id="edge20" class="edge">
<title>SG_1_Node_3&#45;&gt;SG_1_Node_4</title>
<path fill="none" stroke="#000000" d="M934.6425,-632.4137C971.733,-621.6471 1011.4468,-607.2037 1023,-592.2792 1069.9493,-531.6297 1059.8555,-433.923 1051.1447,-386.1661"/>
<polygon fill="#000000" stroke="#000000" points="1054.5568,-385.3762 1049.2173,-376.2252 1047.6848,-386.7086 1054.5568,-385.3762"/>
<text text-anchor="middle" x="1090" y="-499.2792" font-family="Times,serif" font-size="20.00" fill="#000000">empty</text>
</g>
<!-- SG_1_Node_10 -->
<g id="node23" class="node">
<title>SG_1_Node_10</title>
<ellipse fill="none" stroke="#000000" cx="960" cy="-197.6396" rx="34.7971" ry="21.4286"/>
<text text-anchor="middle" x="960" y="-192.6396" font-family="Times,serif" font-size="20.00" fill="#000000">0.0</text>
</g>
<!-- SG_1_Node_4&#45;&gt;SG_1_Node_10 -->
<g id="edge21" class="edge">
<title>SG_1_Node_4&#45;&gt;SG_1_Node_10</title>
<path fill="none" stroke="#000000" d="M1029.8303,-339.984C1020.9805,-328.8733 1010.0172,-314.084 1002,-299.8528 989.0522,-276.8696 977.8968,-249.0882 970.3435,-228.2933"/>
<polygon fill="#000000" stroke="#000000" points="973.58,-226.9481 966.9329,-218.6978 966.9842,-229.2925 973.58,-226.9481"/>
<text text-anchor="middle" x="1048" y="-283.8528" font-family="Times,serif" font-size="20.00" fill="#000000">[NA]</text>
<text text-anchor="middle" x="1048" y="-261.8528" font-family="Times,serif" font-size="20.00" fill="#000000">11 levels</text>
</g>
<!-- SG_1_Node_5 -->
<g id="node24" class="node">
<title>SG_1_Node_5</title>
<polygon fill="none" stroke="#000000" points="1275,-215.6396 1013,-215.6396 1013,-179.6396 1275,-179.6396 1275,-215.6396"/>
<text text-anchor="middle" x="1144" y="-192.6396" font-family="Times,serif" font-size="20.00" fill="#000000">X&#45;Content&#45;Type&#45;Options</text>
</g>
<!-- SG_1_Node_4&#45;&gt;SG_1_Node_5 -->
<g id="edge22" class="edge">
<title>SG_1_Node_4&#45;&gt;SG_1_Node_5</title>
<path fill="none" stroke="#000000" d="M1062.346,-339.8433C1072.3299,-328.8022 1084.6994,-314.1321 1094,-299.8528 1109.6367,-275.8456 1123.6039,-246.2341 1132.7745,-225.0736"/>
<polygon fill="#000000" stroke="#000000" points="1136.0632,-226.2837 1136.7582,-215.7117 1129.6221,-223.5428 1136.0632,-226.2837"/>
<text text-anchor="middle" x="1363.5" y="-283.8528" font-family="Times,serif" font-size="20.00" fill="#000000">ecocnt_audio=duration=1</text>
<text text-anchor="middle" x="1363.5" y="-261.8528" font-family="Times,serif" font-size="20.00" fill="#000000">ecocnt_vid=width=100,height=100,duration=2</text>
</g>
<!-- SG_1_Node_11 -->
<g id="node25" class="node">
<title>SG_1_Node_11</title>
<ellipse fill="none" stroke="#000000" cx="1091" cy="-37.2132" rx="34.7971" ry="21.4286"/>
<text text-anchor="middle" x="1091" y="-32.2132" font-family="Times,serif" font-size="20.00" fill="#000000">0.0</text>
</g>
<!-- SG_1_Node_5&#45;&gt;SG_1_Node_11 -->
<g id="edge23" class="edge">
<title>SG_1_Node_5&#45;&gt;SG_1_Node_11</title>
<path fill="none" stroke="#000000" d="M1128.6489,-179.4495C1120.2819,-168.535 1110.5319,-153.9817 1105,-139.4264 1096.3844,-116.7572 1092.9661,-89.4748 1091.6575,-68.8005"/>
<polygon fill="#000000" stroke="#000000" points="1095.145,-68.4633 1091.1491,-58.6509 1088.1538,-68.8135 1095.145,-68.4633"/>
<text text-anchor="middle" x="1140" y="-112.4264" font-family="Times,serif" font-size="20.00" fill="#000000">nosniff</text>
</g>
<!-- SG_1_Node_12 -->
<g id="node26" class="node">
<title>SG_1_Node_12</title>
<ellipse fill="none" stroke="#000000" cx="1197" cy="-37.2132" rx="34.7971" ry="21.4286"/>
<text text-anchor="middle" x="1197" y="-32.2132" font-family="Times,serif" font-size="20.00" fill="#000000">1.0</text>
</g>
<!-- SG_1_Node_5&#45;&gt;SG_1_Node_12 -->
<g id="edge24" class="edge">
<title>SG_1_Node_5&#45;&gt;SG_1_Node_12</title>
<path fill="none" stroke="#000000" d="M1155.2697,-179.6318C1161.8505,-168.4266 1169.8473,-153.5133 1175,-139.4264 1183.4428,-116.3449 1189.109,-89.0864 1192.5739,-68.526"/>
<polygon fill="#000000" stroke="#000000" points="1196.0633,-68.87 1194.1882,-58.4424 1189.1513,-67.7633 1196.0633,-68.87"/>
<text text-anchor="middle" x="1219" y="-123.4264" font-family="Times,serif" font-size="20.00" fill="#000000">[NA]</text>
<text text-anchor="middle" x="1219" y="-101.4264" font-family="Times,serif" font-size="20.00" fill="#000000">empty</text>
</g>
</g>
</svg>
