<?xml version="1.0" encoding="UTF-8" standalone="no"?>
<!DOCTYPE svg PUBLIC "-//W3C//DTD SVG 1.1//EN"
 "http://www.w3.org/Graphics/SVG/1.1/DTD/svg11.dtd">
<!-- Generated by graphviz version 2.40.1 (20161225.0304)
 -->
<!-- Title: G Pages: 1 -->
<svg width="2878pt" height="1675pt"
 viewBox="0.00 0.00 2878.00 1675.41" xmlns="http://www.w3.org/2000/svg" xmlns:xlink="http://www.w3.org/1999/xlink">
<g id="graph0" class="graph" transform="scale(1 1) rotate(0) translate(4 1671.4113)">
<title>G</title>
<polygon fill="#ffffff" stroke="transparent" points="-4,4 -4,-1671.4113 2874,-1671.4113 2874,4 -4,4"/>
<g id="clust1" class="cluster">
<title>cluster_0</title>
<polygon fill="none" stroke="#000000" points="8,-8 8,-1659.4113 2332,-1659.4113 2332,-8 8,-8"/>
<text text-anchor="middle" x="1170" y="-1623.4113" font-family="Times,serif" font-size="40.00" fill="#000000">Tree 0, Class [&#39;Origin: https://127.0.0.1:44300, Message: mes1&#39;, &#39;Origin: https://127.0.0.1:44300, Message: mes1&#39;]</text>
</g>
<g id="clust11" class="cluster">
<title>cluster_1</title>
<polygon fill="none" stroke="#000000" points="2340,-8 2340,-1659.4113 2860,-1659.4113 2860,-8 2340,-8"/>
<text text-anchor="middle" x="2600" y="-1623.4113" font-family="Times,serif" font-size="40.00" fill="#000000">Tree 0, Class uncalled</text>
</g>
<!-- SG_0_Node_0 -->
<g id="node1" class="node">
<title>SG_0_Node_0</title>
<polygon fill="none" stroke="#000000" points="212.5,-1599.4113 147.5,-1599.4113 147.5,-1563.4113 212.5,-1563.4113 212.5,-1599.4113"/>
<text text-anchor="middle" x="180" y="-1576.4113" font-family="Times,serif" font-size="20.00" fill="#000000">body</text>
</g>
<!-- SG_0_Node_8 -->
<g id="node2" class="node">
<title>SG_0_Node_8</title>
<ellipse fill="none" stroke="#000000" cx="115" cy="-1424.1981" rx="34.7971" ry="21.4286"/>
<text text-anchor="middle" x="115" y="-1419.1981" font-family="Times,serif" font-size="20.00" fill="#000000">0.0</text>
</g>
<!-- SG_0_Node_0&#45;&gt;SG_0_Node_8 -->
<g id="edge1" class="edge">
<title>SG_0_Node_0&#45;&gt;SG_0_Node_8</title>
<path fill="none" stroke="#000000" d="M158.2648,-1563.189C148.0207,-1553.37 136.6206,-1540.4101 130,-1526.4113 119.5523,-1504.3202 115.9768,-1476.7906 114.9177,-1455.8692"/>
<polygon fill="#000000" stroke="#000000" points="118.4063,-1455.4707 114.5702,-1445.5948 111.4103,-1455.7074 118.4063,-1455.4707"/>
<text text-anchor="middle" x="176" y="-1510.4113" font-family="Times,serif" font-size="20.00" fill="#000000">[NA]</text>
<text text-anchor="middle" x="176" y="-1488.4113" font-family="Times,serif" font-size="20.00" fill="#000000">12 levels</text>
</g>
<!-- SG_0_Node_1 -->
<g id="node3" class="node">
<title>SG_0_Node_1</title>
<polygon fill="none" stroke="#000000" points="322.5,-1442.1981 167.5,-1442.1981 167.5,-1406.1981 322.5,-1406.1981 322.5,-1442.1981"/>
<text text-anchor="middle" x="245" y="-1419.1981" font-family="Times,serif" font-size="20.00" fill="#000000">Content&#45;Type</text>
</g>
<!-- SG_0_Node_0&#45;&gt;SG_0_Node_1 -->
<g id="edge2" class="edge">
<title>SG_0_Node_0&#45;&gt;SG_0_Node_1</title>
<path fill="none" stroke="#000000" d="M196.9577,-1563.3898C205.6473,-1553.2365 215.6983,-1539.9106 222,-1526.4113 233.0577,-1502.724 238.9487,-1473.4182 241.9891,-1452.2679"/>
<polygon fill="#000000" stroke="#000000" points="245.4645,-1452.6834 243.2973,-1442.3127 238.5242,-1451.7714 245.4645,-1452.6834"/>
<text text-anchor="middle" x="415" y="-1499.4113" font-family="Times,serif" font-size="20.00" fill="#000000">ecocnt_html=post_message=mes1</text>
</g>
<!-- SG_0_Node_9 -->
<g id="node4" class="node">
<title>SG_0_Node_9</title>
<ellipse fill="none" stroke="#000000" cx="69" cy="-1153.7716" rx="34.7971" ry="21.4286"/>
<text text-anchor="middle" x="69" y="-1148.7716" font-family="Times,serif" font-size="20.00" fill="#000000">0.0</text>
</g>
<!-- SG_0_Node_1&#45;&gt;SG_0_Node_9 -->
<g id="edge3" class="edge">
<title>SG_0_Node_1&#45;&gt;SG_0_Node_9</title>
<path fill="none" stroke="#000000" d="M178.2818,-1406.1895C131.3887,-1392.8611 75.8325,-1375.4413 69,-1365.9848 30.0657,-1312.0983 46.0179,-1228.7432 58.8256,-1184.2344"/>
<polygon fill="#000000" stroke="#000000" points="62.2029,-1185.1572 61.7339,-1174.5727 55.5,-1183.1395 62.2029,-1185.1572"/>
<text text-anchor="middle" x="180" y="-1349.9848" font-family="Times,serif" font-size="20.00" fill="#000000">[NA]</text>
<text text-anchor="middle" x="180" y="-1327.9848" font-family="Times,serif" font-size="20.00" fill="#000000">application/javascript</text>
<text text-anchor="middle" x="180" y="-1305.9848" font-family="Times,serif" font-size="20.00" fill="#000000">application/pdf</text>
<text text-anchor="middle" x="180" y="-1283.9848" font-family="Times,serif" font-size="20.00" fill="#000000">audio/wav</text>
<text text-anchor="middle" x="180" y="-1261.9848" font-family="Times,serif" font-size="20.00" fill="#000000">image/png</text>
<text text-anchor="middle" x="180" y="-1239.9848" font-family="Times,serif" font-size="20.00" fill="#000000">text/css</text>
<text text-anchor="middle" x="180" y="-1217.9848" font-family="Times,serif" font-size="20.00" fill="#000000">video/mp4</text>
</g>
<!-- SG_0_Node_2 -->
<g id="node5" class="node">
<title>SG_0_Node_2</title>
<polygon fill="none" stroke="#000000" points="457,-1171.7716 197,-1171.7716 197,-1135.7716 457,-1135.7716 457,-1171.7716"/>
<text text-anchor="middle" x="327" y="-1148.7716" font-family="Times,serif" font-size="20.00" fill="#000000">Content&#45;Security&#45;Policy</text>
</g>
<!-- SG_0_Node_1&#45;&gt;SG_0_Node_2 -->
<g id="edge4" class="edge">
<title>SG_0_Node_1&#45;&gt;SG_0_Node_2</title>
<path fill="none" stroke="#000000" d="M265.4292,-1405.9616C275.9794,-1395.3585 288.063,-1381.1245 295,-1365.9848 323.0556,-1304.7552 327.4454,-1224.1873 327.6025,-1182.1198"/>
<polygon fill="#000000" stroke="#000000" points="331.1023,-1182.0325 327.5601,-1172.0474 324.1023,-1182.0621 331.1023,-1182.0325"/>
<text text-anchor="middle" x="373" y="-1294.9848" font-family="Times,serif" font-size="20.00" fill="#000000">empty</text>
<text text-anchor="middle" x="373" y="-1272.9848" font-family="Times,serif" font-size="20.00" fill="#000000">text/html</text>
</g>
<!-- SG_0_Node_10 -->
<g id="node6" class="node">
<title>SG_0_Node_10</title>
<ellipse fill="none" stroke="#000000" cx="106" cy="-971.3452" rx="34.7971" ry="21.4286"/>
<text text-anchor="middle" x="106" y="-966.3452" font-family="Times,serif" font-size="20.00" fill="#000000">0.0</text>
</g>
<!-- SG_0_Node_2&#45;&gt;SG_0_Node_10 -->
<g id="edge5" class="edge">
<title>SG_0_Node_2&#45;&gt;SG_0_Node_10</title>
<path fill="none" stroke="#000000" d="M215.5576,-1135.7142C170.9532,-1126.0813 126.8429,-1112.6506 113,-1095.5584 92.0262,-1069.6616 93.7912,-1029.8615 98.5045,-1002.3236"/>
<polygon fill="#000000" stroke="#000000" points="101.9565,-1002.9063 100.414,-992.4244 95.0832,-1001.5804 101.9565,-1002.9063"/>
<text text-anchor="middle" x="223.5" y="-1079.5584" font-family="Times,serif" font-size="20.00" fill="#000000">[NA]</text>
<text text-anchor="middle" x="223.5" y="-1057.5584" font-family="Times,serif" font-size="20.00" fill="#000000">default&#45;src &#39;self&#39;</text>
<text text-anchor="middle" x="223.5" y="-1035.5584" font-family="Times,serif" font-size="20.00" fill="#000000">frame&#45;ancestors &#39;self&#39;</text>
</g>
<!-- SG_0_Node_3 -->
<g id="node7" class="node">
<title>SG_0_Node_3</title>
<polygon fill="none" stroke="#000000" points="458.5,-989.3452 267.5,-989.3452 267.5,-953.3452 458.5,-953.3452 458.5,-989.3452"/>
<text text-anchor="middle" x="363" y="-966.3452" font-family="Times,serif" font-size="20.00" fill="#000000">X&#45;Frame&#45;Options</text>
</g>
<!-- SG_0_Node_2&#45;&gt;SG_0_Node_3 -->
<g id="edge6" class="edge">
<title>SG_0_Node_2&#45;&gt;SG_0_Node_3</title>
<path fill="none" stroke="#000000" d="M330.5834,-1135.613C336.8909,-1103.6505 350.0142,-1037.1497 357.4844,-999.2952"/>
<polygon fill="#000000" stroke="#000000" points="360.9287,-999.9189 359.4311,-989.4305 354.0611,-998.5636 360.9287,-999.9189"/>
<text text-anchor="middle" x="383" y="-1057.5584" font-family="Times,serif" font-size="20.00" fill="#000000">empty</text>
</g>
<!-- SG_0_Node_11 -->
<g id="node8" class="node">
<title>SG_0_Node_11</title>
<ellipse fill="none" stroke="#000000" cx="237" cy="-810.9188" rx="34.7971" ry="21.4286"/>
<text text-anchor="middle" x="237" y="-805.9188" font-family="Times,serif" font-size="20.00" fill="#000000">0.0</text>
</g>
<!-- SG_0_Node_3&#45;&gt;SG_0_Node_11 -->
<g id="edge7" class="edge">
<title>SG_0_Node_3&#45;&gt;SG_0_Node_11</title>
<path fill="none" stroke="#000000" d="M348.7911,-953.2541C326.8133,-925.2714 284.4233,-871.2993 258.6259,-838.4535"/>
<polygon fill="#000000" stroke="#000000" points="261.0633,-835.8903 252.134,-830.1878 255.5582,-840.214 261.0633,-835.8903"/>
<text text-anchor="middle" x="340.5" y="-886.132" font-family="Times,serif" font-size="20.00" fill="#000000">deny</text>
</g>
<!-- SG_0_Node_4 -->
<g id="node9" class="node">
<title>SG_0_Node_4</title>
<polygon fill="none" stroke="#000000" points="510.5,-828.9188 289.5,-828.9188 289.5,-792.9188 510.5,-792.9188 510.5,-828.9188"/>
<text text-anchor="middle" x="400" y="-805.9188" font-family="Times,serif" font-size="20.00" fill="#000000">Content&#45;Disposition</text>
</g>
<!-- SG_0_Node_3&#45;&gt;SG_0_Node_4 -->
<g id="edge8" class="edge">
<title>SG_0_Node_3&#45;&gt;SG_0_Node_4</title>
<path fill="none" stroke="#000000" d="M367.1724,-953.2541C373.5846,-925.4519 385.9138,-871.9947 393.5023,-839.0919"/>
<polygon fill="#000000" stroke="#000000" points="396.9491,-839.7208 395.786,-829.19 390.1281,-838.1476 396.9491,-839.7208"/>
<text text-anchor="middle" x="418" y="-897.132" font-family="Times,serif" font-size="20.00" fill="#000000">[NA]</text>
<text text-anchor="middle" x="418" y="-875.132" font-family="Times,serif" font-size="20.00" fill="#000000">empty</text>
</g>
<!-- SG_0_Node_12 -->
<g id="node10" class="node">
<title>SG_0_Node_12</title>
<ellipse fill="none" stroke="#000000" cx="264" cy="-650.4924" rx="34.7971" ry="21.4286"/>
<text text-anchor="middle" x="264" y="-645.4924" font-family="Times,serif" font-size="20.00" fill="#000000">0.0</text>
</g>
<!-- SG_0_Node_4&#45;&gt;SG_0_Node_12 -->
<g id="edge9" class="edge">
<title>SG_0_Node_4&#45;&gt;SG_0_Node_12</title>
<path fill="none" stroke="#000000" d="M339.3586,-792.8052C318.9296,-783.8421 297.831,-770.92 284,-752.7056 268.6824,-732.5335 264.1397,-703.8337 263.1664,-681.9782"/>
<polygon fill="#000000" stroke="#000000" points="266.6631,-681.7868 262.9437,-671.8663 259.6648,-681.941 266.6631,-681.7868"/>
<text text-anchor="middle" x="343" y="-725.7056" font-family="Times,serif" font-size="20.00" fill="#000000">attachment</text>
</g>
<!-- SG_0_Node_5 -->
<g id="node11" class="node">
<title>SG_0_Node_5</title>
<polygon fill="none" stroke="#000000" points="489,-668.4924 347,-668.4924 347,-632.4924 489,-632.4924 489,-668.4924"/>
<text text-anchor="middle" x="418" y="-645.4924" font-family="Times,serif" font-size="20.00" fill="#000000">Status&#45;Code</text>
</g>
<!-- SG_0_Node_4&#45;&gt;SG_0_Node_5 -->
<g id="edge10" class="edge">
<title>SG_0_Node_4&#45;&gt;SG_0_Node_5</title>
<path fill="none" stroke="#000000" d="M402.0298,-792.8277C405.1358,-765.1459 411.0954,-712.0306 414.7909,-679.0939"/>
<polygon fill="#000000" stroke="#000000" points="418.313,-679.0915 415.95,-668.7636 411.3567,-678.3109 418.313,-679.0915"/>
<text text-anchor="middle" x="443" y="-736.7056" font-family="Times,serif" font-size="20.00" fill="#000000">[NA]</text>
<text text-anchor="middle" x="443" y="-714.7056" font-family="Times,serif" font-size="20.00" fill="#000000">empty</text>
</g>
<!-- SG_0_Node_6 -->
<g id="node12" class="node">
<title>SG_0_Node_6</title>
<polygon fill="none" stroke="#000000" points="377,-508.066 235,-508.066 235,-472.066 377,-472.066 377,-508.066"/>
<text text-anchor="middle" x="306" y="-485.066" font-family="Times,serif" font-size="20.00" fill="#000000">Status&#45;Code</text>
</g>
<!-- SG_0_Node_5&#45;&gt;SG_0_Node_6 -->
<g id="edge11" class="edge">
<title>SG_0_Node_5&#45;&gt;SG_0_Node_6</title>
<path fill="none" stroke="#000000" d="M375.3069,-632.3884C357.8031,-622.8961 338.8979,-609.5899 327,-592.2792 312.0088,-570.468 307.2887,-540.263 305.999,-518.3478"/>
<polygon fill="#000000" stroke="#000000" points="309.4955,-518.1857 305.6115,-508.3285 302.5007,-518.4563 309.4955,-518.1857"/>
<text text-anchor="middle" x="373" y="-565.2792" font-family="Times,serif" font-size="20.00" fill="#000000">13 levels</text>
</g>
<!-- SG_0_Node_13 -->
<g id="node13" class="node">
<title>SG_0_Node_13</title>
<ellipse fill="none" stroke="#000000" cx="434" cy="-490.066" rx="34.7971" ry="21.4286"/>
<text text-anchor="middle" x="434" y="-485.066" font-family="Times,serif" font-size="20.00" fill="#000000">1.0</text>
</g>
<!-- SG_0_Node_5&#45;&gt;SG_0_Node_13 -->
<g id="edge12" class="edge">
<title>SG_0_Node_5&#45;&gt;SG_0_Node_13</title>
<path fill="none" stroke="#000000" d="M419.8043,-632.4013C422.4886,-605.4864 427.5709,-554.5279 430.8699,-521.4506"/>
<polygon fill="#000000" stroke="#000000" points="434.3632,-521.6907 431.873,-511.3927 427.3978,-520.996 434.3632,-521.6907"/>
<text text-anchor="middle" x="474" y="-576.2792" font-family="Times,serif" font-size="20.00" fill="#000000">[NA]</text>
<text text-anchor="middle" x="474" y="-554.2792" font-family="Times,serif" font-size="20.00" fill="#000000">49 levels</text>
</g>
<!-- SG_0_Node_14 -->
<g id="node14" class="node">
<title>SG_0_Node_14</title>
<ellipse fill="none" stroke="#000000" cx="241" cy="-219.6396" rx="34.7971" ry="21.4286"/>
<text text-anchor="middle" x="241" y="-214.6396" font-family="Times,serif" font-size="20.00" fill="#000000">0.0</text>
</g>
<!-- SG_0_Node_6&#45;&gt;SG_0_Node_14 -->
<g id="edge13" class="edge">
<title>SG_0_Node_6&#45;&gt;SG_0_Node_14</title>
<path fill="none" stroke="#000000" d="M292.46,-471.8859C284.9333,-460.8594 276.0858,-446.1898 271,-431.8528 249.2001,-370.3981 243.1882,-293.6358 241.5645,-251.322"/>
<polygon fill="#000000" stroke="#000000" points="245.055,-250.9691 241.2328,-241.0878 238.0587,-251.196 245.055,-250.9691"/>
<text text-anchor="middle" x="290.5" y="-415.8528" font-family="Times,serif" font-size="20.00" fill="#000000">100</text>
<text text-anchor="middle" x="290.5" y="-393.8528" font-family="Times,serif" font-size="20.00" fill="#000000">101</text>
<text text-anchor="middle" x="290.5" y="-371.8528" font-family="Times,serif" font-size="20.00" fill="#000000">102</text>
<text text-anchor="middle" x="290.5" y="-349.8528" font-family="Times,serif" font-size="20.00" fill="#000000">103</text>
<text text-anchor="middle" x="290.5" y="-327.8528" font-family="Times,serif" font-size="20.00" fill="#000000">204</text>
<text text-anchor="middle" x="290.5" y="-305.8528" font-family="Times,serif" font-size="20.00" fill="#000000">304</text>
<text text-anchor="middle" x="290.5" y="-283.8528" font-family="Times,serif" font-size="20.00" fill="#000000">407</text>
</g>
<!-- SG_0_Node_7 -->
<g id="node15" class="node">
<title>SG_0_Node_7</title>
<polygon fill="none" stroke="#000000" points="398.5,-237.6396 293.5,-237.6396 293.5,-201.6396 398.5,-201.6396 398.5,-237.6396"/>
<text text-anchor="middle" x="346" y="-214.6396" font-family="Times,serif" font-size="20.00" fill="#000000">Location</text>
</g>
<!-- SG_0_Node_6&#45;&gt;SG_0_Node_7 -->
<g id="edge14" class="edge">
<title>SG_0_Node_6&#45;&gt;SG_0_Node_7</title>
<path fill="none" stroke="#000000" d="M308.6866,-471.9027C315.5181,-425.7174 333.592,-303.5256 341.8175,-247.9158"/>
<polygon fill="#000000" stroke="#000000" points="345.3241,-248.1284 343.3251,-237.7239 338.3994,-247.1041 345.3241,-248.1284"/>
<text text-anchor="middle" x="356.5" y="-404.8528" font-family="Times,serif" font-size="20.00" fill="#000000">301</text>
<text text-anchor="middle" x="356.5" y="-382.8528" font-family="Times,serif" font-size="20.00" fill="#000000">302</text>
<text text-anchor="middle" x="356.5" y="-360.8528" font-family="Times,serif" font-size="20.00" fill="#000000">303</text>
<text text-anchor="middle" x="356.5" y="-338.8528" font-family="Times,serif" font-size="20.00" fill="#000000">305</text>
<text text-anchor="middle" x="356.5" y="-316.8528" font-family="Times,serif" font-size="20.00" fill="#000000">307</text>
<text text-anchor="middle" x="356.5" y="-294.8528" font-family="Times,serif" font-size="20.00" fill="#000000">308</text>
</g>
<!-- SG_0_Node_15 -->
<g id="node16" class="node">
<title>SG_0_Node_15</title>
<ellipse fill="none" stroke="#000000" cx="92" cy="-37.2132" rx="34.7971" ry="21.4286"/>
<text text-anchor="middle" x="92" y="-32.2132" font-family="Times,serif" font-size="20.00" fill="#000000">0.0</text>
</g>
<!-- SG_0_Node_7&#45;&gt;SG_0_Node_15 -->
<g id="edge15" class="edge">
<title>SG_0_Node_7&#45;&gt;SG_0_Node_15</title>
<path fill="none" stroke="#000000" d="M295.9149,-201.575C292.2398,-200.4488 288.5738,-199.3849 285,-198.4264 200.6417,-175.8006 147.6417,-228.7484 92,-161.4264 70.8033,-135.7801 75.1567,-95.9286 81.9621,-68.3102"/>
<polygon fill="#000000" stroke="#000000" points="85.4157,-68.9459 84.6421,-58.3793 78.6574,-67.122 85.4157,-68.9459"/>
<text text-anchor="middle" x="229" y="-145.4264" font-family="Times,serif" font-size="20.00" fill="#000000">[NA]</text>
<text text-anchor="middle" x="229" y="-123.4264" font-family="Times,serif" font-size="20.00" fill="#000000">/</text>
<text text-anchor="middle" x="229" y="-101.4264" font-family="Times,serif" font-size="20.00" fill="#000000">http://localhost:8000/echo/</text>
</g>
<!-- SG_0_Node_16 -->
<g id="node17" class="node">
<title>SG_0_Node_16</title>
<ellipse fill="none" stroke="#000000" cx="402" cy="-37.2132" rx="34.7971" ry="21.4286"/>
<text text-anchor="middle" x="402" y="-32.2132" font-family="Times,serif" font-size="20.00" fill="#000000">1.0</text>
</g>
<!-- SG_0_Node_7&#45;&gt;SG_0_Node_16 -->
<g id="edge16" class="edge">
<title>SG_0_Node_7&#45;&gt;SG_0_Node_16</title>
<path fill="none" stroke="#000000" d="M354.2274,-201.5328C359.2007,-190.1657 365.4391,-175.1165 370,-161.4264 380.3931,-130.2307 389.4428,-93.6983 395.2412,-68.3635"/>
<polygon fill="#000000" stroke="#000000" points="398.6635,-69.0976 397.4477,-58.5727 391.8347,-67.5585 398.6635,-69.0976"/>
<text text-anchor="middle" x="420" y="-123.4264" font-family="Times,serif" font-size="20.00" fill="#000000">empty</text>
</g>
<!-- SG_1_Node_0 -->
<g id="node18" class="node">
<title>SG_1_Node_0</title>
<polygon fill="none" stroke="#000000" points="2603.5,-1599.4113 2538.5,-1599.4113 2538.5,-1563.4113 2603.5,-1563.4113 2603.5,-1599.4113"/>
<text text-anchor="middle" x="2571" y="-1576.4113" font-family="Times,serif" font-size="20.00" fill="#000000">body</text>
</g>
<!-- SG_1_Node_1 -->
<g id="node19" class="node">
<title>SG_1_Node_1</title>
<polygon fill="none" stroke="#000000" points="2555.5,-1442.1981 2400.5,-1442.1981 2400.5,-1406.1981 2555.5,-1406.1981 2555.5,-1442.1981"/>
<text text-anchor="middle" x="2478" y="-1419.1981" font-family="Times,serif" font-size="20.00" fill="#000000">Content&#45;Type</text>
</g>
<!-- SG_1_Node_0&#45;&gt;SG_1_Node_1 -->
<g id="edge17" class="edge">
<title>SG_1_Node_0&#45;&gt;SG_1_Node_1</title>
<path fill="none" stroke="#000000" d="M2538.301,-1576.7626C2488.9195,-1568.9978 2399.0395,-1551.707 2380,-1526.4113 2368.2399,-1510.7869 2370.3275,-1499.4072 2380,-1482.4113 2388.5914,-1467.3151 2402.8119,-1455.7275 2417.7915,-1447.0172"/>
<polygon fill="#000000" stroke="#000000" points="2419.5335,-1450.0542 2426.6622,-1442.2164 2416.2017,-1443.8979 2419.5335,-1450.0542"/>
<text text-anchor="middle" x="2559" y="-1499.4113" font-family="Times,serif" font-size="20.00" fill="#000000">ecocnt_html=post_message=mes1</text>
</g>
<!-- SG_1_Node_8 -->
<g id="node20" class="node">
<title>SG_1_Node_8</title>
<ellipse fill="none" stroke="#000000" cx="2760" cy="-1424.1981" rx="34.7971" ry="21.4286"/>
<text text-anchor="middle" x="2760" y="-1419.1981" font-family="Times,serif" font-size="20.00" fill="#000000">1.0</text>
</g>
<!-- SG_1_Node_0&#45;&gt;SG_1_Node_8 -->
<g id="edge18" class="edge">
<title>SG_1_Node_0&#45;&gt;SG_1_Node_8</title>
<path fill="none" stroke="#000000" d="M2603.7348,-1574.67C2647.0193,-1565.1021 2719.9381,-1546.4999 2738,-1526.4113 2755.1822,-1507.301 2760.0883,-1478.066 2761.0414,-1455.7499"/>
<polygon fill="#000000" stroke="#000000" points="2764.541,-1455.7997 2761.2299,-1445.7356 2757.5422,-1455.668 2764.541,-1455.7997"/>
<text text-anchor="middle" x="2803" y="-1510.4113" font-family="Times,serif" font-size="20.00" fill="#000000">[NA]</text>
<text text-anchor="middle" x="2803" y="-1488.4113" font-family="Times,serif" font-size="20.00" fill="#000000">12 levels</text>
</g>
<!-- SG_1_Node_2 -->
<g id="node21" class="node">
<title>SG_1_Node_2</title>
<polygon fill="none" stroke="#000000" points="2608,-1171.7716 2348,-1171.7716 2348,-1135.7716 2608,-1135.7716 2608,-1171.7716"/>
<text text-anchor="middle" x="2478" y="-1148.7716" font-family="Times,serif" font-size="20.00" fill="#000000">Content&#45;Security&#45;Policy</text>
</g>
<!-- SG_1_Node_1&#45;&gt;SG_1_Node_2 -->
<g id="edge19" class="edge">
<title>SG_1_Node_1&#45;&gt;SG_1_Node_2</title>
<path fill="none" stroke="#000000" d="M2478,-1406.0347C2478,-1359.8494 2478,-1237.6576 2478,-1182.0479"/>
<polygon fill="#000000" stroke="#000000" points="2481.5001,-1181.8559 2478,-1171.8559 2474.5001,-1181.856 2481.5001,-1181.8559"/>
<text text-anchor="middle" x="2525" y="-1294.9848" font-family="Times,serif" font-size="20.00" fill="#000000">empty</text>
<text text-anchor="middle" x="2525" y="-1272.9848" font-family="Times,serif" font-size="20.00" fill="#000000">text/html</text>
</g>
<!-- SG_1_Node_9 -->
<g id="node22" class="node">
<title>SG_1_Node_9</title>
<ellipse fill="none" stroke="#000000" cx="2661" cy="-1153.7716" rx="34.7971" ry="21.4286"/>
<text text-anchor="middle" x="2661" y="-1148.7716" font-family="Times,serif" font-size="20.00" fill="#000000">1.0</text>
</g>
<!-- SG_1_Node_1&#45;&gt;SG_1_Node_9 -->
<g id="edge20" class="edge">
<title>SG_1_Node_1&#45;&gt;SG_1_Node_9</title>
<path fill="none" stroke="#000000" d="M2521.4671,-1406.1556C2540.293,-1396.5429 2561.3311,-1383.1244 2576,-1365.9848 2622.2289,-1311.9698 2645.381,-1229.6366 2655.1161,-1185.0664"/>
<polygon fill="#000000" stroke="#000000" points="2658.5772,-1185.6146 2657.2037,-1175.1091 2651.7261,-1184.1781 2658.5772,-1185.6146"/>
<text text-anchor="middle" x="2759" y="-1349.9848" font-family="Times,serif" font-size="20.00" fill="#000000">[NA]</text>
<text text-anchor="middle" x="2759" y="-1327.9848" font-family="Times,serif" font-size="20.00" fill="#000000">application/javascript</text>
<text text-anchor="middle" x="2759" y="-1305.9848" font-family="Times,serif" font-size="20.00" fill="#000000">application/pdf</text>
<text text-anchor="middle" x="2759" y="-1283.9848" font-family="Times,serif" font-size="20.00" fill="#000000">audio/wav</text>
<text text-anchor="middle" x="2759" y="-1261.9848" font-family="Times,serif" font-size="20.00" fill="#000000">image/png</text>
<text text-anchor="middle" x="2759" y="-1239.9848" font-family="Times,serif" font-size="20.00" fill="#000000">text/css</text>
<text text-anchor="middle" x="2759" y="-1217.9848" font-family="Times,serif" font-size="20.00" fill="#000000">video/mp4</text>
</g>
<!-- SG_1_Node_3 -->
<g id="node23" class="node">
<title>SG_1_Node_3</title>
<polygon fill="none" stroke="#000000" points="2570.5,-989.3452 2379.5,-989.3452 2379.5,-953.3452 2570.5,-953.3452 2570.5,-989.3452"/>
<text text-anchor="middle" x="2475" y="-966.3452" font-family="Times,serif" font-size="20.00" fill="#000000">X&#45;Frame&#45;Options</text>
</g>
<!-- SG_1_Node_2&#45;&gt;SG_1_Node_3 -->
<g id="edge21" class="edge">
<title>SG_1_Node_2&#45;&gt;SG_1_Node_3</title>
<path fill="none" stroke="#000000" d="M2477.7014,-1135.613C2477.178,-1103.7871 2476.0915,-1037.7174 2475.4676,-999.7821"/>
<polygon fill="#000000" stroke="#000000" points="2478.9615,-999.3715 2475.2974,-989.4305 2471.9624,-999.4867 2478.9615,-999.3715"/>
<text text-anchor="middle" x="2509" y="-1057.5584" font-family="Times,serif" font-size="20.00" fill="#000000">empty</text>
</g>
<!-- SG_1_Node_10 -->
<g id="node24" class="node">
<title>SG_1_Node_10</title>
<ellipse fill="none" stroke="#000000" cx="2623" cy="-971.3452" rx="34.7971" ry="21.4286"/>
<text text-anchor="middle" x="2623" y="-966.3452" font-family="Times,serif" font-size="20.00" fill="#000000">1.0</text>
</g>
<!-- SG_1_Node_2&#45;&gt;SG_1_Node_10 -->
<g id="edge22" class="edge">
<title>SG_1_Node_2&#45;&gt;SG_1_Node_10</title>
<path fill="none" stroke="#000000" d="M2502.197,-1135.6478C2515.6835,-1124.8666 2532.2722,-1110.4237 2545,-1095.5584 2570.37,-1065.9279 2593.3071,-1027.2817 2607.6388,-1001.0192"/>
<polygon fill="#000000" stroke="#000000" points="2610.8655,-1002.4087 2612.5181,-991.9435 2604.7,-999.094 2610.8655,-1002.4087"/>
<text text-anchor="middle" x="2700.5" y="-1079.5584" font-family="Times,serif" font-size="20.00" fill="#000000">[NA]</text>
<text text-anchor="middle" x="2700.5" y="-1057.5584" font-family="Times,serif" font-size="20.00" fill="#000000">default&#45;src &#39;self&#39;</text>
<text text-anchor="middle" x="2700.5" y="-1035.5584" font-family="Times,serif" font-size="20.00" fill="#000000">frame&#45;ancestors &#39;self&#39;</text>
</g>
<!-- SG_1_Node_4 -->
<g id="node25" class="node">
<title>SG_1_Node_4</title>
<polygon fill="none" stroke="#000000" points="2573.5,-828.9188 2352.5,-828.9188 2352.5,-792.9188 2573.5,-792.9188 2573.5,-828.9188"/>
<text text-anchor="middle" x="2463" y="-805.9188" font-family="Times,serif" font-size="20.00" fill="#000000">Content&#45;Disposition</text>
</g>
<!-- SG_1_Node_3&#45;&gt;SG_1_Node_4 -->
<g id="edge23" class="edge">
<title>SG_1_Node_3&#45;&gt;SG_1_Node_4</title>
<path fill="none" stroke="#000000" d="M2473.6468,-953.2541C2471.5762,-925.5723 2467.6031,-872.457 2465.1394,-839.5203"/>
<polygon fill="#000000" stroke="#000000" points="2468.603,-838.901 2464.3667,-829.19 2461.6225,-839.4232 2468.603,-838.901"/>
<text text-anchor="middle" x="2502" y="-897.132" font-family="Times,serif" font-size="20.00" fill="#000000">[NA]</text>
<text text-anchor="middle" x="2502" y="-875.132" font-family="Times,serif" font-size="20.00" fill="#000000">empty</text>
</g>
<!-- SG_1_Node_11 -->
<g id="node26" class="node">
<title>SG_1_Node_11</title>
<ellipse fill="none" stroke="#000000" cx="2626" cy="-810.9188" rx="34.7971" ry="21.4286"/>
<text text-anchor="middle" x="2626" y="-805.9188" font-family="Times,serif" font-size="20.00" fill="#000000">1.0</text>
</g>
<!-- SG_1_Node_3&#45;&gt;SG_1_Node_11 -->
<g id="edge24" class="edge">
<title>SG_1_Node_3&#45;&gt;SG_1_Node_11</title>
<path fill="none" stroke="#000000" d="M2495.7009,-953.3C2508.2704,-942.0812 2524.4498,-927.1666 2538,-913.132 2561.5477,-888.7426 2586.6072,-859.2474 2603.9368,-838.2224"/>
<polygon fill="#000000" stroke="#000000" points="2606.7745,-840.2816 2610.4078,-830.3292 2601.3611,-835.8437 2606.7745,-840.2816"/>
<text text-anchor="middle" x="2601.5" y="-886.132" font-family="Times,serif" font-size="20.00" fill="#000000">deny</text>
</g>
<!-- SG_1_Node_5 -->
<g id="node27" class="node">
<title>SG_1_Node_5</title>
<polygon fill="none" stroke="#000000" points="2512,-668.4924 2370,-668.4924 2370,-632.4924 2512,-632.4924 2512,-668.4924"/>
<text text-anchor="middle" x="2441" y="-645.4924" font-family="Times,serif" font-size="20.00" fill="#000000">Status&#45;Code</text>
</g>
<!-- SG_1_Node_4&#45;&gt;SG_1_Node_5 -->
<g id="edge25" class="edge">
<title>SG_1_Node_4&#45;&gt;SG_1_Node_5</title>
<path fill="none" stroke="#000000" d="M2460.5191,-792.8277C2456.7229,-765.1459 2449.439,-712.0306 2444.9223,-679.0939"/>
<polygon fill="#000000" stroke="#000000" points="2448.3319,-678.1953 2443.5056,-668.7636 2441.3968,-679.1464 2448.3319,-678.1953"/>
<text text-anchor="middle" x="2486" y="-725.7056" font-family="Times,serif" font-size="20.00" fill="#000000">empty</text>
</g>
<!-- SG_1_Node_12 -->
<g id="node28" class="node">
<title>SG_1_Node_12</title>
<ellipse fill="none" stroke="#000000" cx="2565" cy="-650.4924" rx="34.7971" ry="21.4286"/>
<text text-anchor="middle" x="2565" y="-645.4924" font-family="Times,serif" font-size="20.00" fill="#000000">1.0</text>
</g>
<!-- SG_1_Node_4&#45;&gt;SG_1_Node_12 -->
<g id="edge26" class="edge">
<title>SG_1_Node_4&#45;&gt;SG_1_Node_12</title>
<path fill="none" stroke="#000000" d="M2485.3275,-792.7448C2497.3835,-782.0557 2511.835,-767.7191 2522,-752.7056 2536.9336,-730.6491 2548.2854,-702.5773 2555.565,-681.4351"/>
<polygon fill="#000000" stroke="#000000" points="2558.978,-682.2632 2558.8093,-671.6697 2552.335,-680.0561 2558.978,-682.2632"/>
<text text-anchor="middle" x="2603" y="-736.7056" font-family="Times,serif" font-size="20.00" fill="#000000">[NA]</text>
<text text-anchor="middle" x="2603" y="-714.7056" font-family="Times,serif" font-size="20.00" fill="#000000">attachment</text>
</g>
<!-- SG_1_Node_13 -->
<g id="node29" class="node">
<title>SG_1_Node_13</title>
<ellipse fill="none" stroke="#000000" cx="2406" cy="-490.066" rx="34.7971" ry="21.4286"/>
<text text-anchor="middle" x="2406" y="-485.066" font-family="Times,serif" font-size="20.00" fill="#000000">0.0</text>
</g>
<!-- SG_1_Node_5&#45;&gt;SG_1_Node_13 -->
<g id="edge27" class="edge">
<title>SG_1_Node_5&#45;&gt;SG_1_Node_13</title>
<path fill="none" stroke="#000000" d="M2433.3761,-632.443C2428.8646,-621.0975 2423.3872,-606.0508 2420,-592.2792 2414.2443,-568.8779 2410.6715,-541.8407 2408.577,-521.4536"/>
<polygon fill="#000000" stroke="#000000" points="2412.0564,-521.0709 2407.6127,-511.453 2405.0887,-521.7428 2412.0564,-521.0709"/>
<text text-anchor="middle" x="2466" y="-576.2792" font-family="Times,serif" font-size="20.00" fill="#000000">[NA]</text>
<text text-anchor="middle" x="2466" y="-554.2792" font-family="Times,serif" font-size="20.00" fill="#000000">49 levels</text>
</g>
<!-- SG_1_Node_6 -->
<g id="node30" class="node">
<title>SG_1_Node_6</title>
<polygon fill="none" stroke="#000000" points="2605,-508.066 2463,-508.066 2463,-472.066 2605,-472.066 2605,-508.066"/>
<text text-anchor="middle" x="2534" y="-485.066" font-family="Times,serif" font-size="20.00" fill="#000000">Status&#45;Code</text>
</g>
<!-- SG_1_Node_5&#45;&gt;SG_1_Node_6 -->
<g id="edge28" class="edge">
<title>SG_1_Node_5&#45;&gt;SG_1_Node_6</title>
<path fill="none" stroke="#000000" d="M2471.3861,-632.4842C2485.811,-622.4174 2502.0344,-608.606 2512,-592.2792 2525.6724,-569.8795 2530.9186,-540.1806 2532.8952,-518.5709"/>
<polygon fill="#000000" stroke="#000000" points="2536.4014,-518.6141 2533.642,-508.385 2529.4201,-518.1023 2536.4014,-518.6141"/>
<text text-anchor="middle" x="2574" y="-565.2792" font-family="Times,serif" font-size="20.00" fill="#000000">13 levels</text>
</g>
<!-- SG_1_Node_7 -->
<g id="node31" class="node">
<title>SG_1_Node_7</title>
<polygon fill="none" stroke="#000000" points="2527.5,-237.6396 2422.5,-237.6396 2422.5,-201.6396 2527.5,-201.6396 2527.5,-237.6396"/>
<text text-anchor="middle" x="2475" y="-214.6396" font-family="Times,serif" font-size="20.00" fill="#000000">Location</text>
</g>
<!-- SG_1_Node_6&#45;&gt;SG_1_Node_7 -->
<g id="edge29" class="edge">
<title>SG_1_Node_6&#45;&gt;SG_1_Node_7</title>
<path fill="none" stroke="#000000" d="M2520.7369,-471.8716C2513.3874,-460.8402 2504.7915,-446.1705 2500,-431.8528 2478.8176,-368.5569 2475.0611,-289.4083 2474.6992,-247.9556"/>
<polygon fill="#000000" stroke="#000000" points="2478.1988,-247.7751 2474.6735,-237.784 2471.1989,-247.7928 2478.1988,-247.7751"/>
<text text-anchor="middle" x="2519.5" y="-404.8528" font-family="Times,serif" font-size="20.00" fill="#000000">301</text>
<text text-anchor="middle" x="2519.5" y="-382.8528" font-family="Times,serif" font-size="20.00" fill="#000000">302</text>
<text text-anchor="middle" x="2519.5" y="-360.8528" font-family="Times,serif" font-size="20.00" fill="#000000">303</text>
<text text-anchor="middle" x="2519.5" y="-338.8528" font-family="Times,serif" font-size="20.00" fill="#000000">305</text>
<text text-anchor="middle" x="2519.5" y="-316.8528" font-family="Times,serif" font-size="20.00" fill="#000000">307</text>
<text text-anchor="middle" x="2519.5" y="-294.8528" font-family="Times,serif" font-size="20.00" fill="#000000">308</text>
</g>
<!-- SG_1_Node_14 -->
<g id="node32" class="node">
<title>SG_1_Node_14</title>
<ellipse fill="none" stroke="#000000" cx="2580" cy="-219.6396" rx="34.7971" ry="21.4286"/>
<text text-anchor="middle" x="2580" y="-214.6396" font-family="Times,serif" font-size="20.00" fill="#000000">1.0</text>
</g>
<!-- SG_1_Node_6&#45;&gt;SG_1_Node_14 -->
<g id="edge30" class="edge">
<title>SG_1_Node_6&#45;&gt;SG_1_Node_14</title>
<path fill="none" stroke="#000000" d="M2537.0896,-471.9027C2544.8079,-426.5283 2565.0049,-307.7931 2574.6816,-250.9059"/>
<polygon fill="#000000" stroke="#000000" points="2578.134,-251.4805 2576.3606,-241.0351 2571.2331,-250.3066 2578.134,-251.4805"/>
<text text-anchor="middle" x="2589.5" y="-415.8528" font-family="Times,serif" font-size="20.00" fill="#000000">100</text>
<text text-anchor="middle" x="2589.5" y="-393.8528" font-family="Times,serif" font-size="20.00" fill="#000000">101</text>
<text text-anchor="middle" x="2589.5" y="-371.8528" font-family="Times,serif" font-size="20.00" fill="#000000">102</text>
<text text-anchor="middle" x="2589.5" y="-349.8528" font-family="Times,serif" font-size="20.00" fill="#000000">103</text>
<text text-anchor="middle" x="2589.5" y="-327.8528" font-family="Times,serif" font-size="20.00" fill="#000000">204</text>
<text text-anchor="middle" x="2589.5" y="-305.8528" font-family="Times,serif" font-size="20.00" fill="#000000">304</text>
<text text-anchor="middle" x="2589.5" y="-283.8528" font-family="Times,serif" font-size="20.00" fill="#000000">407</text>
</g>
<!-- SG_1_Node_15 -->
<g id="node33" class="node">
<title>SG_1_Node_15</title>
<ellipse fill="none" stroke="#000000" cx="2413" cy="-37.2132" rx="34.7971" ry="21.4286"/>
<text text-anchor="middle" x="2413" y="-32.2132" font-family="Times,serif" font-size="20.00" fill="#000000">0.0</text>
</g>
<!-- SG_1_Node_7&#45;&gt;SG_1_Node_15 -->
<g id="edge31" class="edge">
<title>SG_1_Node_7&#45;&gt;SG_1_Node_15</title>
<path fill="none" stroke="#000000" d="M2450.6014,-201.4012C2438.8107,-191.094 2425.7749,-177.1367 2419,-161.4264 2406.226,-131.805 2406.3192,-94.4478 2408.6111,-68.4753"/>
<polygon fill="#000000" stroke="#000000" points="2412.1017,-68.747 2409.6558,-58.4383 2405.1393,-68.0223 2412.1017,-68.747"/>
<text text-anchor="middle" x="2451" y="-123.4264" font-family="Times,serif" font-size="20.00" fill="#000000">empty</text>
</g>
<!-- SG_1_Node_16 -->
<g id="node34" class="node">
<title>SG_1_Node_16</title>
<ellipse fill="none" stroke="#000000" cx="2513" cy="-37.2132" rx="34.7971" ry="21.4286"/>
<text text-anchor="middle" x="2513" y="-32.2132" font-family="Times,serif" font-size="20.00" fill="#000000">1.0</text>
</g>
<!-- SG_1_Node_7&#45;&gt;SG_1_Node_16 -->
<g id="edge32" class="edge">
<title>SG_1_Node_7&#45;&gt;SG_1_Node_16</title>
<path fill="none" stroke="#000000" d="M2478.7825,-201.4809C2485.2516,-170.4246 2498.5131,-106.7606 2506.4932,-68.4504"/>
<polygon fill="#000000" stroke="#000000" points="2509.981,-68.8691 2508.5939,-58.3655 2503.1281,-67.4416 2509.981,-68.8691"/>
<text text-anchor="middle" x="2637" y="-145.4264" font-family="Times,serif" font-size="20.00" fill="#000000">[NA]</text>
<text text-anchor="middle" x="2637" y="-123.4264" font-family="Times,serif" font-size="20.00" fill="#000000">/</text>
<text text-anchor="middle" x="2637" y="-101.4264" font-family="Times,serif" font-size="20.00" fill="#000000">http://localhost:8000/echo/</text>
</g>
</g>
</svg>
