<?xml version="1.0" encoding="UTF-8" standalone="no"?>
<!DOCTYPE svg PUBLIC "-//W3C//DTD SVG 1.1//EN"
 "http://www.w3.org/Graphics/SVG/1.1/DTD/svg11.dtd">
<!-- Generated by graphviz version 2.40.1 (20161225.0304)
 -->
<!-- Title: G Pages: 1 -->
<svg width="9465pt" height="1509pt"
 viewBox="0.00 0.00 9465.00 1508.56" xmlns="http://www.w3.org/2000/svg" xmlns:xlink="http://www.w3.org/1999/xlink">
<g id="graph0" class="graph" transform="scale(1 1) rotate(0) translate(4 1504.5584)">
<title>G</title>
<polygon fill="#ffffff" stroke="transparent" points="-4,4 -4,-1504.5584 9461,-1504.5584 9461,4 -4,4"/>
<g id="clust1" class="cluster">
<title>cluster_0</title>
<polygon fill="none" stroke="#000000" points="8,-8 8,-1492.5584 548,-1492.5584 548,-8 8,-8"/>
<text text-anchor="middle" x="278" y="-1456.5584" font-family="Times,serif" font-size="40.00" fill="#000000">Tree 0, Class js&#45;undefined</text>
</g>
<g id="clust9" class="cluster">
<title>cluster_1</title>
<polygon fill="none" stroke="#000000" points="556,-190.4264 556,-1492.5584 4470,-1492.5584 4470,-190.4264 556,-190.4264"/>
<text text-anchor="middle" x="2513" y="-1456.5584" font-family="Times,serif" font-size="40.00" fill="#000000">Tree 0, Class {&#39;code&#39;: 18, &#39;name&#39;: &#39;SecurityError&#39;, &#39;message&#39;: &#39;Blocked a frame with origin http://localhost:8001 from accessing a cross&#45;origin frame. Protocols, domains, and ports must match.&#39;}</text>
</g>
<g id="clust16" class="cluster">
<title>cluster_2</title>
<polygon fill="none" stroke="#000000" points="4478,-190.4264 4478,-1492.5584 9449,-1492.5584 9449,-190.4264 4478,-190.4264"/>
<text text-anchor="middle" x="6963.5" y="-1456.5584" font-family="Times,serif" font-size="40.00" fill="#000000">Tree 0, Class {&#39;code&#39;: 18, &#39;name&#39;: &#39;SecurityError&#39;, &#39;message&#39;: &#39;Sandbox access violation: Blocked a frame at http://localhost:8001 from accessing a cross&#45;origin frame. &#160;The frame being accessed is sandboxed and lacks the allow&#45;same&#45;origin flag.&#39;}</text>
</g>
<!-- SG_0_Node_0 -->
<g id="node1" class="node">
<title>SG_0_Node_0</title>
<polygon fill="none" stroke="#000000" points="282,-1432.5584 140,-1432.5584 140,-1396.5584 282,-1396.5584 282,-1432.5584"/>
<text text-anchor="middle" x="211" y="-1409.5584" font-family="Times,serif" font-size="20.00" fill="#000000">Status&#45;Code</text>
</g>
<!-- SG_0_Node_1 -->
<g id="node2" class="node">
<title>SG_0_Node_1</title>
<polygon fill="none" stroke="#000000" points="248.5,-1099.3452 27.5,-1099.3452 27.5,-1063.3452 248.5,-1063.3452 248.5,-1099.3452"/>
<text text-anchor="middle" x="138" y="-1076.3452" font-family="Times,serif" font-size="20.00" fill="#000000">Content&#45;Disposition</text>
</g>
<!-- SG_0_Node_0&#45;&gt;SG_0_Node_1 -->
<g id="edge1" class="edge">
<title>SG_0_Node_0&#45;&gt;SG_0_Node_1</title>
<path fill="none" stroke="#000000" d="M197.4163,-1396.1468C190.5127,-1385.8792 182.6257,-1372.5686 178,-1359.5584 146.9312,-1272.1753 139.947,-1161.199 138.4105,-1109.8228"/>
<polygon fill="#000000" stroke="#000000" points="141.9016,-1109.4185 138.1528,-1099.5091 134.9037,-1109.5934 141.9016,-1109.4185"/>
<text text-anchor="middle" x="224" y="-1255.5584" font-family="Times,serif" font-size="20.00" fill="#000000">[NA]</text>
<text text-anchor="middle" x="224" y="-1233.5584" font-family="Times,serif" font-size="20.00" fill="#000000">58 levels</text>
</g>
<!-- SG_0_Node_6 -->
<g id="node3" class="node">
<title>SG_0_Node_6</title>
<ellipse fill="none" stroke="#000000" cx="301" cy="-1081.3452" rx="34.7971" ry="21.4286"/>
<text text-anchor="middle" x="301" y="-1076.3452" font-family="Times,serif" font-size="20.00" fill="#000000">1.0</text>
</g>
<!-- SG_0_Node_0&#45;&gt;SG_0_Node_6 -->
<g id="edge2" class="edge">
<title>SG_0_Node_0&#45;&gt;SG_0_Node_6</title>
<path fill="none" stroke="#000000" d="M237.7861,-1396.4697C249.6864,-1386.9439 262.6425,-1374.1975 270,-1359.5584 310.9378,-1278.1052 308.5268,-1166.6493 304.3136,-1112.8889"/>
<polygon fill="#000000" stroke="#000000" points="307.7751,-1112.291 303.4307,-1102.6279 300.8009,-1112.8911 307.7751,-1112.291"/>
<text text-anchor="middle" x="325.5" y="-1277.5584" font-family="Times,serif" font-size="20.00" fill="#000000">100</text>
<text text-anchor="middle" x="325.5" y="-1255.5584" font-family="Times,serif" font-size="20.00" fill="#000000">102</text>
<text text-anchor="middle" x="325.5" y="-1233.5584" font-family="Times,serif" font-size="20.00" fill="#000000">103</text>
<text text-anchor="middle" x="325.5" y="-1211.5584" font-family="Times,serif" font-size="20.00" fill="#000000">407</text>
</g>
<!-- SG_0_Node_7 -->
<g id="node4" class="node">
<title>SG_0_Node_7</title>
<ellipse fill="none" stroke="#000000" cx="83" cy="-898.9188" rx="34.7971" ry="21.4286"/>
<text text-anchor="middle" x="83" y="-893.9188" font-family="Times,serif" font-size="20.00" fill="#000000">0.0</text>
</g>
<!-- SG_0_Node_1&#45;&gt;SG_0_Node_7 -->
<g id="edge3" class="edge">
<title>SG_0_Node_1&#45;&gt;SG_0_Node_7</title>
<path fill="none" stroke="#000000" d="M132.5253,-1063.1866C123.0972,-1031.9148 103.7011,-967.5813 92.1785,-929.3624"/>
<polygon fill="#000000" stroke="#000000" points="95.5284,-928.3483 89.2908,-919.7843 88.8264,-930.369 95.5284,-928.3483"/>
<text text-anchor="middle" x="152" y="-996.132" font-family="Times,serif" font-size="20.00" fill="#000000">[NA]</text>
<text text-anchor="middle" x="152" y="-974.132" font-family="Times,serif" font-size="20.00" fill="#000000">empty</text>
</g>
<!-- SG_0_Node_2 -->
<g id="node5" class="node">
<title>SG_0_Node_2</title>
<polygon fill="none" stroke="#000000" points="326.5,-916.9188 135.5,-916.9188 135.5,-880.9188 326.5,-880.9188 326.5,-916.9188"/>
<text text-anchor="middle" x="231" y="-893.9188" font-family="Times,serif" font-size="20.00" fill="#000000">X&#45;Frame&#45;Options</text>
</g>
<!-- SG_0_Node_1&#45;&gt;SG_0_Node_2 -->
<g id="edge4" class="edge">
<title>SG_0_Node_1&#45;&gt;SG_0_Node_2</title>
<path fill="none" stroke="#000000" d="M156.6289,-1063.3285C167.0052,-1052.4719 179.5052,-1037.9186 188,-1023.132 205.6845,-992.3494 217.7548,-953.1098 224.5037,-927.0588"/>
<polygon fill="#000000" stroke="#000000" points="227.9638,-927.6488 226.991,-917.0988 221.1724,-925.9528 227.9638,-927.6488"/>
<text text-anchor="middle" x="274" y="-985.132" font-family="Times,serif" font-size="20.00" fill="#000000">attachment</text>
</g>
<!-- SG_0_Node_8 -->
<g id="node6" class="node">
<title>SG_0_Node_8</title>
<ellipse fill="none" stroke="#000000" cx="126" cy="-650.4924" rx="34.7971" ry="21.4286"/>
<text text-anchor="middle" x="126" y="-645.4924" font-family="Times,serif" font-size="20.00" fill="#000000">0.0</text>
</g>
<!-- SG_0_Node_2&#45;&gt;SG_0_Node_8 -->
<g id="edge5" class="edge">
<title>SG_0_Node_2&#45;&gt;SG_0_Node_8</title>
<path fill="none" stroke="#000000" d="M218.4849,-880.8565C211.0516,-869.6314 201.7838,-854.7163 195,-840.7056 168.8326,-786.662 146.8476,-719.9876 135.1257,-681.6429"/>
<polygon fill="#000000" stroke="#000000" points="138.3383,-680.1741 132.0967,-671.613 131.6372,-682.1979 138.3383,-680.1741"/>
<text text-anchor="middle" x="220" y="-780.7056" font-family="Times,serif" font-size="20.00" fill="#000000">[NA]</text>
<text text-anchor="middle" x="220" y="-758.7056" font-family="Times,serif" font-size="20.00" fill="#000000">deny</text>
</g>
<!-- SG_0_Node_3 -->
<g id="node7" class="node">
<title>SG_0_Node_3</title>
<polygon fill="none" stroke="#000000" points="439,-668.4924 179,-668.4924 179,-632.4924 439,-632.4924 439,-668.4924"/>
<text text-anchor="middle" x="309" y="-645.4924" font-family="Times,serif" font-size="20.00" fill="#000000">Content&#45;Security&#45;Policy</text>
</g>
<!-- SG_0_Node_2&#45;&gt;SG_0_Node_3 -->
<g id="edge6" class="edge">
<title>SG_0_Node_2&#45;&gt;SG_0_Node_3</title>
<path fill="none" stroke="#000000" d="M236.7355,-880.6514C250.2304,-837.6709 284.0641,-729.9122 300.1881,-678.5578"/>
<polygon fill="#000000" stroke="#000000" points="303.5997,-679.3758 303.2561,-668.7866 296.9211,-677.2789 303.5997,-679.3758"/>
<text text-anchor="middle" x="322" y="-769.7056" font-family="Times,serif" font-size="20.00" fill="#000000">empty</text>
</g>
<!-- SG_0_Node_9 -->
<g id="node8" class="node">
<title>SG_0_Node_9</title>
<ellipse fill="none" stroke="#000000" cx="104" cy="-468.066" rx="34.7971" ry="21.4286"/>
<text text-anchor="middle" x="104" y="-463.066" font-family="Times,serif" font-size="20.00" fill="#000000">0.0</text>
</g>
<!-- SG_0_Node_3&#45;&gt;SG_0_Node_9 -->
<g id="edge7" class="edge">
<title>SG_0_Node_3&#45;&gt;SG_0_Node_9</title>
<path fill="none" stroke="#000000" d="M202.891,-632.4771C159.6812,-622.7822 116.8524,-609.2894 104,-592.2792 83.9422,-565.7327 88.0618,-526.066 94.5014,-498.7367"/>
<polygon fill="#000000" stroke="#000000" points="97.9249,-499.4773 97.0375,-488.9197 91.1474,-497.7263 97.9249,-499.4773"/>
<text text-anchor="middle" x="214.5" y="-554.2792" font-family="Times,serif" font-size="20.00" fill="#000000">frame&#45;ancestors &#39;self&#39;</text>
</g>
<!-- SG_0_Node_4 -->
<g id="node9" class="node">
<title>SG_0_Node_4</title>
<polygon fill="none" stroke="#000000" points="432,-486.066 290,-486.066 290,-450.066 432,-450.066 432,-486.066"/>
<text text-anchor="middle" x="361" y="-463.066" font-family="Times,serif" font-size="20.00" fill="#000000">Status&#45;Code</text>
</g>
<!-- SG_0_Node_3&#45;&gt;SG_0_Node_4 -->
<g id="edge8" class="edge">
<title>SG_0_Node_3&#45;&gt;SG_0_Node_4</title>
<path fill="none" stroke="#000000" d="M315.6777,-632.2594C319.755,-620.8448 324.9456,-605.7899 329,-592.2792 338.8009,-559.6188 348.3259,-521.5891 354.3986,-496.2984"/>
<polygon fill="#000000" stroke="#000000" points="357.8696,-496.831 356.7805,-486.2923 351.0598,-495.2099 357.8696,-496.831"/>
<text text-anchor="middle" x="428.5" y="-576.2792" font-family="Times,serif" font-size="20.00" fill="#000000">[NA]</text>
<text text-anchor="middle" x="428.5" y="-554.2792" font-family="Times,serif" font-size="20.00" fill="#000000">default&#45;src &#39;self&#39;</text>
<text text-anchor="middle" x="428.5" y="-532.2792" font-family="Times,serif" font-size="20.00" fill="#000000">empty</text>
</g>
<!-- SG_0_Node_5 -->
<g id="node10" class="node">
<title>SG_0_Node_5</title>
<polygon fill="none" stroke="#000000" points="388.5,-237.6396 283.5,-237.6396 283.5,-201.6396 388.5,-201.6396 388.5,-237.6396"/>
<text text-anchor="middle" x="336" y="-214.6396" font-family="Times,serif" font-size="20.00" fill="#000000">Location</text>
</g>
<!-- SG_0_Node_4&#45;&gt;SG_0_Node_5 -->
<g id="edge9" class="edge">
<title>SG_0_Node_4&#45;&gt;SG_0_Node_5</title>
<path fill="none" stroke="#000000" d="M359.1617,-449.7986C354.8454,-406.9078 344.0375,-299.509 338.8568,-248.0273"/>
<polygon fill="#000000" stroke="#000000" points="342.3248,-247.533 337.841,-237.9338 335.36,-248.234 342.3248,-247.533"/>
<text text-anchor="middle" x="374.5" y="-393.8528" font-family="Times,serif" font-size="20.00" fill="#000000">301</text>
<text text-anchor="middle" x="374.5" y="-371.8528" font-family="Times,serif" font-size="20.00" fill="#000000">302</text>
<text text-anchor="middle" x="374.5" y="-349.8528" font-family="Times,serif" font-size="20.00" fill="#000000">303</text>
<text text-anchor="middle" x="374.5" y="-327.8528" font-family="Times,serif" font-size="20.00" fill="#000000">305</text>
<text text-anchor="middle" x="374.5" y="-305.8528" font-family="Times,serif" font-size="20.00" fill="#000000">307</text>
<text text-anchor="middle" x="374.5" y="-283.8528" font-family="Times,serif" font-size="20.00" fill="#000000">308</text>
</g>
<!-- SG_0_Node_10 -->
<g id="node11" class="node">
<title>SG_0_Node_10</title>
<ellipse fill="none" stroke="#000000" cx="441" cy="-219.6396" rx="34.7971" ry="21.4286"/>
<text text-anchor="middle" x="441" y="-214.6396" font-family="Times,serif" font-size="20.00" fill="#000000">1.0</text>
</g>
<!-- SG_0_Node_4&#45;&gt;SG_0_Node_10 -->
<g id="edge10" class="edge">
<title>SG_0_Node_4&#45;&gt;SG_0_Node_10</title>
<path fill="none" stroke="#000000" d="M374.9021,-449.8311C382.7174,-438.7858 392.0662,-424.1156 398,-409.8528 420.2292,-356.4218 431.9439,-289.5419 437.2748,-250.993"/>
<polygon fill="#000000" stroke="#000000" points="440.7674,-251.2797 438.6126,-240.9063 433.8282,-250.3593 440.7674,-251.2797"/>
<text text-anchor="middle" x="478" y="-349.8528" font-family="Times,serif" font-size="20.00" fill="#000000">[NA]</text>
<text text-anchor="middle" x="478" y="-327.8528" font-family="Times,serif" font-size="20.00" fill="#000000">52 levels</text>
</g>
<!-- SG_0_Node_11 -->
<g id="node12" class="node">
<title>SG_0_Node_11</title>
<ellipse fill="none" stroke="#000000" cx="54" cy="-37.2132" rx="34.7971" ry="21.4286"/>
<text text-anchor="middle" x="54" y="-32.2132" font-family="Times,serif" font-size="20.00" fill="#000000">0.0</text>
</g>
<!-- SG_0_Node_5&#45;&gt;SG_0_Node_11 -->
<g id="edge11" class="edge">
<title>SG_0_Node_5&#45;&gt;SG_0_Node_11</title>
<path fill="none" stroke="#000000" d="M283.3889,-215.5421C213.1558,-208.9067 94.297,-193.2135 66,-161.4264 43.774,-136.459 43.98,-96.4681 47.6521,-68.6318"/>
<polygon fill="#000000" stroke="#000000" points="51.1319,-69.0303 49.1897,-58.615 44.2129,-67.9682 51.1319,-69.0303"/>
<text text-anchor="middle" x="203" y="-145.4264" font-family="Times,serif" font-size="20.00" fill="#000000">[NA]</text>
<text text-anchor="middle" x="203" y="-123.4264" font-family="Times,serif" font-size="20.00" fill="#000000">/</text>
<text text-anchor="middle" x="203" y="-101.4264" font-family="Times,serif" font-size="20.00" fill="#000000">http://localhost:8000/echo/</text>
</g>
<!-- SG_0_Node_12 -->
<g id="node13" class="node">
<title>SG_0_Node_12</title>
<ellipse fill="none" stroke="#000000" cx="364" cy="-37.2132" rx="34.7971" ry="21.4286"/>
<text text-anchor="middle" x="364" y="-32.2132" font-family="Times,serif" font-size="20.00" fill="#000000">1.0</text>
</g>
<!-- SG_0_Node_5&#45;&gt;SG_0_Node_12 -->
<g id="edge12" class="edge">
<title>SG_0_Node_5&#45;&gt;SG_0_Node_12</title>
<path fill="none" stroke="#000000" d="M338.7871,-201.4809C343.5538,-170.4246 353.3254,-106.7606 359.2055,-68.4504"/>
<polygon fill="#000000" stroke="#000000" points="362.6957,-68.7807 360.7534,-58.3655 355.7767,-67.7187 362.6957,-68.7807"/>
<text text-anchor="middle" x="387" y="-123.4264" font-family="Times,serif" font-size="20.00" fill="#000000">empty</text>
</g>
<!-- SG_1_Node_0 -->
<g id="node14" class="node">
<title>SG_1_Node_0</title>
<polygon fill="none" stroke="#000000" points="965,-1432.5584 823,-1432.5584 823,-1396.5584 965,-1396.5584 965,-1432.5584"/>
<text text-anchor="middle" x="894" y="-1409.5584" font-family="Times,serif" font-size="20.00" fill="#000000">Status&#45;Code</text>
</g>
<!-- SG_1_Node_1 -->
<g id="node15" class="node">
<title>SG_1_Node_1</title>
<polygon fill="none" stroke="#000000" points="869.5,-1099.3452 678.5,-1099.3452 678.5,-1063.3452 869.5,-1063.3452 869.5,-1099.3452"/>
<text text-anchor="middle" x="774" y="-1076.3452" font-family="Times,serif" font-size="20.00" fill="#000000">X&#45;Frame&#45;Options</text>
</g>
<!-- SG_1_Node_0&#45;&gt;SG_1_Node_1 -->
<g id="edge13" class="edge">
<title>SG_1_Node_0&#45;&gt;SG_1_Node_1</title>
<path fill="none" stroke="#000000" d="M857.5778,-1396.4404C843.0033,-1387.3517 827.4588,-1374.9653 818,-1359.5584 768.8113,-1279.438 768.6879,-1162.747 771.6762,-1109.6017"/>
<polygon fill="#000000" stroke="#000000" points="775.1732,-1109.7594 772.3231,-1099.5551 768.1877,-1109.3095 775.1732,-1109.7594"/>
<text text-anchor="middle" x="864" y="-1255.5584" font-family="Times,serif" font-size="20.00" fill="#000000">[NA]</text>
<text text-anchor="middle" x="864" y="-1233.5584" font-family="Times,serif" font-size="20.00" fill="#000000">56 levels</text>
</g>
<!-- SG_1_Node_2 -->
<g id="node16" class="node">
<title>SG_1_Node_2</title>
<polygon fill="none" stroke="#000000" points="1065.5,-1099.3452 960.5,-1099.3452 960.5,-1063.3452 1065.5,-1063.3452 1065.5,-1099.3452"/>
<text text-anchor="middle" x="1013" y="-1076.3452" font-family="Times,serif" font-size="20.00" fill="#000000">Location</text>
</g>
<!-- SG_1_Node_0&#45;&gt;SG_1_Node_2 -->
<g id="edge14" class="edge">
<title>SG_1_Node_0&#45;&gt;SG_1_Node_2</title>
<path fill="none" stroke="#000000" d="M900.5675,-1396.1688C920.3164,-1340.8697 979.2571,-1175.829 1002.9622,-1109.4521"/>
<polygon fill="#000000" stroke="#000000" points="1006.3856,-1110.2727 1006.4528,-1099.678 999.7934,-1107.9183 1006.3856,-1110.2727"/>
<text text-anchor="middle" x="1011.5" y="-1299.5584" font-family="Times,serif" font-size="20.00" fill="#000000">301</text>
<text text-anchor="middle" x="1011.5" y="-1277.5584" font-family="Times,serif" font-size="20.00" fill="#000000">302</text>
<text text-anchor="middle" x="1011.5" y="-1255.5584" font-family="Times,serif" font-size="20.00" fill="#000000">303</text>
<text text-anchor="middle" x="1011.5" y="-1233.5584" font-family="Times,serif" font-size="20.00" fill="#000000">305</text>
<text text-anchor="middle" x="1011.5" y="-1211.5584" font-family="Times,serif" font-size="20.00" fill="#000000">307</text>
<text text-anchor="middle" x="1011.5" y="-1189.5584" font-family="Times,serif" font-size="20.00" fill="#000000">308</text>
</g>
<!-- SG_1_Node_9 -->
<g id="node17" class="node">
<title>SG_1_Node_9</title>
<ellipse fill="none" stroke="#000000" cx="611" cy="-898.9188" rx="34.7971" ry="21.4286"/>
<text text-anchor="middle" x="611" y="-893.9188" font-family="Times,serif" font-size="20.00" fill="#000000">0.0</text>
</g>
<!-- SG_1_Node_1&#45;&gt;SG_1_Node_9 -->
<g id="edge23" class="edge">
<title>SG_1_Node_1&#45;&gt;SG_1_Node_9</title>
<path fill="none" stroke="#000000" d="M756.845,-1063.1117C746.1657,-1051.697 732.1896,-1036.6421 720,-1023.132 689.9973,-989.8792 656.0545,-950.9932 634.1331,-925.7089"/>
<polygon fill="#000000" stroke="#000000" points="636.6509,-923.2697 627.4584,-918.002 631.3595,-927.8525 636.6509,-923.2697"/>
<text text-anchor="middle" x="745" y="-996.132" font-family="Times,serif" font-size="20.00" fill="#000000">[NA]</text>
<text text-anchor="middle" x="745" y="-974.132" font-family="Times,serif" font-size="20.00" fill="#000000">deny</text>
</g>
<!-- SG_1_Node_3 -->
<g id="node18" class="node">
<title>SG_1_Node_3</title>
<polygon fill="none" stroke="#000000" points="884.5,-916.9188 663.5,-916.9188 663.5,-880.9188 884.5,-880.9188 884.5,-916.9188"/>
<text text-anchor="middle" x="774" y="-893.9188" font-family="Times,serif" font-size="20.00" fill="#000000">Content&#45;Disposition</text>
</g>
<!-- SG_1_Node_1&#45;&gt;SG_1_Node_3 -->
<g id="edge24" class="edge">
<title>SG_1_Node_1&#45;&gt;SG_1_Node_3</title>
<path fill="none" stroke="#000000" d="M774,-1063.1866C774,-1031.3607 774,-965.291 774,-927.3557"/>
<polygon fill="#000000" stroke="#000000" points="777.5001,-927.004 774,-917.0041 770.5001,-927.0041 777.5001,-927.004"/>
<text text-anchor="middle" x="806" y="-985.132" font-family="Times,serif" font-size="20.00" fill="#000000">empty</text>
</g>
<!-- SG_1_Node_4 -->
<g id="node19" class="node">
<title>SG_1_Node_4</title>
<polygon fill="none" stroke="#000000" points="1123.5,-916.9188 902.5,-916.9188 902.5,-880.9188 1123.5,-880.9188 1123.5,-916.9188"/>
<text text-anchor="middle" x="1013" y="-893.9188" font-family="Times,serif" font-size="20.00" fill="#000000">Content&#45;Disposition</text>
</g>
<!-- SG_1_Node_2&#45;&gt;SG_1_Node_4 -->
<g id="edge15" class="edge">
<title>SG_1_Node_2&#45;&gt;SG_1_Node_4</title>
<path fill="none" stroke="#000000" d="M1013,-1063.1866C1013,-1031.3607 1013,-965.291 1013,-927.3557"/>
<polygon fill="#000000" stroke="#000000" points="1016.5001,-927.004 1013,-917.0041 1009.5001,-927.0041 1016.5001,-927.004"/>
<text text-anchor="middle" x="1045" y="-985.132" font-family="Times,serif" font-size="20.00" fill="#000000">empty</text>
</g>
<!-- SG_1_Node_10 -->
<g id="node20" class="node">
<title>SG_1_Node_10</title>
<ellipse fill="none" stroke="#000000" cx="1176" cy="-898.9188" rx="34.7971" ry="21.4286"/>
<text text-anchor="middle" x="1176" y="-893.9188" font-family="Times,serif" font-size="20.00" fill="#000000">1.0</text>
</g>
<!-- SG_1_Node_2&#45;&gt;SG_1_Node_10 -->
<g id="edge16" class="edge">
<title>SG_1_Node_2&#45;&gt;SG_1_Node_10</title>
<path fill="none" stroke="#000000" d="M1036.4275,-1063.3303C1050.0612,-1052.3606 1067.2202,-1037.6928 1081,-1023.132 1110.0049,-992.4834 1138.8089,-953.2628 1156.964,-927.1771"/>
<polygon fill="#000000" stroke="#000000" points="1159.9003,-929.0844 1162.6976,-918.8655 1154.1382,-925.1095 1159.9003,-929.0844"/>
<text text-anchor="middle" x="1272" y="-1007.132" font-family="Times,serif" font-size="20.00" fill="#000000">[NA]</text>
<text text-anchor="middle" x="1272" y="-985.132" font-family="Times,serif" font-size="20.00" fill="#000000">/</text>
<text text-anchor="middle" x="1272" y="-963.132" font-family="Times,serif" font-size="20.00" fill="#000000">http://localhost:8000/echo/</text>
</g>
<!-- SG_1_Node_11 -->
<g id="node21" class="node">
<title>SG_1_Node_11</title>
<ellipse fill="none" stroke="#000000" cx="611" cy="-650.4924" rx="34.7971" ry="21.4286"/>
<text text-anchor="middle" x="611" y="-645.4924" font-family="Times,serif" font-size="20.00" fill="#000000">0.0</text>
</g>
<!-- SG_1_Node_3&#45;&gt;SG_1_Node_11 -->
<g id="edge25" class="edge">
<title>SG_1_Node_3&#45;&gt;SG_1_Node_11</title>
<path fill="none" stroke="#000000" d="M713.0264,-880.8552C692.1937,-871.8782 670.513,-858.9341 656,-840.7056 619.1345,-794.4021 611.6144,-722.8997 610.5654,-682.0277"/>
<polygon fill="#000000" stroke="#000000" points="614.0626,-681.7942 610.4229,-671.8442 607.0632,-681.8922 614.0626,-681.7942"/>
<text text-anchor="middle" x="715" y="-769.7056" font-family="Times,serif" font-size="20.00" fill="#000000">attachment</text>
</g>
<!-- SG_1_Node_5 -->
<g id="node22" class="node">
<title>SG_1_Node_5</title>
<polygon fill="none" stroke="#000000" points="924,-668.4924 664,-668.4924 664,-632.4924 924,-632.4924 924,-668.4924"/>
<text text-anchor="middle" x="794" y="-645.4924" font-family="Times,serif" font-size="20.00" fill="#000000">Content&#45;Security&#45;Policy</text>
</g>
<!-- SG_1_Node_3&#45;&gt;SG_1_Node_5 -->
<g id="edge26" class="edge">
<title>SG_1_Node_3&#45;&gt;SG_1_Node_5</title>
<path fill="none" stroke="#000000" d="M775.4706,-880.6514C778.9236,-837.7606 787.57,-730.3618 791.7146,-678.8802"/>
<polygon fill="#000000" stroke="#000000" points="795.2133,-679.0352 792.5272,-668.7866 788.2359,-678.4734 795.2133,-679.0352"/>
<text text-anchor="middle" x="821" y="-780.7056" font-family="Times,serif" font-size="20.00" fill="#000000">[NA]</text>
<text text-anchor="middle" x="821" y="-758.7056" font-family="Times,serif" font-size="20.00" fill="#000000">empty</text>
</g>
<!-- SG_1_Node_12 -->
<g id="node23" class="node">
<title>SG_1_Node_12</title>
<ellipse fill="none" stroke="#000000" cx="983" cy="-650.4924" rx="34.7971" ry="21.4286"/>
<text text-anchor="middle" x="983" y="-645.4924" font-family="Times,serif" font-size="20.00" fill="#000000">0.0</text>
</g>
<!-- SG_1_Node_4&#45;&gt;SG_1_Node_12 -->
<g id="edge17" class="edge">
<title>SG_1_Node_4&#45;&gt;SG_1_Node_12</title>
<path fill="none" stroke="#000000" d="M1007.0305,-880.7724C1003.5327,-869.3905 999.3523,-854.3394 997,-840.7056 987.4695,-785.466 984.4216,-720.1048 983.4502,-682.1647"/>
<polygon fill="#000000" stroke="#000000" points="986.9406,-681.6866 983.2191,-671.7669 979.9423,-681.8422 986.9406,-681.6866"/>
<text text-anchor="middle" x="1056" y="-780.7056" font-family="Times,serif" font-size="20.00" fill="#000000">[NA]</text>
<text text-anchor="middle" x="1056" y="-758.7056" font-family="Times,serif" font-size="20.00" fill="#000000">attachment</text>
</g>
<!-- SG_1_Node_6 -->
<g id="node24" class="node">
<title>SG_1_Node_6</title>
<polygon fill="none" stroke="#000000" points="1232.5,-668.4924 1041.5,-668.4924 1041.5,-632.4924 1232.5,-632.4924 1232.5,-668.4924"/>
<text text-anchor="middle" x="1137" y="-645.4924" font-family="Times,serif" font-size="20.00" fill="#000000">X&#45;Frame&#45;Options</text>
</g>
<!-- SG_1_Node_4&#45;&gt;SG_1_Node_6 -->
<g id="edge18" class="edge">
<title>SG_1_Node_4&#45;&gt;SG_1_Node_6</title>
<path fill="none" stroke="#000000" d="M1065.0177,-880.8277C1083.7388,-871.697 1103.1457,-858.6552 1115,-840.7056 1147.7237,-791.156 1145.4924,-718.1473 1141.154,-678.5396"/>
<polygon fill="#000000" stroke="#000000" points="1144.6184,-678.034 1139.9329,-668.5315 1137.6699,-678.8819 1144.6184,-678.034"/>
<text text-anchor="middle" x="1175" y="-769.7056" font-family="Times,serif" font-size="20.00" fill="#000000">empty</text>
</g>
<!-- SG_1_Node_13 -->
<g id="node25" class="node">
<title>SG_1_Node_13</title>
<ellipse fill="none" stroke="#000000" cx="638" cy="-468.066" rx="34.7971" ry="21.4286"/>
<text text-anchor="middle" x="638" y="-463.066" font-family="Times,serif" font-size="20.00" fill="#000000">0.0</text>
</g>
<!-- SG_1_Node_5&#45;&gt;SG_1_Node_13 -->
<g id="edge27" class="edge">
<title>SG_1_Node_5&#45;&gt;SG_1_Node_13</title>
<path fill="none" stroke="#000000" d="M722.6333,-632.4046C686.6401,-621.6892 648.4266,-607.2989 638,-592.2792 619.1354,-565.1044 622.8792,-525.8956 628.91,-498.8329"/>
<polygon fill="#000000" stroke="#000000" points="632.3129,-499.6514 631.291,-489.1059 625.5136,-497.987 632.3129,-499.6514"/>
<text text-anchor="middle" x="748.5" y="-554.2792" font-family="Times,serif" font-size="20.00" fill="#000000">frame&#45;ancestors &#39;self&#39;</text>
</g>
<!-- SG_1_Node_7 -->
<g id="node26" class="node">
<title>SG_1_Node_7</title>
<polygon fill="none" stroke="#000000" points="966,-486.066 824,-486.066 824,-450.066 966,-450.066 966,-486.066"/>
<text text-anchor="middle" x="895" y="-463.066" font-family="Times,serif" font-size="20.00" fill="#000000">Status&#45;Code</text>
</g>
<!-- SG_1_Node_5&#45;&gt;SG_1_Node_7 -->
<g id="edge28" class="edge">
<title>SG_1_Node_5&#45;&gt;SG_1_Node_7</title>
<path fill="none" stroke="#000000" d="M822.9089,-632.3964C836.9427,-622.2192 852.9094,-608.3361 863,-592.2792 881.5372,-562.7817 889.3685,-522.9481 892.656,-496.4277"/>
<polygon fill="#000000" stroke="#000000" points="896.1571,-496.6088 893.7721,-486.2859 889.1991,-495.843 896.1571,-496.6088"/>
<text text-anchor="middle" x="969.5" y="-576.2792" font-family="Times,serif" font-size="20.00" fill="#000000">[NA]</text>
<text text-anchor="middle" x="969.5" y="-554.2792" font-family="Times,serif" font-size="20.00" fill="#000000">default&#45;src &#39;self&#39;</text>
<text text-anchor="middle" x="969.5" y="-532.2792" font-family="Times,serif" font-size="20.00" fill="#000000">empty</text>
</g>
<!-- SG_1_Node_14 -->
<g id="node27" class="node">
<title>SG_1_Node_14</title>
<ellipse fill="none" stroke="#000000" cx="1122" cy="-468.066" rx="34.7971" ry="21.4286"/>
<text text-anchor="middle" x="1122" y="-463.066" font-family="Times,serif" font-size="20.00" fill="#000000">0.0</text>
</g>
<!-- SG_1_Node_6&#45;&gt;SG_1_Node_14 -->
<g id="edge19" class="edge">
<title>SG_1_Node_6&#45;&gt;SG_1_Node_14</title>
<path fill="none" stroke="#000000" d="M1135.5069,-632.3337C1132.9601,-601.3598 1127.7463,-537.9509 1124.5936,-499.6086"/>
<polygon fill="#000000" stroke="#000000" points="1128.0708,-499.1861 1123.763,-489.5066 1121.0943,-499.7598 1128.0708,-499.1861"/>
<text text-anchor="middle" x="1156.5" y="-554.2792" font-family="Times,serif" font-size="20.00" fill="#000000">deny</text>
</g>
<!-- SG_1_Node_8 -->
<g id="node28" class="node">
<title>SG_1_Node_8</title>
<polygon fill="none" stroke="#000000" points="1435,-486.066 1175,-486.066 1175,-450.066 1435,-450.066 1435,-486.066"/>
<text text-anchor="middle" x="1305" y="-463.066" font-family="Times,serif" font-size="20.00" fill="#000000">Content&#45;Security&#45;Policy</text>
</g>
<!-- SG_1_Node_6&#45;&gt;SG_1_Node_8 -->
<g id="edge20" class="edge">
<title>SG_1_Node_6&#45;&gt;SG_1_Node_8</title>
<path fill="none" stroke="#000000" d="M1153.7227,-632.3337C1183.7865,-599.6883 1247.0311,-531.0128 1281.4583,-493.6293"/>
<polygon fill="#000000" stroke="#000000" points="1284.1453,-495.8782 1288.345,-486.1513 1278.9961,-491.1362 1284.1453,-495.8782"/>
<text text-anchor="middle" x="1283" y="-565.2792" font-family="Times,serif" font-size="20.00" fill="#000000">[NA]</text>
<text text-anchor="middle" x="1283" y="-543.2792" font-family="Times,serif" font-size="20.00" fill="#000000">empty</text>
</g>
<!-- SG_1_Node_15 -->
<g id="node29" class="node">
<title>SG_1_Node_15</title>
<ellipse fill="none" stroke="#000000" cx="826" cy="-219.6396" rx="34.7971" ry="21.4286"/>
<text text-anchor="middle" x="826" y="-214.6396" font-family="Times,serif" font-size="20.00" fill="#000000">0.0</text>
</g>
<!-- SG_1_Node_7&#45;&gt;SG_1_Node_15 -->
<g id="edge29" class="edge">
<title>SG_1_Node_7&#45;&gt;SG_1_Node_15</title>
<path fill="none" stroke="#000000" d="M879.7595,-449.8332C871.4294,-438.9045 861.6794,-424.3512 856,-409.8528 835.1574,-356.6454 828.7733,-289.6906 826.8319,-251.0671"/>
<polygon fill="#000000" stroke="#000000" points="830.3237,-250.7986 826.3939,-240.9596 823.3303,-251.1018 830.3237,-250.7986"/>
<text text-anchor="middle" x="875.5" y="-371.8528" font-family="Times,serif" font-size="20.00" fill="#000000">100</text>
<text text-anchor="middle" x="875.5" y="-349.8528" font-family="Times,serif" font-size="20.00" fill="#000000">102</text>
<text text-anchor="middle" x="875.5" y="-327.8528" font-family="Times,serif" font-size="20.00" fill="#000000">103</text>
<text text-anchor="middle" x="875.5" y="-305.8528" font-family="Times,serif" font-size="20.00" fill="#000000">407</text>
</g>
<!-- SG_1_Node_16 -->
<g id="node30" class="node">
<title>SG_1_Node_16</title>
<ellipse fill="none" stroke="#000000" cx="913" cy="-219.6396" rx="34.7971" ry="21.4286"/>
<text text-anchor="middle" x="913" y="-214.6396" font-family="Times,serif" font-size="20.00" fill="#000000">1.0</text>
</g>
<!-- SG_1_Node_7&#45;&gt;SG_1_Node_16 -->
<g id="edge30" class="edge">
<title>SG_1_Node_7&#45;&gt;SG_1_Node_16</title>
<path fill="none" stroke="#000000" d="M896.3236,-449.7986C899.3694,-407.7616 906.905,-303.759 910.7156,-251.1671"/>
<polygon fill="#000000" stroke="#000000" points="914.2156,-251.2933 911.4475,-241.0665 907.2339,-250.7874 914.2156,-251.2933"/>
<text text-anchor="middle" x="954" y="-349.8528" font-family="Times,serif" font-size="20.00" fill="#000000">[NA]</text>
<text text-anchor="middle" x="954" y="-327.8528" font-family="Times,serif" font-size="20.00" fill="#000000">52 levels</text>
</g>
<!-- SG_1_Node_17 -->
<g id="node31" class="node">
<title>SG_1_Node_17</title>
<ellipse fill="none" stroke="#000000" cx="1058" cy="-219.6396" rx="34.7971" ry="21.4286"/>
<text text-anchor="middle" x="1058" y="-214.6396" font-family="Times,serif" font-size="20.00" fill="#000000">0.0</text>
</g>
<!-- SG_1_Node_8&#45;&gt;SG_1_Node_17 -->
<g id="edge21" class="edge">
<title>SG_1_Node_8&#45;&gt;SG_1_Node_17</title>
<path fill="none" stroke="#000000" d="M1189.1688,-450.0234C1142.9143,-440.4107 1097.047,-426.9922 1082,-409.8528 1043.4159,-365.9032 1046.4903,-292.6786 1052.2146,-251.0682"/>
<polygon fill="#000000" stroke="#000000" points="1055.7085,-251.3718 1053.7441,-240.9607 1048.7873,-250.3244 1055.7085,-251.3718"/>
<text text-anchor="middle" x="1192.5" y="-338.8528" font-family="Times,serif" font-size="20.00" fill="#000000">frame&#45;ancestors &#39;self&#39;</text>
</g>
<!-- SG_1_Node_18 -->
<g id="node32" class="node">
<title>SG_1_Node_18</title>
<ellipse fill="none" stroke="#000000" cx="1315" cy="-219.6396" rx="34.7971" ry="21.4286"/>
<text text-anchor="middle" x="1315" y="-214.6396" font-family="Times,serif" font-size="20.00" fill="#000000">1.0</text>
</g>
<!-- SG_1_Node_8&#45;&gt;SG_1_Node_18 -->
<g id="edge22" class="edge">
<title>SG_1_Node_8&#45;&gt;SG_1_Node_18</title>
<path fill="none" stroke="#000000" d="M1305.7353,-449.7986C1307.4275,-407.7616 1311.6139,-303.759 1313.7309,-251.1671"/>
<polygon fill="#000000" stroke="#000000" points="1317.2324,-251.1992 1314.1375,-241.0665 1310.238,-250.9176 1317.2324,-251.1992"/>
<text text-anchor="middle" x="1394.5" y="-360.8528" font-family="Times,serif" font-size="20.00" fill="#000000">[NA]</text>
<text text-anchor="middle" x="1394.5" y="-338.8528" font-family="Times,serif" font-size="20.00" fill="#000000">default&#45;src &#39;self&#39;</text>
<text text-anchor="middle" x="1394.5" y="-316.8528" font-family="Times,serif" font-size="20.00" fill="#000000">empty</text>
</g>
<!-- SG_2_Node_0 -->
<g id="node33" class="node">
<title>SG_2_Node_0</title>
<polygon fill="none" stroke="#000000" points="4995,-1432.5584 4853,-1432.5584 4853,-1396.5584 4995,-1396.5584 4995,-1432.5584"/>
<text text-anchor="middle" x="4924" y="-1409.5584" font-family="Times,serif" font-size="20.00" fill="#000000">Status&#45;Code</text>
</g>
<!-- SG_2_Node_1 -->
<g id="node34" class="node">
<title>SG_2_Node_1</title>
<polygon fill="none" stroke="#000000" points="4888.5,-1099.3452 4783.5,-1099.3452 4783.5,-1063.3452 4888.5,-1063.3452 4888.5,-1099.3452"/>
<text text-anchor="middle" x="4836" y="-1076.3452" font-family="Times,serif" font-size="20.00" fill="#000000">Location</text>
</g>
<!-- SG_2_Node_0&#45;&gt;SG_2_Node_1 -->
<g id="edge31" class="edge">
<title>SG_2_Node_0&#45;&gt;SG_2_Node_1</title>
<path fill="none" stroke="#000000" d="M4919.1434,-1396.1688C4904.5392,-1340.8697 4860.9527,-1175.829 4843.4229,-1109.4521"/>
<polygon fill="#000000" stroke="#000000" points="4846.7791,-1108.4528 4840.8416,-1099.678 4840.0111,-1110.2403 4846.7791,-1108.4528"/>
<text text-anchor="middle" x="4928.5" y="-1343.5584" font-family="Times,serif" font-size="20.00" fill="#000000">100</text>
<text text-anchor="middle" x="4928.5" y="-1321.5584" font-family="Times,serif" font-size="20.00" fill="#000000">102</text>
<text text-anchor="middle" x="4928.5" y="-1299.5584" font-family="Times,serif" font-size="20.00" fill="#000000">103</text>
<text text-anchor="middle" x="4928.5" y="-1277.5584" font-family="Times,serif" font-size="20.00" fill="#000000">301</text>
<text text-anchor="middle" x="4928.5" y="-1255.5584" font-family="Times,serif" font-size="20.00" fill="#000000">302</text>
<text text-anchor="middle" x="4928.5" y="-1233.5584" font-family="Times,serif" font-size="20.00" fill="#000000">303</text>
<text text-anchor="middle" x="4928.5" y="-1211.5584" font-family="Times,serif" font-size="20.00" fill="#000000">305</text>
<text text-anchor="middle" x="4928.5" y="-1189.5584" font-family="Times,serif" font-size="20.00" fill="#000000">307</text>
<text text-anchor="middle" x="4928.5" y="-1167.5584" font-family="Times,serif" font-size="20.00" fill="#000000">308</text>
<text text-anchor="middle" x="4928.5" y="-1145.5584" font-family="Times,serif" font-size="20.00" fill="#000000">407</text>
</g>
<!-- SG_2_Node_2 -->
<g id="node35" class="node">
<title>SG_2_Node_2</title>
<polygon fill="none" stroke="#000000" points="5107.5,-1099.3452 4916.5,-1099.3452 4916.5,-1063.3452 5107.5,-1063.3452 5107.5,-1099.3452"/>
<text text-anchor="middle" x="5012" y="-1076.3452" font-family="Times,serif" font-size="20.00" fill="#000000">X&#45;Frame&#45;Options</text>
</g>
<!-- SG_2_Node_0&#45;&gt;SG_2_Node_2 -->
<g id="edge32" class="edge">
<title>SG_2_Node_0&#45;&gt;SG_2_Node_2</title>
<path fill="none" stroke="#000000" d="M4934.691,-1396.503C4940.5141,-1386.0159 4947.4408,-1372.3797 4952,-1359.5584 4983.5294,-1270.892 5001.3541,-1160.1702 5008.4149,-1109.2841"/>
<polygon fill="#000000" stroke="#000000" points="5011.8846,-1109.7426 5009.7592,-1099.3632 5004.948,-1108.8026 5011.8846,-1109.7426"/>
<text text-anchor="middle" x="5049" y="-1255.5584" font-family="Times,serif" font-size="20.00" fill="#000000">[NA]</text>
<text text-anchor="middle" x="5049" y="-1233.5584" font-family="Times,serif" font-size="20.00" fill="#000000">52 levels</text>
</g>
<!-- SG_2_Node_7 -->
<g id="node36" class="node">
<title>SG_2_Node_7</title>
<ellipse fill="none" stroke="#000000" cx="4526" cy="-898.9188" rx="34.7971" ry="21.4286"/>
<text text-anchor="middle" x="4526" y="-893.9188" font-family="Times,serif" font-size="20.00" fill="#000000">0.0</text>
</g>
<!-- SG_2_Node_1&#45;&gt;SG_2_Node_7 -->
<g id="edge37" class="edge">
<title>SG_2_Node_1&#45;&gt;SG_2_Node_7</title>
<path fill="none" stroke="#000000" d="M4783.2993,-1079.1527C4704.0764,-1074.6345 4560.1234,-1061.2665 4528,-1023.132 4506.5615,-997.6818 4510.2381,-957.79 4516.5438,-930.1087"/>
<polygon fill="#000000" stroke="#000000" points="4520.0028,-930.7042 4519.0424,-920.153 4513.2134,-929.0003 4520.0028,-930.7042"/>
<text text-anchor="middle" x="4665" y="-1007.132" font-family="Times,serif" font-size="20.00" fill="#000000">[NA]</text>
<text text-anchor="middle" x="4665" y="-985.132" font-family="Times,serif" font-size="20.00" fill="#000000">/</text>
<text text-anchor="middle" x="4665" y="-963.132" font-family="Times,serif" font-size="20.00" fill="#000000">http://localhost:8000/echo/</text>
</g>
<!-- SG_2_Node_3 -->
<g id="node37" class="node">
<title>SG_2_Node_3</title>
<polygon fill="none" stroke="#000000" points="4864,-916.9188 4722,-916.9188 4722,-880.9188 4864,-880.9188 4864,-916.9188"/>
<text text-anchor="middle" x="4793" y="-893.9188" font-family="Times,serif" font-size="20.00" fill="#000000">Status&#45;Code</text>
</g>
<!-- SG_2_Node_1&#45;&gt;SG_2_Node_3 -->
<g id="edge38" class="edge">
<title>SG_2_Node_1&#45;&gt;SG_2_Node_3</title>
<path fill="none" stroke="#000000" d="M4831.7198,-1063.1866C4824.1859,-1031.2241 4808.5109,-964.7233 4799.5881,-926.8688"/>
<polygon fill="#000000" stroke="#000000" points="4802.9639,-925.9343 4797.2629,-917.0041 4796.1506,-927.5404 4802.9639,-925.9343"/>
<text text-anchor="middle" x="4854" y="-985.132" font-family="Times,serif" font-size="20.00" fill="#000000">empty</text>
</g>
<!-- SG_2_Node_4 -->
<g id="node38" class="node">
<title>SG_2_Node_4</title>
<polygon fill="none" stroke="#000000" points="5142,-916.9188 4882,-916.9188 4882,-880.9188 5142,-880.9188 5142,-916.9188"/>
<text text-anchor="middle" x="5012" y="-893.9188" font-family="Times,serif" font-size="20.00" fill="#000000">Content&#45;Security&#45;Policy</text>
</g>
<!-- SG_2_Node_2&#45;&gt;SG_2_Node_4 -->
<g id="edge33" class="edge">
<title>SG_2_Node_2&#45;&gt;SG_2_Node_4</title>
<path fill="none" stroke="#000000" d="M5012,-1063.1866C5012,-1031.3607 5012,-965.291 5012,-927.3557"/>
<polygon fill="#000000" stroke="#000000" points="5015.5001,-927.004 5012,-917.0041 5008.5001,-927.0041 5015.5001,-927.004"/>
<text text-anchor="middle" x="5044" y="-985.132" font-family="Times,serif" font-size="20.00" fill="#000000">empty</text>
</g>
<!-- SG_2_Node_8 -->
<g id="node39" class="node">
<title>SG_2_Node_8</title>
<ellipse fill="none" stroke="#000000" cx="5195" cy="-898.9188" rx="34.7971" ry="21.4286"/>
<text text-anchor="middle" x="5195" y="-893.9188" font-family="Times,serif" font-size="20.00" fill="#000000">1.0</text>
</g>
<!-- SG_2_Node_2&#45;&gt;SG_2_Node_8 -->
<g id="edge34" class="edge">
<title>SG_2_Node_2&#45;&gt;SG_2_Node_8</title>
<path fill="none" stroke="#000000" d="M5034.6213,-1063.0989C5048.1315,-1051.9299 5065.4394,-1037.1371 5080,-1023.132 5113.2551,-991.1457 5148.9761,-951.6716 5171.6294,-925.9261"/>
<polygon fill="#000000" stroke="#000000" points="5174.549,-927.9049 5178.5054,-918.0765 5169.2835,-923.2924 5174.549,-927.9049"/>
<text text-anchor="middle" x="5167" y="-996.132" font-family="Times,serif" font-size="20.00" fill="#000000">[NA]</text>
<text text-anchor="middle" x="5167" y="-974.132" font-family="Times,serif" font-size="20.00" fill="#000000">deny</text>
</g>
<!-- SG_2_Node_9 -->
<g id="node40" class="node">
<title>SG_2_Node_9</title>
<ellipse fill="none" stroke="#000000" cx="4659" cy="-650.4924" rx="34.7971" ry="21.4286"/>
<text text-anchor="middle" x="4659" y="-645.4924" font-family="Times,serif" font-size="20.00" fill="#000000">0.0</text>
</g>
<!-- SG_2_Node_3&#45;&gt;SG_2_Node_9 -->
<g id="edge39" class="edge">
<title>SG_2_Node_3&#45;&gt;SG_2_Node_9</title>
<path fill="none" stroke="#000000" d="M4779.5164,-880.7457C4771.4115,-869.4801 4761.1278,-854.5614 4753,-840.7056 4720.9209,-786.0192 4689.486,-718.8843 4672.3302,-680.7607"/>
<polygon fill="#000000" stroke="#000000" points="4675.3609,-678.9642 4668.0828,-671.2649 4668.971,-681.8224 4675.3609,-678.9642"/>
<text text-anchor="middle" x="4772.5" y="-802.7056" font-family="Times,serif" font-size="20.00" fill="#000000">100</text>
<text text-anchor="middle" x="4772.5" y="-780.7056" font-family="Times,serif" font-size="20.00" fill="#000000">102</text>
<text text-anchor="middle" x="4772.5" y="-758.7056" font-family="Times,serif" font-size="20.00" fill="#000000">103</text>
<text text-anchor="middle" x="4772.5" y="-736.7056" font-family="Times,serif" font-size="20.00" fill="#000000">407</text>
</g>
<!-- SG_2_Node_5 -->
<g id="node41" class="node">
<title>SG_2_Node_5</title>
<polygon fill="none" stroke="#000000" points="4902.5,-668.4924 4711.5,-668.4924 4711.5,-632.4924 4902.5,-632.4924 4902.5,-668.4924"/>
<text text-anchor="middle" x="4807" y="-645.4924" font-family="Times,serif" font-size="20.00" fill="#000000">X&#45;Frame&#45;Options</text>
</g>
<!-- SG_2_Node_3&#45;&gt;SG_2_Node_5 -->
<g id="edge40" class="edge">
<title>SG_2_Node_3&#45;&gt;SG_2_Node_5</title>
<path fill="none" stroke="#000000" d="M4794.0295,-880.6514C4796.4466,-837.7606 4802.499,-730.3618 4805.4002,-678.8802"/>
<polygon fill="#000000" stroke="#000000" points="4808.9007,-678.9677 4805.969,-668.7866 4801.9118,-678.5738 4808.9007,-678.9677"/>
<text text-anchor="middle" x="4822.5" y="-824.7056" font-family="Times,serif" font-size="20.00" fill="#000000">301</text>
<text text-anchor="middle" x="4822.5" y="-802.7056" font-family="Times,serif" font-size="20.00" fill="#000000">302</text>
<text text-anchor="middle" x="4822.5" y="-780.7056" font-family="Times,serif" font-size="20.00" fill="#000000">303</text>
<text text-anchor="middle" x="4822.5" y="-758.7056" font-family="Times,serif" font-size="20.00" fill="#000000">305</text>
<text text-anchor="middle" x="4822.5" y="-736.7056" font-family="Times,serif" font-size="20.00" fill="#000000">307</text>
<text text-anchor="middle" x="4822.5" y="-714.7056" font-family="Times,serif" font-size="20.00" fill="#000000">308</text>
</g>
<!-- SG_2_Node_10 -->
<g id="node42" class="node">
<title>SG_2_Node_10</title>
<ellipse fill="none" stroke="#000000" cx="4989" cy="-650.4924" rx="34.7971" ry="21.4286"/>
<text text-anchor="middle" x="4989" y="-645.4924" font-family="Times,serif" font-size="20.00" fill="#000000">0.0</text>
</g>
<!-- SG_2_Node_4&#45;&gt;SG_2_Node_10 -->
<g id="edge35" class="edge">
<title>SG_2_Node_4&#45;&gt;SG_2_Node_10</title>
<path fill="none" stroke="#000000" d="M5008.8297,-880.8759C5006.9086,-869.4041 5004.5395,-854.2195 5003,-840.7056 4996.6723,-785.1598 4992.6016,-720.1465 4990.5632,-682.3131"/>
<polygon fill="#000000" stroke="#000000" points="4994.0381,-681.7418 4990.0187,-671.939 4987.0477,-682.1087 4994.0381,-681.7418"/>
<text text-anchor="middle" x="5085.5" y="-791.7056" font-family="Times,serif" font-size="20.00" fill="#000000">[NA]</text>
<text text-anchor="middle" x="5085.5" y="-769.7056" font-family="Times,serif" font-size="20.00" fill="#000000">default&#45;src &#39;self&#39;</text>
<text text-anchor="middle" x="5085.5" y="-747.7056" font-family="Times,serif" font-size="20.00" fill="#000000">empty</text>
</g>
<!-- SG_2_Node_11 -->
<g id="node43" class="node">
<title>SG_2_Node_11</title>
<ellipse fill="none" stroke="#000000" cx="5190" cy="-650.4924" rx="34.7971" ry="21.4286"/>
<text text-anchor="middle" x="5190" y="-645.4924" font-family="Times,serif" font-size="20.00" fill="#000000">1.0</text>
</g>
<!-- SG_2_Node_4&#45;&gt;SG_2_Node_11 -->
<g id="edge36" class="edge">
<title>SG_2_Node_4&#45;&gt;SG_2_Node_11</title>
<path fill="none" stroke="#000000" d="M5081.0211,-880.8641C5117.2876,-869.9382 5156.5482,-855.3281 5168,-840.7056 5203.9203,-794.8402 5200.9715,-722.6334 5195.5367,-681.6422"/>
<polygon fill="#000000" stroke="#000000" points="5198.9912,-681.0755 5194.0849,-671.6851 5192.0644,-682.0855 5198.9912,-681.0755"/>
<text text-anchor="middle" x="5308.5" y="-769.7056" font-family="Times,serif" font-size="20.00" fill="#000000">frame&#45;ancestors &#39;self&#39;</text>
</g>
<!-- SG_2_Node_6 -->
<g id="node44" class="node">
<title>SG_2_Node_6</title>
<polygon fill="none" stroke="#000000" points="4786,-486.066 4526,-486.066 4526,-450.066 4786,-450.066 4786,-486.066"/>
<text text-anchor="middle" x="4656" y="-463.066" font-family="Times,serif" font-size="20.00" fill="#000000">Content&#45;Security&#45;Policy</text>
</g>
<!-- SG_2_Node_5&#45;&gt;SG_2_Node_6 -->
<g id="edge41" class="edge">
<title>SG_2_Node_5&#45;&gt;SG_2_Node_6</title>
<path fill="none" stroke="#000000" d="M4787.4973,-632.2621C4775.9001,-621.0989 4761.1331,-606.3064 4749,-592.2792 4721.2538,-560.2015 4692.4611,-520.5997 4674.403,-494.8605"/>
<polygon fill="#000000" stroke="#000000" points="4677.0732,-492.5706 4668.4826,-486.3694 4671.3311,-496.5742 4677.0732,-492.5706"/>
<text text-anchor="middle" x="4781" y="-565.2792" font-family="Times,serif" font-size="20.00" fill="#000000">[NA]</text>
<text text-anchor="middle" x="4781" y="-543.2792" font-family="Times,serif" font-size="20.00" fill="#000000">empty</text>
</g>
<!-- SG_2_Node_12 -->
<g id="node45" class="node">
<title>SG_2_Node_12</title>
<ellipse fill="none" stroke="#000000" cx="4839" cy="-468.066" rx="34.7971" ry="21.4286"/>
<text text-anchor="middle" x="4839" y="-463.066" font-family="Times,serif" font-size="20.00" fill="#000000">1.0</text>
</g>
<!-- SG_2_Node_5&#45;&gt;SG_2_Node_12 -->
<g id="edge42" class="edge">
<title>SG_2_Node_5&#45;&gt;SG_2_Node_12</title>
<path fill="none" stroke="#000000" d="M4810.1853,-632.3337C4815.633,-601.2775 4826.8005,-537.6134 4833.5206,-499.3032"/>
<polygon fill="#000000" stroke="#000000" points="4837.0091,-499.6727 4835.2896,-489.2183 4830.1144,-498.4632 4837.0091,-499.6727"/>
<text text-anchor="middle" x="4852.5" y="-554.2792" font-family="Times,serif" font-size="20.00" fill="#000000">deny</text>
</g>
<!-- SG_2_Node_13 -->
<g id="node46" class="node">
<title>SG_2_Node_13</title>
<ellipse fill="none" stroke="#000000" cx="4588" cy="-219.6396" rx="34.7971" ry="21.4286"/>
<text text-anchor="middle" x="4588" y="-214.6396" font-family="Times,serif" font-size="20.00" fill="#000000">0.0</text>
</g>
<!-- SG_2_Node_6&#45;&gt;SG_2_Node_13 -->
<g id="edge43" class="edge">
<title>SG_2_Node_6&#45;&gt;SG_2_Node_13</title>
<path fill="none" stroke="#000000" d="M4632.9,-449.843C4621.4995,-439.4446 4608.7691,-425.3988 4602,-409.8528 4579.344,-357.821 4580.7486,-290.2036 4584.1521,-251.1898"/>
<polygon fill="#000000" stroke="#000000" points="4587.6605,-251.2735 4585.1468,-240.9812 4580.6935,-250.5946 4587.6605,-251.2735"/>
<text text-anchor="middle" x="4684.5" y="-360.8528" font-family="Times,serif" font-size="20.00" fill="#000000">[NA]</text>
<text text-anchor="middle" x="4684.5" y="-338.8528" font-family="Times,serif" font-size="20.00" fill="#000000">default&#45;src &#39;self&#39;</text>
<text text-anchor="middle" x="4684.5" y="-316.8528" font-family="Times,serif" font-size="20.00" fill="#000000">empty</text>
</g>
<!-- SG_2_Node_14 -->
<g id="node47" class="node">
<title>SG_2_Node_14</title>
<ellipse fill="none" stroke="#000000" cx="4789" cy="-219.6396" rx="34.7971" ry="21.4286"/>
<text text-anchor="middle" x="4789" y="-214.6396" font-family="Times,serif" font-size="20.00" fill="#000000">1.0</text>
</g>
<!-- SG_2_Node_6&#45;&gt;SG_2_Node_14 -->
<g id="edge44" class="edge">
<title>SG_2_Node_6&#45;&gt;SG_2_Node_14</title>
<path fill="none" stroke="#000000" d="M4714.8329,-449.9481C4734.4656,-440.9846 4754.5022,-428.0633 4767,-409.8528 4799.7223,-362.173 4798.1324,-291.4628 4793.7523,-251.0366"/>
<polygon fill="#000000" stroke="#000000" points="4797.2094,-250.4698 4792.5338,-240.9625 4790.26,-251.3104 4797.2094,-250.4698"/>
<text text-anchor="middle" x="4906.5" y="-338.8528" font-family="Times,serif" font-size="20.00" fill="#000000">frame&#45;ancestors &#39;self&#39;</text>
</g>
</g>
</svg>
