<?xml version="1.0" encoding="UTF-8" standalone="no"?>
<!DOCTYPE svg PUBLIC "-//W3C//DTD SVG 1.1//EN"
 "http://www.w3.org/Graphics/SVG/1.1/DTD/svg11.dtd">
<!-- Generated by graphviz version 2.40.1 (20161225.0304)
 -->
<!-- Title: G Pages: 1 -->
<svg width="9428pt" height="1509pt"
 viewBox="0.00 0.00 9428.00 1508.56" xmlns="http://www.w3.org/2000/svg" xmlns:xlink="http://www.w3.org/1999/xlink">
<g id="graph0" class="graph" transform="scale(1 1) rotate(0) translate(4 1504.5584)">
<title>G</title>
<polygon fill="#ffffff" stroke="transparent" points="-4,4 -4,-1504.5584 9424,-1504.5584 9424,4 -4,4"/>
<g id="clust1" class="cluster">
<title>cluster_0</title>
<polygon fill="none" stroke="#000000" points="8,-8 8,-1492.5584 511,-1492.5584 511,-8 8,-8"/>
<text text-anchor="middle" x="259.5" y="-1456.5584" font-family="Times,serif" font-size="40.00" fill="#000000">Tree 0, Class iframe&#45;tag</text>
</g>
<g id="clust9" class="cluster">
<title>cluster_1</title>
<polygon fill="none" stroke="#000000" points="519,-190.4264 519,-1492.5584 4433,-1492.5584 4433,-190.4264 519,-190.4264"/>
<text text-anchor="middle" x="2476" y="-1456.5584" font-family="Times,serif" font-size="40.00" fill="#000000">Tree 0, Class {&#39;code&#39;: 18, &#39;name&#39;: &#39;SecurityError&#39;, &#39;message&#39;: &#39;Blocked a frame with origin http://localhost:8001 from accessing a cross&#45;origin frame. Protocols, domains, and ports must match.&#39;}</text>
</g>
<g id="clust16" class="cluster">
<title>cluster_2</title>
<polygon fill="none" stroke="#000000" points="4441,-190.4264 4441,-1492.5584 9412,-1492.5584 9412,-190.4264 4441,-190.4264"/>
<text text-anchor="middle" x="6926.5" y="-1456.5584" font-family="Times,serif" font-size="40.00" fill="#000000">Tree 0, Class {&#39;code&#39;: 18, &#39;name&#39;: &#39;SecurityError&#39;, &#39;message&#39;: &#39;Sandbox access violation: Blocked a frame at http://localhost:8001 from accessing a cross&#45;origin frame. &#160;The frame being accessed is sandboxed and lacks the allow&#45;same&#45;origin flag.&#39;}</text>
</g>
<!-- SG_0_Node_0 -->
<g id="node1" class="node">
<title>SG_0_Node_0</title>
<polygon fill="none" stroke="#000000" points="264,-1432.5584 122,-1432.5584 122,-1396.5584 264,-1396.5584 264,-1432.5584"/>
<text text-anchor="middle" x="193" y="-1409.5584" font-family="Times,serif" font-size="20.00" fill="#000000">Status&#45;Code</text>
</g>
<!-- SG_0_Node_1 -->
<g id="node2" class="node">
<title>SG_0_Node_1</title>
<polygon fill="none" stroke="#000000" points="219.5,-1099.3452 28.5,-1099.3452 28.5,-1063.3452 219.5,-1063.3452 219.5,-1099.3452"/>
<text text-anchor="middle" x="124" y="-1076.3452" font-family="Times,serif" font-size="20.00" fill="#000000">X&#45;Frame&#45;Options</text>
</g>
<!-- SG_0_Node_0&#45;&gt;SG_0_Node_1 -->
<g id="edge1" class="edge">
<title>SG_0_Node_0&#45;&gt;SG_0_Node_1</title>
<path fill="none" stroke="#000000" d="M175.8357,-1396.1805C167.4858,-1386.1286 158.1595,-1373.007 153,-1359.5584 119.8713,-1273.2062 119.9846,-1161.3553 122.2144,-1109.7392"/>
<polygon fill="#000000" stroke="#000000" points="125.7141,-1109.8304 122.7112,-1099.67 118.7226,-1109.4854 125.7141,-1109.8304"/>
<text text-anchor="middle" x="199" y="-1255.5584" font-family="Times,serif" font-size="20.00" fill="#000000">[NA]</text>
<text text-anchor="middle" x="199" y="-1233.5584" font-family="Times,serif" font-size="20.00" fill="#000000">58 levels</text>
</g>
<!-- SG_0_Node_6 -->
<g id="node3" class="node">
<title>SG_0_Node_6</title>
<ellipse fill="none" stroke="#000000" cx="272" cy="-1081.3452" rx="34.7971" ry="21.4286"/>
<text text-anchor="middle" x="272" y="-1076.3452" font-family="Times,serif" font-size="20.00" fill="#000000">1.0</text>
</g>
<!-- SG_0_Node_0&#45;&gt;SG_0_Node_6 -->
<g id="edge2" class="edge">
<title>SG_0_Node_0&#45;&gt;SG_0_Node_6</title>
<path fill="none" stroke="#000000" d="M216.1729,-1396.3915C226.8315,-1386.6765 238.5231,-1373.7914 245,-1359.5584 282.6088,-1276.9132 279.665,-1166.4541 275.3571,-1112.9891"/>
<polygon fill="#000000" stroke="#000000" points="278.8219,-1112.4335 274.4601,-1102.7782 271.8487,-1113.0461 278.8219,-1112.4335"/>
<text text-anchor="middle" x="296.5" y="-1277.5584" font-family="Times,serif" font-size="20.00" fill="#000000">100</text>
<text text-anchor="middle" x="296.5" y="-1255.5584" font-family="Times,serif" font-size="20.00" fill="#000000">102</text>
<text text-anchor="middle" x="296.5" y="-1233.5584" font-family="Times,serif" font-size="20.00" fill="#000000">103</text>
<text text-anchor="middle" x="296.5" y="-1211.5584" font-family="Times,serif" font-size="20.00" fill="#000000">407</text>
</g>
<!-- SG_0_Node_7 -->
<g id="node4" class="node">
<title>SG_0_Node_7</title>
<ellipse fill="none" stroke="#000000" cx="71" cy="-898.9188" rx="34.7971" ry="21.4286"/>
<text text-anchor="middle" x="71" y="-893.9188" font-family="Times,serif" font-size="20.00" fill="#000000">0.0</text>
</g>
<!-- SG_0_Node_1&#45;&gt;SG_0_Node_7 -->
<g id="edge3" class="edge">
<title>SG_0_Node_1&#45;&gt;SG_0_Node_7</title>
<path fill="none" stroke="#000000" d="M118.7244,-1063.1866C109.7017,-1032.1303 91.2055,-968.4662 80.0753,-930.156"/>
<polygon fill="#000000" stroke="#000000" points="83.2964,-928.6976 77.1453,-920.0711 76.5743,-930.6505 83.2964,-928.6976"/>
<text text-anchor="middle" x="131.5" y="-985.132" font-family="Times,serif" font-size="20.00" fill="#000000">deny</text>
</g>
<!-- SG_0_Node_2 -->
<g id="node5" class="node">
<title>SG_0_Node_2</title>
<polygon fill="none" stroke="#000000" points="344.5,-916.9188 123.5,-916.9188 123.5,-880.9188 344.5,-880.9188 344.5,-916.9188"/>
<text text-anchor="middle" x="234" y="-893.9188" font-family="Times,serif" font-size="20.00" fill="#000000">Content&#45;Disposition</text>
</g>
<!-- SG_0_Node_1&#45;&gt;SG_0_Node_2 -->
<g id="edge4" class="edge">
<title>SG_0_Node_1&#45;&gt;SG_0_Node_2</title>
<path fill="none" stroke="#000000" d="M135.2663,-1063.2996C142.4026,-1051.8268 151.7991,-1036.642 160,-1023.132 180.3012,-989.6883 203.3121,-950.9254 218.2082,-925.7168"/>
<polygon fill="#000000" stroke="#000000" points="221.2387,-927.4682 223.3091,-917.0776 215.2109,-923.9092 221.2387,-927.4682"/>
<text text-anchor="middle" x="231" y="-996.132" font-family="Times,serif" font-size="20.00" fill="#000000">[NA]</text>
<text text-anchor="middle" x="231" y="-974.132" font-family="Times,serif" font-size="20.00" fill="#000000">empty</text>
</g>
<!-- SG_0_Node_8 -->
<g id="node6" class="node">
<title>SG_0_Node_8</title>
<ellipse fill="none" stroke="#000000" cx="113" cy="-650.4924" rx="34.7971" ry="21.4286"/>
<text text-anchor="middle" x="113" y="-645.4924" font-family="Times,serif" font-size="20.00" fill="#000000">0.0</text>
</g>
<!-- SG_0_Node_2&#45;&gt;SG_0_Node_8 -->
<g id="edge5" class="edge">
<title>SG_0_Node_2&#45;&gt;SG_0_Node_8</title>
<path fill="none" stroke="#000000" d="M213.5776,-880.8874C202.4107,-870.1361 189.0501,-855.6922 180,-840.7056 148.7653,-788.9823 129.1948,-720.5523 119.7568,-681.4467"/>
<polygon fill="#000000" stroke="#000000" points="123.1612,-680.6338 117.4683,-671.6984 116.3465,-682.2337 123.1612,-680.6338"/>
<text text-anchor="middle" x="212" y="-769.7056" font-family="Times,serif" font-size="20.00" fill="#000000">empty</text>
</g>
<!-- SG_0_Node_3 -->
<g id="node7" class="node">
<title>SG_0_Node_3</title>
<polygon fill="none" stroke="#000000" points="426,-668.4924 166,-668.4924 166,-632.4924 426,-632.4924 426,-668.4924"/>
<text text-anchor="middle" x="296" y="-645.4924" font-family="Times,serif" font-size="20.00" fill="#000000">Content&#45;Security&#45;Policy</text>
</g>
<!-- SG_0_Node_2&#45;&gt;SG_0_Node_3 -->
<g id="edge6" class="edge">
<title>SG_0_Node_2&#45;&gt;SG_0_Node_3</title>
<path fill="none" stroke="#000000" d="M238.559,-880.6514C249.2857,-837.6709 276.1791,-729.9122 288.9957,-678.5578"/>
<polygon fill="#000000" stroke="#000000" points="292.4086,-679.3365 291.4343,-668.7866 285.617,-677.6415 292.4086,-679.3365"/>
<text text-anchor="middle" x="340" y="-780.7056" font-family="Times,serif" font-size="20.00" fill="#000000">[NA]</text>
<text text-anchor="middle" x="340" y="-758.7056" font-family="Times,serif" font-size="20.00" fill="#000000">attachment</text>
</g>
<!-- SG_0_Node_9 -->
<g id="node8" class="node">
<title>SG_0_Node_9</title>
<ellipse fill="none" stroke="#000000" cx="80" cy="-468.066" rx="34.7971" ry="21.4286"/>
<text text-anchor="middle" x="80" y="-463.066" font-family="Times,serif" font-size="20.00" fill="#000000">0.0</text>
</g>
<!-- SG_0_Node_3&#45;&gt;SG_0_Node_9 -->
<g id="edge7" class="edge">
<title>SG_0_Node_3&#45;&gt;SG_0_Node_9</title>
<path fill="none" stroke="#000000" d="M185.3999,-632.4641C141.1716,-622.837 97.4969,-609.403 84,-592.2792 63.393,-566.1347 66.1724,-526.3855 71.6338,-498.9271"/>
<polygon fill="#000000" stroke="#000000" points="75.0742,-499.579 73.8151,-489.0592 68.2392,-498.068 75.0742,-499.579"/>
<text text-anchor="middle" x="194.5" y="-554.2792" font-family="Times,serif" font-size="20.00" fill="#000000">frame&#45;ancestors &#39;self&#39;</text>
</g>
<!-- SG_0_Node_4 -->
<g id="node9" class="node">
<title>SG_0_Node_4</title>
<polygon fill="none" stroke="#000000" points="408,-486.066 266,-486.066 266,-450.066 408,-450.066 408,-486.066"/>
<text text-anchor="middle" x="337" y="-463.066" font-family="Times,serif" font-size="20.00" fill="#000000">Status&#45;Code</text>
</g>
<!-- SG_0_Node_3&#45;&gt;SG_0_Node_4 -->
<g id="edge8" class="edge">
<title>SG_0_Node_3&#45;&gt;SG_0_Node_4</title>
<path fill="none" stroke="#000000" d="M300.0811,-632.3337C307.2646,-600.3713 322.2106,-533.8705 330.7183,-496.016"/>
<polygon fill="#000000" stroke="#000000" points="334.1573,-496.6754 332.9354,-486.1513 327.3277,-495.1404 334.1573,-496.6754"/>
<text text-anchor="middle" x="405.5" y="-576.2792" font-family="Times,serif" font-size="20.00" fill="#000000">[NA]</text>
<text text-anchor="middle" x="405.5" y="-554.2792" font-family="Times,serif" font-size="20.00" fill="#000000">default&#45;src &#39;self&#39;</text>
<text text-anchor="middle" x="405.5" y="-532.2792" font-family="Times,serif" font-size="20.00" fill="#000000">empty</text>
</g>
<!-- SG_0_Node_5 -->
<g id="node10" class="node">
<title>SG_0_Node_5</title>
<polygon fill="none" stroke="#000000" points="329.5,-237.6396 224.5,-237.6396 224.5,-201.6396 329.5,-201.6396 329.5,-237.6396"/>
<text text-anchor="middle" x="277" y="-214.6396" font-family="Times,serif" font-size="20.00" fill="#000000">Location</text>
</g>
<!-- SG_0_Node_4&#45;&gt;SG_0_Node_5 -->
<g id="edge9" class="edge">
<title>SG_0_Node_4&#45;&gt;SG_0_Node_5</title>
<path fill="none" stroke="#000000" d="M324.4262,-450.0309C317.3042,-438.9368 308.8704,-424.1485 304,-409.8528 285.1543,-354.5368 279.4577,-285.8416 277.7391,-247.9903"/>
<polygon fill="#000000" stroke="#000000" points="281.2259,-247.5809 277.3376,-237.7254 274.2312,-247.8545 281.2259,-247.5809"/>
<text text-anchor="middle" x="323.5" y="-393.8528" font-family="Times,serif" font-size="20.00" fill="#000000">301</text>
<text text-anchor="middle" x="323.5" y="-371.8528" font-family="Times,serif" font-size="20.00" fill="#000000">302</text>
<text text-anchor="middle" x="323.5" y="-349.8528" font-family="Times,serif" font-size="20.00" fill="#000000">303</text>
<text text-anchor="middle" x="323.5" y="-327.8528" font-family="Times,serif" font-size="20.00" fill="#000000">305</text>
<text text-anchor="middle" x="323.5" y="-305.8528" font-family="Times,serif" font-size="20.00" fill="#000000">307</text>
<text text-anchor="middle" x="323.5" y="-283.8528" font-family="Times,serif" font-size="20.00" fill="#000000">308</text>
</g>
<!-- SG_0_Node_10 -->
<g id="node11" class="node">
<title>SG_0_Node_10</title>
<ellipse fill="none" stroke="#000000" cx="382" cy="-219.6396" rx="34.7971" ry="21.4286"/>
<text text-anchor="middle" x="382" y="-214.6396" font-family="Times,serif" font-size="20.00" fill="#000000">1.0</text>
</g>
<!-- SG_0_Node_4&#45;&gt;SG_0_Node_10 -->
<g id="edge10" class="edge">
<title>SG_0_Node_4&#45;&gt;SG_0_Node_10</title>
<path fill="none" stroke="#000000" d="M340.309,-449.7986C347.9236,-407.7616 366.7626,-303.759 376.2891,-251.1671"/>
<polygon fill="#000000" stroke="#000000" points="379.7802,-251.5302 378.1187,-241.0665 372.8923,-250.2825 379.7802,-251.5302"/>
<text text-anchor="middle" x="417" y="-349.8528" font-family="Times,serif" font-size="20.00" fill="#000000">[NA]</text>
<text text-anchor="middle" x="417" y="-327.8528" font-family="Times,serif" font-size="20.00" fill="#000000">52 levels</text>
</g>
<!-- SG_0_Node_11 -->
<g id="node12" class="node">
<title>SG_0_Node_11</title>
<ellipse fill="none" stroke="#000000" cx="90" cy="-37.2132" rx="34.7971" ry="21.4286"/>
<text text-anchor="middle" x="90" y="-32.2132" font-family="Times,serif" font-size="20.00" fill="#000000">0.0</text>
</g>
<!-- SG_0_Node_5&#45;&gt;SG_0_Node_11 -->
<g id="edge11" class="edge">
<title>SG_0_Node_5&#45;&gt;SG_0_Node_11</title>
<path fill="none" stroke="#000000" d="M224.17,-210.37C174.7094,-200.4884 106.0741,-183.2652 90,-161.4264 70.3904,-134.7841 74.2821,-95.4697 80.551,-68.2367"/>
<polygon fill="#000000" stroke="#000000" points="83.9693,-68.9953 83.026,-58.4425 77.1826,-67.2802 83.9693,-68.9953"/>
<text text-anchor="middle" x="227" y="-145.4264" font-family="Times,serif" font-size="20.00" fill="#000000">[NA]</text>
<text text-anchor="middle" x="227" y="-123.4264" font-family="Times,serif" font-size="20.00" fill="#000000">/</text>
<text text-anchor="middle" x="227" y="-101.4264" font-family="Times,serif" font-size="20.00" fill="#000000">http://localhost:8000/echo/</text>
</g>
<!-- SG_0_Node_12 -->
<g id="node13" class="node">
<title>SG_0_Node_12</title>
<ellipse fill="none" stroke="#000000" cx="400" cy="-37.2132" rx="34.7971" ry="21.4286"/>
<text text-anchor="middle" x="400" y="-32.2132" font-family="Times,serif" font-size="20.00" fill="#000000">1.0</text>
</g>
<!-- SG_0_Node_5&#45;&gt;SG_0_Node_12 -->
<g id="edge12" class="edge">
<title>SG_0_Node_5&#45;&gt;SG_0_Node_12</title>
<path fill="none" stroke="#000000" d="M318.8234,-201.5058C336.3799,-191.9426 355.5673,-178.5892 368,-161.4264 387.8369,-134.0425 395.3998,-95.4435 398.2701,-68.5677"/>
<polygon fill="#000000" stroke="#000000" points="401.7621,-68.8145 399.1829,-58.5384 394.7909,-68.18 401.7621,-68.8145"/>
<text text-anchor="middle" x="426" y="-123.4264" font-family="Times,serif" font-size="20.00" fill="#000000">empty</text>
</g>
<!-- SG_1_Node_0 -->
<g id="node14" class="node">
<title>SG_1_Node_0</title>
<polygon fill="none" stroke="#000000" points="915,-1432.5584 773,-1432.5584 773,-1396.5584 915,-1396.5584 915,-1432.5584"/>
<text text-anchor="middle" x="844" y="-1409.5584" font-family="Times,serif" font-size="20.00" fill="#000000">Status&#45;Code</text>
</g>
<!-- SG_1_Node_1 -->
<g id="node15" class="node">
<title>SG_1_Node_1</title>
<polygon fill="none" stroke="#000000" points="843.5,-1099.3452 622.5,-1099.3452 622.5,-1063.3452 843.5,-1063.3452 843.5,-1099.3452"/>
<text text-anchor="middle" x="733" y="-1076.3452" font-family="Times,serif" font-size="20.00" fill="#000000">Content&#45;Disposition</text>
</g>
<!-- SG_1_Node_0&#45;&gt;SG_1_Node_1 -->
<g id="edge13" class="edge">
<title>SG_1_Node_0&#45;&gt;SG_1_Node_1</title>
<path fill="none" stroke="#000000" d="M805.5248,-1396.3281C790.7575,-1387.348 775.2447,-1375.074 766,-1359.5584 718.135,-1279.2254 723.551,-1162.6412 729.216,-1109.5621"/>
<polygon fill="#000000" stroke="#000000" points="732.7043,-1109.8637 730.373,-1099.5286 725.7504,-1109.0618 732.7043,-1109.8637"/>
<text text-anchor="middle" x="812" y="-1255.5584" font-family="Times,serif" font-size="20.00" fill="#000000">[NA]</text>
<text text-anchor="middle" x="812" y="-1233.5584" font-family="Times,serif" font-size="20.00" fill="#000000">56 levels</text>
</g>
<!-- SG_1_Node_2 -->
<g id="node16" class="node">
<title>SG_1_Node_2</title>
<polygon fill="none" stroke="#000000" points="1006.5,-1099.3452 901.5,-1099.3452 901.5,-1063.3452 1006.5,-1063.3452 1006.5,-1099.3452"/>
<text text-anchor="middle" x="954" y="-1076.3452" font-family="Times,serif" font-size="20.00" fill="#000000">Location</text>
</g>
<!-- SG_1_Node_0&#45;&gt;SG_1_Node_2 -->
<g id="edge14" class="edge">
<title>SG_1_Node_0&#45;&gt;SG_1_Node_2</title>
<path fill="none" stroke="#000000" d="M850.0708,-1396.1688C868.3261,-1340.8697 922.8091,-1175.829 944.7214,-1109.4521"/>
<polygon fill="#000000" stroke="#000000" points="948.1367,-1110.2712 947.948,-1099.678 941.4896,-1108.0768 948.1367,-1110.2712"/>
<text text-anchor="middle" x="953.5" y="-1299.5584" font-family="Times,serif" font-size="20.00" fill="#000000">301</text>
<text text-anchor="middle" x="953.5" y="-1277.5584" font-family="Times,serif" font-size="20.00" fill="#000000">302</text>
<text text-anchor="middle" x="953.5" y="-1255.5584" font-family="Times,serif" font-size="20.00" fill="#000000">303</text>
<text text-anchor="middle" x="953.5" y="-1233.5584" font-family="Times,serif" font-size="20.00" fill="#000000">305</text>
<text text-anchor="middle" x="953.5" y="-1211.5584" font-family="Times,serif" font-size="20.00" fill="#000000">307</text>
<text text-anchor="middle" x="953.5" y="-1189.5584" font-family="Times,serif" font-size="20.00" fill="#000000">308</text>
</g>
<!-- SG_1_Node_9 -->
<g id="node17" class="node">
<title>SG_1_Node_9</title>
<ellipse fill="none" stroke="#000000" cx="579" cy="-898.9188" rx="34.7971" ry="21.4286"/>
<text text-anchor="middle" x="579" y="-893.9188" font-family="Times,serif" font-size="20.00" fill="#000000">0.0</text>
</g>
<!-- SG_1_Node_1&#45;&gt;SG_1_Node_9 -->
<g id="edge23" class="edge">
<title>SG_1_Node_1&#45;&gt;SG_1_Node_9</title>
<path fill="none" stroke="#000000" d="M666.483,-1063.2734C645.0214,-1054.402 622.9421,-1041.5282 608,-1023.132 586.6769,-996.8798 580.4744,-957.7415 578.9403,-930.4361"/>
<polygon fill="#000000" stroke="#000000" points="582.4303,-930.1049 578.5516,-920.2456 575.4353,-930.3717 582.4303,-930.1049"/>
<text text-anchor="middle" x="667" y="-996.132" font-family="Times,serif" font-size="20.00" fill="#000000">[NA]</text>
<text text-anchor="middle" x="667" y="-974.132" font-family="Times,serif" font-size="20.00" fill="#000000">attachment</text>
</g>
<!-- SG_1_Node_3 -->
<g id="node18" class="node">
<title>SG_1_Node_3</title>
<polygon fill="none" stroke="#000000" points="825.5,-916.9188 634.5,-916.9188 634.5,-880.9188 825.5,-880.9188 825.5,-916.9188"/>
<text text-anchor="middle" x="730" y="-893.9188" font-family="Times,serif" font-size="20.00" fill="#000000">X&#45;Frame&#45;Options</text>
</g>
<!-- SG_1_Node_1&#45;&gt;SG_1_Node_3 -->
<g id="edge24" class="edge">
<title>SG_1_Node_1&#45;&gt;SG_1_Node_3</title>
<path fill="none" stroke="#000000" d="M732.7014,-1063.1866C732.178,-1031.3607 731.0915,-965.291 730.4676,-927.3557"/>
<polygon fill="#000000" stroke="#000000" points="733.9615,-926.9451 730.2974,-917.0041 726.9624,-927.0603 733.9615,-926.9451"/>
<text text-anchor="middle" x="764" y="-985.132" font-family="Times,serif" font-size="20.00" fill="#000000">empty</text>
</g>
<!-- SG_1_Node_4 -->
<g id="node19" class="node">
<title>SG_1_Node_4</title>
<polygon fill="none" stroke="#000000" points="1064.5,-916.9188 843.5,-916.9188 843.5,-880.9188 1064.5,-880.9188 1064.5,-916.9188"/>
<text text-anchor="middle" x="954" y="-893.9188" font-family="Times,serif" font-size="20.00" fill="#000000">Content&#45;Disposition</text>
</g>
<!-- SG_1_Node_2&#45;&gt;SG_1_Node_4 -->
<g id="edge15" class="edge">
<title>SG_1_Node_2&#45;&gt;SG_1_Node_4</title>
<path fill="none" stroke="#000000" d="M954,-1063.1866C954,-1031.3607 954,-965.291 954,-927.3557"/>
<polygon fill="#000000" stroke="#000000" points="957.5001,-927.004 954,-917.0041 950.5001,-927.0041 957.5001,-927.004"/>
<text text-anchor="middle" x="986" y="-985.132" font-family="Times,serif" font-size="20.00" fill="#000000">empty</text>
</g>
<!-- SG_1_Node_10 -->
<g id="node20" class="node">
<title>SG_1_Node_10</title>
<ellipse fill="none" stroke="#000000" cx="1117" cy="-898.9188" rx="34.7971" ry="21.4286"/>
<text text-anchor="middle" x="1117" y="-893.9188" font-family="Times,serif" font-size="20.00" fill="#000000">1.0</text>
</g>
<!-- SG_1_Node_2&#45;&gt;SG_1_Node_10 -->
<g id="edge16" class="edge">
<title>SG_1_Node_2&#45;&gt;SG_1_Node_10</title>
<path fill="none" stroke="#000000" d="M977.4275,-1063.3303C991.0612,-1052.3606 1008.2202,-1037.6928 1022,-1023.132 1051.0049,-992.4834 1079.8089,-953.2628 1097.964,-927.1771"/>
<polygon fill="#000000" stroke="#000000" points="1100.9003,-929.0844 1103.6976,-918.8655 1095.1382,-925.1095 1100.9003,-929.0844"/>
<text text-anchor="middle" x="1213" y="-1007.132" font-family="Times,serif" font-size="20.00" fill="#000000">[NA]</text>
<text text-anchor="middle" x="1213" y="-985.132" font-family="Times,serif" font-size="20.00" fill="#000000">/</text>
<text text-anchor="middle" x="1213" y="-963.132" font-family="Times,serif" font-size="20.00" fill="#000000">http://localhost:8000/echo/</text>
</g>
<!-- SG_1_Node_11 -->
<g id="node21" class="node">
<title>SG_1_Node_11</title>
<ellipse fill="none" stroke="#000000" cx="573" cy="-650.4924" rx="34.7971" ry="21.4286"/>
<text text-anchor="middle" x="573" y="-645.4924" font-family="Times,serif" font-size="20.00" fill="#000000">0.0</text>
</g>
<!-- SG_1_Node_3&#45;&gt;SG_1_Node_11 -->
<g id="edge25" class="edge">
<title>SG_1_Node_3&#45;&gt;SG_1_Node_11</title>
<path fill="none" stroke="#000000" d="M714.2159,-880.8681C704.7142,-869.6472 692.6327,-854.7325 683,-840.7056 645.4732,-786.0602 608.2079,-717.9566 588.1405,-679.8448"/>
<polygon fill="#000000" stroke="#000000" points="591.1587,-678.0637 583.4195,-670.828 584.9573,-681.3107 591.1587,-678.0637"/>
<text text-anchor="middle" x="707.5" y="-769.7056" font-family="Times,serif" font-size="20.00" fill="#000000">deny</text>
</g>
<!-- SG_1_Node_5 -->
<g id="node22" class="node">
<title>SG_1_Node_5</title>
<polygon fill="none" stroke="#000000" points="886,-668.4924 626,-668.4924 626,-632.4924 886,-632.4924 886,-668.4924"/>
<text text-anchor="middle" x="756" y="-645.4924" font-family="Times,serif" font-size="20.00" fill="#000000">Content&#45;Security&#45;Policy</text>
</g>
<!-- SG_1_Node_3&#45;&gt;SG_1_Node_5 -->
<g id="edge26" class="edge">
<title>SG_1_Node_3&#45;&gt;SG_1_Node_5</title>
<path fill="none" stroke="#000000" d="M731.9118,-880.6514C736.4007,-837.7606 747.641,-730.3618 753.029,-678.8802"/>
<polygon fill="#000000" stroke="#000000" points="756.5254,-679.0966 754.0854,-668.7866 749.5634,-678.3679 756.5254,-679.0966"/>
<text text-anchor="middle" x="781" y="-780.7056" font-family="Times,serif" font-size="20.00" fill="#000000">[NA]</text>
<text text-anchor="middle" x="781" y="-758.7056" font-family="Times,serif" font-size="20.00" fill="#000000">empty</text>
</g>
<!-- SG_1_Node_12 -->
<g id="node23" class="node">
<title>SG_1_Node_12</title>
<ellipse fill="none" stroke="#000000" cx="945" cy="-650.4924" rx="34.7971" ry="21.4286"/>
<text text-anchor="middle" x="945" y="-645.4924" font-family="Times,serif" font-size="20.00" fill="#000000">0.0</text>
</g>
<!-- SG_1_Node_4&#45;&gt;SG_1_Node_12 -->
<g id="edge17" class="edge">
<title>SG_1_Node_4&#45;&gt;SG_1_Node_12</title>
<path fill="none" stroke="#000000" d="M953.3382,-880.6514C951.8153,-838.6144 948.0475,-734.6118 946.1422,-682.0199"/>
<polygon fill="#000000" stroke="#000000" points="949.6361,-681.786 945.7763,-671.9193 942.6407,-682.0395 949.6361,-681.786"/>
<text text-anchor="middle" x="1010" y="-780.7056" font-family="Times,serif" font-size="20.00" fill="#000000">[NA]</text>
<text text-anchor="middle" x="1010" y="-758.7056" font-family="Times,serif" font-size="20.00" fill="#000000">attachment</text>
</g>
<!-- SG_1_Node_6 -->
<g id="node24" class="node">
<title>SG_1_Node_6</title>
<polygon fill="none" stroke="#000000" points="1194.5,-668.4924 1003.5,-668.4924 1003.5,-632.4924 1194.5,-632.4924 1194.5,-668.4924"/>
<text text-anchor="middle" x="1099" y="-645.4924" font-family="Times,serif" font-size="20.00" fill="#000000">X&#45;Frame&#45;Options</text>
</g>
<!-- SG_1_Node_4&#45;&gt;SG_1_Node_6 -->
<g id="edge18" class="edge">
<title>SG_1_Node_4&#45;&gt;SG_1_Node_6</title>
<path fill="none" stroke="#000000" d="M1018.3252,-880.912C1038.8438,-872.0462 1059.6622,-859.1594 1073,-840.7056 1107.9641,-792.3302 1106.734,-718.5547 1102.8383,-678.588"/>
<polygon fill="#000000" stroke="#000000" points="1106.3003,-678.0495 1101.7254,-668.4933 1099.3424,-678.8167 1106.3003,-678.0495"/>
<text text-anchor="middle" x="1136" y="-769.7056" font-family="Times,serif" font-size="20.00" fill="#000000">empty</text>
</g>
<!-- SG_1_Node_13 -->
<g id="node25" class="node">
<title>SG_1_Node_13</title>
<ellipse fill="none" stroke="#000000" cx="596" cy="-468.066" rx="34.7971" ry="21.4286"/>
<text text-anchor="middle" x="596" y="-463.066" font-family="Times,serif" font-size="20.00" fill="#000000">0.0</text>
</g>
<!-- SG_1_Node_5&#45;&gt;SG_1_Node_13 -->
<g id="edge27" class="edge">
<title>SG_1_Node_5&#45;&gt;SG_1_Node_13</title>
<path fill="none" stroke="#000000" d="M681.9512,-632.3776C645.3004,-621.7596 606.6398,-607.4725 596,-592.2792 577.0239,-565.1821 580.7898,-525.9579 586.8563,-498.8703"/>
<polygon fill="#000000" stroke="#000000" points="590.2614,-499.6801 589.2513,-489.1336 583.464,-498.0081 590.2614,-499.6801"/>
<text text-anchor="middle" x="706.5" y="-554.2792" font-family="Times,serif" font-size="20.00" fill="#000000">frame&#45;ancestors &#39;self&#39;</text>
</g>
<!-- SG_1_Node_7 -->
<g id="node26" class="node">
<title>SG_1_Node_7</title>
<polygon fill="none" stroke="#000000" points="924,-486.066 782,-486.066 782,-450.066 924,-450.066 924,-486.066"/>
<text text-anchor="middle" x="853" y="-463.066" font-family="Times,serif" font-size="20.00" fill="#000000">Status&#45;Code</text>
</g>
<!-- SG_1_Node_5&#45;&gt;SG_1_Node_7 -->
<g id="edge28" class="edge">
<title>SG_1_Node_5&#45;&gt;SG_1_Node_7</title>
<path fill="none" stroke="#000000" d="M782.8915,-632.321C796.1863,-622.0321 811.3986,-608.071 821,-592.2792 839.0992,-562.5109 847.0278,-522.7375 850.4572,-496.3048"/>
<polygon fill="#000000" stroke="#000000" points="853.9536,-496.5377 851.6333,-486.2001 847.0006,-495.7284 853.9536,-496.5377"/>
<text text-anchor="middle" x="927.5" y="-576.2792" font-family="Times,serif" font-size="20.00" fill="#000000">[NA]</text>
<text text-anchor="middle" x="927.5" y="-554.2792" font-family="Times,serif" font-size="20.00" fill="#000000">default&#45;src &#39;self&#39;</text>
<text text-anchor="middle" x="927.5" y="-532.2792" font-family="Times,serif" font-size="20.00" fill="#000000">empty</text>
</g>
<!-- SG_1_Node_14 -->
<g id="node27" class="node">
<title>SG_1_Node_14</title>
<ellipse fill="none" stroke="#000000" cx="1020" cy="-468.066" rx="34.7971" ry="21.4286"/>
<text text-anchor="middle" x="1020" y="-463.066" font-family="Times,serif" font-size="20.00" fill="#000000">0.0</text>
</g>
<!-- SG_1_Node_6&#45;&gt;SG_1_Node_14 -->
<g id="edge19" class="edge">
<title>SG_1_Node_6&#45;&gt;SG_1_Node_14</title>
<path fill="none" stroke="#000000" d="M1091.1364,-632.3337C1077.5583,-600.9793 1049.5869,-536.3879 1033.0525,-498.2068"/>
<polygon fill="#000000" stroke="#000000" points="1036.0981,-496.4319 1028.9123,-488.6463 1029.6745,-499.2137 1036.0981,-496.4319"/>
<text text-anchor="middle" x="1097.5" y="-554.2792" font-family="Times,serif" font-size="20.00" fill="#000000">deny</text>
</g>
<!-- SG_1_Node_8 -->
<g id="node28" class="node">
<title>SG_1_Node_8</title>
<polygon fill="none" stroke="#000000" points="1333,-486.066 1073,-486.066 1073,-450.066 1333,-450.066 1333,-486.066"/>
<text text-anchor="middle" x="1203" y="-463.066" font-family="Times,serif" font-size="20.00" fill="#000000">Content&#45;Security&#45;Policy</text>
</g>
<!-- SG_1_Node_6&#45;&gt;SG_1_Node_8 -->
<g id="edge20" class="edge">
<title>SG_1_Node_6&#45;&gt;SG_1_Node_8</title>
<path fill="none" stroke="#000000" d="M1109.3521,-632.3337C1127.7294,-600.0981 1166.1348,-532.7312 1187.6157,-495.0517"/>
<polygon fill="#000000" stroke="#000000" points="1190.7776,-496.5721 1192.6897,-486.1513 1184.6964,-493.1053 1190.7776,-496.5721"/>
<text text-anchor="middle" x="1201" y="-565.2792" font-family="Times,serif" font-size="20.00" fill="#000000">[NA]</text>
<text text-anchor="middle" x="1201" y="-543.2792" font-family="Times,serif" font-size="20.00" fill="#000000">empty</text>
</g>
<!-- SG_1_Node_15 -->
<g id="node29" class="node">
<title>SG_1_Node_15</title>
<ellipse fill="none" stroke="#000000" cx="809" cy="-219.6396" rx="34.7971" ry="21.4286"/>
<text text-anchor="middle" x="809" y="-214.6396" font-family="Times,serif" font-size="20.00" fill="#000000">0.0</text>
</g>
<!-- SG_1_Node_7&#45;&gt;SG_1_Node_15 -->
<g id="edge29" class="edge">
<title>SG_1_Node_7&#45;&gt;SG_1_Node_15</title>
<path fill="none" stroke="#000000" d="M839.8228,-449.9136C832.5848,-438.8967 824.2385,-424.2274 820,-409.8528 804.0516,-355.7657 804.4658,-289.3656 806.5226,-251.0353"/>
<polygon fill="#000000" stroke="#000000" points="810.0192,-251.1966 807.1341,-241.0021 803.0322,-250.7707 810.0192,-251.1966"/>
<text text-anchor="middle" x="839.5" y="-371.8528" font-family="Times,serif" font-size="20.00" fill="#000000">100</text>
<text text-anchor="middle" x="839.5" y="-349.8528" font-family="Times,serif" font-size="20.00" fill="#000000">102</text>
<text text-anchor="middle" x="839.5" y="-327.8528" font-family="Times,serif" font-size="20.00" fill="#000000">103</text>
<text text-anchor="middle" x="839.5" y="-305.8528" font-family="Times,serif" font-size="20.00" fill="#000000">407</text>
</g>
<!-- SG_1_Node_16 -->
<g id="node30" class="node">
<title>SG_1_Node_16</title>
<ellipse fill="none" stroke="#000000" cx="896" cy="-219.6396" rx="34.7971" ry="21.4286"/>
<text text-anchor="middle" x="896" y="-214.6396" font-family="Times,serif" font-size="20.00" fill="#000000">1.0</text>
</g>
<!-- SG_1_Node_7&#45;&gt;SG_1_Node_16 -->
<g id="edge30" class="edge">
<title>SG_1_Node_7&#45;&gt;SG_1_Node_16</title>
<path fill="none" stroke="#000000" d="M856.1619,-449.7986C863.4381,-407.7616 881.4398,-303.759 890.5429,-251.1671"/>
<polygon fill="#000000" stroke="#000000" points="894.0343,-251.5169 892.2912,-241.0665 887.1369,-250.323 894.0343,-251.5169"/>
<text text-anchor="middle" x="931" y="-349.8528" font-family="Times,serif" font-size="20.00" fill="#000000">[NA]</text>
<text text-anchor="middle" x="931" y="-327.8528" font-family="Times,serif" font-size="20.00" fill="#000000">52 levels</text>
</g>
<!-- SG_1_Node_17 -->
<g id="node31" class="node">
<title>SG_1_Node_17</title>
<ellipse fill="none" stroke="#000000" cx="1110" cy="-219.6396" rx="34.7971" ry="21.4286"/>
<text text-anchor="middle" x="1110" y="-214.6396" font-family="Times,serif" font-size="20.00" fill="#000000">0.0</text>
</g>
<!-- SG_1_Node_8&#45;&gt;SG_1_Node_17 -->
<g id="edge21" class="edge">
<title>SG_1_Node_8&#45;&gt;SG_1_Node_17</title>
<path fill="none" stroke="#000000" d="M1165.7125,-449.8958C1150.0827,-440.2574 1133.3898,-426.854 1124,-409.8528 1096.3579,-359.804 1099.6353,-290.7353 1104.6978,-251.0731"/>
<polygon fill="#000000" stroke="#000000" points="1108.1957,-251.3308 1106.1128,-240.9427 1101.263,-250.3624 1108.1957,-251.3308"/>
<text text-anchor="middle" x="1234.5" y="-338.8528" font-family="Times,serif" font-size="20.00" fill="#000000">frame&#45;ancestors &#39;self&#39;</text>
</g>
<!-- SG_1_Node_18 -->
<g id="node32" class="node">
<title>SG_1_Node_18</title>
<ellipse fill="none" stroke="#000000" cx="1367" cy="-219.6396" rx="34.7971" ry="21.4286"/>
<text text-anchor="middle" x="1367" y="-214.6396" font-family="Times,serif" font-size="20.00" fill="#000000">1.0</text>
</g>
<!-- SG_1_Node_8&#45;&gt;SG_1_Node_18 -->
<g id="edge22" class="edge">
<title>SG_1_Node_8&#45;&gt;SG_1_Node_18</title>
<path fill="none" stroke="#000000" d="M1287.5321,-450.051C1309.3938,-441.4033 1330.759,-428.6466 1345,-409.8528 1380.0919,-363.5423 1377.5209,-291.8006 1372.3578,-250.9421"/>
<polygon fill="#000000" stroke="#000000" points="1375.8206,-250.4323 1370.9737,-241.0112 1368.8877,-251.3986 1375.8206,-250.4323"/>
<text text-anchor="middle" x="1457.5" y="-360.8528" font-family="Times,serif" font-size="20.00" fill="#000000">[NA]</text>
<text text-anchor="middle" x="1457.5" y="-338.8528" font-family="Times,serif" font-size="20.00" fill="#000000">default&#45;src &#39;self&#39;</text>
<text text-anchor="middle" x="1457.5" y="-316.8528" font-family="Times,serif" font-size="20.00" fill="#000000">empty</text>
</g>
<!-- SG_2_Node_0 -->
<g id="node33" class="node">
<title>SG_2_Node_0</title>
<polygon fill="none" stroke="#000000" points="4955,-1432.5584 4813,-1432.5584 4813,-1396.5584 4955,-1396.5584 4955,-1432.5584"/>
<text text-anchor="middle" x="4884" y="-1409.5584" font-family="Times,serif" font-size="20.00" fill="#000000">Status&#45;Code</text>
</g>
<!-- SG_2_Node_1 -->
<g id="node34" class="node">
<title>SG_2_Node_1</title>
<polygon fill="none" stroke="#000000" points="4849.5,-1099.3452 4744.5,-1099.3452 4744.5,-1063.3452 4849.5,-1063.3452 4849.5,-1099.3452"/>
<text text-anchor="middle" x="4797" y="-1076.3452" font-family="Times,serif" font-size="20.00" fill="#000000">Location</text>
</g>
<!-- SG_2_Node_0&#45;&gt;SG_2_Node_1 -->
<g id="edge31" class="edge">
<title>SG_2_Node_0&#45;&gt;SG_2_Node_1</title>
<path fill="none" stroke="#000000" d="M4879.1986,-1396.1688C4864.7603,-1340.8697 4821.6692,-1175.829 4804.3385,-1109.4521"/>
<polygon fill="#000000" stroke="#000000" points="4807.6994,-1108.4695 4801.7866,-1099.678 4800.9264,-1110.2379 4807.6994,-1108.4695"/>
<text text-anchor="middle" x="4888.5" y="-1343.5584" font-family="Times,serif" font-size="20.00" fill="#000000">100</text>
<text text-anchor="middle" x="4888.5" y="-1321.5584" font-family="Times,serif" font-size="20.00" fill="#000000">102</text>
<text text-anchor="middle" x="4888.5" y="-1299.5584" font-family="Times,serif" font-size="20.00" fill="#000000">103</text>
<text text-anchor="middle" x="4888.5" y="-1277.5584" font-family="Times,serif" font-size="20.00" fill="#000000">301</text>
<text text-anchor="middle" x="4888.5" y="-1255.5584" font-family="Times,serif" font-size="20.00" fill="#000000">302</text>
<text text-anchor="middle" x="4888.5" y="-1233.5584" font-family="Times,serif" font-size="20.00" fill="#000000">303</text>
<text text-anchor="middle" x="4888.5" y="-1211.5584" font-family="Times,serif" font-size="20.00" fill="#000000">305</text>
<text text-anchor="middle" x="4888.5" y="-1189.5584" font-family="Times,serif" font-size="20.00" fill="#000000">307</text>
<text text-anchor="middle" x="4888.5" y="-1167.5584" font-family="Times,serif" font-size="20.00" fill="#000000">308</text>
<text text-anchor="middle" x="4888.5" y="-1145.5584" font-family="Times,serif" font-size="20.00" fill="#000000">407</text>
</g>
<!-- SG_2_Node_2 -->
<g id="node35" class="node">
<title>SG_2_Node_2</title>
<polygon fill="none" stroke="#000000" points="5068.5,-1099.3452 4877.5,-1099.3452 4877.5,-1063.3452 5068.5,-1063.3452 5068.5,-1099.3452"/>
<text text-anchor="middle" x="4973" y="-1076.3452" font-family="Times,serif" font-size="20.00" fill="#000000">X&#45;Frame&#45;Options</text>
</g>
<!-- SG_2_Node_0&#45;&gt;SG_2_Node_2 -->
<g id="edge32" class="edge">
<title>SG_2_Node_0&#45;&gt;SG_2_Node_2</title>
<path fill="none" stroke="#000000" d="M4894.6743,-1396.497C4900.492,-1386.008 4907.4188,-1372.3719 4912,-1359.5584 4943.7052,-1270.8801 4961.9976,-1160.1641 4969.2863,-1109.2817"/>
<polygon fill="#000000" stroke="#000000" points="4972.7548,-1109.7504 4970.6755,-1099.3616 4965.8224,-1108.7796 4972.7548,-1109.7504"/>
<text text-anchor="middle" x="5010" y="-1255.5584" font-family="Times,serif" font-size="20.00" fill="#000000">[NA]</text>
<text text-anchor="middle" x="5010" y="-1233.5584" font-family="Times,serif" font-size="20.00" fill="#000000">52 levels</text>
</g>
<!-- SG_2_Node_7 -->
<g id="node36" class="node">
<title>SG_2_Node_7</title>
<ellipse fill="none" stroke="#000000" cx="4487" cy="-898.9188" rx="34.7971" ry="21.4286"/>
<text text-anchor="middle" x="4487" y="-893.9188" font-family="Times,serif" font-size="20.00" fill="#000000">0.0</text>
</g>
<!-- SG_2_Node_1&#45;&gt;SG_2_Node_7 -->
<g id="edge37" class="edge">
<title>SG_2_Node_1&#45;&gt;SG_2_Node_7</title>
<path fill="none" stroke="#000000" d="M4744.2993,-1079.1527C4665.0764,-1074.6345 4521.1234,-1061.2665 4489,-1023.132 4467.5615,-997.6818 4471.2381,-957.79 4477.5438,-930.1087"/>
<polygon fill="#000000" stroke="#000000" points="4481.0028,-930.7042 4480.0424,-920.153 4474.2134,-929.0003 4481.0028,-930.7042"/>
<text text-anchor="middle" x="4626" y="-1007.132" font-family="Times,serif" font-size="20.00" fill="#000000">[NA]</text>
<text text-anchor="middle" x="4626" y="-985.132" font-family="Times,serif" font-size="20.00" fill="#000000">/</text>
<text text-anchor="middle" x="4626" y="-963.132" font-family="Times,serif" font-size="20.00" fill="#000000">http://localhost:8000/echo/</text>
</g>
<!-- SG_2_Node_3 -->
<g id="node37" class="node">
<title>SG_2_Node_3</title>
<polygon fill="none" stroke="#000000" points="4825,-916.9188 4683,-916.9188 4683,-880.9188 4825,-880.9188 4825,-916.9188"/>
<text text-anchor="middle" x="4754" y="-893.9188" font-family="Times,serif" font-size="20.00" fill="#000000">Status&#45;Code</text>
</g>
<!-- SG_2_Node_1&#45;&gt;SG_2_Node_3 -->
<g id="edge38" class="edge">
<title>SG_2_Node_1&#45;&gt;SG_2_Node_3</title>
<path fill="none" stroke="#000000" d="M4792.7198,-1063.1866C4785.1859,-1031.2241 4769.5109,-964.7233 4760.5881,-926.8688"/>
<polygon fill="#000000" stroke="#000000" points="4763.9639,-925.9343 4758.2629,-917.0041 4757.1506,-927.5404 4763.9639,-925.9343"/>
<text text-anchor="middle" x="4815" y="-985.132" font-family="Times,serif" font-size="20.00" fill="#000000">empty</text>
</g>
<!-- SG_2_Node_4 -->
<g id="node38" class="node">
<title>SG_2_Node_4</title>
<polygon fill="none" stroke="#000000" points="5103,-916.9188 4843,-916.9188 4843,-880.9188 5103,-880.9188 5103,-916.9188"/>
<text text-anchor="middle" x="4973" y="-893.9188" font-family="Times,serif" font-size="20.00" fill="#000000">Content&#45;Security&#45;Policy</text>
</g>
<!-- SG_2_Node_2&#45;&gt;SG_2_Node_4 -->
<g id="edge33" class="edge">
<title>SG_2_Node_2&#45;&gt;SG_2_Node_4</title>
<path fill="none" stroke="#000000" d="M4973,-1063.1866C4973,-1031.3607 4973,-965.291 4973,-927.3557"/>
<polygon fill="#000000" stroke="#000000" points="4976.5001,-927.004 4973,-917.0041 4969.5001,-927.0041 4976.5001,-927.004"/>
<text text-anchor="middle" x="5005" y="-985.132" font-family="Times,serif" font-size="20.00" fill="#000000">empty</text>
</g>
<!-- SG_2_Node_8 -->
<g id="node39" class="node">
<title>SG_2_Node_8</title>
<ellipse fill="none" stroke="#000000" cx="5156" cy="-898.9188" rx="34.7971" ry="21.4286"/>
<text text-anchor="middle" x="5156" y="-893.9188" font-family="Times,serif" font-size="20.00" fill="#000000">1.0</text>
</g>
<!-- SG_2_Node_2&#45;&gt;SG_2_Node_8 -->
<g id="edge34" class="edge">
<title>SG_2_Node_2&#45;&gt;SG_2_Node_8</title>
<path fill="none" stroke="#000000" d="M4995.6213,-1063.0989C5009.1315,-1051.9299 5026.4394,-1037.1371 5041,-1023.132 5074.2551,-991.1457 5109.9761,-951.6716 5132.6294,-925.9261"/>
<polygon fill="#000000" stroke="#000000" points="5135.549,-927.9049 5139.5054,-918.0765 5130.2835,-923.2924 5135.549,-927.9049"/>
<text text-anchor="middle" x="5128" y="-996.132" font-family="Times,serif" font-size="20.00" fill="#000000">[NA]</text>
<text text-anchor="middle" x="5128" y="-974.132" font-family="Times,serif" font-size="20.00" fill="#000000">deny</text>
</g>
<!-- SG_2_Node_9 -->
<g id="node40" class="node">
<title>SG_2_Node_9</title>
<ellipse fill="none" stroke="#000000" cx="4612" cy="-650.4924" rx="34.7971" ry="21.4286"/>
<text text-anchor="middle" x="4612" y="-645.4924" font-family="Times,serif" font-size="20.00" fill="#000000">0.0</text>
</g>
<!-- SG_2_Node_3&#45;&gt;SG_2_Node_9 -->
<g id="edge39" class="edge">
<title>SG_2_Node_3&#45;&gt;SG_2_Node_9</title>
<path fill="none" stroke="#000000" d="M4739.8864,-880.7626C4731.3923,-869.5032 4720.5958,-854.585 4712,-840.7056 4678.0988,-785.9668 4644.4599,-718.587 4626.1362,-680.486"/>
<polygon fill="#000000" stroke="#000000" points="4629.0732,-678.5147 4621.6016,-671.0031 4622.7581,-681.5346 4629.0732,-678.5147"/>
<text text-anchor="middle" x="4731.5" y="-802.7056" font-family="Times,serif" font-size="20.00" fill="#000000">100</text>
<text text-anchor="middle" x="4731.5" y="-780.7056" font-family="Times,serif" font-size="20.00" fill="#000000">102</text>
<text text-anchor="middle" x="4731.5" y="-758.7056" font-family="Times,serif" font-size="20.00" fill="#000000">103</text>
<text text-anchor="middle" x="4731.5" y="-736.7056" font-family="Times,serif" font-size="20.00" fill="#000000">407</text>
</g>
<!-- SG_2_Node_5 -->
<g id="node41" class="node">
<title>SG_2_Node_5</title>
<polygon fill="none" stroke="#000000" points="4855.5,-668.4924 4664.5,-668.4924 4664.5,-632.4924 4855.5,-632.4924 4855.5,-668.4924"/>
<text text-anchor="middle" x="4760" y="-645.4924" font-family="Times,serif" font-size="20.00" fill="#000000">X&#45;Frame&#45;Options</text>
</g>
<!-- SG_2_Node_3&#45;&gt;SG_2_Node_5 -->
<g id="edge40" class="edge">
<title>SG_2_Node_3&#45;&gt;SG_2_Node_5</title>
<path fill="none" stroke="#000000" d="M4754.4412,-880.6514C4755.4771,-837.7606 4758.071,-730.3618 4759.3144,-678.8802"/>
<polygon fill="#000000" stroke="#000000" points="4762.8156,-678.8682 4759.5582,-668.7866 4755.8176,-678.6991 4762.8156,-678.8682"/>
<text text-anchor="middle" x="4777.5" y="-824.7056" font-family="Times,serif" font-size="20.00" fill="#000000">301</text>
<text text-anchor="middle" x="4777.5" y="-802.7056" font-family="Times,serif" font-size="20.00" fill="#000000">302</text>
<text text-anchor="middle" x="4777.5" y="-780.7056" font-family="Times,serif" font-size="20.00" fill="#000000">303</text>
<text text-anchor="middle" x="4777.5" y="-758.7056" font-family="Times,serif" font-size="20.00" fill="#000000">305</text>
<text text-anchor="middle" x="4777.5" y="-736.7056" font-family="Times,serif" font-size="20.00" fill="#000000">307</text>
<text text-anchor="middle" x="4777.5" y="-714.7056" font-family="Times,serif" font-size="20.00" fill="#000000">308</text>
</g>
<!-- SG_2_Node_10 -->
<g id="node42" class="node">
<title>SG_2_Node_10</title>
<ellipse fill="none" stroke="#000000" cx="4940" cy="-650.4924" rx="34.7971" ry="21.4286"/>
<text text-anchor="middle" x="4940" y="-645.4924" font-family="Times,serif" font-size="20.00" fill="#000000">0.0</text>
</g>
<!-- SG_2_Node_4&#45;&gt;SG_2_Node_10 -->
<g id="edge35" class="edge">
<title>SG_2_Node_4&#45;&gt;SG_2_Node_10</title>
<path fill="none" stroke="#000000" d="M4965.854,-880.8673C4961.6787,-869.521 4956.712,-854.4742 4954,-840.7056 4943.167,-785.7066 4940.5392,-720.2677 4940.002,-682.2475"/>
<polygon fill="#000000" stroke="#000000" points="4943.4977,-681.7908 4939.8981,-671.8262 4936.498,-681.8606 4943.4977,-681.7908"/>
<text text-anchor="middle" x="5036.5" y="-791.7056" font-family="Times,serif" font-size="20.00" fill="#000000">[NA]</text>
<text text-anchor="middle" x="5036.5" y="-769.7056" font-family="Times,serif" font-size="20.00" fill="#000000">default&#45;src &#39;self&#39;</text>
<text text-anchor="middle" x="5036.5" y="-747.7056" font-family="Times,serif" font-size="20.00" fill="#000000">empty</text>
</g>
<!-- SG_2_Node_11 -->
<g id="node43" class="node">
<title>SG_2_Node_11</title>
<ellipse fill="none" stroke="#000000" cx="5141" cy="-650.4924" rx="34.7971" ry="21.4286"/>
<text text-anchor="middle" x="5141" y="-645.4924" font-family="Times,serif" font-size="20.00" fill="#000000">1.0</text>
</g>
<!-- SG_2_Node_4&#45;&gt;SG_2_Node_11 -->
<g id="edge36" class="edge">
<title>SG_2_Node_4&#45;&gt;SG_2_Node_11</title>
<path fill="none" stroke="#000000" d="M5061.3904,-880.8042C5083.3337,-872.1728 5104.6538,-859.4495 5119,-840.7056 5154.408,-794.4436 5151.6482,-722.3831 5146.3837,-681.5238"/>
<polygon fill="#000000" stroke="#000000" points="5149.8459,-681.0094 5144.9755,-671.6004 5142.9153,-681.993 5149.8459,-681.0094"/>
<text text-anchor="middle" x="5259.5" y="-769.7056" font-family="Times,serif" font-size="20.00" fill="#000000">frame&#45;ancestors &#39;self&#39;</text>
</g>
<!-- SG_2_Node_6 -->
<g id="node44" class="node">
<title>SG_2_Node_6</title>
<polygon fill="none" stroke="#000000" points="4749,-486.066 4489,-486.066 4489,-450.066 4749,-450.066 4749,-486.066"/>
<text text-anchor="middle" x="4619" y="-463.066" font-family="Times,serif" font-size="20.00" fill="#000000">Content&#45;Security&#45;Policy</text>
</g>
<!-- SG_2_Node_5&#45;&gt;SG_2_Node_6 -->
<g id="edge41" class="edge">
<title>SG_2_Node_5&#45;&gt;SG_2_Node_6</title>
<path fill="none" stroke="#000000" d="M4741.4175,-632.2713C4730.3889,-621.1113 4716.3837,-606.319 4705,-592.2792 4678.9927,-560.2037 4652.4475,-520.6014 4635.8624,-494.8615"/>
<polygon fill="#000000" stroke="#000000" points="4638.7668,-492.9066 4630.4286,-486.3701 4632.8706,-496.6797 4638.7668,-492.9066"/>
<text text-anchor="middle" x="4737" y="-565.2792" font-family="Times,serif" font-size="20.00" fill="#000000">[NA]</text>
<text text-anchor="middle" x="4737" y="-543.2792" font-family="Times,serif" font-size="20.00" fill="#000000">empty</text>
</g>
<!-- SG_2_Node_12 -->
<g id="node45" class="node">
<title>SG_2_Node_12</title>
<ellipse fill="none" stroke="#000000" cx="4802" cy="-468.066" rx="34.7971" ry="21.4286"/>
<text text-anchor="middle" x="4802" y="-463.066" font-family="Times,serif" font-size="20.00" fill="#000000">1.0</text>
</g>
<!-- SG_2_Node_5&#45;&gt;SG_2_Node_12 -->
<g id="edge42" class="edge">
<title>SG_2_Node_5&#45;&gt;SG_2_Node_12</title>
<path fill="none" stroke="#000000" d="M4764.1807,-632.3337C4771.3308,-601.2775 4785.9881,-537.6134 4794.8083,-499.3032"/>
<polygon fill="#000000" stroke="#000000" points="4798.2972,-499.7487 4797.1301,-489.2183 4791.4757,-498.1781 4798.2972,-499.7487"/>
<text text-anchor="middle" x="4812.5" y="-554.2792" font-family="Times,serif" font-size="20.00" fill="#000000">deny</text>
</g>
<!-- SG_2_Node_13 -->
<g id="node46" class="node">
<title>SG_2_Node_13</title>
<ellipse fill="none" stroke="#000000" cx="4551" cy="-219.6396" rx="34.7971" ry="21.4286"/>
<text text-anchor="middle" x="4551" y="-214.6396" font-family="Times,serif" font-size="20.00" fill="#000000">0.0</text>
</g>
<!-- SG_2_Node_6&#45;&gt;SG_2_Node_13 -->
<g id="edge43" class="edge">
<title>SG_2_Node_6&#45;&gt;SG_2_Node_13</title>
<path fill="none" stroke="#000000" d="M4595.9,-449.843C4584.4995,-439.4446 4571.7691,-425.3988 4565,-409.8528 4542.344,-357.821 4543.7486,-290.2036 4547.1521,-251.1898"/>
<polygon fill="#000000" stroke="#000000" points="4550.6605,-251.2735 4548.1468,-240.9812 4543.6935,-250.5946 4550.6605,-251.2735"/>
<text text-anchor="middle" x="4647.5" y="-360.8528" font-family="Times,serif" font-size="20.00" fill="#000000">[NA]</text>
<text text-anchor="middle" x="4647.5" y="-338.8528" font-family="Times,serif" font-size="20.00" fill="#000000">default&#45;src &#39;self&#39;</text>
<text text-anchor="middle" x="4647.5" y="-316.8528" font-family="Times,serif" font-size="20.00" fill="#000000">empty</text>
</g>
<!-- SG_2_Node_14 -->
<g id="node47" class="node">
<title>SG_2_Node_14</title>
<ellipse fill="none" stroke="#000000" cx="4752" cy="-219.6396" rx="34.7971" ry="21.4286"/>
<text text-anchor="middle" x="4752" y="-214.6396" font-family="Times,serif" font-size="20.00" fill="#000000">1.0</text>
</g>
<!-- SG_2_Node_6&#45;&gt;SG_2_Node_14 -->
<g id="edge44" class="edge">
<title>SG_2_Node_6&#45;&gt;SG_2_Node_14</title>
<path fill="none" stroke="#000000" d="M4677.8329,-449.9481C4697.4656,-440.9846 4717.5022,-428.0633 4730,-409.8528 4762.7223,-362.173 4761.1324,-291.4628 4756.7523,-251.0366"/>
<polygon fill="#000000" stroke="#000000" points="4760.2094,-250.4698 4755.5338,-240.9625 4753.26,-251.3104 4760.2094,-250.4698"/>
<text text-anchor="middle" x="4869.5" y="-338.8528" font-family="Times,serif" font-size="20.00" fill="#000000">frame&#45;ancestors &#39;self&#39;</text>
</g>
</g>
</svg>
