<?xml version="1.0" encoding="UTF-8" standalone="no"?>
<!DOCTYPE svg PUBLIC "-//W3C//DTD SVG 1.1//EN"
 "http://www.w3.org/Graphics/SVG/1.1/DTD/svg11.dtd">
<!-- Generated by graphviz version 2.40.1 (20161225.0304)
 -->
<!-- Title: G Pages: 1 -->
<svg width="9638pt" height="1509pt"
 viewBox="0.00 0.00 9638.00 1508.56" xmlns="http://www.w3.org/2000/svg" xmlns:xlink="http://www.w3.org/1999/xlink">
<g id="graph0" class="graph" transform="scale(1 1) rotate(0) translate(4 1504.5584)">
<title>G</title>
<polygon fill="#ffffff" stroke="transparent" points="-4,4 -4,-1504.5584 9634,-1504.5584 9634,4 -4,4"/>
<g id="clust1" class="cluster">
<title>cluster_0</title>
<polygon fill="none" stroke="#000000" points="8,-8 8,-1492.5584 721,-1492.5584 721,-8 8,-8"/>
<text text-anchor="middle" x="364.5" y="-1456.5584" font-family="Times,serif" font-size="40.00" fill="#000000">Tree 0, Class http://localhost:8001</text>
</g>
<g id="clust9" class="cluster">
<title>cluster_1</title>
<polygon fill="none" stroke="#000000" points="729,-190.4264 729,-1492.5584 4643,-1492.5584 4643,-190.4264 729,-190.4264"/>
<text text-anchor="middle" x="2686" y="-1456.5584" font-family="Times,serif" font-size="40.00" fill="#000000">Tree 0, Class {&#39;code&#39;: 18, &#39;name&#39;: &#39;SecurityError&#39;, &#39;message&#39;: &#39;Blocked a frame with origin http://localhost:8001 from accessing a cross&#45;origin frame. Protocols, domains, and ports must match.&#39;}</text>
</g>
<g id="clust16" class="cluster">
<title>cluster_2</title>
<polygon fill="none" stroke="#000000" points="4651,-190.4264 4651,-1492.5584 9622,-1492.5584 9622,-190.4264 4651,-190.4264"/>
<text text-anchor="middle" x="7136.5" y="-1456.5584" font-family="Times,serif" font-size="40.00" fill="#000000">Tree 0, Class {&#39;code&#39;: 18, &#39;name&#39;: &#39;SecurityError&#39;, &#39;message&#39;: &#39;Sandbox access violation: Blocked a frame at http://localhost:8001 from accessing a cross&#45;origin frame. &#160;The frame being accessed is sandboxed and lacks the allow&#45;same&#45;origin flag.&#39;}</text>
</g>
<!-- SG_0_Node_0 -->
<g id="node1" class="node">
<title>SG_0_Node_0</title>
<polygon fill="none" stroke="#000000" points="264,-1432.5584 122,-1432.5584 122,-1396.5584 264,-1396.5584 264,-1432.5584"/>
<text text-anchor="middle" x="193" y="-1409.5584" font-family="Times,serif" font-size="20.00" fill="#000000">Status&#45;Code</text>
</g>
<!-- SG_0_Node_1 -->
<g id="node2" class="node">
<title>SG_0_Node_1</title>
<polygon fill="none" stroke="#000000" points="219.5,-1099.3452 28.5,-1099.3452 28.5,-1063.3452 219.5,-1063.3452 219.5,-1099.3452"/>
<text text-anchor="middle" x="124" y="-1076.3452" font-family="Times,serif" font-size="20.00" fill="#000000">X&#45;Frame&#45;Options</text>
</g>
<!-- SG_0_Node_0&#45;&gt;SG_0_Node_1 -->
<g id="edge1" class="edge">
<title>SG_0_Node_0&#45;&gt;SG_0_Node_1</title>
<path fill="none" stroke="#000000" d="M175.8357,-1396.1805C167.4858,-1386.1286 158.1595,-1373.007 153,-1359.5584 119.8713,-1273.2062 119.9846,-1161.3553 122.2144,-1109.7392"/>
<polygon fill="#000000" stroke="#000000" points="125.7141,-1109.8304 122.7112,-1099.67 118.7226,-1109.4854 125.7141,-1109.8304"/>
<text text-anchor="middle" x="199" y="-1255.5584" font-family="Times,serif" font-size="20.00" fill="#000000">[NA]</text>
<text text-anchor="middle" x="199" y="-1233.5584" font-family="Times,serif" font-size="20.00" fill="#000000">58 levels</text>
</g>
<!-- SG_0_Node_6 -->
<g id="node3" class="node">
<title>SG_0_Node_6</title>
<ellipse fill="none" stroke="#000000" cx="272" cy="-1081.3452" rx="34.7971" ry="21.4286"/>
<text text-anchor="middle" x="272" y="-1076.3452" font-family="Times,serif" font-size="20.00" fill="#000000">1.0</text>
</g>
<!-- SG_0_Node_0&#45;&gt;SG_0_Node_6 -->
<g id="edge2" class="edge">
<title>SG_0_Node_0&#45;&gt;SG_0_Node_6</title>
<path fill="none" stroke="#000000" d="M216.1729,-1396.3915C226.8315,-1386.6765 238.5231,-1373.7914 245,-1359.5584 282.6088,-1276.9132 279.665,-1166.4541 275.3571,-1112.9891"/>
<polygon fill="#000000" stroke="#000000" points="278.8219,-1112.4335 274.4601,-1102.7782 271.8487,-1113.0461 278.8219,-1112.4335"/>
<text text-anchor="middle" x="296.5" y="-1277.5584" font-family="Times,serif" font-size="20.00" fill="#000000">100</text>
<text text-anchor="middle" x="296.5" y="-1255.5584" font-family="Times,serif" font-size="20.00" fill="#000000">102</text>
<text text-anchor="middle" x="296.5" y="-1233.5584" font-family="Times,serif" font-size="20.00" fill="#000000">103</text>
<text text-anchor="middle" x="296.5" y="-1211.5584" font-family="Times,serif" font-size="20.00" fill="#000000">407</text>
</g>
<!-- SG_0_Node_7 -->
<g id="node4" class="node">
<title>SG_0_Node_7</title>
<ellipse fill="none" stroke="#000000" cx="87" cy="-898.9188" rx="34.7971" ry="21.4286"/>
<text text-anchor="middle" x="87" y="-893.9188" font-family="Times,serif" font-size="20.00" fill="#000000">0.0</text>
</g>
<!-- SG_0_Node_1&#45;&gt;SG_0_Node_7 -->
<g id="edge3" class="edge">
<title>SG_0_Node_1&#45;&gt;SG_0_Node_7</title>
<path fill="none" stroke="#000000" d="M120.317,-1063.1866C114.0181,-1032.1303 101.1057,-968.4662 93.3356,-930.156"/>
<polygon fill="#000000" stroke="#000000" points="96.7081,-929.1758 91.2901,-920.0711 89.8478,-930.5673 96.7081,-929.1758"/>
<text text-anchor="middle" x="136.5" y="-985.132" font-family="Times,serif" font-size="20.00" fill="#000000">deny</text>
</g>
<!-- SG_0_Node_2 -->
<g id="node5" class="node">
<title>SG_0_Node_2</title>
<polygon fill="none" stroke="#000000" points="360.5,-916.9188 139.5,-916.9188 139.5,-880.9188 360.5,-880.9188 360.5,-916.9188"/>
<text text-anchor="middle" x="250" y="-893.9188" font-family="Times,serif" font-size="20.00" fill="#000000">Content&#45;Disposition</text>
</g>
<!-- SG_0_Node_1&#45;&gt;SG_0_Node_2 -->
<g id="edge4" class="edge">
<title>SG_0_Node_1&#45;&gt;SG_0_Node_2</title>
<path fill="none" stroke="#000000" d="M136.806,-1063.2962C144.9237,-1051.8221 155.6239,-1036.6372 165,-1023.132 188.3282,-989.5305 214.91,-950.5767 232.0433,-925.3809"/>
<polygon fill="#000000" stroke="#000000" points="234.9626,-927.3121 237.6886,-917.0739 229.173,-923.3775 234.9626,-927.3121"/>
<text text-anchor="middle" x="242" y="-996.132" font-family="Times,serif" font-size="20.00" fill="#000000">[NA]</text>
<text text-anchor="middle" x="242" y="-974.132" font-family="Times,serif" font-size="20.00" fill="#000000">empty</text>
</g>
<!-- SG_0_Node_8 -->
<g id="node6" class="node">
<title>SG_0_Node_8</title>
<ellipse fill="none" stroke="#000000" cx="135" cy="-650.4924" rx="34.7971" ry="21.4286"/>
<text text-anchor="middle" x="135" y="-645.4924" font-family="Times,serif" font-size="20.00" fill="#000000">0.0</text>
</g>
<!-- SG_0_Node_2&#45;&gt;SG_0_Node_8 -->
<g id="edge5" class="edge">
<title>SG_0_Node_2&#45;&gt;SG_0_Node_8</title>
<path fill="none" stroke="#000000" d="M230.2602,-880.8193C219.483,-870.046 206.618,-855.6028 198,-840.7056 168.0655,-788.9606 149.9314,-720.9754 141.2437,-681.8691"/>
<polygon fill="#000000" stroke="#000000" points="144.5683,-680.6817 139.0418,-671.6424 137.7251,-682.1551 144.5683,-680.6817"/>
<text text-anchor="middle" x="230" y="-769.7056" font-family="Times,serif" font-size="20.00" fill="#000000">empty</text>
</g>
<!-- SG_0_Node_3 -->
<g id="node7" class="node">
<title>SG_0_Node_3</title>
<polygon fill="none" stroke="#000000" points="448,-668.4924 188,-668.4924 188,-632.4924 448,-632.4924 448,-668.4924"/>
<text text-anchor="middle" x="318" y="-645.4924" font-family="Times,serif" font-size="20.00" fill="#000000">Content&#45;Security&#45;Policy</text>
</g>
<!-- SG_0_Node_2&#45;&gt;SG_0_Node_3 -->
<g id="edge6" class="edge">
<title>SG_0_Node_2&#45;&gt;SG_0_Node_3</title>
<path fill="none" stroke="#000000" d="M255.0002,-880.6514C266.765,-837.6709 296.261,-729.9122 310.3179,-678.5578"/>
<polygon fill="#000000" stroke="#000000" points="313.7281,-679.3559 312.9925,-668.7866 306.9765,-677.5077 313.7281,-679.3559"/>
<text text-anchor="middle" x="360" y="-780.7056" font-family="Times,serif" font-size="20.00" fill="#000000">[NA]</text>
<text text-anchor="middle" x="360" y="-758.7056" font-family="Times,serif" font-size="20.00" fill="#000000">attachment</text>
</g>
<!-- SG_0_Node_9 -->
<g id="node8" class="node">
<title>SG_0_Node_9</title>
<ellipse fill="none" stroke="#000000" cx="109" cy="-468.066" rx="34.7971" ry="21.4286"/>
<text text-anchor="middle" x="109" y="-463.066" font-family="Times,serif" font-size="20.00" fill="#000000">0.0</text>
</g>
<!-- SG_0_Node_3&#45;&gt;SG_0_Node_9 -->
<g id="edge7" class="edge">
<title>SG_0_Node_3&#45;&gt;SG_0_Node_9</title>
<path fill="none" stroke="#000000" d="M208.6968,-632.474C165.0397,-622.849 122.0143,-609.4138 109,-592.2792 88.8754,-565.7833 93.0087,-526.1062 99.4698,-498.7607"/>
<polygon fill="#000000" stroke="#000000" points="102.8949,-499.4954 102.0143,-488.9372 96.1185,-497.7401 102.8949,-499.4954"/>
<text text-anchor="middle" x="219.5" y="-554.2792" font-family="Times,serif" font-size="20.00" fill="#000000">frame&#45;ancestors &#39;self&#39;</text>
</g>
<!-- SG_0_Node_4 -->
<g id="node9" class="node">
<title>SG_0_Node_4</title>
<polygon fill="none" stroke="#000000" points="437,-486.066 295,-486.066 295,-450.066 437,-450.066 437,-486.066"/>
<text text-anchor="middle" x="366" y="-463.066" font-family="Times,serif" font-size="20.00" fill="#000000">Status&#45;Code</text>
</g>
<!-- SG_0_Node_3&#45;&gt;SG_0_Node_4 -->
<g id="edge8" class="edge">
<title>SG_0_Node_3&#45;&gt;SG_0_Node_4</title>
<path fill="none" stroke="#000000" d="M323.0479,-632.4197C326.2353,-620.9364 330.4138,-605.7501 334,-592.2792 342.7723,-559.3276 352.4993,-521.3551 358.9003,-496.1574"/>
<polygon fill="#000000" stroke="#000000" points="362.3618,-496.7459 361.4275,-486.1924 355.5766,-495.0251 362.3618,-496.7459"/>
<text text-anchor="middle" x="433.5" y="-576.2792" font-family="Times,serif" font-size="20.00" fill="#000000">[NA]</text>
<text text-anchor="middle" x="433.5" y="-554.2792" font-family="Times,serif" font-size="20.00" fill="#000000">default&#45;src &#39;self&#39;</text>
<text text-anchor="middle" x="433.5" y="-532.2792" font-family="Times,serif" font-size="20.00" fill="#000000">empty</text>
</g>
<!-- SG_0_Node_5 -->
<g id="node10" class="node">
<title>SG_0_Node_5</title>
<polygon fill="none" stroke="#000000" points="366.5,-237.6396 261.5,-237.6396 261.5,-201.6396 366.5,-201.6396 366.5,-237.6396"/>
<text text-anchor="middle" x="314" y="-214.6396" font-family="Times,serif" font-size="20.00" fill="#000000">Location</text>
</g>
<!-- SG_0_Node_4&#45;&gt;SG_0_Node_5 -->
<g id="edge9" class="edge">
<title>SG_0_Node_4&#45;&gt;SG_0_Node_5</title>
<path fill="none" stroke="#000000" d="M360.5725,-449.8102C357.2786,-438.387 353.1223,-423.3311 350,-409.8528 336.7799,-352.7846 324.8738,-285.2531 318.6205,-247.9595"/>
<polygon fill="#000000" stroke="#000000" points="322.0306,-247.1292 316.9381,-237.8385 315.1254,-248.2771 322.0306,-247.1292"/>
<text text-anchor="middle" x="369.5" y="-393.8528" font-family="Times,serif" font-size="20.00" fill="#000000">301</text>
<text text-anchor="middle" x="369.5" y="-371.8528" font-family="Times,serif" font-size="20.00" fill="#000000">302</text>
<text text-anchor="middle" x="369.5" y="-349.8528" font-family="Times,serif" font-size="20.00" fill="#000000">303</text>
<text text-anchor="middle" x="369.5" y="-327.8528" font-family="Times,serif" font-size="20.00" fill="#000000">305</text>
<text text-anchor="middle" x="369.5" y="-305.8528" font-family="Times,serif" font-size="20.00" fill="#000000">307</text>
<text text-anchor="middle" x="369.5" y="-283.8528" font-family="Times,serif" font-size="20.00" fill="#000000">308</text>
</g>
<!-- SG_0_Node_10 -->
<g id="node11" class="node">
<title>SG_0_Node_10</title>
<ellipse fill="none" stroke="#000000" cx="419" cy="-219.6396" rx="34.7971" ry="21.4286"/>
<text text-anchor="middle" x="419" y="-214.6396" font-family="Times,serif" font-size="20.00" fill="#000000">1.0</text>
</g>
<!-- SG_0_Node_4&#45;&gt;SG_0_Node_10 -->
<g id="edge10" class="edge">
<title>SG_0_Node_4&#45;&gt;SG_0_Node_10</title>
<path fill="none" stroke="#000000" d="M374.3037,-450.0635C379.2274,-438.7357 385.2245,-423.691 389,-409.8528 403.9607,-355.0186 412.2817,-289.1223 416.1836,-251.0423"/>
<polygon fill="#000000" stroke="#000000" points="419.6684,-251.3675 417.1688,-241.0717 412.7023,-250.6791 419.6684,-251.3675"/>
<text text-anchor="middle" x="459" y="-349.8528" font-family="Times,serif" font-size="20.00" fill="#000000">[NA]</text>
<text text-anchor="middle" x="459" y="-327.8528" font-family="Times,serif" font-size="20.00" fill="#000000">52 levels</text>
</g>
<!-- SG_0_Node_11 -->
<g id="node12" class="node">
<title>SG_0_Node_11</title>
<ellipse fill="none" stroke="#000000" cx="99" cy="-37.2132" rx="34.7971" ry="21.4286"/>
<text text-anchor="middle" x="99" y="-32.2132" font-family="Times,serif" font-size="20.00" fill="#000000">0.0</text>
</g>
<!-- SG_0_Node_5&#45;&gt;SG_0_Node_11 -->
<g id="edge11" class="edge">
<title>SG_0_Node_5&#45;&gt;SG_0_Node_11</title>
<path fill="none" stroke="#000000" d="M261.482,-212.761C204.3942,-204.0798 118.6526,-187.1077 99,-161.4264 78.7798,-135.0034 82.9327,-95.3113 89.4245,-67.9424"/>
<polygon fill="#000000" stroke="#000000" points="92.852,-68.6687 91.9811,-58.1097 86.0772,-66.9071 92.852,-68.6687"/>
<text text-anchor="middle" x="236" y="-145.4264" font-family="Times,serif" font-size="20.00" fill="#000000">[NA]</text>
<text text-anchor="middle" x="236" y="-123.4264" font-family="Times,serif" font-size="20.00" fill="#000000">/</text>
<text text-anchor="middle" x="236" y="-101.4264" font-family="Times,serif" font-size="20.00" fill="#000000">http://localhost:8000/echo/</text>
</g>
<!-- SG_0_Node_12 -->
<g id="node13" class="node">
<title>SG_0_Node_12</title>
<ellipse fill="none" stroke="#000000" cx="409" cy="-37.2132" rx="34.7971" ry="21.4286"/>
<text text-anchor="middle" x="409" y="-32.2132" font-family="Times,serif" font-size="20.00" fill="#000000">1.0</text>
</g>
<!-- SG_0_Node_5&#45;&gt;SG_0_Node_12 -->
<g id="edge12" class="edge">
<title>SG_0_Node_5&#45;&gt;SG_0_Node_12</title>
<path fill="none" stroke="#000000" d="M339.7381,-201.5614C352.6955,-191.204 367.6061,-177.1512 377,-161.4264 394.0641,-132.8624 402.11,-95.3284 405.8518,-69.0252"/>
<polygon fill="#000000" stroke="#000000" points="409.3567,-69.2114 407.1656,-58.8457 402.4143,-68.3154 409.3567,-69.2114"/>
<text text-anchor="middle" x="433" y="-123.4264" font-family="Times,serif" font-size="20.00" fill="#000000">empty</text>
</g>
<!-- SG_1_Node_0 -->
<g id="node14" class="node">
<title>SG_1_Node_0</title>
<polygon fill="none" stroke="#000000" points="2641,-1432.5584 2499,-1432.5584 2499,-1396.5584 2641,-1396.5584 2641,-1432.5584"/>
<text text-anchor="middle" x="2570" y="-1409.5584" font-family="Times,serif" font-size="20.00" fill="#000000">Status&#45;Code</text>
</g>
<!-- SG_1_Node_1 -->
<g id="node15" class="node">
<title>SG_1_Node_1</title>
<polygon fill="none" stroke="#000000" points="2569.5,-1099.3452 2348.5,-1099.3452 2348.5,-1063.3452 2569.5,-1063.3452 2569.5,-1099.3452"/>
<text text-anchor="middle" x="2459" y="-1076.3452" font-family="Times,serif" font-size="20.00" fill="#000000">Content&#45;Disposition</text>
</g>
<!-- SG_1_Node_0&#45;&gt;SG_1_Node_1 -->
<g id="edge13" class="edge">
<title>SG_1_Node_0&#45;&gt;SG_1_Node_1</title>
<path fill="none" stroke="#000000" d="M2531.5248,-1396.3281C2516.7575,-1387.348 2501.2447,-1375.074 2492,-1359.5584 2444.135,-1279.2254 2449.551,-1162.6412 2455.216,-1109.5621"/>
<polygon fill="#000000" stroke="#000000" points="2458.7043,-1109.8637 2456.373,-1099.5286 2451.7504,-1109.0618 2458.7043,-1109.8637"/>
<text text-anchor="middle" x="2538" y="-1255.5584" font-family="Times,serif" font-size="20.00" fill="#000000">[NA]</text>
<text text-anchor="middle" x="2538" y="-1233.5584" font-family="Times,serif" font-size="20.00" fill="#000000">56 levels</text>
</g>
<!-- SG_1_Node_2 -->
<g id="node16" class="node">
<title>SG_1_Node_2</title>
<polygon fill="none" stroke="#000000" points="2732.5,-1099.3452 2627.5,-1099.3452 2627.5,-1063.3452 2732.5,-1063.3452 2732.5,-1099.3452"/>
<text text-anchor="middle" x="2680" y="-1076.3452" font-family="Times,serif" font-size="20.00" fill="#000000">Location</text>
</g>
<!-- SG_1_Node_0&#45;&gt;SG_1_Node_2 -->
<g id="edge14" class="edge">
<title>SG_1_Node_0&#45;&gt;SG_1_Node_2</title>
<path fill="none" stroke="#000000" d="M2576.0708,-1396.1688C2594.3261,-1340.8697 2648.8091,-1175.829 2670.7214,-1109.4521"/>
<polygon fill="#000000" stroke="#000000" points="2674.1367,-1110.2712 2673.948,-1099.678 2667.4896,-1108.0768 2674.1367,-1110.2712"/>
<text text-anchor="middle" x="2679.5" y="-1299.5584" font-family="Times,serif" font-size="20.00" fill="#000000">301</text>
<text text-anchor="middle" x="2679.5" y="-1277.5584" font-family="Times,serif" font-size="20.00" fill="#000000">302</text>
<text text-anchor="middle" x="2679.5" y="-1255.5584" font-family="Times,serif" font-size="20.00" fill="#000000">303</text>
<text text-anchor="middle" x="2679.5" y="-1233.5584" font-family="Times,serif" font-size="20.00" fill="#000000">305</text>
<text text-anchor="middle" x="2679.5" y="-1211.5584" font-family="Times,serif" font-size="20.00" fill="#000000">307</text>
<text text-anchor="middle" x="2679.5" y="-1189.5584" font-family="Times,serif" font-size="20.00" fill="#000000">308</text>
</g>
<!-- SG_1_Node_9 -->
<g id="node17" class="node">
<title>SG_1_Node_9</title>
<ellipse fill="none" stroke="#000000" cx="2305" cy="-898.9188" rx="34.7971" ry="21.4286"/>
<text text-anchor="middle" x="2305" y="-893.9188" font-family="Times,serif" font-size="20.00" fill="#000000">0.0</text>
</g>
<!-- SG_1_Node_1&#45;&gt;SG_1_Node_9 -->
<g id="edge23" class="edge">
<title>SG_1_Node_1&#45;&gt;SG_1_Node_9</title>
<path fill="none" stroke="#000000" d="M2392.483,-1063.2734C2371.0214,-1054.402 2348.9421,-1041.5282 2334,-1023.132 2312.6769,-996.8798 2306.4744,-957.7415 2304.9403,-930.4361"/>
<polygon fill="#000000" stroke="#000000" points="2308.4303,-930.1049 2304.5516,-920.2456 2301.4353,-930.3717 2308.4303,-930.1049"/>
<text text-anchor="middle" x="2393" y="-996.132" font-family="Times,serif" font-size="20.00" fill="#000000">[NA]</text>
<text text-anchor="middle" x="2393" y="-974.132" font-family="Times,serif" font-size="20.00" fill="#000000">attachment</text>
</g>
<!-- SG_1_Node_3 -->
<g id="node18" class="node">
<title>SG_1_Node_3</title>
<polygon fill="none" stroke="#000000" points="2551.5,-916.9188 2360.5,-916.9188 2360.5,-880.9188 2551.5,-880.9188 2551.5,-916.9188"/>
<text text-anchor="middle" x="2456" y="-893.9188" font-family="Times,serif" font-size="20.00" fill="#000000">X&#45;Frame&#45;Options</text>
</g>
<!-- SG_1_Node_1&#45;&gt;SG_1_Node_3 -->
<g id="edge24" class="edge">
<title>SG_1_Node_1&#45;&gt;SG_1_Node_3</title>
<path fill="none" stroke="#000000" d="M2458.7014,-1063.1866C2458.178,-1031.3607 2457.0915,-965.291 2456.4676,-927.3557"/>
<polygon fill="#000000" stroke="#000000" points="2459.9615,-926.9451 2456.2974,-917.0041 2452.9624,-927.0603 2459.9615,-926.9451"/>
<text text-anchor="middle" x="2490" y="-985.132" font-family="Times,serif" font-size="20.00" fill="#000000">empty</text>
</g>
<!-- SG_1_Node_4 -->
<g id="node19" class="node">
<title>SG_1_Node_4</title>
<polygon fill="none" stroke="#000000" points="2790.5,-916.9188 2569.5,-916.9188 2569.5,-880.9188 2790.5,-880.9188 2790.5,-916.9188"/>
<text text-anchor="middle" x="2680" y="-893.9188" font-family="Times,serif" font-size="20.00" fill="#000000">Content&#45;Disposition</text>
</g>
<!-- SG_1_Node_2&#45;&gt;SG_1_Node_4 -->
<g id="edge15" class="edge">
<title>SG_1_Node_2&#45;&gt;SG_1_Node_4</title>
<path fill="none" stroke="#000000" d="M2680,-1063.1866C2680,-1031.3607 2680,-965.291 2680,-927.3557"/>
<polygon fill="#000000" stroke="#000000" points="2683.5001,-927.004 2680,-917.0041 2676.5001,-927.0041 2683.5001,-927.004"/>
<text text-anchor="middle" x="2712" y="-985.132" font-family="Times,serif" font-size="20.00" fill="#000000">empty</text>
</g>
<!-- SG_1_Node_10 -->
<g id="node20" class="node">
<title>SG_1_Node_10</title>
<ellipse fill="none" stroke="#000000" cx="2843" cy="-898.9188" rx="34.7971" ry="21.4286"/>
<text text-anchor="middle" x="2843" y="-893.9188" font-family="Times,serif" font-size="20.00" fill="#000000">1.0</text>
</g>
<!-- SG_1_Node_2&#45;&gt;SG_1_Node_10 -->
<g id="edge16" class="edge">
<title>SG_1_Node_2&#45;&gt;SG_1_Node_10</title>
<path fill="none" stroke="#000000" d="M2703.4275,-1063.3303C2717.0612,-1052.3606 2734.2202,-1037.6928 2748,-1023.132 2777.0049,-992.4834 2805.8089,-953.2628 2823.964,-927.1771"/>
<polygon fill="#000000" stroke="#000000" points="2826.9003,-929.0844 2829.6976,-918.8655 2821.1382,-925.1095 2826.9003,-929.0844"/>
<text text-anchor="middle" x="2939" y="-1007.132" font-family="Times,serif" font-size="20.00" fill="#000000">[NA]</text>
<text text-anchor="middle" x="2939" y="-985.132" font-family="Times,serif" font-size="20.00" fill="#000000">/</text>
<text text-anchor="middle" x="2939" y="-963.132" font-family="Times,serif" font-size="20.00" fill="#000000">http://localhost:8000/echo/</text>
</g>
<!-- SG_1_Node_11 -->
<g id="node21" class="node">
<title>SG_1_Node_11</title>
<ellipse fill="none" stroke="#000000" cx="2299" cy="-650.4924" rx="34.7971" ry="21.4286"/>
<text text-anchor="middle" x="2299" y="-645.4924" font-family="Times,serif" font-size="20.00" fill="#000000">0.0</text>
</g>
<!-- SG_1_Node_3&#45;&gt;SG_1_Node_11 -->
<g id="edge25" class="edge">
<title>SG_1_Node_3&#45;&gt;SG_1_Node_11</title>
<path fill="none" stroke="#000000" d="M2440.2159,-880.8681C2430.7142,-869.6472 2418.6327,-854.7325 2409,-840.7056 2371.4732,-786.0602 2334.2079,-717.9566 2314.1405,-679.8448"/>
<polygon fill="#000000" stroke="#000000" points="2317.1587,-678.0637 2309.4195,-670.828 2310.9573,-681.3107 2317.1587,-678.0637"/>
<text text-anchor="middle" x="2433.5" y="-769.7056" font-family="Times,serif" font-size="20.00" fill="#000000">deny</text>
</g>
<!-- SG_1_Node_5 -->
<g id="node22" class="node">
<title>SG_1_Node_5</title>
<polygon fill="none" stroke="#000000" points="2612,-668.4924 2352,-668.4924 2352,-632.4924 2612,-632.4924 2612,-668.4924"/>
<text text-anchor="middle" x="2482" y="-645.4924" font-family="Times,serif" font-size="20.00" fill="#000000">Content&#45;Security&#45;Policy</text>
</g>
<!-- SG_1_Node_3&#45;&gt;SG_1_Node_5 -->
<g id="edge26" class="edge">
<title>SG_1_Node_3&#45;&gt;SG_1_Node_5</title>
<path fill="none" stroke="#000000" d="M2457.9118,-880.6514C2462.4007,-837.7606 2473.641,-730.3618 2479.029,-678.8802"/>
<polygon fill="#000000" stroke="#000000" points="2482.5254,-679.0966 2480.0854,-668.7866 2475.5634,-678.3679 2482.5254,-679.0966"/>
<text text-anchor="middle" x="2507" y="-780.7056" font-family="Times,serif" font-size="20.00" fill="#000000">[NA]</text>
<text text-anchor="middle" x="2507" y="-758.7056" font-family="Times,serif" font-size="20.00" fill="#000000">empty</text>
</g>
<!-- SG_1_Node_12 -->
<g id="node23" class="node">
<title>SG_1_Node_12</title>
<ellipse fill="none" stroke="#000000" cx="2670" cy="-650.4924" rx="34.7971" ry="21.4286"/>
<text text-anchor="middle" x="2670" y="-645.4924" font-family="Times,serif" font-size="20.00" fill="#000000">0.0</text>
</g>
<!-- SG_1_Node_4&#45;&gt;SG_1_Node_12 -->
<g id="edge17" class="edge">
<title>SG_1_Node_4&#45;&gt;SG_1_Node_12</title>
<path fill="none" stroke="#000000" d="M2679.2647,-880.6514C2677.5725,-838.6144 2673.3861,-734.6118 2671.2691,-682.0199"/>
<polygon fill="#000000" stroke="#000000" points="2674.762,-681.7704 2670.8625,-671.9193 2667.7676,-682.052 2674.762,-681.7704"/>
<text text-anchor="middle" x="2736" y="-780.7056" font-family="Times,serif" font-size="20.00" fill="#000000">[NA]</text>
<text text-anchor="middle" x="2736" y="-758.7056" font-family="Times,serif" font-size="20.00" fill="#000000">attachment</text>
</g>
<!-- SG_1_Node_6 -->
<g id="node24" class="node">
<title>SG_1_Node_6</title>
<polygon fill="none" stroke="#000000" points="2919.5,-668.4924 2728.5,-668.4924 2728.5,-632.4924 2919.5,-632.4924 2919.5,-668.4924"/>
<text text-anchor="middle" x="2824" y="-645.4924" font-family="Times,serif" font-size="20.00" fill="#000000">X&#45;Frame&#45;Options</text>
</g>
<!-- SG_1_Node_4&#45;&gt;SG_1_Node_6 -->
<g id="edge18" class="edge">
<title>SG_1_Node_4&#45;&gt;SG_1_Node_6</title>
<path fill="none" stroke="#000000" d="M2744.69,-880.8162C2765.1123,-871.958 2785.7771,-859.1004 2799,-840.7056 2833.7259,-792.3975 2832.1633,-718.8977 2828.0462,-678.8799"/>
<polygon fill="#000000" stroke="#000000" points="2831.5019,-678.2937 2826.8754,-668.7624 2824.5483,-679.0985 2831.5019,-678.2937"/>
<text text-anchor="middle" x="2862" y="-769.7056" font-family="Times,serif" font-size="20.00" fill="#000000">empty</text>
</g>
<!-- SG_1_Node_13 -->
<g id="node25" class="node">
<title>SG_1_Node_13</title>
<ellipse fill="none" stroke="#000000" cx="2297" cy="-468.066" rx="34.7971" ry="21.4286"/>
<text text-anchor="middle" x="2297" y="-463.066" font-family="Times,serif" font-size="20.00" fill="#000000">0.0</text>
</g>
<!-- SG_1_Node_5&#45;&gt;SG_1_Node_13 -->
<g id="edge27" class="edge">
<title>SG_1_Node_5&#45;&gt;SG_1_Node_13</title>
<path fill="none" stroke="#000000" d="M2390.9577,-632.4519C2350.3469,-622.3769 2308.9505,-608.5679 2297,-592.2792 2277.4313,-565.6069 2281.3148,-526.2985 2287.5707,-499.075"/>
<polygon fill="#000000" stroke="#000000" points="2290.9881,-499.837 2290.0406,-489.2847 2284.2007,-498.1247 2290.9881,-499.837"/>
<text text-anchor="middle" x="2407.5" y="-554.2792" font-family="Times,serif" font-size="20.00" fill="#000000">frame&#45;ancestors &#39;self&#39;</text>
</g>
<!-- SG_1_Node_7 -->
<g id="node26" class="node">
<title>SG_1_Node_7</title>
<polygon fill="none" stroke="#000000" points="2625,-486.066 2483,-486.066 2483,-450.066 2625,-450.066 2625,-486.066"/>
<text text-anchor="middle" x="2554" y="-463.066" font-family="Times,serif" font-size="20.00" fill="#000000">Status&#45;Code</text>
</g>
<!-- SG_1_Node_5&#45;&gt;SG_1_Node_7 -->
<g id="edge28" class="edge">
<title>SG_1_Node_5&#45;&gt;SG_1_Node_7</title>
<path fill="none" stroke="#000000" d="M2496.9279,-632.357C2505.342,-621.3459 2515.4477,-606.6768 2522,-592.2792 2536.2688,-560.9262 2544.9775,-522.111 2549.6357,-496.2991"/>
<polygon fill="#000000" stroke="#000000" points="2553.0883,-496.8729 2551.3344,-486.4242 2546.1897,-495.6861 2553.0883,-496.8729"/>
<text text-anchor="middle" x="2625.5" y="-576.2792" font-family="Times,serif" font-size="20.00" fill="#000000">[NA]</text>
<text text-anchor="middle" x="2625.5" y="-554.2792" font-family="Times,serif" font-size="20.00" fill="#000000">default&#45;src &#39;self&#39;</text>
<text text-anchor="middle" x="2625.5" y="-532.2792" font-family="Times,serif" font-size="20.00" fill="#000000">empty</text>
</g>
<!-- SG_1_Node_14 -->
<g id="node27" class="node">
<title>SG_1_Node_14</title>
<ellipse fill="none" stroke="#000000" cx="2767" cy="-468.066" rx="34.7971" ry="21.4286"/>
<text text-anchor="middle" x="2767" y="-463.066" font-family="Times,serif" font-size="20.00" fill="#000000">0.0</text>
</g>
<!-- SG_1_Node_6&#45;&gt;SG_1_Node_14 -->
<g id="edge19" class="edge">
<title>SG_1_Node_6&#45;&gt;SG_1_Node_14</title>
<path fill="none" stroke="#000000" d="M2818.3262,-632.3337C2808.5552,-601.062 2788.4539,-536.7285 2776.5122,-498.5096"/>
<polygon fill="#000000" stroke="#000000" points="2779.8427,-497.4326 2773.5195,-488.9315 2773.1612,-499.5203 2779.8427,-497.4326"/>
<text text-anchor="middle" x="2829.5" y="-554.2792" font-family="Times,serif" font-size="20.00" fill="#000000">deny</text>
</g>
<!-- SG_1_Node_8 -->
<g id="node28" class="node">
<title>SG_1_Node_8</title>
<polygon fill="none" stroke="#000000" points="3080,-486.066 2820,-486.066 2820,-450.066 3080,-450.066 3080,-486.066"/>
<text text-anchor="middle" x="2950" y="-463.066" font-family="Times,serif" font-size="20.00" fill="#000000">Content&#45;Security&#45;Policy</text>
</g>
<!-- SG_1_Node_6&#45;&gt;SG_1_Node_8 -->
<g id="edge20" class="edge">
<title>SG_1_Node_6&#45;&gt;SG_1_Node_8</title>
<path fill="none" stroke="#000000" d="M2836.542,-632.3337C2858.9012,-599.9615 2905.7312,-532.1596 2931.691,-494.5743"/>
<polygon fill="#000000" stroke="#000000" points="2934.7054,-496.3685 2937.5087,-486.1513 2928.9457,-492.3903 2934.7054,-496.3685"/>
<text text-anchor="middle" x="2941" y="-565.2792" font-family="Times,serif" font-size="20.00" fill="#000000">[NA]</text>
<text text-anchor="middle" x="2941" y="-543.2792" font-family="Times,serif" font-size="20.00" fill="#000000">empty</text>
</g>
<!-- SG_1_Node_15 -->
<g id="node29" class="node">
<title>SG_1_Node_15</title>
<ellipse fill="none" stroke="#000000" cx="2506" cy="-219.6396" rx="34.7971" ry="21.4286"/>
<text text-anchor="middle" x="2506" y="-214.6396" font-family="Times,serif" font-size="20.00" fill="#000000">0.0</text>
</g>
<!-- SG_1_Node_7&#45;&gt;SG_1_Node_15 -->
<g id="edge29" class="edge">
<title>SG_1_Node_7&#45;&gt;SG_1_Node_15</title>
<path fill="none" stroke="#000000" d="M2540.5046,-449.9465C2533.0752,-438.9409 2524.4768,-424.272 2520,-409.8528 2503.2623,-355.9437 2502.6081,-289.4846 2504.0392,-251.095"/>
<polygon fill="#000000" stroke="#000000" points="2507.5383,-251.191 2504.4865,-241.0452 2500.5452,-250.8797 2507.5383,-251.191"/>
<text text-anchor="middle" x="2539.5" y="-371.8528" font-family="Times,serif" font-size="20.00" fill="#000000">100</text>
<text text-anchor="middle" x="2539.5" y="-349.8528" font-family="Times,serif" font-size="20.00" fill="#000000">102</text>
<text text-anchor="middle" x="2539.5" y="-327.8528" font-family="Times,serif" font-size="20.00" fill="#000000">103</text>
<text text-anchor="middle" x="2539.5" y="-305.8528" font-family="Times,serif" font-size="20.00" fill="#000000">407</text>
</g>
<!-- SG_1_Node_16 -->
<g id="node30" class="node">
<title>SG_1_Node_16</title>
<ellipse fill="none" stroke="#000000" cx="2593" cy="-219.6396" rx="34.7971" ry="21.4286"/>
<text text-anchor="middle" x="2593" y="-214.6396" font-family="Times,serif" font-size="20.00" fill="#000000">1.0</text>
</g>
<!-- SG_1_Node_7&#45;&gt;SG_1_Node_16 -->
<g id="edge30" class="edge">
<title>SG_1_Node_7&#45;&gt;SG_1_Node_16</title>
<path fill="none" stroke="#000000" d="M2556.8678,-449.7986C2563.4671,-407.7616 2579.7943,-303.759 2588.0506,-251.1671"/>
<polygon fill="#000000" stroke="#000000" points="2591.5429,-251.4883 2589.6362,-241.0665 2584.6276,-250.4026 2591.5429,-251.4883"/>
<text text-anchor="middle" x="2629" y="-349.8528" font-family="Times,serif" font-size="20.00" fill="#000000">[NA]</text>
<text text-anchor="middle" x="2629" y="-327.8528" font-family="Times,serif" font-size="20.00" fill="#000000">52 levels</text>
</g>
<!-- SG_1_Node_17 -->
<g id="node31" class="node">
<title>SG_1_Node_17</title>
<ellipse fill="none" stroke="#000000" cx="2741" cy="-219.6396" rx="34.7971" ry="21.4286"/>
<text text-anchor="middle" x="2741" y="-214.6396" font-family="Times,serif" font-size="20.00" fill="#000000">0.0</text>
</g>
<!-- SG_1_Node_8&#45;&gt;SG_1_Node_17 -->
<g id="edge21" class="edge">
<title>SG_1_Node_8&#45;&gt;SG_1_Node_17</title>
<path fill="none" stroke="#000000" d="M2840.6968,-450.0476C2797.0397,-440.4226 2754.0143,-426.9874 2741,-409.8528 2705.8302,-363.5484 2719.0404,-290.9555 2730.7165,-250.1424"/>
<polygon fill="#000000" stroke="#000000" points="2734.0921,-251.0706 2733.6215,-240.4862 2727.3889,-249.0539 2734.0921,-251.0706"/>
<text text-anchor="middle" x="2851.5" y="-338.8528" font-family="Times,serif" font-size="20.00" fill="#000000">frame&#45;ancestors &#39;self&#39;</text>
</g>
<!-- SG_1_Node_18 -->
<g id="node32" class="node">
<title>SG_1_Node_18</title>
<ellipse fill="none" stroke="#000000" cx="2998" cy="-219.6396" rx="34.7971" ry="21.4286"/>
<text text-anchor="middle" x="2998" y="-214.6396" font-family="Times,serif" font-size="20.00" fill="#000000">1.0</text>
</g>
<!-- SG_1_Node_8&#45;&gt;SG_1_Node_18 -->
<g id="edge22" class="edge">
<title>SG_1_Node_8&#45;&gt;SG_1_Node_18</title>
<path fill="none" stroke="#000000" d="M2955.5242,-449.8321C2958.8545,-438.4172 2963.0152,-423.3623 2966,-409.8528 2978.2303,-354.4977 2988.2787,-289.1737 2993.6827,-251.2721"/>
<polygon fill="#000000" stroke="#000000" points="2997.2166,-251.2759 2995.1448,-240.8856 2990.2849,-250.3 2997.2166,-251.2759"/>
<text text-anchor="middle" x="3071.5" y="-360.8528" font-family="Times,serif" font-size="20.00" fill="#000000">[NA]</text>
<text text-anchor="middle" x="3071.5" y="-338.8528" font-family="Times,serif" font-size="20.00" fill="#000000">default&#45;src &#39;self&#39;</text>
<text text-anchor="middle" x="3071.5" y="-316.8528" font-family="Times,serif" font-size="20.00" fill="#000000">empty</text>
</g>
<!-- SG_2_Node_0 -->
<g id="node33" class="node">
<title>SG_2_Node_0</title>
<polygon fill="none" stroke="#000000" points="5168,-1432.5584 5026,-1432.5584 5026,-1396.5584 5168,-1396.5584 5168,-1432.5584"/>
<text text-anchor="middle" x="5097" y="-1409.5584" font-family="Times,serif" font-size="20.00" fill="#000000">Status&#45;Code</text>
</g>
<!-- SG_2_Node_1 -->
<g id="node34" class="node">
<title>SG_2_Node_1</title>
<polygon fill="none" stroke="#000000" points="5061.5,-1099.3452 4956.5,-1099.3452 4956.5,-1063.3452 5061.5,-1063.3452 5061.5,-1099.3452"/>
<text text-anchor="middle" x="5009" y="-1076.3452" font-family="Times,serif" font-size="20.00" fill="#000000">Location</text>
</g>
<!-- SG_2_Node_0&#45;&gt;SG_2_Node_1 -->
<g id="edge31" class="edge">
<title>SG_2_Node_0&#45;&gt;SG_2_Node_1</title>
<path fill="none" stroke="#000000" d="M5092.1434,-1396.1688C5077.5392,-1340.8697 5033.9527,-1175.829 5016.4229,-1109.4521"/>
<polygon fill="#000000" stroke="#000000" points="5019.7791,-1108.4528 5013.8416,-1099.678 5013.0111,-1110.2403 5019.7791,-1108.4528"/>
<text text-anchor="middle" x="5101.5" y="-1343.5584" font-family="Times,serif" font-size="20.00" fill="#000000">100</text>
<text text-anchor="middle" x="5101.5" y="-1321.5584" font-family="Times,serif" font-size="20.00" fill="#000000">102</text>
<text text-anchor="middle" x="5101.5" y="-1299.5584" font-family="Times,serif" font-size="20.00" fill="#000000">103</text>
<text text-anchor="middle" x="5101.5" y="-1277.5584" font-family="Times,serif" font-size="20.00" fill="#000000">301</text>
<text text-anchor="middle" x="5101.5" y="-1255.5584" font-family="Times,serif" font-size="20.00" fill="#000000">302</text>
<text text-anchor="middle" x="5101.5" y="-1233.5584" font-family="Times,serif" font-size="20.00" fill="#000000">303</text>
<text text-anchor="middle" x="5101.5" y="-1211.5584" font-family="Times,serif" font-size="20.00" fill="#000000">305</text>
<text text-anchor="middle" x="5101.5" y="-1189.5584" font-family="Times,serif" font-size="20.00" fill="#000000">307</text>
<text text-anchor="middle" x="5101.5" y="-1167.5584" font-family="Times,serif" font-size="20.00" fill="#000000">308</text>
<text text-anchor="middle" x="5101.5" y="-1145.5584" font-family="Times,serif" font-size="20.00" fill="#000000">407</text>
</g>
<!-- SG_2_Node_2 -->
<g id="node35" class="node">
<title>SG_2_Node_2</title>
<polygon fill="none" stroke="#000000" points="5280.5,-1099.3452 5089.5,-1099.3452 5089.5,-1063.3452 5280.5,-1063.3452 5280.5,-1099.3452"/>
<text text-anchor="middle" x="5185" y="-1076.3452" font-family="Times,serif" font-size="20.00" fill="#000000">X&#45;Frame&#45;Options</text>
</g>
<!-- SG_2_Node_0&#45;&gt;SG_2_Node_2 -->
<g id="edge32" class="edge">
<title>SG_2_Node_0&#45;&gt;SG_2_Node_2</title>
<path fill="none" stroke="#000000" d="M5107.691,-1396.503C5113.5141,-1386.0159 5120.4408,-1372.3797 5125,-1359.5584 5156.5294,-1270.892 5174.3541,-1160.1702 5181.4149,-1109.2841"/>
<polygon fill="#000000" stroke="#000000" points="5184.8846,-1109.7426 5182.7592,-1099.3632 5177.948,-1108.8026 5184.8846,-1109.7426"/>
<text text-anchor="middle" x="5222" y="-1255.5584" font-family="Times,serif" font-size="20.00" fill="#000000">[NA]</text>
<text text-anchor="middle" x="5222" y="-1233.5584" font-family="Times,serif" font-size="20.00" fill="#000000">52 levels</text>
</g>
<!-- SG_2_Node_7 -->
<g id="node36" class="node">
<title>SG_2_Node_7</title>
<ellipse fill="none" stroke="#000000" cx="4699" cy="-898.9188" rx="34.7971" ry="21.4286"/>
<text text-anchor="middle" x="4699" y="-893.9188" font-family="Times,serif" font-size="20.00" fill="#000000">0.0</text>
</g>
<!-- SG_2_Node_1&#45;&gt;SG_2_Node_7 -->
<g id="edge37" class="edge">
<title>SG_2_Node_1&#45;&gt;SG_2_Node_7</title>
<path fill="none" stroke="#000000" d="M4956.2993,-1079.1527C4877.0764,-1074.6345 4733.1234,-1061.2665 4701,-1023.132 4679.5615,-997.6818 4683.2381,-957.79 4689.5438,-930.1087"/>
<polygon fill="#000000" stroke="#000000" points="4693.0028,-930.7042 4692.0424,-920.153 4686.2134,-929.0003 4693.0028,-930.7042"/>
<text text-anchor="middle" x="4838" y="-1007.132" font-family="Times,serif" font-size="20.00" fill="#000000">[NA]</text>
<text text-anchor="middle" x="4838" y="-985.132" font-family="Times,serif" font-size="20.00" fill="#000000">/</text>
<text text-anchor="middle" x="4838" y="-963.132" font-family="Times,serif" font-size="20.00" fill="#000000">http://localhost:8000/echo/</text>
</g>
<!-- SG_2_Node_3 -->
<g id="node37" class="node">
<title>SG_2_Node_3</title>
<polygon fill="none" stroke="#000000" points="5037,-916.9188 4895,-916.9188 4895,-880.9188 5037,-880.9188 5037,-916.9188"/>
<text text-anchor="middle" x="4966" y="-893.9188" font-family="Times,serif" font-size="20.00" fill="#000000">Status&#45;Code</text>
</g>
<!-- SG_2_Node_1&#45;&gt;SG_2_Node_3 -->
<g id="edge38" class="edge">
<title>SG_2_Node_1&#45;&gt;SG_2_Node_3</title>
<path fill="none" stroke="#000000" d="M5004.7198,-1063.1866C4997.1859,-1031.2241 4981.5109,-964.7233 4972.5881,-926.8688"/>
<polygon fill="#000000" stroke="#000000" points="4975.9639,-925.9343 4970.2629,-917.0041 4969.1506,-927.5404 4975.9639,-925.9343"/>
<text text-anchor="middle" x="5027" y="-985.132" font-family="Times,serif" font-size="20.00" fill="#000000">empty</text>
</g>
<!-- SG_2_Node_4 -->
<g id="node38" class="node">
<title>SG_2_Node_4</title>
<polygon fill="none" stroke="#000000" points="5315,-916.9188 5055,-916.9188 5055,-880.9188 5315,-880.9188 5315,-916.9188"/>
<text text-anchor="middle" x="5185" y="-893.9188" font-family="Times,serif" font-size="20.00" fill="#000000">Content&#45;Security&#45;Policy</text>
</g>
<!-- SG_2_Node_2&#45;&gt;SG_2_Node_4 -->
<g id="edge33" class="edge">
<title>SG_2_Node_2&#45;&gt;SG_2_Node_4</title>
<path fill="none" stroke="#000000" d="M5185,-1063.1866C5185,-1031.3607 5185,-965.291 5185,-927.3557"/>
<polygon fill="#000000" stroke="#000000" points="5188.5001,-927.004 5185,-917.0041 5181.5001,-927.0041 5188.5001,-927.004"/>
<text text-anchor="middle" x="5217" y="-985.132" font-family="Times,serif" font-size="20.00" fill="#000000">empty</text>
</g>
<!-- SG_2_Node_8 -->
<g id="node39" class="node">
<title>SG_2_Node_8</title>
<ellipse fill="none" stroke="#000000" cx="5368" cy="-898.9188" rx="34.7971" ry="21.4286"/>
<text text-anchor="middle" x="5368" y="-893.9188" font-family="Times,serif" font-size="20.00" fill="#000000">1.0</text>
</g>
<!-- SG_2_Node_2&#45;&gt;SG_2_Node_8 -->
<g id="edge34" class="edge">
<title>SG_2_Node_2&#45;&gt;SG_2_Node_8</title>
<path fill="none" stroke="#000000" d="M5207.6213,-1063.0989C5221.1315,-1051.9299 5238.4394,-1037.1371 5253,-1023.132 5286.2551,-991.1457 5321.9761,-951.6716 5344.6294,-925.9261"/>
<polygon fill="#000000" stroke="#000000" points="5347.549,-927.9049 5351.5054,-918.0765 5342.2835,-923.2924 5347.549,-927.9049"/>
<text text-anchor="middle" x="5340" y="-996.132" font-family="Times,serif" font-size="20.00" fill="#000000">[NA]</text>
<text text-anchor="middle" x="5340" y="-974.132" font-family="Times,serif" font-size="20.00" fill="#000000">deny</text>
</g>
<!-- SG_2_Node_9 -->
<g id="node40" class="node">
<title>SG_2_Node_9</title>
<ellipse fill="none" stroke="#000000" cx="4832" cy="-650.4924" rx="34.7971" ry="21.4286"/>
<text text-anchor="middle" x="4832" y="-645.4924" font-family="Times,serif" font-size="20.00" fill="#000000">0.0</text>
</g>
<!-- SG_2_Node_3&#45;&gt;SG_2_Node_9 -->
<g id="edge39" class="edge">
<title>SG_2_Node_3&#45;&gt;SG_2_Node_9</title>
<path fill="none" stroke="#000000" d="M4952.5164,-880.7457C4944.4115,-869.4801 4934.1278,-854.5614 4926,-840.7056 4893.9209,-786.0192 4862.486,-718.8843 4845.3302,-680.7607"/>
<polygon fill="#000000" stroke="#000000" points="4848.3609,-678.9642 4841.0828,-671.2649 4841.971,-681.8224 4848.3609,-678.9642"/>
<text text-anchor="middle" x="4945.5" y="-802.7056" font-family="Times,serif" font-size="20.00" fill="#000000">100</text>
<text text-anchor="middle" x="4945.5" y="-780.7056" font-family="Times,serif" font-size="20.00" fill="#000000">102</text>
<text text-anchor="middle" x="4945.5" y="-758.7056" font-family="Times,serif" font-size="20.00" fill="#000000">103</text>
<text text-anchor="middle" x="4945.5" y="-736.7056" font-family="Times,serif" font-size="20.00" fill="#000000">407</text>
</g>
<!-- SG_2_Node_5 -->
<g id="node41" class="node">
<title>SG_2_Node_5</title>
<polygon fill="none" stroke="#000000" points="5075.5,-668.4924 4884.5,-668.4924 4884.5,-632.4924 5075.5,-632.4924 5075.5,-668.4924"/>
<text text-anchor="middle" x="4980" y="-645.4924" font-family="Times,serif" font-size="20.00" fill="#000000">X&#45;Frame&#45;Options</text>
</g>
<!-- SG_2_Node_3&#45;&gt;SG_2_Node_5 -->
<g id="edge40" class="edge">
<title>SG_2_Node_3&#45;&gt;SG_2_Node_5</title>
<path fill="none" stroke="#000000" d="M4967.0295,-880.6514C4969.4466,-837.7606 4975.499,-730.3618 4978.4002,-678.8802"/>
<polygon fill="#000000" stroke="#000000" points="4981.9007,-678.9677 4978.969,-668.7866 4974.9118,-678.5738 4981.9007,-678.9677"/>
<text text-anchor="middle" x="4995.5" y="-824.7056" font-family="Times,serif" font-size="20.00" fill="#000000">301</text>
<text text-anchor="middle" x="4995.5" y="-802.7056" font-family="Times,serif" font-size="20.00" fill="#000000">302</text>
<text text-anchor="middle" x="4995.5" y="-780.7056" font-family="Times,serif" font-size="20.00" fill="#000000">303</text>
<text text-anchor="middle" x="4995.5" y="-758.7056" font-family="Times,serif" font-size="20.00" fill="#000000">305</text>
<text text-anchor="middle" x="4995.5" y="-736.7056" font-family="Times,serif" font-size="20.00" fill="#000000">307</text>
<text text-anchor="middle" x="4995.5" y="-714.7056" font-family="Times,serif" font-size="20.00" fill="#000000">308</text>
</g>
<!-- SG_2_Node_10 -->
<g id="node42" class="node">
<title>SG_2_Node_10</title>
<ellipse fill="none" stroke="#000000" cx="5162" cy="-650.4924" rx="34.7971" ry="21.4286"/>
<text text-anchor="middle" x="5162" y="-645.4924" font-family="Times,serif" font-size="20.00" fill="#000000">0.0</text>
</g>
<!-- SG_2_Node_4&#45;&gt;SG_2_Node_10 -->
<g id="edge35" class="edge">
<title>SG_2_Node_4&#45;&gt;SG_2_Node_10</title>
<path fill="none" stroke="#000000" d="M5181.8297,-880.8759C5179.9086,-869.4041 5177.5395,-854.2195 5176,-840.7056 5169.6723,-785.1598 5165.6016,-720.1465 5163.5632,-682.3131"/>
<polygon fill="#000000" stroke="#000000" points="5167.0381,-681.7418 5163.0187,-671.939 5160.0477,-682.1087 5167.0381,-681.7418"/>
<text text-anchor="middle" x="5258.5" y="-791.7056" font-family="Times,serif" font-size="20.00" fill="#000000">[NA]</text>
<text text-anchor="middle" x="5258.5" y="-769.7056" font-family="Times,serif" font-size="20.00" fill="#000000">default&#45;src &#39;self&#39;</text>
<text text-anchor="middle" x="5258.5" y="-747.7056" font-family="Times,serif" font-size="20.00" fill="#000000">empty</text>
</g>
<!-- SG_2_Node_11 -->
<g id="node43" class="node">
<title>SG_2_Node_11</title>
<ellipse fill="none" stroke="#000000" cx="5363" cy="-650.4924" rx="34.7971" ry="21.4286"/>
<text text-anchor="middle" x="5363" y="-645.4924" font-family="Times,serif" font-size="20.00" fill="#000000">1.0</text>
</g>
<!-- SG_2_Node_4&#45;&gt;SG_2_Node_11 -->
<g id="edge36" class="edge">
<title>SG_2_Node_4&#45;&gt;SG_2_Node_11</title>
<path fill="none" stroke="#000000" d="M5254.0211,-880.8641C5290.2876,-869.9382 5329.5482,-855.3281 5341,-840.7056 5376.9203,-794.8402 5373.9715,-722.6334 5368.5367,-681.6422"/>
<polygon fill="#000000" stroke="#000000" points="5371.9912,-681.0755 5367.0849,-671.6851 5365.0644,-682.0855 5371.9912,-681.0755"/>
<text text-anchor="middle" x="5481.5" y="-769.7056" font-family="Times,serif" font-size="20.00" fill="#000000">frame&#45;ancestors &#39;self&#39;</text>
</g>
<!-- SG_2_Node_6 -->
<g id="node44" class="node">
<title>SG_2_Node_6</title>
<polygon fill="none" stroke="#000000" points="4959,-486.066 4699,-486.066 4699,-450.066 4959,-450.066 4959,-486.066"/>
<text text-anchor="middle" x="4829" y="-463.066" font-family="Times,serif" font-size="20.00" fill="#000000">Content&#45;Security&#45;Policy</text>
</g>
<!-- SG_2_Node_5&#45;&gt;SG_2_Node_6 -->
<g id="edge41" class="edge">
<title>SG_2_Node_5&#45;&gt;SG_2_Node_6</title>
<path fill="none" stroke="#000000" d="M4960.4973,-632.2621C4948.9001,-621.0989 4934.1331,-606.3064 4922,-592.2792 4894.2538,-560.2015 4865.4611,-520.5997 4847.403,-494.8605"/>
<polygon fill="#000000" stroke="#000000" points="4850.0732,-492.5706 4841.4826,-486.3694 4844.3311,-496.5742 4850.0732,-492.5706"/>
<text text-anchor="middle" x="4954" y="-565.2792" font-family="Times,serif" font-size="20.00" fill="#000000">[NA]</text>
<text text-anchor="middle" x="4954" y="-543.2792" font-family="Times,serif" font-size="20.00" fill="#000000">empty</text>
</g>
<!-- SG_2_Node_12 -->
<g id="node45" class="node">
<title>SG_2_Node_12</title>
<ellipse fill="none" stroke="#000000" cx="5012" cy="-468.066" rx="34.7971" ry="21.4286"/>
<text text-anchor="middle" x="5012" y="-463.066" font-family="Times,serif" font-size="20.00" fill="#000000">1.0</text>
</g>
<!-- SG_2_Node_5&#45;&gt;SG_2_Node_12 -->
<g id="edge42" class="edge">
<title>SG_2_Node_5&#45;&gt;SG_2_Node_12</title>
<path fill="none" stroke="#000000" d="M4983.1853,-632.3337C4988.633,-601.2775 4999.8005,-537.6134 5006.5206,-499.3032"/>
<polygon fill="#000000" stroke="#000000" points="5010.0091,-499.6727 5008.2896,-489.2183 5003.1144,-498.4632 5010.0091,-499.6727"/>
<text text-anchor="middle" x="5025.5" y="-554.2792" font-family="Times,serif" font-size="20.00" fill="#000000">deny</text>
</g>
<!-- SG_2_Node_13 -->
<g id="node46" class="node">
<title>SG_2_Node_13</title>
<ellipse fill="none" stroke="#000000" cx="4761" cy="-219.6396" rx="34.7971" ry="21.4286"/>
<text text-anchor="middle" x="4761" y="-214.6396" font-family="Times,serif" font-size="20.00" fill="#000000">0.0</text>
</g>
<!-- SG_2_Node_6&#45;&gt;SG_2_Node_13 -->
<g id="edge43" class="edge">
<title>SG_2_Node_6&#45;&gt;SG_2_Node_13</title>
<path fill="none" stroke="#000000" d="M4805.9,-449.843C4794.4995,-439.4446 4781.7691,-425.3988 4775,-409.8528 4752.344,-357.821 4753.7486,-290.2036 4757.1521,-251.1898"/>
<polygon fill="#000000" stroke="#000000" points="4760.6605,-251.2735 4758.1468,-240.9812 4753.6935,-250.5946 4760.6605,-251.2735"/>
<text text-anchor="middle" x="4857.5" y="-360.8528" font-family="Times,serif" font-size="20.00" fill="#000000">[NA]</text>
<text text-anchor="middle" x="4857.5" y="-338.8528" font-family="Times,serif" font-size="20.00" fill="#000000">default&#45;src &#39;self&#39;</text>
<text text-anchor="middle" x="4857.5" y="-316.8528" font-family="Times,serif" font-size="20.00" fill="#000000">empty</text>
</g>
<!-- SG_2_Node_14 -->
<g id="node47" class="node">
<title>SG_2_Node_14</title>
<ellipse fill="none" stroke="#000000" cx="4962" cy="-219.6396" rx="34.7971" ry="21.4286"/>
<text text-anchor="middle" x="4962" y="-214.6396" font-family="Times,serif" font-size="20.00" fill="#000000">1.0</text>
</g>
<!-- SG_2_Node_6&#45;&gt;SG_2_Node_14 -->
<g id="edge44" class="edge">
<title>SG_2_Node_6&#45;&gt;SG_2_Node_14</title>
<path fill="none" stroke="#000000" d="M4887.8329,-449.9481C4907.4656,-440.9846 4927.5022,-428.0633 4940,-409.8528 4972.7223,-362.173 4971.1324,-291.4628 4966.7523,-251.0366"/>
<polygon fill="#000000" stroke="#000000" points="4970.2094,-250.4698 4965.5338,-240.9625 4963.26,-251.3104 4970.2094,-250.4698"/>
<text text-anchor="middle" x="5079.5" y="-338.8528" font-family="Times,serif" font-size="20.00" fill="#000000">frame&#45;ancestors &#39;self&#39;</text>
</g>
</g>
</svg>
