<?xml version="1.0" encoding="UTF-8" standalone="no"?>
<!DOCTYPE svg PUBLIC "-//W3C//DTD SVG 1.1//EN"
 "http://www.w3.org/Graphics/SVG/1.1/DTD/svg11.dtd">
<!-- Generated by graphviz version 2.40.1 (20161225.0304)
 -->
<!-- Title: G Pages: 1 -->
<svg width="3783pt" height="1355pt"
 viewBox="0.00 0.00 3783.00 1354.56" xmlns="http://www.w3.org/2000/svg" xmlns:xlink="http://www.w3.org/1999/xlink">
<g id="graph0" class="graph" transform="scale(1 1) rotate(0) translate(4 1350.5584)">
<title>G</title>
<polygon fill="#ffffff" stroke="transparent" points="-4,4 -4,-1350.5584 3779,-1350.5584 3779,4 -4,4"/>
<g id="clust1" class="cluster">
<title>cluster_0</title>
<polygon fill="none" stroke="#000000" points="8,-8 8,-1338.5584 721,-1338.5584 721,-8 8,-8"/>
<text text-anchor="middle" x="364.5" y="-1302.5584" font-family="Times,serif" font-size="40.00" fill="#000000">Tree 0, Class http://localhost:8001</text>
</g>
<g id="clust9" class="cluster">
<title>cluster_1</title>
<polygon fill="none" stroke="#000000" points="729,-8 729,-1338.5584 3767,-1338.5584 3767,-8 729,-8"/>
<text text-anchor="middle" x="2248" y="-1302.5584" font-family="Times,serif" font-size="40.00" fill="#000000">Tree 0, Class {&#39;code&#39;: 18, &#39;name&#39;: &#39;SecurityError&#39;, &#39;message&#39;: &#39;Blocked a frame with origin http://localhost:8001 from accessing a cross&#45;origin frame.&#39;}</text>
</g>
<!-- SG_0_Node_0 -->
<g id="node1" class="node">
<title>SG_0_Node_0</title>
<polygon fill="none" stroke="#000000" points="204,-1278.5584 62,-1278.5584 62,-1242.5584 204,-1242.5584 204,-1278.5584"/>
<text text-anchor="middle" x="133" y="-1255.5584" font-family="Times,serif" font-size="20.00" fill="#000000">Status&#45;Code</text>
</g>
<!-- SG_0_Node_7 -->
<g id="node2" class="node">
<title>SG_0_Node_7</title>
<ellipse fill="none" stroke="#000000" cx="78" cy="-1103.3452" rx="34.7971" ry="21.4286"/>
<text text-anchor="middle" x="78" y="-1098.3452" font-family="Times,serif" font-size="20.00" fill="#000000">0.0</text>
</g>
<!-- SG_0_Node_0&#45;&gt;SG_0_Node_7 -->
<g id="edge1" class="edge">
<title>SG_0_Node_0&#45;&gt;SG_0_Node_7</title>
<path fill="none" stroke="#000000" d="M126.6908,-1242.5241C117.4231,-1216.033 100.0081,-1166.2536 88.7129,-1133.9672"/>
<polygon fill="#000000" stroke="#000000" points="91.8847,-1132.4342 85.2787,-1124.1509 85.2773,-1134.7458 91.8847,-1132.4342"/>
<text text-anchor="middle" x="159" y="-1189.5584" font-family="Times,serif" font-size="20.00" fill="#000000">[NA]</text>
<text text-anchor="middle" x="159" y="-1167.5584" font-family="Times,serif" font-size="20.00" fill="#000000">51 levels</text>
</g>
<!-- SG_0_Node_2 -->
<g id="node3" class="node">
<title>SG_0_Node_2</title>
<polygon fill="none" stroke="#000000" points="351.5,-1121.3452 130.5,-1121.3452 130.5,-1085.3452 351.5,-1085.3452 351.5,-1121.3452"/>
<text text-anchor="middle" x="241" y="-1098.3452" font-family="Times,serif" font-size="20.00" fill="#000000">Content&#45;Disposition</text>
</g>
<!-- SG_0_Node_0&#45;&gt;SG_0_Node_2 -->
<g id="edge2" class="edge">
<title>SG_0_Node_0&#45;&gt;SG_0_Node_2</title>
<path fill="none" stroke="#000000" d="M167.1976,-1242.4744C181.8958,-1233.1829 198.1532,-1220.628 209,-1205.5584 224.8698,-1183.5103 233.0481,-1153.3388 237.1452,-1131.496"/>
<polygon fill="#000000" stroke="#000000" points="240.6165,-1131.96 238.8445,-1121.5144 233.7158,-1130.7851 240.6165,-1131.96"/>
<text text-anchor="middle" x="275" y="-1178.5584" font-family="Times,serif" font-size="20.00" fill="#000000">11 levels</text>
</g>
<!-- SG_0_Node_3 -->
<g id="node4" class="node">
<title>SG_0_Node_3</title>
<polygon fill="none" stroke="#000000" points="250,-960.9188 108,-960.9188 108,-924.9188 250,-924.9188 250,-960.9188"/>
<text text-anchor="middle" x="179" y="-937.9188" font-family="Times,serif" font-size="20.00" fill="#000000">Status&#45;Code</text>
</g>
<!-- SG_0_Node_2&#45;&gt;SG_0_Node_3 -->
<g id="edge3" class="edge">
<title>SG_0_Node_2&#45;&gt;SG_0_Node_3</title>
<path fill="none" stroke="#000000" d="M230.5738,-1085.1164C224.3805,-1073.8304 216.6574,-1058.9099 211,-1045.132 200.9095,-1020.5581 192.1154,-991.5793 186.3133,-970.7651"/>
<polygon fill="#000000" stroke="#000000" points="189.6501,-969.6982 183.6369,-960.9751 182.8979,-971.5442 189.6501,-969.6982"/>
<text text-anchor="middle" x="243" y="-1018.132" font-family="Times,serif" font-size="20.00" fill="#000000">empty</text>
</g>
<!-- SG_0_Node_8 -->
<g id="node5" class="node">
<title>SG_0_Node_8</title>
<ellipse fill="none" stroke="#000000" cx="303" cy="-942.9188" rx="34.7971" ry="21.4286"/>
<text text-anchor="middle" x="303" y="-937.9188" font-family="Times,serif" font-size="20.00" fill="#000000">1.0</text>
</g>
<!-- SG_0_Node_2&#45;&gt;SG_0_Node_8 -->
<g id="edge4" class="edge">
<title>SG_0_Node_2&#45;&gt;SG_0_Node_8</title>
<path fill="none" stroke="#000000" d="M253.316,-1085.1141C260.4274,-1073.9505 269.103,-1059.158 275,-1045.132 284.6996,-1022.0617 291.9965,-994.6516 296.7057,-974.0262"/>
<polygon fill="#000000" stroke="#000000" points="300.1354,-974.726 298.87,-964.207 293.2995,-973.2191 300.1354,-974.726"/>
<text text-anchor="middle" x="348" y="-1029.132" font-family="Times,serif" font-size="20.00" fill="#000000">[NA]</text>
<text text-anchor="middle" x="348" y="-1007.132" font-family="Times,serif" font-size="20.00" fill="#000000">attachment</text>
</g>
<!-- SG_0_Node_4 -->
<g id="node6" class="node">
<title>SG_0_Node_4</title>
<polygon fill="none" stroke="#000000" points="193.5,-668.4924 38.5,-668.4924 38.5,-632.4924 193.5,-632.4924 193.5,-668.4924"/>
<text text-anchor="middle" x="116" y="-645.4924" font-family="Times,serif" font-size="20.00" fill="#000000">Content&#45;Type</text>
</g>
<!-- SG_0_Node_3&#45;&gt;SG_0_Node_4 -->
<g id="edge5" class="edge">
<title>SG_0_Node_3&#45;&gt;SG_0_Node_4</title>
<path fill="none" stroke="#000000" d="M175.0591,-924.6262C164.386,-875.085 134.8645,-738.0555 122.0578,-678.6107"/>
<polygon fill="#000000" stroke="#000000" points="125.4671,-677.8167 119.9394,-668.7781 118.6241,-679.291 125.4671,-677.8167"/>
<text text-anchor="middle" x="185.5" y="-868.7056" font-family="Times,serif" font-size="20.00" fill="#000000">200</text>
<text text-anchor="middle" x="185.5" y="-846.7056" font-family="Times,serif" font-size="20.00" fill="#000000">201</text>
<text text-anchor="middle" x="185.5" y="-824.7056" font-family="Times,serif" font-size="20.00" fill="#000000">202</text>
<text text-anchor="middle" x="185.5" y="-802.7056" font-family="Times,serif" font-size="20.00" fill="#000000">203</text>
<text text-anchor="middle" x="185.5" y="-780.7056" font-family="Times,serif" font-size="20.00" fill="#000000">206</text>
<text text-anchor="middle" x="185.5" y="-758.7056" font-family="Times,serif" font-size="20.00" fill="#000000">207</text>
<text text-anchor="middle" x="185.5" y="-736.7056" font-family="Times,serif" font-size="20.00" fill="#000000">208</text>
<text text-anchor="middle" x="185.5" y="-714.7056" font-family="Times,serif" font-size="20.00" fill="#000000">226</text>
</g>
<!-- SG_0_Node_9 -->
<g id="node7" class="node">
<title>SG_0_Node_9</title>
<ellipse fill="none" stroke="#000000" cx="246" cy="-650.4924" rx="34.7971" ry="21.4286"/>
<text text-anchor="middle" x="246" y="-645.4924" font-family="Times,serif" font-size="20.00" fill="#000000">1.0</text>
</g>
<!-- SG_0_Node_3&#45;&gt;SG_0_Node_9 -->
<g id="edge6" class="edge">
<title>SG_0_Node_3&#45;&gt;SG_0_Node_9</title>
<path fill="none" stroke="#000000" d="M189.3357,-924.8531C195.337,-913.6268 202.565,-898.7116 207,-884.7056 229.292,-814.3064 239.4828,-727.7464 243.5927,-682.115"/>
<polygon fill="#000000" stroke="#000000" points="247.0963,-682.2223 244.467,-671.959 240.1221,-681.6219 247.0963,-682.2223"/>
<text text-anchor="middle" x="259.5" y="-813.7056" font-family="Times,serif" font-size="20.00" fill="#000000">204</text>
<text text-anchor="middle" x="259.5" y="-791.7056" font-family="Times,serif" font-size="20.00" fill="#000000">205</text>
<text text-anchor="middle" x="259.5" y="-769.7056" font-family="Times,serif" font-size="20.00" fill="#000000">304</text>
</g>
<!-- SG_0_Node_10 -->
<g id="node8" class="node">
<title>SG_0_Node_10</title>
<ellipse fill="none" stroke="#000000" cx="51" cy="-358.066" rx="34.7971" ry="21.4286"/>
<text text-anchor="middle" x="51" y="-353.066" font-family="Times,serif" font-size="20.00" fill="#000000">0.0</text>
</g>
<!-- SG_0_Node_4&#45;&gt;SG_0_Node_10 -->
<g id="edge7" class="edge">
<title>SG_0_Node_4&#45;&gt;SG_0_Node_10</title>
<path fill="none" stroke="#000000" d="M89.3941,-632.432C76.803,-622.2643 63.0152,-608.3788 56,-592.2792 26.6086,-524.8269 36.2605,-435.7451 44.4516,-389.2886"/>
<polygon fill="#000000" stroke="#000000" points="47.9332,-389.71 46.3201,-379.2387 41.0511,-388.4304 47.9332,-389.71"/>
<text text-anchor="middle" x="167" y="-576.2792" font-family="Times,serif" font-size="20.00" fill="#000000">[NA]</text>
<text text-anchor="middle" x="167" y="-554.2792" font-family="Times,serif" font-size="20.00" fill="#000000">application/javascript</text>
<text text-anchor="middle" x="167" y="-532.2792" font-family="Times,serif" font-size="20.00" fill="#000000">application/pdf</text>
<text text-anchor="middle" x="167" y="-510.2792" font-family="Times,serif" font-size="20.00" fill="#000000">audio/wav</text>
<text text-anchor="middle" x="167" y="-488.2792" font-family="Times,serif" font-size="20.00" fill="#000000">image/png</text>
<text text-anchor="middle" x="167" y="-466.2792" font-family="Times,serif" font-size="20.00" fill="#000000">text/css</text>
<text text-anchor="middle" x="167" y="-444.2792" font-family="Times,serif" font-size="20.00" fill="#000000">text/html</text>
<text text-anchor="middle" x="167" y="-422.2792" font-family="Times,serif" font-size="20.00" fill="#000000">video/mp4</text>
</g>
<!-- SG_0_Node_5 -->
<g id="node9" class="node">
<title>SG_0_Node_5</title>
<polygon fill="none" stroke="#000000" points="254.5,-376.066 189.5,-376.066 189.5,-340.066 254.5,-340.066 254.5,-376.066"/>
<text text-anchor="middle" x="222" y="-353.066" font-family="Times,serif" font-size="20.00" fill="#000000">body</text>
</g>
<!-- SG_0_Node_4&#45;&gt;SG_0_Node_5 -->
<g id="edge8" class="edge">
<title>SG_0_Node_4&#45;&gt;SG_0_Node_5</title>
<path fill="none" stroke="#000000" d="M190.9627,-632.4918C228.068,-621.9089 267.2121,-607.619 278,-592.2792 322.9975,-528.2953 307.2328,-488.8337 278,-416.2792 272.9549,-403.7574 263.7854,-392.4214 254.3068,-383.1499"/>
<polygon fill="#000000" stroke="#000000" points="256.4443,-380.3608 246.7118,-376.1738 251.709,-385.5162 256.4443,-380.3608"/>
<text text-anchor="middle" x="338" y="-499.2792" font-family="Times,serif" font-size="20.00" fill="#000000">empty</text>
</g>
<!-- SG_0_Node_11 -->
<g id="node10" class="node">
<title>SG_0_Node_11</title>
<ellipse fill="none" stroke="#000000" cx="62" cy="-197.6396" rx="34.7971" ry="21.4286"/>
<text text-anchor="middle" x="62" y="-192.6396" font-family="Times,serif" font-size="20.00" fill="#000000">0.0</text>
</g>
<!-- SG_0_Node_5&#45;&gt;SG_0_Node_11 -->
<g id="edge9" class="edge">
<title>SG_0_Node_5&#45;&gt;SG_0_Node_11</title>
<path fill="none" stroke="#000000" d="M189.3691,-341.1794C171.2118,-330.7979 148.9297,-316.3422 132,-299.8528 109.8904,-278.3182 90.5728,-248.8093 77.8643,-227.0323"/>
<polygon fill="#000000" stroke="#000000" points="80.8305,-225.1684 72.8335,-218.2186 74.7511,-228.6385 80.8305,-225.1684"/>
<text text-anchor="middle" x="178" y="-283.8528" font-family="Times,serif" font-size="20.00" fill="#000000">[NA]</text>
<text text-anchor="middle" x="178" y="-261.8528" font-family="Times,serif" font-size="20.00" fill="#000000">11 levels</text>
</g>
<!-- SG_0_Node_6 -->
<g id="node11" class="node">
<title>SG_0_Node_6</title>
<polygon fill="none" stroke="#000000" points="377,-215.6396 115,-215.6396 115,-179.6396 377,-179.6396 377,-215.6396"/>
<text text-anchor="middle" x="246" y="-192.6396" font-family="Times,serif" font-size="20.00" fill="#000000">X&#45;Content&#45;Type&#45;Options</text>
</g>
<!-- SG_0_Node_5&#45;&gt;SG_0_Node_6 -->
<g id="edge10" class="edge">
<title>SG_0_Node_5&#45;&gt;SG_0_Node_6</title>
<path fill="none" stroke="#000000" d="M223.6537,-339.9061C225.6302,-319.4183 229.2724,-285.1332 234,-255.8528 235.6065,-245.903 237.7339,-235.0716 239.7509,-225.4798"/>
<polygon fill="#000000" stroke="#000000" points="243.1822,-226.1712 241.8664,-215.6584 236.3391,-224.6972 243.1822,-226.1712"/>
<text text-anchor="middle" x="479.5" y="-283.8528" font-family="Times,serif" font-size="20.00" fill="#000000">ecocnt_audio=duration=1</text>
<text text-anchor="middle" x="479.5" y="-261.8528" font-family="Times,serif" font-size="20.00" fill="#000000">ecocnt_vid=width=100,height=100,duration=2</text>
</g>
<!-- SG_0_Node_12 -->
<g id="node12" class="node">
<title>SG_0_Node_12</title>
<ellipse fill="none" stroke="#000000" cx="193" cy="-37.2132" rx="34.7971" ry="21.4286"/>
<text text-anchor="middle" x="193" y="-32.2132" font-family="Times,serif" font-size="20.00" fill="#000000">0.0</text>
</g>
<!-- SG_0_Node_6&#45;&gt;SG_0_Node_12 -->
<g id="edge11" class="edge">
<title>SG_0_Node_6&#45;&gt;SG_0_Node_12</title>
<path fill="none" stroke="#000000" d="M230.6489,-179.4495C222.2819,-168.535 212.5319,-153.9817 207,-139.4264 198.3844,-116.7572 194.9661,-89.4748 193.6575,-68.8005"/>
<polygon fill="#000000" stroke="#000000" points="197.145,-68.4633 193.1491,-58.6509 190.1538,-68.8135 197.145,-68.4633"/>
<text text-anchor="middle" x="242" y="-112.4264" font-family="Times,serif" font-size="20.00" fill="#000000">nosniff</text>
</g>
<!-- SG_0_Node_13 -->
<g id="node13" class="node">
<title>SG_0_Node_13</title>
<ellipse fill="none" stroke="#000000" cx="299" cy="-37.2132" rx="34.7971" ry="21.4286"/>
<text text-anchor="middle" x="299" y="-32.2132" font-family="Times,serif" font-size="20.00" fill="#000000">1.0</text>
</g>
<!-- SG_0_Node_6&#45;&gt;SG_0_Node_13 -->
<g id="edge12" class="edge">
<title>SG_0_Node_6&#45;&gt;SG_0_Node_13</title>
<path fill="none" stroke="#000000" d="M257.2697,-179.6318C263.8505,-168.4266 271.8473,-153.5133 277,-139.4264 285.4428,-116.3449 291.109,-89.0864 294.5739,-68.526"/>
<polygon fill="#000000" stroke="#000000" points="298.0633,-68.87 296.1882,-58.4424 291.1513,-67.7633 298.0633,-68.87"/>
<text text-anchor="middle" x="321" y="-123.4264" font-family="Times,serif" font-size="20.00" fill="#000000">[NA]</text>
<text text-anchor="middle" x="321" y="-101.4264" font-family="Times,serif" font-size="20.00" fill="#000000">empty</text>
</g>
<!-- SG_1_Node_0 -->
<g id="node14" class="node">
<title>SG_1_Node_0</title>
<polygon fill="none" stroke="#000000" points="1039,-1278.5584 897,-1278.5584 897,-1242.5584 1039,-1242.5584 1039,-1278.5584"/>
<text text-anchor="middle" x="968" y="-1255.5584" font-family="Times,serif" font-size="20.00" fill="#000000">Status&#45;Code</text>
</g>
<!-- SG_1_Node_1 -->
<g id="node15" class="node">
<title>SG_1_Node_1</title>
<polygon fill="none" stroke="#000000" points="996.5,-1121.3452 775.5,-1121.3452 775.5,-1085.3452 996.5,-1085.3452 996.5,-1121.3452"/>
<text text-anchor="middle" x="886" y="-1098.3452" font-family="Times,serif" font-size="20.00" fill="#000000">Content&#45;Disposition</text>
</g>
<!-- SG_1_Node_0&#45;&gt;SG_1_Node_1 -->
<g id="edge13" class="edge">
<title>SG_1_Node_0&#45;&gt;SG_1_Node_1</title>
<path fill="none" stroke="#000000" d="M936.2914,-1242.4821C922.916,-1233.1921 908.5016,-1220.6363 900,-1205.5584 887.2818,-1183.0022 884.4635,-1153.3236 884.4197,-1131.7612"/>
<polygon fill="#000000" stroke="#000000" points="887.9219,-1131.6616 884.6006,-1121.6008 880.923,-1131.5368 887.9219,-1131.6616"/>
<text text-anchor="middle" x="946" y="-1178.5584" font-family="Times,serif" font-size="20.00" fill="#000000">11 levels</text>
</g>
<!-- SG_1_Node_7 -->
<g id="node16" class="node">
<title>SG_1_Node_7</title>
<ellipse fill="none" stroke="#000000" cx="1049" cy="-1103.3452" rx="34.7971" ry="21.4286"/>
<text text-anchor="middle" x="1049" y="-1098.3452" font-family="Times,serif" font-size="20.00" fill="#000000">1.0</text>
</g>
<!-- SG_1_Node_0&#45;&gt;SG_1_Node_7 -->
<g id="edge14" class="edge">
<title>SG_1_Node_0&#45;&gt;SG_1_Node_7</title>
<path fill="none" stroke="#000000" d="M977.2917,-1242.5241C991.1344,-1215.6569 1017.3189,-1164.8351 1033.926,-1132.6025"/>
<polygon fill="#000000" stroke="#000000" points="1037.0741,-1134.134 1038.5429,-1123.6415 1030.8514,-1130.9279 1037.0741,-1134.134"/>
<text text-anchor="middle" x="1064" y="-1189.5584" font-family="Times,serif" font-size="20.00" fill="#000000">[NA]</text>
<text text-anchor="middle" x="1064" y="-1167.5584" font-family="Times,serif" font-size="20.00" fill="#000000">51 levels</text>
</g>
<!-- SG_1_Node_8 -->
<g id="node17" class="node">
<title>SG_1_Node_8</title>
<ellipse fill="none" stroke="#000000" cx="829" cy="-942.9188" rx="34.7971" ry="21.4286"/>
<text text-anchor="middle" x="829" y="-937.9188" font-family="Times,serif" font-size="20.00" fill="#000000">0.0</text>
</g>
<!-- SG_1_Node_1&#45;&gt;SG_1_Node_8 -->
<g id="edge15" class="edge">
<title>SG_1_Node_1&#45;&gt;SG_1_Node_8</title>
<path fill="none" stroke="#000000" d="M868.8263,-1085.158C859.6397,-1074.3564 849.0101,-1059.9141 843,-1045.132 833.8661,-1022.6666 830.4777,-995.3725 829.3123,-974.6418"/>
<polygon fill="#000000" stroke="#000000" points="832.8014,-974.3048 828.8869,-964.4596 825.8075,-974.5971 832.8014,-974.3048"/>
<text text-anchor="middle" x="902" y="-1029.132" font-family="Times,serif" font-size="20.00" fill="#000000">[NA]</text>
<text text-anchor="middle" x="902" y="-1007.132" font-family="Times,serif" font-size="20.00" fill="#000000">attachment</text>
</g>
<!-- SG_1_Node_3 -->
<g id="node18" class="node">
<title>SG_1_Node_3</title>
<polygon fill="none" stroke="#000000" points="1054,-960.9188 912,-960.9188 912,-924.9188 1054,-924.9188 1054,-960.9188"/>
<text text-anchor="middle" x="983" y="-937.9188" font-family="Times,serif" font-size="20.00" fill="#000000">Status&#45;Code</text>
</g>
<!-- SG_1_Node_1&#45;&gt;SG_1_Node_3 -->
<g id="edge16" class="edge">
<title>SG_1_Node_1&#45;&gt;SG_1_Node_3</title>
<path fill="none" stroke="#000000" d="M918.8593,-1085.1879C933.9022,-1075.2511 950.6459,-1061.5967 961,-1045.132 975.053,-1022.7855 980.2393,-992.8422 982.0977,-971.1449"/>
<polygon fill="#000000" stroke="#000000" points="985.6057,-971.1417 982.7814,-960.9302 978.6213,-970.6741 985.6057,-971.1417"/>
<text text-anchor="middle" x="1009" y="-1018.132" font-family="Times,serif" font-size="20.00" fill="#000000">empty</text>
</g>
<!-- SG_1_Node_9 -->
<g id="node19" class="node">
<title>SG_1_Node_9</title>
<ellipse fill="none" stroke="#000000" cx="918" cy="-650.4924" rx="34.7971" ry="21.4286"/>
<text text-anchor="middle" x="918" y="-645.4924" font-family="Times,serif" font-size="20.00" fill="#000000">0.0</text>
</g>
<!-- SG_1_Node_3&#45;&gt;SG_1_Node_9 -->
<g id="edge17" class="edge">
<title>SG_1_Node_3&#45;&gt;SG_1_Node_9</title>
<path fill="none" stroke="#000000" d="M978.934,-924.6262C968.1094,-875.928 938.4943,-742.6938 924.9394,-681.712"/>
<polygon fill="#000000" stroke="#000000" points="928.3414,-680.8864 922.7549,-671.8842 921.5082,-682.4054 928.3414,-680.8864"/>
<text text-anchor="middle" x="988.5" y="-813.7056" font-family="Times,serif" font-size="20.00" fill="#000000">204</text>
<text text-anchor="middle" x="988.5" y="-791.7056" font-family="Times,serif" font-size="20.00" fill="#000000">205</text>
<text text-anchor="middle" x="988.5" y="-769.7056" font-family="Times,serif" font-size="20.00" fill="#000000">304</text>
</g>
<!-- SG_1_Node_4 -->
<g id="node20" class="node">
<title>SG_1_Node_4</title>
<polygon fill="none" stroke="#000000" points="1125.5,-668.4924 970.5,-668.4924 970.5,-632.4924 1125.5,-632.4924 1125.5,-668.4924"/>
<text text-anchor="middle" x="1048" y="-645.4924" font-family="Times,serif" font-size="20.00" fill="#000000">Content&#45;Type</text>
</g>
<!-- SG_1_Node_3&#45;&gt;SG_1_Node_4 -->
<g id="edge18" class="edge">
<title>SG_1_Node_3&#45;&gt;SG_1_Node_4</title>
<path fill="none" stroke="#000000" d="M993.9329,-924.662C1000.1504,-913.4893 1007.5593,-898.6962 1012,-884.7056 1034.8809,-812.6181 1043.4645,-723.2804 1046.4855,-678.6448"/>
<polygon fill="#000000" stroke="#000000" points="1049.9856,-678.7514 1047.1242,-668.5503 1042.9996,-678.3093 1049.9856,-678.7514"/>
<text text-anchor="middle" x="1063.5" y="-868.7056" font-family="Times,serif" font-size="20.00" fill="#000000">200</text>
<text text-anchor="middle" x="1063.5" y="-846.7056" font-family="Times,serif" font-size="20.00" fill="#000000">201</text>
<text text-anchor="middle" x="1063.5" y="-824.7056" font-family="Times,serif" font-size="20.00" fill="#000000">202</text>
<text text-anchor="middle" x="1063.5" y="-802.7056" font-family="Times,serif" font-size="20.00" fill="#000000">203</text>
<text text-anchor="middle" x="1063.5" y="-780.7056" font-family="Times,serif" font-size="20.00" fill="#000000">206</text>
<text text-anchor="middle" x="1063.5" y="-758.7056" font-family="Times,serif" font-size="20.00" fill="#000000">207</text>
<text text-anchor="middle" x="1063.5" y="-736.7056" font-family="Times,serif" font-size="20.00" fill="#000000">208</text>
<text text-anchor="middle" x="1063.5" y="-714.7056" font-family="Times,serif" font-size="20.00" fill="#000000">226</text>
</g>
<!-- SG_1_Node_5 -->
<g id="node21" class="node">
<title>SG_1_Node_5</title>
<polygon fill="none" stroke="#000000" points="1030.5,-376.066 965.5,-376.066 965.5,-340.066 1030.5,-340.066 1030.5,-376.066"/>
<text text-anchor="middle" x="998" y="-353.066" font-family="Times,serif" font-size="20.00" fill="#000000">body</text>
</g>
<!-- SG_1_Node_4&#45;&gt;SG_1_Node_5 -->
<g id="edge19" class="edge">
<title>SG_1_Node_4&#45;&gt;SG_1_Node_5</title>
<path fill="none" stroke="#000000" d="M1033.4449,-632.2608C1025.5933,-621.3325 1016.5933,-606.7792 1012,-592.2792 989.385,-520.8884 992.0311,-431.2467 995.3196,-386.3844"/>
<polygon fill="#000000" stroke="#000000" points="998.8228,-386.4836 996.1323,-376.236 991.8451,-385.9247 998.8228,-386.4836"/>
<text text-anchor="middle" x="1044" y="-499.2792" font-family="Times,serif" font-size="20.00" fill="#000000">empty</text>
</g>
<!-- SG_1_Node_10 -->
<g id="node22" class="node">
<title>SG_1_Node_10</title>
<ellipse fill="none" stroke="#000000" cx="1098" cy="-358.066" rx="34.7971" ry="21.4286"/>
<text text-anchor="middle" x="1098" y="-353.066" font-family="Times,serif" font-size="20.00" fill="#000000">1.0</text>
</g>
<!-- SG_1_Node_4&#45;&gt;SG_1_Node_10 -->
<g id="edge20" class="edge">
<title>SG_1_Node_4&#45;&gt;SG_1_Node_10</title>
<path fill="none" stroke="#000000" d="M1058.8357,-632.2767C1064.9379,-621.1185 1072.0974,-606.3264 1076,-592.2792 1095.5845,-521.7872 1098.5327,-435.2643 1098.5376,-389.6635"/>
<polygon fill="#000000" stroke="#000000" points="1102.037,-389.4977 1098.4891,-379.5146 1095.037,-389.5313 1102.037,-389.4977"/>
<text text-anchor="middle" x="1209" y="-576.2792" font-family="Times,serif" font-size="20.00" fill="#000000">[NA]</text>
<text text-anchor="middle" x="1209" y="-554.2792" font-family="Times,serif" font-size="20.00" fill="#000000">application/javascript</text>
<text text-anchor="middle" x="1209" y="-532.2792" font-family="Times,serif" font-size="20.00" fill="#000000">application/pdf</text>
<text text-anchor="middle" x="1209" y="-510.2792" font-family="Times,serif" font-size="20.00" fill="#000000">audio/wav</text>
<text text-anchor="middle" x="1209" y="-488.2792" font-family="Times,serif" font-size="20.00" fill="#000000">image/png</text>
<text text-anchor="middle" x="1209" y="-466.2792" font-family="Times,serif" font-size="20.00" fill="#000000">text/css</text>
<text text-anchor="middle" x="1209" y="-444.2792" font-family="Times,serif" font-size="20.00" fill="#000000">text/html</text>
<text text-anchor="middle" x="1209" y="-422.2792" font-family="Times,serif" font-size="20.00" fill="#000000">video/mp4</text>
</g>
<!-- SG_1_Node_6 -->
<g id="node23" class="node">
<title>SG_1_Node_6</title>
<polygon fill="none" stroke="#000000" points="1011,-215.6396 749,-215.6396 749,-179.6396 1011,-179.6396 1011,-215.6396"/>
<text text-anchor="middle" x="880" y="-192.6396" font-family="Times,serif" font-size="20.00" fill="#000000">X&#45;Content&#45;Type&#45;Options</text>
</g>
<!-- SG_1_Node_5&#45;&gt;SG_1_Node_6 -->
<g id="edge21" class="edge">
<title>SG_1_Node_5&#45;&gt;SG_1_Node_6</title>
<path fill="none" stroke="#000000" d="M965.3361,-348.5257C941.591,-339.8143 910.7825,-324.4728 894,-299.8528 879.2615,-278.2314 876.7855,-247.9996 877.376,-226.0264"/>
<polygon fill="#000000" stroke="#000000" points="880.8747,-226.1373 877.8719,-215.9769 873.8832,-225.7922 880.8747,-226.1373"/>
<text text-anchor="middle" x="1139.5" y="-283.8528" font-family="Times,serif" font-size="20.00" fill="#000000">ecocnt_audio=duration=1</text>
<text text-anchor="middle" x="1139.5" y="-261.8528" font-family="Times,serif" font-size="20.00" fill="#000000">ecocnt_vid=width=100,height=100,duration=2</text>
</g>
<!-- SG_1_Node_11 -->
<g id="node24" class="node">
<title>SG_1_Node_11</title>
<ellipse fill="none" stroke="#000000" cx="1407" cy="-197.6396" rx="34.7971" ry="21.4286"/>
<text text-anchor="middle" x="1407" y="-192.6396" font-family="Times,serif" font-size="20.00" fill="#000000">1.0</text>
</g>
<!-- SG_1_Node_5&#45;&gt;SG_1_Node_11 -->
<g id="edge22" class="edge">
<title>SG_1_Node_5&#45;&gt;SG_1_Node_11</title>
<path fill="none" stroke="#000000" d="M1030.7318,-344.0997C1038.2632,-341.3281 1046.3191,-338.7057 1054,-336.8528 1125.9497,-319.496 1330.0972,-349.4886 1385,-299.8528 1404.383,-282.3293 1408.9237,-252.1934 1409.1852,-229.1705"/>
<polygon fill="#000000" stroke="#000000" points="1412.6849,-229.1127 1409.0422,-219.1638 1405.6856,-229.2128 1412.6849,-229.1127"/>
<text text-anchor="middle" x="1452" y="-283.8528" font-family="Times,serif" font-size="20.00" fill="#000000">[NA]</text>
<text text-anchor="middle" x="1452" y="-261.8528" font-family="Times,serif" font-size="20.00" fill="#000000">11 levels</text>
</g>
<!-- SG_1_Node_12 -->
<g id="node25" class="node">
<title>SG_1_Node_12</title>
<ellipse fill="none" stroke="#000000" cx="791" cy="-37.2132" rx="34.7971" ry="21.4286"/>
<text text-anchor="middle" x="791" y="-32.2132" font-family="Times,serif" font-size="20.00" fill="#000000">0.0</text>
</g>
<!-- SG_1_Node_6&#45;&gt;SG_1_Node_12 -->
<g id="edge23" class="edge">
<title>SG_1_Node_6&#45;&gt;SG_1_Node_12</title>
<path fill="none" stroke="#000000" d="M853.4476,-179.4352C840.3369,-169.1374 825.3629,-155.1781 816,-139.4264 803.1438,-117.7977 796.8847,-89.8558 793.8455,-68.6544"/>
<polygon fill="#000000" stroke="#000000" points="797.2943,-68.0291 792.5645,-58.5486 790.3499,-68.9094 797.2943,-68.0291"/>
<text text-anchor="middle" x="848" y="-123.4264" font-family="Times,serif" font-size="20.00" fill="#000000">[NA]</text>
<text text-anchor="middle" x="848" y="-101.4264" font-family="Times,serif" font-size="20.00" fill="#000000">empty</text>
</g>
<!-- SG_1_Node_13 -->
<g id="node26" class="node">
<title>SG_1_Node_13</title>
<ellipse fill="none" stroke="#000000" cx="891" cy="-37.2132" rx="34.7971" ry="21.4286"/>
<text text-anchor="middle" x="891" y="-32.2132" font-family="Times,serif" font-size="20.00" fill="#000000">1.0</text>
</g>
<!-- SG_1_Node_6&#45;&gt;SG_1_Node_13 -->
<g id="edge24" class="edge">
<title>SG_1_Node_6&#45;&gt;SG_1_Node_13</title>
<path fill="none" stroke="#000000" d="M881.2405,-179.5485C883.0859,-152.6336 886.58,-101.6751 888.848,-68.5978"/>
<polygon fill="#000000" stroke="#000000" points="892.3453,-68.7559 889.5377,-58.5399 885.3617,-68.277 892.3453,-68.7559"/>
<text text-anchor="middle" x="921" y="-112.4264" font-family="Times,serif" font-size="20.00" fill="#000000">nosniff</text>
</g>
</g>
</svg>
