<?xml version="1.0" encoding="UTF-8" standalone="no"?>
<!DOCTYPE svg PUBLIC "-//W3C//DTD SVG 1.1//EN"
 "http://www.w3.org/Graphics/SVG/1.1/DTD/svg11.dtd">
<!-- Generated by graphviz version 2.40.1 (20161225.0304)
 -->
<!-- Title: G Pages: 1 -->
<svg width="9638pt" height="1509pt"
 viewBox="0.00 0.00 9638.00 1508.56" xmlns="http://www.w3.org/2000/svg" xmlns:xlink="http://www.w3.org/1999/xlink">
<g id="graph0" class="graph" transform="scale(1 1) rotate(0) translate(4 1504.5584)">
<title>G</title>
<polygon fill="#ffffff" stroke="transparent" points="-4,4 -4,-1504.5584 9634,-1504.5584 9634,4 -4,4"/>
<g id="clust1" class="cluster">
<title>cluster_0</title>
<polygon fill="none" stroke="#000000" points="8,-8 8,-1492.5584 721,-1492.5584 721,-8 8,-8"/>
<text text-anchor="middle" x="364.5" y="-1456.5584" font-family="Times,serif" font-size="40.00" fill="#000000">Tree 0, Class http://localhost:8001</text>
</g>
<g id="clust9" class="cluster">
<title>cluster_1</title>
<polygon fill="none" stroke="#000000" points="729,-190.4264 729,-1492.5584 4643,-1492.5584 4643,-190.4264 729,-190.4264"/>
<text text-anchor="middle" x="2686" y="-1456.5584" font-family="Times,serif" font-size="40.00" fill="#000000">Tree 0, Class {&#39;code&#39;: 18, &#39;name&#39;: &#39;SecurityError&#39;, &#39;message&#39;: &#39;Blocked a frame with origin http://localhost:8001 from accessing a cross&#45;origin frame. Protocols, domains, and ports must match.&#39;}</text>
</g>
<g id="clust16" class="cluster">
<title>cluster_2</title>
<polygon fill="none" stroke="#000000" points="4651,-190.4264 4651,-1492.5584 9622,-1492.5584 9622,-190.4264 4651,-190.4264"/>
<text text-anchor="middle" x="7136.5" y="-1456.5584" font-family="Times,serif" font-size="40.00" fill="#000000">Tree 0, Class {&#39;code&#39;: 18, &#39;name&#39;: &#39;SecurityError&#39;, &#39;message&#39;: &#39;Sandbox access violation: Blocked a frame at http://localhost:8001 from accessing a cross&#45;origin frame. &#160;The frame being accessed is sandboxed and lacks the allow&#45;same&#45;origin flag.&#39;}</text>
</g>
<!-- SG_0_Node_0 -->
<g id="node1" class="node">
<title>SG_0_Node_0</title>
<polygon fill="none" stroke="#000000" points="282,-1432.5584 140,-1432.5584 140,-1396.5584 282,-1396.5584 282,-1432.5584"/>
<text text-anchor="middle" x="211" y="-1409.5584" font-family="Times,serif" font-size="20.00" fill="#000000">Status&#45;Code</text>
</g>
<!-- SG_0_Node_1 -->
<g id="node2" class="node">
<title>SG_0_Node_1</title>
<polygon fill="none" stroke="#000000" points="248.5,-1099.3452 27.5,-1099.3452 27.5,-1063.3452 248.5,-1063.3452 248.5,-1099.3452"/>
<text text-anchor="middle" x="138" y="-1076.3452" font-family="Times,serif" font-size="20.00" fill="#000000">Content&#45;Disposition</text>
</g>
<!-- SG_0_Node_0&#45;&gt;SG_0_Node_1 -->
<g id="edge1" class="edge">
<title>SG_0_Node_0&#45;&gt;SG_0_Node_1</title>
<path fill="none" stroke="#000000" d="M197.4163,-1396.1468C190.5127,-1385.8792 182.6257,-1372.5686 178,-1359.5584 146.9312,-1272.1753 139.947,-1161.199 138.4105,-1109.8228"/>
<polygon fill="#000000" stroke="#000000" points="141.9016,-1109.4185 138.1528,-1099.5091 134.9037,-1109.5934 141.9016,-1109.4185"/>
<text text-anchor="middle" x="224" y="-1255.5584" font-family="Times,serif" font-size="20.00" fill="#000000">[NA]</text>
<text text-anchor="middle" x="224" y="-1233.5584" font-family="Times,serif" font-size="20.00" fill="#000000">58 levels</text>
</g>
<!-- SG_0_Node_6 -->
<g id="node3" class="node">
<title>SG_0_Node_6</title>
<ellipse fill="none" stroke="#000000" cx="301" cy="-1081.3452" rx="34.7971" ry="21.4286"/>
<text text-anchor="middle" x="301" y="-1076.3452" font-family="Times,serif" font-size="20.00" fill="#000000">1.0</text>
</g>
<!-- SG_0_Node_0&#45;&gt;SG_0_Node_6 -->
<g id="edge2" class="edge">
<title>SG_0_Node_0&#45;&gt;SG_0_Node_6</title>
<path fill="none" stroke="#000000" d="M237.7861,-1396.4697C249.6864,-1386.9439 262.6425,-1374.1975 270,-1359.5584 310.9378,-1278.1052 308.5268,-1166.6493 304.3136,-1112.8889"/>
<polygon fill="#000000" stroke="#000000" points="307.7751,-1112.291 303.4307,-1102.6279 300.8009,-1112.8911 307.7751,-1112.291"/>
<text text-anchor="middle" x="325.5" y="-1277.5584" font-family="Times,serif" font-size="20.00" fill="#000000">100</text>
<text text-anchor="middle" x="325.5" y="-1255.5584" font-family="Times,serif" font-size="20.00" fill="#000000">102</text>
<text text-anchor="middle" x="325.5" y="-1233.5584" font-family="Times,serif" font-size="20.00" fill="#000000">103</text>
<text text-anchor="middle" x="325.5" y="-1211.5584" font-family="Times,serif" font-size="20.00" fill="#000000">407</text>
</g>
<!-- SG_0_Node_7 -->
<g id="node4" class="node">
<title>SG_0_Node_7</title>
<ellipse fill="none" stroke="#000000" cx="83" cy="-898.9188" rx="34.7971" ry="21.4286"/>
<text text-anchor="middle" x="83" y="-893.9188" font-family="Times,serif" font-size="20.00" fill="#000000">0.0</text>
</g>
<!-- SG_0_Node_1&#45;&gt;SG_0_Node_7 -->
<g id="edge3" class="edge">
<title>SG_0_Node_1&#45;&gt;SG_0_Node_7</title>
<path fill="none" stroke="#000000" d="M132.5253,-1063.1866C123.0972,-1031.9148 103.7011,-967.5813 92.1785,-929.3624"/>
<polygon fill="#000000" stroke="#000000" points="95.5284,-928.3483 89.2908,-919.7843 88.8264,-930.369 95.5284,-928.3483"/>
<text text-anchor="middle" x="152" y="-996.132" font-family="Times,serif" font-size="20.00" fill="#000000">[NA]</text>
<text text-anchor="middle" x="152" y="-974.132" font-family="Times,serif" font-size="20.00" fill="#000000">empty</text>
</g>
<!-- SG_0_Node_2 -->
<g id="node5" class="node">
<title>SG_0_Node_2</title>
<polygon fill="none" stroke="#000000" points="326.5,-916.9188 135.5,-916.9188 135.5,-880.9188 326.5,-880.9188 326.5,-916.9188"/>
<text text-anchor="middle" x="231" y="-893.9188" font-family="Times,serif" font-size="20.00" fill="#000000">X&#45;Frame&#45;Options</text>
</g>
<!-- SG_0_Node_1&#45;&gt;SG_0_Node_2 -->
<g id="edge4" class="edge">
<title>SG_0_Node_1&#45;&gt;SG_0_Node_2</title>
<path fill="none" stroke="#000000" d="M156.6289,-1063.3285C167.0052,-1052.4719 179.5052,-1037.9186 188,-1023.132 205.6845,-992.3494 217.7548,-953.1098 224.5037,-927.0588"/>
<polygon fill="#000000" stroke="#000000" points="227.9638,-927.6488 226.991,-917.0988 221.1724,-925.9528 227.9638,-927.6488"/>
<text text-anchor="middle" x="274" y="-985.132" font-family="Times,serif" font-size="20.00" fill="#000000">attachment</text>
</g>
<!-- SG_0_Node_8 -->
<g id="node6" class="node">
<title>SG_0_Node_8</title>
<ellipse fill="none" stroke="#000000" cx="141" cy="-650.4924" rx="34.7971" ry="21.4286"/>
<text text-anchor="middle" x="141" y="-645.4924" font-family="Times,serif" font-size="20.00" fill="#000000">0.0</text>
</g>
<!-- SG_0_Node_2&#45;&gt;SG_0_Node_8 -->
<g id="edge5" class="edge">
<title>SG_0_Node_2&#45;&gt;SG_0_Node_8</title>
<path fill="none" stroke="#000000" d="M224.3821,-880.6514C209.045,-838.3165 170.9397,-733.1349 152.0196,-680.9098"/>
<polygon fill="#000000" stroke="#000000" points="155.2007,-679.415 148.5038,-671.2051 148.6193,-681.7993 155.2007,-679.415"/>
<text text-anchor="middle" x="234" y="-780.7056" font-family="Times,serif" font-size="20.00" fill="#000000">[NA]</text>
<text text-anchor="middle" x="234" y="-758.7056" font-family="Times,serif" font-size="20.00" fill="#000000">deny</text>
</g>
<!-- SG_0_Node_3 -->
<g id="node7" class="node">
<title>SG_0_Node_3</title>
<polygon fill="none" stroke="#000000" points="454,-668.4924 194,-668.4924 194,-632.4924 454,-632.4924 454,-668.4924"/>
<text text-anchor="middle" x="324" y="-645.4924" font-family="Times,serif" font-size="20.00" fill="#000000">Content&#45;Security&#45;Policy</text>
</g>
<!-- SG_0_Node_2&#45;&gt;SG_0_Node_3 -->
<g id="edge6" class="edge">
<title>SG_0_Node_2&#45;&gt;SG_0_Node_3</title>
<path fill="none" stroke="#000000" d="M242.1652,-880.7609C248.7873,-869.5008 257.0267,-854.5826 263,-840.7056 287.0635,-784.8018 306.8021,-716.152 316.8365,-678.5055"/>
<polygon fill="#000000" stroke="#000000" points="320.2446,-679.3073 319.4049,-668.7458 313.4751,-677.5258 320.2446,-679.3073"/>
<text text-anchor="middle" x="340" y="-769.7056" font-family="Times,serif" font-size="20.00" fill="#000000">empty</text>
</g>
<!-- SG_0_Node_9 -->
<g id="node8" class="node">
<title>SG_0_Node_9</title>
<ellipse fill="none" stroke="#000000" cx="172" cy="-468.066" rx="34.7971" ry="21.4286"/>
<text text-anchor="middle" x="172" y="-463.066" font-family="Times,serif" font-size="20.00" fill="#000000">0.0</text>
</g>
<!-- SG_0_Node_3&#45;&gt;SG_0_Node_9 -->
<g id="edge7" class="edge">
<title>SG_0_Node_3&#45;&gt;SG_0_Node_9</title>
<path fill="none" stroke="#000000" d="M255.2715,-632.4341C219.9528,-621.6193 182.2092,-607.1215 172,-592.2792 153.2523,-565.0236 156.9729,-525.8309 162.9663,-498.794"/>
<polygon fill="#000000" stroke="#000000" points="166.367,-499.6214 165.3325,-489.0772 159.5658,-497.9651 166.367,-499.6214"/>
<text text-anchor="middle" x="282.5" y="-554.2792" font-family="Times,serif" font-size="20.00" fill="#000000">frame&#45;ancestors &#39;self&#39;</text>
</g>
<!-- SG_0_Node_4 -->
<g id="node9" class="node">
<title>SG_0_Node_4</title>
<polygon fill="none" stroke="#000000" points="500,-486.066 358,-486.066 358,-450.066 500,-450.066 500,-486.066"/>
<text text-anchor="middle" x="429" y="-463.066" font-family="Times,serif" font-size="20.00" fill="#000000">Status&#45;Code</text>
</g>
<!-- SG_0_Node_3&#45;&gt;SG_0_Node_4 -->
<g id="edge8" class="edge">
<title>SG_0_Node_3&#45;&gt;SG_0_Node_4</title>
<path fill="none" stroke="#000000" d="M354.9624,-632.4828C369.7223,-622.4157 386.4234,-608.6044 397,-592.2792 415.9429,-563.0406 423.684,-523.1495 426.84,-496.5451"/>
<polygon fill="#000000" stroke="#000000" points="430.3452,-496.6769 427.9007,-486.368 423.3829,-495.9512 430.3452,-496.6769"/>
<text text-anchor="middle" x="503.5" y="-576.2792" font-family="Times,serif" font-size="20.00" fill="#000000">[NA]</text>
<text text-anchor="middle" x="503.5" y="-554.2792" font-family="Times,serif" font-size="20.00" fill="#000000">default&#45;src &#39;self&#39;</text>
<text text-anchor="middle" x="503.5" y="-532.2792" font-family="Times,serif" font-size="20.00" fill="#000000">empty</text>
</g>
<!-- SG_0_Node_5 -->
<g id="node10" class="node">
<title>SG_0_Node_5</title>
<polygon fill="none" stroke="#000000" points="429.5,-237.6396 324.5,-237.6396 324.5,-201.6396 429.5,-201.6396 429.5,-237.6396"/>
<text text-anchor="middle" x="377" y="-214.6396" font-family="Times,serif" font-size="20.00" fill="#000000">Location</text>
</g>
<!-- SG_0_Node_4&#45;&gt;SG_0_Node_5 -->
<g id="edge9" class="edge">
<title>SG_0_Node_4&#45;&gt;SG_0_Node_5</title>
<path fill="none" stroke="#000000" d="M423.5725,-449.8102C420.2786,-438.387 416.1223,-423.3311 413,-409.8528 399.7799,-352.7846 387.8738,-285.2531 381.6205,-247.9595"/>
<polygon fill="#000000" stroke="#000000" points="385.0306,-247.1292 379.9381,-237.8385 378.1254,-248.2771 385.0306,-247.1292"/>
<text text-anchor="middle" x="432.5" y="-393.8528" font-family="Times,serif" font-size="20.00" fill="#000000">301</text>
<text text-anchor="middle" x="432.5" y="-371.8528" font-family="Times,serif" font-size="20.00" fill="#000000">302</text>
<text text-anchor="middle" x="432.5" y="-349.8528" font-family="Times,serif" font-size="20.00" fill="#000000">303</text>
<text text-anchor="middle" x="432.5" y="-327.8528" font-family="Times,serif" font-size="20.00" fill="#000000">305</text>
<text text-anchor="middle" x="432.5" y="-305.8528" font-family="Times,serif" font-size="20.00" fill="#000000">307</text>
<text text-anchor="middle" x="432.5" y="-283.8528" font-family="Times,serif" font-size="20.00" fill="#000000">308</text>
</g>
<!-- SG_0_Node_10 -->
<g id="node11" class="node">
<title>SG_0_Node_10</title>
<ellipse fill="none" stroke="#000000" cx="482" cy="-219.6396" rx="34.7971" ry="21.4286"/>
<text text-anchor="middle" x="482" y="-214.6396" font-family="Times,serif" font-size="20.00" fill="#000000">1.0</text>
</g>
<!-- SG_0_Node_4&#45;&gt;SG_0_Node_10 -->
<g id="edge10" class="edge">
<title>SG_0_Node_4&#45;&gt;SG_0_Node_10</title>
<path fill="none" stroke="#000000" d="M437.3037,-450.0635C442.2274,-438.7357 448.2245,-423.691 452,-409.8528 466.9607,-355.0186 475.2817,-289.1223 479.1836,-251.0423"/>
<polygon fill="#000000" stroke="#000000" points="482.6684,-251.3675 480.1688,-241.0717 475.7023,-250.6791 482.6684,-251.3675"/>
<text text-anchor="middle" x="522" y="-349.8528" font-family="Times,serif" font-size="20.00" fill="#000000">[NA]</text>
<text text-anchor="middle" x="522" y="-327.8528" font-family="Times,serif" font-size="20.00" fill="#000000">52 levels</text>
</g>
<!-- SG_0_Node_11 -->
<g id="node12" class="node">
<title>SG_0_Node_11</title>
<ellipse fill="none" stroke="#000000" cx="136" cy="-37.2132" rx="34.7971" ry="21.4286"/>
<text text-anchor="middle" x="136" y="-32.2132" font-family="Times,serif" font-size="20.00" fill="#000000">0.0</text>
</g>
<!-- SG_0_Node_5&#45;&gt;SG_0_Node_11 -->
<g id="edge11" class="edge">
<title>SG_0_Node_5&#45;&gt;SG_0_Node_11</title>
<path fill="none" stroke="#000000" d="M324.4132,-214.4431C260.6991,-206.9344 158.9969,-190.6396 136,-161.4264 115.4196,-135.2829 119.6465,-95.5335 126.2539,-68.0748"/>
<polygon fill="#000000" stroke="#000000" points="129.6905,-68.7687 128.8561,-58.2068 122.9219,-66.9838 129.6905,-68.7687"/>
<text text-anchor="middle" x="273" y="-145.4264" font-family="Times,serif" font-size="20.00" fill="#000000">[NA]</text>
<text text-anchor="middle" x="273" y="-123.4264" font-family="Times,serif" font-size="20.00" fill="#000000">/</text>
<text text-anchor="middle" x="273" y="-101.4264" font-family="Times,serif" font-size="20.00" fill="#000000">http://localhost:8000/echo/</text>
</g>
<!-- SG_0_Node_12 -->
<g id="node13" class="node">
<title>SG_0_Node_12</title>
<ellipse fill="none" stroke="#000000" cx="446" cy="-37.2132" rx="34.7971" ry="21.4286"/>
<text text-anchor="middle" x="446" y="-32.2132" font-family="Times,serif" font-size="20.00" fill="#000000">1.0</text>
</g>
<!-- SG_0_Node_5&#45;&gt;SG_0_Node_12 -->
<g id="edge12" class="edge">
<title>SG_0_Node_5&#45;&gt;SG_0_Node_12</title>
<path fill="none" stroke="#000000" d="M390.5654,-201.595C398.362,-190.4975 407.8066,-175.709 414,-161.4264 427.1594,-131.0796 435.821,-94.1318 440.7741,-68.4592"/>
<polygon fill="#000000" stroke="#000000" points="444.2321,-69.007 442.6123,-58.5368 437.3492,-67.7319 444.2321,-69.007"/>
<text text-anchor="middle" x="466" y="-123.4264" font-family="Times,serif" font-size="20.00" fill="#000000">empty</text>
</g>
<!-- SG_1_Node_0 -->
<g id="node14" class="node">
<title>SG_1_Node_0</title>
<polygon fill="none" stroke="#000000" points="1138,-1432.5584 996,-1432.5584 996,-1396.5584 1138,-1396.5584 1138,-1432.5584"/>
<text text-anchor="middle" x="1067" y="-1409.5584" font-family="Times,serif" font-size="20.00" fill="#000000">Status&#45;Code</text>
</g>
<!-- SG_1_Node_1 -->
<g id="node15" class="node">
<title>SG_1_Node_1</title>
<polygon fill="none" stroke="#000000" points="1042.5,-1099.3452 851.5,-1099.3452 851.5,-1063.3452 1042.5,-1063.3452 1042.5,-1099.3452"/>
<text text-anchor="middle" x="947" y="-1076.3452" font-family="Times,serif" font-size="20.00" fill="#000000">X&#45;Frame&#45;Options</text>
</g>
<!-- SG_1_Node_0&#45;&gt;SG_1_Node_1 -->
<g id="edge13" class="edge">
<title>SG_1_Node_0&#45;&gt;SG_1_Node_1</title>
<path fill="none" stroke="#000000" d="M1030.5778,-1396.4404C1016.0033,-1387.3517 1000.4588,-1374.9653 991,-1359.5584 941.8113,-1279.438 941.6879,-1162.747 944.6762,-1109.6017"/>
<polygon fill="#000000" stroke="#000000" points="948.1732,-1109.7594 945.3231,-1099.5551 941.1877,-1109.3095 948.1732,-1109.7594"/>
<text text-anchor="middle" x="1037" y="-1255.5584" font-family="Times,serif" font-size="20.00" fill="#000000">[NA]</text>
<text text-anchor="middle" x="1037" y="-1233.5584" font-family="Times,serif" font-size="20.00" fill="#000000">56 levels</text>
</g>
<!-- SG_1_Node_2 -->
<g id="node16" class="node">
<title>SG_1_Node_2</title>
<polygon fill="none" stroke="#000000" points="1238.5,-1099.3452 1133.5,-1099.3452 1133.5,-1063.3452 1238.5,-1063.3452 1238.5,-1099.3452"/>
<text text-anchor="middle" x="1186" y="-1076.3452" font-family="Times,serif" font-size="20.00" fill="#000000">Location</text>
</g>
<!-- SG_1_Node_0&#45;&gt;SG_1_Node_2 -->
<g id="edge14" class="edge">
<title>SG_1_Node_0&#45;&gt;SG_1_Node_2</title>
<path fill="none" stroke="#000000" d="M1073.5675,-1396.1688C1093.3164,-1340.8697 1152.2571,-1175.829 1175.9622,-1109.4521"/>
<polygon fill="#000000" stroke="#000000" points="1179.3856,-1110.2727 1179.4528,-1099.678 1172.7934,-1107.9183 1179.3856,-1110.2727"/>
<text text-anchor="middle" x="1184.5" y="-1299.5584" font-family="Times,serif" font-size="20.00" fill="#000000">301</text>
<text text-anchor="middle" x="1184.5" y="-1277.5584" font-family="Times,serif" font-size="20.00" fill="#000000">302</text>
<text text-anchor="middle" x="1184.5" y="-1255.5584" font-family="Times,serif" font-size="20.00" fill="#000000">303</text>
<text text-anchor="middle" x="1184.5" y="-1233.5584" font-family="Times,serif" font-size="20.00" fill="#000000">305</text>
<text text-anchor="middle" x="1184.5" y="-1211.5584" font-family="Times,serif" font-size="20.00" fill="#000000">307</text>
<text text-anchor="middle" x="1184.5" y="-1189.5584" font-family="Times,serif" font-size="20.00" fill="#000000">308</text>
</g>
<!-- SG_1_Node_9 -->
<g id="node17" class="node">
<title>SG_1_Node_9</title>
<ellipse fill="none" stroke="#000000" cx="784" cy="-898.9188" rx="34.7971" ry="21.4286"/>
<text text-anchor="middle" x="784" y="-893.9188" font-family="Times,serif" font-size="20.00" fill="#000000">0.0</text>
</g>
<!-- SG_1_Node_1&#45;&gt;SG_1_Node_9 -->
<g id="edge23" class="edge">
<title>SG_1_Node_1&#45;&gt;SG_1_Node_9</title>
<path fill="none" stroke="#000000" d="M929.845,-1063.1117C919.1657,-1051.697 905.1896,-1036.6421 893,-1023.132 862.9973,-989.8792 829.0545,-950.9932 807.1331,-925.7089"/>
<polygon fill="#000000" stroke="#000000" points="809.6509,-923.2697 800.4584,-918.002 804.3595,-927.8525 809.6509,-923.2697"/>
<text text-anchor="middle" x="918" y="-996.132" font-family="Times,serif" font-size="20.00" fill="#000000">[NA]</text>
<text text-anchor="middle" x="918" y="-974.132" font-family="Times,serif" font-size="20.00" fill="#000000">deny</text>
</g>
<!-- SG_1_Node_3 -->
<g id="node18" class="node">
<title>SG_1_Node_3</title>
<polygon fill="none" stroke="#000000" points="1057.5,-916.9188 836.5,-916.9188 836.5,-880.9188 1057.5,-880.9188 1057.5,-916.9188"/>
<text text-anchor="middle" x="947" y="-893.9188" font-family="Times,serif" font-size="20.00" fill="#000000">Content&#45;Disposition</text>
</g>
<!-- SG_1_Node_1&#45;&gt;SG_1_Node_3 -->
<g id="edge24" class="edge">
<title>SG_1_Node_1&#45;&gt;SG_1_Node_3</title>
<path fill="none" stroke="#000000" d="M947,-1063.1866C947,-1031.3607 947,-965.291 947,-927.3557"/>
<polygon fill="#000000" stroke="#000000" points="950.5001,-927.004 947,-917.0041 943.5001,-927.0041 950.5001,-927.004"/>
<text text-anchor="middle" x="979" y="-985.132" font-family="Times,serif" font-size="20.00" fill="#000000">empty</text>
</g>
<!-- SG_1_Node_4 -->
<g id="node19" class="node">
<title>SG_1_Node_4</title>
<polygon fill="none" stroke="#000000" points="1296.5,-916.9188 1075.5,-916.9188 1075.5,-880.9188 1296.5,-880.9188 1296.5,-916.9188"/>
<text text-anchor="middle" x="1186" y="-893.9188" font-family="Times,serif" font-size="20.00" fill="#000000">Content&#45;Disposition</text>
</g>
<!-- SG_1_Node_2&#45;&gt;SG_1_Node_4 -->
<g id="edge15" class="edge">
<title>SG_1_Node_2&#45;&gt;SG_1_Node_4</title>
<path fill="none" stroke="#000000" d="M1186,-1063.1866C1186,-1031.3607 1186,-965.291 1186,-927.3557"/>
<polygon fill="#000000" stroke="#000000" points="1189.5001,-927.004 1186,-917.0041 1182.5001,-927.0041 1189.5001,-927.004"/>
<text text-anchor="middle" x="1218" y="-985.132" font-family="Times,serif" font-size="20.00" fill="#000000">empty</text>
</g>
<!-- SG_1_Node_10 -->
<g id="node20" class="node">
<title>SG_1_Node_10</title>
<ellipse fill="none" stroke="#000000" cx="1349" cy="-898.9188" rx="34.7971" ry="21.4286"/>
<text text-anchor="middle" x="1349" y="-893.9188" font-family="Times,serif" font-size="20.00" fill="#000000">1.0</text>
</g>
<!-- SG_1_Node_2&#45;&gt;SG_1_Node_10 -->
<g id="edge16" class="edge">
<title>SG_1_Node_2&#45;&gt;SG_1_Node_10</title>
<path fill="none" stroke="#000000" d="M1209.4275,-1063.3303C1223.0612,-1052.3606 1240.2202,-1037.6928 1254,-1023.132 1283.0049,-992.4834 1311.8089,-953.2628 1329.964,-927.1771"/>
<polygon fill="#000000" stroke="#000000" points="1332.9003,-929.0844 1335.6976,-918.8655 1327.1382,-925.1095 1332.9003,-929.0844"/>
<text text-anchor="middle" x="1445" y="-1007.132" font-family="Times,serif" font-size="20.00" fill="#000000">[NA]</text>
<text text-anchor="middle" x="1445" y="-985.132" font-family="Times,serif" font-size="20.00" fill="#000000">/</text>
<text text-anchor="middle" x="1445" y="-963.132" font-family="Times,serif" font-size="20.00" fill="#000000">http://localhost:8000/echo/</text>
</g>
<!-- SG_1_Node_11 -->
<g id="node21" class="node">
<title>SG_1_Node_11</title>
<ellipse fill="none" stroke="#000000" cx="784" cy="-650.4924" rx="34.7971" ry="21.4286"/>
<text text-anchor="middle" x="784" y="-645.4924" font-family="Times,serif" font-size="20.00" fill="#000000">0.0</text>
</g>
<!-- SG_1_Node_3&#45;&gt;SG_1_Node_11 -->
<g id="edge25" class="edge">
<title>SG_1_Node_3&#45;&gt;SG_1_Node_11</title>
<path fill="none" stroke="#000000" d="M886.0264,-880.8552C865.1937,-871.8782 843.513,-858.9341 829,-840.7056 792.1345,-794.4021 784.6144,-722.8997 783.5654,-682.0277"/>
<polygon fill="#000000" stroke="#000000" points="787.0626,-681.7942 783.4229,-671.8442 780.0632,-681.8922 787.0626,-681.7942"/>
<text text-anchor="middle" x="888" y="-769.7056" font-family="Times,serif" font-size="20.00" fill="#000000">attachment</text>
</g>
<!-- SG_1_Node_5 -->
<g id="node22" class="node">
<title>SG_1_Node_5</title>
<polygon fill="none" stroke="#000000" points="1097,-668.4924 837,-668.4924 837,-632.4924 1097,-632.4924 1097,-668.4924"/>
<text text-anchor="middle" x="967" y="-645.4924" font-family="Times,serif" font-size="20.00" fill="#000000">Content&#45;Security&#45;Policy</text>
</g>
<!-- SG_1_Node_3&#45;&gt;SG_1_Node_5 -->
<g id="edge26" class="edge">
<title>SG_1_Node_3&#45;&gt;SG_1_Node_5</title>
<path fill="none" stroke="#000000" d="M948.4706,-880.6514C951.9236,-837.7606 960.57,-730.3618 964.7146,-678.8802"/>
<polygon fill="#000000" stroke="#000000" points="968.2133,-679.0352 965.5272,-668.7866 961.2359,-678.4734 968.2133,-679.0352"/>
<text text-anchor="middle" x="994" y="-780.7056" font-family="Times,serif" font-size="20.00" fill="#000000">[NA]</text>
<text text-anchor="middle" x="994" y="-758.7056" font-family="Times,serif" font-size="20.00" fill="#000000">empty</text>
</g>
<!-- SG_1_Node_12 -->
<g id="node23" class="node">
<title>SG_1_Node_12</title>
<ellipse fill="none" stroke="#000000" cx="1156" cy="-650.4924" rx="34.7971" ry="21.4286"/>
<text text-anchor="middle" x="1156" y="-645.4924" font-family="Times,serif" font-size="20.00" fill="#000000">0.0</text>
</g>
<!-- SG_1_Node_4&#45;&gt;SG_1_Node_12 -->
<g id="edge17" class="edge">
<title>SG_1_Node_4&#45;&gt;SG_1_Node_12</title>
<path fill="none" stroke="#000000" d="M1180.0305,-880.7724C1176.5327,-869.3905 1172.3523,-854.3394 1170,-840.7056 1160.4695,-785.466 1157.4216,-720.1048 1156.4502,-682.1647"/>
<polygon fill="#000000" stroke="#000000" points="1159.9406,-681.6866 1156.2191,-671.7669 1152.9423,-681.8422 1159.9406,-681.6866"/>
<text text-anchor="middle" x="1229" y="-780.7056" font-family="Times,serif" font-size="20.00" fill="#000000">[NA]</text>
<text text-anchor="middle" x="1229" y="-758.7056" font-family="Times,serif" font-size="20.00" fill="#000000">attachment</text>
</g>
<!-- SG_1_Node_6 -->
<g id="node24" class="node">
<title>SG_1_Node_6</title>
<polygon fill="none" stroke="#000000" points="1405.5,-668.4924 1214.5,-668.4924 1214.5,-632.4924 1405.5,-632.4924 1405.5,-668.4924"/>
<text text-anchor="middle" x="1310" y="-645.4924" font-family="Times,serif" font-size="20.00" fill="#000000">X&#45;Frame&#45;Options</text>
</g>
<!-- SG_1_Node_4&#45;&gt;SG_1_Node_6 -->
<g id="edge18" class="edge">
<title>SG_1_Node_4&#45;&gt;SG_1_Node_6</title>
<path fill="none" stroke="#000000" d="M1238.0177,-880.8277C1256.7388,-871.697 1276.1457,-858.6552 1288,-840.7056 1320.7237,-791.156 1318.4924,-718.1473 1314.154,-678.5396"/>
<polygon fill="#000000" stroke="#000000" points="1317.6184,-678.034 1312.9329,-668.5315 1310.6699,-678.8819 1317.6184,-678.034"/>
<text text-anchor="middle" x="1348" y="-769.7056" font-family="Times,serif" font-size="20.00" fill="#000000">empty</text>
</g>
<!-- SG_1_Node_13 -->
<g id="node25" class="node">
<title>SG_1_Node_13</title>
<ellipse fill="none" stroke="#000000" cx="811" cy="-468.066" rx="34.7971" ry="21.4286"/>
<text text-anchor="middle" x="811" y="-463.066" font-family="Times,serif" font-size="20.00" fill="#000000">0.0</text>
</g>
<!-- SG_1_Node_5&#45;&gt;SG_1_Node_13 -->
<g id="edge27" class="edge">
<title>SG_1_Node_5&#45;&gt;SG_1_Node_13</title>
<path fill="none" stroke="#000000" d="M895.6333,-632.4046C859.6401,-621.6892 821.4266,-607.2989 811,-592.2792 792.1354,-565.1044 795.8792,-525.8956 801.91,-498.8329"/>
<polygon fill="#000000" stroke="#000000" points="805.3129,-499.6514 804.291,-489.1059 798.5136,-497.987 805.3129,-499.6514"/>
<text text-anchor="middle" x="921.5" y="-554.2792" font-family="Times,serif" font-size="20.00" fill="#000000">frame&#45;ancestors &#39;self&#39;</text>
</g>
<!-- SG_1_Node_7 -->
<g id="node26" class="node">
<title>SG_1_Node_7</title>
<polygon fill="none" stroke="#000000" points="1139,-486.066 997,-486.066 997,-450.066 1139,-450.066 1139,-486.066"/>
<text text-anchor="middle" x="1068" y="-463.066" font-family="Times,serif" font-size="20.00" fill="#000000">Status&#45;Code</text>
</g>
<!-- SG_1_Node_5&#45;&gt;SG_1_Node_7 -->
<g id="edge28" class="edge">
<title>SG_1_Node_5&#45;&gt;SG_1_Node_7</title>
<path fill="none" stroke="#000000" d="M995.9089,-632.3964C1009.9427,-622.2192 1025.9094,-608.3361 1036,-592.2792 1054.5372,-562.7817 1062.3685,-522.9481 1065.656,-496.4277"/>
<polygon fill="#000000" stroke="#000000" points="1069.1571,-496.6088 1066.7721,-486.2859 1062.1991,-495.843 1069.1571,-496.6088"/>
<text text-anchor="middle" x="1142.5" y="-576.2792" font-family="Times,serif" font-size="20.00" fill="#000000">[NA]</text>
<text text-anchor="middle" x="1142.5" y="-554.2792" font-family="Times,serif" font-size="20.00" fill="#000000">default&#45;src &#39;self&#39;</text>
<text text-anchor="middle" x="1142.5" y="-532.2792" font-family="Times,serif" font-size="20.00" fill="#000000">empty</text>
</g>
<!-- SG_1_Node_14 -->
<g id="node27" class="node">
<title>SG_1_Node_14</title>
<ellipse fill="none" stroke="#000000" cx="1295" cy="-468.066" rx="34.7971" ry="21.4286"/>
<text text-anchor="middle" x="1295" y="-463.066" font-family="Times,serif" font-size="20.00" fill="#000000">0.0</text>
</g>
<!-- SG_1_Node_6&#45;&gt;SG_1_Node_14 -->
<g id="edge19" class="edge">
<title>SG_1_Node_6&#45;&gt;SG_1_Node_14</title>
<path fill="none" stroke="#000000" d="M1308.5069,-632.3337C1305.9601,-601.3598 1300.7463,-537.9509 1297.5936,-499.6086"/>
<polygon fill="#000000" stroke="#000000" points="1301.0708,-499.1861 1296.763,-489.5066 1294.0943,-499.7598 1301.0708,-499.1861"/>
<text text-anchor="middle" x="1329.5" y="-554.2792" font-family="Times,serif" font-size="20.00" fill="#000000">deny</text>
</g>
<!-- SG_1_Node_8 -->
<g id="node28" class="node">
<title>SG_1_Node_8</title>
<polygon fill="none" stroke="#000000" points="1608,-486.066 1348,-486.066 1348,-450.066 1608,-450.066 1608,-486.066"/>
<text text-anchor="middle" x="1478" y="-463.066" font-family="Times,serif" font-size="20.00" fill="#000000">Content&#45;Security&#45;Policy</text>
</g>
<!-- SG_1_Node_6&#45;&gt;SG_1_Node_8 -->
<g id="edge20" class="edge">
<title>SG_1_Node_6&#45;&gt;SG_1_Node_8</title>
<path fill="none" stroke="#000000" d="M1326.7227,-632.3337C1356.7865,-599.6883 1420.0311,-531.0128 1454.4583,-493.6293"/>
<polygon fill="#000000" stroke="#000000" points="1457.1453,-495.8782 1461.345,-486.1513 1451.9961,-491.1362 1457.1453,-495.8782"/>
<text text-anchor="middle" x="1456" y="-565.2792" font-family="Times,serif" font-size="20.00" fill="#000000">[NA]</text>
<text text-anchor="middle" x="1456" y="-543.2792" font-family="Times,serif" font-size="20.00" fill="#000000">empty</text>
</g>
<!-- SG_1_Node_15 -->
<g id="node29" class="node">
<title>SG_1_Node_15</title>
<ellipse fill="none" stroke="#000000" cx="999" cy="-219.6396" rx="34.7971" ry="21.4286"/>
<text text-anchor="middle" x="999" y="-214.6396" font-family="Times,serif" font-size="20.00" fill="#000000">0.0</text>
</g>
<!-- SG_1_Node_7&#45;&gt;SG_1_Node_15 -->
<g id="edge29" class="edge">
<title>SG_1_Node_7&#45;&gt;SG_1_Node_15</title>
<path fill="none" stroke="#000000" d="M1052.7595,-449.8332C1044.4294,-438.9045 1034.6794,-424.3512 1029,-409.8528 1008.1574,-356.6454 1001.7733,-289.6906 999.8319,-251.0671"/>
<polygon fill="#000000" stroke="#000000" points="1003.3237,-250.7986 999.3939,-240.9596 996.3303,-251.1018 1003.3237,-250.7986"/>
<text text-anchor="middle" x="1048.5" y="-371.8528" font-family="Times,serif" font-size="20.00" fill="#000000">100</text>
<text text-anchor="middle" x="1048.5" y="-349.8528" font-family="Times,serif" font-size="20.00" fill="#000000">102</text>
<text text-anchor="middle" x="1048.5" y="-327.8528" font-family="Times,serif" font-size="20.00" fill="#000000">103</text>
<text text-anchor="middle" x="1048.5" y="-305.8528" font-family="Times,serif" font-size="20.00" fill="#000000">407</text>
</g>
<!-- SG_1_Node_16 -->
<g id="node30" class="node">
<title>SG_1_Node_16</title>
<ellipse fill="none" stroke="#000000" cx="1086" cy="-219.6396" rx="34.7971" ry="21.4286"/>
<text text-anchor="middle" x="1086" y="-214.6396" font-family="Times,serif" font-size="20.00" fill="#000000">1.0</text>
</g>
<!-- SG_1_Node_7&#45;&gt;SG_1_Node_16 -->
<g id="edge30" class="edge">
<title>SG_1_Node_7&#45;&gt;SG_1_Node_16</title>
<path fill="none" stroke="#000000" d="M1069.3236,-449.7986C1072.3694,-407.7616 1079.905,-303.759 1083.7156,-251.1671"/>
<polygon fill="#000000" stroke="#000000" points="1087.2156,-251.2933 1084.4475,-241.0665 1080.2339,-250.7874 1087.2156,-251.2933"/>
<text text-anchor="middle" x="1127" y="-349.8528" font-family="Times,serif" font-size="20.00" fill="#000000">[NA]</text>
<text text-anchor="middle" x="1127" y="-327.8528" font-family="Times,serif" font-size="20.00" fill="#000000">52 levels</text>
</g>
<!-- SG_1_Node_17 -->
<g id="node31" class="node">
<title>SG_1_Node_17</title>
<ellipse fill="none" stroke="#000000" cx="1231" cy="-219.6396" rx="34.7971" ry="21.4286"/>
<text text-anchor="middle" x="1231" y="-214.6396" font-family="Times,serif" font-size="20.00" fill="#000000">0.0</text>
</g>
<!-- SG_1_Node_8&#45;&gt;SG_1_Node_17 -->
<g id="edge21" class="edge">
<title>SG_1_Node_8&#45;&gt;SG_1_Node_17</title>
<path fill="none" stroke="#000000" d="M1362.1688,-450.0234C1315.9143,-440.4107 1270.047,-426.9922 1255,-409.8528 1216.4159,-365.9032 1219.4903,-292.6786 1225.2146,-251.0682"/>
<polygon fill="#000000" stroke="#000000" points="1228.7085,-251.3718 1226.7441,-240.9607 1221.7873,-250.3244 1228.7085,-251.3718"/>
<text text-anchor="middle" x="1365.5" y="-338.8528" font-family="Times,serif" font-size="20.00" fill="#000000">frame&#45;ancestors &#39;self&#39;</text>
</g>
<!-- SG_1_Node_18 -->
<g id="node32" class="node">
<title>SG_1_Node_18</title>
<ellipse fill="none" stroke="#000000" cx="1488" cy="-219.6396" rx="34.7971" ry="21.4286"/>
<text text-anchor="middle" x="1488" y="-214.6396" font-family="Times,serif" font-size="20.00" fill="#000000">1.0</text>
</g>
<!-- SG_1_Node_8&#45;&gt;SG_1_Node_18 -->
<g id="edge22" class="edge">
<title>SG_1_Node_8&#45;&gt;SG_1_Node_18</title>
<path fill="none" stroke="#000000" d="M1478.7353,-449.7986C1480.4275,-407.7616 1484.6139,-303.759 1486.7309,-251.1671"/>
<polygon fill="#000000" stroke="#000000" points="1490.2324,-251.1992 1487.1375,-241.0665 1483.238,-250.9176 1490.2324,-251.1992"/>
<text text-anchor="middle" x="1567.5" y="-360.8528" font-family="Times,serif" font-size="20.00" fill="#000000">[NA]</text>
<text text-anchor="middle" x="1567.5" y="-338.8528" font-family="Times,serif" font-size="20.00" fill="#000000">default&#45;src &#39;self&#39;</text>
<text text-anchor="middle" x="1567.5" y="-316.8528" font-family="Times,serif" font-size="20.00" fill="#000000">empty</text>
</g>
<!-- SG_2_Node_0 -->
<g id="node33" class="node">
<title>SG_2_Node_0</title>
<polygon fill="none" stroke="#000000" points="5168,-1432.5584 5026,-1432.5584 5026,-1396.5584 5168,-1396.5584 5168,-1432.5584"/>
<text text-anchor="middle" x="5097" y="-1409.5584" font-family="Times,serif" font-size="20.00" fill="#000000">Status&#45;Code</text>
</g>
<!-- SG_2_Node_1 -->
<g id="node34" class="node">
<title>SG_2_Node_1</title>
<polygon fill="none" stroke="#000000" points="5061.5,-1099.3452 4956.5,-1099.3452 4956.5,-1063.3452 5061.5,-1063.3452 5061.5,-1099.3452"/>
<text text-anchor="middle" x="5009" y="-1076.3452" font-family="Times,serif" font-size="20.00" fill="#000000">Location</text>
</g>
<!-- SG_2_Node_0&#45;&gt;SG_2_Node_1 -->
<g id="edge31" class="edge">
<title>SG_2_Node_0&#45;&gt;SG_2_Node_1</title>
<path fill="none" stroke="#000000" d="M5092.1434,-1396.1688C5077.5392,-1340.8697 5033.9527,-1175.829 5016.4229,-1109.4521"/>
<polygon fill="#000000" stroke="#000000" points="5019.7791,-1108.4528 5013.8416,-1099.678 5013.0111,-1110.2403 5019.7791,-1108.4528"/>
<text text-anchor="middle" x="5101.5" y="-1343.5584" font-family="Times,serif" font-size="20.00" fill="#000000">100</text>
<text text-anchor="middle" x="5101.5" y="-1321.5584" font-family="Times,serif" font-size="20.00" fill="#000000">102</text>
<text text-anchor="middle" x="5101.5" y="-1299.5584" font-family="Times,serif" font-size="20.00" fill="#000000">103</text>
<text text-anchor="middle" x="5101.5" y="-1277.5584" font-family="Times,serif" font-size="20.00" fill="#000000">301</text>
<text text-anchor="middle" x="5101.5" y="-1255.5584" font-family="Times,serif" font-size="20.00" fill="#000000">302</text>
<text text-anchor="middle" x="5101.5" y="-1233.5584" font-family="Times,serif" font-size="20.00" fill="#000000">303</text>
<text text-anchor="middle" x="5101.5" y="-1211.5584" font-family="Times,serif" font-size="20.00" fill="#000000">305</text>
<text text-anchor="middle" x="5101.5" y="-1189.5584" font-family="Times,serif" font-size="20.00" fill="#000000">307</text>
<text text-anchor="middle" x="5101.5" y="-1167.5584" font-family="Times,serif" font-size="20.00" fill="#000000">308</text>
<text text-anchor="middle" x="5101.5" y="-1145.5584" font-family="Times,serif" font-size="20.00" fill="#000000">407</text>
</g>
<!-- SG_2_Node_2 -->
<g id="node35" class="node">
<title>SG_2_Node_2</title>
<polygon fill="none" stroke="#000000" points="5280.5,-1099.3452 5089.5,-1099.3452 5089.5,-1063.3452 5280.5,-1063.3452 5280.5,-1099.3452"/>
<text text-anchor="middle" x="5185" y="-1076.3452" font-family="Times,serif" font-size="20.00" fill="#000000">X&#45;Frame&#45;Options</text>
</g>
<!-- SG_2_Node_0&#45;&gt;SG_2_Node_2 -->
<g id="edge32" class="edge">
<title>SG_2_Node_0&#45;&gt;SG_2_Node_2</title>
<path fill="none" stroke="#000000" d="M5107.691,-1396.503C5113.5141,-1386.0159 5120.4408,-1372.3797 5125,-1359.5584 5156.5294,-1270.892 5174.3541,-1160.1702 5181.4149,-1109.2841"/>
<polygon fill="#000000" stroke="#000000" points="5184.8846,-1109.7426 5182.7592,-1099.3632 5177.948,-1108.8026 5184.8846,-1109.7426"/>
<text text-anchor="middle" x="5222" y="-1255.5584" font-family="Times,serif" font-size="20.00" fill="#000000">[NA]</text>
<text text-anchor="middle" x="5222" y="-1233.5584" font-family="Times,serif" font-size="20.00" fill="#000000">52 levels</text>
</g>
<!-- SG_2_Node_7 -->
<g id="node36" class="node">
<title>SG_2_Node_7</title>
<ellipse fill="none" stroke="#000000" cx="4699" cy="-898.9188" rx="34.7971" ry="21.4286"/>
<text text-anchor="middle" x="4699" y="-893.9188" font-family="Times,serif" font-size="20.00" fill="#000000">0.0</text>
</g>
<!-- SG_2_Node_1&#45;&gt;SG_2_Node_7 -->
<g id="edge37" class="edge">
<title>SG_2_Node_1&#45;&gt;SG_2_Node_7</title>
<path fill="none" stroke="#000000" d="M4956.2993,-1079.1527C4877.0764,-1074.6345 4733.1234,-1061.2665 4701,-1023.132 4679.5615,-997.6818 4683.2381,-957.79 4689.5438,-930.1087"/>
<polygon fill="#000000" stroke="#000000" points="4693.0028,-930.7042 4692.0424,-920.153 4686.2134,-929.0003 4693.0028,-930.7042"/>
<text text-anchor="middle" x="4838" y="-1007.132" font-family="Times,serif" font-size="20.00" fill="#000000">[NA]</text>
<text text-anchor="middle" x="4838" y="-985.132" font-family="Times,serif" font-size="20.00" fill="#000000">/</text>
<text text-anchor="middle" x="4838" y="-963.132" font-family="Times,serif" font-size="20.00" fill="#000000">http://localhost:8000/echo/</text>
</g>
<!-- SG_2_Node_3 -->
<g id="node37" class="node">
<title>SG_2_Node_3</title>
<polygon fill="none" stroke="#000000" points="5037,-916.9188 4895,-916.9188 4895,-880.9188 5037,-880.9188 5037,-916.9188"/>
<text text-anchor="middle" x="4966" y="-893.9188" font-family="Times,serif" font-size="20.00" fill="#000000">Status&#45;Code</text>
</g>
<!-- SG_2_Node_1&#45;&gt;SG_2_Node_3 -->
<g id="edge38" class="edge">
<title>SG_2_Node_1&#45;&gt;SG_2_Node_3</title>
<path fill="none" stroke="#000000" d="M5004.7198,-1063.1866C4997.1859,-1031.2241 4981.5109,-964.7233 4972.5881,-926.8688"/>
<polygon fill="#000000" stroke="#000000" points="4975.9639,-925.9343 4970.2629,-917.0041 4969.1506,-927.5404 4975.9639,-925.9343"/>
<text text-anchor="middle" x="5027" y="-985.132" font-family="Times,serif" font-size="20.00" fill="#000000">empty</text>
</g>
<!-- SG_2_Node_4 -->
<g id="node38" class="node">
<title>SG_2_Node_4</title>
<polygon fill="none" stroke="#000000" points="5315,-916.9188 5055,-916.9188 5055,-880.9188 5315,-880.9188 5315,-916.9188"/>
<text text-anchor="middle" x="5185" y="-893.9188" font-family="Times,serif" font-size="20.00" fill="#000000">Content&#45;Security&#45;Policy</text>
</g>
<!-- SG_2_Node_2&#45;&gt;SG_2_Node_4 -->
<g id="edge33" class="edge">
<title>SG_2_Node_2&#45;&gt;SG_2_Node_4</title>
<path fill="none" stroke="#000000" d="M5185,-1063.1866C5185,-1031.3607 5185,-965.291 5185,-927.3557"/>
<polygon fill="#000000" stroke="#000000" points="5188.5001,-927.004 5185,-917.0041 5181.5001,-927.0041 5188.5001,-927.004"/>
<text text-anchor="middle" x="5217" y="-985.132" font-family="Times,serif" font-size="20.00" fill="#000000">empty</text>
</g>
<!-- SG_2_Node_8 -->
<g id="node39" class="node">
<title>SG_2_Node_8</title>
<ellipse fill="none" stroke="#000000" cx="5368" cy="-898.9188" rx="34.7971" ry="21.4286"/>
<text text-anchor="middle" x="5368" y="-893.9188" font-family="Times,serif" font-size="20.00" fill="#000000">1.0</text>
</g>
<!-- SG_2_Node_2&#45;&gt;SG_2_Node_8 -->
<g id="edge34" class="edge">
<title>SG_2_Node_2&#45;&gt;SG_2_Node_8</title>
<path fill="none" stroke="#000000" d="M5207.6213,-1063.0989C5221.1315,-1051.9299 5238.4394,-1037.1371 5253,-1023.132 5286.2551,-991.1457 5321.9761,-951.6716 5344.6294,-925.9261"/>
<polygon fill="#000000" stroke="#000000" points="5347.549,-927.9049 5351.5054,-918.0765 5342.2835,-923.2924 5347.549,-927.9049"/>
<text text-anchor="middle" x="5340" y="-996.132" font-family="Times,serif" font-size="20.00" fill="#000000">[NA]</text>
<text text-anchor="middle" x="5340" y="-974.132" font-family="Times,serif" font-size="20.00" fill="#000000">deny</text>
</g>
<!-- SG_2_Node_9 -->
<g id="node40" class="node">
<title>SG_2_Node_9</title>
<ellipse fill="none" stroke="#000000" cx="4832" cy="-650.4924" rx="34.7971" ry="21.4286"/>
<text text-anchor="middle" x="4832" y="-645.4924" font-family="Times,serif" font-size="20.00" fill="#000000">0.0</text>
</g>
<!-- SG_2_Node_3&#45;&gt;SG_2_Node_9 -->
<g id="edge39" class="edge">
<title>SG_2_Node_3&#45;&gt;SG_2_Node_9</title>
<path fill="none" stroke="#000000" d="M4952.5164,-880.7457C4944.4115,-869.4801 4934.1278,-854.5614 4926,-840.7056 4893.9209,-786.0192 4862.486,-718.8843 4845.3302,-680.7607"/>
<polygon fill="#000000" stroke="#000000" points="4848.3609,-678.9642 4841.0828,-671.2649 4841.971,-681.8224 4848.3609,-678.9642"/>
<text text-anchor="middle" x="4945.5" y="-802.7056" font-family="Times,serif" font-size="20.00" fill="#000000">100</text>
<text text-anchor="middle" x="4945.5" y="-780.7056" font-family="Times,serif" font-size="20.00" fill="#000000">102</text>
<text text-anchor="middle" x="4945.5" y="-758.7056" font-family="Times,serif" font-size="20.00" fill="#000000">103</text>
<text text-anchor="middle" x="4945.5" y="-736.7056" font-family="Times,serif" font-size="20.00" fill="#000000">407</text>
</g>
<!-- SG_2_Node_5 -->
<g id="node41" class="node">
<title>SG_2_Node_5</title>
<polygon fill="none" stroke="#000000" points="5075.5,-668.4924 4884.5,-668.4924 4884.5,-632.4924 5075.5,-632.4924 5075.5,-668.4924"/>
<text text-anchor="middle" x="4980" y="-645.4924" font-family="Times,serif" font-size="20.00" fill="#000000">X&#45;Frame&#45;Options</text>
</g>
<!-- SG_2_Node_3&#45;&gt;SG_2_Node_5 -->
<g id="edge40" class="edge">
<title>SG_2_Node_3&#45;&gt;SG_2_Node_5</title>
<path fill="none" stroke="#000000" d="M4967.0295,-880.6514C4969.4466,-837.7606 4975.499,-730.3618 4978.4002,-678.8802"/>
<polygon fill="#000000" stroke="#000000" points="4981.9007,-678.9677 4978.969,-668.7866 4974.9118,-678.5738 4981.9007,-678.9677"/>
<text text-anchor="middle" x="4995.5" y="-824.7056" font-family="Times,serif" font-size="20.00" fill="#000000">301</text>
<text text-anchor="middle" x="4995.5" y="-802.7056" font-family="Times,serif" font-size="20.00" fill="#000000">302</text>
<text text-anchor="middle" x="4995.5" y="-780.7056" font-family="Times,serif" font-size="20.00" fill="#000000">303</text>
<text text-anchor="middle" x="4995.5" y="-758.7056" font-family="Times,serif" font-size="20.00" fill="#000000">305</text>
<text text-anchor="middle" x="4995.5" y="-736.7056" font-family="Times,serif" font-size="20.00" fill="#000000">307</text>
<text text-anchor="middle" x="4995.5" y="-714.7056" font-family="Times,serif" font-size="20.00" fill="#000000">308</text>
</g>
<!-- SG_2_Node_10 -->
<g id="node42" class="node">
<title>SG_2_Node_10</title>
<ellipse fill="none" stroke="#000000" cx="5162" cy="-650.4924" rx="34.7971" ry="21.4286"/>
<text text-anchor="middle" x="5162" y="-645.4924" font-family="Times,serif" font-size="20.00" fill="#000000">0.0</text>
</g>
<!-- SG_2_Node_4&#45;&gt;SG_2_Node_10 -->
<g id="edge35" class="edge">
<title>SG_2_Node_4&#45;&gt;SG_2_Node_10</title>
<path fill="none" stroke="#000000" d="M5181.8297,-880.8759C5179.9086,-869.4041 5177.5395,-854.2195 5176,-840.7056 5169.6723,-785.1598 5165.6016,-720.1465 5163.5632,-682.3131"/>
<polygon fill="#000000" stroke="#000000" points="5167.0381,-681.7418 5163.0187,-671.939 5160.0477,-682.1087 5167.0381,-681.7418"/>
<text text-anchor="middle" x="5258.5" y="-791.7056" font-family="Times,serif" font-size="20.00" fill="#000000">[NA]</text>
<text text-anchor="middle" x="5258.5" y="-769.7056" font-family="Times,serif" font-size="20.00" fill="#000000">default&#45;src &#39;self&#39;</text>
<text text-anchor="middle" x="5258.5" y="-747.7056" font-family="Times,serif" font-size="20.00" fill="#000000">empty</text>
</g>
<!-- SG_2_Node_11 -->
<g id="node43" class="node">
<title>SG_2_Node_11</title>
<ellipse fill="none" stroke="#000000" cx="5363" cy="-650.4924" rx="34.7971" ry="21.4286"/>
<text text-anchor="middle" x="5363" y="-645.4924" font-family="Times,serif" font-size="20.00" fill="#000000">1.0</text>
</g>
<!-- SG_2_Node_4&#45;&gt;SG_2_Node_11 -->
<g id="edge36" class="edge">
<title>SG_2_Node_4&#45;&gt;SG_2_Node_11</title>
<path fill="none" stroke="#000000" d="M5254.0211,-880.8641C5290.2876,-869.9382 5329.5482,-855.3281 5341,-840.7056 5376.9203,-794.8402 5373.9715,-722.6334 5368.5367,-681.6422"/>
<polygon fill="#000000" stroke="#000000" points="5371.9912,-681.0755 5367.0849,-671.6851 5365.0644,-682.0855 5371.9912,-681.0755"/>
<text text-anchor="middle" x="5481.5" y="-769.7056" font-family="Times,serif" font-size="20.00" fill="#000000">frame&#45;ancestors &#39;self&#39;</text>
</g>
<!-- SG_2_Node_6 -->
<g id="node44" class="node">
<title>SG_2_Node_6</title>
<polygon fill="none" stroke="#000000" points="4959,-486.066 4699,-486.066 4699,-450.066 4959,-450.066 4959,-486.066"/>
<text text-anchor="middle" x="4829" y="-463.066" font-family="Times,serif" font-size="20.00" fill="#000000">Content&#45;Security&#45;Policy</text>
</g>
<!-- SG_2_Node_5&#45;&gt;SG_2_Node_6 -->
<g id="edge41" class="edge">
<title>SG_2_Node_5&#45;&gt;SG_2_Node_6</title>
<path fill="none" stroke="#000000" d="M4960.4973,-632.2621C4948.9001,-621.0989 4934.1331,-606.3064 4922,-592.2792 4894.2538,-560.2015 4865.4611,-520.5997 4847.403,-494.8605"/>
<polygon fill="#000000" stroke="#000000" points="4850.0732,-492.5706 4841.4826,-486.3694 4844.3311,-496.5742 4850.0732,-492.5706"/>
<text text-anchor="middle" x="4954" y="-565.2792" font-family="Times,serif" font-size="20.00" fill="#000000">[NA]</text>
<text text-anchor="middle" x="4954" y="-543.2792" font-family="Times,serif" font-size="20.00" fill="#000000">empty</text>
</g>
<!-- SG_2_Node_12 -->
<g id="node45" class="node">
<title>SG_2_Node_12</title>
<ellipse fill="none" stroke="#000000" cx="5012" cy="-468.066" rx="34.7971" ry="21.4286"/>
<text text-anchor="middle" x="5012" y="-463.066" font-family="Times,serif" font-size="20.00" fill="#000000">1.0</text>
</g>
<!-- SG_2_Node_5&#45;&gt;SG_2_Node_12 -->
<g id="edge42" class="edge">
<title>SG_2_Node_5&#45;&gt;SG_2_Node_12</title>
<path fill="none" stroke="#000000" d="M4983.1853,-632.3337C4988.633,-601.2775 4999.8005,-537.6134 5006.5206,-499.3032"/>
<polygon fill="#000000" stroke="#000000" points="5010.0091,-499.6727 5008.2896,-489.2183 5003.1144,-498.4632 5010.0091,-499.6727"/>
<text text-anchor="middle" x="5025.5" y="-554.2792" font-family="Times,serif" font-size="20.00" fill="#000000">deny</text>
</g>
<!-- SG_2_Node_13 -->
<g id="node46" class="node">
<title>SG_2_Node_13</title>
<ellipse fill="none" stroke="#000000" cx="4761" cy="-219.6396" rx="34.7971" ry="21.4286"/>
<text text-anchor="middle" x="4761" y="-214.6396" font-family="Times,serif" font-size="20.00" fill="#000000">0.0</text>
</g>
<!-- SG_2_Node_6&#45;&gt;SG_2_Node_13 -->
<g id="edge43" class="edge">
<title>SG_2_Node_6&#45;&gt;SG_2_Node_13</title>
<path fill="none" stroke="#000000" d="M4805.9,-449.843C4794.4995,-439.4446 4781.7691,-425.3988 4775,-409.8528 4752.344,-357.821 4753.7486,-290.2036 4757.1521,-251.1898"/>
<polygon fill="#000000" stroke="#000000" points="4760.6605,-251.2735 4758.1468,-240.9812 4753.6935,-250.5946 4760.6605,-251.2735"/>
<text text-anchor="middle" x="4857.5" y="-360.8528" font-family="Times,serif" font-size="20.00" fill="#000000">[NA]</text>
<text text-anchor="middle" x="4857.5" y="-338.8528" font-family="Times,serif" font-size="20.00" fill="#000000">default&#45;src &#39;self&#39;</text>
<text text-anchor="middle" x="4857.5" y="-316.8528" font-family="Times,serif" font-size="20.00" fill="#000000">empty</text>
</g>
<!-- SG_2_Node_14 -->
<g id="node47" class="node">
<title>SG_2_Node_14</title>
<ellipse fill="none" stroke="#000000" cx="4962" cy="-219.6396" rx="34.7971" ry="21.4286"/>
<text text-anchor="middle" x="4962" y="-214.6396" font-family="Times,serif" font-size="20.00" fill="#000000">1.0</text>
</g>
<!-- SG_2_Node_6&#45;&gt;SG_2_Node_14 -->
<g id="edge44" class="edge">
<title>SG_2_Node_6&#45;&gt;SG_2_Node_14</title>
<path fill="none" stroke="#000000" d="M4887.8329,-449.9481C4907.4656,-440.9846 4927.5022,-428.0633 4940,-409.8528 4972.7223,-362.173 4971.1324,-291.4628 4966.7523,-251.0366"/>
<polygon fill="#000000" stroke="#000000" points="4970.2094,-250.4698 4965.5338,-240.9625 4963.26,-251.3104 4970.2094,-250.4698"/>
<text text-anchor="middle" x="5079.5" y="-338.8528" font-family="Times,serif" font-size="20.00" fill="#000000">frame&#45;ancestors &#39;self&#39;</text>
</g>
</g>
</svg>
