<?xml version="1.0" encoding="UTF-8" standalone="no"?>
<!DOCTYPE svg PUBLIC "-//W3C//DTD SVG 1.1//EN"
 "http://www.w3.org/Graphics/SVG/1.1/DTD/svg11.dtd">
<!-- Generated by graphviz version 2.40.1 (20161225.0304)
 -->
<!-- Title: G Pages: 1 -->
<svg width="9465pt" height="1509pt"
 viewBox="0.00 0.00 9465.00 1508.56" xmlns="http://www.w3.org/2000/svg" xmlns:xlink="http://www.w3.org/1999/xlink">
<g id="graph0" class="graph" transform="scale(1 1) rotate(0) translate(4 1504.5584)">
<title>G</title>
<polygon fill="#ffffff" stroke="transparent" points="-4,4 -4,-1504.5584 9461,-1504.5584 9461,4 -4,4"/>
<g id="clust1" class="cluster">
<title>cluster_0</title>
<polygon fill="none" stroke="#000000" points="8,-8 8,-1492.5584 548,-1492.5584 548,-8 8,-8"/>
<text text-anchor="middle" x="278" y="-1456.5584" font-family="Times,serif" font-size="40.00" fill="#000000">Tree 0, Class js&#45;undefined</text>
</g>
<g id="clust9" class="cluster">
<title>cluster_1</title>
<polygon fill="none" stroke="#000000" points="556,-190.4264 556,-1492.5584 4470,-1492.5584 4470,-190.4264 556,-190.4264"/>
<text text-anchor="middle" x="2513" y="-1456.5584" font-family="Times,serif" font-size="40.00" fill="#000000">Tree 0, Class {&#39;code&#39;: 18, &#39;name&#39;: &#39;SecurityError&#39;, &#39;message&#39;: &#39;Blocked a frame with origin http://localhost:8001 from accessing a cross&#45;origin frame. Protocols, domains, and ports must match.&#39;}</text>
</g>
<g id="clust16" class="cluster">
<title>cluster_2</title>
<polygon fill="none" stroke="#000000" points="4478,-190.4264 4478,-1492.5584 9449,-1492.5584 9449,-190.4264 4478,-190.4264"/>
<text text-anchor="middle" x="6963.5" y="-1456.5584" font-family="Times,serif" font-size="40.00" fill="#000000">Tree 0, Class {&#39;code&#39;: 18, &#39;name&#39;: &#39;SecurityError&#39;, &#39;message&#39;: &#39;Sandbox access violation: Blocked a frame at http://localhost:8001 from accessing a cross&#45;origin frame. &#160;The frame being accessed is sandboxed and lacks the allow&#45;same&#45;origin flag.&#39;}</text>
</g>
<!-- SG_0_Node_0 -->
<g id="node1" class="node">
<title>SG_0_Node_0</title>
<polygon fill="none" stroke="#000000" points="264,-1432.5584 122,-1432.5584 122,-1396.5584 264,-1396.5584 264,-1432.5584"/>
<text text-anchor="middle" x="193" y="-1409.5584" font-family="Times,serif" font-size="20.00" fill="#000000">Status&#45;Code</text>
</g>
<!-- SG_0_Node_1 -->
<g id="node2" class="node">
<title>SG_0_Node_1</title>
<polygon fill="none" stroke="#000000" points="219.5,-1099.3452 28.5,-1099.3452 28.5,-1063.3452 219.5,-1063.3452 219.5,-1099.3452"/>
<text text-anchor="middle" x="124" y="-1076.3452" font-family="Times,serif" font-size="20.00" fill="#000000">X&#45;Frame&#45;Options</text>
</g>
<!-- SG_0_Node_0&#45;&gt;SG_0_Node_1 -->
<g id="edge1" class="edge">
<title>SG_0_Node_0&#45;&gt;SG_0_Node_1</title>
<path fill="none" stroke="#000000" d="M175.8357,-1396.1805C167.4858,-1386.1286 158.1595,-1373.007 153,-1359.5584 119.8713,-1273.2062 119.9846,-1161.3553 122.2144,-1109.7392"/>
<polygon fill="#000000" stroke="#000000" points="125.7141,-1109.8304 122.7112,-1099.67 118.7226,-1109.4854 125.7141,-1109.8304"/>
<text text-anchor="middle" x="199" y="-1255.5584" font-family="Times,serif" font-size="20.00" fill="#000000">[NA]</text>
<text text-anchor="middle" x="199" y="-1233.5584" font-family="Times,serif" font-size="20.00" fill="#000000">58 levels</text>
</g>
<!-- SG_0_Node_6 -->
<g id="node3" class="node">
<title>SG_0_Node_6</title>
<ellipse fill="none" stroke="#000000" cx="272" cy="-1081.3452" rx="34.7971" ry="21.4286"/>
<text text-anchor="middle" x="272" y="-1076.3452" font-family="Times,serif" font-size="20.00" fill="#000000">1.0</text>
</g>
<!-- SG_0_Node_0&#45;&gt;SG_0_Node_6 -->
<g id="edge2" class="edge">
<title>SG_0_Node_0&#45;&gt;SG_0_Node_6</title>
<path fill="none" stroke="#000000" d="M216.1729,-1396.3915C226.8315,-1386.6765 238.5231,-1373.7914 245,-1359.5584 282.6088,-1276.9132 279.665,-1166.4541 275.3571,-1112.9891"/>
<polygon fill="#000000" stroke="#000000" points="278.8219,-1112.4335 274.4601,-1102.7782 271.8487,-1113.0461 278.8219,-1112.4335"/>
<text text-anchor="middle" x="296.5" y="-1277.5584" font-family="Times,serif" font-size="20.00" fill="#000000">100</text>
<text text-anchor="middle" x="296.5" y="-1255.5584" font-family="Times,serif" font-size="20.00" fill="#000000">102</text>
<text text-anchor="middle" x="296.5" y="-1233.5584" font-family="Times,serif" font-size="20.00" fill="#000000">103</text>
<text text-anchor="middle" x="296.5" y="-1211.5584" font-family="Times,serif" font-size="20.00" fill="#000000">407</text>
</g>
<!-- SG_0_Node_7 -->
<g id="node4" class="node">
<title>SG_0_Node_7</title>
<ellipse fill="none" stroke="#000000" cx="87" cy="-898.9188" rx="34.7971" ry="21.4286"/>
<text text-anchor="middle" x="87" y="-893.9188" font-family="Times,serif" font-size="20.00" fill="#000000">0.0</text>
</g>
<!-- SG_0_Node_1&#45;&gt;SG_0_Node_7 -->
<g id="edge3" class="edge">
<title>SG_0_Node_1&#45;&gt;SG_0_Node_7</title>
<path fill="none" stroke="#000000" d="M120.317,-1063.1866C114.0181,-1032.1303 101.1057,-968.4662 93.3356,-930.156"/>
<polygon fill="#000000" stroke="#000000" points="96.7081,-929.1758 91.2901,-920.0711 89.8478,-930.5673 96.7081,-929.1758"/>
<text text-anchor="middle" x="136.5" y="-985.132" font-family="Times,serif" font-size="20.00" fill="#000000">deny</text>
</g>
<!-- SG_0_Node_2 -->
<g id="node5" class="node">
<title>SG_0_Node_2</title>
<polygon fill="none" stroke="#000000" points="360.5,-916.9188 139.5,-916.9188 139.5,-880.9188 360.5,-880.9188 360.5,-916.9188"/>
<text text-anchor="middle" x="250" y="-893.9188" font-family="Times,serif" font-size="20.00" fill="#000000">Content&#45;Disposition</text>
</g>
<!-- SG_0_Node_1&#45;&gt;SG_0_Node_2 -->
<g id="edge4" class="edge">
<title>SG_0_Node_1&#45;&gt;SG_0_Node_2</title>
<path fill="none" stroke="#000000" d="M136.806,-1063.2962C144.9237,-1051.8221 155.6239,-1036.6372 165,-1023.132 188.3282,-989.5305 214.91,-950.5767 232.0433,-925.3809"/>
<polygon fill="#000000" stroke="#000000" points="234.9626,-927.3121 237.6886,-917.0739 229.173,-923.3775 234.9626,-927.3121"/>
<text text-anchor="middle" x="242" y="-996.132" font-family="Times,serif" font-size="20.00" fill="#000000">[NA]</text>
<text text-anchor="middle" x="242" y="-974.132" font-family="Times,serif" font-size="20.00" fill="#000000">empty</text>
</g>
<!-- SG_0_Node_8 -->
<g id="node6" class="node">
<title>SG_0_Node_8</title>
<ellipse fill="none" stroke="#000000" cx="136" cy="-650.4924" rx="34.7971" ry="21.4286"/>
<text text-anchor="middle" x="136" y="-645.4924" font-family="Times,serif" font-size="20.00" fill="#000000">0.0</text>
</g>
<!-- SG_0_Node_2&#45;&gt;SG_0_Node_8 -->
<g id="edge5" class="edge">
<title>SG_0_Node_2&#45;&gt;SG_0_Node_8</title>
<path fill="none" stroke="#000000" d="M230.2333,-880.8348C219.4473,-870.0665 206.5826,-855.6232 198,-840.7056 168.2348,-788.9704 150.4933,-720.9819 142.0454,-681.8723"/>
<polygon fill="#000000" stroke="#000000" points="145.3795,-680.7166 139.9068,-671.6447 138.5277,-682.1494 145.3795,-680.7166"/>
<text text-anchor="middle" x="230" y="-769.7056" font-family="Times,serif" font-size="20.00" fill="#000000">empty</text>
</g>
<!-- SG_0_Node_3 -->
<g id="node7" class="node">
<title>SG_0_Node_3</title>
<polygon fill="none" stroke="#000000" points="449,-668.4924 189,-668.4924 189,-632.4924 449,-632.4924 449,-668.4924"/>
<text text-anchor="middle" x="319" y="-645.4924" font-family="Times,serif" font-size="20.00" fill="#000000">Content&#45;Security&#45;Policy</text>
</g>
<!-- SG_0_Node_2&#45;&gt;SG_0_Node_3 -->
<g id="edge6" class="edge">
<title>SG_0_Node_2&#45;&gt;SG_0_Node_3</title>
<path fill="none" stroke="#000000" d="M255.0737,-880.6514C267.0115,-837.6709 296.9413,-729.9122 311.2049,-678.5578"/>
<polygon fill="#000000" stroke="#000000" points="314.6149,-679.3585 313.9188,-668.7866 307.8702,-677.4852 314.6149,-679.3585"/>
<text text-anchor="middle" x="361" y="-780.7056" font-family="Times,serif" font-size="20.00" fill="#000000">[NA]</text>
<text text-anchor="middle" x="361" y="-758.7056" font-family="Times,serif" font-size="20.00" fill="#000000">attachment</text>
</g>
<!-- SG_0_Node_9 -->
<g id="node8" class="node">
<title>SG_0_Node_9</title>
<ellipse fill="none" stroke="#000000" cx="111" cy="-468.066" rx="34.7971" ry="21.4286"/>
<text text-anchor="middle" x="111" y="-463.066" font-family="Times,serif" font-size="20.00" fill="#000000">0.0</text>
</g>
<!-- SG_0_Node_3&#45;&gt;SG_0_Node_9 -->
<g id="edge7" class="edge">
<title>SG_0_Node_3&#45;&gt;SG_0_Node_9</title>
<path fill="none" stroke="#000000" d="M210.4994,-632.4747C166.9523,-622.8324 123.9743,-609.3831 111,-592.2792 90.8919,-565.7708 95.0218,-526.0963 101.4776,-498.7548"/>
<polygon fill="#000000" stroke="#000000" points="104.9023,-499.4909 104.02,-488.9329 98.1257,-497.7367 104.9023,-499.4909"/>
<text text-anchor="middle" x="221.5" y="-554.2792" font-family="Times,serif" font-size="20.00" fill="#000000">frame&#45;ancestors &#39;self&#39;</text>
</g>
<!-- SG_0_Node_4 -->
<g id="node9" class="node">
<title>SG_0_Node_4</title>
<polygon fill="none" stroke="#000000" points="439,-486.066 297,-486.066 297,-450.066 439,-450.066 439,-486.066"/>
<text text-anchor="middle" x="368" y="-463.066" font-family="Times,serif" font-size="20.00" fill="#000000">Status&#45;Code</text>
</g>
<!-- SG_0_Node_3&#45;&gt;SG_0_Node_4 -->
<g id="edge8" class="edge">
<title>SG_0_Node_3&#45;&gt;SG_0_Node_4</title>
<path fill="none" stroke="#000000" d="M324.4329,-632.4417C327.8465,-620.9669 332.2901,-605.7819 336,-592.2792 345.034,-559.3984 354.7096,-521.4119 361.0271,-496.1917"/>
<polygon fill="#000000" stroke="#000000" points="364.4909,-496.7667 363.5173,-486.2167 357.6993,-495.0711 364.4909,-496.7667"/>
<text text-anchor="middle" x="435.5" y="-576.2792" font-family="Times,serif" font-size="20.00" fill="#000000">[NA]</text>
<text text-anchor="middle" x="435.5" y="-554.2792" font-family="Times,serif" font-size="20.00" fill="#000000">default&#45;src &#39;self&#39;</text>
<text text-anchor="middle" x="435.5" y="-532.2792" font-family="Times,serif" font-size="20.00" fill="#000000">empty</text>
</g>
<!-- SG_0_Node_5 -->
<g id="node10" class="node">
<title>SG_0_Node_5</title>
<polygon fill="none" stroke="#000000" points="378.5,-237.6396 273.5,-237.6396 273.5,-201.6396 378.5,-201.6396 378.5,-237.6396"/>
<text text-anchor="middle" x="326" y="-214.6396" font-family="Times,serif" font-size="20.00" fill="#000000">Location</text>
</g>
<!-- SG_0_Node_4&#45;&gt;SG_0_Node_5 -->
<g id="edge9" class="edge">
<title>SG_0_Node_4&#45;&gt;SG_0_Node_5</title>
<path fill="none" stroke="#000000" d="M364.8759,-449.9757C362.8957,-438.4856 360.2858,-423.2984 358,-409.8528 348.2177,-352.312 336.9224,-284.9514 330.7088,-247.815"/>
<polygon fill="#000000" stroke="#000000" points="334.1254,-247.0252 329.0236,-237.7396 327.2213,-248.18 334.1254,-247.0252"/>
<text text-anchor="middle" x="377.5" y="-393.8528" font-family="Times,serif" font-size="20.00" fill="#000000">301</text>
<text text-anchor="middle" x="377.5" y="-371.8528" font-family="Times,serif" font-size="20.00" fill="#000000">302</text>
<text text-anchor="middle" x="377.5" y="-349.8528" font-family="Times,serif" font-size="20.00" fill="#000000">303</text>
<text text-anchor="middle" x="377.5" y="-327.8528" font-family="Times,serif" font-size="20.00" fill="#000000">305</text>
<text text-anchor="middle" x="377.5" y="-305.8528" font-family="Times,serif" font-size="20.00" fill="#000000">307</text>
<text text-anchor="middle" x="377.5" y="-283.8528" font-family="Times,serif" font-size="20.00" fill="#000000">308</text>
</g>
<!-- SG_0_Node_10 -->
<g id="node11" class="node">
<title>SG_0_Node_10</title>
<ellipse fill="none" stroke="#000000" cx="431" cy="-219.6396" rx="34.7971" ry="21.4286"/>
<text text-anchor="middle" x="431" y="-214.6396" font-family="Times,serif" font-size="20.00" fill="#000000">1.0</text>
</g>
<!-- SG_0_Node_4&#45;&gt;SG_0_Node_10 -->
<g id="edge10" class="edge">
<title>SG_0_Node_4&#45;&gt;SG_0_Node_10</title>
<path fill="none" stroke="#000000" d="M378.6671,-450.0266C384.8688,-438.8098 392.3537,-423.8955 397,-409.8528 414.9638,-355.5598 424.0799,-289.2281 428.166,-250.9664"/>
<polygon fill="#000000" stroke="#000000" points="431.6545,-251.2561 429.1883,-240.9523 424.6907,-250.5452 431.6545,-251.2561"/>
<text text-anchor="middle" x="470" y="-349.8528" font-family="Times,serif" font-size="20.00" fill="#000000">[NA]</text>
<text text-anchor="middle" x="470" y="-327.8528" font-family="Times,serif" font-size="20.00" fill="#000000">52 levels</text>
</g>
<!-- SG_0_Node_11 -->
<g id="node12" class="node">
<title>SG_0_Node_11</title>
<ellipse fill="none" stroke="#000000" cx="54" cy="-37.2132" rx="34.7971" ry="21.4286"/>
<text text-anchor="middle" x="54" y="-32.2132" font-family="Times,serif" font-size="20.00" fill="#000000">0.0</text>
</g>
<!-- SG_0_Node_5&#45;&gt;SG_0_Node_11 -->
<g id="edge11" class="edge">
<title>SG_0_Node_5&#45;&gt;SG_0_Node_11</title>
<path fill="none" stroke="#000000" d="M273.357,-215.5579C203.8295,-208.9739 87.0099,-193.3764 60,-161.4264 38.4945,-135.9876 40.732,-96.0935 45.9046,-68.4085"/>
<polygon fill="#000000" stroke="#000000" points="49.3657,-68.9562 47.9874,-58.4514 42.514,-67.5229 49.3657,-68.9562"/>
<text text-anchor="middle" x="197" y="-145.4264" font-family="Times,serif" font-size="20.00" fill="#000000">[NA]</text>
<text text-anchor="middle" x="197" y="-123.4264" font-family="Times,serif" font-size="20.00" fill="#000000">/</text>
<text text-anchor="middle" x="197" y="-101.4264" font-family="Times,serif" font-size="20.00" fill="#000000">http://localhost:8000/echo/</text>
</g>
<!-- SG_0_Node_12 -->
<g id="node13" class="node">
<title>SG_0_Node_12</title>
<ellipse fill="none" stroke="#000000" cx="364" cy="-37.2132" rx="34.7971" ry="21.4286"/>
<text text-anchor="middle" x="364" y="-32.2132" font-family="Times,serif" font-size="20.00" fill="#000000">1.0</text>
</g>
<!-- SG_0_Node_5&#45;&gt;SG_0_Node_12 -->
<g id="edge12" class="edge">
<title>SG_0_Node_5&#45;&gt;SG_0_Node_12</title>
<path fill="none" stroke="#000000" d="M329.7825,-201.4809C336.2516,-170.4246 349.5131,-106.7606 357.4932,-68.4504"/>
<polygon fill="#000000" stroke="#000000" points="360.981,-68.8691 359.5939,-58.3655 354.1281,-67.4416 360.981,-68.8691"/>
<text text-anchor="middle" x="383" y="-123.4264" font-family="Times,serif" font-size="20.00" fill="#000000">empty</text>
</g>
<!-- SG_1_Node_0 -->
<g id="node14" class="node">
<title>SG_1_Node_0</title>
<polygon fill="none" stroke="#000000" points="952,-1432.5584 810,-1432.5584 810,-1396.5584 952,-1396.5584 952,-1432.5584"/>
<text text-anchor="middle" x="881" y="-1409.5584" font-family="Times,serif" font-size="20.00" fill="#000000">Status&#45;Code</text>
</g>
<!-- SG_1_Node_1 -->
<g id="node15" class="node">
<title>SG_1_Node_1</title>
<polygon fill="none" stroke="#000000" points="880.5,-1099.3452 659.5,-1099.3452 659.5,-1063.3452 880.5,-1063.3452 880.5,-1099.3452"/>
<text text-anchor="middle" x="770" y="-1076.3452" font-family="Times,serif" font-size="20.00" fill="#000000">Content&#45;Disposition</text>
</g>
<!-- SG_1_Node_0&#45;&gt;SG_1_Node_1 -->
<g id="edge13" class="edge">
<title>SG_1_Node_0&#45;&gt;SG_1_Node_1</title>
<path fill="none" stroke="#000000" d="M842.5248,-1396.3281C827.7575,-1387.348 812.2447,-1375.074 803,-1359.5584 755.135,-1279.2254 760.551,-1162.6412 766.216,-1109.5621"/>
<polygon fill="#000000" stroke="#000000" points="769.7043,-1109.8637 767.373,-1099.5286 762.7504,-1109.0618 769.7043,-1109.8637"/>
<text text-anchor="middle" x="849" y="-1255.5584" font-family="Times,serif" font-size="20.00" fill="#000000">[NA]</text>
<text text-anchor="middle" x="849" y="-1233.5584" font-family="Times,serif" font-size="20.00" fill="#000000">56 levels</text>
</g>
<!-- SG_1_Node_2 -->
<g id="node16" class="node">
<title>SG_1_Node_2</title>
<polygon fill="none" stroke="#000000" points="1043.5,-1099.3452 938.5,-1099.3452 938.5,-1063.3452 1043.5,-1063.3452 1043.5,-1099.3452"/>
<text text-anchor="middle" x="991" y="-1076.3452" font-family="Times,serif" font-size="20.00" fill="#000000">Location</text>
</g>
<!-- SG_1_Node_0&#45;&gt;SG_1_Node_2 -->
<g id="edge14" class="edge">
<title>SG_1_Node_0&#45;&gt;SG_1_Node_2</title>
<path fill="none" stroke="#000000" d="M887.0708,-1396.1688C905.3261,-1340.8697 959.8091,-1175.829 981.7214,-1109.4521"/>
<polygon fill="#000000" stroke="#000000" points="985.1367,-1110.2712 984.948,-1099.678 978.4896,-1108.0768 985.1367,-1110.2712"/>
<text text-anchor="middle" x="990.5" y="-1299.5584" font-family="Times,serif" font-size="20.00" fill="#000000">301</text>
<text text-anchor="middle" x="990.5" y="-1277.5584" font-family="Times,serif" font-size="20.00" fill="#000000">302</text>
<text text-anchor="middle" x="990.5" y="-1255.5584" font-family="Times,serif" font-size="20.00" fill="#000000">303</text>
<text text-anchor="middle" x="990.5" y="-1233.5584" font-family="Times,serif" font-size="20.00" fill="#000000">305</text>
<text text-anchor="middle" x="990.5" y="-1211.5584" font-family="Times,serif" font-size="20.00" fill="#000000">307</text>
<text text-anchor="middle" x="990.5" y="-1189.5584" font-family="Times,serif" font-size="20.00" fill="#000000">308</text>
</g>
<!-- SG_1_Node_9 -->
<g id="node17" class="node">
<title>SG_1_Node_9</title>
<ellipse fill="none" stroke="#000000" cx="616" cy="-898.9188" rx="34.7971" ry="21.4286"/>
<text text-anchor="middle" x="616" y="-893.9188" font-family="Times,serif" font-size="20.00" fill="#000000">0.0</text>
</g>
<!-- SG_1_Node_1&#45;&gt;SG_1_Node_9 -->
<g id="edge23" class="edge">
<title>SG_1_Node_1&#45;&gt;SG_1_Node_9</title>
<path fill="none" stroke="#000000" d="M703.483,-1063.2734C682.0214,-1054.402 659.9421,-1041.5282 645,-1023.132 623.6769,-996.8798 617.4744,-957.7415 615.9403,-930.4361"/>
<polygon fill="#000000" stroke="#000000" points="619.4303,-930.1049 615.5516,-920.2456 612.4353,-930.3717 619.4303,-930.1049"/>
<text text-anchor="middle" x="704" y="-996.132" font-family="Times,serif" font-size="20.00" fill="#000000">[NA]</text>
<text text-anchor="middle" x="704" y="-974.132" font-family="Times,serif" font-size="20.00" fill="#000000">attachment</text>
</g>
<!-- SG_1_Node_3 -->
<g id="node18" class="node">
<title>SG_1_Node_3</title>
<polygon fill="none" stroke="#000000" points="862.5,-916.9188 671.5,-916.9188 671.5,-880.9188 862.5,-880.9188 862.5,-916.9188"/>
<text text-anchor="middle" x="767" y="-893.9188" font-family="Times,serif" font-size="20.00" fill="#000000">X&#45;Frame&#45;Options</text>
</g>
<!-- SG_1_Node_1&#45;&gt;SG_1_Node_3 -->
<g id="edge24" class="edge">
<title>SG_1_Node_1&#45;&gt;SG_1_Node_3</title>
<path fill="none" stroke="#000000" d="M769.7014,-1063.1866C769.178,-1031.3607 768.0915,-965.291 767.4676,-927.3557"/>
<polygon fill="#000000" stroke="#000000" points="770.9615,-926.9451 767.2974,-917.0041 763.9624,-927.0603 770.9615,-926.9451"/>
<text text-anchor="middle" x="801" y="-985.132" font-family="Times,serif" font-size="20.00" fill="#000000">empty</text>
</g>
<!-- SG_1_Node_4 -->
<g id="node19" class="node">
<title>SG_1_Node_4</title>
<polygon fill="none" stroke="#000000" points="1101.5,-916.9188 880.5,-916.9188 880.5,-880.9188 1101.5,-880.9188 1101.5,-916.9188"/>
<text text-anchor="middle" x="991" y="-893.9188" font-family="Times,serif" font-size="20.00" fill="#000000">Content&#45;Disposition</text>
</g>
<!-- SG_1_Node_2&#45;&gt;SG_1_Node_4 -->
<g id="edge15" class="edge">
<title>SG_1_Node_2&#45;&gt;SG_1_Node_4</title>
<path fill="none" stroke="#000000" d="M991,-1063.1866C991,-1031.3607 991,-965.291 991,-927.3557"/>
<polygon fill="#000000" stroke="#000000" points="994.5001,-927.004 991,-917.0041 987.5001,-927.0041 994.5001,-927.004"/>
<text text-anchor="middle" x="1023" y="-985.132" font-family="Times,serif" font-size="20.00" fill="#000000">empty</text>
</g>
<!-- SG_1_Node_10 -->
<g id="node20" class="node">
<title>SG_1_Node_10</title>
<ellipse fill="none" stroke="#000000" cx="1154" cy="-898.9188" rx="34.7971" ry="21.4286"/>
<text text-anchor="middle" x="1154" y="-893.9188" font-family="Times,serif" font-size="20.00" fill="#000000">1.0</text>
</g>
<!-- SG_1_Node_2&#45;&gt;SG_1_Node_10 -->
<g id="edge16" class="edge">
<title>SG_1_Node_2&#45;&gt;SG_1_Node_10</title>
<path fill="none" stroke="#000000" d="M1014.4275,-1063.3303C1028.0612,-1052.3606 1045.2202,-1037.6928 1059,-1023.132 1088.0049,-992.4834 1116.8089,-953.2628 1134.964,-927.1771"/>
<polygon fill="#000000" stroke="#000000" points="1137.9003,-929.0844 1140.6976,-918.8655 1132.1382,-925.1095 1137.9003,-929.0844"/>
<text text-anchor="middle" x="1250" y="-1007.132" font-family="Times,serif" font-size="20.00" fill="#000000">[NA]</text>
<text text-anchor="middle" x="1250" y="-985.132" font-family="Times,serif" font-size="20.00" fill="#000000">/</text>
<text text-anchor="middle" x="1250" y="-963.132" font-family="Times,serif" font-size="20.00" fill="#000000">http://localhost:8000/echo/</text>
</g>
<!-- SG_1_Node_11 -->
<g id="node21" class="node">
<title>SG_1_Node_11</title>
<ellipse fill="none" stroke="#000000" cx="610" cy="-650.4924" rx="34.7971" ry="21.4286"/>
<text text-anchor="middle" x="610" y="-645.4924" font-family="Times,serif" font-size="20.00" fill="#000000">0.0</text>
</g>
<!-- SG_1_Node_3&#45;&gt;SG_1_Node_11 -->
<g id="edge25" class="edge">
<title>SG_1_Node_3&#45;&gt;SG_1_Node_11</title>
<path fill="none" stroke="#000000" d="M751.2159,-880.8681C741.7142,-869.6472 729.6327,-854.7325 720,-840.7056 682.4732,-786.0602 645.2079,-717.9566 625.1405,-679.8448"/>
<polygon fill="#000000" stroke="#000000" points="628.1587,-678.0637 620.4195,-670.828 621.9573,-681.3107 628.1587,-678.0637"/>
<text text-anchor="middle" x="744.5" y="-769.7056" font-family="Times,serif" font-size="20.00" fill="#000000">deny</text>
</g>
<!-- SG_1_Node_5 -->
<g id="node22" class="node">
<title>SG_1_Node_5</title>
<polygon fill="none" stroke="#000000" points="923,-668.4924 663,-668.4924 663,-632.4924 923,-632.4924 923,-668.4924"/>
<text text-anchor="middle" x="793" y="-645.4924" font-family="Times,serif" font-size="20.00" fill="#000000">Content&#45;Security&#45;Policy</text>
</g>
<!-- SG_1_Node_3&#45;&gt;SG_1_Node_5 -->
<g id="edge26" class="edge">
<title>SG_1_Node_3&#45;&gt;SG_1_Node_5</title>
<path fill="none" stroke="#000000" d="M768.9118,-880.6514C773.4007,-837.7606 784.641,-730.3618 790.029,-678.8802"/>
<polygon fill="#000000" stroke="#000000" points="793.5254,-679.0966 791.0854,-668.7866 786.5634,-678.3679 793.5254,-679.0966"/>
<text text-anchor="middle" x="818" y="-780.7056" font-family="Times,serif" font-size="20.00" fill="#000000">[NA]</text>
<text text-anchor="middle" x="818" y="-758.7056" font-family="Times,serif" font-size="20.00" fill="#000000">empty</text>
</g>
<!-- SG_1_Node_12 -->
<g id="node23" class="node">
<title>SG_1_Node_12</title>
<ellipse fill="none" stroke="#000000" cx="982" cy="-650.4924" rx="34.7971" ry="21.4286"/>
<text text-anchor="middle" x="982" y="-645.4924" font-family="Times,serif" font-size="20.00" fill="#000000">0.0</text>
</g>
<!-- SG_1_Node_4&#45;&gt;SG_1_Node_12 -->
<g id="edge17" class="edge">
<title>SG_1_Node_4&#45;&gt;SG_1_Node_12</title>
<path fill="none" stroke="#000000" d="M990.3382,-880.6514C988.8153,-838.6144 985.0475,-734.6118 983.1422,-682.0199"/>
<polygon fill="#000000" stroke="#000000" points="986.6361,-681.786 982.7763,-671.9193 979.6407,-682.0395 986.6361,-681.786"/>
<text text-anchor="middle" x="1047" y="-780.7056" font-family="Times,serif" font-size="20.00" fill="#000000">[NA]</text>
<text text-anchor="middle" x="1047" y="-758.7056" font-family="Times,serif" font-size="20.00" fill="#000000">attachment</text>
</g>
<!-- SG_1_Node_6 -->
<g id="node24" class="node">
<title>SG_1_Node_6</title>
<polygon fill="none" stroke="#000000" points="1231.5,-668.4924 1040.5,-668.4924 1040.5,-632.4924 1231.5,-632.4924 1231.5,-668.4924"/>
<text text-anchor="middle" x="1136" y="-645.4924" font-family="Times,serif" font-size="20.00" fill="#000000">X&#45;Frame&#45;Options</text>
</g>
<!-- SG_1_Node_4&#45;&gt;SG_1_Node_6 -->
<g id="edge18" class="edge">
<title>SG_1_Node_4&#45;&gt;SG_1_Node_6</title>
<path fill="none" stroke="#000000" d="M1055.3252,-880.912C1075.8438,-872.0462 1096.6622,-859.1594 1110,-840.7056 1144.9641,-792.3302 1143.734,-718.5547 1139.8383,-678.588"/>
<polygon fill="#000000" stroke="#000000" points="1143.3003,-678.0495 1138.7254,-668.4933 1136.3424,-678.8167 1143.3003,-678.0495"/>
<text text-anchor="middle" x="1173" y="-769.7056" font-family="Times,serif" font-size="20.00" fill="#000000">empty</text>
</g>
<!-- SG_1_Node_13 -->
<g id="node25" class="node">
<title>SG_1_Node_13</title>
<ellipse fill="none" stroke="#000000" cx="633" cy="-468.066" rx="34.7971" ry="21.4286"/>
<text text-anchor="middle" x="633" y="-463.066" font-family="Times,serif" font-size="20.00" fill="#000000">0.0</text>
</g>
<!-- SG_1_Node_5&#45;&gt;SG_1_Node_13 -->
<g id="edge27" class="edge">
<title>SG_1_Node_5&#45;&gt;SG_1_Node_13</title>
<path fill="none" stroke="#000000" d="M718.9512,-632.3776C682.3004,-621.7596 643.6398,-607.4725 633,-592.2792 614.0239,-565.1821 617.7898,-525.9579 623.8563,-498.8703"/>
<polygon fill="#000000" stroke="#000000" points="627.2614,-499.6801 626.2513,-489.1336 620.464,-498.0081 627.2614,-499.6801"/>
<text text-anchor="middle" x="743.5" y="-554.2792" font-family="Times,serif" font-size="20.00" fill="#000000">frame&#45;ancestors &#39;self&#39;</text>
</g>
<!-- SG_1_Node_7 -->
<g id="node26" class="node">
<title>SG_1_Node_7</title>
<polygon fill="none" stroke="#000000" points="961,-486.066 819,-486.066 819,-450.066 961,-450.066 961,-486.066"/>
<text text-anchor="middle" x="890" y="-463.066" font-family="Times,serif" font-size="20.00" fill="#000000">Status&#45;Code</text>
</g>
<!-- SG_1_Node_5&#45;&gt;SG_1_Node_7 -->
<g id="edge28" class="edge">
<title>SG_1_Node_5&#45;&gt;SG_1_Node_7</title>
<path fill="none" stroke="#000000" d="M819.8915,-632.321C833.1863,-622.0321 848.3986,-608.071 858,-592.2792 876.0992,-562.5109 884.0278,-522.7375 887.4572,-496.3048"/>
<polygon fill="#000000" stroke="#000000" points="890.9536,-496.5377 888.6333,-486.2001 884.0006,-495.7284 890.9536,-496.5377"/>
<text text-anchor="middle" x="964.5" y="-576.2792" font-family="Times,serif" font-size="20.00" fill="#000000">[NA]</text>
<text text-anchor="middle" x="964.5" y="-554.2792" font-family="Times,serif" font-size="20.00" fill="#000000">default&#45;src &#39;self&#39;</text>
<text text-anchor="middle" x="964.5" y="-532.2792" font-family="Times,serif" font-size="20.00" fill="#000000">empty</text>
</g>
<!-- SG_1_Node_14 -->
<g id="node27" class="node">
<title>SG_1_Node_14</title>
<ellipse fill="none" stroke="#000000" cx="1057" cy="-468.066" rx="34.7971" ry="21.4286"/>
<text text-anchor="middle" x="1057" y="-463.066" font-family="Times,serif" font-size="20.00" fill="#000000">0.0</text>
</g>
<!-- SG_1_Node_6&#45;&gt;SG_1_Node_14 -->
<g id="edge19" class="edge">
<title>SG_1_Node_6&#45;&gt;SG_1_Node_14</title>
<path fill="none" stroke="#000000" d="M1128.1364,-632.3337C1114.5583,-600.9793 1086.5869,-536.3879 1070.0525,-498.2068"/>
<polygon fill="#000000" stroke="#000000" points="1073.0981,-496.4319 1065.9123,-488.6463 1066.6745,-499.2137 1073.0981,-496.4319"/>
<text text-anchor="middle" x="1134.5" y="-554.2792" font-family="Times,serif" font-size="20.00" fill="#000000">deny</text>
</g>
<!-- SG_1_Node_8 -->
<g id="node28" class="node">
<title>SG_1_Node_8</title>
<polygon fill="none" stroke="#000000" points="1370,-486.066 1110,-486.066 1110,-450.066 1370,-450.066 1370,-486.066"/>
<text text-anchor="middle" x="1240" y="-463.066" font-family="Times,serif" font-size="20.00" fill="#000000">Content&#45;Security&#45;Policy</text>
</g>
<!-- SG_1_Node_6&#45;&gt;SG_1_Node_8 -->
<g id="edge20" class="edge">
<title>SG_1_Node_6&#45;&gt;SG_1_Node_8</title>
<path fill="none" stroke="#000000" d="M1146.3521,-632.3337C1164.7294,-600.0981 1203.1348,-532.7312 1224.6157,-495.0517"/>
<polygon fill="#000000" stroke="#000000" points="1227.7776,-496.5721 1229.6897,-486.1513 1221.6964,-493.1053 1227.7776,-496.5721"/>
<text text-anchor="middle" x="1238" y="-565.2792" font-family="Times,serif" font-size="20.00" fill="#000000">[NA]</text>
<text text-anchor="middle" x="1238" y="-543.2792" font-family="Times,serif" font-size="20.00" fill="#000000">empty</text>
</g>
<!-- SG_1_Node_15 -->
<g id="node29" class="node">
<title>SG_1_Node_15</title>
<ellipse fill="none" stroke="#000000" cx="846" cy="-219.6396" rx="34.7971" ry="21.4286"/>
<text text-anchor="middle" x="846" y="-214.6396" font-family="Times,serif" font-size="20.00" fill="#000000">0.0</text>
</g>
<!-- SG_1_Node_7&#45;&gt;SG_1_Node_15 -->
<g id="edge29" class="edge">
<title>SG_1_Node_7&#45;&gt;SG_1_Node_15</title>
<path fill="none" stroke="#000000" d="M876.8228,-449.9136C869.5848,-438.8967 861.2385,-424.2274 857,-409.8528 841.0516,-355.7657 841.4658,-289.3656 843.5226,-251.0353"/>
<polygon fill="#000000" stroke="#000000" points="847.0192,-251.1966 844.1341,-241.0021 840.0322,-250.7707 847.0192,-251.1966"/>
<text text-anchor="middle" x="876.5" y="-371.8528" font-family="Times,serif" font-size="20.00" fill="#000000">100</text>
<text text-anchor="middle" x="876.5" y="-349.8528" font-family="Times,serif" font-size="20.00" fill="#000000">102</text>
<text text-anchor="middle" x="876.5" y="-327.8528" font-family="Times,serif" font-size="20.00" fill="#000000">103</text>
<text text-anchor="middle" x="876.5" y="-305.8528" font-family="Times,serif" font-size="20.00" fill="#000000">407</text>
</g>
<!-- SG_1_Node_16 -->
<g id="node30" class="node">
<title>SG_1_Node_16</title>
<ellipse fill="none" stroke="#000000" cx="933" cy="-219.6396" rx="34.7971" ry="21.4286"/>
<text text-anchor="middle" x="933" y="-214.6396" font-family="Times,serif" font-size="20.00" fill="#000000">1.0</text>
</g>
<!-- SG_1_Node_7&#45;&gt;SG_1_Node_16 -->
<g id="edge30" class="edge">
<title>SG_1_Node_7&#45;&gt;SG_1_Node_16</title>
<path fill="none" stroke="#000000" d="M893.1619,-449.7986C900.4381,-407.7616 918.4398,-303.759 927.5429,-251.1671"/>
<polygon fill="#000000" stroke="#000000" points="931.0343,-251.5169 929.2912,-241.0665 924.1369,-250.323 931.0343,-251.5169"/>
<text text-anchor="middle" x="968" y="-349.8528" font-family="Times,serif" font-size="20.00" fill="#000000">[NA]</text>
<text text-anchor="middle" x="968" y="-327.8528" font-family="Times,serif" font-size="20.00" fill="#000000">52 levels</text>
</g>
<!-- SG_1_Node_17 -->
<g id="node31" class="node">
<title>SG_1_Node_17</title>
<ellipse fill="none" stroke="#000000" cx="1147" cy="-219.6396" rx="34.7971" ry="21.4286"/>
<text text-anchor="middle" x="1147" y="-214.6396" font-family="Times,serif" font-size="20.00" fill="#000000">0.0</text>
</g>
<!-- SG_1_Node_8&#45;&gt;SG_1_Node_17 -->
<g id="edge21" class="edge">
<title>SG_1_Node_8&#45;&gt;SG_1_Node_17</title>
<path fill="none" stroke="#000000" d="M1202.7125,-449.8958C1187.0827,-440.2574 1170.3898,-426.854 1161,-409.8528 1133.3579,-359.804 1136.6353,-290.7353 1141.6978,-251.0731"/>
<polygon fill="#000000" stroke="#000000" points="1145.1957,-251.3308 1143.1128,-240.9427 1138.263,-250.3624 1145.1957,-251.3308"/>
<text text-anchor="middle" x="1271.5" y="-338.8528" font-family="Times,serif" font-size="20.00" fill="#000000">frame&#45;ancestors &#39;self&#39;</text>
</g>
<!-- SG_1_Node_18 -->
<g id="node32" class="node">
<title>SG_1_Node_18</title>
<ellipse fill="none" stroke="#000000" cx="1404" cy="-219.6396" rx="34.7971" ry="21.4286"/>
<text text-anchor="middle" x="1404" y="-214.6396" font-family="Times,serif" font-size="20.00" fill="#000000">1.0</text>
</g>
<!-- SG_1_Node_8&#45;&gt;SG_1_Node_18 -->
<g id="edge22" class="edge">
<title>SG_1_Node_8&#45;&gt;SG_1_Node_18</title>
<path fill="none" stroke="#000000" d="M1324.5321,-450.051C1346.3938,-441.4033 1367.759,-428.6466 1382,-409.8528 1417.0919,-363.5423 1414.5209,-291.8006 1409.3578,-250.9421"/>
<polygon fill="#000000" stroke="#000000" points="1412.8206,-250.4323 1407.9737,-241.0112 1405.8877,-251.3986 1412.8206,-250.4323"/>
<text text-anchor="middle" x="1494.5" y="-360.8528" font-family="Times,serif" font-size="20.00" fill="#000000">[NA]</text>
<text text-anchor="middle" x="1494.5" y="-338.8528" font-family="Times,serif" font-size="20.00" fill="#000000">default&#45;src &#39;self&#39;</text>
<text text-anchor="middle" x="1494.5" y="-316.8528" font-family="Times,serif" font-size="20.00" fill="#000000">empty</text>
</g>
<!-- SG_2_Node_0 -->
<g id="node33" class="node">
<title>SG_2_Node_0</title>
<polygon fill="none" stroke="#000000" points="4994,-1432.5584 4852,-1432.5584 4852,-1396.5584 4994,-1396.5584 4994,-1432.5584"/>
<text text-anchor="middle" x="4923" y="-1409.5584" font-family="Times,serif" font-size="20.00" fill="#000000">Status&#45;Code</text>
</g>
<!-- SG_2_Node_1 -->
<g id="node34" class="node">
<title>SG_2_Node_1</title>
<polygon fill="none" stroke="#000000" points="4888.5,-1099.3452 4783.5,-1099.3452 4783.5,-1063.3452 4888.5,-1063.3452 4888.5,-1099.3452"/>
<text text-anchor="middle" x="4836" y="-1076.3452" font-family="Times,serif" font-size="20.00" fill="#000000">Location</text>
</g>
<!-- SG_2_Node_0&#45;&gt;SG_2_Node_1 -->
<g id="edge31" class="edge">
<title>SG_2_Node_0&#45;&gt;SG_2_Node_1</title>
<path fill="none" stroke="#000000" d="M4918.1986,-1396.1688C4903.7603,-1340.8697 4860.6692,-1175.829 4843.3385,-1109.4521"/>
<polygon fill="#000000" stroke="#000000" points="4846.6994,-1108.4695 4840.7866,-1099.678 4839.9264,-1110.2379 4846.6994,-1108.4695"/>
<text text-anchor="middle" x="4927.5" y="-1343.5584" font-family="Times,serif" font-size="20.00" fill="#000000">100</text>
<text text-anchor="middle" x="4927.5" y="-1321.5584" font-family="Times,serif" font-size="20.00" fill="#000000">102</text>
<text text-anchor="middle" x="4927.5" y="-1299.5584" font-family="Times,serif" font-size="20.00" fill="#000000">103</text>
<text text-anchor="middle" x="4927.5" y="-1277.5584" font-family="Times,serif" font-size="20.00" fill="#000000">301</text>
<text text-anchor="middle" x="4927.5" y="-1255.5584" font-family="Times,serif" font-size="20.00" fill="#000000">302</text>
<text text-anchor="middle" x="4927.5" y="-1233.5584" font-family="Times,serif" font-size="20.00" fill="#000000">303</text>
<text text-anchor="middle" x="4927.5" y="-1211.5584" font-family="Times,serif" font-size="20.00" fill="#000000">305</text>
<text text-anchor="middle" x="4927.5" y="-1189.5584" font-family="Times,serif" font-size="20.00" fill="#000000">307</text>
<text text-anchor="middle" x="4927.5" y="-1167.5584" font-family="Times,serif" font-size="20.00" fill="#000000">308</text>
<text text-anchor="middle" x="4927.5" y="-1145.5584" font-family="Times,serif" font-size="20.00" fill="#000000">407</text>
</g>
<!-- SG_2_Node_2 -->
<g id="node35" class="node">
<title>SG_2_Node_2</title>
<polygon fill="none" stroke="#000000" points="5107.5,-1099.3452 4916.5,-1099.3452 4916.5,-1063.3452 5107.5,-1063.3452 5107.5,-1099.3452"/>
<text text-anchor="middle" x="5012" y="-1076.3452" font-family="Times,serif" font-size="20.00" fill="#000000">X&#45;Frame&#45;Options</text>
</g>
<!-- SG_2_Node_0&#45;&gt;SG_2_Node_2 -->
<g id="edge32" class="edge">
<title>SG_2_Node_0&#45;&gt;SG_2_Node_2</title>
<path fill="none" stroke="#000000" d="M4933.6743,-1396.497C4939.492,-1386.008 4946.4188,-1372.3719 4951,-1359.5584 4982.7052,-1270.8801 5000.9976,-1160.1641 5008.2863,-1109.2817"/>
<polygon fill="#000000" stroke="#000000" points="5011.7548,-1109.7504 5009.6755,-1099.3616 5004.8224,-1108.7796 5011.7548,-1109.7504"/>
<text text-anchor="middle" x="5049" y="-1255.5584" font-family="Times,serif" font-size="20.00" fill="#000000">[NA]</text>
<text text-anchor="middle" x="5049" y="-1233.5584" font-family="Times,serif" font-size="20.00" fill="#000000">52 levels</text>
</g>
<!-- SG_2_Node_7 -->
<g id="node36" class="node">
<title>SG_2_Node_7</title>
<ellipse fill="none" stroke="#000000" cx="4526" cy="-898.9188" rx="34.7971" ry="21.4286"/>
<text text-anchor="middle" x="4526" y="-893.9188" font-family="Times,serif" font-size="20.00" fill="#000000">0.0</text>
</g>
<!-- SG_2_Node_1&#45;&gt;SG_2_Node_7 -->
<g id="edge37" class="edge">
<title>SG_2_Node_1&#45;&gt;SG_2_Node_7</title>
<path fill="none" stroke="#000000" d="M4783.2993,-1079.1527C4704.0764,-1074.6345 4560.1234,-1061.2665 4528,-1023.132 4506.5615,-997.6818 4510.2381,-957.79 4516.5438,-930.1087"/>
<polygon fill="#000000" stroke="#000000" points="4520.0028,-930.7042 4519.0424,-920.153 4513.2134,-929.0003 4520.0028,-930.7042"/>
<text text-anchor="middle" x="4665" y="-1007.132" font-family="Times,serif" font-size="20.00" fill="#000000">[NA]</text>
<text text-anchor="middle" x="4665" y="-985.132" font-family="Times,serif" font-size="20.00" fill="#000000">/</text>
<text text-anchor="middle" x="4665" y="-963.132" font-family="Times,serif" font-size="20.00" fill="#000000">http://localhost:8000/echo/</text>
</g>
<!-- SG_2_Node_3 -->
<g id="node37" class="node">
<title>SG_2_Node_3</title>
<polygon fill="none" stroke="#000000" points="4864,-916.9188 4722,-916.9188 4722,-880.9188 4864,-880.9188 4864,-916.9188"/>
<text text-anchor="middle" x="4793" y="-893.9188" font-family="Times,serif" font-size="20.00" fill="#000000">Status&#45;Code</text>
</g>
<!-- SG_2_Node_1&#45;&gt;SG_2_Node_3 -->
<g id="edge38" class="edge">
<title>SG_2_Node_1&#45;&gt;SG_2_Node_3</title>
<path fill="none" stroke="#000000" d="M4831.7198,-1063.1866C4824.1859,-1031.2241 4808.5109,-964.7233 4799.5881,-926.8688"/>
<polygon fill="#000000" stroke="#000000" points="4802.9639,-925.9343 4797.2629,-917.0041 4796.1506,-927.5404 4802.9639,-925.9343"/>
<text text-anchor="middle" x="4854" y="-985.132" font-family="Times,serif" font-size="20.00" fill="#000000">empty</text>
</g>
<!-- SG_2_Node_4 -->
<g id="node38" class="node">
<title>SG_2_Node_4</title>
<polygon fill="none" stroke="#000000" points="5142,-916.9188 4882,-916.9188 4882,-880.9188 5142,-880.9188 5142,-916.9188"/>
<text text-anchor="middle" x="5012" y="-893.9188" font-family="Times,serif" font-size="20.00" fill="#000000">Content&#45;Security&#45;Policy</text>
</g>
<!-- SG_2_Node_2&#45;&gt;SG_2_Node_4 -->
<g id="edge33" class="edge">
<title>SG_2_Node_2&#45;&gt;SG_2_Node_4</title>
<path fill="none" stroke="#000000" d="M5012,-1063.1866C5012,-1031.3607 5012,-965.291 5012,-927.3557"/>
<polygon fill="#000000" stroke="#000000" points="5015.5001,-927.004 5012,-917.0041 5008.5001,-927.0041 5015.5001,-927.004"/>
<text text-anchor="middle" x="5044" y="-985.132" font-family="Times,serif" font-size="20.00" fill="#000000">empty</text>
</g>
<!-- SG_2_Node_8 -->
<g id="node39" class="node">
<title>SG_2_Node_8</title>
<ellipse fill="none" stroke="#000000" cx="5195" cy="-898.9188" rx="34.7971" ry="21.4286"/>
<text text-anchor="middle" x="5195" y="-893.9188" font-family="Times,serif" font-size="20.00" fill="#000000">1.0</text>
</g>
<!-- SG_2_Node_2&#45;&gt;SG_2_Node_8 -->
<g id="edge34" class="edge">
<title>SG_2_Node_2&#45;&gt;SG_2_Node_8</title>
<path fill="none" stroke="#000000" d="M5034.6213,-1063.0989C5048.1315,-1051.9299 5065.4394,-1037.1371 5080,-1023.132 5113.2551,-991.1457 5148.9761,-951.6716 5171.6294,-925.9261"/>
<polygon fill="#000000" stroke="#000000" points="5174.549,-927.9049 5178.5054,-918.0765 5169.2835,-923.2924 5174.549,-927.9049"/>
<text text-anchor="middle" x="5167" y="-996.132" font-family="Times,serif" font-size="20.00" fill="#000000">[NA]</text>
<text text-anchor="middle" x="5167" y="-974.132" font-family="Times,serif" font-size="20.00" fill="#000000">deny</text>
</g>
<!-- SG_2_Node_9 -->
<g id="node40" class="node">
<title>SG_2_Node_9</title>
<ellipse fill="none" stroke="#000000" cx="4659" cy="-650.4924" rx="34.7971" ry="21.4286"/>
<text text-anchor="middle" x="4659" y="-645.4924" font-family="Times,serif" font-size="20.00" fill="#000000">0.0</text>
</g>
<!-- SG_2_Node_3&#45;&gt;SG_2_Node_9 -->
<g id="edge39" class="edge">
<title>SG_2_Node_3&#45;&gt;SG_2_Node_9</title>
<path fill="none" stroke="#000000" d="M4779.5164,-880.7457C4771.4115,-869.4801 4761.1278,-854.5614 4753,-840.7056 4720.9209,-786.0192 4689.486,-718.8843 4672.3302,-680.7607"/>
<polygon fill="#000000" stroke="#000000" points="4675.3609,-678.9642 4668.0828,-671.2649 4668.971,-681.8224 4675.3609,-678.9642"/>
<text text-anchor="middle" x="4772.5" y="-802.7056" font-family="Times,serif" font-size="20.00" fill="#000000">100</text>
<text text-anchor="middle" x="4772.5" y="-780.7056" font-family="Times,serif" font-size="20.00" fill="#000000">102</text>
<text text-anchor="middle" x="4772.5" y="-758.7056" font-family="Times,serif" font-size="20.00" fill="#000000">103</text>
<text text-anchor="middle" x="4772.5" y="-736.7056" font-family="Times,serif" font-size="20.00" fill="#000000">407</text>
</g>
<!-- SG_2_Node_5 -->
<g id="node41" class="node">
<title>SG_2_Node_5</title>
<polygon fill="none" stroke="#000000" points="4902.5,-668.4924 4711.5,-668.4924 4711.5,-632.4924 4902.5,-632.4924 4902.5,-668.4924"/>
<text text-anchor="middle" x="4807" y="-645.4924" font-family="Times,serif" font-size="20.00" fill="#000000">X&#45;Frame&#45;Options</text>
</g>
<!-- SG_2_Node_3&#45;&gt;SG_2_Node_5 -->
<g id="edge40" class="edge">
<title>SG_2_Node_3&#45;&gt;SG_2_Node_5</title>
<path fill="none" stroke="#000000" d="M4794.0295,-880.6514C4796.4466,-837.7606 4802.499,-730.3618 4805.4002,-678.8802"/>
<polygon fill="#000000" stroke="#000000" points="4808.9007,-678.9677 4805.969,-668.7866 4801.9118,-678.5738 4808.9007,-678.9677"/>
<text text-anchor="middle" x="4822.5" y="-824.7056" font-family="Times,serif" font-size="20.00" fill="#000000">301</text>
<text text-anchor="middle" x="4822.5" y="-802.7056" font-family="Times,serif" font-size="20.00" fill="#000000">302</text>
<text text-anchor="middle" x="4822.5" y="-780.7056" font-family="Times,serif" font-size="20.00" fill="#000000">303</text>
<text text-anchor="middle" x="4822.5" y="-758.7056" font-family="Times,serif" font-size="20.00" fill="#000000">305</text>
<text text-anchor="middle" x="4822.5" y="-736.7056" font-family="Times,serif" font-size="20.00" fill="#000000">307</text>
<text text-anchor="middle" x="4822.5" y="-714.7056" font-family="Times,serif" font-size="20.00" fill="#000000">308</text>
</g>
<!-- SG_2_Node_10 -->
<g id="node42" class="node">
<title>SG_2_Node_10</title>
<ellipse fill="none" stroke="#000000" cx="4989" cy="-650.4924" rx="34.7971" ry="21.4286"/>
<text text-anchor="middle" x="4989" y="-645.4924" font-family="Times,serif" font-size="20.00" fill="#000000">0.0</text>
</g>
<!-- SG_2_Node_4&#45;&gt;SG_2_Node_10 -->
<g id="edge35" class="edge">
<title>SG_2_Node_4&#45;&gt;SG_2_Node_10</title>
<path fill="none" stroke="#000000" d="M5008.8297,-880.8759C5006.9086,-869.4041 5004.5395,-854.2195 5003,-840.7056 4996.6723,-785.1598 4992.6016,-720.1465 4990.5632,-682.3131"/>
<polygon fill="#000000" stroke="#000000" points="4994.0381,-681.7418 4990.0187,-671.939 4987.0477,-682.1087 4994.0381,-681.7418"/>
<text text-anchor="middle" x="5085.5" y="-791.7056" font-family="Times,serif" font-size="20.00" fill="#000000">[NA]</text>
<text text-anchor="middle" x="5085.5" y="-769.7056" font-family="Times,serif" font-size="20.00" fill="#000000">default&#45;src &#39;self&#39;</text>
<text text-anchor="middle" x="5085.5" y="-747.7056" font-family="Times,serif" font-size="20.00" fill="#000000">empty</text>
</g>
<!-- SG_2_Node_11 -->
<g id="node43" class="node">
<title>SG_2_Node_11</title>
<ellipse fill="none" stroke="#000000" cx="5190" cy="-650.4924" rx="34.7971" ry="21.4286"/>
<text text-anchor="middle" x="5190" y="-645.4924" font-family="Times,serif" font-size="20.00" fill="#000000">1.0</text>
</g>
<!-- SG_2_Node_4&#45;&gt;SG_2_Node_11 -->
<g id="edge36" class="edge">
<title>SG_2_Node_4&#45;&gt;SG_2_Node_11</title>
<path fill="none" stroke="#000000" d="M5081.0211,-880.8641C5117.2876,-869.9382 5156.5482,-855.3281 5168,-840.7056 5203.9203,-794.8402 5200.9715,-722.6334 5195.5367,-681.6422"/>
<polygon fill="#000000" stroke="#000000" points="5198.9912,-681.0755 5194.0849,-671.6851 5192.0644,-682.0855 5198.9912,-681.0755"/>
<text text-anchor="middle" x="5308.5" y="-769.7056" font-family="Times,serif" font-size="20.00" fill="#000000">frame&#45;ancestors &#39;self&#39;</text>
</g>
<!-- SG_2_Node_6 -->
<g id="node44" class="node">
<title>SG_2_Node_6</title>
<polygon fill="none" stroke="#000000" points="4786,-486.066 4526,-486.066 4526,-450.066 4786,-450.066 4786,-486.066"/>
<text text-anchor="middle" x="4656" y="-463.066" font-family="Times,serif" font-size="20.00" fill="#000000">Content&#45;Security&#45;Policy</text>
</g>
<!-- SG_2_Node_5&#45;&gt;SG_2_Node_6 -->
<g id="edge41" class="edge">
<title>SG_2_Node_5&#45;&gt;SG_2_Node_6</title>
<path fill="none" stroke="#000000" d="M4787.4973,-632.2621C4775.9001,-621.0989 4761.1331,-606.3064 4749,-592.2792 4721.2538,-560.2015 4692.4611,-520.5997 4674.403,-494.8605"/>
<polygon fill="#000000" stroke="#000000" points="4677.0732,-492.5706 4668.4826,-486.3694 4671.3311,-496.5742 4677.0732,-492.5706"/>
<text text-anchor="middle" x="4781" y="-565.2792" font-family="Times,serif" font-size="20.00" fill="#000000">[NA]</text>
<text text-anchor="middle" x="4781" y="-543.2792" font-family="Times,serif" font-size="20.00" fill="#000000">empty</text>
</g>
<!-- SG_2_Node_12 -->
<g id="node45" class="node">
<title>SG_2_Node_12</title>
<ellipse fill="none" stroke="#000000" cx="4839" cy="-468.066" rx="34.7971" ry="21.4286"/>
<text text-anchor="middle" x="4839" y="-463.066" font-family="Times,serif" font-size="20.00" fill="#000000">1.0</text>
</g>
<!-- SG_2_Node_5&#45;&gt;SG_2_Node_12 -->
<g id="edge42" class="edge">
<title>SG_2_Node_5&#45;&gt;SG_2_Node_12</title>
<path fill="none" stroke="#000000" d="M4810.1853,-632.3337C4815.633,-601.2775 4826.8005,-537.6134 4833.5206,-499.3032"/>
<polygon fill="#000000" stroke="#000000" points="4837.0091,-499.6727 4835.2896,-489.2183 4830.1144,-498.4632 4837.0091,-499.6727"/>
<text text-anchor="middle" x="4852.5" y="-554.2792" font-family="Times,serif" font-size="20.00" fill="#000000">deny</text>
</g>
<!-- SG_2_Node_13 -->
<g id="node46" class="node">
<title>SG_2_Node_13</title>
<ellipse fill="none" stroke="#000000" cx="4588" cy="-219.6396" rx="34.7971" ry="21.4286"/>
<text text-anchor="middle" x="4588" y="-214.6396" font-family="Times,serif" font-size="20.00" fill="#000000">0.0</text>
</g>
<!-- SG_2_Node_6&#45;&gt;SG_2_Node_13 -->
<g id="edge43" class="edge">
<title>SG_2_Node_6&#45;&gt;SG_2_Node_13</title>
<path fill="none" stroke="#000000" d="M4632.9,-449.843C4621.4995,-439.4446 4608.7691,-425.3988 4602,-409.8528 4579.344,-357.821 4580.7486,-290.2036 4584.1521,-251.1898"/>
<polygon fill="#000000" stroke="#000000" points="4587.6605,-251.2735 4585.1468,-240.9812 4580.6935,-250.5946 4587.6605,-251.2735"/>
<text text-anchor="middle" x="4684.5" y="-360.8528" font-family="Times,serif" font-size="20.00" fill="#000000">[NA]</text>
<text text-anchor="middle" x="4684.5" y="-338.8528" font-family="Times,serif" font-size="20.00" fill="#000000">default&#45;src &#39;self&#39;</text>
<text text-anchor="middle" x="4684.5" y="-316.8528" font-family="Times,serif" font-size="20.00" fill="#000000">empty</text>
</g>
<!-- SG_2_Node_14 -->
<g id="node47" class="node">
<title>SG_2_Node_14</title>
<ellipse fill="none" stroke="#000000" cx="4789" cy="-219.6396" rx="34.7971" ry="21.4286"/>
<text text-anchor="middle" x="4789" y="-214.6396" font-family="Times,serif" font-size="20.00" fill="#000000">1.0</text>
</g>
<!-- SG_2_Node_6&#45;&gt;SG_2_Node_14 -->
<g id="edge44" class="edge">
<title>SG_2_Node_6&#45;&gt;SG_2_Node_14</title>
<path fill="none" stroke="#000000" d="M4714.8329,-449.9481C4734.4656,-440.9846 4754.5022,-428.0633 4767,-409.8528 4799.7223,-362.173 4798.1324,-291.4628 4793.7523,-251.0366"/>
<polygon fill="#000000" stroke="#000000" points="4797.2094,-250.4698 4792.5338,-240.9625 4790.26,-251.3104 4797.2094,-250.4698"/>
<text text-anchor="middle" x="4906.5" y="-338.8528" font-family="Times,serif" font-size="20.00" fill="#000000">frame&#45;ancestors &#39;self&#39;</text>
</g>
</g>
</svg>
