<?xml version="1.0" encoding="UTF-8" standalone="no"?>
<!DOCTYPE svg PUBLIC "-//W3C//DTD SVG 1.1//EN"
 "http://www.w3.org/Graphics/SVG/1.1/DTD/svg11.dtd">
<!-- Generated by graphviz version 2.40.1 (20161225.0304)
 -->
<!-- Title: G Pages: 1 -->
<svg width="9389pt" height="1509pt"
 viewBox="0.00 0.00 9389.00 1508.56" xmlns="http://www.w3.org/2000/svg" xmlns:xlink="http://www.w3.org/1999/xlink">
<g id="graph0" class="graph" transform="scale(1 1) rotate(0) translate(4 1504.5584)">
<title>G</title>
<polygon fill="#ffffff" stroke="transparent" points="-4,4 -4,-1504.5584 9385,-1504.5584 9385,4 -4,4"/>
<g id="clust1" class="cluster">
<title>cluster_0</title>
<polygon fill="none" stroke="#000000" points="8,-8 8,-1492.5584 472,-1492.5584 472,-8 8,-8"/>
<text text-anchor="middle" x="240" y="-1456.5584" font-family="Times,serif" font-size="40.00" fill="#000000">Tree 0, Class uncalled</text>
</g>
<g id="clust9" class="cluster">
<title>cluster_1</title>
<polygon fill="none" stroke="#000000" points="480,-190.4264 480,-1492.5584 4394,-1492.5584 4394,-190.4264 480,-190.4264"/>
<text text-anchor="middle" x="2437" y="-1456.5584" font-family="Times,serif" font-size="40.00" fill="#000000">Tree 0, Class {&#39;code&#39;: 18, &#39;name&#39;: &#39;SecurityError&#39;, &#39;message&#39;: &#39;Blocked a frame with origin http://localhost:8001 from accessing a cross&#45;origin frame. Protocols, domains, and ports must match.&#39;}</text>
</g>
<g id="clust16" class="cluster">
<title>cluster_2</title>
<polygon fill="none" stroke="#000000" points="4402,-190.4264 4402,-1492.5584 9373,-1492.5584 9373,-190.4264 4402,-190.4264"/>
<text text-anchor="middle" x="6887.5" y="-1456.5584" font-family="Times,serif" font-size="40.00" fill="#000000">Tree 0, Class {&#39;code&#39;: 18, &#39;name&#39;: &#39;SecurityError&#39;, &#39;message&#39;: &#39;Sandbox access violation: Blocked a frame at http://localhost:8001 from accessing a cross&#45;origin frame. &#160;The frame being accessed is sandboxed and lacks the allow&#45;same&#45;origin flag.&#39;}</text>
</g>
<!-- SG_0_Node_0 -->
<g id="node1" class="node">
<title>SG_0_Node_0</title>
<polygon fill="none" stroke="#000000" points="269,-1432.5584 127,-1432.5584 127,-1396.5584 269,-1396.5584 269,-1432.5584"/>
<text text-anchor="middle" x="198" y="-1409.5584" font-family="Times,serif" font-size="20.00" fill="#000000">Status&#45;Code</text>
</g>
<!-- SG_0_Node_1 -->
<g id="node2" class="node">
<title>SG_0_Node_1</title>
<polygon fill="none" stroke="#000000" points="219.5,-1099.3452 28.5,-1099.3452 28.5,-1063.3452 219.5,-1063.3452 219.5,-1099.3452"/>
<text text-anchor="middle" x="124" y="-1076.3452" font-family="Times,serif" font-size="20.00" fill="#000000">X&#45;Frame&#45;Options</text>
</g>
<!-- SG_0_Node_0&#45;&gt;SG_0_Node_1 -->
<g id="edge1" class="edge">
<title>SG_0_Node_0&#45;&gt;SG_0_Node_1</title>
<path fill="none" stroke="#000000" d="M178.6776,-1396.5464C169.2805,-1386.5946 158.7891,-1373.4522 153,-1359.5584 117.3398,-1273.9749 118.7395,-1161.3053 121.7558,-1109.5509"/>
<polygon fill="#000000" stroke="#000000" points="125.2554,-1109.6692 122.4112,-1099.4633 118.2701,-1109.2153 125.2554,-1109.6692"/>
<text text-anchor="middle" x="199" y="-1255.5584" font-family="Times,serif" font-size="20.00" fill="#000000">[NA]</text>
<text text-anchor="middle" x="199" y="-1233.5584" font-family="Times,serif" font-size="20.00" fill="#000000">58 levels</text>
</g>
<!-- SG_0_Node_6 -->
<g id="node3" class="node">
<title>SG_0_Node_6</title>
<ellipse fill="none" stroke="#000000" cx="272" cy="-1081.3452" rx="34.7971" ry="21.4286"/>
<text text-anchor="middle" x="272" y="-1076.3452" font-family="Times,serif" font-size="20.00" fill="#000000">1.0</text>
</g>
<!-- SG_0_Node_0&#45;&gt;SG_0_Node_6 -->
<g id="edge2" class="edge">
<title>SG_0_Node_0&#45;&gt;SG_0_Node_6</title>
<path fill="none" stroke="#000000" d="M218.708,-1396.228C228.4081,-1386.3813 239.1038,-1373.4294 245,-1359.5584 280.5211,-1275.9946 278.5414,-1165.9597 274.9035,-1112.7895"/>
<polygon fill="#000000" stroke="#000000" points="278.3802,-1112.3464 274.1398,-1102.6372 271.3999,-1112.8716 278.3802,-1112.3464"/>
<text text-anchor="middle" x="295.5" y="-1277.5584" font-family="Times,serif" font-size="20.00" fill="#000000">100</text>
<text text-anchor="middle" x="295.5" y="-1255.5584" font-family="Times,serif" font-size="20.00" fill="#000000">102</text>
<text text-anchor="middle" x="295.5" y="-1233.5584" font-family="Times,serif" font-size="20.00" fill="#000000">103</text>
<text text-anchor="middle" x="295.5" y="-1211.5584" font-family="Times,serif" font-size="20.00" fill="#000000">407</text>
</g>
<!-- SG_0_Node_7 -->
<g id="node4" class="node">
<title>SG_0_Node_7</title>
<ellipse fill="none" stroke="#000000" cx="52" cy="-898.9188" rx="34.7971" ry="21.4286"/>
<text text-anchor="middle" x="52" y="-893.9188" font-family="Times,serif" font-size="20.00" fill="#000000">0.0</text>
</g>
<!-- SG_0_Node_1&#45;&gt;SG_0_Node_7 -->
<g id="edge3" class="edge">
<title>SG_0_Node_1&#45;&gt;SG_0_Node_7</title>
<path fill="none" stroke="#000000" d="M116.8331,-1063.1866C104.4908,-1031.9148 79.0997,-967.5813 64.0155,-929.3624"/>
<polygon fill="#000000" stroke="#000000" points="67.1621,-927.8011 60.2352,-919.7843 60.6508,-930.371 67.1621,-927.8011"/>
<text text-anchor="middle" x="124.5" y="-985.132" font-family="Times,serif" font-size="20.00" fill="#000000">deny</text>
</g>
<!-- SG_0_Node_2 -->
<g id="node5" class="node">
<title>SG_0_Node_2</title>
<polygon fill="none" stroke="#000000" points="325.5,-916.9188 104.5,-916.9188 104.5,-880.9188 325.5,-880.9188 325.5,-916.9188"/>
<text text-anchor="middle" x="215" y="-893.9188" font-family="Times,serif" font-size="20.00" fill="#000000">Content&#45;Disposition</text>
</g>
<!-- SG_0_Node_1&#45;&gt;SG_0_Node_2 -->
<g id="edge4" class="edge">
<title>SG_0_Node_1&#45;&gt;SG_0_Node_2</title>
<path fill="none" stroke="#000000" d="M133.0581,-1063.1866C149.0701,-1031.0875 182.4585,-964.1543 201.299,-926.3851"/>
<polygon fill="#000000" stroke="#000000" points="204.6467,-927.5149 205.9785,-917.0041 198.3827,-924.3902 204.6467,-927.5149"/>
<text text-anchor="middle" x="217" y="-996.132" font-family="Times,serif" font-size="20.00" fill="#000000">[NA]</text>
<text text-anchor="middle" x="217" y="-974.132" font-family="Times,serif" font-size="20.00" fill="#000000">empty</text>
</g>
<!-- SG_0_Node_8 -->
<g id="node6" class="node">
<title>SG_0_Node_8</title>
<ellipse fill="none" stroke="#000000" cx="91" cy="-650.4924" rx="34.7971" ry="21.4286"/>
<text text-anchor="middle" x="91" y="-645.4924" font-family="Times,serif" font-size="20.00" fill="#000000">0.0</text>
</g>
<!-- SG_0_Node_2&#45;&gt;SG_0_Node_8 -->
<g id="edge5" class="edge">
<title>SG_0_Node_2&#45;&gt;SG_0_Node_8</title>
<path fill="none" stroke="#000000" d="M194.6572,-880.839C183.5159,-870.072 170.1545,-855.6287 161,-840.7056 129.2458,-788.942 108.4928,-720.5261 98.3394,-681.4338"/>
<polygon fill="#000000" stroke="#000000" points="101.7194,-680.5235 95.871,-671.6891 94.9337,-682.2424 101.7194,-680.5235"/>
<text text-anchor="middle" x="193" y="-769.7056" font-family="Times,serif" font-size="20.00" fill="#000000">empty</text>
</g>
<!-- SG_0_Node_3 -->
<g id="node7" class="node">
<title>SG_0_Node_3</title>
<polygon fill="none" stroke="#000000" points="404,-668.4924 144,-668.4924 144,-632.4924 404,-632.4924 404,-668.4924"/>
<text text-anchor="middle" x="274" y="-645.4924" font-family="Times,serif" font-size="20.00" fill="#000000">Content&#45;Security&#45;Policy</text>
</g>
<!-- SG_0_Node_2&#45;&gt;SG_0_Node_3 -->
<g id="edge6" class="edge">
<title>SG_0_Node_2&#45;&gt;SG_0_Node_3</title>
<path fill="none" stroke="#000000" d="M219.3384,-880.6514C229.5461,-837.6709 255.1382,-729.9122 267.3346,-678.5578"/>
<polygon fill="#000000" stroke="#000000" points="270.7498,-679.3247 269.6552,-668.7866 263.9392,-677.7072 270.7498,-679.3247"/>
<text text-anchor="middle" x="318" y="-780.7056" font-family="Times,serif" font-size="20.00" fill="#000000">[NA]</text>
<text text-anchor="middle" x="318" y="-758.7056" font-family="Times,serif" font-size="20.00" fill="#000000">attachment</text>
</g>
<!-- SG_0_Node_9 -->
<g id="node8" class="node">
<title>SG_0_Node_9</title>
<ellipse fill="none" stroke="#000000" cx="51" cy="-468.066" rx="34.7971" ry="21.4286"/>
<text text-anchor="middle" x="51" y="-463.066" font-family="Times,serif" font-size="20.00" fill="#000000">0.0</text>
</g>
<!-- SG_0_Node_3&#45;&gt;SG_0_Node_9 -->
<g id="edge7" class="edge">
<title>SG_0_Node_3&#45;&gt;SG_0_Node_9</title>
<path fill="none" stroke="#000000" d="M160.0562,-632.4802C115.1216,-622.9074 70.8927,-609.5124 57,-592.2792 36.0936,-566.3459 38.208,-526.5533 43.1883,-499.0271"/>
<polygon fill="#000000" stroke="#000000" points="46.6375,-499.6287 45.1953,-489.1325 39.7772,-498.2371 46.6375,-499.6287"/>
<text text-anchor="middle" x="167.5" y="-554.2792" font-family="Times,serif" font-size="20.00" fill="#000000">frame&#45;ancestors &#39;self&#39;</text>
</g>
<!-- SG_0_Node_4 -->
<g id="node9" class="node">
<title>SG_0_Node_4</title>
<polygon fill="none" stroke="#000000" points="370,-486.066 228,-486.066 228,-450.066 370,-450.066 370,-486.066"/>
<text text-anchor="middle" x="299" y="-463.066" font-family="Times,serif" font-size="20.00" fill="#000000">Status&#45;Code</text>
</g>
<!-- SG_0_Node_3&#45;&gt;SG_0_Node_4 -->
<g id="edge8" class="edge">
<title>SG_0_Node_3&#45;&gt;SG_0_Node_4</title>
<path fill="none" stroke="#000000" d="M276.4885,-632.3337C280.85,-600.5079 289.9042,-534.4382 295.103,-496.5029"/>
<polygon fill="#000000" stroke="#000000" points="298.6314,-496.5339 296.5216,-486.1513 291.6962,-495.5834 298.6314,-496.5339"/>
<text text-anchor="middle" x="372.5" y="-576.2792" font-family="Times,serif" font-size="20.00" fill="#000000">[NA]</text>
<text text-anchor="middle" x="372.5" y="-554.2792" font-family="Times,serif" font-size="20.00" fill="#000000">default&#45;src &#39;self&#39;</text>
<text text-anchor="middle" x="372.5" y="-532.2792" font-family="Times,serif" font-size="20.00" fill="#000000">empty</text>
</g>
<!-- SG_0_Node_5 -->
<g id="node10" class="node">
<title>SG_0_Node_5</title>
<polygon fill="none" stroke="#000000" points="290.5,-237.6396 185.5,-237.6396 185.5,-201.6396 290.5,-201.6396 290.5,-237.6396"/>
<text text-anchor="middle" x="238" y="-214.6396" font-family="Times,serif" font-size="20.00" fill="#000000">Location</text>
</g>
<!-- SG_0_Node_4&#45;&gt;SG_0_Node_5 -->
<g id="edge9" class="edge">
<title>SG_0_Node_4&#45;&gt;SG_0_Node_5</title>
<path fill="none" stroke="#000000" d="M286.453,-450.0218C279.3404,-438.9244 270.9072,-424.136 266,-409.8528 246.9978,-354.5444 240.8905,-285.8464 238.9283,-247.9926"/>
<polygon fill="#000000" stroke="#000000" points="242.4122,-247.557 238.46,-237.7269 235.4194,-247.876 242.4122,-247.557"/>
<text text-anchor="middle" x="285.5" y="-393.8528" font-family="Times,serif" font-size="20.00" fill="#000000">301</text>
<text text-anchor="middle" x="285.5" y="-371.8528" font-family="Times,serif" font-size="20.00" fill="#000000">302</text>
<text text-anchor="middle" x="285.5" y="-349.8528" font-family="Times,serif" font-size="20.00" fill="#000000">303</text>
<text text-anchor="middle" x="285.5" y="-327.8528" font-family="Times,serif" font-size="20.00" fill="#000000">305</text>
<text text-anchor="middle" x="285.5" y="-305.8528" font-family="Times,serif" font-size="20.00" fill="#000000">307</text>
<text text-anchor="middle" x="285.5" y="-283.8528" font-family="Times,serif" font-size="20.00" fill="#000000">308</text>
</g>
<!-- SG_0_Node_10 -->
<g id="node11" class="node">
<title>SG_0_Node_10</title>
<ellipse fill="none" stroke="#000000" cx="343" cy="-219.6396" rx="34.7971" ry="21.4286"/>
<text text-anchor="middle" x="343" y="-214.6396" font-family="Times,serif" font-size="20.00" fill="#000000">1.0</text>
</g>
<!-- SG_0_Node_4&#45;&gt;SG_0_Node_10 -->
<g id="edge10" class="edge">
<title>SG_0_Node_4&#45;&gt;SG_0_Node_10</title>
<path fill="none" stroke="#000000" d="M302.2354,-449.7986C309.6808,-407.7616 328.1012,-303.759 337.416,-251.1671"/>
<polygon fill="#000000" stroke="#000000" points="340.9073,-251.5237 339.205,-241.0665 334.0145,-250.3028 340.9073,-251.5237"/>
<text text-anchor="middle" x="378" y="-349.8528" font-family="Times,serif" font-size="20.00" fill="#000000">[NA]</text>
<text text-anchor="middle" x="378" y="-327.8528" font-family="Times,serif" font-size="20.00" fill="#000000">52 levels</text>
</g>
<!-- SG_0_Node_11 -->
<g id="node12" class="node">
<title>SG_0_Node_11</title>
<ellipse fill="none" stroke="#000000" cx="70" cy="-37.2132" rx="34.7971" ry="21.4286"/>
<text text-anchor="middle" x="70" y="-32.2132" font-family="Times,serif" font-size="20.00" fill="#000000">0.0</text>
</g>
<!-- SG_0_Node_5&#45;&gt;SG_0_Node_11 -->
<g id="edge11" class="edge">
<title>SG_0_Node_5&#45;&gt;SG_0_Node_11</title>
<path fill="none" stroke="#000000" d="M185.377,-208.3983C141.403,-197.8116 83.7388,-180.7272 70,-161.4264 50.8161,-134.476 54.6232,-95.2228 60.7561,-68.0882"/>
<polygon fill="#000000" stroke="#000000" points="64.1653,-68.8816 63.1774,-58.3329 57.3715,-67.1953 64.1653,-68.8816"/>
<text text-anchor="middle" x="207" y="-145.4264" font-family="Times,serif" font-size="20.00" fill="#000000">[NA]</text>
<text text-anchor="middle" x="207" y="-123.4264" font-family="Times,serif" font-size="20.00" fill="#000000">/</text>
<text text-anchor="middle" x="207" y="-101.4264" font-family="Times,serif" font-size="20.00" fill="#000000">http://localhost:8000/echo/</text>
</g>
<!-- SG_0_Node_12 -->
<g id="node13" class="node">
<title>SG_0_Node_12</title>
<ellipse fill="none" stroke="#000000" cx="380" cy="-37.2132" rx="34.7971" ry="21.4286"/>
<text text-anchor="middle" x="380" y="-32.2132" font-family="Times,serif" font-size="20.00" fill="#000000">1.0</text>
</g>
<!-- SG_0_Node_5&#45;&gt;SG_0_Node_12 -->
<g id="edge12" class="edge">
<title>SG_0_Node_5&#45;&gt;SG_0_Node_12</title>
<path fill="none" stroke="#000000" d="M275.7852,-201.5251C305.5843,-186.932 342.9471,-167.8293 348,-161.4264 368.9475,-134.8824 376.3035,-96.127 378.8216,-68.9848"/>
<polygon fill="#000000" stroke="#000000" points="382.3243,-69.0814 379.5892,-58.8457 375.3442,-68.5529 382.3243,-69.0814"/>
<text text-anchor="middle" x="407" y="-123.4264" font-family="Times,serif" font-size="20.00" fill="#000000">empty</text>
</g>
<!-- SG_1_Node_0 -->
<g id="node14" class="node">
<title>SG_1_Node_0</title>
<polygon fill="none" stroke="#000000" points="2392,-1432.5584 2250,-1432.5584 2250,-1396.5584 2392,-1396.5584 2392,-1432.5584"/>
<text text-anchor="middle" x="2321" y="-1409.5584" font-family="Times,serif" font-size="20.00" fill="#000000">Status&#45;Code</text>
</g>
<!-- SG_1_Node_1 -->
<g id="node15" class="node">
<title>SG_1_Node_1</title>
<polygon fill="none" stroke="#000000" points="2320.5,-1099.3452 2099.5,-1099.3452 2099.5,-1063.3452 2320.5,-1063.3452 2320.5,-1099.3452"/>
<text text-anchor="middle" x="2210" y="-1076.3452" font-family="Times,serif" font-size="20.00" fill="#000000">Content&#45;Disposition</text>
</g>
<!-- SG_1_Node_0&#45;&gt;SG_1_Node_1 -->
<g id="edge13" class="edge">
<title>SG_1_Node_0&#45;&gt;SG_1_Node_1</title>
<path fill="none" stroke="#000000" d="M2282.5248,-1396.3281C2267.7575,-1387.348 2252.2447,-1375.074 2243,-1359.5584 2195.135,-1279.2254 2200.551,-1162.6412 2206.216,-1109.5621"/>
<polygon fill="#000000" stroke="#000000" points="2209.7043,-1109.8637 2207.373,-1099.5286 2202.7504,-1109.0618 2209.7043,-1109.8637"/>
<text text-anchor="middle" x="2289" y="-1255.5584" font-family="Times,serif" font-size="20.00" fill="#000000">[NA]</text>
<text text-anchor="middle" x="2289" y="-1233.5584" font-family="Times,serif" font-size="20.00" fill="#000000">56 levels</text>
</g>
<!-- SG_1_Node_2 -->
<g id="node16" class="node">
<title>SG_1_Node_2</title>
<polygon fill="none" stroke="#000000" points="2483.5,-1099.3452 2378.5,-1099.3452 2378.5,-1063.3452 2483.5,-1063.3452 2483.5,-1099.3452"/>
<text text-anchor="middle" x="2431" y="-1076.3452" font-family="Times,serif" font-size="20.00" fill="#000000">Location</text>
</g>
<!-- SG_1_Node_0&#45;&gt;SG_1_Node_2 -->
<g id="edge14" class="edge">
<title>SG_1_Node_0&#45;&gt;SG_1_Node_2</title>
<path fill="none" stroke="#000000" d="M2327.0708,-1396.1688C2345.3261,-1340.8697 2399.8091,-1175.829 2421.7214,-1109.4521"/>
<polygon fill="#000000" stroke="#000000" points="2425.1367,-1110.2712 2424.948,-1099.678 2418.4896,-1108.0768 2425.1367,-1110.2712"/>
<text text-anchor="middle" x="2430.5" y="-1299.5584" font-family="Times,serif" font-size="20.00" fill="#000000">301</text>
<text text-anchor="middle" x="2430.5" y="-1277.5584" font-family="Times,serif" font-size="20.00" fill="#000000">302</text>
<text text-anchor="middle" x="2430.5" y="-1255.5584" font-family="Times,serif" font-size="20.00" fill="#000000">303</text>
<text text-anchor="middle" x="2430.5" y="-1233.5584" font-family="Times,serif" font-size="20.00" fill="#000000">305</text>
<text text-anchor="middle" x="2430.5" y="-1211.5584" font-family="Times,serif" font-size="20.00" fill="#000000">307</text>
<text text-anchor="middle" x="2430.5" y="-1189.5584" font-family="Times,serif" font-size="20.00" fill="#000000">308</text>
</g>
<!-- SG_1_Node_9 -->
<g id="node17" class="node">
<title>SG_1_Node_9</title>
<ellipse fill="none" stroke="#000000" cx="2056" cy="-898.9188" rx="34.7971" ry="21.4286"/>
<text text-anchor="middle" x="2056" y="-893.9188" font-family="Times,serif" font-size="20.00" fill="#000000">0.0</text>
</g>
<!-- SG_1_Node_1&#45;&gt;SG_1_Node_9 -->
<g id="edge23" class="edge">
<title>SG_1_Node_1&#45;&gt;SG_1_Node_9</title>
<path fill="none" stroke="#000000" d="M2143.483,-1063.2734C2122.0214,-1054.402 2099.9421,-1041.5282 2085,-1023.132 2063.6769,-996.8798 2057.4744,-957.7415 2055.9403,-930.4361"/>
<polygon fill="#000000" stroke="#000000" points="2059.4303,-930.1049 2055.5516,-920.2456 2052.4353,-930.3717 2059.4303,-930.1049"/>
<text text-anchor="middle" x="2144" y="-996.132" font-family="Times,serif" font-size="20.00" fill="#000000">[NA]</text>
<text text-anchor="middle" x="2144" y="-974.132" font-family="Times,serif" font-size="20.00" fill="#000000">attachment</text>
</g>
<!-- SG_1_Node_3 -->
<g id="node18" class="node">
<title>SG_1_Node_3</title>
<polygon fill="none" stroke="#000000" points="2302.5,-916.9188 2111.5,-916.9188 2111.5,-880.9188 2302.5,-880.9188 2302.5,-916.9188"/>
<text text-anchor="middle" x="2207" y="-893.9188" font-family="Times,serif" font-size="20.00" fill="#000000">X&#45;Frame&#45;Options</text>
</g>
<!-- SG_1_Node_1&#45;&gt;SG_1_Node_3 -->
<g id="edge24" class="edge">
<title>SG_1_Node_1&#45;&gt;SG_1_Node_3</title>
<path fill="none" stroke="#000000" d="M2209.7014,-1063.1866C2209.178,-1031.3607 2208.0915,-965.291 2207.4676,-927.3557"/>
<polygon fill="#000000" stroke="#000000" points="2210.9615,-926.9451 2207.2974,-917.0041 2203.9624,-927.0603 2210.9615,-926.9451"/>
<text text-anchor="middle" x="2241" y="-985.132" font-family="Times,serif" font-size="20.00" fill="#000000">empty</text>
</g>
<!-- SG_1_Node_4 -->
<g id="node19" class="node">
<title>SG_1_Node_4</title>
<polygon fill="none" stroke="#000000" points="2541.5,-916.9188 2320.5,-916.9188 2320.5,-880.9188 2541.5,-880.9188 2541.5,-916.9188"/>
<text text-anchor="middle" x="2431" y="-893.9188" font-family="Times,serif" font-size="20.00" fill="#000000">Content&#45;Disposition</text>
</g>
<!-- SG_1_Node_2&#45;&gt;SG_1_Node_4 -->
<g id="edge15" class="edge">
<title>SG_1_Node_2&#45;&gt;SG_1_Node_4</title>
<path fill="none" stroke="#000000" d="M2431,-1063.1866C2431,-1031.3607 2431,-965.291 2431,-927.3557"/>
<polygon fill="#000000" stroke="#000000" points="2434.5001,-927.004 2431,-917.0041 2427.5001,-927.0041 2434.5001,-927.004"/>
<text text-anchor="middle" x="2463" y="-985.132" font-family="Times,serif" font-size="20.00" fill="#000000">empty</text>
</g>
<!-- SG_1_Node_10 -->
<g id="node20" class="node">
<title>SG_1_Node_10</title>
<ellipse fill="none" stroke="#000000" cx="2594" cy="-898.9188" rx="34.7971" ry="21.4286"/>
<text text-anchor="middle" x="2594" y="-893.9188" font-family="Times,serif" font-size="20.00" fill="#000000">1.0</text>
</g>
<!-- SG_1_Node_2&#45;&gt;SG_1_Node_10 -->
<g id="edge16" class="edge">
<title>SG_1_Node_2&#45;&gt;SG_1_Node_10</title>
<path fill="none" stroke="#000000" d="M2454.4275,-1063.3303C2468.0612,-1052.3606 2485.2202,-1037.6928 2499,-1023.132 2528.0049,-992.4834 2556.8089,-953.2628 2574.964,-927.1771"/>
<polygon fill="#000000" stroke="#000000" points="2577.9003,-929.0844 2580.6976,-918.8655 2572.1382,-925.1095 2577.9003,-929.0844"/>
<text text-anchor="middle" x="2690" y="-1007.132" font-family="Times,serif" font-size="20.00" fill="#000000">[NA]</text>
<text text-anchor="middle" x="2690" y="-985.132" font-family="Times,serif" font-size="20.00" fill="#000000">/</text>
<text text-anchor="middle" x="2690" y="-963.132" font-family="Times,serif" font-size="20.00" fill="#000000">http://localhost:8000/echo/</text>
</g>
<!-- SG_1_Node_11 -->
<g id="node21" class="node">
<title>SG_1_Node_11</title>
<ellipse fill="none" stroke="#000000" cx="2050" cy="-650.4924" rx="34.7971" ry="21.4286"/>
<text text-anchor="middle" x="2050" y="-645.4924" font-family="Times,serif" font-size="20.00" fill="#000000">0.0</text>
</g>
<!-- SG_1_Node_3&#45;&gt;SG_1_Node_11 -->
<g id="edge25" class="edge">
<title>SG_1_Node_3&#45;&gt;SG_1_Node_11</title>
<path fill="none" stroke="#000000" d="M2191.2159,-880.8681C2181.7142,-869.6472 2169.6327,-854.7325 2160,-840.7056 2122.4732,-786.0602 2085.2079,-717.9566 2065.1405,-679.8448"/>
<polygon fill="#000000" stroke="#000000" points="2068.1587,-678.0637 2060.4195,-670.828 2061.9573,-681.3107 2068.1587,-678.0637"/>
<text text-anchor="middle" x="2184.5" y="-769.7056" font-family="Times,serif" font-size="20.00" fill="#000000">deny</text>
</g>
<!-- SG_1_Node_5 -->
<g id="node22" class="node">
<title>SG_1_Node_5</title>
<polygon fill="none" stroke="#000000" points="2363,-668.4924 2103,-668.4924 2103,-632.4924 2363,-632.4924 2363,-668.4924"/>
<text text-anchor="middle" x="2233" y="-645.4924" font-family="Times,serif" font-size="20.00" fill="#000000">Content&#45;Security&#45;Policy</text>
</g>
<!-- SG_1_Node_3&#45;&gt;SG_1_Node_5 -->
<g id="edge26" class="edge">
<title>SG_1_Node_3&#45;&gt;SG_1_Node_5</title>
<path fill="none" stroke="#000000" d="M2208.9118,-880.6514C2213.4007,-837.7606 2224.641,-730.3618 2230.029,-678.8802"/>
<polygon fill="#000000" stroke="#000000" points="2233.5254,-679.0966 2231.0854,-668.7866 2226.5634,-678.3679 2233.5254,-679.0966"/>
<text text-anchor="middle" x="2258" y="-780.7056" font-family="Times,serif" font-size="20.00" fill="#000000">[NA]</text>
<text text-anchor="middle" x="2258" y="-758.7056" font-family="Times,serif" font-size="20.00" fill="#000000">empty</text>
</g>
<!-- SG_1_Node_12 -->
<g id="node23" class="node">
<title>SG_1_Node_12</title>
<ellipse fill="none" stroke="#000000" cx="2421" cy="-650.4924" rx="34.7971" ry="21.4286"/>
<text text-anchor="middle" x="2421" y="-645.4924" font-family="Times,serif" font-size="20.00" fill="#000000">0.0</text>
</g>
<!-- SG_1_Node_4&#45;&gt;SG_1_Node_12 -->
<g id="edge17" class="edge">
<title>SG_1_Node_4&#45;&gt;SG_1_Node_12</title>
<path fill="none" stroke="#000000" d="M2430.2647,-880.6514C2428.5725,-838.6144 2424.3861,-734.6118 2422.2691,-682.0199"/>
<polygon fill="#000000" stroke="#000000" points="2425.762,-681.7704 2421.8625,-671.9193 2418.7676,-682.052 2425.762,-681.7704"/>
<text text-anchor="middle" x="2487" y="-780.7056" font-family="Times,serif" font-size="20.00" fill="#000000">[NA]</text>
<text text-anchor="middle" x="2487" y="-758.7056" font-family="Times,serif" font-size="20.00" fill="#000000">attachment</text>
</g>
<!-- SG_1_Node_6 -->
<g id="node24" class="node">
<title>SG_1_Node_6</title>
<polygon fill="none" stroke="#000000" points="2670.5,-668.4924 2479.5,-668.4924 2479.5,-632.4924 2670.5,-632.4924 2670.5,-668.4924"/>
<text text-anchor="middle" x="2575" y="-645.4924" font-family="Times,serif" font-size="20.00" fill="#000000">X&#45;Frame&#45;Options</text>
</g>
<!-- SG_1_Node_4&#45;&gt;SG_1_Node_6 -->
<g id="edge18" class="edge">
<title>SG_1_Node_4&#45;&gt;SG_1_Node_6</title>
<path fill="none" stroke="#000000" d="M2495.69,-880.8162C2516.1123,-871.958 2536.7771,-859.1004 2550,-840.7056 2584.7259,-792.3975 2583.1633,-718.8977 2579.0462,-678.8799"/>
<polygon fill="#000000" stroke="#000000" points="2582.5019,-678.2937 2577.8754,-668.7624 2575.5483,-679.0985 2582.5019,-678.2937"/>
<text text-anchor="middle" x="2613" y="-769.7056" font-family="Times,serif" font-size="20.00" fill="#000000">empty</text>
</g>
<!-- SG_1_Node_13 -->
<g id="node25" class="node">
<title>SG_1_Node_13</title>
<ellipse fill="none" stroke="#000000" cx="2048" cy="-468.066" rx="34.7971" ry="21.4286"/>
<text text-anchor="middle" x="2048" y="-463.066" font-family="Times,serif" font-size="20.00" fill="#000000">0.0</text>
</g>
<!-- SG_1_Node_5&#45;&gt;SG_1_Node_13 -->
<g id="edge27" class="edge">
<title>SG_1_Node_5&#45;&gt;SG_1_Node_13</title>
<path fill="none" stroke="#000000" d="M2141.9577,-632.4519C2101.3469,-622.3769 2059.9505,-608.5679 2048,-592.2792 2028.4313,-565.6069 2032.3148,-526.2985 2038.5707,-499.075"/>
<polygon fill="#000000" stroke="#000000" points="2041.9881,-499.837 2041.0406,-489.2847 2035.2007,-498.1247 2041.9881,-499.837"/>
<text text-anchor="middle" x="2158.5" y="-554.2792" font-family="Times,serif" font-size="20.00" fill="#000000">frame&#45;ancestors &#39;self&#39;</text>
</g>
<!-- SG_1_Node_7 -->
<g id="node26" class="node">
<title>SG_1_Node_7</title>
<polygon fill="none" stroke="#000000" points="2376,-486.066 2234,-486.066 2234,-450.066 2376,-450.066 2376,-486.066"/>
<text text-anchor="middle" x="2305" y="-463.066" font-family="Times,serif" font-size="20.00" fill="#000000">Status&#45;Code</text>
</g>
<!-- SG_1_Node_5&#45;&gt;SG_1_Node_7 -->
<g id="edge28" class="edge">
<title>SG_1_Node_5&#45;&gt;SG_1_Node_7</title>
<path fill="none" stroke="#000000" d="M2247.9279,-632.357C2256.342,-621.3459 2266.4477,-606.6768 2273,-592.2792 2287.2688,-560.9262 2295.9775,-522.111 2300.6357,-496.2991"/>
<polygon fill="#000000" stroke="#000000" points="2304.0883,-496.8729 2302.3344,-486.4242 2297.1897,-495.6861 2304.0883,-496.8729"/>
<text text-anchor="middle" x="2376.5" y="-576.2792" font-family="Times,serif" font-size="20.00" fill="#000000">[NA]</text>
<text text-anchor="middle" x="2376.5" y="-554.2792" font-family="Times,serif" font-size="20.00" fill="#000000">default&#45;src &#39;self&#39;</text>
<text text-anchor="middle" x="2376.5" y="-532.2792" font-family="Times,serif" font-size="20.00" fill="#000000">empty</text>
</g>
<!-- SG_1_Node_14 -->
<g id="node27" class="node">
<title>SG_1_Node_14</title>
<ellipse fill="none" stroke="#000000" cx="2518" cy="-468.066" rx="34.7971" ry="21.4286"/>
<text text-anchor="middle" x="2518" y="-463.066" font-family="Times,serif" font-size="20.00" fill="#000000">0.0</text>
</g>
<!-- SG_1_Node_6&#45;&gt;SG_1_Node_14 -->
<g id="edge19" class="edge">
<title>SG_1_Node_6&#45;&gt;SG_1_Node_14</title>
<path fill="none" stroke="#000000" d="M2569.3262,-632.3337C2559.5552,-601.062 2539.4539,-536.7285 2527.5122,-498.5096"/>
<polygon fill="#000000" stroke="#000000" points="2530.8427,-497.4326 2524.5195,-488.9315 2524.1612,-499.5203 2530.8427,-497.4326"/>
<text text-anchor="middle" x="2580.5" y="-554.2792" font-family="Times,serif" font-size="20.00" fill="#000000">deny</text>
</g>
<!-- SG_1_Node_8 -->
<g id="node28" class="node">
<title>SG_1_Node_8</title>
<polygon fill="none" stroke="#000000" points="2831,-486.066 2571,-486.066 2571,-450.066 2831,-450.066 2831,-486.066"/>
<text text-anchor="middle" x="2701" y="-463.066" font-family="Times,serif" font-size="20.00" fill="#000000">Content&#45;Security&#45;Policy</text>
</g>
<!-- SG_1_Node_6&#45;&gt;SG_1_Node_8 -->
<g id="edge20" class="edge">
<title>SG_1_Node_6&#45;&gt;SG_1_Node_8</title>
<path fill="none" stroke="#000000" d="M2587.542,-632.3337C2609.9012,-599.9615 2656.7312,-532.1596 2682.691,-494.5743"/>
<polygon fill="#000000" stroke="#000000" points="2685.7054,-496.3685 2688.5087,-486.1513 2679.9457,-492.3903 2685.7054,-496.3685"/>
<text text-anchor="middle" x="2692" y="-565.2792" font-family="Times,serif" font-size="20.00" fill="#000000">[NA]</text>
<text text-anchor="middle" x="2692" y="-543.2792" font-family="Times,serif" font-size="20.00" fill="#000000">empty</text>
</g>
<!-- SG_1_Node_15 -->
<g id="node29" class="node">
<title>SG_1_Node_15</title>
<ellipse fill="none" stroke="#000000" cx="2257" cy="-219.6396" rx="34.7971" ry="21.4286"/>
<text text-anchor="middle" x="2257" y="-214.6396" font-family="Times,serif" font-size="20.00" fill="#000000">0.0</text>
</g>
<!-- SG_1_Node_7&#45;&gt;SG_1_Node_15 -->
<g id="edge29" class="edge">
<title>SG_1_Node_7&#45;&gt;SG_1_Node_15</title>
<path fill="none" stroke="#000000" d="M2291.5046,-449.9465C2284.0752,-438.9409 2275.4768,-424.272 2271,-409.8528 2254.2623,-355.9437 2253.6081,-289.4846 2255.0392,-251.095"/>
<polygon fill="#000000" stroke="#000000" points="2258.5383,-251.191 2255.4865,-241.0452 2251.5452,-250.8797 2258.5383,-251.191"/>
<text text-anchor="middle" x="2290.5" y="-371.8528" font-family="Times,serif" font-size="20.00" fill="#000000">100</text>
<text text-anchor="middle" x="2290.5" y="-349.8528" font-family="Times,serif" font-size="20.00" fill="#000000">102</text>
<text text-anchor="middle" x="2290.5" y="-327.8528" font-family="Times,serif" font-size="20.00" fill="#000000">103</text>
<text text-anchor="middle" x="2290.5" y="-305.8528" font-family="Times,serif" font-size="20.00" fill="#000000">407</text>
</g>
<!-- SG_1_Node_16 -->
<g id="node30" class="node">
<title>SG_1_Node_16</title>
<ellipse fill="none" stroke="#000000" cx="2344" cy="-219.6396" rx="34.7971" ry="21.4286"/>
<text text-anchor="middle" x="2344" y="-214.6396" font-family="Times,serif" font-size="20.00" fill="#000000">1.0</text>
</g>
<!-- SG_1_Node_7&#45;&gt;SG_1_Node_16 -->
<g id="edge30" class="edge">
<title>SG_1_Node_7&#45;&gt;SG_1_Node_16</title>
<path fill="none" stroke="#000000" d="M2307.8678,-449.7986C2314.4671,-407.7616 2330.7943,-303.759 2339.0506,-251.1671"/>
<polygon fill="#000000" stroke="#000000" points="2342.5429,-251.4883 2340.6362,-241.0665 2335.6276,-250.4026 2342.5429,-251.4883"/>
<text text-anchor="middle" x="2380" y="-349.8528" font-family="Times,serif" font-size="20.00" fill="#000000">[NA]</text>
<text text-anchor="middle" x="2380" y="-327.8528" font-family="Times,serif" font-size="20.00" fill="#000000">52 levels</text>
</g>
<!-- SG_1_Node_17 -->
<g id="node31" class="node">
<title>SG_1_Node_17</title>
<ellipse fill="none" stroke="#000000" cx="2492" cy="-219.6396" rx="34.7971" ry="21.4286"/>
<text text-anchor="middle" x="2492" y="-214.6396" font-family="Times,serif" font-size="20.00" fill="#000000">0.0</text>
</g>
<!-- SG_1_Node_8&#45;&gt;SG_1_Node_17 -->
<g id="edge21" class="edge">
<title>SG_1_Node_8&#45;&gt;SG_1_Node_17</title>
<path fill="none" stroke="#000000" d="M2591.6968,-450.0476C2548.0397,-440.4226 2505.0143,-426.9874 2492,-409.8528 2456.8302,-363.5484 2470.0404,-290.9555 2481.7165,-250.1424"/>
<polygon fill="#000000" stroke="#000000" points="2485.0921,-251.0706 2484.6215,-240.4862 2478.3889,-249.0539 2485.0921,-251.0706"/>
<text text-anchor="middle" x="2602.5" y="-338.8528" font-family="Times,serif" font-size="20.00" fill="#000000">frame&#45;ancestors &#39;self&#39;</text>
</g>
<!-- SG_1_Node_18 -->
<g id="node32" class="node">
<title>SG_1_Node_18</title>
<ellipse fill="none" stroke="#000000" cx="2749" cy="-219.6396" rx="34.7971" ry="21.4286"/>
<text text-anchor="middle" x="2749" y="-214.6396" font-family="Times,serif" font-size="20.00" fill="#000000">1.0</text>
</g>
<!-- SG_1_Node_8&#45;&gt;SG_1_Node_18 -->
<g id="edge22" class="edge">
<title>SG_1_Node_8&#45;&gt;SG_1_Node_18</title>
<path fill="none" stroke="#000000" d="M2706.5242,-449.8321C2709.8545,-438.4172 2714.0152,-423.3623 2717,-409.8528 2729.2303,-354.4977 2739.2787,-289.1737 2744.6827,-251.2721"/>
<polygon fill="#000000" stroke="#000000" points="2748.2166,-251.2759 2746.1448,-240.8856 2741.2849,-250.3 2748.2166,-251.2759"/>
<text text-anchor="middle" x="2822.5" y="-360.8528" font-family="Times,serif" font-size="20.00" fill="#000000">[NA]</text>
<text text-anchor="middle" x="2822.5" y="-338.8528" font-family="Times,serif" font-size="20.00" fill="#000000">default&#45;src &#39;self&#39;</text>
<text text-anchor="middle" x="2822.5" y="-316.8528" font-family="Times,serif" font-size="20.00" fill="#000000">empty</text>
</g>
<!-- SG_2_Node_0 -->
<g id="node33" class="node">
<title>SG_2_Node_0</title>
<polygon fill="none" stroke="#000000" points="4919,-1432.5584 4777,-1432.5584 4777,-1396.5584 4919,-1396.5584 4919,-1432.5584"/>
<text text-anchor="middle" x="4848" y="-1409.5584" font-family="Times,serif" font-size="20.00" fill="#000000">Status&#45;Code</text>
</g>
<!-- SG_2_Node_1 -->
<g id="node34" class="node">
<title>SG_2_Node_1</title>
<polygon fill="none" stroke="#000000" points="4812.5,-1099.3452 4707.5,-1099.3452 4707.5,-1063.3452 4812.5,-1063.3452 4812.5,-1099.3452"/>
<text text-anchor="middle" x="4760" y="-1076.3452" font-family="Times,serif" font-size="20.00" fill="#000000">Location</text>
</g>
<!-- SG_2_Node_0&#45;&gt;SG_2_Node_1 -->
<g id="edge31" class="edge">
<title>SG_2_Node_0&#45;&gt;SG_2_Node_1</title>
<path fill="none" stroke="#000000" d="M4843.1434,-1396.1688C4828.5392,-1340.8697 4784.9527,-1175.829 4767.4229,-1109.4521"/>
<polygon fill="#000000" stroke="#000000" points="4770.7791,-1108.4528 4764.8416,-1099.678 4764.0111,-1110.2403 4770.7791,-1108.4528"/>
<text text-anchor="middle" x="4852.5" y="-1343.5584" font-family="Times,serif" font-size="20.00" fill="#000000">100</text>
<text text-anchor="middle" x="4852.5" y="-1321.5584" font-family="Times,serif" font-size="20.00" fill="#000000">102</text>
<text text-anchor="middle" x="4852.5" y="-1299.5584" font-family="Times,serif" font-size="20.00" fill="#000000">103</text>
<text text-anchor="middle" x="4852.5" y="-1277.5584" font-family="Times,serif" font-size="20.00" fill="#000000">301</text>
<text text-anchor="middle" x="4852.5" y="-1255.5584" font-family="Times,serif" font-size="20.00" fill="#000000">302</text>
<text text-anchor="middle" x="4852.5" y="-1233.5584" font-family="Times,serif" font-size="20.00" fill="#000000">303</text>
<text text-anchor="middle" x="4852.5" y="-1211.5584" font-family="Times,serif" font-size="20.00" fill="#000000">305</text>
<text text-anchor="middle" x="4852.5" y="-1189.5584" font-family="Times,serif" font-size="20.00" fill="#000000">307</text>
<text text-anchor="middle" x="4852.5" y="-1167.5584" font-family="Times,serif" font-size="20.00" fill="#000000">308</text>
<text text-anchor="middle" x="4852.5" y="-1145.5584" font-family="Times,serif" font-size="20.00" fill="#000000">407</text>
</g>
<!-- SG_2_Node_2 -->
<g id="node35" class="node">
<title>SG_2_Node_2</title>
<polygon fill="none" stroke="#000000" points="5031.5,-1099.3452 4840.5,-1099.3452 4840.5,-1063.3452 5031.5,-1063.3452 5031.5,-1099.3452"/>
<text text-anchor="middle" x="4936" y="-1076.3452" font-family="Times,serif" font-size="20.00" fill="#000000">X&#45;Frame&#45;Options</text>
</g>
<!-- SG_2_Node_0&#45;&gt;SG_2_Node_2 -->
<g id="edge32" class="edge">
<title>SG_2_Node_0&#45;&gt;SG_2_Node_2</title>
<path fill="none" stroke="#000000" d="M4858.691,-1396.503C4864.5141,-1386.0159 4871.4408,-1372.3797 4876,-1359.5584 4907.5294,-1270.892 4925.3541,-1160.1702 4932.4149,-1109.2841"/>
<polygon fill="#000000" stroke="#000000" points="4935.8846,-1109.7426 4933.7592,-1099.3632 4928.948,-1108.8026 4935.8846,-1109.7426"/>
<text text-anchor="middle" x="4973" y="-1255.5584" font-family="Times,serif" font-size="20.00" fill="#000000">[NA]</text>
<text text-anchor="middle" x="4973" y="-1233.5584" font-family="Times,serif" font-size="20.00" fill="#000000">52 levels</text>
</g>
<!-- SG_2_Node_7 -->
<g id="node36" class="node">
<title>SG_2_Node_7</title>
<ellipse fill="none" stroke="#000000" cx="4450" cy="-898.9188" rx="34.7971" ry="21.4286"/>
<text text-anchor="middle" x="4450" y="-893.9188" font-family="Times,serif" font-size="20.00" fill="#000000">0.0</text>
</g>
<!-- SG_2_Node_1&#45;&gt;SG_2_Node_7 -->
<g id="edge37" class="edge">
<title>SG_2_Node_1&#45;&gt;SG_2_Node_7</title>
<path fill="none" stroke="#000000" d="M4707.2993,-1079.1527C4628.0764,-1074.6345 4484.1234,-1061.2665 4452,-1023.132 4430.5615,-997.6818 4434.2381,-957.79 4440.5438,-930.1087"/>
<polygon fill="#000000" stroke="#000000" points="4444.0028,-930.7042 4443.0424,-920.153 4437.2134,-929.0003 4444.0028,-930.7042"/>
<text text-anchor="middle" x="4589" y="-1007.132" font-family="Times,serif" font-size="20.00" fill="#000000">[NA]</text>
<text text-anchor="middle" x="4589" y="-985.132" font-family="Times,serif" font-size="20.00" fill="#000000">/</text>
<text text-anchor="middle" x="4589" y="-963.132" font-family="Times,serif" font-size="20.00" fill="#000000">http://localhost:8000/echo/</text>
</g>
<!-- SG_2_Node_3 -->
<g id="node37" class="node">
<title>SG_2_Node_3</title>
<polygon fill="none" stroke="#000000" points="4788,-916.9188 4646,-916.9188 4646,-880.9188 4788,-880.9188 4788,-916.9188"/>
<text text-anchor="middle" x="4717" y="-893.9188" font-family="Times,serif" font-size="20.00" fill="#000000">Status&#45;Code</text>
</g>
<!-- SG_2_Node_1&#45;&gt;SG_2_Node_3 -->
<g id="edge38" class="edge">
<title>SG_2_Node_1&#45;&gt;SG_2_Node_3</title>
<path fill="none" stroke="#000000" d="M4755.7198,-1063.1866C4748.1859,-1031.2241 4732.5109,-964.7233 4723.5881,-926.8688"/>
<polygon fill="#000000" stroke="#000000" points="4726.9639,-925.9343 4721.2629,-917.0041 4720.1506,-927.5404 4726.9639,-925.9343"/>
<text text-anchor="middle" x="4778" y="-985.132" font-family="Times,serif" font-size="20.00" fill="#000000">empty</text>
</g>
<!-- SG_2_Node_4 -->
<g id="node38" class="node">
<title>SG_2_Node_4</title>
<polygon fill="none" stroke="#000000" points="5066,-916.9188 4806,-916.9188 4806,-880.9188 5066,-880.9188 5066,-916.9188"/>
<text text-anchor="middle" x="4936" y="-893.9188" font-family="Times,serif" font-size="20.00" fill="#000000">Content&#45;Security&#45;Policy</text>
</g>
<!-- SG_2_Node_2&#45;&gt;SG_2_Node_4 -->
<g id="edge33" class="edge">
<title>SG_2_Node_2&#45;&gt;SG_2_Node_4</title>
<path fill="none" stroke="#000000" d="M4936,-1063.1866C4936,-1031.3607 4936,-965.291 4936,-927.3557"/>
<polygon fill="#000000" stroke="#000000" points="4939.5001,-927.004 4936,-917.0041 4932.5001,-927.0041 4939.5001,-927.004"/>
<text text-anchor="middle" x="4968" y="-985.132" font-family="Times,serif" font-size="20.00" fill="#000000">empty</text>
</g>
<!-- SG_2_Node_8 -->
<g id="node39" class="node">
<title>SG_2_Node_8</title>
<ellipse fill="none" stroke="#000000" cx="5119" cy="-898.9188" rx="34.7971" ry="21.4286"/>
<text text-anchor="middle" x="5119" y="-893.9188" font-family="Times,serif" font-size="20.00" fill="#000000">1.0</text>
</g>
<!-- SG_2_Node_2&#45;&gt;SG_2_Node_8 -->
<g id="edge34" class="edge">
<title>SG_2_Node_2&#45;&gt;SG_2_Node_8</title>
<path fill="none" stroke="#000000" d="M4958.6213,-1063.0989C4972.1315,-1051.9299 4989.4394,-1037.1371 5004,-1023.132 5037.2551,-991.1457 5072.9761,-951.6716 5095.6294,-925.9261"/>
<polygon fill="#000000" stroke="#000000" points="5098.549,-927.9049 5102.5054,-918.0765 5093.2835,-923.2924 5098.549,-927.9049"/>
<text text-anchor="middle" x="5091" y="-996.132" font-family="Times,serif" font-size="20.00" fill="#000000">[NA]</text>
<text text-anchor="middle" x="5091" y="-974.132" font-family="Times,serif" font-size="20.00" fill="#000000">deny</text>
</g>
<!-- SG_2_Node_9 -->
<g id="node40" class="node">
<title>SG_2_Node_9</title>
<ellipse fill="none" stroke="#000000" cx="4583" cy="-650.4924" rx="34.7971" ry="21.4286"/>
<text text-anchor="middle" x="4583" y="-645.4924" font-family="Times,serif" font-size="20.00" fill="#000000">0.0</text>
</g>
<!-- SG_2_Node_3&#45;&gt;SG_2_Node_9 -->
<g id="edge39" class="edge">
<title>SG_2_Node_3&#45;&gt;SG_2_Node_9</title>
<path fill="none" stroke="#000000" d="M4703.5164,-880.7457C4695.4115,-869.4801 4685.1278,-854.5614 4677,-840.7056 4644.9209,-786.0192 4613.486,-718.8843 4596.3302,-680.7607"/>
<polygon fill="#000000" stroke="#000000" points="4599.3609,-678.9642 4592.0828,-671.2649 4592.971,-681.8224 4599.3609,-678.9642"/>
<text text-anchor="middle" x="4696.5" y="-802.7056" font-family="Times,serif" font-size="20.00" fill="#000000">100</text>
<text text-anchor="middle" x="4696.5" y="-780.7056" font-family="Times,serif" font-size="20.00" fill="#000000">102</text>
<text text-anchor="middle" x="4696.5" y="-758.7056" font-family="Times,serif" font-size="20.00" fill="#000000">103</text>
<text text-anchor="middle" x="4696.5" y="-736.7056" font-family="Times,serif" font-size="20.00" fill="#000000">407</text>
</g>
<!-- SG_2_Node_5 -->
<g id="node41" class="node">
<title>SG_2_Node_5</title>
<polygon fill="none" stroke="#000000" points="4826.5,-668.4924 4635.5,-668.4924 4635.5,-632.4924 4826.5,-632.4924 4826.5,-668.4924"/>
<text text-anchor="middle" x="4731" y="-645.4924" font-family="Times,serif" font-size="20.00" fill="#000000">X&#45;Frame&#45;Options</text>
</g>
<!-- SG_2_Node_3&#45;&gt;SG_2_Node_5 -->
<g id="edge40" class="edge">
<title>SG_2_Node_3&#45;&gt;SG_2_Node_5</title>
<path fill="none" stroke="#000000" d="M4718.0295,-880.6514C4720.4466,-837.7606 4726.499,-730.3618 4729.4002,-678.8802"/>
<polygon fill="#000000" stroke="#000000" points="4732.9007,-678.9677 4729.969,-668.7866 4725.9118,-678.5738 4732.9007,-678.9677"/>
<text text-anchor="middle" x="4746.5" y="-824.7056" font-family="Times,serif" font-size="20.00" fill="#000000">301</text>
<text text-anchor="middle" x="4746.5" y="-802.7056" font-family="Times,serif" font-size="20.00" fill="#000000">302</text>
<text text-anchor="middle" x="4746.5" y="-780.7056" font-family="Times,serif" font-size="20.00" fill="#000000">303</text>
<text text-anchor="middle" x="4746.5" y="-758.7056" font-family="Times,serif" font-size="20.00" fill="#000000">305</text>
<text text-anchor="middle" x="4746.5" y="-736.7056" font-family="Times,serif" font-size="20.00" fill="#000000">307</text>
<text text-anchor="middle" x="4746.5" y="-714.7056" font-family="Times,serif" font-size="20.00" fill="#000000">308</text>
</g>
<!-- SG_2_Node_10 -->
<g id="node42" class="node">
<title>SG_2_Node_10</title>
<ellipse fill="none" stroke="#000000" cx="4913" cy="-650.4924" rx="34.7971" ry="21.4286"/>
<text text-anchor="middle" x="4913" y="-645.4924" font-family="Times,serif" font-size="20.00" fill="#000000">0.0</text>
</g>
<!-- SG_2_Node_4&#45;&gt;SG_2_Node_10 -->
<g id="edge35" class="edge">
<title>SG_2_Node_4&#45;&gt;SG_2_Node_10</title>
<path fill="none" stroke="#000000" d="M4932.8297,-880.8759C4930.9086,-869.4041 4928.5395,-854.2195 4927,-840.7056 4920.6723,-785.1598 4916.6016,-720.1465 4914.5632,-682.3131"/>
<polygon fill="#000000" stroke="#000000" points="4918.0381,-681.7418 4914.0187,-671.939 4911.0477,-682.1087 4918.0381,-681.7418"/>
<text text-anchor="middle" x="5009.5" y="-791.7056" font-family="Times,serif" font-size="20.00" fill="#000000">[NA]</text>
<text text-anchor="middle" x="5009.5" y="-769.7056" font-family="Times,serif" font-size="20.00" fill="#000000">default&#45;src &#39;self&#39;</text>
<text text-anchor="middle" x="5009.5" y="-747.7056" font-family="Times,serif" font-size="20.00" fill="#000000">empty</text>
</g>
<!-- SG_2_Node_11 -->
<g id="node43" class="node">
<title>SG_2_Node_11</title>
<ellipse fill="none" stroke="#000000" cx="5114" cy="-650.4924" rx="34.7971" ry="21.4286"/>
<text text-anchor="middle" x="5114" y="-645.4924" font-family="Times,serif" font-size="20.00" fill="#000000">1.0</text>
</g>
<!-- SG_2_Node_4&#45;&gt;SG_2_Node_11 -->
<g id="edge36" class="edge">
<title>SG_2_Node_4&#45;&gt;SG_2_Node_11</title>
<path fill="none" stroke="#000000" d="M5005.0211,-880.8641C5041.2876,-869.9382 5080.5482,-855.3281 5092,-840.7056 5127.9203,-794.8402 5124.9715,-722.6334 5119.5367,-681.6422"/>
<polygon fill="#000000" stroke="#000000" points="5122.9912,-681.0755 5118.0849,-671.6851 5116.0644,-682.0855 5122.9912,-681.0755"/>
<text text-anchor="middle" x="5232.5" y="-769.7056" font-family="Times,serif" font-size="20.00" fill="#000000">frame&#45;ancestors &#39;self&#39;</text>
</g>
<!-- SG_2_Node_6 -->
<g id="node44" class="node">
<title>SG_2_Node_6</title>
<polygon fill="none" stroke="#000000" points="4710,-486.066 4450,-486.066 4450,-450.066 4710,-450.066 4710,-486.066"/>
<text text-anchor="middle" x="4580" y="-463.066" font-family="Times,serif" font-size="20.00" fill="#000000">Content&#45;Security&#45;Policy</text>
</g>
<!-- SG_2_Node_5&#45;&gt;SG_2_Node_6 -->
<g id="edge41" class="edge">
<title>SG_2_Node_5&#45;&gt;SG_2_Node_6</title>
<path fill="none" stroke="#000000" d="M4711.4973,-632.2621C4699.9001,-621.0989 4685.1331,-606.3064 4673,-592.2792 4645.2538,-560.2015 4616.4611,-520.5997 4598.403,-494.8605"/>
<polygon fill="#000000" stroke="#000000" points="4601.0732,-492.5706 4592.4826,-486.3694 4595.3311,-496.5742 4601.0732,-492.5706"/>
<text text-anchor="middle" x="4705" y="-565.2792" font-family="Times,serif" font-size="20.00" fill="#000000">[NA]</text>
<text text-anchor="middle" x="4705" y="-543.2792" font-family="Times,serif" font-size="20.00" fill="#000000">empty</text>
</g>
<!-- SG_2_Node_12 -->
<g id="node45" class="node">
<title>SG_2_Node_12</title>
<ellipse fill="none" stroke="#000000" cx="4763" cy="-468.066" rx="34.7971" ry="21.4286"/>
<text text-anchor="middle" x="4763" y="-463.066" font-family="Times,serif" font-size="20.00" fill="#000000">1.0</text>
</g>
<!-- SG_2_Node_5&#45;&gt;SG_2_Node_12 -->
<g id="edge42" class="edge">
<title>SG_2_Node_5&#45;&gt;SG_2_Node_12</title>
<path fill="none" stroke="#000000" d="M4734.1853,-632.3337C4739.633,-601.2775 4750.8005,-537.6134 4757.5206,-499.3032"/>
<polygon fill="#000000" stroke="#000000" points="4761.0091,-499.6727 4759.2896,-489.2183 4754.1144,-498.4632 4761.0091,-499.6727"/>
<text text-anchor="middle" x="4776.5" y="-554.2792" font-family="Times,serif" font-size="20.00" fill="#000000">deny</text>
</g>
<!-- SG_2_Node_13 -->
<g id="node46" class="node">
<title>SG_2_Node_13</title>
<ellipse fill="none" stroke="#000000" cx="4512" cy="-219.6396" rx="34.7971" ry="21.4286"/>
<text text-anchor="middle" x="4512" y="-214.6396" font-family="Times,serif" font-size="20.00" fill="#000000">0.0</text>
</g>
<!-- SG_2_Node_6&#45;&gt;SG_2_Node_13 -->
<g id="edge43" class="edge">
<title>SG_2_Node_6&#45;&gt;SG_2_Node_13</title>
<path fill="none" stroke="#000000" d="M4556.9,-449.843C4545.4995,-439.4446 4532.7691,-425.3988 4526,-409.8528 4503.344,-357.821 4504.7486,-290.2036 4508.1521,-251.1898"/>
<polygon fill="#000000" stroke="#000000" points="4511.6605,-251.2735 4509.1468,-240.9812 4504.6935,-250.5946 4511.6605,-251.2735"/>
<text text-anchor="middle" x="4608.5" y="-360.8528" font-family="Times,serif" font-size="20.00" fill="#000000">[NA]</text>
<text text-anchor="middle" x="4608.5" y="-338.8528" font-family="Times,serif" font-size="20.00" fill="#000000">default&#45;src &#39;self&#39;</text>
<text text-anchor="middle" x="4608.5" y="-316.8528" font-family="Times,serif" font-size="20.00" fill="#000000">empty</text>
</g>
<!-- SG_2_Node_14 -->
<g id="node47" class="node">
<title>SG_2_Node_14</title>
<ellipse fill="none" stroke="#000000" cx="4713" cy="-219.6396" rx="34.7971" ry="21.4286"/>
<text text-anchor="middle" x="4713" y="-214.6396" font-family="Times,serif" font-size="20.00" fill="#000000">1.0</text>
</g>
<!-- SG_2_Node_6&#45;&gt;SG_2_Node_14 -->
<g id="edge44" class="edge">
<title>SG_2_Node_6&#45;&gt;SG_2_Node_14</title>
<path fill="none" stroke="#000000" d="M4638.8329,-449.9481C4658.4656,-440.9846 4678.5022,-428.0633 4691,-409.8528 4723.7223,-362.173 4722.1324,-291.4628 4717.7523,-251.0366"/>
<polygon fill="#000000" stroke="#000000" points="4721.2094,-250.4698 4716.5338,-240.9625 4714.26,-251.3104 4721.2094,-250.4698"/>
<text text-anchor="middle" x="4830.5" y="-338.8528" font-family="Times,serif" font-size="20.00" fill="#000000">frame&#45;ancestors &#39;self&#39;</text>
</g>
</g>
</svg>
