<?xml version="1.0" encoding="UTF-8" standalone="no"?>
<!DOCTYPE svg PUBLIC "-//W3C//DTD SVG 1.1//EN"
 "http://www.w3.org/Graphics/SVG/1.1/DTD/svg11.dtd">
<!-- Generated by graphviz version 2.40.1 (20161225.0304)
 -->
<!-- Title: G Pages: 1 -->
<svg width="3874pt" height="1867pt"
 viewBox="0.00 0.00 3874.00 1866.98" xmlns="http://www.w3.org/2000/svg" xmlns:xlink="http://www.w3.org/1999/xlink">
<g id="graph0" class="graph" transform="scale(1 1) rotate(0) translate(4 1862.9848)">
<title>G</title>
<polygon fill="#ffffff" stroke="transparent" points="-4,4 -4,-1862.9848 3870,-1862.9848 3870,4 -4,4"/>
<g id="clust1" class="cluster">
<title>cluster_0</title>
<polygon fill="none" stroke="#000000" points="8,-8 8,-1850.9848 812,-1850.9848 812,-8 8,-8"/>
<text text-anchor="middle" x="410" y="-1814.9848" font-family="Times,serif" font-size="40.00" fill="#000000">Tree 0, Class js&#45;undefined</text>
</g>
<g id="clust11" class="cluster">
<title>cluster_1</title>
<polygon fill="none" stroke="#000000" points="820,-8 820,-1850.9848 3858,-1850.9848 3858,-8 820,-8"/>
<text text-anchor="middle" x="2339" y="-1814.9848" font-family="Times,serif" font-size="40.00" fill="#000000">Tree 0, Class {&#39;code&#39;: 18, &#39;name&#39;: &#39;SecurityError&#39;, &#39;message&#39;: &#39;Blocked a frame with origin http://localhost:8001 from accessing a cross&#45;origin frame.&#39;}</text>
</g>
<!-- SG_0_Node_0 -->
<g id="node1" class="node">
<title>SG_0_Node_0</title>
<polygon fill="none" stroke="#000000" points="222,-1790.9848 80,-1790.9848 80,-1754.9848 222,-1754.9848 222,-1790.9848"/>
<text text-anchor="middle" x="151" y="-1767.9848" font-family="Times,serif" font-size="20.00" fill="#000000">Status&#45;Code</text>
</g>
<!-- SG_0_Node_1 -->
<g id="node2" class="node">
<title>SG_0_Node_1</title>
<polygon fill="none" stroke="#000000" points="190,-1633.7716 48,-1633.7716 48,-1597.7716 190,-1597.7716 190,-1633.7716"/>
<text text-anchor="middle" x="119" y="-1610.7716" font-family="Times,serif" font-size="20.00" fill="#000000">Status&#45;Code</text>
</g>
<!-- SG_0_Node_0&#45;&gt;SG_0_Node_1 -->
<g id="edge1" class="edge">
<title>SG_0_Node_0&#45;&gt;SG_0_Node_1</title>
<path fill="none" stroke="#000000" d="M144.1632,-1754.8842C140.3843,-1744.2674 135.8843,-1730.5174 133,-1717.9848 127.3215,-1693.3109 123.6454,-1664.7205 121.4918,-1644.0621"/>
<polygon fill="#000000" stroke="#000000" points="124.9684,-1643.6522 120.5018,-1634.0449 118.0024,-1644.3407 124.9684,-1643.6522"/>
<text text-anchor="middle" x="179" y="-1701.9848" font-family="Times,serif" font-size="20.00" fill="#000000">[NA]</text>
<text text-anchor="middle" x="179" y="-1679.9848" font-family="Times,serif" font-size="20.00" fill="#000000">61 levels</text>
</g>
<!-- SG_0_Node_10 -->
<g id="node3" class="node">
<title>SG_0_Node_10</title>
<ellipse fill="none" stroke="#000000" cx="247" cy="-1615.7716" rx="34.7971" ry="21.4286"/>
<text text-anchor="middle" x="247" y="-1610.7716" font-family="Times,serif" font-size="20.00" fill="#000000">1.0</text>
</g>
<!-- SG_0_Node_0&#45;&gt;SG_0_Node_10 -->
<g id="edge2" class="edge">
<title>SG_0_Node_0&#45;&gt;SG_0_Node_10</title>
<path fill="none" stroke="#000000" d="M185.3113,-1754.9113C199.6462,-1745.6941 215.2115,-1733.1954 225,-1717.9848 238.6133,-1696.8309 243.9348,-1668.6257 245.9525,-1647.203"/>
<polygon fill="#000000" stroke="#000000" points="249.4605,-1647.2257 246.7163,-1636.9924 242.48,-1646.7034 249.4605,-1647.2257"/>
<text text-anchor="middle" x="260.5" y="-1690.9848" font-family="Times,serif" font-size="20.00" fill="#000000">304</text>
</g>
<!-- SG_0_Node_11 -->
<g id="node4" class="node">
<title>SG_0_Node_11</title>
<ellipse fill="none" stroke="#000000" cx="85" cy="-1279.3452" rx="34.7971" ry="21.4286"/>
<text text-anchor="middle" x="85" y="-1274.3452" font-family="Times,serif" font-size="20.00" fill="#000000">0.0</text>
</g>
<!-- SG_0_Node_1&#45;&gt;SG_0_Node_11 -->
<g id="edge3" class="edge">
<title>SG_0_Node_1&#45;&gt;SG_0_Node_11</title>
<path fill="none" stroke="#000000" d="M117.172,-1597.6839C111.673,-1543.272 95.2316,-1380.586 88.2226,-1311.2327"/>
<polygon fill="#000000" stroke="#000000" points="91.6697,-1310.5315 87.1818,-1300.9342 84.7052,-1311.2354 91.6697,-1310.5315"/>
<text text-anchor="middle" x="159" y="-1453.5584" font-family="Times,serif" font-size="20.00" fill="#000000">[NA]</text>
<text text-anchor="middle" x="159" y="-1431.5584" font-family="Times,serif" font-size="20.00" fill="#000000">51 levels</text>
</g>
<!-- SG_0_Node_3 -->
<g id="node5" class="node">
<title>SG_0_Node_3</title>
<polygon fill="none" stroke="#000000" points="398,-1297.3452 138,-1297.3452 138,-1261.3452 398,-1261.3452 398,-1297.3452"/>
<text text-anchor="middle" x="268" y="-1274.3452" font-family="Times,serif" font-size="20.00" fill="#000000">Content&#45;Security&#45;Policy</text>
</g>
<!-- SG_0_Node_1&#45;&gt;SG_0_Node_3 -->
<g id="edge4" class="edge">
<title>SG_0_Node_1&#45;&gt;SG_0_Node_3</title>
<path fill="none" stroke="#000000" d="M161.1771,-1597.5323C178.4799,-1588.015 197.1835,-1574.7266 209,-1557.5584 262.9508,-1479.1738 269.1086,-1361.1335 268.8565,-1307.5688"/>
<polygon fill="#000000" stroke="#000000" points="272.3548,-1307.4043 268.7267,-1297.4501 265.3554,-1307.4942 272.3548,-1307.4043"/>
<text text-anchor="middle" x="287.5" y="-1541.5584" font-family="Times,serif" font-size="20.00" fill="#000000">200</text>
<text text-anchor="middle" x="287.5" y="-1519.5584" font-family="Times,serif" font-size="20.00" fill="#000000">201</text>
<text text-anchor="middle" x="287.5" y="-1497.5584" font-family="Times,serif" font-size="20.00" fill="#000000">202</text>
<text text-anchor="middle" x="287.5" y="-1475.5584" font-family="Times,serif" font-size="20.00" fill="#000000">203</text>
<text text-anchor="middle" x="287.5" y="-1453.5584" font-family="Times,serif" font-size="20.00" fill="#000000">204</text>
<text text-anchor="middle" x="287.5" y="-1431.5584" font-family="Times,serif" font-size="20.00" fill="#000000">205</text>
<text text-anchor="middle" x="287.5" y="-1409.5584" font-family="Times,serif" font-size="20.00" fill="#000000">206</text>
<text text-anchor="middle" x="287.5" y="-1387.5584" font-family="Times,serif" font-size="20.00" fill="#000000">207</text>
<text text-anchor="middle" x="287.5" y="-1365.5584" font-family="Times,serif" font-size="20.00" fill="#000000">208</text>
<text text-anchor="middle" x="287.5" y="-1343.5584" font-family="Times,serif" font-size="20.00" fill="#000000">226</text>
</g>
<!-- SG_0_Node_12 -->
<g id="node6" class="node">
<title>SG_0_Node_12</title>
<ellipse fill="none" stroke="#000000" cx="56" cy="-1096.9188" rx="34.7971" ry="21.4286"/>
<text text-anchor="middle" x="56" y="-1091.9188" font-family="Times,serif" font-size="20.00" fill="#000000">0.0</text>
</g>
<!-- SG_0_Node_3&#45;&gt;SG_0_Node_12 -->
<g id="edge5" class="edge">
<title>SG_0_Node_3&#45;&gt;SG_0_Node_12</title>
<path fill="none" stroke="#000000" d="M157.4367,-1261.3401C113.4764,-1251.7349 70.1916,-1238.312 57,-1221.132 36.7359,-1194.7413 40.5346,-1155.0426 46.7518,-1127.6633"/>
<polygon fill="#000000" stroke="#000000" points="50.1811,-1128.3766 49.2079,-1117.8265 43.3896,-1126.6808 50.1811,-1128.3766"/>
<text text-anchor="middle" x="167.5" y="-1205.132" font-family="Times,serif" font-size="20.00" fill="#000000">[NA]</text>
<text text-anchor="middle" x="167.5" y="-1183.132" font-family="Times,serif" font-size="20.00" fill="#000000">empty</text>
<text text-anchor="middle" x="167.5" y="-1161.132" font-family="Times,serif" font-size="20.00" fill="#000000">frame&#45;ancestors &#39;self&#39;</text>
</g>
<!-- SG_0_Node_4 -->
<g id="node7" class="node">
<title>SG_0_Node_4</title>
<polygon fill="none" stroke="#000000" points="423.5,-1114.9188 202.5,-1114.9188 202.5,-1078.9188 423.5,-1078.9188 423.5,-1114.9188"/>
<text text-anchor="middle" x="313" y="-1091.9188" font-family="Times,serif" font-size="20.00" fill="#000000">Content&#45;Disposition</text>
</g>
<!-- SG_0_Node_3&#45;&gt;SG_0_Node_4 -->
<g id="edge6" class="edge">
<title>SG_0_Node_3&#45;&gt;SG_0_Node_4</title>
<path fill="none" stroke="#000000" d="M272.4793,-1261.1866C280.3636,-1229.2241 296.7677,-1162.7233 306.1054,-1124.8688"/>
<polygon fill="#000000" stroke="#000000" points="309.5419,-1125.5513 308.5388,-1115.0041 302.7457,-1123.8748 309.5419,-1125.5513"/>
<text text-anchor="middle" x="380.5" y="-1183.132" font-family="Times,serif" font-size="20.00" fill="#000000">default&#45;src &#39;self&#39;</text>
</g>
<!-- SG_0_Node_5 -->
<g id="node8" class="node">
<title>SG_0_Node_5</title>
<polygon fill="none" stroke="#000000" points="367,-954.4924 225,-954.4924 225,-918.4924 367,-918.4924 367,-954.4924"/>
<text text-anchor="middle" x="296" y="-931.4924" font-family="Times,serif" font-size="20.00" fill="#000000">Status&#45;Code</text>
</g>
<!-- SG_0_Node_4&#45;&gt;SG_0_Node_5 -->
<g id="edge7" class="edge">
<title>SG_0_Node_4&#45;&gt;SG_0_Node_5</title>
<path fill="none" stroke="#000000" d="M311.0829,-1078.8277C308.1495,-1051.1459 302.5211,-998.0306 299.0308,-965.0939"/>
<polygon fill="#000000" stroke="#000000" points="302.4705,-964.339 297.9361,-954.7636 295.5095,-965.0767 302.4705,-964.339"/>
<text text-anchor="middle" x="338" y="-1011.7056" font-family="Times,serif" font-size="20.00" fill="#000000">empty</text>
</g>
<!-- SG_0_Node_13 -->
<g id="node9" class="node">
<title>SG_0_Node_13</title>
<ellipse fill="none" stroke="#000000" cx="420" cy="-936.4924" rx="34.7971" ry="21.4286"/>
<text text-anchor="middle" x="420" y="-931.4924" font-family="Times,serif" font-size="20.00" fill="#000000">1.0</text>
</g>
<!-- SG_0_Node_4&#45;&gt;SG_0_Node_13 -->
<g id="edge8" class="edge">
<title>SG_0_Node_4&#45;&gt;SG_0_Node_13</title>
<path fill="none" stroke="#000000" d="M335.9723,-1078.7781C348.4019,-1068.0994 363.3456,-1053.7621 374,-1038.7056 389.623,-1016.6277 401.8411,-988.3941 409.7463,-967.1967"/>
<polygon fill="#000000" stroke="#000000" points="413.0684,-968.3017 413.174,-957.7074 406.4848,-965.9235 413.0684,-968.3017"/>
<text text-anchor="middle" x="457" y="-1022.7056" font-family="Times,serif" font-size="20.00" fill="#000000">[NA]</text>
<text text-anchor="middle" x="457" y="-1000.7056" font-family="Times,serif" font-size="20.00" fill="#000000">attachment</text>
</g>
<!-- SG_0_Node_6 -->
<g id="node10" class="node">
<title>SG_0_Node_6</title>
<polygon fill="none" stroke="#000000" points="332.5,-665.2792 177.5,-665.2792 177.5,-629.2792 332.5,-629.2792 332.5,-665.2792"/>
<text text-anchor="middle" x="255" y="-642.2792" font-family="Times,serif" font-size="20.00" fill="#000000">Content&#45;Type</text>
</g>
<!-- SG_0_Node_5&#45;&gt;SG_0_Node_6 -->
<g id="edge9" class="edge">
<title>SG_0_Node_5&#45;&gt;SG_0_Node_6</title>
<path fill="none" stroke="#000000" d="M293.4353,-918.4008C286.5037,-869.5054 267.3564,-734.441 258.9943,-675.4547"/>
<polygon fill="#000000" stroke="#000000" points="262.4328,-674.7737 257.5638,-665.364 255.5021,-675.7563 262.4328,-674.7737"/>
<text text-anchor="middle" x="306.5" y="-862.2792" font-family="Times,serif" font-size="20.00" fill="#000000">200</text>
<text text-anchor="middle" x="306.5" y="-840.2792" font-family="Times,serif" font-size="20.00" fill="#000000">201</text>
<text text-anchor="middle" x="306.5" y="-818.2792" font-family="Times,serif" font-size="20.00" fill="#000000">202</text>
<text text-anchor="middle" x="306.5" y="-796.2792" font-family="Times,serif" font-size="20.00" fill="#000000">203</text>
<text text-anchor="middle" x="306.5" y="-774.2792" font-family="Times,serif" font-size="20.00" fill="#000000">206</text>
<text text-anchor="middle" x="306.5" y="-752.2792" font-family="Times,serif" font-size="20.00" fill="#000000">207</text>
<text text-anchor="middle" x="306.5" y="-730.2792" font-family="Times,serif" font-size="20.00" fill="#000000">208</text>
<text text-anchor="middle" x="306.5" y="-708.2792" font-family="Times,serif" font-size="20.00" fill="#000000">226</text>
</g>
<!-- SG_0_Node_7 -->
<g id="node11" class="node">
<title>SG_0_Node_7</title>
<polygon fill="none" stroke="#000000" points="505.5,-665.2792 350.5,-665.2792 350.5,-629.2792 505.5,-629.2792 505.5,-665.2792"/>
<text text-anchor="middle" x="428" y="-642.2792" font-family="Times,serif" font-size="20.00" fill="#000000">Content&#45;Type</text>
</g>
<!-- SG_0_Node_5&#45;&gt;SG_0_Node_7 -->
<g id="edge10" class="edge">
<title>SG_0_Node_5&#45;&gt;SG_0_Node_7</title>
<path fill="none" stroke="#000000" d="M307.328,-918.4696C314.2502,-907.1342 323.0733,-892.0886 330,-878.2792 365.9693,-806.5693 400.9015,-718.493 417.6756,-674.7047"/>
<polygon fill="#000000" stroke="#000000" points="420.9664,-675.8978 421.2568,-665.307 414.4252,-673.4051 420.9664,-675.8978"/>
<text text-anchor="middle" x="425.5" y="-796.2792" font-family="Times,serif" font-size="20.00" fill="#000000">204</text>
<text text-anchor="middle" x="425.5" y="-774.2792" font-family="Times,serif" font-size="20.00" fill="#000000">205</text>
</g>
<!-- SG_0_Node_14 -->
<g id="node12" class="node">
<title>SG_0_Node_14</title>
<ellipse fill="none" stroke="#000000" cx="51" cy="-358.066" rx="34.7971" ry="21.4286"/>
<text text-anchor="middle" x="51" y="-353.066" font-family="Times,serif" font-size="20.00" fill="#000000">0.0</text>
</g>
<!-- SG_0_Node_6&#45;&gt;SG_0_Node_14 -->
<g id="edge13" class="edge">
<title>SG_0_Node_6&#45;&gt;SG_0_Node_14</title>
<path fill="none" stroke="#000000" d="M177.332,-637.9095C121.6504,-629.4093 53.5088,-614.7289 36,-592.2792 -10.5341,-532.6135 18.3382,-436.2634 37.7026,-387.8494"/>
<polygon fill="#000000" stroke="#000000" points="40.9595,-389.1322 41.5417,-378.5534 34.4895,-386.4602 40.9595,-389.1322"/>
<text text-anchor="middle" x="147" y="-576.2792" font-family="Times,serif" font-size="20.00" fill="#000000">[NA]</text>
<text text-anchor="middle" x="147" y="-554.2792" font-family="Times,serif" font-size="20.00" fill="#000000">application/javascript</text>
<text text-anchor="middle" x="147" y="-532.2792" font-family="Times,serif" font-size="20.00" fill="#000000">application/pdf</text>
<text text-anchor="middle" x="147" y="-510.2792" font-family="Times,serif" font-size="20.00" fill="#000000">audio/wav</text>
<text text-anchor="middle" x="147" y="-488.2792" font-family="Times,serif" font-size="20.00" fill="#000000">image/png</text>
<text text-anchor="middle" x="147" y="-466.2792" font-family="Times,serif" font-size="20.00" fill="#000000">text/css</text>
<text text-anchor="middle" x="147" y="-444.2792" font-family="Times,serif" font-size="20.00" fill="#000000">text/html</text>
<text text-anchor="middle" x="147" y="-422.2792" font-family="Times,serif" font-size="20.00" fill="#000000">video/mp4</text>
</g>
<!-- SG_0_Node_8 -->
<g id="node13" class="node">
<title>SG_0_Node_8</title>
<polygon fill="none" stroke="#000000" points="324.5,-376.066 259.5,-376.066 259.5,-340.066 324.5,-340.066 324.5,-376.066"/>
<text text-anchor="middle" x="292" y="-353.066" font-family="Times,serif" font-size="20.00" fill="#000000">body</text>
</g>
<!-- SG_0_Node_6&#45;&gt;SG_0_Node_8 -->
<g id="edge14" class="edge">
<title>SG_0_Node_6&#45;&gt;SG_0_Node_8</title>
<path fill="none" stroke="#000000" d="M257.3145,-629.1876C263.5699,-580.2922 280.8491,-445.2278 288.3954,-386.2415"/>
<polygon fill="#000000" stroke="#000000" points="291.889,-386.5141 289.6864,-376.1508 284.9456,-385.6257 291.889,-386.5141"/>
<text text-anchor="middle" x="316" y="-499.2792" font-family="Times,serif" font-size="20.00" fill="#000000">empty</text>
</g>
<!-- SG_0_Node_15 -->
<g id="node14" class="node">
<title>SG_0_Node_15</title>
<ellipse fill="none" stroke="#000000" cx="392" cy="-358.066" rx="34.7971" ry="21.4286"/>
<text text-anchor="middle" x="392" y="-353.066" font-family="Times,serif" font-size="20.00" fill="#000000">0.0</text>
</g>
<!-- SG_0_Node_7&#45;&gt;SG_0_Node_15 -->
<g id="edge11" class="edge">
<title>SG_0_Node_7&#45;&gt;SG_0_Node_15</title>
<path fill="none" stroke="#000000" d="M419.0434,-629.1663C414.2883,-618.6606 408.8516,-605.025 406,-592.2792 390.068,-521.0683 389.5779,-434.8326 390.7197,-389.4691"/>
<polygon fill="#000000" stroke="#000000" points="394.221,-389.475 391.0187,-379.3758 387.224,-389.2677 394.221,-389.475"/>
<text text-anchor="middle" x="483" y="-499.2792" font-family="Times,serif" font-size="20.00" fill="#000000">application/pdf</text>
</g>
<!-- SG_0_Node_16 -->
<g id="node15" class="node">
<title>SG_0_Node_16</title>
<ellipse fill="none" stroke="#000000" cx="582" cy="-358.066" rx="34.7971" ry="21.4286"/>
<text text-anchor="middle" x="582" y="-353.066" font-family="Times,serif" font-size="20.00" fill="#000000">1.0</text>
</g>
<!-- SG_0_Node_7&#45;&gt;SG_0_Node_16 -->
<g id="edge12" class="edge">
<title>SG_0_Node_7&#45;&gt;SG_0_Node_16</title>
<path fill="none" stroke="#000000" d="M505.8125,-630.5864C526.5007,-622.4085 546.7492,-610.2698 560,-592.2792 583.1521,-560.8456 583.994,-445.7405 582.9359,-389.4647"/>
<polygon fill="#000000" stroke="#000000" points="586.4327,-389.2756 582.7131,-379.3552 579.4344,-389.4299 586.4327,-389.2756"/>
<text text-anchor="middle" x="694" y="-576.2792" font-family="Times,serif" font-size="20.00" fill="#000000">[NA]</text>
<text text-anchor="middle" x="694" y="-554.2792" font-family="Times,serif" font-size="20.00" fill="#000000">application/javascript</text>
<text text-anchor="middle" x="694" y="-532.2792" font-family="Times,serif" font-size="20.00" fill="#000000">audio/wav</text>
<text text-anchor="middle" x="694" y="-510.2792" font-family="Times,serif" font-size="20.00" fill="#000000">empty</text>
<text text-anchor="middle" x="694" y="-488.2792" font-family="Times,serif" font-size="20.00" fill="#000000">image/png</text>
<text text-anchor="middle" x="694" y="-466.2792" font-family="Times,serif" font-size="20.00" fill="#000000">text/css</text>
<text text-anchor="middle" x="694" y="-444.2792" font-family="Times,serif" font-size="20.00" fill="#000000">text/html</text>
<text text-anchor="middle" x="694" y="-422.2792" font-family="Times,serif" font-size="20.00" fill="#000000">video/mp4</text>
</g>
<!-- SG_0_Node_17 -->
<g id="node16" class="node">
<title>SG_0_Node_17</title>
<ellipse fill="none" stroke="#000000" cx="132" cy="-197.6396" rx="34.7971" ry="21.4286"/>
<text text-anchor="middle" x="132" y="-192.6396" font-family="Times,serif" font-size="20.00" fill="#000000">0.0</text>
</g>
<!-- SG_0_Node_8&#45;&gt;SG_0_Node_17 -->
<g id="edge15" class="edge">
<title>SG_0_Node_8&#45;&gt;SG_0_Node_17</title>
<path fill="none" stroke="#000000" d="M259.3572,-340.4681C241.7919,-330.0583 220.4261,-315.8053 204,-299.8528 181.519,-278.02 161.4949,-248.3035 148.3068,-226.5396"/>
<polygon fill="#000000" stroke="#000000" points="151.2004,-224.5576 143.086,-217.7453 145.1812,-228.1309 151.2004,-224.5576"/>
<text text-anchor="middle" x="250" y="-283.8528" font-family="Times,serif" font-size="20.00" fill="#000000">[NA]</text>
<text text-anchor="middle" x="250" y="-261.8528" font-family="Times,serif" font-size="20.00" fill="#000000">11 levels</text>
</g>
<!-- SG_0_Node_9 -->
<g id="node17" class="node">
<title>SG_0_Node_9</title>
<polygon fill="none" stroke="#000000" points="447,-215.6396 185,-215.6396 185,-179.6396 447,-179.6396 447,-215.6396"/>
<text text-anchor="middle" x="316" y="-192.6396" font-family="Times,serif" font-size="20.00" fill="#000000">X&#45;Content&#45;Type&#45;Options</text>
</g>
<!-- SG_0_Node_8&#45;&gt;SG_0_Node_9 -->
<g id="edge16" class="edge">
<title>SG_0_Node_8&#45;&gt;SG_0_Node_9</title>
<path fill="none" stroke="#000000" d="M294.7065,-339.9749C298.8657,-312.1727 306.863,-258.7154 311.7853,-225.8126"/>
<polygon fill="#000000" stroke="#000000" points="315.2485,-226.3186 313.2666,-215.9107 308.3255,-225.2828 315.2485,-226.3186"/>
<text text-anchor="middle" x="552.5" y="-283.8528" font-family="Times,serif" font-size="20.00" fill="#000000">ecocnt_audio=duration=1</text>
<text text-anchor="middle" x="552.5" y="-261.8528" font-family="Times,serif" font-size="20.00" fill="#000000">ecocnt_vid=width=100,height=100,duration=2</text>
</g>
<!-- SG_0_Node_18 -->
<g id="node18" class="node">
<title>SG_0_Node_18</title>
<ellipse fill="none" stroke="#000000" cx="263" cy="-37.2132" rx="34.7971" ry="21.4286"/>
<text text-anchor="middle" x="263" y="-32.2132" font-family="Times,serif" font-size="20.00" fill="#000000">0.0</text>
</g>
<!-- SG_0_Node_9&#45;&gt;SG_0_Node_18 -->
<g id="edge17" class="edge">
<title>SG_0_Node_9&#45;&gt;SG_0_Node_18</title>
<path fill="none" stroke="#000000" d="M300.6489,-179.4495C292.2819,-168.535 282.5319,-153.9817 277,-139.4264 268.3844,-116.7572 264.9661,-89.4748 263.6575,-68.8005"/>
<polygon fill="#000000" stroke="#000000" points="267.145,-68.4633 263.1491,-58.6509 260.1538,-68.8135 267.145,-68.4633"/>
<text text-anchor="middle" x="312" y="-112.4264" font-family="Times,serif" font-size="20.00" fill="#000000">nosniff</text>
</g>
<!-- SG_0_Node_19 -->
<g id="node19" class="node">
<title>SG_0_Node_19</title>
<ellipse fill="none" stroke="#000000" cx="369" cy="-37.2132" rx="34.7971" ry="21.4286"/>
<text text-anchor="middle" x="369" y="-32.2132" font-family="Times,serif" font-size="20.00" fill="#000000">1.0</text>
</g>
<!-- SG_0_Node_9&#45;&gt;SG_0_Node_19 -->
<g id="edge18" class="edge">
<title>SG_0_Node_9&#45;&gt;SG_0_Node_19</title>
<path fill="none" stroke="#000000" d="M327.2697,-179.6318C333.8505,-168.4266 341.8473,-153.5133 347,-139.4264 355.4428,-116.3449 361.109,-89.0864 364.5739,-68.526"/>
<polygon fill="#000000" stroke="#000000" points="368.0633,-68.87 366.1882,-58.4424 361.1513,-67.7633 368.0633,-68.87"/>
<text text-anchor="middle" x="391" y="-123.4264" font-family="Times,serif" font-size="20.00" fill="#000000">[NA]</text>
<text text-anchor="middle" x="391" y="-101.4264" font-family="Times,serif" font-size="20.00" fill="#000000">empty</text>
</g>
<!-- SG_1_Node_0 -->
<g id="node20" class="node">
<title>SG_1_Node_0</title>
<polygon fill="none" stroke="#000000" points="989,-1790.9848 847,-1790.9848 847,-1754.9848 989,-1754.9848 989,-1790.9848"/>
<text text-anchor="middle" x="918" y="-1767.9848" font-family="Times,serif" font-size="20.00" fill="#000000">Status&#45;Code</text>
</g>
<!-- SG_1_Node_10 -->
<g id="node21" class="node">
<title>SG_1_Node_10</title>
<ellipse fill="none" stroke="#000000" cx="890" cy="-1615.7716" rx="34.7971" ry="21.4286"/>
<text text-anchor="middle" x="890" y="-1610.7716" font-family="Times,serif" font-size="20.00" fill="#000000">0.0</text>
</g>
<!-- SG_1_Node_0&#45;&gt;SG_1_Node_10 -->
<g id="edge19" class="edge">
<title>SG_1_Node_0&#45;&gt;SG_1_Node_10</title>
<path fill="none" stroke="#000000" d="M914.788,-1754.9505C910.1162,-1728.7191 901.3775,-1679.6534 895.6238,-1647.3478"/>
<polygon fill="#000000" stroke="#000000" points="898.9964,-1646.323 893.7971,-1637.0917 892.1049,-1647.5505 898.9964,-1646.323"/>
<text text-anchor="middle" x="927.5" y="-1690.9848" font-family="Times,serif" font-size="20.00" fill="#000000">304</text>
</g>
<!-- SG_1_Node_1 -->
<g id="node22" class="node">
<title>SG_1_Node_1</title>
<polygon fill="none" stroke="#000000" points="1085,-1633.7716 943,-1633.7716 943,-1597.7716 1085,-1597.7716 1085,-1633.7716"/>
<text text-anchor="middle" x="1014" y="-1610.7716" font-family="Times,serif" font-size="20.00" fill="#000000">Status&#45;Code</text>
</g>
<!-- SG_1_Node_0&#45;&gt;SG_1_Node_1 -->
<g id="edge20" class="edge">
<title>SG_1_Node_0&#45;&gt;SG_1_Node_1</title>
<path fill="none" stroke="#000000" d="M929.0124,-1754.9505C945.7771,-1727.496 977.8157,-1675.0284 997.4086,-1642.9423"/>
<polygon fill="#000000" stroke="#000000" points="1000.5958,-1644.4386 1002.8203,-1634.0799 994.6216,-1640.7905 1000.5958,-1644.4386"/>
<text text-anchor="middle" x="1023" y="-1701.9848" font-family="Times,serif" font-size="20.00" fill="#000000">[NA]</text>
<text text-anchor="middle" x="1023" y="-1679.9848" font-family="Times,serif" font-size="20.00" fill="#000000">61 levels</text>
</g>
<!-- SG_1_Node_2 -->
<g id="node23" class="node">
<title>SG_1_Node_2</title>
<polygon fill="none" stroke="#000000" points="1142,-1297.3452 882,-1297.3452 882,-1261.3452 1142,-1261.3452 1142,-1297.3452"/>
<text text-anchor="middle" x="1012" y="-1274.3452" font-family="Times,serif" font-size="20.00" fill="#000000">Content&#45;Security&#45;Policy</text>
</g>
<!-- SG_1_Node_1&#45;&gt;SG_1_Node_2 -->
<g id="edge21" class="edge">
<title>SG_1_Node_1&#45;&gt;SG_1_Node_2</title>
<path fill="none" stroke="#000000" d="M1013.8925,-1597.6839C1013.5635,-1542.3497 1012.5689,-1375.0396 1012.1691,-1307.7874"/>
<polygon fill="#000000" stroke="#000000" points="1015.6675,-1307.5014 1012.1081,-1297.5224 1008.6677,-1307.5431 1015.6675,-1307.5014"/>
<text text-anchor="middle" x="1032.5" y="-1541.5584" font-family="Times,serif" font-size="20.00" fill="#000000">200</text>
<text text-anchor="middle" x="1032.5" y="-1519.5584" font-family="Times,serif" font-size="20.00" fill="#000000">201</text>
<text text-anchor="middle" x="1032.5" y="-1497.5584" font-family="Times,serif" font-size="20.00" fill="#000000">202</text>
<text text-anchor="middle" x="1032.5" y="-1475.5584" font-family="Times,serif" font-size="20.00" fill="#000000">203</text>
<text text-anchor="middle" x="1032.5" y="-1453.5584" font-family="Times,serif" font-size="20.00" fill="#000000">204</text>
<text text-anchor="middle" x="1032.5" y="-1431.5584" font-family="Times,serif" font-size="20.00" fill="#000000">205</text>
<text text-anchor="middle" x="1032.5" y="-1409.5584" font-family="Times,serif" font-size="20.00" fill="#000000">206</text>
<text text-anchor="middle" x="1032.5" y="-1387.5584" font-family="Times,serif" font-size="20.00" fill="#000000">207</text>
<text text-anchor="middle" x="1032.5" y="-1365.5584" font-family="Times,serif" font-size="20.00" fill="#000000">208</text>
<text text-anchor="middle" x="1032.5" y="-1343.5584" font-family="Times,serif" font-size="20.00" fill="#000000">226</text>
</g>
<!-- SG_1_Node_11 -->
<g id="node24" class="node">
<title>SG_1_Node_11</title>
<ellipse fill="none" stroke="#000000" cx="1195" cy="-1279.3452" rx="34.7971" ry="21.4286"/>
<text text-anchor="middle" x="1195" y="-1274.3452" font-family="Times,serif" font-size="20.00" fill="#000000">1.0</text>
</g>
<!-- SG_1_Node_1&#45;&gt;SG_1_Node_11 -->
<g id="edge22" class="edge">
<title>SG_1_Node_1&#45;&gt;SG_1_Node_11</title>
<path fill="none" stroke="#000000" d="M1028.2166,-1597.6785C1036.7482,-1586.442 1047.5481,-1571.5259 1056,-1557.5584 1108.5212,-1470.7629 1158.8232,-1361.5064 1181.8715,-1309.5143"/>
<polygon fill="#000000" stroke="#000000" points="1185.1479,-1310.7587 1185.9815,-1300.1967 1178.7433,-1307.9336 1185.1479,-1310.7587"/>
<text text-anchor="middle" x="1215" y="-1453.5584" font-family="Times,serif" font-size="20.00" fill="#000000">[NA]</text>
<text text-anchor="middle" x="1215" y="-1431.5584" font-family="Times,serif" font-size="20.00" fill="#000000">51 levels</text>
</g>
<!-- SG_1_Node_4 -->
<g id="node25" class="node">
<title>SG_1_Node_4</title>
<polygon fill="none" stroke="#000000" points="1110.5,-1114.9188 889.5,-1114.9188 889.5,-1078.9188 1110.5,-1078.9188 1110.5,-1114.9188"/>
<text text-anchor="middle" x="1000" y="-1091.9188" font-family="Times,serif" font-size="20.00" fill="#000000">Content&#45;Disposition</text>
</g>
<!-- SG_1_Node_2&#45;&gt;SG_1_Node_4 -->
<g id="edge23" class="edge">
<title>SG_1_Node_2&#45;&gt;SG_1_Node_4</title>
<path fill="none" stroke="#000000" d="M1010.8055,-1261.1866C1008.712,-1229.3607 1004.366,-1163.291 1001.8706,-1125.3557"/>
<polygon fill="#000000" stroke="#000000" points="1005.3386,-1124.7527 1001.1896,-1115.0041 998.3537,-1125.2123 1005.3386,-1124.7527"/>
<text text-anchor="middle" x="1090.5" y="-1183.132" font-family="Times,serif" font-size="20.00" fill="#000000">default&#45;src &#39;self&#39;</text>
</g>
<!-- SG_1_Node_12 -->
<g id="node26" class="node">
<title>SG_1_Node_12</title>
<ellipse fill="none" stroke="#000000" cx="1201" cy="-1096.9188" rx="34.7971" ry="21.4286"/>
<text text-anchor="middle" x="1201" y="-1091.9188" font-family="Times,serif" font-size="20.00" fill="#000000">1.0</text>
</g>
<!-- SG_1_Node_2&#45;&gt;SG_1_Node_12 -->
<g id="edge24" class="edge">
<title>SG_1_Node_2&#45;&gt;SG_1_Node_12</title>
<path fill="none" stroke="#000000" d="M1084.9821,-1261.2842C1123.0595,-1250.4128 1164.3095,-1235.8595 1177,-1221.132 1198.8969,-1195.7205 1203.209,-1156.4198 1203.1245,-1128.8465"/>
<polygon fill="#000000" stroke="#000000" points="1206.6168,-1128.4633 1202.8893,-1118.5459 1199.6186,-1128.6232 1206.6168,-1128.4633"/>
<text text-anchor="middle" x="1311.5" y="-1205.132" font-family="Times,serif" font-size="20.00" fill="#000000">[NA]</text>
<text text-anchor="middle" x="1311.5" y="-1183.132" font-family="Times,serif" font-size="20.00" fill="#000000">empty</text>
<text text-anchor="middle" x="1311.5" y="-1161.132" font-family="Times,serif" font-size="20.00" fill="#000000">frame&#45;ancestors &#39;self&#39;</text>
</g>
<!-- SG_1_Node_13 -->
<g id="node27" class="node">
<title>SG_1_Node_13</title>
<ellipse fill="none" stroke="#000000" cx="977" cy="-936.4924" rx="34.7971" ry="21.4286"/>
<text text-anchor="middle" x="977" y="-931.4924" font-family="Times,serif" font-size="20.00" fill="#000000">0.0</text>
</g>
<!-- SG_1_Node_4&#45;&gt;SG_1_Node_13 -->
<g id="edge25" class="edge">
<title>SG_1_Node_4&#45;&gt;SG_1_Node_13</title>
<path fill="none" stroke="#000000" d="M997.1223,-1078.8379C995.3146,-1067.3514 992.962,-1052.1647 991,-1038.7056 987.5237,-1014.8589 983.8344,-987.8445 981.1161,-967.5792"/>
<polygon fill="#000000" stroke="#000000" points="984.583,-967.0979 979.7894,-957.6495 977.6446,-968.025 984.583,-967.0979"/>
<text text-anchor="middle" x="1050" y="-1022.7056" font-family="Times,serif" font-size="20.00" fill="#000000">[NA]</text>
<text text-anchor="middle" x="1050" y="-1000.7056" font-family="Times,serif" font-size="20.00" fill="#000000">attachment</text>
</g>
<!-- SG_1_Node_5 -->
<g id="node28" class="node">
<title>SG_1_Node_5</title>
<polygon fill="none" stroke="#000000" points="1202,-954.4924 1060,-954.4924 1060,-918.4924 1202,-918.4924 1202,-954.4924"/>
<text text-anchor="middle" x="1131" y="-931.4924" font-family="Times,serif" font-size="20.00" fill="#000000">Status&#45;Code</text>
</g>
<!-- SG_1_Node_4&#45;&gt;SG_1_Node_5 -->
<g id="edge26" class="edge">
<title>SG_1_Node_4&#45;&gt;SG_1_Node_5</title>
<path fill="none" stroke="#000000" d="M1054.875,-1078.8234C1074.663,-1069.7155 1095.437,-1056.6907 1109,-1038.7056 1125.0609,-1017.4082 1129.9321,-986.8808 1131.1679,-964.7379"/>
<polygon fill="#000000" stroke="#000000" points="1134.67,-964.7328 1131.5156,-954.6185 1127.6741,-964.4923 1134.67,-964.7328"/>
<text text-anchor="middle" x="1159" y="-1011.7056" font-family="Times,serif" font-size="20.00" fill="#000000">empty</text>
</g>
<!-- SG_1_Node_6 -->
<g id="node29" class="node">
<title>SG_1_Node_6</title>
<polygon fill="none" stroke="#000000" points="1204.5,-665.2792 1049.5,-665.2792 1049.5,-629.2792 1204.5,-629.2792 1204.5,-665.2792"/>
<text text-anchor="middle" x="1127" y="-642.2792" font-family="Times,serif" font-size="20.00" fill="#000000">Content&#45;Type</text>
</g>
<!-- SG_1_Node_5&#45;&gt;SG_1_Node_6 -->
<g id="edge27" class="edge">
<title>SG_1_Node_5&#45;&gt;SG_1_Node_6</title>
<path fill="none" stroke="#000000" d="M1130.7498,-918.4008C1130.0735,-869.5054 1128.2055,-734.441 1127.3897,-675.4547"/>
<polygon fill="#000000" stroke="#000000" points="1130.8882,-675.3146 1127.2501,-665.364 1123.8888,-675.4114 1130.8882,-675.3146"/>
<text text-anchor="middle" x="1149.5" y="-796.2792" font-family="Times,serif" font-size="20.00" fill="#000000">204</text>
<text text-anchor="middle" x="1149.5" y="-774.2792" font-family="Times,serif" font-size="20.00" fill="#000000">205</text>
</g>
<!-- SG_1_Node_7 -->
<g id="node30" class="node">
<title>SG_1_Node_7</title>
<polygon fill="none" stroke="#000000" points="1394.5,-665.2792 1239.5,-665.2792 1239.5,-629.2792 1394.5,-629.2792 1394.5,-665.2792"/>
<text text-anchor="middle" x="1317" y="-642.2792" font-family="Times,serif" font-size="20.00" fill="#000000">Content&#45;Type</text>
</g>
<!-- SG_1_Node_5&#45;&gt;SG_1_Node_7 -->
<g id="edge28" class="edge">
<title>SG_1_Node_5&#45;&gt;SG_1_Node_7</title>
<path fill="none" stroke="#000000" d="M1144.5624,-918.3631C1152.9511,-906.9875 1163.8311,-891.9373 1173,-878.2792 1221.5888,-805.9011 1274.9217,-717.8907 1300.9338,-674.356"/>
<polygon fill="#000000" stroke="#000000" points="1304.0902,-675.8965 1306.2058,-665.515 1298.078,-672.3113 1304.0902,-675.8965"/>
<text text-anchor="middle" x="1303.5" y="-862.2792" font-family="Times,serif" font-size="20.00" fill="#000000">200</text>
<text text-anchor="middle" x="1303.5" y="-840.2792" font-family="Times,serif" font-size="20.00" fill="#000000">201</text>
<text text-anchor="middle" x="1303.5" y="-818.2792" font-family="Times,serif" font-size="20.00" fill="#000000">202</text>
<text text-anchor="middle" x="1303.5" y="-796.2792" font-family="Times,serif" font-size="20.00" fill="#000000">203</text>
<text text-anchor="middle" x="1303.5" y="-774.2792" font-family="Times,serif" font-size="20.00" fill="#000000">206</text>
<text text-anchor="middle" x="1303.5" y="-752.2792" font-family="Times,serif" font-size="20.00" fill="#000000">207</text>
<text text-anchor="middle" x="1303.5" y="-730.2792" font-family="Times,serif" font-size="20.00" fill="#000000">208</text>
<text text-anchor="middle" x="1303.5" y="-708.2792" font-family="Times,serif" font-size="20.00" fill="#000000">226</text>
</g>
<!-- SG_1_Node_14 -->
<g id="node31" class="node">
<title>SG_1_Node_14</title>
<ellipse fill="none" stroke="#000000" cx="869" cy="-358.066" rx="34.7971" ry="21.4286"/>
<text text-anchor="middle" x="869" y="-353.066" font-family="Times,serif" font-size="20.00" fill="#000000">0.0</text>
</g>
<!-- SG_1_Node_6&#45;&gt;SG_1_Node_14 -->
<g id="edge35" class="edge">
<title>SG_1_Node_6&#45;&gt;SG_1_Node_14</title>
<path fill="none" stroke="#000000" d="M1049.4946,-637.7994C992.2038,-629.1312 920.8458,-614.2807 901,-592.2792 850.294,-536.0654 856.0471,-439.2561 863.2217,-389.5418"/>
<polygon fill="#000000" stroke="#000000" points="866.7215,-389.8132 864.8022,-379.3937 859.8049,-388.7359 866.7215,-389.8132"/>
<text text-anchor="middle" x="1012" y="-576.2792" font-family="Times,serif" font-size="20.00" fill="#000000">[NA]</text>
<text text-anchor="middle" x="1012" y="-554.2792" font-family="Times,serif" font-size="20.00" fill="#000000">application/javascript</text>
<text text-anchor="middle" x="1012" y="-532.2792" font-family="Times,serif" font-size="20.00" fill="#000000">audio/wav</text>
<text text-anchor="middle" x="1012" y="-510.2792" font-family="Times,serif" font-size="20.00" fill="#000000">empty</text>
<text text-anchor="middle" x="1012" y="-488.2792" font-family="Times,serif" font-size="20.00" fill="#000000">image/png</text>
<text text-anchor="middle" x="1012" y="-466.2792" font-family="Times,serif" font-size="20.00" fill="#000000">text/css</text>
<text text-anchor="middle" x="1012" y="-444.2792" font-family="Times,serif" font-size="20.00" fill="#000000">text/html</text>
<text text-anchor="middle" x="1012" y="-422.2792" font-family="Times,serif" font-size="20.00" fill="#000000">video/mp4</text>
</g>
<!-- SG_1_Node_15 -->
<g id="node32" class="node">
<title>SG_1_Node_15</title>
<ellipse fill="none" stroke="#000000" cx="1127" cy="-358.066" rx="34.7971" ry="21.4286"/>
<text text-anchor="middle" x="1127" y="-353.066" font-family="Times,serif" font-size="20.00" fill="#000000">1.0</text>
</g>
<!-- SG_1_Node_6&#45;&gt;SG_1_Node_15 -->
<g id="edge36" class="edge">
<title>SG_1_Node_6&#45;&gt;SG_1_Node_15</title>
<path fill="none" stroke="#000000" d="M1127,-629.1876C1127,-581.2407 1127,-450.4354 1127,-389.7589"/>
<polygon fill="#000000" stroke="#000000" points="1130.5001,-389.6211 1127,-379.6212 1123.5001,-389.6212 1130.5001,-389.6211"/>
<text text-anchor="middle" x="1204" y="-499.2792" font-family="Times,serif" font-size="20.00" fill="#000000">application/pdf</text>
</g>
<!-- SG_1_Node_8 -->
<g id="node33" class="node">
<title>SG_1_Node_8</title>
<polygon fill="none" stroke="#000000" points="1349.5,-376.066 1284.5,-376.066 1284.5,-340.066 1349.5,-340.066 1349.5,-376.066"/>
<text text-anchor="middle" x="1317" y="-353.066" font-family="Times,serif" font-size="20.00" fill="#000000">body</text>
</g>
<!-- SG_1_Node_7&#45;&gt;SG_1_Node_8 -->
<g id="edge29" class="edge">
<title>SG_1_Node_7&#45;&gt;SG_1_Node_8</title>
<path fill="none" stroke="#000000" d="M1317,-629.1876C1317,-580.2922 1317,-445.2278 1317,-386.2415"/>
<polygon fill="#000000" stroke="#000000" points="1320.5001,-386.1507 1317,-376.1508 1313.5001,-386.1508 1320.5001,-386.1507"/>
<text text-anchor="middle" x="1349" y="-499.2792" font-family="Times,serif" font-size="20.00" fill="#000000">empty</text>
</g>
<!-- SG_1_Node_16 -->
<g id="node34" class="node">
<title>SG_1_Node_16</title>
<ellipse fill="none" stroke="#000000" cx="1417" cy="-358.066" rx="34.7971" ry="21.4286"/>
<text text-anchor="middle" x="1417" y="-353.066" font-family="Times,serif" font-size="20.00" fill="#000000">1.0</text>
</g>
<!-- SG_1_Node_7&#45;&gt;SG_1_Node_16 -->
<g id="edge30" class="edge">
<title>SG_1_Node_7&#45;&gt;SG_1_Node_16</title>
<path fill="none" stroke="#000000" d="M1348.711,-629.2042C1362.0867,-619.9145 1376.501,-607.3585 1385,-592.2792 1421.5478,-527.4349 1422.3709,-436.9096 1419.7449,-389.6411"/>
<polygon fill="#000000" stroke="#000000" points="1423.2218,-389.1684 1419.0837,-379.4151 1416.2364,-389.6201 1423.2218,-389.1684"/>
<text text-anchor="middle" x="1531" y="-576.2792" font-family="Times,serif" font-size="20.00" fill="#000000">[NA]</text>
<text text-anchor="middle" x="1531" y="-554.2792" font-family="Times,serif" font-size="20.00" fill="#000000">application/javascript</text>
<text text-anchor="middle" x="1531" y="-532.2792" font-family="Times,serif" font-size="20.00" fill="#000000">application/pdf</text>
<text text-anchor="middle" x="1531" y="-510.2792" font-family="Times,serif" font-size="20.00" fill="#000000">audio/wav</text>
<text text-anchor="middle" x="1531" y="-488.2792" font-family="Times,serif" font-size="20.00" fill="#000000">image/png</text>
<text text-anchor="middle" x="1531" y="-466.2792" font-family="Times,serif" font-size="20.00" fill="#000000">text/css</text>
<text text-anchor="middle" x="1531" y="-444.2792" font-family="Times,serif" font-size="20.00" fill="#000000">text/html</text>
<text text-anchor="middle" x="1531" y="-422.2792" font-family="Times,serif" font-size="20.00" fill="#000000">video/mp4</text>
</g>
<!-- SG_1_Node_9 -->
<g id="node35" class="node">
<title>SG_1_Node_9</title>
<polygon fill="none" stroke="#000000" points="1221,-215.6396 959,-215.6396 959,-179.6396 1221,-179.6396 1221,-215.6396"/>
<text text-anchor="middle" x="1090" y="-192.6396" font-family="Times,serif" font-size="20.00" fill="#000000">X&#45;Content&#45;Type&#45;Options</text>
</g>
<!-- SG_1_Node_8&#45;&gt;SG_1_Node_9 -->
<g id="edge31" class="edge">
<title>SG_1_Node_8&#45;&gt;SG_1_Node_9</title>
<path fill="none" stroke="#000000" d="M1284.0712,-353.5313C1230.395,-345.44 1127.6365,-326.7986 1104,-299.8528 1086.4623,-279.8596 1084.5591,-248.6727 1086.0538,-226.0032"/>
<polygon fill="#000000" stroke="#000000" points="1089.5477,-226.2286 1086.971,-215.9518 1082.5766,-225.5924 1089.5477,-226.2286"/>
<text text-anchor="middle" x="1349.5" y="-283.8528" font-family="Times,serif" font-size="20.00" fill="#000000">ecocnt_audio=duration=1</text>
<text text-anchor="middle" x="1349.5" y="-261.8528" font-family="Times,serif" font-size="20.00" fill="#000000">ecocnt_vid=width=100,height=100,duration=2</text>
</g>
<!-- SG_1_Node_17 -->
<g id="node36" class="node">
<title>SG_1_Node_17</title>
<ellipse fill="none" stroke="#000000" cx="1617" cy="-197.6396" rx="34.7971" ry="21.4286"/>
<text text-anchor="middle" x="1617" y="-192.6396" font-family="Times,serif" font-size="20.00" fill="#000000">1.0</text>
</g>
<!-- SG_1_Node_8&#45;&gt;SG_1_Node_17 -->
<g id="edge32" class="edge">
<title>SG_1_Node_8&#45;&gt;SG_1_Node_17</title>
<path fill="none" stroke="#000000" d="M1349.5131,-344.5154C1357.1257,-341.6891 1365.2713,-338.9388 1373,-336.8528 1469.5718,-310.7873 1522.6324,-368.9068 1595,-299.8528 1613.8193,-281.8953 1618.463,-252.0131 1618.9044,-229.1838"/>
<polygon fill="#000000" stroke="#000000" points="1622.4029,-228.9204 1618.8376,-218.9434 1615.403,-228.9661 1622.4029,-228.9204"/>
<text text-anchor="middle" x="1662" y="-283.8528" font-family="Times,serif" font-size="20.00" fill="#000000">[NA]</text>
<text text-anchor="middle" x="1662" y="-261.8528" font-family="Times,serif" font-size="20.00" fill="#000000">11 levels</text>
</g>
<!-- SG_1_Node_18 -->
<g id="node37" class="node">
<title>SG_1_Node_18</title>
<ellipse fill="none" stroke="#000000" cx="1040" cy="-37.2132" rx="34.7971" ry="21.4286"/>
<text text-anchor="middle" x="1040" y="-32.2132" font-family="Times,serif" font-size="20.00" fill="#000000">0.0</text>
</g>
<!-- SG_1_Node_9&#45;&gt;SG_1_Node_18 -->
<g id="edge33" class="edge">
<title>SG_1_Node_9&#45;&gt;SG_1_Node_18</title>
<path fill="none" stroke="#000000" d="M1076.0384,-179.525C1068.2847,-168.521 1059.184,-153.8522 1054,-139.4264 1045.7986,-116.604 1042.3564,-89.3305 1040.9333,-68.6985"/>
<polygon fill="#000000" stroke="#000000" points="1044.4197,-68.359 1040.3586,-58.5735 1037.431,-68.7557 1044.4197,-68.359"/>
<text text-anchor="middle" x="1086" y="-112.4264" font-family="Times,serif" font-size="20.00" fill="#000000">empty</text>
</g>
<!-- SG_1_Node_19 -->
<g id="node38" class="node">
<title>SG_1_Node_19</title>
<ellipse fill="none" stroke="#000000" cx="1140" cy="-37.2132" rx="34.7971" ry="21.4286"/>
<text text-anchor="middle" x="1140" y="-32.2132" font-family="Times,serif" font-size="20.00" fill="#000000">1.0</text>
</g>
<!-- SG_1_Node_9&#45;&gt;SG_1_Node_19 -->
<g id="edge34" class="edge">
<title>SG_1_Node_9&#45;&gt;SG_1_Node_19</title>
<path fill="none" stroke="#000000" d="M1100.1012,-179.4966C1106.0168,-168.242 1113.2371,-153.3243 1118,-139.4264 1125.9679,-116.1767 1131.6615,-88.9279 1135.2577,-68.414"/>
<polygon fill="#000000" stroke="#000000" points="1138.742,-68.7991 1136.948,-58.3573 1131.8388,-67.6388 1138.742,-68.7991"/>
<text text-anchor="middle" x="1164" y="-123.4264" font-family="Times,serif" font-size="20.00" fill="#000000">[NA]</text>
<text text-anchor="middle" x="1164" y="-101.4264" font-family="Times,serif" font-size="20.00" fill="#000000">nosniff</text>
</g>
</g>
</svg>
