<?xml version="1.0" encoding="UTF-8" standalone="no"?>
<!DOCTYPE svg PUBLIC "-//W3C//DTD SVG 1.1//EN"
 "http://www.w3.org/Graphics/SVG/1.1/DTD/svg11.dtd">
<!-- Generated by graphviz version 2.40.1 (20161225.0304)
 -->
<!-- Title: G Pages: 1 -->
<svg width="2878pt" height="1675pt"
 viewBox="0.00 0.00 2878.00 1675.41" xmlns="http://www.w3.org/2000/svg" xmlns:xlink="http://www.w3.org/1999/xlink">
<g id="graph0" class="graph" transform="scale(1 1) rotate(0) translate(4 1671.4113)">
<title>G</title>
<polygon fill="#ffffff" stroke="transparent" points="-4,4 -4,-1671.4113 2874,-1671.4113 2874,4 -4,4"/>
<g id="clust1" class="cluster">
<title>cluster_0</title>
<polygon fill="none" stroke="#000000" points="8,-8 8,-1659.4113 2332,-1659.4113 2332,-8 8,-8"/>
<text text-anchor="middle" x="1170" y="-1623.4113" font-family="Times,serif" font-size="40.00" fill="#000000">Tree 0, Class [&#39;Origin: https://127.0.0.1:44300, Message: mes1&#39;, &#39;Origin: https://127.0.0.1:44300, Message: mes1&#39;]</text>
</g>
<g id="clust11" class="cluster">
<title>cluster_1</title>
<polygon fill="none" stroke="#000000" points="2340,-8 2340,-1659.4113 2860,-1659.4113 2860,-8 2340,-8"/>
<text text-anchor="middle" x="2600" y="-1623.4113" font-family="Times,serif" font-size="40.00" fill="#000000">Tree 0, Class uncalled</text>
</g>
<!-- SG_0_Node_0 -->
<g id="node1" class="node">
<title>SG_0_Node_0</title>
<polygon fill="none" stroke="#000000" points="211.5,-1599.4113 146.5,-1599.4113 146.5,-1563.4113 211.5,-1563.4113 211.5,-1599.4113"/>
<text text-anchor="middle" x="179" y="-1576.4113" font-family="Times,serif" font-size="20.00" fill="#000000">body</text>
</g>
<!-- SG_0_Node_8 -->
<g id="node2" class="node">
<title>SG_0_Node_8</title>
<ellipse fill="none" stroke="#000000" cx="115" cy="-1424.1981" rx="34.7971" ry="21.4286"/>
<text text-anchor="middle" x="115" y="-1419.1981" font-family="Times,serif" font-size="20.00" fill="#000000">0.0</text>
</g>
<!-- SG_0_Node_0&#45;&gt;SG_0_Node_8 -->
<g id="edge1" class="edge">
<title>SG_0_Node_0&#45;&gt;SG_0_Node_8</title>
<path fill="none" stroke="#000000" d="M157.7021,-1563.1101C147.6635,-1553.271 136.4912,-1540.3169 130,-1526.4113 119.6634,-1504.268 116.0807,-1476.7418 114.9906,-1455.8349"/>
<polygon fill="#000000" stroke="#000000" points="118.4788,-1455.4381 114.6252,-1445.5689 111.4832,-1455.6871 118.4788,-1455.4381"/>
<text text-anchor="middle" x="176" y="-1510.4113" font-family="Times,serif" font-size="20.00" fill="#000000">[NA]</text>
<text text-anchor="middle" x="176" y="-1488.4113" font-family="Times,serif" font-size="20.00" fill="#000000">12 levels</text>
</g>
<!-- SG_0_Node_1 -->
<g id="node3" class="node">
<title>SG_0_Node_1</title>
<polygon fill="none" stroke="#000000" points="322.5,-1442.1981 167.5,-1442.1981 167.5,-1406.1981 322.5,-1406.1981 322.5,-1442.1981"/>
<text text-anchor="middle" x="245" y="-1419.1981" font-family="Times,serif" font-size="20.00" fill="#000000">Content&#45;Type</text>
</g>
<!-- SG_0_Node_0&#45;&gt;SG_0_Node_1 -->
<g id="edge2" class="edge">
<title>SG_0_Node_0&#45;&gt;SG_0_Node_1</title>
<path fill="none" stroke="#000000" d="M196.8067,-1562.963C205.6064,-1552.8919 215.6689,-1539.7744 222,-1526.4113 233.1923,-1502.7874 239.0668,-1473.4737 242.0668,-1452.3044"/>
<polygon fill="#000000" stroke="#000000" points="245.5441,-1452.7047 243.3531,-1442.3389 238.6017,-1451.8086 245.5441,-1452.7047"/>
<text text-anchor="middle" x="415" y="-1499.4113" font-family="Times,serif" font-size="20.00" fill="#000000">ecocnt_html=post_message=mes1</text>
</g>
<!-- SG_0_Node_9 -->
<g id="node4" class="node">
<title>SG_0_Node_9</title>
<ellipse fill="none" stroke="#000000" cx="106" cy="-1153.7716" rx="34.7971" ry="21.4286"/>
<text text-anchor="middle" x="106" y="-1148.7716" font-family="Times,serif" font-size="20.00" fill="#000000">0.0</text>
</g>
<!-- SG_0_Node_1&#45;&gt;SG_0_Node_9 -->
<g id="edge3" class="edge">
<title>SG_0_Node_1&#45;&gt;SG_0_Node_9</title>
<path fill="none" stroke="#000000" d="M184.3539,-1406.1913C151.3925,-1395.0473 115.4565,-1380.1976 106,-1365.9848 69.3456,-1310.8949 84.1224,-1228.6527 96.2065,-1184.4718"/>
<polygon fill="#000000" stroke="#000000" points="99.6413,-1185.1908 99.0331,-1174.6134 92.9124,-1183.2615 99.6413,-1185.1908"/>
<text text-anchor="middle" x="217" y="-1349.9848" font-family="Times,serif" font-size="20.00" fill="#000000">[NA]</text>
<text text-anchor="middle" x="217" y="-1327.9848" font-family="Times,serif" font-size="20.00" fill="#000000">application/javascript</text>
<text text-anchor="middle" x="217" y="-1305.9848" font-family="Times,serif" font-size="20.00" fill="#000000">application/pdf</text>
<text text-anchor="middle" x="217" y="-1283.9848" font-family="Times,serif" font-size="20.00" fill="#000000">audio/wav</text>
<text text-anchor="middle" x="217" y="-1261.9848" font-family="Times,serif" font-size="20.00" fill="#000000">image/png</text>
<text text-anchor="middle" x="217" y="-1239.9848" font-family="Times,serif" font-size="20.00" fill="#000000">text/css</text>
<text text-anchor="middle" x="217" y="-1217.9848" font-family="Times,serif" font-size="20.00" fill="#000000">video/mp4</text>
</g>
<!-- SG_0_Node_2 -->
<g id="node5" class="node">
<title>SG_0_Node_2</title>
<polygon fill="none" stroke="#000000" points="494,-1171.7716 234,-1171.7716 234,-1135.7716 494,-1135.7716 494,-1171.7716"/>
<text text-anchor="middle" x="364" y="-1148.7716" font-family="Times,serif" font-size="20.00" fill="#000000">Content&#45;Security&#45;Policy</text>
</g>
<!-- SG_0_Node_1&#45;&gt;SG_0_Node_2 -->
<g id="edge4" class="edge">
<title>SG_0_Node_1&#45;&gt;SG_0_Node_2</title>
<path fill="none" stroke="#000000" d="M286.2629,-1405.9765C303.08,-1396.4625 321.0954,-1383.1717 332,-1365.9848 368.4353,-1308.5587 369.1813,-1225.1373 366.6086,-1181.9852"/>
<polygon fill="#000000" stroke="#000000" points="370.094,-1181.6528 365.9028,-1171.9222 363.1112,-1182.1427 370.094,-1181.6528"/>
<text text-anchor="middle" x="414" y="-1294.9848" font-family="Times,serif" font-size="20.00" fill="#000000">empty</text>
<text text-anchor="middle" x="414" y="-1272.9848" font-family="Times,serif" font-size="20.00" fill="#000000">text/html</text>
</g>
<!-- SG_0_Node_10 -->
<g id="node6" class="node">
<title>SG_0_Node_10</title>
<ellipse fill="none" stroke="#000000" cx="116" cy="-971.3452" rx="34.7971" ry="21.4286"/>
<text text-anchor="middle" x="116" y="-966.3452" font-family="Times,serif" font-size="20.00" fill="#000000">0.0</text>
</g>
<!-- SG_0_Node_2&#45;&gt;SG_0_Node_10 -->
<g id="edge5" class="edge">
<title>SG_0_Node_2&#45;&gt;SG_0_Node_10</title>
<path fill="none" stroke="#000000" d="M251.1661,-1135.719C204.2191,-1125.9613 156.938,-1112.4274 141,-1095.5584 117.6916,-1070.8887 113.3978,-1030.8366 113.6652,-1002.9047"/>
<polygon fill="#000000" stroke="#000000" points="117.1654,-1002.949 113.9609,-992.8504 110.1684,-1002.7431 117.1654,-1002.949"/>
<text text-anchor="middle" x="251.5" y="-1079.5584" font-family="Times,serif" font-size="20.00" fill="#000000">[NA]</text>
<text text-anchor="middle" x="251.5" y="-1057.5584" font-family="Times,serif" font-size="20.00" fill="#000000">default&#45;src &#39;self&#39;</text>
<text text-anchor="middle" x="251.5" y="-1035.5584" font-family="Times,serif" font-size="20.00" fill="#000000">frame&#45;ancestors &#39;self&#39;</text>
</g>
<!-- SG_0_Node_3 -->
<g id="node7" class="node">
<title>SG_0_Node_3</title>
<polygon fill="none" stroke="#000000" points="483.5,-989.3452 262.5,-989.3452 262.5,-953.3452 483.5,-953.3452 483.5,-989.3452"/>
<text text-anchor="middle" x="373" y="-966.3452" font-family="Times,serif" font-size="20.00" fill="#000000">Content&#45;Disposition</text>
</g>
<!-- SG_0_Node_2&#45;&gt;SG_0_Node_3 -->
<g id="edge6" class="edge">
<title>SG_0_Node_2&#45;&gt;SG_0_Node_3</title>
<path fill="none" stroke="#000000" d="M364.8959,-1135.613C366.466,-1103.7871 369.7255,-1037.7174 371.5971,-999.7821"/>
<polygon fill="#000000" stroke="#000000" points="375.1107,-999.5908 372.1078,-989.4305 368.1192,-999.2458 375.1107,-999.5908"/>
<text text-anchor="middle" x="402" y="-1057.5584" font-family="Times,serif" font-size="20.00" fill="#000000">empty</text>
</g>
<!-- SG_0_Node_11 -->
<g id="node8" class="node">
<title>SG_0_Node_11</title>
<ellipse fill="none" stroke="#000000" cx="228" cy="-810.9188" rx="34.7971" ry="21.4286"/>
<text text-anchor="middle" x="228" y="-805.9188" font-family="Times,serif" font-size="20.00" fill="#000000">0.0</text>
</g>
<!-- SG_0_Node_3&#45;&gt;SG_0_Node_11 -->
<g id="edge7" class="edge">
<title>SG_0_Node_3&#45;&gt;SG_0_Node_11</title>
<path fill="none" stroke="#000000" d="M311.6833,-953.256C290.6928,-944.2763 268.7959,-931.3369 254,-913.132 237.8231,-893.2279 231.565,-864.5028 229.2144,-842.5695"/>
<polygon fill="#000000" stroke="#000000" points="232.6857,-842.0824 228.348,-832.4162 225.711,-842.6776 232.6857,-842.0824"/>
<text text-anchor="middle" x="313" y="-897.132" font-family="Times,serif" font-size="20.00" fill="#000000">[NA]</text>
<text text-anchor="middle" x="313" y="-875.132" font-family="Times,serif" font-size="20.00" fill="#000000">attachment</text>
</g>
<!-- SG_0_Node_4 -->
<g id="node9" class="node">
<title>SG_0_Node_4</title>
<polygon fill="none" stroke="#000000" points="477.5,-828.9188 286.5,-828.9188 286.5,-792.9188 477.5,-792.9188 477.5,-828.9188"/>
<text text-anchor="middle" x="382" y="-805.9188" font-family="Times,serif" font-size="20.00" fill="#000000">X&#45;Frame&#45;Options</text>
</g>
<!-- SG_0_Node_3&#45;&gt;SG_0_Node_4 -->
<g id="edge8" class="edge">
<title>SG_0_Node_3&#45;&gt;SG_0_Node_4</title>
<path fill="none" stroke="#000000" d="M374.0149,-953.2541C375.5679,-925.5723 378.5477,-872.457 380.3954,-839.5203"/>
<polygon fill="#000000" stroke="#000000" points="383.9093,-839.3703 380.975,-829.19 376.9203,-838.9782 383.9093,-839.3703"/>
<text text-anchor="middle" x="410" y="-886.132" font-family="Times,serif" font-size="20.00" fill="#000000">empty</text>
</g>
<!-- SG_0_Node_12 -->
<g id="node10" class="node">
<title>SG_0_Node_12</title>
<ellipse fill="none" stroke="#000000" cx="285" cy="-650.4924" rx="34.7971" ry="21.4286"/>
<text text-anchor="middle" x="285" y="-645.4924" font-family="Times,serif" font-size="20.00" fill="#000000">0.0</text>
</g>
<!-- SG_0_Node_4&#45;&gt;SG_0_Node_12 -->
<g id="edge9" class="edge">
<title>SG_0_Node_4&#45;&gt;SG_0_Node_12</title>
<path fill="none" stroke="#000000" d="M367.1067,-792.8748C358.1689,-781.6564 346.8547,-766.7419 338,-752.7056 323.1766,-729.2081 308.8266,-701.0964 298.8053,-680.307"/>
<polygon fill="#000000" stroke="#000000" points="301.8457,-678.5508 294.3851,-671.0281 295.5261,-681.5613 301.8457,-678.5508"/>
<text text-anchor="middle" x="362.5" y="-725.7056" font-family="Times,serif" font-size="20.00" fill="#000000">deny</text>
</g>
<!-- SG_0_Node_5 -->
<g id="node11" class="node">
<title>SG_0_Node_5</title>
<polygon fill="none" stroke="#000000" points="480,-668.4924 338,-668.4924 338,-632.4924 480,-632.4924 480,-668.4924"/>
<text text-anchor="middle" x="409" y="-645.4924" font-family="Times,serif" font-size="20.00" fill="#000000">Status&#45;Code</text>
</g>
<!-- SG_0_Node_4&#45;&gt;SG_0_Node_5 -->
<g id="edge10" class="edge">
<title>SG_0_Node_4&#45;&gt;SG_0_Node_5</title>
<path fill="none" stroke="#000000" d="M385.0448,-792.8277C389.7239,-765.0255 398.7208,-711.5683 404.2584,-678.6655"/>
<polygon fill="#000000" stroke="#000000" points="407.7166,-679.2058 405.9249,-668.7636 400.8137,-678.044 407.7166,-679.2058"/>
<text text-anchor="middle" x="431" y="-736.7056" font-family="Times,serif" font-size="20.00" fill="#000000">[NA]</text>
<text text-anchor="middle" x="431" y="-714.7056" font-family="Times,serif" font-size="20.00" fill="#000000">empty</text>
</g>
<!-- SG_0_Node_6 -->
<g id="node12" class="node">
<title>SG_0_Node_6</title>
<polygon fill="none" stroke="#000000" points="376,-508.066 234,-508.066 234,-472.066 376,-472.066 376,-508.066"/>
<text text-anchor="middle" x="305" y="-485.066" font-family="Times,serif" font-size="20.00" fill="#000000">Status&#45;Code</text>
</g>
<!-- SG_0_Node_5&#45;&gt;SG_0_Node_6 -->
<g id="edge11" class="edge">
<title>SG_0_Node_5&#45;&gt;SG_0_Node_6</title>
<path fill="none" stroke="#000000" d="M367.3155,-632.3436C350.3148,-622.843 332.0854,-609.5427 321,-592.2792 306.886,-570.2993 303.6444,-540.306 303.4772,-518.4973"/>
<polygon fill="#000000" stroke="#000000" points="306.9805,-518.2696 303.618,-508.2225 299.9812,-518.1736 306.9805,-518.2696"/>
<text text-anchor="middle" x="367" y="-565.2792" font-family="Times,serif" font-size="20.00" fill="#000000">13 levels</text>
</g>
<!-- SG_0_Node_13 -->
<g id="node13" class="node">
<title>SG_0_Node_13</title>
<ellipse fill="none" stroke="#000000" cx="433" cy="-490.066" rx="34.7971" ry="21.4286"/>
<text text-anchor="middle" x="433" y="-485.066" font-family="Times,serif" font-size="20.00" fill="#000000">1.0</text>
</g>
<!-- SG_0_Node_5&#45;&gt;SG_0_Node_13 -->
<g id="edge12" class="edge">
<title>SG_0_Node_5&#45;&gt;SG_0_Node_13</title>
<path fill="none" stroke="#000000" d="M411.7065,-632.4013C415.733,-605.4864 423.3564,-554.5279 428.3048,-521.4506"/>
<polygon fill="#000000" stroke="#000000" points="431.7913,-521.8005 429.8095,-511.3927 424.8684,-520.7648 431.7913,-521.8005"/>
<text text-anchor="middle" x="470" y="-576.2792" font-family="Times,serif" font-size="20.00" fill="#000000">[NA]</text>
<text text-anchor="middle" x="470" y="-554.2792" font-family="Times,serif" font-size="20.00" fill="#000000">49 levels</text>
</g>
<!-- SG_0_Node_14 -->
<g id="node14" class="node">
<title>SG_0_Node_14</title>
<ellipse fill="none" stroke="#000000" cx="253" cy="-219.6396" rx="34.7971" ry="21.4286"/>
<text text-anchor="middle" x="253" y="-214.6396" font-family="Times,serif" font-size="20.00" fill="#000000">0.0</text>
</g>
<!-- SG_0_Node_6&#45;&gt;SG_0_Node_14 -->
<g id="edge13" class="edge">
<title>SG_0_Node_6&#45;&gt;SG_0_Node_14</title>
<path fill="none" stroke="#000000" d="M299.4823,-471.8306C296.1544,-460.4152 291.9941,-445.3602 289,-431.8528 274.8652,-368.0852 263.25,-292.4689 257.3029,-250.9089"/>
<polygon fill="#000000" stroke="#000000" points="260.7476,-250.2709 255.8808,-240.8601 253.8167,-251.2519 260.7476,-250.2709"/>
<text text-anchor="middle" x="308.5" y="-415.8528" font-family="Times,serif" font-size="20.00" fill="#000000">100</text>
<text text-anchor="middle" x="308.5" y="-393.8528" font-family="Times,serif" font-size="20.00" fill="#000000">101</text>
<text text-anchor="middle" x="308.5" y="-371.8528" font-family="Times,serif" font-size="20.00" fill="#000000">102</text>
<text text-anchor="middle" x="308.5" y="-349.8528" font-family="Times,serif" font-size="20.00" fill="#000000">103</text>
<text text-anchor="middle" x="308.5" y="-327.8528" font-family="Times,serif" font-size="20.00" fill="#000000">204</text>
<text text-anchor="middle" x="308.5" y="-305.8528" font-family="Times,serif" font-size="20.00" fill="#000000">304</text>
<text text-anchor="middle" x="308.5" y="-283.8528" font-family="Times,serif" font-size="20.00" fill="#000000">407</text>
</g>
<!-- SG_0_Node_7 -->
<g id="node15" class="node">
<title>SG_0_Node_7</title>
<polygon fill="none" stroke="#000000" points="410.5,-237.6396 305.5,-237.6396 305.5,-201.6396 410.5,-201.6396 410.5,-237.6396"/>
<text text-anchor="middle" x="358" y="-214.6396" font-family="Times,serif" font-size="20.00" fill="#000000">Location</text>
</g>
<!-- SG_0_Node_6&#45;&gt;SG_0_Node_7 -->
<g id="edge14" class="edge">
<title>SG_0_Node_6&#45;&gt;SG_0_Node_7</title>
<path fill="none" stroke="#000000" d="M313.4944,-471.8265C318.4255,-460.5366 324.363,-445.6157 328,-431.8528 345.0607,-367.2929 352.9445,-288.9597 356.1337,-247.8913"/>
<polygon fill="#000000" stroke="#000000" points="359.632,-248.0416 356.8794,-237.8106 352.6511,-247.5252 359.632,-248.0416"/>
<text text-anchor="middle" x="372.5" y="-404.8528" font-family="Times,serif" font-size="20.00" fill="#000000">301</text>
<text text-anchor="middle" x="372.5" y="-382.8528" font-family="Times,serif" font-size="20.00" fill="#000000">302</text>
<text text-anchor="middle" x="372.5" y="-360.8528" font-family="Times,serif" font-size="20.00" fill="#000000">303</text>
<text text-anchor="middle" x="372.5" y="-338.8528" font-family="Times,serif" font-size="20.00" fill="#000000">305</text>
<text text-anchor="middle" x="372.5" y="-316.8528" font-family="Times,serif" font-size="20.00" fill="#000000">307</text>
<text text-anchor="middle" x="372.5" y="-294.8528" font-family="Times,serif" font-size="20.00" fill="#000000">308</text>
</g>
<!-- SG_0_Node_15 -->
<g id="node16" class="node">
<title>SG_0_Node_15</title>
<ellipse fill="none" stroke="#000000" cx="134" cy="-37.2132" rx="34.7971" ry="21.4286"/>
<text text-anchor="middle" x="134" y="-32.2132" font-family="Times,serif" font-size="20.00" fill="#000000">0.0</text>
</g>
<!-- SG_0_Node_7&#45;&gt;SG_0_Node_15 -->
<g id="edge15" class="edge">
<title>SG_0_Node_7&#45;&gt;SG_0_Node_15</title>
<path fill="none" stroke="#000000" d="M307.5436,-201.607C303.9894,-200.4867 300.4493,-199.4143 297,-198.4264 225.584,-177.9721 180.3519,-219.4791 134,-161.4264 113.2397,-135.4255 117.5035,-95.6468 124.1687,-68.1423"/>
<polygon fill="#000000" stroke="#000000" points="127.6101,-68.8196 126.7936,-58.2563 120.8445,-67.0232 127.6101,-68.8196"/>
<text text-anchor="middle" x="271" y="-145.4264" font-family="Times,serif" font-size="20.00" fill="#000000">[NA]</text>
<text text-anchor="middle" x="271" y="-123.4264" font-family="Times,serif" font-size="20.00" fill="#000000">/</text>
<text text-anchor="middle" x="271" y="-101.4264" font-family="Times,serif" font-size="20.00" fill="#000000">http://localhost:8000/echo/</text>
</g>
<!-- SG_0_Node_16 -->
<g id="node17" class="node">
<title>SG_0_Node_16</title>
<ellipse fill="none" stroke="#000000" cx="444" cy="-37.2132" rx="34.7971" ry="21.4286"/>
<text text-anchor="middle" x="444" y="-32.2132" font-family="Times,serif" font-size="20.00" fill="#000000">1.0</text>
</g>
<!-- SG_0_Node_7&#45;&gt;SG_0_Node_16 -->
<g id="edge16" class="edge">
<title>SG_0_Node_7&#45;&gt;SG_0_Node_16</title>
<path fill="none" stroke="#000000" d="M379.4593,-201.3893C390.6705,-190.7819 403.7387,-176.5484 412,-161.4264 427.952,-132.2268 436.1839,-94.7991 440.2734,-68.6947"/>
<polygon fill="#000000" stroke="#000000" points="443.7657,-68.9996 441.7372,-58.6008 436.8382,-67.995 443.7657,-68.9996"/>
<text text-anchor="middle" x="467" y="-123.4264" font-family="Times,serif" font-size="20.00" fill="#000000">empty</text>
</g>
<!-- SG_1_Node_0 -->
<g id="node18" class="node">
<title>SG_1_Node_0</title>
<polygon fill="none" stroke="#000000" points="2603.5,-1599.4113 2538.5,-1599.4113 2538.5,-1563.4113 2603.5,-1563.4113 2603.5,-1599.4113"/>
<text text-anchor="middle" x="2571" y="-1576.4113" font-family="Times,serif" font-size="20.00" fill="#000000">body</text>
</g>
<!-- SG_1_Node_1 -->
<g id="node19" class="node">
<title>SG_1_Node_1</title>
<polygon fill="none" stroke="#000000" points="2555.5,-1442.1981 2400.5,-1442.1981 2400.5,-1406.1981 2555.5,-1406.1981 2555.5,-1442.1981"/>
<text text-anchor="middle" x="2478" y="-1419.1981" font-family="Times,serif" font-size="20.00" fill="#000000">Content&#45;Type</text>
</g>
<!-- SG_1_Node_0&#45;&gt;SG_1_Node_1 -->
<g id="edge17" class="edge">
<title>SG_1_Node_0&#45;&gt;SG_1_Node_1</title>
<path fill="none" stroke="#000000" d="M2538.301,-1576.7626C2488.9195,-1568.9978 2399.0395,-1551.707 2380,-1526.4113 2368.2399,-1510.7869 2370.3275,-1499.4072 2380,-1482.4113 2388.5914,-1467.3151 2402.8119,-1455.7275 2417.7915,-1447.0172"/>
<polygon fill="#000000" stroke="#000000" points="2419.5335,-1450.0542 2426.6622,-1442.2164 2416.2017,-1443.8979 2419.5335,-1450.0542"/>
<text text-anchor="middle" x="2559" y="-1499.4113" font-family="Times,serif" font-size="20.00" fill="#000000">ecocnt_html=post_message=mes1</text>
</g>
<!-- SG_1_Node_8 -->
<g id="node20" class="node">
<title>SG_1_Node_8</title>
<ellipse fill="none" stroke="#000000" cx="2760" cy="-1424.1981" rx="34.7971" ry="21.4286"/>
<text text-anchor="middle" x="2760" y="-1419.1981" font-family="Times,serif" font-size="20.00" fill="#000000">1.0</text>
</g>
<!-- SG_1_Node_0&#45;&gt;SG_1_Node_8 -->
<g id="edge18" class="edge">
<title>SG_1_Node_0&#45;&gt;SG_1_Node_8</title>
<path fill="none" stroke="#000000" d="M2603.7348,-1574.67C2647.0193,-1565.1021 2719.9381,-1546.4999 2738,-1526.4113 2755.1822,-1507.301 2760.0883,-1478.066 2761.0414,-1455.7499"/>
<polygon fill="#000000" stroke="#000000" points="2764.541,-1455.7997 2761.2299,-1445.7356 2757.5422,-1455.668 2764.541,-1455.7997"/>
<text text-anchor="middle" x="2803" y="-1510.4113" font-family="Times,serif" font-size="20.00" fill="#000000">[NA]</text>
<text text-anchor="middle" x="2803" y="-1488.4113" font-family="Times,serif" font-size="20.00" fill="#000000">12 levels</text>
</g>
<!-- SG_1_Node_2 -->
<g id="node21" class="node">
<title>SG_1_Node_2</title>
<polygon fill="none" stroke="#000000" points="2608,-1171.7716 2348,-1171.7716 2348,-1135.7716 2608,-1135.7716 2608,-1171.7716"/>
<text text-anchor="middle" x="2478" y="-1148.7716" font-family="Times,serif" font-size="20.00" fill="#000000">Content&#45;Security&#45;Policy</text>
</g>
<!-- SG_1_Node_1&#45;&gt;SG_1_Node_2 -->
<g id="edge19" class="edge">
<title>SG_1_Node_1&#45;&gt;SG_1_Node_2</title>
<path fill="none" stroke="#000000" d="M2478,-1406.0347C2478,-1359.8494 2478,-1237.6576 2478,-1182.0479"/>
<polygon fill="#000000" stroke="#000000" points="2481.5001,-1181.8559 2478,-1171.8559 2474.5001,-1181.856 2481.5001,-1181.8559"/>
<text text-anchor="middle" x="2525" y="-1294.9848" font-family="Times,serif" font-size="20.00" fill="#000000">empty</text>
<text text-anchor="middle" x="2525" y="-1272.9848" font-family="Times,serif" font-size="20.00" fill="#000000">text/html</text>
</g>
<!-- SG_1_Node_9 -->
<g id="node22" class="node">
<title>SG_1_Node_9</title>
<ellipse fill="none" stroke="#000000" cx="2661" cy="-1153.7716" rx="34.7971" ry="21.4286"/>
<text text-anchor="middle" x="2661" y="-1148.7716" font-family="Times,serif" font-size="20.00" fill="#000000">1.0</text>
</g>
<!-- SG_1_Node_1&#45;&gt;SG_1_Node_9 -->
<g id="edge20" class="edge">
<title>SG_1_Node_1&#45;&gt;SG_1_Node_9</title>
<path fill="none" stroke="#000000" d="M2521.4671,-1406.1556C2540.293,-1396.5429 2561.3311,-1383.1244 2576,-1365.9848 2622.2289,-1311.9698 2645.381,-1229.6366 2655.1161,-1185.0664"/>
<polygon fill="#000000" stroke="#000000" points="2658.5772,-1185.6146 2657.2037,-1175.1091 2651.7261,-1184.1781 2658.5772,-1185.6146"/>
<text text-anchor="middle" x="2759" y="-1349.9848" font-family="Times,serif" font-size="20.00" fill="#000000">[NA]</text>
<text text-anchor="middle" x="2759" y="-1327.9848" font-family="Times,serif" font-size="20.00" fill="#000000">application/javascript</text>
<text text-anchor="middle" x="2759" y="-1305.9848" font-family="Times,serif" font-size="20.00" fill="#000000">application/pdf</text>
<text text-anchor="middle" x="2759" y="-1283.9848" font-family="Times,serif" font-size="20.00" fill="#000000">audio/wav</text>
<text text-anchor="middle" x="2759" y="-1261.9848" font-family="Times,serif" font-size="20.00" fill="#000000">image/png</text>
<text text-anchor="middle" x="2759" y="-1239.9848" font-family="Times,serif" font-size="20.00" fill="#000000">text/css</text>
<text text-anchor="middle" x="2759" y="-1217.9848" font-family="Times,serif" font-size="20.00" fill="#000000">video/mp4</text>
</g>
<!-- SG_1_Node_3 -->
<g id="node23" class="node">
<title>SG_1_Node_3</title>
<polygon fill="none" stroke="#000000" points="2578.5,-989.3452 2357.5,-989.3452 2357.5,-953.3452 2578.5,-953.3452 2578.5,-989.3452"/>
<text text-anchor="middle" x="2468" y="-966.3452" font-family="Times,serif" font-size="20.00" fill="#000000">Content&#45;Disposition</text>
</g>
<!-- SG_1_Node_2&#45;&gt;SG_1_Node_3 -->
<g id="edge21" class="edge">
<title>SG_1_Node_2&#45;&gt;SG_1_Node_3</title>
<path fill="none" stroke="#000000" d="M2477.0046,-1135.613C2475.26,-1103.7871 2471.6383,-1037.7174 2469.5588,-999.7821"/>
<polygon fill="#000000" stroke="#000000" points="2473.0336,-999.2239 2468.9914,-989.4305 2466.0441,-999.6071 2473.0336,-999.2239"/>
<text text-anchor="middle" x="2506" y="-1057.5584" font-family="Times,serif" font-size="20.00" fill="#000000">empty</text>
</g>
<!-- SG_1_Node_10 -->
<g id="node24" class="node">
<title>SG_1_Node_10</title>
<ellipse fill="none" stroke="#000000" cx="2631" cy="-971.3452" rx="34.7971" ry="21.4286"/>
<text text-anchor="middle" x="2631" y="-966.3452" font-family="Times,serif" font-size="20.00" fill="#000000">1.0</text>
</g>
<!-- SG_1_Node_2&#45;&gt;SG_1_Node_10 -->
<g id="edge22" class="edge">
<title>SG_1_Node_2&#45;&gt;SG_1_Node_10</title>
<path fill="none" stroke="#000000" d="M2500.1148,-1135.6928C2512.9688,-1124.7011 2529.1192,-1110.0326 2542,-1095.5584 2569.2928,-1064.8895 2596.1114,-1025.9086 2613.0555,-999.8724"/>
<polygon fill="#000000" stroke="#000000" points="2616.1453,-1001.5391 2618.6217,-991.2378 2610.2618,-997.7464 2616.1453,-1001.5391"/>
<text text-anchor="middle" x="2702.5" y="-1079.5584" font-family="Times,serif" font-size="20.00" fill="#000000">[NA]</text>
<text text-anchor="middle" x="2702.5" y="-1057.5584" font-family="Times,serif" font-size="20.00" fill="#000000">default&#45;src &#39;self&#39;</text>
<text text-anchor="middle" x="2702.5" y="-1035.5584" font-family="Times,serif" font-size="20.00" fill="#000000">frame&#45;ancestors &#39;self&#39;</text>
</g>
<!-- SG_1_Node_4 -->
<g id="node25" class="node">
<title>SG_1_Node_4</title>
<polygon fill="none" stroke="#000000" points="2551.5,-828.9188 2360.5,-828.9188 2360.5,-792.9188 2551.5,-792.9188 2551.5,-828.9188"/>
<text text-anchor="middle" x="2456" y="-805.9188" font-family="Times,serif" font-size="20.00" fill="#000000">X&#45;Frame&#45;Options</text>
</g>
<!-- SG_1_Node_3&#45;&gt;SG_1_Node_4 -->
<g id="edge23" class="edge">
<title>SG_1_Node_3&#45;&gt;SG_1_Node_4</title>
<path fill="none" stroke="#000000" d="M2466.6468,-953.2541C2464.5762,-925.5723 2460.6031,-872.457 2458.1394,-839.5203"/>
<polygon fill="#000000" stroke="#000000" points="2461.603,-838.901 2457.3667,-829.19 2454.6225,-839.4232 2461.603,-838.901"/>
<text text-anchor="middle" x="2495" y="-886.132" font-family="Times,serif" font-size="20.00" fill="#000000">empty</text>
</g>
<!-- SG_1_Node_11 -->
<g id="node26" class="node">
<title>SG_1_Node_11</title>
<ellipse fill="none" stroke="#000000" cx="2604" cy="-810.9188" rx="34.7971" ry="21.4286"/>
<text text-anchor="middle" x="2604" y="-805.9188" font-family="Times,serif" font-size="20.00" fill="#000000">1.0</text>
</g>
<!-- SG_1_Node_3&#45;&gt;SG_1_Node_11 -->
<g id="edge24" class="edge">
<title>SG_1_Node_3&#45;&gt;SG_1_Node_11</title>
<path fill="none" stroke="#000000" d="M2489.7514,-953.2194C2502.3986,-942.2116 2518.2964,-927.5426 2531,-913.132 2551.5668,-889.8018 2571.8755,-860.7412 2585.83,-839.5769"/>
<polygon fill="#000000" stroke="#000000" points="2588.8731,-841.3179 2591.4037,-831.0297 2583.0096,-837.4943 2588.8731,-841.3179"/>
<text text-anchor="middle" x="2624" y="-897.132" font-family="Times,serif" font-size="20.00" fill="#000000">[NA]</text>
<text text-anchor="middle" x="2624" y="-875.132" font-family="Times,serif" font-size="20.00" fill="#000000">attachment</text>
</g>
<!-- SG_1_Node_5 -->
<g id="node27" class="node">
<title>SG_1_Node_5</title>
<polygon fill="none" stroke="#000000" points="2508,-668.4924 2366,-668.4924 2366,-632.4924 2508,-632.4924 2508,-668.4924"/>
<text text-anchor="middle" x="2437" y="-645.4924" font-family="Times,serif" font-size="20.00" fill="#000000">Status&#45;Code</text>
</g>
<!-- SG_1_Node_4&#45;&gt;SG_1_Node_5 -->
<g id="edge25" class="edge">
<title>SG_1_Node_4&#45;&gt;SG_1_Node_5</title>
<path fill="none" stroke="#000000" d="M2453.8574,-792.8277C2450.5789,-765.1459 2444.2882,-712.0306 2440.3874,-679.0939"/>
<polygon fill="#000000" stroke="#000000" points="2443.8158,-678.2825 2439.1639,-668.7636 2436.8644,-679.1058 2443.8158,-678.2825"/>
<text text-anchor="middle" x="2481" y="-736.7056" font-family="Times,serif" font-size="20.00" fill="#000000">[NA]</text>
<text text-anchor="middle" x="2481" y="-714.7056" font-family="Times,serif" font-size="20.00" fill="#000000">empty</text>
</g>
<!-- SG_1_Node_12 -->
<g id="node28" class="node">
<title>SG_1_Node_12</title>
<ellipse fill="none" stroke="#000000" cx="2561" cy="-650.4924" rx="34.7971" ry="21.4286"/>
<text text-anchor="middle" x="2561" y="-645.4924" font-family="Times,serif" font-size="20.00" fill="#000000">1.0</text>
</g>
<!-- SG_1_Node_4&#45;&gt;SG_1_Node_12 -->
<g id="edge26" class="edge">
<title>SG_1_Node_4&#45;&gt;SG_1_Node_12</title>
<path fill="none" stroke="#000000" d="M2479.068,-792.8453C2491.5276,-782.1876 2506.4693,-767.8489 2517,-752.7056 2532.3306,-730.66 2543.9842,-702.4236 2551.4345,-681.217"/>
<polygon fill="#000000" stroke="#000000" points="2554.7571,-682.3172 2554.6559,-671.7229 2548.1283,-680.068 2554.7571,-682.3172"/>
<text text-anchor="middle" x="2564.5" y="-725.7056" font-family="Times,serif" font-size="20.00" fill="#000000">deny</text>
</g>
<!-- SG_1_Node_13 -->
<g id="node29" class="node">
<title>SG_1_Node_13</title>
<ellipse fill="none" stroke="#000000" cx="2406" cy="-490.066" rx="34.7971" ry="21.4286"/>
<text text-anchor="middle" x="2406" y="-485.066" font-family="Times,serif" font-size="20.00" fill="#000000">0.0</text>
</g>
<!-- SG_1_Node_5&#45;&gt;SG_1_Node_13 -->
<g id="edge27" class="edge">
<title>SG_1_Node_5&#45;&gt;SG_1_Node_13</title>
<path fill="none" stroke="#000000" d="M2430.9387,-632.3166C2427.328,-620.9236 2422.8988,-605.8713 2420,-592.2792 2414.9734,-568.7105 2411.3633,-541.6819 2409.0693,-521.3405"/>
<polygon fill="#000000" stroke="#000000" points="2412.5455,-520.9316 2407.9891,-511.3666 2405.5862,-521.6854 2412.5455,-520.9316"/>
<text text-anchor="middle" x="2466" y="-576.2792" font-family="Times,serif" font-size="20.00" fill="#000000">[NA]</text>
<text text-anchor="middle" x="2466" y="-554.2792" font-family="Times,serif" font-size="20.00" fill="#000000">49 levels</text>
</g>
<!-- SG_1_Node_6 -->
<g id="node30" class="node">
<title>SG_1_Node_6</title>
<polygon fill="none" stroke="#000000" points="2605,-508.066 2463,-508.066 2463,-472.066 2605,-472.066 2605,-508.066"/>
<text text-anchor="middle" x="2534" y="-485.066" font-family="Times,serif" font-size="20.00" fill="#000000">Status&#45;Code</text>
</g>
<!-- SG_1_Node_5&#45;&gt;SG_1_Node_6 -->
<g id="edge28" class="edge">
<title>SG_1_Node_5&#45;&gt;SG_1_Node_6</title>
<path fill="none" stroke="#000000" d="M2469.8593,-632.3351C2484.9022,-622.3983 2501.6459,-608.7438 2512,-592.2792 2526.053,-569.9327 2531.2393,-539.9893 2533.0977,-518.2921"/>
<polygon fill="#000000" stroke="#000000" points="2536.6057,-518.2889 2533.7814,-508.0774 2529.6213,-517.8213 2536.6057,-518.2889"/>
<text text-anchor="middle" x="2574" y="-565.2792" font-family="Times,serif" font-size="20.00" fill="#000000">13 levels</text>
</g>
<!-- SG_1_Node_7 -->
<g id="node31" class="node">
<title>SG_1_Node_7</title>
<polygon fill="none" stroke="#000000" points="2527.5,-237.6396 2422.5,-237.6396 2422.5,-201.6396 2527.5,-201.6396 2527.5,-237.6396"/>
<text text-anchor="middle" x="2475" y="-214.6396" font-family="Times,serif" font-size="20.00" fill="#000000">Location</text>
</g>
<!-- SG_1_Node_6&#45;&gt;SG_1_Node_7 -->
<g id="edge29" class="edge">
<title>SG_1_Node_6&#45;&gt;SG_1_Node_7</title>
<path fill="none" stroke="#000000" d="M2520.7369,-471.8716C2513.3874,-460.8402 2504.7915,-446.1705 2500,-431.8528 2478.8176,-368.5569 2475.0611,-289.4083 2474.6992,-247.9556"/>
<polygon fill="#000000" stroke="#000000" points="2478.1988,-247.7751 2474.6735,-237.784 2471.1989,-247.7928 2478.1988,-247.7751"/>
<text text-anchor="middle" x="2519.5" y="-404.8528" font-family="Times,serif" font-size="20.00" fill="#000000">301</text>
<text text-anchor="middle" x="2519.5" y="-382.8528" font-family="Times,serif" font-size="20.00" fill="#000000">302</text>
<text text-anchor="middle" x="2519.5" y="-360.8528" font-family="Times,serif" font-size="20.00" fill="#000000">303</text>
<text text-anchor="middle" x="2519.5" y="-338.8528" font-family="Times,serif" font-size="20.00" fill="#000000">305</text>
<text text-anchor="middle" x="2519.5" y="-316.8528" font-family="Times,serif" font-size="20.00" fill="#000000">307</text>
<text text-anchor="middle" x="2519.5" y="-294.8528" font-family="Times,serif" font-size="20.00" fill="#000000">308</text>
</g>
<!-- SG_1_Node_14 -->
<g id="node32" class="node">
<title>SG_1_Node_14</title>
<ellipse fill="none" stroke="#000000" cx="2580" cy="-219.6396" rx="34.7971" ry="21.4286"/>
<text text-anchor="middle" x="2580" y="-214.6396" font-family="Times,serif" font-size="20.00" fill="#000000">1.0</text>
</g>
<!-- SG_1_Node_6&#45;&gt;SG_1_Node_14 -->
<g id="edge30" class="edge">
<title>SG_1_Node_6&#45;&gt;SG_1_Node_14</title>
<path fill="none" stroke="#000000" d="M2537.0896,-471.9027C2544.8079,-426.5283 2565.0049,-307.7931 2574.6816,-250.9059"/>
<polygon fill="#000000" stroke="#000000" points="2578.134,-251.4805 2576.3606,-241.0351 2571.2331,-250.3066 2578.134,-251.4805"/>
<text text-anchor="middle" x="2589.5" y="-415.8528" font-family="Times,serif" font-size="20.00" fill="#000000">100</text>
<text text-anchor="middle" x="2589.5" y="-393.8528" font-family="Times,serif" font-size="20.00" fill="#000000">101</text>
<text text-anchor="middle" x="2589.5" y="-371.8528" font-family="Times,serif" font-size="20.00" fill="#000000">102</text>
<text text-anchor="middle" x="2589.5" y="-349.8528" font-family="Times,serif" font-size="20.00" fill="#000000">103</text>
<text text-anchor="middle" x="2589.5" y="-327.8528" font-family="Times,serif" font-size="20.00" fill="#000000">204</text>
<text text-anchor="middle" x="2589.5" y="-305.8528" font-family="Times,serif" font-size="20.00" fill="#000000">304</text>
<text text-anchor="middle" x="2589.5" y="-283.8528" font-family="Times,serif" font-size="20.00" fill="#000000">407</text>
</g>
<!-- SG_1_Node_15 -->
<g id="node33" class="node">
<title>SG_1_Node_15</title>
<ellipse fill="none" stroke="#000000" cx="2413" cy="-37.2132" rx="34.7971" ry="21.4286"/>
<text text-anchor="middle" x="2413" y="-32.2132" font-family="Times,serif" font-size="20.00" fill="#000000">0.0</text>
</g>
<!-- SG_1_Node_7&#45;&gt;SG_1_Node_15 -->
<g id="edge31" class="edge">
<title>SG_1_Node_7&#45;&gt;SG_1_Node_15</title>
<path fill="none" stroke="#000000" d="M2450.6014,-201.4012C2438.8107,-191.094 2425.7749,-177.1367 2419,-161.4264 2406.226,-131.805 2406.3192,-94.4478 2408.6111,-68.4753"/>
<polygon fill="#000000" stroke="#000000" points="2412.1017,-68.747 2409.6558,-58.4383 2405.1393,-68.0223 2412.1017,-68.747"/>
<text text-anchor="middle" x="2451" y="-123.4264" font-family="Times,serif" font-size="20.00" fill="#000000">empty</text>
</g>
<!-- SG_1_Node_16 -->
<g id="node34" class="node">
<title>SG_1_Node_16</title>
<ellipse fill="none" stroke="#000000" cx="2513" cy="-37.2132" rx="34.7971" ry="21.4286"/>
<text text-anchor="middle" x="2513" y="-32.2132" font-family="Times,serif" font-size="20.00" fill="#000000">1.0</text>
</g>
<!-- SG_1_Node_7&#45;&gt;SG_1_Node_16 -->
<g id="edge32" class="edge">
<title>SG_1_Node_7&#45;&gt;SG_1_Node_16</title>
<path fill="none" stroke="#000000" d="M2478.7825,-201.4809C2485.2516,-170.4246 2498.5131,-106.7606 2506.4932,-68.4504"/>
<polygon fill="#000000" stroke="#000000" points="2509.981,-68.8691 2508.5939,-58.3655 2503.1281,-67.4416 2509.981,-68.8691"/>
<text text-anchor="middle" x="2637" y="-145.4264" font-family="Times,serif" font-size="20.00" fill="#000000">[NA]</text>
<text text-anchor="middle" x="2637" y="-123.4264" font-family="Times,serif" font-size="20.00" fill="#000000">/</text>
<text text-anchor="middle" x="2637" y="-101.4264" font-family="Times,serif" font-size="20.00" fill="#000000">http://localhost:8000/echo/</text>
</g>
</g>
</svg>
