<?xml version="1.0" encoding="UTF-8" standalone="no"?>
<!DOCTYPE svg PUBLIC "-//W3C//DTD SVG 1.1//EN"
 "http://www.w3.org/Graphics/SVG/1.1/DTD/svg11.dtd">
<!-- Generated by graphviz version 2.40.1 (20161225.0304)
 -->
<!-- Title: G Pages: 1 -->
<svg width="9389pt" height="1509pt"
 viewBox="0.00 0.00 9389.00 1508.56" xmlns="http://www.w3.org/2000/svg" xmlns:xlink="http://www.w3.org/1999/xlink">
<g id="graph0" class="graph" transform="scale(1 1) rotate(0) translate(4 1504.5584)">
<title>G</title>
<polygon fill="#ffffff" stroke="transparent" points="-4,4 -4,-1504.5584 9385,-1504.5584 9385,4 -4,4"/>
<g id="clust1" class="cluster">
<title>cluster_0</title>
<polygon fill="none" stroke="#000000" points="8,-8 8,-1492.5584 472,-1492.5584 472,-8 8,-8"/>
<text text-anchor="middle" x="240" y="-1456.5584" font-family="Times,serif" font-size="40.00" fill="#000000">Tree 0, Class uncalled</text>
</g>
<g id="clust9" class="cluster">
<title>cluster_1</title>
<polygon fill="none" stroke="#000000" points="480,-190.4264 480,-1492.5584 4394,-1492.5584 4394,-190.4264 480,-190.4264"/>
<text text-anchor="middle" x="2437" y="-1456.5584" font-family="Times,serif" font-size="40.00" fill="#000000">Tree 0, Class {&#39;code&#39;: 18, &#39;name&#39;: &#39;SecurityError&#39;, &#39;message&#39;: &#39;Blocked a frame with origin http://localhost:8001 from accessing a cross&#45;origin frame. Protocols, domains, and ports must match.&#39;}</text>
</g>
<g id="clust16" class="cluster">
<title>cluster_2</title>
<polygon fill="none" stroke="#000000" points="4402,-190.4264 4402,-1492.5584 9373,-1492.5584 9373,-190.4264 4402,-190.4264"/>
<text text-anchor="middle" x="6887.5" y="-1456.5584" font-family="Times,serif" font-size="40.00" fill="#000000">Tree 0, Class {&#39;code&#39;: 18, &#39;name&#39;: &#39;SecurityError&#39;, &#39;message&#39;: &#39;Sandbox access violation: Blocked a frame at http://localhost:8001 from accessing a cross&#45;origin frame. &#160;The frame being accessed is sandboxed and lacks the allow&#45;same&#45;origin flag.&#39;}</text>
</g>
<!-- SG_0_Node_0 -->
<g id="node1" class="node">
<title>SG_0_Node_0</title>
<polygon fill="none" stroke="#000000" points="282,-1432.5584 140,-1432.5584 140,-1396.5584 282,-1396.5584 282,-1432.5584"/>
<text text-anchor="middle" x="211" y="-1409.5584" font-family="Times,serif" font-size="20.00" fill="#000000">Status&#45;Code</text>
</g>
<!-- SG_0_Node_1 -->
<g id="node2" class="node">
<title>SG_0_Node_1</title>
<polygon fill="none" stroke="#000000" points="248.5,-1099.3452 27.5,-1099.3452 27.5,-1063.3452 248.5,-1063.3452 248.5,-1099.3452"/>
<text text-anchor="middle" x="138" y="-1076.3452" font-family="Times,serif" font-size="20.00" fill="#000000">Content&#45;Disposition</text>
</g>
<!-- SG_0_Node_0&#45;&gt;SG_0_Node_1 -->
<g id="edge1" class="edge">
<title>SG_0_Node_0&#45;&gt;SG_0_Node_1</title>
<path fill="none" stroke="#000000" d="M197.4163,-1396.1468C190.5127,-1385.8792 182.6257,-1372.5686 178,-1359.5584 146.9312,-1272.1753 139.947,-1161.199 138.4105,-1109.8228"/>
<polygon fill="#000000" stroke="#000000" points="141.9016,-1109.4185 138.1528,-1099.5091 134.9037,-1109.5934 141.9016,-1109.4185"/>
<text text-anchor="middle" x="224" y="-1255.5584" font-family="Times,serif" font-size="20.00" fill="#000000">[NA]</text>
<text text-anchor="middle" x="224" y="-1233.5584" font-family="Times,serif" font-size="20.00" fill="#000000">58 levels</text>
</g>
<!-- SG_0_Node_6 -->
<g id="node3" class="node">
<title>SG_0_Node_6</title>
<ellipse fill="none" stroke="#000000" cx="301" cy="-1081.3452" rx="34.7971" ry="21.4286"/>
<text text-anchor="middle" x="301" y="-1076.3452" font-family="Times,serif" font-size="20.00" fill="#000000">1.0</text>
</g>
<!-- SG_0_Node_0&#45;&gt;SG_0_Node_6 -->
<g id="edge2" class="edge">
<title>SG_0_Node_0&#45;&gt;SG_0_Node_6</title>
<path fill="none" stroke="#000000" d="M237.7861,-1396.4697C249.6864,-1386.9439 262.6425,-1374.1975 270,-1359.5584 310.9378,-1278.1052 308.5268,-1166.6493 304.3136,-1112.8889"/>
<polygon fill="#000000" stroke="#000000" points="307.7751,-1112.291 303.4307,-1102.6279 300.8009,-1112.8911 307.7751,-1112.291"/>
<text text-anchor="middle" x="325.5" y="-1277.5584" font-family="Times,serif" font-size="20.00" fill="#000000">100</text>
<text text-anchor="middle" x="325.5" y="-1255.5584" font-family="Times,serif" font-size="20.00" fill="#000000">102</text>
<text text-anchor="middle" x="325.5" y="-1233.5584" font-family="Times,serif" font-size="20.00" fill="#000000">103</text>
<text text-anchor="middle" x="325.5" y="-1211.5584" font-family="Times,serif" font-size="20.00" fill="#000000">407</text>
</g>
<!-- SG_0_Node_7 -->
<g id="node4" class="node">
<title>SG_0_Node_7</title>
<ellipse fill="none" stroke="#000000" cx="52" cy="-898.9188" rx="34.7971" ry="21.4286"/>
<text text-anchor="middle" x="52" y="-893.9188" font-family="Times,serif" font-size="20.00" fill="#000000">0.0</text>
</g>
<!-- SG_0_Node_1&#45;&gt;SG_0_Node_7 -->
<g id="edge3" class="edge">
<title>SG_0_Node_1&#45;&gt;SG_0_Node_7</title>
<path fill="none" stroke="#000000" d="M119.2792,-1063.1461C109.0851,-1052.3406 96.9635,-1037.8985 89,-1023.132 73.0416,-993.541 63.1075,-956.1788 57.6017,-930.1968"/>
<polygon fill="#000000" stroke="#000000" points="60.9843,-929.265 55.574,-920.1557 54.1228,-930.6507 60.9843,-929.265"/>
<text text-anchor="middle" x="121" y="-996.132" font-family="Times,serif" font-size="20.00" fill="#000000">[NA]</text>
<text text-anchor="middle" x="121" y="-974.132" font-family="Times,serif" font-size="20.00" fill="#000000">empty</text>
</g>
<!-- SG_0_Node_2 -->
<g id="node5" class="node">
<title>SG_0_Node_2</title>
<polygon fill="none" stroke="#000000" points="295.5,-916.9188 104.5,-916.9188 104.5,-880.9188 295.5,-880.9188 295.5,-916.9188"/>
<text text-anchor="middle" x="200" y="-893.9188" font-family="Times,serif" font-size="20.00" fill="#000000">X&#45;Frame&#45;Options</text>
</g>
<!-- SG_0_Node_1&#45;&gt;SG_0_Node_2 -->
<g id="edge4" class="edge">
<title>SG_0_Node_1&#45;&gt;SG_0_Node_2</title>
<path fill="none" stroke="#000000" d="M144.1715,-1063.1866C155.0343,-1031.2241 177.6355,-964.7233 190.5008,-926.8688"/>
<polygon fill="#000000" stroke="#000000" points="193.9494,-927.5985 193.8535,-917.0041 187.3217,-925.3459 193.9494,-927.5985"/>
<text text-anchor="middle" x="239" y="-985.132" font-family="Times,serif" font-size="20.00" fill="#000000">attachment</text>
</g>
<!-- SG_0_Node_8 -->
<g id="node6" class="node">
<title>SG_0_Node_8</title>
<ellipse fill="none" stroke="#000000" cx="91" cy="-650.4924" rx="34.7971" ry="21.4286"/>
<text text-anchor="middle" x="91" y="-645.4924" font-family="Times,serif" font-size="20.00" fill="#000000">0.0</text>
</g>
<!-- SG_0_Node_2&#45;&gt;SG_0_Node_8 -->
<g id="edge5" class="edge">
<title>SG_0_Node_2&#45;&gt;SG_0_Node_8</title>
<path fill="none" stroke="#000000" d="M187.172,-880.8694C179.5449,-869.6489 170.0208,-854.7343 163,-840.7056 135.8731,-786.502 112.7523,-719.4643 100.4622,-681.176"/>
<polygon fill="#000000" stroke="#000000" points="103.7935,-680.1021 97.4318,-671.6299 97.1216,-682.2202 103.7935,-680.1021"/>
<text text-anchor="middle" x="188" y="-780.7056" font-family="Times,serif" font-size="20.00" fill="#000000">[NA]</text>
<text text-anchor="middle" x="188" y="-758.7056" font-family="Times,serif" font-size="20.00" fill="#000000">deny</text>
</g>
<!-- SG_0_Node_3 -->
<g id="node7" class="node">
<title>SG_0_Node_3</title>
<polygon fill="none" stroke="#000000" points="404,-668.4924 144,-668.4924 144,-632.4924 404,-632.4924 404,-668.4924"/>
<text text-anchor="middle" x="274" y="-645.4924" font-family="Times,serif" font-size="20.00" fill="#000000">Content&#45;Security&#45;Policy</text>
</g>
<!-- SG_0_Node_2&#45;&gt;SG_0_Node_3 -->
<g id="edge6" class="edge">
<title>SG_0_Node_2&#45;&gt;SG_0_Node_3</title>
<path fill="none" stroke="#000000" d="M205.4414,-880.6514C218.2442,-837.6709 250.3428,-729.9122 265.64,-678.5578"/>
<polygon fill="#000000" stroke="#000000" points="269.0501,-679.3696 268.5506,-668.7866 262.3414,-677.3712 269.0501,-679.3696"/>
<text text-anchor="middle" x="288" y="-769.7056" font-family="Times,serif" font-size="20.00" fill="#000000">empty</text>
</g>
<!-- SG_0_Node_9 -->
<g id="node8" class="node">
<title>SG_0_Node_9</title>
<ellipse fill="none" stroke="#000000" cx="51" cy="-468.066" rx="34.7971" ry="21.4286"/>
<text text-anchor="middle" x="51" y="-463.066" font-family="Times,serif" font-size="20.00" fill="#000000">0.0</text>
</g>
<!-- SG_0_Node_3&#45;&gt;SG_0_Node_9 -->
<g id="edge7" class="edge">
<title>SG_0_Node_3&#45;&gt;SG_0_Node_9</title>
<path fill="none" stroke="#000000" d="M160.0562,-632.4802C115.1216,-622.9074 70.8927,-609.5124 57,-592.2792 36.0936,-566.3459 38.208,-526.5533 43.1883,-499.0271"/>
<polygon fill="#000000" stroke="#000000" points="46.6375,-499.6287 45.1953,-489.1325 39.7772,-498.2371 46.6375,-499.6287"/>
<text text-anchor="middle" x="167.5" y="-554.2792" font-family="Times,serif" font-size="20.00" fill="#000000">frame&#45;ancestors &#39;self&#39;</text>
</g>
<!-- SG_0_Node_4 -->
<g id="node9" class="node">
<title>SG_0_Node_4</title>
<polygon fill="none" stroke="#000000" points="370,-486.066 228,-486.066 228,-450.066 370,-450.066 370,-486.066"/>
<text text-anchor="middle" x="299" y="-463.066" font-family="Times,serif" font-size="20.00" fill="#000000">Status&#45;Code</text>
</g>
<!-- SG_0_Node_3&#45;&gt;SG_0_Node_4 -->
<g id="edge8" class="edge">
<title>SG_0_Node_3&#45;&gt;SG_0_Node_4</title>
<path fill="none" stroke="#000000" d="M276.4885,-632.3337C280.85,-600.5079 289.9042,-534.4382 295.103,-496.5029"/>
<polygon fill="#000000" stroke="#000000" points="298.6314,-496.5339 296.5216,-486.1513 291.6962,-495.5834 298.6314,-496.5339"/>
<text text-anchor="middle" x="372.5" y="-576.2792" font-family="Times,serif" font-size="20.00" fill="#000000">[NA]</text>
<text text-anchor="middle" x="372.5" y="-554.2792" font-family="Times,serif" font-size="20.00" fill="#000000">default&#45;src &#39;self&#39;</text>
<text text-anchor="middle" x="372.5" y="-532.2792" font-family="Times,serif" font-size="20.00" fill="#000000">empty</text>
</g>
<!-- SG_0_Node_5 -->
<g id="node10" class="node">
<title>SG_0_Node_5</title>
<polygon fill="none" stroke="#000000" points="290.5,-237.6396 185.5,-237.6396 185.5,-201.6396 290.5,-201.6396 290.5,-237.6396"/>
<text text-anchor="middle" x="238" y="-214.6396" font-family="Times,serif" font-size="20.00" fill="#000000">Location</text>
</g>
<!-- SG_0_Node_4&#45;&gt;SG_0_Node_5 -->
<g id="edge9" class="edge">
<title>SG_0_Node_4&#45;&gt;SG_0_Node_5</title>
<path fill="none" stroke="#000000" d="M286.453,-450.0218C279.3404,-438.9244 270.9072,-424.136 266,-409.8528 246.9978,-354.5444 240.8905,-285.8464 238.9283,-247.9926"/>
<polygon fill="#000000" stroke="#000000" points="242.4122,-247.557 238.46,-237.7269 235.4194,-247.876 242.4122,-247.557"/>
<text text-anchor="middle" x="285.5" y="-393.8528" font-family="Times,serif" font-size="20.00" fill="#000000">301</text>
<text text-anchor="middle" x="285.5" y="-371.8528" font-family="Times,serif" font-size="20.00" fill="#000000">302</text>
<text text-anchor="middle" x="285.5" y="-349.8528" font-family="Times,serif" font-size="20.00" fill="#000000">303</text>
<text text-anchor="middle" x="285.5" y="-327.8528" font-family="Times,serif" font-size="20.00" fill="#000000">305</text>
<text text-anchor="middle" x="285.5" y="-305.8528" font-family="Times,serif" font-size="20.00" fill="#000000">307</text>
<text text-anchor="middle" x="285.5" y="-283.8528" font-family="Times,serif" font-size="20.00" fill="#000000">308</text>
</g>
<!-- SG_0_Node_10 -->
<g id="node11" class="node">
<title>SG_0_Node_10</title>
<ellipse fill="none" stroke="#000000" cx="343" cy="-219.6396" rx="34.7971" ry="21.4286"/>
<text text-anchor="middle" x="343" y="-214.6396" font-family="Times,serif" font-size="20.00" fill="#000000">1.0</text>
</g>
<!-- SG_0_Node_4&#45;&gt;SG_0_Node_10 -->
<g id="edge10" class="edge">
<title>SG_0_Node_4&#45;&gt;SG_0_Node_10</title>
<path fill="none" stroke="#000000" d="M302.2354,-449.7986C309.6808,-407.7616 328.1012,-303.759 337.416,-251.1671"/>
<polygon fill="#000000" stroke="#000000" points="340.9073,-251.5237 339.205,-241.0665 334.0145,-250.3028 340.9073,-251.5237"/>
<text text-anchor="middle" x="378" y="-349.8528" font-family="Times,serif" font-size="20.00" fill="#000000">[NA]</text>
<text text-anchor="middle" x="378" y="-327.8528" font-family="Times,serif" font-size="20.00" fill="#000000">52 levels</text>
</g>
<!-- SG_0_Node_11 -->
<g id="node12" class="node">
<title>SG_0_Node_11</title>
<ellipse fill="none" stroke="#000000" cx="70" cy="-37.2132" rx="34.7971" ry="21.4286"/>
<text text-anchor="middle" x="70" y="-32.2132" font-family="Times,serif" font-size="20.00" fill="#000000">0.0</text>
</g>
<!-- SG_0_Node_5&#45;&gt;SG_0_Node_11 -->
<g id="edge11" class="edge">
<title>SG_0_Node_5&#45;&gt;SG_0_Node_11</title>
<path fill="none" stroke="#000000" d="M185.377,-208.3983C141.403,-197.8116 83.7388,-180.7272 70,-161.4264 50.8161,-134.476 54.6232,-95.2228 60.7561,-68.0882"/>
<polygon fill="#000000" stroke="#000000" points="64.1653,-68.8816 63.1774,-58.3329 57.3715,-67.1953 64.1653,-68.8816"/>
<text text-anchor="middle" x="207" y="-145.4264" font-family="Times,serif" font-size="20.00" fill="#000000">[NA]</text>
<text text-anchor="middle" x="207" y="-123.4264" font-family="Times,serif" font-size="20.00" fill="#000000">/</text>
<text text-anchor="middle" x="207" y="-101.4264" font-family="Times,serif" font-size="20.00" fill="#000000">http://localhost:8000/echo/</text>
</g>
<!-- SG_0_Node_12 -->
<g id="node13" class="node">
<title>SG_0_Node_12</title>
<ellipse fill="none" stroke="#000000" cx="380" cy="-37.2132" rx="34.7971" ry="21.4286"/>
<text text-anchor="middle" x="380" y="-32.2132" font-family="Times,serif" font-size="20.00" fill="#000000">1.0</text>
</g>
<!-- SG_0_Node_5&#45;&gt;SG_0_Node_12 -->
<g id="edge12" class="edge">
<title>SG_0_Node_5&#45;&gt;SG_0_Node_12</title>
<path fill="none" stroke="#000000" d="M275.7852,-201.5251C305.5843,-186.932 342.9471,-167.8293 348,-161.4264 368.9475,-134.8824 376.3035,-96.127 378.8216,-68.9848"/>
<polygon fill="#000000" stroke="#000000" points="382.3243,-69.0814 379.5892,-58.8457 375.3442,-68.5529 382.3243,-69.0814"/>
<text text-anchor="middle" x="407" y="-123.4264" font-family="Times,serif" font-size="20.00" fill="#000000">empty</text>
</g>
<!-- SG_1_Node_0 -->
<g id="node14" class="node">
<title>SG_1_Node_0</title>
<polygon fill="none" stroke="#000000" points="889,-1432.5584 747,-1432.5584 747,-1396.5584 889,-1396.5584 889,-1432.5584"/>
<text text-anchor="middle" x="818" y="-1409.5584" font-family="Times,serif" font-size="20.00" fill="#000000">Status&#45;Code</text>
</g>
<!-- SG_1_Node_1 -->
<g id="node15" class="node">
<title>SG_1_Node_1</title>
<polygon fill="none" stroke="#000000" points="793.5,-1099.3452 602.5,-1099.3452 602.5,-1063.3452 793.5,-1063.3452 793.5,-1099.3452"/>
<text text-anchor="middle" x="698" y="-1076.3452" font-family="Times,serif" font-size="20.00" fill="#000000">X&#45;Frame&#45;Options</text>
</g>
<!-- SG_1_Node_0&#45;&gt;SG_1_Node_1 -->
<g id="edge13" class="edge">
<title>SG_1_Node_0&#45;&gt;SG_1_Node_1</title>
<path fill="none" stroke="#000000" d="M781.5778,-1396.4404C767.0033,-1387.3517 751.4588,-1374.9653 742,-1359.5584 692.8113,-1279.438 692.6879,-1162.747 695.6762,-1109.6017"/>
<polygon fill="#000000" stroke="#000000" points="699.1732,-1109.7594 696.3231,-1099.5551 692.1877,-1109.3095 699.1732,-1109.7594"/>
<text text-anchor="middle" x="788" y="-1255.5584" font-family="Times,serif" font-size="20.00" fill="#000000">[NA]</text>
<text text-anchor="middle" x="788" y="-1233.5584" font-family="Times,serif" font-size="20.00" fill="#000000">56 levels</text>
</g>
<!-- SG_1_Node_2 -->
<g id="node16" class="node">
<title>SG_1_Node_2</title>
<polygon fill="none" stroke="#000000" points="989.5,-1099.3452 884.5,-1099.3452 884.5,-1063.3452 989.5,-1063.3452 989.5,-1099.3452"/>
<text text-anchor="middle" x="937" y="-1076.3452" font-family="Times,serif" font-size="20.00" fill="#000000">Location</text>
</g>
<!-- SG_1_Node_0&#45;&gt;SG_1_Node_2 -->
<g id="edge14" class="edge">
<title>SG_1_Node_0&#45;&gt;SG_1_Node_2</title>
<path fill="none" stroke="#000000" d="M824.5675,-1396.1688C844.3164,-1340.8697 903.2571,-1175.829 926.9622,-1109.4521"/>
<polygon fill="#000000" stroke="#000000" points="930.3856,-1110.2727 930.4528,-1099.678 923.7934,-1107.9183 930.3856,-1110.2727"/>
<text text-anchor="middle" x="935.5" y="-1299.5584" font-family="Times,serif" font-size="20.00" fill="#000000">301</text>
<text text-anchor="middle" x="935.5" y="-1277.5584" font-family="Times,serif" font-size="20.00" fill="#000000">302</text>
<text text-anchor="middle" x="935.5" y="-1255.5584" font-family="Times,serif" font-size="20.00" fill="#000000">303</text>
<text text-anchor="middle" x="935.5" y="-1233.5584" font-family="Times,serif" font-size="20.00" fill="#000000">305</text>
<text text-anchor="middle" x="935.5" y="-1211.5584" font-family="Times,serif" font-size="20.00" fill="#000000">307</text>
<text text-anchor="middle" x="935.5" y="-1189.5584" font-family="Times,serif" font-size="20.00" fill="#000000">308</text>
</g>
<!-- SG_1_Node_9 -->
<g id="node17" class="node">
<title>SG_1_Node_9</title>
<ellipse fill="none" stroke="#000000" cx="535" cy="-898.9188" rx="34.7971" ry="21.4286"/>
<text text-anchor="middle" x="535" y="-893.9188" font-family="Times,serif" font-size="20.00" fill="#000000">0.0</text>
</g>
<!-- SG_1_Node_1&#45;&gt;SG_1_Node_9 -->
<g id="edge23" class="edge">
<title>SG_1_Node_1&#45;&gt;SG_1_Node_9</title>
<path fill="none" stroke="#000000" d="M680.845,-1063.1117C670.1657,-1051.697 656.1896,-1036.6421 644,-1023.132 613.9973,-989.8792 580.0545,-950.9932 558.1331,-925.7089"/>
<polygon fill="#000000" stroke="#000000" points="560.6509,-923.2697 551.4584,-918.002 555.3595,-927.8525 560.6509,-923.2697"/>
<text text-anchor="middle" x="669" y="-996.132" font-family="Times,serif" font-size="20.00" fill="#000000">[NA]</text>
<text text-anchor="middle" x="669" y="-974.132" font-family="Times,serif" font-size="20.00" fill="#000000">deny</text>
</g>
<!-- SG_1_Node_3 -->
<g id="node18" class="node">
<title>SG_1_Node_3</title>
<polygon fill="none" stroke="#000000" points="808.5,-916.9188 587.5,-916.9188 587.5,-880.9188 808.5,-880.9188 808.5,-916.9188"/>
<text text-anchor="middle" x="698" y="-893.9188" font-family="Times,serif" font-size="20.00" fill="#000000">Content&#45;Disposition</text>
</g>
<!-- SG_1_Node_1&#45;&gt;SG_1_Node_3 -->
<g id="edge24" class="edge">
<title>SG_1_Node_1&#45;&gt;SG_1_Node_3</title>
<path fill="none" stroke="#000000" d="M698,-1063.1866C698,-1031.3607 698,-965.291 698,-927.3557"/>
<polygon fill="#000000" stroke="#000000" points="701.5001,-927.004 698,-917.0041 694.5001,-927.0041 701.5001,-927.004"/>
<text text-anchor="middle" x="730" y="-985.132" font-family="Times,serif" font-size="20.00" fill="#000000">empty</text>
</g>
<!-- SG_1_Node_4 -->
<g id="node19" class="node">
<title>SG_1_Node_4</title>
<polygon fill="none" stroke="#000000" points="1047.5,-916.9188 826.5,-916.9188 826.5,-880.9188 1047.5,-880.9188 1047.5,-916.9188"/>
<text text-anchor="middle" x="937" y="-893.9188" font-family="Times,serif" font-size="20.00" fill="#000000">Content&#45;Disposition</text>
</g>
<!-- SG_1_Node_2&#45;&gt;SG_1_Node_4 -->
<g id="edge15" class="edge">
<title>SG_1_Node_2&#45;&gt;SG_1_Node_4</title>
<path fill="none" stroke="#000000" d="M937,-1063.1866C937,-1031.3607 937,-965.291 937,-927.3557"/>
<polygon fill="#000000" stroke="#000000" points="940.5001,-927.004 937,-917.0041 933.5001,-927.0041 940.5001,-927.004"/>
<text text-anchor="middle" x="969" y="-985.132" font-family="Times,serif" font-size="20.00" fill="#000000">empty</text>
</g>
<!-- SG_1_Node_10 -->
<g id="node20" class="node">
<title>SG_1_Node_10</title>
<ellipse fill="none" stroke="#000000" cx="1100" cy="-898.9188" rx="34.7971" ry="21.4286"/>
<text text-anchor="middle" x="1100" y="-893.9188" font-family="Times,serif" font-size="20.00" fill="#000000">1.0</text>
</g>
<!-- SG_1_Node_2&#45;&gt;SG_1_Node_10 -->
<g id="edge16" class="edge">
<title>SG_1_Node_2&#45;&gt;SG_1_Node_10</title>
<path fill="none" stroke="#000000" d="M960.4275,-1063.3303C974.0612,-1052.3606 991.2202,-1037.6928 1005,-1023.132 1034.0049,-992.4834 1062.8089,-953.2628 1080.964,-927.1771"/>
<polygon fill="#000000" stroke="#000000" points="1083.9003,-929.0844 1086.6976,-918.8655 1078.1382,-925.1095 1083.9003,-929.0844"/>
<text text-anchor="middle" x="1196" y="-1007.132" font-family="Times,serif" font-size="20.00" fill="#000000">[NA]</text>
<text text-anchor="middle" x="1196" y="-985.132" font-family="Times,serif" font-size="20.00" fill="#000000">/</text>
<text text-anchor="middle" x="1196" y="-963.132" font-family="Times,serif" font-size="20.00" fill="#000000">http://localhost:8000/echo/</text>
</g>
<!-- SG_1_Node_11 -->
<g id="node21" class="node">
<title>SG_1_Node_11</title>
<ellipse fill="none" stroke="#000000" cx="534" cy="-650.4924" rx="34.7971" ry="21.4286"/>
<text text-anchor="middle" x="534" y="-645.4924" font-family="Times,serif" font-size="20.00" fill="#000000">0.0</text>
</g>
<!-- SG_1_Node_3&#45;&gt;SG_1_Node_11 -->
<g id="edge25" class="edge">
<title>SG_1_Node_3&#45;&gt;SG_1_Node_11</title>
<path fill="none" stroke="#000000" d="M637.0756,-880.816C616.2482,-871.8348 594.5582,-858.8979 580,-840.7056 542.9755,-794.4389 535.0488,-722.9232 533.7569,-682.0389"/>
<polygon fill="#000000" stroke="#000000" points="537.2525,-681.7803 533.5535,-671.8522 530.2539,-681.9201 537.2525,-681.7803"/>
<text text-anchor="middle" x="639" y="-769.7056" font-family="Times,serif" font-size="20.00" fill="#000000">attachment</text>
</g>
<!-- SG_1_Node_5 -->
<g id="node22" class="node">
<title>SG_1_Node_5</title>
<polygon fill="none" stroke="#000000" points="847,-668.4924 587,-668.4924 587,-632.4924 847,-632.4924 847,-668.4924"/>
<text text-anchor="middle" x="717" y="-645.4924" font-family="Times,serif" font-size="20.00" fill="#000000">Content&#45;Security&#45;Policy</text>
</g>
<!-- SG_1_Node_3&#45;&gt;SG_1_Node_5 -->
<g id="edge26" class="edge">
<title>SG_1_Node_3&#45;&gt;SG_1_Node_5</title>
<path fill="none" stroke="#000000" d="M699.3971,-880.6514C702.6775,-837.7606 710.8915,-730.3618 714.8289,-678.8802"/>
<polygon fill="#000000" stroke="#000000" points="718.328,-679.0244 715.6008,-668.7866 711.3484,-678.4905 718.328,-679.0244"/>
<text text-anchor="middle" x="744" y="-780.7056" font-family="Times,serif" font-size="20.00" fill="#000000">[NA]</text>
<text text-anchor="middle" x="744" y="-758.7056" font-family="Times,serif" font-size="20.00" fill="#000000">empty</text>
</g>
<!-- SG_1_Node_12 -->
<g id="node23" class="node">
<title>SG_1_Node_12</title>
<ellipse fill="none" stroke="#000000" cx="906" cy="-650.4924" rx="34.7971" ry="21.4286"/>
<text text-anchor="middle" x="906" y="-645.4924" font-family="Times,serif" font-size="20.00" fill="#000000">0.0</text>
</g>
<!-- SG_1_Node_4&#45;&gt;SG_1_Node_12 -->
<g id="edge17" class="edge">
<title>SG_1_Node_4&#45;&gt;SG_1_Node_12</title>
<path fill="none" stroke="#000000" d="M930.638,-880.8022C926.9142,-869.4315 922.4717,-854.3818 920,-840.7056 910.0306,-785.5435 907.1243,-720.1573 906.2992,-682.1913"/>
<polygon fill="#000000" stroke="#000000" points="909.7913,-681.721 906.1109,-671.786 902.7925,-681.8477 909.7913,-681.721"/>
<text text-anchor="middle" x="979" y="-780.7056" font-family="Times,serif" font-size="20.00" fill="#000000">[NA]</text>
<text text-anchor="middle" x="979" y="-758.7056" font-family="Times,serif" font-size="20.00" fill="#000000">attachment</text>
</g>
<!-- SG_1_Node_6 -->
<g id="node24" class="node">
<title>SG_1_Node_6</title>
<polygon fill="none" stroke="#000000" points="1155.5,-668.4924 964.5,-668.4924 964.5,-632.4924 1155.5,-632.4924 1155.5,-668.4924"/>
<text text-anchor="middle" x="1060" y="-645.4924" font-family="Times,serif" font-size="20.00" fill="#000000">X&#45;Frame&#45;Options</text>
</g>
<!-- SG_1_Node_4&#45;&gt;SG_1_Node_6 -->
<g id="edge18" class="edge">
<title>SG_1_Node_4&#45;&gt;SG_1_Node_6</title>
<path fill="none" stroke="#000000" d="M988.2537,-880.8459C1006.8739,-871.6938 1026.2156,-858.6322 1038,-840.7056 1070.6182,-791.0866 1068.4287,-718.1053 1064.1251,-678.5206"/>
<polygon fill="#000000" stroke="#000000" points="1067.5908,-678.025 1062.9133,-668.5186 1060.6416,-678.867 1067.5908,-678.025"/>
<text text-anchor="middle" x="1098" y="-769.7056" font-family="Times,serif" font-size="20.00" fill="#000000">empty</text>
</g>
<!-- SG_1_Node_13 -->
<g id="node25" class="node">
<title>SG_1_Node_13</title>
<ellipse fill="none" stroke="#000000" cx="562" cy="-468.066" rx="34.7971" ry="21.4286"/>
<text text-anchor="middle" x="562" y="-463.066" font-family="Times,serif" font-size="20.00" fill="#000000">0.0</text>
</g>
<!-- SG_1_Node_5&#45;&gt;SG_1_Node_13 -->
<g id="edge27" class="edge">
<title>SG_1_Node_5&#45;&gt;SG_1_Node_13</title>
<path fill="none" stroke="#000000" d="M646.5089,-632.4752C610.6212,-621.7285 572.3931,-607.2845 562,-592.2792 543.1641,-565.0845 546.9022,-525.8797 552.9238,-498.8233"/>
<polygon fill="#000000" stroke="#000000" points="556.3262,-499.644 555.3012,-489.0989 549.5264,-497.9816 556.3262,-499.644"/>
<text text-anchor="middle" x="672.5" y="-554.2792" font-family="Times,serif" font-size="20.00" fill="#000000">frame&#45;ancestors &#39;self&#39;</text>
</g>
<!-- SG_1_Node_7 -->
<g id="node26" class="node">
<title>SG_1_Node_7</title>
<polygon fill="none" stroke="#000000" points="890,-486.066 748,-486.066 748,-450.066 890,-450.066 890,-486.066"/>
<text text-anchor="middle" x="819" y="-463.066" font-family="Times,serif" font-size="20.00" fill="#000000">Status&#45;Code</text>
</g>
<!-- SG_1_Node_5&#45;&gt;SG_1_Node_7 -->
<g id="edge28" class="edge">
<title>SG_1_Node_5&#45;&gt;SG_1_Node_7</title>
<path fill="none" stroke="#000000" d="M746.3306,-632.48C760.5685,-622.3249 776.7664,-608.4363 787,-592.2792 805.6416,-562.8475 813.4496,-522.9993 816.7033,-496.4576"/>
<polygon fill="#000000" stroke="#000000" points="820.2055,-496.6261 817.8052,-486.3068 813.2464,-495.8706 820.2055,-496.6261"/>
<text text-anchor="middle" x="893.5" y="-576.2792" font-family="Times,serif" font-size="20.00" fill="#000000">[NA]</text>
<text text-anchor="middle" x="893.5" y="-554.2792" font-family="Times,serif" font-size="20.00" fill="#000000">default&#45;src &#39;self&#39;</text>
<text text-anchor="middle" x="893.5" y="-532.2792" font-family="Times,serif" font-size="20.00" fill="#000000">empty</text>
</g>
<!-- SG_1_Node_14 -->
<g id="node27" class="node">
<title>SG_1_Node_14</title>
<ellipse fill="none" stroke="#000000" cx="996" cy="-468.066" rx="34.7971" ry="21.4286"/>
<text text-anchor="middle" x="996" y="-463.066" font-family="Times,serif" font-size="20.00" fill="#000000">0.0</text>
</g>
<!-- SG_1_Node_6&#45;&gt;SG_1_Node_14 -->
<g id="edge19" class="edge">
<title>SG_1_Node_6&#45;&gt;SG_1_Node_14</title>
<path fill="none" stroke="#000000" d="M1053.6295,-632.3337C1042.6585,-601.062 1020.0886,-536.7285 1006.6804,-498.5096"/>
<polygon fill="#000000" stroke="#000000" points="1009.9333,-497.209 1003.3202,-488.9315 1003.328,-499.5264 1009.9333,-497.209"/>
<text text-anchor="middle" x="1063.5" y="-554.2792" font-family="Times,serif" font-size="20.00" fill="#000000">deny</text>
</g>
<!-- SG_1_Node_8 -->
<g id="node28" class="node">
<title>SG_1_Node_8</title>
<polygon fill="none" stroke="#000000" points="1309,-486.066 1049,-486.066 1049,-450.066 1309,-450.066 1309,-486.066"/>
<text text-anchor="middle" x="1179" y="-463.066" font-family="Times,serif" font-size="20.00" fill="#000000">Content&#45;Security&#45;Policy</text>
</g>
<!-- SG_1_Node_6&#45;&gt;SG_1_Node_8 -->
<g id="edge20" class="edge">
<title>SG_1_Node_6&#45;&gt;SG_1_Node_8</title>
<path fill="none" stroke="#000000" d="M1071.8452,-632.3337C1092.9622,-599.9615 1137.1906,-532.1596 1161.7082,-494.5743"/>
<polygon fill="#000000" stroke="#000000" points="1164.6706,-496.4391 1167.2027,-486.1513 1158.8077,-492.6146 1164.6706,-496.4391"/>
<text text-anchor="middle" x="1172" y="-565.2792" font-family="Times,serif" font-size="20.00" fill="#000000">[NA]</text>
<text text-anchor="middle" x="1172" y="-543.2792" font-family="Times,serif" font-size="20.00" fill="#000000">empty</text>
</g>
<!-- SG_1_Node_15 -->
<g id="node29" class="node">
<title>SG_1_Node_15</title>
<ellipse fill="none" stroke="#000000" cx="775" cy="-219.6396" rx="34.7971" ry="21.4286"/>
<text text-anchor="middle" x="775" y="-214.6396" font-family="Times,serif" font-size="20.00" fill="#000000">0.0</text>
</g>
<!-- SG_1_Node_7&#45;&gt;SG_1_Node_15 -->
<g id="edge29" class="edge">
<title>SG_1_Node_7&#45;&gt;SG_1_Node_15</title>
<path fill="none" stroke="#000000" d="M805.8228,-449.9136C798.5848,-438.8967 790.2385,-424.2274 786,-409.8528 770.0516,-355.7657 770.4658,-289.3656 772.5226,-251.0353"/>
<polygon fill="#000000" stroke="#000000" points="776.0192,-251.1966 773.1341,-241.0021 769.0322,-250.7707 776.0192,-251.1966"/>
<text text-anchor="middle" x="805.5" y="-371.8528" font-family="Times,serif" font-size="20.00" fill="#000000">100</text>
<text text-anchor="middle" x="805.5" y="-349.8528" font-family="Times,serif" font-size="20.00" fill="#000000">102</text>
<text text-anchor="middle" x="805.5" y="-327.8528" font-family="Times,serif" font-size="20.00" fill="#000000">103</text>
<text text-anchor="middle" x="805.5" y="-305.8528" font-family="Times,serif" font-size="20.00" fill="#000000">407</text>
</g>
<!-- SG_1_Node_16 -->
<g id="node30" class="node">
<title>SG_1_Node_16</title>
<ellipse fill="none" stroke="#000000" cx="862" cy="-219.6396" rx="34.7971" ry="21.4286"/>
<text text-anchor="middle" x="862" y="-214.6396" font-family="Times,serif" font-size="20.00" fill="#000000">1.0</text>
</g>
<!-- SG_1_Node_7&#45;&gt;SG_1_Node_16 -->
<g id="edge30" class="edge">
<title>SG_1_Node_7&#45;&gt;SG_1_Node_16</title>
<path fill="none" stroke="#000000" d="M822.1619,-449.7986C829.4381,-407.7616 847.4398,-303.759 856.5429,-251.1671"/>
<polygon fill="#000000" stroke="#000000" points="860.0343,-251.5169 858.2912,-241.0665 853.1369,-250.323 860.0343,-251.5169"/>
<text text-anchor="middle" x="897" y="-349.8528" font-family="Times,serif" font-size="20.00" fill="#000000">[NA]</text>
<text text-anchor="middle" x="897" y="-327.8528" font-family="Times,serif" font-size="20.00" fill="#000000">52 levels</text>
</g>
<!-- SG_1_Node_17 -->
<g id="node31" class="node">
<title>SG_1_Node_17</title>
<ellipse fill="none" stroke="#000000" cx="1115" cy="-219.6396" rx="34.7971" ry="21.4286"/>
<text text-anchor="middle" x="1115" y="-214.6396" font-family="Times,serif" font-size="20.00" fill="#000000">0.0</text>
</g>
<!-- SG_1_Node_8&#45;&gt;SG_1_Node_17 -->
<g id="edge21" class="edge">
<title>SG_1_Node_8&#45;&gt;SG_1_Node_17</title>
<path fill="none" stroke="#000000" d="M1158.1138,-450.0285C1147.4252,-439.4856 1135.3554,-425.2457 1129,-409.8528 1107.3425,-357.3976 1108.4086,-289.9237 1111.4794,-251.0511"/>
<polygon fill="#000000" stroke="#000000" points="1114.9841,-251.1518 1112.3814,-240.8817 1108.0115,-250.5333 1114.9841,-251.1518"/>
<text text-anchor="middle" x="1239.5" y="-338.8528" font-family="Times,serif" font-size="20.00" fill="#000000">frame&#45;ancestors &#39;self&#39;</text>
</g>
<!-- SG_1_Node_18 -->
<g id="node32" class="node">
<title>SG_1_Node_18</title>
<ellipse fill="none" stroke="#000000" cx="1372" cy="-219.6396" rx="34.7971" ry="21.4286"/>
<text text-anchor="middle" x="1372" y="-214.6396" font-family="Times,serif" font-size="20.00" fill="#000000">1.0</text>
</g>
<!-- SG_1_Node_8&#45;&gt;SG_1_Node_18 -->
<g id="edge22" class="edge">
<title>SG_1_Node_8&#45;&gt;SG_1_Node_18</title>
<path fill="none" stroke="#000000" d="M1257.3711,-450.0462C1296.305,-439.4575 1337.6428,-425.168 1350,-409.8528 1386.5824,-364.5137 1383.3892,-292.1126 1377.7343,-250.9465"/>
<polygon fill="#000000" stroke="#000000" points="1381.1782,-250.311 1376.2262,-240.9447 1374.2564,-251.3547 1381.1782,-250.311"/>
<text text-anchor="middle" x="1463.5" y="-360.8528" font-family="Times,serif" font-size="20.00" fill="#000000">[NA]</text>
<text text-anchor="middle" x="1463.5" y="-338.8528" font-family="Times,serif" font-size="20.00" fill="#000000">default&#45;src &#39;self&#39;</text>
<text text-anchor="middle" x="1463.5" y="-316.8528" font-family="Times,serif" font-size="20.00" fill="#000000">empty</text>
</g>
<!-- SG_2_Node_0 -->
<g id="node33" class="node">
<title>SG_2_Node_0</title>
<polygon fill="none" stroke="#000000" points="4917,-1432.5584 4775,-1432.5584 4775,-1396.5584 4917,-1396.5584 4917,-1432.5584"/>
<text text-anchor="middle" x="4846" y="-1409.5584" font-family="Times,serif" font-size="20.00" fill="#000000">Status&#45;Code</text>
</g>
<!-- SG_2_Node_1 -->
<g id="node34" class="node">
<title>SG_2_Node_1</title>
<polygon fill="none" stroke="#000000" points="4810.5,-1099.3452 4705.5,-1099.3452 4705.5,-1063.3452 4810.5,-1063.3452 4810.5,-1099.3452"/>
<text text-anchor="middle" x="4758" y="-1076.3452" font-family="Times,serif" font-size="20.00" fill="#000000">Location</text>
</g>
<!-- SG_2_Node_0&#45;&gt;SG_2_Node_1 -->
<g id="edge31" class="edge">
<title>SG_2_Node_0&#45;&gt;SG_2_Node_1</title>
<path fill="none" stroke="#000000" d="M4841.1434,-1396.1688C4826.5392,-1340.8697 4782.9527,-1175.829 4765.4229,-1109.4521"/>
<polygon fill="#000000" stroke="#000000" points="4768.7791,-1108.4528 4762.8416,-1099.678 4762.0111,-1110.2403 4768.7791,-1108.4528"/>
<text text-anchor="middle" x="4850.5" y="-1343.5584" font-family="Times,serif" font-size="20.00" fill="#000000">100</text>
<text text-anchor="middle" x="4850.5" y="-1321.5584" font-family="Times,serif" font-size="20.00" fill="#000000">102</text>
<text text-anchor="middle" x="4850.5" y="-1299.5584" font-family="Times,serif" font-size="20.00" fill="#000000">103</text>
<text text-anchor="middle" x="4850.5" y="-1277.5584" font-family="Times,serif" font-size="20.00" fill="#000000">301</text>
<text text-anchor="middle" x="4850.5" y="-1255.5584" font-family="Times,serif" font-size="20.00" fill="#000000">302</text>
<text text-anchor="middle" x="4850.5" y="-1233.5584" font-family="Times,serif" font-size="20.00" fill="#000000">303</text>
<text text-anchor="middle" x="4850.5" y="-1211.5584" font-family="Times,serif" font-size="20.00" fill="#000000">305</text>
<text text-anchor="middle" x="4850.5" y="-1189.5584" font-family="Times,serif" font-size="20.00" fill="#000000">307</text>
<text text-anchor="middle" x="4850.5" y="-1167.5584" font-family="Times,serif" font-size="20.00" fill="#000000">308</text>
<text text-anchor="middle" x="4850.5" y="-1145.5584" font-family="Times,serif" font-size="20.00" fill="#000000">407</text>
</g>
<!-- SG_2_Node_2 -->
<g id="node35" class="node">
<title>SG_2_Node_2</title>
<polygon fill="none" stroke="#000000" points="5029.5,-1099.3452 4838.5,-1099.3452 4838.5,-1063.3452 5029.5,-1063.3452 5029.5,-1099.3452"/>
<text text-anchor="middle" x="4934" y="-1076.3452" font-family="Times,serif" font-size="20.00" fill="#000000">X&#45;Frame&#45;Options</text>
</g>
<!-- SG_2_Node_0&#45;&gt;SG_2_Node_2 -->
<g id="edge32" class="edge">
<title>SG_2_Node_0&#45;&gt;SG_2_Node_2</title>
<path fill="none" stroke="#000000" d="M4856.691,-1396.503C4862.5141,-1386.0159 4869.4408,-1372.3797 4874,-1359.5584 4905.5294,-1270.892 4923.3541,-1160.1702 4930.4149,-1109.2841"/>
<polygon fill="#000000" stroke="#000000" points="4933.8846,-1109.7426 4931.7592,-1099.3632 4926.948,-1108.8026 4933.8846,-1109.7426"/>
<text text-anchor="middle" x="4971" y="-1255.5584" font-family="Times,serif" font-size="20.00" fill="#000000">[NA]</text>
<text text-anchor="middle" x="4971" y="-1233.5584" font-family="Times,serif" font-size="20.00" fill="#000000">52 levels</text>
</g>
<!-- SG_2_Node_7 -->
<g id="node36" class="node">
<title>SG_2_Node_7</title>
<ellipse fill="none" stroke="#000000" cx="4448" cy="-898.9188" rx="34.7971" ry="21.4286"/>
<text text-anchor="middle" x="4448" y="-893.9188" font-family="Times,serif" font-size="20.00" fill="#000000">0.0</text>
</g>
<!-- SG_2_Node_1&#45;&gt;SG_2_Node_7 -->
<g id="edge37" class="edge">
<title>SG_2_Node_1&#45;&gt;SG_2_Node_7</title>
<path fill="none" stroke="#000000" d="M4705.2993,-1079.1527C4626.0764,-1074.6345 4482.1234,-1061.2665 4450,-1023.132 4428.5615,-997.6818 4432.2381,-957.79 4438.5438,-930.1087"/>
<polygon fill="#000000" stroke="#000000" points="4442.0028,-930.7042 4441.0424,-920.153 4435.2134,-929.0003 4442.0028,-930.7042"/>
<text text-anchor="middle" x="4587" y="-1007.132" font-family="Times,serif" font-size="20.00" fill="#000000">[NA]</text>
<text text-anchor="middle" x="4587" y="-985.132" font-family="Times,serif" font-size="20.00" fill="#000000">/</text>
<text text-anchor="middle" x="4587" y="-963.132" font-family="Times,serif" font-size="20.00" fill="#000000">http://localhost:8000/echo/</text>
</g>
<!-- SG_2_Node_3 -->
<g id="node37" class="node">
<title>SG_2_Node_3</title>
<polygon fill="none" stroke="#000000" points="4786,-916.9188 4644,-916.9188 4644,-880.9188 4786,-880.9188 4786,-916.9188"/>
<text text-anchor="middle" x="4715" y="-893.9188" font-family="Times,serif" font-size="20.00" fill="#000000">Status&#45;Code</text>
</g>
<!-- SG_2_Node_1&#45;&gt;SG_2_Node_3 -->
<g id="edge38" class="edge">
<title>SG_2_Node_1&#45;&gt;SG_2_Node_3</title>
<path fill="none" stroke="#000000" d="M4753.7198,-1063.1866C4746.1859,-1031.2241 4730.5109,-964.7233 4721.5881,-926.8688"/>
<polygon fill="#000000" stroke="#000000" points="4724.9639,-925.9343 4719.2629,-917.0041 4718.1506,-927.5404 4724.9639,-925.9343"/>
<text text-anchor="middle" x="4776" y="-985.132" font-family="Times,serif" font-size="20.00" fill="#000000">empty</text>
</g>
<!-- SG_2_Node_4 -->
<g id="node38" class="node">
<title>SG_2_Node_4</title>
<polygon fill="none" stroke="#000000" points="5064,-916.9188 4804,-916.9188 4804,-880.9188 5064,-880.9188 5064,-916.9188"/>
<text text-anchor="middle" x="4934" y="-893.9188" font-family="Times,serif" font-size="20.00" fill="#000000">Content&#45;Security&#45;Policy</text>
</g>
<!-- SG_2_Node_2&#45;&gt;SG_2_Node_4 -->
<g id="edge33" class="edge">
<title>SG_2_Node_2&#45;&gt;SG_2_Node_4</title>
<path fill="none" stroke="#000000" d="M4934,-1063.1866C4934,-1031.3607 4934,-965.291 4934,-927.3557"/>
<polygon fill="#000000" stroke="#000000" points="4937.5001,-927.004 4934,-917.0041 4930.5001,-927.0041 4937.5001,-927.004"/>
<text text-anchor="middle" x="4966" y="-985.132" font-family="Times,serif" font-size="20.00" fill="#000000">empty</text>
</g>
<!-- SG_2_Node_8 -->
<g id="node39" class="node">
<title>SG_2_Node_8</title>
<ellipse fill="none" stroke="#000000" cx="5117" cy="-898.9188" rx="34.7971" ry="21.4286"/>
<text text-anchor="middle" x="5117" y="-893.9188" font-family="Times,serif" font-size="20.00" fill="#000000">1.0</text>
</g>
<!-- SG_2_Node_2&#45;&gt;SG_2_Node_8 -->
<g id="edge34" class="edge">
<title>SG_2_Node_2&#45;&gt;SG_2_Node_8</title>
<path fill="none" stroke="#000000" d="M4956.6213,-1063.0989C4970.1315,-1051.9299 4987.4394,-1037.1371 5002,-1023.132 5035.2551,-991.1457 5070.9761,-951.6716 5093.6294,-925.9261"/>
<polygon fill="#000000" stroke="#000000" points="5096.549,-927.9049 5100.5054,-918.0765 5091.2835,-923.2924 5096.549,-927.9049"/>
<text text-anchor="middle" x="5089" y="-996.132" font-family="Times,serif" font-size="20.00" fill="#000000">[NA]</text>
<text text-anchor="middle" x="5089" y="-974.132" font-family="Times,serif" font-size="20.00" fill="#000000">deny</text>
</g>
<!-- SG_2_Node_9 -->
<g id="node40" class="node">
<title>SG_2_Node_9</title>
<ellipse fill="none" stroke="#000000" cx="4585" cy="-650.4924" rx="34.7971" ry="21.4286"/>
<text text-anchor="middle" x="4585" y="-645.4924" font-family="Times,serif" font-size="20.00" fill="#000000">0.0</text>
</g>
<!-- SG_2_Node_3&#45;&gt;SG_2_Node_9 -->
<g id="edge39" class="edge">
<title>SG_2_Node_3&#45;&gt;SG_2_Node_9</title>
<path fill="none" stroke="#000000" d="M4701.8317,-880.7369C4693.9214,-869.4681 4683.8941,-854.549 4676,-840.7056 4644.7879,-785.9706 4614.4103,-718.8525 4597.8543,-680.745"/>
<polygon fill="#000000" stroke="#000000" points="4600.9335,-679.047 4593.7562,-671.2535 4594.5069,-681.8217 4600.9335,-679.047"/>
<text text-anchor="middle" x="4695.5" y="-802.7056" font-family="Times,serif" font-size="20.00" fill="#000000">100</text>
<text text-anchor="middle" x="4695.5" y="-780.7056" font-family="Times,serif" font-size="20.00" fill="#000000">102</text>
<text text-anchor="middle" x="4695.5" y="-758.7056" font-family="Times,serif" font-size="20.00" fill="#000000">103</text>
<text text-anchor="middle" x="4695.5" y="-736.7056" font-family="Times,serif" font-size="20.00" fill="#000000">407</text>
</g>
<!-- SG_2_Node_5 -->
<g id="node41" class="node">
<title>SG_2_Node_5</title>
<polygon fill="none" stroke="#000000" points="4828.5,-668.4924 4637.5,-668.4924 4637.5,-632.4924 4828.5,-632.4924 4828.5,-668.4924"/>
<text text-anchor="middle" x="4733" y="-645.4924" font-family="Times,serif" font-size="20.00" fill="#000000">X&#45;Frame&#45;Options</text>
</g>
<!-- SG_2_Node_3&#45;&gt;SG_2_Node_5 -->
<g id="edge40" class="edge">
<title>SG_2_Node_3&#45;&gt;SG_2_Node_5</title>
<path fill="none" stroke="#000000" d="M4716.3236,-880.6514C4719.4313,-837.7606 4727.213,-730.3618 4730.9431,-678.8802"/>
<polygon fill="#000000" stroke="#000000" points="4734.4426,-679.0134 4731.6745,-668.7866 4727.4609,-678.5075 4734.4426,-679.0134"/>
<text text-anchor="middle" x="4747.5" y="-824.7056" font-family="Times,serif" font-size="20.00" fill="#000000">301</text>
<text text-anchor="middle" x="4747.5" y="-802.7056" font-family="Times,serif" font-size="20.00" fill="#000000">302</text>
<text text-anchor="middle" x="4747.5" y="-780.7056" font-family="Times,serif" font-size="20.00" fill="#000000">303</text>
<text text-anchor="middle" x="4747.5" y="-758.7056" font-family="Times,serif" font-size="20.00" fill="#000000">305</text>
<text text-anchor="middle" x="4747.5" y="-736.7056" font-family="Times,serif" font-size="20.00" fill="#000000">307</text>
<text text-anchor="middle" x="4747.5" y="-714.7056" font-family="Times,serif" font-size="20.00" fill="#000000">308</text>
</g>
<!-- SG_2_Node_10 -->
<g id="node42" class="node">
<title>SG_2_Node_10</title>
<ellipse fill="none" stroke="#000000" cx="4916" cy="-650.4924" rx="34.7971" ry="21.4286"/>
<text text-anchor="middle" x="4916" y="-645.4924" font-family="Times,serif" font-size="20.00" fill="#000000">0.0</text>
</g>
<!-- SG_2_Node_4&#45;&gt;SG_2_Node_10 -->
<g id="edge35" class="edge">
<title>SG_2_Node_4&#45;&gt;SG_2_Node_10</title>
<path fill="none" stroke="#000000" d="M4932.6764,-880.6514C4929.6306,-838.6144 4922.095,-734.6118 4918.2844,-682.0199"/>
<polygon fill="#000000" stroke="#000000" points="4921.7661,-681.6402 4917.5525,-671.9193 4914.7844,-682.1461 4921.7661,-681.6402"/>
<text text-anchor="middle" x="5011.5" y="-791.7056" font-family="Times,serif" font-size="20.00" fill="#000000">[NA]</text>
<text text-anchor="middle" x="5011.5" y="-769.7056" font-family="Times,serif" font-size="20.00" fill="#000000">default&#45;src &#39;self&#39;</text>
<text text-anchor="middle" x="5011.5" y="-747.7056" font-family="Times,serif" font-size="20.00" fill="#000000">empty</text>
</g>
<!-- SG_2_Node_11 -->
<g id="node43" class="node">
<title>SG_2_Node_11</title>
<ellipse fill="none" stroke="#000000" cx="5117" cy="-650.4924" rx="34.7971" ry="21.4286"/>
<text text-anchor="middle" x="5117" y="-645.4924" font-family="Times,serif" font-size="20.00" fill="#000000">1.0</text>
</g>
<!-- SG_2_Node_4&#45;&gt;SG_2_Node_11 -->
<g id="edge36" class="edge">
<title>SG_2_Node_4&#45;&gt;SG_2_Node_11</title>
<path fill="none" stroke="#000000" d="M5006.0834,-880.8722C5043.2589,-870.0613 5083.241,-855.5634 5095,-840.7056 5131.154,-795.0242 5128.1189,-722.7495 5122.6065,-681.6972"/>
<polygon fill="#000000" stroke="#000000" points="5126.0573,-681.1063 5121.1348,-671.7244 5119.1322,-682.1282 5126.0573,-681.1063"/>
<text text-anchor="middle" x="5235.5" y="-769.7056" font-family="Times,serif" font-size="20.00" fill="#000000">frame&#45;ancestors &#39;self&#39;</text>
</g>
<!-- SG_2_Node_6 -->
<g id="node44" class="node">
<title>SG_2_Node_6</title>
<polygon fill="none" stroke="#000000" points="4710,-486.066 4450,-486.066 4450,-450.066 4710,-450.066 4710,-486.066"/>
<text text-anchor="middle" x="4580" y="-463.066" font-family="Times,serif" font-size="20.00" fill="#000000">Content&#45;Security&#45;Policy</text>
</g>
<!-- SG_2_Node_5&#45;&gt;SG_2_Node_6 -->
<g id="edge41" class="edge">
<title>SG_2_Node_5&#45;&gt;SG_2_Node_6</title>
<path fill="none" stroke="#000000" d="M4713.1552,-632.289C4701.3561,-621.1352 4686.3343,-606.3433 4674,-592.2792 4645.9266,-560.2685 4616.8309,-520.6513 4598.588,-494.8903"/>
<polygon fill="#000000" stroke="#000000" points="4601.2247,-492.5553 4592.6074,-486.3914 4595.5,-496.5837 4601.2247,-492.5553"/>
<text text-anchor="middle" x="4706" y="-565.2792" font-family="Times,serif" font-size="20.00" fill="#000000">[NA]</text>
<text text-anchor="middle" x="4706" y="-543.2792" font-family="Times,serif" font-size="20.00" fill="#000000">empty</text>
</g>
<!-- SG_2_Node_12 -->
<g id="node45" class="node">
<title>SG_2_Node_12</title>
<ellipse fill="none" stroke="#000000" cx="4763" cy="-468.066" rx="34.7971" ry="21.4286"/>
<text text-anchor="middle" x="4763" y="-463.066" font-family="Times,serif" font-size="20.00" fill="#000000">1.0</text>
</g>
<!-- SG_2_Node_5&#45;&gt;SG_2_Node_12 -->
<g id="edge42" class="edge">
<title>SG_2_Node_5&#45;&gt;SG_2_Node_12</title>
<path fill="none" stroke="#000000" d="M4735.9862,-632.3337C4741.0934,-601.2775 4751.5629,-537.6134 4757.863,-499.3032"/>
<polygon fill="#000000" stroke="#000000" points="4761.3523,-499.6537 4759.5215,-489.2183 4754.4451,-498.5178 4761.3523,-499.6537"/>
<text text-anchor="middle" x="4777.5" y="-554.2792" font-family="Times,serif" font-size="20.00" fill="#000000">deny</text>
</g>
<!-- SG_2_Node_13 -->
<g id="node46" class="node">
<title>SG_2_Node_13</title>
<ellipse fill="none" stroke="#000000" cx="4512" cy="-219.6396" rx="34.7971" ry="21.4286"/>
<text text-anchor="middle" x="4512" y="-214.6396" font-family="Times,serif" font-size="20.00" fill="#000000">0.0</text>
</g>
<!-- SG_2_Node_6&#45;&gt;SG_2_Node_13 -->
<g id="edge43" class="edge">
<title>SG_2_Node_6&#45;&gt;SG_2_Node_13</title>
<path fill="none" stroke="#000000" d="M4556.9,-449.843C4545.4995,-439.4446 4532.7691,-425.3988 4526,-409.8528 4503.344,-357.821 4504.7486,-290.2036 4508.1521,-251.1898"/>
<polygon fill="#000000" stroke="#000000" points="4511.6605,-251.2735 4509.1468,-240.9812 4504.6935,-250.5946 4511.6605,-251.2735"/>
<text text-anchor="middle" x="4608.5" y="-360.8528" font-family="Times,serif" font-size="20.00" fill="#000000">[NA]</text>
<text text-anchor="middle" x="4608.5" y="-338.8528" font-family="Times,serif" font-size="20.00" fill="#000000">default&#45;src &#39;self&#39;</text>
<text text-anchor="middle" x="4608.5" y="-316.8528" font-family="Times,serif" font-size="20.00" fill="#000000">empty</text>
</g>
<!-- SG_2_Node_14 -->
<g id="node47" class="node">
<title>SG_2_Node_14</title>
<ellipse fill="none" stroke="#000000" cx="4713" cy="-219.6396" rx="34.7971" ry="21.4286"/>
<text text-anchor="middle" x="4713" y="-214.6396" font-family="Times,serif" font-size="20.00" fill="#000000">1.0</text>
</g>
<!-- SG_2_Node_6&#45;&gt;SG_2_Node_14 -->
<g id="edge44" class="edge">
<title>SG_2_Node_6&#45;&gt;SG_2_Node_14</title>
<path fill="none" stroke="#000000" d="M4638.8329,-449.9481C4658.4656,-440.9846 4678.5022,-428.0633 4691,-409.8528 4723.7223,-362.173 4722.1324,-291.4628 4717.7523,-251.0366"/>
<polygon fill="#000000" stroke="#000000" points="4721.2094,-250.4698 4716.5338,-240.9625 4714.26,-251.3104 4721.2094,-250.4698"/>
<text text-anchor="middle" x="4830.5" y="-338.8528" font-family="Times,serif" font-size="20.00" fill="#000000">frame&#45;ancestors &#39;self&#39;</text>
</g>
</g>
</svg>
