<?xml version="1.0" encoding="UTF-8" standalone="no"?>
<!DOCTYPE svg PUBLIC "-//W3C//DTD SVG 1.1//EN"
 "http://www.w3.org/Graphics/SVG/1.1/DTD/svg11.dtd">
<!-- Generated by graphviz version 2.40.1 (20161225.0304)
 -->
<!-- Title: G Pages: 1 -->
<svg width="1294pt" height="1062pt"
 viewBox="0.00 0.00 1294.00 1062.13" xmlns="http://www.w3.org/2000/svg" xmlns:xlink="http://www.w3.org/1999/xlink">
<g id="graph0" class="graph" transform="scale(1 1) rotate(0) translate(4 1058.132)">
<title>G</title>
<polygon fill="#ffffff" stroke="transparent" points="-4,4 -4,-1058.132 1290,-1058.132 1290,4 -4,4"/>
<g id="clust1" class="cluster">
<title>cluster_0</title>
<polygon fill="none" stroke="#000000" points="8,-8 8,-1046.132 627,-1046.132 627,-8 8,-8"/>
<text text-anchor="middle" x="317.5" y="-1010.132" font-family="Times,serif" font-size="40.00" fill="#000000">Tree 0, Class error</text>
</g>
<g id="clust8" class="cluster">
<title>cluster_1</title>
<polygon fill="none" stroke="#000000" points="635,-8 635,-1046.132 1254,-1046.132 1254,-8 635,-8"/>
<text text-anchor="middle" x="944.5" y="-1010.132" font-family="Times,serif" font-size="40.00" fill="#000000">Tree 0, Class load</text>
</g>
<!-- SG_0_Node_0 -->
<g id="node1" class="node">
<title>SG_0_Node_0</title>
<polygon fill="none" stroke="#000000" points="320.5,-986.132 255.5,-986.132 255.5,-950.132 320.5,-950.132 320.5,-986.132"/>
<text text-anchor="middle" x="288" y="-963.132" font-family="Times,serif" font-size="20.00" fill="#000000">body</text>
</g>
<!-- SG_0_Node_1 -->
<g id="node2" class="node">
<title>SG_0_Node_1</title>
<polygon fill="none" stroke="#000000" points="333.5,-828.9188 16.5,-828.9188 16.5,-792.9188 333.5,-792.9188 333.5,-828.9188"/>
<text text-anchor="middle" x="175" y="-805.9188" font-family="Times,serif" font-size="20.00" fill="#000000">Cross&#45;Origin&#45;Resource&#45;Policy</text>
</g>
<!-- SG_0_Node_0&#45;&gt;SG_0_Node_1 -->
<g id="edge1" class="edge">
<title>SG_0_Node_0&#45;&gt;SG_0_Node_1</title>
<path fill="none" stroke="#000000" d="M255.2948,-965.5561C195.786,-960.1171 73.572,-945.2272 48,-913.132 35.814,-897.8375 37.4389,-885.5906 48,-869.132 58.1126,-853.3723 73.6762,-841.8237 90.4831,-833.3796"/>
<polygon fill="#000000" stroke="#000000" points="92.3232,-836.3843 99.9216,-829.0008 89.3773,-830.0344 92.3232,-836.3843"/>
<text text-anchor="middle" x="276.5" y="-886.132" font-family="Times,serif" font-size="20.00" fill="#000000">ecocnt_img=width=50,height=50,type=png</text>
</g>
<!-- SG_0_Node_5 -->
<g id="node3" class="node">
<title>SG_0_Node_5</title>
<ellipse fill="none" stroke="#000000" cx="527" cy="-810.9188" rx="34.7971" ry="21.4286"/>
<text text-anchor="middle" x="527" y="-805.9188" font-family="Times,serif" font-size="20.00" fill="#000000">1.0</text>
</g>
<!-- SG_0_Node_0&#45;&gt;SG_0_Node_5 -->
<g id="edge2" class="edge">
<title>SG_0_Node_0&#45;&gt;SG_0_Node_5</title>
<path fill="none" stroke="#000000" d="M320.8629,-964.059C375.0564,-956.6716 479.7069,-939.3585 505,-913.132 522.9485,-894.5212 527.7346,-864.9764 528.4489,-842.4269"/>
<polygon fill="#000000" stroke="#000000" points="531.9495,-842.3347 528.518,-832.311 524.9497,-842.2868 531.9495,-842.3347"/>
<text text-anchor="middle" x="571" y="-897.132" font-family="Times,serif" font-size="20.00" fill="#000000">[NA]</text>
<text text-anchor="middle" x="571" y="-875.132" font-family="Times,serif" font-size="20.00" fill="#000000">12 levels</text>
</g>
<!-- SG_0_Node_2 -->
<g id="node4" class="node">
<title>SG_0_Node_2</title>
<polygon fill="none" stroke="#000000" points="202,-668.4924 60,-668.4924 60,-632.4924 202,-632.4924 202,-668.4924"/>
<text text-anchor="middle" x="131" y="-645.4924" font-family="Times,serif" font-size="20.00" fill="#000000">Status&#45;Code</text>
</g>
<!-- SG_0_Node_1&#45;&gt;SG_0_Node_2 -->
<g id="edge3" class="edge">
<title>SG_0_Node_1&#45;&gt;SG_0_Node_2</title>
<path fill="none" stroke="#000000" d="M170.0382,-792.8277C162.4129,-765.0255 147.7512,-711.5683 138.727,-678.6655"/>
<polygon fill="#000000" stroke="#000000" points="142.0316,-677.4816 136.0112,-668.7636 135.2809,-679.3332 142.0316,-677.4816"/>
<text text-anchor="middle" x="190" y="-736.7056" font-family="Times,serif" font-size="20.00" fill="#000000">[NA]</text>
<text text-anchor="middle" x="190" y="-714.7056" font-family="Times,serif" font-size="20.00" fill="#000000">empty</text>
</g>
<!-- SG_0_Node_6 -->
<g id="node5" class="node">
<title>SG_0_Node_6</title>
<ellipse fill="none" stroke="#000000" cx="255" cy="-650.4924" rx="34.7971" ry="21.4286"/>
<text text-anchor="middle" x="255" y="-645.4924" font-family="Times,serif" font-size="20.00" fill="#000000">1.0</text>
</g>
<!-- SG_0_Node_1&#45;&gt;SG_0_Node_6 -->
<g id="edge4" class="edge">
<title>SG_0_Node_1&#45;&gt;SG_0_Node_6</title>
<path fill="none" stroke="#000000" d="M194.5902,-792.8915C205.2344,-782.1415 217.8497,-767.6976 226,-752.7056 238.0589,-730.524 245.513,-702.8423 249.8391,-681.883"/>
<polygon fill="#000000" stroke="#000000" points="253.3084,-682.3771 251.7711,-671.8944 246.4357,-681.0478 253.3084,-682.3771"/>
<text text-anchor="middle" x="304" y="-725.7056" font-family="Times,serif" font-size="20.00" fill="#000000">same&#45;origin</text>
</g>
<!-- SG_0_Node_7 -->
<g id="node6" class="node">
<title>SG_0_Node_7</title>
<ellipse fill="none" stroke="#000000" cx="55" cy="-490.066" rx="34.7971" ry="21.4286"/>
<text text-anchor="middle" x="55" y="-485.066" font-family="Times,serif" font-size="20.00" fill="#000000">0.0</text>
</g>
<!-- SG_0_Node_2&#45;&gt;SG_0_Node_7 -->
<g id="edge5" class="edge">
<title>SG_0_Node_2&#45;&gt;SG_0_Node_7</title>
<path fill="none" stroke="#000000" d="M94.5323,-632.3115C79.3758,-622.6709 63.3874,-609.2688 55,-592.2792 44.1807,-570.3636 45.0032,-542.4436 48.0724,-521.3235"/>
<polygon fill="#000000" stroke="#000000" points="51.5572,-521.7068 49.775,-511.2629 44.6553,-520.5386 51.5572,-521.7068"/>
<text text-anchor="middle" x="101" y="-576.2792" font-family="Times,serif" font-size="20.00" fill="#000000">[NA]</text>
<text text-anchor="middle" x="101" y="-554.2792" font-family="Times,serif" font-size="20.00" fill="#000000">49 levels</text>
</g>
<!-- SG_0_Node_3 -->
<g id="node7" class="node">
<title>SG_0_Node_3</title>
<polygon fill="none" stroke="#000000" points="235.5,-508.066 130.5,-508.066 130.5,-472.066 235.5,-472.066 235.5,-508.066"/>
<text text-anchor="middle" x="183" y="-485.066" font-family="Times,serif" font-size="20.00" fill="#000000">Location</text>
</g>
<!-- SG_0_Node_2&#45;&gt;SG_0_Node_3 -->
<g id="edge6" class="edge">
<title>SG_0_Node_2&#45;&gt;SG_0_Node_3</title>
<path fill="none" stroke="#000000" d="M137.3445,-632.4425C141.3423,-620.9681 146.5674,-605.7831 151,-592.2792 159.2354,-567.1904 168.1809,-538.4838 174.5146,-517.8932"/>
<polygon fill="#000000" stroke="#000000" points="177.8988,-518.7952 177.4852,-508.2085 171.2066,-516.7425 177.8988,-518.7952"/>
<text text-anchor="middle" x="210" y="-565.2792" font-family="Times,serif" font-size="20.00" fill="#000000">13 levels</text>
</g>
<!-- SG_0_Node_4 -->
<g id="node8" class="node">
<title>SG_0_Node_4</title>
<polygon fill="none" stroke="#000000" points="177,-325.6396 35,-325.6396 35,-289.6396 177,-289.6396 177,-325.6396"/>
<text text-anchor="middle" x="106" y="-302.6396" font-family="Times,serif" font-size="20.00" fill="#000000">Status&#45;Code</text>
</g>
<!-- SG_0_Node_3&#45;&gt;SG_0_Node_4 -->
<g id="edge7" class="edge">
<title>SG_0_Node_3&#45;&gt;SG_0_Node_4</title>
<path fill="none" stroke="#000000" d="M161.5834,-471.9342C150.4724,-461.3627 137.6567,-447.1256 130,-431.8528 114.6871,-401.3082 109.1223,-362.0174 107.1128,-335.8895"/>
<polygon fill="#000000" stroke="#000000" points="110.6048,-335.651 106.4685,-325.8969 103.6193,-336.1015 110.6048,-335.651"/>
<text text-anchor="middle" x="162" y="-393.8528" font-family="Times,serif" font-size="20.00" fill="#000000">empty</text>
</g>
<!-- SG_0_Node_8 -->
<g id="node9" class="node">
<title>SG_0_Node_8</title>
<ellipse fill="none" stroke="#000000" cx="230" cy="-307.6396" rx="34.7971" ry="21.4286"/>
<text text-anchor="middle" x="230" y="-302.6396" font-family="Times,serif" font-size="20.00" fill="#000000">1.0</text>
</g>
<!-- SG_0_Node_3&#45;&gt;SG_0_Node_8 -->
<g id="edge8" class="edge">
<title>SG_0_Node_3&#45;&gt;SG_0_Node_8</title>
<path fill="none" stroke="#000000" d="M187.6784,-471.9073C195.6797,-440.8511 212.0819,-377.187 221.9521,-338.8768"/>
<polygon fill="#000000" stroke="#000000" points="225.4447,-339.3489 224.5504,-328.7919 218.6661,-337.6024 225.4447,-339.3489"/>
<text text-anchor="middle" x="351" y="-415.8528" font-family="Times,serif" font-size="20.00" fill="#000000">[NA]</text>
<text text-anchor="middle" x="351" y="-393.8528" font-family="Times,serif" font-size="20.00" fill="#000000">/</text>
<text text-anchor="middle" x="351" y="-371.8528" font-family="Times,serif" font-size="20.00" fill="#000000">http://localhost:8000/echo/</text>
</g>
<!-- SG_0_Node_9 -->
<g id="node10" class="node">
<title>SG_0_Node_9</title>
<ellipse fill="none" stroke="#000000" cx="78" cy="-37.2132" rx="34.7971" ry="21.4286"/>
<text text-anchor="middle" x="78" y="-32.2132" font-family="Times,serif" font-size="20.00" fill="#000000">0.0</text>
</g>
<!-- SG_0_Node_4&#45;&gt;SG_0_Node_9 -->
<g id="edge9" class="edge">
<title>SG_0_Node_4&#45;&gt;SG_0_Node_9</title>
<path fill="none" stroke="#000000" d="M104.1194,-289.4763C99.431,-244.1961 87.1784,-125.859 81.2741,-68.8343"/>
<polygon fill="#000000" stroke="#000000" points="84.7267,-68.1951 80.2153,-58.6087 77.7639,-68.9161 84.7267,-68.1951"/>
<text text-anchor="middle" x="118.5" y="-222.4264" font-family="Times,serif" font-size="20.00" fill="#000000">300</text>
<text text-anchor="middle" x="118.5" y="-200.4264" font-family="Times,serif" font-size="20.00" fill="#000000">301</text>
<text text-anchor="middle" x="118.5" y="-178.4264" font-family="Times,serif" font-size="20.00" fill="#000000">302</text>
<text text-anchor="middle" x="118.5" y="-156.4264" font-family="Times,serif" font-size="20.00" fill="#000000">303</text>
<text text-anchor="middle" x="118.5" y="-134.4264" font-family="Times,serif" font-size="20.00" fill="#000000">307</text>
<text text-anchor="middle" x="118.5" y="-112.4264" font-family="Times,serif" font-size="20.00" fill="#000000">308</text>
</g>
<!-- SG_0_Node_10 -->
<g id="node11" class="node">
<title>SG_0_Node_10</title>
<ellipse fill="none" stroke="#000000" cx="165" cy="-37.2132" rx="34.7971" ry="21.4286"/>
<text text-anchor="middle" x="165" y="-32.2132" font-family="Times,serif" font-size="20.00" fill="#000000">1.0</text>
</g>
<!-- SG_0_Node_4&#45;&gt;SG_0_Node_10 -->
<g id="edge10" class="edge">
<title>SG_0_Node_4&#45;&gt;SG_0_Node_10</title>
<path fill="none" stroke="#000000" d="M119.2631,-289.4452C126.6126,-278.4138 135.2085,-263.7441 140,-249.4264 160.6318,-187.7758 164.7318,-111.0859 165.2655,-68.8371"/>
<polygon fill="#000000" stroke="#000000" points="168.7667,-68.6423 165.3323,-58.6196 161.7669,-68.5964 168.7667,-68.6423"/>
<text text-anchor="middle" x="183.5" y="-233.4264" font-family="Times,serif" font-size="20.00" fill="#000000">100</text>
<text text-anchor="middle" x="183.5" y="-211.4264" font-family="Times,serif" font-size="20.00" fill="#000000">101</text>
<text text-anchor="middle" x="183.5" y="-189.4264" font-family="Times,serif" font-size="20.00" fill="#000000">102</text>
<text text-anchor="middle" x="183.5" y="-167.4264" font-family="Times,serif" font-size="20.00" fill="#000000">103</text>
<text text-anchor="middle" x="183.5" y="-145.4264" font-family="Times,serif" font-size="20.00" fill="#000000">204</text>
<text text-anchor="middle" x="183.5" y="-123.4264" font-family="Times,serif" font-size="20.00" fill="#000000">205</text>
<text text-anchor="middle" x="183.5" y="-101.4264" font-family="Times,serif" font-size="20.00" fill="#000000">304</text>
</g>
<!-- SG_1_Node_0 -->
<g id="node12" class="node">
<title>SG_1_Node_0</title>
<polygon fill="none" stroke="#000000" points="764.5,-986.132 699.5,-986.132 699.5,-950.132 764.5,-950.132 764.5,-986.132"/>
<text text-anchor="middle" x="732" y="-963.132" font-family="Times,serif" font-size="20.00" fill="#000000">body</text>
</g>
<!-- SG_1_Node_5 -->
<g id="node13" class="node">
<title>SG_1_Node_5</title>
<ellipse fill="none" stroke="#000000" cx="678" cy="-810.9188" rx="34.7971" ry="21.4286"/>
<text text-anchor="middle" x="678" y="-805.9188" font-family="Times,serif" font-size="20.00" fill="#000000">0.0</text>
</g>
<!-- SG_1_Node_0&#45;&gt;SG_1_Node_5 -->
<g id="edge11" class="edge">
<title>SG_1_Node_0&#45;&gt;SG_1_Node_5</title>
<path fill="none" stroke="#000000" d="M705.0988,-949.9495C693.5238,-940.4836 681.2358,-927.8144 675,-913.132 665.501,-890.7662 667.0172,-863.0973 670.4852,-842.1898"/>
<polygon fill="#000000" stroke="#000000" points="673.9495,-842.7059 672.3663,-832.23 667.0711,-841.4067 673.9495,-842.7059"/>
<text text-anchor="middle" x="721" y="-897.132" font-family="Times,serif" font-size="20.00" fill="#000000">[NA]</text>
<text text-anchor="middle" x="721" y="-875.132" font-family="Times,serif" font-size="20.00" fill="#000000">12 levels</text>
</g>
<!-- SG_1_Node_1 -->
<g id="node14" class="node">
<title>SG_1_Node_1</title>
<polygon fill="none" stroke="#000000" points="1047.5,-828.9188 730.5,-828.9188 730.5,-792.9188 1047.5,-792.9188 1047.5,-828.9188"/>
<text text-anchor="middle" x="889" y="-805.9188" font-family="Times,serif" font-size="20.00" fill="#000000">Cross&#45;Origin&#45;Resource&#45;Policy</text>
</g>
<!-- SG_1_Node_0&#45;&gt;SG_1_Node_1 -->
<g id="edge12" class="edge">
<title>SG_1_Node_0&#45;&gt;SG_1_Node_1</title>
<path fill="none" stroke="#000000" d="M750.0099,-950.0977C777.8978,-922.1719 831.63,-868.3667 863.4982,-836.4553"/>
<polygon fill="#000000" stroke="#000000" points="866.1268,-838.7762 870.7165,-829.2271 861.1737,-833.8298 866.1268,-838.7762"/>
<text text-anchor="middle" x="1057.5" y="-886.132" font-family="Times,serif" font-size="20.00" fill="#000000">ecocnt_img=width=50,height=50,type=png</text>
</g>
<!-- SG_1_Node_6 -->
<g id="node15" class="node">
<title>SG_1_Node_6</title>
<ellipse fill="none" stroke="#000000" cx="810" cy="-650.4924" rx="34.7971" ry="21.4286"/>
<text text-anchor="middle" x="810" y="-645.4924" font-family="Times,serif" font-size="20.00" fill="#000000">0.0</text>
</g>
<!-- SG_1_Node_1&#45;&gt;SG_1_Node_6 -->
<g id="edge13" class="edge">
<title>SG_1_Node_1&#45;&gt;SG_1_Node_6</title>
<path fill="none" stroke="#000000" d="M860.6772,-792.6799C847.3428,-782.5543 832.5276,-768.7599 824,-752.7056 812.4278,-730.9194 809.2551,-702.9895 808.7936,-681.8328"/>
<polygon fill="#000000" stroke="#000000" points="812.2934,-681.7416 808.7644,-671.7518 805.2935,-681.7619 812.2934,-681.7416"/>
<text text-anchor="middle" x="885" y="-725.7056" font-family="Times,serif" font-size="20.00" fill="#000000">same&#45;origin</text>
</g>
<!-- SG_1_Node_2 -->
<g id="node16" class="node">
<title>SG_1_Node_2</title>
<polygon fill="none" stroke="#000000" points="1039,-668.4924 897,-668.4924 897,-632.4924 1039,-632.4924 1039,-668.4924"/>
<text text-anchor="middle" x="968" y="-645.4924" font-family="Times,serif" font-size="20.00" fill="#000000">Status&#45;Code</text>
</g>
<!-- SG_1_Node_1&#45;&gt;SG_1_Node_2 -->
<g id="edge14" class="edge">
<title>SG_1_Node_1&#45;&gt;SG_1_Node_2</title>
<path fill="none" stroke="#000000" d="M912.2094,-792.7689C924.0596,-782.2933 937.6925,-768.1526 946,-752.7056 958.43,-729.5934 963.837,-699.9867 966.1891,-678.5924"/>
<polygon fill="#000000" stroke="#000000" points="969.6843,-678.8073 967.1388,-668.5228 962.7152,-678.1499 969.6843,-678.8073"/>
<text text-anchor="middle" x="993" y="-736.7056" font-family="Times,serif" font-size="20.00" fill="#000000">[NA]</text>
<text text-anchor="middle" x="993" y="-714.7056" font-family="Times,serif" font-size="20.00" fill="#000000">empty</text>
</g>
<!-- SG_1_Node_3 -->
<g id="node17" class="node">
<title>SG_1_Node_3</title>
<polygon fill="none" stroke="#000000" points="956.5,-508.066 851.5,-508.066 851.5,-472.066 956.5,-472.066 956.5,-508.066"/>
<text text-anchor="middle" x="904" y="-485.066" font-family="Times,serif" font-size="20.00" fill="#000000">Location</text>
</g>
<!-- SG_1_Node_2&#45;&gt;SG_1_Node_3 -->
<g id="edge15" class="edge">
<title>SG_1_Node_2&#45;&gt;SG_1_Node_3</title>
<path fill="none" stroke="#000000" d="M947.4901,-632.2926C936.9155,-621.7006 924.8344,-607.4655 918,-592.2792 907.4841,-568.9125 904.3494,-539.741 903.6302,-518.5501"/>
<polygon fill="#000000" stroke="#000000" points="907.1247,-518.2054 903.448,-508.269 900.1258,-518.3295 907.1247,-518.2054"/>
<text text-anchor="middle" x="964" y="-565.2792" font-family="Times,serif" font-size="20.00" fill="#000000">13 levels</text>
</g>
<!-- SG_1_Node_7 -->
<g id="node18" class="node">
<title>SG_1_Node_7</title>
<ellipse fill="none" stroke="#000000" cx="1032" cy="-490.066" rx="34.7971" ry="21.4286"/>
<text text-anchor="middle" x="1032" y="-485.066" font-family="Times,serif" font-size="20.00" fill="#000000">1.0</text>
</g>
<!-- SG_1_Node_2&#45;&gt;SG_1_Node_7 -->
<g id="edge16" class="edge">
<title>SG_1_Node_2&#45;&gt;SG_1_Node_7</title>
<path fill="none" stroke="#000000" d="M984.138,-632.3171C993.0173,-621.4076 1003.5173,-606.8543 1010,-592.2792 1019.988,-569.8231 1025.5648,-542.5284 1028.6027,-521.7952"/>
<polygon fill="#000000" stroke="#000000" points="1032.1081,-521.9883 1029.9697,-511.6115 1025.1703,-521.0569 1032.1081,-521.9883"/>
<text text-anchor="middle" x="1069" y="-576.2792" font-family="Times,serif" font-size="20.00" fill="#000000">[NA]</text>
<text text-anchor="middle" x="1069" y="-554.2792" font-family="Times,serif" font-size="20.00" fill="#000000">49 levels</text>
</g>
<!-- SG_1_Node_8 -->
<g id="node19" class="node">
<title>SG_1_Node_8</title>
<ellipse fill="none" stroke="#000000" cx="719" cy="-307.6396" rx="34.7971" ry="21.4286"/>
<text text-anchor="middle" x="719" y="-302.6396" font-family="Times,serif" font-size="20.00" fill="#000000">0.0</text>
</g>
<!-- SG_1_Node_3&#45;&gt;SG_1_Node_8 -->
<g id="edge17" class="edge">
<title>SG_1_Node_3&#45;&gt;SG_1_Node_8</title>
<path fill="none" stroke="#000000" d="M851.2666,-480.6223C802.3647,-470.6644 734.8345,-453.4353 719,-431.8528 699.4313,-405.1805 703.3148,-365.8721 709.5707,-338.6486"/>
<polygon fill="#000000" stroke="#000000" points="712.9881,-339.4106 712.0406,-328.8583 706.2007,-337.6983 712.9881,-339.4106"/>
<text text-anchor="middle" x="856" y="-415.8528" font-family="Times,serif" font-size="20.00" fill="#000000">[NA]</text>
<text text-anchor="middle" x="856" y="-393.8528" font-family="Times,serif" font-size="20.00" fill="#000000">/</text>
<text text-anchor="middle" x="856" y="-371.8528" font-family="Times,serif" font-size="20.00" fill="#000000">http://localhost:8000/echo/</text>
</g>
<!-- SG_1_Node_4 -->
<g id="node20" class="node">
<title>SG_1_Node_4</title>
<polygon fill="none" stroke="#000000" points="1100,-325.6396 958,-325.6396 958,-289.6396 1100,-289.6396 1100,-325.6396"/>
<text text-anchor="middle" x="1029" y="-302.6396" font-family="Times,serif" font-size="20.00" fill="#000000">Status&#45;Code</text>
</g>
<!-- SG_1_Node_3&#45;&gt;SG_1_Node_4 -->
<g id="edge18" class="edge">
<title>SG_1_Node_3&#45;&gt;SG_1_Node_4</title>
<path fill="none" stroke="#000000" d="M947.213,-471.8715C965.024,-462.3624 984.3998,-449.0681 997,-431.8528 1017.692,-403.5818 1025.037,-363.1471 1027.625,-336.1761"/>
<polygon fill="#000000" stroke="#000000" points="1031.1414,-336.1082 1028.4462,-325.8619 1024.1634,-335.5525 1031.1414,-336.1082"/>
<text text-anchor="middle" x="1055" y="-393.8528" font-family="Times,serif" font-size="20.00" fill="#000000">empty</text>
</g>
<!-- SG_1_Node_9 -->
<g id="node21" class="node">
<title>SG_1_Node_9</title>
<ellipse fill="none" stroke="#000000" cx="987" cy="-37.2132" rx="34.7971" ry="21.4286"/>
<text text-anchor="middle" x="987" y="-32.2132" font-family="Times,serif" font-size="20.00" fill="#000000">0.0</text>
</g>
<!-- SG_1_Node_4&#45;&gt;SG_1_Node_9 -->
<g id="edge19" class="edge">
<title>SG_1_Node_4&#45;&gt;SG_1_Node_9</title>
<path fill="none" stroke="#000000" d="M1020.6713,-289.4182C1015.8802,-278.1349 1010.1942,-263.2146 1007,-249.4264 992.4024,-186.4145 988.4149,-110.5219 987.354,-68.7106"/>
<polygon fill="#000000" stroke="#000000" points="990.8508,-68.5206 987.1384,-58.5975 983.8524,-68.6698 990.8508,-68.5206"/>
<text text-anchor="middle" x="1026.5" y="-233.4264" font-family="Times,serif" font-size="20.00" fill="#000000">100</text>
<text text-anchor="middle" x="1026.5" y="-211.4264" font-family="Times,serif" font-size="20.00" fill="#000000">101</text>
<text text-anchor="middle" x="1026.5" y="-189.4264" font-family="Times,serif" font-size="20.00" fill="#000000">102</text>
<text text-anchor="middle" x="1026.5" y="-167.4264" font-family="Times,serif" font-size="20.00" fill="#000000">103</text>
<text text-anchor="middle" x="1026.5" y="-145.4264" font-family="Times,serif" font-size="20.00" fill="#000000">204</text>
<text text-anchor="middle" x="1026.5" y="-123.4264" font-family="Times,serif" font-size="20.00" fill="#000000">205</text>
<text text-anchor="middle" x="1026.5" y="-101.4264" font-family="Times,serif" font-size="20.00" fill="#000000">304</text>
</g>
<!-- SG_1_Node_10 -->
<g id="node22" class="node">
<title>SG_1_Node_10</title>
<ellipse fill="none" stroke="#000000" cx="1074" cy="-37.2132" rx="34.7971" ry="21.4286"/>
<text text-anchor="middle" x="1074" y="-32.2132" font-family="Times,serif" font-size="20.00" fill="#000000">1.0</text>
</g>
<!-- SG_1_Node_4&#45;&gt;SG_1_Node_10 -->
<g id="edge20" class="edge">
<title>SG_1_Node_4&#45;&gt;SG_1_Node_10</title>
<path fill="none" stroke="#000000" d="M1035.085,-289.4688C1038.7045,-278.0777 1043.1347,-263.0256 1046,-249.4264 1059.3913,-185.8684 1067.549,-110.1754 1071.3772,-68.5457"/>
<polygon fill="#000000" stroke="#000000" points="1074.8727,-68.7515 1072.2791,-58.4791 1067.9006,-68.1268 1074.8727,-68.7515"/>
<text text-anchor="middle" x="1087.5" y="-222.4264" font-family="Times,serif" font-size="20.00" fill="#000000">300</text>
<text text-anchor="middle" x="1087.5" y="-200.4264" font-family="Times,serif" font-size="20.00" fill="#000000">301</text>
<text text-anchor="middle" x="1087.5" y="-178.4264" font-family="Times,serif" font-size="20.00" fill="#000000">302</text>
<text text-anchor="middle" x="1087.5" y="-156.4264" font-family="Times,serif" font-size="20.00" fill="#000000">303</text>
<text text-anchor="middle" x="1087.5" y="-134.4264" font-family="Times,serif" font-size="20.00" fill="#000000">307</text>
<text text-anchor="middle" x="1087.5" y="-112.4264" font-family="Times,serif" font-size="20.00" fill="#000000">308</text>
</g>
</g>
</svg>
