<?xml version="1.0" encoding="UTF-8" standalone="no"?>
<!DOCTYPE svg PUBLIC "-//W3C//DTD SVG 1.1//EN"
 "http://www.w3.org/Graphics/SVG/1.1/DTD/svg11.dtd">
<!-- Generated by graphviz version 2.40.1 (20161225.0304)
 -->
<!-- Title: G Pages: 1 -->
<svg width="9699pt" height="310pt"
 viewBox="0.00 0.00 9699.00 310.43" xmlns="http://www.w3.org/2000/svg" xmlns:xlink="http://www.w3.org/1999/xlink">
<g id="graph0" class="graph" transform="scale(1 1) rotate(0) translate(4 306.4264)">
<title>G</title>
<polygon fill="#ffffff" stroke="transparent" points="-4,4 -4,-306.4264 9695,-306.4264 9695,4 -4,4"/>
<g id="clust1" class="cluster">
<title>cluster_0</title>
<polygon fill="none" stroke="#000000" points="8,-8 8,-294.4264 4762,-294.4264 4762,-8 8,-8"/>
<text text-anchor="middle" x="2385" y="-258.4264" font-family="Times,serif" font-size="40.00" fill="#000000">Tree 0, Class {&#39;size&#39;: {&#39;transferSize&#39;: 0, &#39;decodedBodySize&#39;: 0, &#39;encodedBodySize&#39;: 0}, &#39;timing&#39;: {&#39;duration&#39;: &gt;0, &#39;fetchStart&#39;: &gt;0, &#39;redirectEnd&#39;: 0, &#39;redirectStart&#39;: 0, &#39;secureConnectionStart&#39;: 0}, &#39;initiatorType&#39;: &#39;img&#39;, &#39;nextHopProtocol&#39;: &#39;&#39;}</text>
</g>
<g id="clust4" class="cluster">
<title>cluster_1</title>
<polygon fill="none" stroke="#000000" points="4770,-8 4770,-294.4264 9683,-294.4264 9683,-8 4770,-8"/>
<text text-anchor="middle" x="7226.5" y="-258.4264" font-family="Times,serif" font-size="40.00" fill="#000000">Tree 0, Class {&#39;size&#39;: {&#39;transferSize&#39;: 0, &#39;decodedBodySize&#39;: 0, &#39;encodedBodySize&#39;: 0}, &#39;timing&#39;: {&#39;duration&#39;: &gt;0, &#39;fetchStart&#39;: &gt;0, &#39;redirectEnd&#39;: 0, &#39;redirectStart&#39;: 0, &#39;secureConnectionStart&#39;: 0}, &#39;initiatorType&#39;: &#39;img&#39;, &#39;nextHopProtocol&#39;: &#39;http/1.1&#39;}</text>
</g>
<!-- SG_0_Node_0 -->
<g id="node1" class="node">
<title>SG_0_Node_0</title>
<polygon fill="none" stroke="#000000" points="2438,-234.4264 2296,-234.4264 2296,-198.4264 2438,-198.4264 2438,-234.4264"/>
<text text-anchor="middle" x="2367" y="-211.4264" font-family="Times,serif" font-size="20.00" fill="#000000">Status&#45;Code</text>
</g>
<!-- SG_0_Node_1 -->
<g id="node2" class="node">
<title>SG_0_Node_1</title>
<ellipse fill="none" stroke="#000000" cx="2303" cy="-37.2132" rx="34.7971" ry="21.4286"/>
<text text-anchor="middle" x="2303" y="-32.2132" font-family="Times,serif" font-size="20.00" fill="#000000">0.0</text>
</g>
<!-- SG_0_Node_0&#45;&gt;SG_0_Node_1 -->
<g id="edge1" class="edge">
<title>SG_0_Node_0&#45;&gt;SG_0_Node_1</title>
<path fill="none" stroke="#000000" d="M2345.0656,-198.2964C2334.7708,-188.5008 2323.3853,-175.5341 2317,-161.4264 2303.6298,-131.8865 2301.0976,-94.5157 2301.3067,-68.5177"/>
<polygon fill="#000000" stroke="#000000" points="2304.8068,-68.5444 2301.528,-58.4697 2297.8085,-68.3902 2304.8068,-68.5444"/>
<text text-anchor="middle" x="2363" y="-134.4264" font-family="Times,serif" font-size="20.00" fill="#000000">[NA]</text>
<text text-anchor="middle" x="2363" y="-112.4264" font-family="Times,serif" font-size="20.00" fill="#000000">59 levels</text>
</g>
<!-- SG_0_Node_2 -->
<g id="node3" class="node">
<title>SG_0_Node_2</title>
<ellipse fill="none" stroke="#000000" cx="2431" cy="-37.2132" rx="34.7971" ry="21.4286"/>
<text text-anchor="middle" x="2431" y="-32.2132" font-family="Times,serif" font-size="20.00" fill="#000000">1.0</text>
</g>
<!-- SG_0_Node_0&#45;&gt;SG_0_Node_2 -->
<g id="edge2" class="edge">
<title>SG_0_Node_0&#45;&gt;SG_0_Node_2</title>
<path fill="none" stroke="#000000" d="M2384.6319,-198.0256C2393.2923,-187.9674 2403.1072,-174.8472 2409,-161.4264 2422.078,-131.6413 2427.3862,-94.6033 2429.5382,-68.7562"/>
<polygon fill="#000000" stroke="#000000" points="2433.0307,-68.9843 2430.26,-58.7582 2426.0489,-68.4802 2433.0307,-68.9843"/>
<text text-anchor="middle" x="2445.5" y="-145.4264" font-family="Times,serif" font-size="20.00" fill="#000000">100</text>
<text text-anchor="middle" x="2445.5" y="-123.4264" font-family="Times,serif" font-size="20.00" fill="#000000">102</text>
<text text-anchor="middle" x="2445.5" y="-101.4264" font-family="Times,serif" font-size="20.00" fill="#000000">103</text>
</g>
<!-- SG_1_Node_0 -->
<g id="node4" class="node">
<title>SG_1_Node_0</title>
<polygon fill="none" stroke="#000000" points="7272,-234.4264 7130,-234.4264 7130,-198.4264 7272,-198.4264 7272,-234.4264"/>
<text text-anchor="middle" x="7201" y="-211.4264" font-family="Times,serif" font-size="20.00" fill="#000000">Status&#45;Code</text>
</g>
<!-- SG_1_Node_1 -->
<g id="node5" class="node">
<title>SG_1_Node_1</title>
<ellipse fill="none" stroke="#000000" cx="7157" cy="-37.2132" rx="34.7971" ry="21.4286"/>
<text text-anchor="middle" x="7157" y="-32.2132" font-family="Times,serif" font-size="20.00" fill="#000000">0.0</text>
</g>
<!-- SG_1_Node_0&#45;&gt;SG_1_Node_1 -->
<g id="edge3" class="edge">
<title>SG_1_Node_0&#45;&gt;SG_1_Node_1</title>
<path fill="none" stroke="#000000" d="M7188.8402,-198.3923C7182.4577,-188.0232 7175.1258,-174.4953 7171,-161.4264 7161.3963,-131.0054 7158.2057,-94.5645 7157.2297,-69.0479"/>
<polygon fill="#000000" stroke="#000000" points="7160.7219,-68.7252 7156.9348,-58.8304 7153.7248,-68.9273 7160.7219,-68.7252"/>
<text text-anchor="middle" x="7190.5" y="-145.4264" font-family="Times,serif" font-size="20.00" fill="#000000">100</text>
<text text-anchor="middle" x="7190.5" y="-123.4264" font-family="Times,serif" font-size="20.00" fill="#000000">102</text>
<text text-anchor="middle" x="7190.5" y="-101.4264" font-family="Times,serif" font-size="20.00" fill="#000000">103</text>
</g>
<!-- SG_1_Node_2 -->
<g id="node6" class="node">
<title>SG_1_Node_2</title>
<ellipse fill="none" stroke="#000000" cx="7244" cy="-37.2132" rx="34.7971" ry="21.4286"/>
<text text-anchor="middle" x="7244" y="-32.2132" font-family="Times,serif" font-size="20.00" fill="#000000">1.0</text>
</g>
<!-- SG_1_Node_0&#45;&gt;SG_1_Node_2 -->
<g id="edge4" class="edge">
<title>SG_1_Node_0&#45;&gt;SG_1_Node_2</title>
<path fill="none" stroke="#000000" d="M7205.3597,-198.2562C7212.6784,-167.754 7227.5163,-105.9131 7236.5253,-68.3659"/>
<polygon fill="#000000" stroke="#000000" points="7239.9708,-69.0067 7238.9006,-58.4661 7233.164,-67.3735 7239.9708,-69.0067"/>
<text text-anchor="middle" x="7275" y="-134.4264" font-family="Times,serif" font-size="20.00" fill="#000000">[NA]</text>
<text text-anchor="middle" x="7275" y="-112.4264" font-family="Times,serif" font-size="20.00" fill="#000000">59 levels</text>
</g>
</g>
</svg>
