<?xml version="1.0" encoding="UTF-8" standalone="no"?>
<!DOCTYPE svg PUBLIC "-//W3C//DTD SVG 1.1//EN"
 "http://www.w3.org/Graphics/SVG/1.1/DTD/svg11.dtd">
<!-- Generated by graphviz version 2.40.1 (20161225.0304)
 -->
<!-- Title: G Pages: 1 -->
<svg width="1614pt" height="1647pt"
 viewBox="0.00 0.00 1614.00 1646.98" xmlns="http://www.w3.org/2000/svg" xmlns:xlink="http://www.w3.org/1999/xlink">
<g id="graph0" class="graph" transform="scale(1 1) rotate(0) translate(4 1642.9848)">
<title>G</title>
<polygon fill="#ffffff" stroke="transparent" points="-4,4 -4,-1642.9848 1610,-1642.9848 1610,4 -4,4"/>
<g id="clust1" class="cluster">
<title>cluster_0</title>
<polygon fill="none" stroke="#000000" points="8,-8 8,-1630.9848 774,-1630.9848 774,-8 8,-8"/>
<text text-anchor="middle" x="391" y="-1594.9848" font-family="Times,serif" font-size="40.00" fill="#000000">Tree 0, Class 0</text>
</g>
<g id="clust11" class="cluster">
<title>cluster_1</title>
<polygon fill="none" stroke="#000000" points="782,-8 782,-1630.9848 1548,-1630.9848 1548,-8 782,-8"/>
<text text-anchor="middle" x="1165" y="-1594.9848" font-family="Times,serif" font-size="40.00" fill="#000000">Tree 0, Class 50</text>
</g>
<!-- SG_0_Node_0 -->
<g id="node1" class="node">
<title>SG_0_Node_0</title>
<polygon fill="none" stroke="#000000" points="459.5,-1570.9848 394.5,-1570.9848 394.5,-1534.9848 459.5,-1534.9848 459.5,-1570.9848"/>
<text text-anchor="middle" x="427" y="-1547.9848" font-family="Times,serif" font-size="20.00" fill="#000000">body</text>
</g>
<!-- SG_0_Node_1 -->
<g id="node2" class="node">
<title>SG_0_Node_1</title>
<polygon fill="none" stroke="#000000" points="394.5,-1413.7716 77.5,-1413.7716 77.5,-1377.7716 394.5,-1377.7716 394.5,-1413.7716"/>
<text text-anchor="middle" x="236" y="-1390.7716" font-family="Times,serif" font-size="20.00" fill="#000000">Cross&#45;Origin&#45;Resource&#45;Policy</text>
</g>
<!-- SG_0_Node_0&#45;&gt;SG_0_Node_1 -->
<g id="edge1" class="edge">
<title>SG_0_Node_0&#45;&gt;SG_0_Node_1</title>
<path fill="none" stroke="#000000" d="M394.4671,-1550.1456C336.5946,-1544.3481 219.5178,-1528.9947 195,-1497.9848 177.1246,-1475.3763 194.5164,-1443.953 211.8402,-1421.9348"/>
<polygon fill="#000000" stroke="#000000" points="214.7298,-1423.9325 218.4026,-1413.9947 209.3341,-1419.473 214.7298,-1423.9325"/>
<text text-anchor="middle" x="423.5" y="-1470.9848" font-family="Times,serif" font-size="20.00" fill="#000000">ecocnt_img=width=50,height=50,type=png</text>
</g>
<!-- SG_0_Node_11 -->
<g id="node3" class="node">
<title>SG_0_Node_11</title>
<ellipse fill="none" stroke="#000000" cx="674" cy="-1395.7716" rx="34.7971" ry="21.4286"/>
<text text-anchor="middle" x="674" y="-1390.7716" font-family="Times,serif" font-size="20.00" fill="#000000">1.0</text>
</g>
<!-- SG_0_Node_0&#45;&gt;SG_0_Node_11 -->
<g id="edge2" class="edge">
<title>SG_0_Node_0&#45;&gt;SG_0_Node_11</title>
<path fill="none" stroke="#000000" d="M459.7236,-1549.2526C515.493,-1542.222 625.5046,-1525.2257 652,-1497.9848 670.0273,-1479.4504 674.8045,-1449.8969 675.4954,-1427.3248"/>
<polygon fill="#000000" stroke="#000000" points="678.996,-1427.2169 675.5526,-1417.1973 671.9961,-1427.1773 678.996,-1427.2169"/>
<text text-anchor="middle" x="718" y="-1481.9848" font-family="Times,serif" font-size="20.00" fill="#000000">[NA]</text>
<text text-anchor="middle" x="718" y="-1459.9848" font-family="Times,serif" font-size="20.00" fill="#000000">12 levels</text>
</g>
<!-- SG_0_Node_2 -->
<g id="node4" class="node">
<title>SG_0_Node_2</title>
<polygon fill="none" stroke="#000000" points="307,-1253.3452 165,-1253.3452 165,-1217.3452 307,-1217.3452 307,-1253.3452"/>
<text text-anchor="middle" x="236" y="-1230.3452" font-family="Times,serif" font-size="20.00" fill="#000000">Status&#45;Code</text>
</g>
<!-- SG_0_Node_1&#45;&gt;SG_0_Node_2 -->
<g id="edge3" class="edge">
<title>SG_0_Node_1&#45;&gt;SG_0_Node_2</title>
<path fill="none" stroke="#000000" d="M236,-1377.6805C236,-1349.9987 236,-1296.8834 236,-1263.9467"/>
<polygon fill="#000000" stroke="#000000" points="239.5001,-1263.6163 236,-1253.6164 232.5001,-1263.6164 239.5001,-1263.6163"/>
<text text-anchor="middle" x="268" y="-1310.5584" font-family="Times,serif" font-size="20.00" fill="#000000">empty</text>
</g>
<!-- SG_0_Node_12 -->
<g id="node5" class="node">
<title>SG_0_Node_12</title>
<ellipse fill="none" stroke="#000000" cx="360" cy="-1235.3452" rx="34.7971" ry="21.4286"/>
<text text-anchor="middle" x="360" y="-1230.3452" font-family="Times,serif" font-size="20.00" fill="#000000">1.0</text>
</g>
<!-- SG_0_Node_1&#45;&gt;SG_0_Node_12 -->
<g id="edge4" class="edge">
<title>SG_0_Node_1&#45;&gt;SG_0_Node_12</title>
<path fill="none" stroke="#000000" d="M261.2481,-1377.7429C274.9913,-1367.0992 291.6571,-1352.7596 304,-1337.5584 321.918,-1315.4911 337.0345,-1286.8624 347.0284,-1265.5191"/>
<polygon fill="#000000" stroke="#000000" points="350.2795,-1266.8253 351.2513,-1256.2751 343.9125,-1263.9166 350.2795,-1266.8253"/>
<text text-anchor="middle" x="393" y="-1321.5584" font-family="Times,serif" font-size="20.00" fill="#000000">[NA]</text>
<text text-anchor="middle" x="393" y="-1299.5584" font-family="Times,serif" font-size="20.00" fill="#000000">same&#45;origin</text>
</g>
<!-- SG_0_Node_3 -->
<g id="node6" class="node">
<title>SG_0_Node_3</title>
<polygon fill="none" stroke="#000000" points="313.5,-1096.132 158.5,-1096.132 158.5,-1060.132 313.5,-1060.132 313.5,-1096.132"/>
<text text-anchor="middle" x="236" y="-1073.132" font-family="Times,serif" font-size="20.00" fill="#000000">Content&#45;Type</text>
</g>
<!-- SG_0_Node_2&#45;&gt;SG_0_Node_3 -->
<g id="edge5" class="edge">
<title>SG_0_Node_2&#45;&gt;SG_0_Node_3</title>
<path fill="none" stroke="#000000" d="M236,-1217.3109C236,-1190.2099 236,-1138.7357 236,-1106.5521"/>
<polygon fill="#000000" stroke="#000000" points="239.5001,-1106.4403 236,-1096.4403 232.5001,-1106.4404 239.5001,-1106.4403"/>
<text text-anchor="middle" x="282" y="-1161.132" font-family="Times,serif" font-size="20.00" fill="#000000">[NA]</text>
<text text-anchor="middle" x="282" y="-1139.132" font-family="Times,serif" font-size="20.00" fill="#000000">49 levels</text>
</g>
<!-- SG_0_Node_4 -->
<g id="node7" class="node">
<title>SG_0_Node_4</title>
<polygon fill="none" stroke="#000000" points="553,-1096.132 411,-1096.132 411,-1060.132 553,-1060.132 553,-1096.132"/>
<text text-anchor="middle" x="482" y="-1073.132" font-family="Times,serif" font-size="20.00" fill="#000000">Status&#45;Code</text>
</g>
<!-- SG_0_Node_2&#45;&gt;SG_0_Node_4 -->
<g id="edge6" class="edge">
<title>SG_0_Node_2&#45;&gt;SG_0_Node_4</title>
<path fill="none" stroke="#000000" d="M266.4484,-1217.287C285.4152,-1205.9382 310.2593,-1190.8911 332,-1177.132 371.715,-1151.9977 416.6257,-1122.1661 446.8679,-1101.8669"/>
<polygon fill="#000000" stroke="#000000" points="449.0291,-1104.6314 455.3758,-1096.1479 445.1239,-1098.8219 449.0291,-1104.6314"/>
<text text-anchor="middle" x="444" y="-1150.132" font-family="Times,serif" font-size="20.00" fill="#000000">13 levels</text>
</g>
<!-- SG_0_Node_13 -->
<g id="node8" class="node">
<title>SG_0_Node_13</title>
<ellipse fill="none" stroke="#000000" cx="51" cy="-788.9188" rx="34.7971" ry="21.4286"/>
<text text-anchor="middle" x="51" y="-783.9188" font-family="Times,serif" font-size="20.00" fill="#000000">0.0</text>
</g>
<!-- SG_0_Node_3&#45;&gt;SG_0_Node_13 -->
<g id="edge17" class="edge">
<title>SG_0_Node_3&#45;&gt;SG_0_Node_13</title>
<path fill="none" stroke="#000000" d="M158.4073,-1066.8918C108.2015,-1057.8497 49.42,-1043.3119 34,-1023.132 -11.9684,-962.974 17.7013,-866.8459 37.461,-818.5909"/>
<polygon fill="#000000" stroke="#000000" points="40.7073,-819.9003 41.3758,-809.3266 34.2593,-817.1755 40.7073,-819.9003"/>
<text text-anchor="middle" x="145" y="-996.132" font-family="Times,serif" font-size="20.00" fill="#000000">[NA]</text>
<text text-anchor="middle" x="145" y="-974.132" font-family="Times,serif" font-size="20.00" fill="#000000">application/javascript</text>
<text text-anchor="middle" x="145" y="-952.132" font-family="Times,serif" font-size="20.00" fill="#000000">audio/wav</text>
<text text-anchor="middle" x="145" y="-930.132" font-family="Times,serif" font-size="20.00" fill="#000000">empty</text>
<text text-anchor="middle" x="145" y="-908.132" font-family="Times,serif" font-size="20.00" fill="#000000">image/png</text>
<text text-anchor="middle" x="145" y="-886.132" font-family="Times,serif" font-size="20.00" fill="#000000">text/css</text>
<text text-anchor="middle" x="145" y="-864.132" font-family="Times,serif" font-size="20.00" fill="#000000">video/mp4</text>
</g>
<!-- SG_0_Node_5 -->
<g id="node9" class="node">
<title>SG_0_Node_5</title>
<polygon fill="none" stroke="#000000" points="393,-806.9188 131,-806.9188 131,-770.9188 393,-770.9188 393,-806.9188"/>
<text text-anchor="middle" x="262" y="-783.9188" font-family="Times,serif" font-size="20.00" fill="#000000">X&#45;Content&#45;Type&#45;Options</text>
</g>
<!-- SG_0_Node_3&#45;&gt;SG_0_Node_5 -->
<g id="edge18" class="edge">
<title>SG_0_Node_3&#45;&gt;SG_0_Node_5</title>
<path fill="none" stroke="#000000" d="M246.1643,-1059.9196C251.4069,-1049.4947 257.2636,-1035.9705 260,-1023.132 275.5444,-950.2015 269.8453,-861.5746 265.3611,-817.1613"/>
<polygon fill="#000000" stroke="#000000" points="268.83,-816.6831 264.2892,-807.1106 261.8695,-817.4254 268.83,-816.6831"/>
<text text-anchor="middle" x="347" y="-941.132" font-family="Times,serif" font-size="20.00" fill="#000000">application/pdf</text>
<text text-anchor="middle" x="347" y="-919.132" font-family="Times,serif" font-size="20.00" fill="#000000">text/html</text>
</g>
<!-- SG_0_Node_6 -->
<g id="node10" class="node">
<title>SG_0_Node_6</title>
<polygon fill="none" stroke="#000000" points="525.5,-806.9188 420.5,-806.9188 420.5,-770.9188 525.5,-770.9188 525.5,-806.9188"/>
<text text-anchor="middle" x="473" y="-783.9188" font-family="Times,serif" font-size="20.00" fill="#000000">Location</text>
</g>
<!-- SG_0_Node_4&#45;&gt;SG_0_Node_6 -->
<g id="edge7" class="edge">
<title>SG_0_Node_4&#45;&gt;SG_0_Node_6</title>
<path fill="none" stroke="#000000" d="M481.437,-1060.0405C479.9154,-1011.145 475.7124,-876.0806 473.8768,-817.0943"/>
<polygon fill="#000000" stroke="#000000" points="477.3722,-816.8898 473.5628,-807.0036 470.3756,-817.1076 477.3722,-816.8898"/>
<text text-anchor="middle" x="499.5" y="-974.132" font-family="Times,serif" font-size="20.00" fill="#000000">301</text>
<text text-anchor="middle" x="499.5" y="-952.132" font-family="Times,serif" font-size="20.00" fill="#000000">302</text>
<text text-anchor="middle" x="499.5" y="-930.132" font-family="Times,serif" font-size="20.00" fill="#000000">303</text>
<text text-anchor="middle" x="499.5" y="-908.132" font-family="Times,serif" font-size="20.00" fill="#000000">307</text>
<text text-anchor="middle" x="499.5" y="-886.132" font-family="Times,serif" font-size="20.00" fill="#000000">308</text>
</g>
<!-- SG_0_Node_14 -->
<g id="node11" class="node">
<title>SG_0_Node_14</title>
<ellipse fill="none" stroke="#000000" cx="578" cy="-788.9188" rx="34.7971" ry="21.4286"/>
<text text-anchor="middle" x="578" y="-783.9188" font-family="Times,serif" font-size="20.00" fill="#000000">1.0</text>
</g>
<!-- SG_0_Node_4&#45;&gt;SG_0_Node_14 -->
<g id="edge8" class="edge">
<title>SG_0_Node_4&#45;&gt;SG_0_Node_14</title>
<path fill="none" stroke="#000000" d="M498.4902,-1060.0225C506.9542,-1049.8434 516.7683,-1036.521 523,-1023.132 554.8032,-954.8025 569.0983,-866.4348 574.7661,-820.2252"/>
<polygon fill="#000000" stroke="#000000" points="578.2504,-820.5628 575.9378,-810.2235 571.298,-819.7483 578.2504,-820.5628"/>
<text text-anchor="middle" x="590.5" y="-1007.132" font-family="Times,serif" font-size="20.00" fill="#000000">100</text>
<text text-anchor="middle" x="590.5" y="-985.132" font-family="Times,serif" font-size="20.00" fill="#000000">101</text>
<text text-anchor="middle" x="590.5" y="-963.132" font-family="Times,serif" font-size="20.00" fill="#000000">102</text>
<text text-anchor="middle" x="590.5" y="-941.132" font-family="Times,serif" font-size="20.00" fill="#000000">103</text>
<text text-anchor="middle" x="590.5" y="-919.132" font-family="Times,serif" font-size="20.00" fill="#000000">204</text>
<text text-anchor="middle" x="590.5" y="-897.132" font-family="Times,serif" font-size="20.00" fill="#000000">205</text>
<text text-anchor="middle" x="590.5" y="-875.132" font-family="Times,serif" font-size="20.00" fill="#000000">304</text>
<text text-anchor="middle" x="590.5" y="-853.132" font-family="Times,serif" font-size="20.00" fill="#000000">407</text>
</g>
<!-- SG_0_Node_7 -->
<g id="node12" class="node">
<title>SG_0_Node_7</title>
<polygon fill="none" stroke="#000000" points="209.5,-624.4924 54.5,-624.4924 54.5,-588.4924 209.5,-588.4924 209.5,-624.4924"/>
<text text-anchor="middle" x="132" y="-601.4924" font-family="Times,serif" font-size="20.00" fill="#000000">Content&#45;Type</text>
</g>
<!-- SG_0_Node_5&#45;&gt;SG_0_Node_7 -->
<g id="edge19" class="edge">
<title>SG_0_Node_5&#45;&gt;SG_0_Node_7</title>
<path fill="none" stroke="#000000" d="M236.1958,-770.8177C222.447,-760.2556 205.9543,-746.0176 194,-730.7056 170.5899,-700.7203 152.4786,-660.4925 142.031,-634.0505"/>
<polygon fill="#000000" stroke="#000000" points="145.2675,-632.7153 138.4071,-624.6415 138.7352,-635.2312 145.2675,-632.7153"/>
<text text-anchor="middle" x="226" y="-692.7056" font-family="Times,serif" font-size="20.00" fill="#000000">empty</text>
</g>
<!-- SG_0_Node_15 -->
<g id="node13" class="node">
<title>SG_0_Node_15</title>
<ellipse fill="none" stroke="#000000" cx="262" cy="-606.4924" rx="34.7971" ry="21.4286"/>
<text text-anchor="middle" x="262" y="-601.4924" font-family="Times,serif" font-size="20.00" fill="#000000">1.0</text>
</g>
<!-- SG_0_Node_5&#45;&gt;SG_0_Node_15 -->
<g id="edge20" class="edge">
<title>SG_0_Node_5&#45;&gt;SG_0_Node_15</title>
<path fill="none" stroke="#000000" d="M262,-770.7602C262,-739.7862 262,-676.3773 262,-638.035"/>
<polygon fill="#000000" stroke="#000000" points="265.5001,-637.933 262,-627.933 258.5001,-637.9331 265.5001,-637.933"/>
<text text-anchor="middle" x="297" y="-703.7056" font-family="Times,serif" font-size="20.00" fill="#000000">[NA]</text>
<text text-anchor="middle" x="297" y="-681.7056" font-family="Times,serif" font-size="20.00" fill="#000000">nosniff</text>
</g>
<!-- SG_0_Node_8 -->
<g id="node14" class="node">
<title>SG_0_Node_8</title>
<polygon fill="none" stroke="#000000" points="469.5,-624.4924 314.5,-624.4924 314.5,-588.4924 469.5,-588.4924 469.5,-624.4924"/>
<text text-anchor="middle" x="392" y="-601.4924" font-family="Times,serif" font-size="20.00" fill="#000000">Content&#45;Type</text>
</g>
<!-- SG_0_Node_6&#45;&gt;SG_0_Node_8 -->
<g id="edge9" class="edge">
<title>SG_0_Node_6&#45;&gt;SG_0_Node_8</title>
<path fill="none" stroke="#000000" d="M450.8584,-770.8887C439.3533,-760.348 426.0515,-746.1079 418,-730.7056 402.1216,-700.3309 395.94,-661.0034 393.5336,-634.8208"/>
<polygon fill="#000000" stroke="#000000" points="397.019,-634.4966 392.7385,-624.8049 390.041,-635.0506 397.019,-634.4966"/>
<text text-anchor="middle" x="450" y="-692.7056" font-family="Times,serif" font-size="20.00" fill="#000000">empty</text>
</g>
<!-- SG_0_Node_16 -->
<g id="node15" class="node">
<title>SG_0_Node_16</title>
<ellipse fill="none" stroke="#000000" cx="522" cy="-606.4924" rx="34.7971" ry="21.4286"/>
<text text-anchor="middle" x="522" y="-601.4924" font-family="Times,serif" font-size="20.00" fill="#000000">1.0</text>
</g>
<!-- SG_0_Node_6&#45;&gt;SG_0_Node_16 -->
<g id="edge10" class="edge">
<title>SG_0_Node_6&#45;&gt;SG_0_Node_16</title>
<path fill="none" stroke="#000000" d="M477.2055,-770.7338C482.8955,-746.4579 493.5417,-702.1692 504,-664.7056 506.5213,-655.674 509.4546,-645.9176 512.2123,-637.0212"/>
<polygon fill="#000000" stroke="#000000" points="515.5684,-638.0157 515.2199,-627.4266 508.8889,-635.9218 515.5684,-638.0157"/>
<text text-anchor="middle" x="641" y="-714.7056" font-family="Times,serif" font-size="20.00" fill="#000000">[NA]</text>
<text text-anchor="middle" x="641" y="-692.7056" font-family="Times,serif" font-size="20.00" fill="#000000">/</text>
<text text-anchor="middle" x="641" y="-670.7056" font-family="Times,serif" font-size="20.00" fill="#000000">http://localhost:8000/echo/</text>
</g>
<!-- SG_0_Node_17 -->
<g id="node16" class="node">
<title>SG_0_Node_17</title>
<ellipse fill="none" stroke="#000000" cx="51" cy="-336.066" rx="34.7971" ry="21.4286"/>
<text text-anchor="middle" x="51" y="-331.066" font-family="Times,serif" font-size="20.00" fill="#000000">0.0</text>
</g>
<!-- SG_0_Node_7&#45;&gt;SG_0_Node_17 -->
<g id="edge21" class="edge">
<title>SG_0_Node_7&#45;&gt;SG_0_Node_17</title>
<path fill="none" stroke="#000000" d="M84.695,-588.2917C67.4275,-579.0716 49.7549,-565.9953 40,-548.2792 8.2057,-490.5368 26.1517,-410.0203 39.8935,-366.6487"/>
<polygon fill="#000000" stroke="#000000" points="43.2791,-367.5577 43.0896,-356.9646 36.6318,-365.3638 43.2791,-367.5577"/>
<text text-anchor="middle" x="87" y="-466.2792" font-family="Times,serif" font-size="20.00" fill="#000000">text/html</text>
</g>
<!-- SG_0_Node_18 -->
<g id="node17" class="node">
<title>SG_0_Node_18</title>
<ellipse fill="none" stroke="#000000" cx="164" cy="-336.066" rx="34.7971" ry="21.4286"/>
<text text-anchor="middle" x="164" y="-331.066" font-family="Times,serif" font-size="20.00" fill="#000000">1.0</text>
</g>
<!-- SG_0_Node_7&#45;&gt;SG_0_Node_18 -->
<g id="edge22" class="edge">
<title>SG_0_Node_7&#45;&gt;SG_0_Node_18</title>
<path fill="none" stroke="#000000" d="M134.1493,-588.3291C139.5074,-543.0489 153.5104,-424.7118 160.2582,-367.6871"/>
<polygon fill="#000000" stroke="#000000" points="163.7688,-367.8036 161.4682,-357.4615 156.8173,-366.9809 163.7688,-367.8036"/>
<text text-anchor="middle" x="234" y="-466.2792" font-family="Times,serif" font-size="20.00" fill="#000000">application/pdf</text>
</g>
<!-- SG_0_Node_19 -->
<g id="node18" class="node">
<title>SG_0_Node_19</title>
<ellipse fill="none" stroke="#000000" cx="354" cy="-336.066" rx="34.7971" ry="21.4286"/>
<text text-anchor="middle" x="354" y="-331.066" font-family="Times,serif" font-size="20.00" fill="#000000">0.0</text>
</g>
<!-- SG_0_Node_8&#45;&gt;SG_0_Node_19 -->
<g id="edge11" class="edge">
<title>SG_0_Node_8&#45;&gt;SG_0_Node_19</title>
<path fill="none" stroke="#000000" d="M382.7416,-588.3856C377.4518,-577.1442 371.2433,-562.2276 368,-548.2792 353.3841,-485.4208 352.2002,-409.4721 352.92,-367.6098"/>
<polygon fill="#000000" stroke="#000000" points="356.4219,-367.5584 353.1437,-357.4835 349.4236,-367.4038 356.4219,-367.5584"/>
<text text-anchor="middle" x="479" y="-532.2792" font-family="Times,serif" font-size="20.00" fill="#000000">[NA]</text>
<text text-anchor="middle" x="479" y="-510.2792" font-family="Times,serif" font-size="20.00" fill="#000000">application/javascript</text>
<text text-anchor="middle" x="479" y="-488.2792" font-family="Times,serif" font-size="20.00" fill="#000000">audio/wav</text>
<text text-anchor="middle" x="479" y="-466.2792" font-family="Times,serif" font-size="20.00" fill="#000000">empty</text>
<text text-anchor="middle" x="479" y="-444.2792" font-family="Times,serif" font-size="20.00" fill="#000000">image/png</text>
<text text-anchor="middle" x="479" y="-422.2792" font-family="Times,serif" font-size="20.00" fill="#000000">text/css</text>
<text text-anchor="middle" x="479" y="-400.2792" font-family="Times,serif" font-size="20.00" fill="#000000">video/mp4</text>
</g>
<!-- SG_0_Node_9 -->
<g id="node19" class="node">
<title>SG_0_Node_9</title>
<polygon fill="none" stroke="#000000" points="743,-354.066 481,-354.066 481,-318.066 743,-318.066 743,-354.066"/>
<text text-anchor="middle" x="612" y="-331.066" font-family="Times,serif" font-size="20.00" fill="#000000">X&#45;Content&#45;Type&#45;Options</text>
</g>
<!-- SG_0_Node_8&#45;&gt;SG_0_Node_9 -->
<g id="edge12" class="edge">
<title>SG_0_Node_8&#45;&gt;SG_0_Node_9</title>
<path fill="none" stroke="#000000" d="M459.9642,-588.4364C515.5201,-573.3756 585.6095,-553.555 590,-548.2792 612.7284,-520.9682 613.7464,-415.4046 612.8294,-364.2168"/>
<polygon fill="#000000" stroke="#000000" points="616.3276,-364.0886 612.6115,-354.1669 609.3292,-364.2404 616.3276,-364.0886"/>
<text text-anchor="middle" x="690" y="-477.2792" font-family="Times,serif" font-size="20.00" fill="#000000">application/pdf</text>
<text text-anchor="middle" x="690" y="-455.2792" font-family="Times,serif" font-size="20.00" fill="#000000">text/html</text>
</g>
<!-- SG_0_Node_10 -->
<g id="node20" class="node">
<title>SG_0_Node_10</title>
<polygon fill="none" stroke="#000000" points="603.5,-193.6396 448.5,-193.6396 448.5,-157.6396 603.5,-157.6396 603.5,-193.6396"/>
<text text-anchor="middle" x="526" y="-170.6396" font-family="Times,serif" font-size="20.00" fill="#000000">Content&#45;Type</text>
</g>
<!-- SG_0_Node_9&#45;&gt;SG_0_Node_10 -->
<g id="edge13" class="edge">
<title>SG_0_Node_9&#45;&gt;SG_0_Node_10</title>
<path fill="none" stroke="#000000" d="M592.2675,-317.9622C581.4927,-307.1876 568.6276,-292.7444 560,-277.8528 546.4648,-254.4904 537.3824,-224.9696 532.0354,-203.6672"/>
<polygon fill="#000000" stroke="#000000" points="535.4374,-202.8445 529.7074,-193.9328 528.6294,-204.4727 535.4374,-202.8445"/>
<text text-anchor="middle" x="592" y="-250.8528" font-family="Times,serif" font-size="20.00" fill="#000000">empty</text>
</g>
<!-- SG_0_Node_20 -->
<g id="node21" class="node">
<title>SG_0_Node_20</title>
<ellipse fill="none" stroke="#000000" cx="656" cy="-175.6396" rx="34.7971" ry="21.4286"/>
<text text-anchor="middle" x="656" y="-170.6396" font-family="Times,serif" font-size="20.00" fill="#000000">1.0</text>
</g>
<!-- SG_0_Node_9&#45;&gt;SG_0_Node_20 -->
<g id="edge14" class="edge">
<title>SG_0_Node_9&#45;&gt;SG_0_Node_20</title>
<path fill="none" stroke="#000000" d="M616.9618,-317.9749C624.364,-290.986 638.3969,-239.8213 647.4668,-206.752"/>
<polygon fill="#000000" stroke="#000000" points="650.9528,-207.2743 650.2225,-196.7046 644.2021,-205.4227 650.9528,-207.2743"/>
<text text-anchor="middle" x="674" y="-261.8528" font-family="Times,serif" font-size="20.00" fill="#000000">[NA]</text>
<text text-anchor="middle" x="674" y="-239.8528" font-family="Times,serif" font-size="20.00" fill="#000000">nosniff</text>
</g>
<!-- SG_0_Node_21 -->
<g id="node22" class="node">
<title>SG_0_Node_21</title>
<ellipse fill="none" stroke="#000000" cx="453" cy="-37.2132" rx="34.7971" ry="21.4286"/>
<text text-anchor="middle" x="453" y="-32.2132" font-family="Times,serif" font-size="20.00" fill="#000000">0.0</text>
</g>
<!-- SG_0_Node_10&#45;&gt;SG_0_Node_21 -->
<g id="edge15" class="edge">
<title>SG_0_Node_10&#45;&gt;SG_0_Node_21</title>
<path fill="none" stroke="#000000" d="M491.3196,-157.399C476.6411,-147.6747 461.0884,-134.2216 453,-117.4264 445.7832,-102.4409 445.3004,-83.9783 446.839,-68.5451"/>
<polygon fill="#000000" stroke="#000000" points="450.3361,-68.7953 448.1692,-58.4244 443.3958,-67.883 450.3361,-68.7953"/>
<text text-anchor="middle" x="500" y="-101.4264" font-family="Times,serif" font-size="20.00" fill="#000000">text/html</text>
</g>
<!-- SG_0_Node_22 -->
<g id="node23" class="node">
<title>SG_0_Node_22</title>
<ellipse fill="none" stroke="#000000" cx="583" cy="-37.2132" rx="34.7971" ry="21.4286"/>
<text text-anchor="middle" x="583" y="-32.2132" font-family="Times,serif" font-size="20.00" fill="#000000">1.0</text>
</g>
<!-- SG_0_Node_10&#45;&gt;SG_0_Node_22 -->
<g id="edge16" class="edge">
<title>SG_0_Node_10&#45;&gt;SG_0_Node_22</title>
<path fill="none" stroke="#000000" d="M533.8917,-157.5979C538.8738,-146.1266 545.403,-130.942 551,-117.4264 557.8232,-100.9497 565.2141,-82.4676 571.1721,-67.4007"/>
<polygon fill="#000000" stroke="#000000" points="574.4477,-68.6349 574.8601,-58.0481 567.9357,-66.067 574.4477,-68.6349"/>
<text text-anchor="middle" x="636" y="-101.4264" font-family="Times,serif" font-size="20.00" fill="#000000">application/pdf</text>
</g>
<!-- SG_1_Node_0 -->
<g id="node24" class="node">
<title>SG_1_Node_0</title>
<polygon fill="none" stroke="#000000" points="984.5,-1570.9848 919.5,-1570.9848 919.5,-1534.9848 984.5,-1534.9848 984.5,-1570.9848"/>
<text text-anchor="middle" x="952" y="-1547.9848" font-family="Times,serif" font-size="20.00" fill="#000000">body</text>
</g>
<!-- SG_1_Node_11 -->
<g id="node25" class="node">
<title>SG_1_Node_11</title>
<ellipse fill="none" stroke="#000000" cx="847" cy="-1395.7716" rx="34.7971" ry="21.4286"/>
<text text-anchor="middle" x="847" y="-1390.7716" font-family="Times,serif" font-size="20.00" fill="#000000">0.0</text>
</g>
<!-- SG_1_Node_0&#45;&gt;SG_1_Node_11 -->
<g id="edge23" class="edge">
<title>SG_1_Node_0&#45;&gt;SG_1_Node_11</title>
<path fill="none" stroke="#000000" d="M939.9552,-1534.9505C921.8355,-1507.8205 887.4026,-1456.2652 865.9124,-1424.0885"/>
<polygon fill="#000000" stroke="#000000" points="868.6831,-1421.9353 860.2186,-1415.5634 862.8621,-1425.8231 868.6831,-1421.9353"/>
<text text-anchor="middle" x="961" y="-1481.9848" font-family="Times,serif" font-size="20.00" fill="#000000">[NA]</text>
<text text-anchor="middle" x="961" y="-1459.9848" font-family="Times,serif" font-size="20.00" fill="#000000">12 levels</text>
</g>
<!-- SG_1_Node_1 -->
<g id="node26" class="node">
<title>SG_1_Node_1</title>
<polygon fill="none" stroke="#000000" points="1216.5,-1413.7716 899.5,-1413.7716 899.5,-1377.7716 1216.5,-1377.7716 1216.5,-1413.7716"/>
<text text-anchor="middle" x="1058" y="-1390.7716" font-family="Times,serif" font-size="20.00" fill="#000000">Cross&#45;Origin&#45;Resource&#45;Policy</text>
</g>
<!-- SG_1_Node_0&#45;&gt;SG_1_Node_1 -->
<g id="edge24" class="edge">
<title>SG_1_Node_0&#45;&gt;SG_1_Node_1</title>
<path fill="none" stroke="#000000" d="M975.3481,-1534.9346C987.1253,-1524.9724 1000.9939,-1511.8322 1011,-1497.9848 1027.6895,-1474.8884 1040.6212,-1444.9198 1048.6578,-1423.4134"/>
<polygon fill="#000000" stroke="#000000" points="1051.9913,-1424.4873 1052.1032,-1413.8931 1045.409,-1422.1051 1051.9913,-1424.4873"/>
<text text-anchor="middle" x="1263.5" y="-1470.9848" font-family="Times,serif" font-size="20.00" fill="#000000">ecocnt_img=width=50,height=50,type=png</text>
</g>
<!-- SG_1_Node_12 -->
<g id="node27" class="node">
<title>SG_1_Node_12</title>
<ellipse fill="none" stroke="#000000" cx="922" cy="-1235.3452" rx="34.7971" ry="21.4286"/>
<text text-anchor="middle" x="922" y="-1230.3452" font-family="Times,serif" font-size="20.00" fill="#000000">0.0</text>
</g>
<!-- SG_1_Node_1&#45;&gt;SG_1_Node_12 -->
<g id="edge25" class="edge">
<title>SG_1_Node_1&#45;&gt;SG_1_Node_12</title>
<path fill="none" stroke="#000000" d="M995.5238,-1377.7599C974.9177,-1368.8436 953.7728,-1355.9258 940,-1337.5584 924.858,-1317.3651 920.8975,-1288.6673 920.4155,-1266.818"/>
<polygon fill="#000000" stroke="#000000" points="923.9155,-1266.7125 920.4246,-1256.7094 916.9155,-1266.7062 923.9155,-1266.7125"/>
<text text-anchor="middle" x="1001" y="-1321.5584" font-family="Times,serif" font-size="20.00" fill="#000000">[NA]</text>
<text text-anchor="middle" x="1001" y="-1299.5584" font-family="Times,serif" font-size="20.00" fill="#000000">same&#45;origin</text>
</g>
<!-- SG_1_Node_2 -->
<g id="node28" class="node">
<title>SG_1_Node_2</title>
<polygon fill="none" stroke="#000000" points="1151,-1253.3452 1009,-1253.3452 1009,-1217.3452 1151,-1217.3452 1151,-1253.3452"/>
<text text-anchor="middle" x="1080" y="-1230.3452" font-family="Times,serif" font-size="20.00" fill="#000000">Status&#45;Code</text>
</g>
<!-- SG_1_Node_1&#45;&gt;SG_1_Node_2 -->
<g id="edge26" class="edge">
<title>SG_1_Node_1&#45;&gt;SG_1_Node_2</title>
<path fill="none" stroke="#000000" d="M1060.4809,-1377.6805C1064.2771,-1349.9987 1071.561,-1296.8834 1076.0777,-1263.9467"/>
<polygon fill="#000000" stroke="#000000" points="1079.6032,-1263.9992 1077.4944,-1253.6164 1072.6681,-1263.0481 1079.6032,-1263.9992"/>
<text text-anchor="middle" x="1103" y="-1310.5584" font-family="Times,serif" font-size="20.00" fill="#000000">empty</text>
</g>
<!-- SG_1_Node_3 -->
<g id="node29" class="node">
<title>SG_1_Node_3</title>
<polygon fill="none" stroke="#000000" points="1042,-1096.132 900,-1096.132 900,-1060.132 1042,-1060.132 1042,-1096.132"/>
<text text-anchor="middle" x="971" y="-1073.132" font-family="Times,serif" font-size="20.00" fill="#000000">Status&#45;Code</text>
</g>
<!-- SG_1_Node_2&#45;&gt;SG_1_Node_3 -->
<g id="edge27" class="edge">
<title>SG_1_Node_2&#45;&gt;SG_1_Node_3</title>
<path fill="none" stroke="#000000" d="M1048.7301,-1217.1357C1033.7037,-1207.0176 1016.5051,-1193.221 1005,-1177.132 989.808,-1155.8872 980.9578,-1127.2941 976.1169,-1106.2992"/>
<polygon fill="#000000" stroke="#000000" points="979.5096,-1105.4274 973.9953,-1096.3807 972.6645,-1106.8916 979.5096,-1105.4274"/>
<text text-anchor="middle" x="1051" y="-1150.132" font-family="Times,serif" font-size="20.00" fill="#000000">13 levels</text>
</g>
<!-- SG_1_Node_4 -->
<g id="node30" class="node">
<title>SG_1_Node_4</title>
<polygon fill="none" stroke="#000000" points="1215.5,-1096.132 1060.5,-1096.132 1060.5,-1060.132 1215.5,-1060.132 1215.5,-1096.132"/>
<text text-anchor="middle" x="1138" y="-1073.132" font-family="Times,serif" font-size="20.00" fill="#000000">Content&#45;Type</text>
</g>
<!-- SG_1_Node_2&#45;&gt;SG_1_Node_4 -->
<g id="edge28" class="edge">
<title>SG_1_Node_2&#45;&gt;SG_1_Node_4</title>
<path fill="none" stroke="#000000" d="M1086.6533,-1217.3109C1096.6951,-1190.0921 1115.807,-1138.2876 1127.6696,-1106.1334"/>
<polygon fill="#000000" stroke="#000000" points="1131.068,-1107.0337 1131.2456,-1096.4403 1124.5007,-1104.6108 1131.068,-1107.0337"/>
<text text-anchor="middle" x="1163" y="-1161.132" font-family="Times,serif" font-size="20.00" fill="#000000">[NA]</text>
<text text-anchor="middle" x="1163" y="-1139.132" font-family="Times,serif" font-size="20.00" fill="#000000">49 levels</text>
</g>
<!-- SG_1_Node_13 -->
<g id="node31" class="node">
<title>SG_1_Node_13</title>
<ellipse fill="none" stroke="#000000" cx="889" cy="-788.9188" rx="34.7971" ry="21.4286"/>
<text text-anchor="middle" x="889" y="-783.9188" font-family="Times,serif" font-size="20.00" fill="#000000">0.0</text>
</g>
<!-- SG_1_Node_3&#45;&gt;SG_1_Node_13 -->
<g id="edge35" class="edge">
<title>SG_1_Node_3&#45;&gt;SG_1_Node_13</title>
<path fill="none" stroke="#000000" d="M955.0859,-1060.0104C946.9679,-1049.8277 937.6415,-1036.5057 932,-1023.132 903.0669,-954.5432 893.5618,-866.5676 890.4686,-820.4112"/>
<polygon fill="#000000" stroke="#000000" points="893.9449,-819.916 889.8416,-810.1481 886.958,-820.343 893.9449,-819.916"/>
<text text-anchor="middle" x="951.5" y="-1007.132" font-family="Times,serif" font-size="20.00" fill="#000000">100</text>
<text text-anchor="middle" x="951.5" y="-985.132" font-family="Times,serif" font-size="20.00" fill="#000000">101</text>
<text text-anchor="middle" x="951.5" y="-963.132" font-family="Times,serif" font-size="20.00" fill="#000000">102</text>
<text text-anchor="middle" x="951.5" y="-941.132" font-family="Times,serif" font-size="20.00" fill="#000000">103</text>
<text text-anchor="middle" x="951.5" y="-919.132" font-family="Times,serif" font-size="20.00" fill="#000000">204</text>
<text text-anchor="middle" x="951.5" y="-897.132" font-family="Times,serif" font-size="20.00" fill="#000000">205</text>
<text text-anchor="middle" x="951.5" y="-875.132" font-family="Times,serif" font-size="20.00" fill="#000000">304</text>
<text text-anchor="middle" x="951.5" y="-853.132" font-family="Times,serif" font-size="20.00" fill="#000000">407</text>
</g>
<!-- SG_1_Node_5 -->
<g id="node32" class="node">
<title>SG_1_Node_5</title>
<polygon fill="none" stroke="#000000" points="1046.5,-806.9188 941.5,-806.9188 941.5,-770.9188 1046.5,-770.9188 1046.5,-806.9188"/>
<text text-anchor="middle" x="994" y="-783.9188" font-family="Times,serif" font-size="20.00" fill="#000000">Location</text>
</g>
<!-- SG_1_Node_3&#45;&gt;SG_1_Node_5 -->
<g id="edge36" class="edge">
<title>SG_1_Node_3&#45;&gt;SG_1_Node_5</title>
<path fill="none" stroke="#000000" d="M972.4388,-1060.0405C976.3272,-1011.145 987.0684,-876.0806 991.7593,-817.0943"/>
<polygon fill="#000000" stroke="#000000" points="995.2579,-817.2496 992.5618,-807.0036 988.28,-816.6946 995.2579,-817.2496"/>
<text text-anchor="middle" x="1008.5" y="-974.132" font-family="Times,serif" font-size="20.00" fill="#000000">301</text>
<text text-anchor="middle" x="1008.5" y="-952.132" font-family="Times,serif" font-size="20.00" fill="#000000">302</text>
<text text-anchor="middle" x="1008.5" y="-930.132" font-family="Times,serif" font-size="20.00" fill="#000000">303</text>
<text text-anchor="middle" x="1008.5" y="-908.132" font-family="Times,serif" font-size="20.00" fill="#000000">307</text>
<text text-anchor="middle" x="1008.5" y="-886.132" font-family="Times,serif" font-size="20.00" fill="#000000">308</text>
</g>
<!-- SG_1_Node_6 -->
<g id="node33" class="node">
<title>SG_1_Node_6</title>
<polygon fill="none" stroke="#000000" points="1342,-806.9188 1080,-806.9188 1080,-770.9188 1342,-770.9188 1342,-806.9188"/>
<text text-anchor="middle" x="1211" y="-783.9188" font-family="Times,serif" font-size="20.00" fill="#000000">X&#45;Content&#45;Type&#45;Options</text>
</g>
<!-- SG_1_Node_4&#45;&gt;SG_1_Node_6 -->
<g id="edge29" class="edge">
<title>SG_1_Node_4&#45;&gt;SG_1_Node_6</title>
<path fill="none" stroke="#000000" d="M1133.4793,-1059.904C1124.4095,-1019.321 1107.6523,-919.4051 1142,-847.132 1148.3338,-833.8047 1159.3413,-822.4066 1170.7282,-813.3213"/>
<polygon fill="#000000" stroke="#000000" points="1173.1107,-815.9102 1179.0253,-807.1199 1168.9199,-810.3032 1173.1107,-815.9102"/>
<text text-anchor="middle" x="1219" y="-941.132" font-family="Times,serif" font-size="20.00" fill="#000000">application/pdf</text>
<text text-anchor="middle" x="1219" y="-919.132" font-family="Times,serif" font-size="20.00" fill="#000000">text/html</text>
</g>
<!-- SG_1_Node_14 -->
<g id="node34" class="node">
<title>SG_1_Node_14</title>
<ellipse fill="none" stroke="#000000" cx="1395" cy="-788.9188" rx="34.7971" ry="21.4286"/>
<text text-anchor="middle" x="1395" y="-783.9188" font-family="Times,serif" font-size="20.00" fill="#000000">1.0</text>
</g>
<!-- SG_1_Node_4&#45;&gt;SG_1_Node_14 -->
<g id="edge30" class="edge">
<title>SG_1_Node_4&#45;&gt;SG_1_Node_14</title>
<path fill="none" stroke="#000000" d="M1215.6469,-1064.8332C1243.7495,-1056.7368 1273.9585,-1043.7869 1296,-1023.132 1355.5449,-967.3332 1380.7159,-869.999 1390.1078,-820.206"/>
<polygon fill="#000000" stroke="#000000" points="1393.5579,-820.7954 1391.8791,-810.3344 1386.6679,-819.559 1393.5579,-820.7954"/>
<text text-anchor="middle" x="1495" y="-996.132" font-family="Times,serif" font-size="20.00" fill="#000000">[NA]</text>
<text text-anchor="middle" x="1495" y="-974.132" font-family="Times,serif" font-size="20.00" fill="#000000">application/javascript</text>
<text text-anchor="middle" x="1495" y="-952.132" font-family="Times,serif" font-size="20.00" fill="#000000">audio/wav</text>
<text text-anchor="middle" x="1495" y="-930.132" font-family="Times,serif" font-size="20.00" fill="#000000">empty</text>
<text text-anchor="middle" x="1495" y="-908.132" font-family="Times,serif" font-size="20.00" fill="#000000">image/png</text>
<text text-anchor="middle" x="1495" y="-886.132" font-family="Times,serif" font-size="20.00" fill="#000000">text/css</text>
<text text-anchor="middle" x="1495" y="-864.132" font-family="Times,serif" font-size="20.00" fill="#000000">video/mp4</text>
</g>
<!-- SG_1_Node_15 -->
<g id="node35" class="node">
<title>SG_1_Node_15</title>
<ellipse fill="none" stroke="#000000" cx="825" cy="-606.4924" rx="34.7971" ry="21.4286"/>
<text text-anchor="middle" x="825" y="-601.4924" font-family="Times,serif" font-size="20.00" fill="#000000">0.0</text>
</g>
<!-- SG_1_Node_5&#45;&gt;SG_1_Node_15 -->
<g id="edge37" class="edge">
<title>SG_1_Node_5&#45;&gt;SG_1_Node_15</title>
<path fill="none" stroke="#000000" d="M942.4724,-770.8094C939.2722,-769.7437 936.0954,-768.7014 933,-767.7056 877.8452,-749.9633 842.6704,-777.1255 808,-730.7056 787.6997,-703.5258 798.4195,-663.3996 809.9124,-636.1659"/>
<polygon fill="#000000" stroke="#000000" points="813.2302,-637.3205 814.1255,-626.7636 806.8422,-634.458 813.2302,-637.3205"/>
<text text-anchor="middle" x="945" y="-714.7056" font-family="Times,serif" font-size="20.00" fill="#000000">[NA]</text>
<text text-anchor="middle" x="945" y="-692.7056" font-family="Times,serif" font-size="20.00" fill="#000000">/</text>
<text text-anchor="middle" x="945" y="-670.7056" font-family="Times,serif" font-size="20.00" fill="#000000">http://localhost:8000/echo/</text>
</g>
<!-- SG_1_Node_7 -->
<g id="node36" class="node">
<title>SG_1_Node_7</title>
<polygon fill="none" stroke="#000000" points="1075.5,-624.4924 920.5,-624.4924 920.5,-588.4924 1075.5,-588.4924 1075.5,-624.4924"/>
<text text-anchor="middle" x="998" y="-601.4924" font-family="Times,serif" font-size="20.00" fill="#000000">Content&#45;Type</text>
</g>
<!-- SG_1_Node_5&#45;&gt;SG_1_Node_7 -->
<g id="edge38" class="edge">
<title>SG_1_Node_5&#45;&gt;SG_1_Node_7</title>
<path fill="none" stroke="#000000" d="M1041.305,-770.7181C1058.5725,-761.498 1076.2451,-748.4217 1086,-730.7056 1100.1486,-705.01 1099.8874,-690.5433 1086,-664.7056 1078.1718,-650.1412 1064.9233,-638.6101 1051.0501,-629.7841"/>
<polygon fill="#000000" stroke="#000000" points="1052.7602,-626.729 1042.3743,-624.6352 1049.1876,-632.7487 1052.7602,-626.729"/>
<text text-anchor="middle" x="1128" y="-692.7056" font-family="Times,serif" font-size="20.00" fill="#000000">empty</text>
</g>
<!-- SG_1_Node_16 -->
<g id="node37" class="node">
<title>SG_1_Node_16</title>
<ellipse fill="none" stroke="#000000" cx="1212" cy="-606.4924" rx="34.7971" ry="21.4286"/>
<text text-anchor="middle" x="1212" y="-601.4924" font-family="Times,serif" font-size="20.00" fill="#000000">0.0</text>
</g>
<!-- SG_1_Node_6&#45;&gt;SG_1_Node_16 -->
<g id="edge31" class="edge">
<title>SG_1_Node_6&#45;&gt;SG_1_Node_16</title>
<path fill="none" stroke="#000000" d="M1211.0995,-770.7602C1211.2693,-739.7862 1211.6169,-676.3773 1211.8271,-638.035"/>
<polygon fill="#000000" stroke="#000000" points="1215.3275,-637.9521 1211.8825,-627.933 1208.3276,-637.9137 1215.3275,-637.9521"/>
<text text-anchor="middle" x="1246" y="-703.7056" font-family="Times,serif" font-size="20.00" fill="#000000">[NA]</text>
<text text-anchor="middle" x="1246" y="-681.7056" font-family="Times,serif" font-size="20.00" fill="#000000">nosniff</text>
</g>
<!-- SG_1_Node_8 -->
<g id="node38" class="node">
<title>SG_1_Node_8</title>
<polygon fill="none" stroke="#000000" points="1419.5,-624.4924 1264.5,-624.4924 1264.5,-588.4924 1419.5,-588.4924 1419.5,-624.4924"/>
<text text-anchor="middle" x="1342" y="-601.4924" font-family="Times,serif" font-size="20.00" fill="#000000">Content&#45;Type</text>
</g>
<!-- SG_1_Node_6&#45;&gt;SG_1_Node_8 -->
<g id="edge32" class="edge">
<title>SG_1_Node_6&#45;&gt;SG_1_Node_8</title>
<path fill="none" stroke="#000000" d="M1240.0924,-770.8964C1254.9895,-760.5548 1272.5584,-746.4993 1285,-730.7056 1308.0722,-701.4171 1324.2965,-661.2829 1333.3864,-634.6534"/>
<polygon fill="#000000" stroke="#000000" points="1336.8214,-635.4127 1336.6285,-624.8196 1330.1733,-633.2209 1336.8214,-635.4127"/>
<text text-anchor="middle" x="1353" y="-692.7056" font-family="Times,serif" font-size="20.00" fill="#000000">empty</text>
</g>
<!-- SG_1_Node_9 -->
<g id="node39" class="node">
<title>SG_1_Node_9</title>
<polygon fill="none" stroke="#000000" points="1052,-354.066 790,-354.066 790,-318.066 1052,-318.066 1052,-354.066"/>
<text text-anchor="middle" x="921" y="-331.066" font-family="Times,serif" font-size="20.00" fill="#000000">X&#45;Content&#45;Type&#45;Options</text>
</g>
<!-- SG_1_Node_7&#45;&gt;SG_1_Node_9 -->
<g id="edge39" class="edge">
<title>SG_1_Node_7&#45;&gt;SG_1_Node_9</title>
<path fill="none" stroke="#000000" d="M920.4868,-590.2707C879.0986,-579.8689 834.2043,-565.1704 822,-548.2792 781.9154,-492.8007 788.0139,-453.6896 822,-394.2792 830.6487,-379.1607 844.9224,-367.5817 859.9753,-358.887"/>
<polygon fill="#000000" stroke="#000000" points="861.7394,-361.9125 868.8916,-354.0961 858.4261,-355.7462 861.7394,-361.9125"/>
<text text-anchor="middle" x="899" y="-477.2792" font-family="Times,serif" font-size="20.00" fill="#000000">application/pdf</text>
<text text-anchor="middle" x="899" y="-455.2792" font-family="Times,serif" font-size="20.00" fill="#000000">text/html</text>
</g>
<!-- SG_1_Node_17 -->
<g id="node40" class="node">
<title>SG_1_Node_17</title>
<ellipse fill="none" stroke="#000000" cx="1105" cy="-336.066" rx="34.7971" ry="21.4286"/>
<text text-anchor="middle" x="1105" y="-331.066" font-family="Times,serif" font-size="20.00" fill="#000000">1.0</text>
</g>
<!-- SG_1_Node_7&#45;&gt;SG_1_Node_17 -->
<g id="edge40" class="edge">
<title>SG_1_Node_7&#45;&gt;SG_1_Node_17</title>
<path fill="none" stroke="#000000" d="M995.1007,-588.4544C989.845,-549.7841 982.495,-457.3032 1020,-394.2792 1026.2026,-383.8562 1049.6903,-368.1383 1070.4073,-355.6612"/>
<polygon fill="#000000" stroke="#000000" points="1072.2378,-358.645 1079.058,-350.5372 1068.6703,-352.6222 1072.2378,-358.645"/>
<text text-anchor="middle" x="1131" y="-532.2792" font-family="Times,serif" font-size="20.00" fill="#000000">[NA]</text>
<text text-anchor="middle" x="1131" y="-510.2792" font-family="Times,serif" font-size="20.00" fill="#000000">application/javascript</text>
<text text-anchor="middle" x="1131" y="-488.2792" font-family="Times,serif" font-size="20.00" fill="#000000">audio/wav</text>
<text text-anchor="middle" x="1131" y="-466.2792" font-family="Times,serif" font-size="20.00" fill="#000000">empty</text>
<text text-anchor="middle" x="1131" y="-444.2792" font-family="Times,serif" font-size="20.00" fill="#000000">image/png</text>
<text text-anchor="middle" x="1131" y="-422.2792" font-family="Times,serif" font-size="20.00" fill="#000000">text/css</text>
<text text-anchor="middle" x="1131" y="-400.2792" font-family="Times,serif" font-size="20.00" fill="#000000">video/mp4</text>
</g>
<!-- SG_1_Node_18 -->
<g id="node41" class="node">
<title>SG_1_Node_18</title>
<ellipse fill="none" stroke="#000000" cx="1256" cy="-336.066" rx="34.7971" ry="21.4286"/>
<text text-anchor="middle" x="1256" y="-331.066" font-family="Times,serif" font-size="20.00" fill="#000000">0.0</text>
</g>
<!-- SG_1_Node_8&#45;&gt;SG_1_Node_18 -->
<g id="edge33" class="edge">
<title>SG_1_Node_8&#45;&gt;SG_1_Node_18</title>
<path fill="none" stroke="#000000" d="M1309.0281,-588.4097C1294.4409,-578.5694 1278.6577,-564.9752 1270,-548.2792 1239.8515,-490.1396 1244.7601,-410.6892 1250.619,-367.3704"/>
<polygon fill="#000000" stroke="#000000" points="1254.0898,-367.8246 1252.0686,-357.4243 1247.1629,-366.815 1254.0898,-367.8246"/>
<text text-anchor="middle" x="1347" y="-466.2792" font-family="Times,serif" font-size="20.00" fill="#000000">application/pdf</text>
</g>
<!-- SG_1_Node_19 -->
<g id="node42" class="node">
<title>SG_1_Node_19</title>
<ellipse fill="none" stroke="#000000" cx="1446" cy="-336.066" rx="34.7971" ry="21.4286"/>
<text text-anchor="middle" x="1446" y="-331.066" font-family="Times,serif" font-size="20.00" fill="#000000">1.0</text>
</g>
<!-- SG_1_Node_8&#45;&gt;SG_1_Node_19 -->
<g id="edge34" class="edge">
<title>SG_1_Node_8&#45;&gt;SG_1_Node_19</title>
<path fill="none" stroke="#000000" d="M1380.8641,-588.2418C1396.912,-578.6561 1414.0544,-565.3172 1424,-548.2792 1457.2074,-491.3913 1454.8947,-411.1321 1450.3867,-367.4251"/>
<polygon fill="#000000" stroke="#000000" points="1453.8535,-366.9333 1449.2456,-357.393 1446.8983,-367.7245 1453.8535,-366.9333"/>
<text text-anchor="middle" x="1499" y="-466.2792" font-family="Times,serif" font-size="20.00" fill="#000000">text/html</text>
</g>
<!-- SG_1_Node_20 -->
<g id="node43" class="node">
<title>SG_1_Node_20</title>
<ellipse fill="none" stroke="#000000" cx="855" cy="-175.6396" rx="34.7971" ry="21.4286"/>
<text text-anchor="middle" x="855" y="-170.6396" font-family="Times,serif" font-size="20.00" fill="#000000">0.0</text>
</g>
<!-- SG_1_Node_9&#45;&gt;SG_1_Node_20 -->
<g id="edge41" class="edge">
<title>SG_1_Node_9&#45;&gt;SG_1_Node_20</title>
<path fill="none" stroke="#000000" d="M900.1348,-317.915C889.3653,-307.3377 877.0409,-293.1012 870,-277.8528 859.7557,-255.6668 856.167,-228.1433 855.0512,-207.2484"/>
<polygon fill="#000000" stroke="#000000" points="858.539,-206.8527 854.6709,-196.9893 851.5438,-207.1121 858.539,-206.8527"/>
<text text-anchor="middle" x="905" y="-250.8528" font-family="Times,serif" font-size="20.00" fill="#000000">nosniff</text>
</g>
<!-- SG_1_Node_10 -->
<g id="node44" class="node">
<title>SG_1_Node_10</title>
<polygon fill="none" stroke="#000000" points="1062.5,-193.6396 907.5,-193.6396 907.5,-157.6396 1062.5,-157.6396 1062.5,-193.6396"/>
<text text-anchor="middle" x="985" y="-170.6396" font-family="Times,serif" font-size="20.00" fill="#000000">Content&#45;Type</text>
</g>
<!-- SG_1_Node_9&#45;&gt;SG_1_Node_10 -->
<g id="edge42" class="edge">
<title>SG_1_Node_9&#45;&gt;SG_1_Node_10</title>
<path fill="none" stroke="#000000" d="M928.2172,-317.9749C939.3566,-290.0523 960.8194,-236.2521 973.9307,-203.3865"/>
<polygon fill="#000000" stroke="#000000" points="977.2564,-204.4958 977.711,-193.9107 970.7547,-201.902 977.2564,-204.4958"/>
<text text-anchor="middle" x="993" y="-261.8528" font-family="Times,serif" font-size="20.00" fill="#000000">[NA]</text>
<text text-anchor="middle" x="993" y="-239.8528" font-family="Times,serif" font-size="20.00" fill="#000000">empty</text>
</g>
<!-- SG_1_Node_21 -->
<g id="node45" class="node">
<title>SG_1_Node_21</title>
<ellipse fill="none" stroke="#000000" cx="905" cy="-37.2132" rx="34.7971" ry="21.4286"/>
<text text-anchor="middle" x="905" y="-32.2132" font-family="Times,serif" font-size="20.00" fill="#000000">0.0</text>
</g>
<!-- SG_1_Node_10&#45;&gt;SG_1_Node_21 -->
<g id="edge43" class="edge">
<title>SG_1_Node_10&#45;&gt;SG_1_Node_21</title>
<path fill="none" stroke="#000000" d="M956.8303,-157.6053C943.27,-147.4445 928.0314,-133.5573 919,-117.4264 910.7516,-102.6941 907.1525,-84.2485 905.6597,-68.7612"/>
<polygon fill="#000000" stroke="#000000" points="909.1371,-68.3184 904.9316,-58.5939 902.155,-68.8185 909.1371,-68.3184"/>
<text text-anchor="middle" x="996" y="-101.4264" font-family="Times,serif" font-size="20.00" fill="#000000">application/pdf</text>
</g>
<!-- SG_1_Node_22 -->
<g id="node46" class="node">
<title>SG_1_Node_22</title>
<ellipse fill="none" stroke="#000000" cx="1095" cy="-37.2132" rx="34.7971" ry="21.4286"/>
<text text-anchor="middle" x="1095" y="-32.2132" font-family="Times,serif" font-size="20.00" fill="#000000">1.0</text>
</g>
<!-- SG_1_Node_10&#45;&gt;SG_1_Node_22 -->
<g id="edge44" class="edge">
<title>SG_1_Node_10&#45;&gt;SG_1_Node_22</title>
<path fill="none" stroke="#000000" d="M1024.4314,-157.6387C1041.6264,-147.9647 1060.6399,-134.4849 1073,-117.4264 1083.3558,-103.1341 1088.838,-84.2043 1091.7396,-68.3234"/>
<polygon fill="#000000" stroke="#000000" points="1095.203,-68.8294 1093.299,-58.4071 1088.2879,-67.7419 1095.203,-68.8294"/>
<text text-anchor="middle" x="1131" y="-101.4264" font-family="Times,serif" font-size="20.00" fill="#000000">text/html</text>
</g>
</g>
</svg>
