<?xml version="1.0" encoding="UTF-8" standalone="no"?>
<!DOCTYPE svg PUBLIC "-//W3C//DTD SVG 1.1//EN"
 "http://www.w3.org/Graphics/SVG/1.1/DTD/svg11.dtd">
<!-- Generated by graphviz version 2.40.1 (20161225.0304)
 -->
<!-- Title: G Pages: 1 -->
<svg width="1789pt" height="1062pt"
 viewBox="0.00 0.00 1789.00 1062.13" xmlns="http://www.w3.org/2000/svg" xmlns:xlink="http://www.w3.org/1999/xlink">
<g id="graph0" class="graph" transform="scale(1 1) rotate(0) translate(4 1058.132)">
<title>G</title>
<polygon fill="#ffffff" stroke="transparent" points="-4,4 -4,-1058.132 1785,-1058.132 1785,4 -4,4"/>
<g id="clust1" class="cluster">
<title>cluster_0</title>
<polygon fill="none" stroke="#000000" points="8,-8 8,-1046.132 895,-1046.132 895,-8 8,-8"/>
<text text-anchor="middle" x="451.5" y="-1010.132" font-family="Times,serif" font-size="40.00" fill="#000000">Tree 0, Class [&#39;loadstart&#39;, &#39;error&#39;, &#39;loadend&#39;]</text>
</g>
<g id="clust8" class="cluster">
<title>cluster_1</title>
<polygon fill="none" stroke="#000000" points="903,-8 903,-1046.132 1773,-1046.132 1773,-8 903,-8"/>
<text text-anchor="middle" x="1338" y="-1010.132" font-family="Times,serif" font-size="40.00" fill="#000000">Tree 0, Class [&#39;loadstart&#39;, &#39;load&#39;, &#39;loadend&#39;]</text>
</g>
<!-- SG_0_Node_0 -->
<g id="node1" class="node">
<title>SG_0_Node_0</title>
<polygon fill="none" stroke="#000000" points="493.5,-986.132 428.5,-986.132 428.5,-950.132 493.5,-950.132 493.5,-986.132"/>
<text text-anchor="middle" x="461" y="-963.132" font-family="Times,serif" font-size="20.00" fill="#000000">body</text>
</g>
<!-- SG_0_Node_1 -->
<g id="node2" class="node">
<title>SG_0_Node_1</title>
<polygon fill="none" stroke="#000000" points="372.5,-828.9188 55.5,-828.9188 55.5,-792.9188 372.5,-792.9188 372.5,-828.9188"/>
<text text-anchor="middle" x="214" y="-805.9188" font-family="Times,serif" font-size="20.00" fill="#000000">Cross&#45;Origin&#45;Resource&#45;Policy</text>
</g>
<!-- SG_0_Node_0&#45;&gt;SG_0_Node_1 -->
<g id="edge1" class="edge">
<title>SG_0_Node_0&#45;&gt;SG_0_Node_1</title>
<path fill="none" stroke="#000000" d="M428.3044,-965.788C367.4415,-960.6718 240.5204,-946.2072 214,-913.132 197.5171,-892.5751 200.1549,-861.4784 205.2779,-838.9841"/>
<polygon fill="#000000" stroke="#000000" points="208.7393,-839.5761 207.8329,-829.0201 201.9587,-837.8374 208.7393,-839.5761"/>
<text text-anchor="middle" x="442.5" y="-886.132" font-family="Times,serif" font-size="20.00" fill="#000000">ecocnt_img=width=50,height=50,type=png</text>
</g>
<!-- SG_0_Node_5 -->
<g id="node3" class="node">
<title>SG_0_Node_5</title>
<ellipse fill="none" stroke="#000000" cx="707" cy="-810.9188" rx="34.7971" ry="21.4286"/>
<text text-anchor="middle" x="707" y="-805.9188" font-family="Times,serif" font-size="20.00" fill="#000000">1.0</text>
</g>
<!-- SG_0_Node_0&#45;&gt;SG_0_Node_5 -->
<g id="edge2" class="edge">
<title>SG_0_Node_0&#45;&gt;SG_0_Node_5</title>
<path fill="none" stroke="#000000" d="M493.5902,-963.6814C546.7916,-955.7918 648.9896,-937.8279 675,-913.132 694.2079,-894.8949 701.9478,-865.3079 705.0349,-842.6475"/>
<polygon fill="#000000" stroke="#000000" points="708.5393,-842.8035 706.1786,-832.4751 701.5832,-842.0214 708.5393,-842.8035"/>
<text text-anchor="middle" x="745" y="-897.132" font-family="Times,serif" font-size="20.00" fill="#000000">[NA]</text>
<text text-anchor="middle" x="745" y="-875.132" font-family="Times,serif" font-size="20.00" fill="#000000">12 levels</text>
</g>
<!-- SG_0_Node_2 -->
<g id="node4" class="node">
<title>SG_0_Node_2</title>
<polygon fill="none" stroke="#000000" points="206,-668.4924 64,-668.4924 64,-632.4924 206,-632.4924 206,-668.4924"/>
<text text-anchor="middle" x="135" y="-645.4924" font-family="Times,serif" font-size="20.00" fill="#000000">Status&#45;Code</text>
</g>
<!-- SG_0_Node_1&#45;&gt;SG_0_Node_2 -->
<g id="edge3" class="edge">
<title>SG_0_Node_1&#45;&gt;SG_0_Node_2</title>
<path fill="none" stroke="#000000" d="M193.6501,-792.7623C182.8144,-782.0787 170.0911,-767.7417 162,-752.7056 149.5004,-729.477 142.5258,-700.1149 138.8122,-678.8269"/>
<polygon fill="#000000" stroke="#000000" points="142.2426,-678.114 137.1983,-668.7971 135.3315,-679.2261 142.2426,-678.114"/>
<text text-anchor="middle" x="194" y="-736.7056" font-family="Times,serif" font-size="20.00" fill="#000000">[NA]</text>
<text text-anchor="middle" x="194" y="-714.7056" font-family="Times,serif" font-size="20.00" fill="#000000">empty</text>
</g>
<!-- SG_0_Node_6 -->
<g id="node5" class="node">
<title>SG_0_Node_6</title>
<ellipse fill="none" stroke="#000000" cx="259" cy="-650.4924" rx="34.7971" ry="21.4286"/>
<text text-anchor="middle" x="259" y="-645.4924" font-family="Times,serif" font-size="20.00" fill="#000000">1.0</text>
</g>
<!-- SG_0_Node_1&#45;&gt;SG_0_Node_6 -->
<g id="edge4" class="edge">
<title>SG_0_Node_1&#45;&gt;SG_0_Node_6</title>
<path fill="none" stroke="#000000" d="M219.0746,-792.8277C226.645,-765.8389 240.9969,-714.6741 250.2729,-681.6048"/>
<polygon fill="#000000" stroke="#000000" points="253.7603,-682.1311 253.0912,-671.5575 247.0204,-680.2406 253.7603,-682.1311"/>
<text text-anchor="middle" x="303" y="-725.7056" font-family="Times,serif" font-size="20.00" fill="#000000">same&#45;origin</text>
</g>
<!-- SG_0_Node_7 -->
<g id="node6" class="node">
<title>SG_0_Node_7</title>
<ellipse fill="none" stroke="#000000" cx="55" cy="-490.066" rx="34.7971" ry="21.4286"/>
<text text-anchor="middle" x="55" y="-485.066" font-family="Times,serif" font-size="20.00" fill="#000000">0.0</text>
</g>
<!-- SG_0_Node_2&#45;&gt;SG_0_Node_7 -->
<g id="edge5" class="edge">
<title>SG_0_Node_2&#45;&gt;SG_0_Node_7</title>
<path fill="none" stroke="#000000" d="M96.7943,-632.3371C81.1858,-622.7699 64.7662,-609.4191 56,-592.2792 44.8704,-570.5183 45.427,-542.5865 48.3167,-521.4226"/>
<polygon fill="#000000" stroke="#000000" points="51.8063,-521.766 49.9361,-511.3376 44.8949,-520.6562 51.8063,-521.766"/>
<text text-anchor="middle" x="102" y="-576.2792" font-family="Times,serif" font-size="20.00" fill="#000000">[NA]</text>
<text text-anchor="middle" x="102" y="-554.2792" font-family="Times,serif" font-size="20.00" fill="#000000">49 levels</text>
</g>
<!-- SG_0_Node_3 -->
<g id="node7" class="node">
<title>SG_0_Node_3</title>
<polygon fill="none" stroke="#000000" points="235.5,-508.066 130.5,-508.066 130.5,-472.066 235.5,-472.066 235.5,-508.066"/>
<text text-anchor="middle" x="183" y="-485.066" font-family="Times,serif" font-size="20.00" fill="#000000">Location</text>
</g>
<!-- SG_0_Node_2&#45;&gt;SG_0_Node_3 -->
<g id="edge6" class="edge">
<title>SG_0_Node_2&#45;&gt;SG_0_Node_3</title>
<path fill="none" stroke="#000000" d="M140.4129,-632.4013C148.7314,-604.5991 164.726,-551.1419 174.5706,-518.2391"/>
<polygon fill="#000000" stroke="#000000" points="178.0198,-518.9208 177.5332,-508.3371 171.3136,-516.9142 178.0198,-518.9208"/>
<text text-anchor="middle" x="211" y="-565.2792" font-family="Times,serif" font-size="20.00" fill="#000000">13 levels</text>
</g>
<!-- SG_0_Node_4 -->
<g id="node8" class="node">
<title>SG_0_Node_4</title>
<polygon fill="none" stroke="#000000" points="177,-325.6396 35,-325.6396 35,-289.6396 177,-289.6396 177,-325.6396"/>
<text text-anchor="middle" x="106" y="-302.6396" font-family="Times,serif" font-size="20.00" fill="#000000">Status&#45;Code</text>
</g>
<!-- SG_0_Node_3&#45;&gt;SG_0_Node_4 -->
<g id="edge7" class="edge">
<title>SG_0_Node_3&#45;&gt;SG_0_Node_4</title>
<path fill="none" stroke="#000000" d="M161.5834,-471.9342C150.4724,-461.3627 137.6567,-447.1256 130,-431.8528 114.6871,-401.3082 109.1223,-362.0174 107.1128,-335.8895"/>
<polygon fill="#000000" stroke="#000000" points="110.6048,-335.651 106.4685,-325.8969 103.6193,-336.1015 110.6048,-335.651"/>
<text text-anchor="middle" x="162" y="-393.8528" font-family="Times,serif" font-size="20.00" fill="#000000">empty</text>
</g>
<!-- SG_0_Node_8 -->
<g id="node9" class="node">
<title>SG_0_Node_8</title>
<ellipse fill="none" stroke="#000000" cx="230" cy="-307.6396" rx="34.7971" ry="21.4286"/>
<text text-anchor="middle" x="230" y="-302.6396" font-family="Times,serif" font-size="20.00" fill="#000000">1.0</text>
</g>
<!-- SG_0_Node_3&#45;&gt;SG_0_Node_8 -->
<g id="edge8" class="edge">
<title>SG_0_Node_3&#45;&gt;SG_0_Node_8</title>
<path fill="none" stroke="#000000" d="M187.6784,-471.9073C195.6797,-440.8511 212.0819,-377.187 221.9521,-338.8768"/>
<polygon fill="#000000" stroke="#000000" points="225.4447,-339.3489 224.5504,-328.7919 218.6661,-337.6024 225.4447,-339.3489"/>
<text text-anchor="middle" x="351" y="-415.8528" font-family="Times,serif" font-size="20.00" fill="#000000">[NA]</text>
<text text-anchor="middle" x="351" y="-393.8528" font-family="Times,serif" font-size="20.00" fill="#000000">/</text>
<text text-anchor="middle" x="351" y="-371.8528" font-family="Times,serif" font-size="20.00" fill="#000000">http://localhost:8000/echo/</text>
</g>
<!-- SG_0_Node_9 -->
<g id="node10" class="node">
<title>SG_0_Node_9</title>
<ellipse fill="none" stroke="#000000" cx="78" cy="-37.2132" rx="34.7971" ry="21.4286"/>
<text text-anchor="middle" x="78" y="-32.2132" font-family="Times,serif" font-size="20.00" fill="#000000">0.0</text>
</g>
<!-- SG_0_Node_4&#45;&gt;SG_0_Node_9 -->
<g id="edge9" class="edge">
<title>SG_0_Node_4&#45;&gt;SG_0_Node_9</title>
<path fill="none" stroke="#000000" d="M104.1194,-289.4763C99.431,-244.1961 87.1784,-125.859 81.2741,-68.8343"/>
<polygon fill="#000000" stroke="#000000" points="84.7267,-68.1951 80.2153,-58.6087 77.7639,-68.9161 84.7267,-68.1951"/>
<text text-anchor="middle" x="118.5" y="-222.4264" font-family="Times,serif" font-size="20.00" fill="#000000">300</text>
<text text-anchor="middle" x="118.5" y="-200.4264" font-family="Times,serif" font-size="20.00" fill="#000000">301</text>
<text text-anchor="middle" x="118.5" y="-178.4264" font-family="Times,serif" font-size="20.00" fill="#000000">302</text>
<text text-anchor="middle" x="118.5" y="-156.4264" font-family="Times,serif" font-size="20.00" fill="#000000">303</text>
<text text-anchor="middle" x="118.5" y="-134.4264" font-family="Times,serif" font-size="20.00" fill="#000000">307</text>
<text text-anchor="middle" x="118.5" y="-112.4264" font-family="Times,serif" font-size="20.00" fill="#000000">308</text>
</g>
<!-- SG_0_Node_10 -->
<g id="node11" class="node">
<title>SG_0_Node_10</title>
<ellipse fill="none" stroke="#000000" cx="165" cy="-37.2132" rx="34.7971" ry="21.4286"/>
<text text-anchor="middle" x="165" y="-32.2132" font-family="Times,serif" font-size="20.00" fill="#000000">1.0</text>
</g>
<!-- SG_0_Node_4&#45;&gt;SG_0_Node_10 -->
<g id="edge10" class="edge">
<title>SG_0_Node_4&#45;&gt;SG_0_Node_10</title>
<path fill="none" stroke="#000000" d="M119.2631,-289.4452C126.6126,-278.4138 135.2085,-263.7441 140,-249.4264 160.6318,-187.7758 164.7318,-111.0859 165.2655,-68.8371"/>
<polygon fill="#000000" stroke="#000000" points="168.7667,-68.6423 165.3323,-58.6196 161.7669,-68.5964 168.7667,-68.6423"/>
<text text-anchor="middle" x="183.5" y="-233.4264" font-family="Times,serif" font-size="20.00" fill="#000000">100</text>
<text text-anchor="middle" x="183.5" y="-211.4264" font-family="Times,serif" font-size="20.00" fill="#000000">101</text>
<text text-anchor="middle" x="183.5" y="-189.4264" font-family="Times,serif" font-size="20.00" fill="#000000">102</text>
<text text-anchor="middle" x="183.5" y="-167.4264" font-family="Times,serif" font-size="20.00" fill="#000000">103</text>
<text text-anchor="middle" x="183.5" y="-145.4264" font-family="Times,serif" font-size="20.00" fill="#000000">204</text>
<text text-anchor="middle" x="183.5" y="-123.4264" font-family="Times,serif" font-size="20.00" fill="#000000">205</text>
<text text-anchor="middle" x="183.5" y="-101.4264" font-family="Times,serif" font-size="20.00" fill="#000000">304</text>
</g>
<!-- SG_1_Node_0 -->
<g id="node12" class="node">
<title>SG_1_Node_0</title>
<polygon fill="none" stroke="#000000" points="1180.5,-986.132 1115.5,-986.132 1115.5,-950.132 1180.5,-950.132 1180.5,-986.132"/>
<text text-anchor="middle" x="1148" y="-963.132" font-family="Times,serif" font-size="20.00" fill="#000000">body</text>
</g>
<!-- SG_1_Node_5 -->
<g id="node13" class="node">
<title>SG_1_Node_5</title>
<ellipse fill="none" stroke="#000000" cx="1042" cy="-810.9188" rx="34.7971" ry="21.4286"/>
<text text-anchor="middle" x="1042" y="-805.9188" font-family="Times,serif" font-size="20.00" fill="#000000">0.0</text>
</g>
<!-- SG_1_Node_0&#45;&gt;SG_1_Node_5 -->
<g id="edge11" class="edge">
<title>SG_1_Node_0&#45;&gt;SG_1_Node_5</title>
<path fill="none" stroke="#000000" d="M1123.8978,-949.9394C1111.9683,-940.0346 1098.0163,-926.9895 1088,-913.132 1072.0577,-891.0759 1059.8056,-862.6137 1051.9697,-841.3271"/>
<polygon fill="#000000" stroke="#000000" points="1055.2321,-840.0551 1048.5819,-831.8074 1048.6373,-842.4021 1055.2321,-840.0551"/>
<text text-anchor="middle" x="1134" y="-897.132" font-family="Times,serif" font-size="20.00" fill="#000000">[NA]</text>
<text text-anchor="middle" x="1134" y="-875.132" font-family="Times,serif" font-size="20.00" fill="#000000">12 levels</text>
</g>
<!-- SG_1_Node_1 -->
<g id="node14" class="node">
<title>SG_1_Node_1</title>
<polygon fill="none" stroke="#000000" points="1411.5,-828.9188 1094.5,-828.9188 1094.5,-792.9188 1411.5,-792.9188 1411.5,-828.9188"/>
<text text-anchor="middle" x="1253" y="-805.9188" font-family="Times,serif" font-size="20.00" fill="#000000">Cross&#45;Origin&#45;Resource&#45;Policy</text>
</g>
<!-- SG_1_Node_0&#45;&gt;SG_1_Node_1 -->
<g id="edge12" class="edge">
<title>SG_1_Node_0&#45;&gt;SG_1_Node_1</title>
<path fill="none" stroke="#000000" d="M1160.0448,-950.0977C1178.4599,-922.5254 1213.7246,-869.7247 1235.1283,-837.6775"/>
<polygon fill="#000000" stroke="#000000" points="1238.1287,-839.4869 1240.7722,-829.2271 1232.3076,-835.599 1238.1287,-839.4869"/>
<text text-anchor="middle" x="1441.5" y="-886.132" font-family="Times,serif" font-size="20.00" fill="#000000">ecocnt_img=width=50,height=50,type=png</text>
</g>
<!-- SG_1_Node_6 -->
<g id="node15" class="node">
<title>SG_1_Node_6</title>
<ellipse fill="none" stroke="#000000" cx="1173" cy="-650.4924" rx="34.7971" ry="21.4286"/>
<text text-anchor="middle" x="1173" y="-645.4924" font-family="Times,serif" font-size="20.00" fill="#000000">0.0</text>
</g>
<!-- SG_1_Node_1&#45;&gt;SG_1_Node_6 -->
<g id="edge13" class="edge">
<title>SG_1_Node_1&#45;&gt;SG_1_Node_6</title>
<path fill="none" stroke="#000000" d="M1214.2436,-792.9111C1198.4245,-783.3724 1181.8055,-770.0031 1173,-752.7056 1161.9121,-730.9247 1162.755,-702.9944 1165.9004,-681.8362"/>
<polygon fill="#000000" stroke="#000000" points="1169.3885,-682.2048 1167.6453,-671.7544 1162.4911,-681.0109 1169.3885,-682.2048"/>
<text text-anchor="middle" x="1234" y="-725.7056" font-family="Times,serif" font-size="20.00" fill="#000000">same&#45;origin</text>
</g>
<!-- SG_1_Node_2 -->
<g id="node16" class="node">
<title>SG_1_Node_2</title>
<polygon fill="none" stroke="#000000" points="1402,-668.4924 1260,-668.4924 1260,-632.4924 1402,-632.4924 1402,-668.4924"/>
<text text-anchor="middle" x="1331" y="-645.4924" font-family="Times,serif" font-size="20.00" fill="#000000">Status&#45;Code</text>
</g>
<!-- SG_1_Node_1&#45;&gt;SG_1_Node_2 -->
<g id="edge14" class="edge">
<title>SG_1_Node_1&#45;&gt;SG_1_Node_2</title>
<path fill="none" stroke="#000000" d="M1270.2233,-792.7457C1279.7977,-781.8369 1291.2977,-767.2836 1299,-752.7056 1311.4843,-729.0769 1320.0366,-699.7639 1325.1372,-678.596"/>
<polygon fill="#000000" stroke="#000000" points="1328.5985,-679.1614 1327.4291,-668.6313 1321.7766,-677.5923 1328.5985,-679.1614"/>
<text text-anchor="middle" x="1348" y="-736.7056" font-family="Times,serif" font-size="20.00" fill="#000000">[NA]</text>
<text text-anchor="middle" x="1348" y="-714.7056" font-family="Times,serif" font-size="20.00" fill="#000000">empty</text>
</g>
<!-- SG_1_Node_3 -->
<g id="node17" class="node">
<title>SG_1_Node_3</title>
<polygon fill="none" stroke="#000000" points="1319.5,-508.066 1214.5,-508.066 1214.5,-472.066 1319.5,-472.066 1319.5,-508.066"/>
<text text-anchor="middle" x="1267" y="-485.066" font-family="Times,serif" font-size="20.00" fill="#000000">Location</text>
</g>
<!-- SG_1_Node_2&#45;&gt;SG_1_Node_3 -->
<g id="edge15" class="edge">
<title>SG_1_Node_2&#45;&gt;SG_1_Node_3</title>
<path fill="none" stroke="#000000" d="M1310.4901,-632.2926C1299.9155,-621.7006 1287.8344,-607.4655 1281,-592.2792 1270.4841,-568.9125 1267.3494,-539.741 1266.6302,-518.5501"/>
<polygon fill="#000000" stroke="#000000" points="1270.1247,-518.2054 1266.448,-508.269 1263.1258,-518.3295 1270.1247,-518.2054"/>
<text text-anchor="middle" x="1327" y="-565.2792" font-family="Times,serif" font-size="20.00" fill="#000000">13 levels</text>
</g>
<!-- SG_1_Node_7 -->
<g id="node18" class="node">
<title>SG_1_Node_7</title>
<ellipse fill="none" stroke="#000000" cx="1395" cy="-490.066" rx="34.7971" ry="21.4286"/>
<text text-anchor="middle" x="1395" y="-485.066" font-family="Times,serif" font-size="20.00" fill="#000000">1.0</text>
</g>
<!-- SG_1_Node_2&#45;&gt;SG_1_Node_7 -->
<g id="edge16" class="edge">
<title>SG_1_Node_2&#45;&gt;SG_1_Node_7</title>
<path fill="none" stroke="#000000" d="M1347.138,-632.3171C1356.0173,-621.4076 1366.5173,-606.8543 1373,-592.2792 1382.988,-569.8231 1388.5648,-542.5284 1391.6027,-521.7952"/>
<polygon fill="#000000" stroke="#000000" points="1395.1081,-521.9883 1392.9697,-511.6115 1388.1703,-521.0569 1395.1081,-521.9883"/>
<text text-anchor="middle" x="1432" y="-576.2792" font-family="Times,serif" font-size="20.00" fill="#000000">[NA]</text>
<text text-anchor="middle" x="1432" y="-554.2792" font-family="Times,serif" font-size="20.00" fill="#000000">49 levels</text>
</g>
<!-- SG_1_Node_8 -->
<g id="node19" class="node">
<title>SG_1_Node_8</title>
<ellipse fill="none" stroke="#000000" cx="1035" cy="-307.6396" rx="34.7971" ry="21.4286"/>
<text text-anchor="middle" x="1035" y="-302.6396" font-family="Times,serif" font-size="20.00" fill="#000000">0.0</text>
</g>
<!-- SG_1_Node_3&#45;&gt;SG_1_Node_8 -->
<g id="edge17" class="edge">
<title>SG_1_Node_3&#45;&gt;SG_1_Node_8</title>
<path fill="none" stroke="#000000" d="M1214.4769,-484.3335C1153.0162,-476.4168 1056.8381,-459.8475 1035,-431.8528 1014.5353,-405.6187 1018.7384,-365.8879 1025.3087,-338.4583"/>
<polygon fill="#000000" stroke="#000000" points="1028.7423,-339.1627 1027.8962,-328.6017 1021.9717,-337.3852 1028.7423,-339.1627"/>
<text text-anchor="middle" x="1172" y="-415.8528" font-family="Times,serif" font-size="20.00" fill="#000000">[NA]</text>
<text text-anchor="middle" x="1172" y="-393.8528" font-family="Times,serif" font-size="20.00" fill="#000000">/</text>
<text text-anchor="middle" x="1172" y="-371.8528" font-family="Times,serif" font-size="20.00" fill="#000000">http://localhost:8000/echo/</text>
</g>
<!-- SG_1_Node_4 -->
<g id="node20" class="node">
<title>SG_1_Node_4</title>
<polygon fill="none" stroke="#000000" points="1416,-325.6396 1274,-325.6396 1274,-289.6396 1416,-289.6396 1416,-325.6396"/>
<text text-anchor="middle" x="1345" y="-302.6396" font-family="Times,serif" font-size="20.00" fill="#000000">Status&#45;Code</text>
</g>
<!-- SG_1_Node_3&#45;&gt;SG_1_Node_4 -->
<g id="edge18" class="edge">
<title>SG_1_Node_3&#45;&gt;SG_1_Node_4</title>
<path fill="none" stroke="#000000" d="M1284.5054,-472.0373C1294.1739,-461.1767 1305.6739,-446.6234 1313,-431.8528 1328.3932,-400.8176 1336.895,-361.6324 1341.1965,-335.663"/>
<polygon fill="#000000" stroke="#000000" points="1344.6617,-336.157 1342.7423,-325.7375 1337.7451,-335.0797 1344.6617,-336.157"/>
<text text-anchor="middle" x="1367" y="-393.8528" font-family="Times,serif" font-size="20.00" fill="#000000">empty</text>
</g>
<!-- SG_1_Node_9 -->
<g id="node21" class="node">
<title>SG_1_Node_9</title>
<ellipse fill="none" stroke="#000000" cx="1303" cy="-37.2132" rx="34.7971" ry="21.4286"/>
<text text-anchor="middle" x="1303" y="-32.2132" font-family="Times,serif" font-size="20.00" fill="#000000">0.0</text>
</g>
<!-- SG_1_Node_4&#45;&gt;SG_1_Node_9 -->
<g id="edge19" class="edge">
<title>SG_1_Node_4&#45;&gt;SG_1_Node_9</title>
<path fill="none" stroke="#000000" d="M1336.6713,-289.4182C1331.8802,-278.1349 1326.1942,-263.2146 1323,-249.4264 1308.4024,-186.4145 1304.4149,-110.5219 1303.354,-68.7106"/>
<polygon fill="#000000" stroke="#000000" points="1306.8508,-68.5206 1303.1384,-58.5975 1299.8524,-68.6698 1306.8508,-68.5206"/>
<text text-anchor="middle" x="1342.5" y="-233.4264" font-family="Times,serif" font-size="20.00" fill="#000000">100</text>
<text text-anchor="middle" x="1342.5" y="-211.4264" font-family="Times,serif" font-size="20.00" fill="#000000">101</text>
<text text-anchor="middle" x="1342.5" y="-189.4264" font-family="Times,serif" font-size="20.00" fill="#000000">102</text>
<text text-anchor="middle" x="1342.5" y="-167.4264" font-family="Times,serif" font-size="20.00" fill="#000000">103</text>
<text text-anchor="middle" x="1342.5" y="-145.4264" font-family="Times,serif" font-size="20.00" fill="#000000">204</text>
<text text-anchor="middle" x="1342.5" y="-123.4264" font-family="Times,serif" font-size="20.00" fill="#000000">205</text>
<text text-anchor="middle" x="1342.5" y="-101.4264" font-family="Times,serif" font-size="20.00" fill="#000000">304</text>
</g>
<!-- SG_1_Node_10 -->
<g id="node22" class="node">
<title>SG_1_Node_10</title>
<ellipse fill="none" stroke="#000000" cx="1390" cy="-37.2132" rx="34.7971" ry="21.4286"/>
<text text-anchor="middle" x="1390" y="-32.2132" font-family="Times,serif" font-size="20.00" fill="#000000">1.0</text>
</g>
<!-- SG_1_Node_4&#45;&gt;SG_1_Node_10 -->
<g id="edge20" class="edge">
<title>SG_1_Node_4&#45;&gt;SG_1_Node_10</title>
<path fill="none" stroke="#000000" d="M1351.085,-289.4688C1354.7045,-278.0777 1359.1347,-263.0256 1362,-249.4264 1375.3913,-185.8684 1383.549,-110.1754 1387.3772,-68.5457"/>
<polygon fill="#000000" stroke="#000000" points="1390.8727,-68.7515 1388.2791,-58.4791 1383.9006,-68.1268 1390.8727,-68.7515"/>
<text text-anchor="middle" x="1403.5" y="-222.4264" font-family="Times,serif" font-size="20.00" fill="#000000">300</text>
<text text-anchor="middle" x="1403.5" y="-200.4264" font-family="Times,serif" font-size="20.00" fill="#000000">301</text>
<text text-anchor="middle" x="1403.5" y="-178.4264" font-family="Times,serif" font-size="20.00" fill="#000000">302</text>
<text text-anchor="middle" x="1403.5" y="-156.4264" font-family="Times,serif" font-size="20.00" fill="#000000">303</text>
<text text-anchor="middle" x="1403.5" y="-134.4264" font-family="Times,serif" font-size="20.00" fill="#000000">307</text>
<text text-anchor="middle" x="1403.5" y="-112.4264" font-family="Times,serif" font-size="20.00" fill="#000000">308</text>
</g>
</g>
</svg>
