<?xml version="1.0" encoding="UTF-8" standalone="no"?>
<!DOCTYPE svg PUBLIC "-//W3C//DTD SVG 1.1//EN"
 "http://www.w3.org/Graphics/SVG/1.1/DTD/svg11.dtd">
<!-- Generated by graphviz version 2.40.1 (20161225.0304)
 -->
<!-- Title: G Pages: 1 -->
<svg width="9698pt" height="1333pt"
 viewBox="0.00 0.00 9698.00 1332.56" xmlns="http://www.w3.org/2000/svg" xmlns:xlink="http://www.w3.org/1999/xlink">
<g id="graph0" class="graph" transform="scale(1 1) rotate(0) translate(4 1328.5584)">
<title>G</title>
<polygon fill="#ffffff" stroke="transparent" points="-4,4 -4,-1328.5584 9694,-1328.5584 9694,4 -4,4"/>
<g id="clust1" class="cluster">
<title>cluster_0</title>
<polygon fill="none" stroke="#000000" points="8,-8 8,-1316.5584 4761,-1316.5584 4761,-8 8,-8"/>
<text text-anchor="middle" x="2384.5" y="-1280.5584" font-family="Times,serif" font-size="40.00" fill="#000000">Tree 0, Class {&#39;size&#39;: {&#39;transferSize&#39;: 0, &#39;decodedBodySize&#39;: 0, &#39;encodedBodySize&#39;: 0}, &#39;timing&#39;: {&#39;duration&#39;: &gt;0, &#39;fetchStart&#39;: &gt;0, &#39;redirectEnd&#39;: 0, &#39;redirectStart&#39;: 0, &#39;secureConnectionStart&#39;: 0}, &#39;initiatorType&#39;: &#39;link&#39;, &#39;nextHopProtocol&#39;: &#39;&#39;}</text>
</g>
<g id="clust9" class="cluster">
<title>cluster_1</title>
<polygon fill="none" stroke="#000000" points="4769,-8 4769,-1316.5584 9682,-1316.5584 9682,-8 4769,-8"/>
<text text-anchor="middle" x="7225.5" y="-1280.5584" font-family="Times,serif" font-size="40.00" fill="#000000">Tree 0, Class {&#39;size&#39;: {&#39;transferSize&#39;: 0, &#39;decodedBodySize&#39;: 0, &#39;encodedBodySize&#39;: 0}, &#39;timing&#39;: {&#39;duration&#39;: &gt;0, &#39;fetchStart&#39;: &gt;0, &#39;redirectEnd&#39;: 0, &#39;redirectStart&#39;: 0, &#39;secureConnectionStart&#39;: 0}, &#39;initiatorType&#39;: &#39;link&#39;, &#39;nextHopProtocol&#39;: &#39;http/1.1&#39;}</text>
</g>
<!-- SG_0_Node_0 -->
<g id="node1" class="node">
<title>SG_0_Node_0</title>
<polygon fill="none" stroke="#000000" points="369.5,-1256.5584 52.5,-1256.5584 52.5,-1220.5584 369.5,-1220.5584 369.5,-1256.5584"/>
<text text-anchor="middle" x="211" y="-1233.5584" font-family="Times,serif" font-size="20.00" fill="#000000">Cross&#45;Origin&#45;Resource&#45;Policy</text>
</g>
<!-- SG_0_Node_1 -->
<g id="node2" class="node">
<title>SG_0_Node_1</title>
<polygon fill="none" stroke="#000000" points="266,-1099.3452 124,-1099.3452 124,-1063.3452 266,-1063.3452 266,-1099.3452"/>
<text text-anchor="middle" x="195" y="-1076.3452" font-family="Times,serif" font-size="20.00" fill="#000000">Status&#45;Code</text>
</g>
<!-- SG_0_Node_0&#45;&gt;SG_0_Node_1 -->
<g id="edge1" class="edge">
<title>SG_0_Node_0&#45;&gt;SG_0_Node_1</title>
<path fill="none" stroke="#000000" d="M209.1646,-1220.5241C206.4065,-1193.4231 201.1678,-1141.9489 197.8924,-1109.7653"/>
<polygon fill="#000000" stroke="#000000" points="201.3579,-1109.2477 196.8633,-1099.6535 194.3939,-1109.9565 201.3579,-1109.2477"/>
<text text-anchor="middle" x="237" y="-1167.5584" font-family="Times,serif" font-size="20.00" fill="#000000">[NA]</text>
<text text-anchor="middle" x="237" y="-1145.5584" font-family="Times,serif" font-size="20.00" fill="#000000">empty</text>
</g>
<!-- SG_0_Node_6 -->
<g id="node3" class="node">
<title>SG_0_Node_6</title>
<ellipse fill="none" stroke="#000000" cx="319" cy="-1081.3452" rx="34.7971" ry="21.4286"/>
<text text-anchor="middle" x="319" y="-1076.3452" font-family="Times,serif" font-size="20.00" fill="#000000">1.0</text>
</g>
<!-- SG_0_Node_0&#45;&gt;SG_0_Node_6 -->
<g id="edge2" class="edge">
<title>SG_0_Node_0&#45;&gt;SG_0_Node_6</title>
<path fill="none" stroke="#000000" d="M235.9359,-1220.507C248.2712,-1210.6395 262.6862,-1197.5852 273,-1183.5584 289.1216,-1161.633 301.3571,-1133.1587 309.141,-1111.8342"/>
<polygon fill="#000000" stroke="#000000" points="312.4799,-1112.8899 312.5021,-1102.2951 305.8778,-1110.5636 312.4799,-1112.8899"/>
<text text-anchor="middle" x="358" y="-1156.5584" font-family="Times,serif" font-size="20.00" fill="#000000">same&#45;origin</text>
</g>
<!-- SG_0_Node_2 -->
<g id="node4" class="node">
<title>SG_0_Node_2</title>
<polygon fill="none" stroke="#000000" points="280,-872.9188 18,-872.9188 18,-836.9188 280,-836.9188 280,-872.9188"/>
<text text-anchor="middle" x="149" y="-849.9188" font-family="Times,serif" font-size="20.00" fill="#000000">X&#45;Content&#45;Type&#45;Options</text>
</g>
<!-- SG_0_Node_1&#45;&gt;SG_0_Node_2 -->
<g id="edge3" class="edge">
<title>SG_0_Node_1&#45;&gt;SG_0_Node_2</title>
<path fill="none" stroke="#000000" d="M191.3134,-1063.1986C183.3059,-1023.7831 164.2761,-930.1125 154.7047,-882.999"/>
<polygon fill="#000000" stroke="#000000" points="158.1251,-882.2549 152.7042,-873.1519 151.2652,-883.6486 158.1251,-882.2549"/>
<text text-anchor="middle" x="229" y="-974.132" font-family="Times,serif" font-size="20.00" fill="#000000">[NA]</text>
<text text-anchor="middle" x="229" y="-952.132" font-family="Times,serif" font-size="20.00" fill="#000000">57 levels</text>
</g>
<!-- SG_0_Node_7 -->
<g id="node5" class="node">
<title>SG_0_Node_7</title>
<ellipse fill="none" stroke="#000000" cx="333" cy="-854.9188" rx="34.7971" ry="21.4286"/>
<text text-anchor="middle" x="333" y="-849.9188" font-family="Times,serif" font-size="20.00" fill="#000000">1.0</text>
</g>
<!-- SG_0_Node_1&#45;&gt;SG_0_Node_7 -->
<g id="edge4" class="edge">
<title>SG_0_Node_1&#45;&gt;SG_0_Node_7</title>
<path fill="none" stroke="#000000" d="M231.4698,-1063.2479C248.0331,-1053.4043 266.6409,-1039.8114 279,-1023.132 309.6634,-981.7496 323.3341,-922.2793 329.1113,-886.2564"/>
<polygon fill="#000000" stroke="#000000" points="332.5805,-886.7222 330.6001,-876.3141 325.6577,-885.6855 332.5805,-886.7222"/>
<text text-anchor="middle" x="342.5" y="-1007.132" font-family="Times,serif" font-size="20.00" fill="#000000">100</text>
<text text-anchor="middle" x="342.5" y="-985.132" font-family="Times,serif" font-size="20.00" fill="#000000">101</text>
<text text-anchor="middle" x="342.5" y="-963.132" font-family="Times,serif" font-size="20.00" fill="#000000">102</text>
<text text-anchor="middle" x="342.5" y="-941.132" font-family="Times,serif" font-size="20.00" fill="#000000">103</text>
<text text-anchor="middle" x="342.5" y="-919.132" font-family="Times,serif" font-size="20.00" fill="#000000">407</text>
</g>
<!-- SG_0_Node_8 -->
<g id="node6" class="node">
<title>SG_0_Node_8</title>
<ellipse fill="none" stroke="#000000" cx="81" cy="-694.4924" rx="34.7971" ry="21.4286"/>
<text text-anchor="middle" x="81" y="-689.4924" font-family="Times,serif" font-size="20.00" fill="#000000">0.0</text>
</g>
<!-- SG_0_Node_2&#45;&gt;SG_0_Node_8 -->
<g id="edge5" class="edge">
<title>SG_0_Node_2&#45;&gt;SG_0_Node_8</title>
<path fill="none" stroke="#000000" d="M131.0425,-836.7438C121.3488,-825.9461 109.9733,-811.5037 103,-796.7056 92.4092,-774.2308 86.8543,-746.5694 83.978,-725.6926"/>
<polygon fill="#000000" stroke="#000000" points="87.4487,-725.2398 82.7381,-715.7498 80.5025,-726.1061 87.4487,-725.2398"/>
<text text-anchor="middle" x="135" y="-780.7056" font-family="Times,serif" font-size="20.00" fill="#000000">[NA]</text>
<text text-anchor="middle" x="135" y="-758.7056" font-family="Times,serif" font-size="20.00" fill="#000000">empty</text>
</g>
<!-- SG_0_Node_3 -->
<g id="node7" class="node">
<title>SG_0_Node_3</title>
<polygon fill="none" stroke="#000000" points="288.5,-712.4924 133.5,-712.4924 133.5,-676.4924 288.5,-676.4924 288.5,-712.4924"/>
<text text-anchor="middle" x="211" y="-689.4924" font-family="Times,serif" font-size="20.00" fill="#000000">Content&#45;Type</text>
</g>
<!-- SG_0_Node_2&#45;&gt;SG_0_Node_3 -->
<g id="edge6" class="edge">
<title>SG_0_Node_2&#45;&gt;SG_0_Node_3</title>
<path fill="none" stroke="#000000" d="M155.9917,-836.8277C166.7829,-808.9051 187.5751,-755.1049 200.2767,-722.2393"/>
<polygon fill="#000000" stroke="#000000" points="203.5985,-723.3529 203.9388,-712.7636 197.0692,-720.8295 203.5985,-723.3529"/>
<text text-anchor="middle" x="223" y="-769.7056" font-family="Times,serif" font-size="20.00" fill="#000000">nosniff</text>
</g>
<!-- SG_0_Node_9 -->
<g id="node8" class="node">
<title>SG_0_Node_9</title>
<ellipse fill="none" stroke="#000000" cx="131" cy="-446.066" rx="34.7971" ry="21.4286"/>
<text text-anchor="middle" x="131" y="-441.066" font-family="Times,serif" font-size="20.00" fill="#000000">0.0</text>
</g>
<!-- SG_0_Node_3&#45;&gt;SG_0_Node_9 -->
<g id="edge7" class="edge">
<title>SG_0_Node_3&#45;&gt;SG_0_Node_9</title>
<path fill="none" stroke="#000000" d="M181.4705,-676.3132C167.9133,-666.2886 153.0836,-652.5648 145,-636.2792 119.647,-585.2021 122.0685,-516.768 126.3696,-477.4426"/>
<polygon fill="#000000" stroke="#000000" points="129.8587,-477.7428 127.5801,-467.3959 122.909,-476.9054 129.8587,-477.7428"/>
<text text-anchor="middle" x="222" y="-587.2792" font-family="Times,serif" font-size="20.00" fill="#000000">application/pdf</text>
<text text-anchor="middle" x="222" y="-565.2792" font-family="Times,serif" font-size="20.00" fill="#000000">text/css</text>
<text text-anchor="middle" x="222" y="-543.2792" font-family="Times,serif" font-size="20.00" fill="#000000">text/html</text>
</g>
<!-- SG_0_Node_4 -->
<g id="node9" class="node">
<title>SG_0_Node_4</title>
<polygon fill="none" stroke="#000000" points="392,-464.066 250,-464.066 250,-428.066 392,-428.066 392,-464.066"/>
<text text-anchor="middle" x="321" y="-441.066" font-family="Times,serif" font-size="20.00" fill="#000000">Status&#45;Code</text>
</g>
<!-- SG_0_Node_3&#45;&gt;SG_0_Node_4 -->
<g id="edge8" class="edge">
<title>SG_0_Node_3&#45;&gt;SG_0_Node_4</title>
<path fill="none" stroke="#000000" d="M253.4727,-676.297C270.4015,-666.851 288.359,-653.6056 299,-636.2792 329.996,-585.8095 328.504,-513.4583 324.7315,-474.1281"/>
<polygon fill="#000000" stroke="#000000" points="328.2114,-473.7525 323.6596,-464.1853 321.2517,-474.5028 328.2114,-473.7525"/>
<text text-anchor="middle" x="437" y="-620.2792" font-family="Times,serif" font-size="20.00" fill="#000000">[NA]</text>
<text text-anchor="middle" x="437" y="-598.2792" font-family="Times,serif" font-size="20.00" fill="#000000">application/javascript</text>
<text text-anchor="middle" x="437" y="-576.2792" font-family="Times,serif" font-size="20.00" fill="#000000">audio/wav</text>
<text text-anchor="middle" x="437" y="-554.2792" font-family="Times,serif" font-size="20.00" fill="#000000">empty</text>
<text text-anchor="middle" x="437" y="-532.2792" font-family="Times,serif" font-size="20.00" fill="#000000">image/png</text>
<text text-anchor="middle" x="437" y="-510.2792" font-family="Times,serif" font-size="20.00" fill="#000000">video/mp4</text>
</g>
<!-- SG_0_Node_5 -->
<g id="node10" class="node">
<title>SG_0_Node_5</title>
<polygon fill="none" stroke="#000000" points="321.5,-237.6396 216.5,-237.6396 216.5,-201.6396 321.5,-201.6396 321.5,-237.6396"/>
<text text-anchor="middle" x="269" y="-214.6396" font-family="Times,serif" font-size="20.00" fill="#000000">Location</text>
</g>
<!-- SG_0_Node_4&#45;&gt;SG_0_Node_5 -->
<g id="edge9" class="edge">
<title>SG_0_Node_4&#45;&gt;SG_0_Node_5</title>
<path fill="none" stroke="#000000" d="M315.7589,-428.0426C312.4967,-416.5784 308.3072,-401.3949 305,-387.8528 293.0443,-338.8979 281.2089,-281.3972 274.5295,-247.8852"/>
<polygon fill="#000000" stroke="#000000" points="277.9257,-247.0176 272.5484,-237.8888 271.0593,-248.3784 277.9257,-247.0176"/>
<text text-anchor="middle" x="324.5" y="-371.8528" font-family="Times,serif" font-size="20.00" fill="#000000">301</text>
<text text-anchor="middle" x="324.5" y="-349.8528" font-family="Times,serif" font-size="20.00" fill="#000000">302</text>
<text text-anchor="middle" x="324.5" y="-327.8528" font-family="Times,serif" font-size="20.00" fill="#000000">303</text>
<text text-anchor="middle" x="324.5" y="-305.8528" font-family="Times,serif" font-size="20.00" fill="#000000">307</text>
<text text-anchor="middle" x="324.5" y="-283.8528" font-family="Times,serif" font-size="20.00" fill="#000000">308</text>
</g>
<!-- SG_0_Node_10 -->
<g id="node11" class="node">
<title>SG_0_Node_10</title>
<ellipse fill="none" stroke="#000000" cx="374" cy="-219.6396" rx="34.7971" ry="21.4286"/>
<text text-anchor="middle" x="374" y="-214.6396" font-family="Times,serif" font-size="20.00" fill="#000000">1.0</text>
</g>
<!-- SG_0_Node_4&#45;&gt;SG_0_Node_10 -->
<g id="edge10" class="edge">
<title>SG_0_Node_4&#45;&gt;SG_0_Node_10</title>
<path fill="none" stroke="#000000" d="M329.2061,-428.0363C334.0932,-416.6983 340.0858,-401.6525 344,-387.8528 357.2572,-341.1135 365.8302,-285.3311 370.2865,-251.2055"/>
<polygon fill="#000000" stroke="#000000" points="373.8042,-251.2865 371.5895,-240.9257 366.8597,-250.4062 373.8042,-251.2865"/>
<text text-anchor="middle" x="412" y="-338.8528" font-family="Times,serif" font-size="20.00" fill="#000000">[NA]</text>
<text text-anchor="middle" x="412" y="-316.8528" font-family="Times,serif" font-size="20.00" fill="#000000">52 levels</text>
</g>
<!-- SG_0_Node_11 -->
<g id="node12" class="node">
<title>SG_0_Node_11</title>
<ellipse fill="none" stroke="#000000" cx="141" cy="-37.2132" rx="34.7971" ry="21.4286"/>
<text text-anchor="middle" x="141" y="-32.2132" font-family="Times,serif" font-size="20.00" fill="#000000">0.0</text>
</g>
<!-- SG_0_Node_5&#45;&gt;SG_0_Node_11 -->
<g id="edge11" class="edge">
<title>SG_0_Node_5&#45;&gt;SG_0_Node_11</title>
<path fill="none" stroke="#000000" d="M216.289,-205.1213C193.8143,-196.2004 169.4817,-182.3484 155,-161.4264 136.2458,-134.3317 134.8139,-95.6789 136.7532,-68.7114"/>
<polygon fill="#000000" stroke="#000000" points="140.2486,-68.9207 137.6711,-58.6442 133.2775,-68.2851 140.2486,-68.9207"/>
<text text-anchor="middle" x="292" y="-145.4264" font-family="Times,serif" font-size="20.00" fill="#000000">[NA]</text>
<text text-anchor="middle" x="292" y="-123.4264" font-family="Times,serif" font-size="20.00" fill="#000000">/</text>
<text text-anchor="middle" x="292" y="-101.4264" font-family="Times,serif" font-size="20.00" fill="#000000">http://localhost:8000/echo/</text>
</g>
<!-- SG_0_Node_12 -->
<g id="node13" class="node">
<title>SG_0_Node_12</title>
<ellipse fill="none" stroke="#000000" cx="451" cy="-37.2132" rx="34.7971" ry="21.4286"/>
<text text-anchor="middle" x="451" y="-32.2132" font-family="Times,serif" font-size="20.00" fill="#000000">1.0</text>
</g>
<!-- SG_0_Node_5&#45;&gt;SG_0_Node_12 -->
<g id="edge12" class="edge">
<title>SG_0_Node_5&#45;&gt;SG_0_Node_12</title>
<path fill="none" stroke="#000000" d="M320.5647,-201.5611C366.6155,-185.3124 427.1227,-163.6616 429,-161.4264 450.5111,-135.8135 454.1859,-96.5516 453.65,-69.0425"/>
<polygon fill="#000000" stroke="#000000" points="457.1363,-68.623 453.2459,-58.7683 450.1417,-68.8981 457.1363,-68.623"/>
<text text-anchor="middle" x="484" y="-123.4264" font-family="Times,serif" font-size="20.00" fill="#000000">empty</text>
</g>
<!-- SG_1_Node_0 -->
<g id="node14" class="node">
<title>SG_1_Node_0</title>
<polygon fill="none" stroke="#000000" points="5111.5,-1256.5584 4794.5,-1256.5584 4794.5,-1220.5584 5111.5,-1220.5584 5111.5,-1256.5584"/>
<text text-anchor="middle" x="4953" y="-1233.5584" font-family="Times,serif" font-size="20.00" fill="#000000">Cross&#45;Origin&#45;Resource&#45;Policy</text>
</g>
<!-- SG_1_Node_6 -->
<g id="node15" class="node">
<title>SG_1_Node_6</title>
<ellipse fill="none" stroke="#000000" cx="4882" cy="-1081.3452" rx="34.7971" ry="21.4286"/>
<text text-anchor="middle" x="4882" y="-1076.3452" font-family="Times,serif" font-size="20.00" fill="#000000">0.0</text>
</g>
<!-- SG_1_Node_0&#45;&gt;SG_1_Node_6 -->
<g id="edge13" class="edge">
<title>SG_1_Node_0&#45;&gt;SG_1_Node_6</title>
<path fill="none" stroke="#000000" d="M4927.5695,-1220.4564C4916.0285,-1210.8439 4903.3444,-1198.028 4896,-1183.5584 4884.904,-1161.6975 4881.6712,-1133.9936 4881.0652,-1112.9442"/>
<polygon fill="#000000" stroke="#000000" points="4884.5646,-1112.8673 4880.9577,-1102.9054 4877.565,-1112.9423 4884.5646,-1112.8673"/>
<text text-anchor="middle" x="4957" y="-1156.5584" font-family="Times,serif" font-size="20.00" fill="#000000">same&#45;origin</text>
</g>
<!-- SG_1_Node_1 -->
<g id="node16" class="node">
<title>SG_1_Node_1</title>
<polygon fill="none" stroke="#000000" points="5111,-1099.3452 4969,-1099.3452 4969,-1063.3452 5111,-1063.3452 5111,-1099.3452"/>
<text text-anchor="middle" x="5040" y="-1076.3452" font-family="Times,serif" font-size="20.00" fill="#000000">Status&#45;Code</text>
</g>
<!-- SG_1_Node_0&#45;&gt;SG_1_Node_1 -->
<g id="edge14" class="edge">
<title>SG_1_Node_0&#45;&gt;SG_1_Node_1</title>
<path fill="none" stroke="#000000" d="M4982.1433,-1220.3964C4995.007,-1210.9351 5009.1798,-1198.2637 5018,-1183.5584 5031.4984,-1161.0535 5036.7671,-1131.3682 5038.7964,-1109.7903"/>
<polygon fill="#000000" stroke="#000000" points="5042.3012,-1109.8587 5039.5715,-1099.6216 5035.3215,-1109.3266 5042.3012,-1109.8587"/>
<text text-anchor="middle" x="5066" y="-1167.5584" font-family="Times,serif" font-size="20.00" fill="#000000">[NA]</text>
<text text-anchor="middle" x="5066" y="-1145.5584" font-family="Times,serif" font-size="20.00" fill="#000000">empty</text>
</g>
<!-- SG_1_Node_7 -->
<g id="node17" class="node">
<title>SG_1_Node_7</title>
<ellipse fill="none" stroke="#000000" cx="4948" cy="-854.9188" rx="34.7971" ry="21.4286"/>
<text text-anchor="middle" x="4948" y="-849.9188" font-family="Times,serif" font-size="20.00" fill="#000000">0.0</text>
</g>
<!-- SG_1_Node_1&#45;&gt;SG_1_Node_7 -->
<g id="edge15" class="edge">
<title>SG_1_Node_1&#45;&gt;SG_1_Node_7</title>
<path fill="none" stroke="#000000" d="M5032.6268,-1063.1986C5016.8629,-1024.4013 4979.7406,-933.0373 4960.3238,-885.2497"/>
<polygon fill="#000000" stroke="#000000" points="4963.4702,-883.6953 4956.4633,-875.7484 4956.9851,-886.3303 4963.4702,-883.6953"/>
<text text-anchor="middle" x="5035.5" y="-1007.132" font-family="Times,serif" font-size="20.00" fill="#000000">100</text>
<text text-anchor="middle" x="5035.5" y="-985.132" font-family="Times,serif" font-size="20.00" fill="#000000">101</text>
<text text-anchor="middle" x="5035.5" y="-963.132" font-family="Times,serif" font-size="20.00" fill="#000000">102</text>
<text text-anchor="middle" x="5035.5" y="-941.132" font-family="Times,serif" font-size="20.00" fill="#000000">103</text>
<text text-anchor="middle" x="5035.5" y="-919.132" font-family="Times,serif" font-size="20.00" fill="#000000">407</text>
</g>
<!-- SG_1_Node_2 -->
<g id="node18" class="node">
<title>SG_1_Node_2</title>
<polygon fill="none" stroke="#000000" points="5263,-872.9188 5001,-872.9188 5001,-836.9188 5263,-836.9188 5263,-872.9188"/>
<text text-anchor="middle" x="5132" y="-849.9188" font-family="Times,serif" font-size="20.00" fill="#000000">X&#45;Content&#45;Type&#45;Options</text>
</g>
<!-- SG_1_Node_1&#45;&gt;SG_1_Node_2 -->
<g id="edge16" class="edge">
<title>SG_1_Node_1&#45;&gt;SG_1_Node_2</title>
<path fill="none" stroke="#000000" d="M5047.3732,-1063.1986C5063.4219,-1023.7003 5101.6078,-929.7187 5120.7111,-882.7027"/>
<polygon fill="#000000" stroke="#000000" points="5124.0699,-883.7339 5124.5917,-873.1519 5117.5848,-881.0989 5124.0699,-883.7339"/>
<text text-anchor="middle" x="5154" y="-974.132" font-family="Times,serif" font-size="20.00" fill="#000000">[NA]</text>
<text text-anchor="middle" x="5154" y="-952.132" font-family="Times,serif" font-size="20.00" fill="#000000">57 levels</text>
</g>
<!-- SG_1_Node_3 -->
<g id="node19" class="node">
<title>SG_1_Node_3</title>
<polygon fill="none" stroke="#000000" points="5144.5,-712.4924 4989.5,-712.4924 4989.5,-676.4924 5144.5,-676.4924 5144.5,-712.4924"/>
<text text-anchor="middle" x="5067" y="-689.4924" font-family="Times,serif" font-size="20.00" fill="#000000">Content&#45;Type</text>
</g>
<!-- SG_1_Node_2&#45;&gt;SG_1_Node_3 -->
<g id="edge17" class="edge">
<title>SG_1_Node_2&#45;&gt;SG_1_Node_3</title>
<path fill="none" stroke="#000000" d="M5120.4146,-836.8204C5113.5594,-825.5821 5105.0602,-810.6658 5099,-796.7056 5088.4217,-772.3377 5079.6843,-743.335 5074.0275,-722.4593"/>
<polygon fill="#000000" stroke="#000000" points="5077.3702,-721.4091 5071.4301,-712.636 5070.6027,-723.1985 5077.3702,-721.4091"/>
<text text-anchor="middle" x="5134" y="-769.7056" font-family="Times,serif" font-size="20.00" fill="#000000">nosniff</text>
</g>
<!-- SG_1_Node_8 -->
<g id="node20" class="node">
<title>SG_1_Node_8</title>
<ellipse fill="none" stroke="#000000" cx="5197" cy="-694.4924" rx="34.7971" ry="21.4286"/>
<text text-anchor="middle" x="5197" y="-689.4924" font-family="Times,serif" font-size="20.00" fill="#000000">1.0</text>
</g>
<!-- SG_1_Node_2&#45;&gt;SG_1_Node_8 -->
<g id="edge18" class="edge">
<title>SG_1_Node_2&#45;&gt;SG_1_Node_8</title>
<path fill="none" stroke="#000000" d="M5145.4864,-836.8396C5153.2551,-825.7299 5162.6979,-810.9406 5169,-796.7056 5179.1311,-773.8216 5186.401,-746.3997 5190.99,-725.7226"/>
<polygon fill="#000000" stroke="#000000" points="5194.4276,-726.384 5193.0873,-715.8743 5187.5811,-724.926 5194.4276,-726.384"/>
<text text-anchor="middle" x="5216" y="-780.7056" font-family="Times,serif" font-size="20.00" fill="#000000">[NA]</text>
<text text-anchor="middle" x="5216" y="-758.7056" font-family="Times,serif" font-size="20.00" fill="#000000">empty</text>
</g>
<!-- SG_1_Node_4 -->
<g id="node21" class="node">
<title>SG_1_Node_4</title>
<polygon fill="none" stroke="#000000" points="4975,-464.066 4833,-464.066 4833,-428.066 4975,-428.066 4975,-464.066"/>
<text text-anchor="middle" x="4904" y="-441.066" font-family="Times,serif" font-size="20.00" fill="#000000">Status&#45;Code</text>
</g>
<!-- SG_1_Node_3&#45;&gt;SG_1_Node_4 -->
<g id="edge19" class="edge">
<title>SG_1_Node_3&#45;&gt;SG_1_Node_4</title>
<path fill="none" stroke="#000000" d="M4991.1341,-676.4225C4953.9344,-665.8698 4914.8187,-651.6308 4904,-636.2792 4869.7881,-587.7327 4883.6452,-513.5195 4894.9172,-473.6615"/>
<polygon fill="#000000" stroke="#000000" points="4898.2729,-474.6562 4897.7687,-464.0733 4891.5633,-472.6607 4898.2729,-474.6562"/>
<text text-anchor="middle" x="5015" y="-620.2792" font-family="Times,serif" font-size="20.00" fill="#000000">[NA]</text>
<text text-anchor="middle" x="5015" y="-598.2792" font-family="Times,serif" font-size="20.00" fill="#000000">application/javascript</text>
<text text-anchor="middle" x="5015" y="-576.2792" font-family="Times,serif" font-size="20.00" fill="#000000">audio/wav</text>
<text text-anchor="middle" x="5015" y="-554.2792" font-family="Times,serif" font-size="20.00" fill="#000000">empty</text>
<text text-anchor="middle" x="5015" y="-532.2792" font-family="Times,serif" font-size="20.00" fill="#000000">image/png</text>
<text text-anchor="middle" x="5015" y="-510.2792" font-family="Times,serif" font-size="20.00" fill="#000000">video/mp4</text>
</g>
<!-- SG_1_Node_9 -->
<g id="node22" class="node">
<title>SG_1_Node_9</title>
<ellipse fill="none" stroke="#000000" cx="5162" cy="-446.066" rx="34.7971" ry="21.4286"/>
<text text-anchor="middle" x="5162" y="-441.066" font-family="Times,serif" font-size="20.00" fill="#000000">1.0</text>
</g>
<!-- SG_1_Node_3&#45;&gt;SG_1_Node_9 -->
<g id="edge20" class="edge">
<title>SG_1_Node_3&#45;&gt;SG_1_Node_9</title>
<path fill="none" stroke="#000000" d="M5093.6092,-676.4763C5106.6441,-666.23 5121.3572,-652.26 5130,-636.2792 5157.4335,-585.5538 5162.4388,-516.9982 5162.7764,-477.5556"/>
<polygon fill="#000000" stroke="#000000" points="5166.2764,-477.4732 5162.7653,-467.4772 5159.2764,-477.4811 5166.2764,-477.4732"/>
<text text-anchor="middle" x="5238" y="-587.2792" font-family="Times,serif" font-size="20.00" fill="#000000">application/pdf</text>
<text text-anchor="middle" x="5238" y="-565.2792" font-family="Times,serif" font-size="20.00" fill="#000000">text/css</text>
<text text-anchor="middle" x="5238" y="-543.2792" font-family="Times,serif" font-size="20.00" fill="#000000">text/html</text>
</g>
<!-- SG_1_Node_10 -->
<g id="node23" class="node">
<title>SG_1_Node_10</title>
<ellipse fill="none" stroke="#000000" cx="4832" cy="-219.6396" rx="34.7971" ry="21.4286"/>
<text text-anchor="middle" x="4832" y="-214.6396" font-family="Times,serif" font-size="20.00" fill="#000000">0.0</text>
</g>
<!-- SG_1_Node_4&#45;&gt;SG_1_Node_10 -->
<g id="edge21" class="edge">
<title>SG_1_Node_4&#45;&gt;SG_1_Node_10</title>
<path fill="none" stroke="#000000" d="M4870.1605,-427.9757C4855.5703,-418.2097 4840.0339,-404.6798 4832,-387.8528 4811.0755,-344.0269 4817.336,-286.1574 4824.2925,-250.9831"/>
<polygon fill="#000000" stroke="#000000" points="4827.7936,-251.3448 4826.4445,-240.8362 4820.9459,-249.8925 4827.7936,-251.3448"/>
<text text-anchor="middle" x="4878" y="-338.8528" font-family="Times,serif" font-size="20.00" fill="#000000">[NA]</text>
<text text-anchor="middle" x="4878" y="-316.8528" font-family="Times,serif" font-size="20.00" fill="#000000">52 levels</text>
</g>
<!-- SG_1_Node_5 -->
<g id="node24" class="node">
<title>SG_1_Node_5</title>
<polygon fill="none" stroke="#000000" points="5012.5,-237.6396 4907.5,-237.6396 4907.5,-201.6396 5012.5,-201.6396 5012.5,-237.6396"/>
<text text-anchor="middle" x="4960" y="-214.6396" font-family="Times,serif" font-size="20.00" fill="#000000">Location</text>
</g>
<!-- SG_1_Node_4&#45;&gt;SG_1_Node_5 -->
<g id="edge22" class="edge">
<title>SG_1_Node_4&#45;&gt;SG_1_Node_5</title>
<path fill="none" stroke="#000000" d="M4912.5381,-428.0572C4917.6283,-416.727 4923.8804,-401.6821 4928,-387.8528 4942.3589,-339.6504 4951.7154,-281.6887 4956.4099,-247.9216"/>
<polygon fill="#000000" stroke="#000000" points="4959.8999,-248.2301 4957.7707,-237.8514 4952.963,-247.2926 4959.8999,-248.2301"/>
<text text-anchor="middle" x="4970.5" y="-371.8528" font-family="Times,serif" font-size="20.00" fill="#000000">301</text>
<text text-anchor="middle" x="4970.5" y="-349.8528" font-family="Times,serif" font-size="20.00" fill="#000000">302</text>
<text text-anchor="middle" x="4970.5" y="-327.8528" font-family="Times,serif" font-size="20.00" fill="#000000">303</text>
<text text-anchor="middle" x="4970.5" y="-305.8528" font-family="Times,serif" font-size="20.00" fill="#000000">307</text>
<text text-anchor="middle" x="4970.5" y="-283.8528" font-family="Times,serif" font-size="20.00" fill="#000000">308</text>
</g>
<!-- SG_1_Node_11 -->
<g id="node25" class="node">
<title>SG_1_Node_11</title>
<ellipse fill="none" stroke="#000000" cx="4910" cy="-37.2132" rx="34.7971" ry="21.4286"/>
<text text-anchor="middle" x="4910" y="-32.2132" font-family="Times,serif" font-size="20.00" fill="#000000">0.0</text>
</g>
<!-- SG_1_Node_5&#45;&gt;SG_1_Node_11 -->
<g id="edge23" class="edge">
<title>SG_1_Node_5&#45;&gt;SG_1_Node_11</title>
<path fill="none" stroke="#000000" d="M4945.9109,-201.57C4938.1134,-190.5814 4929.0113,-175.913 4924,-161.4264 4913.5088,-131.0989 4910.4665,-94.3625 4909.7682,-68.7404"/>
<polygon fill="#000000" stroke="#000000" points="4913.2636,-68.4313 4909.5975,-58.491 4906.2646,-68.5479 4913.2636,-68.4313"/>
<text text-anchor="middle" x="4956" y="-123.4264" font-family="Times,serif" font-size="20.00" fill="#000000">empty</text>
</g>
<!-- SG_1_Node_12 -->
<g id="node26" class="node">
<title>SG_1_Node_12</title>
<ellipse fill="none" stroke="#000000" cx="5010" cy="-37.2132" rx="34.7971" ry="21.4286"/>
<text text-anchor="middle" x="5010" y="-32.2132" font-family="Times,serif" font-size="20.00" fill="#000000">1.0</text>
</g>
<!-- SG_1_Node_5&#45;&gt;SG_1_Node_12 -->
<g id="edge24" class="edge">
<title>SG_1_Node_5&#45;&gt;SG_1_Node_12</title>
<path fill="none" stroke="#000000" d="M4970.2842,-201.5575C4976.2666,-190.3251 4983.493,-175.4093 4988,-161.4264 4997.8764,-130.7852 5003.6644,-94.377 5006.8027,-68.9281"/>
<polygon fill="#000000" stroke="#000000" points="5010.3087,-69.0791 5007.9897,-58.7412 5003.3558,-68.2689 5010.3087,-69.0791"/>
<text text-anchor="middle" x="5140" y="-145.4264" font-family="Times,serif" font-size="20.00" fill="#000000">[NA]</text>
<text text-anchor="middle" x="5140" y="-123.4264" font-family="Times,serif" font-size="20.00" fill="#000000">/</text>
<text text-anchor="middle" x="5140" y="-101.4264" font-family="Times,serif" font-size="20.00" fill="#000000">http://localhost:8000/echo/</text>
</g>
</g>
</svg>
