<?xml version="1.0" encoding="UTF-8" standalone="no"?>
<!DOCTYPE svg PUBLIC "-//W3C//DTD SVG 1.1//EN"
 "http://www.w3.org/Graphics/SVG/1.1/DTD/svg11.dtd">
<!-- Generated by graphviz version 2.40.1 (20161225.0304)
 -->
<!-- Title: G Pages: 1 -->
<svg width="1125pt" height="1311pt"
 viewBox="0.00 0.00 1125.00 1310.56" xmlns="http://www.w3.org/2000/svg" xmlns:xlink="http://www.w3.org/1999/xlink">
<g id="graph0" class="graph" transform="scale(1 1) rotate(0) translate(4 1306.5584)">
<title>G</title>
<polygon fill="#ffffff" stroke="transparent" points="-4,4 -4,-1306.5584 1121,-1306.5584 1121,4 -4,4"/>
<g id="clust1" class="cluster">
<title>cluster_0</title>
<polygon fill="none" stroke="#000000" points="8,-8 8,-1294.5584 529,-1294.5584 529,-8 8,-8"/>
<text text-anchor="middle" x="268.5" y="-1258.5584" font-family="Times,serif" font-size="40.00" fill="#000000">Tree 0, Class rgb(0, 0, 0)</text>
</g>
<g id="clust9" class="cluster">
<title>cluster_1</title>
<polygon fill="none" stroke="#000000" points="537,-8 537,-1294.5584 1109,-1294.5584 1109,-8 537,-8"/>
<text text-anchor="middle" x="823" y="-1258.5584" font-family="Times,serif" font-size="40.00" fill="#000000">Tree 0, Class rgb(0, 0, 255)</text>
</g>
<!-- SG_0_Node_0 -->
<g id="node1" class="node">
<title>SG_0_Node_0</title>
<polygon fill="none" stroke="#000000" points="295.5,-1234.5584 230.5,-1234.5584 230.5,-1198.5584 295.5,-1198.5584 295.5,-1234.5584"/>
<text text-anchor="middle" x="263" y="-1211.5584" font-family="Times,serif" font-size="20.00" fill="#000000">body</text>
</g>
<!-- SG_0_Node_1 -->
<g id="node2" class="node">
<title>SG_0_Node_1</title>
<polygon fill="none" stroke="#000000" points="246,-1077.3452 104,-1077.3452 104,-1041.3452 246,-1041.3452 246,-1077.3452"/>
<text text-anchor="middle" x="175" y="-1054.3452" font-family="Times,serif" font-size="20.00" fill="#000000">Status&#45;Code</text>
</g>
<!-- SG_0_Node_0&#45;&gt;SG_0_Node_1 -->
<g id="edge1" class="edge">
<title>SG_0_Node_0&#45;&gt;SG_0_Node_1</title>
<path fill="none" stroke="#000000" d="M230.3858,-1209.2816C190.3041,-1199.6009 125.8801,-1181.3863 112,-1161.5584 100.7853,-1145.5381 104.1613,-1135.4742 112,-1117.5584 117.6606,-1104.6208 127.7719,-1093.2804 138.26,-1084.1291"/>
<polygon fill="#000000" stroke="#000000" points="140.7594,-1086.6066 146.2863,-1077.5675 136.3289,-1081.1871 140.7594,-1086.6066"/>
<text text-anchor="middle" x="259.5" y="-1134.5584" font-family="Times,serif" font-size="20.00" fill="#000000">ecocnt_css=h1 {color: blue}</text>
</g>
<!-- SG_0_Node_6 -->
<g id="node3" class="node">
<title>SG_0_Node_6</title>
<ellipse fill="none" stroke="#000000" cx="429" cy="-1059.3452" rx="34.7971" ry="21.4286"/>
<text text-anchor="middle" x="429" y="-1054.3452" font-family="Times,serif" font-size="20.00" fill="#000000">1.0</text>
</g>
<!-- SG_0_Node_0&#45;&gt;SG_0_Node_6 -->
<g id="edge2" class="edge">
<title>SG_0_Node_0&#45;&gt;SG_0_Node_6</title>
<path fill="none" stroke="#000000" d="M295.5705,-1213.0678C328.6067,-1207.7491 378.7743,-1194.465 407,-1161.5584 423.6557,-1142.1405 428.6403,-1113.1233 429.7563,-1090.9616"/>
<polygon fill="#000000" stroke="#000000" points="433.2618,-1090.7942 430.0275,-1080.7051 426.2643,-1090.6091 433.2618,-1090.7942"/>
<text text-anchor="middle" x="472" y="-1145.5584" font-family="Times,serif" font-size="20.00" fill="#000000">[NA]</text>
<text text-anchor="middle" x="472" y="-1123.5584" font-family="Times,serif" font-size="20.00" fill="#000000">12 levels</text>
</g>
<!-- SG_0_Node_2 -->
<g id="node4" class="node">
<title>SG_0_Node_2</title>
<polygon fill="none" stroke="#000000" points="252.5,-784.9188 97.5,-784.9188 97.5,-748.9188 252.5,-748.9188 252.5,-784.9188"/>
<text text-anchor="middle" x="175" y="-761.9188" font-family="Times,serif" font-size="20.00" fill="#000000">Content&#45;Type</text>
</g>
<!-- SG_0_Node_1&#45;&gt;SG_0_Node_2 -->
<g id="edge3" class="edge">
<title>SG_0_Node_1&#45;&gt;SG_0_Node_2</title>
<path fill="none" stroke="#000000" d="M175,-1041.0527C175,-991.6139 175,-855.049 175,-795.4074"/>
<polygon fill="#000000" stroke="#000000" points="178.5001,-795.2045 175,-785.2045 171.5001,-795.2045 178.5001,-795.2045"/>
<text text-anchor="middle" x="194.5" y="-985.132" font-family="Times,serif" font-size="20.00" fill="#000000">200</text>
<text text-anchor="middle" x="194.5" y="-963.132" font-family="Times,serif" font-size="20.00" fill="#000000">201</text>
<text text-anchor="middle" x="194.5" y="-941.132" font-family="Times,serif" font-size="20.00" fill="#000000">202</text>
<text text-anchor="middle" x="194.5" y="-919.132" font-family="Times,serif" font-size="20.00" fill="#000000">203</text>
<text text-anchor="middle" x="194.5" y="-897.132" font-family="Times,serif" font-size="20.00" fill="#000000">206</text>
<text text-anchor="middle" x="194.5" y="-875.132" font-family="Times,serif" font-size="20.00" fill="#000000">207</text>
<text text-anchor="middle" x="194.5" y="-853.132" font-family="Times,serif" font-size="20.00" fill="#000000">208</text>
<text text-anchor="middle" x="194.5" y="-831.132" font-family="Times,serif" font-size="20.00" fill="#000000">226</text>
</g>
<!-- SG_0_Node_7 -->
<g id="node5" class="node">
<title>SG_0_Node_7</title>
<ellipse fill="none" stroke="#000000" cx="305" cy="-766.9188" rx="34.7971" ry="21.4286"/>
<text text-anchor="middle" x="305" y="-761.9188" font-family="Times,serif" font-size="20.00" fill="#000000">1.0</text>
</g>
<!-- SG_0_Node_1&#45;&gt;SG_0_Node_7 -->
<g id="edge4" class="edge">
<title>SG_0_Node_1&#45;&gt;SG_0_Node_7</title>
<path fill="none" stroke="#000000" d="M190.5535,-1041.1051C199.4288,-1030.058 210.2872,-1015.3877 218,-1001.132 255.3238,-932.146 283.3269,-843.7615 296.5549,-797.8013"/>
<polygon fill="#000000" stroke="#000000" points="299.937,-798.7037 299.3003,-788.128 293.2029,-796.7925 299.937,-798.7037"/>
<text text-anchor="middle" x="334" y="-919.132" font-family="Times,serif" font-size="20.00" fill="#000000">[NA]</text>
<text text-anchor="middle" x="334" y="-897.132" font-family="Times,serif" font-size="20.00" fill="#000000">54 levels</text>
</g>
<!-- SG_0_Node_3 -->
<g id="node6" class="node">
<title>SG_0_Node_3</title>
<polygon fill="none" stroke="#000000" points="333.5,-514.4924 16.5,-514.4924 16.5,-478.4924 333.5,-478.4924 333.5,-514.4924"/>
<text text-anchor="middle" x="175" y="-491.4924" font-family="Times,serif" font-size="20.00" fill="#000000">Cross&#45;Origin&#45;Resource&#45;Policy</text>
</g>
<!-- SG_0_Node_2&#45;&gt;SG_0_Node_3 -->
<g id="edge5" class="edge">
<title>SG_0_Node_2&#45;&gt;SG_0_Node_3</title>
<path fill="none" stroke="#000000" d="M175,-748.7555C175,-702.5702 175,-580.3784 175,-524.7687"/>
<polygon fill="#000000" stroke="#000000" points="178.5001,-524.5767 175,-514.5767 171.5001,-524.5768 178.5001,-524.5767"/>
<text text-anchor="middle" x="214.5" y="-637.7056" font-family="Times,serif" font-size="20.00" fill="#000000">empty</text>
<text text-anchor="middle" x="214.5" y="-615.7056" font-family="Times,serif" font-size="20.00" fill="#000000">text/css</text>
</g>
<!-- SG_0_Node_8 -->
<g id="node7" class="node">
<title>SG_0_Node_8</title>
<ellipse fill="none" stroke="#000000" cx="386" cy="-496.4924" rx="34.7971" ry="21.4286"/>
<text text-anchor="middle" x="386" y="-491.4924" font-family="Times,serif" font-size="20.00" fill="#000000">1.0</text>
</g>
<!-- SG_0_Node_2&#45;&gt;SG_0_Node_8 -->
<g id="edge6" class="edge">
<title>SG_0_Node_2&#45;&gt;SG_0_Node_8</title>
<path fill="none" stroke="#000000" d="M210.464,-748.8729C226.8985,-738.9625 245.5088,-725.298 258,-708.7056 301.5352,-650.8766 268.877,-613.5712 311,-554.7056 321.7235,-539.7199 337.3843,-526.7209 351.6252,-516.8314"/>
<polygon fill="#000000" stroke="#000000" points="353.8691,-519.5422 360.2517,-511.0856 349.9886,-513.7162 353.8691,-519.5422"/>
<text text-anchor="middle" x="422" y="-692.7056" font-family="Times,serif" font-size="20.00" fill="#000000">[NA]</text>
<text text-anchor="middle" x="422" y="-670.7056" font-family="Times,serif" font-size="20.00" fill="#000000">application/javascript</text>
<text text-anchor="middle" x="422" y="-648.7056" font-family="Times,serif" font-size="20.00" fill="#000000">application/pdf</text>
<text text-anchor="middle" x="422" y="-626.7056" font-family="Times,serif" font-size="20.00" fill="#000000">audio/wav</text>
<text text-anchor="middle" x="422" y="-604.7056" font-family="Times,serif" font-size="20.00" fill="#000000">image/png</text>
<text text-anchor="middle" x="422" y="-582.7056" font-family="Times,serif" font-size="20.00" fill="#000000">text/html</text>
<text text-anchor="middle" x="422" y="-560.7056" font-family="Times,serif" font-size="20.00" fill="#000000">video/mp4</text>
</g>
<!-- SG_0_Node_4 -->
<g id="node8" class="node">
<title>SG_0_Node_4</title>
<polygon fill="none" stroke="#000000" points="280,-354.066 18,-354.066 18,-318.066 280,-318.066 280,-354.066"/>
<text text-anchor="middle" x="149" y="-331.066" font-family="Times,serif" font-size="20.00" fill="#000000">X&#45;Content&#45;Type&#45;Options</text>
</g>
<!-- SG_0_Node_3&#45;&gt;SG_0_Node_4 -->
<g id="edge7" class="edge">
<title>SG_0_Node_3&#45;&gt;SG_0_Node_4</title>
<path fill="none" stroke="#000000" d="M172.068,-478.4013C167.5622,-450.5991 158.8984,-397.1419 153.566,-364.2391"/>
<polygon fill="#000000" stroke="#000000" points="157.016,-363.6484 151.9612,-354.3371 150.1061,-364.7683 157.016,-363.6484"/>
<text text-anchor="middle" x="197" y="-422.2792" font-family="Times,serif" font-size="20.00" fill="#000000">[NA]</text>
<text text-anchor="middle" x="197" y="-400.2792" font-family="Times,serif" font-size="20.00" fill="#000000">empty</text>
</g>
<!-- SG_0_Node_9 -->
<g id="node9" class="node">
<title>SG_0_Node_9</title>
<ellipse fill="none" stroke="#000000" cx="333" cy="-336.066" rx="34.7971" ry="21.4286"/>
<text text-anchor="middle" x="333" y="-331.066" font-family="Times,serif" font-size="20.00" fill="#000000">1.0</text>
</g>
<!-- SG_0_Node_3&#45;&gt;SG_0_Node_9 -->
<g id="edge8" class="edge">
<title>SG_0_Node_3&#45;&gt;SG_0_Node_9</title>
<path fill="none" stroke="#000000" d="M193.0693,-478.4416C204.5348,-466.9667 219.669,-451.7817 233,-438.2792 258.6312,-412.3184 287.7877,-382.4814 307.9762,-361.773"/>
<polygon fill="#000000" stroke="#000000" points="310.5126,-364.1852 314.9852,-354.5807 305.4993,-359.2997 310.5126,-364.1852"/>
<text text-anchor="middle" x="336" y="-411.2792" font-family="Times,serif" font-size="20.00" fill="#000000">same&#45;origin</text>
</g>
<!-- SG_0_Node_10 -->
<g id="node10" class="node">
<title>SG_0_Node_10</title>
<ellipse fill="none" stroke="#000000" cx="100" cy="-175.6396" rx="34.7971" ry="21.4286"/>
<text text-anchor="middle" x="100" y="-170.6396" font-family="Times,serif" font-size="20.00" fill="#000000">0.0</text>
</g>
<!-- SG_0_Node_4&#45;&gt;SG_0_Node_10 -->
<g id="edge9" class="edge">
<title>SG_0_Node_4&#45;&gt;SG_0_Node_10</title>
<path fill="none" stroke="#000000" d="M143.4743,-317.9749C135.1953,-290.8692 119.468,-239.3779 109.372,-206.3236"/>
<polygon fill="#000000" stroke="#000000" points="112.7026,-205.2461 106.434,-196.7046 106.0079,-207.2909 112.7026,-205.2461"/>
<text text-anchor="middle" x="162" y="-261.8528" font-family="Times,serif" font-size="20.00" fill="#000000">[NA]</text>
<text text-anchor="middle" x="162" y="-239.8528" font-family="Times,serif" font-size="20.00" fill="#000000">empty</text>
</g>
<!-- SG_0_Node_5 -->
<g id="node11" class="node">
<title>SG_0_Node_5</title>
<polygon fill="none" stroke="#000000" points="307.5,-193.6396 152.5,-193.6396 152.5,-157.6396 307.5,-157.6396 307.5,-193.6396"/>
<text text-anchor="middle" x="230" y="-170.6396" font-family="Times,serif" font-size="20.00" fill="#000000">Content&#45;Type</text>
</g>
<!-- SG_0_Node_4&#45;&gt;SG_0_Node_5 -->
<g id="edge10" class="edge">
<title>SG_0_Node_4&#45;&gt;SG_0_Node_5</title>
<path fill="none" stroke="#000000" d="M167.6427,-317.8244C177.8117,-307.0053 189.9341,-292.5635 198,-277.8528 210.8483,-254.42 219.356,-225.083 224.3473,-203.8563"/>
<polygon fill="#000000" stroke="#000000" points="227.816,-204.3821 226.58,-193.8597 220.9843,-202.8563 227.816,-204.3821"/>
<text text-anchor="middle" x="250" y="-250.8528" font-family="Times,serif" font-size="20.00" fill="#000000">nosniff</text>
</g>
<!-- SG_0_Node_11 -->
<g id="node12" class="node">
<title>SG_0_Node_11</title>
<ellipse fill="none" stroke="#000000" cx="172" cy="-37.2132" rx="34.7971" ry="21.4286"/>
<text text-anchor="middle" x="172" y="-32.2132" font-family="Times,serif" font-size="20.00" fill="#000000">0.0</text>
</g>
<!-- SG_0_Node_5&#45;&gt;SG_0_Node_11 -->
<g id="edge11" class="edge">
<title>SG_0_Node_5&#45;&gt;SG_0_Node_11</title>
<path fill="none" stroke="#000000" d="M204.1225,-157.4582C191.9093,-147.2585 178.5914,-133.3809 172,-117.4264 165.6922,-102.1585 165.2302,-83.8169 166.5508,-68.5284"/>
<polygon fill="#000000" stroke="#000000" points="170.0378,-68.8409 167.6999,-58.5072 163.0834,-68.0434 170.0378,-68.8409"/>
<text text-anchor="middle" x="211.5" y="-101.4264" font-family="Times,serif" font-size="20.00" fill="#000000">text/css</text>
</g>
<!-- SG_0_Node_12 -->
<g id="node13" class="node">
<title>SG_0_Node_12</title>
<ellipse fill="none" stroke="#000000" cx="287" cy="-37.2132" rx="34.7971" ry="21.4286"/>
<text text-anchor="middle" x="287" y="-32.2132" font-family="Times,serif" font-size="20.00" fill="#000000">1.0</text>
</g>
<!-- SG_0_Node_5&#45;&gt;SG_0_Node_12 -->
<g id="edge12" class="edge">
<title>SG_0_Node_5&#45;&gt;SG_0_Node_12</title>
<path fill="none" stroke="#000000" d="M237.8917,-157.5979C242.8738,-146.1266 249.403,-130.942 255,-117.4264 261.8232,-100.9497 269.2141,-82.4676 275.1721,-67.4007"/>
<polygon fill="#000000" stroke="#000000" points="278.4477,-68.6349 278.8601,-58.0481 271.9357,-66.067 278.4477,-68.6349"/>
<text text-anchor="middle" x="295" y="-101.4264" font-family="Times,serif" font-size="20.00" fill="#000000">empty</text>
</g>
<!-- SG_1_Node_0 -->
<g id="node14" class="node">
<title>SG_1_Node_0</title>
<polygon fill="none" stroke="#000000" points="676.5,-1234.5584 611.5,-1234.5584 611.5,-1198.5584 676.5,-1198.5584 676.5,-1234.5584"/>
<text text-anchor="middle" x="644" y="-1211.5584" font-family="Times,serif" font-size="20.00" fill="#000000">body</text>
</g>
<!-- SG_1_Node_6 -->
<g id="node15" class="node">
<title>SG_1_Node_6</title>
<ellipse fill="none" stroke="#000000" cx="580" cy="-1059.3452" rx="34.7971" ry="21.4286"/>
<text text-anchor="middle" x="580" y="-1054.3452" font-family="Times,serif" font-size="20.00" fill="#000000">0.0</text>
</g>
<!-- SG_1_Node_0&#45;&gt;SG_1_Node_6 -->
<g id="edge13" class="edge">
<title>SG_1_Node_0&#45;&gt;SG_1_Node_6</title>
<path fill="none" stroke="#000000" d="M622.2079,-1198.363C611.9493,-1188.5508 600.5534,-1175.5889 594,-1161.5584 583.6725,-1139.4477 580.3724,-1111.9193 579.5448,-1091.0034"/>
<polygon fill="#000000" stroke="#000000" points="583.0378,-1090.6507 579.3133,-1080.7322 576.0396,-1090.8085 583.0378,-1090.6507"/>
<text text-anchor="middle" x="640" y="-1145.5584" font-family="Times,serif" font-size="20.00" fill="#000000">[NA]</text>
<text text-anchor="middle" x="640" y="-1123.5584" font-family="Times,serif" font-size="20.00" fill="#000000">12 levels</text>
</g>
<!-- SG_1_Node_1 -->
<g id="node16" class="node">
<title>SG_1_Node_1</title>
<polygon fill="none" stroke="#000000" points="779,-1077.3452 637,-1077.3452 637,-1041.3452 779,-1041.3452 779,-1077.3452"/>
<text text-anchor="middle" x="708" y="-1054.3452" font-family="Times,serif" font-size="20.00" fill="#000000">Status&#45;Code</text>
</g>
<!-- SG_1_Node_0&#45;&gt;SG_1_Node_1 -->
<g id="edge14" class="edge">
<title>SG_1_Node_0&#45;&gt;SG_1_Node_1</title>
<path fill="none" stroke="#000000" d="M661.4302,-1198.0669C670.0355,-1187.9839 679.8619,-1174.8688 686,-1161.5584 696.9246,-1137.8686 702.5168,-1108.5631 705.3207,-1087.4136"/>
<polygon fill="#000000" stroke="#000000" points="708.7988,-1087.8046 706.5154,-1077.4588 701.8487,-1086.9704 708.7988,-1087.8046"/>
<text text-anchor="middle" x="847.5" y="-1134.5584" font-family="Times,serif" font-size="20.00" fill="#000000">ecocnt_css=h1 {color: blue}</text>
</g>
<!-- SG_1_Node_7 -->
<g id="node17" class="node">
<title>SG_1_Node_7</title>
<ellipse fill="none" stroke="#000000" cx="580" cy="-766.9188" rx="34.7971" ry="21.4286"/>
<text text-anchor="middle" x="580" y="-761.9188" font-family="Times,serif" font-size="20.00" fill="#000000">0.0</text>
</g>
<!-- SG_1_Node_1&#45;&gt;SG_1_Node_7 -->
<g id="edge15" class="edge">
<title>SG_1_Node_1&#45;&gt;SG_1_Node_7</title>
<path fill="none" stroke="#000000" d="M660.4219,-1041.1192C642.4399,-1031.8424 623.5494,-1018.7317 612,-1001.132 570.8666,-938.4504 572.1439,-845.9592 576.2493,-798.1228"/>
<polygon fill="#000000" stroke="#000000" points="579.7429,-798.3558 577.2121,-788.0676 572.7748,-797.6884 579.7429,-798.3558"/>
<text text-anchor="middle" x="658" y="-919.132" font-family="Times,serif" font-size="20.00" fill="#000000">[NA]</text>
<text text-anchor="middle" x="658" y="-897.132" font-family="Times,serif" font-size="20.00" fill="#000000">54 levels</text>
</g>
<!-- SG_1_Node_2 -->
<g id="node18" class="node">
<title>SG_1_Node_2</title>
<polygon fill="none" stroke="#000000" points="787.5,-784.9188 632.5,-784.9188 632.5,-748.9188 787.5,-748.9188 787.5,-784.9188"/>
<text text-anchor="middle" x="710" y="-761.9188" font-family="Times,serif" font-size="20.00" fill="#000000">Content&#45;Type</text>
</g>
<!-- SG_1_Node_1&#45;&gt;SG_1_Node_2 -->
<g id="edge16" class="edge">
<title>SG_1_Node_1&#45;&gt;SG_1_Node_2</title>
<path fill="none" stroke="#000000" d="M708.1251,-1041.0527C708.4632,-991.6139 709.3972,-855.049 709.8052,-795.4074"/>
<polygon fill="#000000" stroke="#000000" points="713.3064,-795.2282 709.8749,-785.2045 706.3065,-795.1803 713.3064,-795.2282"/>
<text text-anchor="middle" x="728.5" y="-985.132" font-family="Times,serif" font-size="20.00" fill="#000000">200</text>
<text text-anchor="middle" x="728.5" y="-963.132" font-family="Times,serif" font-size="20.00" fill="#000000">201</text>
<text text-anchor="middle" x="728.5" y="-941.132" font-family="Times,serif" font-size="20.00" fill="#000000">202</text>
<text text-anchor="middle" x="728.5" y="-919.132" font-family="Times,serif" font-size="20.00" fill="#000000">203</text>
<text text-anchor="middle" x="728.5" y="-897.132" font-family="Times,serif" font-size="20.00" fill="#000000">206</text>
<text text-anchor="middle" x="728.5" y="-875.132" font-family="Times,serif" font-size="20.00" fill="#000000">207</text>
<text text-anchor="middle" x="728.5" y="-853.132" font-family="Times,serif" font-size="20.00" fill="#000000">208</text>
<text text-anchor="middle" x="728.5" y="-831.132" font-family="Times,serif" font-size="20.00" fill="#000000">226</text>
</g>
<!-- SG_1_Node_8 -->
<g id="node19" class="node">
<title>SG_1_Node_8</title>
<ellipse fill="none" stroke="#000000" cx="632" cy="-496.4924" rx="34.7971" ry="21.4286"/>
<text text-anchor="middle" x="632" y="-491.4924" font-family="Times,serif" font-size="20.00" fill="#000000">0.0</text>
</g>
<!-- SG_1_Node_2&#45;&gt;SG_1_Node_8 -->
<g id="edge17" class="edge">
<title>SG_1_Node_2&#45;&gt;SG_1_Node_8</title>
<path fill="none" stroke="#000000" d="M681.632,-748.8329C668.3801,-738.7464 653.8283,-724.9407 646,-708.7056 617.6152,-649.8386 621.7886,-570.9267 627.0675,-527.8291"/>
<polygon fill="#000000" stroke="#000000" points="630.5687,-528.0513 628.4143,-517.6778 623.6295,-527.1306 630.5687,-528.0513"/>
<text text-anchor="middle" x="757" y="-692.7056" font-family="Times,serif" font-size="20.00" fill="#000000">[NA]</text>
<text text-anchor="middle" x="757" y="-670.7056" font-family="Times,serif" font-size="20.00" fill="#000000">application/javascript</text>
<text text-anchor="middle" x="757" y="-648.7056" font-family="Times,serif" font-size="20.00" fill="#000000">application/pdf</text>
<text text-anchor="middle" x="757" y="-626.7056" font-family="Times,serif" font-size="20.00" fill="#000000">audio/wav</text>
<text text-anchor="middle" x="757" y="-604.7056" font-family="Times,serif" font-size="20.00" fill="#000000">image/png</text>
<text text-anchor="middle" x="757" y="-582.7056" font-family="Times,serif" font-size="20.00" fill="#000000">text/html</text>
<text text-anchor="middle" x="757" y="-560.7056" font-family="Times,serif" font-size="20.00" fill="#000000">video/mp4</text>
</g>
<!-- SG_1_Node_3 -->
<g id="node20" class="node">
<title>SG_1_Node_3</title>
<polygon fill="none" stroke="#000000" points="1048.5,-514.4924 731.5,-514.4924 731.5,-478.4924 1048.5,-478.4924 1048.5,-514.4924"/>
<text text-anchor="middle" x="890" y="-491.4924" font-family="Times,serif" font-size="20.00" fill="#000000">Cross&#45;Origin&#45;Resource&#45;Policy</text>
</g>
<!-- SG_1_Node_2&#45;&gt;SG_1_Node_3 -->
<g id="edge18" class="edge">
<title>SG_1_Node_2&#45;&gt;SG_1_Node_3</title>
<path fill="none" stroke="#000000" d="M780.3908,-748.8926C817.021,-738.0328 856.521,-723.4795 868,-708.7056 909.7796,-654.9339 902.8983,-568.9513 895.6998,-524.752"/>
<polygon fill="#000000" stroke="#000000" points="899.1141,-523.958 893.9398,-514.7126 892.2192,-525.1668 899.1141,-523.958"/>
<text text-anchor="middle" x="940.5" y="-637.7056" font-family="Times,serif" font-size="20.00" fill="#000000">empty</text>
<text text-anchor="middle" x="940.5" y="-615.7056" font-family="Times,serif" font-size="20.00" fill="#000000">text/css</text>
</g>
<!-- SG_1_Node_9 -->
<g id="node21" class="node">
<title>SG_1_Node_9</title>
<ellipse fill="none" stroke="#000000" cx="749" cy="-336.066" rx="34.7971" ry="21.4286"/>
<text text-anchor="middle" x="749" y="-331.066" font-family="Times,serif" font-size="20.00" fill="#000000">0.0</text>
</g>
<!-- SG_1_Node_3&#45;&gt;SG_1_Node_9 -->
<g id="edge19" class="edge">
<title>SG_1_Node_3&#45;&gt;SG_1_Node_9</title>
<path fill="none" stroke="#000000" d="M835.679,-478.4584C815.3696,-469.2874 793.6913,-456.2021 779,-438.2792 762.5772,-418.244 755.1447,-389.5313 751.7809,-367.636"/>
<polygon fill="#000000" stroke="#000000" points="755.2213,-366.955 750.4349,-357.503 748.2823,-367.8768 755.2213,-366.955"/>
<text text-anchor="middle" x="840" y="-411.2792" font-family="Times,serif" font-size="20.00" fill="#000000">same&#45;origin</text>
</g>
<!-- SG_1_Node_4 -->
<g id="node22" class="node">
<title>SG_1_Node_4</title>
<polygon fill="none" stroke="#000000" points="1064,-354.066 802,-354.066 802,-318.066 1064,-318.066 1064,-354.066"/>
<text text-anchor="middle" x="933" y="-331.066" font-family="Times,serif" font-size="20.00" fill="#000000">X&#45;Content&#45;Type&#45;Options</text>
</g>
<!-- SG_1_Node_3&#45;&gt;SG_1_Node_4 -->
<g id="edge20" class="edge">
<title>SG_1_Node_3&#45;&gt;SG_1_Node_4</title>
<path fill="none" stroke="#000000" d="M894.8491,-478.4013C902.3011,-450.5991 916.6295,-397.1419 925.4486,-364.2391"/>
<polygon fill="#000000" stroke="#000000" points="928.8943,-364.9024 928.1027,-354.3371 922.133,-363.09 928.8943,-364.9024"/>
<text text-anchor="middle" x="949" y="-422.2792" font-family="Times,serif" font-size="20.00" fill="#000000">[NA]</text>
<text text-anchor="middle" x="949" y="-400.2792" font-family="Times,serif" font-size="20.00" fill="#000000">empty</text>
</g>
<!-- SG_1_Node_5 -->
<g id="node23" class="node">
<title>SG_1_Node_5</title>
<polygon fill="none" stroke="#000000" points="945.5,-193.6396 790.5,-193.6396 790.5,-157.6396 945.5,-157.6396 945.5,-193.6396"/>
<text text-anchor="middle" x="868" y="-170.6396" font-family="Times,serif" font-size="20.00" fill="#000000">Content&#45;Type</text>
</g>
<!-- SG_1_Node_4&#45;&gt;SG_1_Node_5 -->
<g id="edge21" class="edge">
<title>SG_1_Node_4&#45;&gt;SG_1_Node_5</title>
<path fill="none" stroke="#000000" d="M921.4146,-317.9676C914.5594,-306.7292 906.0602,-291.813 900,-277.8528 889.4217,-253.4849 880.6843,-224.4821 875.0275,-203.6065"/>
<polygon fill="#000000" stroke="#000000" points="878.3702,-202.5563 872.4301,-193.7832 871.6027,-204.3457 878.3702,-202.5563"/>
<text text-anchor="middle" x="935" y="-250.8528" font-family="Times,serif" font-size="20.00" fill="#000000">nosniff</text>
</g>
<!-- SG_1_Node_10 -->
<g id="node24" class="node">
<title>SG_1_Node_10</title>
<ellipse fill="none" stroke="#000000" cx="998" cy="-175.6396" rx="34.7971" ry="21.4286"/>
<text text-anchor="middle" x="998" y="-170.6396" font-family="Times,serif" font-size="20.00" fill="#000000">1.0</text>
</g>
<!-- SG_1_Node_4&#45;&gt;SG_1_Node_10 -->
<g id="edge22" class="edge">
<title>SG_1_Node_4&#45;&gt;SG_1_Node_10</title>
<path fill="none" stroke="#000000" d="M946.4864,-317.9868C954.2551,-306.877 963.6979,-292.0878 970,-277.8528 980.1311,-254.9687 987.401,-227.5469 991.99,-206.8697"/>
<polygon fill="#000000" stroke="#000000" points="995.4276,-207.5312 994.0873,-197.0215 988.5811,-206.0732 995.4276,-207.5312"/>
<text text-anchor="middle" x="1017" y="-261.8528" font-family="Times,serif" font-size="20.00" fill="#000000">[NA]</text>
<text text-anchor="middle" x="1017" y="-239.8528" font-family="Times,serif" font-size="20.00" fill="#000000">empty</text>
</g>
<!-- SG_1_Node_11 -->
<g id="node25" class="node">
<title>SG_1_Node_11</title>
<ellipse fill="none" stroke="#000000" cx="818" cy="-37.2132" rx="34.7971" ry="21.4286"/>
<text text-anchor="middle" x="818" y="-32.2132" font-family="Times,serif" font-size="20.00" fill="#000000">0.0</text>
</g>
<!-- SG_1_Node_5&#45;&gt;SG_1_Node_11 -->
<g id="edge23" class="edge">
<title>SG_1_Node_5&#45;&gt;SG_1_Node_11</title>
<path fill="none" stroke="#000000" d="M854.2331,-157.453C846.5462,-146.4243 837.4476,-131.7547 832,-117.4264 826.1382,-102.0088 822.7115,-83.9821 820.7178,-68.9275"/>
<polygon fill="#000000" stroke="#000000" points="824.1444,-68.0956 819.5051,-58.5705 817.1919,-68.9097 824.1444,-68.0956"/>
<text text-anchor="middle" x="864" y="-101.4264" font-family="Times,serif" font-size="20.00" fill="#000000">empty</text>
</g>
<!-- SG_1_Node_12 -->
<g id="node26" class="node">
<title>SG_1_Node_12</title>
<ellipse fill="none" stroke="#000000" cx="918" cy="-37.2132" rx="34.7971" ry="21.4286"/>
<text text-anchor="middle" x="918" y="-32.2132" font-family="Times,serif" font-size="20.00" fill="#000000">1.0</text>
</g>
<!-- SG_1_Node_5&#45;&gt;SG_1_Node_12 -->
<g id="edge24" class="edge">
<title>SG_1_Node_5&#45;&gt;SG_1_Node_12</title>
<path fill="none" stroke="#000000" d="M877.8258,-157.3979C883.6407,-146.1073 890.8521,-131.1863 896,-117.4264 901.9612,-101.4927 907.0951,-83.2363 910.9005,-68.1696"/>
<polygon fill="#000000" stroke="#000000" points="914.3343,-68.862 913.3166,-58.3161 907.5357,-67.1949 914.3343,-68.862"/>
<text text-anchor="middle" x="942.5" y="-101.4264" font-family="Times,serif" font-size="20.00" fill="#000000">text/css</text>
</g>
</g>
</svg>
