<?xml version="1.0" encoding="UTF-8" standalone="no"?>
<!DOCTYPE svg PUBLIC "-//W3C//DTD SVG 1.1//EN"
 "http://www.w3.org/Graphics/SVG/1.1/DTD/svg11.dtd">
<!-- Generated by graphviz version 2.40.1 (20161225.0304)
 -->
<!-- Title: G Pages: 1 -->
<svg width="874pt" height="1377pt"
 viewBox="0.00 0.00 874.00 1376.56" xmlns="http://www.w3.org/2000/svg" xmlns:xlink="http://www.w3.org/1999/xlink">
<g id="graph0" class="graph" transform="scale(1 1) rotate(0) translate(4 1372.5584)">
<title>G</title>
<polygon fill="#ffffff" stroke="transparent" points="-4,4 -4,-1372.5584 870,-1372.5584 870,4 -4,4"/>
<g id="clust1" class="cluster">
<title>cluster_0</title>
<polygon fill="none" stroke="#000000" points="8,-8 8,-1360.5584 429,-1360.5584 429,-8 8,-8"/>
<text text-anchor="middle" x="218.5" y="-1324.5584" font-family="Times,serif" font-size="40.00" fill="#000000">Tree 0, Class error</text>
</g>
<g id="clust9" class="cluster">
<title>cluster_1</title>
<polygon fill="none" stroke="#000000" points="437,-8 437,-1360.5584 858,-1360.5584 858,-8 437,-8"/>
<text text-anchor="middle" x="647.5" y="-1324.5584" font-family="Times,serif" font-size="40.00" fill="#000000">Tree 0, Class load</text>
</g>
<!-- SG_0_Node_0 -->
<g id="node1" class="node">
<title>SG_0_Node_0</title>
<polygon fill="none" stroke="#000000" points="177,-1300.5584 35,-1300.5584 35,-1264.5584 177,-1264.5584 177,-1300.5584"/>
<text text-anchor="middle" x="106" y="-1277.5584" font-family="Times,serif" font-size="20.00" fill="#000000">Status&#45;Code</text>
</g>
<!-- SG_0_Node_6 -->
<g id="node2" class="node">
<title>SG_0_Node_6</title>
<ellipse fill="none" stroke="#000000" cx="60" cy="-1103.3452" rx="34.7971" ry="21.4286"/>
<text text-anchor="middle" x="60" y="-1098.3452" font-family="Times,serif" font-size="20.00" fill="#000000">0.0</text>
</g>
<!-- SG_0_Node_0&#45;&gt;SG_0_Node_6 -->
<g id="edge1" class="edge">
<title>SG_0_Node_0&#45;&gt;SG_0_Node_6</title>
<path fill="none" stroke="#000000" d="M101.3361,-1264.3883C93.486,-1233.8047 77.549,-1171.7151 67.9192,-1134.198"/>
<polygon fill="#000000" stroke="#000000" points="71.2587,-1133.1304 65.3823,-1124.3145 64.4785,-1134.8707 71.2587,-1133.1304"/>
<text text-anchor="middle" x="110.5" y="-1211.5584" font-family="Times,serif" font-size="20.00" fill="#000000">100</text>
<text text-anchor="middle" x="110.5" y="-1189.5584" font-family="Times,serif" font-size="20.00" fill="#000000">102</text>
<text text-anchor="middle" x="110.5" y="-1167.5584" font-family="Times,serif" font-size="20.00" fill="#000000">103</text>
</g>
<!-- SG_0_Node_1 -->
<g id="node3" class="node">
<title>SG_0_Node_1</title>
<polygon fill="none" stroke="#000000" points="267.5,-1121.3452 112.5,-1121.3452 112.5,-1085.3452 267.5,-1085.3452 267.5,-1121.3452"/>
<text text-anchor="middle" x="190" y="-1098.3452" font-family="Times,serif" font-size="20.00" fill="#000000">Content&#45;Type</text>
</g>
<!-- SG_0_Node_0&#45;&gt;SG_0_Node_1 -->
<g id="edge2" class="edge">
<title>SG_0_Node_0&#45;&gt;SG_0_Node_1</title>
<path fill="none" stroke="#000000" d="M115.5516,-1264.333C121.0688,-1253.6745 128.0688,-1239.9245 134,-1227.5584 149.8044,-1194.6074 166.9283,-1156.1895 178.0231,-1130.9037"/>
<polygon fill="#000000" stroke="#000000" points="181.3041,-1132.1363 182.1056,-1121.5719 174.8909,-1129.3307 181.3041,-1132.1363"/>
<text text-anchor="middle" x="210" y="-1200.5584" font-family="Times,serif" font-size="20.00" fill="#000000">[NA]</text>
<text text-anchor="middle" x="210" y="-1178.5584" font-family="Times,serif" font-size="20.00" fill="#000000">59 levels</text>
</g>
<!-- SG_0_Node_2 -->
<g id="node4" class="node">
<title>SG_0_Node_2</title>
<polygon fill="none" stroke="#000000" points="202,-850.9188 60,-850.9188 60,-814.9188 202,-814.9188 202,-850.9188"/>
<text text-anchor="middle" x="131" y="-827.9188" font-family="Times,serif" font-size="20.00" fill="#000000">Status&#45;Code</text>
</g>
<!-- SG_0_Node_1&#45;&gt;SG_0_Node_2 -->
<g id="edge3" class="edge">
<title>SG_0_Node_1&#45;&gt;SG_0_Node_2</title>
<path fill="none" stroke="#000000" d="M142.695,-1085.1445C125.4275,-1075.9244 107.7549,-1062.8481 98,-1045.132 64.9867,-985.1757 80.5461,-957.3136 98,-891.132 100.8961,-880.1506 106.3925,-869.0673 112.0809,-859.5612"/>
<polygon fill="#000000" stroke="#000000" points="115.119,-861.3056 117.515,-850.9853 109.2061,-857.5589 115.119,-861.3056"/>
<text text-anchor="middle" x="137.5" y="-974.132" font-family="Times,serif" font-size="20.00" fill="#000000">empty</text>
<text text-anchor="middle" x="137.5" y="-952.132" font-family="Times,serif" font-size="20.00" fill="#000000">text/css</text>
</g>
<!-- SG_0_Node_7 -->
<g id="node5" class="node">
<title>SG_0_Node_7</title>
<ellipse fill="none" stroke="#000000" cx="255" cy="-832.9188" rx="34.7971" ry="21.4286"/>
<text text-anchor="middle" x="255" y="-827.9188" font-family="Times,serif" font-size="20.00" fill="#000000">1.0</text>
</g>
<!-- SG_0_Node_1&#45;&gt;SG_0_Node_7 -->
<g id="edge4" class="edge">
<title>SG_0_Node_1&#45;&gt;SG_0_Node_7</title>
<path fill="none" stroke="#000000" d="M188.5804,-1085.2622C186.3061,-1047.6555 184.4939,-958.8807 211,-891.132 215.4982,-879.6347 222.9479,-868.455 230.4502,-859.0172"/>
<polygon fill="#000000" stroke="#000000" points="233.2515,-861.1233 236.9837,-851.2075 227.8826,-856.6316 233.2515,-861.1233"/>
<text text-anchor="middle" x="322" y="-1029.132" font-family="Times,serif" font-size="20.00" fill="#000000">[NA]</text>
<text text-anchor="middle" x="322" y="-1007.132" font-family="Times,serif" font-size="20.00" fill="#000000">application/javascript</text>
<text text-anchor="middle" x="322" y="-985.132" font-family="Times,serif" font-size="20.00" fill="#000000">application/pdf</text>
<text text-anchor="middle" x="322" y="-963.132" font-family="Times,serif" font-size="20.00" fill="#000000">audio/wav</text>
<text text-anchor="middle" x="322" y="-941.132" font-family="Times,serif" font-size="20.00" fill="#000000">image/png</text>
<text text-anchor="middle" x="322" y="-919.132" font-family="Times,serif" font-size="20.00" fill="#000000">text/html</text>
<text text-anchor="middle" x="322" y="-897.132" font-family="Times,serif" font-size="20.00" fill="#000000">video/mp4</text>
</g>
<!-- SG_0_Node_3 -->
<g id="node6" class="node">
<title>SG_0_Node_3</title>
<polygon fill="none" stroke="#000000" points="333.5,-514.4924 16.5,-514.4924 16.5,-478.4924 333.5,-478.4924 333.5,-514.4924"/>
<text text-anchor="middle" x="175" y="-491.4924" font-family="Times,serif" font-size="20.00" fill="#000000">Cross&#45;Origin&#45;Resource&#45;Policy</text>
</g>
<!-- SG_0_Node_2&#45;&gt;SG_0_Node_3 -->
<g id="edge5" class="edge">
<title>SG_0_Node_2&#45;&gt;SG_0_Node_3</title>
<path fill="none" stroke="#000000" d="M133.3656,-814.8311C140.6026,-759.4969 162.4845,-592.1868 171.2802,-524.9346"/>
<polygon fill="#000000" stroke="#000000" points="174.7962,-525.0391 172.6227,-514.6696 167.8553,-524.1312 174.7962,-525.0391"/>
<text text-anchor="middle" x="186.5" y="-758.7056" font-family="Times,serif" font-size="20.00" fill="#000000">200</text>
<text text-anchor="middle" x="186.5" y="-736.7056" font-family="Times,serif" font-size="20.00" fill="#000000">201</text>
<text text-anchor="middle" x="186.5" y="-714.7056" font-family="Times,serif" font-size="20.00" fill="#000000">202</text>
<text text-anchor="middle" x="186.5" y="-692.7056" font-family="Times,serif" font-size="20.00" fill="#000000">203</text>
<text text-anchor="middle" x="186.5" y="-670.7056" font-family="Times,serif" font-size="20.00" fill="#000000">204</text>
<text text-anchor="middle" x="186.5" y="-648.7056" font-family="Times,serif" font-size="20.00" fill="#000000">205</text>
<text text-anchor="middle" x="186.5" y="-626.7056" font-family="Times,serif" font-size="20.00" fill="#000000">206</text>
<text text-anchor="middle" x="186.5" y="-604.7056" font-family="Times,serif" font-size="20.00" fill="#000000">207</text>
<text text-anchor="middle" x="186.5" y="-582.7056" font-family="Times,serif" font-size="20.00" fill="#000000">208</text>
<text text-anchor="middle" x="186.5" y="-560.7056" font-family="Times,serif" font-size="20.00" fill="#000000">226</text>
</g>
<!-- SG_0_Node_8 -->
<g id="node7" class="node">
<title>SG_0_Node_8</title>
<ellipse fill="none" stroke="#000000" cx="386" cy="-496.4924" rx="34.7971" ry="21.4286"/>
<text text-anchor="middle" x="386" y="-491.4924" font-family="Times,serif" font-size="20.00" fill="#000000">1.0</text>
</g>
<!-- SG_0_Node_2&#45;&gt;SG_0_Node_8 -->
<g id="edge6" class="edge">
<title>SG_0_Node_2&#45;&gt;SG_0_Node_8</title>
<path fill="none" stroke="#000000" d="M161.4169,-814.6791C177.1389,-804.276 195.9259,-790.231 210,-774.7056 286.4313,-690.3933 276.9723,-648.7842 341,-554.7056 348.1153,-544.2509 356.4571,-533.1764 364.0128,-523.525"/>
<polygon fill="#000000" stroke="#000000" points="366.9345,-525.4733 370.3996,-515.4611 361.4471,-521.1271 366.9345,-525.4733"/>
<text text-anchor="middle" x="387" y="-670.7056" font-family="Times,serif" font-size="20.00" fill="#000000">[NA]</text>
<text text-anchor="middle" x="387" y="-648.7056" font-family="Times,serif" font-size="20.00" fill="#000000">49 levels</text>
</g>
<!-- SG_0_Node_4 -->
<g id="node8" class="node">
<title>SG_0_Node_4</title>
<polygon fill="none" stroke="#000000" points="280,-354.066 18,-354.066 18,-318.066 280,-318.066 280,-354.066"/>
<text text-anchor="middle" x="149" y="-331.066" font-family="Times,serif" font-size="20.00" fill="#000000">X&#45;Content&#45;Type&#45;Options</text>
</g>
<!-- SG_0_Node_3&#45;&gt;SG_0_Node_4 -->
<g id="edge7" class="edge">
<title>SG_0_Node_3&#45;&gt;SG_0_Node_4</title>
<path fill="none" stroke="#000000" d="M172.068,-478.4013C167.5622,-450.5991 158.8984,-397.1419 153.566,-364.2391"/>
<polygon fill="#000000" stroke="#000000" points="157.016,-363.6484 151.9612,-354.3371 150.1061,-364.7683 157.016,-363.6484"/>
<text text-anchor="middle" x="197" y="-422.2792" font-family="Times,serif" font-size="20.00" fill="#000000">[NA]</text>
<text text-anchor="middle" x="197" y="-400.2792" font-family="Times,serif" font-size="20.00" fill="#000000">empty</text>
</g>
<!-- SG_0_Node_9 -->
<g id="node9" class="node">
<title>SG_0_Node_9</title>
<ellipse fill="none" stroke="#000000" cx="333" cy="-336.066" rx="34.7971" ry="21.4286"/>
<text text-anchor="middle" x="333" y="-331.066" font-family="Times,serif" font-size="20.00" fill="#000000">1.0</text>
</g>
<!-- SG_0_Node_3&#45;&gt;SG_0_Node_9 -->
<g id="edge8" class="edge">
<title>SG_0_Node_3&#45;&gt;SG_0_Node_9</title>
<path fill="none" stroke="#000000" d="M193.0693,-478.4416C204.5348,-466.9667 219.669,-451.7817 233,-438.2792 258.6312,-412.3184 287.7877,-382.4814 307.9762,-361.773"/>
<polygon fill="#000000" stroke="#000000" points="310.5126,-364.1852 314.9852,-354.5807 305.4993,-359.2997 310.5126,-364.1852"/>
<text text-anchor="middle" x="336" y="-411.2792" font-family="Times,serif" font-size="20.00" fill="#000000">same&#45;origin</text>
</g>
<!-- SG_0_Node_10 -->
<g id="node10" class="node">
<title>SG_0_Node_10</title>
<ellipse fill="none" stroke="#000000" cx="100" cy="-175.6396" rx="34.7971" ry="21.4286"/>
<text text-anchor="middle" x="100" y="-170.6396" font-family="Times,serif" font-size="20.00" fill="#000000">0.0</text>
</g>
<!-- SG_0_Node_4&#45;&gt;SG_0_Node_10 -->
<g id="edge9" class="edge">
<title>SG_0_Node_4&#45;&gt;SG_0_Node_10</title>
<path fill="none" stroke="#000000" d="M143.4743,-317.9749C135.1953,-290.8692 119.468,-239.3779 109.372,-206.3236"/>
<polygon fill="#000000" stroke="#000000" points="112.7026,-205.2461 106.434,-196.7046 106.0079,-207.2909 112.7026,-205.2461"/>
<text text-anchor="middle" x="162" y="-261.8528" font-family="Times,serif" font-size="20.00" fill="#000000">[NA]</text>
<text text-anchor="middle" x="162" y="-239.8528" font-family="Times,serif" font-size="20.00" fill="#000000">empty</text>
</g>
<!-- SG_0_Node_5 -->
<g id="node11" class="node">
<title>SG_0_Node_5</title>
<polygon fill="none" stroke="#000000" points="307.5,-193.6396 152.5,-193.6396 152.5,-157.6396 307.5,-157.6396 307.5,-193.6396"/>
<text text-anchor="middle" x="230" y="-170.6396" font-family="Times,serif" font-size="20.00" fill="#000000">Content&#45;Type</text>
</g>
<!-- SG_0_Node_4&#45;&gt;SG_0_Node_5 -->
<g id="edge10" class="edge">
<title>SG_0_Node_4&#45;&gt;SG_0_Node_5</title>
<path fill="none" stroke="#000000" d="M167.6427,-317.8244C177.8117,-307.0053 189.9341,-292.5635 198,-277.8528 210.8483,-254.42 219.356,-225.083 224.3473,-203.8563"/>
<polygon fill="#000000" stroke="#000000" points="227.816,-204.3821 226.58,-193.8597 220.9843,-202.8563 227.816,-204.3821"/>
<text text-anchor="middle" x="250" y="-250.8528" font-family="Times,serif" font-size="20.00" fill="#000000">nosniff</text>
</g>
<!-- SG_0_Node_11 -->
<g id="node12" class="node">
<title>SG_0_Node_11</title>
<ellipse fill="none" stroke="#000000" cx="172" cy="-37.2132" rx="34.7971" ry="21.4286"/>
<text text-anchor="middle" x="172" y="-32.2132" font-family="Times,serif" font-size="20.00" fill="#000000">0.0</text>
</g>
<!-- SG_0_Node_5&#45;&gt;SG_0_Node_11 -->
<g id="edge11" class="edge">
<title>SG_0_Node_5&#45;&gt;SG_0_Node_11</title>
<path fill="none" stroke="#000000" d="M204.1225,-157.4582C191.9093,-147.2585 178.5914,-133.3809 172,-117.4264 165.6922,-102.1585 165.2302,-83.8169 166.5508,-68.5284"/>
<polygon fill="#000000" stroke="#000000" points="170.0378,-68.8409 167.6999,-58.5072 163.0834,-68.0434 170.0378,-68.8409"/>
<text text-anchor="middle" x="211.5" y="-101.4264" font-family="Times,serif" font-size="20.00" fill="#000000">text/css</text>
</g>
<!-- SG_0_Node_12 -->
<g id="node13" class="node">
<title>SG_0_Node_12</title>
<ellipse fill="none" stroke="#000000" cx="287" cy="-37.2132" rx="34.7971" ry="21.4286"/>
<text text-anchor="middle" x="287" y="-32.2132" font-family="Times,serif" font-size="20.00" fill="#000000">1.0</text>
</g>
<!-- SG_0_Node_5&#45;&gt;SG_0_Node_12 -->
<g id="edge12" class="edge">
<title>SG_0_Node_5&#45;&gt;SG_0_Node_12</title>
<path fill="none" stroke="#000000" d="M237.8917,-157.5979C242.8738,-146.1266 249.403,-130.942 255,-117.4264 261.8232,-100.9497 269.2141,-82.4676 275.1721,-67.4007"/>
<polygon fill="#000000" stroke="#000000" points="278.4477,-68.6349 278.8601,-58.0481 271.9357,-66.067 278.4477,-68.6349"/>
<text text-anchor="middle" x="295" y="-101.4264" font-family="Times,serif" font-size="20.00" fill="#000000">empty</text>
</g>
<!-- SG_1_Node_0 -->
<g id="node14" class="node">
<title>SG_1_Node_0</title>
<polygon fill="none" stroke="#000000" points="722,-1300.5584 580,-1300.5584 580,-1264.5584 722,-1264.5584 722,-1300.5584"/>
<text text-anchor="middle" x="651" y="-1277.5584" font-family="Times,serif" font-size="20.00" fill="#000000">Status&#45;Code</text>
</g>
<!-- SG_1_Node_1 -->
<g id="node15" class="node">
<title>SG_1_Node_1</title>
<polygon fill="none" stroke="#000000" points="663.5,-1121.3452 508.5,-1121.3452 508.5,-1085.3452 663.5,-1085.3452 663.5,-1121.3452"/>
<text text-anchor="middle" x="586" y="-1098.3452" font-family="Times,serif" font-size="20.00" fill="#000000">Content&#45;Type</text>
</g>
<!-- SG_1_Node_0&#45;&gt;SG_1_Node_1 -->
<g id="edge13" class="edge">
<title>SG_1_Node_0&#45;&gt;SG_1_Node_1</title>
<path fill="none" stroke="#000000" d="M629.113,-1264.4068C618.8302,-1254.6058 607.4413,-1241.6407 601,-1227.5584 587.0067,-1196.9658 584.4547,-1157.9268 584.6221,-1131.8582"/>
<polygon fill="#000000" stroke="#000000" points="588.1278,-1131.6126 584.8349,-1121.5425 581.1293,-1131.4682 588.1278,-1131.6126"/>
<text text-anchor="middle" x="647" y="-1200.5584" font-family="Times,serif" font-size="20.00" fill="#000000">[NA]</text>
<text text-anchor="middle" x="647" y="-1178.5584" font-family="Times,serif" font-size="20.00" fill="#000000">59 levels</text>
</g>
<!-- SG_1_Node_6 -->
<g id="node16" class="node">
<title>SG_1_Node_6</title>
<ellipse fill="none" stroke="#000000" cx="716" cy="-1103.3452" rx="34.7971" ry="21.4286"/>
<text text-anchor="middle" x="716" y="-1098.3452" font-family="Times,serif" font-size="20.00" fill="#000000">1.0</text>
</g>
<!-- SG_1_Node_0&#45;&gt;SG_1_Node_6 -->
<g id="edge14" class="edge">
<title>SG_1_Node_0&#45;&gt;SG_1_Node_6</title>
<path fill="none" stroke="#000000" d="M668.5889,-1264.1387C677.2376,-1254.0753 687.055,-1240.9562 693,-1227.5584 706.2126,-1197.7825 711.8359,-1160.7431 714.2286,-1134.8931"/>
<polygon fill="#000000" stroke="#000000" points="717.7196,-1135.1455 715.0451,-1124.8939 710.7428,-1134.5758 717.7196,-1135.1455"/>
<text text-anchor="middle" x="729.5" y="-1211.5584" font-family="Times,serif" font-size="20.00" fill="#000000">100</text>
<text text-anchor="middle" x="729.5" y="-1189.5584" font-family="Times,serif" font-size="20.00" fill="#000000">102</text>
<text text-anchor="middle" x="729.5" y="-1167.5584" font-family="Times,serif" font-size="20.00" fill="#000000">103</text>
</g>
<!-- SG_1_Node_7 -->
<g id="node17" class="node">
<title>SG_1_Node_7</title>
<ellipse fill="none" stroke="#000000" cx="480" cy="-832.9188" rx="34.7971" ry="21.4286"/>
<text text-anchor="middle" x="480" y="-827.9188" font-family="Times,serif" font-size="20.00" fill="#000000">0.0</text>
</g>
<!-- SG_1_Node_1&#45;&gt;SG_1_Node_7 -->
<g id="edge15" class="edge">
<title>SG_1_Node_1&#45;&gt;SG_1_Node_7</title>
<path fill="none" stroke="#000000" d="M521.1732,-1085.2724C501.6291,-1076.4609 482.3659,-1063.6246 471,-1045.132 436.3371,-988.7347 454.7136,-907.0809 468.788,-863.3246"/>
<polygon fill="#000000" stroke="#000000" points="472.1145,-864.413 471.9716,-853.8191 465.4769,-862.1899 472.1145,-864.413"/>
<text text-anchor="middle" x="582" y="-1029.132" font-family="Times,serif" font-size="20.00" fill="#000000">[NA]</text>
<text text-anchor="middle" x="582" y="-1007.132" font-family="Times,serif" font-size="20.00" fill="#000000">application/javascript</text>
<text text-anchor="middle" x="582" y="-985.132" font-family="Times,serif" font-size="20.00" fill="#000000">application/pdf</text>
<text text-anchor="middle" x="582" y="-963.132" font-family="Times,serif" font-size="20.00" fill="#000000">audio/wav</text>
<text text-anchor="middle" x="582" y="-941.132" font-family="Times,serif" font-size="20.00" fill="#000000">image/png</text>
<text text-anchor="middle" x="582" y="-919.132" font-family="Times,serif" font-size="20.00" fill="#000000">text/html</text>
<text text-anchor="middle" x="582" y="-897.132" font-family="Times,serif" font-size="20.00" fill="#000000">video/mp4</text>
</g>
<!-- SG_1_Node_2 -->
<g id="node18" class="node">
<title>SG_1_Node_2</title>
<polygon fill="none" stroke="#000000" points="762,-850.9188 620,-850.9188 620,-814.9188 762,-814.9188 762,-850.9188"/>
<text text-anchor="middle" x="691" y="-827.9188" font-family="Times,serif" font-size="20.00" fill="#000000">Status&#45;Code</text>
</g>
<!-- SG_1_Node_1&#45;&gt;SG_1_Node_2 -->
<g id="edge16" class="edge">
<title>SG_1_Node_1&#45;&gt;SG_1_Node_2</title>
<path fill="none" stroke="#000000" d="M647.4602,-1085.316C666.7265,-1076.4484 685.8523,-1063.566 697,-1045.132 731.8872,-987.4419 713.8557,-903.8496 700.7174,-860.8238"/>
<polygon fill="#000000" stroke="#000000" points="703.9721,-859.5099 697.5997,-851.0457 697.3029,-861.6364 703.9721,-859.5099"/>
<text text-anchor="middle" x="756.5" y="-974.132" font-family="Times,serif" font-size="20.00" fill="#000000">empty</text>
<text text-anchor="middle" x="756.5" y="-952.132" font-family="Times,serif" font-size="20.00" fill="#000000">text/css</text>
</g>
<!-- SG_1_Node_8 -->
<g id="node19" class="node">
<title>SG_1_Node_8</title>
<ellipse fill="none" stroke="#000000" cx="480" cy="-496.4924" rx="34.7971" ry="21.4286"/>
<text text-anchor="middle" x="480" y="-491.4924" font-family="Times,serif" font-size="20.00" fill="#000000">0.0</text>
</g>
<!-- SG_1_Node_2&#45;&gt;SG_1_Node_8 -->
<g id="edge17" class="edge">
<title>SG_1_Node_2&#45;&gt;SG_1_Node_8</title>
<path fill="none" stroke="#000000" d="M648.9917,-814.8791C630.4455,-805.197 609.5911,-791.7216 595,-774.7056 530.4378,-699.4139 498.4006,-582.8677 486.145,-527.6032"/>
<polygon fill="#000000" stroke="#000000" points="489.5417,-526.7503 484.0185,-517.709 482.698,-528.2213 489.5417,-526.7503"/>
<text text-anchor="middle" x="641" y="-670.7056" font-family="Times,serif" font-size="20.00" fill="#000000">[NA]</text>
<text text-anchor="middle" x="641" y="-648.7056" font-family="Times,serif" font-size="20.00" fill="#000000">49 levels</text>
</g>
<!-- SG_1_Node_3 -->
<g id="node20" class="node">
<title>SG_1_Node_3</title>
<polygon fill="none" stroke="#000000" points="849.5,-514.4924 532.5,-514.4924 532.5,-478.4924 849.5,-478.4924 849.5,-514.4924"/>
<text text-anchor="middle" x="691" y="-491.4924" font-family="Times,serif" font-size="20.00" fill="#000000">Cross&#45;Origin&#45;Resource&#45;Policy</text>
</g>
<!-- SG_1_Node_2&#45;&gt;SG_1_Node_3 -->
<g id="edge18" class="edge">
<title>SG_1_Node_2&#45;&gt;SG_1_Node_3</title>
<path fill="none" stroke="#000000" d="M691,-814.8311C691,-759.4969 691,-592.1868 691,-524.9346"/>
<polygon fill="#000000" stroke="#000000" points="694.5001,-524.6696 691,-514.6696 687.5001,-524.6696 694.5001,-524.6696"/>
<text text-anchor="middle" x="710.5" y="-758.7056" font-family="Times,serif" font-size="20.00" fill="#000000">200</text>
<text text-anchor="middle" x="710.5" y="-736.7056" font-family="Times,serif" font-size="20.00" fill="#000000">201</text>
<text text-anchor="middle" x="710.5" y="-714.7056" font-family="Times,serif" font-size="20.00" fill="#000000">202</text>
<text text-anchor="middle" x="710.5" y="-692.7056" font-family="Times,serif" font-size="20.00" fill="#000000">203</text>
<text text-anchor="middle" x="710.5" y="-670.7056" font-family="Times,serif" font-size="20.00" fill="#000000">204</text>
<text text-anchor="middle" x="710.5" y="-648.7056" font-family="Times,serif" font-size="20.00" fill="#000000">205</text>
<text text-anchor="middle" x="710.5" y="-626.7056" font-family="Times,serif" font-size="20.00" fill="#000000">206</text>
<text text-anchor="middle" x="710.5" y="-604.7056" font-family="Times,serif" font-size="20.00" fill="#000000">207</text>
<text text-anchor="middle" x="710.5" y="-582.7056" font-family="Times,serif" font-size="20.00" fill="#000000">208</text>
<text text-anchor="middle" x="710.5" y="-560.7056" font-family="Times,serif" font-size="20.00" fill="#000000">226</text>
</g>
<!-- SG_1_Node_9 -->
<g id="node21" class="node">
<title>SG_1_Node_9</title>
<ellipse fill="none" stroke="#000000" cx="518" cy="-336.066" rx="34.7971" ry="21.4286"/>
<text text-anchor="middle" x="518" y="-331.066" font-family="Times,serif" font-size="20.00" fill="#000000">0.0</text>
</g>
<!-- SG_1_Node_3&#45;&gt;SG_1_Node_9 -->
<g id="edge19" class="edge">
<title>SG_1_Node_3&#45;&gt;SG_1_Node_9</title>
<path fill="none" stroke="#000000" d="M633.9472,-478.4308C611.6174,-469.1791 587.0792,-456.0428 569,-438.2792 548.8818,-418.5121 535.3766,-389.1622 527.3459,-366.9774"/>
<polygon fill="#000000" stroke="#000000" points="530.5971,-365.6685 524.0372,-357.3488 523.977,-367.9434 530.5971,-365.6685"/>
<text text-anchor="middle" x="630" y="-411.2792" font-family="Times,serif" font-size="20.00" fill="#000000">same&#45;origin</text>
</g>
<!-- SG_1_Node_4 -->
<g id="node22" class="node">
<title>SG_1_Node_4</title>
<polygon fill="none" stroke="#000000" points="833,-354.066 571,-354.066 571,-318.066 833,-318.066 833,-354.066"/>
<text text-anchor="middle" x="702" y="-331.066" font-family="Times,serif" font-size="20.00" fill="#000000">X&#45;Content&#45;Type&#45;Options</text>
</g>
<!-- SG_1_Node_3&#45;&gt;SG_1_Node_4 -->
<g id="edge20" class="edge">
<title>SG_1_Node_3&#45;&gt;SG_1_Node_4</title>
<path fill="none" stroke="#000000" d="M692.2405,-478.4013C694.1385,-450.7194 697.7805,-397.6042 700.0389,-364.6675"/>
<polygon fill="#000000" stroke="#000000" points="703.5548,-364.5532 700.7472,-354.3371 696.5712,-364.0743 703.5548,-364.5532"/>
<text text-anchor="middle" x="729" y="-422.2792" font-family="Times,serif" font-size="20.00" fill="#000000">[NA]</text>
<text text-anchor="middle" x="729" y="-400.2792" font-family="Times,serif" font-size="20.00" fill="#000000">empty</text>
</g>
<!-- SG_1_Node_5 -->
<g id="node23" class="node">
<title>SG_1_Node_5</title>
<polygon fill="none" stroke="#000000" points="656.5,-193.6396 501.5,-193.6396 501.5,-157.6396 656.5,-157.6396 656.5,-193.6396"/>
<text text-anchor="middle" x="579" y="-170.6396" font-family="Times,serif" font-size="20.00" fill="#000000">Content&#45;Type</text>
</g>
<!-- SG_1_Node_4&#45;&gt;SG_1_Node_5 -->
<g id="edge21" class="edge">
<title>SG_1_Node_4&#45;&gt;SG_1_Node_5</title>
<path fill="none" stroke="#000000" d="M674.2707,-317.989C659.7672,-307.5346 642.4845,-293.3911 630,-277.8528 611.878,-255.2979 597.8473,-225.2536 589.1305,-203.5819"/>
<polygon fill="#000000" stroke="#000000" points="592.2818,-202.0285 585.3937,-193.9784 585.7582,-204.5669 592.2818,-202.0285"/>
<text text-anchor="middle" x="665" y="-250.8528" font-family="Times,serif" font-size="20.00" fill="#000000">nosniff</text>
</g>
<!-- SG_1_Node_10 -->
<g id="node24" class="node">
<title>SG_1_Node_10</title>
<ellipse fill="none" stroke="#000000" cx="709" cy="-175.6396" rx="34.7971" ry="21.4286"/>
<text text-anchor="middle" x="709" y="-170.6396" font-family="Times,serif" font-size="20.00" fill="#000000">1.0</text>
</g>
<!-- SG_1_Node_4&#45;&gt;SG_1_Node_10 -->
<g id="edge22" class="edge">
<title>SG_1_Node_4&#45;&gt;SG_1_Node_10</title>
<path fill="none" stroke="#000000" d="M702.7894,-317.9749C703.9638,-291.06 706.1873,-240.1015 707.6306,-207.0242"/>
<polygon fill="#000000" stroke="#000000" points="711.1301,-207.1094 708.0694,-196.9663 704.1367,-206.8042 711.1301,-207.1094"/>
<text text-anchor="middle" x="738" y="-261.8528" font-family="Times,serif" font-size="20.00" fill="#000000">[NA]</text>
<text text-anchor="middle" x="738" y="-239.8528" font-family="Times,serif" font-size="20.00" fill="#000000">empty</text>
</g>
<!-- SG_1_Node_11 -->
<g id="node25" class="node">
<title>SG_1_Node_11</title>
<ellipse fill="none" stroke="#000000" cx="487" cy="-37.2132" rx="34.7971" ry="21.4286"/>
<text text-anchor="middle" x="487" y="-32.2132" font-family="Times,serif" font-size="20.00" fill="#000000">0.0</text>
</g>
<!-- SG_1_Node_5&#45;&gt;SG_1_Node_11 -->
<g id="edge23" class="edge">
<title>SG_1_Node_5&#45;&gt;SG_1_Node_11</title>
<path fill="none" stroke="#000000" d="M552.8974,-157.4276C539.6569,-147.0324 524.2512,-132.986 514,-117.4264 504.1857,-102.5298 497.6076,-83.7219 493.4036,-68.0629"/>
<polygon fill="#000000" stroke="#000000" points="496.7854,-67.1587 490.9736,-58.3002 489.9927,-68.8495 496.7854,-67.1587"/>
<text text-anchor="middle" x="546" y="-101.4264" font-family="Times,serif" font-size="20.00" fill="#000000">empty</text>
</g>
<!-- SG_1_Node_12 -->
<g id="node26" class="node">
<title>SG_1_Node_12</title>
<ellipse fill="none" stroke="#000000" cx="587" cy="-37.2132" rx="34.7971" ry="21.4286"/>
<text text-anchor="middle" x="587" y="-32.2132" font-family="Times,serif" font-size="20.00" fill="#000000">1.0</text>
</g>
<!-- SG_1_Node_5&#45;&gt;SG_1_Node_12 -->
<g id="edge24" class="edge">
<title>SG_1_Node_5&#45;&gt;SG_1_Node_12</title>
<path fill="none" stroke="#000000" d="M580.0459,-157.5428C581.347,-135.0281 583.5905,-96.2088 585.177,-68.7578"/>
<polygon fill="#000000" stroke="#000000" points="588.6874,-68.677 585.7703,-58.4917 581.699,-68.2731 588.6874,-68.677"/>
<text text-anchor="middle" x="622.5" y="-101.4264" font-family="Times,serif" font-size="20.00" fill="#000000">text/css</text>
</g>
</g>
</svg>
