<?xml version="1.0" encoding="UTF-8" standalone="no"?>
<!DOCTYPE svg PUBLIC "-//W3C//DTD SVG 1.1//EN"
 "http://www.w3.org/Graphics/SVG/1.1/DTD/svg11.dtd">
<!-- Generated by graphviz version 2.40.1 (20161225.0304)
 -->
<!-- Title: G Pages: 1 -->
<svg width="1394pt" height="1779pt"
 viewBox="0.00 0.00 1394.00 1778.98" xmlns="http://www.w3.org/2000/svg" xmlns:xlink="http://www.w3.org/1999/xlink">
<g id="graph0" class="graph" transform="scale(1 1) rotate(0) translate(4 1774.9848)">
<title>G</title>
<polygon fill="#ffffff" stroke="transparent" points="-4,4 -4,-1774.9848 1390,-1774.9848 1390,4 -4,4"/>
<g id="clust1" class="cluster">
<title>cluster_0</title>
<polygon fill="none" stroke="#000000" points="8,-8 8,-1762.9848 689,-1762.9848 689,-8 8,-8"/>
<text text-anchor="middle" x="348.5" y="-1726.9848" font-family="Times,serif" font-size="40.00" fill="#000000">Tree 0, Class rgb(0, 0, 0)</text>
</g>
<g id="clust11" class="cluster">
<title>cluster_1</title>
<polygon fill="none" stroke="#000000" points="697,-8 697,-1762.9848 1378,-1762.9848 1378,-8 697,-8"/>
<text text-anchor="middle" x="1037.5" y="-1726.9848" font-family="Times,serif" font-size="40.00" fill="#000000">Tree 0, Class rgb(0, 0, 255)</text>
</g>
<!-- SG_0_Node_0 -->
<g id="node1" class="node">
<title>SG_0_Node_0</title>
<polygon fill="none" stroke="#000000" points="453.5,-1702.9848 388.5,-1702.9848 388.5,-1666.9848 453.5,-1666.9848 453.5,-1702.9848"/>
<text text-anchor="middle" x="421" y="-1679.9848" font-family="Times,serif" font-size="20.00" fill="#000000">body</text>
</g>
<!-- SG_0_Node_1 -->
<g id="node2" class="node">
<title>SG_0_Node_1</title>
<polygon fill="none" stroke="#000000" points="333.5,-1545.7716 178.5,-1545.7716 178.5,-1509.7716 333.5,-1509.7716 333.5,-1545.7716"/>
<text text-anchor="middle" x="256" y="-1522.7716" font-family="Times,serif" font-size="20.00" fill="#000000">Content&#45;Type</text>
</g>
<!-- SG_0_Node_0&#45;&gt;SG_0_Node_1 -->
<g id="edge1" class="edge">
<title>SG_0_Node_0&#45;&gt;SG_0_Node_1</title>
<path fill="none" stroke="#000000" d="M388.4526,-1677.3128C348.7843,-1667.2823 285.1527,-1648.7686 270,-1629.9848 253.3774,-1609.379 251.283,-1578.4924 252.4815,-1556.0668"/>
<polygon fill="#000000" stroke="#000000" points="255.9925,-1556.0627 253.2852,-1545.8196 249.0139,-1555.5153 255.9925,-1556.0627"/>
<text text-anchor="middle" x="417.5" y="-1602.9848" font-family="Times,serif" font-size="20.00" fill="#000000">ecocnt_css=h1 {color: blue}</text>
</g>
<!-- SG_0_Node_11 -->
<g id="node3" class="node">
<title>SG_0_Node_11</title>
<ellipse fill="none" stroke="#000000" cx="587" cy="-1527.7716" rx="34.7971" ry="21.4286"/>
<text text-anchor="middle" x="587" y="-1522.7716" font-family="Times,serif" font-size="20.00" fill="#000000">1.0</text>
</g>
<!-- SG_0_Node_0&#45;&gt;SG_0_Node_11 -->
<g id="edge2" class="edge">
<title>SG_0_Node_0&#45;&gt;SG_0_Node_11</title>
<path fill="none" stroke="#000000" d="M453.5705,-1681.4942C486.6067,-1676.1755 536.7743,-1662.8914 565,-1629.9848 581.6557,-1610.5669 586.6403,-1581.5497 587.7563,-1559.388"/>
<polygon fill="#000000" stroke="#000000" points="591.2618,-1559.2206 588.0275,-1549.1315 584.2643,-1559.0355 591.2618,-1559.2206"/>
<text text-anchor="middle" x="630" y="-1613.9848" font-family="Times,serif" font-size="20.00" fill="#000000">[NA]</text>
<text text-anchor="middle" x="630" y="-1591.9848" font-family="Times,serif" font-size="20.00" fill="#000000">12 levels</text>
</g>
<!-- SG_0_Node_2 -->
<g id="node4" class="node">
<title>SG_0_Node_2</title>
<polygon fill="none" stroke="#000000" points="290,-1275.3452 148,-1275.3452 148,-1239.3452 290,-1239.3452 290,-1275.3452"/>
<text text-anchor="middle" x="219" y="-1252.3452" font-family="Times,serif" font-size="20.00" fill="#000000">Status&#45;Code</text>
</g>
<!-- SG_0_Node_1&#45;&gt;SG_0_Node_2 -->
<g id="edge3" class="edge">
<title>SG_0_Node_1&#45;&gt;SG_0_Node_2</title>
<path fill="none" stroke="#000000" d="M249.7366,-1509.6367C246.0499,-1498.2591 241.6117,-1483.2086 239,-1469.5584 226.5196,-1404.3299 221.7086,-1326.2655 219.9475,-1285.4176"/>
<polygon fill="#000000" stroke="#000000" points="223.4435,-1285.2458 219.5451,-1275.3942 216.4491,-1285.5266 223.4435,-1285.2458"/>
<text text-anchor="middle" x="278.5" y="-1398.5584" font-family="Times,serif" font-size="20.00" fill="#000000">empty</text>
<text text-anchor="middle" x="278.5" y="-1376.5584" font-family="Times,serif" font-size="20.00" fill="#000000">text/css</text>
</g>
<!-- SG_0_Node_12 -->
<g id="node5" class="node">
<title>SG_0_Node_12</title>
<ellipse fill="none" stroke="#000000" cx="343" cy="-1257.3452" rx="34.7971" ry="21.4286"/>
<text text-anchor="middle" x="343" y="-1252.3452" font-family="Times,serif" font-size="20.00" fill="#000000">1.0</text>
</g>
<!-- SG_0_Node_1&#45;&gt;SG_0_Node_12 -->
<g id="edge4" class="edge">
<title>SG_0_Node_1&#45;&gt;SG_0_Node_12</title>
<path fill="none" stroke="#000000" d="M282.8292,-1509.588C295.6646,-1499.3878 309.9555,-1485.5103 318,-1469.5584 347.5663,-1410.9293 348.199,-1331.9263 345.7739,-1288.7499"/>
<polygon fill="#000000" stroke="#000000" points="349.2539,-1288.3286 345.1072,-1278.579 342.2689,-1288.7865 349.2539,-1288.3286"/>
<text text-anchor="middle" x="457" y="-1453.5584" font-family="Times,serif" font-size="20.00" fill="#000000">[NA]</text>
<text text-anchor="middle" x="457" y="-1431.5584" font-family="Times,serif" font-size="20.00" fill="#000000">application/javascript</text>
<text text-anchor="middle" x="457" y="-1409.5584" font-family="Times,serif" font-size="20.00" fill="#000000">application/pdf</text>
<text text-anchor="middle" x="457" y="-1387.5584" font-family="Times,serif" font-size="20.00" fill="#000000">audio/wav</text>
<text text-anchor="middle" x="457" y="-1365.5584" font-family="Times,serif" font-size="20.00" fill="#000000">image/png</text>
<text text-anchor="middle" x="457" y="-1343.5584" font-family="Times,serif" font-size="20.00" fill="#000000">text/html</text>
<text text-anchor="middle" x="457" y="-1321.5584" font-family="Times,serif" font-size="20.00" fill="#000000">video/mp4</text>
</g>
<!-- SG_0_Node_3 -->
<g id="node6" class="node">
<title>SG_0_Node_3</title>
<polygon fill="none" stroke="#000000" points="367.5,-942.132 50.5,-942.132 50.5,-906.132 367.5,-906.132 367.5,-942.132"/>
<text text-anchor="middle" x="209" y="-919.132" font-family="Times,serif" font-size="20.00" fill="#000000">Cross&#45;Origin&#45;Resource&#45;Policy</text>
</g>
<!-- SG_0_Node_2&#45;&gt;SG_0_Node_3 -->
<g id="edge5" class="edge">
<title>SG_0_Node_2&#45;&gt;SG_0_Node_3</title>
<path fill="none" stroke="#000000" d="M218.4481,-1238.9556C216.792,-1183.7703 211.8559,-1019.2945 209.8558,-952.6499"/>
<polygon fill="#000000" stroke="#000000" points="213.3487,-952.3553 209.5502,-942.4648 206.3518,-952.5653 213.3487,-952.3553"/>
<text text-anchor="middle" x="236.5" y="-1183.132" font-family="Times,serif" font-size="20.00" fill="#000000">200</text>
<text text-anchor="middle" x="236.5" y="-1161.132" font-family="Times,serif" font-size="20.00" fill="#000000">201</text>
<text text-anchor="middle" x="236.5" y="-1139.132" font-family="Times,serif" font-size="20.00" fill="#000000">202</text>
<text text-anchor="middle" x="236.5" y="-1117.132" font-family="Times,serif" font-size="20.00" fill="#000000">203</text>
<text text-anchor="middle" x="236.5" y="-1095.132" font-family="Times,serif" font-size="20.00" fill="#000000">205</text>
<text text-anchor="middle" x="236.5" y="-1073.132" font-family="Times,serif" font-size="20.00" fill="#000000">206</text>
<text text-anchor="middle" x="236.5" y="-1051.132" font-family="Times,serif" font-size="20.00" fill="#000000">207</text>
<text text-anchor="middle" x="236.5" y="-1029.132" font-family="Times,serif" font-size="20.00" fill="#000000">208</text>
<text text-anchor="middle" x="236.5" y="-1007.132" font-family="Times,serif" font-size="20.00" fill="#000000">226</text>
<text text-anchor="middle" x="236.5" y="-985.132" font-family="Times,serif" font-size="20.00" fill="#000000">300</text>
</g>
<!-- SG_0_Node_4 -->
<g id="node7" class="node">
<title>SG_0_Node_4</title>
<polygon fill="none" stroke="#000000" points="528,-942.132 386,-942.132 386,-906.132 528,-906.132 528,-942.132"/>
<text text-anchor="middle" x="457" y="-919.132" font-family="Times,serif" font-size="20.00" fill="#000000">Status&#45;Code</text>
</g>
<!-- SG_0_Node_2&#45;&gt;SG_0_Node_4 -->
<g id="edge6" class="edge">
<title>SG_0_Node_2&#45;&gt;SG_0_Node_4</title>
<path fill="none" stroke="#000000" d="M232.1349,-1238.9556C271.9578,-1183.2013 391.46,-1015.8917 438.0807,-950.6201"/>
<polygon fill="#000000" stroke="#000000" points="440.9415,-952.6366 443.9057,-942.4648 435.2453,-948.568 440.9415,-952.6366"/>
<text text-anchor="middle" x="462" y="-1095.132" font-family="Times,serif" font-size="20.00" fill="#000000">[NA]</text>
<text text-anchor="middle" x="462" y="-1073.132" font-family="Times,serif" font-size="20.00" fill="#000000">52 levels</text>
</g>
<!-- SG_0_Node_5 -->
<g id="node8" class="node">
<title>SG_0_Node_5</title>
<polygon fill="none" stroke="#000000" points="278,-696.9188 16,-696.9188 16,-660.9188 278,-660.9188 278,-696.9188"/>
<text text-anchor="middle" x="147" y="-673.9188" font-family="Times,serif" font-size="20.00" fill="#000000">X&#45;Content&#45;Type&#45;Options</text>
</g>
<!-- SG_0_Node_3&#45;&gt;SG_0_Node_5 -->
<g id="edge17" class="edge">
<title>SG_0_Node_3&#45;&gt;SG_0_Node_5</title>
<path fill="none" stroke="#000000" d="M202.5894,-905.923C198.9525,-895.27 194.4525,-881.52 191,-869.132 175.1395,-812.2234 160.48,-744.6342 152.7382,-707.2874"/>
<polygon fill="#000000" stroke="#000000" points="156.0963,-706.2409 150.6533,-697.1511 149.2398,-707.6512 156.0963,-706.2409"/>
<text text-anchor="middle" x="223" y="-809.132" font-family="Times,serif" font-size="20.00" fill="#000000">[NA]</text>
<text text-anchor="middle" x="223" y="-787.132" font-family="Times,serif" font-size="20.00" fill="#000000">empty</text>
</g>
<!-- SG_0_Node_13 -->
<g id="node9" class="node">
<title>SG_0_Node_13</title>
<ellipse fill="none" stroke="#000000" cx="331" cy="-678.9188" rx="34.7971" ry="21.4286"/>
<text text-anchor="middle" x="331" y="-673.9188" font-family="Times,serif" font-size="20.00" fill="#000000">1.0</text>
</g>
<!-- SG_0_Node_3&#45;&gt;SG_0_Node_13 -->
<g id="edge18" class="edge">
<title>SG_0_Node_3&#45;&gt;SG_0_Node_13</title>
<path fill="none" stroke="#000000" d="M226.7657,-905.9137C236.0465,-895.7028 247.0862,-882.3846 255,-869.132 286.4649,-816.4404 310.0453,-748.3477 322.0723,-709.5646"/>
<polygon fill="#000000" stroke="#000000" points="325.4499,-710.4875 325.0171,-699.9015 318.7539,-708.4469 325.4499,-710.4875"/>
<text text-anchor="middle" x="374" y="-798.132" font-family="Times,serif" font-size="20.00" fill="#000000">same&#45;origin</text>
</g>
<!-- SG_0_Node_6 -->
<g id="node10" class="node">
<title>SG_0_Node_6</title>
<polygon fill="none" stroke="#000000" points="488.5,-696.9188 383.5,-696.9188 383.5,-660.9188 488.5,-660.9188 488.5,-696.9188"/>
<text text-anchor="middle" x="436" y="-673.9188" font-family="Times,serif" font-size="20.00" fill="#000000">Location</text>
</g>
<!-- SG_0_Node_4&#45;&gt;SG_0_Node_6 -->
<g id="edge7" class="edge">
<title>SG_0_Node_4&#45;&gt;SG_0_Node_6</title>
<path fill="none" stroke="#000000" d="M455.4558,-906.1009C451.8378,-863.8534 442.7895,-758.1985 438.427,-707.259"/>
<polygon fill="#000000" stroke="#000000" points="441.887,-706.6412 437.5464,-696.9764 434.9126,-707.2386 441.887,-706.6412"/>
<text text-anchor="middle" x="471.5" y="-853.132" font-family="Times,serif" font-size="20.00" fill="#000000">301</text>
<text text-anchor="middle" x="471.5" y="-831.132" font-family="Times,serif" font-size="20.00" fill="#000000">302</text>
<text text-anchor="middle" x="471.5" y="-809.132" font-family="Times,serif" font-size="20.00" fill="#000000">303</text>
<text text-anchor="middle" x="471.5" y="-787.132" font-family="Times,serif" font-size="20.00" fill="#000000">305</text>
<text text-anchor="middle" x="471.5" y="-765.132" font-family="Times,serif" font-size="20.00" fill="#000000">307</text>
<text text-anchor="middle" x="471.5" y="-743.132" font-family="Times,serif" font-size="20.00" fill="#000000">308</text>
</g>
<!-- SG_0_Node_14 -->
<g id="node11" class="node">
<title>SG_0_Node_14</title>
<ellipse fill="none" stroke="#000000" cx="541" cy="-678.9188" rx="34.7971" ry="21.4286"/>
<text text-anchor="middle" x="541" y="-673.9188" font-family="Times,serif" font-size="20.00" fill="#000000">1.0</text>
</g>
<!-- SG_0_Node_4&#45;&gt;SG_0_Node_14 -->
<g id="edge8" class="edge">
<title>SG_0_Node_4&#45;&gt;SG_0_Node_14</title>
<path fill="none" stroke="#000000" d="M472.1999,-905.8201C480.0201,-895.5817 489.1194,-882.2672 495,-869.132 518.7298,-816.128 531.2786,-749.105 536.9983,-710.4137"/>
<polygon fill="#000000" stroke="#000000" points="540.4955,-710.6797 538.4341,-700.2873 533.5648,-709.6969 540.4955,-710.6797"/>
<text text-anchor="middle" x="578" y="-809.132" font-family="Times,serif" font-size="20.00" fill="#000000">[NA]</text>
<text text-anchor="middle" x="578" y="-787.132" font-family="Times,serif" font-size="20.00" fill="#000000">46 levels</text>
</g>
<!-- SG_0_Node_15 -->
<g id="node12" class="node">
<title>SG_0_Node_15</title>
<ellipse fill="none" stroke="#000000" cx="51" cy="-496.4924" rx="34.7971" ry="21.4286"/>
<text text-anchor="middle" x="51" y="-491.4924" font-family="Times,serif" font-size="20.00" fill="#000000">0.0</text>
</g>
<!-- SG_0_Node_5&#45;&gt;SG_0_Node_15 -->
<g id="edge19" class="edge">
<title>SG_0_Node_5&#45;&gt;SG_0_Node_15</title>
<path fill="none" stroke="#000000" d="M124.186,-660.8033C112.2154,-650.2368 98.1721,-635.9992 89,-620.7056 71.6698,-591.8091 61.6245,-554.3307 56.264,-528.1315"/>
<polygon fill="#000000" stroke="#000000" points="59.6397,-527.1525 54.3083,-517.9968 52.7665,-528.4788 59.6397,-527.1525"/>
<text text-anchor="middle" x="121" y="-593.7056" font-family="Times,serif" font-size="20.00" fill="#000000">[NA]</text>
<text text-anchor="middle" x="121" y="-571.7056" font-family="Times,serif" font-size="20.00" fill="#000000">empty</text>
</g>
<!-- SG_0_Node_7 -->
<g id="node13" class="node">
<title>SG_0_Node_7</title>
<polygon fill="none" stroke="#000000" points="258.5,-514.4924 103.5,-514.4924 103.5,-478.4924 258.5,-478.4924 258.5,-514.4924"/>
<text text-anchor="middle" x="181" y="-491.4924" font-family="Times,serif" font-size="20.00" fill="#000000">Content&#45;Type</text>
</g>
<!-- SG_0_Node_5&#45;&gt;SG_0_Node_7 -->
<g id="edge20" class="edge">
<title>SG_0_Node_5&#45;&gt;SG_0_Node_7</title>
<path fill="none" stroke="#000000" d="M150.3844,-660.7602C156.3414,-628.7977 168.7356,-562.2969 175.7908,-524.4424"/>
<polygon fill="#000000" stroke="#000000" points="179.2378,-525.0497 177.6293,-514.5777 172.3563,-523.7671 179.2378,-525.0497"/>
<text text-anchor="middle" x="205" y="-582.7056" font-family="Times,serif" font-size="20.00" fill="#000000">nosniff</text>
</g>
<!-- SG_0_Node_8 -->
<g id="node14" class="node">
<title>SG_0_Node_8</title>
<polygon fill="none" stroke="#000000" points="593.5,-514.4924 276.5,-514.4924 276.5,-478.4924 593.5,-478.4924 593.5,-514.4924"/>
<text text-anchor="middle" x="435" y="-491.4924" font-family="Times,serif" font-size="20.00" fill="#000000">Cross&#45;Origin&#45;Resource&#45;Policy</text>
</g>
<!-- SG_0_Node_6&#45;&gt;SG_0_Node_8 -->
<g id="edge9" class="edge">
<title>SG_0_Node_6&#45;&gt;SG_0_Node_8</title>
<path fill="none" stroke="#000000" d="M388.513,-660.8221C360.4572,-649.059 328.9093,-633.5742 321,-620.7056 305.6403,-595.7151 305.6845,-579.7232 321,-554.7056 330.5452,-539.1137 345.7281,-527.5313 361.9395,-518.9915"/>
<polygon fill="#000000" stroke="#000000" points="363.5737,-522.0886 371.0224,-514.5541 360.501,-515.799 363.5737,-522.0886"/>
<text text-anchor="middle" x="353" y="-582.7056" font-family="Times,serif" font-size="20.00" fill="#000000">empty</text>
</g>
<!-- SG_0_Node_16 -->
<g id="node15" class="node">
<title>SG_0_Node_16</title>
<ellipse fill="none" stroke="#000000" cx="646" cy="-496.4924" rx="34.7971" ry="21.4286"/>
<text text-anchor="middle" x="646" y="-491.4924" font-family="Times,serif" font-size="20.00" fill="#000000">1.0</text>
</g>
<!-- SG_0_Node_6&#45;&gt;SG_0_Node_16 -->
<g id="edge10" class="edge">
<title>SG_0_Node_6&#45;&gt;SG_0_Node_16</title>
<path fill="none" stroke="#000000" d="M425.8315,-660.5909C412.666,-634.1121 394.1771,-585.017 419,-554.7056 471.8503,-490.1698 524.0421,-544.6069 603,-517.7056 605.5707,-516.8298 608.1845,-515.8326 610.7888,-514.7594"/>
<polygon fill="#000000" stroke="#000000" points="612.3722,-517.8856 620.0833,-510.6199 609.5243,-511.4911 612.3722,-517.8856"/>
<text text-anchor="middle" x="556" y="-604.7056" font-family="Times,serif" font-size="20.00" fill="#000000">[NA]</text>
<text text-anchor="middle" x="556" y="-582.7056" font-family="Times,serif" font-size="20.00" fill="#000000">/</text>
<text text-anchor="middle" x="556" y="-560.7056" font-family="Times,serif" font-size="20.00" fill="#000000">http://localhost:8000/echo/</text>
</g>
<!-- SG_0_Node_17 -->
<g id="node16" class="node">
<title>SG_0_Node_17</title>
<ellipse fill="none" stroke="#000000" cx="74" cy="-336.066" rx="34.7971" ry="21.4286"/>
<text text-anchor="middle" x="74" y="-331.066" font-family="Times,serif" font-size="20.00" fill="#000000">0.0</text>
</g>
<!-- SG_0_Node_7&#45;&gt;SG_0_Node_17 -->
<g id="edge21" class="edge">
<title>SG_0_Node_7&#45;&gt;SG_0_Node_17</title>
<path fill="none" stroke="#000000" d="M145.3864,-478.4497C129.313,-468.6185 111.4131,-455.0204 100,-438.2792 85.6408,-417.2166 79.21,-388.8338 76.3309,-367.3216"/>
<polygon fill="#000000" stroke="#000000" points="79.8066,-366.9083 75.1837,-357.3753 72.8527,-367.7105 79.8066,-366.9083"/>
<text text-anchor="middle" x="139.5" y="-411.2792" font-family="Times,serif" font-size="20.00" fill="#000000">text/css</text>
</g>
<!-- SG_0_Node_18 -->
<g id="node17" class="node">
<title>SG_0_Node_18</title>
<ellipse fill="none" stroke="#000000" cx="189" cy="-336.066" rx="34.7971" ry="21.4286"/>
<text text-anchor="middle" x="189" y="-331.066" font-family="Times,serif" font-size="20.00" fill="#000000">1.0</text>
</g>
<!-- SG_0_Node_7&#45;&gt;SG_0_Node_18 -->
<g id="edge22" class="edge">
<title>SG_0_Node_7&#45;&gt;SG_0_Node_18</title>
<path fill="none" stroke="#000000" d="M181.9022,-478.4013C183.2443,-451.4864 185.7855,-400.5279 187.4349,-367.4506"/>
<polygon fill="#000000" stroke="#000000" points="190.934,-367.5547 187.9365,-357.3927 183.9427,-367.206 190.934,-367.5547"/>
<text text-anchor="middle" x="218" y="-411.2792" font-family="Times,serif" font-size="20.00" fill="#000000">empty</text>
</g>
<!-- SG_0_Node_9 -->
<g id="node18" class="node">
<title>SG_0_Node_9</title>
<polygon fill="none" stroke="#000000" points="519,-354.066 257,-354.066 257,-318.066 519,-318.066 519,-354.066"/>
<text text-anchor="middle" x="388" y="-331.066" font-family="Times,serif" font-size="20.00" fill="#000000">X&#45;Content&#45;Type&#45;Options</text>
</g>
<!-- SG_0_Node_8&#45;&gt;SG_0_Node_9 -->
<g id="edge11" class="edge">
<title>SG_0_Node_8&#45;&gt;SG_0_Node_9</title>
<path fill="none" stroke="#000000" d="M429.6999,-478.4013C421.5547,-450.5991 405.8933,-397.1419 396.2538,-364.2391"/>
<polygon fill="#000000" stroke="#000000" points="399.5233,-362.9497 393.3529,-354.3371 392.8056,-364.9178 399.5233,-362.9497"/>
<text text-anchor="middle" x="449" y="-422.2792" font-family="Times,serif" font-size="20.00" fill="#000000">[NA]</text>
<text text-anchor="middle" x="449" y="-400.2792" font-family="Times,serif" font-size="20.00" fill="#000000">empty</text>
</g>
<!-- SG_0_Node_19 -->
<g id="node19" class="node">
<title>SG_0_Node_19</title>
<ellipse fill="none" stroke="#000000" cx="572" cy="-336.066" rx="34.7971" ry="21.4286"/>
<text text-anchor="middle" x="572" y="-331.066" font-family="Times,serif" font-size="20.00" fill="#000000">1.0</text>
</g>
<!-- SG_0_Node_8&#45;&gt;SG_0_Node_19 -->
<g id="edge12" class="edge">
<title>SG_0_Node_8&#45;&gt;SG_0_Node_19</title>
<path fill="none" stroke="#000000" d="M450.5612,-478.4173C460.4391,-466.933 473.485,-451.7466 485,-438.2792 506.9255,-412.6363 531.8778,-383.3054 549.4205,-362.6599"/>
<polygon fill="#000000" stroke="#000000" points="552.1834,-364.8135 555.9904,-354.9263 546.8485,-360.2814 552.1834,-364.8135"/>
<text text-anchor="middle" x="583" y="-411.2792" font-family="Times,serif" font-size="20.00" fill="#000000">same&#45;origin</text>
</g>
<!-- SG_0_Node_20 -->
<g id="node20" class="node">
<title>SG_0_Node_20</title>
<ellipse fill="none" stroke="#000000" cx="322" cy="-175.6396" rx="34.7971" ry="21.4286"/>
<text text-anchor="middle" x="322" y="-170.6396" font-family="Times,serif" font-size="20.00" fill="#000000">0.0</text>
</g>
<!-- SG_0_Node_9&#45;&gt;SG_0_Node_20 -->
<g id="edge13" class="edge">
<title>SG_0_Node_9&#45;&gt;SG_0_Node_20</title>
<path fill="none" stroke="#000000" d="M370.392,-317.8496C360.8959,-307.0386 349.7681,-292.5966 343,-277.8528 332.7024,-255.4204 327.4176,-227.9128 324.7266,-207.0866"/>
<polygon fill="#000000" stroke="#000000" points="328.1703,-206.3981 323.543,-196.8672 321.2168,-207.2035 328.1703,-206.3981"/>
<text text-anchor="middle" x="375" y="-261.8528" font-family="Times,serif" font-size="20.00" fill="#000000">[NA]</text>
<text text-anchor="middle" x="375" y="-239.8528" font-family="Times,serif" font-size="20.00" fill="#000000">empty</text>
</g>
<!-- SG_0_Node_10 -->
<g id="node21" class="node">
<title>SG_0_Node_10</title>
<polygon fill="none" stroke="#000000" points="529.5,-193.6396 374.5,-193.6396 374.5,-157.6396 529.5,-157.6396 529.5,-193.6396"/>
<text text-anchor="middle" x="452" y="-170.6396" font-family="Times,serif" font-size="20.00" fill="#000000">Content&#45;Type</text>
</g>
<!-- SG_0_Node_9&#45;&gt;SG_0_Node_10 -->
<g id="edge14" class="edge">
<title>SG_0_Node_9&#45;&gt;SG_0_Node_10</title>
<path fill="none" stroke="#000000" d="M395.2172,-317.9749C406.3566,-290.0523 427.8194,-236.2521 440.9307,-203.3865"/>
<polygon fill="#000000" stroke="#000000" points="444.2564,-204.4958 444.711,-193.9107 437.7547,-201.902 444.2564,-204.4958"/>
<text text-anchor="middle" x="463" y="-250.8528" font-family="Times,serif" font-size="20.00" fill="#000000">nosniff</text>
</g>
<!-- SG_0_Node_21 -->
<g id="node22" class="node">
<title>SG_0_Node_21</title>
<ellipse fill="none" stroke="#000000" cx="394" cy="-37.2132" rx="34.7971" ry="21.4286"/>
<text text-anchor="middle" x="394" y="-32.2132" font-family="Times,serif" font-size="20.00" fill="#000000">0.0</text>
</g>
<!-- SG_0_Node_10&#45;&gt;SG_0_Node_21 -->
<g id="edge15" class="edge">
<title>SG_0_Node_10&#45;&gt;SG_0_Node_21</title>
<path fill="none" stroke="#000000" d="M426.1225,-157.4582C413.9093,-147.2585 400.5914,-133.3809 394,-117.4264 387.6922,-102.1585 387.2302,-83.8169 388.5508,-68.5284"/>
<polygon fill="#000000" stroke="#000000" points="392.0378,-68.8409 389.6999,-58.5072 385.0834,-68.0434 392.0378,-68.8409"/>
<text text-anchor="middle" x="433.5" y="-101.4264" font-family="Times,serif" font-size="20.00" fill="#000000">text/css</text>
</g>
<!-- SG_0_Node_22 -->
<g id="node23" class="node">
<title>SG_0_Node_22</title>
<ellipse fill="none" stroke="#000000" cx="509" cy="-37.2132" rx="34.7971" ry="21.4286"/>
<text text-anchor="middle" x="509" y="-32.2132" font-family="Times,serif" font-size="20.00" fill="#000000">1.0</text>
</g>
<!-- SG_0_Node_10&#45;&gt;SG_0_Node_22 -->
<g id="edge16" class="edge">
<title>SG_0_Node_10&#45;&gt;SG_0_Node_22</title>
<path fill="none" stroke="#000000" d="M459.8917,-157.5979C464.8738,-146.1266 471.403,-130.942 477,-117.4264 483.8232,-100.9497 491.2141,-82.4676 497.1721,-67.4007"/>
<polygon fill="#000000" stroke="#000000" points="500.4477,-68.6349 500.8601,-58.0481 493.9357,-66.067 500.4477,-68.6349"/>
<text text-anchor="middle" x="517" y="-101.4264" font-family="Times,serif" font-size="20.00" fill="#000000">empty</text>
</g>
<!-- SG_1_Node_0 -->
<g id="node24" class="node">
<title>SG_1_Node_0</title>
<polygon fill="none" stroke="#000000" points="901.5,-1702.9848 836.5,-1702.9848 836.5,-1666.9848 901.5,-1666.9848 901.5,-1702.9848"/>
<text text-anchor="middle" x="869" y="-1679.9848" font-family="Times,serif" font-size="20.00" fill="#000000">body</text>
</g>
<!-- SG_1_Node_11 -->
<g id="node25" class="node">
<title>SG_1_Node_11</title>
<ellipse fill="none" stroke="#000000" cx="804" cy="-1527.7716" rx="34.7971" ry="21.4286"/>
<text text-anchor="middle" x="804" y="-1522.7716" font-family="Times,serif" font-size="20.00" fill="#000000">0.0</text>
</g>
<!-- SG_1_Node_0&#45;&gt;SG_1_Node_11 -->
<g id="edge23" class="edge">
<title>SG_1_Node_0&#45;&gt;SG_1_Node_11</title>
<path fill="none" stroke="#000000" d="M847.2648,-1666.7626C837.0207,-1656.9436 825.6206,-1643.9837 819,-1629.9848 808.5523,-1607.8938 804.9768,-1580.3642 803.9177,-1559.4428"/>
<polygon fill="#000000" stroke="#000000" points="807.4063,-1559.0443 803.5702,-1549.1684 800.4103,-1559.281 807.4063,-1559.0443"/>
<text text-anchor="middle" x="865" y="-1613.9848" font-family="Times,serif" font-size="20.00" fill="#000000">[NA]</text>
<text text-anchor="middle" x="865" y="-1591.9848" font-family="Times,serif" font-size="20.00" fill="#000000">12 levels</text>
</g>
<!-- SG_1_Node_1 -->
<g id="node26" class="node">
<title>SG_1_Node_1</title>
<polygon fill="none" stroke="#000000" points="1011.5,-1545.7716 856.5,-1545.7716 856.5,-1509.7716 1011.5,-1509.7716 1011.5,-1545.7716"/>
<text text-anchor="middle" x="934" y="-1522.7716" font-family="Times,serif" font-size="20.00" fill="#000000">Content&#45;Type</text>
</g>
<!-- SG_1_Node_0&#45;&gt;SG_1_Node_1 -->
<g id="edge24" class="edge">
<title>SG_1_Node_0&#45;&gt;SG_1_Node_1</title>
<path fill="none" stroke="#000000" d="M885.9577,-1666.9634C894.6473,-1656.8101 904.6983,-1643.4842 911,-1629.9848 922.0577,-1606.2976 927.9487,-1576.9918 930.9891,-1555.8415"/>
<polygon fill="#000000" stroke="#000000" points="934.4645,-1556.257 932.2973,-1545.8863 927.5242,-1555.345 934.4645,-1556.257"/>
<text text-anchor="middle" x="1072.5" y="-1602.9848" font-family="Times,serif" font-size="20.00" fill="#000000">ecocnt_css=h1 {color: blue}</text>
</g>
<!-- SG_1_Node_12 -->
<g id="node27" class="node">
<title>SG_1_Node_12</title>
<ellipse fill="none" stroke="#000000" cx="780" cy="-1257.3452" rx="34.7971" ry="21.4286"/>
<text text-anchor="middle" x="780" y="-1252.3452" font-family="Times,serif" font-size="20.00" fill="#000000">0.0</text>
</g>
<!-- SG_1_Node_1&#45;&gt;SG_1_Node_12 -->
<g id="edge25" class="edge">
<title>SG_1_Node_1&#45;&gt;SG_1_Node_12</title>
<path fill="none" stroke="#000000" d="M863.9579,-1509.6982C828.2998,-1498.9334 790.3184,-1484.4899 780,-1469.5584 742.3023,-1415.0073 757.6112,-1332.2682 770.0274,-1287.9395"/>
<polygon fill="#000000" stroke="#000000" points="773.3954,-1288.892 772.8498,-1278.3113 766.6781,-1286.9229 773.3954,-1288.892"/>
<text text-anchor="middle" x="891" y="-1453.5584" font-family="Times,serif" font-size="20.00" fill="#000000">[NA]</text>
<text text-anchor="middle" x="891" y="-1431.5584" font-family="Times,serif" font-size="20.00" fill="#000000">application/javascript</text>
<text text-anchor="middle" x="891" y="-1409.5584" font-family="Times,serif" font-size="20.00" fill="#000000">application/pdf</text>
<text text-anchor="middle" x="891" y="-1387.5584" font-family="Times,serif" font-size="20.00" fill="#000000">audio/wav</text>
<text text-anchor="middle" x="891" y="-1365.5584" font-family="Times,serif" font-size="20.00" fill="#000000">image/png</text>
<text text-anchor="middle" x="891" y="-1343.5584" font-family="Times,serif" font-size="20.00" fill="#000000">text/html</text>
<text text-anchor="middle" x="891" y="-1321.5584" font-family="Times,serif" font-size="20.00" fill="#000000">video/mp4</text>
</g>
<!-- SG_1_Node_2 -->
<g id="node28" class="node">
<title>SG_1_Node_2</title>
<polygon fill="none" stroke="#000000" points="1109,-1275.3452 967,-1275.3452 967,-1239.3452 1109,-1239.3452 1109,-1275.3452"/>
<text text-anchor="middle" x="1038" y="-1252.3452" font-family="Times,serif" font-size="20.00" fill="#000000">Status&#45;Code</text>
</g>
<!-- SG_1_Node_1&#45;&gt;SG_1_Node_2 -->
<g id="edge26" class="edge">
<title>SG_1_Node_1&#45;&gt;SG_1_Node_2</title>
<path fill="none" stroke="#000000" d="M965.99,-1509.6087C980.5367,-1499.6706 996.5707,-1486.0166 1006,-1469.5584 1039.6519,-1410.8215 1041.6557,-1328.5685 1039.9833,-1285.7631"/>
<polygon fill="#000000" stroke="#000000" points="1043.4668,-1285.3395 1039.4814,-1275.5229 1036.4752,-1285.6823 1043.4668,-1285.3395"/>
<text text-anchor="middle" x="1079.5" y="-1398.5584" font-family="Times,serif" font-size="20.00" fill="#000000">empty</text>
<text text-anchor="middle" x="1079.5" y="-1376.5584" font-family="Times,serif" font-size="20.00" fill="#000000">text/css</text>
</g>
<!-- SG_1_Node_3 -->
<g id="node29" class="node">
<title>SG_1_Node_3</title>
<polygon fill="none" stroke="#000000" points="936,-942.132 794,-942.132 794,-906.132 936,-906.132 936,-942.132"/>
<text text-anchor="middle" x="865" y="-919.132" font-family="Times,serif" font-size="20.00" fill="#000000">Status&#45;Code</text>
</g>
<!-- SG_1_Node_2&#45;&gt;SG_1_Node_3 -->
<g id="edge27" class="edge">
<title>SG_1_Node_2&#45;&gt;SG_1_Node_3</title>
<path fill="none" stroke="#000000" d="M1002.007,-1239.1293C985.6506,-1229.2586 967.2602,-1215.6773 955,-1199.132 897.5002,-1121.5352 875.6051,-1005.3897 868.2663,-952.3594"/>
<polygon fill="#000000" stroke="#000000" points="871.7217,-951.7904 866.9499,-942.331 864.7813,-952.7015 871.7217,-951.7904"/>
<text text-anchor="middle" x="1001" y="-1095.132" font-family="Times,serif" font-size="20.00" fill="#000000">[NA]</text>
<text text-anchor="middle" x="1001" y="-1073.132" font-family="Times,serif" font-size="20.00" fill="#000000">52 levels</text>
</g>
<!-- SG_1_Node_4 -->
<g id="node30" class="node">
<title>SG_1_Node_4</title>
<polygon fill="none" stroke="#000000" points="1271.5,-942.132 954.5,-942.132 954.5,-906.132 1271.5,-906.132 1271.5,-942.132"/>
<text text-anchor="middle" x="1113" y="-919.132" font-family="Times,serif" font-size="20.00" fill="#000000">Cross&#45;Origin&#45;Resource&#45;Policy</text>
</g>
<!-- SG_1_Node_2&#45;&gt;SG_1_Node_4 -->
<g id="edge28" class="edge">
<title>SG_1_Node_2&#45;&gt;SG_1_Node_4</title>
<path fill="none" stroke="#000000" d="M1042.1392,-1238.9556C1054.586,-1183.6565 1091.7335,-1018.6158 1106.6737,-952.2389"/>
<polygon fill="#000000" stroke="#000000" points="1110.0923,-952.9893 1108.8736,-942.4648 1103.2631,-951.4522 1110.0923,-952.9893"/>
<text text-anchor="middle" x="1119.5" y="-1183.132" font-family="Times,serif" font-size="20.00" fill="#000000">200</text>
<text text-anchor="middle" x="1119.5" y="-1161.132" font-family="Times,serif" font-size="20.00" fill="#000000">201</text>
<text text-anchor="middle" x="1119.5" y="-1139.132" font-family="Times,serif" font-size="20.00" fill="#000000">202</text>
<text text-anchor="middle" x="1119.5" y="-1117.132" font-family="Times,serif" font-size="20.00" fill="#000000">203</text>
<text text-anchor="middle" x="1119.5" y="-1095.132" font-family="Times,serif" font-size="20.00" fill="#000000">205</text>
<text text-anchor="middle" x="1119.5" y="-1073.132" font-family="Times,serif" font-size="20.00" fill="#000000">206</text>
<text text-anchor="middle" x="1119.5" y="-1051.132" font-family="Times,serif" font-size="20.00" fill="#000000">207</text>
<text text-anchor="middle" x="1119.5" y="-1029.132" font-family="Times,serif" font-size="20.00" fill="#000000">208</text>
<text text-anchor="middle" x="1119.5" y="-1007.132" font-family="Times,serif" font-size="20.00" fill="#000000">226</text>
<text text-anchor="middle" x="1119.5" y="-985.132" font-family="Times,serif" font-size="20.00" fill="#000000">300</text>
</g>
<!-- SG_1_Node_13 -->
<g id="node31" class="node">
<title>SG_1_Node_13</title>
<ellipse fill="none" stroke="#000000" cx="772" cy="-678.9188" rx="34.7971" ry="21.4286"/>
<text text-anchor="middle" x="772" y="-673.9188" font-family="Times,serif" font-size="20.00" fill="#000000">0.0</text>
</g>
<!-- SG_1_Node_3&#45;&gt;SG_1_Node_13 -->
<g id="edge35" class="edge">
<title>SG_1_Node_3&#45;&gt;SG_1_Node_13</title>
<path fill="none" stroke="#000000" d="M818.1406,-905.942C802.2522,-897.2931 786.2082,-885.243 777,-869.132 748.5599,-819.3725 756.3721,-749.6934 764.3614,-709.9492"/>
<polygon fill="#000000" stroke="#000000" points="767.8103,-710.5583 766.4818,-700.0471 760.9654,-709.0926 767.8103,-710.5583"/>
<text text-anchor="middle" x="823" y="-809.132" font-family="Times,serif" font-size="20.00" fill="#000000">[NA]</text>
<text text-anchor="middle" x="823" y="-787.132" font-family="Times,serif" font-size="20.00" fill="#000000">46 levels</text>
</g>
<!-- SG_1_Node_5 -->
<g id="node32" class="node">
<title>SG_1_Node_5</title>
<polygon fill="none" stroke="#000000" points="952.5,-696.9188 847.5,-696.9188 847.5,-660.9188 952.5,-660.9188 952.5,-696.9188"/>
<text text-anchor="middle" x="900" y="-673.9188" font-family="Times,serif" font-size="20.00" fill="#000000">Location</text>
</g>
<!-- SG_1_Node_3&#45;&gt;SG_1_Node_5 -->
<g id="edge36" class="edge">
<title>SG_1_Node_3&#45;&gt;SG_1_Node_5</title>
<path fill="none" stroke="#000000" d="M867.5736,-906.1009C873.6164,-863.7649 888.7475,-757.7552 896.0005,-706.9394"/>
<polygon fill="#000000" stroke="#000000" points="899.4744,-707.3706 897.4226,-696.9764 892.5446,-706.3815 899.4744,-707.3706"/>
<text text-anchor="middle" x="910.5" y="-853.132" font-family="Times,serif" font-size="20.00" fill="#000000">301</text>
<text text-anchor="middle" x="910.5" y="-831.132" font-family="Times,serif" font-size="20.00" fill="#000000">302</text>
<text text-anchor="middle" x="910.5" y="-809.132" font-family="Times,serif" font-size="20.00" fill="#000000">303</text>
<text text-anchor="middle" x="910.5" y="-787.132" font-family="Times,serif" font-size="20.00" fill="#000000">305</text>
<text text-anchor="middle" x="910.5" y="-765.132" font-family="Times,serif" font-size="20.00" fill="#000000">307</text>
<text text-anchor="middle" x="910.5" y="-743.132" font-family="Times,serif" font-size="20.00" fill="#000000">308</text>
</g>
<!-- SG_1_Node_14 -->
<g id="node33" class="node">
<title>SG_1_Node_14</title>
<ellipse fill="none" stroke="#000000" cx="1036" cy="-678.9188" rx="34.7971" ry="21.4286"/>
<text text-anchor="middle" x="1036" y="-673.9188" font-family="Times,serif" font-size="20.00" fill="#000000">0.0</text>
</g>
<!-- SG_1_Node_4&#45;&gt;SG_1_Node_14 -->
<g id="edge29" class="edge">
<title>SG_1_Node_4&#45;&gt;SG_1_Node_14</title>
<path fill="none" stroke="#000000" d="M1094.4908,-905.8801C1085.4077,-895.8627 1075.1275,-882.7339 1069,-869.132 1045.4063,-816.7584 1038.6129,-749.2568 1036.6996,-710.357"/>
<polygon fill="#000000" stroke="#000000" points="1040.1891,-710.0272 1036.2795,-700.1801 1033.1951,-710.316 1040.1891,-710.0272"/>
<text text-anchor="middle" x="1130" y="-798.132" font-family="Times,serif" font-size="20.00" fill="#000000">same&#45;origin</text>
</g>
<!-- SG_1_Node_6 -->
<g id="node34" class="node">
<title>SG_1_Node_6</title>
<polygon fill="none" stroke="#000000" points="1351,-696.9188 1089,-696.9188 1089,-660.9188 1351,-660.9188 1351,-696.9188"/>
<text text-anchor="middle" x="1220" y="-673.9188" font-family="Times,serif" font-size="20.00" fill="#000000">X&#45;Content&#45;Type&#45;Options</text>
</g>
<!-- SG_1_Node_4&#45;&gt;SG_1_Node_6 -->
<g id="edge30" class="edge">
<title>SG_1_Node_4&#45;&gt;SG_1_Node_6</title>
<path fill="none" stroke="#000000" d="M1150.8163,-905.9946C1165.662,-896.9673 1181.4116,-884.6327 1191,-869.132 1222.2422,-818.6253 1224.0772,-746.5312 1222.2821,-707.1925"/>
<polygon fill="#000000" stroke="#000000" points="1225.7652,-706.795 1221.7009,-697.0107 1218.7765,-707.1939 1225.7652,-706.795"/>
<text text-anchor="middle" x="1254" y="-809.132" font-family="Times,serif" font-size="20.00" fill="#000000">[NA]</text>
<text text-anchor="middle" x="1254" y="-787.132" font-family="Times,serif" font-size="20.00" fill="#000000">empty</text>
</g>
<!-- SG_1_Node_15 -->
<g id="node35" class="node">
<title>SG_1_Node_15</title>
<ellipse fill="none" stroke="#000000" cx="740" cy="-496.4924" rx="34.7971" ry="21.4286"/>
<text text-anchor="middle" x="740" y="-491.4924" font-family="Times,serif" font-size="20.00" fill="#000000">0.0</text>
</g>
<!-- SG_1_Node_5&#45;&gt;SG_1_Node_15 -->
<g id="edge37" class="edge">
<title>SG_1_Node_5&#45;&gt;SG_1_Node_15</title>
<path fill="none" stroke="#000000" d="M847.2107,-663.9631C800.6213,-650.2346 739.026,-630.5761 732,-620.7056 712.6652,-593.5433 719.5421,-554.0031 728.0587,-526.8715"/>
<polygon fill="#000000" stroke="#000000" points="731.4642,-527.7266 731.3519,-517.1323 724.8331,-525.4843 731.4642,-527.7266"/>
<text text-anchor="middle" x="869" y="-604.7056" font-family="Times,serif" font-size="20.00" fill="#000000">[NA]</text>
<text text-anchor="middle" x="869" y="-582.7056" font-family="Times,serif" font-size="20.00" fill="#000000">/</text>
<text text-anchor="middle" x="869" y="-560.7056" font-family="Times,serif" font-size="20.00" fill="#000000">http://localhost:8000/echo/</text>
</g>
<!-- SG_1_Node_7 -->
<g id="node36" class="node">
<title>SG_1_Node_7</title>
<polygon fill="none" stroke="#000000" points="1109.5,-514.4924 792.5,-514.4924 792.5,-478.4924 1109.5,-478.4924 1109.5,-514.4924"/>
<text text-anchor="middle" x="951" y="-491.4924" font-family="Times,serif" font-size="20.00" fill="#000000">Cross&#45;Origin&#45;Resource&#45;Policy</text>
</g>
<!-- SG_1_Node_5&#45;&gt;SG_1_Node_7 -->
<g id="edge38" class="edge">
<title>SG_1_Node_5&#45;&gt;SG_1_Node_7</title>
<path fill="none" stroke="#000000" d="M952.546,-664.4158C974.2934,-655.5367 997.349,-641.714 1010,-620.7056 1025.1323,-595.5768 1021.3163,-581.7683 1010,-554.7056 1004.6474,-541.9049 994.9569,-530.4886 984.9556,-521.2298"/>
<polygon fill="#000000" stroke="#000000" points="987.1559,-518.5048 977.3137,-514.5828 982.5619,-523.7865 987.1559,-518.5048"/>
<text text-anchor="middle" x="1051" y="-582.7056" font-family="Times,serif" font-size="20.00" fill="#000000">empty</text>
</g>
<!-- SG_1_Node_8 -->
<g id="node37" class="node">
<title>SG_1_Node_8</title>
<polygon fill="none" stroke="#000000" points="1282.5,-514.4924 1127.5,-514.4924 1127.5,-478.4924 1282.5,-478.4924 1282.5,-514.4924"/>
<text text-anchor="middle" x="1205" y="-491.4924" font-family="Times,serif" font-size="20.00" fill="#000000">Content&#45;Type</text>
</g>
<!-- SG_1_Node_6&#45;&gt;SG_1_Node_8 -->
<g id="edge31" class="edge">
<title>SG_1_Node_6&#45;&gt;SG_1_Node_8</title>
<path fill="none" stroke="#000000" d="M1217.9937,-660.8393C1216.7544,-649.3534 1215.1811,-634.1667 1214,-620.7056 1211.1191,-587.8719 1208.4779,-550.0968 1206.8125,-524.9077"/>
<polygon fill="#000000" stroke="#000000" points="1210.2842,-524.3592 1206.1396,-514.6087 1203.2991,-524.8156 1210.2842,-524.3592"/>
<text text-anchor="middle" x="1249" y="-582.7056" font-family="Times,serif" font-size="20.00" fill="#000000">nosniff</text>
</g>
<!-- SG_1_Node_16 -->
<g id="node38" class="node">
<title>SG_1_Node_16</title>
<ellipse fill="none" stroke="#000000" cx="1335" cy="-496.4924" rx="34.7971" ry="21.4286"/>
<text text-anchor="middle" x="1335" y="-491.4924" font-family="Times,serif" font-size="20.00" fill="#000000">1.0</text>
</g>
<!-- SG_1_Node_6&#45;&gt;SG_1_Node_16 -->
<g id="edge32" class="edge">
<title>SG_1_Node_6&#45;&gt;SG_1_Node_16</title>
<path fill="none" stroke="#000000" d="M1244.6616,-660.8683C1257.7154,-650.3215 1273.2267,-636.082 1284,-620.7056 1304.1934,-591.8842 1318.3056,-553.8609 1326.4867,-527.5105"/>
<polygon fill="#000000" stroke="#000000" points="1329.9138,-528.2667 1329.4314,-517.6828 1323.2083,-526.2574 1329.9138,-528.2667"/>
<text text-anchor="middle" x="1349" y="-593.7056" font-family="Times,serif" font-size="20.00" fill="#000000">[NA]</text>
<text text-anchor="middle" x="1349" y="-571.7056" font-family="Times,serif" font-size="20.00" fill="#000000">empty</text>
</g>
<!-- SG_1_Node_17 -->
<g id="node39" class="node">
<title>SG_1_Node_17</title>
<ellipse fill="none" stroke="#000000" cx="778" cy="-336.066" rx="34.7971" ry="21.4286"/>
<text text-anchor="middle" x="778" y="-331.066" font-family="Times,serif" font-size="20.00" fill="#000000">0.0</text>
</g>
<!-- SG_1_Node_7&#45;&gt;SG_1_Node_17 -->
<g id="edge39" class="edge">
<title>SG_1_Node_7&#45;&gt;SG_1_Node_17</title>
<path fill="none" stroke="#000000" d="M893.9472,-478.4308C871.6174,-469.1791 847.0792,-456.0428 829,-438.2792 808.8818,-418.5121 795.3766,-389.1622 787.3459,-366.9774"/>
<polygon fill="#000000" stroke="#000000" points="790.5971,-365.6685 784.0372,-357.3488 783.977,-367.9434 790.5971,-365.6685"/>
<text text-anchor="middle" x="890" y="-411.2792" font-family="Times,serif" font-size="20.00" fill="#000000">same&#45;origin</text>
</g>
<!-- SG_1_Node_9 -->
<g id="node40" class="node">
<title>SG_1_Node_9</title>
<polygon fill="none" stroke="#000000" points="1093,-354.066 831,-354.066 831,-318.066 1093,-318.066 1093,-354.066"/>
<text text-anchor="middle" x="962" y="-331.066" font-family="Times,serif" font-size="20.00" fill="#000000">X&#45;Content&#45;Type&#45;Options</text>
</g>
<!-- SG_1_Node_7&#45;&gt;SG_1_Node_9 -->
<g id="edge40" class="edge">
<title>SG_1_Node_7&#45;&gt;SG_1_Node_9</title>
<path fill="none" stroke="#000000" d="M952.2405,-478.4013C954.1385,-450.7194 957.7805,-397.6042 960.0389,-364.6675"/>
<polygon fill="#000000" stroke="#000000" points="963.5548,-364.5532 960.7472,-354.3371 956.5712,-364.0743 963.5548,-364.5532"/>
<text text-anchor="middle" x="989" y="-422.2792" font-family="Times,serif" font-size="20.00" fill="#000000">[NA]</text>
<text text-anchor="middle" x="989" y="-400.2792" font-family="Times,serif" font-size="20.00" fill="#000000">empty</text>
</g>
<!-- SG_1_Node_18 -->
<g id="node41" class="node">
<title>SG_1_Node_18</title>
<ellipse fill="none" stroke="#000000" cx="1169" cy="-336.066" rx="34.7971" ry="21.4286"/>
<text text-anchor="middle" x="1169" y="-331.066" font-family="Times,serif" font-size="20.00" fill="#000000">0.0</text>
</g>
<!-- SG_1_Node_8&#45;&gt;SG_1_Node_18 -->
<g id="edge33" class="edge">
<title>SG_1_Node_8&#45;&gt;SG_1_Node_18</title>
<path fill="none" stroke="#000000" d="M1196.9865,-478.4789C1192.2501,-467.1469 1186.5107,-452.1018 1183,-438.2792 1177.0676,-414.9221 1173.5039,-387.8826 1171.4577,-367.4834"/>
<polygon fill="#000000" stroke="#000000" points="1174.9378,-367.1063 1170.5214,-357.4759 1167.9682,-367.7584 1174.9378,-367.1063"/>
<text text-anchor="middle" x="1215" y="-411.2792" font-family="Times,serif" font-size="20.00" fill="#000000">empty</text>
</g>
<!-- SG_1_Node_19 -->
<g id="node42" class="node">
<title>SG_1_Node_19</title>
<ellipse fill="none" stroke="#000000" cx="1269" cy="-336.066" rx="34.7971" ry="21.4286"/>
<text text-anchor="middle" x="1269" y="-331.066" font-family="Times,serif" font-size="20.00" fill="#000000">1.0</text>
</g>
<!-- SG_1_Node_8&#45;&gt;SG_1_Node_19 -->
<g id="edge34" class="edge">
<title>SG_1_Node_8&#45;&gt;SG_1_Node_19</title>
<path fill="none" stroke="#000000" d="M1221.138,-478.3171C1230.0173,-467.4076 1240.5173,-452.8543 1247,-438.2792 1256.988,-415.8231 1262.5648,-388.5284 1265.6027,-367.7952"/>
<polygon fill="#000000" stroke="#000000" points="1269.1081,-367.9883 1266.9697,-357.6115 1262.1703,-367.0569 1269.1081,-367.9883"/>
<text text-anchor="middle" x="1299.5" y="-411.2792" font-family="Times,serif" font-size="20.00" fill="#000000">text/css</text>
</g>
<!-- SG_1_Node_10 -->
<g id="node43" class="node">
<title>SG_1_Node_10</title>
<polygon fill="none" stroke="#000000" points="914.5,-193.6396 759.5,-193.6396 759.5,-157.6396 914.5,-157.6396 914.5,-193.6396"/>
<text text-anchor="middle" x="837" y="-170.6396" font-family="Times,serif" font-size="20.00" fill="#000000">Content&#45;Type</text>
</g>
<!-- SG_1_Node_9&#45;&gt;SG_1_Node_10 -->
<g id="edge41" class="edge">
<title>SG_1_Node_9&#45;&gt;SG_1_Node_10</title>
<path fill="none" stroke="#000000" d="M933.9217,-318.02C919.2273,-307.5748 901.7031,-293.4301 889,-277.8528 870.5594,-255.24 856.1904,-225.0193 847.2748,-203.3124"/>
<polygon fill="#000000" stroke="#000000" points="850.5168,-201.9931 843.5672,-193.996 844.0129,-204.5815 850.5168,-201.9931"/>
<text text-anchor="middle" x="924" y="-250.8528" font-family="Times,serif" font-size="20.00" fill="#000000">nosniff</text>
</g>
<!-- SG_1_Node_20 -->
<g id="node44" class="node">
<title>SG_1_Node_20</title>
<ellipse fill="none" stroke="#000000" cx="967" cy="-175.6396" rx="34.7971" ry="21.4286"/>
<text text-anchor="middle" x="967" y="-170.6396" font-family="Times,serif" font-size="20.00" fill="#000000">1.0</text>
</g>
<!-- SG_1_Node_9&#45;&gt;SG_1_Node_20 -->
<g id="edge42" class="edge">
<title>SG_1_Node_9&#45;&gt;SG_1_Node_20</title>
<path fill="none" stroke="#000000" d="M962.5638,-317.9749C963.4027,-291.06 964.9909,-240.1015 966.0218,-207.0242"/>
<polygon fill="#000000" stroke="#000000" points="969.522,-207.0705 966.3353,-196.9663 962.5254,-206.8524 969.522,-207.0705"/>
<text text-anchor="middle" x="997" y="-261.8528" font-family="Times,serif" font-size="20.00" fill="#000000">[NA]</text>
<text text-anchor="middle" x="997" y="-239.8528" font-family="Times,serif" font-size="20.00" fill="#000000">empty</text>
</g>
<!-- SG_1_Node_21 -->
<g id="node45" class="node">
<title>SG_1_Node_21</title>
<ellipse fill="none" stroke="#000000" cx="743" cy="-37.2132" rx="34.7971" ry="21.4286"/>
<text text-anchor="middle" x="743" y="-32.2132" font-family="Times,serif" font-size="20.00" fill="#000000">0.0</text>
</g>
<!-- SG_1_Node_10&#45;&gt;SG_1_Node_21 -->
<g id="edge43" class="edge">
<title>SG_1_Node_10&#45;&gt;SG_1_Node_21</title>
<path fill="none" stroke="#000000" d="M810.5579,-157.4566C797.1312,-147.0695 781.4855,-133.0218 771,-117.4264 761.0084,-102.5657 754.1963,-83.7596 749.7952,-68.0927"/>
<polygon fill="#000000" stroke="#000000" points="753.1569,-67.1136 747.242,-58.3236 746.3844,-68.8836 753.1569,-67.1136"/>
<text text-anchor="middle" x="803" y="-101.4264" font-family="Times,serif" font-size="20.00" fill="#000000">empty</text>
</g>
<!-- SG_1_Node_22 -->
<g id="node46" class="node">
<title>SG_1_Node_22</title>
<ellipse fill="none" stroke="#000000" cx="843" cy="-37.2132" rx="34.7971" ry="21.4286"/>
<text text-anchor="middle" x="843" y="-32.2132" font-family="Times,serif" font-size="20.00" fill="#000000">1.0</text>
</g>
<!-- SG_1_Node_10&#45;&gt;SG_1_Node_22 -->
<g id="edge44" class="edge">
<title>SG_1_Node_10&#45;&gt;SG_1_Node_22</title>
<path fill="none" stroke="#000000" d="M837.7844,-157.5428C838.7603,-135.0281 840.4429,-96.2088 841.6327,-68.7578"/>
<polygon fill="#000000" stroke="#000000" points="845.1413,-68.6339 842.0777,-58.4917 838.1479,-68.3307 845.1413,-68.6339"/>
<text text-anchor="middle" x="879.5" y="-101.4264" font-family="Times,serif" font-size="20.00" fill="#000000">text/css</text>
</g>
</g>
</svg>
