<?xml version="1.0" encoding="UTF-8" standalone="no"?>
<!DOCTYPE svg PUBLIC "-//W3C//DTD SVG 1.1//EN"
 "http://www.w3.org/Graphics/SVG/1.1/DTD/svg11.dtd">
<!-- Generated by graphviz version 2.40.1 (20161225.0304)
 -->
<!-- Title: G Pages: 1 -->
<svg width="1981pt" height="1084pt"
 viewBox="0.00 0.00 1981.00 1084.13" xmlns="http://www.w3.org/2000/svg" xmlns:xlink="http://www.w3.org/1999/xlink">
<g id="graph0" class="graph" transform="scale(1 1) rotate(0) translate(4 1080.132)">
<title>G</title>
<polygon fill="#ffffff" stroke="transparent" points="-4,4 -4,-1080.132 1977,-1080.132 1977,4 -4,4"/>
<g id="clust1" class="cluster">
<title>cluster_0</title>
<polygon fill="none" stroke="#000000" points="8,-8 8,-1068.132 1493,-1068.132 1493,-8 8,-8"/>
<text text-anchor="middle" x="750.5" y="-1032.132" font-family="Times,serif" font-size="40.00" fill="#000000">Tree 0, Class URL: , Effective Directive: frame&#45;ancestors, Status&#45;Code: 0</text>
</g>
<g id="clust8" class="cluster">
<title>cluster_1</title>
<polygon fill="none" stroke="#000000" points="1501,-8 1501,-1068.132 1965,-1068.132 1965,-8 1501,-8"/>
<text text-anchor="middle" x="1733" y="-1032.132" font-family="Times,serif" font-size="40.00" fill="#000000">Tree 0, Class uncalled</text>
</g>
<!-- SG_0_Node_0 -->
<g id="node1" class="node">
<title>SG_0_Node_0</title>
<polygon fill="none" stroke="#000000" points="329,-1008.132 69,-1008.132 69,-972.132 329,-972.132 329,-1008.132"/>
<text text-anchor="middle" x="199" y="-985.132" font-family="Times,serif" font-size="20.00" fill="#000000">Content&#45;Security&#45;Policy</text>
</g>
<!-- SG_0_Node_5 -->
<g id="node2" class="node">
<title>SG_0_Node_5</title>
<ellipse fill="none" stroke="#000000" cx="125" cy="-810.9188" rx="34.7971" ry="21.4286"/>
<text text-anchor="middle" x="125" y="-805.9188" font-family="Times,serif" font-size="20.00" fill="#000000">0.0</text>
</g>
<!-- SG_0_Node_0&#45;&gt;SG_0_Node_5 -->
<g id="edge1" class="edge">
<title>SG_0_Node_0&#45;&gt;SG_0_Node_5</title>
<path fill="none" stroke="#000000" d="M171.7718,-972.1294C159.6725,-962.6231 146.4956,-949.8684 139,-935.132 124.2996,-906.231 121.9899,-868.7534 122.6149,-842.5556"/>
<polygon fill="#000000" stroke="#000000" points="126.1177,-842.552 123.0156,-832.4215 119.1231,-842.2754 126.1177,-842.552"/>
<text text-anchor="middle" x="221.5" y="-919.132" font-family="Times,serif" font-size="20.00" fill="#000000">[NA]</text>
<text text-anchor="middle" x="221.5" y="-897.132" font-family="Times,serif" font-size="20.00" fill="#000000">default&#45;src &#39;self&#39;</text>
<text text-anchor="middle" x="221.5" y="-875.132" font-family="Times,serif" font-size="20.00" fill="#000000">empty</text>
</g>
<!-- SG_0_Node_1 -->
<g id="node3" class="node">
<title>SG_0_Node_1</title>
<polygon fill="none" stroke="#000000" points="397,-828.9188 255,-828.9188 255,-792.9188 397,-792.9188 397,-828.9188"/>
<text text-anchor="middle" x="326" y="-805.9188" font-family="Times,serif" font-size="20.00" fill="#000000">Status&#45;Code</text>
</g>
<!-- SG_0_Node_0&#45;&gt;SG_0_Node_1 -->
<g id="edge2" class="edge">
<title>SG_0_Node_0&#45;&gt;SG_0_Node_1</title>
<path fill="none" stroke="#000000" d="M255.1864,-972.1246C273.3528,-963.643 291.9073,-951.6553 304,-935.132 324.439,-907.2045 328.0276,-866.4258 327.7807,-839.3027"/>
<polygon fill="#000000" stroke="#000000" points="331.2789,-839.1871 327.51,-829.2853 324.2815,-839.3762 331.2789,-839.1871"/>
<text text-anchor="middle" x="436.5" y="-897.132" font-family="Times,serif" font-size="20.00" fill="#000000">frame&#45;ancestors &#39;self&#39;</text>
</g>
<!-- SG_0_Node_6 -->
<g id="node4" class="node">
<title>SG_0_Node_6</title>
<ellipse fill="none" stroke="#000000" cx="264" cy="-628.4924" rx="34.7971" ry="21.4286"/>
<text text-anchor="middle" x="264" y="-623.4924" font-family="Times,serif" font-size="20.00" fill="#000000">0.0</text>
</g>
<!-- SG_0_Node_1&#45;&gt;SG_0_Node_6 -->
<g id="edge3" class="edge">
<title>SG_0_Node_1&#45;&gt;SG_0_Node_6</title>
<path fill="none" stroke="#000000" d="M319.8285,-792.7602C309.2004,-761.4884 287.3358,-697.1549 274.3466,-658.936"/>
<polygon fill="#000000" stroke="#000000" points="277.6232,-657.6998 271.0914,-649.3579 270.9955,-659.9523 277.6232,-657.6998"/>
<text text-anchor="middle" x="325.5" y="-736.7056" font-family="Times,serif" font-size="20.00" fill="#000000">100</text>
<text text-anchor="middle" x="325.5" y="-714.7056" font-family="Times,serif" font-size="20.00" fill="#000000">102</text>
<text text-anchor="middle" x="325.5" y="-692.7056" font-family="Times,serif" font-size="20.00" fill="#000000">103</text>
</g>
<!-- SG_0_Node_2 -->
<g id="node5" class="node">
<title>SG_0_Node_2</title>
<polygon fill="none" stroke="#000000" points="459,-646.4924 317,-646.4924 317,-610.4924 459,-610.4924 459,-646.4924"/>
<text text-anchor="middle" x="388" y="-623.4924" font-family="Times,serif" font-size="20.00" fill="#000000">Status&#45;Code</text>
</g>
<!-- SG_0_Node_1&#45;&gt;SG_0_Node_2 -->
<g id="edge4" class="edge">
<title>SG_0_Node_1&#45;&gt;SG_0_Node_2</title>
<path fill="none" stroke="#000000" d="M333.5918,-792.6935C338.2476,-781.2819 344.213,-766.2273 349,-752.7056 360.6019,-719.9337 372.3408,-681.7032 379.864,-656.4033"/>
<polygon fill="#000000" stroke="#000000" points="383.2449,-657.3124 382.7221,-646.7304 376.5318,-655.3287 383.2449,-657.3124"/>
<text text-anchor="middle" x="416" y="-725.7056" font-family="Times,serif" font-size="20.00" fill="#000000">[NA]</text>
<text text-anchor="middle" x="416" y="-703.7056" font-family="Times,serif" font-size="20.00" fill="#000000">59 levels</text>
</g>
<!-- SG_0_Node_3 -->
<g id="node6" class="node">
<title>SG_0_Node_3</title>
<polygon fill="none" stroke="#000000" points="458.5,-398.066 141.5,-398.066 141.5,-362.066 458.5,-362.066 458.5,-398.066"/>
<text text-anchor="middle" x="300" y="-375.066" font-family="Times,serif" font-size="20.00" fill="#000000">Cross&#45;Origin&#45;Resource&#45;Policy</text>
</g>
<!-- SG_0_Node_2&#45;&gt;SG_0_Node_3 -->
<g id="edge5" class="edge">
<title>SG_0_Node_2&#45;&gt;SG_0_Node_3</title>
<path fill="none" stroke="#000000" d="M381.5291,-610.225C366.2724,-567.1548 327.9734,-459.0356 309.8279,-407.8105"/>
<polygon fill="#000000" stroke="#000000" points="313.1185,-406.6176 306.4803,-398.3602 306.5203,-408.9549 313.1185,-406.6176"/>
<text text-anchor="middle" x="386.5" y="-554.2792" font-family="Times,serif" font-size="20.00" fill="#000000">300</text>
<text text-anchor="middle" x="386.5" y="-532.2792" font-family="Times,serif" font-size="20.00" fill="#000000">301</text>
<text text-anchor="middle" x="386.5" y="-510.2792" font-family="Times,serif" font-size="20.00" fill="#000000">302</text>
<text text-anchor="middle" x="386.5" y="-488.2792" font-family="Times,serif" font-size="20.00" fill="#000000">303</text>
<text text-anchor="middle" x="386.5" y="-466.2792" font-family="Times,serif" font-size="20.00" fill="#000000">307</text>
<text text-anchor="middle" x="386.5" y="-444.2792" font-family="Times,serif" font-size="20.00" fill="#000000">308</text>
</g>
<!-- SG_0_Node_7 -->
<g id="node7" class="node">
<title>SG_0_Node_7</title>
<ellipse fill="none" stroke="#000000" cx="511" cy="-380.066" rx="34.7971" ry="21.4286"/>
<text text-anchor="middle" x="511" y="-375.066" font-family="Times,serif" font-size="20.00" fill="#000000">1.0</text>
</g>
<!-- SG_0_Node_2&#45;&gt;SG_0_Node_7 -->
<g id="edge6" class="edge">
<title>SG_0_Node_2&#45;&gt;SG_0_Node_7</title>
<path fill="none" stroke="#000000" d="M397.0445,-610.225C418.1448,-567.6082 470.7772,-461.305 496.4529,-409.4472"/>
<polygon fill="#000000" stroke="#000000" points="499.6192,-410.9402 500.9197,-400.4255 493.346,-407.8342 499.6192,-410.9402"/>
<text text-anchor="middle" x="527" y="-510.2792" font-family="Times,serif" font-size="20.00" fill="#000000">[NA]</text>
<text text-anchor="middle" x="527" y="-488.2792" font-family="Times,serif" font-size="20.00" fill="#000000">53 levels</text>
</g>
<!-- SG_0_Node_4 -->
<g id="node8" class="node">
<title>SG_0_Node_4</title>
<polygon fill="none" stroke="#000000" points="300.5,-237.6396 195.5,-237.6396 195.5,-201.6396 300.5,-201.6396 300.5,-237.6396"/>
<text text-anchor="middle" x="248" y="-214.6396" font-family="Times,serif" font-size="20.00" fill="#000000">Location</text>
</g>
<!-- SG_0_Node_3&#45;&gt;SG_0_Node_4 -->
<g id="edge7" class="edge">
<title>SG_0_Node_3&#45;&gt;SG_0_Node_4</title>
<path fill="none" stroke="#000000" d="M286.5888,-361.8394C279.1063,-350.7968 270.2601,-336.1268 265,-321.8528 256.1541,-297.8484 251.8901,-268.9711 249.8472,-248.0425"/>
<polygon fill="#000000" stroke="#000000" points="253.3179,-247.5517 248.9689,-237.8906 246.344,-248.1551 253.3179,-247.5517"/>
<text text-anchor="middle" x="297" y="-305.8528" font-family="Times,serif" font-size="20.00" fill="#000000">[NA]</text>
<text text-anchor="middle" x="297" y="-283.8528" font-family="Times,serif" font-size="20.00" fill="#000000">empty</text>
</g>
<!-- SG_0_Node_8 -->
<g id="node9" class="node">
<title>SG_0_Node_8</title>
<ellipse fill="none" stroke="#000000" cx="353" cy="-219.6396" rx="34.7971" ry="21.4286"/>
<text text-anchor="middle" x="353" y="-214.6396" font-family="Times,serif" font-size="20.00" fill="#000000">1.0</text>
</g>
<!-- SG_0_Node_3&#45;&gt;SG_0_Node_8 -->
<g id="edge8" class="edge">
<title>SG_0_Node_3&#45;&gt;SG_0_Node_8</title>
<path fill="none" stroke="#000000" d="M310.3984,-361.9337C316.502,-350.6829 323.9781,-335.7655 329,-321.8528 337.3794,-298.6385 343.6087,-271.3876 347.6183,-250.8639"/>
<polygon fill="#000000" stroke="#000000" points="351.102,-251.2765 349.5123,-240.8016 344.2228,-249.9816 351.102,-251.2765"/>
<text text-anchor="middle" x="402" y="-294.8528" font-family="Times,serif" font-size="20.00" fill="#000000">same&#45;origin</text>
</g>
<!-- SG_0_Node_9 -->
<g id="node10" class="node">
<title>SG_0_Node_9</title>
<ellipse fill="none" stroke="#000000" cx="81" cy="-37.2132" rx="34.7971" ry="21.4286"/>
<text text-anchor="middle" x="81" y="-32.2132" font-family="Times,serif" font-size="20.00" fill="#000000">0.0</text>
</g>
<!-- SG_0_Node_4&#45;&gt;SG_0_Node_9 -->
<g id="edge9" class="edge">
<title>SG_0_Node_4&#45;&gt;SG_0_Node_9</title>
<path fill="none" stroke="#000000" d="M195.2583,-208.2511C151.5978,-197.6281 94.6035,-180.5747 81,-161.4264 61.841,-134.4583 65.6432,-95.2085 71.7681,-68.0797"/>
<polygon fill="#000000" stroke="#000000" points="75.1769,-68.8751 74.1863,-58.3266 68.3826,-67.1905 75.1769,-68.8751"/>
<text text-anchor="middle" x="218" y="-145.4264" font-family="Times,serif" font-size="20.00" fill="#000000">[NA]</text>
<text text-anchor="middle" x="218" y="-123.4264" font-family="Times,serif" font-size="20.00" fill="#000000">/</text>
<text text-anchor="middle" x="218" y="-101.4264" font-family="Times,serif" font-size="20.00" fill="#000000">http://localhost:8000/echo/</text>
</g>
<!-- SG_0_Node_10 -->
<g id="node11" class="node">
<title>SG_0_Node_10</title>
<ellipse fill="none" stroke="#000000" cx="391" cy="-37.2132" rx="34.7971" ry="21.4286"/>
<text text-anchor="middle" x="391" y="-32.2132" font-family="Times,serif" font-size="20.00" fill="#000000">1.0</text>
</g>
<!-- SG_0_Node_4&#45;&gt;SG_0_Node_10 -->
<g id="edge10" class="edge">
<title>SG_0_Node_4&#45;&gt;SG_0_Node_10</title>
<path fill="none" stroke="#000000" d="M290.7725,-201.5714C317.921,-189.3081 349.6429,-173.2381 359,-161.4264 379.997,-134.9215 387.3438,-96.1588 389.8462,-69.0043"/>
<polygon fill="#000000" stroke="#000000" points="393.3493,-69.0938 390.6073,-58.86 386.3689,-68.5701 393.3493,-69.0938"/>
<text text-anchor="middle" x="418" y="-123.4264" font-family="Times,serif" font-size="20.00" fill="#000000">empty</text>
</g>
<!-- SG_1_Node_0 -->
<g id="node12" class="node">
<title>SG_1_Node_0</title>
<polygon fill="none" stroke="#000000" points="1846,-1008.132 1586,-1008.132 1586,-972.132 1846,-972.132 1846,-1008.132"/>
<text text-anchor="middle" x="1716" y="-985.132" font-family="Times,serif" font-size="20.00" fill="#000000">Content&#45;Security&#45;Policy</text>
</g>
<!-- SG_1_Node_1 -->
<g id="node13" class="node">
<title>SG_1_Node_1</title>
<polygon fill="none" stroke="#000000" points="1651,-828.9188 1509,-828.9188 1509,-792.9188 1651,-792.9188 1651,-828.9188"/>
<text text-anchor="middle" x="1580" y="-805.9188" font-family="Times,serif" font-size="20.00" fill="#000000">Status&#45;Code</text>
</g>
<!-- SG_1_Node_0&#45;&gt;SG_1_Node_1 -->
<g id="edge11" class="edge">
<title>SG_1_Node_0&#45;&gt;SG_1_Node_1</title>
<path fill="none" stroke="#000000" d="M1621.0015,-972.0197C1583.2602,-962.7224 1546.148,-950.1708 1535,-935.132 1517.5318,-911.5671 1525.5215,-896.8918 1535,-869.132 1539.0226,-857.3512 1546.5037,-846.1038 1554.2273,-836.6909"/>
<polygon fill="#000000" stroke="#000000" points="1557.0647,-838.7623 1560.9962,-828.9239 1551.7875,-834.1632 1557.0647,-838.7623"/>
<text text-anchor="middle" x="1645.5" y="-897.132" font-family="Times,serif" font-size="20.00" fill="#000000">frame&#45;ancestors &#39;self&#39;</text>
</g>
<!-- SG_1_Node_5 -->
<g id="node14" class="node">
<title>SG_1_Node_5</title>
<ellipse fill="none" stroke="#000000" cx="1792" cy="-810.9188" rx="34.7971" ry="21.4286"/>
<text text-anchor="middle" x="1792" y="-805.9188" font-family="Times,serif" font-size="20.00" fill="#000000">1.0</text>
</g>
<!-- SG_1_Node_0&#45;&gt;SG_1_Node_5 -->
<g id="edge12" class="edge">
<title>SG_1_Node_0&#45;&gt;SG_1_Node_5</title>
<path fill="none" stroke="#000000" d="M1734.0641,-971.6688C1743.0255,-961.5935 1753.3311,-948.4768 1760,-935.132 1774.8739,-905.3688 1783.2862,-868.0354 1787.7128,-842.1072"/>
<polygon fill="#000000" stroke="#000000" points="1791.1916,-842.5179 1789.3219,-832.0893 1784.2802,-841.4077 1791.1916,-842.5179"/>
<text text-anchor="middle" x="1864.5" y="-919.132" font-family="Times,serif" font-size="20.00" fill="#000000">[NA]</text>
<text text-anchor="middle" x="1864.5" y="-897.132" font-family="Times,serif" font-size="20.00" fill="#000000">default&#45;src &#39;self&#39;</text>
<text text-anchor="middle" x="1864.5" y="-875.132" font-family="Times,serif" font-size="20.00" fill="#000000">empty</text>
</g>
<!-- SG_1_Node_2 -->
<g id="node15" class="node">
<title>SG_1_Node_2</title>
<polygon fill="none" stroke="#000000" points="1651,-646.4924 1509,-646.4924 1509,-610.4924 1651,-610.4924 1651,-646.4924"/>
<text text-anchor="middle" x="1580" y="-623.4924" font-family="Times,serif" font-size="20.00" fill="#000000">Status&#45;Code</text>
</g>
<!-- SG_1_Node_1&#45;&gt;SG_1_Node_2 -->
<g id="edge13" class="edge">
<title>SG_1_Node_1&#45;&gt;SG_1_Node_2</title>
<path fill="none" stroke="#000000" d="M1580,-792.7602C1580,-760.9343 1580,-694.8646 1580,-656.9293"/>
<polygon fill="#000000" stroke="#000000" points="1583.5001,-656.5776 1580,-646.5777 1576.5001,-656.5777 1583.5001,-656.5776"/>
<text text-anchor="middle" x="1626" y="-725.7056" font-family="Times,serif" font-size="20.00" fill="#000000">[NA]</text>
<text text-anchor="middle" x="1626" y="-703.7056" font-family="Times,serif" font-size="20.00" fill="#000000">59 levels</text>
</g>
<!-- SG_1_Node_6 -->
<g id="node16" class="node">
<title>SG_1_Node_6</title>
<ellipse fill="none" stroke="#000000" cx="1708" cy="-628.4924" rx="34.7971" ry="21.4286"/>
<text text-anchor="middle" x="1708" y="-623.4924" font-family="Times,serif" font-size="20.00" fill="#000000">1.0</text>
</g>
<!-- SG_1_Node_1&#45;&gt;SG_1_Node_6 -->
<g id="edge14" class="edge">
<title>SG_1_Node_1&#45;&gt;SG_1_Node_6</title>
<path fill="none" stroke="#000000" d="M1625.0889,-792.7633C1643.3363,-783.3244 1663.0982,-770.0734 1676,-752.7056 1696.1641,-725.5617 1703.666,-686.9181 1706.4326,-659.9662"/>
<polygon fill="#000000" stroke="#000000" points="1709.928,-660.1698 1707.3026,-649.9054 1702.954,-659.5667 1709.928,-660.1698"/>
<text text-anchor="middle" x="1721.5" y="-736.7056" font-family="Times,serif" font-size="20.00" fill="#000000">100</text>
<text text-anchor="middle" x="1721.5" y="-714.7056" font-family="Times,serif" font-size="20.00" fill="#000000">102</text>
<text text-anchor="middle" x="1721.5" y="-692.7056" font-family="Times,serif" font-size="20.00" fill="#000000">103</text>
</g>
<!-- SG_1_Node_7 -->
<g id="node17" class="node">
<title>SG_1_Node_7</title>
<ellipse fill="none" stroke="#000000" cx="1544" cy="-380.066" rx="34.7971" ry="21.4286"/>
<text text-anchor="middle" x="1544" y="-375.066" font-family="Times,serif" font-size="20.00" fill="#000000">0.0</text>
</g>
<!-- SG_1_Node_2&#45;&gt;SG_1_Node_7 -->
<g id="edge15" class="edge">
<title>SG_1_Node_2&#45;&gt;SG_1_Node_7</title>
<path fill="none" stroke="#000000" d="M1577.3528,-610.225C1571.2612,-568.188 1556.1899,-464.1854 1548.5687,-411.5935"/>
<polygon fill="#000000" stroke="#000000" points="1552.0031,-410.8875 1547.105,-401.4929 1545.0754,-411.8915 1552.0031,-410.8875"/>
<text text-anchor="middle" x="1617" y="-510.2792" font-family="Times,serif" font-size="20.00" fill="#000000">[NA]</text>
<text text-anchor="middle" x="1617" y="-488.2792" font-family="Times,serif" font-size="20.00" fill="#000000">53 levels</text>
</g>
<!-- SG_1_Node_3 -->
<g id="node18" class="node">
<title>SG_1_Node_3</title>
<polygon fill="none" stroke="#000000" points="1913.5,-398.066 1596.5,-398.066 1596.5,-362.066 1913.5,-362.066 1913.5,-398.066"/>
<text text-anchor="middle" x="1755" y="-375.066" font-family="Times,serif" font-size="20.00" fill="#000000">Cross&#45;Origin&#45;Resource&#45;Policy</text>
</g>
<!-- SG_1_Node_2&#45;&gt;SG_1_Node_3 -->
<g id="edge16" class="edge">
<title>SG_1_Node_2&#45;&gt;SG_1_Node_3</title>
<path fill="none" stroke="#000000" d="M1616.008,-610.4459C1633.1621,-600.4539 1652.949,-586.7192 1667,-570.2792 1709.3173,-520.767 1735.4809,-447.4954 1747.3911,-407.8991"/>
<polygon fill="#000000" stroke="#000000" points="1750.7999,-408.7119 1750.2439,-398.1317 1744.0806,-406.7493 1750.7999,-408.7119"/>
<text text-anchor="middle" x="1756.5" y="-554.2792" font-family="Times,serif" font-size="20.00" fill="#000000">300</text>
<text text-anchor="middle" x="1756.5" y="-532.2792" font-family="Times,serif" font-size="20.00" fill="#000000">301</text>
<text text-anchor="middle" x="1756.5" y="-510.2792" font-family="Times,serif" font-size="20.00" fill="#000000">302</text>
<text text-anchor="middle" x="1756.5" y="-488.2792" font-family="Times,serif" font-size="20.00" fill="#000000">303</text>
<text text-anchor="middle" x="1756.5" y="-466.2792" font-family="Times,serif" font-size="20.00" fill="#000000">307</text>
<text text-anchor="middle" x="1756.5" y="-444.2792" font-family="Times,serif" font-size="20.00" fill="#000000">308</text>
</g>
<!-- SG_1_Node_8 -->
<g id="node19" class="node">
<title>SG_1_Node_8</title>
<ellipse fill="none" stroke="#000000" cx="1583" cy="-219.6396" rx="34.7971" ry="21.4286"/>
<text text-anchor="middle" x="1583" y="-214.6396" font-family="Times,serif" font-size="20.00" fill="#000000">0.0</text>
</g>
<!-- SG_1_Node_3&#45;&gt;SG_1_Node_8 -->
<g id="edge17" class="edge">
<title>SG_1_Node_3&#45;&gt;SG_1_Node_8</title>
<path fill="none" stroke="#000000" d="M1675.6334,-361.9573C1637.4073,-351.4937 1597.4004,-337.3514 1586,-321.8528 1571.107,-301.606 1571.7692,-272.4916 1575.3365,-250.5104"/>
<polygon fill="#000000" stroke="#000000" points="1578.7787,-251.1436 1577.1997,-240.6671 1571.9008,-249.8417 1578.7787,-251.1436"/>
<text text-anchor="middle" x="1647" y="-294.8528" font-family="Times,serif" font-size="20.00" fill="#000000">same&#45;origin</text>
</g>
<!-- SG_1_Node_4 -->
<g id="node20" class="node">
<title>SG_1_Node_4</title>
<polygon fill="none" stroke="#000000" points="1740.5,-237.6396 1635.5,-237.6396 1635.5,-201.6396 1740.5,-201.6396 1740.5,-237.6396"/>
<text text-anchor="middle" x="1688" y="-214.6396" font-family="Times,serif" font-size="20.00" fill="#000000">Location</text>
</g>
<!-- SG_1_Node_3&#45;&gt;SG_1_Node_4 -->
<g id="edge18" class="edge">
<title>SG_1_Node_3&#45;&gt;SG_1_Node_4</title>
<path fill="none" stroke="#000000" d="M1747.4445,-361.9749C1735.783,-334.0523 1713.314,-280.2521 1699.5881,-247.3865"/>
<polygon fill="#000000" stroke="#000000" points="1702.7142,-245.7895 1695.6307,-237.9107 1696.2549,-248.4872 1702.7142,-245.7895"/>
<text text-anchor="middle" x="1762" y="-305.8528" font-family="Times,serif" font-size="20.00" fill="#000000">[NA]</text>
<text text-anchor="middle" x="1762" y="-283.8528" font-family="Times,serif" font-size="20.00" fill="#000000">empty</text>
</g>
<!-- SG_1_Node_9 -->
<g id="node21" class="node">
<title>SG_1_Node_9</title>
<ellipse fill="none" stroke="#000000" cx="1583" cy="-37.2132" rx="34.7971" ry="21.4286"/>
<text text-anchor="middle" x="1583" y="-32.2132" font-family="Times,serif" font-size="20.00" fill="#000000">0.0</text>
</g>
<!-- SG_1_Node_4&#45;&gt;SG_1_Node_9 -->
<g id="edge19" class="edge">
<title>SG_1_Node_4&#45;&gt;SG_1_Node_9</title>
<path fill="none" stroke="#000000" d="M1657.5151,-201.511C1642.971,-191.4136 1626.4948,-177.611 1616,-161.4264 1597.7548,-133.2895 1589.5585,-95.3779 1585.9006,-68.8666"/>
<polygon fill="#000000" stroke="#000000" points="1589.3335,-68.108 1584.6326,-58.6132 1582.3864,-68.9672 1589.3335,-68.108"/>
<text text-anchor="middle" x="1648" y="-123.4264" font-family="Times,serif" font-size="20.00" fill="#000000">empty</text>
</g>
<!-- SG_1_Node_10 -->
<g id="node22" class="node">
<title>SG_1_Node_10</title>
<ellipse fill="none" stroke="#000000" cx="1683" cy="-37.2132" rx="34.7971" ry="21.4286"/>
<text text-anchor="middle" x="1683" y="-32.2132" font-family="Times,serif" font-size="20.00" fill="#000000">1.0</text>
</g>
<!-- SG_1_Node_4&#45;&gt;SG_1_Node_10 -->
<g id="edge20" class="edge">
<title>SG_1_Node_4&#45;&gt;SG_1_Node_10</title>
<path fill="none" stroke="#000000" d="M1687.5023,-201.4809C1686.6534,-170.507 1684.9154,-107.0981 1683.8645,-68.7558"/>
<polygon fill="#000000" stroke="#000000" points="1687.3604,-68.5541 1683.5877,-58.6538 1680.363,-68.746 1687.3604,-68.5541"/>
<text text-anchor="middle" x="1823" y="-145.4264" font-family="Times,serif" font-size="20.00" fill="#000000">[NA]</text>
<text text-anchor="middle" x="1823" y="-123.4264" font-family="Times,serif" font-size="20.00" fill="#000000">/</text>
<text text-anchor="middle" x="1823" y="-101.4264" font-family="Times,serif" font-size="20.00" fill="#000000">http://localhost:8000/echo/</text>
</g>
</g>
</svg>
