<?xml version="1.0" encoding="UTF-8" standalone="no"?>
<!DOCTYPE svg PUBLIC "-//W3C//DTD SVG 1.1//EN"
 "http://www.w3.org/Graphics/SVG/1.1/DTD/svg11.dtd">
<!-- Generated by graphviz version 2.40.1 (20161225.0304)
 -->
<!-- Title: G Pages: 1 -->
<svg width="9794pt" height="310pt"
 viewBox="0.00 0.00 9794.00 310.43" xmlns="http://www.w3.org/2000/svg" xmlns:xlink="http://www.w3.org/1999/xlink">
<g id="graph0" class="graph" transform="scale(1 1) rotate(0) translate(4 306.4264)">
<title>G</title>
<polygon fill="#ffffff" stroke="transparent" points="-4,4 -4,-306.4264 9790,-306.4264 9790,4 -4,4"/>
<g id="clust1" class="cluster">
<title>cluster_0</title>
<polygon fill="none" stroke="#000000" points="8,-8 8,-294.4264 4809,-294.4264 4809,-8 8,-8"/>
<text text-anchor="middle" x="2408.5" y="-258.4264" font-family="Times,serif" font-size="40.00" fill="#000000">Tree 0, Class {&#39;size&#39;: {&#39;transferSize&#39;: 0, &#39;decodedBodySize&#39;: 0, &#39;encodedBodySize&#39;: 0}, &#39;timing&#39;: {&#39;duration&#39;: &gt;0, &#39;fetchStart&#39;: &gt;0, &#39;redirectEnd&#39;: 0, &#39;redirectStart&#39;: 0, &#39;secureConnectionStart&#39;: 0}, &#39;initiatorType&#39;: &#39;object&#39;, &#39;nextHopProtocol&#39;: &#39;&#39;}</text>
</g>
<g id="clust4" class="cluster">
<title>cluster_1</title>
<polygon fill="none" stroke="#000000" points="4817,-8 4817,-294.4264 9778,-294.4264 9778,-8 4817,-8"/>
<text text-anchor="middle" x="7297.5" y="-258.4264" font-family="Times,serif" font-size="40.00" fill="#000000">Tree 0, Class {&#39;size&#39;: {&#39;transferSize&#39;: 0, &#39;decodedBodySize&#39;: 0, &#39;encodedBodySize&#39;: 0}, &#39;timing&#39;: {&#39;duration&#39;: &gt;0, &#39;fetchStart&#39;: &gt;0, &#39;redirectEnd&#39;: 0, &#39;redirectStart&#39;: 0, &#39;secureConnectionStart&#39;: 0}, &#39;initiatorType&#39;: &#39;object&#39;, &#39;nextHopProtocol&#39;: &#39;http/1.1&#39;}</text>
</g>
<!-- SG_0_Node_0 -->
<g id="node1" class="node">
<title>SG_0_Node_0</title>
<polygon fill="none" stroke="#000000" points="2461,-234.4264 2319,-234.4264 2319,-198.4264 2461,-198.4264 2461,-234.4264"/>
<text text-anchor="middle" x="2390" y="-211.4264" font-family="Times,serif" font-size="20.00" fill="#000000">Status&#45;Code</text>
</g>
<!-- SG_0_Node_1 -->
<g id="node2" class="node">
<title>SG_0_Node_1</title>
<ellipse fill="none" stroke="#000000" cx="2326" cy="-37.2132" rx="34.7971" ry="21.4286"/>
<text text-anchor="middle" x="2326" y="-32.2132" font-family="Times,serif" font-size="20.00" fill="#000000">0.0</text>
</g>
<!-- SG_0_Node_0&#45;&gt;SG_0_Node_1 -->
<g id="edge1" class="edge">
<title>SG_0_Node_0&#45;&gt;SG_0_Node_1</title>
<path fill="none" stroke="#000000" d="M2368.0656,-198.2964C2357.7708,-188.5008 2346.3853,-175.5341 2340,-161.4264 2326.6298,-131.8865 2324.0976,-94.5157 2324.3067,-68.5177"/>
<polygon fill="#000000" stroke="#000000" points="2327.8068,-68.5444 2324.528,-58.4697 2320.8085,-68.3902 2327.8068,-68.5444"/>
<text text-anchor="middle" x="2386" y="-134.4264" font-family="Times,serif" font-size="20.00" fill="#000000">[NA]</text>
<text text-anchor="middle" x="2386" y="-112.4264" font-family="Times,serif" font-size="20.00" fill="#000000">59 levels</text>
</g>
<!-- SG_0_Node_2 -->
<g id="node3" class="node">
<title>SG_0_Node_2</title>
<ellipse fill="none" stroke="#000000" cx="2454" cy="-37.2132" rx="34.7971" ry="21.4286"/>
<text text-anchor="middle" x="2454" y="-32.2132" font-family="Times,serif" font-size="20.00" fill="#000000">1.0</text>
</g>
<!-- SG_0_Node_0&#45;&gt;SG_0_Node_2 -->
<g id="edge2" class="edge">
<title>SG_0_Node_0&#45;&gt;SG_0_Node_2</title>
<path fill="none" stroke="#000000" d="M2407.6319,-198.0256C2416.2923,-187.9674 2426.1072,-174.8472 2432,-161.4264 2445.078,-131.6413 2450.3862,-94.6033 2452.5382,-68.7562"/>
<polygon fill="#000000" stroke="#000000" points="2456.0307,-68.9843 2453.26,-58.7582 2449.0489,-68.4802 2456.0307,-68.9843"/>
<text text-anchor="middle" x="2468.5" y="-145.4264" font-family="Times,serif" font-size="20.00" fill="#000000">100</text>
<text text-anchor="middle" x="2468.5" y="-123.4264" font-family="Times,serif" font-size="20.00" fill="#000000">102</text>
<text text-anchor="middle" x="2468.5" y="-101.4264" font-family="Times,serif" font-size="20.00" fill="#000000">103</text>
</g>
<!-- SG_1_Node_0 -->
<g id="node4" class="node">
<title>SG_1_Node_0</title>
<polygon fill="none" stroke="#000000" points="7343,-234.4264 7201,-234.4264 7201,-198.4264 7343,-198.4264 7343,-234.4264"/>
<text text-anchor="middle" x="7272" y="-211.4264" font-family="Times,serif" font-size="20.00" fill="#000000">Status&#45;Code</text>
</g>
<!-- SG_1_Node_1 -->
<g id="node5" class="node">
<title>SG_1_Node_1</title>
<ellipse fill="none" stroke="#000000" cx="7228" cy="-37.2132" rx="34.7971" ry="21.4286"/>
<text text-anchor="middle" x="7228" y="-32.2132" font-family="Times,serif" font-size="20.00" fill="#000000">0.0</text>
</g>
<!-- SG_1_Node_0&#45;&gt;SG_1_Node_1 -->
<g id="edge3" class="edge">
<title>SG_1_Node_0&#45;&gt;SG_1_Node_1</title>
<path fill="none" stroke="#000000" d="M7259.8402,-198.3923C7253.4577,-188.0232 7246.1258,-174.4953 7242,-161.4264 7232.3963,-131.0054 7229.2057,-94.5645 7228.2297,-69.0479"/>
<polygon fill="#000000" stroke="#000000" points="7231.7219,-68.7252 7227.9348,-58.8304 7224.7248,-68.9273 7231.7219,-68.7252"/>
<text text-anchor="middle" x="7261.5" y="-145.4264" font-family="Times,serif" font-size="20.00" fill="#000000">100</text>
<text text-anchor="middle" x="7261.5" y="-123.4264" font-family="Times,serif" font-size="20.00" fill="#000000">102</text>
<text text-anchor="middle" x="7261.5" y="-101.4264" font-family="Times,serif" font-size="20.00" fill="#000000">103</text>
</g>
<!-- SG_1_Node_2 -->
<g id="node6" class="node">
<title>SG_1_Node_2</title>
<ellipse fill="none" stroke="#000000" cx="7315" cy="-37.2132" rx="34.7971" ry="21.4286"/>
<text text-anchor="middle" x="7315" y="-32.2132" font-family="Times,serif" font-size="20.00" fill="#000000">1.0</text>
</g>
<!-- SG_1_Node_0&#45;&gt;SG_1_Node_2 -->
<g id="edge4" class="edge">
<title>SG_1_Node_0&#45;&gt;SG_1_Node_2</title>
<path fill="none" stroke="#000000" d="M7276.3597,-198.2562C7283.6784,-167.754 7298.5163,-105.9131 7307.5253,-68.3659"/>
<polygon fill="#000000" stroke="#000000" points="7310.9708,-69.0067 7309.9006,-58.4661 7304.164,-67.3735 7310.9708,-69.0067"/>
<text text-anchor="middle" x="7346" y="-134.4264" font-family="Times,serif" font-size="20.00" fill="#000000">[NA]</text>
<text text-anchor="middle" x="7346" y="-112.4264" font-family="Times,serif" font-size="20.00" fill="#000000">59 levels</text>
</g>
</g>
</svg>
