<?xml version="1.0" encoding="UTF-8" standalone="no"?>
<!DOCTYPE svg PUBLIC "-//W3C//DTD SVG 1.1//EN"
 "http://www.w3.org/Graphics/SVG/1.1/DTD/svg11.dtd">
<!-- Generated by graphviz version 2.40.1 (20161225.0304)
 -->
<!-- Title: G Pages: 1 -->
<svg width="4725pt" height="1663pt"
 viewBox="0.00 0.00 4725.00 1662.56" xmlns="http://www.w3.org/2000/svg" xmlns:xlink="http://www.w3.org/1999/xlink">
<g id="graph0" class="graph" transform="scale(1 1) rotate(0) translate(4 1658.5584)">
<title>G</title>
<polygon fill="#ffffff" stroke="transparent" points="-4,4 -4,-1658.5584 4721,-1658.5584 4721,4 -4,4"/>
<g id="clust1" class="cluster">
<title>cluster_0</title>
<polygon fill="none" stroke="#000000" points="8,-8 8,-1646.5584 566,-1646.5584 566,-8 8,-8"/>
<text text-anchor="middle" x="287" y="-1610.5584" font-family="Times,serif" font-size="40.00" fill="#000000">Tree 0, Class js&#45;null</text>
</g>
<g id="clust10" class="cluster">
<title>cluster_1</title>
<polygon fill="none" stroke="#000000" points="574,-8 574,-1646.5584 4709,-1646.5584 4709,-8 574,-8"/>
<text text-anchor="middle" x="2641.5" y="-1610.5584" font-family="Times,serif" font-size="40.00" fill="#000000">Tree 0, Class {&#39;location&#39;: {&#39;hash&#39;: &#39;&#39;, &#39;host&#39;: &#39;&#39;, &#39;href&#39;: &#39;about:blank&#39;, &#39;port&#39;: &#39;&#39;, &#39;origin&#39;: &#39;null&#39;, &#39;search&#39;: &#39;&#39;, &#39;hostname&#39;: &#39;&#39;, &#39;pathname&#39;: &#39;blank&#39;, &#39;protocol&#39;: &#39;about:&#39;, &#39;ancestorOrigins&#39;: {&#39;0&#39;: &#39;http://localhost:8001&#39;}}}</text>
</g>
<!-- SG_0_Node_0 -->
<g id="node1" class="node">
<title>SG_0_Node_0</title>
<polygon fill="none" stroke="#000000" points="177,-1586.5584 35,-1586.5584 35,-1550.5584 177,-1550.5584 177,-1586.5584"/>
<text text-anchor="middle" x="106" y="-1563.5584" font-family="Times,serif" font-size="20.00" fill="#000000">Status&#45;Code</text>
</g>
<!-- SG_0_Node_9 -->
<g id="node2" class="node">
<title>SG_0_Node_9</title>
<ellipse fill="none" stroke="#000000" cx="74" cy="-1367.3452" rx="34.7971" ry="21.4286"/>
<text text-anchor="middle" x="74" y="-1362.3452" font-family="Times,serif" font-size="20.00" fill="#000000">0.0</text>
</g>
<!-- SG_0_Node_0&#45;&gt;SG_0_Node_9 -->
<g id="edge1" class="edge">
<title>SG_0_Node_0&#45;&gt;SG_0_Node_9</title>
<path fill="none" stroke="#000000" d="M103.1038,-1550.3472C97.6433,-1516.0124 85.7679,-1441.3409 78.9953,-1398.7551"/>
<polygon fill="#000000" stroke="#000000" points="82.4176,-1397.9897 77.3904,-1388.6636 75.5045,-1399.0892 82.4176,-1397.9897"/>
<text text-anchor="middle" x="116.5" y="-1497.5584" font-family="Times,serif" font-size="20.00" fill="#000000">100</text>
<text text-anchor="middle" x="116.5" y="-1475.5584" font-family="Times,serif" font-size="20.00" fill="#000000">102</text>
<text text-anchor="middle" x="116.5" y="-1453.5584" font-family="Times,serif" font-size="20.00" fill="#000000">103</text>
<text text-anchor="middle" x="116.5" y="-1431.5584" font-family="Times,serif" font-size="20.00" fill="#000000">407</text>
</g>
<!-- SG_0_Node_1 -->
<g id="node3" class="node">
<title>SG_0_Node_1</title>
<polygon fill="none" stroke="#000000" points="317.5,-1385.3452 126.5,-1385.3452 126.5,-1349.3452 317.5,-1349.3452 317.5,-1385.3452"/>
<text text-anchor="middle" x="222" y="-1362.3452" font-family="Times,serif" font-size="20.00" fill="#000000">X&#45;Frame&#45;Options</text>
</g>
<!-- SG_0_Node_0&#45;&gt;SG_0_Node_1 -->
<g id="edge2" class="edge">
<title>SG_0_Node_0&#45;&gt;SG_0_Node_1</title>
<path fill="none" stroke="#000000" d="M117.5297,-1550.3436C124.2063,-1539.6887 132.7063,-1525.9387 140,-1513.5584 164.2613,-1472.3778 191.1408,-1423.8609 207.2948,-1394.3675"/>
<polygon fill="#000000" stroke="#000000" points="210.4202,-1395.947 212.1459,-1385.4937 204.2781,-1392.5893 210.4202,-1395.947"/>
<text text-anchor="middle" x="235" y="-1475.5584" font-family="Times,serif" font-size="20.00" fill="#000000">[NA]</text>
<text text-anchor="middle" x="235" y="-1453.5584" font-family="Times,serif" font-size="20.00" fill="#000000">58 levels</text>
</g>
<!-- SG_0_Node_2 -->
<g id="node4" class="node">
<title>SG_0_Node_2</title>
<polygon fill="none" stroke="#000000" points="314,-1224.9188 54,-1224.9188 54,-1188.9188 314,-1188.9188 314,-1224.9188"/>
<text text-anchor="middle" x="184" y="-1201.9188" font-family="Times,serif" font-size="20.00" fill="#000000">Content&#45;Security&#45;Policy</text>
</g>
<!-- SG_0_Node_1&#45;&gt;SG_0_Node_2 -->
<g id="edge3" class="edge">
<title>SG_0_Node_1&#45;&gt;SG_0_Node_2</title>
<path fill="none" stroke="#000000" d="M217.7148,-1349.2541C211.1293,-1321.4519 198.467,-1267.9947 190.6733,-1235.0919"/>
<polygon fill="#000000" stroke="#000000" points="194.0386,-1234.114 188.3279,-1225.19 187.2271,-1235.7275 194.0386,-1234.114"/>
<text text-anchor="middle" x="240" y="-1293.132" font-family="Times,serif" font-size="20.00" fill="#000000">[NA]</text>
<text text-anchor="middle" x="240" y="-1271.132" font-family="Times,serif" font-size="20.00" fill="#000000">empty</text>
</g>
<!-- SG_0_Node_10 -->
<g id="node5" class="node">
<title>SG_0_Node_10</title>
<ellipse fill="none" stroke="#000000" cx="367" cy="-1206.9188" rx="34.7971" ry="21.4286"/>
<text text-anchor="middle" x="367" y="-1201.9188" font-family="Times,serif" font-size="20.00" fill="#000000">1.0</text>
</g>
<!-- SG_0_Node_1&#45;&gt;SG_0_Node_10 -->
<g id="edge4" class="edge">
<title>SG_0_Node_1&#45;&gt;SG_0_Node_10</title>
<path fill="none" stroke="#000000" d="M238.8791,-1349.34C249.5757,-1337.8828 263.6693,-1322.7004 276,-1309.132 299.1348,-1283.6752 325.208,-1254.3199 343.4963,-1233.6181"/>
<polygon fill="#000000" stroke="#000000" points="346.3497,-1235.6744 350.3427,-1225.8608 341.1013,-1231.0424 346.3497,-1235.6744"/>
<text text-anchor="middle" x="339.5" y="-1282.132" font-family="Times,serif" font-size="20.00" fill="#000000">deny</text>
</g>
<!-- SG_0_Node_3 -->
<g id="node6" class="node">
<title>SG_0_Node_3</title>
<polygon fill="none" stroke="#000000" points="182,-1042.4924 40,-1042.4924 40,-1006.4924 182,-1006.4924 182,-1042.4924"/>
<text text-anchor="middle" x="111" y="-1019.4924" font-family="Times,serif" font-size="20.00" fill="#000000">Status&#45;Code</text>
</g>
<!-- SG_0_Node_2&#45;&gt;SG_0_Node_3 -->
<g id="edge5" class="edge">
<title>SG_0_Node_2&#45;&gt;SG_0_Node_3</title>
<path fill="none" stroke="#000000" d="M158.732,-1188.7467C146.4294,-1178.4577 132.6703,-1164.4966 125,-1148.7056 110.2495,-1118.3385 108.2564,-1079.0094 108.9627,-1052.8243"/>
<polygon fill="#000000" stroke="#000000" points="112.4607,-1052.9451 109.3821,-1042.8074 105.4668,-1052.6522 112.4607,-1052.9451"/>
<text text-anchor="middle" x="207.5" y="-1132.7056" font-family="Times,serif" font-size="20.00" fill="#000000">[NA]</text>
<text text-anchor="middle" x="207.5" y="-1110.7056" font-family="Times,serif" font-size="20.00" fill="#000000">default&#45;src &#39;self&#39;</text>
<text text-anchor="middle" x="207.5" y="-1088.7056" font-family="Times,serif" font-size="20.00" fill="#000000">empty</text>
</g>
<!-- SG_0_Node_11 -->
<g id="node7" class="node">
<title>SG_0_Node_11</title>
<ellipse fill="none" stroke="#000000" cx="312" cy="-1024.4924" rx="34.7971" ry="21.4286"/>
<text text-anchor="middle" x="312" y="-1019.4924" font-family="Times,serif" font-size="20.00" fill="#000000">1.0</text>
</g>
<!-- SG_0_Node_2&#45;&gt;SG_0_Node_11 -->
<g id="edge6" class="edge">
<title>SG_0_Node_2&#45;&gt;SG_0_Node_11</title>
<path fill="none" stroke="#000000" d="M237.4503,-1188.8825C256.8242,-1179.7592 277.0951,-1166.7081 290,-1148.7056 309.3744,-1121.6781 313.5053,-1083.0127 313.6595,-1056.024"/>
<polygon fill="#000000" stroke="#000000" points="317.1584,-1055.9047 313.5371,-1045.948 310.1589,-1055.9898 317.1584,-1055.9047"/>
<text text-anchor="middle" x="422.5" y="-1110.7056" font-family="Times,serif" font-size="20.00" fill="#000000">frame&#45;ancestors &#39;self&#39;</text>
</g>
<!-- SG_0_Node_12 -->
<g id="node8" class="node">
<title>SG_0_Node_12</title>
<ellipse fill="none" stroke="#000000" cx="70" cy="-864.066" rx="34.7971" ry="21.4286"/>
<text text-anchor="middle" x="70" y="-859.066" font-family="Times,serif" font-size="20.00" fill="#000000">0.0</text>
</g>
<!-- SG_0_Node_3&#45;&gt;SG_0_Node_12 -->
<g id="edge7" class="edge">
<title>SG_0_Node_3&#45;&gt;SG_0_Node_12</title>
<path fill="none" stroke="#000000" d="M106.3765,-1006.4013C99.479,-979.4125 86.4028,-928.2477 77.9514,-895.1784"/>
<polygon fill="#000000" stroke="#000000" points="81.2508,-893.953 75.3836,-885.1311 74.4687,-895.6863 81.2508,-893.953"/>
<text text-anchor="middle" x="141" y="-950.2792" font-family="Times,serif" font-size="20.00" fill="#000000">[NA]</text>
<text text-anchor="middle" x="141" y="-928.2792" font-family="Times,serif" font-size="20.00" fill="#000000">42 levels</text>
</g>
<!-- SG_0_Node_4 -->
<g id="node9" class="node">
<title>SG_0_Node_4</title>
<polygon fill="none" stroke="#000000" points="343.5,-882.066 122.5,-882.066 122.5,-846.066 343.5,-846.066 343.5,-882.066"/>
<text text-anchor="middle" x="233" y="-859.066" font-family="Times,serif" font-size="20.00" fill="#000000">Content&#45;Disposition</text>
</g>
<!-- SG_0_Node_3&#45;&gt;SG_0_Node_4 -->
<g id="edge8" class="edge">
<title>SG_0_Node_3&#45;&gt;SG_0_Node_4</title>
<path fill="none" stroke="#000000" d="M143.9652,-1006.3851C159.8941,-996.2931 178.268,-982.489 191,-966.2792 208.3915,-944.1372 219.6458,-913.7905 226.0839,-891.9229"/>
<polygon fill="#000000" stroke="#000000" points="229.4699,-892.8104 228.7856,-882.2377 222.7274,-890.9295 229.4699,-892.8104"/>
<text text-anchor="middle" x="261" y="-939.2792" font-family="Times,serif" font-size="20.00" fill="#000000">16 levels</text>
</g>
<!-- SG_0_Node_5 -->
<g id="node10" class="node">
<title>SG_0_Node_5</title>
<polygon fill="none" stroke="#000000" points="169,-724.8528 27,-724.8528 27,-688.8528 169,-688.8528 169,-724.8528"/>
<text text-anchor="middle" x="98" y="-701.8528" font-family="Times,serif" font-size="20.00" fill="#000000">Status&#45;Code</text>
</g>
<!-- SG_0_Node_4&#45;&gt;SG_0_Node_5 -->
<g id="edge9" class="edge">
<title>SG_0_Node_4&#45;&gt;SG_0_Node_5</title>
<path fill="none" stroke="#000000" d="M173.5319,-846.0599C153.0993,-837.0697 131.8952,-824.1019 118,-805.8528 102.6426,-785.6833 98.2525,-756.7205 97.3403,-735.329"/>
<polygon fill="#000000" stroke="#000000" points="100.8373,-735.1426 97.1396,-725.214 93.8387,-735.2815 100.8373,-735.1426"/>
<text text-anchor="middle" x="177" y="-778.8528" font-family="Times,serif" font-size="20.00" fill="#000000">attachment</text>
</g>
<!-- SG_0_Node_6 -->
<g id="node11" class="node">
<title>SG_0_Node_6</title>
<polygon fill="none" stroke="#000000" points="304.5,-724.8528 199.5,-724.8528 199.5,-688.8528 304.5,-688.8528 304.5,-724.8528"/>
<text text-anchor="middle" x="252" y="-701.8528" font-family="Times,serif" font-size="20.00" fill="#000000">Location</text>
</g>
<!-- SG_0_Node_4&#45;&gt;SG_0_Node_6 -->
<g id="edge10" class="edge">
<title>SG_0_Node_4&#45;&gt;SG_0_Node_6</title>
<path fill="none" stroke="#000000" d="M235.1795,-846.0317C238.4548,-818.9307 244.6757,-767.4565 248.5653,-735.2729"/>
<polygon fill="#000000" stroke="#000000" points="252.0622,-735.5088 249.7874,-725.1611 245.1127,-734.6689 252.0622,-735.5088"/>
<text text-anchor="middle" x="277" y="-789.8528" font-family="Times,serif" font-size="20.00" fill="#000000">[NA]</text>
<text text-anchor="middle" x="277" y="-767.8528" font-family="Times,serif" font-size="20.00" fill="#000000">empty</text>
</g>
<!-- SG_0_Node_13 -->
<g id="node12" class="node">
<title>SG_0_Node_13</title>
<ellipse fill="none" stroke="#000000" cx="51" cy="-373.6396" rx="34.7971" ry="21.4286"/>
<text text-anchor="middle" x="51" y="-368.6396" font-family="Times,serif" font-size="20.00" fill="#000000">0.0</text>
</g>
<!-- SG_0_Node_5&#45;&gt;SG_0_Node_13 -->
<g id="edge15" class="edge">
<title>SG_0_Node_5&#45;&gt;SG_0_Node_13</title>
<path fill="none" stroke="#000000" d="M75.1253,-688.7634C64.7308,-679.0676 53.5375,-666.1761 48,-651.8528 15.341,-567.3767 32.1316,-457.3997 43.4556,-404.5931"/>
<polygon fill="#000000" stroke="#000000" points="46.8749,-405.3402 45.6312,-394.8186 40.0421,-403.8193 46.8749,-405.3402"/>
<text text-anchor="middle" x="67.5" y="-635.8528" font-family="Times,serif" font-size="20.00" fill="#000000">200</text>
<text text-anchor="middle" x="67.5" y="-613.8528" font-family="Times,serif" font-size="20.00" fill="#000000">201</text>
<text text-anchor="middle" x="67.5" y="-591.8528" font-family="Times,serif" font-size="20.00" fill="#000000">202</text>
<text text-anchor="middle" x="67.5" y="-569.8528" font-family="Times,serif" font-size="20.00" fill="#000000">203</text>
<text text-anchor="middle" x="67.5" y="-547.8528" font-family="Times,serif" font-size="20.00" fill="#000000">204</text>
<text text-anchor="middle" x="67.5" y="-525.8528" font-family="Times,serif" font-size="20.00" fill="#000000">205</text>
<text text-anchor="middle" x="67.5" y="-503.8528" font-family="Times,serif" font-size="20.00" fill="#000000">206</text>
<text text-anchor="middle" x="67.5" y="-481.8528" font-family="Times,serif" font-size="20.00" fill="#000000">207</text>
<text text-anchor="middle" x="67.5" y="-459.8528" font-family="Times,serif" font-size="20.00" fill="#000000">208</text>
<text text-anchor="middle" x="67.5" y="-437.8528" font-family="Times,serif" font-size="20.00" fill="#000000">226</text>
</g>
<!-- SG_0_Node_7 -->
<g id="node13" class="node">
<title>SG_0_Node_7</title>
<polygon fill="none" stroke="#000000" points="208.5,-391.6396 103.5,-391.6396 103.5,-355.6396 208.5,-355.6396 208.5,-391.6396"/>
<text text-anchor="middle" x="156" y="-368.6396" font-family="Times,serif" font-size="20.00" fill="#000000">Location</text>
</g>
<!-- SG_0_Node_5&#45;&gt;SG_0_Node_7 -->
<g id="edge16" class="edge">
<title>SG_0_Node_5&#45;&gt;SG_0_Node_7</title>
<path fill="none" stroke="#000000" d="M97.048,-688.6471C95.2558,-643.8144 93.8729,-524.961 123,-431.8528 126.3907,-421.0139 132.004,-409.9642 137.6479,-400.4454"/>
<polygon fill="#000000" stroke="#000000" points="140.6876,-402.185 142.9969,-391.8449 134.7435,-398.4881 140.6876,-402.185"/>
<text text-anchor="middle" x="142.5" y="-591.8528" font-family="Times,serif" font-size="20.00" fill="#000000">301</text>
<text text-anchor="middle" x="142.5" y="-569.8528" font-family="Times,serif" font-size="20.00" fill="#000000">302</text>
<text text-anchor="middle" x="142.5" y="-547.8528" font-family="Times,serif" font-size="20.00" fill="#000000">303</text>
<text text-anchor="middle" x="142.5" y="-525.8528" font-family="Times,serif" font-size="20.00" fill="#000000">305</text>
<text text-anchor="middle" x="142.5" y="-503.8528" font-family="Times,serif" font-size="20.00" fill="#000000">307</text>
<text text-anchor="middle" x="142.5" y="-481.8528" font-family="Times,serif" font-size="20.00" fill="#000000">308</text>
</g>
<!-- SG_0_Node_8 -->
<g id="node14" class="node">
<title>SG_0_Node_8</title>
<polygon fill="none" stroke="#000000" points="420,-391.6396 278,-391.6396 278,-355.6396 420,-355.6396 420,-391.6396"/>
<text text-anchor="middle" x="349" y="-368.6396" font-family="Times,serif" font-size="20.00" fill="#000000">Status&#45;Code</text>
</g>
<!-- SG_0_Node_6&#45;&gt;SG_0_Node_8 -->
<g id="edge11" class="edge">
<title>SG_0_Node_6&#45;&gt;SG_0_Node_8</title>
<path fill="none" stroke="#000000" d="M226.7685,-688.634C215.7136,-679.0785 203.925,-666.3448 198,-651.8528 160.9968,-561.3472 142.6761,-512.4739 198,-431.8528 207.1843,-418.469 238.8397,-405.3076 270.8104,-394.8944"/>
<polygon fill="#000000" stroke="#000000" points="272.243,-398.112 280.7179,-391.7538 270.1277,-391.4392 272.243,-398.112"/>
<text text-anchor="middle" x="230" y="-536.8528" font-family="Times,serif" font-size="20.00" fill="#000000">empty</text>
</g>
<!-- SG_0_Node_14 -->
<g id="node15" class="node">
<title>SG_0_Node_14</title>
<ellipse fill="none" stroke="#000000" cx="473" cy="-373.6396" rx="34.7971" ry="21.4286"/>
<text text-anchor="middle" x="473" y="-368.6396" font-family="Times,serif" font-size="20.00" fill="#000000">1.0</text>
</g>
<!-- SG_0_Node_6&#45;&gt;SG_0_Node_14 -->
<g id="edge12" class="edge">
<title>SG_0_Node_6&#45;&gt;SG_0_Node_14</title>
<path fill="none" stroke="#000000" d="M255.455,-688.5408C257.44,-677.8534 259.94,-664.1034 262,-651.8528 270.2032,-603.0684 263.1435,-468.8347 296,-431.8528 336.7514,-385.9849 371.5834,-416.4834 429,-394.8528 431.6784,-393.8438 434.4152,-392.7321 437.1487,-391.5624"/>
<polygon fill="#000000" stroke="#000000" points="438.6561,-394.7222 446.3389,-387.4266 435.7834,-388.3388 438.6561,-394.7222"/>
<text text-anchor="middle" x="433" y="-558.8528" font-family="Times,serif" font-size="20.00" fill="#000000">[NA]</text>
<text text-anchor="middle" x="433" y="-536.8528" font-family="Times,serif" font-size="20.00" fill="#000000">/</text>
<text text-anchor="middle" x="433" y="-514.8528" font-family="Times,serif" font-size="20.00" fill="#000000">http://localhost:8000/echo/</text>
</g>
<!-- SG_0_Node_15 -->
<g id="node16" class="node">
<title>SG_0_Node_15</title>
<ellipse fill="none" stroke="#000000" cx="51" cy="-37.2132" rx="34.7971" ry="21.4286"/>
<text text-anchor="middle" x="51" y="-32.2132" font-family="Times,serif" font-size="20.00" fill="#000000">0.0</text>
</g>
<!-- SG_0_Node_7&#45;&gt;SG_0_Node_15 -->
<g id="edge17" class="edge">
<title>SG_0_Node_7&#45;&gt;SG_0_Node_15</title>
<path fill="none" stroke="#000000" d="M114.0873,-355.4649C97.4716,-346.0225 79.978,-332.7742 70,-315.4264 24.5146,-236.3454 35.6968,-122.9435 44.7672,-68.5945"/>
<polygon fill="#000000" stroke="#000000" points="48.2504,-68.9949 46.5357,-58.5398 41.3563,-67.7823 48.2504,-68.9949"/>
<text text-anchor="middle" x="102" y="-200.4264" font-family="Times,serif" font-size="20.00" fill="#000000">empty</text>
</g>
<!-- SG_0_Node_16 -->
<g id="node17" class="node">
<title>SG_0_Node_16</title>
<ellipse fill="none" stroke="#000000" cx="138" cy="-37.2132" rx="34.7971" ry="21.4286"/>
<text text-anchor="middle" x="138" y="-32.2132" font-family="Times,serif" font-size="20.00" fill="#000000">1.0</text>
</g>
<!-- SG_0_Node_7&#45;&gt;SG_0_Node_16 -->
<g id="edge18" class="edge">
<title>SG_0_Node_7&#45;&gt;SG_0_Node_16</title>
<path fill="none" stroke="#000000" d="M153.0437,-355.5992C151.2824,-344.1284 149.1688,-328.9439 148,-315.4264 140.2844,-226.1911 138.4991,-120.3583 138.1015,-68.7199"/>
<polygon fill="#000000" stroke="#000000" points="141.6004,-68.5262 138.036,-58.5489 134.6005,-68.5713 141.6004,-68.5262"/>
<text text-anchor="middle" x="285" y="-222.4264" font-family="Times,serif" font-size="20.00" fill="#000000">[NA]</text>
<text text-anchor="middle" x="285" y="-200.4264" font-family="Times,serif" font-size="20.00" fill="#000000">/</text>
<text text-anchor="middle" x="285" y="-178.4264" font-family="Times,serif" font-size="20.00" fill="#000000">http://localhost:8000/echo/</text>
</g>
<!-- SG_0_Node_17 -->
<g id="node18" class="node">
<title>SG_0_Node_17</title>
<ellipse fill="none" stroke="#000000" cx="434" cy="-37.2132" rx="34.7971" ry="21.4286"/>
<text text-anchor="middle" x="434" y="-32.2132" font-family="Times,serif" font-size="20.00" fill="#000000">0.0</text>
</g>
<!-- SG_0_Node_8&#45;&gt;SG_0_Node_17 -->
<g id="edge13" class="edge">
<title>SG_0_Node_8&#45;&gt;SG_0_Node_17</title>
<path fill="none" stroke="#000000" d="M382.9718,-355.4906C397.6906,-345.7118 413.4781,-332.1879 422,-315.4264 463.1853,-234.42 450.3593,-122.3796 440.6338,-68.5516"/>
<polygon fill="#000000" stroke="#000000" points="444.0466,-67.7627 438.7469,-58.5886 437.1689,-69.0653 444.0466,-67.7627"/>
<text text-anchor="middle" x="469.5" y="-255.4264" font-family="Times,serif" font-size="20.00" fill="#000000">301</text>
<text text-anchor="middle" x="469.5" y="-233.4264" font-family="Times,serif" font-size="20.00" fill="#000000">302</text>
<text text-anchor="middle" x="469.5" y="-211.4264" font-family="Times,serif" font-size="20.00" fill="#000000">303</text>
<text text-anchor="middle" x="469.5" y="-189.4264" font-family="Times,serif" font-size="20.00" fill="#000000">305</text>
<text text-anchor="middle" x="469.5" y="-167.4264" font-family="Times,serif" font-size="20.00" fill="#000000">307</text>
<text text-anchor="middle" x="469.5" y="-145.4264" font-family="Times,serif" font-size="20.00" fill="#000000">308</text>
</g>
<!-- SG_0_Node_18 -->
<g id="node19" class="node">
<title>SG_0_Node_18</title>
<ellipse fill="none" stroke="#000000" cx="521" cy="-37.2132" rx="34.7971" ry="21.4286"/>
<text text-anchor="middle" x="521" y="-32.2132" font-family="Times,serif" font-size="20.00" fill="#000000">1.0</text>
</g>
<!-- SG_0_Node_8&#45;&gt;SG_0_Node_18 -->
<g id="edge14" class="edge">
<title>SG_0_Node_8&#45;&gt;SG_0_Node_18</title>
<path fill="none" stroke="#000000" d="M411.2798,-355.5346C445.2297,-344.3552 482.4435,-329.5028 493,-315.4264 521.634,-277.2448 522.8003,-133.59 521.801,-69.0072"/>
<polygon fill="#000000" stroke="#000000" points="525.2935,-68.5624 521.6107,-58.6282 518.2947,-68.6907 525.2935,-68.5624"/>
<text text-anchor="middle" x="541.5" y="-299.4264" font-family="Times,serif" font-size="20.00" fill="#000000">200</text>
<text text-anchor="middle" x="541.5" y="-277.4264" font-family="Times,serif" font-size="20.00" fill="#000000">201</text>
<text text-anchor="middle" x="541.5" y="-255.4264" font-family="Times,serif" font-size="20.00" fill="#000000">202</text>
<text text-anchor="middle" x="541.5" y="-233.4264" font-family="Times,serif" font-size="20.00" fill="#000000">203</text>
<text text-anchor="middle" x="541.5" y="-211.4264" font-family="Times,serif" font-size="20.00" fill="#000000">204</text>
<text text-anchor="middle" x="541.5" y="-189.4264" font-family="Times,serif" font-size="20.00" fill="#000000">205</text>
<text text-anchor="middle" x="541.5" y="-167.4264" font-family="Times,serif" font-size="20.00" fill="#000000">206</text>
<text text-anchor="middle" x="541.5" y="-145.4264" font-family="Times,serif" font-size="20.00" fill="#000000">207</text>
<text text-anchor="middle" x="541.5" y="-123.4264" font-family="Times,serif" font-size="20.00" fill="#000000">208</text>
<text text-anchor="middle" x="541.5" y="-101.4264" font-family="Times,serif" font-size="20.00" fill="#000000">226</text>
</g>
<!-- SG_1_Node_0 -->
<g id="node20" class="node">
<title>SG_1_Node_0</title>
<polygon fill="none" stroke="#000000" points="2660,-1586.5584 2518,-1586.5584 2518,-1550.5584 2660,-1550.5584 2660,-1586.5584"/>
<text text-anchor="middle" x="2589" y="-1563.5584" font-family="Times,serif" font-size="20.00" fill="#000000">Status&#45;Code</text>
</g>
<!-- SG_1_Node_1 -->
<g id="node21" class="node">
<title>SG_1_Node_1</title>
<polygon fill="none" stroke="#000000" points="2610.5,-1385.3452 2419.5,-1385.3452 2419.5,-1349.3452 2610.5,-1349.3452 2610.5,-1385.3452"/>
<text text-anchor="middle" x="2515" y="-1362.3452" font-family="Times,serif" font-size="20.00" fill="#000000">X&#45;Frame&#45;Options</text>
</g>
<!-- SG_1_Node_0&#45;&gt;SG_1_Node_1 -->
<g id="edge19" class="edge">
<title>SG_1_Node_0&#45;&gt;SG_1_Node_1</title>
<path fill="none" stroke="#000000" d="M2570.1973,-1550.3157C2560.9425,-1540.3008 2550.4215,-1527.1715 2544,-1513.5584 2526.0054,-1475.4113 2519.169,-1426.5725 2516.5766,-1396.1181"/>
<polygon fill="#000000" stroke="#000000" points="2520.0397,-1395.4936 2515.8008,-1385.7838 2513.0593,-1396.0178 2520.0397,-1395.4936"/>
<text text-anchor="middle" x="2590" y="-1475.5584" font-family="Times,serif" font-size="20.00" fill="#000000">[NA]</text>
<text text-anchor="middle" x="2590" y="-1453.5584" font-family="Times,serif" font-size="20.00" fill="#000000">58 levels</text>
</g>
<!-- SG_1_Node_9 -->
<g id="node22" class="node">
<title>SG_1_Node_9</title>
<ellipse fill="none" stroke="#000000" cx="2663" cy="-1367.3452" rx="34.7971" ry="21.4286"/>
<text text-anchor="middle" x="2663" y="-1362.3452" font-family="Times,serif" font-size="20.00" fill="#000000">1.0</text>
</g>
<!-- SG_1_Node_0&#45;&gt;SG_1_Node_9 -->
<g id="edge20" class="edge">
<title>SG_1_Node_0&#45;&gt;SG_1_Node_9</title>
<path fill="none" stroke="#000000" d="M2608.731,-1550.4956C2618.4224,-1540.5299 2629.4058,-1527.3904 2636,-1513.5584 2653.5883,-1476.6656 2659.7485,-1429.4781 2661.8889,-1398.8425"/>
<polygon fill="#000000" stroke="#000000" points="2665.3898,-1398.9311 2662.4905,-1388.7406 2658.4021,-1398.5149 2665.3898,-1398.9311"/>
<text text-anchor="middle" x="2678.5" y="-1497.5584" font-family="Times,serif" font-size="20.00" fill="#000000">100</text>
<text text-anchor="middle" x="2678.5" y="-1475.5584" font-family="Times,serif" font-size="20.00" fill="#000000">102</text>
<text text-anchor="middle" x="2678.5" y="-1453.5584" font-family="Times,serif" font-size="20.00" fill="#000000">103</text>
<text text-anchor="middle" x="2678.5" y="-1431.5584" font-family="Times,serif" font-size="20.00" fill="#000000">407</text>
</g>
<!-- SG_1_Node_10 -->
<g id="node23" class="node">
<title>SG_1_Node_10</title>
<ellipse fill="none" stroke="#000000" cx="2424" cy="-1206.9188" rx="34.7971" ry="21.4286"/>
<text text-anchor="middle" x="2424" y="-1201.9188" font-family="Times,serif" font-size="20.00" fill="#000000">0.0</text>
</g>
<!-- SG_1_Node_1&#45;&gt;SG_1_Node_10 -->
<g id="edge21" class="edge">
<title>SG_1_Node_1&#45;&gt;SG_1_Node_10</title>
<path fill="none" stroke="#000000" d="M2504.738,-1349.2541C2489.1026,-1321.6901 2459.163,-1268.9086 2440.463,-1235.9419"/>
<polygon fill="#000000" stroke="#000000" points="2443.4862,-1234.1777 2435.5079,-1227.2064 2437.3975,-1237.6314 2443.4862,-1234.1777"/>
<text text-anchor="middle" x="2505.5" y="-1282.132" font-family="Times,serif" font-size="20.00" fill="#000000">deny</text>
</g>
<!-- SG_1_Node_2 -->
<g id="node24" class="node">
<title>SG_1_Node_2</title>
<polygon fill="none" stroke="#000000" points="2737,-1224.9188 2477,-1224.9188 2477,-1188.9188 2737,-1188.9188 2737,-1224.9188"/>
<text text-anchor="middle" x="2607" y="-1201.9188" font-family="Times,serif" font-size="20.00" fill="#000000">Content&#45;Security&#45;Policy</text>
</g>
<!-- SG_1_Node_1&#45;&gt;SG_1_Node_2 -->
<g id="edge22" class="edge">
<title>SG_1_Node_1&#45;&gt;SG_1_Node_2</title>
<path fill="none" stroke="#000000" d="M2525.3747,-1349.2541C2541.4566,-1321.2112 2572.5067,-1267.0671 2591.331,-1234.2419"/>
<polygon fill="#000000" stroke="#000000" points="2594.5834,-1235.6059 2596.522,-1225.19 2588.5111,-1232.1236 2594.5834,-1235.6059"/>
<text text-anchor="middle" x="2605" y="-1293.132" font-family="Times,serif" font-size="20.00" fill="#000000">[NA]</text>
<text text-anchor="middle" x="2605" y="-1271.132" font-family="Times,serif" font-size="20.00" fill="#000000">empty</text>
</g>
<!-- SG_1_Node_11 -->
<g id="node25" class="node">
<title>SG_1_Node_11</title>
<ellipse fill="none" stroke="#000000" cx="2479" cy="-1024.4924" rx="34.7971" ry="21.4286"/>
<text text-anchor="middle" x="2479" y="-1019.4924" font-family="Times,serif" font-size="20.00" fill="#000000">0.0</text>
</g>
<!-- SG_1_Node_2&#45;&gt;SG_1_Node_11 -->
<g id="edge23" class="edge">
<title>SG_1_Node_2&#45;&gt;SG_1_Node_11</title>
<path fill="none" stroke="#000000" d="M2545.9831,-1188.9032C2526.0113,-1179.9866 2505.711,-1167.0695 2493,-1148.7056 2474.2458,-1121.6109 2472.8139,-1082.9581 2474.7532,-1055.9906"/>
<polygon fill="#000000" stroke="#000000" points="2478.2486,-1056.1999 2475.6711,-1045.9234 2471.2775,-1055.5643 2478.2486,-1056.1999"/>
<text text-anchor="middle" x="2603.5" y="-1110.7056" font-family="Times,serif" font-size="20.00" fill="#000000">frame&#45;ancestors &#39;self&#39;</text>
</g>
<!-- SG_1_Node_3 -->
<g id="node26" class="node">
<title>SG_1_Node_3</title>
<polygon fill="none" stroke="#000000" points="2807,-1042.4924 2665,-1042.4924 2665,-1006.4924 2807,-1006.4924 2807,-1042.4924"/>
<text text-anchor="middle" x="2736" y="-1019.4924" font-family="Times,serif" font-size="20.00" fill="#000000">Status&#45;Code</text>
</g>
<!-- SG_1_Node_2&#45;&gt;SG_1_Node_3 -->
<g id="edge24" class="edge">
<title>SG_1_Node_2&#45;&gt;SG_1_Node_3</title>
<path fill="none" stroke="#000000" d="M2661.2247,-1188.8614C2680.696,-1179.7585 2701.0274,-1166.7272 2714,-1148.7056 2734.129,-1120.7423 2737.8263,-1080.2371 2737.6859,-1053.1661"/>
<polygon fill="#000000" stroke="#000000" points="2741.1765,-1052.7246 2737.4422,-1042.8097 2734.1785,-1052.8893 2741.1765,-1052.7246"/>
<text text-anchor="middle" x="2818.5" y="-1132.7056" font-family="Times,serif" font-size="20.00" fill="#000000">[NA]</text>
<text text-anchor="middle" x="2818.5" y="-1110.7056" font-family="Times,serif" font-size="20.00" fill="#000000">default&#45;src &#39;self&#39;</text>
<text text-anchor="middle" x="2818.5" y="-1088.7056" font-family="Times,serif" font-size="20.00" fill="#000000">empty</text>
</g>
<!-- SG_1_Node_4 -->
<g id="node27" class="node">
<title>SG_1_Node_4</title>
<polygon fill="none" stroke="#000000" points="2764.5,-882.066 2543.5,-882.066 2543.5,-846.066 2764.5,-846.066 2764.5,-882.066"/>
<text text-anchor="middle" x="2654" y="-859.066" font-family="Times,serif" font-size="20.00" fill="#000000">Content&#45;Disposition</text>
</g>
<!-- SG_1_Node_3&#45;&gt;SG_1_Node_4 -->
<g id="edge25" class="edge">
<title>SG_1_Node_3&#45;&gt;SG_1_Node_4</title>
<path fill="none" stroke="#000000" d="M2706.8774,-1006.3956C2693.1509,-996.3063 2677.8746,-982.5014 2669,-966.2792 2656.5552,-943.5308 2653.3826,-913.8771 2652.9785,-892.3727"/>
<polygon fill="#000000" stroke="#000000" points="2656.4784,-892.2441 2652.9793,-882.2437 2649.4784,-892.2434 2656.4784,-892.2441"/>
<text text-anchor="middle" x="2715" y="-939.2792" font-family="Times,serif" font-size="20.00" fill="#000000">16 levels</text>
</g>
<!-- SG_1_Node_12 -->
<g id="node28" class="node">
<title>SG_1_Node_12</title>
<ellipse fill="none" stroke="#000000" cx="2817" cy="-864.066" rx="34.7971" ry="21.4286"/>
<text text-anchor="middle" x="2817" y="-859.066" font-family="Times,serif" font-size="20.00" fill="#000000">1.0</text>
</g>
<!-- SG_1_Node_3&#45;&gt;SG_1_Node_12 -->
<g id="edge26" class="edge">
<title>SG_1_Node_3&#45;&gt;SG_1_Node_12</title>
<path fill="none" stroke="#000000" d="M2745.1343,-1006.4013C2758.992,-978.955 2785.4735,-926.5065 2802.1322,-893.5128"/>
<polygon fill="#000000" stroke="#000000" points="2805.3739,-894.8579 2806.7567,-884.3536 2799.1252,-891.7028 2805.3739,-894.8579"/>
<text text-anchor="middle" x="2833" y="-950.2792" font-family="Times,serif" font-size="20.00" fill="#000000">[NA]</text>
<text text-anchor="middle" x="2833" y="-928.2792" font-family="Times,serif" font-size="20.00" fill="#000000">42 levels</text>
</g>
<!-- SG_1_Node_5 -->
<g id="node29" class="node">
<title>SG_1_Node_5</title>
<polygon fill="none" stroke="#000000" points="2635.5,-724.8528 2530.5,-724.8528 2530.5,-688.8528 2635.5,-688.8528 2635.5,-724.8528"/>
<text text-anchor="middle" x="2583" y="-701.8528" font-family="Times,serif" font-size="20.00" fill="#000000">Location</text>
</g>
<!-- SG_1_Node_4&#45;&gt;SG_1_Node_5 -->
<g id="edge27" class="edge">
<title>SG_1_Node_4&#45;&gt;SG_1_Node_5</title>
<path fill="none" stroke="#000000" d="M2645.8554,-846.0317C2633.5097,-818.695 2609.9645,-766.5594 2595.4578,-734.4377"/>
<polygon fill="#000000" stroke="#000000" points="2598.5741,-732.8342 2591.2683,-725.1611 2592.1945,-735.7154 2598.5741,-732.8342"/>
<text text-anchor="middle" x="2659" y="-789.8528" font-family="Times,serif" font-size="20.00" fill="#000000">[NA]</text>
<text text-anchor="middle" x="2659" y="-767.8528" font-family="Times,serif" font-size="20.00" fill="#000000">empty</text>
</g>
<!-- SG_1_Node_6 -->
<g id="node30" class="node">
<title>SG_1_Node_6</title>
<polygon fill="none" stroke="#000000" points="2796,-724.8528 2654,-724.8528 2654,-688.8528 2796,-688.8528 2796,-724.8528"/>
<text text-anchor="middle" x="2725" y="-701.8528" font-family="Times,serif" font-size="20.00" fill="#000000">Status&#45;Code</text>
</g>
<!-- SG_1_Node_4&#45;&gt;SG_1_Node_6 -->
<g id="edge28" class="edge">
<title>SG_1_Node_4&#45;&gt;SG_1_Node_6</title>
<path fill="none" stroke="#000000" d="M2667.5946,-845.9088C2675.4824,-834.7714 2685.1749,-819.9805 2692,-805.8528 2703.1405,-782.7924 2712.0397,-755.0133 2717.7761,-734.758"/>
<polygon fill="#000000" stroke="#000000" points="2721.2056,-735.4866 2720.4826,-724.9164 2714.4561,-733.6304 2721.2056,-735.4866"/>
<text text-anchor="middle" x="2768" y="-778.8528" font-family="Times,serif" font-size="20.00" fill="#000000">attachment</text>
</g>
<!-- SG_1_Node_13 -->
<g id="node31" class="node">
<title>SG_1_Node_13</title>
<ellipse fill="none" stroke="#000000" cx="2273" cy="-373.6396" rx="34.7971" ry="21.4286"/>
<text text-anchor="middle" x="2273" y="-368.6396" font-family="Times,serif" font-size="20.00" fill="#000000">0.0</text>
</g>
<!-- SG_1_Node_5&#45;&gt;SG_1_Node_13 -->
<g id="edge33" class="edge">
<title>SG_1_Node_5&#45;&gt;SG_1_Node_13</title>
<path fill="none" stroke="#000000" d="M2530.479,-703.6807C2458.5285,-698.1753 2334.8116,-684.1762 2305,-651.8528 2241.8518,-583.3842 2255.2962,-461.587 2266.0621,-404.6213"/>
<polygon fill="#000000" stroke="#000000" points="2269.5041,-405.2571 2268.0221,-394.7665 2262.6386,-403.8916 2269.5041,-405.2571"/>
<text text-anchor="middle" x="2442" y="-558.8528" font-family="Times,serif" font-size="20.00" fill="#000000">[NA]</text>
<text text-anchor="middle" x="2442" y="-536.8528" font-family="Times,serif" font-size="20.00" fill="#000000">/</text>
<text text-anchor="middle" x="2442" y="-514.8528" font-family="Times,serif" font-size="20.00" fill="#000000">http://localhost:8000/echo/</text>
</g>
<!-- SG_1_Node_7 -->
<g id="node32" class="node">
<title>SG_1_Node_7</title>
<polygon fill="none" stroke="#000000" points="2654,-391.6396 2512,-391.6396 2512,-355.6396 2654,-355.6396 2654,-391.6396"/>
<text text-anchor="middle" x="2583" y="-368.6396" font-family="Times,serif" font-size="20.00" fill="#000000">Status&#45;Code</text>
</g>
<!-- SG_1_Node_5&#45;&gt;SG_1_Node_7 -->
<g id="edge34" class="edge">
<title>SG_1_Node_5&#45;&gt;SG_1_Node_7</title>
<path fill="none" stroke="#000000" d="M2583,-688.4632C2583,-633.2778 2583,-468.8021 2583,-402.1574"/>
<polygon fill="#000000" stroke="#000000" points="2586.5001,-401.9724 2583,-391.9724 2579.5001,-401.9724 2586.5001,-401.9724"/>
<text text-anchor="middle" x="2615" y="-536.8528" font-family="Times,serif" font-size="20.00" fill="#000000">empty</text>
</g>
<!-- SG_1_Node_8 -->
<g id="node33" class="node">
<title>SG_1_Node_8</title>
<polygon fill="none" stroke="#000000" points="2777.5,-391.6396 2672.5,-391.6396 2672.5,-355.6396 2777.5,-355.6396 2777.5,-391.6396"/>
<text text-anchor="middle" x="2725" y="-368.6396" font-family="Times,serif" font-size="20.00" fill="#000000">Location</text>
</g>
<!-- SG_1_Node_6&#45;&gt;SG_1_Node_8 -->
<g id="edge29" class="edge">
<title>SG_1_Node_6&#45;&gt;SG_1_Node_8</title>
<path fill="none" stroke="#000000" d="M2725,-688.4632C2725,-633.2778 2725,-468.8021 2725,-402.1574"/>
<polygon fill="#000000" stroke="#000000" points="2728.5001,-401.9724 2725,-391.9724 2721.5001,-401.9724 2728.5001,-401.9724"/>
<text text-anchor="middle" x="2744.5" y="-591.8528" font-family="Times,serif" font-size="20.00" fill="#000000">301</text>
<text text-anchor="middle" x="2744.5" y="-569.8528" font-family="Times,serif" font-size="20.00" fill="#000000">302</text>
<text text-anchor="middle" x="2744.5" y="-547.8528" font-family="Times,serif" font-size="20.00" fill="#000000">303</text>
<text text-anchor="middle" x="2744.5" y="-525.8528" font-family="Times,serif" font-size="20.00" fill="#000000">305</text>
<text text-anchor="middle" x="2744.5" y="-503.8528" font-family="Times,serif" font-size="20.00" fill="#000000">307</text>
<text text-anchor="middle" x="2744.5" y="-481.8528" font-family="Times,serif" font-size="20.00" fill="#000000">308</text>
</g>
<!-- SG_1_Node_14 -->
<g id="node34" class="node">
<title>SG_1_Node_14</title>
<ellipse fill="none" stroke="#000000" cx="2830" cy="-373.6396" rx="34.7971" ry="21.4286"/>
<text text-anchor="middle" x="2830" y="-368.6396" font-family="Times,serif" font-size="20.00" fill="#000000">1.0</text>
</g>
<!-- SG_1_Node_6&#45;&gt;SG_1_Node_14 -->
<g id="edge30" class="edge">
<title>SG_1_Node_6&#45;&gt;SG_1_Node_14</title>
<path fill="none" stroke="#000000" d="M2742.8181,-688.41C2751.6208,-678.3403 2761.6828,-665.2225 2768,-651.8528 2807.557,-568.1354 2822.4109,-458.1714 2827.5407,-405.0505"/>
<polygon fill="#000000" stroke="#000000" points="2831.0429,-405.185 2828.4674,-394.908 2824.072,-404.5481 2831.0429,-405.185"/>
<text text-anchor="middle" x="2843.5" y="-635.8528" font-family="Times,serif" font-size="20.00" fill="#000000">200</text>
<text text-anchor="middle" x="2843.5" y="-613.8528" font-family="Times,serif" font-size="20.00" fill="#000000">201</text>
<text text-anchor="middle" x="2843.5" y="-591.8528" font-family="Times,serif" font-size="20.00" fill="#000000">202</text>
<text text-anchor="middle" x="2843.5" y="-569.8528" font-family="Times,serif" font-size="20.00" fill="#000000">203</text>
<text text-anchor="middle" x="2843.5" y="-547.8528" font-family="Times,serif" font-size="20.00" fill="#000000">204</text>
<text text-anchor="middle" x="2843.5" y="-525.8528" font-family="Times,serif" font-size="20.00" fill="#000000">205</text>
<text text-anchor="middle" x="2843.5" y="-503.8528" font-family="Times,serif" font-size="20.00" fill="#000000">206</text>
<text text-anchor="middle" x="2843.5" y="-481.8528" font-family="Times,serif" font-size="20.00" fill="#000000">207</text>
<text text-anchor="middle" x="2843.5" y="-459.8528" font-family="Times,serif" font-size="20.00" fill="#000000">208</text>
<text text-anchor="middle" x="2843.5" y="-437.8528" font-family="Times,serif" font-size="20.00" fill="#000000">226</text>
</g>
<!-- SG_1_Node_15 -->
<g id="node35" class="node">
<title>SG_1_Node_15</title>
<ellipse fill="none" stroke="#000000" cx="2514" cy="-37.2132" rx="34.7971" ry="21.4286"/>
<text text-anchor="middle" x="2514" y="-32.2132" font-family="Times,serif" font-size="20.00" fill="#000000">0.0</text>
</g>
<!-- SG_1_Node_7&#45;&gt;SG_1_Node_15 -->
<g id="edge35" class="edge">
<title>SG_1_Node_7&#45;&gt;SG_1_Node_15</title>
<path fill="none" stroke="#000000" d="M2567.0691,-355.5792C2558.4255,-344.708 2548.4255,-330.1547 2543,-315.4264 2511.6695,-230.3755 2510.6085,-121.4587 2512.3333,-68.6839"/>
<polygon fill="#000000" stroke="#000000" points="2515.8341,-68.7289 2512.7205,-58.6019 2508.8392,-68.4602 2515.8341,-68.7289"/>
<text text-anchor="middle" x="2562.5" y="-299.4264" font-family="Times,serif" font-size="20.00" fill="#000000">200</text>
<text text-anchor="middle" x="2562.5" y="-277.4264" font-family="Times,serif" font-size="20.00" fill="#000000">201</text>
<text text-anchor="middle" x="2562.5" y="-255.4264" font-family="Times,serif" font-size="20.00" fill="#000000">202</text>
<text text-anchor="middle" x="2562.5" y="-233.4264" font-family="Times,serif" font-size="20.00" fill="#000000">203</text>
<text text-anchor="middle" x="2562.5" y="-211.4264" font-family="Times,serif" font-size="20.00" fill="#000000">204</text>
<text text-anchor="middle" x="2562.5" y="-189.4264" font-family="Times,serif" font-size="20.00" fill="#000000">205</text>
<text text-anchor="middle" x="2562.5" y="-167.4264" font-family="Times,serif" font-size="20.00" fill="#000000">206</text>
<text text-anchor="middle" x="2562.5" y="-145.4264" font-family="Times,serif" font-size="20.00" fill="#000000">207</text>
<text text-anchor="middle" x="2562.5" y="-123.4264" font-family="Times,serif" font-size="20.00" fill="#000000">208</text>
<text text-anchor="middle" x="2562.5" y="-101.4264" font-family="Times,serif" font-size="20.00" fill="#000000">226</text>
</g>
<!-- SG_1_Node_16 -->
<g id="node36" class="node">
<title>SG_1_Node_16</title>
<ellipse fill="none" stroke="#000000" cx="2601" cy="-37.2132" rx="34.7971" ry="21.4286"/>
<text text-anchor="middle" x="2601" y="-32.2132" font-family="Times,serif" font-size="20.00" fill="#000000">1.0</text>
</g>
<!-- SG_1_Node_7&#45;&gt;SG_1_Node_16 -->
<g id="edge36" class="edge">
<title>SG_1_Node_7&#45;&gt;SG_1_Node_16</title>
<path fill="none" stroke="#000000" d="M2583.9678,-355.5519C2586.879,-301.14 2595.5833,-138.454 2599.2939,-69.1007"/>
<polygon fill="#000000" stroke="#000000" points="2602.8056,-68.9749 2599.8449,-58.8021 2595.8156,-68.6008 2602.8056,-68.9749"/>
<text text-anchor="middle" x="2616.5" y="-255.4264" font-family="Times,serif" font-size="20.00" fill="#000000">301</text>
<text text-anchor="middle" x="2616.5" y="-233.4264" font-family="Times,serif" font-size="20.00" fill="#000000">302</text>
<text text-anchor="middle" x="2616.5" y="-211.4264" font-family="Times,serif" font-size="20.00" fill="#000000">303</text>
<text text-anchor="middle" x="2616.5" y="-189.4264" font-family="Times,serif" font-size="20.00" fill="#000000">305</text>
<text text-anchor="middle" x="2616.5" y="-167.4264" font-family="Times,serif" font-size="20.00" fill="#000000">307</text>
<text text-anchor="middle" x="2616.5" y="-145.4264" font-family="Times,serif" font-size="20.00" fill="#000000">308</text>
</g>
<!-- SG_1_Node_17 -->
<g id="node37" class="node">
<title>SG_1_Node_17</title>
<ellipse fill="none" stroke="#000000" cx="2712" cy="-37.2132" rx="34.7971" ry="21.4286"/>
<text text-anchor="middle" x="2712" y="-32.2132" font-family="Times,serif" font-size="20.00" fill="#000000">0.0</text>
</g>
<!-- SG_1_Node_8&#45;&gt;SG_1_Node_17 -->
<g id="edge31" class="edge">
<title>SG_1_Node_8&#45;&gt;SG_1_Node_17</title>
<path fill="none" stroke="#000000" d="M2724.3011,-355.5519C2722.1985,-301.14 2715.9121,-138.454 2713.2322,-69.1007"/>
<polygon fill="#000000" stroke="#000000" points="2716.7178,-68.6595 2712.8342,-58.8021 2709.7231,-68.9299 2716.7178,-68.6595"/>
<text text-anchor="middle" x="2859" y="-222.4264" font-family="Times,serif" font-size="20.00" fill="#000000">[NA]</text>
<text text-anchor="middle" x="2859" y="-200.4264" font-family="Times,serif" font-size="20.00" fill="#000000">/</text>
<text text-anchor="middle" x="2859" y="-178.4264" font-family="Times,serif" font-size="20.00" fill="#000000">http://localhost:8000/echo/</text>
</g>
<!-- SG_1_Node_18 -->
<g id="node38" class="node">
<title>SG_1_Node_18</title>
<ellipse fill="none" stroke="#000000" cx="3022" cy="-37.2132" rx="34.7971" ry="21.4286"/>
<text text-anchor="middle" x="3022" y="-32.2132" font-family="Times,serif" font-size="20.00" fill="#000000">1.0</text>
</g>
<!-- SG_1_Node_8&#45;&gt;SG_1_Node_18 -->
<g id="edge32" class="edge">
<title>SG_1_Node_8&#45;&gt;SG_1_Node_18</title>
<path fill="none" stroke="#000000" d="M2774.731,-355.6019C2778.5226,-354.4552 2782.3091,-353.3804 2786,-352.4264 2879.451,-328.2716 2934.9696,-386.7537 3000,-315.4264 3062.5374,-246.8336 3043.7962,-125.0981 3030.403,-68.1713"/>
<polygon fill="#000000" stroke="#000000" points="3033.7687,-67.2005 3027.9852,-58.3234 3026.9706,-68.8695 3033.7687,-67.2005"/>
<text text-anchor="middle" x="3075" y="-200.4264" font-family="Times,serif" font-size="20.00" fill="#000000">empty</text>
</g>
</g>
</svg>
