<?xml version="1.0" encoding="UTF-8" standalone="no"?>
<!DOCTYPE svg PUBLIC "-//W3C//DTD SVG 1.1//EN"
 "http://www.w3.org/Graphics/SVG/1.1/DTD/svg11.dtd">
<!-- Generated by graphviz version 2.40.1 (20161225.0304)
 -->
<!-- Title: G Pages: 1 -->
<svg width="1744pt" height="1597pt"
 viewBox="0.00 0.00 1744.00 1596.56" xmlns="http://www.w3.org/2000/svg" xmlns:xlink="http://www.w3.org/1999/xlink">
<g id="graph0" class="graph" transform="scale(1 1) rotate(0) translate(4 1592.5584)">
<title>G</title>
<polygon fill="#ffffff" stroke="transparent" points="-4,4 -4,-1592.5584 1740,-1592.5584 1740,4 -4,4"/>
<g id="clust1" class="cluster">
<title>cluster_0</title>
<polygon fill="none" stroke="#000000" points="8,-8 8,-1580.5584 864,-1580.5584 864,-8 8,-8"/>
<text text-anchor="middle" x="436" y="-1544.5584" font-family="Times,serif" font-size="40.00" fill="#000000">Tree 0, Class error</text>
</g>
<g id="clust10" class="cluster">
<title>cluster_1</title>
<polygon fill="none" stroke="#000000" points="872,-8 872,-1580.5584 1728,-1580.5584 1728,-8 872,-8"/>
<text text-anchor="middle" x="1300" y="-1544.5584" font-family="Times,serif" font-size="40.00" fill="#000000">Tree 0, Class load</text>
</g>
<!-- SG_0_Node_0 -->
<g id="node1" class="node">
<title>SG_0_Node_0</title>
<polygon fill="none" stroke="#000000" points="663.5,-1520.5584 346.5,-1520.5584 346.5,-1484.5584 663.5,-1484.5584 663.5,-1520.5584"/>
<text text-anchor="middle" x="505" y="-1497.5584" font-family="Times,serif" font-size="20.00" fill="#000000">Cross&#45;Origin&#45;Resource&#45;Policy</text>
</g>
<!-- SG_0_Node_1 -->
<g id="node2" class="node">
<title>SG_0_Node_1</title>
<polygon fill="none" stroke="#000000" points="514,-1363.3452 372,-1363.3452 372,-1327.3452 514,-1327.3452 514,-1363.3452"/>
<text text-anchor="middle" x="443" y="-1340.3452" font-family="Times,serif" font-size="20.00" fill="#000000">Status&#45;Code</text>
</g>
<!-- SG_0_Node_0&#45;&gt;SG_0_Node_1 -->
<g id="edge1" class="edge">
<title>SG_0_Node_0&#45;&gt;SG_0_Node_1</title>
<path fill="none" stroke="#000000" d="M493.9352,-1484.4225C487.8221,-1473.9094 480.3967,-1460.274 475,-1447.5584 464.6215,-1423.1048 455.8608,-1394.112 450.1445,-1373.2619"/>
<polygon fill="#000000" stroke="#000000" points="453.4849,-1372.2051 447.5148,-1363.4525 446.7236,-1374.0178 453.4849,-1372.2051"/>
<text text-anchor="middle" x="507" y="-1420.5584" font-family="Times,serif" font-size="20.00" fill="#000000">empty</text>
</g>
<!-- SG_0_Node_9 -->
<g id="node3" class="node">
<title>SG_0_Node_9</title>
<ellipse fill="none" stroke="#000000" cx="567" cy="-1345.3452" rx="34.7971" ry="21.4286"/>
<text text-anchor="middle" x="567" y="-1340.3452" font-family="Times,serif" font-size="20.00" fill="#000000">1.0</text>
</g>
<!-- SG_0_Node_0&#45;&gt;SG_0_Node_9 -->
<g id="edge2" class="edge">
<title>SG_0_Node_0&#45;&gt;SG_0_Node_9</title>
<path fill="none" stroke="#000000" d="M518.0313,-1484.4472C525.0303,-1474.054 533.355,-1460.5277 539,-1447.5584 548.9879,-1424.6115 556.2668,-1397.1936 560.8957,-1376.5339"/>
<polygon fill="#000000" stroke="#000000" points="564.3306,-1377.2083 563.0152,-1366.6955 557.4876,-1375.7341 564.3306,-1377.2083"/>
<text text-anchor="middle" x="614" y="-1431.5584" font-family="Times,serif" font-size="20.00" fill="#000000">[NA]</text>
<text text-anchor="middle" x="614" y="-1409.5584" font-family="Times,serif" font-size="20.00" fill="#000000">same&#45;origin</text>
</g>
<!-- SG_0_Node_2 -->
<g id="node4" class="node">
<title>SG_0_Node_2</title>
<polygon fill="none" stroke="#000000" points="456.5,-1202.9188 301.5,-1202.9188 301.5,-1166.9188 456.5,-1166.9188 456.5,-1202.9188"/>
<text text-anchor="middle" x="379" y="-1179.9188" font-family="Times,serif" font-size="20.00" fill="#000000">Content&#45;Type</text>
</g>
<!-- SG_0_Node_1&#45;&gt;SG_0_Node_2 -->
<g id="edge3" class="edge">
<title>SG_0_Node_1&#45;&gt;SG_0_Node_2</title>
<path fill="none" stroke="#000000" d="M423.2081,-1327.3C412.8049,-1316.6511 400.828,-1302.3119 394,-1287.132 383.4743,-1263.7315 380.0284,-1234.564 379.0366,-1213.3831"/>
<polygon fill="#000000" stroke="#000000" points="382.5263,-1212.9941 378.7171,-1203.1078 375.5296,-1213.2117 382.5263,-1212.9941"/>
<text text-anchor="middle" x="440" y="-1271.132" font-family="Times,serif" font-size="20.00" fill="#000000">[NA]</text>
<text text-anchor="middle" x="440" y="-1249.132" font-family="Times,serif" font-size="20.00" fill="#000000">19 levels</text>
</g>
<!-- SG_0_Node_10 -->
<g id="node5" class="node">
<title>SG_0_Node_10</title>
<ellipse fill="none" stroke="#000000" cx="509" cy="-1184.9188" rx="34.7971" ry="21.4286"/>
<text text-anchor="middle" x="509" y="-1179.9188" font-family="Times,serif" font-size="20.00" fill="#000000">1.0</text>
</g>
<!-- SG_0_Node_1&#45;&gt;SG_0_Node_10 -->
<g id="edge4" class="edge">
<title>SG_0_Node_1&#45;&gt;SG_0_Node_10</title>
<path fill="none" stroke="#000000" d="M459.4852,-1327.2088C468.5635,-1316.3123 479.3135,-1301.759 486,-1287.132 496.3507,-1264.4894 502.208,-1236.8397 505.418,-1216.01"/>
<polygon fill="#000000" stroke="#000000" points="508.8853,-1216.4865 506.8271,-1206.0935 501.9549,-1215.5016 508.8853,-1216.4865"/>
<text text-anchor="middle" x="546" y="-1260.132" font-family="Times,serif" font-size="20.00" fill="#000000">43 levels</text>
</g>
<!-- SG_0_Node_3 -->
<g id="node6" class="node">
<title>SG_0_Node_3</title>
<polygon fill="none" stroke="#000000" points="381,-957.7056 119,-957.7056 119,-921.7056 381,-921.7056 381,-957.7056"/>
<text text-anchor="middle" x="250" y="-934.7056" font-family="Times,serif" font-size="20.00" fill="#000000">X&#45;Content&#45;Type&#45;Options</text>
</g>
<!-- SG_0_Node_2&#45;&gt;SG_0_Node_3 -->
<g id="edge5" class="edge">
<title>SG_0_Node_2&#45;&gt;SG_0_Node_3</title>
<path fill="none" stroke="#000000" d="M316.1687,-1166.8821C296.2817,-1158.0138 276.2972,-1145.133 264,-1126.7056 231.8031,-1078.4585 237.6406,-1006.7926 244.1666,-967.6737"/>
<polygon fill="#000000" stroke="#000000" points="247.6208,-968.24 245.9501,-957.7778 240.7318,-966.9983 247.6208,-968.24"/>
<text text-anchor="middle" x="375" y="-1110.7056" font-family="Times,serif" font-size="20.00" fill="#000000">[NA]</text>
<text text-anchor="middle" x="375" y="-1088.7056" font-family="Times,serif" font-size="20.00" fill="#000000">application/javascript</text>
<text text-anchor="middle" x="375" y="-1066.7056" font-family="Times,serif" font-size="20.00" fill="#000000">application/pdf</text>
<text text-anchor="middle" x="375" y="-1044.7056" font-family="Times,serif" font-size="20.00" fill="#000000">empty</text>
<text text-anchor="middle" x="375" y="-1022.7056" font-family="Times,serif" font-size="20.00" fill="#000000">text/css</text>
<text text-anchor="middle" x="375" y="-1000.7056" font-family="Times,serif" font-size="20.00" fill="#000000">text/html</text>
</g>
<!-- SG_0_Node_4 -->
<g id="node7" class="node">
<title>SG_0_Node_4</title>
<polygon fill="none" stroke="#000000" points="579,-957.7056 437,-957.7056 437,-921.7056 579,-921.7056 579,-957.7056"/>
<text text-anchor="middle" x="508" y="-934.7056" font-family="Times,serif" font-size="20.00" fill="#000000">Status&#45;Code</text>
</g>
<!-- SG_0_Node_2&#45;&gt;SG_0_Node_4 -->
<g id="edge6" class="edge">
<title>SG_0_Node_2&#45;&gt;SG_0_Node_4</title>
<path fill="none" stroke="#000000" d="M434.6155,-1166.8569C453.8975,-1157.8194 473.7349,-1144.8342 486,-1126.7056 518.5662,-1078.5707 516.5101,-1007.1038 512.2138,-967.9269"/>
<polygon fill="#000000" stroke="#000000" points="515.6607,-967.2792 510.9696,-957.7795 508.7127,-968.1312 515.6607,-967.2792"/>
<text text-anchor="middle" x="568.5" y="-1077.7056" font-family="Times,serif" font-size="20.00" fill="#000000">audio/wav</text>
<text text-anchor="middle" x="568.5" y="-1055.7056" font-family="Times,serif" font-size="20.00" fill="#000000">image/png</text>
<text text-anchor="middle" x="568.5" y="-1033.7056" font-family="Times,serif" font-size="20.00" fill="#000000">video/mp4</text>
</g>
<!-- SG_0_Node_11 -->
<g id="node8" class="node">
<title>SG_0_Node_11</title>
<ellipse fill="none" stroke="#000000" cx="159" cy="-694.4924" rx="34.7971" ry="21.4286"/>
<text text-anchor="middle" x="159" y="-689.4924" font-family="Times,serif" font-size="20.00" fill="#000000">0.0</text>
</g>
<!-- SG_0_Node_3&#45;&gt;SG_0_Node_11 -->
<g id="edge11" class="edge">
<title>SG_0_Node_3&#45;&gt;SG_0_Node_11</title>
<path fill="none" stroke="#000000" d="M223.0912,-921.5355C211.0646,-911.9911 197.8567,-899.2527 190,-884.7056 162.6186,-834.0076 158.0478,-765.4426 157.9891,-725.9908"/>
<polygon fill="#000000" stroke="#000000" points="161.4895,-725.9386 158.0726,-715.9099 154.4898,-725.8805 161.4895,-725.9386"/>
<text text-anchor="middle" x="222" y="-813.7056" font-family="Times,serif" font-size="20.00" fill="#000000">empty</text>
</g>
<!-- SG_0_Node_5 -->
<g id="node9" class="node">
<title>SG_0_Node_5</title>
<polygon fill="none" stroke="#000000" points="366.5,-712.4924 211.5,-712.4924 211.5,-676.4924 366.5,-676.4924 366.5,-712.4924"/>
<text text-anchor="middle" x="289" y="-689.4924" font-family="Times,serif" font-size="20.00" fill="#000000">Content&#45;Type</text>
</g>
<!-- SG_0_Node_3&#45;&gt;SG_0_Node_5 -->
<g id="edge12" class="edge">
<title>SG_0_Node_3&#45;&gt;SG_0_Node_5</title>
<path fill="none" stroke="#000000" d="M252.8678,-921.6745C259.6011,-879.3385 276.4615,-773.3288 284.5435,-722.513"/>
<polygon fill="#000000" stroke="#000000" points="288.0138,-722.9756 286.128,-712.55 281.1007,-721.8761 288.0138,-722.9756"/>
<text text-anchor="middle" x="314" y="-824.7056" font-family="Times,serif" font-size="20.00" fill="#000000">[NA]</text>
<text text-anchor="middle" x="314" y="-802.7056" font-family="Times,serif" font-size="20.00" fill="#000000">nosniff</text>
</g>
<!-- SG_0_Node_6 -->
<g id="node10" class="node">
<title>SG_0_Node_6</title>
<polygon fill="none" stroke="#000000" points="551.5,-712.4924 446.5,-712.4924 446.5,-676.4924 551.5,-676.4924 551.5,-712.4924"/>
<text text-anchor="middle" x="499" y="-689.4924" font-family="Times,serif" font-size="20.00" fill="#000000">Location</text>
</g>
<!-- SG_0_Node_4&#45;&gt;SG_0_Node_6 -->
<g id="edge7" class="edge">
<title>SG_0_Node_4&#45;&gt;SG_0_Node_6</title>
<path fill="none" stroke="#000000" d="M507.3382,-921.6745C505.7876,-879.427 501.9098,-773.7721 500.0402,-722.8326"/>
<polygon fill="#000000" stroke="#000000" points="503.5273,-722.4148 499.6628,-712.55 496.532,-722.6716 503.5273,-722.4148"/>
<text text-anchor="middle" x="524.5" y="-868.7056" font-family="Times,serif" font-size="20.00" fill="#000000">301</text>
<text text-anchor="middle" x="524.5" y="-846.7056" font-family="Times,serif" font-size="20.00" fill="#000000">302</text>
<text text-anchor="middle" x="524.5" y="-824.7056" font-family="Times,serif" font-size="20.00" fill="#000000">303</text>
<text text-anchor="middle" x="524.5" y="-802.7056" font-family="Times,serif" font-size="20.00" fill="#000000">305</text>
<text text-anchor="middle" x="524.5" y="-780.7056" font-family="Times,serif" font-size="20.00" fill="#000000">307</text>
<text text-anchor="middle" x="524.5" y="-758.7056" font-family="Times,serif" font-size="20.00" fill="#000000">308</text>
</g>
<!-- SG_0_Node_12 -->
<g id="node11" class="node">
<title>SG_0_Node_12</title>
<ellipse fill="none" stroke="#000000" cx="604" cy="-694.4924" rx="34.7971" ry="21.4286"/>
<text text-anchor="middle" x="604" y="-689.4924" font-family="Times,serif" font-size="20.00" fill="#000000">1.0</text>
</g>
<!-- SG_0_Node_4&#45;&gt;SG_0_Node_12 -->
<g id="edge8" class="edge">
<title>SG_0_Node_4&#45;&gt;SG_0_Node_12</title>
<path fill="none" stroke="#000000" d="M523.7786,-921.3931C531.9456,-911.1546 541.5325,-897.8401 548,-884.7056 574.0633,-831.7755 590.3283,-764.4626 598.2328,-725.7482"/>
<polygon fill="#000000" stroke="#000000" points="601.7286,-726.1129 600.2418,-715.6229 594.8625,-724.7505 601.7286,-726.1129"/>
<text text-anchor="middle" x="637" y="-824.7056" font-family="Times,serif" font-size="20.00" fill="#000000">[NA]</text>
<text text-anchor="middle" x="637" y="-802.7056" font-family="Times,serif" font-size="20.00" fill="#000000">13 levels</text>
</g>
<!-- SG_0_Node_13 -->
<g id="node12" class="node">
<title>SG_0_Node_13</title>
<ellipse fill="none" stroke="#000000" cx="51" cy="-468.066" rx="34.7971" ry="21.4286"/>
<text text-anchor="middle" x="51" y="-463.066" font-family="Times,serif" font-size="20.00" fill="#000000">0.0</text>
</g>
<!-- SG_0_Node_5&#45;&gt;SG_0_Node_13 -->
<g id="edge13" class="edge">
<title>SG_0_Node_5&#45;&gt;SG_0_Node_13</title>
<path fill="none" stroke="#000000" d="M216.8034,-676.419C151.1581,-659.9072 64.2891,-637.8255 63,-636.2792 31.1761,-598.1075 36.2789,-536.6009 43.3304,-499.4867"/>
<polygon fill="#000000" stroke="#000000" points="46.8485,-499.7558 45.4419,-489.2548 39.993,-498.341 46.8485,-499.7558"/>
<text text-anchor="middle" x="174" y="-576.2792" font-family="Times,serif" font-size="20.00" fill="#000000">application/javascript</text>
</g>
<!-- SG_0_Node_7 -->
<g id="node13" class="node">
<title>SG_0_Node_7</title>
<polygon fill="none" stroke="#000000" points="363,-486.066 221,-486.066 221,-450.066 363,-450.066 363,-486.066"/>
<text text-anchor="middle" x="292" y="-463.066" font-family="Times,serif" font-size="20.00" fill="#000000">Status&#45;Code</text>
</g>
<!-- SG_0_Node_5&#45;&gt;SG_0_Node_7 -->
<g id="edge14" class="edge">
<title>SG_0_Node_5&#45;&gt;SG_0_Node_7</title>
<path fill="none" stroke="#000000" d="M289.2404,-676.3458C289.7616,-637.0131 290.9985,-543.653 291.624,-496.4438"/>
<polygon fill="#000000" stroke="#000000" points="295.1255,-496.3446 291.7584,-486.2991 288.1262,-496.2518 295.1255,-496.3446"/>
<text text-anchor="middle" x="368" y="-620.2792" font-family="Times,serif" font-size="20.00" fill="#000000">[NA]</text>
<text text-anchor="middle" x="368" y="-598.2792" font-family="Times,serif" font-size="20.00" fill="#000000">application/pdf</text>
<text text-anchor="middle" x="368" y="-576.2792" font-family="Times,serif" font-size="20.00" fill="#000000">empty</text>
<text text-anchor="middle" x="368" y="-554.2792" font-family="Times,serif" font-size="20.00" fill="#000000">text/css</text>
<text text-anchor="middle" x="368" y="-532.2792" font-family="Times,serif" font-size="20.00" fill="#000000">text/html</text>
</g>
<!-- SG_0_Node_14 -->
<g id="node14" class="node">
<title>SG_0_Node_14</title>
<ellipse fill="none" stroke="#000000" cx="482" cy="-468.066" rx="34.7971" ry="21.4286"/>
<text text-anchor="middle" x="482" y="-463.066" font-family="Times,serif" font-size="20.00" fill="#000000">0.0</text>
</g>
<!-- SG_0_Node_6&#45;&gt;SG_0_Node_14 -->
<g id="edge9" class="edge">
<title>SG_0_Node_6&#45;&gt;SG_0_Node_14</title>
<path fill="none" stroke="#000000" d="M497.6376,-676.3458C494.7515,-637.9059 487.9912,-547.8636 484.3772,-499.7288"/>
<polygon fill="#000000" stroke="#000000" points="487.8532,-499.2769 483.6143,-489.567 480.8729,-499.801 487.8532,-499.2769"/>
<text text-anchor="middle" x="631" y="-598.2792" font-family="Times,serif" font-size="20.00" fill="#000000">[NA]</text>
<text text-anchor="middle" x="631" y="-576.2792" font-family="Times,serif" font-size="20.00" fill="#000000">/</text>
<text text-anchor="middle" x="631" y="-554.2792" font-family="Times,serif" font-size="20.00" fill="#000000">http://localhost:8000/echo/</text>
</g>
<!-- SG_0_Node_15 -->
<g id="node15" class="node">
<title>SG_0_Node_15</title>
<ellipse fill="none" stroke="#000000" cx="792" cy="-468.066" rx="34.7971" ry="21.4286"/>
<text text-anchor="middle" x="792" y="-463.066" font-family="Times,serif" font-size="20.00" fill="#000000">1.0</text>
</g>
<!-- SG_0_Node_6&#45;&gt;SG_0_Node_15 -->
<g id="edge10" class="edge">
<title>SG_0_Node_6&#45;&gt;SG_0_Node_15</title>
<path fill="none" stroke="#000000" d="M548.7345,-676.468C552.5252,-675.3182 556.3106,-674.2391 560,-673.2792 651.7174,-649.4161 704.4893,-704.7619 770,-636.2792 804.8927,-599.8036 802.926,-536.7737 797.8141,-499.0931"/>
<polygon fill="#000000" stroke="#000000" points="801.2712,-498.5457 796.3169,-489.1806 794.3497,-499.5912 801.2712,-498.5457"/>
<text text-anchor="middle" x="832" y="-576.2792" font-family="Times,serif" font-size="20.00" fill="#000000">empty</text>
</g>
<!-- SG_0_Node_8 -->
<g id="node16" class="node">
<title>SG_0_Node_8</title>
<polygon fill="none" stroke="#000000" points="292.5,-237.6396 187.5,-237.6396 187.5,-201.6396 292.5,-201.6396 292.5,-237.6396"/>
<text text-anchor="middle" x="240" y="-214.6396" font-family="Times,serif" font-size="20.00" fill="#000000">Location</text>
</g>
<!-- SG_0_Node_7&#45;&gt;SG_0_Node_8 -->
<g id="edge15" class="edge">
<title>SG_0_Node_7&#45;&gt;SG_0_Node_8</title>
<path fill="none" stroke="#000000" d="M286.5725,-449.8102C283.2786,-438.387 279.1223,-423.3311 276,-409.8528 262.7799,-352.7846 250.8738,-285.2531 244.6205,-247.9595"/>
<polygon fill="#000000" stroke="#000000" points="248.0306,-247.1292 242.9381,-237.8385 241.1254,-248.2771 248.0306,-247.1292"/>
<text text-anchor="middle" x="295.5" y="-393.8528" font-family="Times,serif" font-size="20.00" fill="#000000">301</text>
<text text-anchor="middle" x="295.5" y="-371.8528" font-family="Times,serif" font-size="20.00" fill="#000000">302</text>
<text text-anchor="middle" x="295.5" y="-349.8528" font-family="Times,serif" font-size="20.00" fill="#000000">303</text>
<text text-anchor="middle" x="295.5" y="-327.8528" font-family="Times,serif" font-size="20.00" fill="#000000">305</text>
<text text-anchor="middle" x="295.5" y="-305.8528" font-family="Times,serif" font-size="20.00" fill="#000000">307</text>
<text text-anchor="middle" x="295.5" y="-283.8528" font-family="Times,serif" font-size="20.00" fill="#000000">308</text>
</g>
<!-- SG_0_Node_16 -->
<g id="node17" class="node">
<title>SG_0_Node_16</title>
<ellipse fill="none" stroke="#000000" cx="345" cy="-219.6396" rx="34.7971" ry="21.4286"/>
<text text-anchor="middle" x="345" y="-214.6396" font-family="Times,serif" font-size="20.00" fill="#000000">1.0</text>
</g>
<!-- SG_0_Node_7&#45;&gt;SG_0_Node_16 -->
<g id="edge16" class="edge">
<title>SG_0_Node_7&#45;&gt;SG_0_Node_16</title>
<path fill="none" stroke="#000000" d="M300.3037,-450.0635C305.2274,-438.7357 311.2245,-423.691 315,-409.8528 329.9607,-355.0186 338.2817,-289.1223 342.1836,-251.0423"/>
<polygon fill="#000000" stroke="#000000" points="345.6684,-251.3675 343.1688,-241.0717 338.7023,-250.6791 345.6684,-251.3675"/>
<text text-anchor="middle" x="385" y="-349.8528" font-family="Times,serif" font-size="20.00" fill="#000000">[NA]</text>
<text text-anchor="middle" x="385" y="-327.8528" font-family="Times,serif" font-size="20.00" fill="#000000">13 levels</text>
</g>
<!-- SG_0_Node_17 -->
<g id="node18" class="node">
<title>SG_0_Node_17</title>
<ellipse fill="none" stroke="#000000" cx="126" cy="-37.2132" rx="34.7971" ry="21.4286"/>
<text text-anchor="middle" x="126" y="-32.2132" font-family="Times,serif" font-size="20.00" fill="#000000">0.0</text>
</g>
<!-- SG_0_Node_8&#45;&gt;SG_0_Node_17 -->
<g id="edge17" class="edge">
<title>SG_0_Node_8&#45;&gt;SG_0_Node_17</title>
<path fill="none" stroke="#000000" d="M189.4784,-201.6024C170.9575,-192.431 151.6875,-179.3462 140,-161.4264 121.9986,-133.8258 120.4265,-95.2672 122.1271,-68.4602"/>
<polygon fill="#000000" stroke="#000000" points="125.6181,-68.7116 122.9466,-58.4591 118.6415,-68.1398 125.6181,-68.7116"/>
<text text-anchor="middle" x="277" y="-145.4264" font-family="Times,serif" font-size="20.00" fill="#000000">[NA]</text>
<text text-anchor="middle" x="277" y="-123.4264" font-family="Times,serif" font-size="20.00" fill="#000000">/</text>
<text text-anchor="middle" x="277" y="-101.4264" font-family="Times,serif" font-size="20.00" fill="#000000">http://localhost:8000/echo/</text>
</g>
<!-- SG_0_Node_18 -->
<g id="node19" class="node">
<title>SG_0_Node_18</title>
<ellipse fill="none" stroke="#000000" cx="436" cy="-37.2132" rx="34.7971" ry="21.4286"/>
<text text-anchor="middle" x="436" y="-32.2132" font-family="Times,serif" font-size="20.00" fill="#000000">1.0</text>
</g>
<!-- SG_0_Node_8&#45;&gt;SG_0_Node_18 -->
<g id="edge18" class="edge">
<title>SG_0_Node_8&#45;&gt;SG_0_Node_18</title>
<path fill="none" stroke="#000000" d="M291.562,-201.6345C294.7536,-200.5429 297.9192,-199.4664 301,-198.4264 351.0701,-181.5245 379.36,-201.3359 414,-161.4264 436.0514,-136.0205 439.5605,-96.3813 438.8399,-68.7371"/>
<polygon fill="#000000" stroke="#000000" points="442.3213,-68.2513 438.3628,-58.4238 435.3287,-68.5748 442.3213,-68.2513"/>
<text text-anchor="middle" x="469" y="-123.4264" font-family="Times,serif" font-size="20.00" fill="#000000">empty</text>
</g>
<!-- SG_1_Node_0 -->
<g id="node20" class="node">
<title>SG_1_Node_0</title>
<polygon fill="none" stroke="#000000" points="1270.5,-1520.5584 953.5,-1520.5584 953.5,-1484.5584 1270.5,-1484.5584 1270.5,-1520.5584"/>
<text text-anchor="middle" x="1112" y="-1497.5584" font-family="Times,serif" font-size="20.00" fill="#000000">Cross&#45;Origin&#45;Resource&#45;Policy</text>
</g>
<!-- SG_1_Node_9 -->
<g id="node21" class="node">
<title>SG_1_Node_9</title>
<ellipse fill="none" stroke="#000000" cx="989" cy="-1345.3452" rx="34.7971" ry="21.4286"/>
<text text-anchor="middle" x="989" y="-1340.3452" font-family="Times,serif" font-size="20.00" fill="#000000">0.0</text>
</g>
<!-- SG_1_Node_0&#45;&gt;SG_1_Node_9 -->
<g id="edge19" class="edge">
<title>SG_1_Node_0&#45;&gt;SG_1_Node_9</title>
<path fill="none" stroke="#000000" d="M1046.3315,-1484.5102C1027.8372,-1476.2288 1009.616,-1464.3726 998,-1447.5584 983.8165,-1427.0278 982.4602,-1398.3618 984.1402,-1376.6105"/>
<polygon fill="#000000" stroke="#000000" points="987.6331,-1376.8575 985.1659,-1366.554 980.6692,-1376.1472 987.6331,-1376.8575"/>
<text text-anchor="middle" x="1059" y="-1431.5584" font-family="Times,serif" font-size="20.00" fill="#000000">[NA]</text>
<text text-anchor="middle" x="1059" y="-1409.5584" font-family="Times,serif" font-size="20.00" fill="#000000">same&#45;origin</text>
</g>
<!-- SG_1_Node_1 -->
<g id="node22" class="node">
<title>SG_1_Node_1</title>
<polygon fill="none" stroke="#000000" points="1218,-1363.3452 1076,-1363.3452 1076,-1327.3452 1218,-1327.3452 1218,-1363.3452"/>
<text text-anchor="middle" x="1147" y="-1340.3452" font-family="Times,serif" font-size="20.00" fill="#000000">Status&#45;Code</text>
</g>
<!-- SG_1_Node_0&#45;&gt;SG_1_Node_1 -->
<g id="edge20" class="edge">
<title>SG_1_Node_0&#45;&gt;SG_1_Node_1</title>
<path fill="none" stroke="#000000" d="M1116.0149,-1484.5241C1122.0484,-1457.4231 1133.5079,-1405.9489 1140.6729,-1373.7653"/>
<polygon fill="#000000" stroke="#000000" points="1144.1673,-1374.1752 1142.9241,-1363.6535 1137.3346,-1372.654 1144.1673,-1374.1752"/>
<text text-anchor="middle" x="1165" y="-1420.5584" font-family="Times,serif" font-size="20.00" fill="#000000">empty</text>
</g>
<!-- SG_1_Node_10 -->
<g id="node23" class="node">
<title>SG_1_Node_10</title>
<ellipse fill="none" stroke="#000000" cx="1052" cy="-1184.9188" rx="34.7971" ry="21.4286"/>
<text text-anchor="middle" x="1052" y="-1179.9188" font-family="Times,serif" font-size="20.00" fill="#000000">0.0</text>
</g>
<!-- SG_1_Node_1&#45;&gt;SG_1_Node_10 -->
<g id="edge21" class="edge">
<title>SG_1_Node_1&#45;&gt;SG_1_Node_10</title>
<path fill="none" stroke="#000000" d="M1107.2357,-1327.2817C1090.8056,-1317.7322 1073.2392,-1304.3699 1063,-1287.132 1050.3683,-1265.8662 1048.1893,-1237.6702 1048.8477,-1216.2795"/>
<polygon fill="#000000" stroke="#000000" points="1052.3536,-1216.2579 1049.3876,-1206.0867 1045.3634,-1215.8875 1052.3536,-1216.2579"/>
<text text-anchor="middle" x="1109" y="-1260.132" font-family="Times,serif" font-size="20.00" fill="#000000">43 levels</text>
</g>
<!-- SG_1_Node_2 -->
<g id="node24" class="node">
<title>SG_1_Node_2</title>
<polygon fill="none" stroke="#000000" points="1259.5,-1202.9188 1104.5,-1202.9188 1104.5,-1166.9188 1259.5,-1166.9188 1259.5,-1202.9188"/>
<text text-anchor="middle" x="1182" y="-1179.9188" font-family="Times,serif" font-size="20.00" fill="#000000">Content&#45;Type</text>
</g>
<!-- SG_1_Node_1&#45;&gt;SG_1_Node_2 -->
<g id="edge22" class="edge">
<title>SG_1_Node_1&#45;&gt;SG_1_Node_2</title>
<path fill="none" stroke="#000000" d="M1150.9469,-1327.2541C1157.0125,-1299.4519 1168.6752,-1245.9947 1175.8535,-1213.0919"/>
<polygon fill="#000000" stroke="#000000" points="1179.3018,-1213.7062 1178.0138,-1203.19 1172.4626,-1212.2141 1179.3018,-1213.7062"/>
<text text-anchor="middle" x="1215" y="-1271.132" font-family="Times,serif" font-size="20.00" fill="#000000">[NA]</text>
<text text-anchor="middle" x="1215" y="-1249.132" font-family="Times,serif" font-size="20.00" fill="#000000">19 levels</text>
</g>
<!-- SG_1_Node_3 -->
<g id="node25" class="node">
<title>SG_1_Node_3</title>
<polygon fill="none" stroke="#000000" points="1114,-957.7056 972,-957.7056 972,-921.7056 1114,-921.7056 1114,-957.7056"/>
<text text-anchor="middle" x="1043" y="-934.7056" font-family="Times,serif" font-size="20.00" fill="#000000">Status&#45;Code</text>
</g>
<!-- SG_1_Node_2&#45;&gt;SG_1_Node_3 -->
<g id="edge23" class="edge">
<title>SG_1_Node_2&#45;&gt;SG_1_Node_3</title>
<path fill="none" stroke="#000000" d="M1145.8209,-1166.8389C1129.4221,-1156.9993 1111.0497,-1143.4048 1099,-1126.7056 1063.835,-1077.9721 1050.517,-1007.0271 1045.6525,-968.025"/>
<polygon fill="#000000" stroke="#000000" points="1049.1099,-967.4527 1044.4934,-957.9165 1042.1554,-968.2501 1049.1099,-967.4527"/>
<text text-anchor="middle" x="1153.5" y="-1077.7056" font-family="Times,serif" font-size="20.00" fill="#000000">audio/wav</text>
<text text-anchor="middle" x="1153.5" y="-1055.7056" font-family="Times,serif" font-size="20.00" fill="#000000">image/png</text>
<text text-anchor="middle" x="1153.5" y="-1033.7056" font-family="Times,serif" font-size="20.00" fill="#000000">video/mp4</text>
</g>
<!-- SG_1_Node_4 -->
<g id="node26" class="node">
<title>SG_1_Node_4</title>
<polygon fill="none" stroke="#000000" points="1439,-957.7056 1177,-957.7056 1177,-921.7056 1439,-921.7056 1439,-957.7056"/>
<text text-anchor="middle" x="1308" y="-934.7056" font-family="Times,serif" font-size="20.00" fill="#000000">X&#45;Content&#45;Type&#45;Options</text>
</g>
<!-- SG_1_Node_2&#45;&gt;SG_1_Node_4 -->
<g id="edge24" class="edge">
<title>SG_1_Node_2&#45;&gt;SG_1_Node_4</title>
<path fill="none" stroke="#000000" d="M1191.2651,-1166.8877C1213.1555,-1124.2859 1268.1759,-1017.2088 1294.0902,-966.7759"/>
<polygon fill="#000000" stroke="#000000" points="1297.264,-968.2573 1298.7213,-957.7632 1291.0379,-965.058 1297.264,-968.2573"/>
<text text-anchor="middle" x="1390" y="-1110.7056" font-family="Times,serif" font-size="20.00" fill="#000000">[NA]</text>
<text text-anchor="middle" x="1390" y="-1088.7056" font-family="Times,serif" font-size="20.00" fill="#000000">application/javascript</text>
<text text-anchor="middle" x="1390" y="-1066.7056" font-family="Times,serif" font-size="20.00" fill="#000000">application/pdf</text>
<text text-anchor="middle" x="1390" y="-1044.7056" font-family="Times,serif" font-size="20.00" fill="#000000">empty</text>
<text text-anchor="middle" x="1390" y="-1022.7056" font-family="Times,serif" font-size="20.00" fill="#000000">text/css</text>
<text text-anchor="middle" x="1390" y="-1000.7056" font-family="Times,serif" font-size="20.00" fill="#000000">text/html</text>
</g>
<!-- SG_1_Node_11 -->
<g id="node27" class="node">
<title>SG_1_Node_11</title>
<ellipse fill="none" stroke="#000000" cx="915" cy="-694.4924" rx="34.7971" ry="21.4286"/>
<text text-anchor="middle" x="915" y="-689.4924" font-family="Times,serif" font-size="20.00" fill="#000000">0.0</text>
</g>
<!-- SG_1_Node_3&#45;&gt;SG_1_Node_11 -->
<g id="edge33" class="edge">
<title>SG_1_Node_3&#45;&gt;SG_1_Node_11</title>
<path fill="none" stroke="#000000" d="M976.8859,-921.6245C958.4877,-913.3537 940.4332,-901.5119 929,-884.7056 896.5155,-836.9548 901.7963,-765.9772 908.4615,-725.5867"/>
<polygon fill="#000000" stroke="#000000" points="911.9449,-725.9891 910.2555,-715.5298 905.0537,-724.7597 911.9449,-725.9891"/>
<text text-anchor="middle" x="975" y="-824.7056" font-family="Times,serif" font-size="20.00" fill="#000000">[NA]</text>
<text text-anchor="middle" x="975" y="-802.7056" font-family="Times,serif" font-size="20.00" fill="#000000">13 levels</text>
</g>
<!-- SG_1_Node_5 -->
<g id="node28" class="node">
<title>SG_1_Node_5</title>
<polygon fill="none" stroke="#000000" points="1072.5,-712.4924 967.5,-712.4924 967.5,-676.4924 1072.5,-676.4924 1072.5,-712.4924"/>
<text text-anchor="middle" x="1020" y="-689.4924" font-family="Times,serif" font-size="20.00" fill="#000000">Location</text>
</g>
<!-- SG_1_Node_3&#45;&gt;SG_1_Node_5 -->
<g id="edge34" class="edge">
<title>SG_1_Node_3&#45;&gt;SG_1_Node_5</title>
<path fill="none" stroke="#000000" d="M1041.3088,-921.6745C1037.3378,-879.3385 1027.3945,-773.3288 1022.6282,-722.513"/>
<polygon fill="#000000" stroke="#000000" points="1026.1124,-722.1794 1021.6937,-712.55 1019.143,-722.8331 1026.1124,-722.1794"/>
<text text-anchor="middle" x="1056.5" y="-868.7056" font-family="Times,serif" font-size="20.00" fill="#000000">301</text>
<text text-anchor="middle" x="1056.5" y="-846.7056" font-family="Times,serif" font-size="20.00" fill="#000000">302</text>
<text text-anchor="middle" x="1056.5" y="-824.7056" font-family="Times,serif" font-size="20.00" fill="#000000">303</text>
<text text-anchor="middle" x="1056.5" y="-802.7056" font-family="Times,serif" font-size="20.00" fill="#000000">305</text>
<text text-anchor="middle" x="1056.5" y="-780.7056" font-family="Times,serif" font-size="20.00" fill="#000000">307</text>
<text text-anchor="middle" x="1056.5" y="-758.7056" font-family="Times,serif" font-size="20.00" fill="#000000">308</text>
</g>
<!-- SG_1_Node_6 -->
<g id="node29" class="node">
<title>SG_1_Node_6</title>
<polygon fill="none" stroke="#000000" points="1385.5,-712.4924 1230.5,-712.4924 1230.5,-676.4924 1385.5,-676.4924 1385.5,-712.4924"/>
<text text-anchor="middle" x="1308" y="-689.4924" font-family="Times,serif" font-size="20.00" fill="#000000">Content&#45;Type</text>
</g>
<!-- SG_1_Node_4&#45;&gt;SG_1_Node_6 -->
<g id="edge25" class="edge">
<title>SG_1_Node_4&#45;&gt;SG_1_Node_6</title>
<path fill="none" stroke="#000000" d="M1308,-921.6745C1308,-879.427 1308,-773.7721 1308,-722.8326"/>
<polygon fill="#000000" stroke="#000000" points="1311.5001,-722.5499 1308,-712.55 1304.5001,-722.55 1311.5001,-722.5499"/>
<text text-anchor="middle" x="1343" y="-824.7056" font-family="Times,serif" font-size="20.00" fill="#000000">[NA]</text>
<text text-anchor="middle" x="1343" y="-802.7056" font-family="Times,serif" font-size="20.00" fill="#000000">nosniff</text>
</g>
<!-- SG_1_Node_12 -->
<g id="node30" class="node">
<title>SG_1_Node_12</title>
<ellipse fill="none" stroke="#000000" cx="1438" cy="-694.4924" rx="34.7971" ry="21.4286"/>
<text text-anchor="middle" x="1438" y="-689.4924" font-family="Times,serif" font-size="20.00" fill="#000000">1.0</text>
</g>
<!-- SG_1_Node_4&#45;&gt;SG_1_Node_12 -->
<g id="edge26" class="edge">
<title>SG_1_Node_4&#45;&gt;SG_1_Node_12</title>
<path fill="none" stroke="#000000" d="M1341.4111,-921.5276C1355.7455,-912.2171 1371.5616,-899.6733 1382,-884.7056 1416.1645,-835.7169 1429.7421,-765.7639 1434.9452,-725.763"/>
<polygon fill="#000000" stroke="#000000" points="1438.425,-726.1405 1436.1482,-715.7932 1431.4754,-725.3019 1438.425,-726.1405"/>
<text text-anchor="middle" x="1462" y="-813.7056" font-family="Times,serif" font-size="20.00" fill="#000000">empty</text>
</g>
<!-- SG_1_Node_13 -->
<g id="node31" class="node">
<title>SG_1_Node_13</title>
<ellipse fill="none" stroke="#000000" cx="915" cy="-468.066" rx="34.7971" ry="21.4286"/>
<text text-anchor="middle" x="915" y="-463.066" font-family="Times,serif" font-size="20.00" fill="#000000">0.0</text>
</g>
<!-- SG_1_Node_5&#45;&gt;SG_1_Node_13 -->
<g id="edge35" class="edge">
<title>SG_1_Node_5&#45;&gt;SG_1_Node_13</title>
<path fill="none" stroke="#000000" d="M981.8189,-676.3424C965.7012,-666.708 948.3124,-653.3022 938,-636.2792 912.5336,-594.241 910.4847,-535.5981 912.1514,-499.8179"/>
<polygon fill="#000000" stroke="#000000" points="915.6657,-499.6817 912.7662,-489.4914 908.678,-499.2657 915.6657,-499.6817"/>
<text text-anchor="middle" x="970" y="-576.2792" font-family="Times,serif" font-size="20.00" fill="#000000">empty</text>
</g>
<!-- SG_1_Node_14 -->
<g id="node32" class="node">
<title>SG_1_Node_14</title>
<ellipse fill="none" stroke="#000000" cx="1002" cy="-468.066" rx="34.7971" ry="21.4286"/>
<text text-anchor="middle" x="1002" y="-463.066" font-family="Times,serif" font-size="20.00" fill="#000000">1.0</text>
</g>
<!-- SG_1_Node_5&#45;&gt;SG_1_Node_14 -->
<g id="edge36" class="edge">
<title>SG_1_Node_5&#45;&gt;SG_1_Node_14</title>
<path fill="none" stroke="#000000" d="M1018.5574,-676.3458C1015.5016,-637.9059 1008.3436,-547.8636 1004.5171,-499.7288"/>
<polygon fill="#000000" stroke="#000000" points="1007.9908,-499.2582 1003.7092,-489.567 1001.0128,-499.8129 1007.9908,-499.2582"/>
<text text-anchor="middle" x="1152" y="-598.2792" font-family="Times,serif" font-size="20.00" fill="#000000">[NA]</text>
<text text-anchor="middle" x="1152" y="-576.2792" font-family="Times,serif" font-size="20.00" fill="#000000">/</text>
<text text-anchor="middle" x="1152" y="-554.2792" font-family="Times,serif" font-size="20.00" fill="#000000">http://localhost:8000/echo/</text>
</g>
<!-- SG_1_Node_7 -->
<g id="node33" class="node">
<title>SG_1_Node_7</title>
<polygon fill="none" stroke="#000000" points="1379,-486.066 1237,-486.066 1237,-450.066 1379,-450.066 1379,-486.066"/>
<text text-anchor="middle" x="1308" y="-463.066" font-family="Times,serif" font-size="20.00" fill="#000000">Status&#45;Code</text>
</g>
<!-- SG_1_Node_6&#45;&gt;SG_1_Node_7 -->
<g id="edge27" class="edge">
<title>SG_1_Node_6&#45;&gt;SG_1_Node_7</title>
<path fill="none" stroke="#000000" d="M1308,-676.3458C1308,-637.0131 1308,-543.653 1308,-496.4438"/>
<polygon fill="#000000" stroke="#000000" points="1311.5001,-496.2991 1308,-486.2991 1304.5001,-496.2991 1311.5001,-496.2991"/>
<text text-anchor="middle" x="1385" y="-620.2792" font-family="Times,serif" font-size="20.00" fill="#000000">[NA]</text>
<text text-anchor="middle" x="1385" y="-598.2792" font-family="Times,serif" font-size="20.00" fill="#000000">application/pdf</text>
<text text-anchor="middle" x="1385" y="-576.2792" font-family="Times,serif" font-size="20.00" fill="#000000">empty</text>
<text text-anchor="middle" x="1385" y="-554.2792" font-family="Times,serif" font-size="20.00" fill="#000000">text/css</text>
<text text-anchor="middle" x="1385" y="-532.2792" font-family="Times,serif" font-size="20.00" fill="#000000">text/html</text>
</g>
<!-- SG_1_Node_15 -->
<g id="node34" class="node">
<title>SG_1_Node_15</title>
<ellipse fill="none" stroke="#000000" cx="1498" cy="-468.066" rx="34.7971" ry="21.4286"/>
<text text-anchor="middle" x="1498" y="-463.066" font-family="Times,serif" font-size="20.00" fill="#000000">1.0</text>
</g>
<!-- SG_1_Node_6&#45;&gt;SG_1_Node_15 -->
<g id="edge28" class="edge">
<title>SG_1_Node_6&#45;&gt;SG_1_Node_15</title>
<path fill="none" stroke="#000000" d="M1376.6483,-676.4765C1413.4764,-665.4484 1453.7642,-650.7212 1466,-636.2792 1498.5315,-597.8822 1502.0313,-536.7086 1500.67,-499.673"/>
<polygon fill="#000000" stroke="#000000" points="1504.1538,-499.2645 1500.148,-489.4561 1497.1629,-499.6217 1504.1538,-499.2645"/>
<text text-anchor="middle" x="1611" y="-576.2792" font-family="Times,serif" font-size="20.00" fill="#000000">application/javascript</text>
</g>
<!-- SG_1_Node_16 -->
<g id="node35" class="node">
<title>SG_1_Node_16</title>
<ellipse fill="none" stroke="#000000" cx="1224" cy="-219.6396" rx="34.7971" ry="21.4286"/>
<text text-anchor="middle" x="1224" y="-214.6396" font-family="Times,serif" font-size="20.00" fill="#000000">0.0</text>
</g>
<!-- SG_1_Node_7&#45;&gt;SG_1_Node_16 -->
<g id="edge29" class="edge">
<title>SG_1_Node_7&#45;&gt;SG_1_Node_16</title>
<path fill="none" stroke="#000000" d="M1266.4752,-449.9871C1250.142,-440.5617 1233.1363,-427.3002 1224,-409.8528 1197.4217,-359.0968 1206.8686,-289.7719 1215.7183,-250.3595"/>
<polygon fill="#000000" stroke="#000000" points="1219.1438,-251.0831 1218.0504,-240.5448 1212.3334,-249.4648 1219.1438,-251.0831"/>
<text text-anchor="middle" x="1270" y="-349.8528" font-family="Times,serif" font-size="20.00" fill="#000000">[NA]</text>
<text text-anchor="middle" x="1270" y="-327.8528" font-family="Times,serif" font-size="20.00" fill="#000000">13 levels</text>
</g>
<!-- SG_1_Node_8 -->
<g id="node36" class="node">
<title>SG_1_Node_8</title>
<polygon fill="none" stroke="#000000" points="1404.5,-237.6396 1299.5,-237.6396 1299.5,-201.6396 1404.5,-201.6396 1404.5,-237.6396"/>
<text text-anchor="middle" x="1352" y="-214.6396" font-family="Times,serif" font-size="20.00" fill="#000000">Location</text>
</g>
<!-- SG_1_Node_7&#45;&gt;SG_1_Node_8 -->
<g id="edge30" class="edge">
<title>SG_1_Node_7&#45;&gt;SG_1_Node_8</title>
<path fill="none" stroke="#000000" d="M1311.9004,-450.0066C1314.3354,-438.5284 1317.4757,-423.3429 1320,-409.8528 1330.7352,-352.4821 1341.6859,-285.06 1347.5824,-247.867"/>
<polygon fill="#000000" stroke="#000000" points="1351.0733,-248.1987 1349.1757,-237.7752 1344.1589,-247.107 1351.0733,-248.1987"/>
<text text-anchor="middle" x="1361.5" y="-393.8528" font-family="Times,serif" font-size="20.00" fill="#000000">301</text>
<text text-anchor="middle" x="1361.5" y="-371.8528" font-family="Times,serif" font-size="20.00" fill="#000000">302</text>
<text text-anchor="middle" x="1361.5" y="-349.8528" font-family="Times,serif" font-size="20.00" fill="#000000">303</text>
<text text-anchor="middle" x="1361.5" y="-327.8528" font-family="Times,serif" font-size="20.00" fill="#000000">305</text>
<text text-anchor="middle" x="1361.5" y="-305.8528" font-family="Times,serif" font-size="20.00" fill="#000000">307</text>
<text text-anchor="middle" x="1361.5" y="-283.8528" font-family="Times,serif" font-size="20.00" fill="#000000">308</text>
</g>
<!-- SG_1_Node_17 -->
<g id="node37" class="node">
<title>SG_1_Node_17</title>
<ellipse fill="none" stroke="#000000" cx="1302" cy="-37.2132" rx="34.7971" ry="21.4286"/>
<text text-anchor="middle" x="1302" y="-32.2132" font-family="Times,serif" font-size="20.00" fill="#000000">0.0</text>
</g>
<!-- SG_1_Node_8&#45;&gt;SG_1_Node_17 -->
<g id="edge31" class="edge">
<title>SG_1_Node_8&#45;&gt;SG_1_Node_17</title>
<path fill="none" stroke="#000000" d="M1337.9109,-201.57C1330.1134,-190.5814 1321.0113,-175.913 1316,-161.4264 1305.5088,-131.0989 1302.4665,-94.3625 1301.7682,-68.7404"/>
<polygon fill="#000000" stroke="#000000" points="1305.2636,-68.4313 1301.5975,-58.491 1298.2646,-68.5479 1305.2636,-68.4313"/>
<text text-anchor="middle" x="1348" y="-123.4264" font-family="Times,serif" font-size="20.00" fill="#000000">empty</text>
</g>
<!-- SG_1_Node_18 -->
<g id="node38" class="node">
<title>SG_1_Node_18</title>
<ellipse fill="none" stroke="#000000" cx="1402" cy="-37.2132" rx="34.7971" ry="21.4286"/>
<text text-anchor="middle" x="1402" y="-32.2132" font-family="Times,serif" font-size="20.00" fill="#000000">1.0</text>
</g>
<!-- SG_1_Node_8&#45;&gt;SG_1_Node_18 -->
<g id="edge32" class="edge">
<title>SG_1_Node_8&#45;&gt;SG_1_Node_18</title>
<path fill="none" stroke="#000000" d="M1362.2842,-201.5575C1368.2666,-190.3251 1375.493,-175.4093 1380,-161.4264 1389.8764,-130.7852 1395.6644,-94.377 1398.8027,-68.9281"/>
<polygon fill="#000000" stroke="#000000" points="1402.3087,-69.0791 1399.9897,-58.7412 1395.3558,-68.2689 1402.3087,-69.0791"/>
<text text-anchor="middle" x="1532" y="-145.4264" font-family="Times,serif" font-size="20.00" fill="#000000">[NA]</text>
<text text-anchor="middle" x="1532" y="-123.4264" font-family="Times,serif" font-size="20.00" fill="#000000">/</text>
<text text-anchor="middle" x="1532" y="-101.4264" font-family="Times,serif" font-size="20.00" fill="#000000">http://localhost:8000/echo/</text>
</g>
</g>
</svg>
