<?xml version="1.0" encoding="UTF-8" standalone="no"?>
<!DOCTYPE svg PUBLIC "-//W3C//DTD SVG 1.1//EN"
 "http://www.w3.org/Graphics/SVG/1.1/DTD/svg11.dtd">
<!-- Generated by graphviz version 2.40.1 (20161225.0304)
 -->
<!-- Title: G Pages: 1 -->
<svg width="10741pt" height="493pt"
 viewBox="0.00 0.00 10741.00 492.85" xmlns="http://www.w3.org/2000/svg" xmlns:xlink="http://www.w3.org/1999/xlink">
<g id="graph0" class="graph" transform="scale(1 1) rotate(0) translate(4 488.8528)">
<title>G</title>
<polygon fill="#ffffff" stroke="transparent" points="-4,4 -4,-488.8528 10737,-488.8528 10737,4 -4,4"/>
<g id="clust1" class="cluster">
<title>cluster_0</title>
<polygon fill="none" stroke="#000000" points="8,-8 8,-476.8528 472,-476.8528 472,-8 8,-8"/>
<text text-anchor="middle" x="240" y="-440.8528" font-family="Times,serif" font-size="40.00" fill="#000000">Tree 0, Class uncalled</text>
</g>
<g id="clust5" class="cluster">
<title>cluster_1</title>
<polygon fill="none" stroke="#000000" points="480,-8 480,-476.8528 5519,-476.8528 5519,-8 480,-8"/>
<text text-anchor="middle" x="2999.5" y="-440.8528" font-family="Times,serif" font-size="40.00" fill="#000000">Tree 0, Class {&#39;size&#39;: {&#39;transferSize&#39;: None, &#39;decodedBodySize&#39;: None, &#39;encodedBodySize&#39;: None}, &#39;timing&#39;: {&#39;duration&#39;: &gt;0, &#39;fetchStart&#39;: &gt;0, &#39;redirectEnd&#39;: 0, &#39;redirectStart&#39;: 0, &#39;secureConnectionStart&#39;: 0}, &#39;initiatorType&#39;: &#39;script&#39;, &#39;nextHopProtocol&#39;: &#39;&#39;}</text>
</g>
<g id="clust9" class="cluster">
<title>cluster_2</title>
<polygon fill="none" stroke="#000000" points="5527,-8 5527,-476.8528 10725,-476.8528 10725,-8 5527,-8"/>
<text text-anchor="middle" x="8126" y="-440.8528" font-family="Times,serif" font-size="40.00" fill="#000000">Tree 0, Class {&#39;size&#39;: {&#39;transferSize&#39;: None, &#39;decodedBodySize&#39;: None, &#39;encodedBodySize&#39;: None}, &#39;timing&#39;: {&#39;duration&#39;: &gt;0, &#39;fetchStart&#39;: &gt;0, &#39;redirectEnd&#39;: 0, &#39;redirectStart&#39;: 0, &#39;secureConnectionStart&#39;: 0}, &#39;initiatorType&#39;: &#39;script&#39;, &#39;nextHopProtocol&#39;: &#39;http/1.1&#39;}</text>
</g>
<!-- SG_0_Node_0 -->
<g id="node1" class="node">
<title>SG_0_Node_0</title>
<polygon fill="none" stroke="#000000" points="339.5,-416.8528 22.5,-416.8528 22.5,-380.8528 339.5,-380.8528 339.5,-416.8528"/>
<text text-anchor="middle" x="181" y="-393.8528" font-family="Times,serif" font-size="20.00" fill="#000000">Cross&#45;Origin&#45;Resource&#45;Policy</text>
</g>
<!-- SG_0_Node_1 -->
<g id="node2" class="node">
<title>SG_0_Node_1</title>
<polygon fill="none" stroke="#000000" points="204,-259.6396 62,-259.6396 62,-223.6396 204,-223.6396 204,-259.6396"/>
<text text-anchor="middle" x="133" y="-236.6396" font-family="Times,serif" font-size="20.00" fill="#000000">Status&#45;Code</text>
</g>
<!-- SG_0_Node_0&#45;&gt;SG_0_Node_1 -->
<g id="edge1" class="edge">
<title>SG_0_Node_0&#45;&gt;SG_0_Node_1</title>
<path fill="none" stroke="#000000" d="M175.4938,-380.8185C167.1834,-353.5996 151.3666,-301.7952 141.5493,-269.641"/>
<polygon fill="#000000" stroke="#000000" points="144.8575,-268.49 138.5898,-259.9479 138.1626,-270.5341 144.8575,-268.49"/>
<text text-anchor="middle" x="196" y="-316.8528" font-family="Times,serif" font-size="20.00" fill="#000000">empty</text>
</g>
<!-- SG_0_Node_2 -->
<g id="node3" class="node">
<title>SG_0_Node_2</title>
<ellipse fill="none" stroke="#000000" cx="257" cy="-241.6396" rx="34.7971" ry="21.4286"/>
<text text-anchor="middle" x="257" y="-236.6396" font-family="Times,serif" font-size="20.00" fill="#000000">1.0</text>
</g>
<!-- SG_0_Node_0&#45;&gt;SG_0_Node_2 -->
<g id="edge2" class="edge">
<title>SG_0_Node_0&#45;&gt;SG_0_Node_2</title>
<path fill="none" stroke="#000000" d="M200.6775,-380.6195C210.4457,-370.6071 221.6897,-357.4773 229,-343.8528 240.9068,-321.6615 248.0856,-293.9805 252.1884,-273.024"/>
<polygon fill="#000000" stroke="#000000" points="255.6587,-273.503 254.0125,-263.0369 248.7726,-272.2453 255.6587,-273.503"/>
<text text-anchor="middle" x="306" y="-327.8528" font-family="Times,serif" font-size="20.00" fill="#000000">[NA]</text>
<text text-anchor="middle" x="306" y="-305.8528" font-family="Times,serif" font-size="20.00" fill="#000000">same&#45;origin</text>
</g>
<!-- SG_0_Node_3 -->
<g id="node4" class="node">
<title>SG_0_Node_3</title>
<ellipse fill="none" stroke="#000000" cx="92" cy="-37.2132" rx="34.7971" ry="21.4286"/>
<text text-anchor="middle" x="92" y="-32.2132" font-family="Times,serif" font-size="20.00" fill="#000000">0.0</text>
</g>
<!-- SG_0_Node_1&#45;&gt;SG_0_Node_3 -->
<g id="edge3" class="edge">
<title>SG_0_Node_1&#45;&gt;SG_0_Node_3</title>
<path fill="none" stroke="#000000" d="M122.7072,-223.6307C116.8011,-212.425 109.8205,-197.5117 106,-183.4264 95.536,-144.8486 92.6375,-98.6957 91.9628,-68.7077"/>
<polygon fill="#000000" stroke="#000000" points="95.4583,-68.3799 91.805,-58.4349 88.4591,-68.4875 95.4583,-68.3799"/>
<text text-anchor="middle" x="152" y="-145.4264" font-family="Times,serif" font-size="20.00" fill="#000000">[NA]</text>
<text text-anchor="middle" x="152" y="-123.4264" font-family="Times,serif" font-size="20.00" fill="#000000">58 levels</text>
</g>
<!-- SG_0_Node_4 -->
<g id="node5" class="node">
<title>SG_0_Node_4</title>
<ellipse fill="none" stroke="#000000" cx="220" cy="-37.2132" rx="34.7971" ry="21.4286"/>
<text text-anchor="middle" x="220" y="-32.2132" font-family="Times,serif" font-size="20.00" fill="#000000">1.0</text>
</g>
<!-- SG_0_Node_1&#45;&gt;SG_0_Node_4 -->
<g id="edge4" class="edge">
<title>SG_0_Node_1&#45;&gt;SG_0_Node_4</title>
<path fill="none" stroke="#000000" d="M160.9006,-223.6053C174.2972,-213.4445 189.2945,-199.5573 198,-183.4264 217.412,-147.4568 221.1872,-99.6682 221.2674,-68.678"/>
<polygon fill="#000000" stroke="#000000" points="224.7651,-68.4269 221.1612,-58.4639 217.7654,-68.4998 224.7651,-68.4269"/>
<text text-anchor="middle" x="239.5" y="-167.4264" font-family="Times,serif" font-size="20.00" fill="#000000">100</text>
<text text-anchor="middle" x="239.5" y="-145.4264" font-family="Times,serif" font-size="20.00" fill="#000000">102</text>
<text text-anchor="middle" x="239.5" y="-123.4264" font-family="Times,serif" font-size="20.00" fill="#000000">103</text>
<text text-anchor="middle" x="239.5" y="-101.4264" font-family="Times,serif" font-size="20.00" fill="#000000">407</text>
</g>
<!-- SG_1_Node_0 -->
<g id="node6" class="node">
<title>SG_1_Node_0</title>
<polygon fill="none" stroke="#000000" points="3009,-416.8528 2867,-416.8528 2867,-380.8528 3009,-380.8528 3009,-416.8528"/>
<text text-anchor="middle" x="2938" y="-393.8528" font-family="Times,serif" font-size="20.00" fill="#000000">Status&#45;Code</text>
</g>
<!-- SG_1_Node_2 -->
<g id="node7" class="node">
<title>SG_1_Node_2</title>
<ellipse fill="none" stroke="#000000" cx="2832" cy="-241.6396" rx="34.7971" ry="21.4286"/>
<text text-anchor="middle" x="2832" y="-236.6396" font-family="Times,serif" font-size="20.00" fill="#000000">0.0</text>
</g>
<!-- SG_1_Node_0&#45;&gt;SG_1_Node_2 -->
<g id="edge5" class="edge">
<title>SG_1_Node_0&#45;&gt;SG_1_Node_2</title>
<path fill="none" stroke="#000000" d="M2913.8978,-380.6602C2901.9683,-370.7554 2888.0163,-357.7103 2878,-343.8528 2862.0577,-321.7967 2849.8056,-293.3345 2841.9697,-272.0479"/>
<polygon fill="#000000" stroke="#000000" points="2845.2321,-270.7759 2838.5819,-262.5282 2838.6373,-273.1229 2845.2321,-270.7759"/>
<text text-anchor="middle" x="2924" y="-327.8528" font-family="Times,serif" font-size="20.00" fill="#000000">[NA]</text>
<text text-anchor="middle" x="2924" y="-305.8528" font-family="Times,serif" font-size="20.00" fill="#000000">23 levels</text>
</g>
<!-- SG_1_Node_1 -->
<g id="node8" class="node">
<title>SG_1_Node_1</title>
<polygon fill="none" stroke="#000000" points="3201.5,-259.6396 2884.5,-259.6396 2884.5,-223.6396 3201.5,-223.6396 3201.5,-259.6396"/>
<text text-anchor="middle" x="3043" y="-236.6396" font-family="Times,serif" font-size="20.00" fill="#000000">Cross&#45;Origin&#45;Resource&#45;Policy</text>
</g>
<!-- SG_1_Node_0&#45;&gt;SG_1_Node_1 -->
<g id="edge6" class="edge">
<title>SG_1_Node_0&#45;&gt;SG_1_Node_1</title>
<path fill="none" stroke="#000000" d="M2950.0448,-380.8185C2968.4599,-353.2462 3003.7246,-300.4455 3025.1283,-268.3983"/>
<polygon fill="#000000" stroke="#000000" points="3028.1287,-270.2077 3030.7722,-259.9479 3022.3076,-266.3198 3028.1287,-270.2077"/>
<text text-anchor="middle" x="3049" y="-316.8528" font-family="Times,serif" font-size="20.00" fill="#000000">39 levels</text>
</g>
<!-- SG_1_Node_3 -->
<g id="node9" class="node">
<title>SG_1_Node_3</title>
<ellipse fill="none" stroke="#000000" cx="2964" cy="-37.2132" rx="34.7971" ry="21.4286"/>
<text text-anchor="middle" x="2964" y="-32.2132" font-family="Times,serif" font-size="20.00" fill="#000000">0.0</text>
</g>
<!-- SG_1_Node_1&#45;&gt;SG_1_Node_3 -->
<g id="edge7" class="edge">
<title>SG_1_Node_1&#45;&gt;SG_1_Node_3</title>
<path fill="none" stroke="#000000" d="M3014.3994,-223.5446C3000.9941,-213.4557 2986.1994,-199.6507 2978,-183.4264 2959.6859,-147.188 2958.7377,-99.465 2960.638,-68.5628"/>
<polygon fill="#000000" stroke="#000000" points="2964.1439,-68.6149 2961.4051,-58.3802 2957.1637,-68.089 2964.1439,-68.6149"/>
<text text-anchor="middle" x="3039" y="-145.4264" font-family="Times,serif" font-size="20.00" fill="#000000">[NA]</text>
<text text-anchor="middle" x="3039" y="-123.4264" font-family="Times,serif" font-size="20.00" fill="#000000">same&#45;origin</text>
</g>
<!-- SG_1_Node_4 -->
<g id="node10" class="node">
<title>SG_1_Node_4</title>
<ellipse fill="none" stroke="#000000" cx="3122" cy="-37.2132" rx="34.7971" ry="21.4286"/>
<text text-anchor="middle" x="3122" y="-32.2132" font-family="Times,serif" font-size="20.00" fill="#000000">1.0</text>
</g>
<!-- SG_1_Node_1&#45;&gt;SG_1_Node_4 -->
<g id="edge8" class="edge">
<title>SG_1_Node_1&#45;&gt;SG_1_Node_4</title>
<path fill="none" stroke="#000000" d="M3066.8883,-223.4385C3078.782,-213.0463 3092.2435,-198.9994 3100,-183.4264 3118.1716,-146.9428 3122.2651,-99.4694 3122.7535,-68.6734"/>
<polygon fill="#000000" stroke="#000000" points="3126.254,-68.535 3122.7931,-58.5214 3119.254,-68.5076 3126.254,-68.535"/>
<text text-anchor="middle" x="3153" y="-134.4264" font-family="Times,serif" font-size="20.00" fill="#000000">empty</text>
</g>
<!-- SG_2_Node_0 -->
<g id="node11" class="node">
<title>SG_2_Node_0</title>
<polygon fill="none" stroke="#000000" points="8222.5,-416.8528 7905.5,-416.8528 7905.5,-380.8528 8222.5,-380.8528 8222.5,-416.8528"/>
<text text-anchor="middle" x="8064" y="-393.8528" font-family="Times,serif" font-size="20.00" fill="#000000">Cross&#45;Origin&#45;Resource&#45;Policy</text>
</g>
<!-- SG_2_Node_2 -->
<g id="node12" class="node">
<title>SG_2_Node_2</title>
<ellipse fill="none" stroke="#000000" cx="7985" cy="-241.6396" rx="34.7971" ry="21.4286"/>
<text text-anchor="middle" x="7985" y="-236.6396" font-family="Times,serif" font-size="20.00" fill="#000000">0.0</text>
</g>
<!-- SG_2_Node_0&#45;&gt;SG_2_Node_2 -->
<g id="edge9" class="edge">
<title>SG_2_Node_0&#45;&gt;SG_2_Node_2</title>
<path fill="none" stroke="#000000" d="M8034.0148,-380.7377C8021.133,-371.3646 8007.1849,-358.7525 7999,-343.8528 7987.1227,-322.2314 7983.9732,-294.289 7983.5982,-273.0855"/>
<polygon fill="#000000" stroke="#000000" points="7987.0983,-272.9851 7983.617,-262.9786 7980.0983,-272.972 7987.0983,-272.9851"/>
<text text-anchor="middle" x="8060" y="-327.8528" font-family="Times,serif" font-size="20.00" fill="#000000">[NA]</text>
<text text-anchor="middle" x="8060" y="-305.8528" font-family="Times,serif" font-size="20.00" fill="#000000">same&#45;origin</text>
</g>
<!-- SG_2_Node_1 -->
<g id="node13" class="node">
<title>SG_2_Node_1</title>
<polygon fill="none" stroke="#000000" points="8214,-259.6396 8072,-259.6396 8072,-223.6396 8214,-223.6396 8214,-259.6396"/>
<text text-anchor="middle" x="8143" y="-236.6396" font-family="Times,serif" font-size="20.00" fill="#000000">Status&#45;Code</text>
</g>
<!-- SG_2_Node_0&#45;&gt;SG_2_Node_1 -->
<g id="edge10" class="edge">
<title>SG_2_Node_0&#45;&gt;SG_2_Node_1</title>
<path fill="none" stroke="#000000" d="M8088.6664,-380.7441C8100.1694,-371.0435 8113.0452,-358.1536 8121,-343.8528 8133.7567,-320.9193 8139.1215,-291.2895 8141.3748,-269.8411"/>
<polygon fill="#000000" stroke="#000000" points="8144.8733,-270.0127 8142.2711,-259.7424 8137.9007,-269.3937 8144.8733,-270.0127"/>
<text text-anchor="middle" x="8168" y="-316.8528" font-family="Times,serif" font-size="20.00" fill="#000000">empty</text>
</g>
<!-- SG_2_Node_3 -->
<g id="node14" class="node">
<title>SG_2_Node_3</title>
<ellipse fill="none" stroke="#000000" cx="8079" cy="-37.2132" rx="34.7971" ry="21.4286"/>
<text text-anchor="middle" x="8079" y="-32.2132" font-family="Times,serif" font-size="20.00" fill="#000000">0.0</text>
</g>
<!-- SG_2_Node_1&#45;&gt;SG_2_Node_3 -->
<g id="edge11" class="edge">
<title>SG_2_Node_1&#45;&gt;SG_2_Node_3</title>
<path fill="none" stroke="#000000" d="M8122.2465,-223.5465C8111.5981,-212.9867 8099.5242,-198.7485 8093,-183.4264 8077.1823,-146.2786 8075.5753,-99.1516 8076.6514,-68.5992"/>
<polygon fill="#000000" stroke="#000000" points="8080.1514,-68.6806 8077.125,-58.5272 8073.1591,-68.3517 8080.1514,-68.6806"/>
<text text-anchor="middle" x="8139" y="-134.4264" font-family="Times,serif" font-size="20.00" fill="#000000">43 levels</text>
</g>
<!-- SG_2_Node_4 -->
<g id="node15" class="node">
<title>SG_2_Node_4</title>
<ellipse fill="none" stroke="#000000" cx="8207" cy="-37.2132" rx="34.7971" ry="21.4286"/>
<text text-anchor="middle" x="8207" y="-32.2132" font-family="Times,serif" font-size="20.00" fill="#000000">1.0</text>
</g>
<!-- SG_2_Node_1&#45;&gt;SG_2_Node_4 -->
<g id="edge12" class="edge">
<title>SG_2_Node_1&#45;&gt;SG_2_Node_4</title>
<path fill="none" stroke="#000000" d="M8159.4828,-223.6113C8168.4771,-212.7507 8178.9771,-198.1974 8185,-183.4264 8200.2593,-146.0037 8205.0706,-99.3105 8206.5135,-68.903"/>
<polygon fill="#000000" stroke="#000000" points="8210.0125,-68.9944 8206.895,-58.8686 8203.0175,-68.7284 8210.0125,-68.9944"/>
<text text-anchor="middle" x="8250" y="-145.4264" font-family="Times,serif" font-size="20.00" fill="#000000">[NA]</text>
<text text-anchor="middle" x="8250" y="-123.4264" font-family="Times,serif" font-size="20.00" fill="#000000">19 levels</text>
</g>
</g>
</svg>
