<?xml version="1.0" encoding="UTF-8" standalone="no"?>
<!DOCTYPE svg PUBLIC "-//W3C//DTD SVG 1.1//EN"
 "http://www.w3.org/Graphics/SVG/1.1/DTD/svg11.dtd">
<!-- Generated by graphviz version 2.40.1 (20161225.0304)
 -->
<!-- Title: G Pages: 1 -->
<svg width="1346pt" height="1509pt"
 viewBox="0.00 0.00 1346.00 1508.56" xmlns="http://www.w3.org/2000/svg" xmlns:xlink="http://www.w3.org/1999/xlink">
<g id="graph0" class="graph" transform="scale(1 1) rotate(0) translate(4 1504.5584)">
<title>G</title>
<polygon fill="#ffffff" stroke="transparent" points="-4,4 -4,-1504.5584 1342,-1504.5584 1342,4 -4,4"/>
<g id="clust1" class="cluster">
<title>cluster_0</title>
<polygon fill="none" stroke="#000000" points="8,-8 8,-1492.5584 622,-1492.5584 622,-8 8,-8"/>
<text text-anchor="middle" x="315" y="-1456.5584" font-family="Times,serif" font-size="40.00" fill="#000000">Tree 0, Class error</text>
</g>
<g id="clust10" class="cluster">
<title>cluster_1</title>
<polygon fill="none" stroke="#000000" points="630,-8 630,-1492.5584 1244,-1492.5584 1244,-8 630,-8"/>
<text text-anchor="middle" x="937" y="-1456.5584" font-family="Times,serif" font-size="40.00" fill="#000000">Tree 0, Class load</text>
</g>
<!-- SG_0_Node_0 -->
<g id="node1" class="node">
<title>SG_0_Node_0</title>
<polygon fill="none" stroke="#000000" points="566.5,-1432.5584 249.5,-1432.5584 249.5,-1396.5584 566.5,-1396.5584 566.5,-1432.5584"/>
<text text-anchor="middle" x="408" y="-1409.5584" font-family="Times,serif" font-size="20.00" fill="#000000">Cross&#45;Origin&#45;Resource&#45;Policy</text>
</g>
<!-- SG_0_Node_1 -->
<g id="node2" class="node">
<title>SG_0_Node_1</title>
<polygon fill="none" stroke="#000000" points="417,-1275.3452 275,-1275.3452 275,-1239.3452 417,-1239.3452 417,-1275.3452"/>
<text text-anchor="middle" x="346" y="-1252.3452" font-family="Times,serif" font-size="20.00" fill="#000000">Status&#45;Code</text>
</g>
<!-- SG_0_Node_0&#45;&gt;SG_0_Node_1 -->
<g id="edge1" class="edge">
<title>SG_0_Node_0&#45;&gt;SG_0_Node_1</title>
<path fill="none" stroke="#000000" d="M396.9352,-1396.4225C390.8221,-1385.9094 383.3967,-1372.274 378,-1359.5584 367.6215,-1335.1048 358.8608,-1306.112 353.1445,-1285.2619"/>
<polygon fill="#000000" stroke="#000000" points="356.4849,-1284.2051 350.5148,-1275.4525 349.7236,-1286.0178 356.4849,-1284.2051"/>
<text text-anchor="middle" x="410" y="-1332.5584" font-family="Times,serif" font-size="20.00" fill="#000000">empty</text>
</g>
<!-- SG_0_Node_9 -->
<g id="node3" class="node">
<title>SG_0_Node_9</title>
<ellipse fill="none" stroke="#000000" cx="470" cy="-1257.3452" rx="34.7971" ry="21.4286"/>
<text text-anchor="middle" x="470" y="-1252.3452" font-family="Times,serif" font-size="20.00" fill="#000000">1.0</text>
</g>
<!-- SG_0_Node_0&#45;&gt;SG_0_Node_9 -->
<g id="edge2" class="edge">
<title>SG_0_Node_0&#45;&gt;SG_0_Node_9</title>
<path fill="none" stroke="#000000" d="M421.0313,-1396.4472C428.0303,-1386.054 436.355,-1372.5277 442,-1359.5584 451.9879,-1336.6115 459.2668,-1309.1936 463.8957,-1288.5339"/>
<polygon fill="#000000" stroke="#000000" points="467.3306,-1289.2083 466.0152,-1278.6955 460.4876,-1287.7341 467.3306,-1289.2083"/>
<text text-anchor="middle" x="517" y="-1343.5584" font-family="Times,serif" font-size="20.00" fill="#000000">[NA]</text>
<text text-anchor="middle" x="517" y="-1321.5584" font-family="Times,serif" font-size="20.00" fill="#000000">same&#45;origin</text>
</g>
<!-- SG_0_Node_2 -->
<g id="node4" class="node">
<title>SG_0_Node_2</title>
<polygon fill="none" stroke="#000000" points="359.5,-1114.9188 204.5,-1114.9188 204.5,-1078.9188 359.5,-1078.9188 359.5,-1114.9188"/>
<text text-anchor="middle" x="282" y="-1091.9188" font-family="Times,serif" font-size="20.00" fill="#000000">Content&#45;Type</text>
</g>
<!-- SG_0_Node_1&#45;&gt;SG_0_Node_2 -->
<g id="edge3" class="edge">
<title>SG_0_Node_1&#45;&gt;SG_0_Node_2</title>
<path fill="none" stroke="#000000" d="M326.2081,-1239.3C315.8049,-1228.6511 303.828,-1214.3119 297,-1199.132 286.4743,-1175.7315 283.0284,-1146.564 282.0366,-1125.3831"/>
<polygon fill="#000000" stroke="#000000" points="285.5263,-1124.9941 281.7171,-1115.1078 278.5296,-1125.2117 285.5263,-1124.9941"/>
<text text-anchor="middle" x="343" y="-1183.132" font-family="Times,serif" font-size="20.00" fill="#000000">[NA]</text>
<text text-anchor="middle" x="343" y="-1161.132" font-family="Times,serif" font-size="20.00" fill="#000000">18 levels</text>
</g>
<!-- SG_0_Node_10 -->
<g id="node5" class="node">
<title>SG_0_Node_10</title>
<ellipse fill="none" stroke="#000000" cx="412" cy="-1096.9188" rx="34.7971" ry="21.4286"/>
<text text-anchor="middle" x="412" y="-1091.9188" font-family="Times,serif" font-size="20.00" fill="#000000">1.0</text>
</g>
<!-- SG_0_Node_1&#45;&gt;SG_0_Node_10 -->
<g id="edge4" class="edge">
<title>SG_0_Node_1&#45;&gt;SG_0_Node_10</title>
<path fill="none" stroke="#000000" d="M362.4852,-1239.2088C371.5635,-1228.3123 382.3135,-1213.759 389,-1199.132 399.3507,-1176.4894 405.208,-1148.8397 408.418,-1128.01"/>
<polygon fill="#000000" stroke="#000000" points="411.8853,-1128.4865 409.8271,-1118.0935 404.9549,-1127.5016 411.8853,-1128.4865"/>
<text text-anchor="middle" x="449" y="-1172.132" font-family="Times,serif" font-size="20.00" fill="#000000">44 levels</text>
</g>
<!-- SG_0_Node_3 -->
<g id="node6" class="node">
<title>SG_0_Node_3</title>
<polygon fill="none" stroke="#000000" points="291.5,-869.7056 136.5,-869.7056 136.5,-833.7056 291.5,-833.7056 291.5,-869.7056"/>
<text text-anchor="middle" x="214" y="-846.7056" font-family="Times,serif" font-size="20.00" fill="#000000">Content&#45;Type</text>
</g>
<!-- SG_0_Node_2&#45;&gt;SG_0_Node_3 -->
<g id="edge5" class="edge">
<title>SG_0_Node_2&#45;&gt;SG_0_Node_3</title>
<path fill="none" stroke="#000000" d="M258.9079,-1078.6923C247.5096,-1068.293 234.7789,-1054.2473 228,-1038.7056 205.1954,-986.4226 207.048,-918.1139 210.4888,-880.2045"/>
<polygon fill="#000000" stroke="#000000" points="214.0057,-880.2134 211.532,-869.9114 207.0414,-879.5075 214.0057,-880.2134"/>
<text text-anchor="middle" x="339" y="-1022.7056" font-family="Times,serif" font-size="20.00" fill="#000000">[NA]</text>
<text text-anchor="middle" x="339" y="-1000.7056" font-family="Times,serif" font-size="20.00" fill="#000000">application/javascript</text>
<text text-anchor="middle" x="339" y="-978.7056" font-family="Times,serif" font-size="20.00" fill="#000000">application/pdf</text>
<text text-anchor="middle" x="339" y="-956.7056" font-family="Times,serif" font-size="20.00" fill="#000000">empty</text>
<text text-anchor="middle" x="339" y="-934.7056" font-family="Times,serif" font-size="20.00" fill="#000000">text/css</text>
<text text-anchor="middle" x="339" y="-912.7056" font-family="Times,serif" font-size="20.00" fill="#000000">text/html</text>
</g>
<!-- SG_0_Node_4 -->
<g id="node7" class="node">
<title>SG_0_Node_4</title>
<polygon fill="none" stroke="#000000" points="543,-869.7056 401,-869.7056 401,-833.7056 543,-833.7056 543,-869.7056"/>
<text text-anchor="middle" x="472" y="-846.7056" font-family="Times,serif" font-size="20.00" fill="#000000">Status&#45;Code</text>
</g>
<!-- SG_0_Node_2&#45;&gt;SG_0_Node_4 -->
<g id="edge6" class="edge">
<title>SG_0_Node_2&#45;&gt;SG_0_Node_4</title>
<path fill="none" stroke="#000000" d="M344.0277,-1078.9145C388.922,-1065.3072 442.9161,-1047.5165 450,-1038.7056 486.6808,-993.0825 482.8082,-919.781 477.1696,-879.8507"/>
<polygon fill="#000000" stroke="#000000" points="480.5954,-879.1018 475.6041,-869.7564 473.6781,-880.1747 480.5954,-879.1018"/>
<text text-anchor="middle" x="534.5" y="-989.7056" font-family="Times,serif" font-size="20.00" fill="#000000">audio/wav</text>
<text text-anchor="middle" x="534.5" y="-967.7056" font-family="Times,serif" font-size="20.00" fill="#000000">image/png</text>
<text text-anchor="middle" x="534.5" y="-945.7056" font-family="Times,serif" font-size="20.00" fill="#000000">video/mp4</text>
</g>
<!-- SG_0_Node_11 -->
<g id="node8" class="node">
<title>SG_0_Node_11</title>
<ellipse fill="none" stroke="#000000" cx="51" cy="-628.4924" rx="34.7971" ry="21.4286"/>
<text text-anchor="middle" x="51" y="-623.4924" font-family="Times,serif" font-size="20.00" fill="#000000">0.0</text>
</g>
<!-- SG_0_Node_3&#45;&gt;SG_0_Node_11 -->
<g id="edge11" class="edge">
<title>SG_0_Node_3&#45;&gt;SG_0_Node_11</title>
<path fill="none" stroke="#000000" d="M136.3829,-836.0742C96.8393,-826.37 54.6635,-812.709 43,-796.7056 13.6446,-756.4273 26.9327,-695.2008 39.0882,-658.7861"/>
<polygon fill="#000000" stroke="#000000" points="42.4394,-659.8061 42.4502,-649.2113 35.8348,-657.4869 42.4394,-659.8061"/>
<text text-anchor="middle" x="154" y="-769.7056" font-family="Times,serif" font-size="20.00" fill="#000000">[NA]</text>
<text text-anchor="middle" x="154" y="-747.7056" font-family="Times,serif" font-size="20.00" fill="#000000">application/javascript</text>
<text text-anchor="middle" x="154" y="-725.7056" font-family="Times,serif" font-size="20.00" fill="#000000">application/pdf</text>
<text text-anchor="middle" x="154" y="-703.7056" font-family="Times,serif" font-size="20.00" fill="#000000">text/html</text>
</g>
<!-- SG_0_Node_5 -->
<g id="node9" class="node">
<title>SG_0_Node_5</title>
<polygon fill="none" stroke="#000000" points="366,-646.4924 104,-646.4924 104,-610.4924 366,-610.4924 366,-646.4924"/>
<text text-anchor="middle" x="235" y="-623.4924" font-family="Times,serif" font-size="20.00" fill="#000000">X&#45;Content&#45;Type&#45;Options</text>
</g>
<!-- SG_0_Node_3&#45;&gt;SG_0_Node_5 -->
<g id="edge12" class="edge">
<title>SG_0_Node_3&#45;&gt;SG_0_Node_5</title>
<path fill="none" stroke="#000000" d="M239.6887,-833.5795C250.946,-824.0451 262.9538,-811.3024 269,-796.7056 287.709,-751.5382 281.7718,-733.8968 269,-686.7056 266.011,-675.6614 260.3468,-664.5632 254.4865,-655.0628"/>
<polygon fill="#000000" stroke="#000000" points="257.2893,-652.9537 248.8886,-646.4977 251.4297,-656.7833 257.2893,-652.9537"/>
<text text-anchor="middle" x="319.5" y="-747.7056" font-family="Times,serif" font-size="20.00" fill="#000000">empty</text>
<text text-anchor="middle" x="319.5" y="-725.7056" font-family="Times,serif" font-size="20.00" fill="#000000">text/css</text>
</g>
<!-- SG_0_Node_6 -->
<g id="node10" class="node">
<title>SG_0_Node_6</title>
<polygon fill="none" stroke="#000000" points="491.5,-646.4924 386.5,-646.4924 386.5,-610.4924 491.5,-610.4924 491.5,-646.4924"/>
<text text-anchor="middle" x="439" y="-623.4924" font-family="Times,serif" font-size="20.00" fill="#000000">Location</text>
</g>
<!-- SG_0_Node_4&#45;&gt;SG_0_Node_6 -->
<g id="edge7" class="edge">
<title>SG_0_Node_4&#45;&gt;SG_0_Node_6</title>
<path fill="none" stroke="#000000" d="M467.142,-833.4806C464.4394,-822.8223 461.1894,-809.0723 459,-796.7056 450.3259,-747.71 444.3815,-690.0036 441.3474,-656.5008"/>
<polygon fill="#000000" stroke="#000000" points="444.8317,-656.1684 440.4648,-646.5154 437.8589,-656.7848 444.8317,-656.1684"/>
<text text-anchor="middle" x="478.5" y="-780.7056" font-family="Times,serif" font-size="20.00" fill="#000000">301</text>
<text text-anchor="middle" x="478.5" y="-758.7056" font-family="Times,serif" font-size="20.00" fill="#000000">302</text>
<text text-anchor="middle" x="478.5" y="-736.7056" font-family="Times,serif" font-size="20.00" fill="#000000">303</text>
<text text-anchor="middle" x="478.5" y="-714.7056" font-family="Times,serif" font-size="20.00" fill="#000000">307</text>
<text text-anchor="middle" x="478.5" y="-692.7056" font-family="Times,serif" font-size="20.00" fill="#000000">308</text>
</g>
<!-- SG_0_Node_12 -->
<g id="node11" class="node">
<title>SG_0_Node_12</title>
<ellipse fill="none" stroke="#000000" cx="544" cy="-628.4924" rx="34.7971" ry="21.4286"/>
<text text-anchor="middle" x="544" y="-623.4924" font-family="Times,serif" font-size="20.00" fill="#000000">1.0</text>
</g>
<!-- SG_0_Node_4&#45;&gt;SG_0_Node_12 -->
<g id="edge8" class="edge">
<title>SG_0_Node_4&#45;&gt;SG_0_Node_12</title>
<path fill="none" stroke="#000000" d="M481.6077,-833.4668C486.9117,-822.9204 493.3469,-809.2861 498,-796.7056 515.323,-749.8702 529.4189,-693.5594 537.2552,-659.4246"/>
<polygon fill="#000000" stroke="#000000" points="540.6899,-660.1039 539.4828,-649.5781 533.8624,-658.5592 540.6899,-660.1039"/>
<text text-anchor="middle" x="576" y="-747.7056" font-family="Times,serif" font-size="20.00" fill="#000000">[NA]</text>
<text text-anchor="middle" x="576" y="-725.7056" font-family="Times,serif" font-size="20.00" fill="#000000">13 levels</text>
</g>
<!-- SG_0_Node_13 -->
<g id="node12" class="node">
<title>SG_0_Node_13</title>
<ellipse fill="none" stroke="#000000" cx="51" cy="-446.066" rx="34.7971" ry="21.4286"/>
<text text-anchor="middle" x="51" y="-441.066" font-family="Times,serif" font-size="20.00" fill="#000000">0.0</text>
</g>
<!-- SG_0_Node_5&#45;&gt;SG_0_Node_13 -->
<g id="edge13" class="edge">
<title>SG_0_Node_5&#45;&gt;SG_0_Node_13</title>
<path fill="none" stroke="#000000" d="M162.7658,-610.4396C125.1043,-599.5709 84.3543,-585.0176 72,-570.2792 50.5421,-544.6806 47.213,-505.416 48.0191,-477.9024"/>
<polygon fill="#000000" stroke="#000000" points="51.529,-477.7865 48.5259,-467.6262 44.5375,-477.4416 51.529,-477.7865"/>
<text text-anchor="middle" x="104" y="-543.2792" font-family="Times,serif" font-size="20.00" fill="#000000">[NA]</text>
<text text-anchor="middle" x="104" y="-521.2792" font-family="Times,serif" font-size="20.00" fill="#000000">empty</text>
</g>
<!-- SG_0_Node_7 -->
<g id="node13" class="node">
<title>SG_0_Node_7</title>
<polygon fill="none" stroke="#000000" points="246,-464.066 104,-464.066 104,-428.066 246,-428.066 246,-464.066"/>
<text text-anchor="middle" x="175" y="-441.066" font-family="Times,serif" font-size="20.00" fill="#000000">Status&#45;Code</text>
</g>
<!-- SG_0_Node_5&#45;&gt;SG_0_Node_7 -->
<g id="edge14" class="edge">
<title>SG_0_Node_5&#45;&gt;SG_0_Node_7</title>
<path fill="none" stroke="#000000" d="M191.1169,-610.2367C174.4898,-600.8995 157.3323,-587.7523 148,-570.2792 131.6107,-539.593 145.644,-499.5986 158.8471,-473.3955"/>
<polygon fill="#000000" stroke="#000000" points="162.0203,-474.8825 163.616,-464.4085 155.8369,-471.6013 162.0203,-474.8825"/>
<text text-anchor="middle" x="183" y="-532.2792" font-family="Times,serif" font-size="20.00" fill="#000000">nosniff</text>
</g>
<!-- SG_0_Node_14 -->
<g id="node14" class="node">
<title>SG_0_Node_14</title>
<ellipse fill="none" stroke="#000000" cx="299" cy="-446.066" rx="34.7971" ry="21.4286"/>
<text text-anchor="middle" x="299" y="-441.066" font-family="Times,serif" font-size="20.00" fill="#000000">0.0</text>
</g>
<!-- SG_0_Node_6&#45;&gt;SG_0_Node_14 -->
<g id="edge9" class="edge">
<title>SG_0_Node_6&#45;&gt;SG_0_Node_14</title>
<path fill="none" stroke="#000000" d="M386.3329,-610.7922C382.5049,-609.5805 378.6973,-608.3978 375,-607.2792 315.4528,-589.264 277.7317,-619.7437 240,-570.2792 222.2095,-546.9567 228.6837,-531.3419 240,-504.2792 245.8071,-490.3916 256.7201,-478.1334 267.5964,-468.4919"/>
<polygon fill="#000000" stroke="#000000" points="270.0019,-471.0431 275.436,-461.948 265.5162,-465.6692 270.0019,-471.0431"/>
<text text-anchor="middle" x="377" y="-554.2792" font-family="Times,serif" font-size="20.00" fill="#000000">[NA]</text>
<text text-anchor="middle" x="377" y="-532.2792" font-family="Times,serif" font-size="20.00" fill="#000000">/</text>
<text text-anchor="middle" x="377" y="-510.2792" font-family="Times,serif" font-size="20.00" fill="#000000">http://localhost:8000/echo/</text>
</g>
<!-- SG_0_Node_15 -->
<g id="node15" class="node">
<title>SG_0_Node_15</title>
<ellipse fill="none" stroke="#000000" cx="550" cy="-446.066" rx="34.7971" ry="21.4286"/>
<text text-anchor="middle" x="550" y="-441.066" font-family="Times,serif" font-size="20.00" fill="#000000">1.0</text>
</g>
<!-- SG_0_Node_6&#45;&gt;SG_0_Node_15 -->
<g id="edge10" class="edge">
<title>SG_0_Node_6&#45;&gt;SG_0_Node_15</title>
<path fill="none" stroke="#000000" d="M473.7132,-610.2534C489.3849,-600.3775 506.8449,-586.7985 518,-570.2792 536.8134,-542.4192 544.5661,-504.2234 547.7609,-477.5696"/>
<polygon fill="#000000" stroke="#000000" points="551.2424,-477.9278 548.8074,-467.6166 544.2808,-477.1958 551.2424,-477.9278"/>
<text text-anchor="middle" x="575" y="-532.2792" font-family="Times,serif" font-size="20.00" fill="#000000">empty</text>
</g>
<!-- SG_0_Node_8 -->
<g id="node16" class="node">
<title>SG_0_Node_8</title>
<polygon fill="none" stroke="#000000" points="175.5,-237.6396 70.5,-237.6396 70.5,-201.6396 175.5,-201.6396 175.5,-237.6396"/>
<text text-anchor="middle" x="123" y="-214.6396" font-family="Times,serif" font-size="20.00" fill="#000000">Location</text>
</g>
<!-- SG_0_Node_7&#45;&gt;SG_0_Node_8 -->
<g id="edge15" class="edge">
<title>SG_0_Node_7&#45;&gt;SG_0_Node_8</title>
<path fill="none" stroke="#000000" d="M169.7589,-428.0426C166.4967,-416.5784 162.3072,-401.3949 159,-387.8528 147.0443,-338.8979 135.2089,-281.3972 128.5295,-247.8852"/>
<polygon fill="#000000" stroke="#000000" points="131.9257,-247.0176 126.5484,-237.8888 125.0593,-248.3784 131.9257,-247.0176"/>
<text text-anchor="middle" x="178.5" y="-371.8528" font-family="Times,serif" font-size="20.00" fill="#000000">301</text>
<text text-anchor="middle" x="178.5" y="-349.8528" font-family="Times,serif" font-size="20.00" fill="#000000">302</text>
<text text-anchor="middle" x="178.5" y="-327.8528" font-family="Times,serif" font-size="20.00" fill="#000000">303</text>
<text text-anchor="middle" x="178.5" y="-305.8528" font-family="Times,serif" font-size="20.00" fill="#000000">307</text>
<text text-anchor="middle" x="178.5" y="-283.8528" font-family="Times,serif" font-size="20.00" fill="#000000">308</text>
</g>
<!-- SG_0_Node_16 -->
<g id="node17" class="node">
<title>SG_0_Node_16</title>
<ellipse fill="none" stroke="#000000" cx="228" cy="-219.6396" rx="34.7971" ry="21.4286"/>
<text text-anchor="middle" x="228" y="-214.6396" font-family="Times,serif" font-size="20.00" fill="#000000">1.0</text>
</g>
<!-- SG_0_Node_7&#45;&gt;SG_0_Node_16 -->
<g id="edge16" class="edge">
<title>SG_0_Node_7&#45;&gt;SG_0_Node_16</title>
<path fill="none" stroke="#000000" d="M183.2061,-428.0363C188.0932,-416.6983 194.0858,-401.6525 198,-387.8528 211.2572,-341.1135 219.8302,-285.3311 224.2865,-251.2055"/>
<polygon fill="#000000" stroke="#000000" points="227.8042,-251.2865 225.5895,-240.9257 220.8597,-250.4062 227.8042,-251.2865"/>
<text text-anchor="middle" x="266" y="-338.8528" font-family="Times,serif" font-size="20.00" fill="#000000">[NA]</text>
<text text-anchor="middle" x="266" y="-316.8528" font-family="Times,serif" font-size="20.00" fill="#000000">13 levels</text>
</g>
<!-- SG_0_Node_17 -->
<g id="node18" class="node">
<title>SG_0_Node_17</title>
<ellipse fill="none" stroke="#000000" cx="68" cy="-37.2132" rx="34.7971" ry="21.4286"/>
<text text-anchor="middle" x="68" y="-32.2132" font-family="Times,serif" font-size="20.00" fill="#000000">0.0</text>
</g>
<!-- SG_0_Node_8&#45;&gt;SG_0_Node_17 -->
<g id="edge17" class="edge">
<title>SG_0_Node_8&#45;&gt;SG_0_Node_17</title>
<path fill="none" stroke="#000000" d="M106.7129,-201.6271C97.8672,-190.7718 87.6172,-176.2185 82,-161.4264 70.6075,-131.4259 67.7051,-94.6387 67.2858,-68.9153"/>
<polygon fill="#000000" stroke="#000000" points="70.7845,-68.605 67.2405,-58.6205 63.7846,-68.6358 70.7845,-68.605"/>
<text text-anchor="middle" x="219" y="-145.4264" font-family="Times,serif" font-size="20.00" fill="#000000">[NA]</text>
<text text-anchor="middle" x="219" y="-123.4264" font-family="Times,serif" font-size="20.00" fill="#000000">/</text>
<text text-anchor="middle" x="219" y="-101.4264" font-family="Times,serif" font-size="20.00" fill="#000000">http://localhost:8000/echo/</text>
</g>
<!-- SG_0_Node_18 -->
<g id="node19" class="node">
<title>SG_0_Node_18</title>
<ellipse fill="none" stroke="#000000" cx="378" cy="-37.2132" rx="34.7971" ry="21.4286"/>
<text text-anchor="middle" x="378" y="-32.2132" font-family="Times,serif" font-size="20.00" fill="#000000">1.0</text>
</g>
<!-- SG_0_Node_8&#45;&gt;SG_0_Node_18 -->
<g id="edge18" class="edge">
<title>SG_0_Node_8&#45;&gt;SG_0_Node_18</title>
<path fill="none" stroke="#000000" d="M173.4436,-201.5621C177.001,-200.4525 180.5452,-199.3948 184,-198.4264 259.2915,-177.3227 301.7298,-217.7196 356,-161.4264 379.5868,-136.9604 382.6624,-96.5158 381.4264,-68.4531"/>
<polygon fill="#000000" stroke="#000000" points="384.9121,-68.117 380.7753,-58.3632 377.9266,-68.5678 384.9121,-68.117"/>
<text text-anchor="middle" x="412" y="-123.4264" font-family="Times,serif" font-size="20.00" fill="#000000">empty</text>
</g>
<!-- SG_1_Node_0 -->
<g id="node20" class="node">
<title>SG_1_Node_0</title>
<polygon fill="none" stroke="#000000" points="972.5,-1432.5584 655.5,-1432.5584 655.5,-1396.5584 972.5,-1396.5584 972.5,-1432.5584"/>
<text text-anchor="middle" x="814" y="-1409.5584" font-family="Times,serif" font-size="20.00" fill="#000000">Cross&#45;Origin&#45;Resource&#45;Policy</text>
</g>
<!-- SG_1_Node_9 -->
<g id="node21" class="node">
<title>SG_1_Node_9</title>
<ellipse fill="none" stroke="#000000" cx="696" cy="-1257.3452" rx="34.7971" ry="21.4286"/>
<text text-anchor="middle" x="696" y="-1252.3452" font-family="Times,serif" font-size="20.00" fill="#000000">0.0</text>
</g>
<!-- SG_1_Node_0&#45;&gt;SG_1_Node_9 -->
<g id="edge19" class="edge">
<title>SG_1_Node_0&#45;&gt;SG_1_Node_9</title>
<path fill="none" stroke="#000000" d="M749.164,-1396.4682C730.9791,-1388.1848 713.1494,-1376.3381 702,-1359.5584 688.2195,-1338.8192 687.7234,-1310.1729 690.0998,-1288.4822"/>
<polygon fill="#000000" stroke="#000000" points="693.5837,-1288.8359 691.4515,-1278.4579 686.6464,-1287.9004 693.5837,-1288.8359"/>
<text text-anchor="middle" x="763" y="-1343.5584" font-family="Times,serif" font-size="20.00" fill="#000000">[NA]</text>
<text text-anchor="middle" x="763" y="-1321.5584" font-family="Times,serif" font-size="20.00" fill="#000000">same&#45;origin</text>
</g>
<!-- SG_1_Node_1 -->
<g id="node22" class="node">
<title>SG_1_Node_1</title>
<polygon fill="none" stroke="#000000" points="925,-1275.3452 783,-1275.3452 783,-1239.3452 925,-1239.3452 925,-1275.3452"/>
<text text-anchor="middle" x="854" y="-1252.3452" font-family="Times,serif" font-size="20.00" fill="#000000">Status&#45;Code</text>
</g>
<!-- SG_1_Node_0&#45;&gt;SG_1_Node_1 -->
<g id="edge20" class="edge">
<title>SG_1_Node_0&#45;&gt;SG_1_Node_1</title>
<path fill="none" stroke="#000000" d="M818.5885,-1396.5241C825.5138,-1369.3053 838.6945,-1317.5008 846.8756,-1285.3467"/>
<polygon fill="#000000" stroke="#000000" points="850.2679,-1286.2078 849.3418,-1275.6535 843.484,-1284.4817 850.2679,-1286.2078"/>
<text text-anchor="middle" x="870" y="-1332.5584" font-family="Times,serif" font-size="20.00" fill="#000000">empty</text>
</g>
<!-- SG_1_Node_10 -->
<g id="node23" class="node">
<title>SG_1_Node_10</title>
<ellipse fill="none" stroke="#000000" cx="759" cy="-1096.9188" rx="34.7971" ry="21.4286"/>
<text text-anchor="middle" x="759" y="-1091.9188" font-family="Times,serif" font-size="20.00" fill="#000000">0.0</text>
</g>
<!-- SG_1_Node_1&#45;&gt;SG_1_Node_10 -->
<g id="edge21" class="edge">
<title>SG_1_Node_1&#45;&gt;SG_1_Node_10</title>
<path fill="none" stroke="#000000" d="M814.2357,-1239.2817C797.8056,-1229.7322 780.2392,-1216.3699 770,-1199.132 757.3683,-1177.8662 755.1893,-1149.6702 755.8477,-1128.2795"/>
<polygon fill="#000000" stroke="#000000" points="759.3536,-1128.2579 756.3876,-1118.0867 752.3634,-1127.8875 759.3536,-1128.2579"/>
<text text-anchor="middle" x="816" y="-1172.132" font-family="Times,serif" font-size="20.00" fill="#000000">44 levels</text>
</g>
<!-- SG_1_Node_2 -->
<g id="node24" class="node">
<title>SG_1_Node_2</title>
<polygon fill="none" stroke="#000000" points="966.5,-1114.9188 811.5,-1114.9188 811.5,-1078.9188 966.5,-1078.9188 966.5,-1114.9188"/>
<text text-anchor="middle" x="889" y="-1091.9188" font-family="Times,serif" font-size="20.00" fill="#000000">Content&#45;Type</text>
</g>
<!-- SG_1_Node_1&#45;&gt;SG_1_Node_2 -->
<g id="edge22" class="edge">
<title>SG_1_Node_1&#45;&gt;SG_1_Node_2</title>
<path fill="none" stroke="#000000" d="M857.9469,-1239.2541C864.0125,-1211.4519 875.6752,-1157.9947 882.8535,-1125.0919"/>
<polygon fill="#000000" stroke="#000000" points="886.3018,-1125.7062 885.0138,-1115.19 879.4626,-1124.2141 886.3018,-1125.7062"/>
<text text-anchor="middle" x="922" y="-1183.132" font-family="Times,serif" font-size="20.00" fill="#000000">[NA]</text>
<text text-anchor="middle" x="922" y="-1161.132" font-family="Times,serif" font-size="20.00" fill="#000000">18 levels</text>
</g>
<!-- SG_1_Node_3 -->
<g id="node25" class="node">
<title>SG_1_Node_3</title>
<polygon fill="none" stroke="#000000" points="833,-869.7056 691,-869.7056 691,-833.7056 833,-833.7056 833,-869.7056"/>
<text text-anchor="middle" x="762" y="-846.7056" font-family="Times,serif" font-size="20.00" fill="#000000">Status&#45;Code</text>
</g>
<!-- SG_1_Node_2&#45;&gt;SG_1_Node_3 -->
<g id="edge23" class="edge">
<title>SG_1_Node_2&#45;&gt;SG_1_Node_3</title>
<path fill="none" stroke="#000000" d="M835.7788,-1078.8763C816.786,-1069.7753 797.1136,-1056.7414 785,-1038.7056 752.5761,-990.4303 754.0945,-919.018 758.049,-879.8876"/>
<polygon fill="#000000" stroke="#000000" points="761.5491,-880.0847 759.2028,-869.7529 754.594,-879.2928 761.5491,-880.0847"/>
<text text-anchor="middle" x="839.5" y="-989.7056" font-family="Times,serif" font-size="20.00" fill="#000000">audio/wav</text>
<text text-anchor="middle" x="839.5" y="-967.7056" font-family="Times,serif" font-size="20.00" fill="#000000">image/png</text>
<text text-anchor="middle" x="839.5" y="-945.7056" font-family="Times,serif" font-size="20.00" fill="#000000">video/mp4</text>
</g>
<!-- SG_1_Node_4 -->
<g id="node26" class="node">
<title>SG_1_Node_4</title>
<polygon fill="none" stroke="#000000" points="1006.5,-869.7056 851.5,-869.7056 851.5,-833.7056 1006.5,-833.7056 1006.5,-869.7056"/>
<text text-anchor="middle" x="929" y="-846.7056" font-family="Times,serif" font-size="20.00" fill="#000000">Content&#45;Type</text>
</g>
<!-- SG_1_Node_2&#45;&gt;SG_1_Node_4 -->
<g id="edge24" class="edge">
<title>SG_1_Node_2&#45;&gt;SG_1_Node_4</title>
<path fill="none" stroke="#000000" d="M891.9413,-1078.8877C898.8473,-1036.5517 916.1399,-930.542 924.4292,-879.7262"/>
<polygon fill="#000000" stroke="#000000" points="927.8987,-880.1962 926.0544,-869.7632 920.99,-879.0692 927.8987,-880.1962"/>
<text text-anchor="middle" x="1030" y="-1022.7056" font-family="Times,serif" font-size="20.00" fill="#000000">[NA]</text>
<text text-anchor="middle" x="1030" y="-1000.7056" font-family="Times,serif" font-size="20.00" fill="#000000">application/javascript</text>
<text text-anchor="middle" x="1030" y="-978.7056" font-family="Times,serif" font-size="20.00" fill="#000000">application/pdf</text>
<text text-anchor="middle" x="1030" y="-956.7056" font-family="Times,serif" font-size="20.00" fill="#000000">empty</text>
<text text-anchor="middle" x="1030" y="-934.7056" font-family="Times,serif" font-size="20.00" fill="#000000">text/css</text>
<text text-anchor="middle" x="1030" y="-912.7056" font-family="Times,serif" font-size="20.00" fill="#000000">text/html</text>
</g>
<!-- SG_1_Node_11 -->
<g id="node27" class="node">
<title>SG_1_Node_11</title>
<ellipse fill="none" stroke="#000000" cx="673" cy="-628.4924" rx="34.7971" ry="21.4286"/>
<text text-anchor="middle" x="673" y="-623.4924" font-family="Times,serif" font-size="20.00" fill="#000000">0.0</text>
</g>
<!-- SG_1_Node_3&#45;&gt;SG_1_Node_11 -->
<g id="edge33" class="edge">
<title>SG_1_Node_3&#45;&gt;SG_1_Node_11</title>
<path fill="none" stroke="#000000" d="M710.839,-833.4777C694.5175,-824.9561 678.2938,-812.9994 669,-796.7056 644.63,-753.9805 654.0482,-694.688 663.3502,-659.1052"/>
<polygon fill="#000000" stroke="#000000" points="666.7698,-659.8712 666.0689,-649.2996 660.0243,-658.0009 666.7698,-659.8712"/>
<text text-anchor="middle" x="715" y="-747.7056" font-family="Times,serif" font-size="20.00" fill="#000000">[NA]</text>
<text text-anchor="middle" x="715" y="-725.7056" font-family="Times,serif" font-size="20.00" fill="#000000">13 levels</text>
</g>
<!-- SG_1_Node_5 -->
<g id="node28" class="node">
<title>SG_1_Node_5</title>
<polygon fill="none" stroke="#000000" points="830.5,-646.4924 725.5,-646.4924 725.5,-610.4924 830.5,-610.4924 830.5,-646.4924"/>
<text text-anchor="middle" x="778" y="-623.4924" font-family="Times,serif" font-size="20.00" fill="#000000">Location</text>
</g>
<!-- SG_1_Node_3&#45;&gt;SG_1_Node_5 -->
<g id="edge34" class="edge">
<title>SG_1_Node_3&#45;&gt;SG_1_Node_5</title>
<path fill="none" stroke="#000000" d="M763.3093,-833.4392C766.0997,-794.5108 772.6484,-703.1511 775.9787,-656.6918"/>
<polygon fill="#000000" stroke="#000000" points="779.471,-656.9229 776.695,-646.6982 772.4889,-656.4224 779.471,-656.9229"/>
<text text-anchor="middle" x="792.5" y="-780.7056" font-family="Times,serif" font-size="20.00" fill="#000000">301</text>
<text text-anchor="middle" x="792.5" y="-758.7056" font-family="Times,serif" font-size="20.00" fill="#000000">302</text>
<text text-anchor="middle" x="792.5" y="-736.7056" font-family="Times,serif" font-size="20.00" fill="#000000">303</text>
<text text-anchor="middle" x="792.5" y="-714.7056" font-family="Times,serif" font-size="20.00" fill="#000000">307</text>
<text text-anchor="middle" x="792.5" y="-692.7056" font-family="Times,serif" font-size="20.00" fill="#000000">308</text>
</g>
<!-- SG_1_Node_6 -->
<g id="node29" class="node">
<title>SG_1_Node_6</title>
<polygon fill="none" stroke="#000000" points="1130,-646.4924 868,-646.4924 868,-610.4924 1130,-610.4924 1130,-646.4924"/>
<text text-anchor="middle" x="999" y="-623.4924" font-family="Times,serif" font-size="20.00" fill="#000000">X&#45;Content&#45;Type&#45;Options</text>
</g>
<!-- SG_1_Node_4&#45;&gt;SG_1_Node_6 -->
<g id="edge25" class="edge">
<title>SG_1_Node_4&#45;&gt;SG_1_Node_6</title>
<path fill="none" stroke="#000000" d="M921.0464,-833.5891C908.3747,-801.7908 887.5027,-734.7541 913,-686.7056 920.6986,-672.198 933.8075,-660.6442 947.5016,-651.7789"/>
<polygon fill="#000000" stroke="#000000" points="949.314,-654.7732 956.0606,-646.6041 945.6922,-648.7829 949.314,-654.7732"/>
<text text-anchor="middle" x="952.5" y="-747.7056" font-family="Times,serif" font-size="20.00" fill="#000000">empty</text>
<text text-anchor="middle" x="952.5" y="-725.7056" font-family="Times,serif" font-size="20.00" fill="#000000">text/css</text>
</g>
<!-- SG_1_Node_12 -->
<g id="node30" class="node">
<title>SG_1_Node_12</title>
<ellipse fill="none" stroke="#000000" cx="1183" cy="-628.4924" rx="34.7971" ry="21.4286"/>
<text text-anchor="middle" x="1183" y="-623.4924" font-family="Times,serif" font-size="20.00" fill="#000000">1.0</text>
</g>
<!-- SG_1_Node_4&#45;&gt;SG_1_Node_12 -->
<g id="edge26" class="edge">
<title>SG_1_Node_4&#45;&gt;SG_1_Node_12</title>
<path fill="none" stroke="#000000" d="M949.7333,-833.645C962.0304,-822.9232 977.9174,-809.0539 992,-796.7056 1050.2221,-745.6536 1118.2373,-685.6701 1155.354,-652.9071"/>
<polygon fill="#000000" stroke="#000000" points="1158.0473,-655.1982 1163.2276,-645.9562 1153.4146,-649.9505 1158.0473,-655.1982"/>
<text text-anchor="middle" x="1227" y="-769.7056" font-family="Times,serif" font-size="20.00" fill="#000000">[NA]</text>
<text text-anchor="middle" x="1227" y="-747.7056" font-family="Times,serif" font-size="20.00" fill="#000000">application/javascript</text>
<text text-anchor="middle" x="1227" y="-725.7056" font-family="Times,serif" font-size="20.00" fill="#000000">application/pdf</text>
<text text-anchor="middle" x="1227" y="-703.7056" font-family="Times,serif" font-size="20.00" fill="#000000">text/html</text>
</g>
<!-- SG_1_Node_13 -->
<g id="node31" class="node">
<title>SG_1_Node_13</title>
<ellipse fill="none" stroke="#000000" cx="673" cy="-446.066" rx="34.7971" ry="21.4286"/>
<text text-anchor="middle" x="673" y="-441.066" font-family="Times,serif" font-size="20.00" fill="#000000">0.0</text>
</g>
<!-- SG_1_Node_5&#45;&gt;SG_1_Node_13 -->
<g id="edge35" class="edge">
<title>SG_1_Node_5&#45;&gt;SG_1_Node_13</title>
<path fill="none" stroke="#000000" d="M740.609,-610.3673C724.45,-600.6672 706.8052,-587.2013 696,-570.2792 678.2611,-542.4983 673.4233,-504.5248 672.4525,-477.9015"/>
<polygon fill="#000000" stroke="#000000" points="675.9459,-477.5285 672.2479,-467.6 668.9473,-477.6676 675.9459,-477.5285"/>
<text text-anchor="middle" x="728" y="-532.2792" font-family="Times,serif" font-size="20.00" fill="#000000">empty</text>
</g>
<!-- SG_1_Node_14 -->
<g id="node32" class="node">
<title>SG_1_Node_14</title>
<ellipse fill="none" stroke="#000000" cx="760" cy="-446.066" rx="34.7971" ry="21.4286"/>
<text text-anchor="middle" x="760" y="-441.066" font-family="Times,serif" font-size="20.00" fill="#000000">1.0</text>
</g>
<!-- SG_1_Node_5&#45;&gt;SG_1_Node_14 -->
<g id="edge36" class="edge">
<title>SG_1_Node_5&#45;&gt;SG_1_Node_14</title>
<path fill="none" stroke="#000000" d="M775.2513,-610.4317C773.5705,-598.953 771.4686,-583.7674 770,-570.2792 766.5782,-538.8514 763.8046,-502.8313 762.0541,-477.7011"/>
<polygon fill="#000000" stroke="#000000" points="765.5405,-477.3813 761.3676,-467.6428 758.5567,-477.858 765.5405,-477.3813"/>
<text text-anchor="middle" x="907" y="-554.2792" font-family="Times,serif" font-size="20.00" fill="#000000">[NA]</text>
<text text-anchor="middle" x="907" y="-532.2792" font-family="Times,serif" font-size="20.00" fill="#000000">/</text>
<text text-anchor="middle" x="907" y="-510.2792" font-family="Times,serif" font-size="20.00" fill="#000000">http://localhost:8000/echo/</text>
</g>
<!-- SG_1_Node_7 -->
<g id="node33" class="node">
<title>SG_1_Node_7</title>
<polygon fill="none" stroke="#000000" points="1045,-464.066 903,-464.066 903,-428.066 1045,-428.066 1045,-464.066"/>
<text text-anchor="middle" x="974" y="-441.066" font-family="Times,serif" font-size="20.00" fill="#000000">Status&#45;Code</text>
</g>
<!-- SG_1_Node_6&#45;&gt;SG_1_Node_7 -->
<g id="edge27" class="edge">
<title>SG_1_Node_6&#45;&gt;SG_1_Node_7</title>
<path fill="none" stroke="#000000" d="M1018.0038,-610.4873C1027.8167,-599.8511 1038.7991,-585.511 1044,-570.2792 1053.4785,-542.5195 1056.4554,-530.8369 1044,-504.2792 1037.6199,-490.6754 1026.3257,-479.1477 1014.6468,-470.0301"/>
<polygon fill="#000000" stroke="#000000" points="1016.692,-467.1897 1006.5556,-464.107 1012.5572,-472.8381 1016.692,-467.1897"/>
<text text-anchor="middle" x="1087" y="-532.2792" font-family="Times,serif" font-size="20.00" fill="#000000">nosniff</text>
</g>
<!-- SG_1_Node_15 -->
<g id="node34" class="node">
<title>SG_1_Node_15</title>
<ellipse fill="none" stroke="#000000" cx="1172" cy="-446.066" rx="34.7971" ry="21.4286"/>
<text text-anchor="middle" x="1172" y="-441.066" font-family="Times,serif" font-size="20.00" fill="#000000">1.0</text>
</g>
<!-- SG_1_Node_6&#45;&gt;SG_1_Node_15 -->
<g id="edge28" class="edge">
<title>SG_1_Node_6&#45;&gt;SG_1_Node_15</title>
<path fill="none" stroke="#000000" d="M1062.989,-610.4626C1085.3654,-601.4698 1109.0932,-588.5063 1126,-570.2792 1149.9899,-544.4159 1161.7464,-504.9468 1167.3165,-477.4648"/>
<polygon fill="#000000" stroke="#000000" points="1170.7687,-478.0445 1169.161,-467.5723 1163.8873,-476.7614 1170.7687,-478.0445"/>
<text text-anchor="middle" x="1192" y="-543.2792" font-family="Times,serif" font-size="20.00" fill="#000000">[NA]</text>
<text text-anchor="middle" x="1192" y="-521.2792" font-family="Times,serif" font-size="20.00" fill="#000000">empty</text>
</g>
<!-- SG_1_Node_16 -->
<g id="node35" class="node">
<title>SG_1_Node_16</title>
<ellipse fill="none" stroke="#000000" cx="846" cy="-219.6396" rx="34.7971" ry="21.4286"/>
<text text-anchor="middle" x="846" y="-214.6396" font-family="Times,serif" font-size="20.00" fill="#000000">0.0</text>
</g>
<!-- SG_1_Node_7&#45;&gt;SG_1_Node_16 -->
<g id="edge29" class="edge">
<title>SG_1_Node_7&#45;&gt;SG_1_Node_16</title>
<path fill="none" stroke="#000000" d="M920.4043,-428.0488C901.2468,-418.9511 881.3616,-405.9128 869,-387.8528 840.9671,-346.8976 839.8604,-287.0468 842.3868,-250.8744"/>
<polygon fill="#000000" stroke="#000000" points="845.8757,-251.1518 843.2187,-240.8955 838.8999,-250.5701 845.8757,-251.1518"/>
<text text-anchor="middle" x="915" y="-338.8528" font-family="Times,serif" font-size="20.00" fill="#000000">[NA]</text>
<text text-anchor="middle" x="915" y="-316.8528" font-family="Times,serif" font-size="20.00" fill="#000000">13 levels</text>
</g>
<!-- SG_1_Node_8 -->
<g id="node36" class="node">
<title>SG_1_Node_8</title>
<polygon fill="none" stroke="#000000" points="1014.5,-237.6396 909.5,-237.6396 909.5,-201.6396 1014.5,-201.6396 1014.5,-237.6396"/>
<text text-anchor="middle" x="962" y="-214.6396" font-family="Times,serif" font-size="20.00" fill="#000000">Location</text>
</g>
<!-- SG_1_Node_7&#45;&gt;SG_1_Node_8 -->
<g id="edge30" class="edge">
<title>SG_1_Node_7&#45;&gt;SG_1_Node_8</title>
<path fill="none" stroke="#000000" d="M973.0383,-427.9193C970.9537,-388.5867 966.0059,-295.2266 963.5039,-248.0173"/>
<polygon fill="#000000" stroke="#000000" points="966.9907,-247.6734 962.9663,-237.8727 960.0005,-248.044 966.9907,-247.6734"/>
<text text-anchor="middle" x="989.5" y="-371.8528" font-family="Times,serif" font-size="20.00" fill="#000000">301</text>
<text text-anchor="middle" x="989.5" y="-349.8528" font-family="Times,serif" font-size="20.00" fill="#000000">302</text>
<text text-anchor="middle" x="989.5" y="-327.8528" font-family="Times,serif" font-size="20.00" fill="#000000">303</text>
<text text-anchor="middle" x="989.5" y="-305.8528" font-family="Times,serif" font-size="20.00" fill="#000000">307</text>
<text text-anchor="middle" x="989.5" y="-283.8528" font-family="Times,serif" font-size="20.00" fill="#000000">308</text>
</g>
<!-- SG_1_Node_17 -->
<g id="node37" class="node">
<title>SG_1_Node_17</title>
<ellipse fill="none" stroke="#000000" cx="862" cy="-37.2132" rx="34.7971" ry="21.4286"/>
<text text-anchor="middle" x="862" y="-32.2132" font-family="Times,serif" font-size="20.00" fill="#000000">0.0</text>
</g>
<!-- SG_1_Node_8&#45;&gt;SG_1_Node_17 -->
<g id="edge31" class="edge">
<title>SG_1_Node_8&#45;&gt;SG_1_Node_17</title>
<path fill="none" stroke="#000000" d="M933.5131,-201.4605C919.6836,-191.2614 903.9481,-177.3836 894,-161.4264 876.294,-133.0249 868.3484,-95.1595 864.8056,-68.7313"/>
<polygon fill="#000000" stroke="#000000" points="868.246,-68.0247 863.578,-58.5137 861.296,-68.8598 868.246,-68.0247"/>
<text text-anchor="middle" x="926" y="-123.4264" font-family="Times,serif" font-size="20.00" fill="#000000">empty</text>
</g>
<!-- SG_1_Node_18 -->
<g id="node38" class="node">
<title>SG_1_Node_18</title>
<ellipse fill="none" stroke="#000000" cx="962" cy="-37.2132" rx="34.7971" ry="21.4286"/>
<text text-anchor="middle" x="962" y="-32.2132" font-family="Times,serif" font-size="20.00" fill="#000000">1.0</text>
</g>
<!-- SG_1_Node_8&#45;&gt;SG_1_Node_18 -->
<g id="edge32" class="edge">
<title>SG_1_Node_8&#45;&gt;SG_1_Node_18</title>
<path fill="none" stroke="#000000" d="M962,-201.4809C962,-170.507 962,-107.0981 962,-68.7558"/>
<polygon fill="#000000" stroke="#000000" points="965.5001,-68.6538 962,-58.6538 958.5001,-68.6538 965.5001,-68.6538"/>
<text text-anchor="middle" x="1099" y="-145.4264" font-family="Times,serif" font-size="20.00" fill="#000000">[NA]</text>
<text text-anchor="middle" x="1099" y="-123.4264" font-family="Times,serif" font-size="20.00" fill="#000000">/</text>
<text text-anchor="middle" x="1099" y="-101.4264" font-family="Times,serif" font-size="20.00" fill="#000000">http://localhost:8000/echo/</text>
</g>
</g>
</svg>
