<?xml version="1.0" encoding="UTF-8" standalone="no"?>
<!DOCTYPE svg PUBLIC "-//W3C//DTD SVG 1.1//EN"
 "http://www.w3.org/Graphics/SVG/1.1/DTD/svg11.dtd">
<!-- Generated by graphviz version 2.40.1 (20161225.0304)
 -->
<!-- Title: G Pages: 1 -->
<svg width="1959pt" height="1370pt"
 viewBox="0.00 0.00 1959.00 1370.13" xmlns="http://www.w3.org/2000/svg" xmlns:xlink="http://www.w3.org/1999/xlink">
<g id="graph0" class="graph" transform="scale(1 1) rotate(0) translate(4 1366.132)">
<title>G</title>
<polygon fill="#ffffff" stroke="transparent" points="-4,4 -4,-1366.132 1955,-1366.132 1955,4 -4,4"/>
<g id="clust1" class="cluster">
<title>cluster_0</title>
<polygon fill="none" stroke="#000000" points="8,-8 8,-1354.132 1124,-1354.132 1124,-8 8,-8"/>
<text text-anchor="middle" x="566" y="-1318.132" font-family="Times,serif" font-size="40.00" fill="#000000">Tree 0, Class [object ErrorEvent]&#45;undefined&#45;undefined</text>
</g>
<g id="clust9" class="cluster">
<title>cluster_1</title>
<polygon fill="none" stroke="#000000" points="1132,-8 1132,-1354.132 1943,-1354.132 1943,-8 1132,-8"/>
<text text-anchor="middle" x="1537.5" y="-1318.132" font-family="Times,serif" font-size="40.00" fill="#000000">Tree 0, Class uncalled</text>
</g>
<!-- SG_0_Node_0 -->
<g id="node1" class="node">
<title>SG_0_Node_0</title>
<polygon fill="none" stroke="#000000" points="204,-1294.132 62,-1294.132 62,-1258.132 204,-1258.132 204,-1294.132"/>
<text text-anchor="middle" x="133" y="-1271.132" font-family="Times,serif" font-size="20.00" fill="#000000">Status&#45;Code</text>
</g>
<!-- SG_0_Node_7 -->
<g id="node2" class="node">
<title>SG_0_Node_7</title>
<ellipse fill="none" stroke="#000000" cx="92" cy="-986.9188" rx="34.7971" ry="21.4286"/>
<text text-anchor="middle" x="92" y="-981.9188" font-family="Times,serif" font-size="20.00" fill="#000000">0.0</text>
</g>
<!-- SG_0_Node_0&#45;&gt;SG_0_Node_7 -->
<g id="edge1" class="edge">
<title>SG_0_Node_0&#45;&gt;SG_0_Node_7</title>
<path fill="none" stroke="#000000" d="M130.4353,-1258.0405C123.6216,-1209.9768 105.0043,-1078.6512 96.4303,-1018.1701"/>
<polygon fill="#000000" stroke="#000000" points="99.8683,-1017.4852 94.9993,-1008.0755 92.9376,-1018.4678 99.8683,-1017.4852"/>
<text text-anchor="middle" x="170" y="-1139.132" font-family="Times,serif" font-size="20.00" fill="#000000">[NA]</text>
<text text-anchor="middle" x="170" y="-1117.132" font-family="Times,serif" font-size="20.00" fill="#000000">54 levels</text>
</g>
<!-- SG_0_Node_1 -->
<g id="node3" class="node">
<title>SG_0_Node_1</title>
<polygon fill="none" stroke="#000000" points="461.5,-1004.9188 144.5,-1004.9188 144.5,-968.9188 461.5,-968.9188 461.5,-1004.9188"/>
<text text-anchor="middle" x="303" y="-981.9188" font-family="Times,serif" font-size="20.00" fill="#000000">Cross&#45;Origin&#45;Resource&#45;Policy</text>
</g>
<!-- SG_0_Node_0&#45;&gt;SG_0_Node_1 -->
<g id="edge2" class="edge">
<title>SG_0_Node_0&#45;&gt;SG_0_Node_1</title>
<path fill="none" stroke="#000000" d="M173.2035,-1258.1037C189.6236,-1249.0308 207.6237,-1236.6321 220,-1221.132 270.3197,-1158.1121 291.408,-1062.2397 299.124,-1015.0988"/>
<polygon fill="#000000" stroke="#000000" points="302.6149,-1015.4271 300.6912,-1005.0083 295.6978,-1014.3527 302.6149,-1015.4271"/>
<text text-anchor="middle" x="312.5" y="-1205.132" font-family="Times,serif" font-size="20.00" fill="#000000">200</text>
<text text-anchor="middle" x="312.5" y="-1183.132" font-family="Times,serif" font-size="20.00" fill="#000000">201</text>
<text text-anchor="middle" x="312.5" y="-1161.132" font-family="Times,serif" font-size="20.00" fill="#000000">202</text>
<text text-anchor="middle" x="312.5" y="-1139.132" font-family="Times,serif" font-size="20.00" fill="#000000">203</text>
<text text-anchor="middle" x="312.5" y="-1117.132" font-family="Times,serif" font-size="20.00" fill="#000000">206</text>
<text text-anchor="middle" x="312.5" y="-1095.132" font-family="Times,serif" font-size="20.00" fill="#000000">207</text>
<text text-anchor="middle" x="312.5" y="-1073.132" font-family="Times,serif" font-size="20.00" fill="#000000">208</text>
<text text-anchor="middle" x="312.5" y="-1051.132" font-family="Times,serif" font-size="20.00" fill="#000000">226</text>
</g>
<!-- SG_0_Node_8 -->
<g id="node4" class="node">
<title>SG_0_Node_8</title>
<ellipse fill="none" stroke="#000000" cx="183" cy="-826.4924" rx="34.7971" ry="21.4286"/>
<text text-anchor="middle" x="183" y="-821.4924" font-family="Times,serif" font-size="20.00" fill="#000000">0.0</text>
</g>
<!-- SG_0_Node_1&#45;&gt;SG_0_Node_8 -->
<g id="edge3" class="edge">
<title>SG_0_Node_1&#45;&gt;SG_0_Node_8</title>
<path fill="none" stroke="#000000" d="M241.469,-968.8207C221.8222,-959.9306 202.0653,-947.0517 190,-928.7056 176.3095,-907.8884 175.5055,-879.2495 177.5846,-857.5814"/>
<polygon fill="#000000" stroke="#000000" points="181.0694,-857.9165 178.7929,-847.5691 174.1199,-857.0777 181.0694,-857.9165"/>
<text text-anchor="middle" x="251" y="-901.7056" font-family="Times,serif" font-size="20.00" fill="#000000">same&#45;origin</text>
</g>
<!-- SG_0_Node_2 -->
<g id="node5" class="node">
<title>SG_0_Node_2</title>
<polygon fill="none" stroke="#000000" points="418.5,-844.4924 263.5,-844.4924 263.5,-808.4924 418.5,-808.4924 418.5,-844.4924"/>
<text text-anchor="middle" x="341" y="-821.4924" font-family="Times,serif" font-size="20.00" fill="#000000">Content&#45;Type</text>
</g>
<!-- SG_0_Node_1&#45;&gt;SG_0_Node_2 -->
<g id="edge4" class="edge">
<title>SG_0_Node_1&#45;&gt;SG_0_Node_2</title>
<path fill="none" stroke="#000000" d="M307.2852,-968.8277C313.8707,-941.0255 326.533,-887.5683 334.3267,-854.6655"/>
<polygon fill="#000000" stroke="#000000" points="337.7729,-855.301 336.6721,-844.7636 330.9614,-853.6876 337.7729,-855.301"/>
<text text-anchor="middle" x="359" y="-912.7056" font-family="Times,serif" font-size="20.00" fill="#000000">[NA]</text>
<text text-anchor="middle" x="359" y="-890.7056" font-family="Times,serif" font-size="20.00" fill="#000000">empty</text>
</g>
<!-- SG_0_Node_9 -->
<g id="node6" class="node">
<title>SG_0_Node_9</title>
<ellipse fill="none" stroke="#000000" cx="252" cy="-578.066" rx="34.7971" ry="21.4286"/>
<text text-anchor="middle" x="252" y="-573.066" font-family="Times,serif" font-size="20.00" fill="#000000">0.0</text>
</g>
<!-- SG_0_Node_2&#45;&gt;SG_0_Node_9 -->
<g id="edge5" class="edge">
<title>SG_0_Node_2&#45;&gt;SG_0_Node_9</title>
<path fill="none" stroke="#000000" d="M318.4017,-808.3011C306.9078,-797.8133 293.7612,-783.6743 286,-768.2792 260.0627,-716.8303 253.6245,-648.7978 252.196,-609.592"/>
<polygon fill="#000000" stroke="#000000" points="255.6941,-609.4695 251.9183,-599.5703 248.6968,-609.6635 255.6941,-609.4695"/>
<text text-anchor="middle" x="340.5" y="-719.2792" font-family="Times,serif" font-size="20.00" fill="#000000">audio/wav</text>
<text text-anchor="middle" x="340.5" y="-697.2792" font-family="Times,serif" font-size="20.00" fill="#000000">image/png</text>
<text text-anchor="middle" x="340.5" y="-675.2792" font-family="Times,serif" font-size="20.00" fill="#000000">video/mp4</text>
</g>
<!-- SG_0_Node_3 -->
<g id="node7" class="node">
<title>SG_0_Node_3</title>
<polygon fill="none" stroke="#000000" points="567,-596.066 305,-596.066 305,-560.066 567,-560.066 567,-596.066"/>
<text text-anchor="middle" x="436" y="-573.066" font-family="Times,serif" font-size="20.00" fill="#000000">X&#45;Content&#45;Type&#45;Options</text>
</g>
<!-- SG_0_Node_2&#45;&gt;SG_0_Node_3 -->
<g id="edge6" class="edge">
<title>SG_0_Node_2&#45;&gt;SG_0_Node_3</title>
<path fill="none" stroke="#000000" d="M362.6972,-808.369C373.9804,-797.8001 387.0416,-783.5628 395,-768.2792 422.5957,-715.2838 431.6307,-644.7201 434.5796,-606.1613"/>
<polygon fill="#000000" stroke="#000000" points="438.072,-606.3905 435.2603,-596.1756 431.0882,-605.9144 438.072,-606.3905"/>
<text text-anchor="middle" x="542" y="-752.2792" font-family="Times,serif" font-size="20.00" fill="#000000">[NA]</text>
<text text-anchor="middle" x="542" y="-730.2792" font-family="Times,serif" font-size="20.00" fill="#000000">application/javascript</text>
<text text-anchor="middle" x="542" y="-708.2792" font-family="Times,serif" font-size="20.00" fill="#000000">application/pdf</text>
<text text-anchor="middle" x="542" y="-686.2792" font-family="Times,serif" font-size="20.00" fill="#000000">empty</text>
<text text-anchor="middle" x="542" y="-664.2792" font-family="Times,serif" font-size="20.00" fill="#000000">text/css</text>
<text text-anchor="middle" x="542" y="-642.2792" font-family="Times,serif" font-size="20.00" fill="#000000">text/html</text>
</g>
<!-- SG_0_Node_4 -->
<g id="node8" class="node">
<title>SG_0_Node_4</title>
<polygon fill="none" stroke="#000000" points="341.5,-438.8528 186.5,-438.8528 186.5,-402.8528 341.5,-402.8528 341.5,-438.8528"/>
<text text-anchor="middle" x="264" y="-415.8528" font-family="Times,serif" font-size="20.00" fill="#000000">Content&#45;Type</text>
</g>
<!-- SG_0_Node_3&#45;&gt;SG_0_Node_4 -->
<g id="edge7" class="edge">
<title>SG_0_Node_3&#45;&gt;SG_0_Node_4</title>
<path fill="none" stroke="#000000" d="M416.2694,-560.0317C385.5061,-531.913 326.037,-477.5565 291.2186,-445.7314"/>
<polygon fill="#000000" stroke="#000000" points="293.5073,-443.0816 283.7647,-438.9183 288.7846,-448.2485 293.5073,-443.0816"/>
<text text-anchor="middle" x="406" y="-492.8528" font-family="Times,serif" font-size="20.00" fill="#000000">nosniff</text>
</g>
<!-- SG_0_Node_5 -->
<g id="node9" class="node">
<title>SG_0_Node_5</title>
<polygon fill="none" stroke="#000000" points="554.5,-438.8528 489.5,-438.8528 489.5,-402.8528 554.5,-402.8528 554.5,-438.8528"/>
<text text-anchor="middle" x="522" y="-415.8528" font-family="Times,serif" font-size="20.00" fill="#000000">body</text>
</g>
<!-- SG_0_Node_3&#45;&gt;SG_0_Node_5 -->
<g id="edge8" class="edge">
<title>SG_0_Node_3&#45;&gt;SG_0_Node_5</title>
<path fill="none" stroke="#000000" d="M445.8653,-560.0317C460.8837,-532.5772 489.5849,-480.1095 507.1369,-448.0235"/>
<polygon fill="#000000" stroke="#000000" points="510.2563,-449.614 511.9849,-439.1611 504.115,-446.2545 510.2563,-449.614"/>
<text text-anchor="middle" x="523" y="-503.8528" font-family="Times,serif" font-size="20.00" fill="#000000">[NA]</text>
<text text-anchor="middle" x="523" y="-481.8528" font-family="Times,serif" font-size="20.00" fill="#000000">empty</text>
</g>
<!-- SG_0_Node_10 -->
<g id="node10" class="node">
<title>SG_0_Node_10</title>
<ellipse fill="none" stroke="#000000" cx="74" cy="-197.6396" rx="34.7971" ry="21.4286"/>
<text text-anchor="middle" x="74" y="-192.6396" font-family="Times,serif" font-size="20.00" fill="#000000">0.0</text>
</g>
<!-- SG_0_Node_4&#45;&gt;SG_0_Node_10 -->
<g id="edge11" class="edge">
<title>SG_0_Node_4&#45;&gt;SG_0_Node_10</title>
<path fill="none" stroke="#000000" d="M190.2519,-402.8163C154.9001,-392.7096 117.7167,-379.432 106,-365.8528 73.0354,-327.6481 69.7171,-266.1523 71.2234,-229.0491"/>
<polygon fill="#000000" stroke="#000000" points="74.7314,-228.9977 71.7866,-218.8204 67.742,-228.6128 74.7314,-228.9977"/>
<text text-anchor="middle" x="183" y="-349.8528" font-family="Times,serif" font-size="20.00" fill="#000000">[NA]</text>
<text text-anchor="middle" x="183" y="-327.8528" font-family="Times,serif" font-size="20.00" fill="#000000">application/pdf</text>
<text text-anchor="middle" x="183" y="-305.8528" font-family="Times,serif" font-size="20.00" fill="#000000">empty</text>
<text text-anchor="middle" x="183" y="-283.8528" font-family="Times,serif" font-size="20.00" fill="#000000">text/css</text>
<text text-anchor="middle" x="183" y="-261.8528" font-family="Times,serif" font-size="20.00" fill="#000000">text/html</text>
</g>
<!-- SG_0_Node_6 -->
<g id="node11" class="node">
<title>SG_0_Node_6</title>
<polygon fill="none" stroke="#000000" points="296.5,-215.6396 231.5,-215.6396 231.5,-179.6396 296.5,-179.6396 296.5,-215.6396"/>
<text text-anchor="middle" x="264" y="-192.6396" font-family="Times,serif" font-size="20.00" fill="#000000">body</text>
</g>
<!-- SG_0_Node_4&#45;&gt;SG_0_Node_6 -->
<g id="edge12" class="edge">
<title>SG_0_Node_4&#45;&gt;SG_0_Node_6</title>
<path fill="none" stroke="#000000" d="M264,-402.5863C264,-363.7399 264,-272.6828 264,-226.133"/>
<polygon fill="#000000" stroke="#000000" points="267.5001,-225.8454 264,-215.8454 260.5001,-225.8455 267.5001,-225.8454"/>
<text text-anchor="middle" x="375" y="-305.8528" font-family="Times,serif" font-size="20.00" fill="#000000">application/javascript</text>
</g>
<!-- SG_0_Node_11 -->
<g id="node12" class="node">
<title>SG_0_Node_11</title>
<ellipse fill="none" stroke="#000000" cx="522" cy="-197.6396" rx="34.7971" ry="21.4286"/>
<text text-anchor="middle" x="522" y="-192.6396" font-family="Times,serif" font-size="20.00" fill="#000000">0.0</text>
</g>
<!-- SG_0_Node_5&#45;&gt;SG_0_Node_11 -->
<g id="edge9" class="edge">
<title>SG_0_Node_5&#45;&gt;SG_0_Node_11</title>
<path fill="none" stroke="#000000" d="M522,-402.5863C522,-364.544 522,-276.43 522,-229.0799"/>
<polygon fill="#000000" stroke="#000000" points="525.5001,-229.0754 522,-219.0755 518.5001,-229.0755 525.5001,-229.0754"/>
<text text-anchor="middle" x="622.5" y="-316.8528" font-family="Times,serif" font-size="20.00" fill="#000000">ecocnt_js=var a=5;</text>
<text text-anchor="middle" x="622.5" y="-294.8528" font-family="Times,serif" font-size="20.00" fill="#000000">empty</text>
</g>
<!-- SG_0_Node_12 -->
<g id="node13" class="node">
<title>SG_0_Node_12</title>
<ellipse fill="none" stroke="#000000" cx="759" cy="-197.6396" rx="34.7971" ry="21.4286"/>
<text text-anchor="middle" x="759" y="-192.6396" font-family="Times,serif" font-size="20.00" fill="#000000">1.0</text>
</g>
<!-- SG_0_Node_5&#45;&gt;SG_0_Node_12 -->
<g id="edge10" class="edge">
<title>SG_0_Node_5&#45;&gt;SG_0_Node_12</title>
<path fill="none" stroke="#000000" d="M554.7875,-416.3351C606.5546,-408.5259 703.7451,-390.8988 727,-365.8528 761.4263,-328.775 764.221,-266.6464 762.2272,-229.1655"/>
<polygon fill="#000000" stroke="#000000" points="765.695,-228.5729 761.5226,-218.8343 758.7112,-229.0493 765.695,-228.5729"/>
<text text-anchor="middle" x="808" y="-316.8528" font-family="Times,serif" font-size="20.00" fill="#000000">[NA]</text>
<text text-anchor="middle" x="808" y="-294.8528" font-family="Times,serif" font-size="20.00" fill="#000000">11 levels</text>
</g>
<!-- SG_0_Node_13 -->
<g id="node14" class="node">
<title>SG_0_Node_13</title>
<ellipse fill="none" stroke="#000000" cx="157" cy="-37.2132" rx="34.7971" ry="21.4286"/>
<text text-anchor="middle" x="157" y="-32.2132" font-family="Times,serif" font-size="20.00" fill="#000000">0.0</text>
</g>
<!-- SG_0_Node_6&#45;&gt;SG_0_Node_13 -->
<g id="edge13" class="edge">
<title>SG_0_Node_6&#45;&gt;SG_0_Node_13</title>
<path fill="none" stroke="#000000" d="M231.1234,-185.5994C210.4307,-176.2522 185.0625,-161.1826 171,-139.4264 157.5255,-118.5799 154.537,-90.3492 154.6301,-68.8386"/>
<polygon fill="#000000" stroke="#000000" points="158.1358,-68.6697 154.9055,-58.5793 151.1384,-68.4818 158.1358,-68.6697"/>
<text text-anchor="middle" x="271.5" y="-123.4264" font-family="Times,serif" font-size="20.00" fill="#000000">ecocnt_js=var a=5;</text>
<text text-anchor="middle" x="271.5" y="-101.4264" font-family="Times,serif" font-size="20.00" fill="#000000">empty</text>
</g>
<!-- SG_0_Node_14 -->
<g id="node15" class="node">
<title>SG_0_Node_14</title>
<ellipse fill="none" stroke="#000000" cx="394" cy="-37.2132" rx="34.7971" ry="21.4286"/>
<text text-anchor="middle" x="394" y="-32.2132" font-family="Times,serif" font-size="20.00" fill="#000000">1.0</text>
</g>
<!-- SG_0_Node_6&#45;&gt;SG_0_Node_14 -->
<g id="edge14" class="edge">
<title>SG_0_Node_6&#45;&gt;SG_0_Node_14</title>
<path fill="none" stroke="#000000" d="M296.5913,-188.3156C321.0444,-179.6235 353.3871,-164.2067 372,-139.4264 387.2705,-119.096 392.4165,-90.4111 393.9458,-68.6016"/>
<polygon fill="#000000" stroke="#000000" points="397.4464,-68.6719 394.4345,-58.5142 390.4546,-68.3331 397.4464,-68.6719"/>
<text text-anchor="middle" x="436" y="-123.4264" font-family="Times,serif" font-size="20.00" fill="#000000">[NA]</text>
<text text-anchor="middle" x="436" y="-101.4264" font-family="Times,serif" font-size="20.00" fill="#000000">11 levels</text>
</g>
<!-- SG_1_Node_0 -->
<g id="node16" class="node">
<title>SG_1_Node_0</title>
<polygon fill="none" stroke="#000000" points="1719,-1294.132 1577,-1294.132 1577,-1258.132 1719,-1258.132 1719,-1294.132"/>
<text text-anchor="middle" x="1648" y="-1271.132" font-family="Times,serif" font-size="20.00" fill="#000000">Status&#45;Code</text>
</g>
<!-- SG_1_Node_1 -->
<g id="node17" class="node">
<title>SG_1_Node_1</title>
<polygon fill="none" stroke="#000000" points="1700.5,-1004.9188 1383.5,-1004.9188 1383.5,-968.9188 1700.5,-968.9188 1700.5,-1004.9188"/>
<text text-anchor="middle" x="1542" y="-981.9188" font-family="Times,serif" font-size="20.00" fill="#000000">Cross&#45;Origin&#45;Resource&#45;Policy</text>
</g>
<!-- SG_1_Node_0&#45;&gt;SG_1_Node_1 -->
<g id="edge15" class="edge">
<title>SG_1_Node_0&#45;&gt;SG_1_Node_1</title>
<path fill="none" stroke="#000000" d="M1640.5004,-1257.8635C1636.1672,-1247.1906 1630.6672,-1233.4406 1626,-1221.132 1597.8544,-1146.905 1566.832,-1058.5551 1551.5664,-1014.6073"/>
<polygon fill="#000000" stroke="#000000" points="1554.7916,-1013.2251 1548.2083,-1004.9239 1548.178,-1015.5187 1554.7916,-1013.2251"/>
<text text-anchor="middle" x="1645.5" y="-1205.132" font-family="Times,serif" font-size="20.00" fill="#000000">200</text>
<text text-anchor="middle" x="1645.5" y="-1183.132" font-family="Times,serif" font-size="20.00" fill="#000000">201</text>
<text text-anchor="middle" x="1645.5" y="-1161.132" font-family="Times,serif" font-size="20.00" fill="#000000">202</text>
<text text-anchor="middle" x="1645.5" y="-1139.132" font-family="Times,serif" font-size="20.00" fill="#000000">203</text>
<text text-anchor="middle" x="1645.5" y="-1117.132" font-family="Times,serif" font-size="20.00" fill="#000000">206</text>
<text text-anchor="middle" x="1645.5" y="-1095.132" font-family="Times,serif" font-size="20.00" fill="#000000">207</text>
<text text-anchor="middle" x="1645.5" y="-1073.132" font-family="Times,serif" font-size="20.00" fill="#000000">208</text>
<text text-anchor="middle" x="1645.5" y="-1051.132" font-family="Times,serif" font-size="20.00" fill="#000000">226</text>
</g>
<!-- SG_1_Node_7 -->
<g id="node18" class="node">
<title>SG_1_Node_7</title>
<ellipse fill="none" stroke="#000000" cx="1753" cy="-986.9188" rx="34.7971" ry="21.4286"/>
<text text-anchor="middle" x="1753" y="-981.9188" font-family="Times,serif" font-size="20.00" fill="#000000">1.0</text>
</g>
<!-- SG_1_Node_0&#45;&gt;SG_1_Node_7 -->
<g id="edge16" class="edge">
<title>SG_1_Node_0&#45;&gt;SG_1_Node_7</title>
<path fill="none" stroke="#000000" d="M1654.5682,-1258.0405C1672.0965,-1209.7604 1720.1262,-1077.4669 1741.9491,-1017.3574"/>
<polygon fill="#000000" stroke="#000000" points="1745.3397,-1018.2743 1745.4625,-1007.6802 1738.7599,-1015.8855 1745.3397,-1018.2743"/>
<text text-anchor="middle" x="1777" y="-1139.132" font-family="Times,serif" font-size="20.00" fill="#000000">[NA]</text>
<text text-anchor="middle" x="1777" y="-1117.132" font-family="Times,serif" font-size="20.00" fill="#000000">54 levels</text>
</g>
<!-- SG_1_Node_2 -->
<g id="node19" class="node">
<title>SG_1_Node_2</title>
<polygon fill="none" stroke="#000000" points="1554.5,-844.4924 1399.5,-844.4924 1399.5,-808.4924 1554.5,-808.4924 1554.5,-844.4924"/>
<text text-anchor="middle" x="1477" y="-821.4924" font-family="Times,serif" font-size="20.00" fill="#000000">Content&#45;Type</text>
</g>
<!-- SG_1_Node_1&#45;&gt;SG_1_Node_2 -->
<g id="edge17" class="edge">
<title>SG_1_Node_1&#45;&gt;SG_1_Node_2</title>
<path fill="none" stroke="#000000" d="M1532.2686,-968.8368C1526.3383,-957.4792 1518.8096,-942.431 1513,-928.7056 1502.5858,-904.1018 1492.6478,-875.3421 1485.8624,-854.6081"/>
<polygon fill="#000000" stroke="#000000" points="1489.1126,-853.2835 1482.706,-844.8451 1482.452,-855.4369 1489.1126,-853.2835"/>
<text text-anchor="middle" x="1545" y="-912.7056" font-family="Times,serif" font-size="20.00" fill="#000000">[NA]</text>
<text text-anchor="middle" x="1545" y="-890.7056" font-family="Times,serif" font-size="20.00" fill="#000000">empty</text>
</g>
<!-- SG_1_Node_8 -->
<g id="node20" class="node">
<title>SG_1_Node_8</title>
<ellipse fill="none" stroke="#000000" cx="1607" cy="-826.4924" rx="34.7971" ry="21.4286"/>
<text text-anchor="middle" x="1607" y="-821.4924" font-family="Times,serif" font-size="20.00" fill="#000000">1.0</text>
</g>
<!-- SG_1_Node_1&#45;&gt;SG_1_Node_8 -->
<g id="edge18" class="edge">
<title>SG_1_Node_1&#45;&gt;SG_1_Node_8</title>
<path fill="none" stroke="#000000" d="M1554.6141,-968.697C1561.912,-957.5367 1570.8413,-942.7444 1577,-928.7056 1587.1057,-905.6695 1594.9418,-878.2572 1600.0671,-857.6223"/>
<polygon fill="#000000" stroke="#000000" points="1603.4945,-858.339 1602.4307,-847.7978 1596.6887,-856.7017 1603.4945,-858.339"/>
<text text-anchor="middle" x="1653" y="-901.7056" font-family="Times,serif" font-size="20.00" fill="#000000">same&#45;origin</text>
</g>
<!-- SG_1_Node_3 -->
<g id="node21" class="node">
<title>SG_1_Node_3</title>
<polygon fill="none" stroke="#000000" points="1514,-596.066 1252,-596.066 1252,-560.066 1514,-560.066 1514,-596.066"/>
<text text-anchor="middle" x="1383" y="-573.066" font-family="Times,serif" font-size="20.00" fill="#000000">X&#45;Content&#45;Type&#45;Options</text>
</g>
<!-- SG_1_Node_2&#45;&gt;SG_1_Node_3 -->
<g id="edge19" class="edge">
<title>SG_1_Node_2&#45;&gt;SG_1_Node_3</title>
<path fill="none" stroke="#000000" d="M1439.2494,-808.425C1423.4236,-798.8073 1406.5183,-785.3917 1397,-768.2792 1368.4581,-716.9652 1372.74,-645.4729 1378.0673,-606.3782"/>
<polygon fill="#000000" stroke="#000000" points="1381.5638,-606.66 1379.5712,-596.2543 1374.6398,-605.6314 1381.5638,-606.66"/>
<text text-anchor="middle" x="1508" y="-752.2792" font-family="Times,serif" font-size="20.00" fill="#000000">[NA]</text>
<text text-anchor="middle" x="1508" y="-730.2792" font-family="Times,serif" font-size="20.00" fill="#000000">application/javascript</text>
<text text-anchor="middle" x="1508" y="-708.2792" font-family="Times,serif" font-size="20.00" fill="#000000">application/pdf</text>
<text text-anchor="middle" x="1508" y="-686.2792" font-family="Times,serif" font-size="20.00" fill="#000000">empty</text>
<text text-anchor="middle" x="1508" y="-664.2792" font-family="Times,serif" font-size="20.00" fill="#000000">text/css</text>
<text text-anchor="middle" x="1508" y="-642.2792" font-family="Times,serif" font-size="20.00" fill="#000000">text/html</text>
</g>
<!-- SG_1_Node_9 -->
<g id="node22" class="node">
<title>SG_1_Node_9</title>
<ellipse fill="none" stroke="#000000" cx="1641" cy="-578.066" rx="34.7971" ry="21.4286"/>
<text text-anchor="middle" x="1641" y="-573.066" font-family="Times,serif" font-size="20.00" fill="#000000">1.0</text>
</g>
<!-- SG_1_Node_2&#45;&gt;SG_1_Node_9 -->
<g id="edge20" class="edge">
<title>SG_1_Node_2&#45;&gt;SG_1_Node_9</title>
<path fill="none" stroke="#000000" d="M1537.5815,-808.4864C1571.2412,-797.2201 1608.4198,-782.2418 1619,-768.2792 1654.0919,-721.9687 1651.5209,-650.227 1646.3578,-609.3685"/>
<polygon fill="#000000" stroke="#000000" points="1649.8206,-608.8587 1644.9737,-599.4376 1642.8877,-609.825 1649.8206,-608.8587"/>
<text text-anchor="middle" x="1703.5" y="-719.2792" font-family="Times,serif" font-size="20.00" fill="#000000">audio/wav</text>
<text text-anchor="middle" x="1703.5" y="-697.2792" font-family="Times,serif" font-size="20.00" fill="#000000">image/png</text>
<text text-anchor="middle" x="1703.5" y="-675.2792" font-family="Times,serif" font-size="20.00" fill="#000000">video/mp4</text>
</g>
<!-- SG_1_Node_4 -->
<g id="node23" class="node">
<title>SG_1_Node_4</title>
<polygon fill="none" stroke="#000000" points="1318.5,-438.8528 1253.5,-438.8528 1253.5,-402.8528 1318.5,-402.8528 1318.5,-438.8528"/>
<text text-anchor="middle" x="1286" y="-415.8528" font-family="Times,serif" font-size="20.00" fill="#000000">body</text>
</g>
<!-- SG_1_Node_3&#45;&gt;SG_1_Node_4 -->
<g id="edge21" class="edge">
<title>SG_1_Node_3&#45;&gt;SG_1_Node_4</title>
<path fill="none" stroke="#000000" d="M1371.8729,-560.0317C1354.9335,-532.5772 1322.5612,-480.1095 1302.7642,-448.0235"/>
<polygon fill="#000000" stroke="#000000" points="1305.5258,-445.8337 1297.2961,-439.1611 1299.5684,-449.5094 1305.5258,-445.8337"/>
<text text-anchor="middle" x="1378" y="-503.8528" font-family="Times,serif" font-size="20.00" fill="#000000">[NA]</text>
<text text-anchor="middle" x="1378" y="-481.8528" font-family="Times,serif" font-size="20.00" fill="#000000">empty</text>
</g>
<!-- SG_1_Node_5 -->
<g id="node24" class="node">
<title>SG_1_Node_5</title>
<polygon fill="none" stroke="#000000" points="1600.5,-438.8528 1445.5,-438.8528 1445.5,-402.8528 1600.5,-402.8528 1600.5,-438.8528"/>
<text text-anchor="middle" x="1523" y="-415.8528" font-family="Times,serif" font-size="20.00" fill="#000000">Content&#45;Type</text>
</g>
<!-- SG_1_Node_3&#45;&gt;SG_1_Node_5 -->
<g id="edge22" class="edge">
<title>SG_1_Node_3&#45;&gt;SG_1_Node_5</title>
<path fill="none" stroke="#000000" d="M1399.0598,-560.0317C1423.8231,-532.2237 1471.4381,-478.7543 1499.8988,-446.7944"/>
<polygon fill="#000000" stroke="#000000" points="1502.6597,-448.9568 1506.6963,-439.1611 1497.432,-444.3015 1502.6597,-448.9568"/>
<text text-anchor="middle" x="1508" y="-492.8528" font-family="Times,serif" font-size="20.00" fill="#000000">nosniff</text>
</g>
<!-- SG_1_Node_10 -->
<g id="node25" class="node">
<title>SG_1_Node_10</title>
<ellipse fill="none" stroke="#000000" cx="1175" cy="-197.6396" rx="34.7971" ry="21.4286"/>
<text text-anchor="middle" x="1175" y="-192.6396" font-family="Times,serif" font-size="20.00" fill="#000000">0.0</text>
</g>
<!-- SG_1_Node_4&#45;&gt;SG_1_Node_10 -->
<g id="edge27" class="edge">
<title>SG_1_Node_4&#45;&gt;SG_1_Node_10</title>
<path fill="none" stroke="#000000" d="M1253.1969,-410.977C1231.4664,-402.6176 1204.4018,-388.3349 1190,-365.8528 1163.3706,-324.2828 1165.282,-264.6259 1169.71,-228.6583"/>
<polygon fill="#000000" stroke="#000000" points="1173.179,-229.1224 1171.0698,-218.7397 1166.2439,-228.1716 1173.179,-229.1224"/>
<text text-anchor="middle" x="1236" y="-316.8528" font-family="Times,serif" font-size="20.00" fill="#000000">[NA]</text>
<text text-anchor="middle" x="1236" y="-294.8528" font-family="Times,serif" font-size="20.00" fill="#000000">11 levels</text>
</g>
<!-- SG_1_Node_11 -->
<g id="node26" class="node">
<title>SG_1_Node_11</title>
<ellipse fill="none" stroke="#000000" cx="1286" cy="-197.6396" rx="34.7971" ry="21.4286"/>
<text text-anchor="middle" x="1286" y="-192.6396" font-family="Times,serif" font-size="20.00" fill="#000000">1.0</text>
</g>
<!-- SG_1_Node_4&#45;&gt;SG_1_Node_11 -->
<g id="edge28" class="edge">
<title>SG_1_Node_4&#45;&gt;SG_1_Node_11</title>
<path fill="none" stroke="#000000" d="M1286,-402.5863C1286,-364.544 1286,-276.43 1286,-229.0799"/>
<polygon fill="#000000" stroke="#000000" points="1289.5001,-229.0754 1286,-219.0755 1282.5001,-229.0755 1289.5001,-229.0754"/>
<text text-anchor="middle" x="1386.5" y="-316.8528" font-family="Times,serif" font-size="20.00" fill="#000000">ecocnt_js=var a=5;</text>
<text text-anchor="middle" x="1386.5" y="-294.8528" font-family="Times,serif" font-size="20.00" fill="#000000">empty</text>
</g>
<!-- SG_1_Node_6 -->
<g id="node27" class="node">
<title>SG_1_Node_6</title>
<polygon fill="none" stroke="#000000" points="1555.5,-215.6396 1490.5,-215.6396 1490.5,-179.6396 1555.5,-179.6396 1555.5,-215.6396"/>
<text text-anchor="middle" x="1523" y="-192.6396" font-family="Times,serif" font-size="20.00" fill="#000000">body</text>
</g>
<!-- SG_1_Node_5&#45;&gt;SG_1_Node_6 -->
<g id="edge23" class="edge">
<title>SG_1_Node_5&#45;&gt;SG_1_Node_6</title>
<path fill="none" stroke="#000000" d="M1523,-402.5863C1523,-363.7399 1523,-272.6828 1523,-226.133"/>
<polygon fill="#000000" stroke="#000000" points="1526.5001,-225.8454 1523,-215.8454 1519.5001,-225.8455 1526.5001,-225.8454"/>
<text text-anchor="middle" x="1634" y="-305.8528" font-family="Times,serif" font-size="20.00" fill="#000000">application/javascript</text>
</g>
<!-- SG_1_Node_12 -->
<g id="node28" class="node">
<title>SG_1_Node_12</title>
<ellipse fill="none" stroke="#000000" cx="1781" cy="-197.6396" rx="34.7971" ry="21.4286"/>
<text text-anchor="middle" x="1781" y="-192.6396" font-family="Times,serif" font-size="20.00" fill="#000000">1.0</text>
</g>
<!-- SG_1_Node_5&#45;&gt;SG_1_Node_12 -->
<g id="edge24" class="edge">
<title>SG_1_Node_5&#45;&gt;SG_1_Node_12</title>
<path fill="none" stroke="#000000" d="M1600.7797,-410.9954C1657.797,-402.1546 1728.6563,-387.2557 1749,-365.8528 1783.8577,-329.1802 1786.5102,-266.918 1784.3726,-229.302"/>
<polygon fill="#000000" stroke="#000000" points="1787.8351,-228.6541 1783.6259,-218.9313 1780.8531,-229.1569 1787.8351,-228.6541"/>
<text text-anchor="middle" x="1861" y="-349.8528" font-family="Times,serif" font-size="20.00" fill="#000000">[NA]</text>
<text text-anchor="middle" x="1861" y="-327.8528" font-family="Times,serif" font-size="20.00" fill="#000000">application/pdf</text>
<text text-anchor="middle" x="1861" y="-305.8528" font-family="Times,serif" font-size="20.00" fill="#000000">empty</text>
<text text-anchor="middle" x="1861" y="-283.8528" font-family="Times,serif" font-size="20.00" fill="#000000">text/css</text>
<text text-anchor="middle" x="1861" y="-261.8528" font-family="Times,serif" font-size="20.00" fill="#000000">text/html</text>
</g>
<!-- SG_1_Node_13 -->
<g id="node29" class="node">
<title>SG_1_Node_13</title>
<ellipse fill="none" stroke="#000000" cx="1459" cy="-37.2132" rx="34.7971" ry="21.4286"/>
<text text-anchor="middle" x="1459" y="-32.2132" font-family="Times,serif" font-size="20.00" fill="#000000">0.0</text>
</g>
<!-- SG_1_Node_6&#45;&gt;SG_1_Node_13 -->
<g id="edge25" class="edge">
<title>SG_1_Node_6&#45;&gt;SG_1_Node_13</title>
<path fill="none" stroke="#000000" d="M1502.4901,-179.4398C1491.9155,-168.8477 1479.8344,-154.6127 1473,-139.4264 1462.9849,-117.1724 1459.6647,-89.6533 1458.7499,-68.7773"/>
<polygon fill="#000000" stroke="#000000" points="1462.2417,-68.4291 1458.4681,-58.5292 1455.2444,-68.6216 1462.2417,-68.4291"/>
<text text-anchor="middle" x="1519" y="-123.4264" font-family="Times,serif" font-size="20.00" fill="#000000">[NA]</text>
<text text-anchor="middle" x="1519" y="-101.4264" font-family="Times,serif" font-size="20.00" fill="#000000">11 levels</text>
</g>
<!-- SG_1_Node_14 -->
<g id="node30" class="node">
<title>SG_1_Node_14</title>
<ellipse fill="none" stroke="#000000" cx="1587" cy="-37.2132" rx="34.7971" ry="21.4286"/>
<text text-anchor="middle" x="1587" y="-32.2132" font-family="Times,serif" font-size="20.00" fill="#000000">1.0</text>
</g>
<!-- SG_1_Node_6&#45;&gt;SG_1_Node_14 -->
<g id="edge26" class="edge">
<title>SG_1_Node_6&#45;&gt;SG_1_Node_14</title>
<path fill="none" stroke="#000000" d="M1539.138,-179.4643C1548.0173,-168.5548 1558.5173,-154.0015 1565,-139.4264 1574.988,-116.9703 1580.5648,-89.6756 1583.6027,-68.9424"/>
<polygon fill="#000000" stroke="#000000" points="1587.1081,-69.1355 1584.9697,-58.7587 1580.1703,-68.2041 1587.1081,-69.1355"/>
<text text-anchor="middle" x="1678.5" y="-123.4264" font-family="Times,serif" font-size="20.00" fill="#000000">ecocnt_js=var a=5;</text>
<text text-anchor="middle" x="1678.5" y="-101.4264" font-family="Times,serif" font-size="20.00" fill="#000000">empty</text>
</g>
</g>
</svg>
