<?xml version="1.0" encoding="UTF-8" standalone="no"?>
<!DOCTYPE svg PUBLIC "-//W3C//DTD SVG 1.1//EN"
 "http://www.w3.org/Graphics/SVG/1.1/DTD/svg11.dtd">
<!-- Generated by graphviz version 2.40.1 (20161225.0304)
 -->
<!-- Title: G Pages: 1 -->
<svg width="10636pt" height="493pt"
 viewBox="0.00 0.00 10636.00 492.85" xmlns="http://www.w3.org/2000/svg" xmlns:xlink="http://www.w3.org/1999/xlink">
<g id="graph0" class="graph" transform="scale(1 1) rotate(0) translate(4 488.8528)">
<title>G</title>
<polygon fill="#ffffff" stroke="transparent" points="-4,4 -4,-488.8528 10632,-488.8528 10632,4 -4,4"/>
<g id="clust1" class="cluster">
<title>cluster_0</title>
<polygon fill="none" stroke="#000000" points="8,-8 8,-476.8528 472,-476.8528 472,-8 8,-8"/>
<text text-anchor="middle" x="240" y="-440.8528" font-family="Times,serif" font-size="40.00" fill="#000000">Tree 0, Class uncalled</text>
</g>
<g id="clust5" class="cluster">
<title>cluster_1</title>
<polygon fill="none" stroke="#000000" points="480,-8 480,-476.8528 5466,-476.8528 5466,-8 480,-8"/>
<text text-anchor="middle" x="2973" y="-440.8528" font-family="Times,serif" font-size="40.00" fill="#000000">Tree 0, Class {&#39;size&#39;: {&#39;transferSize&#39;: None, &#39;decodedBodySize&#39;: None, &#39;encodedBodySize&#39;: None}, &#39;timing&#39;: {&#39;duration&#39;: &gt;0, &#39;fetchStart&#39;: &gt;0, &#39;redirectEnd&#39;: 0, &#39;redirectStart&#39;: 0, &#39;secureConnectionStart&#39;: 0}, &#39;initiatorType&#39;: &#39;css&#39;, &#39;nextHopProtocol&#39;: &#39;&#39;}</text>
</g>
<g id="clust9" class="cluster">
<title>cluster_2</title>
<polygon fill="none" stroke="#000000" points="5474,-8 5474,-476.8528 10620,-476.8528 10620,-8 5474,-8"/>
<text text-anchor="middle" x="8047" y="-440.8528" font-family="Times,serif" font-size="40.00" fill="#000000">Tree 0, Class {&#39;size&#39;: {&#39;transferSize&#39;: None, &#39;decodedBodySize&#39;: None, &#39;encodedBodySize&#39;: None}, &#39;timing&#39;: {&#39;duration&#39;: &gt;0, &#39;fetchStart&#39;: &gt;0, &#39;redirectEnd&#39;: 0, &#39;redirectStart&#39;: 0, &#39;secureConnectionStart&#39;: 0}, &#39;initiatorType&#39;: &#39;css&#39;, &#39;nextHopProtocol&#39;: &#39;http/1.1&#39;}</text>
</g>
<!-- SG_0_Node_0 -->
<g id="node1" class="node">
<title>SG_0_Node_0</title>
<polygon fill="none" stroke="#000000" points="339.5,-416.8528 22.5,-416.8528 22.5,-380.8528 339.5,-380.8528 339.5,-416.8528"/>
<text text-anchor="middle" x="181" y="-393.8528" font-family="Times,serif" font-size="20.00" fill="#000000">Cross&#45;Origin&#45;Resource&#45;Policy</text>
</g>
<!-- SG_0_Node_1 -->
<g id="node2" class="node">
<title>SG_0_Node_1</title>
<polygon fill="none" stroke="#000000" points="204,-259.6396 62,-259.6396 62,-223.6396 204,-223.6396 204,-259.6396"/>
<text text-anchor="middle" x="133" y="-236.6396" font-family="Times,serif" font-size="20.00" fill="#000000">Status&#45;Code</text>
</g>
<!-- SG_0_Node_0&#45;&gt;SG_0_Node_1 -->
<g id="edge1" class="edge">
<title>SG_0_Node_0&#45;&gt;SG_0_Node_1</title>
<path fill="none" stroke="#000000" d="M175.4938,-380.8185C167.1834,-353.5996 151.3666,-301.7952 141.5493,-269.641"/>
<polygon fill="#000000" stroke="#000000" points="144.8575,-268.49 138.5898,-259.9479 138.1626,-270.5341 144.8575,-268.49"/>
<text text-anchor="middle" x="196" y="-316.8528" font-family="Times,serif" font-size="20.00" fill="#000000">empty</text>
</g>
<!-- SG_0_Node_2 -->
<g id="node3" class="node">
<title>SG_0_Node_2</title>
<ellipse fill="none" stroke="#000000" cx="257" cy="-241.6396" rx="34.7971" ry="21.4286"/>
<text text-anchor="middle" x="257" y="-236.6396" font-family="Times,serif" font-size="20.00" fill="#000000">1.0</text>
</g>
<!-- SG_0_Node_0&#45;&gt;SG_0_Node_2 -->
<g id="edge2" class="edge">
<title>SG_0_Node_0&#45;&gt;SG_0_Node_2</title>
<path fill="none" stroke="#000000" d="M200.6775,-380.6195C210.4457,-370.6071 221.6897,-357.4773 229,-343.8528 240.9068,-321.6615 248.0856,-293.9805 252.1884,-273.024"/>
<polygon fill="#000000" stroke="#000000" points="255.6587,-273.503 254.0125,-263.0369 248.7726,-272.2453 255.6587,-273.503"/>
<text text-anchor="middle" x="306" y="-327.8528" font-family="Times,serif" font-size="20.00" fill="#000000">[NA]</text>
<text text-anchor="middle" x="306" y="-305.8528" font-family="Times,serif" font-size="20.00" fill="#000000">same&#45;origin</text>
</g>
<!-- SG_0_Node_3 -->
<g id="node4" class="node">
<title>SG_0_Node_3</title>
<ellipse fill="none" stroke="#000000" cx="92" cy="-37.2132" rx="34.7971" ry="21.4286"/>
<text text-anchor="middle" x="92" y="-32.2132" font-family="Times,serif" font-size="20.00" fill="#000000">0.0</text>
</g>
<!-- SG_0_Node_1&#45;&gt;SG_0_Node_3 -->
<g id="edge3" class="edge">
<title>SG_0_Node_1&#45;&gt;SG_0_Node_3</title>
<path fill="none" stroke="#000000" d="M122.7072,-223.6307C116.8011,-212.425 109.8205,-197.5117 106,-183.4264 95.536,-144.8486 92.6375,-98.6957 91.9628,-68.7077"/>
<polygon fill="#000000" stroke="#000000" points="95.4583,-68.3799 91.805,-58.4349 88.4591,-68.4875 95.4583,-68.3799"/>
<text text-anchor="middle" x="152" y="-145.4264" font-family="Times,serif" font-size="20.00" fill="#000000">[NA]</text>
<text text-anchor="middle" x="152" y="-123.4264" font-family="Times,serif" font-size="20.00" fill="#000000">58 levels</text>
</g>
<!-- SG_0_Node_4 -->
<g id="node5" class="node">
<title>SG_0_Node_4</title>
<ellipse fill="none" stroke="#000000" cx="220" cy="-37.2132" rx="34.7971" ry="21.4286"/>
<text text-anchor="middle" x="220" y="-32.2132" font-family="Times,serif" font-size="20.00" fill="#000000">1.0</text>
</g>
<!-- SG_0_Node_1&#45;&gt;SG_0_Node_4 -->
<g id="edge4" class="edge">
<title>SG_0_Node_1&#45;&gt;SG_0_Node_4</title>
<path fill="none" stroke="#000000" d="M160.9006,-223.6053C174.2972,-213.4445 189.2945,-199.5573 198,-183.4264 217.412,-147.4568 221.1872,-99.6682 221.2674,-68.678"/>
<polygon fill="#000000" stroke="#000000" points="224.7651,-68.4269 221.1612,-58.4639 217.7654,-68.4998 224.7651,-68.4269"/>
<text text-anchor="middle" x="239.5" y="-167.4264" font-family="Times,serif" font-size="20.00" fill="#000000">100</text>
<text text-anchor="middle" x="239.5" y="-145.4264" font-family="Times,serif" font-size="20.00" fill="#000000">102</text>
<text text-anchor="middle" x="239.5" y="-123.4264" font-family="Times,serif" font-size="20.00" fill="#000000">103</text>
<text text-anchor="middle" x="239.5" y="-101.4264" font-family="Times,serif" font-size="20.00" fill="#000000">407</text>
</g>
<!-- SG_1_Node_0 -->
<g id="node6" class="node">
<title>SG_1_Node_0</title>
<polygon fill="none" stroke="#000000" points="2982,-416.8528 2840,-416.8528 2840,-380.8528 2982,-380.8528 2982,-416.8528"/>
<text text-anchor="middle" x="2911" y="-393.8528" font-family="Times,serif" font-size="20.00" fill="#000000">Status&#45;Code</text>
</g>
<!-- SG_1_Node_2 -->
<g id="node7" class="node">
<title>SG_1_Node_2</title>
<ellipse fill="none" stroke="#000000" cx="2805" cy="-241.6396" rx="34.7971" ry="21.4286"/>
<text text-anchor="middle" x="2805" y="-236.6396" font-family="Times,serif" font-size="20.00" fill="#000000">0.0</text>
</g>
<!-- SG_1_Node_0&#45;&gt;SG_1_Node_2 -->
<g id="edge5" class="edge">
<title>SG_1_Node_0&#45;&gt;SG_1_Node_2</title>
<path fill="none" stroke="#000000" d="M2886.8978,-380.6602C2874.9683,-370.7554 2861.0163,-357.7103 2851,-343.8528 2835.0577,-321.7967 2822.8056,-293.3345 2814.9697,-272.0479"/>
<polygon fill="#000000" stroke="#000000" points="2818.2321,-270.7759 2811.5819,-262.5282 2811.6373,-273.1229 2818.2321,-270.7759"/>
<text text-anchor="middle" x="2897" y="-327.8528" font-family="Times,serif" font-size="20.00" fill="#000000">[NA]</text>
<text text-anchor="middle" x="2897" y="-305.8528" font-family="Times,serif" font-size="20.00" fill="#000000">23 levels</text>
</g>
<!-- SG_1_Node_1 -->
<g id="node8" class="node">
<title>SG_1_Node_1</title>
<polygon fill="none" stroke="#000000" points="3174.5,-259.6396 2857.5,-259.6396 2857.5,-223.6396 3174.5,-223.6396 3174.5,-259.6396"/>
<text text-anchor="middle" x="3016" y="-236.6396" font-family="Times,serif" font-size="20.00" fill="#000000">Cross&#45;Origin&#45;Resource&#45;Policy</text>
</g>
<!-- SG_1_Node_0&#45;&gt;SG_1_Node_1 -->
<g id="edge6" class="edge">
<title>SG_1_Node_0&#45;&gt;SG_1_Node_1</title>
<path fill="none" stroke="#000000" d="M2923.0448,-380.8185C2941.4599,-353.2462 2976.7246,-300.4455 2998.1283,-268.3983"/>
<polygon fill="#000000" stroke="#000000" points="3001.1287,-270.2077 3003.7722,-259.9479 2995.3076,-266.3198 3001.1287,-270.2077"/>
<text text-anchor="middle" x="3022" y="-316.8528" font-family="Times,serif" font-size="20.00" fill="#000000">39 levels</text>
</g>
<!-- SG_1_Node_3 -->
<g id="node9" class="node">
<title>SG_1_Node_3</title>
<ellipse fill="none" stroke="#000000" cx="2937" cy="-37.2132" rx="34.7971" ry="21.4286"/>
<text text-anchor="middle" x="2937" y="-32.2132" font-family="Times,serif" font-size="20.00" fill="#000000">0.0</text>
</g>
<!-- SG_1_Node_1&#45;&gt;SG_1_Node_3 -->
<g id="edge7" class="edge">
<title>SG_1_Node_1&#45;&gt;SG_1_Node_3</title>
<path fill="none" stroke="#000000" d="M2987.3994,-223.5446C2973.9941,-213.4557 2959.1994,-199.6507 2951,-183.4264 2932.6859,-147.188 2931.7377,-99.465 2933.638,-68.5628"/>
<polygon fill="#000000" stroke="#000000" points="2937.1439,-68.6149 2934.4051,-58.3802 2930.1637,-68.089 2937.1439,-68.6149"/>
<text text-anchor="middle" x="3012" y="-145.4264" font-family="Times,serif" font-size="20.00" fill="#000000">[NA]</text>
<text text-anchor="middle" x="3012" y="-123.4264" font-family="Times,serif" font-size="20.00" fill="#000000">same&#45;origin</text>
</g>
<!-- SG_1_Node_4 -->
<g id="node10" class="node">
<title>SG_1_Node_4</title>
<ellipse fill="none" stroke="#000000" cx="3095" cy="-37.2132" rx="34.7971" ry="21.4286"/>
<text text-anchor="middle" x="3095" y="-32.2132" font-family="Times,serif" font-size="20.00" fill="#000000">1.0</text>
</g>
<!-- SG_1_Node_1&#45;&gt;SG_1_Node_4 -->
<g id="edge8" class="edge">
<title>SG_1_Node_1&#45;&gt;SG_1_Node_4</title>
<path fill="none" stroke="#000000" d="M3039.8883,-223.4385C3051.782,-213.0463 3065.2435,-198.9994 3073,-183.4264 3091.1716,-146.9428 3095.2651,-99.4694 3095.7535,-68.6734"/>
<polygon fill="#000000" stroke="#000000" points="3099.254,-68.535 3095.7931,-58.5214 3092.254,-68.5076 3099.254,-68.535"/>
<text text-anchor="middle" x="3126" y="-134.4264" font-family="Times,serif" font-size="20.00" fill="#000000">empty</text>
</g>
<!-- SG_2_Node_0 -->
<g id="node11" class="node">
<title>SG_2_Node_0</title>
<polygon fill="none" stroke="#000000" points="8143.5,-416.8528 7826.5,-416.8528 7826.5,-380.8528 8143.5,-380.8528 8143.5,-416.8528"/>
<text text-anchor="middle" x="7985" y="-393.8528" font-family="Times,serif" font-size="20.00" fill="#000000">Cross&#45;Origin&#45;Resource&#45;Policy</text>
</g>
<!-- SG_2_Node_2 -->
<g id="node12" class="node">
<title>SG_2_Node_2</title>
<ellipse fill="none" stroke="#000000" cx="7906" cy="-241.6396" rx="34.7971" ry="21.4286"/>
<text text-anchor="middle" x="7906" y="-236.6396" font-family="Times,serif" font-size="20.00" fill="#000000">0.0</text>
</g>
<!-- SG_2_Node_0&#45;&gt;SG_2_Node_2 -->
<g id="edge9" class="edge">
<title>SG_2_Node_0&#45;&gt;SG_2_Node_2</title>
<path fill="none" stroke="#000000" d="M7955.0148,-380.7377C7942.133,-371.3646 7928.1849,-358.7525 7920,-343.8528 7908.1227,-322.2314 7904.9732,-294.289 7904.5982,-273.0855"/>
<polygon fill="#000000" stroke="#000000" points="7908.0983,-272.9851 7904.617,-262.9786 7901.0983,-272.972 7908.0983,-272.9851"/>
<text text-anchor="middle" x="7981" y="-327.8528" font-family="Times,serif" font-size="20.00" fill="#000000">[NA]</text>
<text text-anchor="middle" x="7981" y="-305.8528" font-family="Times,serif" font-size="20.00" fill="#000000">same&#45;origin</text>
</g>
<!-- SG_2_Node_1 -->
<g id="node13" class="node">
<title>SG_2_Node_1</title>
<polygon fill="none" stroke="#000000" points="8135,-259.6396 7993,-259.6396 7993,-223.6396 8135,-223.6396 8135,-259.6396"/>
<text text-anchor="middle" x="8064" y="-236.6396" font-family="Times,serif" font-size="20.00" fill="#000000">Status&#45;Code</text>
</g>
<!-- SG_2_Node_0&#45;&gt;SG_2_Node_1 -->
<g id="edge10" class="edge">
<title>SG_2_Node_0&#45;&gt;SG_2_Node_1</title>
<path fill="none" stroke="#000000" d="M8009.6664,-380.7441C8021.1694,-371.0435 8034.0452,-358.1536 8042,-343.8528 8054.7567,-320.9193 8060.1215,-291.2895 8062.3748,-269.8411"/>
<polygon fill="#000000" stroke="#000000" points="8065.8733,-270.0127 8063.2711,-259.7424 8058.9007,-269.3937 8065.8733,-270.0127"/>
<text text-anchor="middle" x="8089" y="-316.8528" font-family="Times,serif" font-size="20.00" fill="#000000">empty</text>
</g>
<!-- SG_2_Node_3 -->
<g id="node14" class="node">
<title>SG_2_Node_3</title>
<ellipse fill="none" stroke="#000000" cx="8000" cy="-37.2132" rx="34.7971" ry="21.4286"/>
<text text-anchor="middle" x="8000" y="-32.2132" font-family="Times,serif" font-size="20.00" fill="#000000">0.0</text>
</g>
<!-- SG_2_Node_1&#45;&gt;SG_2_Node_3 -->
<g id="edge11" class="edge">
<title>SG_2_Node_1&#45;&gt;SG_2_Node_3</title>
<path fill="none" stroke="#000000" d="M8043.2465,-223.5465C8032.5981,-212.9867 8020.5242,-198.7485 8014,-183.4264 7998.1823,-146.2786 7996.5753,-99.1516 7997.6514,-68.5992"/>
<polygon fill="#000000" stroke="#000000" points="8001.1514,-68.6806 7998.125,-58.5272 7994.1591,-68.3517 8001.1514,-68.6806"/>
<text text-anchor="middle" x="8060" y="-134.4264" font-family="Times,serif" font-size="20.00" fill="#000000">43 levels</text>
</g>
<!-- SG_2_Node_4 -->
<g id="node15" class="node">
<title>SG_2_Node_4</title>
<ellipse fill="none" stroke="#000000" cx="8128" cy="-37.2132" rx="34.7971" ry="21.4286"/>
<text text-anchor="middle" x="8128" y="-32.2132" font-family="Times,serif" font-size="20.00" fill="#000000">1.0</text>
</g>
<!-- SG_2_Node_1&#45;&gt;SG_2_Node_4 -->
<g id="edge12" class="edge">
<title>SG_2_Node_1&#45;&gt;SG_2_Node_4</title>
<path fill="none" stroke="#000000" d="M8080.4828,-223.6113C8089.4771,-212.7507 8099.9771,-198.1974 8106,-183.4264 8121.2593,-146.0037 8126.0706,-99.3105 8127.5135,-68.903"/>
<polygon fill="#000000" stroke="#000000" points="8131.0125,-68.9944 8127.895,-58.8686 8124.0175,-68.7284 8131.0125,-68.9944"/>
<text text-anchor="middle" x="8171" y="-145.4264" font-family="Times,serif" font-size="20.00" fill="#000000">[NA]</text>
<text text-anchor="middle" x="8171" y="-123.4264" font-family="Times,serif" font-size="20.00" fill="#000000">19 levels</text>
</g>
</g>
</svg>
