<?xml version="1.0" encoding="UTF-8" standalone="no"?>
<!DOCTYPE svg PUBLIC "-//W3C//DTD SVG 1.1//EN"
 "http://www.w3.org/Graphics/SVG/1.1/DTD/svg11.dtd">
<!-- Generated by graphviz version 2.40.1 (20161225.0304)
 -->
<!-- Title: G Pages: 1 -->
<svg width="1210pt" height="1091pt"
 viewBox="0.00 0.00 1210.00 1090.56" xmlns="http://www.w3.org/2000/svg" xmlns:xlink="http://www.w3.org/1999/xlink">
<g id="graph0" class="graph" transform="scale(1 1) rotate(0) translate(4 1086.5584)">
<title>G</title>
<polygon fill="#ffffff" stroke="transparent" points="-4,4 -4,-1086.5584 1206,-1086.5584 1206,4 -4,4"/>
<g id="clust1" class="cluster">
<title>cluster_0</title>
<polygon fill="none" stroke="#000000" points="8,-8 8,-1071.3452 429,-1071.3452 429,-8 8,-8"/>
<text text-anchor="middle" x="218.5" y="-1035.3452" font-family="Times,serif" font-size="40.00" fill="#000000">Tree 0, Class 0</text>
</g>
<g id="clust8" class="cluster">
<title>cluster_1</title>
<polygon fill="none" stroke="#000000" points="437,-8 437,-1071.3452 868,-1071.3452 868,-8 437,-8"/>
<text text-anchor="middle" x="652.5" y="-1035.3452" font-family="Times,serif" font-size="40.00" fill="#000000">Tree 0, Class 1</text>
</g>
<g id="clust15" class="cluster">
<title>cluster_2</title>
<polygon fill="none" stroke="#000000" points="876,-964.132 876,-1074.5584 1194,-1074.5584 1194,-964.132 876,-964.132"/>
<text text-anchor="middle" x="1035" y="-1038.5584" font-family="Times,serif" font-size="40.00" fill="#000000">Tree 0, Class 4</text>
</g>
<!-- SG_0_Node_0 -->
<g id="node1" class="node">
<title>SG_0_Node_0</title>
<polygon fill="none" stroke="#000000" points="253,-1011.3452 111,-1011.3452 111,-975.3452 253,-975.3452 253,-1011.3452"/>
<text text-anchor="middle" x="182" y="-988.3452" font-family="Times,serif" font-size="20.00" fill="#000000">Status&#45;Code</text>
</g>
<!-- SG_0_Node_1 -->
<g id="node2" class="node">
<title>SG_0_Node_1</title>
<polygon fill="none" stroke="#000000" points="208.5,-850.9188 53.5,-850.9188 53.5,-814.9188 208.5,-814.9188 208.5,-850.9188"/>
<text text-anchor="middle" x="131" y="-827.9188" font-family="Times,serif" font-size="20.00" fill="#000000">Content&#45;Type</text>
</g>
<!-- SG_0_Node_0&#45;&gt;SG_0_Node_1 -->
<g id="edge1" class="edge">
<title>SG_0_Node_0&#45;&gt;SG_0_Node_1</title>
<path fill="none" stroke="#000000" d="M176.2488,-975.2541C167.4104,-947.4519 150.4162,-893.9947 139.9563,-861.0919"/>
<polygon fill="#000000" stroke="#000000" points="143.1736,-859.6596 136.8084,-851.19 136.5026,-861.7804 143.1736,-859.6596"/>
<text text-anchor="middle" x="182.5" y="-908.132" font-family="Times,serif" font-size="20.00" fill="#000000">206</text>
</g>
<!-- SG_0_Node_7 -->
<g id="node3" class="node">
<title>SG_0_Node_7</title>
<ellipse fill="none" stroke="#000000" cx="261" cy="-832.9188" rx="34.7971" ry="21.4286"/>
<text text-anchor="middle" x="261" y="-827.9188" font-family="Times,serif" font-size="20.00" fill="#000000">1.0</text>
</g>
<!-- SG_0_Node_0&#45;&gt;SG_0_Node_7 -->
<g id="edge2" class="edge">
<title>SG_0_Node_0&#45;&gt;SG_0_Node_7</title>
<path fill="none" stroke="#000000" d="M190.9087,-975.2541C204.3876,-947.8824 230.1117,-895.6441 246.3666,-862.635"/>
<polygon fill="#000000" stroke="#000000" points="249.6047,-863.9818 250.8826,-853.4643 243.3249,-860.8893 249.6047,-863.9818"/>
<text text-anchor="middle" x="277" y="-919.132" font-family="Times,serif" font-size="20.00" fill="#000000">[NA]</text>
<text text-anchor="middle" x="277" y="-897.132" font-family="Times,serif" font-size="20.00" fill="#000000">61 levels</text>
</g>
<!-- SG_0_Node_3 -->
<g id="node4" class="node">
<title>SG_0_Node_3</title>
<polygon fill="none" stroke="#000000" points="135.5,-558.4924 30.5,-558.4924 30.5,-522.4924 135.5,-522.4924 135.5,-558.4924"/>
<text text-anchor="middle" x="83" y="-535.4924" font-family="Times,serif" font-size="20.00" fill="#000000">Location</text>
</g>
<!-- SG_0_Node_1&#45;&gt;SG_0_Node_3 -->
<g id="edge3" class="edge">
<title>SG_0_Node_1&#45;&gt;SG_0_Node_3</title>
<path fill="none" stroke="#000000" d="M118.8621,-814.8881C112.056,-803.7956 104.1264,-789.0074 100,-774.7056 79.2228,-702.6926 79.52,-613.3224 81.3383,-568.6625"/>
<polygon fill="#000000" stroke="#000000" points="84.8396,-568.7142 81.8081,-558.5623 77.8471,-568.3888 84.8396,-568.7142"/>
<text text-anchor="middle" x="132" y="-681.7056" font-family="Times,serif" font-size="20.00" fill="#000000">empty</text>
</g>
<!-- SG_0_Node_8 -->
<g id="node5" class="node">
<title>SG_0_Node_8</title>
<ellipse fill="none" stroke="#000000" cx="188" cy="-540.4924" rx="34.7971" ry="21.4286"/>
<text text-anchor="middle" x="188" y="-535.4924" font-family="Times,serif" font-size="20.00" fill="#000000">1.0</text>
</g>
<!-- SG_0_Node_1&#45;&gt;SG_0_Node_8 -->
<g id="edge4" class="edge">
<title>SG_0_Node_1&#45;&gt;SG_0_Node_8</title>
<path fill="none" stroke="#000000" d="M143.9427,-814.6944C151.1,-803.6527 159.4438,-788.9827 164,-774.7056 186.319,-704.7686 189.1341,-617.6834 188.8266,-571.9342"/>
<polygon fill="#000000" stroke="#000000" points="192.3243,-571.7143 188.7009,-561.7584 185.3248,-571.8009 192.3243,-571.7143"/>
<text text-anchor="middle" x="299" y="-758.7056" font-family="Times,serif" font-size="20.00" fill="#000000">[NA]</text>
<text text-anchor="middle" x="299" y="-736.7056" font-family="Times,serif" font-size="20.00" fill="#000000">application/javascript</text>
<text text-anchor="middle" x="299" y="-714.7056" font-family="Times,serif" font-size="20.00" fill="#000000">application/pdf</text>
<text text-anchor="middle" x="299" y="-692.7056" font-family="Times,serif" font-size="20.00" fill="#000000">audio/wav</text>
<text text-anchor="middle" x="299" y="-670.7056" font-family="Times,serif" font-size="20.00" fill="#000000">image/png</text>
<text text-anchor="middle" x="299" y="-648.7056" font-family="Times,serif" font-size="20.00" fill="#000000">text/css</text>
<text text-anchor="middle" x="299" y="-626.7056" font-family="Times,serif" font-size="20.00" fill="#000000">text/html</text>
<text text-anchor="middle" x="299" y="-604.7056" font-family="Times,serif" font-size="20.00" fill="#000000">video/mp4</text>
</g>
<!-- SG_0_Node_4 -->
<g id="node6" class="node">
<title>SG_0_Node_4</title>
<polygon fill="none" stroke="#000000" points="333.5,-376.066 16.5,-376.066 16.5,-340.066 333.5,-340.066 333.5,-376.066"/>
<text text-anchor="middle" x="175" y="-353.066" font-family="Times,serif" font-size="20.00" fill="#000000">Cross&#45;Origin&#45;Resource&#45;Policy</text>
</g>
<!-- SG_0_Node_3&#45;&gt;SG_0_Node_4 -->
<g id="edge5" class="edge">
<title>SG_0_Node_3&#45;&gt;SG_0_Node_4</title>
<path fill="none" stroke="#000000" d="M72.4489,-522.185C59.2331,-496.5913 40.6463,-449.5265 61,-416.2792 70.5452,-400.6873 85.7281,-389.1049 101.9395,-380.5651"/>
<polygon fill="#000000" stroke="#000000" points="103.5737,-383.6622 111.0224,-376.1277 100.501,-377.3726 103.5737,-383.6622"/>
<text text-anchor="middle" x="93" y="-444.2792" font-family="Times,serif" font-size="20.00" fill="#000000">empty</text>
</g>
<!-- SG_0_Node_9 -->
<g id="node7" class="node">
<title>SG_0_Node_9</title>
<ellipse fill="none" stroke="#000000" cx="386" cy="-358.066" rx="34.7971" ry="21.4286"/>
<text text-anchor="middle" x="386" y="-353.066" font-family="Times,serif" font-size="20.00" fill="#000000">1.0</text>
</g>
<!-- SG_0_Node_3&#45;&gt;SG_0_Node_9 -->
<g id="edge6" class="edge">
<title>SG_0_Node_3&#45;&gt;SG_0_Node_9</title>
<path fill="none" stroke="#000000" d="M97.155,-522.3617C105.6641,-511.1116 116.462,-496.1942 125,-482.2792 142.2568,-454.1546 132.6674,-436.1635 159,-416.2792 225.5678,-366.0124 264.0421,-406.1805 343,-379.2792 345.5707,-378.4034 348.1845,-377.4062 350.7888,-376.333"/>
<polygon fill="#000000" stroke="#000000" points="352.3722,-379.4592 360.0833,-372.1935 349.5243,-373.0647 352.3722,-379.4592"/>
<text text-anchor="middle" x="296" y="-466.2792" font-family="Times,serif" font-size="20.00" fill="#000000">[NA]</text>
<text text-anchor="middle" x="296" y="-444.2792" font-family="Times,serif" font-size="20.00" fill="#000000">/</text>
<text text-anchor="middle" x="296" y="-422.2792" font-family="Times,serif" font-size="20.00" fill="#000000">http://localhost:8000/echo/</text>
</g>
<!-- SG_0_Node_5 -->
<g id="node8" class="node">
<title>SG_0_Node_5</title>
<polygon fill="none" stroke="#000000" points="157.5,-215.6396 92.5,-215.6396 92.5,-179.6396 157.5,-179.6396 157.5,-215.6396"/>
<text text-anchor="middle" x="125" y="-192.6396" font-family="Times,serif" font-size="20.00" fill="#000000">body</text>
</g>
<!-- SG_0_Node_4&#45;&gt;SG_0_Node_5 -->
<g id="edge7" class="edge">
<title>SG_0_Node_4&#45;&gt;SG_0_Node_5</title>
<path fill="none" stroke="#000000" d="M161.0384,-339.9514C153.2847,-328.9474 144.184,-314.2786 139,-299.8528 130.386,-275.8821 127.022,-247.0012 125.7334,-226.0625"/>
<polygon fill="#000000" stroke="#000000" points="129.2209,-225.7202 125.2319,-215.905 122.2294,-226.0655 129.2209,-225.7202"/>
<text text-anchor="middle" x="171" y="-272.8528" font-family="Times,serif" font-size="20.00" fill="#000000">empty</text>
</g>
<!-- SG_0_Node_10 -->
<g id="node9" class="node">
<title>SG_0_Node_10</title>
<ellipse fill="none" stroke="#000000" cx="225" cy="-197.6396" rx="34.7971" ry="21.4286"/>
<text text-anchor="middle" x="225" y="-192.6396" font-family="Times,serif" font-size="20.00" fill="#000000">1.0</text>
</g>
<!-- SG_0_Node_4&#45;&gt;SG_0_Node_10 -->
<g id="edge8" class="edge">
<title>SG_0_Node_4&#45;&gt;SG_0_Node_10</title>
<path fill="none" stroke="#000000" d="M185.1012,-339.923C191.0168,-328.6684 198.2371,-313.7507 203,-299.8528 210.9679,-276.6031 216.6615,-249.3543 220.2577,-228.8404"/>
<polygon fill="#000000" stroke="#000000" points="223.742,-229.2255 221.948,-218.7837 216.8388,-228.0652 223.742,-229.2255"/>
<text text-anchor="middle" x="275" y="-283.8528" font-family="Times,serif" font-size="20.00" fill="#000000">[NA]</text>
<text text-anchor="middle" x="275" y="-261.8528" font-family="Times,serif" font-size="20.00" fill="#000000">same&#45;origin</text>
</g>
<!-- SG_0_Node_11 -->
<g id="node10" class="node">
<title>SG_0_Node_11</title>
<ellipse fill="none" stroke="#000000" cx="63" cy="-37.2132" rx="34.7971" ry="21.4286"/>
<text text-anchor="middle" x="63" y="-32.2132" font-family="Times,serif" font-size="20.00" fill="#000000">0.0</text>
</g>
<!-- SG_0_Node_5&#45;&gt;SG_0_Node_11 -->
<g id="edge9" class="edge">
<title>SG_0_Node_5&#45;&gt;SG_0_Node_11</title>
<path fill="none" stroke="#000000" d="M105.5603,-179.5466C95.3531,-168.8829 83.6218,-154.5446 77,-139.4264 67.2092,-117.0728 63.8745,-89.5601 62.8971,-68.712"/>
<polygon fill="#000000" stroke="#000000" points="66.3882,-68.3663 62.5792,-58.4798 59.3915,-68.5837 66.3882,-68.3663"/>
<text text-anchor="middle" x="123" y="-123.4264" font-family="Times,serif" font-size="20.00" fill="#000000">[NA]</text>
<text text-anchor="middle" x="123" y="-101.4264" font-family="Times,serif" font-size="20.00" fill="#000000">11 levels</text>
</g>
<!-- SG_0_Node_12 -->
<g id="node11" class="node">
<title>SG_0_Node_12</title>
<ellipse fill="none" stroke="#000000" cx="191" cy="-37.2132" rx="34.7971" ry="21.4286"/>
<text text-anchor="middle" x="191" y="-32.2132" font-family="Times,serif" font-size="20.00" fill="#000000">0.5</text>
</g>
<!-- SG_0_Node_5&#45;&gt;SG_0_Node_12 -->
<g id="edge10" class="edge">
<title>SG_0_Node_5&#45;&gt;SG_0_Node_12</title>
<path fill="none" stroke="#000000" d="M141.9343,-179.5897C151.2458,-168.7219 162.2458,-154.1686 169,-139.4264 179.3486,-116.839 184.9202,-89.1855 187.8647,-68.3402"/>
<polygon fill="#000000" stroke="#000000" points="191.3368,-68.7802 189.1425,-58.4151 184.3941,-67.8863 191.3368,-68.7802"/>
<text text-anchor="middle" x="267" y="-123.4264" font-family="Times,serif" font-size="20.00" fill="#000000">ecocnt_pdf=a=a</text>
<text text-anchor="middle" x="267" y="-101.4264" font-family="Times,serif" font-size="20.00" fill="#000000">empty</text>
</g>
<!-- SG_1_Node_0 -->
<g id="node12" class="node">
<title>SG_1_Node_0</title>
<polygon fill="none" stroke="#000000" points="633,-1011.3452 491,-1011.3452 491,-975.3452 633,-975.3452 633,-1011.3452"/>
<text text-anchor="middle" x="562" y="-988.3452" font-family="Times,serif" font-size="20.00" fill="#000000">Status&#45;Code</text>
</g>
<!-- SG_1_Node_7 -->
<g id="node13" class="node">
<title>SG_1_Node_7</title>
<ellipse fill="none" stroke="#000000" cx="521" cy="-832.9188" rx="34.7971" ry="21.4286"/>
<text text-anchor="middle" x="521" y="-827.9188" font-family="Times,serif" font-size="20.00" fill="#000000">0.0</text>
</g>
<!-- SG_1_Node_0&#45;&gt;SG_1_Node_7 -->
<g id="edge11" class="edge">
<title>SG_1_Node_0&#45;&gt;SG_1_Node_7</title>
<path fill="none" stroke="#000000" d="M552.3518,-975.2207C546.7607,-963.9729 540.0473,-949.0557 536,-935.132 529.2643,-911.9596 525.4654,-884.9107 523.3769,-864.4609"/>
<polygon fill="#000000" stroke="#000000" points="526.8541,-864.0529 522.4341,-854.424 519.8847,-864.7075 526.8541,-864.0529"/>
<text text-anchor="middle" x="582" y="-919.132" font-family="Times,serif" font-size="20.00" fill="#000000">[NA]</text>
<text text-anchor="middle" x="582" y="-897.132" font-family="Times,serif" font-size="20.00" fill="#000000">61 levels</text>
</g>
<!-- SG_1_Node_2 -->
<g id="node14" class="node">
<title>SG_1_Node_2</title>
<polygon fill="none" stroke="#000000" points="728.5,-850.9188 573.5,-850.9188 573.5,-814.9188 728.5,-814.9188 728.5,-850.9188"/>
<text text-anchor="middle" x="651" y="-827.9188" font-family="Times,serif" font-size="20.00" fill="#000000">Content&#45;Type</text>
</g>
<!-- SG_1_Node_0&#45;&gt;SG_1_Node_2 -->
<g id="edge12" class="edge">
<title>SG_1_Node_0&#45;&gt;SG_1_Node_2</title>
<path fill="none" stroke="#000000" d="M589.8453,-975.1241C603.32,-964.9139 618.5798,-951.039 628,-935.132 641.3996,-912.5054 647.0001,-882.8359 649.3368,-861.2948"/>
<polygon fill="#000000" stroke="#000000" points="652.8396,-861.4227 650.2635,-851.1459 645.8686,-860.7861 652.8396,-861.4227"/>
<text text-anchor="middle" x="663.5" y="-908.132" font-family="Times,serif" font-size="20.00" fill="#000000">206</text>
</g>
<!-- SG_1_Node_8 -->
<g id="node15" class="node">
<title>SG_1_Node_8</title>
<ellipse fill="none" stroke="#000000" cx="497" cy="-540.4924" rx="34.7971" ry="21.4286"/>
<text text-anchor="middle" x="497" y="-535.4924" font-family="Times,serif" font-size="20.00" fill="#000000">0.0</text>
</g>
<!-- SG_1_Node_2&#45;&gt;SG_1_Node_8 -->
<g id="edge13" class="edge">
<title>SG_1_Node_2&#45;&gt;SG_1_Node_8</title>
<path fill="none" stroke="#000000" d="M580.9579,-814.8454C545.2998,-804.0805 507.3184,-789.6371 497,-774.7056 454.5729,-713.3108 472.9801,-619.5654 486.8009,-571.4113"/>
<polygon fill="#000000" stroke="#000000" points="490.2295,-572.1622 489.7433,-561.5785 483.5233,-570.1553 490.2295,-572.1622"/>
<text text-anchor="middle" x="608" y="-758.7056" font-family="Times,serif" font-size="20.00" fill="#000000">[NA]</text>
<text text-anchor="middle" x="608" y="-736.7056" font-family="Times,serif" font-size="20.00" fill="#000000">application/javascript</text>
<text text-anchor="middle" x="608" y="-714.7056" font-family="Times,serif" font-size="20.00" fill="#000000">application/pdf</text>
<text text-anchor="middle" x="608" y="-692.7056" font-family="Times,serif" font-size="20.00" fill="#000000">audio/wav</text>
<text text-anchor="middle" x="608" y="-670.7056" font-family="Times,serif" font-size="20.00" fill="#000000">image/png</text>
<text text-anchor="middle" x="608" y="-648.7056" font-family="Times,serif" font-size="20.00" fill="#000000">text/css</text>
<text text-anchor="middle" x="608" y="-626.7056" font-family="Times,serif" font-size="20.00" fill="#000000">text/html</text>
<text text-anchor="middle" x="608" y="-604.7056" font-family="Times,serif" font-size="20.00" fill="#000000">video/mp4</text>
</g>
<!-- SG_1_Node_3 -->
<g id="node16" class="node">
<title>SG_1_Node_3</title>
<polygon fill="none" stroke="#000000" points="807.5,-558.4924 702.5,-558.4924 702.5,-522.4924 807.5,-522.4924 807.5,-558.4924"/>
<text text-anchor="middle" x="755" y="-535.4924" font-family="Times,serif" font-size="20.00" fill="#000000">Location</text>
</g>
<!-- SG_1_Node_2&#45;&gt;SG_1_Node_3 -->
<g id="edge14" class="edge">
<title>SG_1_Node_2&#45;&gt;SG_1_Node_3</title>
<path fill="none" stroke="#000000" d="M683.0898,-814.8126C697.66,-804.8879 713.6851,-791.2288 723,-774.7056 760.4098,-708.3464 760.3932,-615.0843 757.5566,-568.8197"/>
<polygon fill="#000000" stroke="#000000" points="761.0333,-568.3658 756.8378,-558.6371 754.0507,-568.8587 761.0333,-568.3658"/>
<text text-anchor="middle" x="790" y="-681.7056" font-family="Times,serif" font-size="20.00" fill="#000000">empty</text>
</g>
<!-- SG_1_Node_9 -->
<g id="node17" class="node">
<title>SG_1_Node_9</title>
<ellipse fill="none" stroke="#000000" cx="480" cy="-358.066" rx="34.7971" ry="21.4286"/>
<text text-anchor="middle" x="480" y="-353.066" font-family="Times,serif" font-size="20.00" fill="#000000">0.0</text>
</g>
<!-- SG_1_Node_3&#45;&gt;SG_1_Node_9 -->
<g id="edge15" class="edge">
<title>SG_1_Node_3&#45;&gt;SG_1_Node_9</title>
<path fill="none" stroke="#000000" d="M702.342,-537.4273C628.4069,-531.899 499.6344,-517.3783 471,-482.2792 449.6976,-456.1675 457.6701,-415.8088 467.1671,-388.2298"/>
<polygon fill="#000000" stroke="#000000" points="470.5062,-389.2907 470.6835,-378.6973 463.9388,-386.868 470.5062,-389.2907"/>
<text text-anchor="middle" x="608" y="-466.2792" font-family="Times,serif" font-size="20.00" fill="#000000">[NA]</text>
<text text-anchor="middle" x="608" y="-444.2792" font-family="Times,serif" font-size="20.00" fill="#000000">/</text>
<text text-anchor="middle" x="608" y="-422.2792" font-family="Times,serif" font-size="20.00" fill="#000000">http://localhost:8000/echo/</text>
</g>
<!-- SG_1_Node_4 -->
<g id="node18" class="node">
<title>SG_1_Node_4</title>
<polygon fill="none" stroke="#000000" points="859.5,-376.066 542.5,-376.066 542.5,-340.066 859.5,-340.066 859.5,-376.066"/>
<text text-anchor="middle" x="701" y="-353.066" font-family="Times,serif" font-size="20.00" fill="#000000">Cross&#45;Origin&#45;Resource&#45;Policy</text>
</g>
<!-- SG_1_Node_3&#45;&gt;SG_1_Node_4 -->
<g id="edge16" class="edge">
<title>SG_1_Node_3&#45;&gt;SG_1_Node_4</title>
<path fill="none" stroke="#000000" d="M757.5752,-522.4895C760.3729,-497.657 762.7797,-451.9225 749,-416.2792 744.3873,-404.3478 736.3089,-393.0482 728.0802,-383.6346"/>
<polygon fill="#000000" stroke="#000000" points="730.5638,-381.1653 721.2054,-376.1983 725.4238,-385.9172 730.5638,-381.1653"/>
<text text-anchor="middle" x="791" y="-444.2792" font-family="Times,serif" font-size="20.00" fill="#000000">empty</text>
</g>
<!-- SG_1_Node_10 -->
<g id="node19" class="node">
<title>SG_1_Node_10</title>
<ellipse fill="none" stroke="#000000" cx="576" cy="-197.6396" rx="34.7971" ry="21.4286"/>
<text text-anchor="middle" x="576" y="-192.6396" font-family="Times,serif" font-size="20.00" fill="#000000">0.0</text>
</g>
<!-- SG_1_Node_4&#45;&gt;SG_1_Node_10 -->
<g id="edge17" class="edge">
<title>SG_1_Node_4&#45;&gt;SG_1_Node_10</title>
<path fill="none" stroke="#000000" d="M639.6337,-339.9524C619.7534,-331.0438 599.6017,-318.1571 587,-299.8528 572.8229,-279.2603 570.8672,-250.6001 572.003,-228.8668"/>
<polygon fill="#000000" stroke="#000000" points="575.4985,-229.057 572.7689,-218.8198 568.5188,-228.5248 575.4985,-229.057"/>
<text text-anchor="middle" x="648" y="-283.8528" font-family="Times,serif" font-size="20.00" fill="#000000">[NA]</text>
<text text-anchor="middle" x="648" y="-261.8528" font-family="Times,serif" font-size="20.00" fill="#000000">same&#45;origin</text>
</g>
<!-- SG_1_Node_5 -->
<g id="node20" class="node">
<title>SG_1_Node_5</title>
<polygon fill="none" stroke="#000000" points="766.5,-215.6396 701.5,-215.6396 701.5,-179.6396 766.5,-179.6396 766.5,-215.6396"/>
<text text-anchor="middle" x="734" y="-192.6396" font-family="Times,serif" font-size="20.00" fill="#000000">body</text>
</g>
<!-- SG_1_Node_4&#45;&gt;SG_1_Node_5 -->
<g id="edge18" class="edge">
<title>SG_1_Node_4&#45;&gt;SG_1_Node_5</title>
<path fill="none" stroke="#000000" d="M704.7214,-339.9749C710.4403,-312.1727 721.4366,-258.7154 728.2048,-225.8126"/>
<polygon fill="#000000" stroke="#000000" points="731.6549,-226.4109 730.2416,-215.9107 724.7985,-225.0004 731.6549,-226.4109"/>
<text text-anchor="middle" x="753" y="-272.8528" font-family="Times,serif" font-size="20.00" fill="#000000">empty</text>
</g>
<!-- SG_1_Node_11 -->
<g id="node21" class="node">
<title>SG_1_Node_11</title>
<ellipse fill="none" stroke="#000000" cx="497" cy="-37.2132" rx="52.1524" ry="21.4286"/>
<text text-anchor="middle" x="497" y="-32.2132" font-family="Times,serif" font-size="20.00" fill="#000000">0.462</text>
</g>
<!-- SG_1_Node_5&#45;&gt;SG_1_Node_11 -->
<g id="edge19" class="edge">
<title>SG_1_Node_5&#45;&gt;SG_1_Node_11</title>
<path fill="none" stroke="#000000" d="M701.2449,-191.4594C632.7726,-178.3881 480.1954,-148.4035 473,-139.4264 456.541,-118.8919 466.2799,-89.0093 477.9023,-66.8538"/>
<polygon fill="#000000" stroke="#000000" points="481.0946,-68.3165 482.9277,-57.8814 474.9873,-64.8957 481.0946,-68.3165"/>
<text text-anchor="middle" x="607.5" y="-123.4264" font-family="Times,serif" font-size="20.00" fill="#000000">ecocnt_audio=duration=1</text>
<text text-anchor="middle" x="607.5" y="-101.4264" font-family="Times,serif" font-size="20.00" fill="#000000">empty</text>
</g>
<!-- SG_1_Node_12 -->
<g id="node22" class="node">
<title>SG_1_Node_12</title>
<ellipse fill="none" stroke="#000000" cx="768" cy="-37.2132" rx="34.7971" ry="21.4286"/>
<text text-anchor="middle" x="768" y="-32.2132" font-family="Times,serif" font-size="20.00" fill="#000000">1.0</text>
</g>
<!-- SG_1_Node_5&#45;&gt;SG_1_Node_12 -->
<g id="edge20" class="edge">
<title>SG_1_Node_5&#45;&gt;SG_1_Node_12</title>
<path fill="none" stroke="#000000" d="M737.8341,-179.5485C743.554,-152.5596 754.3976,-101.3949 761.4062,-68.3256"/>
<polygon fill="#000000" stroke="#000000" points="764.8861,-68.7866 763.5356,-58.2782 758.0382,-67.3353 764.8861,-68.7866"/>
<text text-anchor="middle" x="801" y="-123.4264" font-family="Times,serif" font-size="20.00" fill="#000000">[NA]</text>
<text text-anchor="middle" x="801" y="-101.4264" font-family="Times,serif" font-size="20.00" fill="#000000">11 levels</text>
</g>
<!-- SG_2_Node_0 -->
<g id="node23" class="node">
<title>SG_2_Node_0</title>
<ellipse fill="none" stroke="#000000" cx="1035" cy="-993.3452" rx="34.7971" ry="21.4286"/>
<text text-anchor="middle" x="1035" y="-988.3452" font-family="Times,serif" font-size="20.00" fill="#000000">0.0</text>
</g>
</g>
</svg>
