<?xml version="1.0" encoding="UTF-8" standalone="no"?>
<!DOCTYPE svg PUBLIC "-//W3C//DTD SVG 1.1//EN"
 "http://www.w3.org/Graphics/SVG/1.1/DTD/svg11.dtd">
<!-- Generated by graphviz version 2.40.1 (20161225.0304)
 -->
<!-- Title: G Pages: 1 -->
<svg width="1523pt" height="1179pt"
 viewBox="0.00 0.00 1523.00 1178.56" xmlns="http://www.w3.org/2000/svg" xmlns:xlink="http://www.w3.org/1999/xlink">
<g id="graph0" class="graph" transform="scale(1 1) rotate(0) translate(4 1174.5584)">
<title>G</title>
<polygon fill="#ffffff" stroke="transparent" points="-4,4 -4,-1174.5584 1519,-1174.5584 1519,4 -4,4"/>
<g id="clust1" class="cluster">
<title>cluster_0</title>
<polygon fill="none" stroke="#000000" points="8,-8 8,-1162.5584 1045,-1162.5584 1045,-8 8,-8"/>
<text text-anchor="middle" x="526.5" y="-1126.5584" font-family="Times,serif" font-size="40.00" fill="#000000">Tree 0, Class [&#39;suspend&#39;, &#39;loadedmetadata&#39;, &#39;error&#39;]</text>
</g>
<g id="clust9" class="cluster">
<title>cluster_1</title>
<polygon fill="none" stroke="#000000" points="1053,-8 1053,-1162.5584 1499,-1162.5584 1499,-8 1053,-8"/>
<text text-anchor="middle" x="1276" y="-1126.5584" font-family="Times,serif" font-size="40.00" fill="#000000">Tree 0, Class error</text>
</g>
<!-- SG_0_Node_0 -->
<g id="node1" class="node">
<title>SG_0_Node_0</title>
<polygon fill="none" stroke="#000000" points="168.5,-1102.5584 103.5,-1102.5584 103.5,-1066.5584 168.5,-1066.5584 168.5,-1102.5584"/>
<text text-anchor="middle" x="136" y="-1079.5584" font-family="Times,serif" font-size="20.00" fill="#000000">body</text>
</g>
<!-- SG_0_Node_6 -->
<g id="node2" class="node">
<title>SG_0_Node_6</title>
<ellipse fill="none" stroke="#000000" cx="72" cy="-927.3452" rx="34.7971" ry="21.4286"/>
<text text-anchor="middle" x="72" y="-922.3452" font-family="Times,serif" font-size="20.00" fill="#000000">0.0</text>
</g>
<!-- SG_0_Node_0&#45;&gt;SG_0_Node_6 -->
<g id="edge1" class="edge">
<title>SG_0_Node_0&#45;&gt;SG_0_Node_6</title>
<path fill="none" stroke="#000000" d="M114.2079,-1066.363C103.9493,-1056.5508 92.5534,-1043.5889 86,-1029.5584 75.6725,-1007.4477 72.3724,-979.9193 71.5448,-959.0034"/>
<polygon fill="#000000" stroke="#000000" points="75.0378,-958.6507 71.3133,-948.7322 68.0396,-958.8085 75.0378,-958.6507"/>
<text text-anchor="middle" x="132" y="-1013.5584" font-family="Times,serif" font-size="20.00" fill="#000000">[NA]</text>
<text text-anchor="middle" x="132" y="-991.5584" font-family="Times,serif" font-size="20.00" fill="#000000">12 levels</text>
</g>
<!-- SG_0_Node_1 -->
<g id="node3" class="node">
<title>SG_0_Node_1</title>
<polygon fill="none" stroke="#000000" points="271,-945.3452 129,-945.3452 129,-909.3452 271,-909.3452 271,-945.3452"/>
<text text-anchor="middle" x="200" y="-922.3452" font-family="Times,serif" font-size="20.00" fill="#000000">Status&#45;Code</text>
</g>
<!-- SG_0_Node_0&#45;&gt;SG_0_Node_1 -->
<g id="edge2" class="edge">
<title>SG_0_Node_0&#45;&gt;SG_0_Node_1</title>
<path fill="none" stroke="#000000" d="M153.4302,-1066.0669C162.0355,-1055.9839 171.8619,-1042.8688 178,-1029.5584 188.9246,-1005.8686 194.5168,-976.5631 197.3207,-955.4136"/>
<polygon fill="#000000" stroke="#000000" points="200.7988,-955.8046 198.5154,-945.4588 193.8487,-954.9704 200.7988,-955.8046"/>
<text text-anchor="middle" x="326.5" y="-1002.5584" font-family="Times,serif" font-size="20.00" fill="#000000">ecocnt_audio=duration=1</text>
</g>
<!-- SG_0_Node_7 -->
<g id="node4" class="node">
<title>SG_0_Node_7</title>
<ellipse fill="none" stroke="#000000" cx="62" cy="-766.9188" rx="34.7971" ry="21.4286"/>
<text text-anchor="middle" x="62" y="-761.9188" font-family="Times,serif" font-size="20.00" fill="#000000">0.0</text>
</g>
<!-- SG_0_Node_1&#45;&gt;SG_0_Node_7 -->
<g id="edge3" class="edge">
<title>SG_0_Node_1&#45;&gt;SG_0_Node_7</title>
<path fill="none" stroke="#000000" d="M174.8106,-909.2713C160.7497,-898.5063 143.4172,-884.0629 130,-869.132 109.6817,-846.5216 90.8965,-817.3788 78.2428,-796.0005"/>
<polygon fill="#000000" stroke="#000000" points="81.2654,-794.2357 73.2086,-787.3554 75.2163,-797.7583 81.2654,-794.2357"/>
<text text-anchor="middle" x="176" y="-853.132" font-family="Times,serif" font-size="20.00" fill="#000000">[NA]</text>
<text text-anchor="middle" x="176" y="-831.132" font-family="Times,serif" font-size="20.00" fill="#000000">61 levels</text>
</g>
<!-- SG_0_Node_2 -->
<g id="node5" class="node">
<title>SG_0_Node_2</title>
<polygon fill="none" stroke="#000000" points="431.5,-784.9188 114.5,-784.9188 114.5,-748.9188 431.5,-748.9188 431.5,-784.9188"/>
<text text-anchor="middle" x="273" y="-761.9188" font-family="Times,serif" font-size="20.00" fill="#000000">Cross&#45;Origin&#45;Resource&#45;Policy</text>
</g>
<!-- SG_0_Node_1&#45;&gt;SG_0_Node_2 -->
<g id="edge4" class="edge">
<title>SG_0_Node_1&#45;&gt;SG_0_Node_2</title>
<path fill="none" stroke="#000000" d="M208.2321,-909.2541C220.9379,-881.3315 245.419,-827.5314 260.3741,-794.6657"/>
<polygon fill="#000000" stroke="#000000" points="263.7299,-795.7416 264.686,-785.19 257.3585,-792.8423 263.7299,-795.7416"/>
<text text-anchor="middle" x="265.5" y="-842.132" font-family="Times,serif" font-size="20.00" fill="#000000">200</text>
</g>
<!-- SG_0_Node_8 -->
<g id="node6" class="node">
<title>SG_0_Node_8</title>
<ellipse fill="none" stroke="#000000" cx="157" cy="-606.4924" rx="34.7971" ry="21.4286"/>
<text text-anchor="middle" x="157" y="-601.4924" font-family="Times,serif" font-size="20.00" fill="#000000">0.0</text>
</g>
<!-- SG_0_Node_2&#45;&gt;SG_0_Node_8 -->
<g id="edge5" class="edge">
<title>SG_0_Node_2&#45;&gt;SG_0_Node_8</title>
<path fill="none" stroke="#000000" d="M212.6268,-748.8444C193.2112,-739.9395 173.7119,-727.0451 162,-708.7056 148.6873,-687.8595 148.3754,-659.4577 150.8611,-637.8832"/>
<polygon fill="#000000" stroke="#000000" points="154.3379,-638.2929 152.2615,-627.9035 147.4058,-637.3202 154.3379,-638.2929"/>
<text text-anchor="middle" x="223" y="-692.7056" font-family="Times,serif" font-size="20.00" fill="#000000">[NA]</text>
<text text-anchor="middle" x="223" y="-670.7056" font-family="Times,serif" font-size="20.00" fill="#000000">same&#45;origin</text>
</g>
<!-- SG_0_Node_3 -->
<g id="node7" class="node">
<title>SG_0_Node_3</title>
<polygon fill="none" stroke="#000000" points="392.5,-624.4924 237.5,-624.4924 237.5,-588.4924 392.5,-588.4924 392.5,-624.4924"/>
<text text-anchor="middle" x="315" y="-601.4924" font-family="Times,serif" font-size="20.00" fill="#000000">Content&#45;Type</text>
</g>
<!-- SG_0_Node_2&#45;&gt;SG_0_Node_3 -->
<g id="edge6" class="edge">
<title>SG_0_Node_2&#45;&gt;SG_0_Node_3</title>
<path fill="none" stroke="#000000" d="M277.7363,-748.8277C285.015,-721.0255 299.0102,-667.5683 307.6242,-634.6655"/>
<polygon fill="#000000" stroke="#000000" points="311.0697,-635.324 310.2166,-624.7636 304.2979,-633.5511 311.0697,-635.324"/>
<text text-anchor="middle" x="331" y="-681.7056" font-family="Times,serif" font-size="20.00" fill="#000000">empty</text>
</g>
<!-- SG_0_Node_4 -->
<g id="node8" class="node">
<title>SG_0_Node_4</title>
<polygon fill="none" stroke="#000000" points="244.5,-354.066 89.5,-354.066 89.5,-318.066 244.5,-318.066 244.5,-354.066"/>
<text text-anchor="middle" x="167" y="-331.066" font-family="Times,serif" font-size="20.00" fill="#000000">Content&#45;Type</text>
</g>
<!-- SG_0_Node_3&#45;&gt;SG_0_Node_4 -->
<g id="edge7" class="edge">
<title>SG_0_Node_3&#45;&gt;SG_0_Node_4</title>
<path fill="none" stroke="#000000" d="M248.866,-588.4664C214.2383,-577.5502 176.9877,-562.9403 167,-548.2792 128.8815,-492.3247 145.4891,-407.3503 157.8958,-363.8526"/>
<polygon fill="#000000" stroke="#000000" points="161.2624,-364.8105 160.7683,-354.2272 154.5547,-362.8087 161.2624,-364.8105"/>
<text text-anchor="middle" x="244" y="-477.2792" font-family="Times,serif" font-size="20.00" fill="#000000">application/pdf</text>
<text text-anchor="middle" x="244" y="-455.2792" font-family="Times,serif" font-size="20.00" fill="#000000">text/html</text>
</g>
<!-- SG_0_Node_9 -->
<g id="node9" class="node">
<title>SG_0_Node_9</title>
<ellipse fill="none" stroke="#000000" cx="357" cy="-336.066" rx="34.7971" ry="21.4286"/>
<text text-anchor="middle" x="357" y="-331.066" font-family="Times,serif" font-size="20.00" fill="#000000">1.0</text>
</g>
<!-- SG_0_Node_3&#45;&gt;SG_0_Node_9 -->
<g id="edge8" class="edge">
<title>SG_0_Node_3&#45;&gt;SG_0_Node_9</title>
<path fill="none" stroke="#000000" d="M318.2034,-588.4153C320.2143,-576.9303 322.8286,-561.7437 325,-548.2792 335.3412,-484.1558 346.4371,-408.959 352.4646,-367.5042"/>
<polygon fill="#000000" stroke="#000000" points="355.9475,-367.8739 353.9196,-357.475 349.02,-366.8688 355.9475,-367.8739"/>
<text text-anchor="middle" x="459" y="-532.2792" font-family="Times,serif" font-size="20.00" fill="#000000">[NA]</text>
<text text-anchor="middle" x="459" y="-510.2792" font-family="Times,serif" font-size="20.00" fill="#000000">application/javascript</text>
<text text-anchor="middle" x="459" y="-488.2792" font-family="Times,serif" font-size="20.00" fill="#000000">audio/wav</text>
<text text-anchor="middle" x="459" y="-466.2792" font-family="Times,serif" font-size="20.00" fill="#000000">empty</text>
<text text-anchor="middle" x="459" y="-444.2792" font-family="Times,serif" font-size="20.00" fill="#000000">image/png</text>
<text text-anchor="middle" x="459" y="-422.2792" font-family="Times,serif" font-size="20.00" fill="#000000">text/css</text>
<text text-anchor="middle" x="459" y="-400.2792" font-family="Times,serif" font-size="20.00" fill="#000000">video/mp4</text>
</g>
<!-- SG_0_Node_10 -->
<g id="node10" class="node">
<title>SG_0_Node_10</title>
<ellipse fill="none" stroke="#000000" cx="109" cy="-197.6396" rx="34.7971" ry="21.4286"/>
<text text-anchor="middle" x="109" y="-192.6396" font-family="Times,serif" font-size="20.00" fill="#000000">0.0</text>
</g>
<!-- SG_0_Node_4&#45;&gt;SG_0_Node_10 -->
<g id="edge9" class="edge">
<title>SG_0_Node_4&#45;&gt;SG_0_Node_10</title>
<path fill="none" stroke="#000000" d="M149.6277,-317.8586C140.2923,-307.0505 129.4134,-292.6084 123,-277.8528 116.3154,-262.4734 112.8197,-244.1236 110.9929,-228.8585"/>
<polygon fill="#000000" stroke="#000000" points="114.4698,-228.4523 109.9762,-218.8576 107.5057,-229.1604 114.4698,-228.4523"/>
<text text-anchor="middle" x="200" y="-261.8528" font-family="Times,serif" font-size="20.00" fill="#000000">application/pdf</text>
</g>
<!-- SG_0_Node_5 -->
<g id="node11" class="node">
<title>SG_0_Node_5</title>
<polygon fill="none" stroke="#000000" points="430,-215.6396 168,-215.6396 168,-179.6396 430,-179.6396 430,-215.6396"/>
<text text-anchor="middle" x="299" y="-192.6396" font-family="Times,serif" font-size="20.00" fill="#000000">X&#45;Content&#45;Type&#45;Options</text>
</g>
<!-- SG_0_Node_4&#45;&gt;SG_0_Node_5 -->
<g id="edge10" class="edge">
<title>SG_0_Node_4&#45;&gt;SG_0_Node_5</title>
<path fill="none" stroke="#000000" d="M220.9992,-318.0622C241.1493,-308.8955 262.6049,-295.8051 277,-277.8528 288.7823,-263.159 294.2694,-242.6161 296.8176,-225.9984"/>
<polygon fill="#000000" stroke="#000000" points="300.3317,-226.1041 298.1043,-215.746 293.3862,-225.2323 300.3317,-226.1041"/>
<text text-anchor="middle" x="336" y="-261.8528" font-family="Times,serif" font-size="20.00" fill="#000000">text/html</text>
</g>
<!-- SG_0_Node_11 -->
<g id="node12" class="node">
<title>SG_0_Node_11</title>
<ellipse fill="none" stroke="#000000" cx="246" cy="-37.2132" rx="34.7971" ry="21.4286"/>
<text text-anchor="middle" x="246" y="-32.2132" font-family="Times,serif" font-size="20.00" fill="#000000">0.0</text>
</g>
<!-- SG_0_Node_5&#45;&gt;SG_0_Node_11 -->
<g id="edge11" class="edge">
<title>SG_0_Node_5&#45;&gt;SG_0_Node_11</title>
<path fill="none" stroke="#000000" d="M283.6489,-179.4495C275.2819,-168.535 265.5319,-153.9817 260,-139.4264 251.3844,-116.7572 247.9661,-89.4748 246.6575,-68.8005"/>
<polygon fill="#000000" stroke="#000000" points="250.145,-68.4633 246.1491,-58.6509 243.1538,-68.8135 250.145,-68.4633"/>
<text text-anchor="middle" x="295" y="-112.4264" font-family="Times,serif" font-size="20.00" fill="#000000">nosniff</text>
</g>
<!-- SG_0_Node_12 -->
<g id="node13" class="node">
<title>SG_0_Node_12</title>
<ellipse fill="none" stroke="#000000" cx="352" cy="-37.2132" rx="34.7971" ry="21.4286"/>
<text text-anchor="middle" x="352" y="-32.2132" font-family="Times,serif" font-size="20.00" fill="#000000">1.0</text>
</g>
<!-- SG_0_Node_5&#45;&gt;SG_0_Node_12 -->
<g id="edge12" class="edge">
<title>SG_0_Node_5&#45;&gt;SG_0_Node_12</title>
<path fill="none" stroke="#000000" d="M310.2697,-179.6318C316.8505,-168.4266 324.8473,-153.5133 330,-139.4264 338.4428,-116.3449 344.109,-89.0864 347.5739,-68.526"/>
<polygon fill="#000000" stroke="#000000" points="351.0633,-68.87 349.1882,-58.4424 344.1513,-67.7633 351.0633,-68.87"/>
<text text-anchor="middle" x="374" y="-123.4264" font-family="Times,serif" font-size="20.00" fill="#000000">[NA]</text>
<text text-anchor="middle" x="374" y="-101.4264" font-family="Times,serif" font-size="20.00" fill="#000000">empty</text>
</g>
<!-- SG_1_Node_0 -->
<g id="node14" class="node">
<title>SG_1_Node_0</title>
<polygon fill="none" stroke="#000000" points="1278.5,-1102.5584 1213.5,-1102.5584 1213.5,-1066.5584 1278.5,-1066.5584 1278.5,-1102.5584"/>
<text text-anchor="middle" x="1246" y="-1079.5584" font-family="Times,serif" font-size="20.00" fill="#000000">body</text>
</g>
<!-- SG_1_Node_1 -->
<g id="node15" class="node">
<title>SG_1_Node_1</title>
<polygon fill="none" stroke="#000000" points="1291,-945.3452 1149,-945.3452 1149,-909.3452 1291,-909.3452 1291,-945.3452"/>
<text text-anchor="middle" x="1220" y="-922.3452" font-family="Times,serif" font-size="20.00" fill="#000000">Status&#45;Code</text>
</g>
<!-- SG_1_Node_0&#45;&gt;SG_1_Node_1 -->
<g id="edge13" class="edge">
<title>SG_1_Node_0&#45;&gt;SG_1_Node_1</title>
<path fill="none" stroke="#000000" d="M1213.3288,-1081.746C1180.4801,-1076.9803 1131.4455,-1064.1417 1108,-1029.5584 1097.0265,-1013.372 1097.8498,-1002.2735 1108,-985.5584 1117.4532,-969.9912 1132.5727,-958.3963 1148.6832,-949.8352"/>
<polygon fill="#000000" stroke="#000000" points="1150.2854,-952.9476 1157.7057,-945.3852 1147.189,-946.6696 1150.2854,-952.9476"/>
<text text-anchor="middle" x="1242.5" y="-1002.5584" font-family="Times,serif" font-size="20.00" fill="#000000">ecocnt_audio=duration=1</text>
</g>
<!-- SG_1_Node_6 -->
<g id="node16" class="node">
<title>SG_1_Node_6</title>
<ellipse fill="none" stroke="#000000" cx="1399" cy="-927.3452" rx="34.7971" ry="21.4286"/>
<text text-anchor="middle" x="1399" y="-922.3452" font-family="Times,serif" font-size="20.00" fill="#000000">1.0</text>
</g>
<!-- SG_1_Node_0&#45;&gt;SG_1_Node_6 -->
<g id="edge14" class="edge">
<title>SG_1_Node_0&#45;&gt;SG_1_Node_6</title>
<path fill="none" stroke="#000000" d="M1278.5261,-1079.6149C1308.6023,-1073.2945 1352.2704,-1059.3603 1377,-1029.5584 1393.3365,-1009.8712 1398.3533,-980.8811 1399.5628,-958.7984"/>
<polygon fill="#000000" stroke="#000000" points="1403.0679,-958.6887 1399.8836,-948.5837 1396.0713,-958.4689 1403.0679,-958.6887"/>
<text text-anchor="middle" x="1442" y="-1013.5584" font-family="Times,serif" font-size="20.00" fill="#000000">[NA]</text>
<text text-anchor="middle" x="1442" y="-991.5584" font-family="Times,serif" font-size="20.00" fill="#000000">12 levels</text>
</g>
<!-- SG_1_Node_2 -->
<g id="node17" class="node">
<title>SG_1_Node_2</title>
<polygon fill="none" stroke="#000000" points="1378.5,-784.9188 1061.5,-784.9188 1061.5,-748.9188 1378.5,-748.9188 1378.5,-784.9188"/>
<text text-anchor="middle" x="1220" y="-761.9188" font-family="Times,serif" font-size="20.00" fill="#000000">Cross&#45;Origin&#45;Resource&#45;Policy</text>
</g>
<!-- SG_1_Node_1&#45;&gt;SG_1_Node_2 -->
<g id="edge15" class="edge">
<title>SG_1_Node_1&#45;&gt;SG_1_Node_2</title>
<path fill="none" stroke="#000000" d="M1220,-909.2541C1220,-881.5723 1220,-828.457 1220,-795.5203"/>
<polygon fill="#000000" stroke="#000000" points="1223.5001,-795.1899 1220,-785.19 1216.5001,-795.19 1223.5001,-795.1899"/>
<text text-anchor="middle" x="1239.5" y="-842.132" font-family="Times,serif" font-size="20.00" fill="#000000">200</text>
</g>
<!-- SG_1_Node_7 -->
<g id="node18" class="node">
<title>SG_1_Node_7</title>
<ellipse fill="none" stroke="#000000" cx="1431" cy="-766.9188" rx="34.7971" ry="21.4286"/>
<text text-anchor="middle" x="1431" y="-761.9188" font-family="Times,serif" font-size="20.00" fill="#000000">1.0</text>
</g>
<!-- SG_1_Node_1&#45;&gt;SG_1_Node_7 -->
<g id="edge16" class="edge">
<title>SG_1_Node_1&#45;&gt;SG_1_Node_7</title>
<path fill="none" stroke="#000000" d="M1243.7942,-909.2541C1282.4929,-879.8309 1358.9836,-821.674 1401.2271,-789.5556"/>
<polygon fill="#000000" stroke="#000000" points="1403.3558,-792.3339 1409.1978,-783.4953 1399.119,-786.7616 1403.3558,-792.3339"/>
<text text-anchor="middle" x="1399" y="-853.132" font-family="Times,serif" font-size="20.00" fill="#000000">[NA]</text>
<text text-anchor="middle" x="1399" y="-831.132" font-family="Times,serif" font-size="20.00" fill="#000000">61 levels</text>
</g>
<!-- SG_1_Node_3 -->
<g id="node19" class="node">
<title>SG_1_Node_3</title>
<polygon fill="none" stroke="#000000" points="1256.5,-624.4924 1101.5,-624.4924 1101.5,-588.4924 1256.5,-588.4924 1256.5,-624.4924"/>
<text text-anchor="middle" x="1179" y="-601.4924" font-family="Times,serif" font-size="20.00" fill="#000000">Content&#45;Type</text>
</g>
<!-- SG_1_Node_2&#45;&gt;SG_1_Node_3 -->
<g id="edge17" class="edge">
<title>SG_1_Node_2&#45;&gt;SG_1_Node_3</title>
<path fill="none" stroke="#000000" d="M1215.3765,-748.8277C1208.2711,-721.0255 1194.6091,-667.5683 1186.2002,-634.6655"/>
<polygon fill="#000000" stroke="#000000" points="1189.5367,-633.5855 1183.6695,-624.7636 1182.7547,-635.3188 1189.5367,-633.5855"/>
<text text-anchor="middle" x="1236" y="-681.7056" font-family="Times,serif" font-size="20.00" fill="#000000">empty</text>
</g>
<!-- SG_1_Node_8 -->
<g id="node20" class="node">
<title>SG_1_Node_8</title>
<ellipse fill="none" stroke="#000000" cx="1309" cy="-606.4924" rx="34.7971" ry="21.4286"/>
<text text-anchor="middle" x="1309" y="-601.4924" font-family="Times,serif" font-size="20.00" fill="#000000">1.0</text>
</g>
<!-- SG_1_Node_2&#45;&gt;SG_1_Node_8 -->
<g id="edge18" class="edge">
<title>SG_1_Node_2&#45;&gt;SG_1_Node_8</title>
<path fill="none" stroke="#000000" d="M1239.5845,-748.728C1250.3116,-737.9252 1263.1782,-723.483 1272,-708.7056 1285.3845,-686.2855 1295.1091,-658.2431 1301.2202,-637.2048"/>
<polygon fill="#000000" stroke="#000000" points="1304.6131,-638.0677 1303.9302,-627.4949 1297.8708,-636.1859 1304.6131,-638.0677"/>
<text text-anchor="middle" x="1353" y="-692.7056" font-family="Times,serif" font-size="20.00" fill="#000000">[NA]</text>
<text text-anchor="middle" x="1353" y="-670.7056" font-family="Times,serif" font-size="20.00" fill="#000000">same&#45;origin</text>
</g>
<!-- SG_1_Node_9 -->
<g id="node21" class="node">
<title>SG_1_Node_9</title>
<ellipse fill="none" stroke="#000000" cx="1096" cy="-336.066" rx="34.7971" ry="21.4286"/>
<text text-anchor="middle" x="1096" y="-331.066" font-family="Times,serif" font-size="20.00" fill="#000000">0.0</text>
</g>
<!-- SG_1_Node_3&#45;&gt;SG_1_Node_9 -->
<g id="edge19" class="edge">
<title>SG_1_Node_3&#45;&gt;SG_1_Node_9</title>
<path fill="none" stroke="#000000" d="M1136.0606,-588.3807C1119.482,-579.0094 1102.2964,-565.7978 1093,-548.2792 1062.2198,-490.2754 1075.7484,-410.1876 1086.8117,-366.8727"/>
<polygon fill="#000000" stroke="#000000" points="1090.1975,-367.7593 1089.4009,-357.1945 1083.4353,-365.9502 1090.1975,-367.7593"/>
<text text-anchor="middle" x="1204" y="-532.2792" font-family="Times,serif" font-size="20.00" fill="#000000">[NA]</text>
<text text-anchor="middle" x="1204" y="-510.2792" font-family="Times,serif" font-size="20.00" fill="#000000">application/javascript</text>
<text text-anchor="middle" x="1204" y="-488.2792" font-family="Times,serif" font-size="20.00" fill="#000000">audio/wav</text>
<text text-anchor="middle" x="1204" y="-466.2792" font-family="Times,serif" font-size="20.00" fill="#000000">empty</text>
<text text-anchor="middle" x="1204" y="-444.2792" font-family="Times,serif" font-size="20.00" fill="#000000">image/png</text>
<text text-anchor="middle" x="1204" y="-422.2792" font-family="Times,serif" font-size="20.00" fill="#000000">text/css</text>
<text text-anchor="middle" x="1204" y="-400.2792" font-family="Times,serif" font-size="20.00" fill="#000000">video/mp4</text>
</g>
<!-- SG_1_Node_4 -->
<g id="node22" class="node">
<title>SG_1_Node_4</title>
<polygon fill="none" stroke="#000000" points="1414.5,-354.066 1259.5,-354.066 1259.5,-318.066 1414.5,-318.066 1414.5,-354.066"/>
<text text-anchor="middle" x="1337" y="-331.066" font-family="Times,serif" font-size="20.00" fill="#000000">Content&#45;Type</text>
</g>
<!-- SG_1_Node_3&#45;&gt;SG_1_Node_4 -->
<g id="edge20" class="edge">
<title>SG_1_Node_3&#45;&gt;SG_1_Node_4</title>
<path fill="none" stroke="#000000" d="M1236.3703,-588.4854C1268.8315,-577.0923 1304.9094,-561.9793 1315,-548.2792 1355.383,-493.4509 1349.111,-407.9293 1342.3669,-364.0738"/>
<polygon fill="#000000" stroke="#000000" points="1345.8045,-363.4085 1340.715,-354.1161 1338.8988,-364.5541 1345.8045,-363.4085"/>
<text text-anchor="middle" x="1424" y="-477.2792" font-family="Times,serif" font-size="20.00" fill="#000000">application/pdf</text>
<text text-anchor="middle" x="1424" y="-455.2792" font-family="Times,serif" font-size="20.00" fill="#000000">text/html</text>
</g>
<!-- SG_1_Node_5 -->
<g id="node23" class="node">
<title>SG_1_Node_5</title>
<polygon fill="none" stroke="#000000" points="1328,-215.6396 1066,-215.6396 1066,-179.6396 1328,-179.6396 1328,-215.6396"/>
<text text-anchor="middle" x="1197" y="-192.6396" font-family="Times,serif" font-size="20.00" fill="#000000">X&#45;Content&#45;Type&#45;Options</text>
</g>
<!-- SG_1_Node_4&#45;&gt;SG_1_Node_5 -->
<g id="edge21" class="edge">
<title>SG_1_Node_4&#45;&gt;SG_1_Node_5</title>
<path fill="none" stroke="#000000" d="M1308.4055,-317.9309C1292.6699,-307.254 1273.2933,-292.9165 1258,-277.8528 1241.4888,-261.5894 1225.7318,-240.6793 1214.3696,-224.286"/>
<polygon fill="#000000" stroke="#000000" points="1217.0497,-222.003 1208.5325,-215.7016 1211.2611,-225.939 1217.0497,-222.003"/>
<text text-anchor="middle" x="1305" y="-261.8528" font-family="Times,serif" font-size="20.00" fill="#000000">text/html</text>
</g>
<!-- SG_1_Node_10 -->
<g id="node24" class="node">
<title>SG_1_Node_10</title>
<ellipse fill="none" stroke="#000000" cx="1381" cy="-197.6396" rx="34.7971" ry="21.4286"/>
<text text-anchor="middle" x="1381" y="-192.6396" font-family="Times,serif" font-size="20.00" fill="#000000">1.0</text>
</g>
<!-- SG_1_Node_4&#45;&gt;SG_1_Node_10 -->
<g id="edge22" class="edge">
<title>SG_1_Node_4&#45;&gt;SG_1_Node_10</title>
<path fill="none" stroke="#000000" d="M1342.7522,-317.9692C1349.972,-295.2553 1362.4666,-255.9468 1371.2041,-228.4581"/>
<polygon fill="#000000" stroke="#000000" points="1374.5427,-229.5085 1374.2364,-218.9181 1367.8716,-227.388 1374.5427,-229.5085"/>
<text text-anchor="middle" x="1438" y="-261.8528" font-family="Times,serif" font-size="20.00" fill="#000000">application/pdf</text>
</g>
<!-- SG_1_Node_11 -->
<g id="node25" class="node">
<title>SG_1_Node_11</title>
<ellipse fill="none" stroke="#000000" cx="1101" cy="-37.2132" rx="34.7971" ry="21.4286"/>
<text text-anchor="middle" x="1101" y="-32.2132" font-family="Times,serif" font-size="20.00" fill="#000000">0.0</text>
</g>
<!-- SG_1_Node_5&#45;&gt;SG_1_Node_11 -->
<g id="edge23" class="edge">
<title>SG_1_Node_5&#45;&gt;SG_1_Node_11</title>
<path fill="none" stroke="#000000" d="M1169.4321,-179.5308C1155.7696,-169.2591 1140.0806,-155.2944 1130,-139.4264 1116.377,-117.9823 1109.0184,-90.0264 1105.1269,-68.7726"/>
<polygon fill="#000000" stroke="#000000" points="1108.5342,-67.9264 1103.4379,-58.6378 1101.6294,-69.0771 1108.5342,-67.9264"/>
<text text-anchor="middle" x="1162" y="-123.4264" font-family="Times,serif" font-size="20.00" fill="#000000">[NA]</text>
<text text-anchor="middle" x="1162" y="-101.4264" font-family="Times,serif" font-size="20.00" fill="#000000">empty</text>
</g>
<!-- SG_1_Node_12 -->
<g id="node26" class="node">
<title>SG_1_Node_12</title>
<ellipse fill="none" stroke="#000000" cx="1201" cy="-37.2132" rx="34.7971" ry="21.4286"/>
<text text-anchor="middle" x="1201" y="-32.2132" font-family="Times,serif" font-size="20.00" fill="#000000">1.0</text>
</g>
<!-- SG_1_Node_5&#45;&gt;SG_1_Node_12 -->
<g id="edge24" class="edge">
<title>SG_1_Node_5&#45;&gt;SG_1_Node_12</title>
<path fill="none" stroke="#000000" d="M1197.4511,-179.5485C1198.1222,-152.6336 1199.3927,-101.6751 1200.2175,-68.5978"/>
<polygon fill="#000000" stroke="#000000" points="1203.7178,-68.6241 1200.4682,-58.5399 1196.72,-68.4495 1203.7178,-68.6241"/>
<text text-anchor="middle" x="1234" y="-112.4264" font-family="Times,serif" font-size="20.00" fill="#000000">nosniff</text>
</g>
</g>
</svg>
