<?xml version="1.0" encoding="UTF-8" standalone="no"?>
<!DOCTYPE svg PUBLIC "-//W3C//DTD SVG 1.1//EN"
 "http://www.w3.org/Graphics/SVG/1.1/DTD/svg11.dtd">
<!-- Generated by graphviz version 2.40.1 (20161225.0304)
 -->
<!-- Title: G Pages: 1 -->
<svg width="1124pt" height="1179pt"
 viewBox="0.00 0.00 1124.00 1178.56" xmlns="http://www.w3.org/2000/svg" xmlns:xlink="http://www.w3.org/1999/xlink">
<g id="graph0" class="graph" transform="scale(1 1) rotate(0) translate(4 1174.5584)">
<title>G</title>
<polygon fill="#ffffff" stroke="transparent" points="-4,4 -4,-1174.5584 1120,-1174.5584 1120,4 -4,4"/>
<g id="clust1" class="cluster">
<title>cluster_0</title>
<polygon fill="none" stroke="#000000" points="8,-8 8,-1162.5584 554,-1162.5584 554,-8 8,-8"/>
<text text-anchor="middle" x="281" y="-1126.5584" font-family="Times,serif" font-size="40.00" fill="#000000">Tree 0, Class {&#39;length&#39;: 0}</text>
</g>
<g id="clust9" class="cluster">
<title>cluster_1</title>
<polygon fill="none" stroke="#000000" points="562,-8 562,-1162.5584 1108,-1162.5584 1108,-8 562,-8"/>
<text text-anchor="middle" x="835" y="-1126.5584" font-family="Times,serif" font-size="40.00" fill="#000000">Tree 0, Class {&#39;length&#39;: 1}</text>
</g>
<!-- SG_0_Node_0 -->
<g id="node1" class="node">
<title>SG_0_Node_0</title>
<polygon fill="none" stroke="#000000" points="333.5,-1102.5584 268.5,-1102.5584 268.5,-1066.5584 333.5,-1066.5584 333.5,-1102.5584"/>
<text text-anchor="middle" x="301" y="-1079.5584" font-family="Times,serif" font-size="20.00" fill="#000000">body</text>
</g>
<!-- SG_0_Node_1 -->
<g id="node2" class="node">
<title>SG_0_Node_1</title>
<polygon fill="none" stroke="#000000" points="246,-945.3452 104,-945.3452 104,-909.3452 246,-909.3452 246,-945.3452"/>
<text text-anchor="middle" x="175" y="-922.3452" font-family="Times,serif" font-size="20.00" fill="#000000">Status&#45;Code</text>
</g>
<!-- SG_0_Node_0&#45;&gt;SG_0_Node_1 -->
<g id="edge1" class="edge">
<title>SG_0_Node_0&#45;&gt;SG_0_Node_1</title>
<path fill="none" stroke="#000000" d="M268.3288,-1081.746C235.4801,-1076.9803 186.4455,-1064.1417 163,-1029.5584 148.2193,-1007.7562 154.4415,-977.1682 162.3785,-955.1433"/>
<polygon fill="#000000" stroke="#000000" points="165.6934,-956.2766 166.0766,-945.6887 159.1743,-953.7267 165.6934,-956.2766"/>
<text text-anchor="middle" x="297.5" y="-1002.5584" font-family="Times,serif" font-size="20.00" fill="#000000">ecocnt_audio=duration=1</text>
</g>
<!-- SG_0_Node_6 -->
<g id="node3" class="node">
<title>SG_0_Node_6</title>
<ellipse fill="none" stroke="#000000" cx="454" cy="-927.3452" rx="34.7971" ry="21.4286"/>
<text text-anchor="middle" x="454" y="-922.3452" font-family="Times,serif" font-size="20.00" fill="#000000">1.0</text>
</g>
<!-- SG_0_Node_0&#45;&gt;SG_0_Node_6 -->
<g id="edge2" class="edge">
<title>SG_0_Node_0&#45;&gt;SG_0_Node_6</title>
<path fill="none" stroke="#000000" d="M333.5261,-1079.6149C363.6023,-1073.2945 407.2704,-1059.3603 432,-1029.5584 448.3365,-1009.8712 453.3533,-980.8811 454.5628,-958.7984"/>
<polygon fill="#000000" stroke="#000000" points="458.0679,-958.6887 454.8836,-948.5837 451.0713,-958.4689 458.0679,-958.6887"/>
<text text-anchor="middle" x="497" y="-1013.5584" font-family="Times,serif" font-size="20.00" fill="#000000">[NA]</text>
<text text-anchor="middle" x="497" y="-991.5584" font-family="Times,serif" font-size="20.00" fill="#000000">12 levels</text>
</g>
<!-- SG_0_Node_2 -->
<g id="node4" class="node">
<title>SG_0_Node_2</title>
<polygon fill="none" stroke="#000000" points="333.5,-784.9188 16.5,-784.9188 16.5,-748.9188 333.5,-748.9188 333.5,-784.9188"/>
<text text-anchor="middle" x="175" y="-761.9188" font-family="Times,serif" font-size="20.00" fill="#000000">Cross&#45;Origin&#45;Resource&#45;Policy</text>
</g>
<!-- SG_0_Node_1&#45;&gt;SG_0_Node_2 -->
<g id="edge3" class="edge">
<title>SG_0_Node_1&#45;&gt;SG_0_Node_2</title>
<path fill="none" stroke="#000000" d="M175,-909.2541C175,-881.5723 175,-828.457 175,-795.5203"/>
<polygon fill="#000000" stroke="#000000" points="178.5001,-795.1899 175,-785.19 171.5001,-795.19 178.5001,-795.1899"/>
<text text-anchor="middle" x="194.5" y="-842.132" font-family="Times,serif" font-size="20.00" fill="#000000">200</text>
</g>
<!-- SG_0_Node_7 -->
<g id="node5" class="node">
<title>SG_0_Node_7</title>
<ellipse fill="none" stroke="#000000" cx="386" cy="-766.9188" rx="34.7971" ry="21.4286"/>
<text text-anchor="middle" x="386" y="-761.9188" font-family="Times,serif" font-size="20.00" fill="#000000">1.0</text>
</g>
<!-- SG_0_Node_1&#45;&gt;SG_0_Node_7 -->
<g id="edge4" class="edge">
<title>SG_0_Node_1&#45;&gt;SG_0_Node_7</title>
<path fill="none" stroke="#000000" d="M198.7942,-909.2541C237.4929,-879.8309 313.9836,-821.674 356.2271,-789.5556"/>
<polygon fill="#000000" stroke="#000000" points="358.3558,-792.3339 364.1978,-783.4953 354.119,-786.7616 358.3558,-792.3339"/>
<text text-anchor="middle" x="354" y="-853.132" font-family="Times,serif" font-size="20.00" fill="#000000">[NA]</text>
<text text-anchor="middle" x="354" y="-831.132" font-family="Times,serif" font-size="20.00" fill="#000000">61 levels</text>
</g>
<!-- SG_0_Node_3 -->
<g id="node6" class="node">
<title>SG_0_Node_3</title>
<polygon fill="none" stroke="#000000" points="211.5,-624.4924 56.5,-624.4924 56.5,-588.4924 211.5,-588.4924 211.5,-624.4924"/>
<text text-anchor="middle" x="134" y="-601.4924" font-family="Times,serif" font-size="20.00" fill="#000000">Content&#45;Type</text>
</g>
<!-- SG_0_Node_2&#45;&gt;SG_0_Node_3 -->
<g id="edge5" class="edge">
<title>SG_0_Node_2&#45;&gt;SG_0_Node_3</title>
<path fill="none" stroke="#000000" d="M170.3765,-748.8277C163.2711,-721.0255 149.6091,-667.5683 141.2002,-634.6655"/>
<polygon fill="#000000" stroke="#000000" points="144.5367,-633.5855 138.6695,-624.7636 137.7547,-635.3188 144.5367,-633.5855"/>
<text text-anchor="middle" x="191" y="-681.7056" font-family="Times,serif" font-size="20.00" fill="#000000">empty</text>
</g>
<!-- SG_0_Node_8 -->
<g id="node7" class="node">
<title>SG_0_Node_8</title>
<ellipse fill="none" stroke="#000000" cx="264" cy="-606.4924" rx="34.7971" ry="21.4286"/>
<text text-anchor="middle" x="264" y="-601.4924" font-family="Times,serif" font-size="20.00" fill="#000000">1.0</text>
</g>
<!-- SG_0_Node_2&#45;&gt;SG_0_Node_8 -->
<g id="edge6" class="edge">
<title>SG_0_Node_2&#45;&gt;SG_0_Node_8</title>
<path fill="none" stroke="#000000" d="M194.5845,-748.728C205.3116,-737.9252 218.1782,-723.483 227,-708.7056 240.3845,-686.2855 250.1091,-658.2431 256.2202,-637.2048"/>
<polygon fill="#000000" stroke="#000000" points="259.6131,-638.0677 258.9302,-627.4949 252.8708,-636.1859 259.6131,-638.0677"/>
<text text-anchor="middle" x="308" y="-692.7056" font-family="Times,serif" font-size="20.00" fill="#000000">[NA]</text>
<text text-anchor="middle" x="308" y="-670.7056" font-family="Times,serif" font-size="20.00" fill="#000000">same&#45;origin</text>
</g>
<!-- SG_0_Node_9 -->
<g id="node8" class="node">
<title>SG_0_Node_9</title>
<ellipse fill="none" stroke="#000000" cx="64" cy="-336.066" rx="34.7971" ry="21.4286"/>
<text text-anchor="middle" x="64" y="-331.066" font-family="Times,serif" font-size="20.00" fill="#000000">0.0</text>
</g>
<!-- SG_0_Node_3&#45;&gt;SG_0_Node_9 -->
<g id="edge7" class="edge">
<title>SG_0_Node_3&#45;&gt;SG_0_Node_9</title>
<path fill="none" stroke="#000000" d="M110.0038,-588.4575C98.1695,-578.1124 84.9696,-564.0575 78,-548.2792 51.6623,-488.6543 54.9921,-410.3455 59.5966,-367.4768"/>
<polygon fill="#000000" stroke="#000000" points="63.0928,-367.7132 60.7775,-357.3745 56.1401,-366.9005 63.0928,-367.7132"/>
<text text-anchor="middle" x="189" y="-532.2792" font-family="Times,serif" font-size="20.00" fill="#000000">[NA]</text>
<text text-anchor="middle" x="189" y="-510.2792" font-family="Times,serif" font-size="20.00" fill="#000000">application/javascript</text>
<text text-anchor="middle" x="189" y="-488.2792" font-family="Times,serif" font-size="20.00" fill="#000000">audio/wav</text>
<text text-anchor="middle" x="189" y="-466.2792" font-family="Times,serif" font-size="20.00" fill="#000000">empty</text>
<text text-anchor="middle" x="189" y="-444.2792" font-family="Times,serif" font-size="20.00" fill="#000000">image/png</text>
<text text-anchor="middle" x="189" y="-422.2792" font-family="Times,serif" font-size="20.00" fill="#000000">text/css</text>
<text text-anchor="middle" x="189" y="-400.2792" font-family="Times,serif" font-size="20.00" fill="#000000">video/mp4</text>
</g>
<!-- SG_0_Node_4 -->
<g id="node9" class="node">
<title>SG_0_Node_4</title>
<polygon fill="none" stroke="#000000" points="399.5,-354.066 244.5,-354.066 244.5,-318.066 399.5,-318.066 399.5,-354.066"/>
<text text-anchor="middle" x="322" y="-331.066" font-family="Times,serif" font-size="20.00" fill="#000000">Content&#45;Type</text>
</g>
<!-- SG_0_Node_3&#45;&gt;SG_0_Node_4 -->
<g id="edge8" class="edge">
<title>SG_0_Node_3&#45;&gt;SG_0_Node_4</title>
<path fill="none" stroke="#000000" d="M195.3264,-588.4703C239.7069,-574.853 293.068,-557.0576 300,-548.2792 342.201,-494.8376 335.1359,-408.711 327.8002,-364.4043"/>
<polygon fill="#000000" stroke="#000000" points="331.2069,-363.5707 326.0076,-354.3394 324.3154,-364.7982 331.2069,-363.5707"/>
<text text-anchor="middle" x="410" y="-477.2792" font-family="Times,serif" font-size="20.00" fill="#000000">application/pdf</text>
<text text-anchor="middle" x="410" y="-455.2792" font-family="Times,serif" font-size="20.00" fill="#000000">text/html</text>
</g>
<!-- SG_0_Node_5 -->
<g id="node10" class="node">
<title>SG_0_Node_5</title>
<polygon fill="none" stroke="#000000" points="290,-215.6396 28,-215.6396 28,-179.6396 290,-179.6396 290,-215.6396"/>
<text text-anchor="middle" x="159" y="-192.6396" font-family="Times,serif" font-size="20.00" fill="#000000">X&#45;Content&#45;Type&#45;Options</text>
</g>
<!-- SG_0_Node_4&#45;&gt;SG_0_Node_5 -->
<g id="edge9" class="edge">
<title>SG_0_Node_4&#45;&gt;SG_0_Node_5</title>
<path fill="none" stroke="#000000" d="M290.1936,-317.9051C272.5937,-307.2201 250.7561,-292.8832 233,-277.8528 213.4885,-261.3365 193.9887,-239.9489 179.9079,-223.4124"/>
<polygon fill="#000000" stroke="#000000" points="182.5654,-221.1344 173.4545,-215.7268 177.2046,-225.6358 182.5654,-221.1344"/>
<text text-anchor="middle" x="280" y="-261.8528" font-family="Times,serif" font-size="20.00" fill="#000000">text/html</text>
</g>
<!-- SG_0_Node_10 -->
<g id="node11" class="node">
<title>SG_0_Node_10</title>
<ellipse fill="none" stroke="#000000" cx="343" cy="-197.6396" rx="34.7971" ry="21.4286"/>
<text text-anchor="middle" x="343" y="-192.6396" font-family="Times,serif" font-size="20.00" fill="#000000">1.0</text>
</g>
<!-- SG_0_Node_4&#45;&gt;SG_0_Node_10 -->
<g id="edge10" class="edge">
<title>SG_0_Node_4&#45;&gt;SG_0_Node_10</title>
<path fill="none" stroke="#000000" d="M324.7454,-317.9692C328.1761,-295.3549 334.1022,-256.2913 338.2697,-228.8205"/>
<polygon fill="#000000" stroke="#000000" points="341.7324,-229.33 339.7719,-218.9181 334.8116,-228.28 341.7324,-229.33"/>
<text text-anchor="middle" x="410" y="-261.8528" font-family="Times,serif" font-size="20.00" fill="#000000">application/pdf</text>
</g>
<!-- SG_0_Node_11 -->
<g id="node12" class="node">
<title>SG_0_Node_11</title>
<ellipse fill="none" stroke="#000000" cx="71" cy="-37.2132" rx="34.7971" ry="21.4286"/>
<text text-anchor="middle" x="71" y="-32.2132" font-family="Times,serif" font-size="20.00" fill="#000000">0.0</text>
</g>
<!-- SG_0_Node_5&#45;&gt;SG_0_Node_11 -->
<g id="edge11" class="edge">
<title>SG_0_Node_5&#45;&gt;SG_0_Node_11</title>
<path fill="none" stroke="#000000" d="M132.3876,-179.4707C119.2605,-169.1825 104.2899,-155.2212 95,-139.4264 82.2722,-117.7865 76.2929,-89.8455 73.4846,-68.6472"/>
<polygon fill="#000000" stroke="#000000" points="76.9418,-68.0746 72.3156,-58.5432 69.9882,-68.8793 76.9418,-68.0746"/>
<text text-anchor="middle" x="127" y="-123.4264" font-family="Times,serif" font-size="20.00" fill="#000000">[NA]</text>
<text text-anchor="middle" x="127" y="-101.4264" font-family="Times,serif" font-size="20.00" fill="#000000">empty</text>
</g>
<!-- SG_0_Node_12 -->
<g id="node13" class="node">
<title>SG_0_Node_12</title>
<ellipse fill="none" stroke="#000000" cx="171" cy="-37.2132" rx="34.7971" ry="21.4286"/>
<text text-anchor="middle" x="171" y="-32.2132" font-family="Times,serif" font-size="20.00" fill="#000000">1.0</text>
</g>
<!-- SG_0_Node_5&#45;&gt;SG_0_Node_12 -->
<g id="edge12" class="edge">
<title>SG_0_Node_5&#45;&gt;SG_0_Node_12</title>
<path fill="none" stroke="#000000" d="M160.3532,-179.5485C162.3665,-152.6336 166.1782,-101.6751 168.6524,-68.5978"/>
<polygon fill="#000000" stroke="#000000" points="172.149,-68.7731 169.4047,-58.5399 165.1685,-68.2509 172.149,-68.7731"/>
<text text-anchor="middle" x="201" y="-112.4264" font-family="Times,serif" font-size="20.00" fill="#000000">nosniff</text>
</g>
<!-- SG_1_Node_0 -->
<g id="node14" class="node">
<title>SG_1_Node_0</title>
<polygon fill="none" stroke="#000000" points="737.5,-1102.5584 672.5,-1102.5584 672.5,-1066.5584 737.5,-1066.5584 737.5,-1102.5584"/>
<text text-anchor="middle" x="705" y="-1079.5584" font-family="Times,serif" font-size="20.00" fill="#000000">body</text>
</g>
<!-- SG_1_Node_6 -->
<g id="node15" class="node">
<title>SG_1_Node_6</title>
<ellipse fill="none" stroke="#000000" cx="641" cy="-927.3452" rx="34.7971" ry="21.4286"/>
<text text-anchor="middle" x="641" y="-922.3452" font-family="Times,serif" font-size="20.00" fill="#000000">0.0</text>
</g>
<!-- SG_1_Node_0&#45;&gt;SG_1_Node_6 -->
<g id="edge13" class="edge">
<title>SG_1_Node_0&#45;&gt;SG_1_Node_6</title>
<path fill="none" stroke="#000000" d="M683.2079,-1066.363C672.9493,-1056.5508 661.5534,-1043.5889 655,-1029.5584 644.6725,-1007.4477 641.3724,-979.9193 640.5448,-959.0034"/>
<polygon fill="#000000" stroke="#000000" points="644.0378,-958.6507 640.3133,-948.7322 637.0396,-958.8085 644.0378,-958.6507"/>
<text text-anchor="middle" x="701" y="-1013.5584" font-family="Times,serif" font-size="20.00" fill="#000000">[NA]</text>
<text text-anchor="middle" x="701" y="-991.5584" font-family="Times,serif" font-size="20.00" fill="#000000">12 levels</text>
</g>
<!-- SG_1_Node_1 -->
<g id="node16" class="node">
<title>SG_1_Node_1</title>
<polygon fill="none" stroke="#000000" points="840,-945.3452 698,-945.3452 698,-909.3452 840,-909.3452 840,-945.3452"/>
<text text-anchor="middle" x="769" y="-922.3452" font-family="Times,serif" font-size="20.00" fill="#000000">Status&#45;Code</text>
</g>
<!-- SG_1_Node_0&#45;&gt;SG_1_Node_1 -->
<g id="edge14" class="edge">
<title>SG_1_Node_0&#45;&gt;SG_1_Node_1</title>
<path fill="none" stroke="#000000" d="M722.4302,-1066.0669C731.0355,-1055.9839 740.8619,-1042.8688 747,-1029.5584 757.9246,-1005.8686 763.5168,-976.5631 766.3207,-955.4136"/>
<polygon fill="#000000" stroke="#000000" points="769.7988,-955.8046 767.5154,-945.4588 762.8487,-954.9704 769.7988,-955.8046"/>
<text text-anchor="middle" x="895.5" y="-1002.5584" font-family="Times,serif" font-size="20.00" fill="#000000">ecocnt_audio=duration=1</text>
</g>
<!-- SG_1_Node_7 -->
<g id="node17" class="node">
<title>SG_1_Node_7</title>
<ellipse fill="none" stroke="#000000" cx="616" cy="-766.9188" rx="34.7971" ry="21.4286"/>
<text text-anchor="middle" x="616" y="-761.9188" font-family="Times,serif" font-size="20.00" fill="#000000">0.0</text>
</g>
<!-- SG_1_Node_1&#45;&gt;SG_1_Node_7 -->
<g id="edge15" class="edge">
<title>SG_1_Node_1&#45;&gt;SG_1_Node_7</title>
<path fill="none" stroke="#000000" d="M742.2898,-909.2193C727.3145,-898.4375 708.7411,-883.9946 694,-869.132 671.3423,-846.2876 649.4715,-816.7642 634.6845,-795.3252"/>
<polygon fill="#000000" stroke="#000000" points="637.5127,-793.26 628.9924,-786.9627 631.726,-797.1989 637.5127,-793.26"/>
<text text-anchor="middle" x="740" y="-853.132" font-family="Times,serif" font-size="20.00" fill="#000000">[NA]</text>
<text text-anchor="middle" x="740" y="-831.132" font-family="Times,serif" font-size="20.00" fill="#000000">61 levels</text>
</g>
<!-- SG_1_Node_2 -->
<g id="node18" class="node">
<title>SG_1_Node_2</title>
<polygon fill="none" stroke="#000000" points="985.5,-784.9188 668.5,-784.9188 668.5,-748.9188 985.5,-748.9188 985.5,-784.9188"/>
<text text-anchor="middle" x="827" y="-761.9188" font-family="Times,serif" font-size="20.00" fill="#000000">Cross&#45;Origin&#45;Resource&#45;Policy</text>
</g>
<!-- SG_1_Node_1&#45;&gt;SG_1_Node_2 -->
<g id="edge16" class="edge">
<title>SG_1_Node_1&#45;&gt;SG_1_Node_2</title>
<path fill="none" stroke="#000000" d="M775.5406,-909.2541C785.6356,-881.3315 805.0864,-827.5314 816.9685,-794.6657"/>
<polygon fill="#000000" stroke="#000000" points="820.2858,-795.7842 820.3943,-785.19 813.7028,-793.4042 820.2858,-795.7842"/>
<text text-anchor="middle" x="824.5" y="-842.132" font-family="Times,serif" font-size="20.00" fill="#000000">200</text>
</g>
<!-- SG_1_Node_8 -->
<g id="node19" class="node">
<title>SG_1_Node_8</title>
<ellipse fill="none" stroke="#000000" cx="679" cy="-606.4924" rx="34.7971" ry="21.4286"/>
<text text-anchor="middle" x="679" y="-601.4924" font-family="Times,serif" font-size="20.00" fill="#000000">0.0</text>
</g>
<!-- SG_1_Node_2&#45;&gt;SG_1_Node_8 -->
<g id="edge17" class="edge">
<title>SG_1_Node_2&#45;&gt;SG_1_Node_8</title>
<path fill="none" stroke="#000000" d="M762.2793,-748.807C740.9696,-739.8985 718.9344,-727.0115 704,-708.7056 687.8234,-688.8771 681.8647,-660.1449 679.7852,-638.1896"/>
<polygon fill="#000000" stroke="#000000" points="683.2622,-637.7453 679.0482,-628.0246 676.2806,-638.2516 683.2622,-637.7453"/>
<text text-anchor="middle" x="765" y="-692.7056" font-family="Times,serif" font-size="20.00" fill="#000000">[NA]</text>
<text text-anchor="middle" x="765" y="-670.7056" font-family="Times,serif" font-size="20.00" fill="#000000">same&#45;origin</text>
</g>
<!-- SG_1_Node_3 -->
<g id="node20" class="node">
<title>SG_1_Node_3</title>
<polygon fill="none" stroke="#000000" points="914.5,-624.4924 759.5,-624.4924 759.5,-588.4924 914.5,-588.4924 914.5,-624.4924"/>
<text text-anchor="middle" x="837" y="-601.4924" font-family="Times,serif" font-size="20.00" fill="#000000">Content&#45;Type</text>
</g>
<!-- SG_1_Node_2&#45;&gt;SG_1_Node_3 -->
<g id="edge18" class="edge">
<title>SG_1_Node_2&#45;&gt;SG_1_Node_3</title>
<path fill="none" stroke="#000000" d="M828.1277,-748.8277C829.8532,-721.1459 833.1641,-668.0306 835.2172,-635.0939"/>
<polygon fill="#000000" stroke="#000000" points="838.7321,-634.962 835.8611,-624.7636 831.7456,-634.5264 838.7321,-634.962"/>
<text text-anchor="middle" x="865" y="-681.7056" font-family="Times,serif" font-size="20.00" fill="#000000">empty</text>
</g>
<!-- SG_1_Node_4 -->
<g id="node21" class="node">
<title>SG_1_Node_4</title>
<polygon fill="none" stroke="#000000" points="744.5,-354.066 589.5,-354.066 589.5,-318.066 744.5,-318.066 744.5,-354.066"/>
<text text-anchor="middle" x="667" y="-331.066" font-family="Times,serif" font-size="20.00" fill="#000000">Content&#45;Type</text>
</g>
<!-- SG_1_Node_3&#45;&gt;SG_1_Node_4 -->
<g id="edge19" class="edge">
<title>SG_1_Node_3&#45;&gt;SG_1_Node_4</title>
<path fill="none" stroke="#000000" d="M768.2188,-588.3712C732.4584,-577.4797 693.9584,-562.9264 683,-548.2792 642.3095,-493.8918 651.8099,-408.1778 660.3984,-364.1789"/>
<polygon fill="#000000" stroke="#000000" points="663.8669,-364.6902 662.4756,-354.1871 657.0134,-363.2654 663.8669,-364.6902"/>
<text text-anchor="middle" x="760" y="-477.2792" font-family="Times,serif" font-size="20.00" fill="#000000">application/pdf</text>
<text text-anchor="middle" x="760" y="-455.2792" font-family="Times,serif" font-size="20.00" fill="#000000">text/html</text>
</g>
<!-- SG_1_Node_9 -->
<g id="node22" class="node">
<title>SG_1_Node_9</title>
<ellipse fill="none" stroke="#000000" cx="857" cy="-336.066" rx="34.7971" ry="21.4286"/>
<text text-anchor="middle" x="857" y="-331.066" font-family="Times,serif" font-size="20.00" fill="#000000">1.0</text>
</g>
<!-- SG_1_Node_3&#45;&gt;SG_1_Node_9 -->
<g id="edge20" class="edge">
<title>SG_1_Node_3&#45;&gt;SG_1_Node_9</title>
<path fill="none" stroke="#000000" d="M838.3433,-588.3291C841.6921,-543.0489 850.444,-424.7118 854.6614,-367.6871"/>
<polygon fill="#000000" stroke="#000000" points="858.1705,-367.6925 855.4176,-357.4615 851.1895,-367.1761 858.1705,-367.6925"/>
<text text-anchor="middle" x="963" y="-532.2792" font-family="Times,serif" font-size="20.00" fill="#000000">[NA]</text>
<text text-anchor="middle" x="963" y="-510.2792" font-family="Times,serif" font-size="20.00" fill="#000000">application/javascript</text>
<text text-anchor="middle" x="963" y="-488.2792" font-family="Times,serif" font-size="20.00" fill="#000000">audio/wav</text>
<text text-anchor="middle" x="963" y="-466.2792" font-family="Times,serif" font-size="20.00" fill="#000000">empty</text>
<text text-anchor="middle" x="963" y="-444.2792" font-family="Times,serif" font-size="20.00" fill="#000000">image/png</text>
<text text-anchor="middle" x="963" y="-422.2792" font-family="Times,serif" font-size="20.00" fill="#000000">text/css</text>
<text text-anchor="middle" x="963" y="-400.2792" font-family="Times,serif" font-size="20.00" fill="#000000">video/mp4</text>
</g>
<!-- SG_1_Node_10 -->
<g id="node23" class="node">
<title>SG_1_Node_10</title>
<ellipse fill="none" stroke="#000000" cx="636" cy="-197.6396" rx="34.7971" ry="21.4286"/>
<text text-anchor="middle" x="636" y="-192.6396" font-family="Times,serif" font-size="20.00" fill="#000000">0.0</text>
</g>
<!-- SG_1_Node_4&#45;&gt;SG_1_Node_10 -->
<g id="edge21" class="edge">
<title>SG_1_Node_4&#45;&gt;SG_1_Node_10</title>
<path fill="none" stroke="#000000" d="M661.1137,-317.8512C657.569,-306.4435 653.1476,-291.3894 650,-277.8528 646.2901,-261.8979 643.0704,-243.9524 640.6572,-229.0873"/>
<polygon fill="#000000" stroke="#000000" points="644.0625,-228.2125 639.047,-218.8801 637.148,-229.3033 644.0625,-228.2125"/>
<text text-anchor="middle" x="727" y="-261.8528" font-family="Times,serif" font-size="20.00" fill="#000000">application/pdf</text>
</g>
<!-- SG_1_Node_5 -->
<g id="node24" class="node">
<title>SG_1_Node_5</title>
<polygon fill="none" stroke="#000000" points="957,-215.6396 695,-215.6396 695,-179.6396 957,-179.6396 957,-215.6396"/>
<text text-anchor="middle" x="826" y="-192.6396" font-family="Times,serif" font-size="20.00" fill="#000000">X&#45;Content&#45;Type&#45;Options</text>
</g>
<!-- SG_1_Node_4&#45;&gt;SG_1_Node_5 -->
<g id="edge22" class="edge">
<title>SG_1_Node_4&#45;&gt;SG_1_Node_5</title>
<path fill="none" stroke="#000000" d="M741.8746,-318.0236C764.5676,-309.2534 787.7572,-296.4343 804,-277.8528 816.4735,-263.5833 821.9396,-242.8611 824.305,-226.0535"/>
<polygon fill="#000000" stroke="#000000" points="827.8316,-226.0056 825.454,-215.681 820.8742,-225.2348 827.8316,-226.0056"/>
<text text-anchor="middle" x="863" y="-261.8528" font-family="Times,serif" font-size="20.00" fill="#000000">text/html</text>
</g>
<!-- SG_1_Node_11 -->
<g id="node25" class="node">
<title>SG_1_Node_11</title>
<ellipse fill="none" stroke="#000000" cx="773" cy="-37.2132" rx="34.7971" ry="21.4286"/>
<text text-anchor="middle" x="773" y="-32.2132" font-family="Times,serif" font-size="20.00" fill="#000000">0.0</text>
</g>
<!-- SG_1_Node_5&#45;&gt;SG_1_Node_11 -->
<g id="edge23" class="edge">
<title>SG_1_Node_5&#45;&gt;SG_1_Node_11</title>
<path fill="none" stroke="#000000" d="M810.6489,-179.4495C802.2819,-168.535 792.5319,-153.9817 787,-139.4264 778.3844,-116.7572 774.9661,-89.4748 773.6575,-68.8005"/>
<polygon fill="#000000" stroke="#000000" points="777.145,-68.4633 773.1491,-58.6509 770.1538,-68.8135 777.145,-68.4633"/>
<text text-anchor="middle" x="822" y="-112.4264" font-family="Times,serif" font-size="20.00" fill="#000000">nosniff</text>
</g>
<!-- SG_1_Node_12 -->
<g id="node26" class="node">
<title>SG_1_Node_12</title>
<ellipse fill="none" stroke="#000000" cx="879" cy="-37.2132" rx="34.7971" ry="21.4286"/>
<text text-anchor="middle" x="879" y="-32.2132" font-family="Times,serif" font-size="20.00" fill="#000000">1.0</text>
</g>
<!-- SG_1_Node_5&#45;&gt;SG_1_Node_12 -->
<g id="edge24" class="edge">
<title>SG_1_Node_5&#45;&gt;SG_1_Node_12</title>
<path fill="none" stroke="#000000" d="M837.2697,-179.6318C843.8505,-168.4266 851.8473,-153.5133 857,-139.4264 865.4428,-116.3449 871.109,-89.0864 874.5739,-68.526"/>
<polygon fill="#000000" stroke="#000000" points="878.0633,-68.87 876.1882,-58.4424 871.1513,-67.7633 878.0633,-68.87"/>
<text text-anchor="middle" x="901" y="-123.4264" font-family="Times,serif" font-size="20.00" fill="#000000">[NA]</text>
<text text-anchor="middle" x="901" y="-101.4264" font-family="Times,serif" font-size="20.00" fill="#000000">empty</text>
</g>
</g>
</svg>
