<?xml version="1.0" encoding="UTF-8" standalone="no"?>
<!DOCTYPE svg PUBLIC "-//W3C//DTD SVG 1.1//EN"
 "http://www.w3.org/Graphics/SVG/1.1/DTD/svg11.dtd">
<!-- Generated by graphviz version 2.40.1 (20161225.0304)
 -->
<!-- Title: G Pages: 1 -->
<svg width="1777pt" height="741pt"
 viewBox="0.00 0.00 1777.00 741.28" xmlns="http://www.w3.org/2000/svg" xmlns:xlink="http://www.w3.org/1999/xlink">
<g id="graph0" class="graph" transform="scale(1 1) rotate(0) translate(4 737.2792)">
<title>G</title>
<polygon fill="#ffffff" stroke="transparent" points="-4,4 -4,-737.2792 1773,-737.2792 1773,4 -4,4"/>
<g id="clust1" class="cluster">
<title>cluster_0</title>
<polygon fill="none" stroke="#000000" points="8,-8 8,-725.2792 439,-725.2792 439,-8 8,-8"/>
<text text-anchor="middle" x="223.5" y="-689.2792" font-family="Times,serif" font-size="40.00" fill="#000000">Tree 0, Class 1</text>
</g>
<g id="clust6" class="cluster">
<title>cluster_1</title>
<polygon fill="none" stroke="#000000" points="447,-8 447,-725.2792 1100,-725.2792 1100,-8 447,-8"/>
<text text-anchor="middle" x="773.5" y="-689.2792" font-family="Times,serif" font-size="40.00" fill="#000000">Tree 0, Class 2</text>
</g>
<g id="clust11" class="cluster">
<title>cluster_2</title>
<polygon fill="none" stroke="#000000" points="1108,-8 1108,-725.2792 1761,-725.2792 1761,-8 1108,-8"/>
<text text-anchor="middle" x="1434.5" y="-689.2792" font-family="Times,serif" font-size="40.00" fill="#000000">Tree 0, Class js&#45;NaN</text>
</g>
<!-- SG_0_Node_0 -->
<g id="node1" class="node">
<title>SG_0_Node_0</title>
<polygon fill="none" stroke="#000000" points="137.5,-665.2792 72.5,-665.2792 72.5,-629.2792 137.5,-629.2792 137.5,-665.2792"/>
<text text-anchor="middle" x="105" y="-642.2792" font-family="Times,serif" font-size="20.00" fill="#000000">body</text>
</g>
<!-- SG_0_Node_3 -->
<g id="node2" class="node">
<title>SG_0_Node_3</title>
<ellipse fill="none" stroke="#000000" cx="51" cy="-490.066" rx="34.7971" ry="21.4286"/>
<text text-anchor="middle" x="51" y="-485.066" font-family="Times,serif" font-size="20.00" fill="#000000">0.0</text>
</g>
<!-- SG_0_Node_0&#45;&gt;SG_0_Node_3 -->
<g id="edge1" class="edge">
<title>SG_0_Node_0&#45;&gt;SG_0_Node_3</title>
<path fill="none" stroke="#000000" d="M78.0988,-629.0967C66.5238,-619.6308 54.2358,-606.9616 48,-592.2792 38.501,-569.9134 40.0172,-542.2445 43.4852,-521.337"/>
<polygon fill="#000000" stroke="#000000" points="46.9495,-521.8531 45.3663,-511.3772 40.0711,-520.5539 46.9495,-521.8531"/>
<text text-anchor="middle" x="94" y="-576.2792" font-family="Times,serif" font-size="20.00" fill="#000000">[NA]</text>
<text text-anchor="middle" x="94" y="-554.2792" font-family="Times,serif" font-size="20.00" fill="#000000">12 levels</text>
</g>
<!-- SG_0_Node_1 -->
<g id="node3" class="node">
<title>SG_0_Node_1</title>
<polygon fill="none" stroke="#000000" points="246,-508.066 104,-508.066 104,-472.066 246,-472.066 246,-508.066"/>
<text text-anchor="middle" x="175" y="-485.066" font-family="Times,serif" font-size="20.00" fill="#000000">Status&#45;Code</text>
</g>
<!-- SG_0_Node_0&#45;&gt;SG_0_Node_1 -->
<g id="edge2" class="edge">
<title>SG_0_Node_0&#45;&gt;SG_0_Node_1</title>
<path fill="none" stroke="#000000" d="M118.1281,-629.0769C125.2434,-618.6552 133.8187,-605.1307 140,-592.2792 151.615,-568.1307 161.1664,-539.1025 167.3401,-518.1615"/>
<polygon fill="#000000" stroke="#000000" points="170.7751,-518.8804 170.1736,-508.3026 164.0474,-516.9467 170.7751,-518.8804"/>
<text text-anchor="middle" x="291.5" y="-565.2792" font-family="Times,serif" font-size="20.00" fill="#000000">ecocnt_audio=duration=1</text>
</g>
<!-- SG_0_Node_4 -->
<g id="node4" class="node">
<title>SG_0_Node_4</title>
<ellipse fill="none" stroke="#000000" cx="56" cy="-197.6396" rx="34.7971" ry="21.4286"/>
<text text-anchor="middle" x="56" y="-192.6396" font-family="Times,serif" font-size="20.00" fill="#000000">0.0</text>
</g>
<!-- SG_0_Node_1&#45;&gt;SG_0_Node_4 -->
<g id="edge3" class="edge">
<title>SG_0_Node_1&#45;&gt;SG_0_Node_4</title>
<path fill="none" stroke="#000000" d="M139.7459,-471.8574C124.2477,-462.0655 107.2697,-448.5479 97,-431.8528 57.6714,-367.9182 53.5274,-276.6431 54.4271,-229.1236"/>
<polygon fill="#000000" stroke="#000000" points="57.9334,-228.9433 54.7149,-218.8491 50.9361,-228.7472 57.9334,-228.9433"/>
<text text-anchor="middle" x="143" y="-349.8528" font-family="Times,serif" font-size="20.00" fill="#000000">[NA]</text>
<text text-anchor="middle" x="143" y="-327.8528" font-family="Times,serif" font-size="20.00" fill="#000000">54 levels</text>
</g>
<!-- SG_0_Node_2 -->
<g id="node5" class="node">
<title>SG_0_Node_2</title>
<polygon fill="none" stroke="#000000" points="425.5,-215.6396 108.5,-215.6396 108.5,-179.6396 425.5,-179.6396 425.5,-215.6396"/>
<text text-anchor="middle" x="267" y="-192.6396" font-family="Times,serif" font-size="20.00" fill="#000000">Cross&#45;Origin&#45;Resource&#45;Policy</text>
</g>
<!-- SG_0_Node_1&#45;&gt;SG_0_Node_2 -->
<g id="edge4" class="edge">
<title>SG_0_Node_1&#45;&gt;SG_0_Node_2</title>
<path fill="none" stroke="#000000" d="M180.755,-471.7734C196.3411,-422.2322 239.4518,-285.2027 258.1537,-225.7579"/>
<polygon fill="#000000" stroke="#000000" points="261.5847,-226.5147 261.2472,-215.9253 254.9074,-224.4139 261.5847,-226.5147"/>
<text text-anchor="middle" x="267.5" y="-415.8528" font-family="Times,serif" font-size="20.00" fill="#000000">200</text>
<text text-anchor="middle" x="267.5" y="-393.8528" font-family="Times,serif" font-size="20.00" fill="#000000">201</text>
<text text-anchor="middle" x="267.5" y="-371.8528" font-family="Times,serif" font-size="20.00" fill="#000000">202</text>
<text text-anchor="middle" x="267.5" y="-349.8528" font-family="Times,serif" font-size="20.00" fill="#000000">203</text>
<text text-anchor="middle" x="267.5" y="-327.8528" font-family="Times,serif" font-size="20.00" fill="#000000">206</text>
<text text-anchor="middle" x="267.5" y="-305.8528" font-family="Times,serif" font-size="20.00" fill="#000000">207</text>
<text text-anchor="middle" x="267.5" y="-283.8528" font-family="Times,serif" font-size="20.00" fill="#000000">208</text>
<text text-anchor="middle" x="267.5" y="-261.8528" font-family="Times,serif" font-size="20.00" fill="#000000">226</text>
</g>
<!-- SG_0_Node_5 -->
<g id="node6" class="node">
<title>SG_0_Node_5</title>
<ellipse fill="none" stroke="#000000" cx="159" cy="-37.2132" rx="34.7971" ry="21.4286"/>
<text text-anchor="middle" x="159" y="-32.2132" font-family="Times,serif" font-size="20.00" fill="#000000">0.0</text>
</g>
<!-- SG_0_Node_2&#45;&gt;SG_0_Node_5 -->
<g id="edge5" class="edge">
<title>SG_0_Node_2&#45;&gt;SG_0_Node_5</title>
<path fill="none" stroke="#000000" d="M207.7274,-179.5089C188.7866,-170.5987 169.9186,-157.7154 159,-139.4264 146.3362,-118.2142 147.4461,-89.8445 151.0941,-68.3754"/>
<polygon fill="#000000" stroke="#000000" points="154.5502,-68.9386 153.0396,-58.452 147.681,-67.5918 154.5502,-68.9386"/>
<text text-anchor="middle" x="220" y="-123.4264" font-family="Times,serif" font-size="20.00" fill="#000000">[NA]</text>
<text text-anchor="middle" x="220" y="-101.4264" font-family="Times,serif" font-size="20.00" fill="#000000">same&#45;origin</text>
</g>
<!-- SG_0_Node_6 -->
<g id="node7" class="node">
<title>SG_0_Node_6</title>
<ellipse fill="none" stroke="#000000" cx="317" cy="-37.2132" rx="34.7971" ry="21.4286"/>
<text text-anchor="middle" x="317" y="-32.2132" font-family="Times,serif" font-size="20.00" fill="#000000">1.0</text>
</g>
<!-- SG_0_Node_2&#45;&gt;SG_0_Node_6 -->
<g id="edge6" class="edge">
<title>SG_0_Node_2&#45;&gt;SG_0_Node_6</title>
<path fill="none" stroke="#000000" d="M272.6384,-179.5485C281.0865,-152.4428 297.1347,-100.9515 307.4368,-67.8972"/>
<polygon fill="#000000" stroke="#000000" points="310.8005,-68.8668 310.4347,-58.2782 304.1176,-66.7838 310.8005,-68.8668"/>
<text text-anchor="middle" x="330" y="-112.4264" font-family="Times,serif" font-size="20.00" fill="#000000">empty</text>
</g>
<!-- SG_1_Node_0 -->
<g id="node8" class="node">
<title>SG_1_Node_0</title>
<polygon fill="none" stroke="#000000" points="577.5,-665.2792 512.5,-665.2792 512.5,-629.2792 577.5,-629.2792 577.5,-665.2792"/>
<text text-anchor="middle" x="545" y="-642.2792" font-family="Times,serif" font-size="20.00" fill="#000000">body</text>
</g>
<!-- SG_1_Node_3 -->
<g id="node9" class="node">
<title>SG_1_Node_3</title>
<ellipse fill="none" stroke="#000000" cx="490" cy="-490.066" rx="34.7971" ry="21.4286"/>
<text text-anchor="middle" x="490" y="-485.066" font-family="Times,serif" font-size="20.00" fill="#000000">0.0</text>
</g>
<!-- SG_1_Node_0&#45;&gt;SG_1_Node_3 -->
<g id="edge7" class="edge">
<title>SG_1_Node_0&#45;&gt;SG_1_Node_3</title>
<path fill="none" stroke="#000000" d="M517.6374,-629.1922C505.8616,-619.7473 493.357,-607.0681 487,-592.2792 477.4039,-569.9549 478.9269,-542.2831 482.4221,-521.3639"/>
<polygon fill="#000000" stroke="#000000" points="485.8875,-521.8757 484.3185,-511.3976 479.0108,-520.5671 485.8875,-521.8757"/>
<text text-anchor="middle" x="533" y="-576.2792" font-family="Times,serif" font-size="20.00" fill="#000000">[NA]</text>
<text text-anchor="middle" x="533" y="-554.2792" font-family="Times,serif" font-size="20.00" fill="#000000">12 levels</text>
</g>
<!-- SG_1_Node_1 -->
<g id="node10" class="node">
<title>SG_1_Node_1</title>
<polygon fill="none" stroke="#000000" points="685,-508.066 543,-508.066 543,-472.066 685,-472.066 685,-508.066"/>
<text text-anchor="middle" x="614" y="-485.066" font-family="Times,serif" font-size="20.00" fill="#000000">Status&#45;Code</text>
</g>
<!-- SG_1_Node_0&#45;&gt;SG_1_Node_1 -->
<g id="edge8" class="edge">
<title>SG_1_Node_0&#45;&gt;SG_1_Node_1</title>
<path fill="none" stroke="#000000" d="M557.7198,-629.0266C564.6214,-618.5891 572.9523,-605.0657 579,-592.2792 590.4572,-568.0554 600.0269,-539.0359 606.2476,-518.1174"/>
<polygon fill="#000000" stroke="#000000" points="609.6794,-518.8501 609.1068,-508.2707 602.957,-516.8981 609.6794,-518.8501"/>
<text text-anchor="middle" x="841.5" y="-565.2792" font-family="Times,serif" font-size="20.00" fill="#000000">ecocnt_vid=width=100,height=100,duration=2</text>
</g>
<!-- SG_1_Node_4 -->
<g id="node11" class="node">
<title>SG_1_Node_4</title>
<ellipse fill="none" stroke="#000000" cx="552" cy="-197.6396" rx="34.7971" ry="21.4286"/>
<text text-anchor="middle" x="552" y="-192.6396" font-family="Times,serif" font-size="20.00" fill="#000000">0.0</text>
</g>
<!-- SG_1_Node_1&#45;&gt;SG_1_Node_4 -->
<g id="edge9" class="edge">
<title>SG_1_Node_1&#45;&gt;SG_1_Node_4</title>
<path fill="none" stroke="#000000" d="M610.1216,-471.7734C599.7967,-423.0752 571.5485,-289.841 558.6191,-228.8592"/>
<polygon fill="#000000" stroke="#000000" points="562.0335,-228.0879 556.5355,-219.0313 555.1857,-229.5398 562.0335,-228.0879"/>
<text text-anchor="middle" x="647" y="-349.8528" font-family="Times,serif" font-size="20.00" fill="#000000">[NA]</text>
<text text-anchor="middle" x="647" y="-327.8528" font-family="Times,serif" font-size="20.00" fill="#000000">54 levels</text>
</g>
<!-- SG_1_Node_2 -->
<g id="node12" class="node">
<title>SG_1_Node_2</title>
<polygon fill="none" stroke="#000000" points="921.5,-215.6396 604.5,-215.6396 604.5,-179.6396 921.5,-179.6396 921.5,-215.6396"/>
<text text-anchor="middle" x="763" y="-192.6396" font-family="Times,serif" font-size="20.00" fill="#000000">Cross&#45;Origin&#45;Resource&#45;Policy</text>
</g>
<!-- SG_1_Node_1&#45;&gt;SG_1_Node_2 -->
<g id="edge10" class="edge">
<title>SG_1_Node_1&#45;&gt;SG_1_Node_2</title>
<path fill="none" stroke="#000000" d="M650.7214,-471.8198C667.0395,-462.0197 685.1885,-448.506 697,-431.8528 742.5743,-367.5967 756.7734,-272.6797 761.1245,-225.8633"/>
<polygon fill="#000000" stroke="#000000" points="764.6173,-226.0951 761.9722,-215.8358 757.6422,-225.5054 764.6173,-226.0951"/>
<text text-anchor="middle" x="776.5" y="-415.8528" font-family="Times,serif" font-size="20.00" fill="#000000">200</text>
<text text-anchor="middle" x="776.5" y="-393.8528" font-family="Times,serif" font-size="20.00" fill="#000000">201</text>
<text text-anchor="middle" x="776.5" y="-371.8528" font-family="Times,serif" font-size="20.00" fill="#000000">202</text>
<text text-anchor="middle" x="776.5" y="-349.8528" font-family="Times,serif" font-size="20.00" fill="#000000">203</text>
<text text-anchor="middle" x="776.5" y="-327.8528" font-family="Times,serif" font-size="20.00" fill="#000000">206</text>
<text text-anchor="middle" x="776.5" y="-305.8528" font-family="Times,serif" font-size="20.00" fill="#000000">207</text>
<text text-anchor="middle" x="776.5" y="-283.8528" font-family="Times,serif" font-size="20.00" fill="#000000">208</text>
<text text-anchor="middle" x="776.5" y="-261.8528" font-family="Times,serif" font-size="20.00" fill="#000000">226</text>
</g>
<!-- SG_1_Node_5 -->
<g id="node13" class="node">
<title>SG_1_Node_5</title>
<ellipse fill="none" stroke="#000000" cx="684" cy="-37.2132" rx="34.7971" ry="21.4286"/>
<text text-anchor="middle" x="684" y="-32.2132" font-family="Times,serif" font-size="20.00" fill="#000000">0.0</text>
</g>
<!-- SG_1_Node_2&#45;&gt;SG_1_Node_5 -->
<g id="edge11" class="edge">
<title>SG_1_Node_2&#45;&gt;SG_1_Node_5</title>
<path fill="none" stroke="#000000" d="M734.6772,-179.4006C721.3428,-169.2751 706.5276,-155.4807 698,-139.4264 686.4278,-117.6402 683.2551,-89.7103 682.7936,-68.5536"/>
<polygon fill="#000000" stroke="#000000" points="686.2934,-68.4624 682.7644,-58.4726 679.2935,-68.4827 686.2934,-68.4624"/>
<text text-anchor="middle" x="759" y="-123.4264" font-family="Times,serif" font-size="20.00" fill="#000000">[NA]</text>
<text text-anchor="middle" x="759" y="-101.4264" font-family="Times,serif" font-size="20.00" fill="#000000">same&#45;origin</text>
</g>
<!-- SG_1_Node_6 -->
<g id="node14" class="node">
<title>SG_1_Node_6</title>
<ellipse fill="none" stroke="#000000" cx="842" cy="-37.2132" rx="34.7971" ry="21.4286"/>
<text text-anchor="middle" x="842" y="-32.2132" font-family="Times,serif" font-size="20.00" fill="#000000">1.0</text>
</g>
<!-- SG_1_Node_2&#45;&gt;SG_1_Node_6 -->
<g id="edge12" class="edge">
<title>SG_1_Node_2&#45;&gt;SG_1_Node_6</title>
<path fill="none" stroke="#000000" d="M786.2094,-179.4897C798.0596,-169.014 811.6925,-154.8734 820,-139.4264 831.768,-117.545 837.2412,-89.8425 839.7867,-68.7988"/>
<polygon fill="#000000" stroke="#000000" points="843.277,-69.0746 840.8425,-58.7633 836.3154,-68.3422 843.277,-69.0746"/>
<text text-anchor="middle" x="867" y="-112.4264" font-family="Times,serif" font-size="20.00" fill="#000000">empty</text>
</g>
<!-- SG_2_Node_0 -->
<g id="node15" class="node">
<title>SG_2_Node_0</title>
<polygon fill="none" stroke="#000000" points="1437.5,-665.2792 1372.5,-665.2792 1372.5,-629.2792 1437.5,-629.2792 1437.5,-665.2792"/>
<text text-anchor="middle" x="1405" y="-642.2792" font-family="Times,serif" font-size="20.00" fill="#000000">body</text>
</g>
<!-- SG_2_Node_1 -->
<g id="node16" class="node">
<title>SG_2_Node_1</title>
<polygon fill="none" stroke="#000000" points="1346,-508.066 1204,-508.066 1204,-472.066 1346,-472.066 1346,-508.066"/>
<text text-anchor="middle" x="1275" y="-485.066" font-family="Times,serif" font-size="20.00" fill="#000000">Status&#45;Code</text>
</g>
<!-- SG_2_Node_0&#45;&gt;SG_2_Node_1 -->
<g id="edge13" class="edge">
<title>SG_2_Node_0&#45;&gt;SG_2_Node_1</title>
<path fill="none" stroke="#000000" d="M1372.4608,-645.2557C1309.7573,-640.6058 1175.9013,-626.7833 1148,-592.2792 1135.7038,-577.0732 1137.4389,-564.7378 1148,-548.2792 1158.9254,-531.2528 1176.2132,-519.1417 1194.5576,-510.5503"/>
<polygon fill="#000000" stroke="#000000" points="1196.1381,-513.6799 1203.9203,-506.4905 1193.3533,-507.2577 1196.1381,-513.6799"/>
<text text-anchor="middle" x="1393.5" y="-576.2792" font-family="Times,serif" font-size="20.00" fill="#000000">ecocnt_audio=duration=1</text>
<text text-anchor="middle" x="1393.5" y="-554.2792" font-family="Times,serif" font-size="20.00" fill="#000000">ecocnt_vid=width=100,height=100,duration=2</text>
</g>
<!-- SG_2_Node_3 -->
<g id="node17" class="node">
<title>SG_2_Node_3</title>
<ellipse fill="none" stroke="#000000" cx="1661" cy="-490.066" rx="34.7971" ry="21.4286"/>
<text text-anchor="middle" x="1661" y="-485.066" font-family="Times,serif" font-size="20.00" fill="#000000">1.0</text>
</g>
<!-- SG_2_Node_0&#45;&gt;SG_2_Node_3 -->
<g id="edge14" class="edge">
<title>SG_2_Node_0&#45;&gt;SG_2_Node_3</title>
<path fill="none" stroke="#000000" d="M1437.6491,-643.892C1495.1767,-637.2532 1611.1588,-620.6502 1639,-592.2792 1657.1095,-573.8251 1661.8774,-544.2625 1662.544,-521.6666"/>
<polygon fill="#000000" stroke="#000000" points="1666.0444,-521.5423 1662.5887,-511.5269 1659.0445,-521.5113 1666.0444,-521.5423"/>
<text text-anchor="middle" x="1705" y="-576.2792" font-family="Times,serif" font-size="20.00" fill="#000000">[NA]</text>
<text text-anchor="middle" x="1705" y="-554.2792" font-family="Times,serif" font-size="20.00" fill="#000000">11 levels</text>
</g>
<!-- SG_2_Node_2 -->
<g id="node18" class="node">
<title>SG_2_Node_2</title>
<polygon fill="none" stroke="#000000" points="1433.5,-215.6396 1116.5,-215.6396 1116.5,-179.6396 1433.5,-179.6396 1433.5,-215.6396"/>
<text text-anchor="middle" x="1275" y="-192.6396" font-family="Times,serif" font-size="20.00" fill="#000000">Cross&#45;Origin&#45;Resource&#45;Policy</text>
</g>
<!-- SG_2_Node_1&#45;&gt;SG_2_Node_2 -->
<g id="edge15" class="edge">
<title>SG_2_Node_1&#45;&gt;SG_2_Node_2</title>
<path fill="none" stroke="#000000" d="M1275,-471.7734C1275,-422.3347 1275,-285.7698 1275,-226.1281"/>
<polygon fill="#000000" stroke="#000000" points="1278.5001,-225.9252 1275,-215.9253 1271.5001,-225.9253 1278.5001,-225.9252"/>
<text text-anchor="middle" x="1294.5" y="-415.8528" font-family="Times,serif" font-size="20.00" fill="#000000">200</text>
<text text-anchor="middle" x="1294.5" y="-393.8528" font-family="Times,serif" font-size="20.00" fill="#000000">201</text>
<text text-anchor="middle" x="1294.5" y="-371.8528" font-family="Times,serif" font-size="20.00" fill="#000000">202</text>
<text text-anchor="middle" x="1294.5" y="-349.8528" font-family="Times,serif" font-size="20.00" fill="#000000">203</text>
<text text-anchor="middle" x="1294.5" y="-327.8528" font-family="Times,serif" font-size="20.00" fill="#000000">206</text>
<text text-anchor="middle" x="1294.5" y="-305.8528" font-family="Times,serif" font-size="20.00" fill="#000000">207</text>
<text text-anchor="middle" x="1294.5" y="-283.8528" font-family="Times,serif" font-size="20.00" fill="#000000">208</text>
<text text-anchor="middle" x="1294.5" y="-261.8528" font-family="Times,serif" font-size="20.00" fill="#000000">226</text>
</g>
<!-- SG_2_Node_4 -->
<g id="node19" class="node">
<title>SG_2_Node_4</title>
<ellipse fill="none" stroke="#000000" cx="1486" cy="-197.6396" rx="34.7971" ry="21.4286"/>
<text text-anchor="middle" x="1486" y="-192.6396" font-family="Times,serif" font-size="20.00" fill="#000000">1.0</text>
</g>
<!-- SG_2_Node_1&#45;&gt;SG_2_Node_4 -->
<g id="edge16" class="edge">
<title>SG_2_Node_1&#45;&gt;SG_2_Node_4</title>
<path fill="none" stroke="#000000" d="M1288.4298,-472.0208C1296.9432,-460.5481 1308.1653,-445.3634 1318,-431.8528 1372.1142,-357.5125 1435.0983,-269.2248 1466.3396,-225.3119"/>
<polygon fill="#000000" stroke="#000000" points="1469.2091,-227.3161 1472.1526,-217.1383 1463.5046,-223.2591 1469.2091,-227.3161"/>
<text text-anchor="middle" x="1488" y="-349.8528" font-family="Times,serif" font-size="20.00" fill="#000000">[NA]</text>
<text text-anchor="middle" x="1488" y="-327.8528" font-family="Times,serif" font-size="20.00" fill="#000000">54 levels</text>
</g>
<!-- SG_2_Node_5 -->
<g id="node20" class="node">
<title>SG_2_Node_5</title>
<ellipse fill="none" stroke="#000000" cx="1225" cy="-37.2132" rx="34.7971" ry="21.4286"/>
<text text-anchor="middle" x="1225" y="-32.2132" font-family="Times,serif" font-size="20.00" fill="#000000">0.0</text>
</g>
<!-- SG_2_Node_2&#45;&gt;SG_2_Node_5 -->
<g id="edge17" class="edge">
<title>SG_2_Node_2&#45;&gt;SG_2_Node_5</title>
<path fill="none" stroke="#000000" d="M1261.0384,-179.525C1253.2847,-168.521 1244.184,-153.8522 1239,-139.4264 1230.7986,-116.604 1227.3564,-89.3305 1225.9333,-68.6985"/>
<polygon fill="#000000" stroke="#000000" points="1229.4197,-68.359 1225.3586,-58.5735 1222.431,-68.7557 1229.4197,-68.359"/>
<text text-anchor="middle" x="1271" y="-112.4264" font-family="Times,serif" font-size="20.00" fill="#000000">empty</text>
</g>
<!-- SG_2_Node_6 -->
<g id="node21" class="node">
<title>SG_2_Node_6</title>
<ellipse fill="none" stroke="#000000" cx="1325" cy="-37.2132" rx="34.7971" ry="21.4286"/>
<text text-anchor="middle" x="1325" y="-32.2132" font-family="Times,serif" font-size="20.00" fill="#000000">1.0</text>
</g>
<!-- SG_2_Node_2&#45;&gt;SG_2_Node_6 -->
<g id="edge18" class="edge">
<title>SG_2_Node_2&#45;&gt;SG_2_Node_6</title>
<path fill="none" stroke="#000000" d="M1285.1012,-179.4966C1291.0168,-168.242 1298.2371,-153.3243 1303,-139.4264 1310.9679,-116.1767 1316.6615,-88.9279 1320.2577,-68.414"/>
<polygon fill="#000000" stroke="#000000" points="1323.742,-68.7991 1321.948,-58.3573 1316.8388,-67.6388 1323.742,-68.7991"/>
<text text-anchor="middle" x="1375" y="-123.4264" font-family="Times,serif" font-size="20.00" fill="#000000">[NA]</text>
<text text-anchor="middle" x="1375" y="-101.4264" font-family="Times,serif" font-size="20.00" fill="#000000">same&#45;origin</text>
</g>
</g>
</svg>
