<?xml version="1.0" encoding="UTF-8" standalone="no"?>
<!DOCTYPE svg PUBLIC "-//W3C//DTD SVG 1.1//EN"
 "http://www.w3.org/Graphics/SVG/1.1/DTD/svg11.dtd">
<!-- Generated by graphviz version 2.40.1 (20161225.0304)
 -->
<!-- Title: G Pages: 1 -->
<svg width="2734pt" height="1179pt"
 viewBox="0.00 0.00 2734.00 1178.56" xmlns="http://www.w3.org/2000/svg" xmlns:xlink="http://www.w3.org/1999/xlink">
<g id="graph0" class="graph" transform="scale(1 1) rotate(0) translate(4 1174.5584)">
<title>G</title>
<polygon fill="#ffffff" stroke="transparent" points="-4,4 -4,-1174.5584 2730,-1174.5584 2730,4 -4,4"/>
<g id="clust1" class="cluster">
<title>cluster_0</title>
<polygon fill="none" stroke="#000000" points="8,-8 8,-1162.5584 687,-1162.5584 687,-8 8,-8"/>
<text text-anchor="middle" x="347.5" y="-1126.5584" font-family="Times,serif" font-size="40.00" fill="#000000">Tree 0, Class [&#39;loadstart&#39;, &#39;error&#39;]</text>
</g>
<g id="clust9" class="cluster">
<title>cluster_1</title>
<polygon fill="none" stroke="#000000" points="695,-8 695,-1162.5584 2718,-1162.5584 2718,-8 695,-8"/>
<text text-anchor="middle" x="1706.5" y="-1126.5584" font-family="Times,serif" font-size="40.00" fill="#000000">Tree 0, Class [&#39;loadstart&#39;, &#39;progress&#39;, &#39;suspend&#39;, &#39;durationchange&#39;, &#39;resize&#39;, &#39;loadedmetadata&#39;, &#39;error&#39;]</text>
</g>
<!-- SG_0_Node_0 -->
<g id="node1" class="node">
<title>SG_0_Node_0</title>
<polygon fill="none" stroke="#000000" points="435.5,-1102.5584 370.5,-1102.5584 370.5,-1066.5584 435.5,-1066.5584 435.5,-1102.5584"/>
<text text-anchor="middle" x="403" y="-1079.5584" font-family="Times,serif" font-size="20.00" fill="#000000">body</text>
</g>
<!-- SG_0_Node_1 -->
<g id="node2" class="node">
<title>SG_0_Node_1</title>
<polygon fill="none" stroke="#000000" points="322,-945.3452 180,-945.3452 180,-909.3452 322,-909.3452 322,-945.3452"/>
<text text-anchor="middle" x="251" y="-922.3452" font-family="Times,serif" font-size="20.00" fill="#000000">Status&#45;Code</text>
</g>
<!-- SG_0_Node_0&#45;&gt;SG_0_Node_1 -->
<g id="edge1" class="edge">
<title>SG_0_Node_0&#45;&gt;SG_0_Node_1</title>
<path fill="none" stroke="#000000" d="M370.3626,-1080.9189C338.2727,-1075.5029 290.5048,-1062.1624 265,-1029.5584 248.7827,-1008.8272 246.5708,-978.2159 247.629,-955.8989"/>
<polygon fill="#000000" stroke="#000000" points="251.1368,-955.9147 248.3641,-945.6892 244.1549,-955.412 251.1368,-955.9147"/>
<text text-anchor="middle" x="399.5" y="-1002.5584" font-family="Times,serif" font-size="20.00" fill="#000000">ecocnt_audio=duration=1</text>
</g>
<!-- SG_0_Node_6 -->
<g id="node3" class="node">
<title>SG_0_Node_6</title>
<ellipse fill="none" stroke="#000000" cx="556" cy="-927.3452" rx="34.7971" ry="21.4286"/>
<text text-anchor="middle" x="556" y="-922.3452" font-family="Times,serif" font-size="20.00" fill="#000000">1.0</text>
</g>
<!-- SG_0_Node_0&#45;&gt;SG_0_Node_6 -->
<g id="edge2" class="edge">
<title>SG_0_Node_0&#45;&gt;SG_0_Node_6</title>
<path fill="none" stroke="#000000" d="M435.5261,-1079.6149C465.6023,-1073.2945 509.2704,-1059.3603 534,-1029.5584 550.3365,-1009.8712 555.3533,-980.8811 556.5628,-958.7984"/>
<polygon fill="#000000" stroke="#000000" points="560.0679,-958.6887 556.8836,-948.5837 553.0713,-958.4689 560.0679,-958.6887"/>
<text text-anchor="middle" x="599" y="-1013.5584" font-family="Times,serif" font-size="20.00" fill="#000000">[NA]</text>
<text text-anchor="middle" x="599" y="-991.5584" font-family="Times,serif" font-size="20.00" fill="#000000">12 levels</text>
</g>
<!-- SG_0_Node_2 -->
<g id="node4" class="node">
<title>SG_0_Node_2</title>
<polygon fill="none" stroke="#000000" points="342.5,-784.9188 25.5,-784.9188 25.5,-748.9188 342.5,-748.9188 342.5,-784.9188"/>
<text text-anchor="middle" x="184" y="-761.9188" font-family="Times,serif" font-size="20.00" fill="#000000">Cross&#45;Origin&#45;Resource&#45;Policy</text>
</g>
<!-- SG_0_Node_1&#45;&gt;SG_0_Node_2 -->
<g id="edge3" class="edge">
<title>SG_0_Node_1&#45;&gt;SG_0_Node_2</title>
<path fill="none" stroke="#000000" d="M243.4445,-909.2541C231.783,-881.3315 209.314,-827.5314 195.5881,-794.6657"/>
<polygon fill="#000000" stroke="#000000" points="198.7142,-793.0687 191.6307,-785.19 192.2549,-795.7664 198.7142,-793.0687"/>
<text text-anchor="middle" x="245.5" y="-842.132" font-family="Times,serif" font-size="20.00" fill="#000000">200</text>
</g>
<!-- SG_0_Node_7 -->
<g id="node5" class="node">
<title>SG_0_Node_7</title>
<ellipse fill="none" stroke="#000000" cx="395" cy="-766.9188" rx="34.7971" ry="21.4286"/>
<text text-anchor="middle" x="395" y="-761.9188" font-family="Times,serif" font-size="20.00" fill="#000000">1.0</text>
</g>
<!-- SG_0_Node_1&#45;&gt;SG_0_Node_7 -->
<g id="edge4" class="edge">
<title>SG_0_Node_1&#45;&gt;SG_0_Node_7</title>
<path fill="none" stroke="#000000" d="M267.2387,-909.2541C292.5988,-881.0012 341.7396,-826.2548 371.1332,-793.5081"/>
<polygon fill="#000000" stroke="#000000" points="374.079,-795.466 378.1542,-785.6862 368.8698,-790.7901 374.079,-795.466"/>
<text text-anchor="middle" x="387" y="-853.132" font-family="Times,serif" font-size="20.00" fill="#000000">[NA]</text>
<text text-anchor="middle" x="387" y="-831.132" font-family="Times,serif" font-size="20.00" fill="#000000">61 levels</text>
</g>
<!-- SG_0_Node_3 -->
<g id="node6" class="node">
<title>SG_0_Node_3</title>
<polygon fill="none" stroke="#000000" points="216.5,-624.4924 61.5,-624.4924 61.5,-588.4924 216.5,-588.4924 216.5,-624.4924"/>
<text text-anchor="middle" x="139" y="-601.4924" font-family="Times,serif" font-size="20.00" fill="#000000">Content&#45;Type</text>
</g>
<!-- SG_0_Node_2&#45;&gt;SG_0_Node_3 -->
<g id="edge5" class="edge">
<title>SG_0_Node_2&#45;&gt;SG_0_Node_3</title>
<path fill="none" stroke="#000000" d="M178.9254,-748.8277C171.1268,-721.0255 156.1319,-667.5683 146.9026,-634.6655"/>
<polygon fill="#000000" stroke="#000000" points="150.1959,-633.4466 144.1251,-624.7636 143.456,-635.3372 150.1959,-633.4466"/>
<text text-anchor="middle" x="199" y="-681.7056" font-family="Times,serif" font-size="20.00" fill="#000000">empty</text>
</g>
<!-- SG_0_Node_8 -->
<g id="node7" class="node">
<title>SG_0_Node_8</title>
<ellipse fill="none" stroke="#000000" cx="269" cy="-606.4924" rx="34.7971" ry="21.4286"/>
<text text-anchor="middle" x="269" y="-601.4924" font-family="Times,serif" font-size="20.00" fill="#000000">1.0</text>
</g>
<!-- SG_0_Node_2&#45;&gt;SG_0_Node_8 -->
<g id="edge6" class="edge">
<title>SG_0_Node_2&#45;&gt;SG_0_Node_8</title>
<path fill="none" stroke="#000000" d="M203.3367,-748.75C213.8991,-737.9543 226.5169,-723.5119 235,-708.7056 247.7252,-686.4953 256.5625,-658.8156 262.0316,-637.8644"/>
<polygon fill="#000000" stroke="#000000" points="265.4976,-638.4297 264.5176,-627.8803 258.705,-636.7383 265.4976,-638.4297"/>
<text text-anchor="middle" x="314" y="-692.7056" font-family="Times,serif" font-size="20.00" fill="#000000">[NA]</text>
<text text-anchor="middle" x="314" y="-670.7056" font-family="Times,serif" font-size="20.00" fill="#000000">same&#45;origin</text>
</g>
<!-- SG_0_Node_9 -->
<g id="node8" class="node">
<title>SG_0_Node_9</title>
<ellipse fill="none" stroke="#000000" cx="64" cy="-336.066" rx="34.7971" ry="21.4286"/>
<text text-anchor="middle" x="64" y="-331.066" font-family="Times,serif" font-size="20.00" fill="#000000">0.0</text>
</g>
<!-- SG_0_Node_3&#45;&gt;SG_0_Node_9 -->
<g id="edge7" class="edge">
<title>SG_0_Node_3&#45;&gt;SG_0_Node_9</title>
<path fill="none" stroke="#000000" d="M112.259,-588.3873C99.5396,-578.2078 85.5017,-564.3252 78,-548.2792 50.3219,-489.0766 54.2248,-410.2931 59.2695,-367.3069"/>
<polygon fill="#000000" stroke="#000000" points="62.7673,-367.545 60.5581,-357.1831 55.8233,-366.6611 62.7673,-367.545"/>
<text text-anchor="middle" x="189" y="-532.2792" font-family="Times,serif" font-size="20.00" fill="#000000">[NA]</text>
<text text-anchor="middle" x="189" y="-510.2792" font-family="Times,serif" font-size="20.00" fill="#000000">application/javascript</text>
<text text-anchor="middle" x="189" y="-488.2792" font-family="Times,serif" font-size="20.00" fill="#000000">audio/wav</text>
<text text-anchor="middle" x="189" y="-466.2792" font-family="Times,serif" font-size="20.00" fill="#000000">empty</text>
<text text-anchor="middle" x="189" y="-444.2792" font-family="Times,serif" font-size="20.00" fill="#000000">image/png</text>
<text text-anchor="middle" x="189" y="-422.2792" font-family="Times,serif" font-size="20.00" fill="#000000">text/css</text>
<text text-anchor="middle" x="189" y="-400.2792" font-family="Times,serif" font-size="20.00" fill="#000000">video/mp4</text>
</g>
<!-- SG_0_Node_4 -->
<g id="node9" class="node">
<title>SG_0_Node_4</title>
<polygon fill="none" stroke="#000000" points="399.5,-354.066 244.5,-354.066 244.5,-318.066 399.5,-318.066 399.5,-354.066"/>
<text text-anchor="middle" x="322" y="-331.066" font-family="Times,serif" font-size="20.00" fill="#000000">Content&#45;Type</text>
</g>
<!-- SG_0_Node_3&#45;&gt;SG_0_Node_4 -->
<g id="edge8" class="edge">
<title>SG_0_Node_3&#45;&gt;SG_0_Node_4</title>
<path fill="none" stroke="#000000" d="M211.5878,-588.3711C248.6606,-577.5908 288.375,-563.1479 300,-548.2792 341.9423,-494.6343 334.9901,-408.5964 327.7386,-364.3558"/>
<polygon fill="#000000" stroke="#000000" points="331.1499,-363.5466 325.966,-354.3066 324.2564,-364.7626 331.1499,-363.5466"/>
<text text-anchor="middle" x="410" y="-477.2792" font-family="Times,serif" font-size="20.00" fill="#000000">application/pdf</text>
<text text-anchor="middle" x="410" y="-455.2792" font-family="Times,serif" font-size="20.00" fill="#000000">text/html</text>
</g>
<!-- SG_0_Node_5 -->
<g id="node10" class="node">
<title>SG_0_Node_5</title>
<polygon fill="none" stroke="#000000" points="290,-215.6396 28,-215.6396 28,-179.6396 290,-179.6396 290,-215.6396"/>
<text text-anchor="middle" x="159" y="-192.6396" font-family="Times,serif" font-size="20.00" fill="#000000">X&#45;Content&#45;Type&#45;Options</text>
</g>
<!-- SG_0_Node_4&#45;&gt;SG_0_Node_5 -->
<g id="edge9" class="edge">
<title>SG_0_Node_4&#45;&gt;SG_0_Node_5</title>
<path fill="none" stroke="#000000" d="M290.1936,-317.9051C272.5937,-307.2201 250.7561,-292.8832 233,-277.8528 213.4885,-261.3365 193.9887,-239.9489 179.9079,-223.4124"/>
<polygon fill="#000000" stroke="#000000" points="182.5654,-221.1344 173.4545,-215.7268 177.2046,-225.6358 182.5654,-221.1344"/>
<text text-anchor="middle" x="280" y="-261.8528" font-family="Times,serif" font-size="20.00" fill="#000000">text/html</text>
</g>
<!-- SG_0_Node_10 -->
<g id="node11" class="node">
<title>SG_0_Node_10</title>
<ellipse fill="none" stroke="#000000" cx="343" cy="-197.6396" rx="34.7971" ry="21.4286"/>
<text text-anchor="middle" x="343" y="-192.6396" font-family="Times,serif" font-size="20.00" fill="#000000">1.0</text>
</g>
<!-- SG_0_Node_4&#45;&gt;SG_0_Node_10 -->
<g id="edge10" class="edge">
<title>SG_0_Node_4&#45;&gt;SG_0_Node_10</title>
<path fill="none" stroke="#000000" d="M324.7454,-317.9692C328.1761,-295.3549 334.1022,-256.2913 338.2697,-228.8205"/>
<polygon fill="#000000" stroke="#000000" points="341.7324,-229.33 339.7719,-218.9181 334.8116,-228.28 341.7324,-229.33"/>
<text text-anchor="middle" x="410" y="-261.8528" font-family="Times,serif" font-size="20.00" fill="#000000">application/pdf</text>
</g>
<!-- SG_0_Node_11 -->
<g id="node12" class="node">
<title>SG_0_Node_11</title>
<ellipse fill="none" stroke="#000000" cx="71" cy="-37.2132" rx="34.7971" ry="21.4286"/>
<text text-anchor="middle" x="71" y="-32.2132" font-family="Times,serif" font-size="20.00" fill="#000000">0.0</text>
</g>
<!-- SG_0_Node_5&#45;&gt;SG_0_Node_11 -->
<g id="edge11" class="edge">
<title>SG_0_Node_5&#45;&gt;SG_0_Node_11</title>
<path fill="none" stroke="#000000" d="M132.3876,-179.4707C119.2605,-169.1825 104.2899,-155.2212 95,-139.4264 82.2722,-117.7865 76.2929,-89.8455 73.4846,-68.6472"/>
<polygon fill="#000000" stroke="#000000" points="76.9418,-68.0746 72.3156,-58.5432 69.9882,-68.8793 76.9418,-68.0746"/>
<text text-anchor="middle" x="127" y="-123.4264" font-family="Times,serif" font-size="20.00" fill="#000000">[NA]</text>
<text text-anchor="middle" x="127" y="-101.4264" font-family="Times,serif" font-size="20.00" fill="#000000">empty</text>
</g>
<!-- SG_0_Node_12 -->
<g id="node13" class="node">
<title>SG_0_Node_12</title>
<ellipse fill="none" stroke="#000000" cx="171" cy="-37.2132" rx="34.7971" ry="21.4286"/>
<text text-anchor="middle" x="171" y="-32.2132" font-family="Times,serif" font-size="20.00" fill="#000000">1.0</text>
</g>
<!-- SG_0_Node_5&#45;&gt;SG_0_Node_12 -->
<g id="edge12" class="edge">
<title>SG_0_Node_5&#45;&gt;SG_0_Node_12</title>
<path fill="none" stroke="#000000" d="M160.3532,-179.5485C162.3665,-152.6336 166.1782,-101.6751 168.6524,-68.5978"/>
<polygon fill="#000000" stroke="#000000" points="172.149,-68.7731 169.4047,-58.5399 165.1685,-68.2509 172.149,-68.7731"/>
<text text-anchor="middle" x="201" y="-112.4264" font-family="Times,serif" font-size="20.00" fill="#000000">nosniff</text>
</g>
<!-- SG_1_Node_0 -->
<g id="node14" class="node">
<title>SG_1_Node_0</title>
<polygon fill="none" stroke="#000000" points="877.5,-1102.5584 812.5,-1102.5584 812.5,-1066.5584 877.5,-1066.5584 877.5,-1102.5584"/>
<text text-anchor="middle" x="845" y="-1079.5584" font-family="Times,serif" font-size="20.00" fill="#000000">body</text>
</g>
<!-- SG_1_Node_6 -->
<g id="node15" class="node">
<title>SG_1_Node_6</title>
<ellipse fill="none" stroke="#000000" cx="781" cy="-927.3452" rx="34.7971" ry="21.4286"/>
<text text-anchor="middle" x="781" y="-922.3452" font-family="Times,serif" font-size="20.00" fill="#000000">0.0</text>
</g>
<!-- SG_1_Node_0&#45;&gt;SG_1_Node_6 -->
<g id="edge13" class="edge">
<title>SG_1_Node_0&#45;&gt;SG_1_Node_6</title>
<path fill="none" stroke="#000000" d="M823.2079,-1066.363C812.9493,-1056.5508 801.5534,-1043.5889 795,-1029.5584 784.6725,-1007.4477 781.3724,-979.9193 780.5448,-959.0034"/>
<polygon fill="#000000" stroke="#000000" points="784.0378,-958.6507 780.3133,-948.7322 777.0396,-958.8085 784.0378,-958.6507"/>
<text text-anchor="middle" x="841" y="-1013.5584" font-family="Times,serif" font-size="20.00" fill="#000000">[NA]</text>
<text text-anchor="middle" x="841" y="-991.5584" font-family="Times,serif" font-size="20.00" fill="#000000">12 levels</text>
</g>
<!-- SG_1_Node_1 -->
<g id="node16" class="node">
<title>SG_1_Node_1</title>
<polygon fill="none" stroke="#000000" points="980,-945.3452 838,-945.3452 838,-909.3452 980,-909.3452 980,-945.3452"/>
<text text-anchor="middle" x="909" y="-922.3452" font-family="Times,serif" font-size="20.00" fill="#000000">Status&#45;Code</text>
</g>
<!-- SG_1_Node_0&#45;&gt;SG_1_Node_1 -->
<g id="edge14" class="edge">
<title>SG_1_Node_0&#45;&gt;SG_1_Node_1</title>
<path fill="none" stroke="#000000" d="M862.4302,-1066.0669C871.0355,-1055.9839 880.8619,-1042.8688 887,-1029.5584 897.9246,-1005.8686 903.5168,-976.5631 906.3207,-955.4136"/>
<polygon fill="#000000" stroke="#000000" points="909.7988,-955.8046 907.5154,-945.4588 902.8487,-954.9704 909.7988,-955.8046"/>
<text text-anchor="middle" x="1035.5" y="-1002.5584" font-family="Times,serif" font-size="20.00" fill="#000000">ecocnt_audio=duration=1</text>
</g>
<!-- SG_1_Node_7 -->
<g id="node17" class="node">
<title>SG_1_Node_7</title>
<ellipse fill="none" stroke="#000000" cx="762" cy="-766.9188" rx="34.7971" ry="21.4286"/>
<text text-anchor="middle" x="762" y="-761.9188" font-family="Times,serif" font-size="20.00" fill="#000000">0.0</text>
</g>
<!-- SG_1_Node_1&#45;&gt;SG_1_Node_7 -->
<g id="edge15" class="edge">
<title>SG_1_Node_1&#45;&gt;SG_1_Node_7</title>
<path fill="none" stroke="#000000" d="M882.9002,-909.2415C868.2913,-898.4669 850.2142,-884.0237 836,-869.132 814.2935,-846.3911 793.6703,-817.0282 779.7364,-795.6126"/>
<polygon fill="#000000" stroke="#000000" points="782.5347,-793.4925 774.1906,-786.9636 776.642,-797.2709 782.5347,-793.4925"/>
<text text-anchor="middle" x="882" y="-853.132" font-family="Times,serif" font-size="20.00" fill="#000000">[NA]</text>
<text text-anchor="middle" x="882" y="-831.132" font-family="Times,serif" font-size="20.00" fill="#000000">61 levels</text>
</g>
<!-- SG_1_Node_2 -->
<g id="node18" class="node">
<title>SG_1_Node_2</title>
<polygon fill="none" stroke="#000000" points="1131.5,-784.9188 814.5,-784.9188 814.5,-748.9188 1131.5,-748.9188 1131.5,-784.9188"/>
<text text-anchor="middle" x="973" y="-761.9188" font-family="Times,serif" font-size="20.00" fill="#000000">Cross&#45;Origin&#45;Resource&#45;Policy</text>
</g>
<!-- SG_1_Node_1&#45;&gt;SG_1_Node_2 -->
<g id="edge16" class="edge">
<title>SG_1_Node_1&#45;&gt;SG_1_Node_2</title>
<path fill="none" stroke="#000000" d="M916.2172,-909.2541C927.3566,-881.3315 948.8194,-827.5314 961.9307,-794.6657"/>
<polygon fill="#000000" stroke="#000000" points="965.2564,-795.775 965.711,-785.19 958.7547,-793.1812 965.2564,-795.775"/>
<text text-anchor="middle" x="968.5" y="-842.132" font-family="Times,serif" font-size="20.00" fill="#000000">200</text>
</g>
<!-- SG_1_Node_8 -->
<g id="node19" class="node">
<title>SG_1_Node_8</title>
<ellipse fill="none" stroke="#000000" cx="839" cy="-606.4924" rx="34.7971" ry="21.4286"/>
<text text-anchor="middle" x="839" y="-601.4924" font-family="Times,serif" font-size="20.00" fill="#000000">0.0</text>
</g>
<!-- SG_1_Node_2&#45;&gt;SG_1_Node_8 -->
<g id="edge17" class="edge">
<title>SG_1_Node_2&#45;&gt;SG_1_Node_8</title>
<path fill="none" stroke="#000000" d="M910.0217,-748.9181C889.4947,-740.0202 868.5297,-727.1113 855,-708.7056 840.0982,-688.4334 836.7138,-659.743 836.7044,-637.9166"/>
<polygon fill="#000000" stroke="#000000" points="840.2056,-637.8976 836.9352,-627.8202 833.2075,-637.7376 840.2056,-637.8976"/>
<text text-anchor="middle" x="916" y="-692.7056" font-family="Times,serif" font-size="20.00" fill="#000000">[NA]</text>
<text text-anchor="middle" x="916" y="-670.7056" font-family="Times,serif" font-size="20.00" fill="#000000">same&#45;origin</text>
</g>
<!-- SG_1_Node_3 -->
<g id="node20" class="node">
<title>SG_1_Node_3</title>
<polygon fill="none" stroke="#000000" points="1074.5,-624.4924 919.5,-624.4924 919.5,-588.4924 1074.5,-588.4924 1074.5,-624.4924"/>
<text text-anchor="middle" x="997" y="-601.4924" font-family="Times,serif" font-size="20.00" fill="#000000">Content&#45;Type</text>
</g>
<!-- SG_1_Node_2&#45;&gt;SG_1_Node_3 -->
<g id="edge18" class="edge">
<title>SG_1_Node_2&#45;&gt;SG_1_Node_3</title>
<path fill="none" stroke="#000000" d="M975.7065,-748.8277C979.8657,-721.0255 987.863,-667.5683 992.7853,-634.6655"/>
<polygon fill="#000000" stroke="#000000" points="996.2485,-635.1714 994.2666,-624.7636 989.3255,-634.1356 996.2485,-635.1714"/>
<text text-anchor="middle" x="1020" y="-681.7056" font-family="Times,serif" font-size="20.00" fill="#000000">empty</text>
</g>
<!-- SG_1_Node_4 -->
<g id="node21" class="node">
<title>SG_1_Node_4</title>
<polygon fill="none" stroke="#000000" points="931.5,-354.066 776.5,-354.066 776.5,-318.066 931.5,-318.066 931.5,-354.066"/>
<text text-anchor="middle" x="854" y="-331.066" font-family="Times,serif" font-size="20.00" fill="#000000">Content&#45;Type</text>
</g>
<!-- SG_1_Node_3&#45;&gt;SG_1_Node_4 -->
<g id="edge19" class="edge">
<title>SG_1_Node_3&#45;&gt;SG_1_Node_4</title>
<path fill="none" stroke="#000000" d="M919.4541,-592.8922C894.3035,-584.4062 869.0346,-570.6322 854,-548.2792 816.2138,-492.0998 832.6766,-407.2234 844.9752,-363.7989"/>
<polygon fill="#000000" stroke="#000000" points="848.337,-364.7728 847.8227,-354.1904 841.6255,-362.7838 848.337,-364.7728"/>
<text text-anchor="middle" x="931" y="-477.2792" font-family="Times,serif" font-size="20.00" fill="#000000">application/pdf</text>
<text text-anchor="middle" x="931" y="-455.2792" font-family="Times,serif" font-size="20.00" fill="#000000">text/html</text>
</g>
<!-- SG_1_Node_9 -->
<g id="node22" class="node">
<title>SG_1_Node_9</title>
<ellipse fill="none" stroke="#000000" cx="1044" cy="-336.066" rx="34.7971" ry="21.4286"/>
<text text-anchor="middle" x="1044" y="-331.066" font-family="Times,serif" font-size="20.00" fill="#000000">1.0</text>
</g>
<!-- SG_1_Node_3&#45;&gt;SG_1_Node_9 -->
<g id="edge20" class="edge">
<title>SG_1_Node_3&#45;&gt;SG_1_Node_9</title>
<path fill="none" stroke="#000000" d="M1002.2133,-588.2512C1005.3485,-576.8336 1009.2506,-561.7784 1012,-548.2792 1024.9971,-484.466 1035.1635,-408.8663 1040.3058,-367.3215"/>
<polygon fill="#000000" stroke="#000000" points="1043.7944,-367.6273 1041.5331,-357.2766 1036.8461,-366.7783 1043.7944,-367.6273"/>
<text text-anchor="middle" x="1147" y="-532.2792" font-family="Times,serif" font-size="20.00" fill="#000000">[NA]</text>
<text text-anchor="middle" x="1147" y="-510.2792" font-family="Times,serif" font-size="20.00" fill="#000000">application/javascript</text>
<text text-anchor="middle" x="1147" y="-488.2792" font-family="Times,serif" font-size="20.00" fill="#000000">audio/wav</text>
<text text-anchor="middle" x="1147" y="-466.2792" font-family="Times,serif" font-size="20.00" fill="#000000">empty</text>
<text text-anchor="middle" x="1147" y="-444.2792" font-family="Times,serif" font-size="20.00" fill="#000000">image/png</text>
<text text-anchor="middle" x="1147" y="-422.2792" font-family="Times,serif" font-size="20.00" fill="#000000">text/css</text>
<text text-anchor="middle" x="1147" y="-400.2792" font-family="Times,serif" font-size="20.00" fill="#000000">video/mp4</text>
</g>
<!-- SG_1_Node_10 -->
<g id="node23" class="node">
<title>SG_1_Node_10</title>
<ellipse fill="none" stroke="#000000" cx="796" cy="-197.6396" rx="34.7971" ry="21.4286"/>
<text text-anchor="middle" x="796" y="-192.6396" font-family="Times,serif" font-size="20.00" fill="#000000">0.0</text>
</g>
<!-- SG_1_Node_4&#45;&gt;SG_1_Node_10 -->
<g id="edge21" class="edge">
<title>SG_1_Node_4&#45;&gt;SG_1_Node_10</title>
<path fill="none" stroke="#000000" d="M836.6277,-317.8586C827.2923,-307.0505 816.4134,-292.6084 810,-277.8528 803.3154,-262.4734 799.8197,-244.1236 797.9929,-228.8585"/>
<polygon fill="#000000" stroke="#000000" points="801.4698,-228.4523 796.9762,-218.8576 794.5057,-229.1604 801.4698,-228.4523"/>
<text text-anchor="middle" x="887" y="-261.8528" font-family="Times,serif" font-size="20.00" fill="#000000">application/pdf</text>
</g>
<!-- SG_1_Node_5 -->
<g id="node24" class="node">
<title>SG_1_Node_5</title>
<polygon fill="none" stroke="#000000" points="1117,-215.6396 855,-215.6396 855,-179.6396 1117,-179.6396 1117,-215.6396"/>
<text text-anchor="middle" x="986" y="-192.6396" font-family="Times,serif" font-size="20.00" fill="#000000">X&#45;Content&#45;Type&#45;Options</text>
</g>
<!-- SG_1_Node_4&#45;&gt;SG_1_Node_5 -->
<g id="edge22" class="edge">
<title>SG_1_Node_4&#45;&gt;SG_1_Node_5</title>
<path fill="none" stroke="#000000" d="M907.9992,-318.0622C928.1493,-308.8955 949.6049,-295.8051 964,-277.8528 975.7823,-263.159 981.2694,-242.6161 983.8176,-225.9984"/>
<polygon fill="#000000" stroke="#000000" points="987.3317,-226.1041 985.1043,-215.746 980.3862,-225.2323 987.3317,-226.1041"/>
<text text-anchor="middle" x="1023" y="-261.8528" font-family="Times,serif" font-size="20.00" fill="#000000">text/html</text>
</g>
<!-- SG_1_Node_11 -->
<g id="node25" class="node">
<title>SG_1_Node_11</title>
<ellipse fill="none" stroke="#000000" cx="933" cy="-37.2132" rx="34.7971" ry="21.4286"/>
<text text-anchor="middle" x="933" y="-32.2132" font-family="Times,serif" font-size="20.00" fill="#000000">0.0</text>
</g>
<!-- SG_1_Node_5&#45;&gt;SG_1_Node_11 -->
<g id="edge23" class="edge">
<title>SG_1_Node_5&#45;&gt;SG_1_Node_11</title>
<path fill="none" stroke="#000000" d="M970.6489,-179.4495C962.2819,-168.535 952.5319,-153.9817 947,-139.4264 938.3844,-116.7572 934.9661,-89.4748 933.6575,-68.8005"/>
<polygon fill="#000000" stroke="#000000" points="937.145,-68.4633 933.1491,-58.6509 930.1538,-68.8135 937.145,-68.4633"/>
<text text-anchor="middle" x="982" y="-112.4264" font-family="Times,serif" font-size="20.00" fill="#000000">nosniff</text>
</g>
<!-- SG_1_Node_12 -->
<g id="node26" class="node">
<title>SG_1_Node_12</title>
<ellipse fill="none" stroke="#000000" cx="1039" cy="-37.2132" rx="34.7971" ry="21.4286"/>
<text text-anchor="middle" x="1039" y="-32.2132" font-family="Times,serif" font-size="20.00" fill="#000000">1.0</text>
</g>
<!-- SG_1_Node_5&#45;&gt;SG_1_Node_12 -->
<g id="edge24" class="edge">
<title>SG_1_Node_5&#45;&gt;SG_1_Node_12</title>
<path fill="none" stroke="#000000" d="M997.2697,-179.6318C1003.8505,-168.4266 1011.8473,-153.5133 1017,-139.4264 1025.4428,-116.3449 1031.109,-89.0864 1034.5739,-68.526"/>
<polygon fill="#000000" stroke="#000000" points="1038.0633,-68.87 1036.1882,-58.4424 1031.1513,-67.7633 1038.0633,-68.87"/>
<text text-anchor="middle" x="1061" y="-123.4264" font-family="Times,serif" font-size="20.00" fill="#000000">[NA]</text>
<text text-anchor="middle" x="1061" y="-101.4264" font-family="Times,serif" font-size="20.00" fill="#000000">empty</text>
</g>
</g>
</svg>
