<?xml version="1.0" encoding="UTF-8" standalone="no"?>
<!DOCTYPE svg PUBLIC "-//W3C//DTD SVG 1.1//EN"
 "http://www.w3.org/Graphics/SVG/1.1/DTD/svg11.dtd">
<!-- Generated by graphviz version 2.40.1 (20161225.0304)
 -->
<!-- Title: G Pages: 1 -->
<svg width="924pt" height="1179pt"
 viewBox="0.00 0.00 924.00 1178.56" xmlns="http://www.w3.org/2000/svg" xmlns:xlink="http://www.w3.org/1999/xlink">
<g id="graph0" class="graph" transform="scale(1 1) rotate(0) translate(4 1174.5584)">
<title>G</title>
<polygon fill="#ffffff" stroke="transparent" points="-4,4 -4,-1174.5584 920,-1174.5584 920,4 -4,4"/>
<g id="clust1" class="cluster">
<title>cluster_0</title>
<polygon fill="none" stroke="#000000" points="8,-8 8,-1162.5584 454,-1162.5584 454,-8 8,-8"/>
<text text-anchor="middle" x="231" y="-1126.5584" font-family="Times,serif" font-size="40.00" fill="#000000">Tree 0, Class 0</text>
</g>
<g id="clust9" class="cluster">
<title>cluster_1</title>
<polygon fill="none" stroke="#000000" points="462,-8 462,-1162.5584 908,-1162.5584 908,-8 462,-8"/>
<text text-anchor="middle" x="685" y="-1126.5584" font-family="Times,serif" font-size="40.00" fill="#000000">Tree 0, Class 1</text>
</g>
<!-- SG_0_Node_0 -->
<g id="node1" class="node">
<title>SG_0_Node_0</title>
<polygon fill="none" stroke="#000000" points="233.5,-1102.5584 168.5,-1102.5584 168.5,-1066.5584 233.5,-1066.5584 233.5,-1102.5584"/>
<text text-anchor="middle" x="201" y="-1079.5584" font-family="Times,serif" font-size="20.00" fill="#000000">body</text>
</g>
<!-- SG_0_Node_1 -->
<g id="node2" class="node">
<title>SG_0_Node_1</title>
<polygon fill="none" stroke="#000000" points="246,-945.3452 104,-945.3452 104,-909.3452 246,-909.3452 246,-945.3452"/>
<text text-anchor="middle" x="175" y="-922.3452" font-family="Times,serif" font-size="20.00" fill="#000000">Status&#45;Code</text>
</g>
<!-- SG_0_Node_0&#45;&gt;SG_0_Node_1 -->
<g id="edge1" class="edge">
<title>SG_0_Node_0&#45;&gt;SG_0_Node_1</title>
<path fill="none" stroke="#000000" d="M168.3288,-1081.746C135.4801,-1076.9803 86.4455,-1064.1417 63,-1029.5584 52.0265,-1013.372 52.8498,-1002.2735 63,-985.5584 72.4532,-969.9912 87.5727,-958.3963 103.6832,-949.8352"/>
<polygon fill="#000000" stroke="#000000" points="105.2854,-952.9476 112.7057,-945.3852 102.189,-946.6696 105.2854,-952.9476"/>
<text text-anchor="middle" x="197.5" y="-1002.5584" font-family="Times,serif" font-size="20.00" fill="#000000">ecocnt_audio=duration=1</text>
</g>
<!-- SG_0_Node_6 -->
<g id="node3" class="node">
<title>SG_0_Node_6</title>
<ellipse fill="none" stroke="#000000" cx="354" cy="-927.3452" rx="34.7971" ry="21.4286"/>
<text text-anchor="middle" x="354" y="-922.3452" font-family="Times,serif" font-size="20.00" fill="#000000">1.0</text>
</g>
<!-- SG_0_Node_0&#45;&gt;SG_0_Node_6 -->
<g id="edge2" class="edge">
<title>SG_0_Node_0&#45;&gt;SG_0_Node_6</title>
<path fill="none" stroke="#000000" d="M233.5261,-1079.6149C263.6023,-1073.2945 307.2704,-1059.3603 332,-1029.5584 348.3365,-1009.8712 353.3533,-980.8811 354.5628,-958.7984"/>
<polygon fill="#000000" stroke="#000000" points="358.0679,-958.6887 354.8836,-948.5837 351.0713,-958.4689 358.0679,-958.6887"/>
<text text-anchor="middle" x="397" y="-1013.5584" font-family="Times,serif" font-size="20.00" fill="#000000">[NA]</text>
<text text-anchor="middle" x="397" y="-991.5584" font-family="Times,serif" font-size="20.00" fill="#000000">12 levels</text>
</g>
<!-- SG_0_Node_2 -->
<g id="node4" class="node">
<title>SG_0_Node_2</title>
<polygon fill="none" stroke="#000000" points="333.5,-784.9188 16.5,-784.9188 16.5,-748.9188 333.5,-748.9188 333.5,-784.9188"/>
<text text-anchor="middle" x="175" y="-761.9188" font-family="Times,serif" font-size="20.00" fill="#000000">Cross&#45;Origin&#45;Resource&#45;Policy</text>
</g>
<!-- SG_0_Node_1&#45;&gt;SG_0_Node_2 -->
<g id="edge3" class="edge">
<title>SG_0_Node_1&#45;&gt;SG_0_Node_2</title>
<path fill="none" stroke="#000000" d="M175,-909.2541C175,-881.5723 175,-828.457 175,-795.5203"/>
<polygon fill="#000000" stroke="#000000" points="178.5001,-795.1899 175,-785.19 171.5001,-795.19 178.5001,-795.1899"/>
<text text-anchor="middle" x="194.5" y="-842.132" font-family="Times,serif" font-size="20.00" fill="#000000">200</text>
</g>
<!-- SG_0_Node_7 -->
<g id="node5" class="node">
<title>SG_0_Node_7</title>
<ellipse fill="none" stroke="#000000" cx="386" cy="-766.9188" rx="34.7971" ry="21.4286"/>
<text text-anchor="middle" x="386" y="-761.9188" font-family="Times,serif" font-size="20.00" fill="#000000">1.0</text>
</g>
<!-- SG_0_Node_1&#45;&gt;SG_0_Node_7 -->
<g id="edge4" class="edge">
<title>SG_0_Node_1&#45;&gt;SG_0_Node_7</title>
<path fill="none" stroke="#000000" d="M198.7942,-909.2541C237.4929,-879.8309 313.9836,-821.674 356.2271,-789.5556"/>
<polygon fill="#000000" stroke="#000000" points="358.3558,-792.3339 364.1978,-783.4953 354.119,-786.7616 358.3558,-792.3339"/>
<text text-anchor="middle" x="354" y="-853.132" font-family="Times,serif" font-size="20.00" fill="#000000">[NA]</text>
<text text-anchor="middle" x="354" y="-831.132" font-family="Times,serif" font-size="20.00" fill="#000000">61 levels</text>
</g>
<!-- SG_0_Node_3 -->
<g id="node6" class="node">
<title>SG_0_Node_3</title>
<polygon fill="none" stroke="#000000" points="211.5,-624.4924 56.5,-624.4924 56.5,-588.4924 211.5,-588.4924 211.5,-624.4924"/>
<text text-anchor="middle" x="134" y="-601.4924" font-family="Times,serif" font-size="20.00" fill="#000000">Content&#45;Type</text>
</g>
<!-- SG_0_Node_2&#45;&gt;SG_0_Node_3 -->
<g id="edge5" class="edge">
<title>SG_0_Node_2&#45;&gt;SG_0_Node_3</title>
<path fill="none" stroke="#000000" d="M170.3765,-748.8277C163.2711,-721.0255 149.6091,-667.5683 141.2002,-634.6655"/>
<polygon fill="#000000" stroke="#000000" points="144.5367,-633.5855 138.6695,-624.7636 137.7547,-635.3188 144.5367,-633.5855"/>
<text text-anchor="middle" x="191" y="-681.7056" font-family="Times,serif" font-size="20.00" fill="#000000">empty</text>
</g>
<!-- SG_0_Node_8 -->
<g id="node7" class="node">
<title>SG_0_Node_8</title>
<ellipse fill="none" stroke="#000000" cx="264" cy="-606.4924" rx="34.7971" ry="21.4286"/>
<text text-anchor="middle" x="264" y="-601.4924" font-family="Times,serif" font-size="20.00" fill="#000000">1.0</text>
</g>
<!-- SG_0_Node_2&#45;&gt;SG_0_Node_8 -->
<g id="edge6" class="edge">
<title>SG_0_Node_2&#45;&gt;SG_0_Node_8</title>
<path fill="none" stroke="#000000" d="M194.5845,-748.728C205.3116,-737.9252 218.1782,-723.483 227,-708.7056 240.3845,-686.2855 250.1091,-658.2431 256.2202,-637.2048"/>
<polygon fill="#000000" stroke="#000000" points="259.6131,-638.0677 258.9302,-627.4949 252.8708,-636.1859 259.6131,-638.0677"/>
<text text-anchor="middle" x="308" y="-692.7056" font-family="Times,serif" font-size="20.00" fill="#000000">[NA]</text>
<text text-anchor="middle" x="308" y="-670.7056" font-family="Times,serif" font-size="20.00" fill="#000000">same&#45;origin</text>
</g>
<!-- SG_0_Node_9 -->
<g id="node8" class="node">
<title>SG_0_Node_9</title>
<ellipse fill="none" stroke="#000000" cx="51" cy="-336.066" rx="34.7971" ry="21.4286"/>
<text text-anchor="middle" x="51" y="-331.066" font-family="Times,serif" font-size="20.00" fill="#000000">0.0</text>
</g>
<!-- SG_0_Node_3&#45;&gt;SG_0_Node_9 -->
<g id="edge7" class="edge">
<title>SG_0_Node_3&#45;&gt;SG_0_Node_9</title>
<path fill="none" stroke="#000000" d="M91.0606,-588.3807C74.482,-579.0094 57.2964,-565.7978 48,-548.2792 17.2198,-490.2754 30.7484,-410.1876 41.8117,-366.8727"/>
<polygon fill="#000000" stroke="#000000" points="45.1975,-367.7593 44.4009,-357.1945 38.4353,-365.9502 45.1975,-367.7593"/>
<text text-anchor="middle" x="159" y="-532.2792" font-family="Times,serif" font-size="20.00" fill="#000000">[NA]</text>
<text text-anchor="middle" x="159" y="-510.2792" font-family="Times,serif" font-size="20.00" fill="#000000">application/javascript</text>
<text text-anchor="middle" x="159" y="-488.2792" font-family="Times,serif" font-size="20.00" fill="#000000">audio/wav</text>
<text text-anchor="middle" x="159" y="-466.2792" font-family="Times,serif" font-size="20.00" fill="#000000">empty</text>
<text text-anchor="middle" x="159" y="-444.2792" font-family="Times,serif" font-size="20.00" fill="#000000">image/png</text>
<text text-anchor="middle" x="159" y="-422.2792" font-family="Times,serif" font-size="20.00" fill="#000000">text/css</text>
<text text-anchor="middle" x="159" y="-400.2792" font-family="Times,serif" font-size="20.00" fill="#000000">video/mp4</text>
</g>
<!-- SG_0_Node_4 -->
<g id="node9" class="node">
<title>SG_0_Node_4</title>
<polygon fill="none" stroke="#000000" points="369.5,-354.066 214.5,-354.066 214.5,-318.066 369.5,-318.066 369.5,-354.066"/>
<text text-anchor="middle" x="292" y="-331.066" font-family="Times,serif" font-size="20.00" fill="#000000">Content&#45;Type</text>
</g>
<!-- SG_0_Node_3&#45;&gt;SG_0_Node_4 -->
<g id="edge8" class="edge">
<title>SG_0_Node_3&#45;&gt;SG_0_Node_4</title>
<path fill="none" stroke="#000000" d="M191.3703,-588.4854C223.8315,-577.0923 259.9094,-561.9793 270,-548.2792 310.383,-493.4509 304.111,-407.9293 297.3669,-364.0738"/>
<polygon fill="#000000" stroke="#000000" points="300.8045,-363.4085 295.715,-354.1161 293.8988,-364.5541 300.8045,-363.4085"/>
<text text-anchor="middle" x="379" y="-477.2792" font-family="Times,serif" font-size="20.00" fill="#000000">application/pdf</text>
<text text-anchor="middle" x="379" y="-455.2792" font-family="Times,serif" font-size="20.00" fill="#000000">text/html</text>
</g>
<!-- SG_0_Node_5 -->
<g id="node10" class="node">
<title>SG_0_Node_5</title>
<polygon fill="none" stroke="#000000" points="280,-215.6396 18,-215.6396 18,-179.6396 280,-179.6396 280,-215.6396"/>
<text text-anchor="middle" x="149" y="-192.6396" font-family="Times,serif" font-size="20.00" fill="#000000">X&#45;Content&#45;Type&#45;Options</text>
</g>
<!-- SG_0_Node_4&#45;&gt;SG_0_Node_5 -->
<g id="edge9" class="edge">
<title>SG_0_Node_4&#45;&gt;SG_0_Node_5</title>
<path fill="none" stroke="#000000" d="M255.7367,-318.0512C237.6279,-307.8955 216.1894,-294.007 200,-277.8528 184.5711,-262.4575 171.4873,-241.5966 162.4357,-225.0077"/>
<polygon fill="#000000" stroke="#000000" points="165.345,-223.0211 157.585,-215.8077 159.153,-226.2859 165.345,-223.0211"/>
<text text-anchor="middle" x="247" y="-261.8528" font-family="Times,serif" font-size="20.00" fill="#000000">text/html</text>
</g>
<!-- SG_0_Node_10 -->
<g id="node11" class="node">
<title>SG_0_Node_10</title>
<ellipse fill="none" stroke="#000000" cx="333" cy="-197.6396" rx="34.7971" ry="21.4286"/>
<text text-anchor="middle" x="333" y="-192.6396" font-family="Times,serif" font-size="20.00" fill="#000000">1.0</text>
</g>
<!-- SG_0_Node_4&#45;&gt;SG_0_Node_10 -->
<g id="edge10" class="edge">
<title>SG_0_Node_4&#45;&gt;SG_0_Node_10</title>
<path fill="none" stroke="#000000" d="M293.0924,-317.8611C294.4628,-301.3607 297.4812,-276.5343 304,-255.8528 307.0986,-246.0221 311.675,-235.8 316.2812,-226.7159"/>
<polygon fill="#000000" stroke="#000000" points="319.4545,-228.2021 321.0315,-217.7253 313.2652,-224.932 319.4545,-228.2021"/>
<text text-anchor="middle" x="381" y="-261.8528" font-family="Times,serif" font-size="20.00" fill="#000000">application/pdf</text>
</g>
<!-- SG_0_Node_11 -->
<g id="node12" class="node">
<title>SG_0_Node_11</title>
<ellipse fill="none" stroke="#000000" cx="100" cy="-37.2132" rx="34.7971" ry="21.4286"/>
<text text-anchor="middle" x="100" y="-32.2132" font-family="Times,serif" font-size="20.00" fill="#000000">0.0</text>
</g>
<!-- SG_0_Node_5&#45;&gt;SG_0_Node_11 -->
<g id="edge11" class="edge">
<title>SG_0_Node_5&#45;&gt;SG_0_Node_11</title>
<path fill="none" stroke="#000000" d="M135.4372,-179.4676C127.9026,-168.4438 119.0548,-153.7743 114,-139.4264 105.9417,-116.5531 102.4911,-89.2826 101.0285,-68.6646"/>
<polygon fill="#000000" stroke="#000000" points="104.5146,-68.3239 100.4309,-58.5477 97.5267,-68.7367 104.5146,-68.3239"/>
<text text-anchor="middle" x="146" y="-123.4264" font-family="Times,serif" font-size="20.00" fill="#000000">[NA]</text>
<text text-anchor="middle" x="146" y="-101.4264" font-family="Times,serif" font-size="20.00" fill="#000000">empty</text>
</g>
<!-- SG_0_Node_12 -->
<g id="node13" class="node">
<title>SG_0_Node_12</title>
<ellipse fill="none" stroke="#000000" cx="200" cy="-37.2132" rx="34.7971" ry="21.4286"/>
<text text-anchor="middle" x="200" y="-32.2132" font-family="Times,serif" font-size="20.00" fill="#000000">1.0</text>
</g>
<!-- SG_0_Node_5&#45;&gt;SG_0_Node_12 -->
<g id="edge12" class="edge">
<title>SG_0_Node_5&#45;&gt;SG_0_Node_12</title>
<path fill="none" stroke="#000000" d="M159.4912,-179.5403C165.6287,-168.3016 173.1079,-153.3853 178,-139.4264 186.1288,-116.2324 191.8131,-88.9804 195.3648,-68.4511"/>
<polygon fill="#000000" stroke="#000000" points="198.8508,-68.8226 197.0294,-58.3855 191.9446,-67.6804 198.8508,-68.8226"/>
<text text-anchor="middle" x="224" y="-112.4264" font-family="Times,serif" font-size="20.00" fill="#000000">nosniff</text>
</g>
<!-- SG_1_Node_0 -->
<g id="node14" class="node">
<title>SG_1_Node_0</title>
<polygon fill="none" stroke="#000000" points="599.5,-1102.5584 534.5,-1102.5584 534.5,-1066.5584 599.5,-1066.5584 599.5,-1102.5584"/>
<text text-anchor="middle" x="567" y="-1079.5584" font-family="Times,serif" font-size="20.00" fill="#000000">body</text>
</g>
<!-- SG_1_Node_6 -->
<g id="node15" class="node">
<title>SG_1_Node_6</title>
<ellipse fill="none" stroke="#000000" cx="505" cy="-927.3452" rx="34.7971" ry="21.4286"/>
<text text-anchor="middle" x="505" y="-922.3452" font-family="Times,serif" font-size="20.00" fill="#000000">0.0</text>
</g>
<!-- SG_1_Node_0&#45;&gt;SG_1_Node_6 -->
<g id="edge13" class="edge">
<title>SG_1_Node_0&#45;&gt;SG_1_Node_6</title>
<path fill="none" stroke="#000000" d="M545.0933,-1066.4158C534.8054,-1056.6171 523.418,-1043.6513 517,-1029.5584 506.9105,-1007.4036 504.1617,-979.8781 503.7976,-958.9745"/>
<polygon fill="#000000" stroke="#000000" points="507.2976,-958.7106 503.7984,-948.7103 500.2976,-958.71 507.2976,-958.7106"/>
<text text-anchor="middle" x="563" y="-1013.5584" font-family="Times,serif" font-size="20.00" fill="#000000">[NA]</text>
<text text-anchor="middle" x="563" y="-991.5584" font-family="Times,serif" font-size="20.00" fill="#000000">12 levels</text>
</g>
<!-- SG_1_Node_1 -->
<g id="node16" class="node">
<title>SG_1_Node_1</title>
<polygon fill="none" stroke="#000000" points="702,-945.3452 560,-945.3452 560,-909.3452 702,-909.3452 702,-945.3452"/>
<text text-anchor="middle" x="631" y="-922.3452" font-family="Times,serif" font-size="20.00" fill="#000000">Status&#45;Code</text>
</g>
<!-- SG_1_Node_0&#45;&gt;SG_1_Node_1 -->
<g id="edge14" class="edge">
<title>SG_1_Node_0&#45;&gt;SG_1_Node_1</title>
<path fill="none" stroke="#000000" d="M584.4302,-1066.0669C593.0355,-1055.9839 602.8619,-1042.8688 609,-1029.5584 619.9246,-1005.8686 625.5168,-976.5631 628.3207,-955.4136"/>
<polygon fill="#000000" stroke="#000000" points="631.7988,-955.8046 629.5154,-945.4588 624.8487,-954.9704 631.7988,-955.8046"/>
<text text-anchor="middle" x="757.5" y="-1002.5584" font-family="Times,serif" font-size="20.00" fill="#000000">ecocnt_audio=duration=1</text>
</g>
<!-- SG_1_Node_7 -->
<g id="node17" class="node">
<title>SG_1_Node_7</title>
<ellipse fill="none" stroke="#000000" cx="505" cy="-766.9188" rx="34.7971" ry="21.4286"/>
<text text-anchor="middle" x="505" y="-761.9188" font-family="Times,serif" font-size="20.00" fill="#000000">0.0</text>
</g>
<!-- SG_1_Node_1&#45;&gt;SG_1_Node_7 -->
<g id="edge15" class="edge">
<title>SG_1_Node_1&#45;&gt;SG_1_Node_7</title>
<path fill="none" stroke="#000000" d="M607.4394,-909.2077C594.3277,-898.4221 578.235,-883.9793 566,-869.132 547.3398,-846.4878 530.6138,-817.5189 519.4168,-796.2071"/>
<polygon fill="#000000" stroke="#000000" points="522.5147,-794.578 514.8208,-787.2942 516.2932,-797.7862 522.5147,-794.578"/>
<text text-anchor="middle" x="612" y="-853.132" font-family="Times,serif" font-size="20.00" fill="#000000">[NA]</text>
<text text-anchor="middle" x="612" y="-831.132" font-family="Times,serif" font-size="20.00" fill="#000000">61 levels</text>
</g>
<!-- SG_1_Node_2 -->
<g id="node18" class="node">
<title>SG_1_Node_2</title>
<polygon fill="none" stroke="#000000" points="874.5,-784.9188 557.5,-784.9188 557.5,-748.9188 874.5,-748.9188 874.5,-784.9188"/>
<text text-anchor="middle" x="716" y="-761.9188" font-family="Times,serif" font-size="20.00" fill="#000000">Cross&#45;Origin&#45;Resource&#45;Policy</text>
</g>
<!-- SG_1_Node_1&#45;&gt;SG_1_Node_2 -->
<g id="edge16" class="edge">
<title>SG_1_Node_1&#45;&gt;SG_1_Node_2</title>
<path fill="none" stroke="#000000" d="M640.5854,-909.2541C655.4436,-881.2112 684.1312,-827.0671 701.5232,-794.2419"/>
<polygon fill="#000000" stroke="#000000" points="704.7301,-795.6649 706.3193,-785.19 698.5447,-792.3876 704.7301,-795.6649"/>
<text text-anchor="middle" x="703.5" y="-842.132" font-family="Times,serif" font-size="20.00" fill="#000000">200</text>
</g>
<!-- SG_1_Node_8 -->
<g id="node19" class="node">
<title>SG_1_Node_8</title>
<ellipse fill="none" stroke="#000000" cx="550" cy="-606.4924" rx="34.7971" ry="21.4286"/>
<text text-anchor="middle" x="550" y="-601.4924" font-family="Times,serif" font-size="20.00" fill="#000000">0.0</text>
</g>
<!-- SG_1_Node_2&#45;&gt;SG_1_Node_8 -->
<g id="edge17" class="edge">
<title>SG_1_Node_2&#45;&gt;SG_1_Node_8</title>
<path fill="none" stroke="#000000" d="M626.8313,-748.8376C604.3069,-740.2028 582.2224,-727.4693 567,-708.7056 551.0269,-689.0166 547.4888,-660.0268 547.5352,-637.9446"/>
<polygon fill="#000000" stroke="#000000" points="551.0397,-637.8197 547.8071,-627.7301 544.0422,-637.6334 551.0397,-637.8197"/>
<text text-anchor="middle" x="628" y="-692.7056" font-family="Times,serif" font-size="20.00" fill="#000000">[NA]</text>
<text text-anchor="middle" x="628" y="-670.7056" font-family="Times,serif" font-size="20.00" fill="#000000">same&#45;origin</text>
</g>
<!-- SG_1_Node_3 -->
<g id="node20" class="node">
<title>SG_1_Node_3</title>
<polygon fill="none" stroke="#000000" points="757.5,-624.4924 602.5,-624.4924 602.5,-588.4924 757.5,-588.4924 757.5,-624.4924"/>
<text text-anchor="middle" x="680" y="-601.4924" font-family="Times,serif" font-size="20.00" fill="#000000">Content&#45;Type</text>
</g>
<!-- SG_1_Node_2&#45;&gt;SG_1_Node_3 -->
<g id="edge18" class="edge">
<title>SG_1_Node_2&#45;&gt;SG_1_Node_3</title>
<path fill="none" stroke="#000000" d="M711.9403,-748.8277C705.7014,-721.0255 693.7055,-667.5683 686.3221,-634.6655"/>
<polygon fill="#000000" stroke="#000000" points="689.7048,-633.7545 684.1001,-624.7636 682.8746,-635.2873 689.7048,-633.7545"/>
<text text-anchor="middle" x="734" y="-681.7056" font-family="Times,serif" font-size="20.00" fill="#000000">empty</text>
</g>
<!-- SG_1_Node_4 -->
<g id="node21" class="node">
<title>SG_1_Node_4</title>
<polygon fill="none" stroke="#000000" points="625.5,-354.066 470.5,-354.066 470.5,-318.066 625.5,-318.066 625.5,-354.066"/>
<text text-anchor="middle" x="548" y="-331.066" font-family="Times,serif" font-size="20.00" fill="#000000">Content&#45;Type</text>
</g>
<!-- SG_1_Node_3&#45;&gt;SG_1_Node_4 -->
<g id="edge19" class="edge">
<title>SG_1_Node_3&#45;&gt;SG_1_Node_4</title>
<path fill="none" stroke="#000000" d="M605.9512,-588.3776C569.3004,-577.7596 530.6398,-563.4725 520,-548.2792 480.7385,-492.2152 504.7855,-461.0112 520,-394.2792 522.4306,-383.6184 527.0713,-372.6341 531.886,-363.1191"/>
<polygon fill="#000000" stroke="#000000" points="535.0481,-364.6281 536.6833,-354.1602 528.8772,-361.3236 535.0481,-364.6281"/>
<text text-anchor="middle" x="597" y="-477.2792" font-family="Times,serif" font-size="20.00" fill="#000000">application/pdf</text>
<text text-anchor="middle" x="597" y="-455.2792" font-family="Times,serif" font-size="20.00" fill="#000000">text/html</text>
</g>
<!-- SG_1_Node_9 -->
<g id="node22" class="node">
<title>SG_1_Node_9</title>
<ellipse fill="none" stroke="#000000" cx="678" cy="-336.066" rx="34.7971" ry="21.4286"/>
<text text-anchor="middle" x="678" y="-331.066" font-family="Times,serif" font-size="20.00" fill="#000000">1.0</text>
</g>
<!-- SG_1_Node_3&#45;&gt;SG_1_Node_9 -->
<g id="edge20" class="edge">
<title>SG_1_Node_3&#45;&gt;SG_1_Node_9</title>
<path fill="none" stroke="#000000" d="M679.8657,-588.3291C679.5308,-543.0489 678.6556,-424.7118 678.2339,-367.6871"/>
<polygon fill="#000000" stroke="#000000" points="681.7322,-367.4354 678.1582,-357.4615 674.7324,-367.4872 681.7322,-367.4354"/>
<text text-anchor="middle" x="790" y="-532.2792" font-family="Times,serif" font-size="20.00" fill="#000000">[NA]</text>
<text text-anchor="middle" x="790" y="-510.2792" font-family="Times,serif" font-size="20.00" fill="#000000">application/javascript</text>
<text text-anchor="middle" x="790" y="-488.2792" font-family="Times,serif" font-size="20.00" fill="#000000">audio/wav</text>
<text text-anchor="middle" x="790" y="-466.2792" font-family="Times,serif" font-size="20.00" fill="#000000">empty</text>
<text text-anchor="middle" x="790" y="-444.2792" font-family="Times,serif" font-size="20.00" fill="#000000">image/png</text>
<text text-anchor="middle" x="790" y="-422.2792" font-family="Times,serif" font-size="20.00" fill="#000000">text/css</text>
<text text-anchor="middle" x="790" y="-400.2792" font-family="Times,serif" font-size="20.00" fill="#000000">video/mp4</text>
</g>
<!-- SG_1_Node_10 -->
<g id="node23" class="node">
<title>SG_1_Node_10</title>
<ellipse fill="none" stroke="#000000" cx="526" cy="-197.6396" rx="34.7971" ry="21.4286"/>
<text text-anchor="middle" x="526" y="-192.6396" font-family="Times,serif" font-size="20.00" fill="#000000">0.0</text>
</g>
<!-- SG_1_Node_4&#45;&gt;SG_1_Node_10 -->
<g id="edge21" class="edge">
<title>SG_1_Node_4&#45;&gt;SG_1_Node_10</title>
<path fill="none" stroke="#000000" d="M545.1239,-317.9692C541.5298,-295.3549 535.3215,-256.2913 530.9556,-228.8205"/>
<polygon fill="#000000" stroke="#000000" points="534.4081,-228.2448 529.3818,-218.9181 527.4948,-229.3436 534.4081,-228.2448"/>
<text text-anchor="middle" x="615" y="-261.8528" font-family="Times,serif" font-size="20.00" fill="#000000">application/pdf</text>
</g>
<!-- SG_1_Node_5 -->
<g id="node24" class="node">
<title>SG_1_Node_5</title>
<polygon fill="none" stroke="#000000" points="847,-215.6396 585,-215.6396 585,-179.6396 847,-179.6396 847,-215.6396"/>
<text text-anchor="middle" x="716" y="-192.6396" font-family="Times,serif" font-size="20.00" fill="#000000">X&#45;Content&#45;Type&#45;Options</text>
</g>
<!-- SG_1_Node_4&#45;&gt;SG_1_Node_5 -->
<g id="edge22" class="edge">
<title>SG_1_Node_4&#45;&gt;SG_1_Node_5</title>
<path fill="none" stroke="#000000" d="M608.3484,-318.0327C642.9702,-306.5646 681.905,-291.3806 694,-277.8528 706.6325,-263.7239 712.0946,-242.9981 714.4182,-226.1536"/>
<polygon fill="#000000" stroke="#000000" points="717.9473,-226.07 715.5358,-215.7533 710.9873,-225.3221 717.9473,-226.07"/>
<text text-anchor="middle" x="753" y="-261.8528" font-family="Times,serif" font-size="20.00" fill="#000000">text/html</text>
</g>
<!-- SG_1_Node_11 -->
<g id="node25" class="node">
<title>SG_1_Node_11</title>
<ellipse fill="none" stroke="#000000" cx="663" cy="-37.2132" rx="34.7971" ry="21.4286"/>
<text text-anchor="middle" x="663" y="-32.2132" font-family="Times,serif" font-size="20.00" fill="#000000">0.0</text>
</g>
<!-- SG_1_Node_5&#45;&gt;SG_1_Node_11 -->
<g id="edge23" class="edge">
<title>SG_1_Node_5&#45;&gt;SG_1_Node_11</title>
<path fill="none" stroke="#000000" d="M700.6489,-179.4495C692.2819,-168.535 682.5319,-153.9817 677,-139.4264 668.3844,-116.7572 664.9661,-89.4748 663.6575,-68.8005"/>
<polygon fill="#000000" stroke="#000000" points="667.145,-68.4633 663.1491,-58.6509 660.1538,-68.8135 667.145,-68.4633"/>
<text text-anchor="middle" x="712" y="-112.4264" font-family="Times,serif" font-size="20.00" fill="#000000">nosniff</text>
</g>
<!-- SG_1_Node_12 -->
<g id="node26" class="node">
<title>SG_1_Node_12</title>
<ellipse fill="none" stroke="#000000" cx="769" cy="-37.2132" rx="34.7971" ry="21.4286"/>
<text text-anchor="middle" x="769" y="-32.2132" font-family="Times,serif" font-size="20.00" fill="#000000">1.0</text>
</g>
<!-- SG_1_Node_5&#45;&gt;SG_1_Node_12 -->
<g id="edge24" class="edge">
<title>SG_1_Node_5&#45;&gt;SG_1_Node_12</title>
<path fill="none" stroke="#000000" d="M727.2697,-179.6318C733.8505,-168.4266 741.8473,-153.5133 747,-139.4264 755.4428,-116.3449 761.109,-89.0864 764.5739,-68.526"/>
<polygon fill="#000000" stroke="#000000" points="768.0633,-68.87 766.1882,-58.4424 761.1513,-67.7633 768.0633,-68.87"/>
<text text-anchor="middle" x="791" y="-123.4264" font-family="Times,serif" font-size="20.00" fill="#000000">[NA]</text>
<text text-anchor="middle" x="791" y="-101.4264" font-family="Times,serif" font-size="20.00" fill="#000000">empty</text>
</g>
</g>
</svg>
