<?xml version="1.0" encoding="UTF-8" standalone="no"?>
<!DOCTYPE svg PUBLIC "-//W3C//DTD SVG 1.1//EN"
 "http://www.w3.org/Graphics/SVG/1.1/DTD/svg11.dtd">
<!-- Generated by graphviz version 2.40.1 (20161225.0304)
 -->
<!-- Title: G Pages: 1 -->
<svg width="1338pt" height="741pt"
 viewBox="0.00 0.00 1338.00 741.28" xmlns="http://www.w3.org/2000/svg" xmlns:xlink="http://www.w3.org/1999/xlink">
<g id="graph0" class="graph" transform="scale(1 1) rotate(0) translate(4 737.2792)">
<title>G</title>
<polygon fill="#ffffff" stroke="transparent" points="-4,4 -4,-737.2792 1334,-737.2792 1334,4 -4,4"/>
<g id="clust1" class="cluster">
<title>cluster_0</title>
<polygon fill="none" stroke="#000000" points="8,-8 8,-725.2792 661,-725.2792 661,-8 8,-8"/>
<text text-anchor="middle" x="334.5" y="-689.2792" font-family="Times,serif" font-size="40.00" fill="#000000">Tree 0, Class 0</text>
</g>
<g id="clust6" class="cluster">
<title>cluster_1</title>
<polygon fill="none" stroke="#000000" points="669,-8 669,-725.2792 1322,-725.2792 1322,-8 669,-8"/>
<text text-anchor="middle" x="995.5" y="-689.2792" font-family="Times,serif" font-size="40.00" fill="#000000">Tree 0, Class 100</text>
</g>
<!-- SG_0_Node_0 -->
<g id="node1" class="node">
<title>SG_0_Node_0</title>
<polygon fill="none" stroke="#000000" points="337.5,-665.2792 272.5,-665.2792 272.5,-629.2792 337.5,-629.2792 337.5,-665.2792"/>
<text text-anchor="middle" x="305" y="-642.2792" font-family="Times,serif" font-size="20.00" fill="#000000">body</text>
</g>
<!-- SG_0_Node_1 -->
<g id="node2" class="node">
<title>SG_0_Node_1</title>
<polygon fill="none" stroke="#000000" points="246,-508.066 104,-508.066 104,-472.066 246,-472.066 246,-508.066"/>
<text text-anchor="middle" x="175" y="-485.066" font-family="Times,serif" font-size="20.00" fill="#000000">Status&#45;Code</text>
</g>
<!-- SG_0_Node_0&#45;&gt;SG_0_Node_1 -->
<g id="edge1" class="edge">
<title>SG_0_Node_0&#45;&gt;SG_0_Node_1</title>
<path fill="none" stroke="#000000" d="M272.4608,-645.2557C209.7573,-640.6058 75.9013,-626.7833 48,-592.2792 35.7038,-577.0732 37.4389,-564.7378 48,-548.2792 58.9254,-531.2528 76.2132,-519.1417 94.5576,-510.5503"/>
<polygon fill="#000000" stroke="#000000" points="96.1381,-513.6799 103.9203,-506.4905 93.3533,-507.2577 96.1381,-513.6799"/>
<text text-anchor="middle" x="293.5" y="-565.2792" font-family="Times,serif" font-size="20.00" fill="#000000">ecocnt_vid=width=100,height=100,duration=2</text>
</g>
<!-- SG_0_Node_3 -->
<g id="node3" class="node">
<title>SG_0_Node_3</title>
<ellipse fill="none" stroke="#000000" cx="561" cy="-490.066" rx="34.7971" ry="21.4286"/>
<text text-anchor="middle" x="561" y="-485.066" font-family="Times,serif" font-size="20.00" fill="#000000">1.0</text>
</g>
<!-- SG_0_Node_0&#45;&gt;SG_0_Node_3 -->
<g id="edge2" class="edge">
<title>SG_0_Node_0&#45;&gt;SG_0_Node_3</title>
<path fill="none" stroke="#000000" d="M337.6491,-643.892C395.1767,-637.2532 511.1588,-620.6502 539,-592.2792 557.1095,-573.8251 561.8774,-544.2625 562.544,-521.6666"/>
<polygon fill="#000000" stroke="#000000" points="566.0444,-521.5423 562.5887,-511.5269 559.0445,-521.5113 566.0444,-521.5423"/>
<text text-anchor="middle" x="605" y="-576.2792" font-family="Times,serif" font-size="20.00" fill="#000000">[NA]</text>
<text text-anchor="middle" x="605" y="-554.2792" font-family="Times,serif" font-size="20.00" fill="#000000">12 levels</text>
</g>
<!-- SG_0_Node_2 -->
<g id="node4" class="node">
<title>SG_0_Node_2</title>
<polygon fill="none" stroke="#000000" points="333.5,-215.6396 16.5,-215.6396 16.5,-179.6396 333.5,-179.6396 333.5,-215.6396"/>
<text text-anchor="middle" x="175" y="-192.6396" font-family="Times,serif" font-size="20.00" fill="#000000">Cross&#45;Origin&#45;Resource&#45;Policy</text>
</g>
<!-- SG_0_Node_1&#45;&gt;SG_0_Node_2 -->
<g id="edge3" class="edge">
<title>SG_0_Node_1&#45;&gt;SG_0_Node_2</title>
<path fill="none" stroke="#000000" d="M175,-471.7734C175,-422.3347 175,-285.7698 175,-226.1281"/>
<polygon fill="#000000" stroke="#000000" points="178.5001,-225.9252 175,-215.9253 171.5001,-225.9253 178.5001,-225.9252"/>
<text text-anchor="middle" x="194.5" y="-415.8528" font-family="Times,serif" font-size="20.00" fill="#000000">200</text>
<text text-anchor="middle" x="194.5" y="-393.8528" font-family="Times,serif" font-size="20.00" fill="#000000">201</text>
<text text-anchor="middle" x="194.5" y="-371.8528" font-family="Times,serif" font-size="20.00" fill="#000000">202</text>
<text text-anchor="middle" x="194.5" y="-349.8528" font-family="Times,serif" font-size="20.00" fill="#000000">203</text>
<text text-anchor="middle" x="194.5" y="-327.8528" font-family="Times,serif" font-size="20.00" fill="#000000">206</text>
<text text-anchor="middle" x="194.5" y="-305.8528" font-family="Times,serif" font-size="20.00" fill="#000000">207</text>
<text text-anchor="middle" x="194.5" y="-283.8528" font-family="Times,serif" font-size="20.00" fill="#000000">208</text>
<text text-anchor="middle" x="194.5" y="-261.8528" font-family="Times,serif" font-size="20.00" fill="#000000">226</text>
</g>
<!-- SG_0_Node_4 -->
<g id="node5" class="node">
<title>SG_0_Node_4</title>
<ellipse fill="none" stroke="#000000" cx="386" cy="-197.6396" rx="34.7971" ry="21.4286"/>
<text text-anchor="middle" x="386" y="-192.6396" font-family="Times,serif" font-size="20.00" fill="#000000">1.0</text>
</g>
<!-- SG_0_Node_1&#45;&gt;SG_0_Node_4 -->
<g id="edge4" class="edge">
<title>SG_0_Node_1&#45;&gt;SG_0_Node_4</title>
<path fill="none" stroke="#000000" d="M188.4298,-472.0208C196.9432,-460.5481 208.1653,-445.3634 218,-431.8528 272.1142,-357.5125 335.0983,-269.2248 366.3396,-225.3119"/>
<polygon fill="#000000" stroke="#000000" points="369.2091,-227.3161 372.1526,-217.1383 363.5046,-223.2591 369.2091,-227.3161"/>
<text text-anchor="middle" x="388" y="-349.8528" font-family="Times,serif" font-size="20.00" fill="#000000">[NA]</text>
<text text-anchor="middle" x="388" y="-327.8528" font-family="Times,serif" font-size="20.00" fill="#000000">54 levels</text>
</g>
<!-- SG_0_Node_5 -->
<g id="node6" class="node">
<title>SG_0_Node_5</title>
<ellipse fill="none" stroke="#000000" cx="125" cy="-37.2132" rx="34.7971" ry="21.4286"/>
<text text-anchor="middle" x="125" y="-32.2132" font-family="Times,serif" font-size="20.00" fill="#000000">0.0</text>
</g>
<!-- SG_0_Node_2&#45;&gt;SG_0_Node_5 -->
<g id="edge5" class="edge">
<title>SG_0_Node_2&#45;&gt;SG_0_Node_5</title>
<path fill="none" stroke="#000000" d="M161.0384,-179.525C153.2847,-168.521 144.184,-153.8522 139,-139.4264 130.7986,-116.604 127.3564,-89.3305 125.9333,-68.6985"/>
<polygon fill="#000000" stroke="#000000" points="129.4197,-68.359 125.3586,-58.5735 122.431,-68.7557 129.4197,-68.359"/>
<text text-anchor="middle" x="171" y="-112.4264" font-family="Times,serif" font-size="20.00" fill="#000000">empty</text>
</g>
<!-- SG_0_Node_6 -->
<g id="node7" class="node">
<title>SG_0_Node_6</title>
<ellipse fill="none" stroke="#000000" cx="225" cy="-37.2132" rx="34.7971" ry="21.4286"/>
<text text-anchor="middle" x="225" y="-32.2132" font-family="Times,serif" font-size="20.00" fill="#000000">1.0</text>
</g>
<!-- SG_0_Node_2&#45;&gt;SG_0_Node_6 -->
<g id="edge6" class="edge">
<title>SG_0_Node_2&#45;&gt;SG_0_Node_6</title>
<path fill="none" stroke="#000000" d="M185.1012,-179.4966C191.0168,-168.242 198.2371,-153.3243 203,-139.4264 210.9679,-116.1767 216.6615,-88.9279 220.2577,-68.414"/>
<polygon fill="#000000" stroke="#000000" points="223.742,-68.7991 221.948,-58.3573 216.8388,-67.6388 223.742,-68.7991"/>
<text text-anchor="middle" x="275" y="-123.4264" font-family="Times,serif" font-size="20.00" fill="#000000">[NA]</text>
<text text-anchor="middle" x="275" y="-101.4264" font-family="Times,serif" font-size="20.00" fill="#000000">same&#45;origin</text>
</g>
<!-- SG_1_Node_0 -->
<g id="node8" class="node">
<title>SG_1_Node_0</title>
<polygon fill="none" stroke="#000000" points="799.5,-665.2792 734.5,-665.2792 734.5,-629.2792 799.5,-629.2792 799.5,-665.2792"/>
<text text-anchor="middle" x="767" y="-642.2792" font-family="Times,serif" font-size="20.00" fill="#000000">body</text>
</g>
<!-- SG_1_Node_3 -->
<g id="node9" class="node">
<title>SG_1_Node_3</title>
<ellipse fill="none" stroke="#000000" cx="712" cy="-490.066" rx="34.7971" ry="21.4286"/>
<text text-anchor="middle" x="712" y="-485.066" font-family="Times,serif" font-size="20.00" fill="#000000">0.0</text>
</g>
<!-- SG_1_Node_0&#45;&gt;SG_1_Node_3 -->
<g id="edge7" class="edge">
<title>SG_1_Node_0&#45;&gt;SG_1_Node_3</title>
<path fill="none" stroke="#000000" d="M739.6374,-629.1922C727.8616,-619.7473 715.357,-607.0681 709,-592.2792 699.4039,-569.9549 700.9269,-542.2831 704.4221,-521.3639"/>
<polygon fill="#000000" stroke="#000000" points="707.8875,-521.8757 706.3185,-511.3976 701.0108,-520.5671 707.8875,-521.8757"/>
<text text-anchor="middle" x="755" y="-576.2792" font-family="Times,serif" font-size="20.00" fill="#000000">[NA]</text>
<text text-anchor="middle" x="755" y="-554.2792" font-family="Times,serif" font-size="20.00" fill="#000000">12 levels</text>
</g>
<!-- SG_1_Node_1 -->
<g id="node10" class="node">
<title>SG_1_Node_1</title>
<polygon fill="none" stroke="#000000" points="907,-508.066 765,-508.066 765,-472.066 907,-472.066 907,-508.066"/>
<text text-anchor="middle" x="836" y="-485.066" font-family="Times,serif" font-size="20.00" fill="#000000">Status&#45;Code</text>
</g>
<!-- SG_1_Node_0&#45;&gt;SG_1_Node_1 -->
<g id="edge8" class="edge">
<title>SG_1_Node_0&#45;&gt;SG_1_Node_1</title>
<path fill="none" stroke="#000000" d="M779.7198,-629.0266C786.6214,-618.5891 794.9523,-605.0657 801,-592.2792 812.4572,-568.0554 822.0269,-539.0359 828.2476,-518.1174"/>
<polygon fill="#000000" stroke="#000000" points="831.6794,-518.8501 831.1068,-508.2707 824.957,-516.8981 831.6794,-518.8501"/>
<text text-anchor="middle" x="1063.5" y="-565.2792" font-family="Times,serif" font-size="20.00" fill="#000000">ecocnt_vid=width=100,height=100,duration=2</text>
</g>
<!-- SG_1_Node_4 -->
<g id="node11" class="node">
<title>SG_1_Node_4</title>
<ellipse fill="none" stroke="#000000" cx="774" cy="-197.6396" rx="34.7971" ry="21.4286"/>
<text text-anchor="middle" x="774" y="-192.6396" font-family="Times,serif" font-size="20.00" fill="#000000">0.0</text>
</g>
<!-- SG_1_Node_1&#45;&gt;SG_1_Node_4 -->
<g id="edge9" class="edge">
<title>SG_1_Node_1&#45;&gt;SG_1_Node_4</title>
<path fill="none" stroke="#000000" d="M832.1216,-471.7734C821.7967,-423.0752 793.5485,-289.841 780.6191,-228.8592"/>
<polygon fill="#000000" stroke="#000000" points="784.0335,-228.0879 778.5355,-219.0313 777.1857,-229.5398 784.0335,-228.0879"/>
<text text-anchor="middle" x="869" y="-349.8528" font-family="Times,serif" font-size="20.00" fill="#000000">[NA]</text>
<text text-anchor="middle" x="869" y="-327.8528" font-family="Times,serif" font-size="20.00" fill="#000000">54 levels</text>
</g>
<!-- SG_1_Node_2 -->
<g id="node12" class="node">
<title>SG_1_Node_2</title>
<polygon fill="none" stroke="#000000" points="1143.5,-215.6396 826.5,-215.6396 826.5,-179.6396 1143.5,-179.6396 1143.5,-215.6396"/>
<text text-anchor="middle" x="985" y="-192.6396" font-family="Times,serif" font-size="20.00" fill="#000000">Cross&#45;Origin&#45;Resource&#45;Policy</text>
</g>
<!-- SG_1_Node_1&#45;&gt;SG_1_Node_2 -->
<g id="edge10" class="edge">
<title>SG_1_Node_1&#45;&gt;SG_1_Node_2</title>
<path fill="none" stroke="#000000" d="M872.7214,-471.8198C889.0395,-462.0197 907.1885,-448.506 919,-431.8528 964.5743,-367.5967 978.7734,-272.6797 983.1245,-225.8633"/>
<polygon fill="#000000" stroke="#000000" points="986.6173,-226.0951 983.9722,-215.8358 979.6422,-225.5054 986.6173,-226.0951"/>
<text text-anchor="middle" x="998.5" y="-415.8528" font-family="Times,serif" font-size="20.00" fill="#000000">200</text>
<text text-anchor="middle" x="998.5" y="-393.8528" font-family="Times,serif" font-size="20.00" fill="#000000">201</text>
<text text-anchor="middle" x="998.5" y="-371.8528" font-family="Times,serif" font-size="20.00" fill="#000000">202</text>
<text text-anchor="middle" x="998.5" y="-349.8528" font-family="Times,serif" font-size="20.00" fill="#000000">203</text>
<text text-anchor="middle" x="998.5" y="-327.8528" font-family="Times,serif" font-size="20.00" fill="#000000">206</text>
<text text-anchor="middle" x="998.5" y="-305.8528" font-family="Times,serif" font-size="20.00" fill="#000000">207</text>
<text text-anchor="middle" x="998.5" y="-283.8528" font-family="Times,serif" font-size="20.00" fill="#000000">208</text>
<text text-anchor="middle" x="998.5" y="-261.8528" font-family="Times,serif" font-size="20.00" fill="#000000">226</text>
</g>
<!-- SG_1_Node_5 -->
<g id="node13" class="node">
<title>SG_1_Node_5</title>
<ellipse fill="none" stroke="#000000" cx="906" cy="-37.2132" rx="34.7971" ry="21.4286"/>
<text text-anchor="middle" x="906" y="-32.2132" font-family="Times,serif" font-size="20.00" fill="#000000">0.0</text>
</g>
<!-- SG_1_Node_2&#45;&gt;SG_1_Node_5 -->
<g id="edge11" class="edge">
<title>SG_1_Node_2&#45;&gt;SG_1_Node_5</title>
<path fill="none" stroke="#000000" d="M956.6772,-179.4006C943.3428,-169.2751 928.5276,-155.4807 920,-139.4264 908.4278,-117.6402 905.2551,-89.7103 904.7936,-68.5536"/>
<polygon fill="#000000" stroke="#000000" points="908.2934,-68.4624 904.7644,-58.4726 901.2935,-68.4827 908.2934,-68.4624"/>
<text text-anchor="middle" x="981" y="-123.4264" font-family="Times,serif" font-size="20.00" fill="#000000">[NA]</text>
<text text-anchor="middle" x="981" y="-101.4264" font-family="Times,serif" font-size="20.00" fill="#000000">same&#45;origin</text>
</g>
<!-- SG_1_Node_6 -->
<g id="node14" class="node">
<title>SG_1_Node_6</title>
<ellipse fill="none" stroke="#000000" cx="1064" cy="-37.2132" rx="34.7971" ry="21.4286"/>
<text text-anchor="middle" x="1064" y="-32.2132" font-family="Times,serif" font-size="20.00" fill="#000000">1.0</text>
</g>
<!-- SG_1_Node_2&#45;&gt;SG_1_Node_6 -->
<g id="edge12" class="edge">
<title>SG_1_Node_2&#45;&gt;SG_1_Node_6</title>
<path fill="none" stroke="#000000" d="M1008.2094,-179.4897C1020.0596,-169.014 1033.6925,-154.8734 1042,-139.4264 1053.768,-117.545 1059.2412,-89.8425 1061.7867,-68.7988"/>
<polygon fill="#000000" stroke="#000000" points="1065.277,-69.0746 1062.8425,-58.7633 1058.3154,-68.3422 1065.277,-69.0746"/>
<text text-anchor="middle" x="1089" y="-112.4264" font-family="Times,serif" font-size="20.00" fill="#000000">empty</text>
</g>
</g>
</svg>
