<?xml version="1.0" encoding="UTF-8" standalone="no"?>
<!DOCTYPE svg PUBLIC "-//W3C//DTD SVG 1.1//EN"
 "http://www.w3.org/Graphics/SVG/1.1/DTD/svg11.dtd">
<!-- Generated by graphviz version 2.40.1 (20161225.0304)
 -->
<!-- Title: G Pages: 1 -->
<svg width="4150pt" height="1537pt"
 viewBox="0.00 0.00 4150.00 1536.98" xmlns="http://www.w3.org/2000/svg" xmlns:xlink="http://www.w3.org/1999/xlink">
<g id="graph0" class="graph" transform="scale(1 1) rotate(0) translate(4 1532.9848)">
<title>G</title>
<polygon fill="#ffffff" stroke="transparent" points="-4,4 -4,-1532.9848 4146,-1532.9848 4146,4 -4,4"/>
<g id="clust1" class="cluster">
<title>cluster_0</title>
<polygon fill="none" stroke="#000000" points="8,-8 8,-1520.9848 792,-1520.9848 792,-8 8,-8"/>
<text text-anchor="middle" x="400" y="-1484.9848" font-family="Times,serif" font-size="40.00" fill="#000000">Tree 0, Class {&#39;code&#39;: 4, &#39;message&#39;: &#39;&#39;}</text>
</g>
<g id="clust10" class="cluster">
<title>cluster_1</title>
<polygon fill="none" stroke="#000000" points="800,-1030.132 800,-1520.9848 2426,-1520.9848 2426,-1030.132 800,-1030.132"/>
<text text-anchor="middle" x="1613" y="-1484.9848" font-family="Times,serif" font-size="40.00" fill="#000000">Tree 0, Class {&#39;code&#39;: 4, &#39;message&#39;: &#39;MEDIA_ELEMENT_ERROR: Format error&#39;}</text>
</g>
<g id="clust14" class="cluster">
<title>cluster_2</title>
<polygon fill="none" stroke="#000000" points="2434,-168.4264 2434,-1520.9848 4134,-1520.9848 4134,-168.4264 2434,-168.4264"/>
<text text-anchor="middle" x="3284" y="-1484.9848" font-family="Times,serif" font-size="40.00" fill="#000000">Tree 0, Class {&#39;code&#39;: 4, &#39;message&#39;: &#39;PIPELINE_ERROR_INITIALIZATION_FAILED&#39;}</text>
</g>
<!-- SG_0_Node_0 -->
<g id="node1" class="node">
<title>SG_0_Node_0</title>
<polygon fill="none" stroke="#000000" points="395.5,-1460.9848 78.5,-1460.9848 78.5,-1424.9848 395.5,-1424.9848 395.5,-1460.9848"/>
<text text-anchor="middle" x="237" y="-1437.9848" font-family="Times,serif" font-size="20.00" fill="#000000">Cross&#45;Origin&#45;Resource&#45;Policy</text>
</g>
<!-- SG_0_Node_7 -->
<g id="node2" class="node">
<title>SG_0_Node_7</title>
<ellipse fill="none" stroke="#000000" cx="141" cy="-1285.7716" rx="34.7971" ry="21.4286"/>
<text text-anchor="middle" x="141" y="-1280.7716" font-family="Times,serif" font-size="20.00" fill="#000000">0.0</text>
</g>
<!-- SG_0_Node_0&#45;&gt;SG_0_Node_7 -->
<g id="edge1" class="edge">
<title>SG_0_Node_0&#45;&gt;SG_0_Node_7</title>
<path fill="none" stroke="#000000" d="M183.7259,-1424.8632C167.0528,-1416.3903 150.5355,-1404.4374 141,-1387.9848 128.612,-1366.6104 129.6977,-1338.2549 133.2662,-1316.8326"/>
<polygon fill="#000000" stroke="#000000" points="136.7183,-1317.4151 135.1693,-1306.9341 129.8442,-1316.0934 136.7183,-1317.4151"/>
<text text-anchor="middle" x="202" y="-1371.9848" font-family="Times,serif" font-size="20.00" fill="#000000">[NA]</text>
<text text-anchor="middle" x="202" y="-1349.9848" font-family="Times,serif" font-size="20.00" fill="#000000">same&#45;origin</text>
</g>
<!-- SG_0_Node_1 -->
<g id="node3" class="node">
<title>SG_0_Node_1</title>
<polygon fill="none" stroke="#000000" points="370,-1303.7716 228,-1303.7716 228,-1267.7716 370,-1267.7716 370,-1303.7716"/>
<text text-anchor="middle" x="299" y="-1280.7716" font-family="Times,serif" font-size="20.00" fill="#000000">Status&#45;Code</text>
</g>
<!-- SG_0_Node_0&#45;&gt;SG_0_Node_1 -->
<g id="edge2" class="edge">
<title>SG_0_Node_0&#45;&gt;SG_0_Node_1</title>
<path fill="none" stroke="#000000" d="M248.0648,-1424.8489C254.1779,-1414.3358 261.6033,-1400.7004 267,-1387.9848 277.3785,-1363.5312 286.1392,-1334.5384 291.8555,-1313.6883"/>
<polygon fill="#000000" stroke="#000000" points="295.2764,-1314.4442 294.4852,-1303.8789 288.5151,-1312.6315 295.2764,-1314.4442"/>
<text text-anchor="middle" x="314" y="-1360.9848" font-family="Times,serif" font-size="20.00" fill="#000000">empty</text>
</g>
<!-- SG_0_Node_8 -->
<g id="node4" class="node">
<title>SG_0_Node_8</title>
<ellipse fill="none" stroke="#000000" cx="257" cy="-1059.3452" rx="34.7971" ry="21.4286"/>
<text text-anchor="middle" x="257" y="-1054.3452" font-family="Times,serif" font-size="20.00" fill="#000000">0.0</text>
</g>
<!-- SG_0_Node_1&#45;&gt;SG_0_Node_8 -->
<g id="edge3" class="edge">
<title>SG_0_Node_1&#45;&gt;SG_0_Node_8</title>
<path fill="none" stroke="#000000" d="M291.3183,-1267.7362C286.785,-1256.3961 281.305,-1241.35 278,-1227.5584 266.7674,-1180.6858 261.312,-1124.9407 258.8392,-1090.8593"/>
<polygon fill="#000000" stroke="#000000" points="262.3114,-1090.3319 258.1376,-1080.5938 255.3277,-1090.8092 262.3114,-1090.3319"/>
<text text-anchor="middle" x="297.5" y="-1211.5584" font-family="Times,serif" font-size="20.00" fill="#000000">100</text>
<text text-anchor="middle" x="297.5" y="-1189.5584" font-family="Times,serif" font-size="20.00" fill="#000000">101</text>
<text text-anchor="middle" x="297.5" y="-1167.5584" font-family="Times,serif" font-size="20.00" fill="#000000">102</text>
<text text-anchor="middle" x="297.5" y="-1145.5584" font-family="Times,serif" font-size="20.00" fill="#000000">103</text>
<text text-anchor="middle" x="297.5" y="-1123.5584" font-family="Times,serif" font-size="20.00" fill="#000000">407</text>
</g>
<!-- SG_0_Node_2 -->
<g id="node5" class="node">
<title>SG_0_Node_2</title>
<polygon fill="none" stroke="#000000" points="374.5,-1077.3452 309.5,-1077.3452 309.5,-1041.3452 374.5,-1041.3452 374.5,-1077.3452"/>
<text text-anchor="middle" x="342" y="-1054.3452" font-family="Times,serif" font-size="20.00" fill="#000000">body</text>
</g>
<!-- SG_0_Node_1&#45;&gt;SG_0_Node_2 -->
<g id="edge4" class="edge">
<title>SG_0_Node_1&#45;&gt;SG_0_Node_2</title>
<path fill="none" stroke="#000000" d="M305.3978,-1267.6125C309.2133,-1256.2258 313.9021,-1241.1742 317,-1227.5584 328.0819,-1178.851 335.4355,-1121.0518 339.1483,-1087.453"/>
<polygon fill="#000000" stroke="#000000" points="342.6361,-1087.7539 340.226,-1077.4368 335.6762,-1087.005 342.6361,-1087.7539"/>
<text text-anchor="middle" x="381" y="-1178.5584" font-family="Times,serif" font-size="20.00" fill="#000000">[NA]</text>
<text text-anchor="middle" x="381" y="-1156.5584" font-family="Times,serif" font-size="20.00" fill="#000000">57 levels</text>
</g>
<!-- SG_0_Node_3 -->
<g id="node6" class="node">
<title>SG_0_Node_3</title>
<polygon fill="none" stroke="#000000" points="329,-916.9188 187,-916.9188 187,-880.9188 329,-880.9188 329,-916.9188"/>
<text text-anchor="middle" x="258" y="-893.9188" font-family="Times,serif" font-size="20.00" fill="#000000">Status&#45;Code</text>
</g>
<!-- SG_0_Node_2&#45;&gt;SG_0_Node_3 -->
<g id="edge5" class="edge">
<title>SG_0_Node_2&#45;&gt;SG_0_Node_3</title>
<path fill="none" stroke="#000000" d="M316.3294,-1041.1077C298.6827,-1028.02 277.4834,-1011.0139 272,-1001.132 259.4358,-978.4897 256.5976,-948.8222 256.5072,-927.2858"/>
<polygon fill="#000000" stroke="#000000" points="260.0089,-927.1921 256.663,-917.1395 253.0097,-927.0845 260.0089,-927.1921"/>
<text text-anchor="middle" x="406.5" y="-974.132" font-family="Times,serif" font-size="20.00" fill="#000000">ecocnt_audio=duration=1</text>
</g>
<!-- SG_0_Node_9 -->
<g id="node7" class="node">
<title>SG_0_Node_9</title>
<ellipse fill="none" stroke="#000000" cx="563" cy="-898.9188" rx="34.7971" ry="21.4286"/>
<text text-anchor="middle" x="563" y="-893.9188" font-family="Times,serif" font-size="20.00" fill="#000000">1.0</text>
</g>
<!-- SG_0_Node_2&#45;&gt;SG_0_Node_9 -->
<g id="edge6" class="edge">
<title>SG_0_Node_2&#45;&gt;SG_0_Node_9</title>
<path fill="none" stroke="#000000" d="M374.6068,-1053.9495C425.0052,-1044.9522 518.3867,-1025.4493 541,-1001.132 558.6072,-982.198 563.4318,-952.6896 564.2474,-930.2361"/>
<polygon fill="#000000" stroke="#000000" points="567.7479,-930.2103 564.3682,-920.169 560.7484,-930.1263 567.7479,-930.2103"/>
<text text-anchor="middle" x="607" y="-985.132" font-family="Times,serif" font-size="20.00" fill="#000000">[NA]</text>
<text text-anchor="middle" x="607" y="-963.132" font-family="Times,serif" font-size="20.00" fill="#000000">12 levels</text>
</g>
<!-- SG_0_Node_4 -->
<g id="node8" class="node">
<title>SG_0_Node_4</title>
<polygon fill="none" stroke="#000000" points="276.5,-646.4924 121.5,-646.4924 121.5,-610.4924 276.5,-610.4924 276.5,-646.4924"/>
<text text-anchor="middle" x="199" y="-623.4924" font-family="Times,serif" font-size="20.00" fill="#000000">Content&#45;Type</text>
</g>
<!-- SG_0_Node_3&#45;&gt;SG_0_Node_4 -->
<g id="edge7" class="edge">
<title>SG_0_Node_3&#45;&gt;SG_0_Node_4</title>
<path fill="none" stroke="#000000" d="M254.0372,-880.7555C243.9398,-834.474 217.1906,-711.8689 205.0935,-656.422"/>
<polygon fill="#000000" stroke="#000000" points="208.4968,-655.6008 202.9455,-646.5767 201.6576,-657.093 208.4968,-655.6008"/>
<text text-anchor="middle" x="264.5" y="-758.7056" font-family="Times,serif" font-size="20.00" fill="#000000">200</text>
</g>
<!-- SG_0_Node_10 -->
<g id="node9" class="node">
<title>SG_0_Node_10</title>
<ellipse fill="none" stroke="#000000" cx="329" cy="-628.4924" rx="34.7971" ry="21.4286"/>
<text text-anchor="middle" x="329" y="-623.4924" font-family="Times,serif" font-size="20.00" fill="#000000">1.0</text>
</g>
<!-- SG_0_Node_3&#45;&gt;SG_0_Node_10 -->
<g id="edge8" class="edge">
<title>SG_0_Node_3&#45;&gt;SG_0_Node_10</title>
<path fill="none" stroke="#000000" d="M268.9869,-880.902C275.385,-869.6935 283.1265,-854.7799 288,-840.7056 309.517,-778.5668 320.788,-702.0571 325.7578,-659.9706"/>
<polygon fill="#000000" stroke="#000000" points="329.2626,-660.126 326.915,-649.7946 322.3074,-659.335 329.2626,-660.126"/>
<text text-anchor="middle" x="368" y="-769.7056" font-family="Times,serif" font-size="20.00" fill="#000000">[NA]</text>
<text text-anchor="middle" x="368" y="-747.7056" font-family="Times,serif" font-size="20.00" fill="#000000">56 levels</text>
</g>
<!-- SG_0_Node_11 -->
<g id="node10" class="node">
<title>SG_0_Node_11</title>
<ellipse fill="none" stroke="#000000" cx="62" cy="-358.066" rx="34.7971" ry="21.4286"/>
<text text-anchor="middle" x="62" y="-353.066" font-family="Times,serif" font-size="20.00" fill="#000000">0.0</text>
</g>
<!-- SG_0_Node_4&#45;&gt;SG_0_Node_11 -->
<g id="edge9" class="edge">
<title>SG_0_Node_4&#45;&gt;SG_0_Node_11</title>
<path fill="none" stroke="#000000" d="M121.3897,-612.945C98.3772,-604.3286 75.6892,-590.9698 62,-570.2792 25.4887,-515.0943 40.2078,-432.8904 52.2448,-388.7408"/>
<polygon fill="#000000" stroke="#000000" points="55.6774,-389.4666 55.0603,-378.8898 48.9469,-387.5429 55.6774,-389.4666"/>
<text text-anchor="middle" x="173" y="-554.2792" font-family="Times,serif" font-size="20.00" fill="#000000">[NA]</text>
<text text-anchor="middle" x="173" y="-532.2792" font-family="Times,serif" font-size="20.00" fill="#000000">application/javascript</text>
<text text-anchor="middle" x="173" y="-510.2792" font-family="Times,serif" font-size="20.00" fill="#000000">audio/wav</text>
<text text-anchor="middle" x="173" y="-488.2792" font-family="Times,serif" font-size="20.00" fill="#000000">empty</text>
<text text-anchor="middle" x="173" y="-466.2792" font-family="Times,serif" font-size="20.00" fill="#000000">image/png</text>
<text text-anchor="middle" x="173" y="-444.2792" font-family="Times,serif" font-size="20.00" fill="#000000">text/css</text>
<text text-anchor="middle" x="173" y="-422.2792" font-family="Times,serif" font-size="20.00" fill="#000000">video/mp4</text>
</g>
<!-- SG_0_Node_5 -->
<g id="node11" class="node">
<title>SG_0_Node_5</title>
<polygon fill="none" stroke="#000000" points="397.5,-376.066 242.5,-376.066 242.5,-340.066 397.5,-340.066 397.5,-376.066"/>
<text text-anchor="middle" x="320" y="-353.066" font-family="Times,serif" font-size="20.00" fill="#000000">Content&#45;Type</text>
</g>
<!-- SG_0_Node_4&#45;&gt;SG_0_Node_5 -->
<g id="edge10" class="edge">
<title>SG_0_Node_4&#45;&gt;SG_0_Node_5</title>
<path fill="none" stroke="#000000" d="M241.198,-610.4756C258.3992,-600.9995 276.8305,-587.6818 288,-570.2792 324.7351,-513.0444 325.3534,-429.5414 322.6827,-386.3268"/>
<polygon fill="#000000" stroke="#000000" points="326.1661,-385.9696 321.9529,-376.2486 319.1844,-386.4753 326.1661,-385.9696"/>
<text text-anchor="middle" x="400" y="-499.2792" font-family="Times,serif" font-size="20.00" fill="#000000">application/pdf</text>
<text text-anchor="middle" x="400" y="-477.2792" font-family="Times,serif" font-size="20.00" fill="#000000">text/html</text>
</g>
<!-- SG_0_Node_6 -->
<g id="node12" class="node">
<title>SG_0_Node_6</title>
<polygon fill="none" stroke="#000000" points="280,-215.6396 18,-215.6396 18,-179.6396 280,-179.6396 280,-215.6396"/>
<text text-anchor="middle" x="149" y="-192.6396" font-family="Times,serif" font-size="20.00" fill="#000000">X&#45;Content&#45;Type&#45;Options</text>
</g>
<!-- SG_0_Node_5&#45;&gt;SG_0_Node_6 -->
<g id="edge11" class="edge">
<title>SG_0_Node_5&#45;&gt;SG_0_Node_6</title>
<path fill="none" stroke="#000000" d="M283.9148,-339.8913C265.4558,-329.6015 243.2965,-315.6406 226,-299.8528 201.4822,-277.4737 179.3543,-246.3992 165.1784,-224.4027"/>
<polygon fill="#000000" stroke="#000000" points="168.0887,-222.4563 159.7864,-215.8743 162.172,-226.1971 168.0887,-222.4563"/>
<text text-anchor="middle" x="273" y="-272.8528" font-family="Times,serif" font-size="20.00" fill="#000000">text/html</text>
</g>
<!-- SG_0_Node_12 -->
<g id="node13" class="node">
<title>SG_0_Node_12</title>
<ellipse fill="none" stroke="#000000" cx="333" cy="-197.6396" rx="34.7971" ry="21.4286"/>
<text text-anchor="middle" x="333" y="-192.6396" font-family="Times,serif" font-size="20.00" fill="#000000">1.0</text>
</g>
<!-- SG_0_Node_5&#45;&gt;SG_0_Node_12 -->
<g id="edge12" class="edge">
<title>SG_0_Node_5&#45;&gt;SG_0_Node_12</title>
<path fill="none" stroke="#000000" d="M321.466,-339.9749C323.647,-313.06 327.7764,-262.1015 330.4568,-229.0242"/>
<polygon fill="#000000" stroke="#000000" points="333.9526,-229.2164 331.2718,-218.9663 326.9755,-228.6509 333.9526,-229.2164"/>
<text text-anchor="middle" x="405" y="-272.8528" font-family="Times,serif" font-size="20.00" fill="#000000">application/pdf</text>
</g>
<!-- SG_0_Node_13 -->
<g id="node14" class="node">
<title>SG_0_Node_13</title>
<ellipse fill="none" stroke="#000000" cx="100" cy="-37.2132" rx="34.7971" ry="21.4286"/>
<text text-anchor="middle" x="100" y="-32.2132" font-family="Times,serif" font-size="20.00" fill="#000000">0.0</text>
</g>
<!-- SG_0_Node_6&#45;&gt;SG_0_Node_13 -->
<g id="edge13" class="edge">
<title>SG_0_Node_6&#45;&gt;SG_0_Node_13</title>
<path fill="none" stroke="#000000" d="M135.4372,-179.4676C127.9026,-168.4438 119.0548,-153.7743 114,-139.4264 105.9417,-116.5531 102.4911,-89.2826 101.0285,-68.6646"/>
<polygon fill="#000000" stroke="#000000" points="104.5146,-68.3239 100.4309,-58.5477 97.5267,-68.7367 104.5146,-68.3239"/>
<text text-anchor="middle" x="146" y="-123.4264" font-family="Times,serif" font-size="20.00" fill="#000000">[NA]</text>
<text text-anchor="middle" x="146" y="-101.4264" font-family="Times,serif" font-size="20.00" fill="#000000">empty</text>
</g>
<!-- SG_0_Node_14 -->
<g id="node15" class="node">
<title>SG_0_Node_14</title>
<ellipse fill="none" stroke="#000000" cx="200" cy="-37.2132" rx="34.7971" ry="21.4286"/>
<text text-anchor="middle" x="200" y="-32.2132" font-family="Times,serif" font-size="20.00" fill="#000000">1.0</text>
</g>
<!-- SG_0_Node_6&#45;&gt;SG_0_Node_14 -->
<g id="edge14" class="edge">
<title>SG_0_Node_6&#45;&gt;SG_0_Node_14</title>
<path fill="none" stroke="#000000" d="M159.4912,-179.5403C165.6287,-168.3016 173.1079,-153.3853 178,-139.4264 186.1288,-116.2324 191.8131,-88.9804 195.3648,-68.4511"/>
<polygon fill="#000000" stroke="#000000" points="198.8508,-68.8226 197.0294,-58.3855 191.9446,-67.6804 198.8508,-68.8226"/>
<text text-anchor="middle" x="224" y="-112.4264" font-family="Times,serif" font-size="20.00" fill="#000000">nosniff</text>
</g>
<!-- SG_1_Node_0 -->
<g id="node16" class="node">
<title>SG_1_Node_0</title>
<polygon fill="none" stroke="#000000" points="1163.5,-1460.9848 846.5,-1460.9848 846.5,-1424.9848 1163.5,-1424.9848 1163.5,-1460.9848"/>
<text text-anchor="middle" x="1005" y="-1437.9848" font-family="Times,serif" font-size="20.00" fill="#000000">Cross&#45;Origin&#45;Resource&#45;Policy</text>
</g>
<!-- SG_1_Node_1 -->
<g id="node17" class="node">
<title>SG_1_Node_1</title>
<polygon fill="none" stroke="#000000" points="996,-1303.7716 854,-1303.7716 854,-1267.7716 996,-1267.7716 996,-1303.7716"/>
<text text-anchor="middle" x="925" y="-1280.7716" font-family="Times,serif" font-size="20.00" fill="#000000">Status&#45;Code</text>
</g>
<!-- SG_1_Node_0&#45;&gt;SG_1_Node_1 -->
<g id="edge15" class="edge">
<title>SG_1_Node_0&#45;&gt;SG_1_Node_1</title>
<path fill="none" stroke="#000000" d="M982.8931,-1424.8971C972.1396,-1415.02 959.8689,-1401.9681 952,-1387.9848 938.9867,-1364.8598 932.0605,-1335.2548 928.4965,-1313.8643"/>
<polygon fill="#000000" stroke="#000000" points="931.9292,-1313.1566 926.9649,-1303.7968 925.0088,-1314.2095 931.9292,-1313.1566"/>
<text text-anchor="middle" x="984" y="-1360.9848" font-family="Times,serif" font-size="20.00" fill="#000000">empty</text>
</g>
<!-- SG_1_Node_2 -->
<g id="node18" class="node">
<title>SG_1_Node_2</title>
<ellipse fill="none" stroke="#000000" cx="1049" cy="-1285.7716" rx="34.7971" ry="21.4286"/>
<text text-anchor="middle" x="1049" y="-1280.7716" font-family="Times,serif" font-size="20.00" fill="#000000">1.0</text>
</g>
<!-- SG_1_Node_0&#45;&gt;SG_1_Node_2 -->
<g id="edge16" class="edge">
<title>SG_1_Node_0&#45;&gt;SG_1_Node_2</title>
<path fill="none" stroke="#000000" d="M1010.0474,-1424.9505C1017.4412,-1398.5322 1031.3171,-1348.9533 1040.3551,-1316.6601"/>
<polygon fill="#000000" stroke="#000000" points="1043.7804,-1317.4072 1043.1052,-1306.8339 1037.0395,-1315.5205 1043.7804,-1317.4072"/>
<text text-anchor="middle" x="1093" y="-1371.9848" font-family="Times,serif" font-size="20.00" fill="#000000">[NA]</text>
<text text-anchor="middle" x="1093" y="-1349.9848" font-family="Times,serif" font-size="20.00" fill="#000000">same&#45;origin</text>
</g>
<!-- SG_1_Node_3 -->
<g id="node19" class="node">
<title>SG_1_Node_3</title>
<ellipse fill="none" stroke="#000000" cx="884" cy="-1059.3452" rx="34.7971" ry="21.4286"/>
<text text-anchor="middle" x="884" y="-1054.3452" font-family="Times,serif" font-size="20.00" fill="#000000">0.0</text>
</g>
<!-- SG_1_Node_1&#45;&gt;SG_1_Node_3 -->
<g id="edge17" class="edge">
<title>SG_1_Node_1&#45;&gt;SG_1_Node_3</title>
<path fill="none" stroke="#000000" d="M914.5086,-1267.5223C908.6092,-1256.3523 901.7045,-1241.5594 898,-1227.5584 885.724,-1181.1612 883.4252,-1125.2832 883.3621,-1091.0444"/>
<polygon fill="#000000" stroke="#000000" points="886.8634,-1090.744 883.4104,-1080.7277 879.8635,-1090.7111 886.8634,-1090.744"/>
<text text-anchor="middle" x="944" y="-1178.5584" font-family="Times,serif" font-size="20.00" fill="#000000">[NA]</text>
<text text-anchor="middle" x="944" y="-1156.5584" font-family="Times,serif" font-size="20.00" fill="#000000">57 levels</text>
</g>
<!-- SG_1_Node_4 -->
<g id="node20" class="node">
<title>SG_1_Node_4</title>
<ellipse fill="none" stroke="#000000" cx="1012" cy="-1059.3452" rx="34.7971" ry="21.4286"/>
<text text-anchor="middle" x="1012" y="-1054.3452" font-family="Times,serif" font-size="20.00" fill="#000000">1.0</text>
</g>
<!-- SG_1_Node_1&#45;&gt;SG_1_Node_4 -->
<g id="edge18" class="edge">
<title>SG_1_Node_1&#45;&gt;SG_1_Node_4</title>
<path fill="none" stroke="#000000" d="M953.3641,-1267.5545C966.7091,-1257.4345 981.5212,-1243.6385 990,-1227.5584 1012.8444,-1184.2339 1015.293,-1126.2143 1014.204,-1090.8734"/>
<polygon fill="#000000" stroke="#000000" points="1017.6922,-1090.5175 1013.7712,-1080.675 1010.6985,-1090.8144 1017.6922,-1090.5175"/>
<text text-anchor="middle" x="1033.5" y="-1211.5584" font-family="Times,serif" font-size="20.00" fill="#000000">100</text>
<text text-anchor="middle" x="1033.5" y="-1189.5584" font-family="Times,serif" font-size="20.00" fill="#000000">101</text>
<text text-anchor="middle" x="1033.5" y="-1167.5584" font-family="Times,serif" font-size="20.00" fill="#000000">102</text>
<text text-anchor="middle" x="1033.5" y="-1145.5584" font-family="Times,serif" font-size="20.00" fill="#000000">103</text>
<text text-anchor="middle" x="1033.5" y="-1123.5584" font-family="Times,serif" font-size="20.00" fill="#000000">407</text>
</g>
<!-- SG_2_Node_0 -->
<g id="node21" class="node">
<title>SG_2_Node_0</title>
<polygon fill="none" stroke="#000000" points="2616.5,-1460.9848 2551.5,-1460.9848 2551.5,-1424.9848 2616.5,-1424.9848 2616.5,-1460.9848"/>
<text text-anchor="middle" x="2584" y="-1437.9848" font-family="Times,serif" font-size="20.00" fill="#000000">body</text>
</g>
<!-- SG_2_Node_6 -->
<g id="node22" class="node">
<title>SG_2_Node_6</title>
<ellipse fill="none" stroke="#000000" cx="2520" cy="-1285.7716" rx="34.7971" ry="21.4286"/>
<text text-anchor="middle" x="2520" y="-1280.7716" font-family="Times,serif" font-size="20.00" fill="#000000">0.0</text>
</g>
<!-- SG_2_Node_0&#45;&gt;SG_2_Node_6 -->
<g id="edge19" class="edge">
<title>SG_2_Node_0&#45;&gt;SG_2_Node_6</title>
<path fill="none" stroke="#000000" d="M2562.2079,-1424.7894C2551.9493,-1414.9772 2540.5534,-1402.0153 2534,-1387.9848 2523.6725,-1365.8741 2520.3724,-1338.3458 2519.5448,-1317.4298"/>
<polygon fill="#000000" stroke="#000000" points="2523.0378,-1317.0771 2519.3133,-1307.1586 2516.0396,-1317.2349 2523.0378,-1317.0771"/>
<text text-anchor="middle" x="2580" y="-1371.9848" font-family="Times,serif" font-size="20.00" fill="#000000">[NA]</text>
<text text-anchor="middle" x="2580" y="-1349.9848" font-family="Times,serif" font-size="20.00" fill="#000000">12 levels</text>
</g>
<!-- SG_2_Node_1 -->
<g id="node23" class="node">
<title>SG_2_Node_1</title>
<polygon fill="none" stroke="#000000" points="2719,-1303.7716 2577,-1303.7716 2577,-1267.7716 2719,-1267.7716 2719,-1303.7716"/>
<text text-anchor="middle" x="2648" y="-1280.7716" font-family="Times,serif" font-size="20.00" fill="#000000">Status&#45;Code</text>
</g>
<!-- SG_2_Node_0&#45;&gt;SG_2_Node_1 -->
<g id="edge20" class="edge">
<title>SG_2_Node_0&#45;&gt;SG_2_Node_1</title>
<path fill="none" stroke="#000000" d="M2601.4302,-1424.4933C2610.0355,-1414.4103 2619.8619,-1401.2952 2626,-1387.9848 2636.9246,-1364.295 2642.5168,-1334.9895 2645.3207,-1313.84"/>
<polygon fill="#000000" stroke="#000000" points="2648.7988,-1314.231 2646.5154,-1303.8852 2641.8487,-1313.3969 2648.7988,-1314.231"/>
<text text-anchor="middle" x="2774.5" y="-1360.9848" font-family="Times,serif" font-size="20.00" fill="#000000">ecocnt_audio=duration=1</text>
</g>
<!-- SG_2_Node_7 -->
<g id="node24" class="node">
<title>SG_2_Node_7</title>
<ellipse fill="none" stroke="#000000" cx="2501" cy="-1059.3452" rx="34.7971" ry="21.4286"/>
<text text-anchor="middle" x="2501" y="-1054.3452" font-family="Times,serif" font-size="20.00" fill="#000000">0.0</text>
</g>
<!-- SG_2_Node_1&#45;&gt;SG_2_Node_7 -->
<g id="edge21" class="edge">
<title>SG_2_Node_1&#45;&gt;SG_2_Node_7</title>
<path fill="none" stroke="#000000" d="M2614.9603,-1267.7225C2599.0124,-1257.6453 2580.6441,-1243.8369 2568,-1227.5584 2535.6191,-1185.87 2516.8905,-1126.4951 2507.8364,-1090.5742"/>
<polygon fill="#000000" stroke="#000000" points="2511.191,-1089.5561 2505.4341,-1080.6618 2504.388,-1091.2049 2511.191,-1089.5561"/>
<text text-anchor="middle" x="2614" y="-1178.5584" font-family="Times,serif" font-size="20.00" fill="#000000">[NA]</text>
<text text-anchor="middle" x="2614" y="-1156.5584" font-family="Times,serif" font-size="20.00" fill="#000000">61 levels</text>
</g>
<!-- SG_2_Node_2 -->
<g id="node25" class="node">
<title>SG_2_Node_2</title>
<polygon fill="none" stroke="#000000" points="2870.5,-1077.3452 2553.5,-1077.3452 2553.5,-1041.3452 2870.5,-1041.3452 2870.5,-1077.3452"/>
<text text-anchor="middle" x="2712" y="-1054.3452" font-family="Times,serif" font-size="20.00" fill="#000000">Cross&#45;Origin&#45;Resource&#45;Policy</text>
</g>
<!-- SG_2_Node_1&#45;&gt;SG_2_Node_2 -->
<g id="edge22" class="edge">
<title>SG_2_Node_1&#45;&gt;SG_2_Node_2</title>
<path fill="none" stroke="#000000" d="M2653.1292,-1267.625C2664.2701,-1228.2095 2690.7463,-1134.5389 2704.0631,-1087.4254"/>
<polygon fill="#000000" stroke="#000000" points="2707.4944,-1088.1533 2706.8464,-1077.5783 2700.7583,-1086.2493 2707.4944,-1088.1533"/>
<text text-anchor="middle" x="2714.5" y="-1167.5584" font-family="Times,serif" font-size="20.00" fill="#000000">200</text>
</g>
<!-- SG_2_Node_8 -->
<g id="node26" class="node">
<title>SG_2_Node_8</title>
<ellipse fill="none" stroke="#000000" cx="2578" cy="-898.9188" rx="34.7971" ry="21.4286"/>
<text text-anchor="middle" x="2578" y="-893.9188" font-family="Times,serif" font-size="20.00" fill="#000000">0.0</text>
</g>
<!-- SG_2_Node_2&#45;&gt;SG_2_Node_8 -->
<g id="edge23" class="edge">
<title>SG_2_Node_2&#45;&gt;SG_2_Node_8</title>
<path fill="none" stroke="#000000" d="M2649.0217,-1041.3445C2628.4947,-1032.4466 2607.5297,-1019.5377 2594,-1001.132 2579.0982,-980.8598 2575.7138,-952.1694 2575.7044,-930.343"/>
<polygon fill="#000000" stroke="#000000" points="2579.2056,-930.324 2575.9352,-920.2466 2572.2075,-930.164 2579.2056,-930.324"/>
<text text-anchor="middle" x="2655" y="-985.132" font-family="Times,serif" font-size="20.00" fill="#000000">[NA]</text>
<text text-anchor="middle" x="2655" y="-963.132" font-family="Times,serif" font-size="20.00" fill="#000000">same&#45;origin</text>
</g>
<!-- SG_2_Node_3 -->
<g id="node27" class="node">
<title>SG_2_Node_3</title>
<polygon fill="none" stroke="#000000" points="2813.5,-916.9188 2658.5,-916.9188 2658.5,-880.9188 2813.5,-880.9188 2813.5,-916.9188"/>
<text text-anchor="middle" x="2736" y="-893.9188" font-family="Times,serif" font-size="20.00" fill="#000000">Content&#45;Type</text>
</g>
<!-- SG_2_Node_2&#45;&gt;SG_2_Node_3 -->
<g id="edge24" class="edge">
<title>SG_2_Node_2&#45;&gt;SG_2_Node_3</title>
<path fill="none" stroke="#000000" d="M2714.7065,-1041.2541C2718.8657,-1013.4519 2726.863,-959.9947 2731.7853,-927.0919"/>
<polygon fill="#000000" stroke="#000000" points="2735.2485,-927.5978 2733.2666,-917.19 2728.3255,-926.562 2735.2485,-927.5978"/>
<text text-anchor="middle" x="2759" y="-974.132" font-family="Times,serif" font-size="20.00" fill="#000000">empty</text>
</g>
<!-- SG_2_Node_4 -->
<g id="node28" class="node">
<title>SG_2_Node_4</title>
<polygon fill="none" stroke="#000000" points="2670.5,-646.4924 2515.5,-646.4924 2515.5,-610.4924 2670.5,-610.4924 2670.5,-646.4924"/>
<text text-anchor="middle" x="2593" y="-623.4924" font-family="Times,serif" font-size="20.00" fill="#000000">Content&#45;Type</text>
</g>
<!-- SG_2_Node_3&#45;&gt;SG_2_Node_4 -->
<g id="edge25" class="edge">
<title>SG_2_Node_3&#45;&gt;SG_2_Node_4</title>
<path fill="none" stroke="#000000" d="M2658.4541,-885.3186C2633.3035,-876.8327 2608.0346,-863.0586 2593,-840.7056 2555.2138,-784.5262 2571.6766,-699.6498 2583.9752,-656.2253"/>
<polygon fill="#000000" stroke="#000000" points="2587.337,-657.1992 2586.8227,-646.6168 2580.6255,-655.2102 2587.337,-657.1992"/>
<text text-anchor="middle" x="2670" y="-769.7056" font-family="Times,serif" font-size="20.00" fill="#000000">application/pdf</text>
<text text-anchor="middle" x="2670" y="-747.7056" font-family="Times,serif" font-size="20.00" fill="#000000">text/html</text>
</g>
<!-- SG_2_Node_9 -->
<g id="node29" class="node">
<title>SG_2_Node_9</title>
<ellipse fill="none" stroke="#000000" cx="2783" cy="-628.4924" rx="34.7971" ry="21.4286"/>
<text text-anchor="middle" x="2783" y="-623.4924" font-family="Times,serif" font-size="20.00" fill="#000000">1.0</text>
</g>
<!-- SG_2_Node_3&#45;&gt;SG_2_Node_9 -->
<g id="edge26" class="edge">
<title>SG_2_Node_3&#45;&gt;SG_2_Node_9</title>
<path fill="none" stroke="#000000" d="M2741.2133,-880.6776C2744.3485,-869.26 2748.2506,-854.2048 2751,-840.7056 2763.9971,-776.8924 2774.1635,-701.2927 2779.3058,-659.7479"/>
<polygon fill="#000000" stroke="#000000" points="2782.7944,-660.0537 2780.5331,-649.703 2775.8461,-659.2047 2782.7944,-660.0537"/>
<text text-anchor="middle" x="2886" y="-824.7056" font-family="Times,serif" font-size="20.00" fill="#000000">[NA]</text>
<text text-anchor="middle" x="2886" y="-802.7056" font-family="Times,serif" font-size="20.00" fill="#000000">application/javascript</text>
<text text-anchor="middle" x="2886" y="-780.7056" font-family="Times,serif" font-size="20.00" fill="#000000">audio/wav</text>
<text text-anchor="middle" x="2886" y="-758.7056" font-family="Times,serif" font-size="20.00" fill="#000000">empty</text>
<text text-anchor="middle" x="2886" y="-736.7056" font-family="Times,serif" font-size="20.00" fill="#000000">image/png</text>
<text text-anchor="middle" x="2886" y="-714.7056" font-family="Times,serif" font-size="20.00" fill="#000000">text/css</text>
<text text-anchor="middle" x="2886" y="-692.7056" font-family="Times,serif" font-size="20.00" fill="#000000">video/mp4</text>
</g>
<!-- SG_2_Node_10 -->
<g id="node30" class="node">
<title>SG_2_Node_10</title>
<ellipse fill="none" stroke="#000000" cx="2535" cy="-358.066" rx="34.7971" ry="21.4286"/>
<text text-anchor="middle" x="2535" y="-353.066" font-family="Times,serif" font-size="20.00" fill="#000000">0.0</text>
</g>
<!-- SG_2_Node_4&#45;&gt;SG_2_Node_10 -->
<g id="edge27" class="edge">
<title>SG_2_Node_4&#45;&gt;SG_2_Node_10</title>
<path fill="none" stroke="#000000" d="M2574.7947,-610.2759C2565.3176,-599.5735 2554.5716,-585.2377 2549,-570.2792 2526.3076,-509.3554 2528.208,-431.8461 2531.6064,-389.388"/>
<polygon fill="#000000" stroke="#000000" points="2535.0969,-389.649 2532.4886,-379.3802 2528.1239,-389.0342 2535.0969,-389.649"/>
<text text-anchor="middle" x="2626" y="-488.2792" font-family="Times,serif" font-size="20.00" fill="#000000">application/pdf</text>
</g>
<!-- SG_2_Node_5 -->
<g id="node31" class="node">
<title>SG_2_Node_5</title>
<polygon fill="none" stroke="#000000" points="2856,-376.066 2594,-376.066 2594,-340.066 2856,-340.066 2856,-376.066"/>
<text text-anchor="middle" x="2725" y="-353.066" font-family="Times,serif" font-size="20.00" fill="#000000">X&#45;Content&#45;Type&#45;Options</text>
</g>
<!-- SG_2_Node_4&#45;&gt;SG_2_Node_5 -->
<g id="edge28" class="edge">
<title>SG_2_Node_4&#45;&gt;SG_2_Node_5</title>
<path fill="none" stroke="#000000" d="M2651.1429,-610.4713C2670.7042,-601.499 2690.6713,-588.5469 2703,-570.2792 2740.9172,-514.0968 2735.868,-429.8022 2729.9043,-386.2922"/>
<polygon fill="#000000" stroke="#000000" points="2733.3289,-385.5264 2728.3939,-376.151 2726.4053,-386.5575 2733.3289,-385.5264"/>
<text text-anchor="middle" x="2781" y="-488.2792" font-family="Times,serif" font-size="20.00" fill="#000000">text/html</text>
</g>
<!-- SG_2_Node_11 -->
<g id="node32" class="node">
<title>SG_2_Node_11</title>
<ellipse fill="none" stroke="#000000" cx="2672" cy="-197.6396" rx="34.7971" ry="21.4286"/>
<text text-anchor="middle" x="2672" y="-192.6396" font-family="Times,serif" font-size="20.00" fill="#000000">0.0</text>
</g>
<!-- SG_2_Node_5&#45;&gt;SG_2_Node_11 -->
<g id="edge29" class="edge">
<title>SG_2_Node_5&#45;&gt;SG_2_Node_11</title>
<path fill="none" stroke="#000000" d="M2709.6489,-339.8759C2701.2819,-328.9614 2691.5319,-314.4081 2686,-299.8528 2677.3844,-277.1836 2673.9661,-249.9012 2672.6575,-229.2269"/>
<polygon fill="#000000" stroke="#000000" points="2676.145,-228.8897 2672.1491,-219.0773 2669.1538,-229.2399 2676.145,-228.8897"/>
<text text-anchor="middle" x="2721" y="-272.8528" font-family="Times,serif" font-size="20.00" fill="#000000">nosniff</text>
</g>
<!-- SG_2_Node_12 -->
<g id="node33" class="node">
<title>SG_2_Node_12</title>
<ellipse fill="none" stroke="#000000" cx="2778" cy="-197.6396" rx="34.7971" ry="21.4286"/>
<text text-anchor="middle" x="2778" y="-192.6396" font-family="Times,serif" font-size="20.00" fill="#000000">1.0</text>
</g>
<!-- SG_2_Node_5&#45;&gt;SG_2_Node_12 -->
<g id="edge30" class="edge">
<title>SG_2_Node_5&#45;&gt;SG_2_Node_12</title>
<path fill="none" stroke="#000000" d="M2736.2697,-340.0582C2742.8505,-328.853 2750.8473,-313.9397 2756,-299.8528 2764.4428,-276.7713 2770.109,-249.5128 2773.5739,-228.9524"/>
<polygon fill="#000000" stroke="#000000" points="2777.0633,-229.2964 2775.1882,-218.8688 2770.1513,-228.1897 2777.0633,-229.2964"/>
<text text-anchor="middle" x="2800" y="-283.8528" font-family="Times,serif" font-size="20.00" fill="#000000">[NA]</text>
<text text-anchor="middle" x="2800" y="-261.8528" font-family="Times,serif" font-size="20.00" fill="#000000">empty</text>
</g>
</g>
</svg>
