<?xml version="1.0" encoding="UTF-8" standalone="no"?>
<!DOCTYPE svg PUBLIC "-//W3C//DTD SVG 1.1//EN"
 "http://www.w3.org/Graphics/SVG/1.1/DTD/svg11.dtd">
<!-- Generated by graphviz version 2.40.1 (20161225.0304)
 -->
<!-- Title: G Pages: 1 -->
<svg width="1663pt" height="1091pt"
 viewBox="0.00 0.00 1663.00 1090.56" xmlns="http://www.w3.org/2000/svg" xmlns:xlink="http://www.w3.org/1999/xlink">
<g id="graph0" class="graph" transform="scale(1 1) rotate(0) translate(4 1086.5584)">
<title>G</title>
<polygon fill="#ffffff" stroke="transparent" points="-4,4 -4,-1086.5584 1659,-1086.5584 1659,4 -4,4"/>
<g id="clust1" class="cluster">
<title>cluster_0</title>
<polygon fill="none" stroke="#000000" points="8,-964.132 8,-1074.5584 326,-1074.5584 326,-964.132 8,-964.132"/>
<text text-anchor="middle" x="167" y="-1038.5584" font-family="Times,serif" font-size="40.00" fill="#000000">Tree 0, Class 0</text>
</g>
<g id="clust3" class="cluster">
<title>cluster_1</title>
<polygon fill="none" stroke="#000000" points="334,-964.132 334,-1074.5584 652,-1074.5584 652,-964.132 334,-964.132"/>
<text text-anchor="middle" x="493" y="-1038.5584" font-family="Times,serif" font-size="40.00" fill="#000000">Tree 0, Class 2</text>
</g>
<g id="clust5" class="cluster">
<title>cluster_2</title>
<polygon fill="none" stroke="#000000" points="660,-8 660,-1071.3452 1091,-1071.3452 1091,-8 660,-8"/>
<text text-anchor="middle" x="875.5" y="-1035.3452" font-family="Times,serif" font-size="40.00" fill="#000000">Tree 0, Class None</text>
</g>
<g id="clust12" class="cluster">
<title>cluster_3</title>
<polygon fill="none" stroke="#000000" points="1099,-8 1099,-1071.3452 1530,-1071.3452 1530,-8 1099,-8"/>
<text text-anchor="middle" x="1314.5" y="-1035.3452" font-family="Times,serif" font-size="40.00" fill="#000000">Tree 0, Class js&#45;NaN</text>
</g>
<!-- SG_0_Node_0 -->
<g id="node1" class="node">
<title>SG_0_Node_0</title>
<ellipse fill="none" stroke="#000000" cx="167" cy="-993.3452" rx="34.7971" ry="21.4286"/>
<text text-anchor="middle" x="167" y="-988.3452" font-family="Times,serif" font-size="20.00" fill="#000000">0.0</text>
</g>
<!-- SG_1_Node_0 -->
<g id="node2" class="node">
<title>SG_1_Node_0</title>
<ellipse fill="none" stroke="#000000" cx="493" cy="-993.3452" rx="34.7971" ry="21.4286"/>
<text text-anchor="middle" x="493" y="-988.3452" font-family="Times,serif" font-size="20.00" fill="#000000">0.0</text>
</g>
<!-- SG_2_Node_0 -->
<g id="node3" class="node">
<title>SG_2_Node_0</title>
<polygon fill="none" stroke="#000000" points="856,-1011.3452 714,-1011.3452 714,-975.3452 856,-975.3452 856,-1011.3452"/>
<text text-anchor="middle" x="785" y="-988.3452" font-family="Times,serif" font-size="20.00" fill="#000000">Status&#45;Code</text>
</g>
<!-- SG_2_Node_6 -->
<g id="node4" class="node">
<title>SG_2_Node_6</title>
<ellipse fill="none" stroke="#000000" cx="744" cy="-832.9188" rx="34.7971" ry="21.4286"/>
<text text-anchor="middle" x="744" y="-827.9188" font-family="Times,serif" font-size="20.00" fill="#000000">0.0</text>
</g>
<!-- SG_2_Node_0&#45;&gt;SG_2_Node_6 -->
<g id="edge1" class="edge">
<title>SG_2_Node_0&#45;&gt;SG_2_Node_6</title>
<path fill="none" stroke="#000000" d="M775.3518,-975.2207C769.7607,-963.9729 763.0473,-949.0557 759,-935.132 752.2643,-911.9596 748.4654,-884.9107 746.3769,-864.4609"/>
<polygon fill="#000000" stroke="#000000" points="749.8541,-864.0529 745.4341,-854.424 742.8847,-864.7075 749.8541,-864.0529"/>
<text text-anchor="middle" x="805" y="-919.132" font-family="Times,serif" font-size="20.00" fill="#000000">[NA]</text>
<text text-anchor="middle" x="805" y="-897.132" font-family="Times,serif" font-size="20.00" fill="#000000">61 levels</text>
</g>
<!-- SG_2_Node_1 -->
<g id="node5" class="node">
<title>SG_2_Node_1</title>
<polygon fill="none" stroke="#000000" points="951.5,-850.9188 796.5,-850.9188 796.5,-814.9188 951.5,-814.9188 951.5,-850.9188"/>
<text text-anchor="middle" x="874" y="-827.9188" font-family="Times,serif" font-size="20.00" fill="#000000">Content&#45;Type</text>
</g>
<!-- SG_2_Node_0&#45;&gt;SG_2_Node_1 -->
<g id="edge2" class="edge">
<title>SG_2_Node_0&#45;&gt;SG_2_Node_1</title>
<path fill="none" stroke="#000000" d="M812.8453,-975.1241C826.32,-964.9139 841.5798,-951.039 851,-935.132 864.3996,-912.5054 870.0001,-882.8359 872.3368,-861.2948"/>
<polygon fill="#000000" stroke="#000000" points="875.8396,-861.4227 873.2635,-851.1459 868.8686,-860.7861 875.8396,-861.4227"/>
<text text-anchor="middle" x="886.5" y="-908.132" font-family="Times,serif" font-size="20.00" fill="#000000">206</text>
</g>
<!-- SG_2_Node_7 -->
<g id="node6" class="node">
<title>SG_2_Node_7</title>
<ellipse fill="none" stroke="#000000" cx="720" cy="-540.4924" rx="34.7971" ry="21.4286"/>
<text text-anchor="middle" x="720" y="-535.4924" font-family="Times,serif" font-size="20.00" fill="#000000">0.0</text>
</g>
<!-- SG_2_Node_1&#45;&gt;SG_2_Node_7 -->
<g id="edge3" class="edge">
<title>SG_2_Node_1&#45;&gt;SG_2_Node_7</title>
<path fill="none" stroke="#000000" d="M803.9579,-814.8454C768.2998,-804.0805 730.3184,-789.6371 720,-774.7056 677.5729,-713.3108 695.9801,-619.5654 709.8009,-571.4113"/>
<polygon fill="#000000" stroke="#000000" points="713.2295,-572.1622 712.7433,-561.5785 706.5233,-570.1553 713.2295,-572.1622"/>
<text text-anchor="middle" x="831" y="-758.7056" font-family="Times,serif" font-size="20.00" fill="#000000">[NA]</text>
<text text-anchor="middle" x="831" y="-736.7056" font-family="Times,serif" font-size="20.00" fill="#000000">application/javascript</text>
<text text-anchor="middle" x="831" y="-714.7056" font-family="Times,serif" font-size="20.00" fill="#000000">application/pdf</text>
<text text-anchor="middle" x="831" y="-692.7056" font-family="Times,serif" font-size="20.00" fill="#000000">audio/wav</text>
<text text-anchor="middle" x="831" y="-670.7056" font-family="Times,serif" font-size="20.00" fill="#000000">image/png</text>
<text text-anchor="middle" x="831" y="-648.7056" font-family="Times,serif" font-size="20.00" fill="#000000">text/css</text>
<text text-anchor="middle" x="831" y="-626.7056" font-family="Times,serif" font-size="20.00" fill="#000000">text/html</text>
<text text-anchor="middle" x="831" y="-604.7056" font-family="Times,serif" font-size="20.00" fill="#000000">video/mp4</text>
</g>
<!-- SG_2_Node_2 -->
<g id="node7" class="node">
<title>SG_2_Node_2</title>
<polygon fill="none" stroke="#000000" points="1030.5,-558.4924 925.5,-558.4924 925.5,-522.4924 1030.5,-522.4924 1030.5,-558.4924"/>
<text text-anchor="middle" x="978" y="-535.4924" font-family="Times,serif" font-size="20.00" fill="#000000">Location</text>
</g>
<!-- SG_2_Node_1&#45;&gt;SG_2_Node_2 -->
<g id="edge4" class="edge">
<title>SG_2_Node_1&#45;&gt;SG_2_Node_2</title>
<path fill="none" stroke="#000000" d="M906.0898,-814.8126C920.66,-804.8879 936.6851,-791.2288 946,-774.7056 983.4098,-708.3464 983.3932,-615.0843 980.5566,-568.8197"/>
<polygon fill="#000000" stroke="#000000" points="984.0333,-568.3658 979.8378,-558.6371 977.0507,-568.8587 984.0333,-568.3658"/>
<text text-anchor="middle" x="1013" y="-681.7056" font-family="Times,serif" font-size="20.00" fill="#000000">empty</text>
</g>
<!-- SG_2_Node_8 -->
<g id="node8" class="node">
<title>SG_2_Node_8</title>
<ellipse fill="none" stroke="#000000" cx="703" cy="-358.066" rx="34.7971" ry="21.4286"/>
<text text-anchor="middle" x="703" y="-353.066" font-family="Times,serif" font-size="20.00" fill="#000000">0.0</text>
</g>
<!-- SG_2_Node_2&#45;&gt;SG_2_Node_8 -->
<g id="edge5" class="edge">
<title>SG_2_Node_2&#45;&gt;SG_2_Node_8</title>
<path fill="none" stroke="#000000" d="M925.342,-537.4273C851.4069,-531.899 722.6344,-517.3783 694,-482.2792 672.6976,-456.1675 680.6701,-415.8088 690.1671,-388.2298"/>
<polygon fill="#000000" stroke="#000000" points="693.5062,-389.2907 693.6835,-378.6973 686.9388,-386.868 693.5062,-389.2907"/>
<text text-anchor="middle" x="831" y="-466.2792" font-family="Times,serif" font-size="20.00" fill="#000000">[NA]</text>
<text text-anchor="middle" x="831" y="-444.2792" font-family="Times,serif" font-size="20.00" fill="#000000">/</text>
<text text-anchor="middle" x="831" y="-422.2792" font-family="Times,serif" font-size="20.00" fill="#000000">http://localhost:8000/echo/</text>
</g>
<!-- SG_2_Node_3 -->
<g id="node9" class="node">
<title>SG_2_Node_3</title>
<polygon fill="none" stroke="#000000" points="1082.5,-376.066 765.5,-376.066 765.5,-340.066 1082.5,-340.066 1082.5,-376.066"/>
<text text-anchor="middle" x="924" y="-353.066" font-family="Times,serif" font-size="20.00" fill="#000000">Cross&#45;Origin&#45;Resource&#45;Policy</text>
</g>
<!-- SG_2_Node_2&#45;&gt;SG_2_Node_3 -->
<g id="edge6" class="edge">
<title>SG_2_Node_2&#45;&gt;SG_2_Node_3</title>
<path fill="none" stroke="#000000" d="M980.5752,-522.4895C983.3729,-497.657 985.7797,-451.9225 972,-416.2792 967.3873,-404.3478 959.3089,-393.0482 951.0802,-383.6346"/>
<polygon fill="#000000" stroke="#000000" points="953.5638,-381.1653 944.2054,-376.1983 948.4238,-385.9172 953.5638,-381.1653"/>
<text text-anchor="middle" x="1014" y="-444.2792" font-family="Times,serif" font-size="20.00" fill="#000000">empty</text>
</g>
<!-- SG_2_Node_9 -->
<g id="node10" class="node">
<title>SG_2_Node_9</title>
<ellipse fill="none" stroke="#000000" cx="799" cy="-197.6396" rx="34.7971" ry="21.4286"/>
<text text-anchor="middle" x="799" y="-192.6396" font-family="Times,serif" font-size="20.00" fill="#000000">0.0</text>
</g>
<!-- SG_2_Node_3&#45;&gt;SG_2_Node_9 -->
<g id="edge7" class="edge">
<title>SG_2_Node_3&#45;&gt;SG_2_Node_9</title>
<path fill="none" stroke="#000000" d="M862.6337,-339.9524C842.7534,-331.0438 822.6017,-318.1571 810,-299.8528 795.8229,-279.2603 793.8672,-250.6001 795.003,-228.8668"/>
<polygon fill="#000000" stroke="#000000" points="798.4985,-229.057 795.7689,-218.8198 791.5188,-228.5248 798.4985,-229.057"/>
<text text-anchor="middle" x="871" y="-283.8528" font-family="Times,serif" font-size="20.00" fill="#000000">[NA]</text>
<text text-anchor="middle" x="871" y="-261.8528" font-family="Times,serif" font-size="20.00" fill="#000000">same&#45;origin</text>
</g>
<!-- SG_2_Node_4 -->
<g id="node11" class="node">
<title>SG_2_Node_4</title>
<polygon fill="none" stroke="#000000" points="989.5,-215.6396 924.5,-215.6396 924.5,-179.6396 989.5,-179.6396 989.5,-215.6396"/>
<text text-anchor="middle" x="957" y="-192.6396" font-family="Times,serif" font-size="20.00" fill="#000000">body</text>
</g>
<!-- SG_2_Node_3&#45;&gt;SG_2_Node_4 -->
<g id="edge8" class="edge">
<title>SG_2_Node_3&#45;&gt;SG_2_Node_4</title>
<path fill="none" stroke="#000000" d="M927.7214,-339.9749C933.4403,-312.1727 944.4366,-258.7154 951.2048,-225.8126"/>
<polygon fill="#000000" stroke="#000000" points="954.6549,-226.4109 953.2416,-215.9107 947.7985,-225.0004 954.6549,-226.4109"/>
<text text-anchor="middle" x="976" y="-272.8528" font-family="Times,serif" font-size="20.00" fill="#000000">empty</text>
</g>
<!-- SG_2_Node_10 -->
<g id="node12" class="node">
<title>SG_2_Node_10</title>
<ellipse fill="none" stroke="#000000" cx="720" cy="-37.2132" rx="52.1524" ry="21.4286"/>
<text text-anchor="middle" x="720" y="-32.2132" font-family="Times,serif" font-size="20.00" fill="#000000">0.462</text>
</g>
<!-- SG_2_Node_4&#45;&gt;SG_2_Node_10 -->
<g id="edge9" class="edge">
<title>SG_2_Node_4&#45;&gt;SG_2_Node_10</title>
<path fill="none" stroke="#000000" d="M924.2449,-191.4594C855.7726,-178.3881 703.1954,-148.4035 696,-139.4264 679.541,-118.8919 689.2799,-89.0093 700.9023,-66.8538"/>
<polygon fill="#000000" stroke="#000000" points="704.0946,-68.3165 705.9277,-57.8814 697.9873,-64.8957 704.0946,-68.3165"/>
<text text-anchor="middle" x="830.5" y="-123.4264" font-family="Times,serif" font-size="20.00" fill="#000000">ecocnt_audio=duration=1</text>
<text text-anchor="middle" x="830.5" y="-101.4264" font-family="Times,serif" font-size="20.00" fill="#000000">empty</text>
</g>
<!-- SG_2_Node_11 -->
<g id="node13" class="node">
<title>SG_2_Node_11</title>
<ellipse fill="none" stroke="#000000" cx="991" cy="-37.2132" rx="34.7971" ry="21.4286"/>
<text text-anchor="middle" x="991" y="-32.2132" font-family="Times,serif" font-size="20.00" fill="#000000">1.0</text>
</g>
<!-- SG_2_Node_4&#45;&gt;SG_2_Node_11 -->
<g id="edge10" class="edge">
<title>SG_2_Node_4&#45;&gt;SG_2_Node_11</title>
<path fill="none" stroke="#000000" d="M960.8341,-179.5485C966.554,-152.5596 977.3976,-101.3949 984.4062,-68.3256"/>
<polygon fill="#000000" stroke="#000000" points="987.8861,-68.7866 986.5356,-58.2782 981.0382,-67.3353 987.8861,-68.7866"/>
<text text-anchor="middle" x="1024" y="-123.4264" font-family="Times,serif" font-size="20.00" fill="#000000">[NA]</text>
<text text-anchor="middle" x="1024" y="-101.4264" font-family="Times,serif" font-size="20.00" fill="#000000">11 levels</text>
</g>
<!-- SG_3_Node_0 -->
<g id="node14" class="node">
<title>SG_3_Node_0</title>
<polygon fill="none" stroke="#000000" points="1344,-1011.3452 1202,-1011.3452 1202,-975.3452 1344,-975.3452 1344,-1011.3452"/>
<text text-anchor="middle" x="1273" y="-988.3452" font-family="Times,serif" font-size="20.00" fill="#000000">Status&#45;Code</text>
</g>
<!-- SG_3_Node_1 -->
<g id="node15" class="node">
<title>SG_3_Node_1</title>
<polygon fill="none" stroke="#000000" points="1299.5,-850.9188 1144.5,-850.9188 1144.5,-814.9188 1299.5,-814.9188 1299.5,-850.9188"/>
<text text-anchor="middle" x="1222" y="-827.9188" font-family="Times,serif" font-size="20.00" fill="#000000">Content&#45;Type</text>
</g>
<!-- SG_3_Node_0&#45;&gt;SG_3_Node_1 -->
<g id="edge11" class="edge">
<title>SG_3_Node_0&#45;&gt;SG_3_Node_1</title>
<path fill="none" stroke="#000000" d="M1267.2488,-975.2541C1258.4104,-947.4519 1241.4162,-893.9947 1230.9563,-861.0919"/>
<polygon fill="#000000" stroke="#000000" points="1234.1736,-859.6596 1227.8084,-851.19 1227.5026,-861.7804 1234.1736,-859.6596"/>
<text text-anchor="middle" x="1273.5" y="-908.132" font-family="Times,serif" font-size="20.00" fill="#000000">206</text>
</g>
<!-- SG_3_Node_7 -->
<g id="node16" class="node">
<title>SG_3_Node_7</title>
<ellipse fill="none" stroke="#000000" cx="1352" cy="-832.9188" rx="34.7971" ry="21.4286"/>
<text text-anchor="middle" x="1352" y="-827.9188" font-family="Times,serif" font-size="20.00" fill="#000000">1.0</text>
</g>
<!-- SG_3_Node_0&#45;&gt;SG_3_Node_7 -->
<g id="edge12" class="edge">
<title>SG_3_Node_0&#45;&gt;SG_3_Node_7</title>
<path fill="none" stroke="#000000" d="M1281.9087,-975.2541C1295.3876,-947.8824 1321.1117,-895.6441 1337.3666,-862.635"/>
<polygon fill="#000000" stroke="#000000" points="1340.6047,-863.9818 1341.8826,-853.4643 1334.3249,-860.8893 1340.6047,-863.9818"/>
<text text-anchor="middle" x="1368" y="-919.132" font-family="Times,serif" font-size="20.00" fill="#000000">[NA]</text>
<text text-anchor="middle" x="1368" y="-897.132" font-family="Times,serif" font-size="20.00" fill="#000000">61 levels</text>
</g>
<!-- SG_3_Node_3 -->
<g id="node17" class="node">
<title>SG_3_Node_3</title>
<polygon fill="none" stroke="#000000" points="1231.5,-558.4924 1126.5,-558.4924 1126.5,-522.4924 1231.5,-522.4924 1231.5,-558.4924"/>
<text text-anchor="middle" x="1179" y="-535.4924" font-family="Times,serif" font-size="20.00" fill="#000000">Location</text>
</g>
<!-- SG_3_Node_1&#45;&gt;SG_3_Node_3 -->
<g id="edge13" class="edge">
<title>SG_3_Node_1&#45;&gt;SG_3_Node_3</title>
<path fill="none" stroke="#000000" d="M1211.9852,-814.8936C1206.2601,-803.6821 1199.5347,-788.7682 1196,-774.7056 1177.7751,-702.1989 1176.937,-613.3886 1177.9282,-568.8372"/>
<polygon fill="#000000" stroke="#000000" points="1181.4291,-568.845 1178.2019,-558.7537 1174.4317,-568.655 1181.4291,-568.845"/>
<text text-anchor="middle" x="1228" y="-681.7056" font-family="Times,serif" font-size="20.00" fill="#000000">empty</text>
</g>
<!-- SG_3_Node_8 -->
<g id="node18" class="node">
<title>SG_3_Node_8</title>
<ellipse fill="none" stroke="#000000" cx="1284" cy="-540.4924" rx="34.7971" ry="21.4286"/>
<text text-anchor="middle" x="1284" y="-535.4924" font-family="Times,serif" font-size="20.00" fill="#000000">1.0</text>
</g>
<!-- SG_3_Node_1&#45;&gt;SG_3_Node_8 -->
<g id="edge14" class="edge">
<title>SG_3_Node_1&#45;&gt;SG_3_Node_8</title>
<path fill="none" stroke="#000000" d="M1237.1337,-814.7345C1245.345,-803.8219 1254.845,-789.2686 1260,-774.7056 1284.4971,-705.5014 1286.4341,-618.1208 1285.4086,-572.13"/>
<polygon fill="#000000" stroke="#000000" points="1288.9005,-571.7931 1285.1149,-561.8977 1281.9033,-571.994 1288.9005,-571.7931"/>
<text text-anchor="middle" x="1396" y="-758.7056" font-family="Times,serif" font-size="20.00" fill="#000000">[NA]</text>
<text text-anchor="middle" x="1396" y="-736.7056" font-family="Times,serif" font-size="20.00" fill="#000000">application/javascript</text>
<text text-anchor="middle" x="1396" y="-714.7056" font-family="Times,serif" font-size="20.00" fill="#000000">application/pdf</text>
<text text-anchor="middle" x="1396" y="-692.7056" font-family="Times,serif" font-size="20.00" fill="#000000">audio/wav</text>
<text text-anchor="middle" x="1396" y="-670.7056" font-family="Times,serif" font-size="20.00" fill="#000000">image/png</text>
<text text-anchor="middle" x="1396" y="-648.7056" font-family="Times,serif" font-size="20.00" fill="#000000">text/css</text>
<text text-anchor="middle" x="1396" y="-626.7056" font-family="Times,serif" font-size="20.00" fill="#000000">text/html</text>
<text text-anchor="middle" x="1396" y="-604.7056" font-family="Times,serif" font-size="20.00" fill="#000000">video/mp4</text>
</g>
<!-- SG_3_Node_4 -->
<g id="node19" class="node">
<title>SG_3_Node_4</title>
<polygon fill="none" stroke="#000000" points="1424.5,-376.066 1107.5,-376.066 1107.5,-340.066 1424.5,-340.066 1424.5,-376.066"/>
<text text-anchor="middle" x="1266" y="-353.066" font-family="Times,serif" font-size="20.00" fill="#000000">Cross&#45;Origin&#45;Resource&#45;Policy</text>
</g>
<!-- SG_3_Node_3&#45;&gt;SG_3_Node_4 -->
<g id="edge15" class="edge">
<title>SG_3_Node_3&#45;&gt;SG_3_Node_4</title>
<path fill="none" stroke="#000000" d="M1169.77,-522.2339C1158.2785,-496.6984 1142.4056,-449.7022 1162,-416.2792 1170.9229,-401.0591 1185.4391,-389.5198 1200.8329,-380.8978"/>
<polygon fill="#000000" stroke="#000000" points="1202.7035,-383.8702 1209.9623,-376.1527 1199.4751,-377.6591 1202.7035,-383.8702"/>
<text text-anchor="middle" x="1194" y="-444.2792" font-family="Times,serif" font-size="20.00" fill="#000000">empty</text>
</g>
<!-- SG_3_Node_9 -->
<g id="node20" class="node">
<title>SG_3_Node_9</title>
<ellipse fill="none" stroke="#000000" cx="1477" cy="-358.066" rx="34.7971" ry="21.4286"/>
<text text-anchor="middle" x="1477" y="-353.066" font-family="Times,serif" font-size="20.00" fill="#000000">1.0</text>
</g>
<!-- SG_3_Node_3&#45;&gt;SG_3_Node_9 -->
<g id="edge16" class="edge">
<title>SG_3_Node_3&#45;&gt;SG_3_Node_9</title>
<path fill="none" stroke="#000000" d="M1208.6628,-522.3337C1264.4199,-488.201 1384.5189,-414.6801 1443.2597,-378.7208"/>
<polygon fill="#000000" stroke="#000000" points="1445.4397,-381.4901 1452.1411,-373.2839 1441.7849,-375.5199 1445.4397,-381.4901"/>
<text text-anchor="middle" x="1518" y="-466.2792" font-family="Times,serif" font-size="20.00" fill="#000000">[NA]</text>
<text text-anchor="middle" x="1518" y="-444.2792" font-family="Times,serif" font-size="20.00" fill="#000000">/</text>
<text text-anchor="middle" x="1518" y="-422.2792" font-family="Times,serif" font-size="20.00" fill="#000000">http://localhost:8000/echo/</text>
</g>
<!-- SG_3_Node_5 -->
<g id="node21" class="node">
<title>SG_3_Node_5</title>
<polygon fill="none" stroke="#000000" points="1248.5,-215.6396 1183.5,-215.6396 1183.5,-179.6396 1248.5,-179.6396 1248.5,-215.6396"/>
<text text-anchor="middle" x="1216" y="-192.6396" font-family="Times,serif" font-size="20.00" fill="#000000">body</text>
</g>
<!-- SG_3_Node_4&#45;&gt;SG_3_Node_5 -->
<g id="edge17" class="edge">
<title>SG_3_Node_4&#45;&gt;SG_3_Node_5</title>
<path fill="none" stroke="#000000" d="M1252.0384,-339.9514C1244.2847,-328.9474 1235.184,-314.2786 1230,-299.8528 1221.386,-275.8821 1218.022,-247.0012 1216.7334,-226.0625"/>
<polygon fill="#000000" stroke="#000000" points="1220.2209,-225.7202 1216.2319,-215.905 1213.2294,-226.0655 1220.2209,-225.7202"/>
<text text-anchor="middle" x="1262" y="-272.8528" font-family="Times,serif" font-size="20.00" fill="#000000">empty</text>
</g>
<!-- SG_3_Node_10 -->
<g id="node22" class="node">
<title>SG_3_Node_10</title>
<ellipse fill="none" stroke="#000000" cx="1316" cy="-197.6396" rx="34.7971" ry="21.4286"/>
<text text-anchor="middle" x="1316" y="-192.6396" font-family="Times,serif" font-size="20.00" fill="#000000">1.0</text>
</g>
<!-- SG_3_Node_4&#45;&gt;SG_3_Node_10 -->
<g id="edge18" class="edge">
<title>SG_3_Node_4&#45;&gt;SG_3_Node_10</title>
<path fill="none" stroke="#000000" d="M1276.1012,-339.923C1282.0168,-328.6684 1289.2371,-313.7507 1294,-299.8528 1301.9679,-276.6031 1307.6615,-249.3543 1311.2577,-228.8404"/>
<polygon fill="#000000" stroke="#000000" points="1314.742,-229.2255 1312.948,-218.7837 1307.8388,-228.0652 1314.742,-229.2255"/>
<text text-anchor="middle" x="1366" y="-283.8528" font-family="Times,serif" font-size="20.00" fill="#000000">[NA]</text>
<text text-anchor="middle" x="1366" y="-261.8528" font-family="Times,serif" font-size="20.00" fill="#000000">same&#45;origin</text>
</g>
<!-- SG_3_Node_11 -->
<g id="node23" class="node">
<title>SG_3_Node_11</title>
<ellipse fill="none" stroke="#000000" cx="1154" cy="-37.2132" rx="34.7971" ry="21.4286"/>
<text text-anchor="middle" x="1154" y="-32.2132" font-family="Times,serif" font-size="20.00" fill="#000000">0.0</text>
</g>
<!-- SG_3_Node_5&#45;&gt;SG_3_Node_11 -->
<g id="edge19" class="edge">
<title>SG_3_Node_5&#45;&gt;SG_3_Node_11</title>
<path fill="none" stroke="#000000" d="M1196.5603,-179.5466C1186.3531,-168.8829 1174.6218,-154.5446 1168,-139.4264 1158.2092,-117.0728 1154.8745,-89.5601 1153.8971,-68.712"/>
<polygon fill="#000000" stroke="#000000" points="1157.3882,-68.3663 1153.5792,-58.4798 1150.3915,-68.5837 1157.3882,-68.3663"/>
<text text-anchor="middle" x="1214" y="-123.4264" font-family="Times,serif" font-size="20.00" fill="#000000">[NA]</text>
<text text-anchor="middle" x="1214" y="-101.4264" font-family="Times,serif" font-size="20.00" fill="#000000">11 levels</text>
</g>
<!-- SG_3_Node_12 -->
<g id="node24" class="node">
<title>SG_3_Node_12</title>
<ellipse fill="none" stroke="#000000" cx="1282" cy="-37.2132" rx="34.7971" ry="21.4286"/>
<text text-anchor="middle" x="1282" y="-32.2132" font-family="Times,serif" font-size="20.00" fill="#000000">0.5</text>
</g>
<!-- SG_3_Node_5&#45;&gt;SG_3_Node_12 -->
<g id="edge20" class="edge">
<title>SG_3_Node_5&#45;&gt;SG_3_Node_12</title>
<path fill="none" stroke="#000000" d="M1232.9343,-179.5897C1242.2458,-168.7219 1253.2458,-154.1686 1260,-139.4264 1270.3486,-116.839 1275.9202,-89.1855 1278.8647,-68.3402"/>
<polygon fill="#000000" stroke="#000000" points="1282.3368,-68.7802 1280.1425,-58.4151 1275.3941,-67.8863 1282.3368,-68.7802"/>
<text text-anchor="middle" x="1358" y="-123.4264" font-family="Times,serif" font-size="20.00" fill="#000000">ecocnt_pdf=a=a</text>
<text text-anchor="middle" x="1358" y="-101.4264" font-family="Times,serif" font-size="20.00" fill="#000000">empty</text>
</g>
</g>
</svg>
