<?xml version="1.0" encoding="UTF-8" standalone="no"?>
<!DOCTYPE svg PUBLIC "-//W3C//DTD SVG 1.1//EN"
 "http://www.w3.org/Graphics/SVG/1.1/DTD/svg11.dtd">
<!-- Generated by graphviz version 2.40.1 (20161225.0304)
 -->
<!-- Title: G Pages: 1 -->
<svg width="4237pt" height="2269pt"
 viewBox="0.00 0.00 4237.00 2269.41" xmlns="http://www.w3.org/2000/svg" xmlns:xlink="http://www.w3.org/1999/xlink">
<g id="graph0" class="graph" transform="scale(1 1) rotate(0) translate(4 2265.4113)">
<title>G</title>
<polygon fill="#ffffff" stroke="transparent" points="-4,4 -4,-2265.4113 4233,-2265.4113 4233,4 -4,4"/>
<g id="clust1" class="cluster">
<title>cluster_0</title>
<polygon fill="none" stroke="#000000" points="8,-1338.132 8,-2253.4113 472,-2253.4113 472,-1338.132 8,-1338.132"/>
<text text-anchor="middle" x="240" y="-2217.4113" font-family="Times,serif" font-size="40.00" fill="#000000">Tree 0, Class uncalled</text>
</g>
<g id="clust6" class="cluster">
<title>cluster_1</title>
<polygon fill="none" stroke="#000000" points="480,-8 480,-2253.4113 3518,-2253.4113 3518,-8 480,-8"/>
<text text-anchor="middle" x="1999" y="-2217.4113" font-family="Times,serif" font-size="40.00" fill="#000000">Tree 0, Class {&#39;code&#39;: 18, &#39;name&#39;: &#39;SecurityError&#39;, &#39;message&#39;: &#39;Blocked a frame with origin http://localhost:8001 from accessing a cross&#45;origin frame.&#39;}</text>
</g>
<g id="clust16" class="cluster">
<title>cluster_2</title>
<polygon fill="none" stroke="#000000" points="3526,-168.4264 3526,-2253.4113 4179,-2253.4113 4179,-168.4264 3526,-168.4264"/>
<text text-anchor="middle" x="3852.5" y="-2217.4113" font-family="Times,serif" font-size="40.00" fill="#000000">Tree 0, Class {}</text>
</g>
<!-- SG_0_Node_0 -->
<g id="node1" class="node">
<title>SG_0_Node_0</title>
<polygon fill="none" stroke="#000000" points="204,-2193.4113 62,-2193.4113 62,-2157.4113 204,-2157.4113 204,-2193.4113"/>
<text text-anchor="middle" x="133" y="-2170.4113" font-family="Times,serif" font-size="20.00" fill="#000000">Status&#45;Code</text>
</g>
<!-- SG_0_Node_3 -->
<g id="node2" class="node">
<title>SG_0_Node_3</title>
<ellipse fill="none" stroke="#000000" cx="64" cy="-1952.1981" rx="34.7971" ry="21.4286"/>
<text text-anchor="middle" x="64" y="-1947.1981" font-family="Times,serif" font-size="20.00" fill="#000000">0.0</text>
</g>
<!-- SG_0_Node_0&#45;&gt;SG_0_Node_3 -->
<g id="edge1" class="edge">
<title>SG_0_Node_0&#45;&gt;SG_0_Node_3</title>
<path fill="none" stroke="#000000" d="M121.8604,-2157.1169C115.8829,-2146.6664 108.783,-2133.1438 104,-2120.4113 86.5891,-2074.0627 75.0092,-2017.6114 68.974,-1983.315"/>
<polygon fill="#000000" stroke="#000000" points="72.4169,-1982.6838 67.2787,-1973.4183 65.5174,-1983.8658 72.4169,-1982.6838"/>
<text text-anchor="middle" x="150" y="-2071.4113" font-family="Times,serif" font-size="20.00" fill="#000000">[NA]</text>
<text text-anchor="middle" x="150" y="-2049.4113" font-family="Times,serif" font-size="20.00" fill="#000000">59 levels</text>
</g>
<!-- SG_0_Node_1 -->
<g id="node3" class="node">
<title>SG_0_Node_1</title>
<polygon fill="none" stroke="#000000" points="337.5,-1970.1981 116.5,-1970.1981 116.5,-1934.1981 337.5,-1934.1981 337.5,-1970.1981"/>
<text text-anchor="middle" x="227" y="-1947.1981" font-family="Times,serif" font-size="20.00" fill="#000000">Content&#45;Disposition</text>
</g>
<!-- SG_0_Node_0&#45;&gt;SG_0_Node_1 -->
<g id="edge2" class="edge">
<title>SG_0_Node_0&#45;&gt;SG_0_Node_1</title>
<path fill="none" stroke="#000000" d="M161.4389,-2157.1866C173.9489,-2147.7115 187.6656,-2135.0467 196,-2120.4113 221.1938,-2076.1704 226.5464,-2015.7413 227.3338,-1980.6492"/>
<polygon fill="#000000" stroke="#000000" points="230.8384,-1980.2364 227.4484,-1970.1986 223.8388,-1980.1596 230.8384,-1980.2364"/>
<text text-anchor="middle" x="244.5" y="-2082.4113" font-family="Times,serif" font-size="20.00" fill="#000000">204</text>
<text text-anchor="middle" x="244.5" y="-2060.4113" font-family="Times,serif" font-size="20.00" fill="#000000">205</text>
<text text-anchor="middle" x="244.5" y="-2038.4113" font-family="Times,serif" font-size="20.00" fill="#000000">304</text>
</g>
<!-- SG_0_Node_2 -->
<g id="node4" class="node">
<title>SG_0_Node_2</title>
<polygon fill="none" stroke="#000000" points="177,-1633.7716 35,-1633.7716 35,-1597.7716 177,-1597.7716 177,-1633.7716"/>
<text text-anchor="middle" x="106" y="-1610.7716" font-family="Times,serif" font-size="20.00" fill="#000000">Status&#45;Code</text>
</g>
<!-- SG_0_Node_1&#45;&gt;SG_0_Node_2 -->
<g id="edge3" class="edge">
<title>SG_0_Node_1&#45;&gt;SG_0_Node_2</title>
<path fill="none" stroke="#000000" d="M160.9223,-1934.1424C141.1569,-1925.3458 121.662,-1912.5141 110,-1893.9848 60.3075,-1815.0303 83.314,-1696.8673 97.6127,-1643.587"/>
<polygon fill="#000000" stroke="#000000" points="101.0196,-1644.3994 100.3322,-1633.8269 94.2764,-1642.5205 101.0196,-1644.3994"/>
<text text-anchor="middle" x="169" y="-1789.9848" font-family="Times,serif" font-size="20.00" fill="#000000">[NA]</text>
<text text-anchor="middle" x="169" y="-1767.9848" font-family="Times,serif" font-size="20.00" fill="#000000">attachment</text>
</g>
<!-- SG_0_Node_4 -->
<g id="node5" class="node">
<title>SG_0_Node_4</title>
<ellipse fill="none" stroke="#000000" cx="260" cy="-1615.7716" rx="34.7971" ry="21.4286"/>
<text text-anchor="middle" x="260" y="-1610.7716" font-family="Times,serif" font-size="20.00" fill="#000000">1.0</text>
</g>
<!-- SG_0_Node_1&#45;&gt;SG_0_Node_4 -->
<g id="edge4" class="edge">
<title>SG_0_Node_1&#45;&gt;SG_0_Node_4</title>
<path fill="none" stroke="#000000" d="M228.7742,-1934.1103C234.1115,-1879.6984 250.0693,-1717.0124 256.8722,-1647.6591"/>
<polygon fill="#000000" stroke="#000000" points="260.3893,-1647.6545 257.8823,-1637.3606 253.4228,-1646.9711 260.3893,-1647.6545"/>
<text text-anchor="middle" x="286" y="-1778.9848" font-family="Times,serif" font-size="20.00" fill="#000000">empty</text>
</g>
<!-- SG_0_Node_5 -->
<g id="node6" class="node">
<title>SG_0_Node_5</title>
<ellipse fill="none" stroke="#000000" cx="78" cy="-1367.3452" rx="34.7971" ry="21.4286"/>
<text text-anchor="middle" x="78" y="-1362.3452" font-family="Times,serif" font-size="20.00" fill="#000000">0.0</text>
</g>
<!-- SG_0_Node_2&#45;&gt;SG_0_Node_5 -->
<g id="edge5" class="edge">
<title>SG_0_Node_2&#45;&gt;SG_0_Node_5</title>
<path fill="none" stroke="#000000" d="M103.9411,-1597.5043C99.2031,-1555.4672 87.4811,-1451.4646 81.5534,-1398.8727"/>
<polygon fill="#000000" stroke="#000000" points="85.0131,-1398.3171 80.415,-1388.7721 78.0571,-1399.1012 85.0131,-1398.3171"/>
<text text-anchor="middle" x="118.5" y="-1497.5584" font-family="Times,serif" font-size="20.00" fill="#000000">204</text>
<text text-anchor="middle" x="118.5" y="-1475.5584" font-family="Times,serif" font-size="20.00" fill="#000000">205</text>
</g>
<!-- SG_0_Node_6 -->
<g id="node7" class="node">
<title>SG_0_Node_6</title>
<ellipse fill="none" stroke="#000000" cx="165" cy="-1367.3452" rx="34.7971" ry="21.4286"/>
<text text-anchor="middle" x="165" y="-1362.3452" font-family="Times,serif" font-size="20.00" fill="#000000">1.0</text>
</g>
<!-- SG_0_Node_2&#45;&gt;SG_0_Node_6 -->
<g id="edge6" class="edge">
<title>SG_0_Node_2&#45;&gt;SG_0_Node_6</title>
<path fill="none" stroke="#000000" d="M119.1923,-1597.5533C126.5174,-1586.5136 135.1126,-1571.8436 140,-1557.5584 158.3802,-1503.8361 163.3672,-1437.315 164.6479,-1398.8631"/>
<polygon fill="#000000" stroke="#000000" points="168.1484,-1398.8866 164.9188,-1388.796 161.1509,-1398.6982 168.1484,-1398.8866"/>
<text text-anchor="middle" x="182.5" y="-1486.5584" font-family="Times,serif" font-size="20.00" fill="#000000">304</text>
</g>
<!-- SG_1_Node_0 -->
<g id="node8" class="node">
<title>SG_1_Node_0</title>
<polygon fill="none" stroke="#000000" points="831,-2193.4113 689,-2193.4113 689,-2157.4113 831,-2157.4113 831,-2193.4113"/>
<text text-anchor="middle" x="760" y="-2170.4113" font-family="Times,serif" font-size="20.00" fill="#000000">Status&#45;Code</text>
</g>
<!-- SG_1_Node_1 -->
<g id="node9" class="node">
<title>SG_1_Node_1</title>
<polygon fill="none" stroke="#000000" points="808,-1970.1981 510,-1970.1981 510,-1934.1981 808,-1934.1981 808,-1970.1981"/>
<text text-anchor="middle" x="659" y="-1947.1981" font-family="Times,serif" font-size="20.00" fill="#000000">Cross&#45;Origin&#45;Opener&#45;Policy</text>
</g>
<!-- SG_1_Node_0&#45;&gt;SG_1_Node_1 -->
<g id="edge7" class="edge">
<title>SG_1_Node_0&#45;&gt;SG_1_Node_1</title>
<path fill="none" stroke="#000000" d="M748.539,-2157.1745C742.1287,-2146.6289 734.2047,-2132.9946 728,-2120.4113 704.2163,-2072.1772 681.5281,-2013.6392 669.0116,-1979.8765"/>
<polygon fill="#000000" stroke="#000000" points="672.2013,-1978.4093 665.4638,-1970.2327 665.6317,-1980.8262 672.2013,-1978.4093"/>
<text text-anchor="middle" x="774" y="-2071.4113" font-family="Times,serif" font-size="20.00" fill="#000000">[NA]</text>
<text text-anchor="middle" x="774" y="-2049.4113" font-family="Times,serif" font-size="20.00" fill="#000000">57 levels</text>
</g>
<!-- SG_1_Node_8 -->
<g id="node10" class="node">
<title>SG_1_Node_8</title>
<ellipse fill="none" stroke="#000000" cx="861" cy="-1952.1981" rx="34.7971" ry="21.4286"/>
<text text-anchor="middle" x="861" y="-1947.1981" font-family="Times,serif" font-size="20.00" fill="#000000">1.0</text>
</g>
<!-- SG_1_Node_0&#45;&gt;SG_1_Node_8 -->
<g id="edge8" class="edge">
<title>SG_1_Node_0&#45;&gt;SG_1_Node_8</title>
<path fill="none" stroke="#000000" d="M786.1103,-2157.2079C798.1027,-2147.5714 811.5135,-2134.7646 820,-2120.4113 845.4406,-2077.383 855.1299,-2019.2748 858.7967,-1983.8353"/>
<polygon fill="#000000" stroke="#000000" points="862.3068,-1983.8886 859.752,-1973.6064 855.3372,-1983.2376 862.3068,-1983.8886"/>
<text text-anchor="middle" x="874.5" y="-2104.4113" font-family="Times,serif" font-size="20.00" fill="#000000">100</text>
<text text-anchor="middle" x="874.5" y="-2082.4113" font-family="Times,serif" font-size="20.00" fill="#000000">101</text>
<text text-anchor="middle" x="874.5" y="-2060.4113" font-family="Times,serif" font-size="20.00" fill="#000000">102</text>
<text text-anchor="middle" x="874.5" y="-2038.4113" font-family="Times,serif" font-size="20.00" fill="#000000">103</text>
<text text-anchor="middle" x="874.5" y="-2016.4113" font-family="Times,serif" font-size="20.00" fill="#000000">407</text>
</g>
<!-- SG_1_Node_9 -->
<g id="node11" class="node">
<title>SG_1_Node_9</title>
<ellipse fill="none" stroke="#000000" cx="545" cy="-1615.7716" rx="34.7971" ry="21.4286"/>
<text text-anchor="middle" x="545" y="-1610.7716" font-family="Times,serif" font-size="20.00" fill="#000000">0.0</text>
</g>
<!-- SG_1_Node_1&#45;&gt;SG_1_Node_9 -->
<g id="edge9" class="edge">
<title>SG_1_Node_1&#45;&gt;SG_1_Node_9</title>
<path fill="none" stroke="#000000" d="M595.0224,-1934.1363C575.5447,-1925.3115 556.3129,-1912.4642 545,-1893.9848 497.1422,-1815.8103 520.2372,-1700.6553 535.3903,-1646.3036"/>
<polygon fill="#000000" stroke="#000000" points="538.7868,-1647.1572 538.2,-1636.5787 532.0618,-1645.2142 538.7868,-1647.1572"/>
<text text-anchor="middle" x="606" y="-1778.9848" font-family="Times,serif" font-size="20.00" fill="#000000">same&#45;origin</text>
</g>
<!-- SG_1_Node_2 -->
<g id="node12" class="node">
<title>SG_1_Node_2</title>
<polygon fill="none" stroke="#000000" points="774,-1633.7716 632,-1633.7716 632,-1597.7716 774,-1597.7716 774,-1633.7716"/>
<text text-anchor="middle" x="703" y="-1610.7716" font-family="Times,serif" font-size="20.00" fill="#000000">Status&#45;Code</text>
</g>
<!-- SG_1_Node_1&#45;&gt;SG_1_Node_2 -->
<g id="edge10" class="edge">
<title>SG_1_Node_1&#45;&gt;SG_1_Node_2</title>
<path fill="none" stroke="#000000" d="M663.1446,-1934.181C665.6742,-1922.7193 668.8283,-1907.5361 671,-1893.9848 685.5499,-1803.1929 696.0666,-1694.708 700.5683,-1644.2234"/>
<polygon fill="#000000" stroke="#000000" points="704.071,-1644.3455 701.4614,-1634.0771 697.098,-1643.7317 704.071,-1644.3455"/>
<text text-anchor="middle" x="729" y="-1789.9848" font-family="Times,serif" font-size="20.00" fill="#000000">[NA]</text>
<text text-anchor="middle" x="729" y="-1767.9848" font-family="Times,serif" font-size="20.00" fill="#000000">empty</text>
</g>
<!-- SG_1_Node_3 -->
<g id="node13" class="node">
<title>SG_1_Node_3</title>
<polygon fill="none" stroke="#000000" points="747.5,-1385.3452 526.5,-1385.3452 526.5,-1349.3452 747.5,-1349.3452 747.5,-1385.3452"/>
<text text-anchor="middle" x="637" y="-1362.3452" font-family="Times,serif" font-size="20.00" fill="#000000">Content&#45;Disposition</text>
</g>
<!-- SG_1_Node_2&#45;&gt;SG_1_Node_3 -->
<g id="edge11" class="edge">
<title>SG_1_Node_2&#45;&gt;SG_1_Node_3</title>
<path fill="none" stroke="#000000" d="M693.6569,-1597.5533C688.1773,-1586.2712 681.4739,-1571.351 677,-1557.5584 658.8052,-1501.4655 646.8119,-1433.3196 641.0318,-1395.7133"/>
<polygon fill="#000000" stroke="#000000" points="644.4462,-1394.8807 639.5017,-1385.5104 637.5236,-1395.9189 644.4462,-1394.8807"/>
<text text-anchor="middle" x="723" y="-1486.5584" font-family="Times,serif" font-size="20.00" fill="#000000">11 levels</text>
</g>
<!-- SG_1_Node_10 -->
<g id="node14" class="node">
<title>SG_1_Node_10</title>
<ellipse fill="none" stroke="#000000" cx="800" cy="-1367.3452" rx="34.7971" ry="21.4286"/>
<text text-anchor="middle" x="800" y="-1362.3452" font-family="Times,serif" font-size="20.00" fill="#000000">1.0</text>
</g>
<!-- SG_1_Node_2&#45;&gt;SG_1_Node_10 -->
<g id="edge12" class="edge">
<title>SG_1_Node_2&#45;&gt;SG_1_Node_10</title>
<path fill="none" stroke="#000000" d="M731.5825,-1597.527C745.0772,-1587.4 760.1333,-1573.6061 769,-1557.5584 796.8658,-1507.125 801.2692,-1438.4686 801.1666,-1398.9287"/>
<polygon fill="#000000" stroke="#000000" points="804.6651,-1398.7789 801.0393,-1388.8238 797.6656,-1398.8672 804.6651,-1398.7789"/>
<text text-anchor="middle" x="846" y="-1497.5584" font-family="Times,serif" font-size="20.00" fill="#000000">[NA]</text>
<text text-anchor="middle" x="846" y="-1475.5584" font-family="Times,serif" font-size="20.00" fill="#000000">46 levels</text>
</g>
<!-- SG_1_Node_11 -->
<g id="node15" class="node">
<title>SG_1_Node_11</title>
<ellipse fill="none" stroke="#000000" cx="580" cy="-1074.9188" rx="34.7971" ry="21.4286"/>
<text text-anchor="middle" x="580" y="-1069.9188" font-family="Times,serif" font-size="20.00" fill="#000000">0.0</text>
</g>
<!-- SG_1_Node_3&#45;&gt;SG_1_Node_11 -->
<g id="edge13" class="edge">
<title>SG_1_Node_3&#45;&gt;SG_1_Node_11</title>
<path fill="none" stroke="#000000" d="M619.3928,-1349.3247C610.0662,-1338.5769 599.441,-1324.1329 594,-1309.132 568.9899,-1240.1791 572.2365,-1152.3516 576.3631,-1106.3151"/>
<polygon fill="#000000" stroke="#000000" points="579.874,-1106.3719 577.3584,-1096.08 572.9068,-1105.6943 579.874,-1106.3719"/>
<text text-anchor="middle" x="653" y="-1216.132" font-family="Times,serif" font-size="20.00" fill="#000000">attachment</text>
</g>
<!-- SG_1_Node_4 -->
<g id="node16" class="node">
<title>SG_1_Node_4</title>
<polygon fill="none" stroke="#000000" points="805,-1092.9188 663,-1092.9188 663,-1056.9188 805,-1056.9188 805,-1092.9188"/>
<text text-anchor="middle" x="734" y="-1069.9188" font-family="Times,serif" font-size="20.00" fill="#000000">Status&#45;Code</text>
</g>
<!-- SG_1_Node_3&#45;&gt;SG_1_Node_4 -->
<g id="edge14" class="edge">
<title>SG_1_Node_3&#45;&gt;SG_1_Node_4</title>
<path fill="none" stroke="#000000" d="M671.5004,-1349.1941C686.5344,-1339.4148 702.7964,-1325.8912 712,-1309.132 748.4912,-1242.6839 743.6308,-1149.4618 738.2002,-1103.226"/>
<polygon fill="#000000" stroke="#000000" points="741.6396,-1102.5275 736.9041,-1093.0499 734.6957,-1103.412 741.6396,-1102.5275"/>
<text text-anchor="middle" x="773" y="-1227.132" font-family="Times,serif" font-size="20.00" fill="#000000">[NA]</text>
<text text-anchor="middle" x="773" y="-1205.132" font-family="Times,serif" font-size="20.00" fill="#000000">empty</text>
</g>
<!-- SG_1_Node_12 -->
<g id="node17" class="node">
<title>SG_1_Node_12</title>
<ellipse fill="none" stroke="#000000" cx="669" cy="-782.4924" rx="34.7971" ry="21.4286"/>
<text text-anchor="middle" x="669" y="-777.4924" font-family="Times,serif" font-size="20.00" fill="#000000">0.0</text>
</g>
<!-- SG_1_Node_4&#45;&gt;SG_1_Node_12 -->
<g id="edge15" class="edge">
<title>SG_1_Node_4&#45;&gt;SG_1_Node_12</title>
<path fill="none" stroke="#000000" d="M729.934,-1056.6262C719.1094,-1007.928 689.4943,-874.6938 675.9394,-813.712"/>
<polygon fill="#000000" stroke="#000000" points="679.3414,-812.8864 673.7549,-803.8842 672.5082,-814.4054 679.3414,-812.8864"/>
<text text-anchor="middle" x="739.5" y="-945.7056" font-family="Times,serif" font-size="20.00" fill="#000000">204</text>
<text text-anchor="middle" x="739.5" y="-923.7056" font-family="Times,serif" font-size="20.00" fill="#000000">205</text>
<text text-anchor="middle" x="739.5" y="-901.7056" font-family="Times,serif" font-size="20.00" fill="#000000">304</text>
</g>
<!-- SG_1_Node_5 -->
<g id="node18" class="node">
<title>SG_1_Node_5</title>
<polygon fill="none" stroke="#000000" points="876.5,-800.4924 721.5,-800.4924 721.5,-764.4924 876.5,-764.4924 876.5,-800.4924"/>
<text text-anchor="middle" x="799" y="-777.4924" font-family="Times,serif" font-size="20.00" fill="#000000">Content&#45;Type</text>
</g>
<!-- SG_1_Node_4&#45;&gt;SG_1_Node_5 -->
<g id="edge16" class="edge">
<title>SG_1_Node_4&#45;&gt;SG_1_Node_5</title>
<path fill="none" stroke="#000000" d="M744.9329,-1056.662C751.1504,-1045.4893 758.5593,-1030.6962 763,-1016.7056 785.8809,-944.6181 794.4645,-855.2804 797.4855,-810.6448"/>
<polygon fill="#000000" stroke="#000000" points="800.9856,-810.7514 798.1242,-800.5503 793.9996,-810.3093 800.9856,-810.7514"/>
<text text-anchor="middle" x="814.5" y="-1000.7056" font-family="Times,serif" font-size="20.00" fill="#000000">200</text>
<text text-anchor="middle" x="814.5" y="-978.7056" font-family="Times,serif" font-size="20.00" fill="#000000">201</text>
<text text-anchor="middle" x="814.5" y="-956.7056" font-family="Times,serif" font-size="20.00" fill="#000000">202</text>
<text text-anchor="middle" x="814.5" y="-934.7056" font-family="Times,serif" font-size="20.00" fill="#000000">203</text>
<text text-anchor="middle" x="814.5" y="-912.7056" font-family="Times,serif" font-size="20.00" fill="#000000">206</text>
<text text-anchor="middle" x="814.5" y="-890.7056" font-family="Times,serif" font-size="20.00" fill="#000000">207</text>
<text text-anchor="middle" x="814.5" y="-868.7056" font-family="Times,serif" font-size="20.00" fill="#000000">208</text>
<text text-anchor="middle" x="814.5" y="-846.7056" font-family="Times,serif" font-size="20.00" fill="#000000">226</text>
</g>
<!-- SG_1_Node_6 -->
<g id="node19" class="node">
<title>SG_1_Node_6</title>
<polygon fill="none" stroke="#000000" points="781.5,-508.066 716.5,-508.066 716.5,-472.066 781.5,-472.066 781.5,-508.066"/>
<text text-anchor="middle" x="749" y="-485.066" font-family="Times,serif" font-size="20.00" fill="#000000">body</text>
</g>
<!-- SG_1_Node_5&#45;&gt;SG_1_Node_6 -->
<g id="edge17" class="edge">
<title>SG_1_Node_5&#45;&gt;SG_1_Node_6</title>
<path fill="none" stroke="#000000" d="M784.4449,-764.2608C776.5933,-753.3325 767.5933,-738.7792 763,-724.2792 740.385,-652.8884 743.0311,-563.2467 746.3196,-518.3844"/>
<polygon fill="#000000" stroke="#000000" points="749.8228,-518.4836 747.1323,-508.236 742.8451,-517.9247 749.8228,-518.4836"/>
<text text-anchor="middle" x="795" y="-631.2792" font-family="Times,serif" font-size="20.00" fill="#000000">empty</text>
</g>
<!-- SG_1_Node_13 -->
<g id="node20" class="node">
<title>SG_1_Node_13</title>
<ellipse fill="none" stroke="#000000" cx="849" cy="-490.066" rx="34.7971" ry="21.4286"/>
<text text-anchor="middle" x="849" y="-485.066" font-family="Times,serif" font-size="20.00" fill="#000000">1.0</text>
</g>
<!-- SG_1_Node_5&#45;&gt;SG_1_Node_13 -->
<g id="edge18" class="edge">
<title>SG_1_Node_5&#45;&gt;SG_1_Node_13</title>
<path fill="none" stroke="#000000" d="M809.8357,-764.2767C815.9379,-753.1185 823.0974,-738.3264 827,-724.2792 846.5845,-653.7872 849.5327,-567.2643 849.5376,-521.6635"/>
<polygon fill="#000000" stroke="#000000" points="853.037,-521.4977 849.4891,-511.5146 846.037,-521.5313 853.037,-521.4977"/>
<text text-anchor="middle" x="960" y="-708.2792" font-family="Times,serif" font-size="20.00" fill="#000000">[NA]</text>
<text text-anchor="middle" x="960" y="-686.2792" font-family="Times,serif" font-size="20.00" fill="#000000">application/javascript</text>
<text text-anchor="middle" x="960" y="-664.2792" font-family="Times,serif" font-size="20.00" fill="#000000">application/pdf</text>
<text text-anchor="middle" x="960" y="-642.2792" font-family="Times,serif" font-size="20.00" fill="#000000">audio/wav</text>
<text text-anchor="middle" x="960" y="-620.2792" font-family="Times,serif" font-size="20.00" fill="#000000">image/png</text>
<text text-anchor="middle" x="960" y="-598.2792" font-family="Times,serif" font-size="20.00" fill="#000000">text/css</text>
<text text-anchor="middle" x="960" y="-576.2792" font-family="Times,serif" font-size="20.00" fill="#000000">text/html</text>
<text text-anchor="middle" x="960" y="-554.2792" font-family="Times,serif" font-size="20.00" fill="#000000">video/mp4</text>
</g>
<!-- SG_1_Node_7 -->
<g id="node21" class="node">
<title>SG_1_Node_7</title>
<polygon fill="none" stroke="#000000" points="762,-215.6396 500,-215.6396 500,-179.6396 762,-179.6396 762,-215.6396"/>
<text text-anchor="middle" x="631" y="-192.6396" font-family="Times,serif" font-size="20.00" fill="#000000">X&#45;Content&#45;Type&#45;Options</text>
</g>
<!-- SG_1_Node_6&#45;&gt;SG_1_Node_7 -->
<g id="edge19" class="edge">
<title>SG_1_Node_6&#45;&gt;SG_1_Node_7</title>
<path fill="none" stroke="#000000" d="M716.2887,-481.0602C692.1876,-472.5711 660.9397,-457.2712 645,-431.8528 604.6446,-367.4998 615.652,-272.6271 624.6074,-225.8418"/>
<polygon fill="#000000" stroke="#000000" points="628.0821,-226.3172 626.6375,-215.8214 621.2215,-224.9272 628.0821,-226.3172"/>
<text text-anchor="middle" x="890.5" y="-349.8528" font-family="Times,serif" font-size="20.00" fill="#000000">ecocnt_audio=duration=1</text>
<text text-anchor="middle" x="890.5" y="-327.8528" font-family="Times,serif" font-size="20.00" fill="#000000">ecocnt_vid=width=100,height=100,duration=2</text>
</g>
<!-- SG_1_Node_14 -->
<g id="node22" class="node">
<title>SG_1_Node_14</title>
<ellipse fill="none" stroke="#000000" cx="1158" cy="-197.6396" rx="34.7971" ry="21.4286"/>
<text text-anchor="middle" x="1158" y="-192.6396" font-family="Times,serif" font-size="20.00" fill="#000000">1.0</text>
</g>
<!-- SG_1_Node_6&#45;&gt;SG_1_Node_14 -->
<g id="edge20" class="edge">
<title>SG_1_Node_6&#45;&gt;SG_1_Node_14</title>
<path fill="none" stroke="#000000" d="M781.7318,-476.0997C789.2632,-473.3281 797.3191,-470.7057 805,-468.8528 876.9497,-451.496 1084.1287,-484.6486 1136,-431.8528 1189.1769,-377.7283 1176.7572,-278.8085 1165.944,-228.6174"/>
<polygon fill="#000000" stroke="#000000" points="1169.3147,-227.6559 1163.6851,-218.6805 1162.4889,-229.2076 1169.3147,-227.6559"/>
<text text-anchor="middle" x="1221" y="-349.8528" font-family="Times,serif" font-size="20.00" fill="#000000">[NA]</text>
<text text-anchor="middle" x="1221" y="-327.8528" font-family="Times,serif" font-size="20.00" fill="#000000">11 levels</text>
</g>
<!-- SG_1_Node_15 -->
<g id="node23" class="node">
<title>SG_1_Node_15</title>
<ellipse fill="none" stroke="#000000" cx="542" cy="-37.2132" rx="34.7971" ry="21.4286"/>
<text text-anchor="middle" x="542" y="-32.2132" font-family="Times,serif" font-size="20.00" fill="#000000">0.0</text>
</g>
<!-- SG_1_Node_7&#45;&gt;SG_1_Node_15 -->
<g id="edge21" class="edge">
<title>SG_1_Node_7&#45;&gt;SG_1_Node_15</title>
<path fill="none" stroke="#000000" d="M604.4476,-179.4352C591.3369,-169.1374 576.3629,-155.1781 567,-139.4264 554.1438,-117.7977 547.8847,-89.8558 544.8455,-68.6544"/>
<polygon fill="#000000" stroke="#000000" points="548.2943,-68.0291 543.5645,-58.5486 541.3499,-68.9094 548.2943,-68.0291"/>
<text text-anchor="middle" x="599" y="-123.4264" font-family="Times,serif" font-size="20.00" fill="#000000">[NA]</text>
<text text-anchor="middle" x="599" y="-101.4264" font-family="Times,serif" font-size="20.00" fill="#000000">empty</text>
</g>
<!-- SG_1_Node_16 -->
<g id="node24" class="node">
<title>SG_1_Node_16</title>
<ellipse fill="none" stroke="#000000" cx="642" cy="-37.2132" rx="34.7971" ry="21.4286"/>
<text text-anchor="middle" x="642" y="-32.2132" font-family="Times,serif" font-size="20.00" fill="#000000">1.0</text>
</g>
<!-- SG_1_Node_7&#45;&gt;SG_1_Node_16 -->
<g id="edge22" class="edge">
<title>SG_1_Node_7&#45;&gt;SG_1_Node_16</title>
<path fill="none" stroke="#000000" d="M632.2405,-179.5485C634.0859,-152.6336 637.58,-101.6751 639.848,-68.5978"/>
<polygon fill="#000000" stroke="#000000" points="643.3453,-68.7559 640.5377,-58.5399 636.3617,-68.277 643.3453,-68.7559"/>
<text text-anchor="middle" x="672" y="-112.4264" font-family="Times,serif" font-size="20.00" fill="#000000">nosniff</text>
</g>
<!-- SG_2_Node_0 -->
<g id="node25" class="node">
<title>SG_2_Node_0</title>
<polygon fill="none" stroke="#000000" points="3995,-2193.4113 3697,-2193.4113 3697,-2157.4113 3995,-2157.4113 3995,-2193.4113"/>
<text text-anchor="middle" x="3846" y="-2170.4113" font-family="Times,serif" font-size="20.00" fill="#000000">Cross&#45;Origin&#45;Opener&#45;Policy</text>
</g>
<!-- SG_2_Node_1 -->
<g id="node26" class="node">
<title>SG_2_Node_1</title>
<polygon fill="none" stroke="#000000" points="3817,-1970.1981 3675,-1970.1981 3675,-1934.1981 3817,-1934.1981 3817,-1970.1981"/>
<text text-anchor="middle" x="3746" y="-1947.1981" font-family="Times,serif" font-size="20.00" fill="#000000">Status&#45;Code</text>
</g>
<!-- SG_2_Node_0&#45;&gt;SG_2_Node_1 -->
<g id="edge23" class="edge">
<title>SG_2_Node_0&#45;&gt;SG_2_Node_1</title>
<path fill="none" stroke="#000000" d="M3837.8166,-2157.1448C3820.3032,-2118.0525 3779.1022,-2026.0865 3758.3715,-1979.8129"/>
<polygon fill="#000000" stroke="#000000" points="3761.4389,-1978.0989 3754.1562,-1970.4039 3755.0507,-1980.9609 3761.4389,-1978.0989"/>
<text text-anchor="middle" x="3853" y="-2071.4113" font-family="Times,serif" font-size="20.00" fill="#000000">[NA]</text>
<text text-anchor="middle" x="3853" y="-2049.4113" font-family="Times,serif" font-size="20.00" fill="#000000">empty</text>
</g>
<!-- SG_2_Node_2 -->
<g id="node27" class="node">
<title>SG_2_Node_2</title>
<polygon fill="none" stroke="#000000" points="4017,-1970.1981 3875,-1970.1981 3875,-1934.1981 4017,-1934.1981 4017,-1970.1981"/>
<text text-anchor="middle" x="3946" y="-1947.1981" font-family="Times,serif" font-size="20.00" fill="#000000">Status&#45;Code</text>
</g>
<!-- SG_2_Node_0&#45;&gt;SG_2_Node_2 -->
<g id="edge24" class="edge">
<title>SG_2_Node_0&#45;&gt;SG_2_Node_2</title>
<path fill="none" stroke="#000000" d="M3862.8116,-2157.1705C3871.547,-2146.953 3881.8588,-2133.6357 3889,-2120.4113 3913.9619,-2074.1857 3930.9449,-2014.9828 3939.5132,-1980.5506"/>
<polygon fill="#000000" stroke="#000000" points="3942.9461,-1981.245 3941.9016,-1970.7018 3936.1433,-1979.5952 3942.9461,-1981.245"/>
<text text-anchor="middle" x="3992" y="-2060.4113" font-family="Times,serif" font-size="20.00" fill="#000000">same&#45;origin</text>
</g>
<!-- SG_2_Node_10 -->
<g id="node28" class="node">
<title>SG_2_Node_10</title>
<ellipse fill="none" stroke="#000000" cx="3583" cy="-1615.7716" rx="34.7971" ry="21.4286"/>
<text text-anchor="middle" x="3583" y="-1610.7716" font-family="Times,serif" font-size="20.00" fill="#000000">0.0</text>
</g>
<!-- SG_2_Node_1&#45;&gt;SG_2_Node_10 -->
<g id="edge31" class="edge">
<title>SG_2_Node_1&#45;&gt;SG_2_Node_10</title>
<path fill="none" stroke="#000000" d="M3700.7785,-1934.1402C3682.5077,-1924.7185 3662.7641,-1911.4541 3650,-1893.9848 3594.6312,-1818.2056 3584.4946,-1702.7714 3582.9845,-1647.4694"/>
<polygon fill="#000000" stroke="#000000" points="3586.4795,-1647.1708 3582.7866,-1637.2403 3579.4808,-1647.3062 3586.4795,-1647.1708"/>
<text text-anchor="middle" x="3696" y="-1789.9848" font-family="Times,serif" font-size="20.00" fill="#000000">[NA]</text>
<text text-anchor="middle" x="3696" y="-1767.9848" font-family="Times,serif" font-size="20.00" fill="#000000">52 levels</text>
</g>
<!-- SG_2_Node_3 -->
<g id="node29" class="node">
<title>SG_2_Node_3</title>
<polygon fill="none" stroke="#000000" points="3856.5,-1633.7716 3635.5,-1633.7716 3635.5,-1597.7716 3856.5,-1597.7716 3856.5,-1633.7716"/>
<text text-anchor="middle" x="3746" y="-1610.7716" font-family="Times,serif" font-size="20.00" fill="#000000">Content&#45;Disposition</text>
</g>
<!-- SG_2_Node_1&#45;&gt;SG_2_Node_3 -->
<g id="edge32" class="edge">
<title>SG_2_Node_1&#45;&gt;SG_2_Node_3</title>
<path fill="none" stroke="#000000" d="M3746,-1934.1103C3746,-1878.7761 3746,-1711.466 3746,-1644.2138"/>
<polygon fill="#000000" stroke="#000000" points="3749.5001,-1643.9488 3746,-1633.9488 3742.5001,-1643.9489 3749.5001,-1643.9488"/>
<text text-anchor="middle" x="3765.5" y="-1877.9848" font-family="Times,serif" font-size="20.00" fill="#000000">200</text>
<text text-anchor="middle" x="3765.5" y="-1855.9848" font-family="Times,serif" font-size="20.00" fill="#000000">201</text>
<text text-anchor="middle" x="3765.5" y="-1833.9848" font-family="Times,serif" font-size="20.00" fill="#000000">202</text>
<text text-anchor="middle" x="3765.5" y="-1811.9848" font-family="Times,serif" font-size="20.00" fill="#000000">203</text>
<text text-anchor="middle" x="3765.5" y="-1789.9848" font-family="Times,serif" font-size="20.00" fill="#000000">204</text>
<text text-anchor="middle" x="3765.5" y="-1767.9848" font-family="Times,serif" font-size="20.00" fill="#000000">205</text>
<text text-anchor="middle" x="3765.5" y="-1745.9848" font-family="Times,serif" font-size="20.00" fill="#000000">206</text>
<text text-anchor="middle" x="3765.5" y="-1723.9848" font-family="Times,serif" font-size="20.00" fill="#000000">207</text>
<text text-anchor="middle" x="3765.5" y="-1701.9848" font-family="Times,serif" font-size="20.00" fill="#000000">208</text>
<text text-anchor="middle" x="3765.5" y="-1679.9848" font-family="Times,serif" font-size="20.00" fill="#000000">226</text>
</g>
<!-- SG_2_Node_4 -->
<g id="node30" class="node">
<title>SG_2_Node_4</title>
<polygon fill="none" stroke="#000000" points="4017,-1633.7716 3875,-1633.7716 3875,-1597.7716 4017,-1597.7716 4017,-1633.7716"/>
<text text-anchor="middle" x="3946" y="-1610.7716" font-family="Times,serif" font-size="20.00" fill="#000000">Status&#45;Code</text>
</g>
<!-- SG_2_Node_2&#45;&gt;SG_2_Node_4 -->
<g id="edge25" class="edge">
<title>SG_2_Node_2&#45;&gt;SG_2_Node_4</title>
<path fill="none" stroke="#000000" d="M3946,-1934.1103C3946,-1878.7761 3946,-1711.466 3946,-1644.2138"/>
<polygon fill="#000000" stroke="#000000" points="3949.5001,-1643.9488 3946,-1633.9488 3942.5001,-1643.9489 3949.5001,-1643.9488"/>
<text text-anchor="middle" x="3965.5" y="-1855.9848" font-family="Times,serif" font-size="20.00" fill="#000000">100</text>
<text text-anchor="middle" x="3965.5" y="-1833.9848" font-family="Times,serif" font-size="20.00" fill="#000000">101</text>
<text text-anchor="middle" x="3965.5" y="-1811.9848" font-family="Times,serif" font-size="20.00" fill="#000000">102</text>
<text text-anchor="middle" x="3965.5" y="-1789.9848" font-family="Times,serif" font-size="20.00" fill="#000000">103</text>
<text text-anchor="middle" x="3965.5" y="-1767.9848" font-family="Times,serif" font-size="20.00" fill="#000000">204</text>
<text text-anchor="middle" x="3965.5" y="-1745.9848" font-family="Times,serif" font-size="20.00" fill="#000000">205</text>
<text text-anchor="middle" x="3965.5" y="-1723.9848" font-family="Times,serif" font-size="20.00" fill="#000000">304</text>
<text text-anchor="middle" x="3965.5" y="-1701.9848" font-family="Times,serif" font-size="20.00" fill="#000000">407</text>
</g>
<!-- SG_2_Node_11 -->
<g id="node31" class="node">
<title>SG_2_Node_11</title>
<ellipse fill="none" stroke="#000000" cx="4070" cy="-1615.7716" rx="34.7971" ry="21.4286"/>
<text text-anchor="middle" x="4070" y="-1610.7716" font-family="Times,serif" font-size="20.00" fill="#000000">1.0</text>
</g>
<!-- SG_2_Node_2&#45;&gt;SG_2_Node_11 -->
<g id="edge26" class="edge">
<title>SG_2_Node_2&#45;&gt;SG_2_Node_11</title>
<path fill="none" stroke="#000000" d="M3961.9379,-1934.157C3970.9454,-1923.1783 3981.8078,-1908.5102 3989,-1893.9848 4030.7676,-1809.6312 4054.7506,-1699.9611 4064.6337,-1647.0443"/>
<polygon fill="#000000" stroke="#000000" points="4068.125,-1647.4083 4066.4768,-1636.9424 4061.2387,-1646.1518 4068.125,-1647.4083"/>
<text text-anchor="middle" x="4105" y="-1789.9848" font-family="Times,serif" font-size="20.00" fill="#000000">[NA]</text>
<text text-anchor="middle" x="4105" y="-1767.9848" font-family="Times,serif" font-size="20.00" fill="#000000">54 levels</text>
</g>
<!-- SG_2_Node_5 -->
<g id="node32" class="node">
<title>SG_2_Node_5</title>
<polygon fill="none" stroke="#000000" points="3702.5,-1385.3452 3547.5,-1385.3452 3547.5,-1349.3452 3702.5,-1349.3452 3702.5,-1385.3452"/>
<text text-anchor="middle" x="3625" y="-1362.3452" font-family="Times,serif" font-size="20.00" fill="#000000">Content&#45;Type</text>
</g>
<!-- SG_2_Node_3&#45;&gt;SG_2_Node_5 -->
<g id="edge33" class="edge">
<title>SG_2_Node_3&#45;&gt;SG_2_Node_5</title>
<path fill="none" stroke="#000000" d="M3718.8812,-1597.5622C3705.4329,-1587.263 3689.9759,-1573.304 3680,-1557.5584 3647.3755,-1506.0654 3633.5583,-1434.6421 3628.147,-1395.6067"/>
<polygon fill="#000000" stroke="#000000" points="3631.5932,-1394.9653 3626.835,-1385.499 3624.6514,-1395.8664 3631.5932,-1394.9653"/>
<text text-anchor="middle" x="3712" y="-1497.5584" font-family="Times,serif" font-size="20.00" fill="#000000">[NA]</text>
<text text-anchor="middle" x="3712" y="-1475.5584" font-family="Times,serif" font-size="20.00" fill="#000000">empty</text>
</g>
<!-- SG_2_Node_12 -->
<g id="node33" class="node">
<title>SG_2_Node_12</title>
<ellipse fill="none" stroke="#000000" cx="3755" cy="-1367.3452" rx="34.7971" ry="21.4286"/>
<text text-anchor="middle" x="3755" y="-1362.3452" font-family="Times,serif" font-size="20.00" fill="#000000">1.0</text>
</g>
<!-- SG_2_Node_3&#45;&gt;SG_2_Node_12 -->
<g id="edge34" class="edge">
<title>SG_2_Node_3&#45;&gt;SG_2_Node_12</title>
<path fill="none" stroke="#000000" d="M3746.6618,-1597.5043C3748.1847,-1555.4672 3751.9525,-1451.4646 3753.8578,-1398.8727"/>
<polygon fill="#000000" stroke="#000000" points="3757.3593,-1398.8923 3754.2237,-1388.7721 3750.3639,-1398.6388 3757.3593,-1398.8923"/>
<text text-anchor="middle" x="3811" y="-1486.5584" font-family="Times,serif" font-size="20.00" fill="#000000">attachment</text>
</g>
<!-- SG_2_Node_13 -->
<g id="node34" class="node">
<title>SG_2_Node_13</title>
<ellipse fill="none" stroke="#000000" cx="3849" cy="-1367.3452" rx="34.7971" ry="21.4286"/>
<text text-anchor="middle" x="3849" y="-1362.3452" font-family="Times,serif" font-size="20.00" fill="#000000">0.0</text>
</g>
<!-- SG_2_Node_4&#45;&gt;SG_2_Node_13 -->
<g id="edge27" class="edge">
<title>SG_2_Node_4&#45;&gt;SG_2_Node_13</title>
<path fill="none" stroke="#000000" d="M3937.8178,-1597.5422C3932.7833,-1586.129 3926.3023,-1571.0743 3921,-1557.5584 3898.2571,-1499.5853 3896.7429,-1483.5316 3874,-1425.5584 3870.3716,-1416.3095 3866.1913,-1406.3399 3862.3002,-1397.3098"/>
<polygon fill="#000000" stroke="#000000" points="3865.4305,-1395.7315 3858.2313,-1387.9583 3859.0118,-1398.5244 3865.4305,-1395.7315"/>
<text text-anchor="middle" x="3940.5" y="-1541.5584" font-family="Times,serif" font-size="20.00" fill="#000000">100</text>
<text text-anchor="middle" x="3940.5" y="-1519.5584" font-family="Times,serif" font-size="20.00" fill="#000000">101</text>
<text text-anchor="middle" x="3940.5" y="-1497.5584" font-family="Times,serif" font-size="20.00" fill="#000000">102</text>
<text text-anchor="middle" x="3940.5" y="-1475.5584" font-family="Times,serif" font-size="20.00" fill="#000000">103</text>
<text text-anchor="middle" x="3940.5" y="-1453.5584" font-family="Times,serif" font-size="20.00" fill="#000000">304</text>
<text text-anchor="middle" x="3940.5" y="-1431.5584" font-family="Times,serif" font-size="20.00" fill="#000000">407</text>
</g>
<!-- SG_2_Node_6 -->
<g id="node35" class="node">
<title>SG_2_Node_6</title>
<polygon fill="none" stroke="#000000" points="4122.5,-1385.3452 3901.5,-1385.3452 3901.5,-1349.3452 4122.5,-1349.3452 4122.5,-1385.3452"/>
<text text-anchor="middle" x="4012" y="-1362.3452" font-family="Times,serif" font-size="20.00" fill="#000000">Content&#45;Disposition</text>
</g>
<!-- SG_2_Node_4&#45;&gt;SG_2_Node_6 -->
<g id="edge28" class="edge">
<title>SG_2_Node_4&#45;&gt;SG_2_Node_6</title>
<path fill="none" stroke="#000000" d="M3951.8408,-1597.7512C3955.4893,-1586.2882 3960.1993,-1571.1049 3964,-1557.5584 3980.0359,-1500.4034 3996.4861,-1432.9033 4005.3531,-1395.6386"/>
<polygon fill="#000000" stroke="#000000" points="4008.8493,-1396.0636 4007.7496,-1385.526 4002.0379,-1394.4494 4008.8493,-1396.0636"/>
<text text-anchor="middle" x="4017.5" y="-1497.5584" font-family="Times,serif" font-size="20.00" fill="#000000">204</text>
<text text-anchor="middle" x="4017.5" y="-1475.5584" font-family="Times,serif" font-size="20.00" fill="#000000">205</text>
</g>
<!-- SG_2_Node_14 -->
<g id="node36" class="node">
<title>SG_2_Node_14</title>
<ellipse fill="none" stroke="#000000" cx="3569" cy="-1074.9188" rx="34.7971" ry="21.4286"/>
<text text-anchor="middle" x="3569" y="-1069.9188" font-family="Times,serif" font-size="20.00" fill="#000000">0.0</text>
</g>
<!-- SG_2_Node_5&#45;&gt;SG_2_Node_14 -->
<g id="edge35" class="edge">
<title>SG_2_Node_5&#45;&gt;SG_2_Node_14</title>
<path fill="none" stroke="#000000" d="M3594.6067,-1349.1597C3581.0193,-1339.2162 3566.4172,-1325.5643 3559,-1309.132 3528.567,-1241.7102 3546.3881,-1151.9652 3559.285,-1105.5799"/>
<polygon fill="#000000" stroke="#000000" points="3562.6892,-1106.4066 3562.1037,-1095.828 3555.9645,-1104.4629 3562.6892,-1106.4066"/>
<text text-anchor="middle" x="3670" y="-1293.132" font-family="Times,serif" font-size="20.00" fill="#000000">[NA]</text>
<text text-anchor="middle" x="3670" y="-1271.132" font-family="Times,serif" font-size="20.00" fill="#000000">application/javascript</text>
<text text-anchor="middle" x="3670" y="-1249.132" font-family="Times,serif" font-size="20.00" fill="#000000">application/pdf</text>
<text text-anchor="middle" x="3670" y="-1227.132" font-family="Times,serif" font-size="20.00" fill="#000000">audio/wav</text>
<text text-anchor="middle" x="3670" y="-1205.132" font-family="Times,serif" font-size="20.00" fill="#000000">image/png</text>
<text text-anchor="middle" x="3670" y="-1183.132" font-family="Times,serif" font-size="20.00" fill="#000000">text/css</text>
<text text-anchor="middle" x="3670" y="-1161.132" font-family="Times,serif" font-size="20.00" fill="#000000">text/html</text>
<text text-anchor="middle" x="3670" y="-1139.132" font-family="Times,serif" font-size="20.00" fill="#000000">video/mp4</text>
</g>
<!-- SG_2_Node_7 -->
<g id="node37" class="node">
<title>SG_2_Node_7</title>
<polygon fill="none" stroke="#000000" points="3712.5,-1092.9188 3647.5,-1092.9188 3647.5,-1056.9188 3712.5,-1056.9188 3712.5,-1092.9188"/>
<text text-anchor="middle" x="3680" y="-1069.9188" font-family="Times,serif" font-size="20.00" fill="#000000">body</text>
</g>
<!-- SG_2_Node_5&#45;&gt;SG_2_Node_7 -->
<g id="edge36" class="edge">
<title>SG_2_Node_5&#45;&gt;SG_2_Node_7</title>
<path fill="none" stroke="#000000" d="M3676.6539,-1349.3352C3722.7708,-1333.1372 3783.3256,-1311.523 3785,-1309.132 3829.8703,-1245.0589 3824.6981,-1200.5321 3785,-1133.132 3771.4402,-1110.1101 3745.1331,-1095.5478 3722.2446,-1086.7455"/>
<polygon fill="#000000" stroke="#000000" points="3723.2862,-1083.4008 3712.6916,-1083.3179 3720.9221,-1089.9896 3723.2862,-1083.4008"/>
<text text-anchor="middle" x="3848" y="-1216.132" font-family="Times,serif" font-size="20.00" fill="#000000">empty</text>
</g>
<!-- SG_2_Node_15 -->
<g id="node38" class="node">
<title>SG_2_Node_15</title>
<ellipse fill="none" stroke="#000000" cx="3921" cy="-1074.9188" rx="34.7971" ry="21.4286"/>
<text text-anchor="middle" x="3921" y="-1069.9188" font-family="Times,serif" font-size="20.00" fill="#000000">0.0</text>
</g>
<!-- SG_2_Node_6&#45;&gt;SG_2_Node_15 -->
<g id="edge29" class="edge">
<title>SG_2_Node_6&#45;&gt;SG_2_Node_15</title>
<path fill="none" stroke="#000000" d="M3982.2308,-1349.157C3968.5192,-1339.1301 3953.4479,-1325.4071 3945,-1309.132 3910.8455,-1243.3325 3913.0401,-1153.2055 3917.2221,-1106.2503"/>
<polygon fill="#000000" stroke="#000000" points="3920.7251,-1106.3896 3918.2193,-1096.0954 3913.7586,-1105.7055 3920.7251,-1106.3896"/>
<text text-anchor="middle" x="3977" y="-1227.132" font-family="Times,serif" font-size="20.00" fill="#000000">[NA]</text>
<text text-anchor="middle" x="3977" y="-1205.132" font-family="Times,serif" font-size="20.00" fill="#000000">empty</text>
</g>
<!-- SG_2_Node_16 -->
<g id="node39" class="node">
<title>SG_2_Node_16</title>
<ellipse fill="none" stroke="#000000" cx="4021" cy="-1074.9188" rx="34.7971" ry="21.4286"/>
<text text-anchor="middle" x="4021" y="-1069.9188" font-family="Times,serif" font-size="20.00" fill="#000000">1.0</text>
</g>
<!-- SG_2_Node_6&#45;&gt;SG_2_Node_16 -->
<g id="edge30" class="edge">
<title>SG_2_Node_6&#45;&gt;SG_2_Node_16</title>
<path fill="none" stroke="#000000" d="M4012.563,-1349.0527C4014.0587,-1300.455 4018.1454,-1167.6704 4020.0275,-1106.5173"/>
<polygon fill="#000000" stroke="#000000" points="4023.5323,-1106.4135 4020.3416,-1096.3106 4016.5356,-1106.1981 4023.5323,-1106.4135"/>
<text text-anchor="middle" x="4078" y="-1216.132" font-family="Times,serif" font-size="20.00" fill="#000000">attachment</text>
</g>
<!-- SG_2_Node_17 -->
<g id="node40" class="node">
<title>SG_2_Node_17</title>
<ellipse fill="none" stroke="#000000" cx="3569" cy="-782.4924" rx="34.7971" ry="21.4286"/>
<text text-anchor="middle" x="3569" y="-777.4924" font-family="Times,serif" font-size="20.00" fill="#000000">0.0</text>
</g>
<!-- SG_2_Node_7&#45;&gt;SG_2_Node_17 -->
<g id="edge37" class="edge">
<title>SG_2_Node_7&#45;&gt;SG_2_Node_17</title>
<path fill="none" stroke="#000000" d="M3647.1791,-1059.9727C3629.6375,-1050.2179 3609.3677,-1035.7424 3598,-1016.7056 3559.7225,-952.605 3561.2435,-861.0934 3565.2996,-813.6691"/>
<polygon fill="#000000" stroke="#000000" points="3568.7855,-813.9827 3566.2473,-803.6964 3561.8169,-813.3204 3568.7855,-813.9827"/>
<text text-anchor="middle" x="3644" y="-934.7056" font-family="Times,serif" font-size="20.00" fill="#000000">[NA]</text>
<text text-anchor="middle" x="3644" y="-912.7056" font-family="Times,serif" font-size="20.00" fill="#000000">11 levels</text>
</g>
<!-- SG_2_Node_8 -->
<g id="node41" class="node">
<title>SG_2_Node_8</title>
<polygon fill="none" stroke="#000000" points="3884,-800.4924 3622,-800.4924 3622,-764.4924 3884,-764.4924 3884,-800.4924"/>
<text text-anchor="middle" x="3753" y="-777.4924" font-family="Times,serif" font-size="20.00" fill="#000000">X&#45;Content&#45;Type&#45;Options</text>
</g>
<!-- SG_2_Node_7&#45;&gt;SG_2_Node_8 -->
<g id="edge38" class="edge">
<title>SG_2_Node_7&#45;&gt;SG_2_Node_8</title>
<path fill="none" stroke="#000000" d="M3684.5665,-1056.6262C3696.9337,-1007.085 3731.1411,-870.0555 3745.9807,-810.6107"/>
<polygon fill="#000000" stroke="#000000" points="3749.4089,-811.3281 3748.4352,-800.7781 3742.6174,-809.6326 3749.4089,-811.3281"/>
<text text-anchor="middle" x="3983.5" y="-934.7056" font-family="Times,serif" font-size="20.00" fill="#000000">ecocnt_audio=duration=1</text>
<text text-anchor="middle" x="3983.5" y="-912.7056" font-family="Times,serif" font-size="20.00" fill="#000000">ecocnt_vid=width=100,height=100,duration=2</text>
</g>
<!-- SG_2_Node_18 -->
<g id="node42" class="node">
<title>SG_2_Node_18</title>
<ellipse fill="none" stroke="#000000" cx="3693" cy="-490.066" rx="34.7971" ry="21.4286"/>
<text text-anchor="middle" x="3693" y="-485.066" font-family="Times,serif" font-size="20.00" fill="#000000">0.0</text>
</g>
<!-- SG_2_Node_8&#45;&gt;SG_2_Node_18 -->
<g id="edge39" class="edge">
<title>SG_2_Node_8&#45;&gt;SG_2_Node_18</title>
<path fill="none" stroke="#000000" d="M3738.2474,-764.254C3730.2465,-753.3235 3720.9965,-738.7702 3716,-724.2792 3692.0802,-654.9063 3690.4026,-567.5937 3691.5316,-521.6585"/>
<polygon fill="#000000" stroke="#000000" points="3695.0368,-521.5425 3691.8473,-511.4392 3688.0401,-521.3263 3695.0368,-521.5425"/>
<text text-anchor="middle" x="3751" y="-631.2792" font-family="Times,serif" font-size="20.00" fill="#000000">nosniff</text>
</g>
<!-- SG_2_Node_9 -->
<g id="node43" class="node">
<title>SG_2_Node_9</title>
<polygon fill="none" stroke="#000000" points="3888,-508.066 3746,-508.066 3746,-472.066 3888,-472.066 3888,-508.066"/>
<text text-anchor="middle" x="3817" y="-485.066" font-family="Times,serif" font-size="20.00" fill="#000000">Status&#45;Code</text>
</g>
<!-- SG_2_Node_8&#45;&gt;SG_2_Node_9 -->
<g id="edge40" class="edge">
<title>SG_2_Node_8&#45;&gt;SG_2_Node_9</title>
<path fill="none" stroke="#000000" d="M3765.6227,-764.4739C3772.7621,-753.3856 3781.1969,-738.5977 3786,-724.2792 3809.9814,-652.7885 3815.5063,-563.1904 3816.7156,-518.3606"/>
<polygon fill="#000000" stroke="#000000" points="3820.2177,-518.2933 3816.9346,-508.22 3813.2194,-518.142 3820.2177,-518.2933"/>
<text text-anchor="middle" x="3847" y="-642.2792" font-family="Times,serif" font-size="20.00" fill="#000000">[NA]</text>
<text text-anchor="middle" x="3847" y="-620.2792" font-family="Times,serif" font-size="20.00" fill="#000000">empty</text>
</g>
<!-- SG_2_Node_19 -->
<g id="node44" class="node">
<title>SG_2_Node_19</title>
<ellipse fill="none" stroke="#000000" cx="3775" cy="-197.6396" rx="34.7971" ry="21.4286"/>
<text text-anchor="middle" x="3775" y="-192.6396" font-family="Times,serif" font-size="20.00" fill="#000000">0.0</text>
</g>
<!-- SG_2_Node_9&#45;&gt;SG_2_Node_19 -->
<g id="edge41" class="edge">
<title>SG_2_Node_9&#45;&gt;SG_2_Node_19</title>
<path fill="none" stroke="#000000" d="M3808.628,-471.8545C3803.8211,-460.5749 3798.1337,-445.6549 3795,-431.8528 3778.8137,-360.5607 3775.4872,-274.3575 3774.9488,-229.0208"/>
<polygon fill="#000000" stroke="#000000" points="3778.448,-228.9052 3774.8678,-218.9337 3771.4483,-228.9615 3778.448,-228.9052"/>
<text text-anchor="middle" x="3814.5" y="-349.8528" font-family="Times,serif" font-size="20.00" fill="#000000">204</text>
<text text-anchor="middle" x="3814.5" y="-327.8528" font-family="Times,serif" font-size="20.00" fill="#000000">205</text>
</g>
<!-- SG_2_Node_20 -->
<g id="node45" class="node">
<title>SG_2_Node_20</title>
<ellipse fill="none" stroke="#000000" cx="3862" cy="-197.6396" rx="34.7971" ry="21.4286"/>
<text text-anchor="middle" x="3862" y="-192.6396" font-family="Times,serif" font-size="20.00" fill="#000000">1.0</text>
</g>
<!-- SG_2_Node_9&#45;&gt;SG_2_Node_20 -->
<g id="edge42" class="edge">
<title>SG_2_Node_9&#45;&gt;SG_2_Node_20</title>
<path fill="none" stroke="#000000" d="M3823.1434,-471.9073C3826.7849,-460.5208 3831.2177,-445.4692 3834,-431.8528 3848.6484,-360.1636 3856.4888,-274.4517 3859.8888,-229.2139"/>
<polygon fill="#000000" stroke="#000000" points="3863.3866,-229.3702 3860.6222,-219.1424 3856.4051,-228.8618 3863.3866,-229.3702"/>
<text text-anchor="middle" x="3876.5" y="-415.8528" font-family="Times,serif" font-size="20.00" fill="#000000">200</text>
<text text-anchor="middle" x="3876.5" y="-393.8528" font-family="Times,serif" font-size="20.00" fill="#000000">201</text>
<text text-anchor="middle" x="3876.5" y="-371.8528" font-family="Times,serif" font-size="20.00" fill="#000000">202</text>
<text text-anchor="middle" x="3876.5" y="-349.8528" font-family="Times,serif" font-size="20.00" fill="#000000">203</text>
<text text-anchor="middle" x="3876.5" y="-327.8528" font-family="Times,serif" font-size="20.00" fill="#000000">206</text>
<text text-anchor="middle" x="3876.5" y="-305.8528" font-family="Times,serif" font-size="20.00" fill="#000000">207</text>
<text text-anchor="middle" x="3876.5" y="-283.8528" font-family="Times,serif" font-size="20.00" fill="#000000">208</text>
<text text-anchor="middle" x="3876.5" y="-261.8528" font-family="Times,serif" font-size="20.00" fill="#000000">226</text>
</g>
</g>
</svg>
