<?xml version="1.0" encoding="UTF-8" standalone="no"?>
<!DOCTYPE svg PUBLIC "-//W3C//DTD SVG 1.1//EN"
 "http://www.w3.org/Graphics/SVG/1.1/DTD/svg11.dtd">
<!-- Generated by graphviz version 2.40.1 (20161225.0304)
 -->
<!-- Title: G Pages: 1 -->
<svg width="2204pt" height="1619pt"
 viewBox="0.00 0.00 2204.00 1618.56" xmlns="http://www.w3.org/2000/svg" xmlns:xlink="http://www.w3.org/1999/xlink">
<g id="graph0" class="graph" transform="scale(1 1) rotate(0) translate(4 1614.5584)">
<title>G</title>
<polygon fill="#ffffff" stroke="transparent" points="-4,4 -4,-1614.5584 2200,-1614.5584 2200,4 -4,4"/>
<g id="clust1" class="cluster">
<title>cluster_0</title>
<polygon fill="none" stroke="#000000" points="8,-8 8,-1602.5584 1094,-1602.5584 1094,-8 8,-8"/>
<text text-anchor="middle" x="551" y="-1566.5584" font-family="Times,serif" font-size="40.00" fill="#000000">Tree 0, Class False</text>
</g>
<g id="clust10" class="cluster">
<title>cluster_1</title>
<polygon fill="none" stroke="#000000" points="1102,-8 1102,-1602.5584 2188,-1602.5584 2188,-8 1102,-8"/>
<text text-anchor="middle" x="1645" y="-1566.5584" font-family="Times,serif" font-size="40.00" fill="#000000">Tree 0, Class True</text>
</g>
<!-- SG_0_Node_0 -->
<g id="node1" class="node">
<title>SG_0_Node_0</title>
<polygon fill="none" stroke="#000000" points="204,-1542.5584 62,-1542.5584 62,-1506.5584 204,-1506.5584 204,-1542.5584"/>
<text text-anchor="middle" x="133" y="-1519.5584" font-family="Times,serif" font-size="20.00" fill="#000000">Status&#45;Code</text>
</g>
<!-- SG_0_Node_11 -->
<g id="node2" class="node">
<title>SG_0_Node_11</title>
<ellipse fill="none" stroke="#000000" cx="75" cy="-1235.3452" rx="34.7971" ry="21.4286"/>
<text text-anchor="middle" x="75" y="-1230.3452" font-family="Times,serif" font-size="20.00" fill="#000000">0.0</text>
</g>
<!-- SG_0_Node_0&#45;&gt;SG_0_Node_11 -->
<g id="edge1" class="edge">
<title>SG_0_Node_0&#45;&gt;SG_0_Node_11</title>
<path fill="none" stroke="#000000" d="M126.3181,-1506.4208C122.5908,-1495.7916 118.0908,-1482.0416 115,-1469.5584 97.2396,-1397.8284 84.7487,-1311.8001 78.8491,-1266.608"/>
<polygon fill="#000000" stroke="#000000" points="82.3034,-1266.0274 77.558,-1256.5547 75.3604,-1266.9191 82.3034,-1266.0274"/>
<text text-anchor="middle" x="161" y="-1387.5584" font-family="Times,serif" font-size="20.00" fill="#000000">[NA]</text>
<text text-anchor="middle" x="161" y="-1365.5584" font-family="Times,serif" font-size="20.00" fill="#000000">54 levels</text>
</g>
<!-- SG_0_Node_1 -->
<g id="node3" class="node">
<title>SG_0_Node_1</title>
<polygon fill="none" stroke="#000000" points="348.5,-1253.3452 127.5,-1253.3452 127.5,-1217.3452 348.5,-1217.3452 348.5,-1253.3452"/>
<text text-anchor="middle" x="238" y="-1230.3452" font-family="Times,serif" font-size="20.00" fill="#000000">Content&#45;Disposition</text>
</g>
<!-- SG_0_Node_0&#45;&gt;SG_0_Node_1 -->
<g id="edge2" class="edge">
<title>SG_0_Node_0&#45;&gt;SG_0_Node_1</title>
<path fill="none" stroke="#000000" d="M168.659,-1506.3527C182.8845,-1497.2485 197.993,-1484.8742 207,-1469.5584 245.5946,-1403.931 244.519,-1310.3395 241.0104,-1263.8385"/>
<polygon fill="#000000" stroke="#000000" points="244.4747,-1263.2684 240.1389,-1253.6013 237.4999,-1263.8622 244.4747,-1263.2684"/>
<text text-anchor="middle" x="261.5" y="-1453.5584" font-family="Times,serif" font-size="20.00" fill="#000000">200</text>
<text text-anchor="middle" x="261.5" y="-1431.5584" font-family="Times,serif" font-size="20.00" fill="#000000">201</text>
<text text-anchor="middle" x="261.5" y="-1409.5584" font-family="Times,serif" font-size="20.00" fill="#000000">202</text>
<text text-anchor="middle" x="261.5" y="-1387.5584" font-family="Times,serif" font-size="20.00" fill="#000000">203</text>
<text text-anchor="middle" x="261.5" y="-1365.5584" font-family="Times,serif" font-size="20.00" fill="#000000">206</text>
<text text-anchor="middle" x="261.5" y="-1343.5584" font-family="Times,serif" font-size="20.00" fill="#000000">207</text>
<text text-anchor="middle" x="261.5" y="-1321.5584" font-family="Times,serif" font-size="20.00" fill="#000000">208</text>
<text text-anchor="middle" x="261.5" y="-1299.5584" font-family="Times,serif" font-size="20.00" fill="#000000">226</text>
</g>
<!-- SG_0_Node_2 -->
<g id="node4" class="node">
<title>SG_0_Node_2</title>
<polygon fill="none" stroke="#000000" points="289.5,-1092.9188 134.5,-1092.9188 134.5,-1056.9188 289.5,-1056.9188 289.5,-1092.9188"/>
<text text-anchor="middle" x="212" y="-1069.9188" font-family="Times,serif" font-size="20.00" fill="#000000">Content&#45;Type</text>
</g>
<!-- SG_0_Node_1&#45;&gt;SG_0_Node_2 -->
<g id="edge3" class="edge">
<title>SG_0_Node_1&#45;&gt;SG_0_Node_2</title>
<path fill="none" stroke="#000000" d="M235.068,-1217.2541C230.5622,-1189.4519 221.8984,-1135.9947 216.566,-1103.0919"/>
<polygon fill="#000000" stroke="#000000" points="220.016,-1102.5012 214.9612,-1093.19 213.1061,-1103.6211 220.016,-1102.5012"/>
<text text-anchor="middle" x="260" y="-1150.132" font-family="Times,serif" font-size="20.00" fill="#000000">empty</text>
</g>
<!-- SG_0_Node_12 -->
<g id="node5" class="node">
<title>SG_0_Node_12</title>
<ellipse fill="none" stroke="#000000" cx="342" cy="-1074.9188" rx="34.7971" ry="21.4286"/>
<text text-anchor="middle" x="342" y="-1069.9188" font-family="Times,serif" font-size="20.00" fill="#000000">1.0</text>
</g>
<!-- SG_0_Node_1&#45;&gt;SG_0_Node_12 -->
<g id="edge4" class="edge">
<title>SG_0_Node_1&#45;&gt;SG_0_Node_12</title>
<path fill="none" stroke="#000000" d="M259.5099,-1217.2637C271.3667,-1206.4962 285.7213,-1192.0528 296,-1177.132 311.3435,-1154.8589 323.5856,-1126.6421 331.5711,-1105.5008"/>
<polygon fill="#000000" stroke="#000000" points="334.8834,-1106.6341 335.0403,-1096.0404 328.3113,-1104.2241 334.8834,-1106.6341"/>
<text text-anchor="middle" x="378" y="-1161.132" font-family="Times,serif" font-size="20.00" fill="#000000">[NA]</text>
<text text-anchor="middle" x="378" y="-1139.132" font-family="Times,serif" font-size="20.00" fill="#000000">attachment</text>
</g>
<!-- SG_0_Node_3 -->
<g id="node6" class="node">
<title>SG_0_Node_3</title>
<polygon fill="none" stroke="#000000" points="194.5,-803.7056 129.5,-803.7056 129.5,-767.7056 194.5,-767.7056 194.5,-803.7056"/>
<text text-anchor="middle" x="162" y="-780.7056" font-family="Times,serif" font-size="20.00" fill="#000000">body</text>
</g>
<!-- SG_0_Node_2&#45;&gt;SG_0_Node_3 -->
<g id="edge5" class="edge">
<title>SG_0_Node_2&#45;&gt;SG_0_Node_3</title>
<path fill="none" stroke="#000000" d="M208.8723,-1056.8272C200.4191,-1007.9318 177.0688,-872.8674 166.8711,-813.8811"/>
<polygon fill="#000000" stroke="#000000" points="170.279,-813.0479 165.1265,-803.7904 163.3813,-814.2405 170.279,-813.0479"/>
<text text-anchor="middle" x="312" y="-1000.7056" font-family="Times,serif" font-size="20.00" fill="#000000">[NA]</text>
<text text-anchor="middle" x="312" y="-978.7056" font-family="Times,serif" font-size="20.00" fill="#000000">application/javascript</text>
<text text-anchor="middle" x="312" y="-956.7056" font-family="Times,serif" font-size="20.00" fill="#000000">application/pdf</text>
<text text-anchor="middle" x="312" y="-934.7056" font-family="Times,serif" font-size="20.00" fill="#000000">empty</text>
<text text-anchor="middle" x="312" y="-912.7056" font-family="Times,serif" font-size="20.00" fill="#000000">image/png</text>
<text text-anchor="middle" x="312" y="-890.7056" font-family="Times,serif" font-size="20.00" fill="#000000">text/css</text>
<text text-anchor="middle" x="312" y="-868.7056" font-family="Times,serif" font-size="20.00" fill="#000000">text/html</text>
<text text-anchor="middle" x="312" y="-846.7056" font-family="Times,serif" font-size="20.00" fill="#000000">video/mp4</text>
</g>
<!-- SG_0_Node_4 -->
<g id="node7" class="node">
<title>SG_0_Node_4</title>
<polygon fill="none" stroke="#000000" points="499.5,-803.7056 434.5,-803.7056 434.5,-767.7056 499.5,-767.7056 499.5,-803.7056"/>
<text text-anchor="middle" x="467" y="-780.7056" font-family="Times,serif" font-size="20.00" fill="#000000">body</text>
</g>
<!-- SG_0_Node_2&#45;&gt;SG_0_Node_4 -->
<g id="edge6" class="edge">
<title>SG_0_Node_2&#45;&gt;SG_0_Node_4</title>
<path fill="none" stroke="#000000" d="M282.1506,-1056.8696C343.9031,-1040.8376 424.4404,-1019.515 427,-1016.7056 478.6057,-960.0651 475.9424,-861.8042 470.9198,-813.7697"/>
<polygon fill="#000000" stroke="#000000" points="474.3893,-813.3037 469.7622,-803.7727 467.4358,-814.109 474.3893,-813.3037"/>
<text text-anchor="middle" x="525" y="-923.7056" font-family="Times,serif" font-size="20.00" fill="#000000">audio/wav</text>
</g>
<!-- SG_0_Node_5 -->
<g id="node8" class="node">
<title>SG_0_Node_5</title>
<polygon fill="none" stroke="#000000" points="81.5,-646.4924 16.5,-646.4924 16.5,-610.4924 81.5,-610.4924 81.5,-646.4924"/>
<text text-anchor="middle" x="49" y="-623.4924" font-family="Times,serif" font-size="20.00" fill="#000000">body</text>
</g>
<!-- SG_0_Node_3&#45;&gt;SG_0_Node_5 -->
<g id="edge11" class="edge">
<title>SG_0_Node_3&#45;&gt;SG_0_Node_5</title>
<path fill="none" stroke="#000000" d="M129.37,-779.7882C102.3776,-772.9866 65.7021,-758.9008 48,-730.7056 34.2143,-708.7485 36.4887,-678.5641 40.9825,-656.6935"/>
<polygon fill="#000000" stroke="#000000" points="44.451,-657.2302 43.3062,-646.6974 37.6328,-655.6452 44.451,-657.2302"/>
<text text-anchor="middle" x="94" y="-714.7056" font-family="Times,serif" font-size="20.00" fill="#000000">[NA]</text>
<text text-anchor="middle" x="94" y="-692.7056" font-family="Times,serif" font-size="20.00" fill="#000000">12 levels</text>
</g>
<!-- SG_0_Node_6 -->
<g id="node9" class="node">
<title>SG_0_Node_6</title>
<polygon fill="none" stroke="#000000" points="712,-646.4924 450,-646.4924 450,-610.4924 712,-610.4924 712,-646.4924"/>
<text text-anchor="middle" x="581" y="-623.4924" font-family="Times,serif" font-size="20.00" fill="#000000">X&#45;Content&#45;Type&#45;Options</text>
</g>
<!-- SG_0_Node_3&#45;&gt;SG_0_Node_6 -->
<g id="edge12" class="edge">
<title>SG_0_Node_3&#45;&gt;SG_0_Node_6</title>
<path fill="none" stroke="#000000" d="M161.6048,-767.67C162.1685,-745.1515 166.7989,-707.1155 190,-686.7056 226.6418,-654.4721 343.2422,-640.0865 439.6532,-633.6665"/>
<polygon fill="#000000" stroke="#000000" points="440.0535,-637.1481 449.8086,-633.0144 439.6049,-630.1625 440.0535,-637.1481"/>
<text text-anchor="middle" x="324.5" y="-703.7056" font-family="Times,serif" font-size="20.00" fill="#000000">ecocnt_audio=duration=1</text>
</g>
<!-- SG_0_Node_7 -->
<g id="node10" class="node">
<title>SG_0_Node_7</title>
<polygon fill="none" stroke="#000000" points="992,-646.4924 730,-646.4924 730,-610.4924 992,-610.4924 992,-646.4924"/>
<text text-anchor="middle" x="861" y="-623.4924" font-family="Times,serif" font-size="20.00" fill="#000000">X&#45;Content&#45;Type&#45;Options</text>
</g>
<!-- SG_0_Node_4&#45;&gt;SG_0_Node_7 -->
<g id="edge7" class="edge">
<title>SG_0_Node_4&#45;&gt;SG_0_Node_7</title>
<path fill="none" stroke="#000000" d="M463.7531,-767.582C460.9056,-745.3301 460.0102,-707.9388 481,-686.7056 481.2862,-686.4161 622.6246,-664.8181 732.823,-648.0161"/>
<polygon fill="#000000" stroke="#000000" points="733.3526,-651.4759 742.7109,-646.5086 732.2976,-644.5558 733.3526,-651.4759"/>
<text text-anchor="middle" x="726.5" y="-703.7056" font-family="Times,serif" font-size="20.00" fill="#000000">ecocnt_vid=width=100,height=100,duration=2</text>
</g>
<!-- SG_0_Node_13 -->
<g id="node11" class="node">
<title>SG_0_Node_13</title>
<ellipse fill="none" stroke="#000000" cx="1045" cy="-628.4924" rx="34.7971" ry="21.4286"/>
<text text-anchor="middle" x="1045" y="-623.4924" font-family="Times,serif" font-size="20.00" fill="#000000">1.0</text>
</g>
<!-- SG_0_Node_4&#45;&gt;SG_0_Node_13 -->
<g id="edge8" class="edge">
<title>SG_0_Node_4&#45;&gt;SG_0_Node_13</title>
<path fill="none" stroke="#000000" d="M499.6606,-783.6982C604.9879,-777.0121 931.232,-754.5674 972,-730.7056 975.9182,-728.4123 1005.6392,-685.8357 1025.9288,-656.3648"/>
<polygon fill="#000000" stroke="#000000" points="1028.8486,-658.2957 1031.6277,-648.0718 1023.0795,-654.3311 1028.8486,-658.2957"/>
<text text-anchor="middle" x="1049" y="-714.7056" font-family="Times,serif" font-size="20.00" fill="#000000">[NA]</text>
<text text-anchor="middle" x="1049" y="-692.7056" font-family="Times,serif" font-size="20.00" fill="#000000">12 levels</text>
</g>
<!-- SG_0_Node_14 -->
<g id="node12" class="node">
<title>SG_0_Node_14</title>
<ellipse fill="none" stroke="#000000" cx="51" cy="-468.066" rx="34.7971" ry="21.4286"/>
<text text-anchor="middle" x="51" y="-463.066" font-family="Times,serif" font-size="20.00" fill="#000000">0.0</text>
</g>
<!-- SG_0_Node_5&#45;&gt;SG_0_Node_14 -->
<g id="edge17" class="edge">
<title>SG_0_Node_5&#45;&gt;SG_0_Node_14</title>
<path fill="none" stroke="#000000" d="M48.4349,-610.395C47.8873,-589.9632 47.2417,-555.7281 48,-526.2792 48.2241,-517.5766 48.6363,-508.1495 49.085,-499.4675"/>
<polygon fill="#000000" stroke="#000000" points="52.5871,-499.5222 49.64,-489.3455 45.5976,-499.1389 52.5871,-499.5222"/>
<text text-anchor="middle" x="94" y="-554.2792" font-family="Times,serif" font-size="20.00" fill="#000000">[NA]</text>
<text text-anchor="middle" x="94" y="-532.2792" font-family="Times,serif" font-size="20.00" fill="#000000">11 levels</text>
</g>
<!-- SG_0_Node_8 -->
<g id="node13" class="node">
<title>SG_0_Node_8</title>
<polygon fill="none" stroke="#000000" points="258.5,-486.066 103.5,-486.066 103.5,-450.066 258.5,-450.066 258.5,-486.066"/>
<text text-anchor="middle" x="181" y="-463.066" font-family="Times,serif" font-size="20.00" fill="#000000">Content&#45;Type</text>
</g>
<!-- SG_0_Node_5&#45;&gt;SG_0_Node_8 -->
<g id="edge18" class="edge">
<title>SG_0_Node_5&#45;&gt;SG_0_Node_8</title>
<path fill="none" stroke="#000000" d="M81.6935,-613.9442C100.8695,-604.0028 124.3312,-589.2029 140,-570.2792 149.6883,-558.5784 163.1464,-522.0206 171.9614,-495.973"/>
<polygon fill="#000000" stroke="#000000" points="175.3643,-496.832 175.2066,-486.2384 168.7236,-494.6182 175.3643,-496.832"/>
<text text-anchor="middle" x="388.5" y="-543.2792" font-family="Times,serif" font-size="20.00" fill="#000000">ecocnt_img=width=50,height=50,type=png</text>
</g>
<!-- SG_0_Node_9 -->
<g id="node14" class="node">
<title>SG_0_Node_9</title>
<polygon fill="none" stroke="#000000" points="714.5,-486.066 559.5,-486.066 559.5,-450.066 714.5,-450.066 714.5,-486.066"/>
<text text-anchor="middle" x="637" y="-463.066" font-family="Times,serif" font-size="20.00" fill="#000000">Content&#45;Type</text>
</g>
<!-- SG_0_Node_6&#45;&gt;SG_0_Node_9 -->
<g id="edge13" class="edge">
<title>SG_0_Node_6&#45;&gt;SG_0_Node_9</title>
<path fill="none" stroke="#000000" d="M597.7678,-610.2387C606.7386,-599.4156 617.1211,-584.974 623,-570.2792 632.5178,-546.4885 635.77,-517.3669 636.7871,-496.3025"/>
<polygon fill="#000000" stroke="#000000" points="640.2923,-496.2064 637.1366,-486.0925 633.2964,-495.9669 640.2923,-496.2064"/>
<text text-anchor="middle" x="668" y="-543.2792" font-family="Times,serif" font-size="20.00" fill="#000000">nosniff</text>
</g>
<!-- SG_0_Node_15 -->
<g id="node15" class="node">
<title>SG_0_Node_15</title>
<ellipse fill="none" stroke="#000000" cx="767" cy="-468.066" rx="34.7971" ry="21.4286"/>
<text text-anchor="middle" x="767" y="-463.066" font-family="Times,serif" font-size="20.00" fill="#000000">1.0</text>
</g>
<!-- SG_0_Node_6&#45;&gt;SG_0_Node_15 -->
<g id="edge14" class="edge">
<title>SG_0_Node_6&#45;&gt;SG_0_Node_15</title>
<path fill="none" stroke="#000000" d="M638.6748,-610.4022C661.8088,-601.0916 687.5399,-587.9196 707,-570.2792 728.9121,-550.416 745.1326,-520.6372 755.1454,-498.3382"/>
<polygon fill="#000000" stroke="#000000" points="758.4323,-499.5548 759.181,-488.9864 752.0052,-496.7812 758.4323,-499.5548"/>
<text text-anchor="middle" x="772" y="-554.2792" font-family="Times,serif" font-size="20.00" fill="#000000">[NA]</text>
<text text-anchor="middle" x="772" y="-532.2792" font-family="Times,serif" font-size="20.00" fill="#000000">empty</text>
</g>
<!-- SG_0_Node_16 -->
<g id="node16" class="node">
<title>SG_0_Node_16</title>
<ellipse fill="none" stroke="#000000" cx="861" cy="-468.066" rx="34.7971" ry="21.4286"/>
<text text-anchor="middle" x="861" y="-463.066" font-family="Times,serif" font-size="20.00" fill="#000000">0.0</text>
</g>
<!-- SG_0_Node_7&#45;&gt;SG_0_Node_16 -->
<g id="edge9" class="edge">
<title>SG_0_Node_7&#45;&gt;SG_0_Node_16</title>
<path fill="none" stroke="#000000" d="M861,-610.4013C861,-583.4864 861,-532.5279 861,-499.4506"/>
<polygon fill="#000000" stroke="#000000" points="864.5001,-499.3927 861,-489.3927 857.5001,-499.3927 864.5001,-499.3927"/>
<text text-anchor="middle" x="893" y="-543.2792" font-family="Times,serif" font-size="20.00" fill="#000000">empty</text>
</g>
<!-- SG_0_Node_17 -->
<g id="node17" class="node">
<title>SG_0_Node_17</title>
<ellipse fill="none" stroke="#000000" cx="961" cy="-468.066" rx="34.7971" ry="21.4286"/>
<text text-anchor="middle" x="961" y="-463.066" font-family="Times,serif" font-size="20.00" fill="#000000">1.0</text>
</g>
<!-- SG_0_Node_7&#45;&gt;SG_0_Node_17 -->
<g id="edge10" class="edge">
<title>SG_0_Node_7&#45;&gt;SG_0_Node_17</title>
<path fill="none" stroke="#000000" d="M888.8081,-610.3497C902.6277,-600.0688 918.5607,-586.106 929,-570.2792 943.1658,-548.8029 951.3667,-520.6842 955.9124,-499.3763"/>
<polygon fill="#000000" stroke="#000000" points="959.3545,-500.0111 957.8604,-489.5222 952.4874,-498.6536 959.3545,-500.0111"/>
<text text-anchor="middle" x="983" y="-554.2792" font-family="Times,serif" font-size="20.00" fill="#000000">[NA]</text>
<text text-anchor="middle" x="983" y="-532.2792" font-family="Times,serif" font-size="20.00" fill="#000000">nosniff</text>
</g>
<!-- SG_0_Node_18 -->
<g id="node18" class="node">
<title>SG_0_Node_18</title>
<ellipse fill="none" stroke="#000000" cx="116" cy="-197.6396" rx="34.7971" ry="21.4286"/>
<text text-anchor="middle" x="116" y="-192.6396" font-family="Times,serif" font-size="20.00" fill="#000000">0.0</text>
</g>
<!-- SG_0_Node_8&#45;&gt;SG_0_Node_18 -->
<g id="edge19" class="edge">
<title>SG_0_Node_8&#45;&gt;SG_0_Node_18</title>
<path fill="none" stroke="#000000" d="M159.3901,-449.8732C148.5402,-439.3849 136.3754,-425.2459 130,-409.8528 105.0578,-349.6307 107.8584,-271.5484 112,-228.8778"/>
<polygon fill="#000000" stroke="#000000" points="115.492,-229.138 113.0658,-218.8247 108.531,-228.4 115.492,-229.138"/>
<text text-anchor="middle" x="241" y="-393.8528" font-family="Times,serif" font-size="20.00" fill="#000000">[NA]</text>
<text text-anchor="middle" x="241" y="-371.8528" font-family="Times,serif" font-size="20.00" fill="#000000">application/javascript</text>
<text text-anchor="middle" x="241" y="-349.8528" font-family="Times,serif" font-size="20.00" fill="#000000">application/pdf</text>
<text text-anchor="middle" x="241" y="-327.8528" font-family="Times,serif" font-size="20.00" fill="#000000">image/png</text>
<text text-anchor="middle" x="241" y="-305.8528" font-family="Times,serif" font-size="20.00" fill="#000000">text/css</text>
<text text-anchor="middle" x="241" y="-283.8528" font-family="Times,serif" font-size="20.00" fill="#000000">text/html</text>
<text text-anchor="middle" x="241" y="-261.8528" font-family="Times,serif" font-size="20.00" fill="#000000">video/mp4</text>
</g>
<!-- SG_0_Node_10 -->
<g id="node19" class="node">
<title>SG_0_Node_10</title>
<polygon fill="none" stroke="#000000" points="505,-215.6396 243,-215.6396 243,-179.6396 505,-179.6396 505,-215.6396"/>
<text text-anchor="middle" x="374" y="-192.6396" font-family="Times,serif" font-size="20.00" fill="#000000">X&#45;Content&#45;Type&#45;Options</text>
</g>
<!-- SG_0_Node_8&#45;&gt;SG_0_Node_10 -->
<g id="edge20" class="edge">
<title>SG_0_Node_8&#45;&gt;SG_0_Node_10</title>
<path fill="none" stroke="#000000" d="M258.5112,-450.3551C297.7372,-439.7595 339.636,-425.3635 352,-409.8528 394.552,-356.4712 387.2373,-269.9604 379.8026,-225.6904"/>
<polygon fill="#000000" stroke="#000000" points="383.2098,-224.8628 377.989,-215.6437 376.3212,-226.1064 383.2098,-224.8628"/>
<text text-anchor="middle" x="417" y="-327.8528" font-family="Times,serif" font-size="20.00" fill="#000000">empty</text>
</g>
<!-- SG_0_Node_19 -->
<g id="node20" class="node">
<title>SG_0_Node_19</title>
<ellipse fill="none" stroke="#000000" cx="594" cy="-197.6396" rx="34.7971" ry="21.4286"/>
<text text-anchor="middle" x="594" y="-192.6396" font-family="Times,serif" font-size="20.00" fill="#000000">0.0</text>
</g>
<!-- SG_0_Node_9&#45;&gt;SG_0_Node_19 -->
<g id="edge15" class="edge">
<title>SG_0_Node_9&#45;&gt;SG_0_Node_19</title>
<path fill="none" stroke="#000000" d="M625.6237,-449.9394C619.2491,-438.8128 611.8307,-424.0226 608,-409.8528 591.1138,-347.3899 590.786,-270.9998 592.2595,-229.021"/>
<polygon fill="#000000" stroke="#000000" points="595.7629,-229.0076 592.6755,-218.8726 588.7688,-228.7208 595.7629,-229.0076"/>
<text text-anchor="middle" x="662.5" y="-371.8528" font-family="Times,serif" font-size="20.00" fill="#000000">[NA]</text>
<text text-anchor="middle" x="662.5" y="-349.8528" font-family="Times,serif" font-size="20.00" fill="#000000">image/png</text>
<text text-anchor="middle" x="662.5" y="-327.8528" font-family="Times,serif" font-size="20.00" fill="#000000">text/css</text>
<text text-anchor="middle" x="662.5" y="-305.8528" font-family="Times,serif" font-size="20.00" fill="#000000">text/html</text>
<text text-anchor="middle" x="662.5" y="-283.8528" font-family="Times,serif" font-size="20.00" fill="#000000">video/mp4</text>
</g>
<!-- SG_0_Node_20 -->
<g id="node21" class="node">
<title>SG_0_Node_20</title>
<ellipse fill="none" stroke="#000000" cx="739" cy="-197.6396" rx="34.7971" ry="21.4286"/>
<text text-anchor="middle" x="739" y="-192.6396" font-family="Times,serif" font-size="20.00" fill="#000000">1.0</text>
</g>
<!-- SG_0_Node_9&#45;&gt;SG_0_Node_20 -->
<g id="edge16" class="edge">
<title>SG_0_Node_9&#45;&gt;SG_0_Node_20</title>
<path fill="none" stroke="#000000" d="M674.516,-449.8658C690.2944,-440.2213 707.2275,-426.8214 717,-409.8528 749.874,-352.7716 747.6911,-272.5876 743.2935,-228.9447"/>
<polygon fill="#000000" stroke="#000000" points="746.7634,-228.4796 742.179,-218.928 739.8064,-229.2537 746.7634,-228.4796"/>
<text text-anchor="middle" x="856" y="-349.8528" font-family="Times,serif" font-size="20.00" fill="#000000">application/javascript</text>
<text text-anchor="middle" x="856" y="-327.8528" font-family="Times,serif" font-size="20.00" fill="#000000">application/pdf</text>
<text text-anchor="middle" x="856" y="-305.8528" font-family="Times,serif" font-size="20.00" fill="#000000">empty</text>
</g>
<!-- SG_0_Node_21 -->
<g id="node22" class="node">
<title>SG_0_Node_21</title>
<ellipse fill="none" stroke="#000000" cx="324" cy="-37.2132" rx="34.7971" ry="21.4286"/>
<text text-anchor="middle" x="324" y="-32.2132" font-family="Times,serif" font-size="20.00" fill="#000000">0.0</text>
</g>
<!-- SG_0_Node_10&#45;&gt;SG_0_Node_21 -->
<g id="edge21" class="edge">
<title>SG_0_Node_10&#45;&gt;SG_0_Node_21</title>
<path fill="none" stroke="#000000" d="M360.0384,-179.525C352.2847,-168.521 343.184,-153.8522 338,-139.4264 329.7986,-116.604 326.3564,-89.3305 324.9333,-68.6985"/>
<polygon fill="#000000" stroke="#000000" points="328.4197,-68.359 324.3586,-58.5735 321.431,-68.7557 328.4197,-68.359"/>
<text text-anchor="middle" x="370" y="-112.4264" font-family="Times,serif" font-size="20.00" fill="#000000">empty</text>
</g>
<!-- SG_0_Node_22 -->
<g id="node23" class="node">
<title>SG_0_Node_22</title>
<ellipse fill="none" stroke="#000000" cx="424" cy="-37.2132" rx="34.7971" ry="21.4286"/>
<text text-anchor="middle" x="424" y="-32.2132" font-family="Times,serif" font-size="20.00" fill="#000000">1.0</text>
</g>
<!-- SG_0_Node_10&#45;&gt;SG_0_Node_22 -->
<g id="edge22" class="edge">
<title>SG_0_Node_10&#45;&gt;SG_0_Node_22</title>
<path fill="none" stroke="#000000" d="M384.1012,-179.4966C390.0168,-168.242 397.2371,-153.3243 402,-139.4264 409.9679,-116.1767 415.6615,-88.9279 419.2577,-68.414"/>
<polygon fill="#000000" stroke="#000000" points="422.742,-68.7991 420.948,-58.3573 415.8388,-67.6388 422.742,-68.7991"/>
<text text-anchor="middle" x="448" y="-123.4264" font-family="Times,serif" font-size="20.00" fill="#000000">[NA]</text>
<text text-anchor="middle" x="448" y="-101.4264" font-family="Times,serif" font-size="20.00" fill="#000000">nosniff</text>
</g>
<!-- SG_1_Node_0 -->
<g id="node24" class="node">
<title>SG_1_Node_0</title>
<polygon fill="none" stroke="#000000" points="1594,-1542.5584 1452,-1542.5584 1452,-1506.5584 1594,-1506.5584 1594,-1542.5584"/>
<text text-anchor="middle" x="1523" y="-1519.5584" font-family="Times,serif" font-size="20.00" fill="#000000">Status&#45;Code</text>
</g>
<!-- SG_1_Node_1 -->
<g id="node25" class="node">
<title>SG_1_Node_1</title>
<polygon fill="none" stroke="#000000" points="1574.5,-1253.3452 1353.5,-1253.3452 1353.5,-1217.3452 1574.5,-1217.3452 1574.5,-1253.3452"/>
<text text-anchor="middle" x="1464" y="-1230.3452" font-family="Times,serif" font-size="20.00" fill="#000000">Content&#45;Disposition</text>
</g>
<!-- SG_1_Node_0&#45;&gt;SG_1_Node_1 -->
<g id="edge23" class="edge">
<title>SG_1_Node_0&#45;&gt;SG_1_Node_1</title>
<path fill="none" stroke="#000000" d="M1519.3093,-1506.4669C1509.3345,-1457.5714 1481.7812,-1322.507 1469.7479,-1263.5207"/>
<polygon fill="#000000" stroke="#000000" points="1473.1176,-1262.5286 1467.6893,-1253.43 1466.2589,-1263.9278 1473.1176,-1262.5286"/>
<text text-anchor="middle" x="1530.5" y="-1453.5584" font-family="Times,serif" font-size="20.00" fill="#000000">200</text>
<text text-anchor="middle" x="1530.5" y="-1431.5584" font-family="Times,serif" font-size="20.00" fill="#000000">201</text>
<text text-anchor="middle" x="1530.5" y="-1409.5584" font-family="Times,serif" font-size="20.00" fill="#000000">202</text>
<text text-anchor="middle" x="1530.5" y="-1387.5584" font-family="Times,serif" font-size="20.00" fill="#000000">203</text>
<text text-anchor="middle" x="1530.5" y="-1365.5584" font-family="Times,serif" font-size="20.00" fill="#000000">206</text>
<text text-anchor="middle" x="1530.5" y="-1343.5584" font-family="Times,serif" font-size="20.00" fill="#000000">207</text>
<text text-anchor="middle" x="1530.5" y="-1321.5584" font-family="Times,serif" font-size="20.00" fill="#000000">208</text>
<text text-anchor="middle" x="1530.5" y="-1299.5584" font-family="Times,serif" font-size="20.00" fill="#000000">226</text>
</g>
<!-- SG_1_Node_11 -->
<g id="node26" class="node">
<title>SG_1_Node_11</title>
<ellipse fill="none" stroke="#000000" cx="1627" cy="-1235.3452" rx="34.7971" ry="21.4286"/>
<text text-anchor="middle" x="1627" y="-1230.3452" font-family="Times,serif" font-size="20.00" fill="#000000">1.0</text>
</g>
<!-- SG_1_Node_0&#45;&gt;SG_1_Node_11 -->
<g id="edge24" class="edge">
<title>SG_1_Node_0&#45;&gt;SG_1_Node_11</title>
<path fill="none" stroke="#000000" d="M1534.4772,-1506.4711C1540.8082,-1495.9737 1548.4807,-1482.3378 1554,-1469.5584 1584.3937,-1399.1854 1608.1332,-1311.9974 1619.552,-1266.4217"/>
<polygon fill="#000000" stroke="#000000" points="1622.9885,-1267.1045 1621.9934,-1256.5565 1616.1935,-1265.4228 1622.9885,-1267.1045"/>
<text text-anchor="middle" x="1658" y="-1387.5584" font-family="Times,serif" font-size="20.00" fill="#000000">[NA]</text>
<text text-anchor="middle" x="1658" y="-1365.5584" font-family="Times,serif" font-size="20.00" fill="#000000">54 levels</text>
</g>
<!-- SG_1_Node_12 -->
<g id="node27" class="node">
<title>SG_1_Node_12</title>
<ellipse fill="none" stroke="#000000" cx="1387" cy="-1074.9188" rx="34.7971" ry="21.4286"/>
<text text-anchor="middle" x="1387" y="-1069.9188" font-family="Times,serif" font-size="20.00" fill="#000000">0.0</text>
</g>
<!-- SG_1_Node_1&#45;&gt;SG_1_Node_12 -->
<g id="edge25" class="edge">
<title>SG_1_Node_1&#45;&gt;SG_1_Node_12</title>
<path fill="none" stroke="#000000" d="M1436.8671,-1217.1841C1423.8587,-1206.9898 1409.3288,-1193.1109 1401,-1177.132 1389.5976,-1155.2564 1386.412,-1127.3334 1385.9023,-1106.202"/>
<polygon fill="#000000" stroke="#000000" points="1389.402,-1106.1154 1385.8464,-1096.1351 1382.4021,-1106.1544 1389.402,-1106.1154"/>
<text text-anchor="middle" x="1460" y="-1161.132" font-family="Times,serif" font-size="20.00" fill="#000000">[NA]</text>
<text text-anchor="middle" x="1460" y="-1139.132" font-family="Times,serif" font-size="20.00" fill="#000000">attachment</text>
</g>
<!-- SG_1_Node_2 -->
<g id="node28" class="node">
<title>SG_1_Node_2</title>
<polygon fill="none" stroke="#000000" points="1618.5,-1092.9188 1463.5,-1092.9188 1463.5,-1056.9188 1618.5,-1056.9188 1618.5,-1092.9188"/>
<text text-anchor="middle" x="1541" y="-1069.9188" font-family="Times,serif" font-size="20.00" fill="#000000">Content&#45;Type</text>
</g>
<!-- SG_1_Node_1&#45;&gt;SG_1_Node_2 -->
<g id="edge26" class="edge">
<title>SG_1_Node_1&#45;&gt;SG_1_Node_2</title>
<path fill="none" stroke="#000000" d="M1486.1074,-1217.2971C1497.6021,-1206.751 1510.9049,-1192.5114 1519,-1177.132 1531.1509,-1154.0472 1536.5925,-1124.6674 1539.0284,-1103.3363"/>
<polygon fill="#000000" stroke="#000000" points="1542.5214,-1103.5792 1540.0236,-1093.2831 1535.5555,-1102.8896 1542.5214,-1103.5792"/>
<text text-anchor="middle" x="1565" y="-1150.132" font-family="Times,serif" font-size="20.00" fill="#000000">empty</text>
</g>
<!-- SG_1_Node_3 -->
<g id="node29" class="node">
<title>SG_1_Node_3</title>
<polygon fill="none" stroke="#000000" points="1288.5,-803.7056 1223.5,-803.7056 1223.5,-767.7056 1288.5,-767.7056 1288.5,-803.7056"/>
<text text-anchor="middle" x="1256" y="-780.7056" font-family="Times,serif" font-size="20.00" fill="#000000">body</text>
</g>
<!-- SG_1_Node_2&#45;&gt;SG_1_Node_3 -->
<g id="edge27" class="edge">
<title>SG_1_Node_2&#45;&gt;SG_1_Node_3</title>
<path fill="none" stroke="#000000" d="M1521.9501,-1056.7018C1510.0885,-1045.2933 1494.5601,-1030.2392 1481,-1016.7056 1407.1387,-942.9888 1321.5517,-854.1549 1280.4725,-811.2995"/>
<polygon fill="#000000" stroke="#000000" points="1282.778,-808.6466 1273.3329,-803.8465 1277.7231,-813.489 1282.778,-808.6466"/>
<text text-anchor="middle" x="1533" y="-923.7056" font-family="Times,serif" font-size="20.00" fill="#000000">audio/wav</text>
</g>
<!-- SG_1_Node_4 -->
<g id="node30" class="node">
<title>SG_1_Node_4</title>
<polygon fill="none" stroke="#000000" points="1815.5,-803.7056 1750.5,-803.7056 1750.5,-767.7056 1815.5,-767.7056 1815.5,-803.7056"/>
<text text-anchor="middle" x="1783" y="-780.7056" font-family="Times,serif" font-size="20.00" fill="#000000">body</text>
</g>
<!-- SG_1_Node_2&#45;&gt;SG_1_Node_4 -->
<g id="edge28" class="edge">
<title>SG_1_Node_2&#45;&gt;SG_1_Node_4</title>
<path fill="none" stroke="#000000" d="M1556.1382,-1056.8272C1597.5609,-1007.3231 1712.892,-869.4915 1761.2374,-811.714"/>
<polygon fill="#000000" stroke="#000000" points="1764.1345,-813.7058 1767.8675,-803.7904 1758.7659,-809.2136 1764.1345,-813.7058"/>
<text text-anchor="middle" x="1845" y="-1000.7056" font-family="Times,serif" font-size="20.00" fill="#000000">[NA]</text>
<text text-anchor="middle" x="1845" y="-978.7056" font-family="Times,serif" font-size="20.00" fill="#000000">application/javascript</text>
<text text-anchor="middle" x="1845" y="-956.7056" font-family="Times,serif" font-size="20.00" fill="#000000">application/pdf</text>
<text text-anchor="middle" x="1845" y="-934.7056" font-family="Times,serif" font-size="20.00" fill="#000000">empty</text>
<text text-anchor="middle" x="1845" y="-912.7056" font-family="Times,serif" font-size="20.00" fill="#000000">image/png</text>
<text text-anchor="middle" x="1845" y="-890.7056" font-family="Times,serif" font-size="20.00" fill="#000000">text/css</text>
<text text-anchor="middle" x="1845" y="-868.7056" font-family="Times,serif" font-size="20.00" fill="#000000">text/html</text>
<text text-anchor="middle" x="1845" y="-846.7056" font-family="Times,serif" font-size="20.00" fill="#000000">video/mp4</text>
</g>
<!-- SG_1_Node_13 -->
<g id="node31" class="node">
<title>SG_1_Node_13</title>
<ellipse fill="none" stroke="#000000" cx="1145" cy="-628.4924" rx="34.7971" ry="21.4286"/>
<text text-anchor="middle" x="1145" y="-623.4924" font-family="Times,serif" font-size="20.00" fill="#000000">0.0</text>
</g>
<!-- SG_1_Node_3&#45;&gt;SG_1_Node_13 -->
<g id="edge41" class="edge">
<title>SG_1_Node_3&#45;&gt;SG_1_Node_13</title>
<path fill="none" stroke="#000000" d="M1223.067,-775.0639C1201.9258,-766.4821 1175.756,-752.245 1161,-730.7056 1146.8676,-710.0765 1143.3743,-681.6557 1143.1282,-660.0187"/>
<polygon fill="#000000" stroke="#000000" points="1146.628,-660.0428 1143.2358,-650.0057 1139.6284,-659.9675 1146.628,-660.0428"/>
<text text-anchor="middle" x="1207" y="-714.7056" font-family="Times,serif" font-size="20.00" fill="#000000">[NA]</text>
<text text-anchor="middle" x="1207" y="-692.7056" font-family="Times,serif" font-size="20.00" fill="#000000">12 levels</text>
</g>
<!-- SG_1_Node_5 -->
<g id="node32" class="node">
<title>SG_1_Node_5</title>
<polygon fill="none" stroke="#000000" points="1460,-646.4924 1198,-646.4924 1198,-610.4924 1460,-610.4924 1460,-646.4924"/>
<text text-anchor="middle" x="1329" y="-623.4924" font-family="Times,serif" font-size="20.00" fill="#000000">X&#45;Content&#45;Type&#45;Options</text>
</g>
<!-- SG_1_Node_3&#45;&gt;SG_1_Node_5 -->
<g id="edge42" class="edge">
<title>SG_1_Node_3&#45;&gt;SG_1_Node_5</title>
<path fill="none" stroke="#000000" d="M1255.1742,-767.5176C1254.9804,-746.8396 1256.9672,-712.5995 1270,-686.7056 1276.3409,-674.1073 1286.4752,-662.6225 1296.5686,-653.2454"/>
<polygon fill="#000000" stroke="#000000" points="1299.0303,-655.7412 1304.2156,-646.502 1294.4004,-650.4909 1299.0303,-655.7412"/>
<text text-anchor="middle" x="1515.5" y="-703.7056" font-family="Times,serif" font-size="20.00" fill="#000000">ecocnt_vid=width=100,height=100,duration=2</text>
</g>
<!-- SG_1_Node_6 -->
<g id="node33" class="node">
<title>SG_1_Node_6</title>
<polygon fill="none" stroke="#000000" points="1740,-646.4924 1478,-646.4924 1478,-610.4924 1740,-610.4924 1740,-646.4924"/>
<text text-anchor="middle" x="1609" y="-623.4924" font-family="Times,serif" font-size="20.00" fill="#000000">X&#45;Content&#45;Type&#45;Options</text>
</g>
<!-- SG_1_Node_4&#45;&gt;SG_1_Node_6 -->
<g id="edge29" class="edge">
<title>SG_1_Node_4&#45;&gt;SG_1_Node_6</title>
<path fill="none" stroke="#000000" d="M1783.8395,-767.3672C1783.8384,-745.589 1780.5525,-709.3683 1761,-686.7056 1747.0564,-670.5441 1728.1076,-658.8517 1708.3213,-650.3982"/>
<polygon fill="#000000" stroke="#000000" points="1709.4588,-647.0836 1698.8741,-646.6206 1706.8598,-653.5833 1709.4588,-647.0836"/>
<text text-anchor="middle" x="1914.5" y="-703.7056" font-family="Times,serif" font-size="20.00" fill="#000000">ecocnt_audio=duration=1</text>
</g>
<!-- SG_1_Node_7 -->
<g id="node34" class="node">
<title>SG_1_Node_7</title>
<polygon fill="none" stroke="#000000" points="2120.5,-646.4924 2055.5,-646.4924 2055.5,-610.4924 2120.5,-610.4924 2120.5,-646.4924"/>
<text text-anchor="middle" x="2088" y="-623.4924" font-family="Times,serif" font-size="20.00" fill="#000000">body</text>
</g>
<!-- SG_1_Node_4&#45;&gt;SG_1_Node_7 -->
<g id="edge30" class="edge">
<title>SG_1_Node_4&#45;&gt;SG_1_Node_7</title>
<path fill="none" stroke="#000000" d="M1815.7164,-783.0696C1879.6444,-777.2895 2017.9628,-761.4928 2053,-730.7056 2074.2607,-712.0239 2082.618,-679.8547 2085.8966,-656.5878"/>
<polygon fill="#000000" stroke="#000000" points="2089.3786,-656.9456 2087.0738,-646.6045 2082.4268,-656.1258 2089.3786,-656.9456"/>
<text text-anchor="middle" x="2125" y="-714.7056" font-family="Times,serif" font-size="20.00" fill="#000000">[NA]</text>
<text text-anchor="middle" x="2125" y="-692.7056" font-family="Times,serif" font-size="20.00" fill="#000000">12 levels</text>
</g>
<!-- SG_1_Node_14 -->
<g id="node35" class="node">
<title>SG_1_Node_14</title>
<ellipse fill="none" stroke="#000000" cx="1183" cy="-468.066" rx="34.7971" ry="21.4286"/>
<text text-anchor="middle" x="1183" y="-463.066" font-family="Times,serif" font-size="20.00" fill="#000000">0.0</text>
</g>
<!-- SG_1_Node_5&#45;&gt;SG_1_Node_14 -->
<g id="edge43" class="edge">
<title>SG_1_Node_5&#45;&gt;SG_1_Node_14</title>
<path fill="none" stroke="#000000" d="M1274.8084,-610.4162C1254.2812,-601.2142 1232.2183,-588.1178 1217,-570.2792 1199.998,-550.3497 1191.4225,-521.627 1187.1424,-499.701"/>
<polygon fill="#000000" stroke="#000000" points="1190.5379,-498.7996 1185.3682,-489.5517 1183.6425,-500.005 1190.5379,-498.7996"/>
<text text-anchor="middle" x="1252" y="-554.2792" font-family="Times,serif" font-size="20.00" fill="#000000">[NA]</text>
<text text-anchor="middle" x="1252" y="-532.2792" font-family="Times,serif" font-size="20.00" fill="#000000">nosniff</text>
</g>
<!-- SG_1_Node_15 -->
<g id="node36" class="node">
<title>SG_1_Node_15</title>
<ellipse fill="none" stroke="#000000" cx="1280" cy="-468.066" rx="34.7971" ry="21.4286"/>
<text text-anchor="middle" x="1280" y="-463.066" font-family="Times,serif" font-size="20.00" fill="#000000">1.0</text>
</g>
<!-- SG_1_Node_5&#45;&gt;SG_1_Node_15 -->
<g id="edge44" class="edge">
<title>SG_1_Node_5&#45;&gt;SG_1_Node_15</title>
<path fill="none" stroke="#000000" d="M1319.7262,-610.2514C1314.2719,-598.9609 1307.5707,-584.0399 1303,-570.2792 1295.2856,-547.0541 1289.3269,-520.0079 1285.4094,-499.5725"/>
<polygon fill="#000000" stroke="#000000" points="1288.8143,-498.7375 1283.5483,-489.544 1281.9318,-500.0148 1288.8143,-498.7375"/>
<text text-anchor="middle" x="1335" y="-543.2792" font-family="Times,serif" font-size="20.00" fill="#000000">empty</text>
</g>
<!-- SG_1_Node_16 -->
<g id="node37" class="node">
<title>SG_1_Node_16</title>
<ellipse fill="none" stroke="#000000" cx="1367" cy="-468.066" rx="34.7971" ry="21.4286"/>
<text text-anchor="middle" x="1367" y="-463.066" font-family="Times,serif" font-size="20.00" fill="#000000">0.0</text>
</g>
<!-- SG_1_Node_6&#45;&gt;SG_1_Node_16 -->
<g id="edge37" class="edge">
<title>SG_1_Node_6&#45;&gt;SG_1_Node_16</title>
<path fill="none" stroke="#000000" d="M1501.9542,-610.4819C1473.7332,-601.8477 1444.8248,-589.0969 1422,-570.2792 1399.5167,-551.7431 1384.8848,-521.5356 1376.4079,-498.7559"/>
<polygon fill="#000000" stroke="#000000" points="1379.6639,-497.4644 1373.0435,-489.1928 1373.0606,-499.7876 1379.6639,-497.4644"/>
<text text-anchor="middle" x="1454" y="-554.2792" font-family="Times,serif" font-size="20.00" fill="#000000">[NA]</text>
<text text-anchor="middle" x="1454" y="-532.2792" font-family="Times,serif" font-size="20.00" fill="#000000">empty</text>
</g>
<!-- SG_1_Node_8 -->
<g id="node38" class="node">
<title>SG_1_Node_8</title>
<polygon fill="none" stroke="#000000" points="1574.5,-486.066 1419.5,-486.066 1419.5,-450.066 1574.5,-450.066 1574.5,-486.066"/>
<text text-anchor="middle" x="1497" y="-463.066" font-family="Times,serif" font-size="20.00" fill="#000000">Content&#45;Type</text>
</g>
<!-- SG_1_Node_6&#45;&gt;SG_1_Node_8 -->
<g id="edge38" class="edge">
<title>SG_1_Node_6&#45;&gt;SG_1_Node_8</title>
<path fill="none" stroke="#000000" d="M1552.7722,-610.4245C1533.7805,-601.4274 1514.4969,-588.4709 1503,-570.2792 1489.1261,-548.3264 1489.1332,-518.1414 1491.6965,-496.2695"/>
<polygon fill="#000000" stroke="#000000" points="1495.1754,-496.6644 1493.1106,-486.2727 1488.2444,-495.6839 1495.1754,-496.6644"/>
<text text-anchor="middle" x="1538" y="-543.2792" font-family="Times,serif" font-size="20.00" fill="#000000">nosniff</text>
</g>
<!-- SG_1_Node_9 -->
<g id="node39" class="node">
<title>SG_1_Node_9</title>
<polygon fill="none" stroke="#000000" points="1752.5,-486.066 1597.5,-486.066 1597.5,-450.066 1752.5,-450.066 1752.5,-486.066"/>
<text text-anchor="middle" x="1675" y="-463.066" font-family="Times,serif" font-size="20.00" fill="#000000">Content&#45;Type</text>
</g>
<!-- SG_1_Node_7&#45;&gt;SG_1_Node_9 -->
<g id="edge31" class="edge">
<title>SG_1_Node_7&#45;&gt;SG_1_Node_9</title>
<path fill="none" stroke="#000000" d="M2055.4014,-626.825C1954.9783,-621.3589 1655.3754,-602.4631 1627,-570.2792 1607.1679,-547.7853 1628.1733,-515.6794 1648.2944,-493.4792"/>
<polygon fill="#000000" stroke="#000000" points="1650.9736,-495.7402 1655.3063,-486.0718 1645.8899,-490.928 1650.9736,-495.7402"/>
<text text-anchor="middle" x="1855.5" y="-543.2792" font-family="Times,serif" font-size="20.00" fill="#000000">ecocnt_img=width=50,height=50,type=png</text>
</g>
<!-- SG_1_Node_17 -->
<g id="node40" class="node">
<title>SG_1_Node_17</title>
<ellipse fill="none" stroke="#000000" cx="2088" cy="-468.066" rx="34.7971" ry="21.4286"/>
<text text-anchor="middle" x="2088" y="-463.066" font-family="Times,serif" font-size="20.00" fill="#000000">1.0</text>
</g>
<!-- SG_1_Node_7&#45;&gt;SG_1_Node_17 -->
<g id="edge32" class="edge">
<title>SG_1_Node_7&#45;&gt;SG_1_Node_17</title>
<path fill="none" stroke="#000000" d="M2088,-610.4013C2088,-583.4864 2088,-532.5279 2088,-499.4506"/>
<polygon fill="#000000" stroke="#000000" points="2091.5001,-499.3927 2088,-489.3927 2084.5001,-499.3927 2091.5001,-499.3927"/>
<text text-anchor="middle" x="2134" y="-554.2792" font-family="Times,serif" font-size="20.00" fill="#000000">[NA]</text>
<text text-anchor="middle" x="2134" y="-532.2792" font-family="Times,serif" font-size="20.00" fill="#000000">11 levels</text>
</g>
<!-- SG_1_Node_18 -->
<g id="node41" class="node">
<title>SG_1_Node_18</title>
<ellipse fill="none" stroke="#000000" cx="1239" cy="-197.6396" rx="34.7971" ry="21.4286"/>
<text text-anchor="middle" x="1239" y="-192.6396" font-family="Times,serif" font-size="20.00" fill="#000000">0.0</text>
</g>
<!-- SG_1_Node_8&#45;&gt;SG_1_Node_18 -->
<g id="edge39" class="edge">
<title>SG_1_Node_8&#45;&gt;SG_1_Node_18</title>
<path fill="none" stroke="#000000" d="M1424.5155,-450.0521C1357.0304,-433.2432 1266.6869,-410.6278 1266,-409.8528 1221.4328,-359.573 1226.371,-274.3796 1233.1026,-228.7266"/>
<polygon fill="#000000" stroke="#000000" points="1236.5649,-229.24 1234.6858,-218.8131 1229.6525,-228.136 1236.5649,-229.24"/>
<text text-anchor="middle" x="1377" y="-349.8528" font-family="Times,serif" font-size="20.00" fill="#000000">application/javascript</text>
<text text-anchor="middle" x="1377" y="-327.8528" font-family="Times,serif" font-size="20.00" fill="#000000">application/pdf</text>
<text text-anchor="middle" x="1377" y="-305.8528" font-family="Times,serif" font-size="20.00" fill="#000000">empty</text>
</g>
<!-- SG_1_Node_19 -->
<g id="node42" class="node">
<title>SG_1_Node_19</title>
<ellipse fill="none" stroke="#000000" cx="1491" cy="-197.6396" rx="34.7971" ry="21.4286"/>
<text text-anchor="middle" x="1491" y="-192.6396" font-family="Times,serif" font-size="20.00" fill="#000000">1.0</text>
</g>
<!-- SG_1_Node_8&#45;&gt;SG_1_Node_19 -->
<g id="edge40" class="edge">
<title>SG_1_Node_8&#45;&gt;SG_1_Node_19</title>
<path fill="none" stroke="#000000" d="M1496.597,-449.9027C1495.5924,-404.6225 1492.9668,-286.2854 1491.7016,-229.2607"/>
<polygon fill="#000000" stroke="#000000" points="1495.1958,-228.955 1491.4747,-219.0351 1488.1975,-229.1103 1495.1958,-228.955"/>
<text text-anchor="middle" x="1549.5" y="-371.8528" font-family="Times,serif" font-size="20.00" fill="#000000">[NA]</text>
<text text-anchor="middle" x="1549.5" y="-349.8528" font-family="Times,serif" font-size="20.00" fill="#000000">image/png</text>
<text text-anchor="middle" x="1549.5" y="-327.8528" font-family="Times,serif" font-size="20.00" fill="#000000">text/css</text>
<text text-anchor="middle" x="1549.5" y="-305.8528" font-family="Times,serif" font-size="20.00" fill="#000000">text/html</text>
<text text-anchor="middle" x="1549.5" y="-283.8528" font-family="Times,serif" font-size="20.00" fill="#000000">video/mp4</text>
</g>
<!-- SG_1_Node_10 -->
<g id="node43" class="node">
<title>SG_1_Node_10</title>
<polygon fill="none" stroke="#000000" points="1806,-215.6396 1544,-215.6396 1544,-179.6396 1806,-179.6396 1806,-215.6396"/>
<text text-anchor="middle" x="1675" y="-192.6396" font-family="Times,serif" font-size="20.00" fill="#000000">X&#45;Content&#45;Type&#45;Options</text>
</g>
<!-- SG_1_Node_9&#45;&gt;SG_1_Node_10 -->
<g id="edge33" class="edge">
<title>SG_1_Node_9&#45;&gt;SG_1_Node_10</title>
<path fill="none" stroke="#000000" d="M1675,-449.9027C1675,-403.7174 1675,-281.5256 1675,-225.9158"/>
<polygon fill="#000000" stroke="#000000" points="1678.5001,-225.7239 1675,-215.7239 1671.5001,-225.7239 1678.5001,-225.7239"/>
<text text-anchor="middle" x="1707" y="-327.8528" font-family="Times,serif" font-size="20.00" fill="#000000">empty</text>
</g>
<!-- SG_1_Node_20 -->
<g id="node44" class="node">
<title>SG_1_Node_20</title>
<ellipse fill="none" stroke="#000000" cx="1859" cy="-197.6396" rx="34.7971" ry="21.4286"/>
<text text-anchor="middle" x="1859" y="-192.6396" font-family="Times,serif" font-size="20.00" fill="#000000">1.0</text>
</g>
<!-- SG_1_Node_9&#45;&gt;SG_1_Node_20 -->
<g id="edge34" class="edge">
<title>SG_1_Node_9&#45;&gt;SG_1_Node_20</title>
<path fill="none" stroke="#000000" d="M1700.2538,-450.0418C1713.9988,-439.3996 1730.6644,-425.06 1743,-409.8528 1790.361,-351.4668 1828.2177,-270.9404 1846.6964,-227.8068"/>
<polygon fill="#000000" stroke="#000000" points="1849.9878,-229.0096 1850.6572,-218.436 1843.5401,-226.2843 1849.9878,-229.0096"/>
<text text-anchor="middle" x="1945" y="-393.8528" font-family="Times,serif" font-size="20.00" fill="#000000">[NA]</text>
<text text-anchor="middle" x="1945" y="-371.8528" font-family="Times,serif" font-size="20.00" fill="#000000">application/javascript</text>
<text text-anchor="middle" x="1945" y="-349.8528" font-family="Times,serif" font-size="20.00" fill="#000000">application/pdf</text>
<text text-anchor="middle" x="1945" y="-327.8528" font-family="Times,serif" font-size="20.00" fill="#000000">image/png</text>
<text text-anchor="middle" x="1945" y="-305.8528" font-family="Times,serif" font-size="20.00" fill="#000000">text/css</text>
<text text-anchor="middle" x="1945" y="-283.8528" font-family="Times,serif" font-size="20.00" fill="#000000">text/html</text>
<text text-anchor="middle" x="1945" y="-261.8528" font-family="Times,serif" font-size="20.00" fill="#000000">video/mp4</text>
</g>
<!-- SG_1_Node_21 -->
<g id="node45" class="node">
<title>SG_1_Node_21</title>
<ellipse fill="none" stroke="#000000" cx="1622" cy="-37.2132" rx="34.7971" ry="21.4286"/>
<text text-anchor="middle" x="1622" y="-32.2132" font-family="Times,serif" font-size="20.00" fill="#000000">0.0</text>
</g>
<!-- SG_1_Node_10&#45;&gt;SG_1_Node_21 -->
<g id="edge35" class="edge">
<title>SG_1_Node_10&#45;&gt;SG_1_Node_21</title>
<path fill="none" stroke="#000000" d="M1659.6489,-179.4495C1651.2819,-168.535 1641.5319,-153.9817 1636,-139.4264 1627.3844,-116.7572 1623.9661,-89.4748 1622.6575,-68.8005"/>
<polygon fill="#000000" stroke="#000000" points="1626.145,-68.4633 1622.1491,-58.6509 1619.1538,-68.8135 1626.145,-68.4633"/>
<text text-anchor="middle" x="1671" y="-112.4264" font-family="Times,serif" font-size="20.00" fill="#000000">nosniff</text>
</g>
<!-- SG_1_Node_22 -->
<g id="node46" class="node">
<title>SG_1_Node_22</title>
<ellipse fill="none" stroke="#000000" cx="1728" cy="-37.2132" rx="34.7971" ry="21.4286"/>
<text text-anchor="middle" x="1728" y="-32.2132" font-family="Times,serif" font-size="20.00" fill="#000000">1.0</text>
</g>
<!-- SG_1_Node_10&#45;&gt;SG_1_Node_22 -->
<g id="edge36" class="edge">
<title>SG_1_Node_10&#45;&gt;SG_1_Node_22</title>
<path fill="none" stroke="#000000" d="M1686.2697,-179.6318C1692.8505,-168.4266 1700.8473,-153.5133 1706,-139.4264 1714.4428,-116.3449 1720.109,-89.0864 1723.5739,-68.526"/>
<polygon fill="#000000" stroke="#000000" points="1727.0633,-68.87 1725.1882,-58.4424 1720.1513,-67.7633 1727.0633,-68.87"/>
<text text-anchor="middle" x="1750" y="-123.4264" font-family="Times,serif" font-size="20.00" fill="#000000">[NA]</text>
<text text-anchor="middle" x="1750" y="-101.4264" font-family="Times,serif" font-size="20.00" fill="#000000">empty</text>
</g>
</g>
</svg>
