<?xml version="1.0" encoding="UTF-8" standalone="no"?>
<!DOCTYPE svg PUBLIC "-//W3C//DTD SVG 1.1//EN"
 "http://www.w3.org/Graphics/SVG/1.1/DTD/svg11.dtd">
<!-- Generated by graphviz version 2.40.1 (20161225.0304)
 -->
<!-- Title: G Pages: 1 -->
<svg width="4354pt" height="713pt"
 viewBox="0.00 0.00 4354.00 712.85" xmlns="http://www.w3.org/2000/svg" xmlns:xlink="http://www.w3.org/1999/xlink">
<g id="graph0" class="graph" transform="scale(1 1) rotate(0) translate(4 708.8528)">
<title>G</title>
<polygon fill="#ffffff" stroke="transparent" points="-4,4 -4,-708.8528 4350,-708.8528 4350,4 -4,4"/>
<g id="clust1" class="cluster">
<title>cluster_0</title>
<polygon fill="none" stroke="#000000" points="8,-8 8,-696.8528 416,-696.8528 416,-8 8,-8"/>
<text text-anchor="middle" x="212" y="-660.8528" font-family="Times,serif" font-size="40.00" fill="#000000">Tree 0, Class </text>
</g>
<g id="clust6" class="cluster">
<title>cluster_1</title>
<polygon fill="none" stroke="#000000" points="424,-8 424,-696.8528 4338,-696.8528 4338,-8 424,-8"/>
<text text-anchor="middle" x="2381" y="-660.8528" font-family="Times,serif" font-size="40.00" fill="#000000">Tree 0, Class {&#39;code&#39;: 18, &#39;name&#39;: &#39;SecurityError&#39;, &#39;message&#39;: &#39;Blocked a frame with origin http://localhost:8001 from accessing a cross&#45;origin frame. Protocols, domains, and ports must match.&#39;}</text>
</g>
<!-- SG_0_Node_0 -->
<g id="node1" class="node">
<title>SG_0_Node_0</title>
<polygon fill="none" stroke="#000000" points="266.5,-636.8528 45.5,-636.8528 45.5,-600.8528 266.5,-600.8528 266.5,-636.8528"/>
<text text-anchor="middle" x="156" y="-613.8528" font-family="Times,serif" font-size="20.00" fill="#000000">Content&#45;Disposition</text>
</g>
<!-- SG_0_Node_1 -->
<g id="node2" class="node">
<title>SG_0_Node_1</title>
<polygon fill="none" stroke="#000000" points="192,-482.8528 50,-482.8528 50,-446.8528 192,-446.8528 192,-482.8528"/>
<text text-anchor="middle" x="121" y="-459.8528" font-family="Times,serif" font-size="20.00" fill="#000000">Status&#45;Code</text>
</g>
<!-- SG_0_Node_0&#45;&gt;SG_0_Node_1 -->
<g id="edge1" class="edge">
<title>SG_0_Node_0&#45;&gt;SG_0_Node_1</title>
<path fill="none" stroke="#000000" d="M151.8476,-600.5822C145.7957,-573.9538 134.5003,-524.2542 127.3858,-492.9505"/>
<polygon fill="#000000" stroke="#000000" points="130.7763,-492.0752 125.147,-483.0996 123.9503,-493.6266 130.7763,-492.0752"/>
<text text-anchor="middle" x="175" y="-536.8528" font-family="Times,serif" font-size="20.00" fill="#000000">empty</text>
</g>
<!-- SG_0_Node_2 -->
<g id="node3" class="node">
<title>SG_0_Node_2</title>
<polygon fill="none" stroke="#000000" points="352,-482.8528 210,-482.8528 210,-446.8528 352,-446.8528 352,-482.8528"/>
<text text-anchor="middle" x="281" y="-459.8528" font-family="Times,serif" font-size="20.00" fill="#000000">Status&#45;Code</text>
</g>
<!-- SG_0_Node_0&#45;&gt;SG_0_Node_2 -->
<g id="edge2" class="edge">
<title>SG_0_Node_0&#45;&gt;SG_0_Node_2</title>
<path fill="none" stroke="#000000" d="M175.6604,-600.7723C186.5382,-590.3887 200.0332,-576.8617 211,-563.8528 230.619,-540.5805 250.4083,-512.0124 263.916,-491.5564"/>
<polygon fill="#000000" stroke="#000000" points="266.9341,-493.336 269.479,-483.0514 261.076,-489.5042 266.9341,-493.336"/>
<text text-anchor="middle" x="303" y="-547.8528" font-family="Times,serif" font-size="20.00" fill="#000000">[NA]</text>
<text text-anchor="middle" x="303" y="-525.8528" font-family="Times,serif" font-size="20.00" fill="#000000">attachment</text>
</g>
<!-- SG_0_Node_4 -->
<g id="node4" class="node">
<title>SG_0_Node_4</title>
<ellipse fill="none" stroke="#000000" cx="51" cy="-219.6396" rx="34.7971" ry="21.4286"/>
<text text-anchor="middle" x="51" y="-214.6396" font-family="Times,serif" font-size="20.00" fill="#000000">0.0</text>
</g>
<!-- SG_0_Node_1&#45;&gt;SG_0_Node_4 -->
<g id="edge7" class="edge">
<title>SG_0_Node_1&#45;&gt;SG_0_Node_4</title>
<path fill="none" stroke="#000000" d="M75.926,-446.6917C60.4019,-437.9982 44.7357,-425.9102 36,-409.8528 8.4039,-359.1271 25.3469,-289.283 38.9669,-249.8798"/>
<polygon fill="#000000" stroke="#000000" points="42.3164,-250.9089 42.4166,-240.3145 35.7316,-248.534 42.3164,-250.9089"/>
<text text-anchor="middle" x="82" y="-349.8528" font-family="Times,serif" font-size="20.00" fill="#000000">[NA]</text>
<text text-anchor="middle" x="82" y="-327.8528" font-family="Times,serif" font-size="20.00" fill="#000000">58 levels</text>
</g>
<!-- SG_0_Node_5 -->
<g id="node5" class="node">
<title>SG_0_Node_5</title>
<ellipse fill="none" stroke="#000000" cx="138" cy="-219.6396" rx="34.7971" ry="21.4286"/>
<text text-anchor="middle" x="138" y="-214.6396" font-family="Times,serif" font-size="20.00" fill="#000000">1.0</text>
</g>
<!-- SG_0_Node_1&#45;&gt;SG_0_Node_5 -->
<g id="edge8" class="edge">
<title>SG_0_Node_1&#45;&gt;SG_0_Node_5</title>
<path fill="none" stroke="#000000" d="M125.4323,-446.6398C127.8264,-435.9855 130.5764,-422.2355 132,-409.8528 138.3711,-354.4359 138.9483,-289.3814 138.6028,-251.5051"/>
<polygon fill="#000000" stroke="#000000" points="142.098,-251.0757 138.4782,-241.1184 135.0985,-251.1597 142.098,-251.0757"/>
<text text-anchor="middle" x="157.5" y="-371.8528" font-family="Times,serif" font-size="20.00" fill="#000000">100</text>
<text text-anchor="middle" x="157.5" y="-349.8528" font-family="Times,serif" font-size="20.00" fill="#000000">102</text>
<text text-anchor="middle" x="157.5" y="-327.8528" font-family="Times,serif" font-size="20.00" fill="#000000">103</text>
<text text-anchor="middle" x="157.5" y="-305.8528" font-family="Times,serif" font-size="20.00" fill="#000000">407</text>
</g>
<!-- SG_0_Node_3 -->
<g id="node6" class="node">
<title>SG_0_Node_3</title>
<polygon fill="none" stroke="#000000" points="295.5,-237.6396 190.5,-237.6396 190.5,-201.6396 295.5,-201.6396 295.5,-237.6396"/>
<text text-anchor="middle" x="243" y="-214.6396" font-family="Times,serif" font-size="20.00" fill="#000000">Location</text>
</g>
<!-- SG_0_Node_2&#45;&gt;SG_0_Node_3 -->
<g id="edge3" class="edge">
<title>SG_0_Node_2&#45;&gt;SG_0_Node_3</title>
<path fill="none" stroke="#000000" d="M270.2653,-446.6776C264.6724,-436.2644 258.322,-422.7393 255,-409.8528 240.5657,-353.8608 240.246,-285.6781 241.4971,-248.0382"/>
<polygon fill="#000000" stroke="#000000" points="245.003,-247.9562 241.9014,-237.8256 238.0085,-247.6793 245.003,-247.9562"/>
<text text-anchor="middle" x="274.5" y="-393.8528" font-family="Times,serif" font-size="20.00" fill="#000000">301</text>
<text text-anchor="middle" x="274.5" y="-371.8528" font-family="Times,serif" font-size="20.00" fill="#000000">302</text>
<text text-anchor="middle" x="274.5" y="-349.8528" font-family="Times,serif" font-size="20.00" fill="#000000">303</text>
<text text-anchor="middle" x="274.5" y="-327.8528" font-family="Times,serif" font-size="20.00" fill="#000000">305</text>
<text text-anchor="middle" x="274.5" y="-305.8528" font-family="Times,serif" font-size="20.00" fill="#000000">307</text>
<text text-anchor="middle" x="274.5" y="-283.8528" font-family="Times,serif" font-size="20.00" fill="#000000">308</text>
</g>
<!-- SG_0_Node_6 -->
<g id="node7" class="node">
<title>SG_0_Node_6</title>
<ellipse fill="none" stroke="#000000" cx="348" cy="-219.6396" rx="34.7971" ry="21.4286"/>
<text text-anchor="middle" x="348" y="-214.6396" font-family="Times,serif" font-size="20.00" fill="#000000">1.0</text>
</g>
<!-- SG_0_Node_2&#45;&gt;SG_0_Node_6 -->
<g id="edge4" class="edge">
<title>SG_0_Node_2&#45;&gt;SG_0_Node_6</title>
<path fill="none" stroke="#000000" d="M285.3226,-446.8324C295.0288,-406.5091 318.4494,-310.0238 328,-277.8528 330.6958,-268.7721 333.9225,-259.0006 336.9894,-250.1054"/>
<polygon fill="#000000" stroke="#000000" points="340.3448,-251.1131 340.3471,-240.5183 333.7383,-248.7992 340.3448,-251.1131"/>
<text text-anchor="middle" x="374" y="-349.8528" font-family="Times,serif" font-size="20.00" fill="#000000">[NA]</text>
<text text-anchor="middle" x="374" y="-327.8528" font-family="Times,serif" font-size="20.00" fill="#000000">56 levels</text>
</g>
<!-- SG_0_Node_7 -->
<g id="node8" class="node">
<title>SG_0_Node_7</title>
<ellipse fill="none" stroke="#000000" cx="51" cy="-37.2132" rx="34.7971" ry="21.4286"/>
<text text-anchor="middle" x="51" y="-32.2132" font-family="Times,serif" font-size="20.00" fill="#000000">0.0</text>
</g>
<!-- SG_0_Node_3&#45;&gt;SG_0_Node_7 -->
<g id="edge5" class="edge">
<title>SG_0_Node_3&#45;&gt;SG_0_Node_7</title>
<path fill="none" stroke="#000000" d="M192.1859,-201.5863C188.7495,-200.4836 185.3309,-199.4198 182,-198.4264 117.0256,-179.0495 75.7263,-214.8685 34,-161.4264 13.1227,-134.6873 23.9681,-94.4651 35.6475,-67.0889"/>
<polygon fill="#000000" stroke="#000000" points="38.9928,-68.1862 39.9309,-57.633 32.6165,-65.2977 38.9928,-68.1862"/>
<text text-anchor="middle" x="171" y="-145.4264" font-family="Times,serif" font-size="20.00" fill="#000000">[NA]</text>
<text text-anchor="middle" x="171" y="-123.4264" font-family="Times,serif" font-size="20.00" fill="#000000">/</text>
<text text-anchor="middle" x="171" y="-101.4264" font-family="Times,serif" font-size="20.00" fill="#000000">http://localhost:8000/echo/</text>
</g>
<!-- SG_0_Node_8 -->
<g id="node9" class="node">
<title>SG_0_Node_8</title>
<ellipse fill="none" stroke="#000000" cx="344" cy="-37.2132" rx="34.7971" ry="21.4286"/>
<text text-anchor="middle" x="344" y="-32.2132" font-family="Times,serif" font-size="20.00" fill="#000000">1.0</text>
</g>
<!-- SG_0_Node_3&#45;&gt;SG_0_Node_8 -->
<g id="edge6" class="edge">
<title>SG_0_Node_3&#45;&gt;SG_0_Node_8</title>
<path fill="none" stroke="#000000" d="M271.9089,-201.5435C285.9427,-191.3664 301.9094,-177.4832 312,-161.4264 329.8082,-133.0889 337.736,-95.2123 341.2466,-68.764"/>
<polygon fill="#000000" stroke="#000000" points="344.7573,-68.8806 342.4605,-58.5377 337.8061,-68.0554 344.7573,-68.8806"/>
<text text-anchor="middle" x="368" y="-123.4264" font-family="Times,serif" font-size="20.00" fill="#000000">empty</text>
</g>
<!-- SG_1_Node_0 -->
<g id="node10" class="node">
<title>SG_1_Node_0</title>
<polygon fill="none" stroke="#000000" points="2502.5,-636.8528 2281.5,-636.8528 2281.5,-600.8528 2502.5,-600.8528 2502.5,-636.8528"/>
<text text-anchor="middle" x="2392" y="-613.8528" font-family="Times,serif" font-size="20.00" fill="#000000">Content&#45;Disposition</text>
</g>
<!-- SG_1_Node_1 -->
<g id="node11" class="node">
<title>SG_1_Node_1</title>
<polygon fill="none" stroke="#000000" points="2383,-482.8528 2241,-482.8528 2241,-446.8528 2383,-446.8528 2383,-482.8528"/>
<text text-anchor="middle" x="2312" y="-459.8528" font-family="Times,serif" font-size="20.00" fill="#000000">Status&#45;Code</text>
</g>
<!-- SG_1_Node_0&#45;&gt;SG_1_Node_1 -->
<g id="edge9" class="edge">
<title>SG_1_Node_0&#45;&gt;SG_1_Node_1</title>
<path fill="none" stroke="#000000" d="M2364.315,-600.7931C2351.915,-591.2739 2338.2552,-578.5247 2330,-563.8528 2317.8178,-542.2015 2313.6157,-514.0546 2312.2869,-493.3103"/>
<polygon fill="#000000" stroke="#000000" points="2315.7783,-493.0411 2311.8268,-483.2107 2308.7856,-493.3596 2315.7783,-493.0411"/>
<text text-anchor="middle" x="2389" y="-547.8528" font-family="Times,serif" font-size="20.00" fill="#000000">[NA]</text>
<text text-anchor="middle" x="2389" y="-525.8528" font-family="Times,serif" font-size="20.00" fill="#000000">attachment</text>
</g>
<!-- SG_1_Node_2 -->
<g id="node12" class="node">
<title>SG_1_Node_2</title>
<polygon fill="none" stroke="#000000" points="2543,-482.8528 2401,-482.8528 2401,-446.8528 2543,-446.8528 2543,-482.8528"/>
<text text-anchor="middle" x="2472" y="-459.8528" font-family="Times,serif" font-size="20.00" fill="#000000">Status&#45;Code</text>
</g>
<!-- SG_1_Node_0&#45;&gt;SG_1_Node_2 -->
<g id="edge10" class="edge">
<title>SG_1_Node_0&#45;&gt;SG_1_Node_2</title>
<path fill="none" stroke="#000000" d="M2415.7888,-600.8199C2427.1208,-591.0491 2439.9299,-578.0752 2448,-563.8528 2460.412,-541.9784 2466.4402,-513.8563 2469.3469,-493.1781"/>
<polygon fill="#000000" stroke="#000000" points="2472.8373,-493.4716 2470.5997,-483.1157 2465.891,-492.6067 2472.8373,-493.4716"/>
<text text-anchor="middle" x="2496" y="-536.8528" font-family="Times,serif" font-size="20.00" fill="#000000">empty</text>
</g>
<!-- SG_1_Node_4 -->
<g id="node13" class="node">
<title>SG_1_Node_4</title>
<ellipse fill="none" stroke="#000000" cx="2195" cy="-219.6396" rx="34.7971" ry="21.4286"/>
<text text-anchor="middle" x="2195" y="-214.6396" font-family="Times,serif" font-size="20.00" fill="#000000">0.0</text>
</g>
<!-- SG_1_Node_1&#45;&gt;SG_1_Node_4 -->
<g id="edge13" class="edge">
<title>SG_1_Node_1&#45;&gt;SG_1_Node_4</title>
<path fill="none" stroke="#000000" d="M2262.8573,-446.8448C2245.9909,-438.2169 2228.6868,-426.1336 2218,-409.8528 2186.2473,-361.4794 2187.0273,-291.0182 2190.7887,-250.8229"/>
<polygon fill="#000000" stroke="#000000" points="2194.2765,-251.1221 2191.8474,-240.8095 2187.3153,-250.386 2194.2765,-251.1221"/>
<text text-anchor="middle" x="2264" y="-349.8528" font-family="Times,serif" font-size="20.00" fill="#000000">[NA]</text>
<text text-anchor="middle" x="2264" y="-327.8528" font-family="Times,serif" font-size="20.00" fill="#000000">56 levels</text>
</g>
<!-- SG_1_Node_3 -->
<g id="node14" class="node">
<title>SG_1_Node_3</title>
<polygon fill="none" stroke="#000000" points="2375.5,-237.6396 2270.5,-237.6396 2270.5,-201.6396 2375.5,-201.6396 2375.5,-237.6396"/>
<text text-anchor="middle" x="2323" y="-214.6396" font-family="Times,serif" font-size="20.00" fill="#000000">Location</text>
</g>
<!-- SG_1_Node_1&#45;&gt;SG_1_Node_3 -->
<g id="edge14" class="edge">
<title>SG_1_Node_1&#45;&gt;SG_1_Node_3</title>
<path fill="none" stroke="#000000" d="M2312.8089,-446.8217C2314.704,-404.5742 2319.4436,-298.9192 2321.7287,-247.9798"/>
<polygon fill="#000000" stroke="#000000" points="2325.2382,-247.844 2322.19,-237.6972 2318.2452,-247.5302 2325.2382,-247.844"/>
<text text-anchor="middle" x="2339.5" y="-393.8528" font-family="Times,serif" font-size="20.00" fill="#000000">301</text>
<text text-anchor="middle" x="2339.5" y="-371.8528" font-family="Times,serif" font-size="20.00" fill="#000000">302</text>
<text text-anchor="middle" x="2339.5" y="-349.8528" font-family="Times,serif" font-size="20.00" fill="#000000">303</text>
<text text-anchor="middle" x="2339.5" y="-327.8528" font-family="Times,serif" font-size="20.00" fill="#000000">305</text>
<text text-anchor="middle" x="2339.5" y="-305.8528" font-family="Times,serif" font-size="20.00" fill="#000000">307</text>
<text text-anchor="middle" x="2339.5" y="-283.8528" font-family="Times,serif" font-size="20.00" fill="#000000">308</text>
</g>
<!-- SG_1_Node_5 -->
<g id="node15" class="node">
<title>SG_1_Node_5</title>
<ellipse fill="none" stroke="#000000" cx="2442" cy="-219.6396" rx="34.7971" ry="21.4286"/>
<text text-anchor="middle" x="2442" y="-214.6396" font-family="Times,serif" font-size="20.00" fill="#000000">0.0</text>
</g>
<!-- SG_1_Node_2&#45;&gt;SG_1_Node_5 -->
<g id="edge11" class="edge">
<title>SG_1_Node_2&#45;&gt;SG_1_Node_5</title>
<path fill="none" stroke="#000000" d="M2469.638,-446.5231C2468.2673,-435.8298 2466.5173,-422.0798 2465,-409.8528 2458.0839,-354.1199 2450.2864,-289.1663 2445.7782,-251.3952"/>
<polygon fill="#000000" stroke="#000000" points="2449.2029,-250.5546 2444.5433,-241.0394 2442.2521,-251.3835 2449.2029,-250.5546"/>
<text text-anchor="middle" x="2484.5" y="-371.8528" font-family="Times,serif" font-size="20.00" fill="#000000">100</text>
<text text-anchor="middle" x="2484.5" y="-349.8528" font-family="Times,serif" font-size="20.00" fill="#000000">102</text>
<text text-anchor="middle" x="2484.5" y="-327.8528" font-family="Times,serif" font-size="20.00" fill="#000000">103</text>
<text text-anchor="middle" x="2484.5" y="-305.8528" font-family="Times,serif" font-size="20.00" fill="#000000">407</text>
</g>
<!-- SG_1_Node_6 -->
<g id="node16" class="node">
<title>SG_1_Node_6</title>
<ellipse fill="none" stroke="#000000" cx="2529" cy="-219.6396" rx="34.7971" ry="21.4286"/>
<text text-anchor="middle" x="2529" y="-214.6396" font-family="Times,serif" font-size="20.00" fill="#000000">1.0</text>
</g>
<!-- SG_1_Node_2&#45;&gt;SG_1_Node_6 -->
<g id="edge12" class="edge">
<title>SG_1_Node_2&#45;&gt;SG_1_Node_6</title>
<path fill="none" stroke="#000000" d="M2485.2215,-446.4049C2491.9304,-436.1266 2499.5765,-422.8174 2504,-409.8528 2522.3352,-356.1152 2527.3371,-289.5991 2528.6328,-251.1524"/>
<polygon fill="#000000" stroke="#000000" points="2532.1333,-251.1786 2528.908,-241.0867 2525.1359,-250.9873 2532.1333,-251.1786"/>
<text text-anchor="middle" x="2573" y="-349.8528" font-family="Times,serif" font-size="20.00" fill="#000000">[NA]</text>
<text text-anchor="middle" x="2573" y="-327.8528" font-family="Times,serif" font-size="20.00" fill="#000000">58 levels</text>
</g>
<!-- SG_1_Node_7 -->
<g id="node17" class="node">
<title>SG_1_Node_7</title>
<ellipse fill="none" stroke="#000000" cx="2273" cy="-37.2132" rx="34.7971" ry="21.4286"/>
<text text-anchor="middle" x="2273" y="-32.2132" font-family="Times,serif" font-size="20.00" fill="#000000">0.0</text>
</g>
<!-- SG_1_Node_3&#45;&gt;SG_1_Node_7 -->
<g id="edge15" class="edge">
<title>SG_1_Node_3&#45;&gt;SG_1_Node_7</title>
<path fill="none" stroke="#000000" d="M2308.9109,-201.57C2301.1134,-190.5814 2292.0113,-175.913 2287,-161.4264 2276.5088,-131.0989 2273.4665,-94.3625 2272.7682,-68.7404"/>
<polygon fill="#000000" stroke="#000000" points="2276.2636,-68.4313 2272.5975,-58.491 2269.2646,-68.5479 2276.2636,-68.4313"/>
<text text-anchor="middle" x="2319" y="-123.4264" font-family="Times,serif" font-size="20.00" fill="#000000">empty</text>
</g>
<!-- SG_1_Node_8 -->
<g id="node18" class="node">
<title>SG_1_Node_8</title>
<ellipse fill="none" stroke="#000000" cx="2373" cy="-37.2132" rx="34.7971" ry="21.4286"/>
<text text-anchor="middle" x="2373" y="-32.2132" font-family="Times,serif" font-size="20.00" fill="#000000">1.0</text>
</g>
<!-- SG_1_Node_3&#45;&gt;SG_1_Node_8 -->
<g id="edge16" class="edge">
<title>SG_1_Node_3&#45;&gt;SG_1_Node_8</title>
<path fill="none" stroke="#000000" d="M2333.2842,-201.5575C2339.2666,-190.3251 2346.493,-175.4093 2351,-161.4264 2360.8764,-130.7852 2366.6644,-94.377 2369.8027,-68.9281"/>
<polygon fill="#000000" stroke="#000000" points="2373.3087,-69.0791 2370.9897,-58.7412 2366.3558,-68.2689 2373.3087,-69.0791"/>
<text text-anchor="middle" x="2503" y="-145.4264" font-family="Times,serif" font-size="20.00" fill="#000000">[NA]</text>
<text text-anchor="middle" x="2503" y="-123.4264" font-family="Times,serif" font-size="20.00" fill="#000000">/</text>
<text text-anchor="middle" x="2503" y="-101.4264" font-family="Times,serif" font-size="20.00" fill="#000000">http://localhost:8000/echo/</text>
</g>
</g>
</svg>
