<?xml version="1.0" encoding="UTF-8" standalone="no"?>
<!DOCTYPE svg PUBLIC "-//W3C//DTD SVG 1.1//EN"
 "http://www.w3.org/Graphics/SVG/1.1/DTD/svg11.dtd">
<!-- Generated by graphviz version 2.40.1 (20161225.0304)
 -->
<!-- Title: G Pages: 1 -->
<svg width="1381pt" height="1773pt"
 viewBox="0.00 0.00 1381.00 1772.56" xmlns="http://www.w3.org/2000/svg" xmlns:xlink="http://www.w3.org/1999/xlink">
<g id="graph0" class="graph" transform="scale(1 1) rotate(0) translate(4 1768.5584)">
<title>G</title>
<polygon fill="#ffffff" stroke="transparent" points="-4,4 -4,-1768.5584 1377,-1768.5584 1377,4 -4,4"/>
<g id="clust1" class="cluster">
<title>cluster_0</title>
<polygon fill="none" stroke="#000000" points="8,-8 8,-1756.5584 661,-1756.5584 661,-8 8,-8"/>
<text text-anchor="middle" x="334.5" y="-1720.5584" font-family="Times,serif" font-size="40.00" fill="#000000">Tree 0, Class False</text>
</g>
<g id="clust10" class="cluster">
<title>cluster_1</title>
<polygon fill="none" stroke="#000000" points="669,-8 669,-1756.5584 1322,-1756.5584 1322,-8 669,-8"/>
<text text-anchor="middle" x="995.5" y="-1720.5584" font-family="Times,serif" font-size="40.00" fill="#000000">Tree 0, Class True</text>
</g>
<!-- SG_0_Node_0 -->
<g id="node1" class="node">
<title>SG_0_Node_0</title>
<polygon fill="none" stroke="#000000" points="468,-1696.5584 170,-1696.5584 170,-1660.5584 468,-1660.5584 468,-1696.5584"/>
<text text-anchor="middle" x="319" y="-1673.5584" font-family="Times,serif" font-size="20.00" fill="#000000">Cross&#45;Origin&#45;Opener&#45;Policy</text>
</g>
<!-- SG_0_Node_1 -->
<g id="node2" class="node">
<title>SG_0_Node_1</title>
<polygon fill="none" stroke="#000000" points="290,-1542.5584 148,-1542.5584 148,-1506.5584 290,-1506.5584 290,-1542.5584"/>
<text text-anchor="middle" x="219" y="-1519.5584" font-family="Times,serif" font-size="20.00" fill="#000000">Status&#45;Code</text>
</g>
<!-- SG_0_Node_0&#45;&gt;SG_0_Node_1 -->
<g id="edge1" class="edge">
<title>SG_0_Node_0&#45;&gt;SG_0_Node_1</title>
<path fill="none" stroke="#000000" d="M307.136,-1660.2879C289.6192,-1633.3121 256.7279,-1582.6594 236.456,-1551.4407"/>
<polygon fill="#000000" stroke="#000000" points="239.2301,-1549.286 230.8486,-1542.8052 233.3592,-1553.0983 239.2301,-1549.286"/>
<text text-anchor="middle" x="314" y="-1607.5584" font-family="Times,serif" font-size="20.00" fill="#000000">[NA]</text>
<text text-anchor="middle" x="314" y="-1585.5584" font-family="Times,serif" font-size="20.00" fill="#000000">empty</text>
</g>
<!-- SG_0_Node_2 -->
<g id="node3" class="node">
<title>SG_0_Node_2</title>
<polygon fill="none" stroke="#000000" points="490,-1542.5584 348,-1542.5584 348,-1506.5584 490,-1506.5584 490,-1542.5584"/>
<text text-anchor="middle" x="419" y="-1519.5584" font-family="Times,serif" font-size="20.00" fill="#000000">Status&#45;Code</text>
</g>
<!-- SG_0_Node_0&#45;&gt;SG_0_Node_2 -->
<g id="edge2" class="edge">
<title>SG_0_Node_0&#45;&gt;SG_0_Node_2</title>
<path fill="none" stroke="#000000" d="M330.864,-1660.2879C348.3808,-1633.3121 381.2721,-1582.6594 401.544,-1551.4407"/>
<polygon fill="#000000" stroke="#000000" points="404.6408,-1553.0983 407.1514,-1542.8052 398.7699,-1549.286 404.6408,-1553.0983"/>
<text text-anchor="middle" x="443" y="-1596.5584" font-family="Times,serif" font-size="20.00" fill="#000000">same&#45;origin</text>
</g>
<!-- SG_0_Node_10 -->
<g id="node4" class="node">
<title>SG_0_Node_10</title>
<ellipse fill="none" stroke="#000000" cx="56" cy="-1191.3452" rx="34.7971" ry="21.4286"/>
<text text-anchor="middle" x="56" y="-1186.3452" font-family="Times,serif" font-size="20.00" fill="#000000">0.0</text>
</g>
<!-- SG_0_Node_1&#45;&gt;SG_0_Node_10 -->
<g id="edge9" class="edge">
<title>SG_0_Node_1&#45;&gt;SG_0_Node_10</title>
<path fill="none" stroke="#000000" d="M170.3334,-1506.3176C153.0756,-1497.6143 134.9847,-1485.5405 123,-1469.5584 66.6945,-1394.4726 57.0036,-1278.7084 55.7915,-1223.1859"/>
<polygon fill="#000000" stroke="#000000" points="59.2875,-1222.8656 55.6508,-1212.9145 52.2882,-1222.9615 59.2875,-1222.8656"/>
<text text-anchor="middle" x="169" y="-1365.5584" font-family="Times,serif" font-size="20.00" fill="#000000">[NA]</text>
<text text-anchor="middle" x="169" y="-1343.5584" font-family="Times,serif" font-size="20.00" fill="#000000">52 levels</text>
</g>
<!-- SG_0_Node_3 -->
<g id="node5" class="node">
<title>SG_0_Node_3</title>
<polygon fill="none" stroke="#000000" points="329.5,-1209.3452 108.5,-1209.3452 108.5,-1173.3452 329.5,-1173.3452 329.5,-1209.3452"/>
<text text-anchor="middle" x="219" y="-1186.3452" font-family="Times,serif" font-size="20.00" fill="#000000">Content&#45;Disposition</text>
</g>
<!-- SG_0_Node_1&#45;&gt;SG_0_Node_3 -->
<g id="edge10" class="edge">
<title>SG_0_Node_1&#45;&gt;SG_0_Node_3</title>
<path fill="none" stroke="#000000" d="M219,-1506.1688C219,-1450.9835 219,-1286.5077 219,-1219.8631"/>
<polygon fill="#000000" stroke="#000000" points="222.5001,-1219.678 219,-1209.678 215.5001,-1219.6781 222.5001,-1219.678"/>
<text text-anchor="middle" x="238.5" y="-1453.5584" font-family="Times,serif" font-size="20.00" fill="#000000">200</text>
<text text-anchor="middle" x="238.5" y="-1431.5584" font-family="Times,serif" font-size="20.00" fill="#000000">201</text>
<text text-anchor="middle" x="238.5" y="-1409.5584" font-family="Times,serif" font-size="20.00" fill="#000000">202</text>
<text text-anchor="middle" x="238.5" y="-1387.5584" font-family="Times,serif" font-size="20.00" fill="#000000">203</text>
<text text-anchor="middle" x="238.5" y="-1365.5584" font-family="Times,serif" font-size="20.00" fill="#000000">204</text>
<text text-anchor="middle" x="238.5" y="-1343.5584" font-family="Times,serif" font-size="20.00" fill="#000000">205</text>
<text text-anchor="middle" x="238.5" y="-1321.5584" font-family="Times,serif" font-size="20.00" fill="#000000">206</text>
<text text-anchor="middle" x="238.5" y="-1299.5584" font-family="Times,serif" font-size="20.00" fill="#000000">207</text>
<text text-anchor="middle" x="238.5" y="-1277.5584" font-family="Times,serif" font-size="20.00" fill="#000000">208</text>
<text text-anchor="middle" x="238.5" y="-1255.5584" font-family="Times,serif" font-size="20.00" fill="#000000">226</text>
</g>
<!-- SG_0_Node_4 -->
<g id="node6" class="node">
<title>SG_0_Node_4</title>
<polygon fill="none" stroke="#000000" points="490,-1209.3452 348,-1209.3452 348,-1173.3452 490,-1173.3452 490,-1209.3452"/>
<text text-anchor="middle" x="419" y="-1186.3452" font-family="Times,serif" font-size="20.00" fill="#000000">Status&#45;Code</text>
</g>
<!-- SG_0_Node_2&#45;&gt;SG_0_Node_4 -->
<g id="edge3" class="edge">
<title>SG_0_Node_2&#45;&gt;SG_0_Node_4</title>
<path fill="none" stroke="#000000" d="M419,-1506.1688C419,-1450.9835 419,-1286.5077 419,-1219.8631"/>
<polygon fill="#000000" stroke="#000000" points="422.5001,-1219.678 419,-1209.678 415.5001,-1219.6781 422.5001,-1219.678"/>
<text text-anchor="middle" x="438.5" y="-1431.5584" font-family="Times,serif" font-size="20.00" fill="#000000">100</text>
<text text-anchor="middle" x="438.5" y="-1409.5584" font-family="Times,serif" font-size="20.00" fill="#000000">101</text>
<text text-anchor="middle" x="438.5" y="-1387.5584" font-family="Times,serif" font-size="20.00" fill="#000000">102</text>
<text text-anchor="middle" x="438.5" y="-1365.5584" font-family="Times,serif" font-size="20.00" fill="#000000">103</text>
<text text-anchor="middle" x="438.5" y="-1343.5584" font-family="Times,serif" font-size="20.00" fill="#000000">204</text>
<text text-anchor="middle" x="438.5" y="-1321.5584" font-family="Times,serif" font-size="20.00" fill="#000000">205</text>
<text text-anchor="middle" x="438.5" y="-1299.5584" font-family="Times,serif" font-size="20.00" fill="#000000">304</text>
<text text-anchor="middle" x="438.5" y="-1277.5584" font-family="Times,serif" font-size="20.00" fill="#000000">407</text>
</g>
<!-- SG_0_Node_11 -->
<g id="node7" class="node">
<title>SG_0_Node_11</title>
<ellipse fill="none" stroke="#000000" cx="543" cy="-1191.3452" rx="34.7971" ry="21.4286"/>
<text text-anchor="middle" x="543" y="-1186.3452" font-family="Times,serif" font-size="20.00" fill="#000000">1.0</text>
</g>
<!-- SG_0_Node_2&#45;&gt;SG_0_Node_11 -->
<g id="edge4" class="edge">
<title>SG_0_Node_2&#45;&gt;SG_0_Node_11</title>
<path fill="none" stroke="#000000" d="M436.0418,-1506.4388C444.8446,-1496.2568 455.1474,-1482.9347 462,-1469.5584 504.9172,-1385.7838 528.3693,-1275.8463 537.8835,-1222.7437"/>
<polygon fill="#000000" stroke="#000000" points="541.3815,-1223.0578 539.6532,-1212.6049 534.4858,-1221.8541 541.3815,-1223.0578"/>
<text text-anchor="middle" x="578" y="-1365.5584" font-family="Times,serif" font-size="20.00" fill="#000000">[NA]</text>
<text text-anchor="middle" x="578" y="-1343.5584" font-family="Times,serif" font-size="20.00" fill="#000000">54 levels</text>
</g>
<!-- SG_0_Node_5 -->
<g id="node8" class="node">
<title>SG_0_Node_5</title>
<polygon fill="none" stroke="#000000" points="180.5,-960.9188 25.5,-960.9188 25.5,-924.9188 180.5,-924.9188 180.5,-960.9188"/>
<text text-anchor="middle" x="103" y="-937.9188" font-family="Times,serif" font-size="20.00" fill="#000000">Content&#45;Type</text>
</g>
<!-- SG_0_Node_3&#45;&gt;SG_0_Node_5 -->
<g id="edge11" class="edge">
<title>SG_0_Node_3&#45;&gt;SG_0_Node_5</title>
<path fill="none" stroke="#000000" d="M192.1721,-1173.1349C178.8948,-1162.8354 163.6788,-1148.8765 154,-1133.132 122.2491,-1081.4833 110.0145,-1010.12 105.4934,-971.1362"/>
<polygon fill="#000000" stroke="#000000" points="108.9575,-970.6133 104.4129,-961.0426 101.9973,-971.3584 108.9575,-970.6133"/>
<text text-anchor="middle" x="186" y="-1073.132" font-family="Times,serif" font-size="20.00" fill="#000000">[NA]</text>
<text text-anchor="middle" x="186" y="-1051.132" font-family="Times,serif" font-size="20.00" fill="#000000">empty</text>
</g>
<!-- SG_0_Node_12 -->
<g id="node9" class="node">
<title>SG_0_Node_12</title>
<ellipse fill="none" stroke="#000000" cx="233" cy="-942.9188" rx="34.7971" ry="21.4286"/>
<text text-anchor="middle" x="233" y="-937.9188" font-family="Times,serif" font-size="20.00" fill="#000000">1.0</text>
</g>
<!-- SG_0_Node_3&#45;&gt;SG_0_Node_12 -->
<g id="edge12" class="edge">
<title>SG_0_Node_3&#45;&gt;SG_0_Node_12</title>
<path fill="none" stroke="#000000" d="M220.0295,-1173.0779C222.3984,-1131.0408 228.2595,-1027.0382 231.2233,-974.4463"/>
<polygon fill="#000000" stroke="#000000" points="234.7242,-974.5268 231.7925,-964.3457 227.7353,-974.1329 234.7242,-974.5268"/>
<text text-anchor="middle" x="288" y="-1062.132" font-family="Times,serif" font-size="20.00" fill="#000000">attachment</text>
</g>
<!-- SG_0_Node_13 -->
<g id="node10" class="node">
<title>SG_0_Node_13</title>
<ellipse fill="none" stroke="#000000" cx="337" cy="-942.9188" rx="34.7971" ry="21.4286"/>
<text text-anchor="middle" x="337" y="-937.9188" font-family="Times,serif" font-size="20.00" fill="#000000">0.0</text>
</g>
<!-- SG_0_Node_4&#45;&gt;SG_0_Node_13 -->
<g id="edge5" class="edge">
<title>SG_0_Node_4&#45;&gt;SG_0_Node_13</title>
<path fill="none" stroke="#000000" d="M412.9703,-1173.0779C399.0312,-1130.848 364.4506,-1026.0829 347.1687,-973.7259"/>
<polygon fill="#000000" stroke="#000000" points="350.4124,-972.3863 343.9542,-963.9873 343.7651,-974.5805 350.4124,-972.3863"/>
<text text-anchor="middle" x="418.5" y="-1117.132" font-family="Times,serif" font-size="20.00" fill="#000000">100</text>
<text text-anchor="middle" x="418.5" y="-1095.132" font-family="Times,serif" font-size="20.00" fill="#000000">101</text>
<text text-anchor="middle" x="418.5" y="-1073.132" font-family="Times,serif" font-size="20.00" fill="#000000">102</text>
<text text-anchor="middle" x="418.5" y="-1051.132" font-family="Times,serif" font-size="20.00" fill="#000000">103</text>
<text text-anchor="middle" x="418.5" y="-1029.132" font-family="Times,serif" font-size="20.00" fill="#000000">304</text>
<text text-anchor="middle" x="418.5" y="-1007.132" font-family="Times,serif" font-size="20.00" fill="#000000">407</text>
</g>
<!-- SG_0_Node_6 -->
<g id="node11" class="node">
<title>SG_0_Node_6</title>
<polygon fill="none" stroke="#000000" points="610.5,-960.9188 389.5,-960.9188 389.5,-924.9188 610.5,-924.9188 610.5,-960.9188"/>
<text text-anchor="middle" x="500" y="-937.9188" font-family="Times,serif" font-size="20.00" fill="#000000">Content&#45;Disposition</text>
</g>
<!-- SG_0_Node_4&#45;&gt;SG_0_Node_6 -->
<g id="edge6" class="edge">
<title>SG_0_Node_4&#45;&gt;SG_0_Node_6</title>
<path fill="none" stroke="#000000" d="M427.8572,-1173.2602C433.2239,-1161.9014 439.9796,-1146.8531 445,-1133.132 465.6415,-1076.7178 483.7307,-1008.6893 493.1338,-971.1899"/>
<polygon fill="#000000" stroke="#000000" points="496.6464,-971.5665 495.6586,-961.0178 489.8526,-969.8802 496.6464,-971.5665"/>
<text text-anchor="middle" x="504.5" y="-1073.132" font-family="Times,serif" font-size="20.00" fill="#000000">204</text>
<text text-anchor="middle" x="504.5" y="-1051.132" font-family="Times,serif" font-size="20.00" fill="#000000">205</text>
</g>
<!-- SG_0_Node_14 -->
<g id="node12" class="node">
<title>SG_0_Node_14</title>
<ellipse fill="none" stroke="#000000" cx="51" cy="-650.4924" rx="34.7971" ry="21.4286"/>
<text text-anchor="middle" x="51" y="-645.4924" font-family="Times,serif" font-size="20.00" fill="#000000">0.0</text>
</g>
<!-- SG_0_Node_5&#45;&gt;SG_0_Node_14 -->
<g id="edge13" class="edge">
<title>SG_0_Node_5&#45;&gt;SG_0_Node_14</title>
<path fill="none" stroke="#000000" d="M83.051,-924.7696C72.9081,-914.1928 61.5718,-899.9563 56,-884.7056 30.8155,-815.7731 38.65,-727.6524 45.4683,-681.6412"/>
<polygon fill="#000000" stroke="#000000" points="48.9381,-682.1056 47.027,-671.6846 42.0223,-681.0229 48.9381,-682.1056"/>
<text text-anchor="middle" x="167" y="-868.7056" font-family="Times,serif" font-size="20.00" fill="#000000">[NA]</text>
<text text-anchor="middle" x="167" y="-846.7056" font-family="Times,serif" font-size="20.00" fill="#000000">application/javascript</text>
<text text-anchor="middle" x="167" y="-824.7056" font-family="Times,serif" font-size="20.00" fill="#000000">application/pdf</text>
<text text-anchor="middle" x="167" y="-802.7056" font-family="Times,serif" font-size="20.00" fill="#000000">audio/wav</text>
<text text-anchor="middle" x="167" y="-780.7056" font-family="Times,serif" font-size="20.00" fill="#000000">image/png</text>
<text text-anchor="middle" x="167" y="-758.7056" font-family="Times,serif" font-size="20.00" fill="#000000">text/css</text>
<text text-anchor="middle" x="167" y="-736.7056" font-family="Times,serif" font-size="20.00" fill="#000000">text/html</text>
<text text-anchor="middle" x="167" y="-714.7056" font-family="Times,serif" font-size="20.00" fill="#000000">video/mp4</text>
</g>
<!-- SG_0_Node_7 -->
<g id="node13" class="node">
<title>SG_0_Node_7</title>
<polygon fill="none" stroke="#000000" points="194.5,-668.4924 129.5,-668.4924 129.5,-632.4924 194.5,-632.4924 194.5,-668.4924"/>
<text text-anchor="middle" x="162" y="-645.4924" font-family="Times,serif" font-size="20.00" fill="#000000">body</text>
</g>
<!-- SG_0_Node_5&#45;&gt;SG_0_Node_7 -->
<g id="edge14" class="edge">
<title>SG_0_Node_5&#45;&gt;SG_0_Node_7</title>
<path fill="none" stroke="#000000" d="M169.3415,-924.8862C215.9694,-911.5449 271.2105,-894.1195 278,-884.7056 323.7569,-821.2626 319.075,-775.2756 278,-708.7056 262.0003,-682.7749 230.5373,-667.996 204.4113,-659.8228"/>
<polygon fill="#000000" stroke="#000000" points="205.2823,-656.4312 194.7029,-657.0043 203.3306,-663.1536 205.2823,-656.4312"/>
<text text-anchor="middle" x="342" y="-791.7056" font-family="Times,serif" font-size="20.00" fill="#000000">empty</text>
</g>
<!-- SG_0_Node_15 -->
<g id="node14" class="node">
<title>SG_0_Node_15</title>
<ellipse fill="none" stroke="#000000" cx="417" cy="-650.4924" rx="34.7971" ry="21.4286"/>
<text text-anchor="middle" x="417" y="-645.4924" font-family="Times,serif" font-size="20.00" fill="#000000">0.0</text>
</g>
<!-- SG_0_Node_6&#45;&gt;SG_0_Node_15 -->
<g id="edge7" class="edge">
<title>SG_0_Node_6&#45;&gt;SG_0_Node_15</title>
<path fill="none" stroke="#000000" d="M471.2703,-924.8883C457.8321,-914.8159 443.0469,-901.0061 435,-884.7056 402.3415,-818.5498 406.8518,-728.9322 412.3077,-682.0496"/>
<polygon fill="#000000" stroke="#000000" points="415.8085,-682.2615 413.5828,-671.9031 408.8632,-681.3887 415.8085,-682.2615"/>
<text text-anchor="middle" x="467" y="-802.7056" font-family="Times,serif" font-size="20.00" fill="#000000">[NA]</text>
<text text-anchor="middle" x="467" y="-780.7056" font-family="Times,serif" font-size="20.00" fill="#000000">empty</text>
</g>
<!-- SG_0_Node_16 -->
<g id="node15" class="node">
<title>SG_0_Node_16</title>
<ellipse fill="none" stroke="#000000" cx="517" cy="-650.4924" rx="34.7971" ry="21.4286"/>
<text text-anchor="middle" x="517" y="-645.4924" font-family="Times,serif" font-size="20.00" fill="#000000">1.0</text>
</g>
<!-- SG_0_Node_6&#45;&gt;SG_0_Node_16 -->
<g id="edge8" class="edge">
<title>SG_0_Node_6&#45;&gt;SG_0_Node_16</title>
<path fill="none" stroke="#000000" d="M501.0634,-924.6262C503.8886,-876.0286 511.608,-743.244 515.163,-682.0909"/>
<polygon fill="#000000" stroke="#000000" points="518.6701,-682.0705 515.7564,-671.8842 511.6819,-681.6641 518.6701,-682.0705"/>
<text text-anchor="middle" x="572" y="-791.7056" font-family="Times,serif" font-size="20.00" fill="#000000">attachment</text>
</g>
<!-- SG_0_Node_17 -->
<g id="node16" class="node">
<title>SG_0_Node_17</title>
<ellipse fill="none" stroke="#000000" cx="51" cy="-490.066" rx="34.7971" ry="21.4286"/>
<text text-anchor="middle" x="51" y="-485.066" font-family="Times,serif" font-size="20.00" fill="#000000">0.0</text>
</g>
<!-- SG_0_Node_7&#45;&gt;SG_0_Node_17 -->
<g id="edge15" class="edge">
<title>SG_0_Node_7&#45;&gt;SG_0_Node_17</title>
<path fill="none" stroke="#000000" d="M129.1573,-639.4079C107.339,-630.2704 80.0339,-615.0665 65,-592.2792 51.3305,-571.56 48.3581,-543.3188 48.5071,-521.7717"/>
<polygon fill="#000000" stroke="#000000" points="52.0139,-521.5922 48.8134,-511.4924 45.017,-521.3837 52.0139,-521.5922"/>
<text text-anchor="middle" x="111" y="-576.2792" font-family="Times,serif" font-size="20.00" fill="#000000">[NA]</text>
<text text-anchor="middle" x="111" y="-554.2792" font-family="Times,serif" font-size="20.00" fill="#000000">11 levels</text>
</g>
<!-- SG_0_Node_8 -->
<g id="node17" class="node">
<title>SG_0_Node_8</title>
<polygon fill="none" stroke="#000000" points="366,-508.066 104,-508.066 104,-472.066 366,-472.066 366,-508.066"/>
<text text-anchor="middle" x="235" y="-485.066" font-family="Times,serif" font-size="20.00" fill="#000000">X&#45;Content&#45;Type&#45;Options</text>
</g>
<!-- SG_0_Node_7&#45;&gt;SG_0_Node_8 -->
<g id="edge16" class="edge">
<title>SG_0_Node_7&#45;&gt;SG_0_Node_8</title>
<path fill="none" stroke="#000000" d="M160.5447,-632.4627C159.6071,-611.1888 160.5185,-575.2982 174,-548.2792 180.354,-535.5448 190.6794,-524.087 201.0433,-514.7728"/>
<polygon fill="#000000" stroke="#000000" points="203.5604,-517.2268 208.9111,-508.0823 199.0257,-511.8941 203.5604,-517.2268"/>
<text text-anchor="middle" x="419.5" y="-576.2792" font-family="Times,serif" font-size="20.00" fill="#000000">ecocnt_audio=duration=1</text>
<text text-anchor="middle" x="419.5" y="-554.2792" font-family="Times,serif" font-size="20.00" fill="#000000">ecocnt_vid=width=100,height=100,duration=2</text>
</g>
<!-- SG_0_Node_18 -->
<g id="node18" class="node">
<title>SG_0_Node_18</title>
<ellipse fill="none" stroke="#000000" cx="175" cy="-329.6396" rx="34.7971" ry="21.4286"/>
<text text-anchor="middle" x="175" y="-324.6396" font-family="Times,serif" font-size="20.00" fill="#000000">0.0</text>
</g>
<!-- SG_0_Node_8&#45;&gt;SG_0_Node_18 -->
<g id="edge17" class="edge">
<title>SG_0_Node_8&#45;&gt;SG_0_Node_18</title>
<path fill="none" stroke="#000000" d="M221.0927,-471.8333C213.2755,-460.7887 203.9268,-446.1185 198,-431.8528 188.5513,-409.1098 182.6635,-381.8317 179.2131,-361.1777"/>
<polygon fill="#000000" stroke="#000000" points="182.6305,-360.3778 177.6249,-351.04 175.7149,-361.4612 182.6305,-360.3778"/>
<text text-anchor="middle" x="233" y="-404.8528" font-family="Times,serif" font-size="20.00" fill="#000000">nosniff</text>
</g>
<!-- SG_0_Node_9 -->
<g id="node19" class="node">
<title>SG_0_Node_9</title>
<polygon fill="none" stroke="#000000" points="370,-347.6396 228,-347.6396 228,-311.6396 370,-311.6396 370,-347.6396"/>
<text text-anchor="middle" x="299" y="-324.6396" font-family="Times,serif" font-size="20.00" fill="#000000">Status&#45;Code</text>
</g>
<!-- SG_0_Node_8&#45;&gt;SG_0_Node_9 -->
<g id="edge18" class="edge">
<title>SG_0_Node_8&#45;&gt;SG_0_Node_9</title>
<path fill="none" stroke="#000000" d="M246.6301,-471.9868C253.5016,-460.7556 262.0022,-445.8399 268,-431.8528 278.4405,-407.505 286.8825,-378.4999 292.3051,-357.6183"/>
<polygon fill="#000000" stroke="#000000" points="295.7315,-358.3447 294.79,-347.7917 288.9451,-356.6285 295.7315,-358.3447"/>
<text text-anchor="middle" x="315" y="-415.8528" font-family="Times,serif" font-size="20.00" fill="#000000">[NA]</text>
<text text-anchor="middle" x="315" y="-393.8528" font-family="Times,serif" font-size="20.00" fill="#000000">empty</text>
</g>
<!-- SG_0_Node_19 -->
<g id="node20" class="node">
<title>SG_0_Node_19</title>
<ellipse fill="none" stroke="#000000" cx="257" cy="-37.2132" rx="34.7971" ry="21.4286"/>
<text text-anchor="middle" x="257" y="-32.2132" font-family="Times,serif" font-size="20.00" fill="#000000">0.0</text>
</g>
<!-- SG_0_Node_9&#45;&gt;SG_0_Node_19 -->
<g id="edge19" class="edge">
<title>SG_0_Node_9&#45;&gt;SG_0_Node_19</title>
<path fill="none" stroke="#000000" d="M290.628,-311.4281C285.8211,-300.1485 280.1337,-285.2285 277,-271.4264 260.8137,-200.1343 257.4872,-113.9311 256.9488,-68.5944"/>
<polygon fill="#000000" stroke="#000000" points="260.448,-68.4788 256.8678,-58.5073 253.4483,-68.5351 260.448,-68.4788"/>
<text text-anchor="middle" x="296.5" y="-189.4264" font-family="Times,serif" font-size="20.00" fill="#000000">204</text>
<text text-anchor="middle" x="296.5" y="-167.4264" font-family="Times,serif" font-size="20.00" fill="#000000">205</text>
</g>
<!-- SG_0_Node_20 -->
<g id="node21" class="node">
<title>SG_0_Node_20</title>
<ellipse fill="none" stroke="#000000" cx="344" cy="-37.2132" rx="34.7971" ry="21.4286"/>
<text text-anchor="middle" x="344" y="-32.2132" font-family="Times,serif" font-size="20.00" fill="#000000">1.0</text>
</g>
<!-- SG_0_Node_9&#45;&gt;SG_0_Node_20 -->
<g id="edge20" class="edge">
<title>SG_0_Node_9&#45;&gt;SG_0_Node_20</title>
<path fill="none" stroke="#000000" d="M305.1434,-311.4809C308.7849,-300.0944 313.2177,-285.0428 316,-271.4264 330.6484,-199.7372 338.4888,-114.0252 341.8888,-68.7875"/>
<polygon fill="#000000" stroke="#000000" points="345.3866,-68.9438 342.6222,-58.716 338.4051,-68.4354 345.3866,-68.9438"/>
<text text-anchor="middle" x="358.5" y="-255.4264" font-family="Times,serif" font-size="20.00" fill="#000000">200</text>
<text text-anchor="middle" x="358.5" y="-233.4264" font-family="Times,serif" font-size="20.00" fill="#000000">201</text>
<text text-anchor="middle" x="358.5" y="-211.4264" font-family="Times,serif" font-size="20.00" fill="#000000">202</text>
<text text-anchor="middle" x="358.5" y="-189.4264" font-family="Times,serif" font-size="20.00" fill="#000000">203</text>
<text text-anchor="middle" x="358.5" y="-167.4264" font-family="Times,serif" font-size="20.00" fill="#000000">206</text>
<text text-anchor="middle" x="358.5" y="-145.4264" font-family="Times,serif" font-size="20.00" fill="#000000">207</text>
<text text-anchor="middle" x="358.5" y="-123.4264" font-family="Times,serif" font-size="20.00" fill="#000000">208</text>
<text text-anchor="middle" x="358.5" y="-101.4264" font-family="Times,serif" font-size="20.00" fill="#000000">226</text>
</g>
<!-- SG_1_Node_0 -->
<g id="node22" class="node">
<title>SG_1_Node_0</title>
<polygon fill="none" stroke="#000000" points="1119,-1696.5584 821,-1696.5584 821,-1660.5584 1119,-1660.5584 1119,-1696.5584"/>
<text text-anchor="middle" x="970" y="-1673.5584" font-family="Times,serif" font-size="20.00" fill="#000000">Cross&#45;Origin&#45;Opener&#45;Policy</text>
</g>
<!-- SG_1_Node_1 -->
<g id="node23" class="node">
<title>SG_1_Node_1</title>
<polygon fill="none" stroke="#000000" points="942,-1542.5584 800,-1542.5584 800,-1506.5584 942,-1506.5584 942,-1542.5584"/>
<text text-anchor="middle" x="871" y="-1519.5584" font-family="Times,serif" font-size="20.00" fill="#000000">Status&#45;Code</text>
</g>
<!-- SG_1_Node_0&#45;&gt;SG_1_Node_1 -->
<g id="edge21" class="edge">
<title>SG_1_Node_0&#45;&gt;SG_1_Node_1</title>
<path fill="none" stroke="#000000" d="M948.5037,-1660.5345C937.4674,-1650.4815 924.4033,-1637.25 915,-1623.5584 899.7181,-1601.3076 887.7422,-1572.8909 880.1683,-1552.2146"/>
<polygon fill="#000000" stroke="#000000" points="883.4515,-1551.0009 876.8086,-1542.7472 876.8545,-1553.3419 883.4515,-1551.0009"/>
<text text-anchor="middle" x="976" y="-1596.5584" font-family="Times,serif" font-size="20.00" fill="#000000">same&#45;origin</text>
</g>
<!-- SG_1_Node_2 -->
<g id="node24" class="node">
<title>SG_1_Node_2</title>
<polygon fill="none" stroke="#000000" points="1140,-1542.5584 998,-1542.5584 998,-1506.5584 1140,-1506.5584 1140,-1542.5584"/>
<text text-anchor="middle" x="1069" y="-1519.5584" font-family="Times,serif" font-size="20.00" fill="#000000">Status&#45;Code</text>
</g>
<!-- SG_1_Node_0&#45;&gt;SG_1_Node_2 -->
<g id="edge22" class="edge">
<title>SG_1_Node_0&#45;&gt;SG_1_Node_2</title>
<path fill="none" stroke="#000000" d="M999.0398,-1660.3924C1012.2398,-1650.8489 1027.0866,-1638.1101 1037,-1623.5584 1051.6161,-1602.104 1059.9067,-1573.5367 1064.3675,-1552.6047"/>
<polygon fill="#000000" stroke="#000000" points="1067.8158,-1553.2079 1066.3125,-1542.7203 1060.9475,-1551.8563 1067.8158,-1553.2079"/>
<text text-anchor="middle" x="1088" y="-1607.5584" font-family="Times,serif" font-size="20.00" fill="#000000">[NA]</text>
<text text-anchor="middle" x="1088" y="-1585.5584" font-family="Times,serif" font-size="20.00" fill="#000000">empty</text>
</g>
<!-- SG_1_Node_10 -->
<g id="node25" class="node">
<title>SG_1_Node_10</title>
<ellipse fill="none" stroke="#000000" cx="743" cy="-1191.3452" rx="34.7971" ry="21.4286"/>
<text text-anchor="middle" x="743" y="-1186.3452" font-family="Times,serif" font-size="20.00" fill="#000000">0.0</text>
</g>
<!-- SG_1_Node_1&#45;&gt;SG_1_Node_10 -->
<g id="edge35" class="edge">
<title>SG_1_Node_1&#45;&gt;SG_1_Node_10</title>
<path fill="none" stroke="#000000" d="M818.4076,-1506.4462C801.2252,-1497.9153 783.8012,-1485.923 773,-1469.5584 722.4461,-1392.9655 730.1656,-1277.9185 737.6844,-1222.8753"/>
<polygon fill="#000000" stroke="#000000" points="741.1891,-1223.0962 739.1682,-1212.6959 734.2623,-1222.0865 741.1891,-1223.0962"/>
<text text-anchor="middle" x="819" y="-1365.5584" font-family="Times,serif" font-size="20.00" fill="#000000">[NA]</text>
<text text-anchor="middle" x="819" y="-1343.5584" font-family="Times,serif" font-size="20.00" fill="#000000">54 levels</text>
</g>
<!-- SG_1_Node_3 -->
<g id="node26" class="node">
<title>SG_1_Node_3</title>
<polygon fill="none" stroke="#000000" points="940,-1209.3452 798,-1209.3452 798,-1173.3452 940,-1173.3452 940,-1209.3452"/>
<text text-anchor="middle" x="869" y="-1186.3452" font-family="Times,serif" font-size="20.00" fill="#000000">Status&#45;Code</text>
</g>
<!-- SG_1_Node_1&#45;&gt;SG_1_Node_3 -->
<g id="edge36" class="edge">
<title>SG_1_Node_1&#45;&gt;SG_1_Node_3</title>
<path fill="none" stroke="#000000" d="M870.8896,-1506.1688C870.5584,-1450.9835 869.5712,-1286.5077 869.1712,-1219.8631"/>
<polygon fill="#000000" stroke="#000000" points="872.6701,-1219.6568 869.11,-1209.678 865.6702,-1219.6989 872.6701,-1219.6568"/>
<text text-anchor="middle" x="889.5" y="-1431.5584" font-family="Times,serif" font-size="20.00" fill="#000000">100</text>
<text text-anchor="middle" x="889.5" y="-1409.5584" font-family="Times,serif" font-size="20.00" fill="#000000">101</text>
<text text-anchor="middle" x="889.5" y="-1387.5584" font-family="Times,serif" font-size="20.00" fill="#000000">102</text>
<text text-anchor="middle" x="889.5" y="-1365.5584" font-family="Times,serif" font-size="20.00" fill="#000000">103</text>
<text text-anchor="middle" x="889.5" y="-1343.5584" font-family="Times,serif" font-size="20.00" fill="#000000">204</text>
<text text-anchor="middle" x="889.5" y="-1321.5584" font-family="Times,serif" font-size="20.00" fill="#000000">205</text>
<text text-anchor="middle" x="889.5" y="-1299.5584" font-family="Times,serif" font-size="20.00" fill="#000000">304</text>
<text text-anchor="middle" x="889.5" y="-1277.5584" font-family="Times,serif" font-size="20.00" fill="#000000">407</text>
</g>
<!-- SG_1_Node_4 -->
<g id="node27" class="node">
<title>SG_1_Node_4</title>
<polygon fill="none" stroke="#000000" points="1179.5,-1209.3452 958.5,-1209.3452 958.5,-1173.3452 1179.5,-1173.3452 1179.5,-1209.3452"/>
<text text-anchor="middle" x="1069" y="-1186.3452" font-family="Times,serif" font-size="20.00" fill="#000000">Content&#45;Disposition</text>
</g>
<!-- SG_1_Node_2&#45;&gt;SG_1_Node_4 -->
<g id="edge23" class="edge">
<title>SG_1_Node_2&#45;&gt;SG_1_Node_4</title>
<path fill="none" stroke="#000000" d="M1069,-1506.1688C1069,-1450.9835 1069,-1286.5077 1069,-1219.8631"/>
<polygon fill="#000000" stroke="#000000" points="1072.5001,-1219.678 1069,-1209.678 1065.5001,-1219.6781 1072.5001,-1219.678"/>
<text text-anchor="middle" x="1088.5" y="-1453.5584" font-family="Times,serif" font-size="20.00" fill="#000000">200</text>
<text text-anchor="middle" x="1088.5" y="-1431.5584" font-family="Times,serif" font-size="20.00" fill="#000000">201</text>
<text text-anchor="middle" x="1088.5" y="-1409.5584" font-family="Times,serif" font-size="20.00" fill="#000000">202</text>
<text text-anchor="middle" x="1088.5" y="-1387.5584" font-family="Times,serif" font-size="20.00" fill="#000000">203</text>
<text text-anchor="middle" x="1088.5" y="-1365.5584" font-family="Times,serif" font-size="20.00" fill="#000000">204</text>
<text text-anchor="middle" x="1088.5" y="-1343.5584" font-family="Times,serif" font-size="20.00" fill="#000000">205</text>
<text text-anchor="middle" x="1088.5" y="-1321.5584" font-family="Times,serif" font-size="20.00" fill="#000000">206</text>
<text text-anchor="middle" x="1088.5" y="-1299.5584" font-family="Times,serif" font-size="20.00" fill="#000000">207</text>
<text text-anchor="middle" x="1088.5" y="-1277.5584" font-family="Times,serif" font-size="20.00" fill="#000000">208</text>
<text text-anchor="middle" x="1088.5" y="-1255.5584" font-family="Times,serif" font-size="20.00" fill="#000000">226</text>
</g>
<!-- SG_1_Node_11 -->
<g id="node28" class="node">
<title>SG_1_Node_11</title>
<ellipse fill="none" stroke="#000000" cx="1232" cy="-1191.3452" rx="34.7971" ry="21.4286"/>
<text text-anchor="middle" x="1232" y="-1186.3452" font-family="Times,serif" font-size="20.00" fill="#000000">1.0</text>
</g>
<!-- SG_1_Node_2&#45;&gt;SG_1_Node_11 -->
<g id="edge24" class="edge">
<title>SG_1_Node_2&#45;&gt;SG_1_Node_11</title>
<path fill="none" stroke="#000000" d="M1085.3918,-1506.08C1094.0042,-1495.7928 1104.3324,-1482.4848 1112,-1469.5584 1162.318,-1384.7301 1203.301,-1274.9168 1221.6306,-1222.2231"/>
<polygon fill="#000000" stroke="#000000" points="1225.0424,-1223.065 1224.9906,-1212.4703 1218.4242,-1220.7849 1225.0424,-1223.065"/>
<text text-anchor="middle" x="1257" y="-1365.5584" font-family="Times,serif" font-size="20.00" fill="#000000">[NA]</text>
<text text-anchor="middle" x="1257" y="-1343.5584" font-family="Times,serif" font-size="20.00" fill="#000000">52 levels</text>
</g>
<!-- SG_1_Node_5 -->
<g id="node29" class="node">
<title>SG_1_Node_5</title>
<polygon fill="none" stroke="#000000" points="897.5,-960.9188 676.5,-960.9188 676.5,-924.9188 897.5,-924.9188 897.5,-960.9188"/>
<text text-anchor="middle" x="787" y="-937.9188" font-family="Times,serif" font-size="20.00" fill="#000000">Content&#45;Disposition</text>
</g>
<!-- SG_1_Node_3&#45;&gt;SG_1_Node_5 -->
<g id="edge37" class="edge">
<title>SG_1_Node_3&#45;&gt;SG_1_Node_5</title>
<path fill="none" stroke="#000000" d="M860.9829,-1173.1658C856.0888,-1161.7714 849.8598,-1146.7189 845,-1133.132 824.5939,-1076.0817 804.908,-1007.8574 794.5451,-970.5918"/>
<polygon fill="#000000" stroke="#000000" points="797.9142,-969.6432 791.8766,-960.937 791.1672,-971.5081 797.9142,-969.6432"/>
<text text-anchor="middle" x="864.5" y="-1073.132" font-family="Times,serif" font-size="20.00" fill="#000000">204</text>
<text text-anchor="middle" x="864.5" y="-1051.132" font-family="Times,serif" font-size="20.00" fill="#000000">205</text>
</g>
<!-- SG_1_Node_12 -->
<g id="node30" class="node">
<title>SG_1_Node_12</title>
<ellipse fill="none" stroke="#000000" cx="950" cy="-942.9188" rx="34.7971" ry="21.4286"/>
<text text-anchor="middle" x="950" y="-937.9188" font-family="Times,serif" font-size="20.00" fill="#000000">1.0</text>
</g>
<!-- SG_1_Node_3&#45;&gt;SG_1_Node_12 -->
<g id="edge38" class="edge">
<title>SG_1_Node_3&#45;&gt;SG_1_Node_12</title>
<path fill="none" stroke="#000000" d="M874.9561,-1173.0779C888.7253,-1130.848 922.8842,-1026.0829 939.9553,-973.7259"/>
<polygon fill="#000000" stroke="#000000" points="943.3582,-974.5797 943.1306,-963.9873 936.703,-972.4098 943.3582,-974.5797"/>
<text text-anchor="middle" x="949.5" y="-1117.132" font-family="Times,serif" font-size="20.00" fill="#000000">100</text>
<text text-anchor="middle" x="949.5" y="-1095.132" font-family="Times,serif" font-size="20.00" fill="#000000">101</text>
<text text-anchor="middle" x="949.5" y="-1073.132" font-family="Times,serif" font-size="20.00" fill="#000000">102</text>
<text text-anchor="middle" x="949.5" y="-1051.132" font-family="Times,serif" font-size="20.00" fill="#000000">103</text>
<text text-anchor="middle" x="949.5" y="-1029.132" font-family="Times,serif" font-size="20.00" fill="#000000">304</text>
<text text-anchor="middle" x="949.5" y="-1007.132" font-family="Times,serif" font-size="20.00" fill="#000000">407</text>
</g>
<!-- SG_1_Node_13 -->
<g id="node31" class="node">
<title>SG_1_Node_13</title>
<ellipse fill="none" stroke="#000000" cx="1037" cy="-942.9188" rx="34.7971" ry="21.4286"/>
<text text-anchor="middle" x="1037" y="-937.9188" font-family="Times,serif" font-size="20.00" fill="#000000">0.0</text>
</g>
<!-- SG_1_Node_4&#45;&gt;SG_1_Node_13 -->
<g id="edge25" class="edge">
<title>SG_1_Node_4&#45;&gt;SG_1_Node_13</title>
<path fill="none" stroke="#000000" d="M1056.7833,-1173.09C1050.1217,-1162.0376 1042.5316,-1147.3672 1039,-1133.132 1025.4438,-1078.49 1029.0551,-1012.2741 1032.9812,-974.1288"/>
<polygon fill="#000000" stroke="#000000" points="1036.4646,-974.4708 1034.0829,-964.1471 1029.5069,-973.7028 1036.4646,-974.4708"/>
<text text-anchor="middle" x="1098" y="-1062.132" font-family="Times,serif" font-size="20.00" fill="#000000">attachment</text>
</g>
<!-- SG_1_Node_6 -->
<g id="node32" class="node">
<title>SG_1_Node_6</title>
<polygon fill="none" stroke="#000000" points="1244.5,-960.9188 1089.5,-960.9188 1089.5,-924.9188 1244.5,-924.9188 1244.5,-960.9188"/>
<text text-anchor="middle" x="1167" y="-937.9188" font-family="Times,serif" font-size="20.00" fill="#000000">Content&#45;Type</text>
</g>
<!-- SG_1_Node_4&#45;&gt;SG_1_Node_6 -->
<g id="edge26" class="edge">
<title>SG_1_Node_4&#45;&gt;SG_1_Node_6</title>
<path fill="none" stroke="#000000" d="M1112.46,-1173.2076C1129.3435,-1163.8318 1146.9976,-1150.624 1157,-1133.132 1186.1712,-1082.1181 1179.6616,-1010.2707 1172.9515,-971.0958"/>
<polygon fill="#000000" stroke="#000000" points="1176.38,-970.3873 1171.1282,-961.1858 1169.4956,-971.6541 1176.38,-970.3873"/>
<text text-anchor="middle" x="1210" y="-1073.132" font-family="Times,serif" font-size="20.00" fill="#000000">[NA]</text>
<text text-anchor="middle" x="1210" y="-1051.132" font-family="Times,serif" font-size="20.00" fill="#000000">empty</text>
</g>
<!-- SG_1_Node_14 -->
<g id="node33" class="node">
<title>SG_1_Node_14</title>
<ellipse fill="none" stroke="#000000" cx="725" cy="-650.4924" rx="34.7971" ry="21.4286"/>
<text text-anchor="middle" x="725" y="-645.4924" font-family="Times,serif" font-size="20.00" fill="#000000">0.0</text>
</g>
<!-- SG_1_Node_5&#45;&gt;SG_1_Node_14 -->
<g id="edge39" class="edge">
<title>SG_1_Node_5&#45;&gt;SG_1_Node_14</title>
<path fill="none" stroke="#000000" d="M766.8631,-924.7598C756.576,-914.1801 744.9915,-899.9439 739,-884.7056 712.1038,-816.3 716.1681,-727.9635 720.9101,-681.7789"/>
<polygon fill="#000000" stroke="#000000" points="724.395,-682.1072 722.0162,-671.7829 717.4375,-681.3372 724.395,-682.1072"/>
<text text-anchor="middle" x="798" y="-791.7056" font-family="Times,serif" font-size="20.00" fill="#000000">attachment</text>
</g>
<!-- SG_1_Node_15 -->
<g id="node34" class="node">
<title>SG_1_Node_15</title>
<ellipse fill="none" stroke="#000000" cx="879" cy="-650.4924" rx="34.7971" ry="21.4286"/>
<text text-anchor="middle" x="879" y="-645.4924" font-family="Times,serif" font-size="20.00" fill="#000000">1.0</text>
</g>
<!-- SG_1_Node_5&#45;&gt;SG_1_Node_15 -->
<g id="edge40" class="edge">
<title>SG_1_Node_5&#45;&gt;SG_1_Node_15</title>
<path fill="none" stroke="#000000" d="M818.5077,-924.7898C832.7465,-914.8596 848.2987,-901.2026 857,-884.7056 891.5579,-819.1866 888.1912,-728.9426 883.2916,-681.8955"/>
<polygon fill="#000000" stroke="#000000" points="886.7421,-681.2608 882.1359,-671.7197 879.7868,-682.0508 886.7421,-681.2608"/>
<text text-anchor="middle" x="918" y="-802.7056" font-family="Times,serif" font-size="20.00" fill="#000000">[NA]</text>
<text text-anchor="middle" x="918" y="-780.7056" font-family="Times,serif" font-size="20.00" fill="#000000">empty</text>
</g>
<!-- SG_1_Node_7 -->
<g id="node35" class="node">
<title>SG_1_Node_7</title>
<polygon fill="none" stroke="#000000" points="1024.5,-668.4924 959.5,-668.4924 959.5,-632.4924 1024.5,-632.4924 1024.5,-668.4924"/>
<text text-anchor="middle" x="992" y="-645.4924" font-family="Times,serif" font-size="20.00" fill="#000000">body</text>
</g>
<!-- SG_1_Node_6&#45;&gt;SG_1_Node_7 -->
<g id="edge27" class="edge">
<title>SG_1_Node_6&#45;&gt;SG_1_Node_7</title>
<path fill="none" stroke="#000000" d="M1097.2438,-924.9081C1075.6664,-916.1011 1053.7236,-903.2518 1039,-884.7056 990.6754,-823.8349 987.9154,-726.5729 989.9061,-678.819"/>
<polygon fill="#000000" stroke="#000000" points="993.4133,-678.7701 990.4385,-668.6015 986.4228,-678.4058 993.4133,-678.7701"/>
<text text-anchor="middle" x="1071" y="-791.7056" font-family="Times,serif" font-size="20.00" fill="#000000">empty</text>
</g>
<!-- SG_1_Node_16 -->
<g id="node36" class="node">
<title>SG_1_Node_16</title>
<ellipse fill="none" stroke="#000000" cx="1092" cy="-650.4924" rx="34.7971" ry="21.4286"/>
<text text-anchor="middle" x="1092" y="-645.4924" font-family="Times,serif" font-size="20.00" fill="#000000">1.0</text>
</g>
<!-- SG_1_Node_6&#45;&gt;SG_1_Node_16 -->
<g id="edge28" class="edge">
<title>SG_1_Node_6&#45;&gt;SG_1_Node_16</title>
<path fill="none" stroke="#000000" d="M1162.3084,-924.6262C1149.7882,-875.8098 1115.4813,-742.0465 1099.8935,-681.2692"/>
<polygon fill="#000000" stroke="#000000" points="1103.2586,-680.3014 1097.3839,-671.4845 1096.4781,-682.0405 1103.2586,-680.3014"/>
<text text-anchor="middle" x="1262" y="-868.7056" font-family="Times,serif" font-size="20.00" fill="#000000">[NA]</text>
<text text-anchor="middle" x="1262" y="-846.7056" font-family="Times,serif" font-size="20.00" fill="#000000">application/javascript</text>
<text text-anchor="middle" x="1262" y="-824.7056" font-family="Times,serif" font-size="20.00" fill="#000000">application/pdf</text>
<text text-anchor="middle" x="1262" y="-802.7056" font-family="Times,serif" font-size="20.00" fill="#000000">audio/wav</text>
<text text-anchor="middle" x="1262" y="-780.7056" font-family="Times,serif" font-size="20.00" fill="#000000">image/png</text>
<text text-anchor="middle" x="1262" y="-758.7056" font-family="Times,serif" font-size="20.00" fill="#000000">text/css</text>
<text text-anchor="middle" x="1262" y="-736.7056" font-family="Times,serif" font-size="20.00" fill="#000000">text/html</text>
<text text-anchor="middle" x="1262" y="-714.7056" font-family="Times,serif" font-size="20.00" fill="#000000">video/mp4</text>
</g>
<!-- SG_1_Node_8 -->
<g id="node37" class="node">
<title>SG_1_Node_8</title>
<polygon fill="none" stroke="#000000" points="939,-508.066 677,-508.066 677,-472.066 939,-472.066 939,-508.066"/>
<text text-anchor="middle" x="808" y="-485.066" font-family="Times,serif" font-size="20.00" fill="#000000">X&#45;Content&#45;Type&#45;Options</text>
</g>
<!-- SG_1_Node_7&#45;&gt;SG_1_Node_8 -->
<g id="edge29" class="edge">
<title>SG_1_Node_7&#45;&gt;SG_1_Node_8</title>
<path fill="none" stroke="#000000" d="M959.2435,-639.4896C947.8563,-635.914 934.945,-632.1358 923,-629.2792 876.0624,-618.0544 740.0831,-629.1977 709,-592.2792 696.405,-577.3197 699.2897,-565.2536 709,-548.2792 717.6487,-533.1607 731.9224,-521.5817 746.9753,-512.887"/>
<polygon fill="#000000" stroke="#000000" points="748.7394,-515.9125 755.8916,-508.0961 745.4261,-509.7462 748.7394,-515.9125"/>
<text text-anchor="middle" x="954.5" y="-576.2792" font-family="Times,serif" font-size="20.00" fill="#000000">ecocnt_audio=duration=1</text>
<text text-anchor="middle" x="954.5" y="-554.2792" font-family="Times,serif" font-size="20.00" fill="#000000">ecocnt_vid=width=100,height=100,duration=2</text>
</g>
<!-- SG_1_Node_17 -->
<g id="node38" class="node">
<title>SG_1_Node_17</title>
<ellipse fill="none" stroke="#000000" cx="1222" cy="-490.066" rx="34.7971" ry="21.4286"/>
<text text-anchor="middle" x="1222" y="-485.066" font-family="Times,serif" font-size="20.00" fill="#000000">1.0</text>
</g>
<!-- SG_1_Node_7&#45;&gt;SG_1_Node_17 -->
<g id="edge30" class="edge">
<title>SG_1_Node_7&#45;&gt;SG_1_Node_17</title>
<path fill="none" stroke="#000000" d="M1024.6334,-637.3569C1032.2404,-634.5114 1040.3534,-631.6483 1048,-629.2792 1114.4138,-608.703 1151.4987,-642.0969 1200,-592.2792 1218.0363,-573.7534 1222.8124,-544.199 1223.5007,-521.6243"/>
<polygon fill="#000000" stroke="#000000" points="1227.0013,-521.5147 1223.5566,-511.4955 1220.0014,-521.476 1227.0013,-521.5147"/>
<text text-anchor="middle" x="1266" y="-576.2792" font-family="Times,serif" font-size="20.00" fill="#000000">[NA]</text>
<text text-anchor="middle" x="1266" y="-554.2792" font-family="Times,serif" font-size="20.00" fill="#000000">11 levels</text>
</g>
<!-- SG_1_Node_9 -->
<g id="node39" class="node">
<title>SG_1_Node_9</title>
<polygon fill="none" stroke="#000000" points="838,-347.6396 696,-347.6396 696,-311.6396 838,-311.6396 838,-347.6396"/>
<text text-anchor="middle" x="767" y="-324.6396" font-family="Times,serif" font-size="20.00" fill="#000000">Status&#45;Code</text>
</g>
<!-- SG_1_Node_8&#45;&gt;SG_1_Node_9 -->
<g id="edge31" class="edge">
<title>SG_1_Node_8&#45;&gt;SG_1_Node_9</title>
<path fill="none" stroke="#000000" d="M803.3765,-471.9749C796.2711,-444.1727 782.6091,-390.7154 774.2002,-357.8126"/>
<polygon fill="#000000" stroke="#000000" points="777.5367,-356.7327 771.6695,-347.9107 770.7547,-358.466 777.5367,-356.7327"/>
<text text-anchor="middle" x="824" y="-415.8528" font-family="Times,serif" font-size="20.00" fill="#000000">[NA]</text>
<text text-anchor="middle" x="824" y="-393.8528" font-family="Times,serif" font-size="20.00" fill="#000000">empty</text>
</g>
<!-- SG_1_Node_18 -->
<g id="node40" class="node">
<title>SG_1_Node_18</title>
<ellipse fill="none" stroke="#000000" cx="891" cy="-329.6396" rx="34.7971" ry="21.4286"/>
<text text-anchor="middle" x="891" y="-324.6396" font-family="Times,serif" font-size="20.00" fill="#000000">1.0</text>
</g>
<!-- SG_1_Node_8&#45;&gt;SG_1_Node_18 -->
<g id="edge32" class="edge">
<title>SG_1_Node_8&#45;&gt;SG_1_Node_18</title>
<path fill="none" stroke="#000000" d="M827.8843,-472.0488C838.7081,-461.3021 851.5716,-446.8581 860,-431.8528 872.43,-409.7233 880.4301,-382.038 885.184,-361.0641"/>
<polygon fill="#000000" stroke="#000000" points="888.6532,-361.5781 887.3213,-351.0673 881.8078,-360.1146 888.6532,-361.5781"/>
<text text-anchor="middle" x="912" y="-404.8528" font-family="Times,serif" font-size="20.00" fill="#000000">nosniff</text>
</g>
<!-- SG_1_Node_19 -->
<g id="node41" class="node">
<title>SG_1_Node_19</title>
<ellipse fill="none" stroke="#000000" cx="739" cy="-37.2132" rx="34.7971" ry="21.4286"/>
<text text-anchor="middle" x="739" y="-32.2132" font-family="Times,serif" font-size="20.00" fill="#000000">0.0</text>
</g>
<!-- SG_1_Node_9&#45;&gt;SG_1_Node_19 -->
<g id="edge33" class="edge">
<title>SG_1_Node_9&#45;&gt;SG_1_Node_19</title>
<path fill="none" stroke="#000000" d="M765.2485,-311.347C760.5952,-262.7494 747.881,-129.9648 742.0256,-68.8117"/>
<polygon fill="#000000" stroke="#000000" points="745.4856,-68.2258 741.0483,-58.6049 738.5174,-68.893 745.4856,-68.2258"/>
<text text-anchor="middle" x="780.5" y="-255.4264" font-family="Times,serif" font-size="20.00" fill="#000000">200</text>
<text text-anchor="middle" x="780.5" y="-233.4264" font-family="Times,serif" font-size="20.00" fill="#000000">201</text>
<text text-anchor="middle" x="780.5" y="-211.4264" font-family="Times,serif" font-size="20.00" fill="#000000">202</text>
<text text-anchor="middle" x="780.5" y="-189.4264" font-family="Times,serif" font-size="20.00" fill="#000000">203</text>
<text text-anchor="middle" x="780.5" y="-167.4264" font-family="Times,serif" font-size="20.00" fill="#000000">206</text>
<text text-anchor="middle" x="780.5" y="-145.4264" font-family="Times,serif" font-size="20.00" fill="#000000">207</text>
<text text-anchor="middle" x="780.5" y="-123.4264" font-family="Times,serif" font-size="20.00" fill="#000000">208</text>
<text text-anchor="middle" x="780.5" y="-101.4264" font-family="Times,serif" font-size="20.00" fill="#000000">226</text>
</g>
<!-- SG_1_Node_20 -->
<g id="node42" class="node">
<title>SG_1_Node_20</title>
<ellipse fill="none" stroke="#000000" cx="826" cy="-37.2132" rx="34.7971" ry="21.4286"/>
<text text-anchor="middle" x="826" y="-32.2132" font-family="Times,serif" font-size="20.00" fill="#000000">1.0</text>
</g>
<!-- SG_1_Node_9&#45;&gt;SG_1_Node_20 -->
<g id="edge34" class="edge">
<title>SG_1_Node_9&#45;&gt;SG_1_Node_20</title>
<path fill="none" stroke="#000000" d="M780.3209,-311.4644C787.6903,-300.4396 796.2868,-285.77 801,-271.4264 823.9272,-201.6523 826.9894,-114.5014 826.7751,-68.6985"/>
<polygon fill="#000000" stroke="#000000" points="830.2731,-68.4731 826.669,-58.5101 823.2734,-68.5461 830.2731,-68.4731"/>
<text text-anchor="middle" x="845.5" y="-189.4264" font-family="Times,serif" font-size="20.00" fill="#000000">204</text>
<text text-anchor="middle" x="845.5" y="-167.4264" font-family="Times,serif" font-size="20.00" fill="#000000">205</text>
</g>
</g>
</svg>
