<?xml version="1.0" encoding="UTF-8" standalone="no"?>
<!DOCTYPE svg PUBLIC "-//W3C//DTD SVG 1.1//EN"
 "http://www.w3.org/Graphics/SVG/1.1/DTD/svg11.dtd">
<!-- Generated by graphviz version 2.40.1 (20161225.0304)
 -->
<!-- Title: G Pages: 1 -->
<svg width="3723pt" height="1741pt"
 viewBox="0.00 0.00 3723.00 1741.41" xmlns="http://www.w3.org/2000/svg" xmlns:xlink="http://www.w3.org/1999/xlink">
<g id="graph0" class="graph" transform="scale(1 1) rotate(0) translate(4 1737.4113)">
<title>G</title>
<polygon fill="#ffffff" stroke="transparent" points="-4,4 -4,-1737.4113 3719,-1737.4113 3719,4 -4,4"/>
<g id="clust1" class="cluster">
<title>cluster_0</title>
<polygon fill="none" stroke="#000000" points="8,-8 8,-1725.4113 661,-1725.4113 661,-8 8,-8"/>
<text text-anchor="middle" x="334.5" y="-1689.4113" font-family="Times,serif" font-size="40.00" fill="#000000">Tree 0, Class js&#45;undefined</text>
</g>
<g id="clust11" class="cluster">
<title>cluster_1</title>
<polygon fill="none" stroke="#000000" points="669,-8 669,-1725.4113 3707,-1725.4113 3707,-8 669,-8"/>
<text text-anchor="middle" x="2188" y="-1689.4113" font-family="Times,serif" font-size="40.00" fill="#000000">Tree 0, Class {&#39;code&#39;: 18, &#39;name&#39;: &#39;SecurityError&#39;, &#39;message&#39;: &#39;Blocked a frame with origin http://localhost:8001 from accessing a cross&#45;origin frame.&#39;}</text>
</g>
<!-- SG_0_Node_0 -->
<g id="node1" class="node">
<title>SG_0_Node_0</title>
<polygon fill="none" stroke="#000000" points="177,-1665.4113 35,-1665.4113 35,-1629.4113 177,-1629.4113 177,-1665.4113"/>
<text text-anchor="middle" x="106" y="-1642.4113" font-family="Times,serif" font-size="20.00" fill="#000000">Status&#45;Code</text>
</g>
<!-- SG_0_Node_8 -->
<g id="node2" class="node">
<title>SG_0_Node_8</title>
<ellipse fill="none" stroke="#000000" cx="64" cy="-1424.1981" rx="34.7971" ry="21.4286"/>
<text text-anchor="middle" x="64" y="-1419.1981" font-family="Times,serif" font-size="20.00" fill="#000000">0.0</text>
</g>
<!-- SG_0_Node_0&#45;&gt;SG_0_Node_8 -->
<g id="edge1" class="edge">
<title>SG_0_Node_0&#45;&gt;SG_0_Node_8</title>
<path fill="none" stroke="#000000" d="M102.563,-1629.1448C95.3867,-1591.0057 78.7408,-1502.5397 69.848,-1455.2777"/>
<polygon fill="#000000" stroke="#000000" points="73.2596,-1454.4814 67.9708,-1445.3011 66.3804,-1455.7759 73.2596,-1454.4814"/>
<text text-anchor="middle" x="114.5" y="-1576.4113" font-family="Times,serif" font-size="20.00" fill="#000000">100</text>
<text text-anchor="middle" x="114.5" y="-1554.4113" font-family="Times,serif" font-size="20.00" fill="#000000">101</text>
<text text-anchor="middle" x="114.5" y="-1532.4113" font-family="Times,serif" font-size="20.00" fill="#000000">102</text>
<text text-anchor="middle" x="114.5" y="-1510.4113" font-family="Times,serif" font-size="20.00" fill="#000000">103</text>
<text text-anchor="middle" x="114.5" y="-1488.4113" font-family="Times,serif" font-size="20.00" fill="#000000">407</text>
</g>
<!-- SG_0_Node_1 -->
<g id="node3" class="node">
<title>SG_0_Node_1</title>
<polygon fill="none" stroke="#000000" points="415,-1442.1981 117,-1442.1981 117,-1406.1981 415,-1406.1981 415,-1442.1981"/>
<text text-anchor="middle" x="266" y="-1419.1981" font-family="Times,serif" font-size="20.00" fill="#000000">Cross&#45;Origin&#45;Opener&#45;Policy</text>
</g>
<!-- SG_0_Node_0&#45;&gt;SG_0_Node_1 -->
<g id="edge2" class="edge">
<title>SG_0_Node_0&#45;&gt;SG_0_Node_1</title>
<path fill="none" stroke="#000000" d="M119.0935,-1629.1448C147.3499,-1589.7247 214.1448,-1496.5404 247.0331,-1450.6585"/>
<polygon fill="#000000" stroke="#000000" points="249.9687,-1452.5706 252.95,-1442.4039 244.2794,-1448.4924 249.9687,-1452.5706"/>
<text text-anchor="middle" x="269" y="-1543.4113" font-family="Times,serif" font-size="20.00" fill="#000000">[NA]</text>
<text text-anchor="middle" x="269" y="-1521.4113" font-family="Times,serif" font-size="20.00" fill="#000000">57 levels</text>
</g>
<!-- SG_0_Node_2 -->
<g id="node4" class="node">
<title>SG_0_Node_2</title>
<polygon fill="none" stroke="#000000" points="261,-1281.7716 119,-1281.7716 119,-1245.7716 261,-1245.7716 261,-1281.7716"/>
<text text-anchor="middle" x="190" y="-1258.7716" font-family="Times,serif" font-size="20.00" fill="#000000">Status&#45;Code</text>
</g>
<!-- SG_0_Node_1&#45;&gt;SG_0_Node_2 -->
<g id="edge3" class="edge">
<title>SG_0_Node_1&#45;&gt;SG_0_Node_2</title>
<path fill="none" stroke="#000000" d="M245.9465,-1406.0286C235.2895,-1395.3409 222.8128,-1381.0042 215,-1365.9848 202.8838,-1342.6926 196.4924,-1313.3382 193.2167,-1292.0694"/>
<polygon fill="#000000" stroke="#000000" points="196.6664,-1291.4664 191.8106,-1282.0499 189.7344,-1292.4393 196.6664,-1291.4664"/>
<text text-anchor="middle" x="247" y="-1349.9848" font-family="Times,serif" font-size="20.00" fill="#000000">[NA]</text>
<text text-anchor="middle" x="247" y="-1327.9848" font-family="Times,serif" font-size="20.00" fill="#000000">empty</text>
</g>
<!-- SG_0_Node_9 -->
<g id="node5" class="node">
<title>SG_0_Node_9</title>
<ellipse fill="none" stroke="#000000" cx="314" cy="-1263.7716" rx="34.7971" ry="21.4286"/>
<text text-anchor="middle" x="314" y="-1258.7716" font-family="Times,serif" font-size="20.00" fill="#000000">1.0</text>
</g>
<!-- SG_0_Node_1&#45;&gt;SG_0_Node_9 -->
<g id="edge4" class="edge">
<title>SG_0_Node_1&#45;&gt;SG_0_Node_9</title>
<path fill="none" stroke="#000000" d="M271.4129,-1406.107C279.523,-1379.0012 294.9293,-1327.5099 304.8193,-1294.4556"/>
<polygon fill="#000000" stroke="#000000" points="308.1839,-1295.4203 307.6973,-1284.8367 301.4776,-1293.4138 308.1839,-1295.4203"/>
<text text-anchor="middle" x="357" y="-1338.9848" font-family="Times,serif" font-size="20.00" fill="#000000">same&#45;origin</text>
</g>
<!-- SG_0_Node_10 -->
<g id="node6" class="node">
<title>SG_0_Node_10</title>
<ellipse fill="none" stroke="#000000" cx="78" cy="-1103.3452" rx="34.7971" ry="21.4286"/>
<text text-anchor="middle" x="78" y="-1098.3452" font-family="Times,serif" font-size="20.00" fill="#000000">0.0</text>
</g>
<!-- SG_0_Node_2&#45;&gt;SG_0_Node_10 -->
<g id="edge5" class="edge">
<title>SG_0_Node_2&#45;&gt;SG_0_Node_10</title>
<path fill="none" stroke="#000000" d="M157.0071,-1245.6066C141.4532,-1235.5854 123.7713,-1221.8605 112,-1205.5584 96.7583,-1184.4503 88.0389,-1156.0715 83.2555,-1134.5724"/>
<polygon fill="#000000" stroke="#000000" points="86.6542,-1133.7234 81.2121,-1124.633 79.7976,-1135.133 86.6542,-1133.7234"/>
<text text-anchor="middle" x="158" y="-1189.5584" font-family="Times,serif" font-size="20.00" fill="#000000">[NA]</text>
<text text-anchor="middle" x="158" y="-1167.5584" font-family="Times,serif" font-size="20.00" fill="#000000">46 levels</text>
</g>
<!-- SG_0_Node_3 -->
<g id="node7" class="node">
<title>SG_0_Node_3</title>
<polygon fill="none" stroke="#000000" points="351.5,-1121.3452 130.5,-1121.3452 130.5,-1085.3452 351.5,-1085.3452 351.5,-1121.3452"/>
<text text-anchor="middle" x="241" y="-1098.3452" font-family="Times,serif" font-size="20.00" fill="#000000">Content&#45;Disposition</text>
</g>
<!-- SG_0_Node_2&#45;&gt;SG_0_Node_3 -->
<g id="edge6" class="edge">
<title>SG_0_Node_2&#45;&gt;SG_0_Node_3</title>
<path fill="none" stroke="#000000" d="M195.7512,-1245.6805C204.5896,-1217.8783 221.5838,-1164.4211 232.0437,-1131.5183"/>
<polygon fill="#000000" stroke="#000000" points="235.4974,-1132.2068 235.1916,-1121.6164 228.8264,-1130.086 235.4974,-1132.2068"/>
<text text-anchor="middle" x="268" y="-1178.5584" font-family="Times,serif" font-size="20.00" fill="#000000">11 levels</text>
</g>
<!-- SG_0_Node_4 -->
<g id="node8" class="node">
<title>SG_0_Node_4</title>
<polygon fill="none" stroke="#000000" points="250,-960.9188 108,-960.9188 108,-924.9188 250,-924.9188 250,-960.9188"/>
<text text-anchor="middle" x="179" y="-937.9188" font-family="Times,serif" font-size="20.00" fill="#000000">Status&#45;Code</text>
</g>
<!-- SG_0_Node_3&#45;&gt;SG_0_Node_4 -->
<g id="edge7" class="edge">
<title>SG_0_Node_3&#45;&gt;SG_0_Node_4</title>
<path fill="none" stroke="#000000" d="M230.5738,-1085.1164C224.3805,-1073.8304 216.6574,-1058.9099 211,-1045.132 200.9095,-1020.5581 192.1154,-991.5793 186.3133,-970.7651"/>
<polygon fill="#000000" stroke="#000000" points="189.6501,-969.6982 183.6369,-960.9751 182.8979,-971.5442 189.6501,-969.6982"/>
<text text-anchor="middle" x="243" y="-1029.132" font-family="Times,serif" font-size="20.00" fill="#000000">[NA]</text>
<text text-anchor="middle" x="243" y="-1007.132" font-family="Times,serif" font-size="20.00" fill="#000000">empty</text>
</g>
<!-- SG_0_Node_11 -->
<g id="node9" class="node">
<title>SG_0_Node_11</title>
<ellipse fill="none" stroke="#000000" cx="303" cy="-942.9188" rx="34.7971" ry="21.4286"/>
<text text-anchor="middle" x="303" y="-937.9188" font-family="Times,serif" font-size="20.00" fill="#000000">1.0</text>
</g>
<!-- SG_0_Node_3&#45;&gt;SG_0_Node_11 -->
<g id="edge8" class="edge">
<title>SG_0_Node_3&#45;&gt;SG_0_Node_11</title>
<path fill="none" stroke="#000000" d="M253.316,-1085.1141C260.4274,-1073.9505 269.103,-1059.158 275,-1045.132 284.6996,-1022.0617 291.9965,-994.6516 296.7057,-974.0262"/>
<polygon fill="#000000" stroke="#000000" points="300.1354,-974.726 298.87,-964.207 293.2995,-973.2191 300.1354,-974.726"/>
<text text-anchor="middle" x="348" y="-1018.132" font-family="Times,serif" font-size="20.00" fill="#000000">attachment</text>
</g>
<!-- SG_0_Node_5 -->
<g id="node10" class="node">
<title>SG_0_Node_5</title>
<polygon fill="none" stroke="#000000" points="193.5,-668.4924 38.5,-668.4924 38.5,-632.4924 193.5,-632.4924 193.5,-668.4924"/>
<text text-anchor="middle" x="116" y="-645.4924" font-family="Times,serif" font-size="20.00" fill="#000000">Content&#45;Type</text>
</g>
<!-- SG_0_Node_4&#45;&gt;SG_0_Node_5 -->
<g id="edge9" class="edge">
<title>SG_0_Node_4&#45;&gt;SG_0_Node_5</title>
<path fill="none" stroke="#000000" d="M175.0591,-924.6262C164.386,-875.085 134.8645,-738.0555 122.0578,-678.6107"/>
<polygon fill="#000000" stroke="#000000" points="125.4671,-677.8167 119.9394,-668.7781 118.6241,-679.291 125.4671,-677.8167"/>
<text text-anchor="middle" x="185.5" y="-868.7056" font-family="Times,serif" font-size="20.00" fill="#000000">200</text>
<text text-anchor="middle" x="185.5" y="-846.7056" font-family="Times,serif" font-size="20.00" fill="#000000">201</text>
<text text-anchor="middle" x="185.5" y="-824.7056" font-family="Times,serif" font-size="20.00" fill="#000000">202</text>
<text text-anchor="middle" x="185.5" y="-802.7056" font-family="Times,serif" font-size="20.00" fill="#000000">203</text>
<text text-anchor="middle" x="185.5" y="-780.7056" font-family="Times,serif" font-size="20.00" fill="#000000">206</text>
<text text-anchor="middle" x="185.5" y="-758.7056" font-family="Times,serif" font-size="20.00" fill="#000000">207</text>
<text text-anchor="middle" x="185.5" y="-736.7056" font-family="Times,serif" font-size="20.00" fill="#000000">208</text>
<text text-anchor="middle" x="185.5" y="-714.7056" font-family="Times,serif" font-size="20.00" fill="#000000">226</text>
</g>
<!-- SG_0_Node_12 -->
<g id="node11" class="node">
<title>SG_0_Node_12</title>
<ellipse fill="none" stroke="#000000" cx="246" cy="-650.4924" rx="34.7971" ry="21.4286"/>
<text text-anchor="middle" x="246" y="-645.4924" font-family="Times,serif" font-size="20.00" fill="#000000">1.0</text>
</g>
<!-- SG_0_Node_4&#45;&gt;SG_0_Node_12 -->
<g id="edge10" class="edge">
<title>SG_0_Node_4&#45;&gt;SG_0_Node_12</title>
<path fill="none" stroke="#000000" d="M189.3357,-924.8531C195.337,-913.6268 202.565,-898.7116 207,-884.7056 229.292,-814.3064 239.4828,-727.7464 243.5927,-682.115"/>
<polygon fill="#000000" stroke="#000000" points="247.0963,-682.2223 244.467,-671.959 240.1221,-681.6219 247.0963,-682.2223"/>
<text text-anchor="middle" x="259.5" y="-813.7056" font-family="Times,serif" font-size="20.00" fill="#000000">204</text>
<text text-anchor="middle" x="259.5" y="-791.7056" font-family="Times,serif" font-size="20.00" fill="#000000">205</text>
<text text-anchor="middle" x="259.5" y="-769.7056" font-family="Times,serif" font-size="20.00" fill="#000000">304</text>
</g>
<!-- SG_0_Node_13 -->
<g id="node12" class="node">
<title>SG_0_Node_13</title>
<ellipse fill="none" stroke="#000000" cx="51" cy="-358.066" rx="34.7971" ry="21.4286"/>
<text text-anchor="middle" x="51" y="-353.066" font-family="Times,serif" font-size="20.00" fill="#000000">0.0</text>
</g>
<!-- SG_0_Node_5&#45;&gt;SG_0_Node_13 -->
<g id="edge11" class="edge">
<title>SG_0_Node_5&#45;&gt;SG_0_Node_13</title>
<path fill="none" stroke="#000000" d="M80.8565,-632.3555C65.9794,-622.653 50.2123,-609.1884 42,-592.2792 9.6891,-525.7511 27.7948,-435.6308 41.0147,-388.9526"/>
<polygon fill="#000000" stroke="#000000" points="44.4379,-389.7178 43.9064,-379.1363 37.7232,-387.7397 44.4379,-389.7178"/>
<text text-anchor="middle" x="153" y="-576.2792" font-family="Times,serif" font-size="20.00" fill="#000000">[NA]</text>
<text text-anchor="middle" x="153" y="-554.2792" font-family="Times,serif" font-size="20.00" fill="#000000">application/javascript</text>
<text text-anchor="middle" x="153" y="-532.2792" font-family="Times,serif" font-size="20.00" fill="#000000">application/pdf</text>
<text text-anchor="middle" x="153" y="-510.2792" font-family="Times,serif" font-size="20.00" fill="#000000">audio/wav</text>
<text text-anchor="middle" x="153" y="-488.2792" font-family="Times,serif" font-size="20.00" fill="#000000">image/png</text>
<text text-anchor="middle" x="153" y="-466.2792" font-family="Times,serif" font-size="20.00" fill="#000000">text/css</text>
<text text-anchor="middle" x="153" y="-444.2792" font-family="Times,serif" font-size="20.00" fill="#000000">text/html</text>
<text text-anchor="middle" x="153" y="-422.2792" font-family="Times,serif" font-size="20.00" fill="#000000">video/mp4</text>
</g>
<!-- SG_0_Node_6 -->
<g id="node13" class="node">
<title>SG_0_Node_6</title>
<polygon fill="none" stroke="#000000" points="194.5,-376.066 129.5,-376.066 129.5,-340.066 194.5,-340.066 194.5,-376.066"/>
<text text-anchor="middle" x="162" y="-353.066" font-family="Times,serif" font-size="20.00" fill="#000000">body</text>
</g>
<!-- SG_0_Node_5&#45;&gt;SG_0_Node_6 -->
<g id="edge12" class="edge">
<title>SG_0_Node_5&#45;&gt;SG_0_Node_6</title>
<path fill="none" stroke="#000000" d="M184.7285,-632.4341C220.0472,-621.6193 257.7908,-607.1215 268,-592.2792 312.3303,-527.8313 307.8332,-483.5996 268,-416.2792 254.2481,-393.0377 227.5558,-378.4554 204.3984,-369.6981"/>
<polygon fill="#000000" stroke="#000000" points="205.333,-366.3166 194.7382,-366.2934 203.0061,-372.9185 205.333,-366.3166"/>
<text text-anchor="middle" x="331" y="-499.2792" font-family="Times,serif" font-size="20.00" fill="#000000">empty</text>
</g>
<!-- SG_0_Node_14 -->
<g id="node14" class="node">
<title>SG_0_Node_14</title>
<ellipse fill="none" stroke="#000000" cx="51" cy="-197.6396" rx="34.7971" ry="21.4286"/>
<text text-anchor="middle" x="51" y="-192.6396" font-family="Times,serif" font-size="20.00" fill="#000000">0.0</text>
</g>
<!-- SG_0_Node_6&#45;&gt;SG_0_Node_14 -->
<g id="edge13" class="edge">
<title>SG_0_Node_6&#45;&gt;SG_0_Node_14</title>
<path fill="none" stroke="#000000" d="M129.1573,-346.9815C107.339,-337.844 80.0339,-322.6401 65,-299.8528 51.3305,-279.1336 48.3581,-250.8924 48.5071,-229.3453"/>
<polygon fill="#000000" stroke="#000000" points="52.0139,-229.1658 48.8134,-219.066 45.017,-228.9573 52.0139,-229.1658"/>
<text text-anchor="middle" x="111" y="-283.8528" font-family="Times,serif" font-size="20.00" fill="#000000">[NA]</text>
<text text-anchor="middle" x="111" y="-261.8528" font-family="Times,serif" font-size="20.00" fill="#000000">11 levels</text>
</g>
<!-- SG_0_Node_7 -->
<g id="node15" class="node">
<title>SG_0_Node_7</title>
<polygon fill="none" stroke="#000000" points="366,-215.6396 104,-215.6396 104,-179.6396 366,-179.6396 366,-215.6396"/>
<text text-anchor="middle" x="235" y="-192.6396" font-family="Times,serif" font-size="20.00" fill="#000000">X&#45;Content&#45;Type&#45;Options</text>
</g>
<!-- SG_0_Node_6&#45;&gt;SG_0_Node_7 -->
<g id="edge14" class="edge">
<title>SG_0_Node_6&#45;&gt;SG_0_Node_7</title>
<path fill="none" stroke="#000000" d="M160.5447,-340.0363C159.6071,-318.7624 160.5185,-282.8718 174,-255.8528 180.354,-243.1184 190.6794,-231.6606 201.0433,-222.3464"/>
<polygon fill="#000000" stroke="#000000" points="203.5604,-224.8004 208.9111,-215.6559 199.0257,-219.4677 203.5604,-224.8004"/>
<text text-anchor="middle" x="419.5" y="-283.8528" font-family="Times,serif" font-size="20.00" fill="#000000">ecocnt_audio=duration=1</text>
<text text-anchor="middle" x="419.5" y="-261.8528" font-family="Times,serif" font-size="20.00" fill="#000000">ecocnt_vid=width=100,height=100,duration=2</text>
</g>
<!-- SG_0_Node_15 -->
<g id="node16" class="node">
<title>SG_0_Node_15</title>
<ellipse fill="none" stroke="#000000" cx="182" cy="-37.2132" rx="34.7971" ry="21.4286"/>
<text text-anchor="middle" x="182" y="-32.2132" font-family="Times,serif" font-size="20.00" fill="#000000">0.0</text>
</g>
<!-- SG_0_Node_7&#45;&gt;SG_0_Node_15 -->
<g id="edge15" class="edge">
<title>SG_0_Node_7&#45;&gt;SG_0_Node_15</title>
<path fill="none" stroke="#000000" d="M219.6489,-179.4495C211.2819,-168.535 201.5319,-153.9817 196,-139.4264 187.3844,-116.7572 183.9661,-89.4748 182.6575,-68.8005"/>
<polygon fill="#000000" stroke="#000000" points="186.145,-68.4633 182.1491,-58.6509 179.1538,-68.8135 186.145,-68.4633"/>
<text text-anchor="middle" x="231" y="-112.4264" font-family="Times,serif" font-size="20.00" fill="#000000">nosniff</text>
</g>
<!-- SG_0_Node_16 -->
<g id="node17" class="node">
<title>SG_0_Node_16</title>
<ellipse fill="none" stroke="#000000" cx="288" cy="-37.2132" rx="34.7971" ry="21.4286"/>
<text text-anchor="middle" x="288" y="-32.2132" font-family="Times,serif" font-size="20.00" fill="#000000">1.0</text>
</g>
<!-- SG_0_Node_7&#45;&gt;SG_0_Node_16 -->
<g id="edge16" class="edge">
<title>SG_0_Node_7&#45;&gt;SG_0_Node_16</title>
<path fill="none" stroke="#000000" d="M246.2697,-179.6318C252.8505,-168.4266 260.8473,-153.5133 266,-139.4264 274.4428,-116.3449 280.109,-89.0864 283.5739,-68.526"/>
<polygon fill="#000000" stroke="#000000" points="287.0633,-68.87 285.1882,-58.4424 280.1513,-67.7633 287.0633,-68.87"/>
<text text-anchor="middle" x="310" y="-123.4264" font-family="Times,serif" font-size="20.00" fill="#000000">[NA]</text>
<text text-anchor="middle" x="310" y="-101.4264" font-family="Times,serif" font-size="20.00" fill="#000000">empty</text>
</g>
<!-- SG_1_Node_0 -->
<g id="node18" class="node">
<title>SG_1_Node_0</title>
<polygon fill="none" stroke="#000000" points="1042,-1665.4113 900,-1665.4113 900,-1629.4113 1042,-1629.4113 1042,-1665.4113"/>
<text text-anchor="middle" x="971" y="-1642.4113" font-family="Times,serif" font-size="20.00" fill="#000000">Status&#45;Code</text>
</g>
<!-- SG_1_Node_1 -->
<g id="node19" class="node">
<title>SG_1_Node_1</title>
<polygon fill="none" stroke="#000000" points="1019,-1442.1981 721,-1442.1981 721,-1406.1981 1019,-1406.1981 1019,-1442.1981"/>
<text text-anchor="middle" x="870" y="-1419.1981" font-family="Times,serif" font-size="20.00" fill="#000000">Cross&#45;Origin&#45;Opener&#45;Policy</text>
</g>
<!-- SG_1_Node_0&#45;&gt;SG_1_Node_1 -->
<g id="edge17" class="edge">
<title>SG_1_Node_0&#45;&gt;SG_1_Node_1</title>
<path fill="none" stroke="#000000" d="M959.539,-1629.1745C953.1287,-1618.6289 945.2047,-1604.9946 939,-1592.4113 915.2163,-1544.1772 892.5281,-1485.6392 880.0116,-1451.8765"/>
<polygon fill="#000000" stroke="#000000" points="883.2013,-1450.4093 876.4638,-1442.2327 876.6317,-1452.8262 883.2013,-1450.4093"/>
<text text-anchor="middle" x="985" y="-1543.4113" font-family="Times,serif" font-size="20.00" fill="#000000">[NA]</text>
<text text-anchor="middle" x="985" y="-1521.4113" font-family="Times,serif" font-size="20.00" fill="#000000">57 levels</text>
</g>
<!-- SG_1_Node_8 -->
<g id="node20" class="node">
<title>SG_1_Node_8</title>
<ellipse fill="none" stroke="#000000" cx="1072" cy="-1424.1981" rx="34.7971" ry="21.4286"/>
<text text-anchor="middle" x="1072" y="-1419.1981" font-family="Times,serif" font-size="20.00" fill="#000000">1.0</text>
</g>
<!-- SG_1_Node_0&#45;&gt;SG_1_Node_8 -->
<g id="edge18" class="edge">
<title>SG_1_Node_0&#45;&gt;SG_1_Node_8</title>
<path fill="none" stroke="#000000" d="M997.1103,-1629.2079C1009.1027,-1619.5714 1022.5135,-1606.7646 1031,-1592.4113 1056.4406,-1549.383 1066.1299,-1491.2748 1069.7967,-1455.8353"/>
<polygon fill="#000000" stroke="#000000" points="1073.3068,-1455.8886 1070.752,-1445.6064 1066.3372,-1455.2376 1073.3068,-1455.8886"/>
<text text-anchor="middle" x="1085.5" y="-1576.4113" font-family="Times,serif" font-size="20.00" fill="#000000">100</text>
<text text-anchor="middle" x="1085.5" y="-1554.4113" font-family="Times,serif" font-size="20.00" fill="#000000">101</text>
<text text-anchor="middle" x="1085.5" y="-1532.4113" font-family="Times,serif" font-size="20.00" fill="#000000">102</text>
<text text-anchor="middle" x="1085.5" y="-1510.4113" font-family="Times,serif" font-size="20.00" fill="#000000">103</text>
<text text-anchor="middle" x="1085.5" y="-1488.4113" font-family="Times,serif" font-size="20.00" fill="#000000">407</text>
</g>
<!-- SG_1_Node_9 -->
<g id="node21" class="node">
<title>SG_1_Node_9</title>
<ellipse fill="none" stroke="#000000" cx="772" cy="-1263.7716" rx="34.7971" ry="21.4286"/>
<text text-anchor="middle" x="772" y="-1258.7716" font-family="Times,serif" font-size="20.00" fill="#000000">0.0</text>
</g>
<!-- SG_1_Node_1&#45;&gt;SG_1_Node_9 -->
<g id="edge19" class="edge">
<title>SG_1_Node_1&#45;&gt;SG_1_Node_9</title>
<path fill="none" stroke="#000000" d="M818.6622,-1406.1797C800.6106,-1397.0819 782.2775,-1384.0438 772,-1365.9848 759.7805,-1344.5136 760.8515,-1316.1666 764.3715,-1294.7722"/>
<polygon fill="#000000" stroke="#000000" points="767.8212,-1295.366 766.2487,-1284.8886 760.9441,-1294.0598 767.8212,-1295.366"/>
<text text-anchor="middle" x="833" y="-1338.9848" font-family="Times,serif" font-size="20.00" fill="#000000">same&#45;origin</text>
</g>
<!-- SG_1_Node_2 -->
<g id="node22" class="node">
<title>SG_1_Node_2</title>
<polygon fill="none" stroke="#000000" points="1001,-1281.7716 859,-1281.7716 859,-1245.7716 1001,-1245.7716 1001,-1281.7716"/>
<text text-anchor="middle" x="930" y="-1258.7716" font-family="Times,serif" font-size="20.00" fill="#000000">Status&#45;Code</text>
</g>
<!-- SG_1_Node_1&#45;&gt;SG_1_Node_2 -->
<g id="edge20" class="edge">
<title>SG_1_Node_1&#45;&gt;SG_1_Node_2</title>
<path fill="none" stroke="#000000" d="M879.5192,-1406.1475C885.2915,-1394.8017 892.566,-1379.7549 898,-1365.9848 907.693,-1341.4224 916.479,-1312.6581 922.3816,-1291.9119"/>
<polygon fill="#000000" stroke="#000000" points="925.7912,-1292.7156 925.1169,-1282.1422 919.0504,-1290.8283 925.7912,-1292.7156"/>
<text text-anchor="middle" x="945" y="-1349.9848" font-family="Times,serif" font-size="20.00" fill="#000000">[NA]</text>
<text text-anchor="middle" x="945" y="-1327.9848" font-family="Times,serif" font-size="20.00" fill="#000000">empty</text>
</g>
<!-- SG_1_Node_3 -->
<g id="node23" class="node">
<title>SG_1_Node_3</title>
<polygon fill="none" stroke="#000000" points="945.5,-1121.3452 724.5,-1121.3452 724.5,-1085.3452 945.5,-1085.3452 945.5,-1121.3452"/>
<text text-anchor="middle" x="835" y="-1098.3452" font-family="Times,serif" font-size="20.00" fill="#000000">Content&#45;Disposition</text>
</g>
<!-- SG_1_Node_2&#45;&gt;SG_1_Node_3 -->
<g id="edge21" class="edge">
<title>SG_1_Node_2&#45;&gt;SG_1_Node_3</title>
<path fill="none" stroke="#000000" d="M899.7422,-1245.6842C885.3501,-1235.5973 869.1172,-1221.7917 859,-1205.5584 845.0613,-1183.1935 839.2118,-1153.4901 836.7603,-1131.8699"/>
<polygon fill="#000000" stroke="#000000" points="840.2218,-1131.2998 835.7861,-1121.6783 833.2536,-1131.966 840.2218,-1131.2998"/>
<text text-anchor="middle" x="905" y="-1178.5584" font-family="Times,serif" font-size="20.00" fill="#000000">11 levels</text>
</g>
<!-- SG_1_Node_10 -->
<g id="node24" class="node">
<title>SG_1_Node_10</title>
<ellipse fill="none" stroke="#000000" cx="998" cy="-1103.3452" rx="34.7971" ry="21.4286"/>
<text text-anchor="middle" x="998" y="-1098.3452" font-family="Times,serif" font-size="20.00" fill="#000000">1.0</text>
</g>
<!-- SG_1_Node_2&#45;&gt;SG_1_Node_10 -->
<g id="edge22" class="edge">
<title>SG_1_Node_2&#45;&gt;SG_1_Node_10</title>
<path fill="none" stroke="#000000" d="M937.6683,-1245.6805C949.2205,-1218.4263 971.2227,-1166.5185 985.2236,-1133.4875"/>
<polygon fill="#000000" stroke="#000000" points="988.6112,-1134.4637 989.2914,-1123.8907 982.1663,-1131.7319 988.6112,-1134.4637"/>
<text text-anchor="middle" x="1018" y="-1189.5584" font-family="Times,serif" font-size="20.00" fill="#000000">[NA]</text>
<text text-anchor="middle" x="1018" y="-1167.5584" font-family="Times,serif" font-size="20.00" fill="#000000">46 levels</text>
</g>
<!-- SG_1_Node_11 -->
<g id="node25" class="node">
<title>SG_1_Node_11</title>
<ellipse fill="none" stroke="#000000" cx="774" cy="-942.9188" rx="34.7971" ry="21.4286"/>
<text text-anchor="middle" x="774" y="-937.9188" font-family="Times,serif" font-size="20.00" fill="#000000">0.0</text>
</g>
<!-- SG_1_Node_3&#45;&gt;SG_1_Node_11 -->
<g id="edge23" class="edge">
<title>SG_1_Node_3&#45;&gt;SG_1_Node_11</title>
<path fill="none" stroke="#000000" d="M815.9692,-1085.1803C805.976,-1074.4941 794.4889,-1060.1572 788,-1045.132 778.3246,-1022.7282 774.9825,-995.2188 773.9729,-974.3846"/>
<polygon fill="#000000" stroke="#000000" points="777.4635,-974.04 773.6363,-964.1606 770.4673,-974.2704 777.4635,-974.04"/>
<text text-anchor="middle" x="847" y="-1018.132" font-family="Times,serif" font-size="20.00" fill="#000000">attachment</text>
</g>
<!-- SG_1_Node_4 -->
<g id="node26" class="node">
<title>SG_1_Node_4</title>
<polygon fill="none" stroke="#000000" points="999,-960.9188 857,-960.9188 857,-924.9188 999,-924.9188 999,-960.9188"/>
<text text-anchor="middle" x="928" y="-937.9188" font-family="Times,serif" font-size="20.00" fill="#000000">Status&#45;Code</text>
</g>
<!-- SG_1_Node_3&#45;&gt;SG_1_Node_4 -->
<g id="edge24" class="edge">
<title>SG_1_Node_3&#45;&gt;SG_1_Node_4</title>
<path fill="none" stroke="#000000" d="M865.3861,-1085.337C879.811,-1075.2702 896.0344,-1061.4588 906,-1045.132 919.6724,-1022.7323 924.9186,-993.0334 926.8952,-971.4237"/>
<polygon fill="#000000" stroke="#000000" points="930.4014,-971.467 927.642,-961.2378 923.4201,-970.9551 930.4014,-971.467"/>
<text text-anchor="middle" x="954" y="-1029.132" font-family="Times,serif" font-size="20.00" fill="#000000">[NA]</text>
<text text-anchor="middle" x="954" y="-1007.132" font-family="Times,serif" font-size="20.00" fill="#000000">empty</text>
</g>
<!-- SG_1_Node_12 -->
<g id="node27" class="node">
<title>SG_1_Node_12</title>
<ellipse fill="none" stroke="#000000" cx="863" cy="-650.4924" rx="34.7971" ry="21.4286"/>
<text text-anchor="middle" x="863" y="-645.4924" font-family="Times,serif" font-size="20.00" fill="#000000">0.0</text>
</g>
<!-- SG_1_Node_4&#45;&gt;SG_1_Node_12 -->
<g id="edge25" class="edge">
<title>SG_1_Node_4&#45;&gt;SG_1_Node_12</title>
<path fill="none" stroke="#000000" d="M923.934,-924.6262C913.1094,-875.928 883.4943,-742.6938 869.9394,-681.712"/>
<polygon fill="#000000" stroke="#000000" points="873.3414,-680.8864 867.7549,-671.8842 866.5082,-682.4054 873.3414,-680.8864"/>
<text text-anchor="middle" x="933.5" y="-813.7056" font-family="Times,serif" font-size="20.00" fill="#000000">204</text>
<text text-anchor="middle" x="933.5" y="-791.7056" font-family="Times,serif" font-size="20.00" fill="#000000">205</text>
<text text-anchor="middle" x="933.5" y="-769.7056" font-family="Times,serif" font-size="20.00" fill="#000000">304</text>
</g>
<!-- SG_1_Node_5 -->
<g id="node28" class="node">
<title>SG_1_Node_5</title>
<polygon fill="none" stroke="#000000" points="1070.5,-668.4924 915.5,-668.4924 915.5,-632.4924 1070.5,-632.4924 1070.5,-668.4924"/>
<text text-anchor="middle" x="993" y="-645.4924" font-family="Times,serif" font-size="20.00" fill="#000000">Content&#45;Type</text>
</g>
<!-- SG_1_Node_4&#45;&gt;SG_1_Node_5 -->
<g id="edge26" class="edge">
<title>SG_1_Node_4&#45;&gt;SG_1_Node_5</title>
<path fill="none" stroke="#000000" d="M938.9329,-924.662C945.1504,-913.4893 952.5593,-898.6962 957,-884.7056 979.8809,-812.6181 988.4645,-723.2804 991.4855,-678.6448"/>
<polygon fill="#000000" stroke="#000000" points="994.9856,-678.7514 992.1242,-668.5503 987.9996,-678.3093 994.9856,-678.7514"/>
<text text-anchor="middle" x="1008.5" y="-868.7056" font-family="Times,serif" font-size="20.00" fill="#000000">200</text>
<text text-anchor="middle" x="1008.5" y="-846.7056" font-family="Times,serif" font-size="20.00" fill="#000000">201</text>
<text text-anchor="middle" x="1008.5" y="-824.7056" font-family="Times,serif" font-size="20.00" fill="#000000">202</text>
<text text-anchor="middle" x="1008.5" y="-802.7056" font-family="Times,serif" font-size="20.00" fill="#000000">203</text>
<text text-anchor="middle" x="1008.5" y="-780.7056" font-family="Times,serif" font-size="20.00" fill="#000000">206</text>
<text text-anchor="middle" x="1008.5" y="-758.7056" font-family="Times,serif" font-size="20.00" fill="#000000">207</text>
<text text-anchor="middle" x="1008.5" y="-736.7056" font-family="Times,serif" font-size="20.00" fill="#000000">208</text>
<text text-anchor="middle" x="1008.5" y="-714.7056" font-family="Times,serif" font-size="20.00" fill="#000000">226</text>
</g>
<!-- SG_1_Node_6 -->
<g id="node29" class="node">
<title>SG_1_Node_6</title>
<polygon fill="none" stroke="#000000" points="975.5,-376.066 910.5,-376.066 910.5,-340.066 975.5,-340.066 975.5,-376.066"/>
<text text-anchor="middle" x="943" y="-353.066" font-family="Times,serif" font-size="20.00" fill="#000000">body</text>
</g>
<!-- SG_1_Node_5&#45;&gt;SG_1_Node_6 -->
<g id="edge27" class="edge">
<title>SG_1_Node_5&#45;&gt;SG_1_Node_6</title>
<path fill="none" stroke="#000000" d="M978.4449,-632.2608C970.5933,-621.3325 961.5933,-606.7792 957,-592.2792 934.385,-520.8884 937.0311,-431.2467 940.3196,-386.3844"/>
<polygon fill="#000000" stroke="#000000" points="943.8228,-386.4836 941.1323,-376.236 936.8451,-385.9247 943.8228,-386.4836"/>
<text text-anchor="middle" x="989" y="-499.2792" font-family="Times,serif" font-size="20.00" fill="#000000">empty</text>
</g>
<!-- SG_1_Node_13 -->
<g id="node30" class="node">
<title>SG_1_Node_13</title>
<ellipse fill="none" stroke="#000000" cx="1043" cy="-358.066" rx="34.7971" ry="21.4286"/>
<text text-anchor="middle" x="1043" y="-353.066" font-family="Times,serif" font-size="20.00" fill="#000000">1.0</text>
</g>
<!-- SG_1_Node_5&#45;&gt;SG_1_Node_13 -->
<g id="edge28" class="edge">
<title>SG_1_Node_5&#45;&gt;SG_1_Node_13</title>
<path fill="none" stroke="#000000" d="M1003.8357,-632.2767C1009.9379,-621.1185 1017.0974,-606.3264 1021,-592.2792 1040.5845,-521.7872 1043.5327,-435.2643 1043.5376,-389.6635"/>
<polygon fill="#000000" stroke="#000000" points="1047.037,-389.4977 1043.4891,-379.5146 1040.037,-389.5313 1047.037,-389.4977"/>
<text text-anchor="middle" x="1154" y="-576.2792" font-family="Times,serif" font-size="20.00" fill="#000000">[NA]</text>
<text text-anchor="middle" x="1154" y="-554.2792" font-family="Times,serif" font-size="20.00" fill="#000000">application/javascript</text>
<text text-anchor="middle" x="1154" y="-532.2792" font-family="Times,serif" font-size="20.00" fill="#000000">application/pdf</text>
<text text-anchor="middle" x="1154" y="-510.2792" font-family="Times,serif" font-size="20.00" fill="#000000">audio/wav</text>
<text text-anchor="middle" x="1154" y="-488.2792" font-family="Times,serif" font-size="20.00" fill="#000000">image/png</text>
<text text-anchor="middle" x="1154" y="-466.2792" font-family="Times,serif" font-size="20.00" fill="#000000">text/css</text>
<text text-anchor="middle" x="1154" y="-444.2792" font-family="Times,serif" font-size="20.00" fill="#000000">text/html</text>
<text text-anchor="middle" x="1154" y="-422.2792" font-family="Times,serif" font-size="20.00" fill="#000000">video/mp4</text>
</g>
<!-- SG_1_Node_7 -->
<g id="node31" class="node">
<title>SG_1_Node_7</title>
<polygon fill="none" stroke="#000000" points="952,-215.6396 690,-215.6396 690,-179.6396 952,-179.6396 952,-215.6396"/>
<text text-anchor="middle" x="821" y="-192.6396" font-family="Times,serif" font-size="20.00" fill="#000000">X&#45;Content&#45;Type&#45;Options</text>
</g>
<!-- SG_1_Node_6&#45;&gt;SG_1_Node_7 -->
<g id="edge29" class="edge">
<title>SG_1_Node_6&#45;&gt;SG_1_Node_7</title>
<path fill="none" stroke="#000000" d="M910.3849,-349.3006C885.5797,-340.8541 852.7809,-325.4963 835,-299.8528 820.0898,-278.3495 817.6381,-248.1009 818.281,-226.0917"/>
<polygon fill="#000000" stroke="#000000" points="821.7805,-226.1916 818.8043,-216.0234 814.7899,-225.8283 821.7805,-226.1916"/>
<text text-anchor="middle" x="1080.5" y="-283.8528" font-family="Times,serif" font-size="20.00" fill="#000000">ecocnt_audio=duration=1</text>
<text text-anchor="middle" x="1080.5" y="-261.8528" font-family="Times,serif" font-size="20.00" fill="#000000">ecocnt_vid=width=100,height=100,duration=2</text>
</g>
<!-- SG_1_Node_14 -->
<g id="node32" class="node">
<title>SG_1_Node_14</title>
<ellipse fill="none" stroke="#000000" cx="1348" cy="-197.6396" rx="34.7971" ry="21.4286"/>
<text text-anchor="middle" x="1348" y="-192.6396" font-family="Times,serif" font-size="20.00" fill="#000000">1.0</text>
</g>
<!-- SG_1_Node_6&#45;&gt;SG_1_Node_14 -->
<g id="edge30" class="edge">
<title>SG_1_Node_6&#45;&gt;SG_1_Node_14</title>
<path fill="none" stroke="#000000" d="M975.7337,-344.1074C983.2649,-341.3354 991.3203,-338.7109 999,-336.8528 1070.0795,-319.6552 1271.7856,-348.9328 1326,-299.8528 1345.3712,-282.3162 1349.9133,-252.182 1350.1784,-229.163"/>
<polygon fill="#000000" stroke="#000000" points="1353.6781,-229.1077 1350.0372,-219.1582 1346.6788,-229.2066 1353.6781,-229.1077"/>
<text text-anchor="middle" x="1393" y="-283.8528" font-family="Times,serif" font-size="20.00" fill="#000000">[NA]</text>
<text text-anchor="middle" x="1393" y="-261.8528" font-family="Times,serif" font-size="20.00" fill="#000000">11 levels</text>
</g>
<!-- SG_1_Node_15 -->
<g id="node33" class="node">
<title>SG_1_Node_15</title>
<ellipse fill="none" stroke="#000000" cx="734" cy="-37.2132" rx="34.7971" ry="21.4286"/>
<text text-anchor="middle" x="734" y="-32.2132" font-family="Times,serif" font-size="20.00" fill="#000000">0.0</text>
</g>
<!-- SG_1_Node_7&#45;&gt;SG_1_Node_15 -->
<g id="edge31" class="edge">
<title>SG_1_Node_7&#45;&gt;SG_1_Node_15</title>
<path fill="none" stroke="#000000" d="M794.3272,-179.506C781.1836,-169.2275 766.2164,-155.2642 757,-139.4264 744.3998,-117.7739 738.7002,-89.8338 736.1232,-68.6392"/>
<polygon fill="#000000" stroke="#000000" points="739.588,-68.1186 735.0663,-58.5371 732.626,-68.8471 739.588,-68.1186"/>
<text text-anchor="middle" x="789" y="-123.4264" font-family="Times,serif" font-size="20.00" fill="#000000">[NA]</text>
<text text-anchor="middle" x="789" y="-101.4264" font-family="Times,serif" font-size="20.00" fill="#000000">empty</text>
</g>
<!-- SG_1_Node_16 -->
<g id="node34" class="node">
<title>SG_1_Node_16</title>
<ellipse fill="none" stroke="#000000" cx="834" cy="-37.2132" rx="34.7971" ry="21.4286"/>
<text text-anchor="middle" x="834" y="-32.2132" font-family="Times,serif" font-size="20.00" fill="#000000">1.0</text>
</g>
<!-- SG_1_Node_7&#45;&gt;SG_1_Node_16 -->
<g id="edge32" class="edge">
<title>SG_1_Node_7&#45;&gt;SG_1_Node_16</title>
<path fill="none" stroke="#000000" d="M822.466,-179.5485C824.647,-152.6336 828.7764,-101.6751 831.4568,-68.5978"/>
<polygon fill="#000000" stroke="#000000" points="834.9526,-68.79 832.2718,-58.5399 827.9755,-68.2245 834.9526,-68.79"/>
<text text-anchor="middle" x="864" y="-112.4264" font-family="Times,serif" font-size="20.00" fill="#000000">nosniff</text>
</g>
</g>
</svg>
