<?xml version="1.0" encoding="UTF-8" standalone="no"?>
<!DOCTYPE svg PUBLIC "-//W3C//DTD SVG 1.1//EN"
 "http://www.w3.org/Graphics/SVG/1.1/DTD/svg11.dtd">
<!-- Generated by graphviz version 2.40.1 (20161225.0304)
 -->
<!-- Title: G Pages: 1 -->
<svg width="4659pt" height="713pt"
 viewBox="0.00 0.00 4659.00 712.85" xmlns="http://www.w3.org/2000/svg" xmlns:xlink="http://www.w3.org/1999/xlink">
<g id="graph0" class="graph" transform="scale(1 1) rotate(0) translate(4 708.8528)">
<title>G</title>
<polygon fill="#ffffff" stroke="transparent" points="-4,4 -4,-708.8528 4655,-708.8528 4655,4 -4,4"/>
<g id="clust1" class="cluster">
<title>cluster_0</title>
<polygon fill="none" stroke="#000000" points="8,-8 8,-696.8528 721,-696.8528 721,-8 8,-8"/>
<text text-anchor="middle" x="364.5" y="-660.8528" font-family="Times,serif" font-size="40.00" fill="#000000">Tree 0, Class http://localhost:8001</text>
</g>
<g id="clust6" class="cluster">
<title>cluster_1</title>
<polygon fill="none" stroke="#000000" points="729,-8 729,-696.8528 4643,-696.8528 4643,-8 729,-8"/>
<text text-anchor="middle" x="2686" y="-660.8528" font-family="Times,serif" font-size="40.00" fill="#000000">Tree 0, Class {&#39;code&#39;: 18, &#39;name&#39;: &#39;SecurityError&#39;, &#39;message&#39;: &#39;Blocked a frame with origin http://localhost:8001 from accessing a cross&#45;origin frame. Protocols, domains, and ports must match.&#39;}</text>
</g>
<!-- SG_0_Node_0 -->
<g id="node1" class="node">
<title>SG_0_Node_0</title>
<polygon fill="none" stroke="#000000" points="285.5,-636.8528 64.5,-636.8528 64.5,-600.8528 285.5,-600.8528 285.5,-636.8528"/>
<text text-anchor="middle" x="175" y="-613.8528" font-family="Times,serif" font-size="20.00" fill="#000000">Content&#45;Disposition</text>
</g>
<!-- SG_0_Node_1 -->
<g id="node2" class="node">
<title>SG_0_Node_1</title>
<polygon fill="none" stroke="#000000" points="242,-482.8528 100,-482.8528 100,-446.8528 242,-446.8528 242,-482.8528"/>
<text text-anchor="middle" x="171" y="-459.8528" font-family="Times,serif" font-size="20.00" fill="#000000">Status&#45;Code</text>
</g>
<!-- SG_0_Node_0&#45;&gt;SG_0_Node_1 -->
<g id="edge1" class="edge">
<title>SG_0_Node_0&#45;&gt;SG_0_Node_1</title>
<path fill="none" stroke="#000000" d="M174.5254,-600.5822C173.8368,-574.0695 172.5541,-524.6859 171.7404,-493.3599"/>
<polygon fill="#000000" stroke="#000000" points="175.2325,-493.0053 171.4739,-483.0996 168.2349,-493.1871 175.2325,-493.0053"/>
<text text-anchor="middle" x="205" y="-536.8528" font-family="Times,serif" font-size="20.00" fill="#000000">empty</text>
</g>
<!-- SG_0_Node_2 -->
<g id="node3" class="node">
<title>SG_0_Node_2</title>
<polygon fill="none" stroke="#000000" points="402,-482.8528 260,-482.8528 260,-446.8528 402,-446.8528 402,-482.8528"/>
<text text-anchor="middle" x="331" y="-459.8528" font-family="Times,serif" font-size="20.00" fill="#000000">Status&#45;Code</text>
</g>
<!-- SG_0_Node_0&#45;&gt;SG_0_Node_2 -->
<g id="edge2" class="edge">
<title>SG_0_Node_0&#45;&gt;SG_0_Node_2</title>
<path fill="none" stroke="#000000" d="M198.2737,-600.7651C211.2275,-590.3793 227.4279,-576.8525 241,-563.8528 265.5829,-540.3067 291.5137,-511.2764 309.1934,-490.7568"/>
<polygon fill="#000000" stroke="#000000" points="311.9311,-492.9407 315.7754,-483.0679 306.6134,-488.3885 311.9311,-492.9407"/>
<text text-anchor="middle" x="342" y="-547.8528" font-family="Times,serif" font-size="20.00" fill="#000000">[NA]</text>
<text text-anchor="middle" x="342" y="-525.8528" font-family="Times,serif" font-size="20.00" fill="#000000">attachment</text>
</g>
<!-- SG_0_Node_4 -->
<g id="node4" class="node">
<title>SG_0_Node_4</title>
<ellipse fill="none" stroke="#000000" cx="76" cy="-219.6396" rx="34.7971" ry="21.4286"/>
<text text-anchor="middle" x="76" y="-214.6396" font-family="Times,serif" font-size="20.00" fill="#000000">0.0</text>
</g>
<!-- SG_0_Node_1&#45;&gt;SG_0_Node_4 -->
<g id="edge7" class="edge">
<title>SG_0_Node_1&#45;&gt;SG_0_Node_4</title>
<path fill="none" stroke="#000000" d="M123.6664,-446.7525C107.6042,-438.114 91.3673,-426.0475 82,-409.8528 53.2992,-360.2331 60.7447,-290.5043 68.5249,-250.7136"/>
<polygon fill="#000000" stroke="#000000" points="71.9771,-251.3032 70.593,-240.7992 65.1246,-249.8737 71.9771,-251.3032"/>
<text text-anchor="middle" x="128" y="-349.8528" font-family="Times,serif" font-size="20.00" fill="#000000">[NA]</text>
<text text-anchor="middle" x="128" y="-327.8528" font-family="Times,serif" font-size="20.00" fill="#000000">58 levels</text>
</g>
<!-- SG_0_Node_5 -->
<g id="node5" class="node">
<title>SG_0_Node_5</title>
<ellipse fill="none" stroke="#000000" cx="204" cy="-219.6396" rx="34.7971" ry="21.4286"/>
<text text-anchor="middle" x="204" y="-214.6396" font-family="Times,serif" font-size="20.00" fill="#000000">1.0</text>
</g>
<!-- SG_0_Node_1&#45;&gt;SG_0_Node_5 -->
<g id="edge8" class="edge">
<title>SG_0_Node_1&#45;&gt;SG_0_Node_5</title>
<path fill="none" stroke="#000000" d="M173.4266,-446.8217C179.0106,-405.3283 192.8259,-302.671 199.812,-250.7593"/>
<polygon fill="#000000" stroke="#000000" points="203.2886,-251.1668 201.1537,-240.7893 196.3512,-250.2331 203.2886,-251.1668"/>
<text text-anchor="middle" x="214.5" y="-371.8528" font-family="Times,serif" font-size="20.00" fill="#000000">100</text>
<text text-anchor="middle" x="214.5" y="-349.8528" font-family="Times,serif" font-size="20.00" fill="#000000">102</text>
<text text-anchor="middle" x="214.5" y="-327.8528" font-family="Times,serif" font-size="20.00" fill="#000000">103</text>
<text text-anchor="middle" x="214.5" y="-305.8528" font-family="Times,serif" font-size="20.00" fill="#000000">407</text>
</g>
<!-- SG_0_Node_3 -->
<g id="node6" class="node">
<title>SG_0_Node_3</title>
<polygon fill="none" stroke="#000000" points="367.5,-237.6396 262.5,-237.6396 262.5,-201.6396 367.5,-201.6396 367.5,-237.6396"/>
<text text-anchor="middle" x="315" y="-214.6396" font-family="Times,serif" font-size="20.00" fill="#000000">Location</text>
</g>
<!-- SG_0_Node_2&#45;&gt;SG_0_Node_3 -->
<g id="edge3" class="edge">
<title>SG_0_Node_2&#45;&gt;SG_0_Node_3</title>
<path fill="none" stroke="#000000" d="M329.8235,-446.8217C327.0669,-404.5742 320.1729,-298.9192 316.8492,-247.9798"/>
<polygon fill="#000000" stroke="#000000" points="320.322,-247.448 316.1782,-237.6972 313.3369,-247.9039 320.322,-247.448"/>
<text text-anchor="middle" x="346.5" y="-393.8528" font-family="Times,serif" font-size="20.00" fill="#000000">301</text>
<text text-anchor="middle" x="346.5" y="-371.8528" font-family="Times,serif" font-size="20.00" fill="#000000">302</text>
<text text-anchor="middle" x="346.5" y="-349.8528" font-family="Times,serif" font-size="20.00" fill="#000000">303</text>
<text text-anchor="middle" x="346.5" y="-327.8528" font-family="Times,serif" font-size="20.00" fill="#000000">305</text>
<text text-anchor="middle" x="346.5" y="-305.8528" font-family="Times,serif" font-size="20.00" fill="#000000">307</text>
<text text-anchor="middle" x="346.5" y="-283.8528" font-family="Times,serif" font-size="20.00" fill="#000000">308</text>
</g>
<!-- SG_0_Node_6 -->
<g id="node7" class="node">
<title>SG_0_Node_6</title>
<ellipse fill="none" stroke="#000000" cx="420" cy="-219.6396" rx="34.7971" ry="21.4286"/>
<text text-anchor="middle" x="420" y="-214.6396" font-family="Times,serif" font-size="20.00" fill="#000000">1.0</text>
</g>
<!-- SG_0_Node_2&#45;&gt;SG_0_Node_6 -->
<g id="edge4" class="edge">
<title>SG_0_Node_2&#45;&gt;SG_0_Node_6</title>
<path fill="none" stroke="#000000" d="M346.5148,-446.5538C354.5159,-436.3192 363.858,-423.0041 370,-409.8528 394.697,-356.9718 408.7047,-289.9075 415.2871,-251.1753"/>
<polygon fill="#000000" stroke="#000000" points="418.7851,-251.472 416.9495,-241.0374 411.8774,-250.3392 418.7851,-251.472"/>
<text text-anchor="middle" x="455" y="-349.8528" font-family="Times,serif" font-size="20.00" fill="#000000">[NA]</text>
<text text-anchor="middle" x="455" y="-327.8528" font-family="Times,serif" font-size="20.00" fill="#000000">56 levels</text>
</g>
<!-- SG_0_Node_7 -->
<g id="node8" class="node">
<title>SG_0_Node_7</title>
<ellipse fill="none" stroke="#000000" cx="183" cy="-37.2132" rx="34.7971" ry="21.4286"/>
<text text-anchor="middle" x="183" y="-32.2132" font-family="Times,serif" font-size="20.00" fill="#000000">0.0</text>
</g>
<!-- SG_0_Node_3&#45;&gt;SG_0_Node_7 -->
<g id="edge5" class="edge">
<title>SG_0_Node_3&#45;&gt;SG_0_Node_7</title>
<path fill="none" stroke="#000000" d="M267.4097,-201.637C238.6734,-189.7722 205.9288,-174.1373 197,-161.4264 178.0589,-134.462 176.6619,-95.7849 178.6604,-68.7761"/>
<polygon fill="#000000" stroke="#000000" points="182.1571,-68.9742 179.6028,-58.6919 175.1875,-68.3228 182.1571,-68.9742"/>
<text text-anchor="middle" x="334" y="-145.4264" font-family="Times,serif" font-size="20.00" fill="#000000">[NA]</text>
<text text-anchor="middle" x="334" y="-123.4264" font-family="Times,serif" font-size="20.00" fill="#000000">/</text>
<text text-anchor="middle" x="334" y="-101.4264" font-family="Times,serif" font-size="20.00" fill="#000000">http://localhost:8000/echo/</text>
</g>
<!-- SG_0_Node_8 -->
<g id="node9" class="node">
<title>SG_0_Node_8</title>
<ellipse fill="none" stroke="#000000" cx="493" cy="-37.2132" rx="34.7971" ry="21.4286"/>
<text text-anchor="middle" x="493" y="-32.2132" font-family="Times,serif" font-size="20.00" fill="#000000">1.0</text>
</g>
<!-- SG_0_Node_3&#45;&gt;SG_0_Node_8 -->
<g id="edge6" class="edge">
<title>SG_0_Node_3&#45;&gt;SG_0_Node_8</title>
<path fill="none" stroke="#000000" d="M365.2771,-201.5428C410.1777,-185.2804 469.1731,-163.6199 471,-161.4264 492.4058,-135.7253 496.1009,-96.4805 495.5986,-68.9995"/>
<polygon fill="#000000" stroke="#000000" points="499.0859,-68.5965 495.2083,-58.7368 492.0909,-68.8626 499.0859,-68.5965"/>
<text text-anchor="middle" x="526" y="-123.4264" font-family="Times,serif" font-size="20.00" fill="#000000">empty</text>
</g>
<!-- SG_1_Node_0 -->
<g id="node10" class="node">
<title>SG_1_Node_0</title>
<polygon fill="none" stroke="#000000" points="1033.5,-636.8528 812.5,-636.8528 812.5,-600.8528 1033.5,-600.8528 1033.5,-636.8528"/>
<text text-anchor="middle" x="923" y="-613.8528" font-family="Times,serif" font-size="20.00" fill="#000000">Content&#45;Disposition</text>
</g>
<!-- SG_1_Node_1 -->
<g id="node11" class="node">
<title>SG_1_Node_1</title>
<polygon fill="none" stroke="#000000" points="984,-482.8528 842,-482.8528 842,-446.8528 984,-446.8528 984,-482.8528"/>
<text text-anchor="middle" x="913" y="-459.8528" font-family="Times,serif" font-size="20.00" fill="#000000">Status&#45;Code</text>
</g>
<!-- SG_1_Node_0&#45;&gt;SG_1_Node_1 -->
<g id="edge9" class="edge">
<title>SG_1_Node_0&#45;&gt;SG_1_Node_1</title>
<path fill="none" stroke="#000000" d="M921.8136,-600.5822C920.092,-574.0695 916.8853,-524.6859 914.8511,-493.3599"/>
<polygon fill="#000000" stroke="#000000" points="918.3256,-492.8518 914.1849,-483.0996 911.3403,-493.3054 918.3256,-492.8518"/>
<text text-anchor="middle" x="978" y="-547.8528" font-family="Times,serif" font-size="20.00" fill="#000000">[NA]</text>
<text text-anchor="middle" x="978" y="-525.8528" font-family="Times,serif" font-size="20.00" fill="#000000">attachment</text>
</g>
<!-- SG_1_Node_2 -->
<g id="node12" class="node">
<title>SG_1_Node_2</title>
<polygon fill="none" stroke="#000000" points="1144,-482.8528 1002,-482.8528 1002,-446.8528 1144,-446.8528 1144,-482.8528"/>
<text text-anchor="middle" x="1073" y="-459.8528" font-family="Times,serif" font-size="20.00" fill="#000000">Status&#45;Code</text>
</g>
<!-- SG_1_Node_0&#45;&gt;SG_1_Node_2 -->
<g id="edge10" class="edge">
<title>SG_1_Node_0&#45;&gt;SG_1_Node_2</title>
<path fill="none" stroke="#000000" d="M985.6028,-600.831C1005.6045,-592.4027 1026.3342,-580.4522 1041,-563.8528 1058.4725,-544.0767 1066.4242,-514.6305 1070.0314,-492.9918"/>
<polygon fill="#000000" stroke="#000000" points="1073.4982,-493.4729 1071.4759,-483.0729 1066.5712,-492.4641 1073.4982,-493.4729"/>
<text text-anchor="middle" x="1095" y="-536.8528" font-family="Times,serif" font-size="20.00" fill="#000000">empty</text>
</g>
<!-- SG_1_Node_4 -->
<g id="node13" class="node">
<title>SG_1_Node_4</title>
<ellipse fill="none" stroke="#000000" cx="797" cy="-219.6396" rx="34.7971" ry="21.4286"/>
<text text-anchor="middle" x="797" y="-214.6396" font-family="Times,serif" font-size="20.00" fill="#000000">0.0</text>
</g>
<!-- SG_1_Node_1&#45;&gt;SG_1_Node_4 -->
<g id="edge13" class="edge">
<title>SG_1_Node_1&#45;&gt;SG_1_Node_4</title>
<path fill="none" stroke="#000000" d="M863.3205,-446.6222C846.6052,-438.0148 829.5412,-426.0029 819,-409.8528 787.3922,-361.4269 788.582,-290.9846 792.5911,-250.8067"/>
<polygon fill="#000000" stroke="#000000" points="796.0772,-251.1254 793.712,-240.7979 789.1207,-250.3462 796.0772,-251.1254"/>
<text text-anchor="middle" x="865" y="-349.8528" font-family="Times,serif" font-size="20.00" fill="#000000">[NA]</text>
<text text-anchor="middle" x="865" y="-327.8528" font-family="Times,serif" font-size="20.00" fill="#000000">56 levels</text>
</g>
<!-- SG_1_Node_3 -->
<g id="node14" class="node">
<title>SG_1_Node_3</title>
<polygon fill="none" stroke="#000000" points="977.5,-237.6396 872.5,-237.6396 872.5,-201.6396 977.5,-201.6396 977.5,-237.6396"/>
<text text-anchor="middle" x="925" y="-214.6396" font-family="Times,serif" font-size="20.00" fill="#000000">Location</text>
</g>
<!-- SG_1_Node_1&#45;&gt;SG_1_Node_3 -->
<g id="edge14" class="edge">
<title>SG_1_Node_1&#45;&gt;SG_1_Node_3</title>
<path fill="none" stroke="#000000" d="M913.8824,-446.8217C915.9499,-404.5742 921.1203,-298.9192 923.6131,-247.9798"/>
<polygon fill="#000000" stroke="#000000" points="927.1233,-247.8563 924.1163,-237.6972 920.1316,-247.5141 927.1233,-247.8563"/>
<text text-anchor="middle" x="941.5" y="-393.8528" font-family="Times,serif" font-size="20.00" fill="#000000">301</text>
<text text-anchor="middle" x="941.5" y="-371.8528" font-family="Times,serif" font-size="20.00" fill="#000000">302</text>
<text text-anchor="middle" x="941.5" y="-349.8528" font-family="Times,serif" font-size="20.00" fill="#000000">303</text>
<text text-anchor="middle" x="941.5" y="-327.8528" font-family="Times,serif" font-size="20.00" fill="#000000">305</text>
<text text-anchor="middle" x="941.5" y="-305.8528" font-family="Times,serif" font-size="20.00" fill="#000000">307</text>
<text text-anchor="middle" x="941.5" y="-283.8528" font-family="Times,serif" font-size="20.00" fill="#000000">308</text>
</g>
<!-- SG_1_Node_5 -->
<g id="node15" class="node">
<title>SG_1_Node_5</title>
<ellipse fill="none" stroke="#000000" cx="1043" cy="-219.6396" rx="34.7971" ry="21.4286"/>
<text text-anchor="middle" x="1043" y="-214.6396" font-family="Times,serif" font-size="20.00" fill="#000000">0.0</text>
</g>
<!-- SG_1_Node_2&#45;&gt;SG_1_Node_5 -->
<g id="edge11" class="edge">
<title>SG_1_Node_2&#45;&gt;SG_1_Node_5</title>
<path fill="none" stroke="#000000" d="M1070.638,-446.5231C1069.2673,-435.8298 1067.5173,-422.0798 1066,-409.8528 1059.0839,-354.1199 1051.2864,-289.1663 1046.7782,-251.3952"/>
<polygon fill="#000000" stroke="#000000" points="1050.2029,-250.5546 1045.5433,-241.0394 1043.2521,-251.3835 1050.2029,-250.5546"/>
<text text-anchor="middle" x="1085.5" y="-371.8528" font-family="Times,serif" font-size="20.00" fill="#000000">100</text>
<text text-anchor="middle" x="1085.5" y="-349.8528" font-family="Times,serif" font-size="20.00" fill="#000000">102</text>
<text text-anchor="middle" x="1085.5" y="-327.8528" font-family="Times,serif" font-size="20.00" fill="#000000">103</text>
<text text-anchor="middle" x="1085.5" y="-305.8528" font-family="Times,serif" font-size="20.00" fill="#000000">407</text>
</g>
<!-- SG_1_Node_6 -->
<g id="node16" class="node">
<title>SG_1_Node_6</title>
<ellipse fill="none" stroke="#000000" cx="1130" cy="-219.6396" rx="34.7971" ry="21.4286"/>
<text text-anchor="middle" x="1130" y="-214.6396" font-family="Times,serif" font-size="20.00" fill="#000000">1.0</text>
</g>
<!-- SG_1_Node_2&#45;&gt;SG_1_Node_6 -->
<g id="edge12" class="edge">
<title>SG_1_Node_2&#45;&gt;SG_1_Node_6</title>
<path fill="none" stroke="#000000" d="M1086.2215,-446.4049C1092.9304,-436.1266 1100.5765,-422.8174 1105,-409.8528 1123.3352,-356.1152 1128.3371,-289.5991 1129.6328,-251.1524"/>
<polygon fill="#000000" stroke="#000000" points="1133.1333,-251.1786 1129.908,-241.0867 1126.1359,-250.9873 1133.1333,-251.1786"/>
<text text-anchor="middle" x="1174" y="-349.8528" font-family="Times,serif" font-size="20.00" fill="#000000">[NA]</text>
<text text-anchor="middle" x="1174" y="-327.8528" font-family="Times,serif" font-size="20.00" fill="#000000">58 levels</text>
</g>
<!-- SG_1_Node_7 -->
<g id="node17" class="node">
<title>SG_1_Node_7</title>
<ellipse fill="none" stroke="#000000" cx="875" cy="-37.2132" rx="34.7971" ry="21.4286"/>
<text text-anchor="middle" x="875" y="-32.2132" font-family="Times,serif" font-size="20.00" fill="#000000">0.0</text>
</g>
<!-- SG_1_Node_3&#45;&gt;SG_1_Node_7 -->
<g id="edge15" class="edge">
<title>SG_1_Node_3&#45;&gt;SG_1_Node_7</title>
<path fill="none" stroke="#000000" d="M910.9109,-201.57C903.1134,-190.5814 894.0113,-175.913 889,-161.4264 878.5088,-131.0989 875.4665,-94.3625 874.7682,-68.7404"/>
<polygon fill="#000000" stroke="#000000" points="878.2636,-68.4313 874.5975,-58.491 871.2646,-68.5479 878.2636,-68.4313"/>
<text text-anchor="middle" x="921" y="-123.4264" font-family="Times,serif" font-size="20.00" fill="#000000">empty</text>
</g>
<!-- SG_1_Node_8 -->
<g id="node18" class="node">
<title>SG_1_Node_8</title>
<ellipse fill="none" stroke="#000000" cx="975" cy="-37.2132" rx="34.7971" ry="21.4286"/>
<text text-anchor="middle" x="975" y="-32.2132" font-family="Times,serif" font-size="20.00" fill="#000000">1.0</text>
</g>
<!-- SG_1_Node_3&#45;&gt;SG_1_Node_8 -->
<g id="edge16" class="edge">
<title>SG_1_Node_3&#45;&gt;SG_1_Node_8</title>
<path fill="none" stroke="#000000" d="M935.2842,-201.5575C941.2666,-190.3251 948.493,-175.4093 953,-161.4264 962.8764,-130.7852 968.6644,-94.377 971.8027,-68.9281"/>
<polygon fill="#000000" stroke="#000000" points="975.3087,-69.0791 972.9897,-58.7412 968.3558,-68.2689 975.3087,-69.0791"/>
<text text-anchor="middle" x="1105" y="-145.4264" font-family="Times,serif" font-size="20.00" fill="#000000">[NA]</text>
<text text-anchor="middle" x="1105" y="-123.4264" font-family="Times,serif" font-size="20.00" fill="#000000">/</text>
<text text-anchor="middle" x="1105" y="-101.4264" font-family="Times,serif" font-size="20.00" fill="#000000">http://localhost:8000/echo/</text>
</g>
</g>
</svg>
