<?xml version="1.0" encoding="UTF-8" standalone="no"?>
<!DOCTYPE svg PUBLIC "-//W3C//DTD SVG 1.1//EN"
 "http://www.w3.org/Graphics/SVG/1.1/DTD/svg11.dtd">
<!-- Generated by graphviz version 2.40.1 (20161225.0304)
 -->
<!-- Title: G Pages: 1 -->
<svg width="4410pt" height="713pt"
 viewBox="0.00 0.00 4410.00 712.85" xmlns="http://www.w3.org/2000/svg" xmlns:xlink="http://www.w3.org/1999/xlink">
<g id="graph0" class="graph" transform="scale(1 1) rotate(0) translate(4 708.8528)">
<title>G</title>
<polygon fill="#ffffff" stroke="transparent" points="-4,4 -4,-708.8528 4406,-708.8528 4406,4 -4,4"/>
<g id="clust1" class="cluster">
<title>cluster_0</title>
<polygon fill="none" stroke="#000000" points="8,-8 8,-696.8528 472,-696.8528 472,-8 8,-8"/>
<text text-anchor="middle" x="240" y="-660.8528" font-family="Times,serif" font-size="40.00" fill="#000000">Tree 0, Class uncalled</text>
</g>
<g id="clust6" class="cluster">
<title>cluster_1</title>
<polygon fill="none" stroke="#000000" points="480,-8 480,-696.8528 4394,-696.8528 4394,-8 480,-8"/>
<text text-anchor="middle" x="2437" y="-660.8528" font-family="Times,serif" font-size="40.00" fill="#000000">Tree 0, Class {&#39;code&#39;: 18, &#39;name&#39;: &#39;SecurityError&#39;, &#39;message&#39;: &#39;Blocked a frame with origin http://localhost:8001 from accessing a cross&#45;origin frame. Protocols, domains, and ports must match.&#39;}</text>
</g>
<!-- SG_0_Node_0 -->
<g id="node1" class="node">
<title>SG_0_Node_0</title>
<polygon fill="none" stroke="#000000" points="285.5,-636.8528 64.5,-636.8528 64.5,-600.8528 285.5,-600.8528 285.5,-636.8528"/>
<text text-anchor="middle" x="175" y="-613.8528" font-family="Times,serif" font-size="20.00" fill="#000000">Content&#45;Disposition</text>
</g>
<!-- SG_0_Node_1 -->
<g id="node2" class="node">
<title>SG_0_Node_1</title>
<polygon fill="none" stroke="#000000" points="225,-482.8528 83,-482.8528 83,-446.8528 225,-446.8528 225,-482.8528"/>
<text text-anchor="middle" x="154" y="-459.8528" font-family="Times,serif" font-size="20.00" fill="#000000">Status&#45;Code</text>
</g>
<!-- SG_0_Node_0&#45;&gt;SG_0_Node_1 -->
<g id="edge1" class="edge">
<title>SG_0_Node_0&#45;&gt;SG_0_Node_1</title>
<path fill="none" stroke="#000000" d="M172.5086,-600.5822C168.8932,-574.0695 162.1591,-524.6859 157.8873,-493.3599"/>
<polygon fill="#000000" stroke="#000000" points="161.3073,-492.535 156.4882,-483.0996 154.3715,-493.4808 161.3073,-492.535"/>
<text text-anchor="middle" x="199" y="-536.8528" font-family="Times,serif" font-size="20.00" fill="#000000">empty</text>
</g>
<!-- SG_0_Node_2 -->
<g id="node3" class="node">
<title>SG_0_Node_2</title>
<polygon fill="none" stroke="#000000" points="385,-482.8528 243,-482.8528 243,-446.8528 385,-446.8528 385,-482.8528"/>
<text text-anchor="middle" x="314" y="-459.8528" font-family="Times,serif" font-size="20.00" fill="#000000">Status&#45;Code</text>
</g>
<!-- SG_0_Node_0&#45;&gt;SG_0_Node_2 -->
<g id="edge2" class="edge">
<title>SG_0_Node_0&#45;&gt;SG_0_Node_2</title>
<path fill="none" stroke="#000000" d="M196.3021,-600.7758C208.1233,-590.3932 222.8481,-576.8662 235,-563.8528 256.7985,-540.509 279.2927,-511.7845 294.6758,-491.3001"/>
<polygon fill="#000000" stroke="#000000" points="297.643,-493.1756 300.8104,-483.0653 292.0295,-488.9937 297.643,-493.1756"/>
<text text-anchor="middle" x="331" y="-547.8528" font-family="Times,serif" font-size="20.00" fill="#000000">[NA]</text>
<text text-anchor="middle" x="331" y="-525.8528" font-family="Times,serif" font-size="20.00" fill="#000000">attachment</text>
</g>
<!-- SG_0_Node_4 -->
<g id="node4" class="node">
<title>SG_0_Node_4</title>
<ellipse fill="none" stroke="#000000" cx="54" cy="-219.6396" rx="34.7971" ry="21.4286"/>
<text text-anchor="middle" x="54" y="-214.6396" font-family="Times,serif" font-size="20.00" fill="#000000">0.0</text>
</g>
<!-- SG_0_Node_1&#45;&gt;SG_0_Node_4 -->
<g id="edge7" class="edge">
<title>SG_0_Node_1&#45;&gt;SG_0_Node_4</title>
<path fill="none" stroke="#000000" d="M106.3299,-446.7609C90.1097,-438.1233 73.6548,-426.0554 64,-409.8528 34.6313,-360.5666 40.477,-290.7193 47.2953,-250.8175"/>
<polygon fill="#000000" stroke="#000000" points="50.7575,-251.3417 49.1221,-240.8738 43.8727,-250.0768 50.7575,-251.3417"/>
<text text-anchor="middle" x="110" y="-349.8528" font-family="Times,serif" font-size="20.00" fill="#000000">[NA]</text>
<text text-anchor="middle" x="110" y="-327.8528" font-family="Times,serif" font-size="20.00" fill="#000000">58 levels</text>
</g>
<!-- SG_0_Node_5 -->
<g id="node5" class="node">
<title>SG_0_Node_5</title>
<ellipse fill="none" stroke="#000000" cx="182" cy="-219.6396" rx="34.7971" ry="21.4286"/>
<text text-anchor="middle" x="182" y="-214.6396" font-family="Times,serif" font-size="20.00" fill="#000000">1.0</text>
</g>
<!-- SG_0_Node_1&#45;&gt;SG_0_Node_5 -->
<g id="edge8" class="edge">
<title>SG_0_Node_1&#45;&gt;SG_0_Node_5</title>
<path fill="none" stroke="#000000" d="M156.0589,-446.8217C160.7851,-405.4318 172.4605,-303.1826 178.4021,-251.1486"/>
<polygon fill="#000000" stroke="#000000" points="181.8871,-251.4781 179.5443,-241.1455 174.9323,-250.6839 181.8871,-251.4781"/>
<text text-anchor="middle" x="194.5" y="-371.8528" font-family="Times,serif" font-size="20.00" fill="#000000">100</text>
<text text-anchor="middle" x="194.5" y="-349.8528" font-family="Times,serif" font-size="20.00" fill="#000000">102</text>
<text text-anchor="middle" x="194.5" y="-327.8528" font-family="Times,serif" font-size="20.00" fill="#000000">103</text>
<text text-anchor="middle" x="194.5" y="-305.8528" font-family="Times,serif" font-size="20.00" fill="#000000">407</text>
</g>
<!-- SG_0_Node_3 -->
<g id="node6" class="node">
<title>SG_0_Node_3</title>
<polygon fill="none" stroke="#000000" points="341.5,-237.6396 236.5,-237.6396 236.5,-201.6396 341.5,-201.6396 341.5,-237.6396"/>
<text text-anchor="middle" x="289" y="-214.6396" font-family="Times,serif" font-size="20.00" fill="#000000">Location</text>
</g>
<!-- SG_0_Node_2&#45;&gt;SG_0_Node_3 -->
<g id="edge3" class="edge">
<title>SG_0_Node_2&#45;&gt;SG_0_Node_3</title>
<path fill="none" stroke="#000000" d="M312.1617,-446.8217C307.8454,-404.4856 297.0375,-298.476 291.8568,-247.6602"/>
<polygon fill="#000000" stroke="#000000" points="295.3373,-247.2906 290.841,-237.6972 288.3734,-248.0006 295.3373,-247.2906"/>
<text text-anchor="middle" x="327.5" y="-393.8528" font-family="Times,serif" font-size="20.00" fill="#000000">301</text>
<text text-anchor="middle" x="327.5" y="-371.8528" font-family="Times,serif" font-size="20.00" fill="#000000">302</text>
<text text-anchor="middle" x="327.5" y="-349.8528" font-family="Times,serif" font-size="20.00" fill="#000000">303</text>
<text text-anchor="middle" x="327.5" y="-327.8528" font-family="Times,serif" font-size="20.00" fill="#000000">305</text>
<text text-anchor="middle" x="327.5" y="-305.8528" font-family="Times,serif" font-size="20.00" fill="#000000">307</text>
<text text-anchor="middle" x="327.5" y="-283.8528" font-family="Times,serif" font-size="20.00" fill="#000000">308</text>
</g>
<!-- SG_0_Node_6 -->
<g id="node7" class="node">
<title>SG_0_Node_6</title>
<ellipse fill="none" stroke="#000000" cx="394" cy="-219.6396" rx="34.7971" ry="21.4286"/>
<text text-anchor="middle" x="394" y="-214.6396" font-family="Times,serif" font-size="20.00" fill="#000000">1.0</text>
</g>
<!-- SG_0_Node_2&#45;&gt;SG_0_Node_6 -->
<g id="edge4" class="edge">
<title>SG_0_Node_2&#45;&gt;SG_0_Node_6</title>
<path fill="none" stroke="#000000" d="M327.9659,-446.3766C335.1587,-436.0901 343.541,-422.782 349,-409.8528 361.0315,-381.3573 378.747,-296.9887 387.95,-250.7725"/>
<polygon fill="#000000" stroke="#000000" points="391.4331,-251.2004 389.939,-240.7114 384.566,-249.8428 391.4331,-251.2004"/>
<text text-anchor="middle" x="428" y="-349.8528" font-family="Times,serif" font-size="20.00" fill="#000000">[NA]</text>
<text text-anchor="middle" x="428" y="-327.8528" font-family="Times,serif" font-size="20.00" fill="#000000">56 levels</text>
</g>
<!-- SG_0_Node_7 -->
<g id="node8" class="node">
<title>SG_0_Node_7</title>
<ellipse fill="none" stroke="#000000" cx="70" cy="-37.2132" rx="34.7971" ry="21.4286"/>
<text text-anchor="middle" x="70" y="-32.2132" font-family="Times,serif" font-size="20.00" fill="#000000">0.0</text>
</g>
<!-- SG_0_Node_3&#45;&gt;SG_0_Node_7 -->
<g id="edge5" class="edge">
<title>SG_0_Node_3&#45;&gt;SG_0_Node_7</title>
<path fill="none" stroke="#000000" d="M236.5185,-201.5662C232.9698,-200.4684 229.4395,-199.4111 226,-198.4264 157.4954,-178.814 114.1914,-217.325 70,-161.4264 49.3656,-135.3255 53.6036,-95.5674 60.2283,-68.095"/>
<polygon fill="#000000" stroke="#000000" points="63.6664,-68.7839 62.8373,-58.2215 56.8987,-66.9955 63.6664,-68.7839"/>
<text text-anchor="middle" x="207" y="-145.4264" font-family="Times,serif" font-size="20.00" fill="#000000">[NA]</text>
<text text-anchor="middle" x="207" y="-123.4264" font-family="Times,serif" font-size="20.00" fill="#000000">/</text>
<text text-anchor="middle" x="207" y="-101.4264" font-family="Times,serif" font-size="20.00" fill="#000000">http://localhost:8000/echo/</text>
</g>
<!-- SG_0_Node_8 -->
<g id="node9" class="node">
<title>SG_0_Node_8</title>
<ellipse fill="none" stroke="#000000" cx="380" cy="-37.2132" rx="34.7971" ry="21.4286"/>
<text text-anchor="middle" x="380" y="-32.2132" font-family="Times,serif" font-size="20.00" fill="#000000">1.0</text>
</g>
<!-- SG_0_Node_3&#45;&gt;SG_0_Node_8 -->
<g id="edge6" class="edge">
<title>SG_0_Node_3&#45;&gt;SG_0_Node_8</title>
<path fill="none" stroke="#000000" d="M312.7846,-201.5047C324.9806,-191.0334 339.1012,-176.8921 348,-161.4264 364.594,-132.5868 372.7185,-95.0988 376.6073,-68.8819"/>
<polygon fill="#000000" stroke="#000000" points="380.1071,-69.1195 377.9845,-58.7395 373.1707,-68.1776 380.1071,-69.1195"/>
<text text-anchor="middle" x="403" y="-123.4264" font-family="Times,serif" font-size="20.00" fill="#000000">empty</text>
</g>
<!-- SG_1_Node_0 -->
<g id="node10" class="node">
<title>SG_1_Node_0</title>
<polygon fill="none" stroke="#000000" points="784.5,-636.8528 563.5,-636.8528 563.5,-600.8528 784.5,-600.8528 784.5,-636.8528"/>
<text text-anchor="middle" x="674" y="-613.8528" font-family="Times,serif" font-size="20.00" fill="#000000">Content&#45;Disposition</text>
</g>
<!-- SG_1_Node_1 -->
<g id="node11" class="node">
<title>SG_1_Node_1</title>
<polygon fill="none" stroke="#000000" points="735,-482.8528 593,-482.8528 593,-446.8528 735,-446.8528 735,-482.8528"/>
<text text-anchor="middle" x="664" y="-459.8528" font-family="Times,serif" font-size="20.00" fill="#000000">Status&#45;Code</text>
</g>
<!-- SG_1_Node_0&#45;&gt;SG_1_Node_1 -->
<g id="edge9" class="edge">
<title>SG_1_Node_0&#45;&gt;SG_1_Node_1</title>
<path fill="none" stroke="#000000" d="M672.8136,-600.5822C671.092,-574.0695 667.8853,-524.6859 665.8511,-493.3599"/>
<polygon fill="#000000" stroke="#000000" points="669.3256,-492.8518 665.1849,-483.0996 662.3403,-493.3054 669.3256,-492.8518"/>
<text text-anchor="middle" x="729" y="-547.8528" font-family="Times,serif" font-size="20.00" fill="#000000">[NA]</text>
<text text-anchor="middle" x="729" y="-525.8528" font-family="Times,serif" font-size="20.00" fill="#000000">attachment</text>
</g>
<!-- SG_1_Node_2 -->
<g id="node12" class="node">
<title>SG_1_Node_2</title>
<polygon fill="none" stroke="#000000" points="895,-482.8528 753,-482.8528 753,-446.8528 895,-446.8528 895,-482.8528"/>
<text text-anchor="middle" x="824" y="-459.8528" font-family="Times,serif" font-size="20.00" fill="#000000">Status&#45;Code</text>
</g>
<!-- SG_1_Node_0&#45;&gt;SG_1_Node_2 -->
<g id="edge10" class="edge">
<title>SG_1_Node_0&#45;&gt;SG_1_Node_2</title>
<path fill="none" stroke="#000000" d="M736.6028,-600.831C756.6045,-592.4027 777.3342,-580.4522 792,-563.8528 809.4725,-544.0767 817.4242,-514.6305 821.0314,-492.9918"/>
<polygon fill="#000000" stroke="#000000" points="824.4982,-493.4729 822.4759,-483.0729 817.5712,-492.4641 824.4982,-493.4729"/>
<text text-anchor="middle" x="846" y="-536.8528" font-family="Times,serif" font-size="20.00" fill="#000000">empty</text>
</g>
<!-- SG_1_Node_4 -->
<g id="node13" class="node">
<title>SG_1_Node_4</title>
<ellipse fill="none" stroke="#000000" cx="548" cy="-219.6396" rx="34.7971" ry="21.4286"/>
<text text-anchor="middle" x="548" y="-214.6396" font-family="Times,serif" font-size="20.00" fill="#000000">0.0</text>
</g>
<!-- SG_1_Node_1&#45;&gt;SG_1_Node_4 -->
<g id="edge13" class="edge">
<title>SG_1_Node_1&#45;&gt;SG_1_Node_4</title>
<path fill="none" stroke="#000000" d="M614.3205,-446.6222C597.6052,-438.0148 580.5412,-426.0029 570,-409.8528 538.3922,-361.4269 539.582,-290.9846 543.5911,-250.8067"/>
<polygon fill="#000000" stroke="#000000" points="547.0772,-251.1254 544.712,-240.7979 540.1207,-250.3462 547.0772,-251.1254"/>
<text text-anchor="middle" x="616" y="-349.8528" font-family="Times,serif" font-size="20.00" fill="#000000">[NA]</text>
<text text-anchor="middle" x="616" y="-327.8528" font-family="Times,serif" font-size="20.00" fill="#000000">56 levels</text>
</g>
<!-- SG_1_Node_3 -->
<g id="node14" class="node">
<title>SG_1_Node_3</title>
<polygon fill="none" stroke="#000000" points="728.5,-237.6396 623.5,-237.6396 623.5,-201.6396 728.5,-201.6396 728.5,-237.6396"/>
<text text-anchor="middle" x="676" y="-214.6396" font-family="Times,serif" font-size="20.00" fill="#000000">Location</text>
</g>
<!-- SG_1_Node_1&#45;&gt;SG_1_Node_3 -->
<g id="edge14" class="edge">
<title>SG_1_Node_1&#45;&gt;SG_1_Node_3</title>
<path fill="none" stroke="#000000" d="M664.8824,-446.8217C666.9499,-404.5742 672.1203,-298.9192 674.6131,-247.9798"/>
<polygon fill="#000000" stroke="#000000" points="678.1233,-247.8563 675.1163,-237.6972 671.1316,-247.5141 678.1233,-247.8563"/>
<text text-anchor="middle" x="692.5" y="-393.8528" font-family="Times,serif" font-size="20.00" fill="#000000">301</text>
<text text-anchor="middle" x="692.5" y="-371.8528" font-family="Times,serif" font-size="20.00" fill="#000000">302</text>
<text text-anchor="middle" x="692.5" y="-349.8528" font-family="Times,serif" font-size="20.00" fill="#000000">303</text>
<text text-anchor="middle" x="692.5" y="-327.8528" font-family="Times,serif" font-size="20.00" fill="#000000">305</text>
<text text-anchor="middle" x="692.5" y="-305.8528" font-family="Times,serif" font-size="20.00" fill="#000000">307</text>
<text text-anchor="middle" x="692.5" y="-283.8528" font-family="Times,serif" font-size="20.00" fill="#000000">308</text>
</g>
<!-- SG_1_Node_5 -->
<g id="node15" class="node">
<title>SG_1_Node_5</title>
<ellipse fill="none" stroke="#000000" cx="794" cy="-219.6396" rx="34.7971" ry="21.4286"/>
<text text-anchor="middle" x="794" y="-214.6396" font-family="Times,serif" font-size="20.00" fill="#000000">0.0</text>
</g>
<!-- SG_1_Node_2&#45;&gt;SG_1_Node_5 -->
<g id="edge11" class="edge">
<title>SG_1_Node_2&#45;&gt;SG_1_Node_5</title>
<path fill="none" stroke="#000000" d="M821.638,-446.5231C820.2673,-435.8298 818.5173,-422.0798 817,-409.8528 810.0839,-354.1199 802.2864,-289.1663 797.7782,-251.3952"/>
<polygon fill="#000000" stroke="#000000" points="801.2029,-250.5546 796.5433,-241.0394 794.2521,-251.3835 801.2029,-250.5546"/>
<text text-anchor="middle" x="836.5" y="-371.8528" font-family="Times,serif" font-size="20.00" fill="#000000">100</text>
<text text-anchor="middle" x="836.5" y="-349.8528" font-family="Times,serif" font-size="20.00" fill="#000000">102</text>
<text text-anchor="middle" x="836.5" y="-327.8528" font-family="Times,serif" font-size="20.00" fill="#000000">103</text>
<text text-anchor="middle" x="836.5" y="-305.8528" font-family="Times,serif" font-size="20.00" fill="#000000">407</text>
</g>
<!-- SG_1_Node_6 -->
<g id="node16" class="node">
<title>SG_1_Node_6</title>
<ellipse fill="none" stroke="#000000" cx="881" cy="-219.6396" rx="34.7971" ry="21.4286"/>
<text text-anchor="middle" x="881" y="-214.6396" font-family="Times,serif" font-size="20.00" fill="#000000">1.0</text>
</g>
<!-- SG_1_Node_2&#45;&gt;SG_1_Node_6 -->
<g id="edge12" class="edge">
<title>SG_1_Node_2&#45;&gt;SG_1_Node_6</title>
<path fill="none" stroke="#000000" d="M837.2215,-446.4049C843.9304,-436.1266 851.5765,-422.8174 856,-409.8528 874.3352,-356.1152 879.3371,-289.5991 880.6328,-251.1524"/>
<polygon fill="#000000" stroke="#000000" points="884.1333,-251.1786 880.908,-241.0867 877.1359,-250.9873 884.1333,-251.1786"/>
<text text-anchor="middle" x="925" y="-349.8528" font-family="Times,serif" font-size="20.00" fill="#000000">[NA]</text>
<text text-anchor="middle" x="925" y="-327.8528" font-family="Times,serif" font-size="20.00" fill="#000000">58 levels</text>
</g>
<!-- SG_1_Node_7 -->
<g id="node17" class="node">
<title>SG_1_Node_7</title>
<ellipse fill="none" stroke="#000000" cx="626" cy="-37.2132" rx="34.7971" ry="21.4286"/>
<text text-anchor="middle" x="626" y="-32.2132" font-family="Times,serif" font-size="20.00" fill="#000000">0.0</text>
</g>
<!-- SG_1_Node_3&#45;&gt;SG_1_Node_7 -->
<g id="edge15" class="edge">
<title>SG_1_Node_3&#45;&gt;SG_1_Node_7</title>
<path fill="none" stroke="#000000" d="M661.9109,-201.57C654.1134,-190.5814 645.0113,-175.913 640,-161.4264 629.5088,-131.0989 626.4665,-94.3625 625.7682,-68.7404"/>
<polygon fill="#000000" stroke="#000000" points="629.2636,-68.4313 625.5975,-58.491 622.2646,-68.5479 629.2636,-68.4313"/>
<text text-anchor="middle" x="672" y="-123.4264" font-family="Times,serif" font-size="20.00" fill="#000000">empty</text>
</g>
<!-- SG_1_Node_8 -->
<g id="node18" class="node">
<title>SG_1_Node_8</title>
<ellipse fill="none" stroke="#000000" cx="726" cy="-37.2132" rx="34.7971" ry="21.4286"/>
<text text-anchor="middle" x="726" y="-32.2132" font-family="Times,serif" font-size="20.00" fill="#000000">1.0</text>
</g>
<!-- SG_1_Node_3&#45;&gt;SG_1_Node_8 -->
<g id="edge16" class="edge">
<title>SG_1_Node_3&#45;&gt;SG_1_Node_8</title>
<path fill="none" stroke="#000000" d="M686.2842,-201.5575C692.2666,-190.3251 699.493,-175.4093 704,-161.4264 713.8764,-130.7852 719.6644,-94.377 722.8027,-68.9281"/>
<polygon fill="#000000" stroke="#000000" points="726.3087,-69.0791 723.9897,-58.7412 719.3558,-68.2689 726.3087,-69.0791"/>
<text text-anchor="middle" x="856" y="-145.4264" font-family="Times,serif" font-size="20.00" fill="#000000">[NA]</text>
<text text-anchor="middle" x="856" y="-123.4264" font-family="Times,serif" font-size="20.00" fill="#000000">/</text>
<text text-anchor="middle" x="856" y="-101.4264" font-family="Times,serif" font-size="20.00" fill="#000000">http://localhost:8000/echo/</text>
</g>
</g>
</svg>
