<?xml version="1.0" encoding="UTF-8" standalone="no"?>
<!DOCTYPE svg PUBLIC "-//W3C//DTD SVG 1.1//EN"
 "http://www.w3.org/Graphics/SVG/1.1/DTD/svg11.dtd">
<!-- Generated by graphviz version 2.40.1 (20161225.0304)
 -->
<!-- Title: G Pages: 1 -->
<svg width="4097pt" height="2269pt"
 viewBox="0.00 0.00 4097.00 2269.41" xmlns="http://www.w3.org/2000/svg" xmlns:xlink="http://www.w3.org/1999/xlink">
<g id="graph0" class="graph" transform="scale(1 1) rotate(0) translate(4 2265.4113)">
<title>G</title>
<polygon fill="#ffffff" stroke="transparent" points="-4,4 -4,-2265.4113 4093,-2265.4113 4093,4 -4,4"/>
<g id="clust1" class="cluster">
<title>cluster_0</title>
<polygon fill="none" stroke="#000000" points="8,-1338.132 8,-2253.4113 332,-2253.4113 332,-1338.132 8,-1338.132"/>
<text text-anchor="middle" x="170" y="-2217.4113" font-family="Times,serif" font-size="40.00" fill="#000000">Tree 0, Class </text>
</g>
<g id="clust6" class="cluster">
<title>cluster_1</title>
<polygon fill="none" stroke="#000000" points="340,-8 340,-2253.4113 3378,-2253.4113 3378,-8 340,-8"/>
<text text-anchor="middle" x="1859" y="-2217.4113" font-family="Times,serif" font-size="40.00" fill="#000000">Tree 0, Class {&#39;code&#39;: 18, &#39;name&#39;: &#39;SecurityError&#39;, &#39;message&#39;: &#39;Blocked a frame with origin http://localhost:8001 from accessing a cross&#45;origin frame.&#39;}</text>
</g>
<g id="clust16" class="cluster">
<title>cluster_2</title>
<polygon fill="none" stroke="#000000" points="3386,-168.4264 3386,-2253.4113 4039,-2253.4113 4039,-168.4264 3386,-168.4264"/>
<text text-anchor="middle" x="3712.5" y="-2217.4113" font-family="Times,serif" font-size="40.00" fill="#000000">Tree 0, Class {}</text>
</g>
<!-- SG_0_Node_0 -->
<g id="node1" class="node">
<title>SG_0_Node_0</title>
<polygon fill="none" stroke="#000000" points="217,-2193.4113 75,-2193.4113 75,-2157.4113 217,-2157.4113 217,-2193.4113"/>
<text text-anchor="middle" x="146" y="-2170.4113" font-family="Times,serif" font-size="20.00" fill="#000000">Status&#45;Code</text>
</g>
<!-- SG_0_Node_3 -->
<g id="node2" class="node">
<title>SG_0_Node_3</title>
<ellipse fill="none" stroke="#000000" cx="51" cy="-1952.1981" rx="34.7971" ry="21.4286"/>
<text text-anchor="middle" x="51" y="-1947.1981" font-family="Times,serif" font-size="20.00" fill="#000000">0.0</text>
</g>
<!-- SG_0_Node_0&#45;&gt;SG_0_Node_3 -->
<g id="edge1" class="edge">
<title>SG_0_Node_0&#45;&gt;SG_0_Node_3</title>
<path fill="none" stroke="#000000" d="M105.9081,-2157.278C90.8551,-2148.3733 75.1821,-2136.1286 66,-2120.4113 41.2712,-2078.0821 42.4461,-2019.2886 46.2365,-1983.5949"/>
<polygon fill="#000000" stroke="#000000" points="49.755,-1983.6487 47.471,-1973.303 42.8049,-1982.8149 49.755,-1983.6487"/>
<text text-anchor="middle" x="112" y="-2071.4113" font-family="Times,serif" font-size="20.00" fill="#000000">[NA]</text>
<text text-anchor="middle" x="112" y="-2049.4113" font-family="Times,serif" font-size="20.00" fill="#000000">59 levels</text>
</g>
<!-- SG_0_Node_1 -->
<g id="node3" class="node">
<title>SG_0_Node_1</title>
<polygon fill="none" stroke="#000000" points="324.5,-1970.1981 103.5,-1970.1981 103.5,-1934.1981 324.5,-1934.1981 324.5,-1970.1981"/>
<text text-anchor="middle" x="214" y="-1947.1981" font-family="Times,serif" font-size="20.00" fill="#000000">Content&#45;Disposition</text>
</g>
<!-- SG_0_Node_0&#45;&gt;SG_0_Node_1 -->
<g id="edge2" class="edge">
<title>SG_0_Node_0&#45;&gt;SG_0_Node_1</title>
<path fill="none" stroke="#000000" d="M151.5647,-2157.1448C163.4489,-2118.1345 191.3731,-2026.4719 205.4985,-1980.1046"/>
<polygon fill="#000000" stroke="#000000" points="208.8876,-1980.9898 208.4538,-1970.4039 202.1914,-1978.9498 208.8876,-1980.9898"/>
<text text-anchor="middle" x="215.5" y="-2082.4113" font-family="Times,serif" font-size="20.00" fill="#000000">204</text>
<text text-anchor="middle" x="215.5" y="-2060.4113" font-family="Times,serif" font-size="20.00" fill="#000000">205</text>
<text text-anchor="middle" x="215.5" y="-2038.4113" font-family="Times,serif" font-size="20.00" fill="#000000">304</text>
</g>
<!-- SG_0_Node_2 -->
<g id="node4" class="node">
<title>SG_0_Node_2</title>
<polygon fill="none" stroke="#000000" points="167,-1633.7716 25,-1633.7716 25,-1597.7716 167,-1597.7716 167,-1633.7716"/>
<text text-anchor="middle" x="96" y="-1610.7716" font-family="Times,serif" font-size="20.00" fill="#000000">Status&#45;Code</text>
</g>
<!-- SG_0_Node_1&#45;&gt;SG_0_Node_2 -->
<g id="edge3" class="edge">
<title>SG_0_Node_1&#45;&gt;SG_0_Node_2</title>
<path fill="none" stroke="#000000" d="M148.3962,-1934.0661C128.7934,-1925.2641 109.4843,-1912.4485 98,-1893.9848 48.7312,-1814.7737 72.6604,-1696.7412 87.3867,-1643.5406"/>
<polygon fill="#000000" stroke="#000000" points="90.789,-1644.3732 90.1848,-1633.7956 84.0608,-1642.4412 90.789,-1644.3732"/>
<text text-anchor="middle" x="157" y="-1789.9848" font-family="Times,serif" font-size="20.00" fill="#000000">[NA]</text>
<text text-anchor="middle" x="157" y="-1767.9848" font-family="Times,serif" font-size="20.00" fill="#000000">attachment</text>
</g>
<!-- SG_0_Node_4 -->
<g id="node5" class="node">
<title>SG_0_Node_4</title>
<ellipse fill="none" stroke="#000000" cx="250" cy="-1615.7716" rx="34.7971" ry="21.4286"/>
<text text-anchor="middle" x="250" y="-1610.7716" font-family="Times,serif" font-size="20.00" fill="#000000">1.0</text>
</g>
<!-- SG_0_Node_1&#45;&gt;SG_0_Node_4 -->
<g id="edge4" class="edge">
<title>SG_0_Node_1&#45;&gt;SG_0_Node_4</title>
<path fill="none" stroke="#000000" d="M215.9355,-1934.1103C221.758,-1879.6984 239.1665,-1717.0124 246.5878,-1647.6591"/>
<polygon fill="#000000" stroke="#000000" points="250.1059,-1647.6762 247.6898,-1637.3606 243.1456,-1646.9314 250.1059,-1647.6762"/>
<text text-anchor="middle" x="275" y="-1778.9848" font-family="Times,serif" font-size="20.00" fill="#000000">empty</text>
</g>
<!-- SG_0_Node_5 -->
<g id="node6" class="node">
<title>SG_0_Node_5</title>
<ellipse fill="none" stroke="#000000" cx="73" cy="-1367.3452" rx="34.7971" ry="21.4286"/>
<text text-anchor="middle" x="73" y="-1362.3452" font-family="Times,serif" font-size="20.00" fill="#000000">0.0</text>
</g>
<!-- SG_0_Node_2&#45;&gt;SG_0_Node_5 -->
<g id="edge5" class="edge">
<title>SG_0_Node_2&#45;&gt;SG_0_Node_5</title>
<path fill="none" stroke="#000000" d="M94.3088,-1597.5043C90.4168,-1555.4672 80.788,-1451.4646 75.9189,-1398.8727"/>
<polygon fill="#000000" stroke="#000000" points="79.3908,-1398.4068 74.9838,-1388.7721 72.4206,-1399.0522 79.3908,-1398.4068"/>
<text text-anchor="middle" x="109.5" y="-1497.5584" font-family="Times,serif" font-size="20.00" fill="#000000">204</text>
<text text-anchor="middle" x="109.5" y="-1475.5584" font-family="Times,serif" font-size="20.00" fill="#000000">205</text>
</g>
<!-- SG_0_Node_6 -->
<g id="node7" class="node">
<title>SG_0_Node_6</title>
<ellipse fill="none" stroke="#000000" cx="160" cy="-1367.3452" rx="34.7971" ry="21.4286"/>
<text text-anchor="middle" x="160" y="-1362.3452" font-family="Times,serif" font-size="20.00" fill="#000000">1.0</text>
</g>
<!-- SG_0_Node_2&#45;&gt;SG_0_Node_6 -->
<g id="edge6" class="edge">
<title>SG_0_Node_2&#45;&gt;SG_0_Node_6</title>
<path fill="none" stroke="#000000" d="M110.3338,-1597.7061C118.2975,-1586.719 127.6508,-1572.0506 133,-1557.5584 152.7416,-1504.0734 158.1575,-1437.2117 159.577,-1398.6808"/>
<polygon fill="#000000" stroke="#000000" points="163.0779,-1398.6997 159.88,-1388.599 156.0811,-1398.4893 163.0779,-1398.6997"/>
<text text-anchor="middle" x="176.5" y="-1486.5584" font-family="Times,serif" font-size="20.00" fill="#000000">304</text>
</g>
<!-- SG_1_Node_0 -->
<g id="node8" class="node">
<title>SG_1_Node_0</title>
<polygon fill="none" stroke="#000000" points="672,-2193.4113 530,-2193.4113 530,-2157.4113 672,-2157.4113 672,-2193.4113"/>
<text text-anchor="middle" x="601" y="-2170.4113" font-family="Times,serif" font-size="20.00" fill="#000000">Status&#45;Code</text>
</g>
<!-- SG_1_Node_1 -->
<g id="node9" class="node">
<title>SG_1_Node_1</title>
<polygon fill="none" stroke="#000000" points="668,-1970.1981 370,-1970.1981 370,-1934.1981 668,-1934.1981 668,-1970.1981"/>
<text text-anchor="middle" x="519" y="-1947.1981" font-family="Times,serif" font-size="20.00" fill="#000000">Cross&#45;Origin&#45;Opener&#45;Policy</text>
</g>
<!-- SG_1_Node_0&#45;&gt;SG_1_Node_1 -->
<g id="edge7" class="edge">
<title>SG_1_Node_0&#45;&gt;SG_1_Node_1</title>
<path fill="none" stroke="#000000" d="M594.2896,-2157.1448C579.9286,-2118.0525 546.1438,-2026.0865 529.1446,-1979.8129"/>
<polygon fill="#000000" stroke="#000000" points="532.4218,-1978.5836 525.6881,-1970.4039 525.8512,-1980.9975 532.4218,-1978.5836"/>
<text text-anchor="middle" x="626" y="-2071.4113" font-family="Times,serif" font-size="20.00" fill="#000000">[NA]</text>
<text text-anchor="middle" x="626" y="-2049.4113" font-family="Times,serif" font-size="20.00" fill="#000000">57 levels</text>
</g>
<!-- SG_1_Node_8 -->
<g id="node10" class="node">
<title>SG_1_Node_8</title>
<ellipse fill="none" stroke="#000000" cx="721" cy="-1952.1981" rx="34.7971" ry="21.4286"/>
<text text-anchor="middle" x="721" y="-1947.1981" font-family="Times,serif" font-size="20.00" fill="#000000">1.0</text>
</g>
<!-- SG_1_Node_0&#45;&gt;SG_1_Node_8 -->
<g id="edge8" class="edge">
<title>SG_1_Node_0&#45;&gt;SG_1_Node_8</title>
<path fill="none" stroke="#000000" d="M635.4217,-2157.1985C649.882,-2147.9543 665.7018,-2135.4731 676,-2120.4113 704.5291,-2078.6855 714.9879,-2019.7072 718.8109,-1983.8127"/>
<polygon fill="#000000" stroke="#000000" points="722.333,-1983.7456 719.797,-1973.4588 715.3646,-1983.0819 722.333,-1983.7456"/>
<text text-anchor="middle" x="734.5" y="-2104.4113" font-family="Times,serif" font-size="20.00" fill="#000000">100</text>
<text text-anchor="middle" x="734.5" y="-2082.4113" font-family="Times,serif" font-size="20.00" fill="#000000">101</text>
<text text-anchor="middle" x="734.5" y="-2060.4113" font-family="Times,serif" font-size="20.00" fill="#000000">102</text>
<text text-anchor="middle" x="734.5" y="-2038.4113" font-family="Times,serif" font-size="20.00" fill="#000000">103</text>
<text text-anchor="middle" x="734.5" y="-2016.4113" font-family="Times,serif" font-size="20.00" fill="#000000">407</text>
</g>
<!-- SG_1_Node_9 -->
<g id="node11" class="node">
<title>SG_1_Node_9</title>
<ellipse fill="none" stroke="#000000" cx="405" cy="-1615.7716" rx="34.7971" ry="21.4286"/>
<text text-anchor="middle" x="405" y="-1610.7716" font-family="Times,serif" font-size="20.00" fill="#000000">0.0</text>
</g>
<!-- SG_1_Node_1&#45;&gt;SG_1_Node_9 -->
<g id="edge9" class="edge">
<title>SG_1_Node_1&#45;&gt;SG_1_Node_9</title>
<path fill="none" stroke="#000000" d="M455.0224,-1934.1363C435.5447,-1925.3115 416.3129,-1912.4642 405,-1893.9848 357.1422,-1815.8103 380.2372,-1700.6553 395.3903,-1646.3036"/>
<polygon fill="#000000" stroke="#000000" points="398.7868,-1647.1572 398.2,-1636.5787 392.0618,-1645.2142 398.7868,-1647.1572"/>
<text text-anchor="middle" x="466" y="-1778.9848" font-family="Times,serif" font-size="20.00" fill="#000000">same&#45;origin</text>
</g>
<!-- SG_1_Node_2 -->
<g id="node12" class="node">
<title>SG_1_Node_2</title>
<polygon fill="none" stroke="#000000" points="634,-1633.7716 492,-1633.7716 492,-1597.7716 634,-1597.7716 634,-1633.7716"/>
<text text-anchor="middle" x="563" y="-1610.7716" font-family="Times,serif" font-size="20.00" fill="#000000">Status&#45;Code</text>
</g>
<!-- SG_1_Node_1&#45;&gt;SG_1_Node_2 -->
<g id="edge10" class="edge">
<title>SG_1_Node_1&#45;&gt;SG_1_Node_2</title>
<path fill="none" stroke="#000000" d="M523.1446,-1934.181C525.6742,-1922.7193 528.8283,-1907.5361 531,-1893.9848 545.5499,-1803.1929 556.0666,-1694.708 560.5683,-1644.2234"/>
<polygon fill="#000000" stroke="#000000" points="564.071,-1644.3455 561.4614,-1634.0771 557.098,-1643.7317 564.071,-1644.3455"/>
<text text-anchor="middle" x="589" y="-1789.9848" font-family="Times,serif" font-size="20.00" fill="#000000">[NA]</text>
<text text-anchor="middle" x="589" y="-1767.9848" font-family="Times,serif" font-size="20.00" fill="#000000">empty</text>
</g>
<!-- SG_1_Node_3 -->
<g id="node13" class="node">
<title>SG_1_Node_3</title>
<polygon fill="none" stroke="#000000" points="620.5,-1385.3452 399.5,-1385.3452 399.5,-1349.3452 620.5,-1349.3452 620.5,-1385.3452"/>
<text text-anchor="middle" x="510" y="-1362.3452" font-family="Times,serif" font-size="20.00" fill="#000000">Content&#45;Disposition</text>
</g>
<!-- SG_1_Node_2&#45;&gt;SG_1_Node_3 -->
<g id="edge11" class="edge">
<title>SG_1_Node_2&#45;&gt;SG_1_Node_3</title>
<path fill="none" stroke="#000000" d="M558.9016,-1597.6914C556.3129,-1586.2051 552.9181,-1571.0184 550,-1557.5584 537.5384,-1500.0772 523.5038,-1432.6951 515.8146,-1395.5389"/>
<polygon fill="#000000" stroke="#000000" points="519.1826,-1394.5421 513.7306,-1385.4577 512.3276,-1395.9592 519.1826,-1394.5421"/>
<text text-anchor="middle" x="596" y="-1486.5584" font-family="Times,serif" font-size="20.00" fill="#000000">11 levels</text>
</g>
<!-- SG_1_Node_10 -->
<g id="node14" class="node">
<title>SG_1_Node_10</title>
<ellipse fill="none" stroke="#000000" cx="673" cy="-1367.3452" rx="34.7971" ry="21.4286"/>
<text text-anchor="middle" x="673" y="-1362.3452" font-family="Times,serif" font-size="20.00" fill="#000000">1.0</text>
</g>
<!-- SG_1_Node_2&#45;&gt;SG_1_Node_10 -->
<g id="edge12" class="edge">
<title>SG_1_Node_2&#45;&gt;SG_1_Node_10</title>
<path fill="none" stroke="#000000" d="M598.7909,-1597.7128C614.5064,-1587.9537 631.6931,-1574.4204 642,-1557.5584 672.1307,-1508.2649 675.7188,-1438.9327 674.8621,-1399.0188"/>
<polygon fill="#000000" stroke="#000000" points="678.3538,-1398.7016 674.5314,-1388.8203 671.3574,-1398.9286 678.3538,-1398.7016"/>
<text text-anchor="middle" x="720" y="-1497.5584" font-family="Times,serif" font-size="20.00" fill="#000000">[NA]</text>
<text text-anchor="middle" x="720" y="-1475.5584" font-family="Times,serif" font-size="20.00" fill="#000000">46 levels</text>
</g>
<!-- SG_1_Node_11 -->
<g id="node15" class="node">
<title>SG_1_Node_11</title>
<ellipse fill="none" stroke="#000000" cx="447" cy="-1074.9188" rx="34.7971" ry="21.4286"/>
<text text-anchor="middle" x="447" y="-1069.9188" font-family="Times,serif" font-size="20.00" fill="#000000">0.0</text>
</g>
<!-- SG_1_Node_3&#45;&gt;SG_1_Node_11 -->
<g id="edge13" class="edge">
<title>SG_1_Node_3&#45;&gt;SG_1_Node_11</title>
<path fill="none" stroke="#000000" d="M489.4466,-1349.2635C478.9461,-1338.7073 467.1201,-1324.4687 461,-1309.132 433.7573,-1240.8637 437.9636,-1152.4709 442.8196,-1106.2411"/>
<polygon fill="#000000" stroke="#000000" points="446.3052,-1106.565 443.9516,-1096.2349 439.3495,-1105.7781 446.3052,-1106.565"/>
<text text-anchor="middle" x="520" y="-1216.132" font-family="Times,serif" font-size="20.00" fill="#000000">attachment</text>
</g>
<!-- SG_1_Node_4 -->
<g id="node16" class="node">
<title>SG_1_Node_4</title>
<polygon fill="none" stroke="#000000" points="672,-1092.9188 530,-1092.9188 530,-1056.9188 672,-1056.9188 672,-1092.9188"/>
<text text-anchor="middle" x="601" y="-1069.9188" font-family="Times,serif" font-size="20.00" fill="#000000">Status&#45;Code</text>
</g>
<!-- SG_1_Node_3&#45;&gt;SG_1_Node_4 -->
<g id="edge14" class="edge">
<title>SG_1_Node_3&#45;&gt;SG_1_Node_4</title>
<path fill="none" stroke="#000000" d="M541.0637,-1349.1216C555.1004,-1339.1691 570.4299,-1325.5206 579,-1309.132 614.1294,-1241.954 609.8821,-1149.0605 604.8914,-1103.0605"/>
<polygon fill="#000000" stroke="#000000" points="608.3449,-1102.4595 603.6967,-1092.9388 601.3931,-1103.2801 608.3449,-1102.4595"/>
<text text-anchor="middle" x="640" y="-1227.132" font-family="Times,serif" font-size="20.00" fill="#000000">[NA]</text>
<text text-anchor="middle" x="640" y="-1205.132" font-family="Times,serif" font-size="20.00" fill="#000000">empty</text>
</g>
<!-- SG_1_Node_12 -->
<g id="node17" class="node">
<title>SG_1_Node_12</title>
<ellipse fill="none" stroke="#000000" cx="536" cy="-782.4924" rx="34.7971" ry="21.4286"/>
<text text-anchor="middle" x="536" y="-777.4924" font-family="Times,serif" font-size="20.00" fill="#000000">0.0</text>
</g>
<!-- SG_1_Node_4&#45;&gt;SG_1_Node_12 -->
<g id="edge15" class="edge">
<title>SG_1_Node_4&#45;&gt;SG_1_Node_12</title>
<path fill="none" stroke="#000000" d="M596.934,-1056.6262C586.1094,-1007.928 556.4943,-874.6938 542.9394,-813.712"/>
<polygon fill="#000000" stroke="#000000" points="546.3414,-812.8864 540.7549,-803.8842 539.5082,-814.4054 546.3414,-812.8864"/>
<text text-anchor="middle" x="606.5" y="-945.7056" font-family="Times,serif" font-size="20.00" fill="#000000">204</text>
<text text-anchor="middle" x="606.5" y="-923.7056" font-family="Times,serif" font-size="20.00" fill="#000000">205</text>
<text text-anchor="middle" x="606.5" y="-901.7056" font-family="Times,serif" font-size="20.00" fill="#000000">304</text>
</g>
<!-- SG_1_Node_5 -->
<g id="node18" class="node">
<title>SG_1_Node_5</title>
<polygon fill="none" stroke="#000000" points="743.5,-800.4924 588.5,-800.4924 588.5,-764.4924 743.5,-764.4924 743.5,-800.4924"/>
<text text-anchor="middle" x="666" y="-777.4924" font-family="Times,serif" font-size="20.00" fill="#000000">Content&#45;Type</text>
</g>
<!-- SG_1_Node_4&#45;&gt;SG_1_Node_5 -->
<g id="edge16" class="edge">
<title>SG_1_Node_4&#45;&gt;SG_1_Node_5</title>
<path fill="none" stroke="#000000" d="M611.9329,-1056.662C618.1504,-1045.4893 625.5593,-1030.6962 630,-1016.7056 652.8809,-944.6181 661.4645,-855.2804 664.4855,-810.6448"/>
<polygon fill="#000000" stroke="#000000" points="667.9856,-810.7514 665.1242,-800.5503 660.9996,-810.3093 667.9856,-810.7514"/>
<text text-anchor="middle" x="681.5" y="-1000.7056" font-family="Times,serif" font-size="20.00" fill="#000000">200</text>
<text text-anchor="middle" x="681.5" y="-978.7056" font-family="Times,serif" font-size="20.00" fill="#000000">201</text>
<text text-anchor="middle" x="681.5" y="-956.7056" font-family="Times,serif" font-size="20.00" fill="#000000">202</text>
<text text-anchor="middle" x="681.5" y="-934.7056" font-family="Times,serif" font-size="20.00" fill="#000000">203</text>
<text text-anchor="middle" x="681.5" y="-912.7056" font-family="Times,serif" font-size="20.00" fill="#000000">206</text>
<text text-anchor="middle" x="681.5" y="-890.7056" font-family="Times,serif" font-size="20.00" fill="#000000">207</text>
<text text-anchor="middle" x="681.5" y="-868.7056" font-family="Times,serif" font-size="20.00" fill="#000000">208</text>
<text text-anchor="middle" x="681.5" y="-846.7056" font-family="Times,serif" font-size="20.00" fill="#000000">226</text>
</g>
<!-- SG_1_Node_6 -->
<g id="node19" class="node">
<title>SG_1_Node_6</title>
<polygon fill="none" stroke="#000000" points="648.5,-508.066 583.5,-508.066 583.5,-472.066 648.5,-472.066 648.5,-508.066"/>
<text text-anchor="middle" x="616" y="-485.066" font-family="Times,serif" font-size="20.00" fill="#000000">body</text>
</g>
<!-- SG_1_Node_5&#45;&gt;SG_1_Node_6 -->
<g id="edge17" class="edge">
<title>SG_1_Node_5&#45;&gt;SG_1_Node_6</title>
<path fill="none" stroke="#000000" d="M651.4449,-764.2608C643.5933,-753.3325 634.5933,-738.7792 630,-724.2792 607.385,-652.8884 610.0311,-563.2467 613.3196,-518.3844"/>
<polygon fill="#000000" stroke="#000000" points="616.8228,-518.4836 614.1323,-508.236 609.8451,-517.9247 616.8228,-518.4836"/>
<text text-anchor="middle" x="662" y="-631.2792" font-family="Times,serif" font-size="20.00" fill="#000000">empty</text>
</g>
<!-- SG_1_Node_13 -->
<g id="node20" class="node">
<title>SG_1_Node_13</title>
<ellipse fill="none" stroke="#000000" cx="716" cy="-490.066" rx="34.7971" ry="21.4286"/>
<text text-anchor="middle" x="716" y="-485.066" font-family="Times,serif" font-size="20.00" fill="#000000">1.0</text>
</g>
<!-- SG_1_Node_5&#45;&gt;SG_1_Node_13 -->
<g id="edge18" class="edge">
<title>SG_1_Node_5&#45;&gt;SG_1_Node_13</title>
<path fill="none" stroke="#000000" d="M676.8357,-764.2767C682.9379,-753.1185 690.0974,-738.3264 694,-724.2792 713.5845,-653.7872 716.5327,-567.2643 716.5376,-521.6635"/>
<polygon fill="#000000" stroke="#000000" points="720.037,-521.4977 716.4891,-511.5146 713.037,-521.5313 720.037,-521.4977"/>
<text text-anchor="middle" x="827" y="-708.2792" font-family="Times,serif" font-size="20.00" fill="#000000">[NA]</text>
<text text-anchor="middle" x="827" y="-686.2792" font-family="Times,serif" font-size="20.00" fill="#000000">application/javascript</text>
<text text-anchor="middle" x="827" y="-664.2792" font-family="Times,serif" font-size="20.00" fill="#000000">application/pdf</text>
<text text-anchor="middle" x="827" y="-642.2792" font-family="Times,serif" font-size="20.00" fill="#000000">audio/wav</text>
<text text-anchor="middle" x="827" y="-620.2792" font-family="Times,serif" font-size="20.00" fill="#000000">image/png</text>
<text text-anchor="middle" x="827" y="-598.2792" font-family="Times,serif" font-size="20.00" fill="#000000">text/css</text>
<text text-anchor="middle" x="827" y="-576.2792" font-family="Times,serif" font-size="20.00" fill="#000000">text/html</text>
<text text-anchor="middle" x="827" y="-554.2792" font-family="Times,serif" font-size="20.00" fill="#000000">video/mp4</text>
</g>
<!-- SG_1_Node_7 -->
<g id="node21" class="node">
<title>SG_1_Node_7</title>
<polygon fill="none" stroke="#000000" points="612,-215.6396 350,-215.6396 350,-179.6396 612,-179.6396 612,-215.6396"/>
<text text-anchor="middle" x="481" y="-192.6396" font-family="Times,serif" font-size="20.00" fill="#000000">X&#45;Content&#45;Type&#45;Options</text>
</g>
<!-- SG_1_Node_6&#45;&gt;SG_1_Node_7 -->
<g id="edge19" class="edge">
<title>SG_1_Node_6&#45;&gt;SG_1_Node_7</title>
<path fill="none" stroke="#000000" d="M583.4844,-483.9732C554.9863,-476.7709 515.0694,-461.7595 495,-431.8528 452.4786,-368.4889 464.6919,-272.4433 474.3033,-225.4769"/>
<polygon fill="#000000" stroke="#000000" points="477.7252,-226.2117 476.4146,-215.6982 470.8829,-224.7343 477.7252,-226.2117"/>
<text text-anchor="middle" x="740.5" y="-349.8528" font-family="Times,serif" font-size="20.00" fill="#000000">ecocnt_audio=duration=1</text>
<text text-anchor="middle" x="740.5" y="-327.8528" font-family="Times,serif" font-size="20.00" fill="#000000">ecocnt_vid=width=100,height=100,duration=2</text>
</g>
<!-- SG_1_Node_14 -->
<g id="node22" class="node">
<title>SG_1_Node_14</title>
<ellipse fill="none" stroke="#000000" cx="1008" cy="-197.6396" rx="34.7971" ry="21.4286"/>
<text text-anchor="middle" x="1008" y="-192.6396" font-family="Times,serif" font-size="20.00" fill="#000000">1.0</text>
</g>
<!-- SG_1_Node_6&#45;&gt;SG_1_Node_14 -->
<g id="edge20" class="edge">
<title>SG_1_Node_6&#45;&gt;SG_1_Node_14</title>
<path fill="none" stroke="#000000" d="M648.7401,-476.1337C656.271,-473.3603 664.3246,-470.7287 672,-468.8528 740.2518,-452.1722 936.9089,-482.1182 986,-431.8528 1039.015,-377.5697 1026.6684,-278.7215 1015.9074,-228.5817"/>
<polygon fill="#000000" stroke="#000000" points="1019.2818,-227.6351 1013.6593,-218.6552 1012.4547,-229.1813 1019.2818,-227.6351"/>
<text text-anchor="middle" x="1071" y="-349.8528" font-family="Times,serif" font-size="20.00" fill="#000000">[NA]</text>
<text text-anchor="middle" x="1071" y="-327.8528" font-family="Times,serif" font-size="20.00" fill="#000000">11 levels</text>
</g>
<!-- SG_1_Node_15 -->
<g id="node23" class="node">
<title>SG_1_Node_15</title>
<ellipse fill="none" stroke="#000000" cx="432" cy="-37.2132" rx="34.7971" ry="21.4286"/>
<text text-anchor="middle" x="432" y="-32.2132" font-family="Times,serif" font-size="20.00" fill="#000000">0.0</text>
</g>
<!-- SG_1_Node_7&#45;&gt;SG_1_Node_15 -->
<g id="edge21" class="edge">
<title>SG_1_Node_7&#45;&gt;SG_1_Node_15</title>
<path fill="none" stroke="#000000" d="M467.4372,-179.4676C459.9026,-168.4438 451.0548,-153.7743 446,-139.4264 437.9417,-116.5531 434.4911,-89.2826 433.0285,-68.6646"/>
<polygon fill="#000000" stroke="#000000" points="436.5146,-68.3239 432.4309,-58.5477 429.5267,-68.7367 436.5146,-68.3239"/>
<text text-anchor="middle" x="478" y="-123.4264" font-family="Times,serif" font-size="20.00" fill="#000000">[NA]</text>
<text text-anchor="middle" x="478" y="-101.4264" font-family="Times,serif" font-size="20.00" fill="#000000">empty</text>
</g>
<!-- SG_1_Node_16 -->
<g id="node24" class="node">
<title>SG_1_Node_16</title>
<ellipse fill="none" stroke="#000000" cx="532" cy="-37.2132" rx="34.7971" ry="21.4286"/>
<text text-anchor="middle" x="532" y="-32.2132" font-family="Times,serif" font-size="20.00" fill="#000000">1.0</text>
</g>
<!-- SG_1_Node_7&#45;&gt;SG_1_Node_16 -->
<g id="edge22" class="edge">
<title>SG_1_Node_7&#45;&gt;SG_1_Node_16</title>
<path fill="none" stroke="#000000" d="M491.4912,-179.5403C497.6287,-168.3016 505.1079,-153.3853 510,-139.4264 518.1288,-116.2324 523.8131,-88.9804 527.3648,-68.4511"/>
<polygon fill="#000000" stroke="#000000" points="530.8508,-68.8226 529.0294,-58.3855 523.9446,-67.6804 530.8508,-68.8226"/>
<text text-anchor="middle" x="556" y="-112.4264" font-family="Times,serif" font-size="20.00" fill="#000000">nosniff</text>
</g>
<!-- SG_2_Node_0 -->
<g id="node25" class="node">
<title>SG_2_Node_0</title>
<polygon fill="none" stroke="#000000" points="3846,-2193.4113 3548,-2193.4113 3548,-2157.4113 3846,-2157.4113 3846,-2193.4113"/>
<text text-anchor="middle" x="3697" y="-2170.4113" font-family="Times,serif" font-size="20.00" fill="#000000">Cross&#45;Origin&#45;Opener&#45;Policy</text>
</g>
<!-- SG_2_Node_1 -->
<g id="node26" class="node">
<title>SG_2_Node_1</title>
<polygon fill="none" stroke="#000000" points="3668,-1970.1981 3526,-1970.1981 3526,-1934.1981 3668,-1934.1981 3668,-1970.1981"/>
<text text-anchor="middle" x="3597" y="-1947.1981" font-family="Times,serif" font-size="20.00" fill="#000000">Status&#45;Code</text>
</g>
<!-- SG_2_Node_0&#45;&gt;SG_2_Node_1 -->
<g id="edge23" class="edge">
<title>SG_2_Node_0&#45;&gt;SG_2_Node_1</title>
<path fill="none" stroke="#000000" d="M3688.8166,-2157.1448C3671.3032,-2118.0525 3630.1022,-2026.0865 3609.3715,-1979.8129"/>
<polygon fill="#000000" stroke="#000000" points="3612.4389,-1978.0989 3605.1562,-1970.4039 3606.0507,-1980.9609 3612.4389,-1978.0989"/>
<text text-anchor="middle" x="3704" y="-2071.4113" font-family="Times,serif" font-size="20.00" fill="#000000">[NA]</text>
<text text-anchor="middle" x="3704" y="-2049.4113" font-family="Times,serif" font-size="20.00" fill="#000000">empty</text>
</g>
<!-- SG_2_Node_2 -->
<g id="node27" class="node">
<title>SG_2_Node_2</title>
<polygon fill="none" stroke="#000000" points="3868,-1970.1981 3726,-1970.1981 3726,-1934.1981 3868,-1934.1981 3868,-1970.1981"/>
<text text-anchor="middle" x="3797" y="-1947.1981" font-family="Times,serif" font-size="20.00" fill="#000000">Status&#45;Code</text>
</g>
<!-- SG_2_Node_0&#45;&gt;SG_2_Node_2 -->
<g id="edge24" class="edge">
<title>SG_2_Node_0&#45;&gt;SG_2_Node_2</title>
<path fill="none" stroke="#000000" d="M3713.8116,-2157.1705C3722.547,-2146.953 3732.8588,-2133.6357 3740,-2120.4113 3764.9619,-2074.1857 3781.9449,-2014.9828 3790.5132,-1980.5506"/>
<polygon fill="#000000" stroke="#000000" points="3793.9461,-1981.245 3792.9016,-1970.7018 3787.1433,-1979.5952 3793.9461,-1981.245"/>
<text text-anchor="middle" x="3843" y="-2060.4113" font-family="Times,serif" font-size="20.00" fill="#000000">same&#45;origin</text>
</g>
<!-- SG_2_Node_10 -->
<g id="node28" class="node">
<title>SG_2_Node_10</title>
<ellipse fill="none" stroke="#000000" cx="3434" cy="-1615.7716" rx="34.7971" ry="21.4286"/>
<text text-anchor="middle" x="3434" y="-1610.7716" font-family="Times,serif" font-size="20.00" fill="#000000">0.0</text>
</g>
<!-- SG_2_Node_1&#45;&gt;SG_2_Node_10 -->
<g id="edge31" class="edge">
<title>SG_2_Node_1&#45;&gt;SG_2_Node_10</title>
<path fill="none" stroke="#000000" d="M3551.7785,-1934.1402C3533.5077,-1924.7185 3513.7641,-1911.4541 3501,-1893.9848 3445.6312,-1818.2056 3435.4946,-1702.7714 3433.9845,-1647.4694"/>
<polygon fill="#000000" stroke="#000000" points="3437.4795,-1647.1708 3433.7866,-1637.2403 3430.4808,-1647.3062 3437.4795,-1647.1708"/>
<text text-anchor="middle" x="3547" y="-1789.9848" font-family="Times,serif" font-size="20.00" fill="#000000">[NA]</text>
<text text-anchor="middle" x="3547" y="-1767.9848" font-family="Times,serif" font-size="20.00" fill="#000000">52 levels</text>
</g>
<!-- SG_2_Node_3 -->
<g id="node29" class="node">
<title>SG_2_Node_3</title>
<polygon fill="none" stroke="#000000" points="3707.5,-1633.7716 3486.5,-1633.7716 3486.5,-1597.7716 3707.5,-1597.7716 3707.5,-1633.7716"/>
<text text-anchor="middle" x="3597" y="-1610.7716" font-family="Times,serif" font-size="20.00" fill="#000000">Content&#45;Disposition</text>
</g>
<!-- SG_2_Node_1&#45;&gt;SG_2_Node_3 -->
<g id="edge32" class="edge">
<title>SG_2_Node_1&#45;&gt;SG_2_Node_3</title>
<path fill="none" stroke="#000000" d="M3597,-1934.1103C3597,-1878.7761 3597,-1711.466 3597,-1644.2138"/>
<polygon fill="#000000" stroke="#000000" points="3600.5001,-1643.9488 3597,-1633.9488 3593.5001,-1643.9489 3600.5001,-1643.9488"/>
<text text-anchor="middle" x="3616.5" y="-1877.9848" font-family="Times,serif" font-size="20.00" fill="#000000">200</text>
<text text-anchor="middle" x="3616.5" y="-1855.9848" font-family="Times,serif" font-size="20.00" fill="#000000">201</text>
<text text-anchor="middle" x="3616.5" y="-1833.9848" font-family="Times,serif" font-size="20.00" fill="#000000">202</text>
<text text-anchor="middle" x="3616.5" y="-1811.9848" font-family="Times,serif" font-size="20.00" fill="#000000">203</text>
<text text-anchor="middle" x="3616.5" y="-1789.9848" font-family="Times,serif" font-size="20.00" fill="#000000">204</text>
<text text-anchor="middle" x="3616.5" y="-1767.9848" font-family="Times,serif" font-size="20.00" fill="#000000">205</text>
<text text-anchor="middle" x="3616.5" y="-1745.9848" font-family="Times,serif" font-size="20.00" fill="#000000">206</text>
<text text-anchor="middle" x="3616.5" y="-1723.9848" font-family="Times,serif" font-size="20.00" fill="#000000">207</text>
<text text-anchor="middle" x="3616.5" y="-1701.9848" font-family="Times,serif" font-size="20.00" fill="#000000">208</text>
<text text-anchor="middle" x="3616.5" y="-1679.9848" font-family="Times,serif" font-size="20.00" fill="#000000">226</text>
</g>
<!-- SG_2_Node_4 -->
<g id="node30" class="node">
<title>SG_2_Node_4</title>
<polygon fill="none" stroke="#000000" points="3868,-1633.7716 3726,-1633.7716 3726,-1597.7716 3868,-1597.7716 3868,-1633.7716"/>
<text text-anchor="middle" x="3797" y="-1610.7716" font-family="Times,serif" font-size="20.00" fill="#000000">Status&#45;Code</text>
</g>
<!-- SG_2_Node_2&#45;&gt;SG_2_Node_4 -->
<g id="edge25" class="edge">
<title>SG_2_Node_2&#45;&gt;SG_2_Node_4</title>
<path fill="none" stroke="#000000" d="M3797,-1934.1103C3797,-1878.7761 3797,-1711.466 3797,-1644.2138"/>
<polygon fill="#000000" stroke="#000000" points="3800.5001,-1643.9488 3797,-1633.9488 3793.5001,-1643.9489 3800.5001,-1643.9488"/>
<text text-anchor="middle" x="3816.5" y="-1855.9848" font-family="Times,serif" font-size="20.00" fill="#000000">100</text>
<text text-anchor="middle" x="3816.5" y="-1833.9848" font-family="Times,serif" font-size="20.00" fill="#000000">101</text>
<text text-anchor="middle" x="3816.5" y="-1811.9848" font-family="Times,serif" font-size="20.00" fill="#000000">102</text>
<text text-anchor="middle" x="3816.5" y="-1789.9848" font-family="Times,serif" font-size="20.00" fill="#000000">103</text>
<text text-anchor="middle" x="3816.5" y="-1767.9848" font-family="Times,serif" font-size="20.00" fill="#000000">204</text>
<text text-anchor="middle" x="3816.5" y="-1745.9848" font-family="Times,serif" font-size="20.00" fill="#000000">205</text>
<text text-anchor="middle" x="3816.5" y="-1723.9848" font-family="Times,serif" font-size="20.00" fill="#000000">304</text>
<text text-anchor="middle" x="3816.5" y="-1701.9848" font-family="Times,serif" font-size="20.00" fill="#000000">407</text>
</g>
<!-- SG_2_Node_11 -->
<g id="node31" class="node">
<title>SG_2_Node_11</title>
<ellipse fill="none" stroke="#000000" cx="3921" cy="-1615.7716" rx="34.7971" ry="21.4286"/>
<text text-anchor="middle" x="3921" y="-1610.7716" font-family="Times,serif" font-size="20.00" fill="#000000">1.0</text>
</g>
<!-- SG_2_Node_2&#45;&gt;SG_2_Node_11 -->
<g id="edge26" class="edge">
<title>SG_2_Node_2&#45;&gt;SG_2_Node_11</title>
<path fill="none" stroke="#000000" d="M3812.9379,-1934.157C3821.9454,-1923.1783 3832.8078,-1908.5102 3840,-1893.9848 3881.7676,-1809.6312 3905.7506,-1699.9611 3915.6337,-1647.0443"/>
<polygon fill="#000000" stroke="#000000" points="3919.125,-1647.4083 3917.4768,-1636.9424 3912.2387,-1646.1518 3919.125,-1647.4083"/>
<text text-anchor="middle" x="3956" y="-1789.9848" font-family="Times,serif" font-size="20.00" fill="#000000">[NA]</text>
<text text-anchor="middle" x="3956" y="-1767.9848" font-family="Times,serif" font-size="20.00" fill="#000000">54 levels</text>
</g>
<!-- SG_2_Node_5 -->
<g id="node32" class="node">
<title>SG_2_Node_5</title>
<polygon fill="none" stroke="#000000" points="3555.5,-1385.3452 3400.5,-1385.3452 3400.5,-1349.3452 3555.5,-1349.3452 3555.5,-1385.3452"/>
<text text-anchor="middle" x="3478" y="-1362.3452" font-family="Times,serif" font-size="20.00" fill="#000000">Content&#45;Type</text>
</g>
<!-- SG_2_Node_3&#45;&gt;SG_2_Node_5 -->
<g id="edge33" class="edge">
<title>SG_2_Node_3&#45;&gt;SG_2_Node_5</title>
<path fill="none" stroke="#000000" d="M3569.8182,-1597.602C3556.3526,-1587.3136 3540.8992,-1573.3524 3531,-1557.5584 3498.7157,-1506.0497 3485.727,-1434.6325 3480.7928,-1395.6023"/>
<polygon fill="#000000" stroke="#000000" points="3484.2485,-1395.0192 3479.6053,-1385.496 3477.2963,-1395.8362 3484.2485,-1395.0192"/>
<text text-anchor="middle" x="3563" y="-1497.5584" font-family="Times,serif" font-size="20.00" fill="#000000">[NA]</text>
<text text-anchor="middle" x="3563" y="-1475.5584" font-family="Times,serif" font-size="20.00" fill="#000000">empty</text>
</g>
<!-- SG_2_Node_12 -->
<g id="node33" class="node">
<title>SG_2_Node_12</title>
<ellipse fill="none" stroke="#000000" cx="3608" cy="-1367.3452" rx="34.7971" ry="21.4286"/>
<text text-anchor="middle" x="3608" y="-1362.3452" font-family="Times,serif" font-size="20.00" fill="#000000">1.0</text>
</g>
<!-- SG_2_Node_3&#45;&gt;SG_2_Node_12 -->
<g id="edge34" class="edge">
<title>SG_2_Node_3&#45;&gt;SG_2_Node_12</title>
<path fill="none" stroke="#000000" d="M3597.8089,-1597.5043C3599.6702,-1555.4672 3604.2753,-1451.4646 3606.604,-1398.8727"/>
<polygon fill="#000000" stroke="#000000" points="3610.1054,-1398.9172 3607.0512,-1388.7721 3603.1122,-1398.6075 3610.1054,-1398.9172"/>
<text text-anchor="middle" x="3664" y="-1486.5584" font-family="Times,serif" font-size="20.00" fill="#000000">attachment</text>
</g>
<!-- SG_2_Node_13 -->
<g id="node34" class="node">
<title>SG_2_Node_13</title>
<ellipse fill="none" stroke="#000000" cx="3701" cy="-1367.3452" rx="34.7971" ry="21.4286"/>
<text text-anchor="middle" x="3701" y="-1362.3452" font-family="Times,serif" font-size="20.00" fill="#000000">0.0</text>
</g>
<!-- SG_2_Node_4&#45;&gt;SG_2_Node_13 -->
<g id="edge27" class="edge">
<title>SG_2_Node_4&#45;&gt;SG_2_Node_13</title>
<path fill="none" stroke="#000000" d="M3787.5033,-1597.7122C3781.7395,-1586.363 3774.466,-1571.3158 3769,-1557.5584 3746.268,-1500.3441 3748.921,-1483.0884 3727,-1425.5584 3723.44,-1416.2156 3719.1553,-1406.2184 3715.1005,-1397.1918"/>
<polygon fill="#000000" stroke="#000000" points="3718.1742,-1395.4969 3710.836,-1387.8548 3711.8069,-1398.405 3718.1742,-1395.4969"/>
<text text-anchor="middle" x="3788.5" y="-1541.5584" font-family="Times,serif" font-size="20.00" fill="#000000">100</text>
<text text-anchor="middle" x="3788.5" y="-1519.5584" font-family="Times,serif" font-size="20.00" fill="#000000">101</text>
<text text-anchor="middle" x="3788.5" y="-1497.5584" font-family="Times,serif" font-size="20.00" fill="#000000">102</text>
<text text-anchor="middle" x="3788.5" y="-1475.5584" font-family="Times,serif" font-size="20.00" fill="#000000">103</text>
<text text-anchor="middle" x="3788.5" y="-1453.5584" font-family="Times,serif" font-size="20.00" fill="#000000">304</text>
<text text-anchor="middle" x="3788.5" y="-1431.5584" font-family="Times,serif" font-size="20.00" fill="#000000">407</text>
</g>
<!-- SG_2_Node_6 -->
<g id="node35" class="node">
<title>SG_2_Node_6</title>
<polygon fill="none" stroke="#000000" points="3974.5,-1385.3452 3753.5,-1385.3452 3753.5,-1349.3452 3974.5,-1349.3452 3974.5,-1385.3452"/>
<text text-anchor="middle" x="3864" y="-1362.3452" font-family="Times,serif" font-size="20.00" fill="#000000">Content&#45;Disposition</text>
</g>
<!-- SG_2_Node_4&#45;&gt;SG_2_Node_6 -->
<g id="edge28" class="edge">
<title>SG_2_Node_4&#45;&gt;SG_2_Node_6</title>
<path fill="none" stroke="#000000" d="M3801.9267,-1597.5043C3813.5184,-1554.5237 3842.5807,-1446.765 3856.4308,-1395.4106"/>
<polygon fill="#000000" stroke="#000000" points="3859.8414,-1396.2058 3859.0661,-1385.6394 3853.0828,-1394.383 3859.8414,-1396.2058"/>
<text text-anchor="middle" x="3867.5" y="-1497.5584" font-family="Times,serif" font-size="20.00" fill="#000000">204</text>
<text text-anchor="middle" x="3867.5" y="-1475.5584" font-family="Times,serif" font-size="20.00" fill="#000000">205</text>
</g>
<!-- SG_2_Node_14 -->
<g id="node36" class="node">
<title>SG_2_Node_14</title>
<ellipse fill="none" stroke="#000000" cx="3429" cy="-1074.9188" rx="34.7971" ry="21.4286"/>
<text text-anchor="middle" x="3429" y="-1069.9188" font-family="Times,serif" font-size="20.00" fill="#000000">0.0</text>
</g>
<!-- SG_2_Node_5&#45;&gt;SG_2_Node_14 -->
<g id="edge35" class="edge">
<title>SG_2_Node_5&#45;&gt;SG_2_Node_14</title>
<path fill="none" stroke="#000000" d="M3459.536,-1349.2218C3449.978,-1338.5485 3439.2372,-1324.2108 3434,-1309.132 3409.9214,-1239.8055 3417.3027,-1151.8463 3423.7573,-1105.9646"/>
<polygon fill="#000000" stroke="#000000" points="3427.2244,-1106.4435 3425.2334,-1096.0374 3420.3006,-1105.4139 3427.2244,-1106.4435"/>
<text text-anchor="middle" x="3545" y="-1293.132" font-family="Times,serif" font-size="20.00" fill="#000000">[NA]</text>
<text text-anchor="middle" x="3545" y="-1271.132" font-family="Times,serif" font-size="20.00" fill="#000000">application/javascript</text>
<text text-anchor="middle" x="3545" y="-1249.132" font-family="Times,serif" font-size="20.00" fill="#000000">application/pdf</text>
<text text-anchor="middle" x="3545" y="-1227.132" font-family="Times,serif" font-size="20.00" fill="#000000">audio/wav</text>
<text text-anchor="middle" x="3545" y="-1205.132" font-family="Times,serif" font-size="20.00" fill="#000000">image/png</text>
<text text-anchor="middle" x="3545" y="-1183.132" font-family="Times,serif" font-size="20.00" fill="#000000">text/css</text>
<text text-anchor="middle" x="3545" y="-1161.132" font-family="Times,serif" font-size="20.00" fill="#000000">text/html</text>
<text text-anchor="middle" x="3545" y="-1139.132" font-family="Times,serif" font-size="20.00" fill="#000000">video/mp4</text>
</g>
<!-- SG_2_Node_7 -->
<g id="node37" class="node">
<title>SG_2_Node_7</title>
<polygon fill="none" stroke="#000000" points="3572.5,-1092.9188 3507.5,-1092.9188 3507.5,-1056.9188 3572.5,-1056.9188 3572.5,-1092.9188"/>
<text text-anchor="middle" x="3540" y="-1069.9188" font-family="Times,serif" font-size="20.00" fill="#000000">body</text>
</g>
<!-- SG_2_Node_5&#45;&gt;SG_2_Node_7 -->
<g id="edge36" class="edge">
<title>SG_2_Node_5&#45;&gt;SG_2_Node_7</title>
<path fill="none" stroke="#000000" d="M3530.6964,-1349.2395C3541.6871,-1345.521 3553.2103,-1341.6647 3564,-1338.132 3604.744,-1324.7921 3630.648,-1343.7051 3656,-1309.132 3702.2559,-1246.0519 3697.075,-1199.702 3656,-1133.132 3640.0003,-1107.2013 3608.5373,-1092.4224 3582.4113,-1084.2492"/>
<polygon fill="#000000" stroke="#000000" points="3583.2823,-1080.8576 3572.7029,-1081.4307 3581.3306,-1087.58 3583.2823,-1080.8576"/>
<text text-anchor="middle" x="3720" y="-1216.132" font-family="Times,serif" font-size="20.00" fill="#000000">empty</text>
</g>
<!-- SG_2_Node_15 -->
<g id="node38" class="node">
<title>SG_2_Node_15</title>
<ellipse fill="none" stroke="#000000" cx="3795" cy="-1074.9188" rx="34.7971" ry="21.4286"/>
<text text-anchor="middle" x="3795" y="-1069.9188" font-family="Times,serif" font-size="20.00" fill="#000000">0.0</text>
</g>
<!-- SG_2_Node_6&#45;&gt;SG_2_Node_15 -->
<g id="edge29" class="edge">
<title>SG_2_Node_6&#45;&gt;SG_2_Node_15</title>
<path fill="none" stroke="#000000" d="M3836.2608,-1349.1902C3823.3573,-1339.0861 3809.2793,-1325.2855 3802,-1309.132 3771.7642,-1242.0363 3780.7663,-1152.8072 3788.649,-1106.2334"/>
<polygon fill="#000000" stroke="#000000" points="3792.1358,-1106.6171 3790.4516,-1096.157 3785.2452,-1105.3843 3792.1358,-1106.6171"/>
<text text-anchor="middle" x="3834" y="-1227.132" font-family="Times,serif" font-size="20.00" fill="#000000">[NA]</text>
<text text-anchor="middle" x="3834" y="-1205.132" font-family="Times,serif" font-size="20.00" fill="#000000">empty</text>
</g>
<!-- SG_2_Node_16 -->
<g id="node39" class="node">
<title>SG_2_Node_16</title>
<ellipse fill="none" stroke="#000000" cx="3895" cy="-1074.9188" rx="34.7971" ry="21.4286"/>
<text text-anchor="middle" x="3895" y="-1069.9188" font-family="Times,serif" font-size="20.00" fill="#000000">1.0</text>
</g>
<!-- SG_2_Node_6&#45;&gt;SG_2_Node_16 -->
<g id="edge30" class="edge">
<title>SG_2_Node_6&#45;&gt;SG_2_Node_16</title>
<path fill="none" stroke="#000000" d="M3865.9392,-1349.0527C3871.091,-1300.455 3885.1674,-1167.6704 3891.6503,-1106.5173"/>
<polygon fill="#000000" stroke="#000000" points="3895.1585,-1106.6238 3892.7323,-1096.3106 3888.1975,-1105.8858 3895.1585,-1106.6238"/>
<text text-anchor="middle" x="3947" y="-1216.132" font-family="Times,serif" font-size="20.00" fill="#000000">attachment</text>
</g>
<!-- SG_2_Node_17 -->
<g id="node40" class="node">
<title>SG_2_Node_17</title>
<ellipse fill="none" stroke="#000000" cx="3429" cy="-782.4924" rx="34.7971" ry="21.4286"/>
<text text-anchor="middle" x="3429" y="-777.4924" font-family="Times,serif" font-size="20.00" fill="#000000">0.0</text>
</g>
<!-- SG_2_Node_7&#45;&gt;SG_2_Node_17 -->
<g id="edge37" class="edge">
<title>SG_2_Node_7&#45;&gt;SG_2_Node_17</title>
<path fill="none" stroke="#000000" d="M3507.1791,-1059.9727C3489.6375,-1050.2179 3469.3677,-1035.7424 3458,-1016.7056 3419.7225,-952.605 3421.2435,-861.0934 3425.2996,-813.6691"/>
<polygon fill="#000000" stroke="#000000" points="3428.7855,-813.9827 3426.2473,-803.6964 3421.8169,-813.3204 3428.7855,-813.9827"/>
<text text-anchor="middle" x="3504" y="-934.7056" font-family="Times,serif" font-size="20.00" fill="#000000">[NA]</text>
<text text-anchor="middle" x="3504" y="-912.7056" font-family="Times,serif" font-size="20.00" fill="#000000">11 levels</text>
</g>
<!-- SG_2_Node_8 -->
<g id="node41" class="node">
<title>SG_2_Node_8</title>
<polygon fill="none" stroke="#000000" points="3744,-800.4924 3482,-800.4924 3482,-764.4924 3744,-764.4924 3744,-800.4924"/>
<text text-anchor="middle" x="3613" y="-777.4924" font-family="Times,serif" font-size="20.00" fill="#000000">X&#45;Content&#45;Type&#45;Options</text>
</g>
<!-- SG_2_Node_7&#45;&gt;SG_2_Node_8 -->
<g id="edge38" class="edge">
<title>SG_2_Node_7&#45;&gt;SG_2_Node_8</title>
<path fill="none" stroke="#000000" d="M3544.5665,-1056.6262C3556.9337,-1007.085 3591.1411,-870.0555 3605.9807,-810.6107"/>
<polygon fill="#000000" stroke="#000000" points="3609.4089,-811.3281 3608.4352,-800.7781 3602.6174,-809.6326 3609.4089,-811.3281"/>
<text text-anchor="middle" x="3843.5" y="-934.7056" font-family="Times,serif" font-size="20.00" fill="#000000">ecocnt_audio=duration=1</text>
<text text-anchor="middle" x="3843.5" y="-912.7056" font-family="Times,serif" font-size="20.00" fill="#000000">ecocnt_vid=width=100,height=100,duration=2</text>
</g>
<!-- SG_2_Node_18 -->
<g id="node42" class="node">
<title>SG_2_Node_18</title>
<ellipse fill="none" stroke="#000000" cx="3553" cy="-490.066" rx="34.7971" ry="21.4286"/>
<text text-anchor="middle" x="3553" y="-485.066" font-family="Times,serif" font-size="20.00" fill="#000000">0.0</text>
</g>
<!-- SG_2_Node_8&#45;&gt;SG_2_Node_18 -->
<g id="edge39" class="edge">
<title>SG_2_Node_8&#45;&gt;SG_2_Node_18</title>
<path fill="none" stroke="#000000" d="M3598.2474,-764.254C3590.2465,-753.3235 3580.9965,-738.7702 3576,-724.2792 3552.0802,-654.9063 3550.4026,-567.5937 3551.5316,-521.6585"/>
<polygon fill="#000000" stroke="#000000" points="3555.0368,-521.5425 3551.8473,-511.4392 3548.0401,-521.3263 3555.0368,-521.5425"/>
<text text-anchor="middle" x="3611" y="-631.2792" font-family="Times,serif" font-size="20.00" fill="#000000">nosniff</text>
</g>
<!-- SG_2_Node_9 -->
<g id="node43" class="node">
<title>SG_2_Node_9</title>
<polygon fill="none" stroke="#000000" points="3748,-508.066 3606,-508.066 3606,-472.066 3748,-472.066 3748,-508.066"/>
<text text-anchor="middle" x="3677" y="-485.066" font-family="Times,serif" font-size="20.00" fill="#000000">Status&#45;Code</text>
</g>
<!-- SG_2_Node_8&#45;&gt;SG_2_Node_9 -->
<g id="edge40" class="edge">
<title>SG_2_Node_8&#45;&gt;SG_2_Node_9</title>
<path fill="none" stroke="#000000" d="M3625.6227,-764.4739C3632.7621,-753.3856 3641.1969,-738.5977 3646,-724.2792 3669.9814,-652.7885 3675.5063,-563.1904 3676.7156,-518.3606"/>
<polygon fill="#000000" stroke="#000000" points="3680.2177,-518.2933 3676.9346,-508.22 3673.2194,-518.142 3680.2177,-518.2933"/>
<text text-anchor="middle" x="3707" y="-642.2792" font-family="Times,serif" font-size="20.00" fill="#000000">[NA]</text>
<text text-anchor="middle" x="3707" y="-620.2792" font-family="Times,serif" font-size="20.00" fill="#000000">empty</text>
</g>
<!-- SG_2_Node_19 -->
<g id="node44" class="node">
<title>SG_2_Node_19</title>
<ellipse fill="none" stroke="#000000" cx="3635" cy="-197.6396" rx="34.7971" ry="21.4286"/>
<text text-anchor="middle" x="3635" y="-192.6396" font-family="Times,serif" font-size="20.00" fill="#000000">0.0</text>
</g>
<!-- SG_2_Node_9&#45;&gt;SG_2_Node_19 -->
<g id="edge41" class="edge">
<title>SG_2_Node_9&#45;&gt;SG_2_Node_19</title>
<path fill="none" stroke="#000000" d="M3668.628,-471.8545C3663.8211,-460.5749 3658.1337,-445.6549 3655,-431.8528 3638.8137,-360.5607 3635.4872,-274.3575 3634.9488,-229.0208"/>
<polygon fill="#000000" stroke="#000000" points="3638.448,-228.9052 3634.8678,-218.9337 3631.4483,-228.9615 3638.448,-228.9052"/>
<text text-anchor="middle" x="3674.5" y="-349.8528" font-family="Times,serif" font-size="20.00" fill="#000000">204</text>
<text text-anchor="middle" x="3674.5" y="-327.8528" font-family="Times,serif" font-size="20.00" fill="#000000">205</text>
</g>
<!-- SG_2_Node_20 -->
<g id="node45" class="node">
<title>SG_2_Node_20</title>
<ellipse fill="none" stroke="#000000" cx="3722" cy="-197.6396" rx="34.7971" ry="21.4286"/>
<text text-anchor="middle" x="3722" y="-192.6396" font-family="Times,serif" font-size="20.00" fill="#000000">1.0</text>
</g>
<!-- SG_2_Node_9&#45;&gt;SG_2_Node_20 -->
<g id="edge42" class="edge">
<title>SG_2_Node_9&#45;&gt;SG_2_Node_20</title>
<path fill="none" stroke="#000000" d="M3683.1434,-471.9073C3686.7849,-460.5208 3691.2177,-445.4692 3694,-431.8528 3708.6484,-360.1636 3716.4888,-274.4517 3719.8888,-229.2139"/>
<polygon fill="#000000" stroke="#000000" points="3723.3866,-229.3702 3720.6222,-219.1424 3716.4051,-228.8618 3723.3866,-229.3702"/>
<text text-anchor="middle" x="3736.5" y="-415.8528" font-family="Times,serif" font-size="20.00" fill="#000000">200</text>
<text text-anchor="middle" x="3736.5" y="-393.8528" font-family="Times,serif" font-size="20.00" fill="#000000">201</text>
<text text-anchor="middle" x="3736.5" y="-371.8528" font-family="Times,serif" font-size="20.00" fill="#000000">202</text>
<text text-anchor="middle" x="3736.5" y="-349.8528" font-family="Times,serif" font-size="20.00" fill="#000000">203</text>
<text text-anchor="middle" x="3736.5" y="-327.8528" font-family="Times,serif" font-size="20.00" fill="#000000">206</text>
<text text-anchor="middle" x="3736.5" y="-305.8528" font-family="Times,serif" font-size="20.00" fill="#000000">207</text>
<text text-anchor="middle" x="3736.5" y="-283.8528" font-family="Times,serif" font-size="20.00" fill="#000000">208</text>
<text text-anchor="middle" x="3736.5" y="-261.8528" font-family="Times,serif" font-size="20.00" fill="#000000">226</text>
</g>
</g>
</svg>
