<?xml version="1.0" encoding="UTF-8" standalone="no"?>
<!DOCTYPE svg PUBLIC "-//W3C//DTD SVG 1.1//EN"
 "http://www.w3.org/Graphics/SVG/1.1/DTD/svg11.dtd">
<!-- Generated by graphviz version 2.40.1 (20161225.0304)
 -->
<!-- Title: G Pages: 1 -->
<svg width="894pt" height="1465pt"
 viewBox="0.00 0.00 894.00 1464.56" xmlns="http://www.w3.org/2000/svg" xmlns:xlink="http://www.w3.org/1999/xlink">
<g id="graph0" class="graph" transform="scale(1 1) rotate(0) translate(4 1460.5584)">
<title>G</title>
<polygon fill="#ffffff" stroke="transparent" points="-4,4 -4,-1460.5584 890,-1460.5584 890,4 -4,4"/>
<g id="clust1" class="cluster">
<title>cluster_0</title>
<polygon fill="none" stroke="#000000" points="8,-8 8,-1448.5584 439,-1448.5584 439,-8 8,-8"/>
<text text-anchor="middle" x="223.5" y="-1412.5584" font-family="Times,serif" font-size="40.00" fill="#000000">Tree 0, Class 1</text>
</g>
<g id="clust9" class="cluster">
<title>cluster_1</title>
<polygon fill="none" stroke="#000000" points="447,-8 447,-1448.5584 878,-1448.5584 878,-8 447,-8"/>
<text text-anchor="middle" x="662.5" y="-1412.5584" font-family="Times,serif" font-size="40.00" fill="#000000">Tree 0, Class js&#45;NaN</text>
</g>
<!-- SG_0_Node_0 -->
<g id="node1" class="node">
<title>SG_0_Node_0</title>
<polygon fill="none" stroke="#000000" points="137.5,-1388.5584 72.5,-1388.5584 72.5,-1352.5584 137.5,-1352.5584 137.5,-1388.5584"/>
<text text-anchor="middle" x="105" y="-1365.5584" font-family="Times,serif" font-size="20.00" fill="#000000">body</text>
</g>
<!-- SG_0_Node_7 -->
<g id="node2" class="node">
<title>SG_0_Node_7</title>
<ellipse fill="none" stroke="#000000" cx="51" cy="-1213.3452" rx="34.7971" ry="21.4286"/>
<text text-anchor="middle" x="51" y="-1208.3452" font-family="Times,serif" font-size="20.00" fill="#000000">0.0</text>
</g>
<!-- SG_0_Node_0&#45;&gt;SG_0_Node_7 -->
<g id="edge1" class="edge">
<title>SG_0_Node_0&#45;&gt;SG_0_Node_7</title>
<path fill="none" stroke="#000000" d="M78.0988,-1352.3759C66.5238,-1342.91 54.2358,-1330.2408 48,-1315.5584 38.501,-1293.1926 40.0172,-1265.5237 43.4852,-1244.6162"/>
<polygon fill="#000000" stroke="#000000" points="46.9495,-1245.1323 45.3663,-1234.6564 40.0711,-1243.8331 46.9495,-1245.1323"/>
<text text-anchor="middle" x="94" y="-1299.5584" font-family="Times,serif" font-size="20.00" fill="#000000">[NA]</text>
<text text-anchor="middle" x="94" y="-1277.5584" font-family="Times,serif" font-size="20.00" fill="#000000">12 levels</text>
</g>
<!-- SG_0_Node_1 -->
<g id="node3" class="node">
<title>SG_0_Node_1</title>
<polygon fill="none" stroke="#000000" points="246,-1231.3452 104,-1231.3452 104,-1195.3452 246,-1195.3452 246,-1231.3452"/>
<text text-anchor="middle" x="175" y="-1208.3452" font-family="Times,serif" font-size="20.00" fill="#000000">Status&#45;Code</text>
</g>
<!-- SG_0_Node_0&#45;&gt;SG_0_Node_1 -->
<g id="edge2" class="edge">
<title>SG_0_Node_0&#45;&gt;SG_0_Node_1</title>
<path fill="none" stroke="#000000" d="M118.1281,-1352.3561C125.2434,-1341.9344 133.8187,-1328.4099 140,-1315.5584 151.615,-1291.4099 161.1664,-1262.3817 167.3401,-1241.4407"/>
<polygon fill="#000000" stroke="#000000" points="170.7751,-1242.1596 170.1736,-1231.5818 164.0474,-1240.2259 170.7751,-1242.1596"/>
<text text-anchor="middle" x="291.5" y="-1288.5584" font-family="Times,serif" font-size="20.00" fill="#000000">ecocnt_audio=duration=1</text>
</g>
<!-- SG_0_Node_8 -->
<g id="node4" class="node">
<title>SG_0_Node_8</title>
<ellipse fill="none" stroke="#000000" cx="56" cy="-920.9188" rx="34.7971" ry="21.4286"/>
<text text-anchor="middle" x="56" y="-915.9188" font-family="Times,serif" font-size="20.00" fill="#000000">0.0</text>
</g>
<!-- SG_0_Node_1&#45;&gt;SG_0_Node_8 -->
<g id="edge3" class="edge">
<title>SG_0_Node_1&#45;&gt;SG_0_Node_8</title>
<path fill="none" stroke="#000000" d="M139.7459,-1195.1366C124.2477,-1185.3447 107.2697,-1171.8271 97,-1155.132 57.6714,-1091.1974 53.5274,-999.9223 54.4271,-952.4028"/>
<polygon fill="#000000" stroke="#000000" points="57.9334,-952.2225 54.7149,-942.1284 50.9361,-952.0264 57.9334,-952.2225"/>
<text text-anchor="middle" x="143" y="-1073.132" font-family="Times,serif" font-size="20.00" fill="#000000">[NA]</text>
<text text-anchor="middle" x="143" y="-1051.132" font-family="Times,serif" font-size="20.00" fill="#000000">54 levels</text>
</g>
<!-- SG_0_Node_2 -->
<g id="node5" class="node">
<title>SG_0_Node_2</title>
<polygon fill="none" stroke="#000000" points="425.5,-938.9188 108.5,-938.9188 108.5,-902.9188 425.5,-902.9188 425.5,-938.9188"/>
<text text-anchor="middle" x="267" y="-915.9188" font-family="Times,serif" font-size="20.00" fill="#000000">Cross&#45;Origin&#45;Resource&#45;Policy</text>
</g>
<!-- SG_0_Node_1&#45;&gt;SG_0_Node_2 -->
<g id="edge4" class="edge">
<title>SG_0_Node_1&#45;&gt;SG_0_Node_2</title>
<path fill="none" stroke="#000000" d="M180.755,-1195.0527C196.3411,-1145.5114 239.4518,-1008.482 258.1537,-949.0371"/>
<polygon fill="#000000" stroke="#000000" points="261.5847,-949.794 261.2472,-939.2045 254.9074,-947.6932 261.5847,-949.794"/>
<text text-anchor="middle" x="267.5" y="-1139.132" font-family="Times,serif" font-size="20.00" fill="#000000">200</text>
<text text-anchor="middle" x="267.5" y="-1117.132" font-family="Times,serif" font-size="20.00" fill="#000000">201</text>
<text text-anchor="middle" x="267.5" y="-1095.132" font-family="Times,serif" font-size="20.00" fill="#000000">202</text>
<text text-anchor="middle" x="267.5" y="-1073.132" font-family="Times,serif" font-size="20.00" fill="#000000">203</text>
<text text-anchor="middle" x="267.5" y="-1051.132" font-family="Times,serif" font-size="20.00" fill="#000000">206</text>
<text text-anchor="middle" x="267.5" y="-1029.132" font-family="Times,serif" font-size="20.00" fill="#000000">207</text>
<text text-anchor="middle" x="267.5" y="-1007.132" font-family="Times,serif" font-size="20.00" fill="#000000">208</text>
<text text-anchor="middle" x="267.5" y="-985.132" font-family="Times,serif" font-size="20.00" fill="#000000">226</text>
</g>
<!-- SG_0_Node_9 -->
<g id="node6" class="node">
<title>SG_0_Node_9</title>
<ellipse fill="none" stroke="#000000" cx="123" cy="-760.4924" rx="34.7971" ry="21.4286"/>
<text text-anchor="middle" x="123" y="-755.4924" font-family="Times,serif" font-size="20.00" fill="#000000">0.0</text>
</g>
<!-- SG_0_Node_2&#45;&gt;SG_0_Node_9 -->
<g id="edge5" class="edge">
<title>SG_0_Node_2&#45;&gt;SG_0_Node_9</title>
<path fill="none" stroke="#000000" d="M203.4442,-902.8728C182.3639,-893.9532 160.5827,-881.0421 146,-862.7056 130.1409,-842.7641 124.751,-814.0426 123.1216,-792.1201"/>
<polygon fill="#000000" stroke="#000000" points="126.6086,-791.7775 122.5944,-781.9726 119.618,-792.1407 126.6086,-791.7775"/>
<text text-anchor="middle" x="207" y="-846.7056" font-family="Times,serif" font-size="20.00" fill="#000000">[NA]</text>
<text text-anchor="middle" x="207" y="-824.7056" font-family="Times,serif" font-size="20.00" fill="#000000">same&#45;origin</text>
</g>
<!-- SG_0_Node_3 -->
<g id="node7" class="node">
<title>SG_0_Node_3</title>
<polygon fill="none" stroke="#000000" points="352,-778.4924 210,-778.4924 210,-742.4924 352,-742.4924 352,-778.4924"/>
<text text-anchor="middle" x="281" y="-755.4924" font-family="Times,serif" font-size="20.00" fill="#000000">Status&#45;Code</text>
</g>
<!-- SG_0_Node_2&#45;&gt;SG_0_Node_3 -->
<g id="edge6" class="edge">
<title>SG_0_Node_2&#45;&gt;SG_0_Node_3</title>
<path fill="none" stroke="#000000" d="M268.5788,-902.8277C270.9945,-875.1459 275.6297,-822.0306 278.504,-789.0939"/>
<polygon fill="#000000" stroke="#000000" points="282.0228,-789.03 279.4055,-778.7636 275.0493,-788.4214 282.0228,-789.03"/>
<text text-anchor="middle" x="307" y="-835.7056" font-family="Times,serif" font-size="20.00" fill="#000000">empty</text>
</g>
<!-- SG_0_Node_4 -->
<g id="node8" class="node">
<title>SG_0_Node_4</title>
<polygon fill="none" stroke="#000000" points="271.5,-508.066 116.5,-508.066 116.5,-472.066 271.5,-472.066 271.5,-508.066"/>
<text text-anchor="middle" x="194" y="-485.066" font-family="Times,serif" font-size="20.00" fill="#000000">Content&#45;Type</text>
</g>
<!-- SG_0_Node_3&#45;&gt;SG_0_Node_4 -->
<g id="edge7" class="edge">
<title>SG_0_Node_3&#45;&gt;SG_0_Node_4</title>
<path fill="none" stroke="#000000" d="M268.5684,-742.3091C261.4159,-731.1625 252.7379,-716.371 247,-702.2792 221.1792,-638.8653 205.4392,-559.5077 198.3885,-518.1223"/>
<polygon fill="#000000" stroke="#000000" points="201.8341,-517.5053 196.7439,-508.2134 194.9286,-518.6515 201.8341,-517.5053"/>
<text text-anchor="middle" x="266.5" y="-620.2792" font-family="Times,serif" font-size="20.00" fill="#000000">208</text>
</g>
<!-- SG_0_Node_10 -->
<g id="node9" class="node">
<title>SG_0_Node_10</title>
<ellipse fill="none" stroke="#000000" cx="324" cy="-490.066" rx="34.7971" ry="21.4286"/>
<text text-anchor="middle" x="324" y="-485.066" font-family="Times,serif" font-size="20.00" fill="#000000">1.0</text>
</g>
<!-- SG_0_Node_3&#45;&gt;SG_0_Node_10 -->
<g id="edge8" class="edge">
<title>SG_0_Node_3&#45;&gt;SG_0_Node_10</title>
<path fill="none" stroke="#000000" d="M283.8881,-742.3291C291.088,-697.0489 309.9046,-578.7118 318.972,-521.6871"/>
<polygon fill="#000000" stroke="#000000" points="322.4841,-521.8871 320.5979,-511.4615 315.5709,-520.7878 322.4841,-521.8871"/>
<text text-anchor="middle" x="333.5" y="-686.2792" font-family="Times,serif" font-size="20.00" fill="#000000">200</text>
<text text-anchor="middle" x="333.5" y="-664.2792" font-family="Times,serif" font-size="20.00" fill="#000000">201</text>
<text text-anchor="middle" x="333.5" y="-642.2792" font-family="Times,serif" font-size="20.00" fill="#000000">202</text>
<text text-anchor="middle" x="333.5" y="-620.2792" font-family="Times,serif" font-size="20.00" fill="#000000">203</text>
<text text-anchor="middle" x="333.5" y="-598.2792" font-family="Times,serif" font-size="20.00" fill="#000000">206</text>
<text text-anchor="middle" x="333.5" y="-576.2792" font-family="Times,serif" font-size="20.00" fill="#000000">207</text>
<text text-anchor="middle" x="333.5" y="-554.2792" font-family="Times,serif" font-size="20.00" fill="#000000">226</text>
</g>
<!-- SG_0_Node_5 -->
<g id="node10" class="node">
<title>SG_0_Node_5</title>
<polygon fill="none" stroke="#000000" points="207.5,-215.6396 16.5,-215.6396 16.5,-179.6396 207.5,-179.6396 207.5,-215.6396"/>
<text text-anchor="middle" x="112" y="-192.6396" font-family="Times,serif" font-size="20.00" fill="#000000">X&#45;Frame&#45;Options</text>
</g>
<!-- SG_0_Node_4&#45;&gt;SG_0_Node_5 -->
<g id="edge9" class="edge">
<title>SG_0_Node_4&#45;&gt;SG_0_Node_5</title>
<path fill="none" stroke="#000000" d="M152.4752,-471.9871C136.142,-462.5617 119.1363,-449.3002 110,-431.8528 74.9117,-364.8454 91.8699,-271.56 103.7652,-225.5608"/>
<polygon fill="#000000" stroke="#000000" points="107.198,-226.2737 106.4258,-215.707 100.44,-224.4489 107.198,-226.2737"/>
<text text-anchor="middle" x="149.5" y="-338.8528" font-family="Times,serif" font-size="20.00" fill="#000000">text/css</text>
</g>
<!-- SG_0_Node_11 -->
<g id="node11" class="node">
<title>SG_0_Node_11</title>
<ellipse fill="none" stroke="#000000" cx="260" cy="-197.6396" rx="34.7971" ry="21.4286"/>
<text text-anchor="middle" x="260" y="-192.6396" font-family="Times,serif" font-size="20.00" fill="#000000">1.0</text>
</g>
<!-- SG_0_Node_4&#45;&gt;SG_0_Node_11 -->
<g id="edge10" class="edge">
<title>SG_0_Node_4&#45;&gt;SG_0_Node_11</title>
<path fill="none" stroke="#000000" d="M193.2369,-471.7721C192.1613,-431.4209 192.8769,-332.2971 221,-255.8528 225.0197,-244.9266 231.4844,-234.034 238.0043,-224.6769"/>
<polygon fill="#000000" stroke="#000000" points="240.8631,-226.697 243.9389,-216.5584 235.2119,-222.566 240.8631,-226.697"/>
<text text-anchor="middle" x="332" y="-415.8528" font-family="Times,serif" font-size="20.00" fill="#000000">[NA]</text>
<text text-anchor="middle" x="332" y="-393.8528" font-family="Times,serif" font-size="20.00" fill="#000000">application/javascript</text>
<text text-anchor="middle" x="332" y="-371.8528" font-family="Times,serif" font-size="20.00" fill="#000000">application/pdf</text>
<text text-anchor="middle" x="332" y="-349.8528" font-family="Times,serif" font-size="20.00" fill="#000000">audio/wav</text>
<text text-anchor="middle" x="332" y="-327.8528" font-family="Times,serif" font-size="20.00" fill="#000000">empty</text>
<text text-anchor="middle" x="332" y="-305.8528" font-family="Times,serif" font-size="20.00" fill="#000000">image/png</text>
<text text-anchor="middle" x="332" y="-283.8528" font-family="Times,serif" font-size="20.00" fill="#000000">text/html</text>
<text text-anchor="middle" x="332" y="-261.8528" font-family="Times,serif" font-size="20.00" fill="#000000">video/mp4</text>
</g>
<!-- SG_0_Node_12 -->
<g id="node12" class="node">
<title>SG_0_Node_12</title>
<ellipse fill="none" stroke="#000000" cx="90" cy="-37.2132" rx="52.1524" ry="21.4286"/>
<text text-anchor="middle" x="90" y="-32.2132" font-family="Times,serif" font-size="20.00" fill="#000000">0.875</text>
</g>
<!-- SG_0_Node_5&#45;&gt;SG_0_Node_12 -->
<g id="edge11" class="edge">
<title>SG_0_Node_5&#45;&gt;SG_0_Node_12</title>
<path fill="none" stroke="#000000" d="M109.5191,-179.5485C105.8281,-152.6336 98.8399,-101.6751 94.3039,-68.5978"/>
<polygon fill="#000000" stroke="#000000" points="97.7509,-67.9716 92.9246,-58.5399 90.8158,-68.9227 97.7509,-67.9716"/>
<text text-anchor="middle" x="127.5" y="-112.4264" font-family="Times,serif" font-size="20.00" fill="#000000">deny</text>
</g>
<!-- SG_0_Node_13 -->
<g id="node13" class="node">
<title>SG_0_Node_13</title>
<ellipse fill="none" stroke="#000000" cx="195" cy="-37.2132" rx="34.7971" ry="21.4286"/>
<text text-anchor="middle" x="195" y="-32.2132" font-family="Times,serif" font-size="20.00" fill="#000000">1.0</text>
</g>
<!-- SG_0_Node_5&#45;&gt;SG_0_Node_13 -->
<g id="edge12" class="edge">
<title>SG_0_Node_5&#45;&gt;SG_0_Node_13</title>
<path fill="none" stroke="#000000" d="M127.8954,-179.429C136.9703,-168.392 148.081,-153.7221 156,-139.4264 168.6548,-116.5816 178.9665,-88.79 185.8014,-67.956"/>
<polygon fill="#000000" stroke="#000000" points="189.1644,-68.9302 188.8725,-58.3394 182.4962,-66.8007 189.1644,-68.9302"/>
<text text-anchor="middle" x="208" y="-123.4264" font-family="Times,serif" font-size="20.00" fill="#000000">[NA]</text>
<text text-anchor="middle" x="208" y="-101.4264" font-family="Times,serif" font-size="20.00" fill="#000000">empty</text>
</g>
<!-- SG_1_Node_0 -->
<g id="node14" class="node">
<title>SG_1_Node_0</title>
<polygon fill="none" stroke="#000000" points="665.5,-1388.5584 600.5,-1388.5584 600.5,-1352.5584 665.5,-1352.5584 665.5,-1388.5584"/>
<text text-anchor="middle" x="633" y="-1365.5584" font-family="Times,serif" font-size="20.00" fill="#000000">body</text>
</g>
<!-- SG_1_Node_1 -->
<g id="node15" class="node">
<title>SG_1_Node_1</title>
<polygon fill="none" stroke="#000000" points="685,-1231.3452 543,-1231.3452 543,-1195.3452 685,-1195.3452 685,-1231.3452"/>
<text text-anchor="middle" x="614" y="-1208.3452" font-family="Times,serif" font-size="20.00" fill="#000000">Status&#45;Code</text>
</g>
<!-- SG_1_Node_0&#45;&gt;SG_1_Node_1 -->
<g id="edge13" class="edge">
<title>SG_1_Node_0&#45;&gt;SG_1_Node_1</title>
<path fill="none" stroke="#000000" d="M600.439,-1362.8669C561.6046,-1352.9574 500.2538,-1334.7144 487,-1315.5584 475.8733,-1299.4769 476.4389,-1288.017 487,-1271.5584 497.9254,-1254.532 515.2132,-1242.4209 533.5576,-1233.8296"/>
<polygon fill="#000000" stroke="#000000" points="535.1381,-1236.9592 542.9203,-1229.7697 532.3533,-1230.5369 535.1381,-1236.9592"/>
<text text-anchor="middle" x="621.5" y="-1288.5584" font-family="Times,serif" font-size="20.00" fill="#000000">ecocnt_audio=duration=1</text>
</g>
<!-- SG_1_Node_7 -->
<g id="node16" class="node">
<title>SG_1_Node_7</title>
<ellipse fill="none" stroke="#000000" cx="778" cy="-1213.3452" rx="34.7971" ry="21.4286"/>
<text text-anchor="middle" x="778" y="-1208.3452" font-family="Times,serif" font-size="20.00" fill="#000000">1.0</text>
</g>
<!-- SG_1_Node_0&#45;&gt;SG_1_Node_7 -->
<g id="edge14" class="edge">
<title>SG_1_Node_0&#45;&gt;SG_1_Node_7</title>
<path fill="none" stroke="#000000" d="M665.7669,-1364.5149C693.9306,-1357.5767 733.4637,-1343.3613 756,-1315.5584 772.0109,-1295.8059 777.0871,-1267.0665 778.4012,-1245.0891"/>
<polygon fill="#000000" stroke="#000000" points="781.9055,-1245.0344 778.7756,-1234.9124 774.9103,-1244.777 781.9055,-1245.0344"/>
<text text-anchor="middle" x="820" y="-1299.5584" font-family="Times,serif" font-size="20.00" fill="#000000">[NA]</text>
<text text-anchor="middle" x="820" y="-1277.5584" font-family="Times,serif" font-size="20.00" fill="#000000">12 levels</text>
</g>
<!-- SG_1_Node_2 -->
<g id="node17" class="node">
<title>SG_1_Node_2</title>
<polygon fill="none" stroke="#000000" points="772.5,-938.9188 455.5,-938.9188 455.5,-902.9188 772.5,-902.9188 772.5,-938.9188"/>
<text text-anchor="middle" x="614" y="-915.9188" font-family="Times,serif" font-size="20.00" fill="#000000">Cross&#45;Origin&#45;Resource&#45;Policy</text>
</g>
<!-- SG_1_Node_1&#45;&gt;SG_1_Node_2 -->
<g id="edge15" class="edge">
<title>SG_1_Node_1&#45;&gt;SG_1_Node_2</title>
<path fill="none" stroke="#000000" d="M614,-1195.0527C614,-1145.6139 614,-1009.049 614,-949.4074"/>
<polygon fill="#000000" stroke="#000000" points="617.5001,-949.2045 614,-939.2045 610.5001,-949.2045 617.5001,-949.2045"/>
<text text-anchor="middle" x="633.5" y="-1139.132" font-family="Times,serif" font-size="20.00" fill="#000000">200</text>
<text text-anchor="middle" x="633.5" y="-1117.132" font-family="Times,serif" font-size="20.00" fill="#000000">201</text>
<text text-anchor="middle" x="633.5" y="-1095.132" font-family="Times,serif" font-size="20.00" fill="#000000">202</text>
<text text-anchor="middle" x="633.5" y="-1073.132" font-family="Times,serif" font-size="20.00" fill="#000000">203</text>
<text text-anchor="middle" x="633.5" y="-1051.132" font-family="Times,serif" font-size="20.00" fill="#000000">206</text>
<text text-anchor="middle" x="633.5" y="-1029.132" font-family="Times,serif" font-size="20.00" fill="#000000">207</text>
<text text-anchor="middle" x="633.5" y="-1007.132" font-family="Times,serif" font-size="20.00" fill="#000000">208</text>
<text text-anchor="middle" x="633.5" y="-985.132" font-family="Times,serif" font-size="20.00" fill="#000000">226</text>
</g>
<!-- SG_1_Node_8 -->
<g id="node18" class="node">
<title>SG_1_Node_8</title>
<ellipse fill="none" stroke="#000000" cx="825" cy="-920.9188" rx="34.7971" ry="21.4286"/>
<text text-anchor="middle" x="825" y="-915.9188" font-family="Times,serif" font-size="20.00" fill="#000000">1.0</text>
</g>
<!-- SG_1_Node_1&#45;&gt;SG_1_Node_8 -->
<g id="edge16" class="edge">
<title>SG_1_Node_1&#45;&gt;SG_1_Node_8</title>
<path fill="none" stroke="#000000" d="M627.4298,-1195.3C635.9432,-1183.8274 647.1653,-1168.6426 657,-1155.132 711.1142,-1080.7917 774.0983,-992.504 805.3396,-948.5912"/>
<polygon fill="#000000" stroke="#000000" points="808.2091,-950.5953 811.1526,-940.4175 802.5046,-946.5383 808.2091,-950.5953"/>
<text text-anchor="middle" x="827" y="-1073.132" font-family="Times,serif" font-size="20.00" fill="#000000">[NA]</text>
<text text-anchor="middle" x="827" y="-1051.132" font-family="Times,serif" font-size="20.00" fill="#000000">54 levels</text>
</g>
<!-- SG_1_Node_3 -->
<g id="node19" class="node">
<title>SG_1_Node_3</title>
<polygon fill="none" stroke="#000000" points="616,-778.4924 474,-778.4924 474,-742.4924 616,-742.4924 616,-778.4924"/>
<text text-anchor="middle" x="545" y="-755.4924" font-family="Times,serif" font-size="20.00" fill="#000000">Status&#45;Code</text>
</g>
<!-- SG_1_Node_2&#45;&gt;SG_1_Node_3 -->
<g id="edge17" class="edge">
<title>SG_1_Node_2&#45;&gt;SG_1_Node_3</title>
<path fill="none" stroke="#000000" d="M595.1862,-902.9036C585.0466,-892.1575 573.1773,-877.7135 566,-862.7056 554.7671,-839.2173 549.5279,-809.8871 547.093,-788.6771"/>
<polygon fill="#000000" stroke="#000000" points="550.5715,-788.2868 546.0836,-778.6895 543.607,-788.9908 550.5715,-788.2868"/>
<text text-anchor="middle" x="598" y="-835.7056" font-family="Times,serif" font-size="20.00" fill="#000000">empty</text>
</g>
<!-- SG_1_Node_9 -->
<g id="node20" class="node">
<title>SG_1_Node_9</title>
<ellipse fill="none" stroke="#000000" cx="669" cy="-760.4924" rx="34.7971" ry="21.4286"/>
<text text-anchor="middle" x="669" y="-755.4924" font-family="Times,serif" font-size="20.00" fill="#000000">1.0</text>
</g>
<!-- SG_1_Node_2&#45;&gt;SG_1_Node_9 -->
<g id="edge18" class="edge">
<title>SG_1_Node_2&#45;&gt;SG_1_Node_9</title>
<path fill="none" stroke="#000000" d="M620.2023,-902.8277C629.5206,-875.6478 647.245,-823.9484 658.5734,-790.9051"/>
<polygon fill="#000000" stroke="#000000" points="661.9351,-791.8917 661.8674,-781.2971 655.3134,-789.6215 661.9351,-791.8917"/>
<text text-anchor="middle" x="709" y="-846.7056" font-family="Times,serif" font-size="20.00" fill="#000000">[NA]</text>
<text text-anchor="middle" x="709" y="-824.7056" font-family="Times,serif" font-size="20.00" fill="#000000">same&#45;origin</text>
</g>
<!-- SG_1_Node_10 -->
<g id="node21" class="node">
<title>SG_1_Node_10</title>
<ellipse fill="none" stroke="#000000" cx="517" cy="-490.066" rx="34.7971" ry="21.4286"/>
<text text-anchor="middle" x="517" y="-485.066" font-family="Times,serif" font-size="20.00" fill="#000000">0.0</text>
</g>
<!-- SG_1_Node_3&#45;&gt;SG_1_Node_10 -->
<g id="edge19" class="edge">
<title>SG_1_Node_3&#45;&gt;SG_1_Node_10</title>
<path fill="none" stroke="#000000" d="M543.1194,-742.3291C538.431,-697.0489 526.1784,-578.7118 520.2741,-521.6871"/>
<polygon fill="#000000" stroke="#000000" points="523.7267,-521.0479 519.2153,-511.4615 516.7639,-521.7689 523.7267,-521.0479"/>
<text text-anchor="middle" x="557.5" y="-686.2792" font-family="Times,serif" font-size="20.00" fill="#000000">200</text>
<text text-anchor="middle" x="557.5" y="-664.2792" font-family="Times,serif" font-size="20.00" fill="#000000">201</text>
<text text-anchor="middle" x="557.5" y="-642.2792" font-family="Times,serif" font-size="20.00" fill="#000000">202</text>
<text text-anchor="middle" x="557.5" y="-620.2792" font-family="Times,serif" font-size="20.00" fill="#000000">203</text>
<text text-anchor="middle" x="557.5" y="-598.2792" font-family="Times,serif" font-size="20.00" fill="#000000">206</text>
<text text-anchor="middle" x="557.5" y="-576.2792" font-family="Times,serif" font-size="20.00" fill="#000000">207</text>
<text text-anchor="middle" x="557.5" y="-554.2792" font-family="Times,serif" font-size="20.00" fill="#000000">226</text>
</g>
<!-- SG_1_Node_4 -->
<g id="node22" class="node">
<title>SG_1_Node_4</title>
<polygon fill="none" stroke="#000000" points="724.5,-508.066 569.5,-508.066 569.5,-472.066 724.5,-472.066 724.5,-508.066"/>
<text text-anchor="middle" x="647" y="-485.066" font-family="Times,serif" font-size="20.00" fill="#000000">Content&#45;Type</text>
</g>
<!-- SG_1_Node_3&#45;&gt;SG_1_Node_4 -->
<g id="edge20" class="edge">
<title>SG_1_Node_3&#45;&gt;SG_1_Node_4</title>
<path fill="none" stroke="#000000" d="M557.9217,-742.2833C565.4094,-731.1276 574.5928,-716.3356 581,-702.2792 609.8544,-638.9779 630.8035,-559.5743 640.6695,-518.1518"/>
<polygon fill="#000000" stroke="#000000" points="644.1198,-518.7682 642.992,-508.2336 637.3042,-517.1722 644.1198,-518.7682"/>
<text text-anchor="middle" x="651.5" y="-620.2792" font-family="Times,serif" font-size="20.00" fill="#000000">208</text>
</g>
<!-- SG_1_Node_11 -->
<g id="node23" class="node">
<title>SG_1_Node_11</title>
<ellipse fill="none" stroke="#000000" cx="503" cy="-197.6396" rx="34.7971" ry="21.4286"/>
<text text-anchor="middle" x="503" y="-192.6396" font-family="Times,serif" font-size="20.00" fill="#000000">0.0</text>
</g>
<!-- SG_1_Node_4&#45;&gt;SG_1_Node_11 -->
<g id="edge21" class="edge">
<title>SG_1_Node_4&#45;&gt;SG_1_Node_11</title>
<path fill="none" stroke="#000000" d="M583.0236,-471.9474C549.2132,-460.942 512.7245,-446.273 503,-431.8528 461.2746,-369.979 479.3773,-276.4414 492.9696,-228.4433"/>
<polygon fill="#000000" stroke="#000000" points="496.3879,-229.2256 495.8633,-218.6438 489.6745,-227.2431 496.3879,-229.2256"/>
<text text-anchor="middle" x="614" y="-415.8528" font-family="Times,serif" font-size="20.00" fill="#000000">[NA]</text>
<text text-anchor="middle" x="614" y="-393.8528" font-family="Times,serif" font-size="20.00" fill="#000000">application/javascript</text>
<text text-anchor="middle" x="614" y="-371.8528" font-family="Times,serif" font-size="20.00" fill="#000000">application/pdf</text>
<text text-anchor="middle" x="614" y="-349.8528" font-family="Times,serif" font-size="20.00" fill="#000000">audio/wav</text>
<text text-anchor="middle" x="614" y="-327.8528" font-family="Times,serif" font-size="20.00" fill="#000000">empty</text>
<text text-anchor="middle" x="614" y="-305.8528" font-family="Times,serif" font-size="20.00" fill="#000000">image/png</text>
<text text-anchor="middle" x="614" y="-283.8528" font-family="Times,serif" font-size="20.00" fill="#000000">text/html</text>
<text text-anchor="middle" x="614" y="-261.8528" font-family="Times,serif" font-size="20.00" fill="#000000">video/mp4</text>
</g>
<!-- SG_1_Node_5 -->
<g id="node24" class="node">
<title>SG_1_Node_5</title>
<polygon fill="none" stroke="#000000" points="856.5,-215.6396 665.5,-215.6396 665.5,-179.6396 856.5,-179.6396 856.5,-215.6396"/>
<text text-anchor="middle" x="761" y="-192.6396" font-family="Times,serif" font-size="20.00" fill="#000000">X&#45;Frame&#45;Options</text>
</g>
<!-- SG_1_Node_4&#45;&gt;SG_1_Node_5 -->
<g id="edge22" class="edge">
<title>SG_1_Node_4&#45;&gt;SG_1_Node_5</title>
<path fill="none" stroke="#000000" d="M685.1818,-471.9165C701.2998,-462.2821 718.6885,-448.8763 729,-431.8528 768.5653,-366.5336 767.5194,-272.4246 763.9968,-225.8914"/>
<polygon fill="#000000" stroke="#000000" points="767.461,-225.3219 763.1215,-215.6566 760.4864,-225.9185 767.461,-225.3219"/>
<text text-anchor="middle" x="804.5" y="-338.8528" font-family="Times,serif" font-size="20.00" fill="#000000">text/css</text>
</g>
<!-- SG_1_Node_12 -->
<g id="node25" class="node">
<title>SG_1_Node_12</title>
<ellipse fill="none" stroke="#000000" cx="685" cy="-37.2132" rx="34.7971" ry="21.4286"/>
<text text-anchor="middle" x="685" y="-32.2132" font-family="Times,serif" font-size="20.00" fill="#000000">0.0</text>
</g>
<!-- SG_1_Node_5&#45;&gt;SG_1_Node_12 -->
<g id="edge23" class="edge">
<title>SG_1_Node_5&#45;&gt;SG_1_Node_12</title>
<path fill="none" stroke="#000000" d="M736.8498,-179.4388C724.7919,-169.0467 711.0867,-154.9998 703,-139.4264 691.6345,-117.5387 687.2769,-89.8366 685.6824,-68.7947"/>
<polygon fill="#000000" stroke="#000000" points="689.1734,-68.5366 685.0904,-58.7601 682.1855,-68.9489 689.1734,-68.5366"/>
<text text-anchor="middle" x="735" y="-123.4264" font-family="Times,serif" font-size="20.00" fill="#000000">[NA]</text>
<text text-anchor="middle" x="735" y="-101.4264" font-family="Times,serif" font-size="20.00" fill="#000000">empty</text>
</g>
<!-- SG_1_Node_13 -->
<g id="node26" class="node">
<title>SG_1_Node_13</title>
<ellipse fill="none" stroke="#000000" cx="790" cy="-37.2132" rx="52.1524" ry="21.4286"/>
<text text-anchor="middle" x="790" y="-32.2132" font-family="Times,serif" font-size="20.00" fill="#000000">0.125</text>
</g>
<!-- SG_1_Node_5&#45;&gt;SG_1_Node_13 -->
<g id="edge24" class="edge">
<title>SG_1_Node_5&#45;&gt;SG_1_Node_13</title>
<path fill="none" stroke="#000000" d="M764.2703,-179.5485C769.1357,-152.6336 778.3473,-101.6751 784.3267,-68.5978"/>
<polygon fill="#000000" stroke="#000000" points="787.8101,-69.003 786.1448,-58.5399 780.9217,-67.7578 787.8101,-69.003"/>
<text text-anchor="middle" x="803.5" y="-112.4264" font-family="Times,serif" font-size="20.00" fill="#000000">deny</text>
</g>
</g>
</svg>
