<?xml version="1.0" encoding="UTF-8" standalone="no"?>
<!DOCTYPE svg PUBLIC "-//W3C//DTD SVG 1.1//EN"
 "http://www.w3.org/Graphics/SVG/1.1/DTD/svg11.dtd">
<!-- Generated by graphviz version 2.40.1 (20161225.0304)
 -->
<!-- Title: G Pages: 1 -->
<svg width="1014pt" height="493pt"
 viewBox="0.00 0.00 1014.00 492.85" xmlns="http://www.w3.org/2000/svg" xmlns:xlink="http://www.w3.org/1999/xlink">
<g id="graph0" class="graph" transform="scale(1 1) rotate(0) translate(4 488.8528)">
<title>G</title>
<polygon fill="#ffffff" stroke="transparent" points="-4,4 -4,-488.8528 1010,-488.8528 1010,4 -4,4"/>
<g id="clust1" class="cluster">
<title>cluster_0</title>
<polygon fill="none" stroke="#000000" points="8,-8 8,-476.8528 526,-476.8528 526,-8 8,-8"/>
<text text-anchor="middle" x="267" y="-440.8528" font-family="Times,serif" font-size="40.00" fill="#000000">Tree 0, Class Load failed</text>
</g>
<g id="clust5" class="cluster">
<title>cluster_1</title>
<polygon fill="none" stroke="#000000" points="534,-8 534,-476.8528 998,-476.8528 998,-8 534,-8"/>
<text text-anchor="middle" x="766" y="-440.8528" font-family="Times,serif" font-size="40.00" fill="#000000">Tree 0, Class uncalled</text>
</g>
<!-- SG_0_Node_0 -->
<g id="node1" class="node">
<title>SG_0_Node_0</title>
<polygon fill="none" stroke="#000000" points="371.5,-416.8528 54.5,-416.8528 54.5,-380.8528 371.5,-380.8528 371.5,-416.8528"/>
<text text-anchor="middle" x="213" y="-393.8528" font-family="Times,serif" font-size="20.00" fill="#000000">Cross&#45;Origin&#45;Resource&#45;Policy</text>
</g>
<!-- SG_0_Node_1 -->
<g id="node2" class="node">
<title>SG_0_Node_1</title>
<polygon fill="none" stroke="#000000" points="204,-259.6396 62,-259.6396 62,-223.6396 204,-223.6396 204,-259.6396"/>
<text text-anchor="middle" x="133" y="-236.6396" font-family="Times,serif" font-size="20.00" fill="#000000">Status&#45;Code</text>
</g>
<!-- SG_0_Node_0&#45;&gt;SG_0_Node_1 -->
<g id="edge1" class="edge">
<title>SG_0_Node_0&#45;&gt;SG_0_Node_1</title>
<path fill="none" stroke="#000000" d="M190.8931,-380.7651C180.1396,-370.888 167.8689,-357.836 160,-343.8528 146.9867,-320.7277 140.0605,-291.1228 136.4965,-269.7323"/>
<polygon fill="#000000" stroke="#000000" points="139.9292,-269.0246 134.9649,-259.6648 133.0088,-270.0775 139.9292,-269.0246"/>
<text text-anchor="middle" x="192" y="-316.8528" font-family="Times,serif" font-size="20.00" fill="#000000">empty</text>
</g>
<!-- SG_0_Node_2 -->
<g id="node3" class="node">
<title>SG_0_Node_2</title>
<ellipse fill="none" stroke="#000000" cx="257" cy="-241.6396" rx="34.7971" ry="21.4286"/>
<text text-anchor="middle" x="257" y="-236.6396" font-family="Times,serif" font-size="20.00" fill="#000000">1.0</text>
</g>
<!-- SG_0_Node_0&#45;&gt;SG_0_Node_2 -->
<g id="edge2" class="edge">
<title>SG_0_Node_0&#45;&gt;SG_0_Node_2</title>
<path fill="none" stroke="#000000" d="M218.0474,-380.8185C225.4412,-354.4002 239.3171,-304.8213 248.3551,-272.528"/>
<polygon fill="#000000" stroke="#000000" points="251.7804,-273.2752 251.1052,-262.7019 245.0395,-271.3885 251.7804,-273.2752"/>
<text text-anchor="middle" x="301" y="-327.8528" font-family="Times,serif" font-size="20.00" fill="#000000">[NA]</text>
<text text-anchor="middle" x="301" y="-305.8528" font-family="Times,serif" font-size="20.00" fill="#000000">same&#45;origin</text>
</g>
<!-- SG_0_Node_3 -->
<g id="node4" class="node">
<title>SG_0_Node_3</title>
<ellipse fill="none" stroke="#000000" cx="92" cy="-37.2132" rx="34.7971" ry="21.4286"/>
<text text-anchor="middle" x="92" y="-32.2132" font-family="Times,serif" font-size="20.00" fill="#000000">0.0</text>
</g>
<!-- SG_0_Node_1&#45;&gt;SG_0_Node_3 -->
<g id="edge3" class="edge">
<title>SG_0_Node_1&#45;&gt;SG_0_Node_3</title>
<path fill="none" stroke="#000000" d="M122.7072,-223.6307C116.8011,-212.425 109.8205,-197.5117 106,-183.4264 95.536,-144.8486 92.6375,-98.6957 91.9628,-68.7077"/>
<polygon fill="#000000" stroke="#000000" points="95.4583,-68.3799 91.805,-58.4349 88.4591,-68.4875 95.4583,-68.3799"/>
<text text-anchor="middle" x="152" y="-145.4264" font-family="Times,serif" font-size="20.00" fill="#000000">[NA]</text>
<text text-anchor="middle" x="152" y="-123.4264" font-family="Times,serif" font-size="20.00" fill="#000000">58 levels</text>
</g>
<!-- SG_0_Node_4 -->
<g id="node5" class="node">
<title>SG_0_Node_4</title>
<ellipse fill="none" stroke="#000000" cx="220" cy="-37.2132" rx="34.7971" ry="21.4286"/>
<text text-anchor="middle" x="220" y="-32.2132" font-family="Times,serif" font-size="20.00" fill="#000000">1.0</text>
</g>
<!-- SG_0_Node_1&#45;&gt;SG_0_Node_4 -->
<g id="edge4" class="edge">
<title>SG_0_Node_1&#45;&gt;SG_0_Node_4</title>
<path fill="none" stroke="#000000" d="M160.9006,-223.6053C174.2972,-213.4445 189.2945,-199.5573 198,-183.4264 217.412,-147.4568 221.1872,-99.6682 221.2674,-68.678"/>
<polygon fill="#000000" stroke="#000000" points="224.7651,-68.4269 221.1612,-58.4639 217.7654,-68.4998 224.7651,-68.4269"/>
<text text-anchor="middle" x="239.5" y="-167.4264" font-family="Times,serif" font-size="20.00" fill="#000000">100</text>
<text text-anchor="middle" x="239.5" y="-145.4264" font-family="Times,serif" font-size="20.00" fill="#000000">102</text>
<text text-anchor="middle" x="239.5" y="-123.4264" font-family="Times,serif" font-size="20.00" fill="#000000">103</text>
<text text-anchor="middle" x="239.5" y="-101.4264" font-family="Times,serif" font-size="20.00" fill="#000000">407</text>
</g>
<!-- SG_1_Node_0 -->
<g id="node6" class="node">
<title>SG_1_Node_0</title>
<polygon fill="none" stroke="#000000" points="900.5,-416.8528 583.5,-416.8528 583.5,-380.8528 900.5,-380.8528 900.5,-416.8528"/>
<text text-anchor="middle" x="742" y="-393.8528" font-family="Times,serif" font-size="20.00" fill="#000000">Cross&#45;Origin&#45;Resource&#45;Policy</text>
</g>
<!-- SG_1_Node_2 -->
<g id="node7" class="node">
<title>SG_1_Node_2</title>
<ellipse fill="none" stroke="#000000" cx="625" cy="-241.6396" rx="34.7971" ry="21.4286"/>
<text text-anchor="middle" x="625" y="-236.6396" font-family="Times,serif" font-size="20.00" fill="#000000">0.0</text>
</g>
<!-- SG_1_Node_0&#45;&gt;SG_1_Node_2 -->
<g id="edge5" class="edge">
<title>SG_1_Node_0&#45;&gt;SG_1_Node_2</title>
<path fill="none" stroke="#000000" d="M677.0643,-380.8284C658.8747,-372.5481 641.0675,-360.6866 630,-343.8528 616.328,-323.0575 616.1211,-294.4165 618.7371,-272.7421"/>
<polygon fill="#000000" stroke="#000000" points="622.2178,-273.1276 620.2014,-262.7264 615.2915,-272.1149 622.2178,-273.1276"/>
<text text-anchor="middle" x="691" y="-327.8528" font-family="Times,serif" font-size="20.00" fill="#000000">[NA]</text>
<text text-anchor="middle" x="691" y="-305.8528" font-family="Times,serif" font-size="20.00" fill="#000000">same&#45;origin</text>
</g>
<!-- SG_1_Node_1 -->
<g id="node8" class="node">
<title>SG_1_Node_1</title>
<polygon fill="none" stroke="#000000" points="854,-259.6396 712,-259.6396 712,-223.6396 854,-223.6396 854,-259.6396"/>
<text text-anchor="middle" x="783" y="-236.6396" font-family="Times,serif" font-size="20.00" fill="#000000">Status&#45;Code</text>
</g>
<!-- SG_1_Node_0&#45;&gt;SG_1_Node_1 -->
<g id="edge6" class="edge">
<title>SG_1_Node_0&#45;&gt;SG_1_Node_1</title>
<path fill="none" stroke="#000000" d="M746.7032,-380.8185C753.8017,-353.5996 767.3119,-301.7952 775.6974,-269.641"/>
<polygon fill="#000000" stroke="#000000" points="779.0885,-270.5075 778.2253,-259.9479 772.315,-268.741 779.0885,-270.5075"/>
<text text-anchor="middle" x="799" y="-316.8528" font-family="Times,serif" font-size="20.00" fill="#000000">empty</text>
</g>
<!-- SG_1_Node_3 -->
<g id="node9" class="node">
<title>SG_1_Node_3</title>
<ellipse fill="none" stroke="#000000" cx="741" cy="-37.2132" rx="34.7971" ry="21.4286"/>
<text text-anchor="middle" x="741" y="-32.2132" font-family="Times,serif" font-size="20.00" fill="#000000">0.0</text>
</g>
<!-- SG_1_Node_1&#45;&gt;SG_1_Node_3 -->
<g id="edge7" class="edge">
<title>SG_1_Node_1&#45;&gt;SG_1_Node_3</title>
<path fill="none" stroke="#000000" d="M774.9856,-223.6263C770.2489,-212.2944 764.5095,-197.2493 761,-183.4264 751.1734,-144.7222 745.8988,-98.9496 743.2759,-69.0618"/>
<polygon fill="#000000" stroke="#000000" points="746.7404,-68.4883 742.426,-58.8118 739.7644,-69.0668 746.7404,-68.4883"/>
<text text-anchor="middle" x="780.5" y="-167.4264" font-family="Times,serif" font-size="20.00" fill="#000000">100</text>
<text text-anchor="middle" x="780.5" y="-145.4264" font-family="Times,serif" font-size="20.00" fill="#000000">102</text>
<text text-anchor="middle" x="780.5" y="-123.4264" font-family="Times,serif" font-size="20.00" fill="#000000">103</text>
<text text-anchor="middle" x="780.5" y="-101.4264" font-family="Times,serif" font-size="20.00" fill="#000000">407</text>
</g>
<!-- SG_1_Node_4 -->
<g id="node10" class="node">
<title>SG_1_Node_4</title>
<ellipse fill="none" stroke="#000000" cx="828" cy="-37.2132" rx="34.7971" ry="21.4286"/>
<text text-anchor="middle" x="828" y="-32.2132" font-family="Times,serif" font-size="20.00" fill="#000000">1.0</text>
</g>
<!-- SG_1_Node_1&#45;&gt;SG_1_Node_4 -->
<g id="edge8" class="edge">
<title>SG_1_Node_1&#45;&gt;SG_1_Node_4</title>
<path fill="none" stroke="#000000" d="M788.8081,-223.4063C792.3235,-211.9916 796.7414,-196.9367 800,-183.4264 809.4449,-144.2667 817.7679,-98.5932 822.8342,-68.8527"/>
<polygon fill="#000000" stroke="#000000" points="826.3417,-69.1003 824.5494,-58.6582 819.4387,-67.9388 826.3417,-69.1003"/>
<text text-anchor="middle" x="864" y="-145.4264" font-family="Times,serif" font-size="20.00" fill="#000000">[NA]</text>
<text text-anchor="middle" x="864" y="-123.4264" font-family="Times,serif" font-size="20.00" fill="#000000">58 levels</text>
</g>
</g>
</svg>
