<?xml version="1.0" encoding="UTF-8" standalone="no"?>
<!DOCTYPE svg PUBLIC "-//W3C//DTD SVG 1.1//EN"
 "http://www.w3.org/Graphics/SVG/1.1/DTD/svg11.dtd">
<!-- Generated by graphviz version 2.40.1 (20161225.0304)
 -->
<!-- Title: G Pages: 1 -->
<svg width="9752pt" height="515pt"
 viewBox="0.00 0.00 9752.00 514.85" xmlns="http://www.w3.org/2000/svg" xmlns:xlink="http://www.w3.org/1999/xlink">
<g id="graph0" class="graph" transform="scale(1 1) rotate(0) translate(4 510.8528)">
<title>G</title>
<polygon fill="#ffffff" stroke="transparent" points="-4,4 -4,-510.8528 9748,-510.8528 9748,4 -4,4"/>
<g id="clust1" class="cluster">
<title>cluster_0</title>
<polygon fill="none" stroke="#000000" points="8,-8 8,-498.8528 4788,-498.8528 4788,-8 8,-8"/>
<text text-anchor="middle" x="2398" y="-462.8528" font-family="Times,serif" font-size="40.00" fill="#000000">Tree 0, Class {&#39;size&#39;: {&#39;transferSize&#39;: 0, &#39;decodedBodySize&#39;: 0, &#39;encodedBodySize&#39;: 0}, &#39;timing&#39;: {&#39;duration&#39;: &gt;0, &#39;fetchStart&#39;: &gt;0, &#39;redirectEnd&#39;: 0, &#39;redirectStart&#39;: 0, &#39;secureConnectionStart&#39;: 0}, &#39;initiatorType&#39;: &#39;fetch&#39;, &#39;nextHopProtocol&#39;: &#39;&#39;}</text>
</g>
<g id="clust5" class="cluster">
<title>cluster_1</title>
<polygon fill="none" stroke="#000000" points="4796,-8 4796,-498.8528 9736,-498.8528 9736,-8 4796,-8"/>
<text text-anchor="middle" x="7266" y="-462.8528" font-family="Times,serif" font-size="40.00" fill="#000000">Tree 0, Class {&#39;size&#39;: {&#39;transferSize&#39;: 0, &#39;decodedBodySize&#39;: 0, &#39;encodedBodySize&#39;: 0}, &#39;timing&#39;: {&#39;duration&#39;: &gt;0, &#39;fetchStart&#39;: &gt;0, &#39;redirectEnd&#39;: 0, &#39;redirectStart&#39;: 0, &#39;secureConnectionStart&#39;: 0}, &#39;initiatorType&#39;: &#39;fetch&#39;, &#39;nextHopProtocol&#39;: &#39;http/1.1&#39;}</text>
</g>
<!-- SG_0_Node_0 -->
<g id="node1" class="node">
<title>SG_0_Node_0</title>
<polygon fill="none" stroke="#000000" points="371.5,-438.8528 54.5,-438.8528 54.5,-402.8528 371.5,-402.8528 371.5,-438.8528"/>
<text text-anchor="middle" x="213" y="-415.8528" font-family="Times,serif" font-size="20.00" fill="#000000">Cross&#45;Origin&#45;Resource&#45;Policy</text>
</g>
<!-- SG_0_Node_1 -->
<g id="node2" class="node">
<title>SG_0_Node_1</title>
<polygon fill="none" stroke="#000000" points="204,-281.6396 62,-281.6396 62,-245.6396 204,-245.6396 204,-281.6396"/>
<text text-anchor="middle" x="133" y="-258.6396" font-family="Times,serif" font-size="20.00" fill="#000000">Status&#45;Code</text>
</g>
<!-- SG_0_Node_0&#45;&gt;SG_0_Node_1 -->
<g id="edge1" class="edge">
<title>SG_0_Node_0&#45;&gt;SG_0_Node_1</title>
<path fill="none" stroke="#000000" d="M190.8931,-402.7651C180.1396,-392.888 167.8689,-379.836 160,-365.8528 146.9867,-342.7277 140.0605,-313.1228 136.4965,-291.7323"/>
<polygon fill="#000000" stroke="#000000" points="139.9292,-291.0246 134.9649,-281.6648 133.0088,-292.0775 139.9292,-291.0246"/>
<text text-anchor="middle" x="192" y="-338.8528" font-family="Times,serif" font-size="20.00" fill="#000000">empty</text>
</g>
<!-- SG_0_Node_2 -->
<g id="node3" class="node">
<title>SG_0_Node_2</title>
<ellipse fill="none" stroke="#000000" cx="257" cy="-263.6396" rx="34.7971" ry="21.4286"/>
<text text-anchor="middle" x="257" y="-258.6396" font-family="Times,serif" font-size="20.00" fill="#000000">1.0</text>
</g>
<!-- SG_0_Node_0&#45;&gt;SG_0_Node_2 -->
<g id="edge2" class="edge">
<title>SG_0_Node_0&#45;&gt;SG_0_Node_2</title>
<path fill="none" stroke="#000000" d="M218.0474,-402.8185C225.4412,-376.4002 239.3171,-326.8213 248.3551,-294.528"/>
<polygon fill="#000000" stroke="#000000" points="251.7804,-295.2752 251.1052,-284.7019 245.0395,-293.3885 251.7804,-295.2752"/>
<text text-anchor="middle" x="301" y="-349.8528" font-family="Times,serif" font-size="20.00" fill="#000000">[NA]</text>
<text text-anchor="middle" x="301" y="-327.8528" font-family="Times,serif" font-size="20.00" fill="#000000">same&#45;origin</text>
</g>
<!-- SG_0_Node_3 -->
<g id="node4" class="node">
<title>SG_0_Node_3</title>
<ellipse fill="none" stroke="#000000" cx="92" cy="-37.2132" rx="34.7971" ry="21.4286"/>
<text text-anchor="middle" x="92" y="-32.2132" font-family="Times,serif" font-size="20.00" fill="#000000">0.0</text>
</g>
<!-- SG_0_Node_1&#45;&gt;SG_0_Node_3 -->
<g id="edge3" class="edge">
<title>SG_0_Node_1&#45;&gt;SG_0_Node_3</title>
<path fill="none" stroke="#000000" d="M122.5086,-245.3903C116.6092,-234.2203 109.7045,-219.4274 106,-205.4264 93.724,-159.0292 91.4252,-103.1512 91.3621,-68.9123"/>
<polygon fill="#000000" stroke="#000000" points="94.8634,-68.6119 91.4104,-58.5956 87.8635,-68.5791 94.8634,-68.6119"/>
<text text-anchor="middle" x="152" y="-156.4264" font-family="Times,serif" font-size="20.00" fill="#000000">[NA]</text>
<text text-anchor="middle" x="152" y="-134.4264" font-family="Times,serif" font-size="20.00" fill="#000000">57 levels</text>
</g>
<!-- SG_0_Node_4 -->
<g id="node5" class="node">
<title>SG_0_Node_4</title>
<ellipse fill="none" stroke="#000000" cx="220" cy="-37.2132" rx="34.7971" ry="21.4286"/>
<text text-anchor="middle" x="220" y="-32.2132" font-family="Times,serif" font-size="20.00" fill="#000000">1.0</text>
</g>
<!-- SG_0_Node_1&#45;&gt;SG_0_Node_4 -->
<g id="edge4" class="edge">
<title>SG_0_Node_1&#45;&gt;SG_0_Node_4</title>
<path fill="none" stroke="#000000" d="M161.3641,-245.4225C174.7091,-235.3025 189.5212,-221.5065 198,-205.4264 220.8444,-162.1018 223.293,-104.0823 222.204,-68.7413"/>
<polygon fill="#000000" stroke="#000000" points="225.6922,-68.3855 221.7712,-58.5429 218.6985,-68.6824 225.6922,-68.3855"/>
<text text-anchor="middle" x="241.5" y="-189.4264" font-family="Times,serif" font-size="20.00" fill="#000000">100</text>
<text text-anchor="middle" x="241.5" y="-167.4264" font-family="Times,serif" font-size="20.00" fill="#000000">101</text>
<text text-anchor="middle" x="241.5" y="-145.4264" font-family="Times,serif" font-size="20.00" fill="#000000">102</text>
<text text-anchor="middle" x="241.5" y="-123.4264" font-family="Times,serif" font-size="20.00" fill="#000000">103</text>
<text text-anchor="middle" x="241.5" y="-101.4264" font-family="Times,serif" font-size="20.00" fill="#000000">407</text>
</g>
<!-- SG_1_Node_0 -->
<g id="node6" class="node">
<title>SG_1_Node_0</title>
<polygon fill="none" stroke="#000000" points="7362.5,-438.8528 7045.5,-438.8528 7045.5,-402.8528 7362.5,-402.8528 7362.5,-438.8528"/>
<text text-anchor="middle" x="7204" y="-415.8528" font-family="Times,serif" font-size="20.00" fill="#000000">Cross&#45;Origin&#45;Resource&#45;Policy</text>
</g>
<!-- SG_1_Node_2 -->
<g id="node7" class="node">
<title>SG_1_Node_2</title>
<ellipse fill="none" stroke="#000000" cx="7125" cy="-263.6396" rx="34.7971" ry="21.4286"/>
<text text-anchor="middle" x="7125" y="-258.6396" font-family="Times,serif" font-size="20.00" fill="#000000">0.0</text>
</g>
<!-- SG_1_Node_0&#45;&gt;SG_1_Node_2 -->
<g id="edge5" class="edge">
<title>SG_1_Node_0&#45;&gt;SG_1_Node_2</title>
<path fill="none" stroke="#000000" d="M7174.0148,-402.7377C7161.133,-393.3646 7147.1849,-380.7525 7139,-365.8528 7127.1227,-344.2314 7123.9732,-316.289 7123.5982,-295.0855"/>
<polygon fill="#000000" stroke="#000000" points="7127.0983,-294.9851 7123.617,-284.9786 7120.0983,-294.972 7127.0983,-294.9851"/>
<text text-anchor="middle" x="7200" y="-349.8528" font-family="Times,serif" font-size="20.00" fill="#000000">[NA]</text>
<text text-anchor="middle" x="7200" y="-327.8528" font-family="Times,serif" font-size="20.00" fill="#000000">same&#45;origin</text>
</g>
<!-- SG_1_Node_1 -->
<g id="node8" class="node">
<title>SG_1_Node_1</title>
<polygon fill="none" stroke="#000000" points="7354,-281.6396 7212,-281.6396 7212,-245.6396 7354,-245.6396 7354,-281.6396"/>
<text text-anchor="middle" x="7283" y="-258.6396" font-family="Times,serif" font-size="20.00" fill="#000000">Status&#45;Code</text>
</g>
<!-- SG_1_Node_0&#45;&gt;SG_1_Node_1 -->
<g id="edge6" class="edge">
<title>SG_1_Node_0&#45;&gt;SG_1_Node_1</title>
<path fill="none" stroke="#000000" d="M7228.6664,-402.7441C7240.1694,-393.0435 7253.0452,-380.1536 7261,-365.8528 7273.7567,-342.9193 7279.1215,-313.2895 7281.3748,-291.8411"/>
<polygon fill="#000000" stroke="#000000" points="7284.8733,-292.0127 7282.2711,-281.7424 7277.9007,-291.3937 7284.8733,-292.0127"/>
<text text-anchor="middle" x="7308" y="-338.8528" font-family="Times,serif" font-size="20.00" fill="#000000">empty</text>
</g>
<!-- SG_1_Node_3 -->
<g id="node9" class="node">
<title>SG_1_Node_3</title>
<ellipse fill="none" stroke="#000000" cx="7241" cy="-37.2132" rx="34.7971" ry="21.4286"/>
<text text-anchor="middle" x="7241" y="-32.2132" font-family="Times,serif" font-size="20.00" fill="#000000">0.0</text>
</g>
<!-- SG_1_Node_1&#45;&gt;SG_1_Node_3 -->
<g id="edge7" class="edge">
<title>SG_1_Node_1&#45;&gt;SG_1_Node_3</title>
<path fill="none" stroke="#000000" d="M7274.7914,-245.3896C7270.0441,-234.0959 7264.362,-219.1747 7261,-205.4264 7249.5587,-158.6397 7244.5709,-102.8706 7242.4621,-68.7607"/>
<polygon fill="#000000" stroke="#000000" points="7245.9398,-68.2696 7241.8741,-58.486 7238.9513,-68.6697 7245.9398,-68.2696"/>
<text text-anchor="middle" x="7280.5" y="-189.4264" font-family="Times,serif" font-size="20.00" fill="#000000">100</text>
<text text-anchor="middle" x="7280.5" y="-167.4264" font-family="Times,serif" font-size="20.00" fill="#000000">101</text>
<text text-anchor="middle" x="7280.5" y="-145.4264" font-family="Times,serif" font-size="20.00" fill="#000000">102</text>
<text text-anchor="middle" x="7280.5" y="-123.4264" font-family="Times,serif" font-size="20.00" fill="#000000">103</text>
<text text-anchor="middle" x="7280.5" y="-101.4264" font-family="Times,serif" font-size="20.00" fill="#000000">407</text>
</g>
<!-- SG_1_Node_4 -->
<g id="node10" class="node">
<title>SG_1_Node_4</title>
<ellipse fill="none" stroke="#000000" cx="7328" cy="-37.2132" rx="34.7971" ry="21.4286"/>
<text text-anchor="middle" x="7328" y="-32.2132" font-family="Times,serif" font-size="20.00" fill="#000000">1.0</text>
</g>
<!-- SG_1_Node_1&#45;&gt;SG_1_Node_4 -->
<g id="edge8" class="edge">
<title>SG_1_Node_1&#45;&gt;SG_1_Node_4</title>
<path fill="none" stroke="#000000" d="M7288.9237,-245.4334C7292.4825,-234.029 7296.9056,-218.9753 7300,-205.4264 7310.766,-158.2872 7319.1916,-102.8293 7323.8811,-68.8538"/>
<polygon fill="#000000" stroke="#000000" points="7327.3938,-68.9954 7325.2706,-58.6155 7320.4574,-68.0539 7327.3938,-68.9954"/>
<text text-anchor="middle" x="7365" y="-156.4264" font-family="Times,serif" font-size="20.00" fill="#000000">[NA]</text>
<text text-anchor="middle" x="7365" y="-134.4264" font-family="Times,serif" font-size="20.00" fill="#000000">57 levels</text>
</g>
</g>
</svg>
