<?xml version="1.0" encoding="UTF-8" standalone="no"?>
<!DOCTYPE svg PUBLIC "-//W3C//DTD SVG 1.1//EN"
 "http://www.w3.org/Graphics/SVG/1.1/DTD/svg11.dtd">
<!-- Generated by graphviz version 2.40.1 (20161225.0304)
 -->
<!-- Title: G Pages: 1 -->
<svg width="1072pt" height="493pt"
 viewBox="0.00 0.00 1072.00 492.85" xmlns="http://www.w3.org/2000/svg" xmlns:xlink="http://www.w3.org/1999/xlink">
<g id="graph0" class="graph" transform="scale(1 1) rotate(0) translate(4 488.8528)">
<title>G</title>
<polygon fill="#ffffff" stroke="transparent" points="-4,4 -4,-488.8528 1068,-488.8528 1068,4 -4,4"/>
<g id="clust1" class="cluster">
<title>cluster_0</title>
<polygon fill="none" stroke="#000000" points="8,-8 8,-476.8528 535,-476.8528 535,-8 8,-8"/>
<text text-anchor="middle" x="271.5" y="-440.8528" font-family="Times,serif" font-size="40.00" fill="#000000">Tree 0, Class [{}, &#39;error&#39;]</text>
</g>
<g id="clust5" class="cluster">
<title>cluster_1</title>
<polygon fill="none" stroke="#000000" points="543,-8 543,-476.8528 1056,-476.8528 1056,-8 543,-8"/>
<text text-anchor="middle" x="799.5" y="-440.8528" font-family="Times,serif" font-size="40.00" fill="#000000">Tree 0, Class [{}, &#39;then&#39;]</text>
</g>
<!-- SG_0_Node_0 -->
<g id="node1" class="node">
<title>SG_0_Node_0</title>
<polygon fill="none" stroke="#000000" points="371.5,-416.8528 54.5,-416.8528 54.5,-380.8528 371.5,-380.8528 371.5,-416.8528"/>
<text text-anchor="middle" x="213" y="-393.8528" font-family="Times,serif" font-size="20.00" fill="#000000">Cross&#45;Origin&#45;Resource&#45;Policy</text>
</g>
<!-- SG_0_Node_1 -->
<g id="node2" class="node">
<title>SG_0_Node_1</title>
<polygon fill="none" stroke="#000000" points="204,-259.6396 62,-259.6396 62,-223.6396 204,-223.6396 204,-259.6396"/>
<text text-anchor="middle" x="133" y="-236.6396" font-family="Times,serif" font-size="20.00" fill="#000000">Status&#45;Code</text>
</g>
<!-- SG_0_Node_0&#45;&gt;SG_0_Node_1 -->
<g id="edge1" class="edge">
<title>SG_0_Node_0&#45;&gt;SG_0_Node_1</title>
<path fill="none" stroke="#000000" d="M190.8931,-380.7651C180.1396,-370.888 167.8689,-357.836 160,-343.8528 146.9867,-320.7277 140.0605,-291.1228 136.4965,-269.7323"/>
<polygon fill="#000000" stroke="#000000" points="139.9292,-269.0246 134.9649,-259.6648 133.0088,-270.0775 139.9292,-269.0246"/>
<text text-anchor="middle" x="192" y="-316.8528" font-family="Times,serif" font-size="20.00" fill="#000000">empty</text>
</g>
<!-- SG_0_Node_2 -->
<g id="node3" class="node">
<title>SG_0_Node_2</title>
<ellipse fill="none" stroke="#000000" cx="257" cy="-241.6396" rx="34.7971" ry="21.4286"/>
<text text-anchor="middle" x="257" y="-236.6396" font-family="Times,serif" font-size="20.00" fill="#000000">1.0</text>
</g>
<!-- SG_0_Node_0&#45;&gt;SG_0_Node_2 -->
<g id="edge2" class="edge">
<title>SG_0_Node_0&#45;&gt;SG_0_Node_2</title>
<path fill="none" stroke="#000000" d="M218.0474,-380.8185C225.4412,-354.4002 239.3171,-304.8213 248.3551,-272.528"/>
<polygon fill="#000000" stroke="#000000" points="251.7804,-273.2752 251.1052,-262.7019 245.0395,-271.3885 251.7804,-273.2752"/>
<text text-anchor="middle" x="301" y="-327.8528" font-family="Times,serif" font-size="20.00" fill="#000000">[NA]</text>
<text text-anchor="middle" x="301" y="-305.8528" font-family="Times,serif" font-size="20.00" fill="#000000">same&#45;origin</text>
</g>
<!-- SG_0_Node_3 -->
<g id="node4" class="node">
<title>SG_0_Node_3</title>
<ellipse fill="none" stroke="#000000" cx="92" cy="-37.2132" rx="34.7971" ry="21.4286"/>
<text text-anchor="middle" x="92" y="-32.2132" font-family="Times,serif" font-size="20.00" fill="#000000">0.0</text>
</g>
<!-- SG_0_Node_1&#45;&gt;SG_0_Node_3 -->
<g id="edge3" class="edge">
<title>SG_0_Node_1&#45;&gt;SG_0_Node_3</title>
<path fill="none" stroke="#000000" d="M122.7072,-223.6307C116.8011,-212.425 109.8205,-197.5117 106,-183.4264 95.536,-144.8486 92.6375,-98.6957 91.9628,-68.7077"/>
<polygon fill="#000000" stroke="#000000" points="95.4583,-68.3799 91.805,-58.4349 88.4591,-68.4875 95.4583,-68.3799"/>
<text text-anchor="middle" x="152" y="-145.4264" font-family="Times,serif" font-size="20.00" fill="#000000">[NA]</text>
<text text-anchor="middle" x="152" y="-123.4264" font-family="Times,serif" font-size="20.00" fill="#000000">58 levels</text>
</g>
<!-- SG_0_Node_4 -->
<g id="node5" class="node">
<title>SG_0_Node_4</title>
<ellipse fill="none" stroke="#000000" cx="220" cy="-37.2132" rx="34.7971" ry="21.4286"/>
<text text-anchor="middle" x="220" y="-32.2132" font-family="Times,serif" font-size="20.00" fill="#000000">1.0</text>
</g>
<!-- SG_0_Node_1&#45;&gt;SG_0_Node_4 -->
<g id="edge4" class="edge">
<title>SG_0_Node_1&#45;&gt;SG_0_Node_4</title>
<path fill="none" stroke="#000000" d="M160.9006,-223.6053C174.2972,-213.4445 189.2945,-199.5573 198,-183.4264 217.412,-147.4568 221.1872,-99.6682 221.2674,-68.678"/>
<polygon fill="#000000" stroke="#000000" points="224.7651,-68.4269 221.1612,-58.4639 217.7654,-68.4998 224.7651,-68.4269"/>
<text text-anchor="middle" x="239.5" y="-167.4264" font-family="Times,serif" font-size="20.00" fill="#000000">100</text>
<text text-anchor="middle" x="239.5" y="-145.4264" font-family="Times,serif" font-size="20.00" fill="#000000">102</text>
<text text-anchor="middle" x="239.5" y="-123.4264" font-family="Times,serif" font-size="20.00" fill="#000000">103</text>
<text text-anchor="middle" x="239.5" y="-101.4264" font-family="Times,serif" font-size="20.00" fill="#000000">407</text>
</g>
<!-- SG_1_Node_0 -->
<g id="node6" class="node">
<title>SG_1_Node_0</title>
<polygon fill="none" stroke="#000000" points="921.5,-416.8528 604.5,-416.8528 604.5,-380.8528 921.5,-380.8528 921.5,-416.8528"/>
<text text-anchor="middle" x="763" y="-393.8528" font-family="Times,serif" font-size="20.00" fill="#000000">Cross&#45;Origin&#45;Resource&#45;Policy</text>
</g>
<!-- SG_1_Node_2 -->
<g id="node7" class="node">
<title>SG_1_Node_2</title>
<ellipse fill="none" stroke="#000000" cx="658" cy="-241.6396" rx="34.7971" ry="21.4286"/>
<text text-anchor="middle" x="658" y="-236.6396" font-family="Times,serif" font-size="20.00" fill="#000000">0.0</text>
</g>
<!-- SG_1_Node_0&#45;&gt;SG_1_Node_2 -->
<g id="edge5" class="edge">
<title>SG_1_Node_0&#45;&gt;SG_1_Node_2</title>
<path fill="none" stroke="#000000" d="M702.6558,-380.8004C685.1894,-372.4652 668.1205,-360.579 658,-343.8528 645.2107,-322.716 646.3316,-294.3397 650.0157,-272.8489"/>
<polygon fill="#000000" stroke="#000000" points="653.4739,-273.403 651.9805,-262.9139 646.6069,-272.0449 653.4739,-273.403"/>
<text text-anchor="middle" x="719" y="-327.8528" font-family="Times,serif" font-size="20.00" fill="#000000">[NA]</text>
<text text-anchor="middle" x="719" y="-305.8528" font-family="Times,serif" font-size="20.00" fill="#000000">same&#45;origin</text>
</g>
<!-- SG_1_Node_1 -->
<g id="node8" class="node">
<title>SG_1_Node_1</title>
<polygon fill="none" stroke="#000000" points="887,-259.6396 745,-259.6396 745,-223.6396 887,-223.6396 887,-259.6396"/>
<text text-anchor="middle" x="816" y="-236.6396" font-family="Times,serif" font-size="20.00" fill="#000000">Status&#45;Code</text>
</g>
<!-- SG_1_Node_0&#45;&gt;SG_1_Node_1 -->
<g id="edge6" class="edge">
<title>SG_1_Node_0&#45;&gt;SG_1_Node_1</title>
<path fill="none" stroke="#000000" d="M770.2827,-380.6225C774.4603,-369.9624 779.7103,-356.2124 784,-343.8528 792.6582,-318.9068 801.5575,-290.1845 807.7661,-269.5517"/>
<polygon fill="#000000" stroke="#000000" points="811.1573,-270.4275 810.6684,-259.844 804.4506,-268.4224 811.1573,-270.4275"/>
<text text-anchor="middle" x="830" y="-316.8528" font-family="Times,serif" font-size="20.00" fill="#000000">empty</text>
</g>
<!-- SG_1_Node_3 -->
<g id="node9" class="node">
<title>SG_1_Node_3</title>
<ellipse fill="none" stroke="#000000" cx="774" cy="-37.2132" rx="34.7971" ry="21.4286"/>
<text text-anchor="middle" x="774" y="-32.2132" font-family="Times,serif" font-size="20.00" fill="#000000">0.0</text>
</g>
<!-- SG_1_Node_1&#45;&gt;SG_1_Node_3 -->
<g id="edge7" class="edge">
<title>SG_1_Node_1&#45;&gt;SG_1_Node_3</title>
<path fill="none" stroke="#000000" d="M807.9856,-223.6263C803.2489,-212.2944 797.5095,-197.2493 794,-183.4264 784.1734,-144.7222 778.8988,-98.9496 776.2759,-69.0618"/>
<polygon fill="#000000" stroke="#000000" points="779.7404,-68.4883 775.426,-58.8118 772.7644,-69.0668 779.7404,-68.4883"/>
<text text-anchor="middle" x="813.5" y="-167.4264" font-family="Times,serif" font-size="20.00" fill="#000000">100</text>
<text text-anchor="middle" x="813.5" y="-145.4264" font-family="Times,serif" font-size="20.00" fill="#000000">102</text>
<text text-anchor="middle" x="813.5" y="-123.4264" font-family="Times,serif" font-size="20.00" fill="#000000">103</text>
<text text-anchor="middle" x="813.5" y="-101.4264" font-family="Times,serif" font-size="20.00" fill="#000000">407</text>
</g>
<!-- SG_1_Node_4 -->
<g id="node10" class="node">
<title>SG_1_Node_4</title>
<ellipse fill="none" stroke="#000000" cx="861" cy="-37.2132" rx="34.7971" ry="21.4286"/>
<text text-anchor="middle" x="861" y="-32.2132" font-family="Times,serif" font-size="20.00" fill="#000000">1.0</text>
</g>
<!-- SG_1_Node_1&#45;&gt;SG_1_Node_4 -->
<g id="edge8" class="edge">
<title>SG_1_Node_1&#45;&gt;SG_1_Node_4</title>
<path fill="none" stroke="#000000" d="M821.8081,-223.4063C825.3235,-211.9916 829.7414,-196.9367 833,-183.4264 842.4449,-144.2667 850.7679,-98.5932 855.8342,-68.8527"/>
<polygon fill="#000000" stroke="#000000" points="859.3417,-69.1003 857.5494,-58.6582 852.4387,-67.9388 859.3417,-69.1003"/>
<text text-anchor="middle" x="897" y="-145.4264" font-family="Times,serif" font-size="20.00" fill="#000000">[NA]</text>
<text text-anchor="middle" x="897" y="-123.4264" font-family="Times,serif" font-size="20.00" fill="#000000">58 levels</text>
</g>
</g>
</svg>
