<?xml version="1.0" encoding="UTF-8" standalone="no"?>
<!DOCTYPE svg PUBLIC "-//W3C//DTD SVG 1.1//EN"
 "http://www.w3.org/Graphics/SVG/1.1/DTD/svg11.dtd">
<!-- Generated by graphviz version 2.40.1 (20161225.0304)
 -->
<!-- Title: G Pages: 1 -->
<svg width="1072pt" height="515pt"
 viewBox="0.00 0.00 1072.00 514.85" xmlns="http://www.w3.org/2000/svg" xmlns:xlink="http://www.w3.org/1999/xlink">
<g id="graph0" class="graph" transform="scale(1 1) rotate(0) translate(4 510.8528)">
<title>G</title>
<polygon fill="#ffffff" stroke="transparent" points="-4,4 -4,-510.8528 1068,-510.8528 1068,4 -4,4"/>
<g id="clust1" class="cluster">
<title>cluster_0</title>
<polygon fill="none" stroke="#000000" points="8,-8 8,-498.8528 535,-498.8528 535,-8 8,-8"/>
<text text-anchor="middle" x="271.5" y="-462.8528" font-family="Times,serif" font-size="40.00" fill="#000000">Tree 0, Class [{}, &#39;error&#39;]</text>
</g>
<g id="clust5" class="cluster">
<title>cluster_1</title>
<polygon fill="none" stroke="#000000" points="543,-8 543,-498.8528 1056,-498.8528 1056,-8 543,-8"/>
<text text-anchor="middle" x="799.5" y="-462.8528" font-family="Times,serif" font-size="40.00" fill="#000000">Tree 0, Class [{}, &#39;then&#39;]</text>
</g>
<!-- SG_0_Node_0 -->
<g id="node1" class="node">
<title>SG_0_Node_0</title>
<polygon fill="none" stroke="#000000" points="371.5,-438.8528 54.5,-438.8528 54.5,-402.8528 371.5,-402.8528 371.5,-438.8528"/>
<text text-anchor="middle" x="213" y="-415.8528" font-family="Times,serif" font-size="20.00" fill="#000000">Cross&#45;Origin&#45;Resource&#45;Policy</text>
</g>
<!-- SG_0_Node_1 -->
<g id="node2" class="node">
<title>SG_0_Node_1</title>
<polygon fill="none" stroke="#000000" points="204,-281.6396 62,-281.6396 62,-245.6396 204,-245.6396 204,-281.6396"/>
<text text-anchor="middle" x="133" y="-258.6396" font-family="Times,serif" font-size="20.00" fill="#000000">Status&#45;Code</text>
</g>
<!-- SG_0_Node_0&#45;&gt;SG_0_Node_1 -->
<g id="edge1" class="edge">
<title>SG_0_Node_0&#45;&gt;SG_0_Node_1</title>
<path fill="none" stroke="#000000" d="M190.8931,-402.7651C180.1396,-392.888 167.8689,-379.836 160,-365.8528 146.9867,-342.7277 140.0605,-313.1228 136.4965,-291.7323"/>
<polygon fill="#000000" stroke="#000000" points="139.9292,-291.0246 134.9649,-281.6648 133.0088,-292.0775 139.9292,-291.0246"/>
<text text-anchor="middle" x="192" y="-338.8528" font-family="Times,serif" font-size="20.00" fill="#000000">empty</text>
</g>
<!-- SG_0_Node_2 -->
<g id="node3" class="node">
<title>SG_0_Node_2</title>
<ellipse fill="none" stroke="#000000" cx="257" cy="-263.6396" rx="34.7971" ry="21.4286"/>
<text text-anchor="middle" x="257" y="-258.6396" font-family="Times,serif" font-size="20.00" fill="#000000">1.0</text>
</g>
<!-- SG_0_Node_0&#45;&gt;SG_0_Node_2 -->
<g id="edge2" class="edge">
<title>SG_0_Node_0&#45;&gt;SG_0_Node_2</title>
<path fill="none" stroke="#000000" d="M218.0474,-402.8185C225.4412,-376.4002 239.3171,-326.8213 248.3551,-294.528"/>
<polygon fill="#000000" stroke="#000000" points="251.7804,-295.2752 251.1052,-284.7019 245.0395,-293.3885 251.7804,-295.2752"/>
<text text-anchor="middle" x="301" y="-349.8528" font-family="Times,serif" font-size="20.00" fill="#000000">[NA]</text>
<text text-anchor="middle" x="301" y="-327.8528" font-family="Times,serif" font-size="20.00" fill="#000000">same&#45;origin</text>
</g>
<!-- SG_0_Node_3 -->
<g id="node4" class="node">
<title>SG_0_Node_3</title>
<ellipse fill="none" stroke="#000000" cx="92" cy="-37.2132" rx="34.7971" ry="21.4286"/>
<text text-anchor="middle" x="92" y="-32.2132" font-family="Times,serif" font-size="20.00" fill="#000000">0.0</text>
</g>
<!-- SG_0_Node_1&#45;&gt;SG_0_Node_3 -->
<g id="edge3" class="edge">
<title>SG_0_Node_1&#45;&gt;SG_0_Node_3</title>
<path fill="none" stroke="#000000" d="M122.5086,-245.3903C116.6092,-234.2203 109.7045,-219.4274 106,-205.4264 93.724,-159.0292 91.4252,-103.1512 91.3621,-68.9123"/>
<polygon fill="#000000" stroke="#000000" points="94.8634,-68.6119 91.4104,-58.5956 87.8635,-68.5791 94.8634,-68.6119"/>
<text text-anchor="middle" x="152" y="-156.4264" font-family="Times,serif" font-size="20.00" fill="#000000">[NA]</text>
<text text-anchor="middle" x="152" y="-134.4264" font-family="Times,serif" font-size="20.00" fill="#000000">57 levels</text>
</g>
<!-- SG_0_Node_4 -->
<g id="node5" class="node">
<title>SG_0_Node_4</title>
<ellipse fill="none" stroke="#000000" cx="220" cy="-37.2132" rx="34.7971" ry="21.4286"/>
<text text-anchor="middle" x="220" y="-32.2132" font-family="Times,serif" font-size="20.00" fill="#000000">1.0</text>
</g>
<!-- SG_0_Node_1&#45;&gt;SG_0_Node_4 -->
<g id="edge4" class="edge">
<title>SG_0_Node_1&#45;&gt;SG_0_Node_4</title>
<path fill="none" stroke="#000000" d="M161.3641,-245.4225C174.7091,-235.3025 189.5212,-221.5065 198,-205.4264 220.8444,-162.1018 223.293,-104.0823 222.204,-68.7413"/>
<polygon fill="#000000" stroke="#000000" points="225.6922,-68.3855 221.7712,-58.5429 218.6985,-68.6824 225.6922,-68.3855"/>
<text text-anchor="middle" x="241.5" y="-189.4264" font-family="Times,serif" font-size="20.00" fill="#000000">100</text>
<text text-anchor="middle" x="241.5" y="-167.4264" font-family="Times,serif" font-size="20.00" fill="#000000">101</text>
<text text-anchor="middle" x="241.5" y="-145.4264" font-family="Times,serif" font-size="20.00" fill="#000000">102</text>
<text text-anchor="middle" x="241.5" y="-123.4264" font-family="Times,serif" font-size="20.00" fill="#000000">103</text>
<text text-anchor="middle" x="241.5" y="-101.4264" font-family="Times,serif" font-size="20.00" fill="#000000">407</text>
</g>
<!-- SG_1_Node_0 -->
<g id="node6" class="node">
<title>SG_1_Node_0</title>
<polygon fill="none" stroke="#000000" points="921.5,-438.8528 604.5,-438.8528 604.5,-402.8528 921.5,-402.8528 921.5,-438.8528"/>
<text text-anchor="middle" x="763" y="-415.8528" font-family="Times,serif" font-size="20.00" fill="#000000">Cross&#45;Origin&#45;Resource&#45;Policy</text>
</g>
<!-- SG_1_Node_2 -->
<g id="node7" class="node">
<title>SG_1_Node_2</title>
<ellipse fill="none" stroke="#000000" cx="658" cy="-263.6396" rx="34.7971" ry="21.4286"/>
<text text-anchor="middle" x="658" y="-258.6396" font-family="Times,serif" font-size="20.00" fill="#000000">0.0</text>
</g>
<!-- SG_1_Node_0&#45;&gt;SG_1_Node_2 -->
<g id="edge5" class="edge">
<title>SG_1_Node_0&#45;&gt;SG_1_Node_2</title>
<path fill="none" stroke="#000000" d="M702.6558,-402.8004C685.1894,-394.4652 668.1205,-382.579 658,-365.8528 645.2107,-344.716 646.3316,-316.3397 650.0157,-294.8489"/>
<polygon fill="#000000" stroke="#000000" points="653.4739,-295.403 651.9805,-284.9139 646.6069,-294.0449 653.4739,-295.403"/>
<text text-anchor="middle" x="719" y="-349.8528" font-family="Times,serif" font-size="20.00" fill="#000000">[NA]</text>
<text text-anchor="middle" x="719" y="-327.8528" font-family="Times,serif" font-size="20.00" fill="#000000">same&#45;origin</text>
</g>
<!-- SG_1_Node_1 -->
<g id="node8" class="node">
<title>SG_1_Node_1</title>
<polygon fill="none" stroke="#000000" points="887,-281.6396 745,-281.6396 745,-245.6396 887,-245.6396 887,-281.6396"/>
<text text-anchor="middle" x="816" y="-258.6396" font-family="Times,serif" font-size="20.00" fill="#000000">Status&#45;Code</text>
</g>
<!-- SG_1_Node_0&#45;&gt;SG_1_Node_1 -->
<g id="edge6" class="edge">
<title>SG_1_Node_0&#45;&gt;SG_1_Node_1</title>
<path fill="none" stroke="#000000" d="M770.2827,-402.6225C774.4603,-391.9624 779.7103,-378.2124 784,-365.8528 792.6582,-340.9068 801.5575,-312.1845 807.7661,-291.5517"/>
<polygon fill="#000000" stroke="#000000" points="811.1573,-292.4275 810.6684,-281.844 804.4506,-290.4224 811.1573,-292.4275"/>
<text text-anchor="middle" x="830" y="-338.8528" font-family="Times,serif" font-size="20.00" fill="#000000">empty</text>
</g>
<!-- SG_1_Node_3 -->
<g id="node9" class="node">
<title>SG_1_Node_3</title>
<ellipse fill="none" stroke="#000000" cx="774" cy="-37.2132" rx="34.7971" ry="21.4286"/>
<text text-anchor="middle" x="774" y="-32.2132" font-family="Times,serif" font-size="20.00" fill="#000000">0.0</text>
</g>
<!-- SG_1_Node_1&#45;&gt;SG_1_Node_3 -->
<g id="edge7" class="edge">
<title>SG_1_Node_1&#45;&gt;SG_1_Node_3</title>
<path fill="none" stroke="#000000" d="M807.7914,-245.3896C803.0441,-234.0959 797.362,-219.1747 794,-205.4264 782.5587,-158.6397 777.5709,-102.8706 775.4621,-68.7607"/>
<polygon fill="#000000" stroke="#000000" points="778.9398,-68.2696 774.8741,-58.486 771.9513,-68.6697 778.9398,-68.2696"/>
<text text-anchor="middle" x="813.5" y="-189.4264" font-family="Times,serif" font-size="20.00" fill="#000000">100</text>
<text text-anchor="middle" x="813.5" y="-167.4264" font-family="Times,serif" font-size="20.00" fill="#000000">101</text>
<text text-anchor="middle" x="813.5" y="-145.4264" font-family="Times,serif" font-size="20.00" fill="#000000">102</text>
<text text-anchor="middle" x="813.5" y="-123.4264" font-family="Times,serif" font-size="20.00" fill="#000000">103</text>
<text text-anchor="middle" x="813.5" y="-101.4264" font-family="Times,serif" font-size="20.00" fill="#000000">407</text>
</g>
<!-- SG_1_Node_4 -->
<g id="node10" class="node">
<title>SG_1_Node_4</title>
<ellipse fill="none" stroke="#000000" cx="861" cy="-37.2132" rx="34.7971" ry="21.4286"/>
<text text-anchor="middle" x="861" y="-32.2132" font-family="Times,serif" font-size="20.00" fill="#000000">1.0</text>
</g>
<!-- SG_1_Node_1&#45;&gt;SG_1_Node_4 -->
<g id="edge8" class="edge">
<title>SG_1_Node_1&#45;&gt;SG_1_Node_4</title>
<path fill="none" stroke="#000000" d="M821.9237,-245.4334C825.4825,-234.029 829.9056,-218.9753 833,-205.4264 843.766,-158.2872 852.1916,-102.8293 856.8811,-68.8538"/>
<polygon fill="#000000" stroke="#000000" points="860.3938,-68.9954 858.2706,-58.6155 853.4574,-68.0539 860.3938,-68.9954"/>
<text text-anchor="middle" x="898" y="-156.4264" font-family="Times,serif" font-size="20.00" fill="#000000">[NA]</text>
<text text-anchor="middle" x="898" y="-134.4264" font-family="Times,serif" font-size="20.00" fill="#000000">57 levels</text>
</g>
</g>
</svg>
