<?xml version="1.0" encoding="UTF-8" standalone="no"?>
<!DOCTYPE svg PUBLIC "-//W3C//DTD SVG 1.1//EN"
 "http://www.w3.org/Graphics/SVG/1.1/DTD/svg11.dtd">
<!-- Generated by graphviz version 2.40.1 (20161225.0304)
 -->
<!-- Title: G Pages: 1 -->
<svg width="3004pt" height="471pt"
 viewBox="0.00 0.00 3004.00 470.85" xmlns="http://www.w3.org/2000/svg" xmlns:xlink="http://www.w3.org/1999/xlink">
<g id="graph0" class="graph" transform="scale(1 1) rotate(0) translate(4 466.8528)">
<title>G</title>
<polygon fill="#ffffff" stroke="transparent" points="-4,4 -4,-466.8528 3000,-466.8528 3000,4 -4,4"/>
<g id="clust1" class="cluster">
<title>cluster_0</title>
<polygon fill="none" stroke="#000000" points="8,-8 8,-454.8528 472,-454.8528 472,-8 8,-8"/>
<text text-anchor="middle" x="240" y="-418.8528" font-family="Times,serif" font-size="40.00" fill="#000000">Tree 0, Class uncalled</text>
</g>
<g id="clust5" class="cluster">
<title>cluster_1</title>
<polygon fill="none" stroke="#000000" points="480,-8 480,-454.8528 2988,-454.8528 2988,-8 480,-8"/>
<text text-anchor="middle" x="1734" y="-418.8528" font-family="Times,serif" font-size="40.00" fill="#000000">Tree 0, Class {&#39;ok&#39;: False, &#39;url&#39;: &#39;&#39;, &#39;body&#39;: None, &#39;type&#39;: &#39;opaque&#39;, &#39;status&#39;: 0, &#39;headers&#39;: {}, &#39;redirected&#39;: False, &#39;statusText&#39;: &#39;&#39;}</text>
</g>
<!-- SG_0_Node_0 -->
<g id="node1" class="node">
<title>SG_0_Node_0</title>
<polygon fill="none" stroke="#000000" points="371.5,-394.8528 54.5,-394.8528 54.5,-358.8528 371.5,-358.8528 371.5,-394.8528"/>
<text text-anchor="middle" x="213" y="-371.8528" font-family="Times,serif" font-size="20.00" fill="#000000">Cross&#45;Origin&#45;Resource&#45;Policy</text>
</g>
<!-- SG_0_Node_1 -->
<g id="node2" class="node">
<title>SG_0_Node_1</title>
<polygon fill="none" stroke="#000000" points="204,-237.6396 62,-237.6396 62,-201.6396 204,-201.6396 204,-237.6396"/>
<text text-anchor="middle" x="133" y="-214.6396" font-family="Times,serif" font-size="20.00" fill="#000000">Status&#45;Code</text>
</g>
<!-- SG_0_Node_0&#45;&gt;SG_0_Node_1 -->
<g id="edge1" class="edge">
<title>SG_0_Node_0&#45;&gt;SG_0_Node_1</title>
<path fill="none" stroke="#000000" d="M190.8931,-358.7651C180.1396,-348.888 167.8689,-335.836 160,-321.8528 146.9867,-298.7277 140.0605,-269.1228 136.4965,-247.7323"/>
<polygon fill="#000000" stroke="#000000" points="139.9292,-247.0246 134.9649,-237.6648 133.0088,-248.0775 139.9292,-247.0246"/>
<text text-anchor="middle" x="192" y="-294.8528" font-family="Times,serif" font-size="20.00" fill="#000000">empty</text>
</g>
<!-- SG_0_Node_2 -->
<g id="node3" class="node">
<title>SG_0_Node_2</title>
<ellipse fill="none" stroke="#000000" cx="257" cy="-219.6396" rx="34.7971" ry="21.4286"/>
<text text-anchor="middle" x="257" y="-214.6396" font-family="Times,serif" font-size="20.00" fill="#000000">1.0</text>
</g>
<!-- SG_0_Node_0&#45;&gt;SG_0_Node_2 -->
<g id="edge2" class="edge">
<title>SG_0_Node_0&#45;&gt;SG_0_Node_2</title>
<path fill="none" stroke="#000000" d="M218.0474,-358.8185C225.4412,-332.4002 239.3171,-282.8213 248.3551,-250.528"/>
<polygon fill="#000000" stroke="#000000" points="251.7804,-251.2752 251.1052,-240.7019 245.0395,-249.3885 251.7804,-251.2752"/>
<text text-anchor="middle" x="301" y="-305.8528" font-family="Times,serif" font-size="20.00" fill="#000000">[NA]</text>
<text text-anchor="middle" x="301" y="-283.8528" font-family="Times,serif" font-size="20.00" fill="#000000">same&#45;origin</text>
</g>
<!-- SG_0_Node_3 -->
<g id="node4" class="node">
<title>SG_0_Node_3</title>
<ellipse fill="none" stroke="#000000" cx="92" cy="-37.2132" rx="34.7971" ry="21.4286"/>
<text text-anchor="middle" x="92" y="-32.2132" font-family="Times,serif" font-size="20.00" fill="#000000">0.0</text>
</g>
<!-- SG_0_Node_1&#45;&gt;SG_0_Node_3 -->
<g id="edge3" class="edge">
<title>SG_0_Node_1&#45;&gt;SG_0_Node_3</title>
<path fill="none" stroke="#000000" d="M122.7916,-201.6074C116.9163,-190.3932 109.9385,-175.4791 106,-161.4264 97.3909,-130.7091 94.0526,-94.3122 92.7706,-68.8867"/>
<polygon fill="#000000" stroke="#000000" points="96.2597,-68.5525 92.3377,-58.7104 89.266,-68.8501 96.2597,-68.5525"/>
<text text-anchor="middle" x="152" y="-134.4264" font-family="Times,serif" font-size="20.00" fill="#000000">[NA]</text>
<text text-anchor="middle" x="152" y="-112.4264" font-family="Times,serif" font-size="20.00" fill="#000000">59 levels</text>
</g>
<!-- SG_0_Node_4 -->
<g id="node5" class="node">
<title>SG_0_Node_4</title>
<ellipse fill="none" stroke="#000000" cx="220" cy="-37.2132" rx="34.7971" ry="21.4286"/>
<text text-anchor="middle" x="220" y="-32.2132" font-family="Times,serif" font-size="20.00" fill="#000000">1.0</text>
</g>
<!-- SG_0_Node_1&#45;&gt;SG_0_Node_4 -->
<g id="edge4" class="edge">
<title>SG_0_Node_1&#45;&gt;SG_0_Node_4</title>
<path fill="none" stroke="#000000" d="M160.7266,-201.5099C174.0772,-191.3239 189.0859,-177.4429 198,-161.4264 213.9132,-132.8341 218.7451,-95.3048 220.0102,-69.0105"/>
<polygon fill="#000000" stroke="#000000" points="223.5142,-68.9459 220.3496,-58.8348 216.5181,-68.7125 223.5142,-68.9459"/>
<text text-anchor="middle" x="236.5" y="-145.4264" font-family="Times,serif" font-size="20.00" fill="#000000">100</text>
<text text-anchor="middle" x="236.5" y="-123.4264" font-family="Times,serif" font-size="20.00" fill="#000000">102</text>
<text text-anchor="middle" x="236.5" y="-101.4264" font-family="Times,serif" font-size="20.00" fill="#000000">103</text>
</g>
<!-- SG_1_Node_0 -->
<g id="node6" class="node">
<title>SG_1_Node_0</title>
<polygon fill="none" stroke="#000000" points="1830.5,-394.8528 1513.5,-394.8528 1513.5,-358.8528 1830.5,-358.8528 1830.5,-394.8528"/>
<text text-anchor="middle" x="1672" y="-371.8528" font-family="Times,serif" font-size="20.00" fill="#000000">Cross&#45;Origin&#45;Resource&#45;Policy</text>
</g>
<!-- SG_1_Node_2 -->
<g id="node7" class="node">
<title>SG_1_Node_2</title>
<ellipse fill="none" stroke="#000000" cx="1593" cy="-219.6396" rx="34.7971" ry="21.4286"/>
<text text-anchor="middle" x="1593" y="-214.6396" font-family="Times,serif" font-size="20.00" fill="#000000">0.0</text>
</g>
<!-- SG_1_Node_0&#45;&gt;SG_1_Node_2 -->
<g id="edge5" class="edge">
<title>SG_1_Node_0&#45;&gt;SG_1_Node_2</title>
<path fill="none" stroke="#000000" d="M1642.0148,-358.7377C1629.133,-349.3646 1615.1849,-336.7525 1607,-321.8528 1595.1227,-300.2314 1591.9732,-272.289 1591.5982,-251.0855"/>
<polygon fill="#000000" stroke="#000000" points="1595.0983,-250.9851 1591.617,-240.9786 1588.0983,-250.972 1595.0983,-250.9851"/>
<text text-anchor="middle" x="1668" y="-305.8528" font-family="Times,serif" font-size="20.00" fill="#000000">[NA]</text>
<text text-anchor="middle" x="1668" y="-283.8528" font-family="Times,serif" font-size="20.00" fill="#000000">same&#45;origin</text>
</g>
<!-- SG_1_Node_1 -->
<g id="node8" class="node">
<title>SG_1_Node_1</title>
<polygon fill="none" stroke="#000000" points="1822,-237.6396 1680,-237.6396 1680,-201.6396 1822,-201.6396 1822,-237.6396"/>
<text text-anchor="middle" x="1751" y="-214.6396" font-family="Times,serif" font-size="20.00" fill="#000000">Status&#45;Code</text>
</g>
<!-- SG_1_Node_0&#45;&gt;SG_1_Node_1 -->
<g id="edge6" class="edge">
<title>SG_1_Node_0&#45;&gt;SG_1_Node_1</title>
<path fill="none" stroke="#000000" d="M1696.6664,-358.7441C1708.1694,-349.0435 1721.0452,-336.1536 1729,-321.8528 1741.7567,-298.9193 1747.1215,-269.2895 1749.3748,-247.8411"/>
<polygon fill="#000000" stroke="#000000" points="1752.8733,-248.0127 1750.2711,-237.7424 1745.9007,-247.3937 1752.8733,-248.0127"/>
<text text-anchor="middle" x="1776" y="-294.8528" font-family="Times,serif" font-size="20.00" fill="#000000">empty</text>
</g>
<!-- SG_1_Node_3 -->
<g id="node9" class="node">
<title>SG_1_Node_3</title>
<ellipse fill="none" stroke="#000000" cx="1709" cy="-37.2132" rx="34.7971" ry="21.4286"/>
<text text-anchor="middle" x="1709" y="-32.2132" font-family="Times,serif" font-size="20.00" fill="#000000">0.0</text>
</g>
<!-- SG_1_Node_1&#45;&gt;SG_1_Node_3 -->
<g id="edge7" class="edge">
<title>SG_1_Node_1&#45;&gt;SG_1_Node_3</title>
<path fill="none" stroke="#000000" d="M1743.1007,-201.5963C1738.4074,-190.2532 1732.673,-175.2067 1729,-161.4264 1720.7304,-130.4011 1715.3634,-94.0499 1712.2922,-68.7192"/>
<polygon fill="#000000" stroke="#000000" points="1715.7456,-68.1148 1711.1148,-58.5856 1708.7924,-68.9227 1715.7456,-68.1148"/>
<text text-anchor="middle" x="1748.5" y="-145.4264" font-family="Times,serif" font-size="20.00" fill="#000000">100</text>
<text text-anchor="middle" x="1748.5" y="-123.4264" font-family="Times,serif" font-size="20.00" fill="#000000">102</text>
<text text-anchor="middle" x="1748.5" y="-101.4264" font-family="Times,serif" font-size="20.00" fill="#000000">103</text>
</g>
<!-- SG_1_Node_4 -->
<g id="node10" class="node">
<title>SG_1_Node_4</title>
<ellipse fill="none" stroke="#000000" cx="1796" cy="-37.2132" rx="34.7971" ry="21.4286"/>
<text text-anchor="middle" x="1796" y="-32.2132" font-family="Times,serif" font-size="20.00" fill="#000000">1.0</text>
</g>
<!-- SG_1_Node_1&#45;&gt;SG_1_Node_4 -->
<g id="edge8" class="edge">
<title>SG_1_Node_1&#45;&gt;SG_1_Node_4</title>
<path fill="none" stroke="#000000" d="M1756.5755,-201.6269C1760.0443,-190.1668 1764.496,-174.9839 1768,-161.4264 1776.1315,-129.9646 1784.1568,-93.6782 1789.5168,-68.4818"/>
<polygon fill="#000000" stroke="#000000" points="1793.0022,-68.9161 1791.6432,-58.4087 1786.1531,-67.4702 1793.0022,-68.9161"/>
<text text-anchor="middle" x="1829" y="-134.4264" font-family="Times,serif" font-size="20.00" fill="#000000">[NA]</text>
<text text-anchor="middle" x="1829" y="-112.4264" font-family="Times,serif" font-size="20.00" fill="#000000">59 levels</text>
</g>
</g>
</svg>
