<?xml version="1.0" encoding="UTF-8" standalone="no"?>
<!DOCTYPE svg PUBLIC "-//W3C//DTD SVG 1.1//EN"
 "http://www.w3.org/Graphics/SVG/1.1/DTD/svg11.dtd">
<!-- Generated by graphviz version 2.40.1 (20161225.0304)
 -->
<!-- Title: G Pages: 1 -->
<svg width="1796pt" height="471pt"
 viewBox="0.00 0.00 1796.00 470.85" xmlns="http://www.w3.org/2000/svg" xmlns:xlink="http://www.w3.org/1999/xlink">
<g id="graph0" class="graph" transform="scale(1 1) rotate(0) translate(4 466.8528)">
<title>G</title>
<polygon fill="#ffffff" stroke="transparent" points="-4,4 -4,-466.8528 1792,-466.8528 1792,4 -4,4"/>
<g id="clust1" class="cluster">
<title>cluster_0</title>
<polygon fill="none" stroke="#000000" points="8,-8 8,-454.8528 1308,-454.8528 1308,-8 8,-8"/>
<text text-anchor="middle" x="658" y="-418.8528" font-family="Times,serif" font-size="40.00" fill="#000000">Tree 0, Class NetworkError when attempting to fetch resource.</text>
</g>
<g id="clust5" class="cluster">
<title>cluster_1</title>
<polygon fill="none" stroke="#000000" points="1316,-8 1316,-454.8528 1780,-454.8528 1780,-8 1316,-8"/>
<text text-anchor="middle" x="1548" y="-418.8528" font-family="Times,serif" font-size="40.00" fill="#000000">Tree 0, Class uncalled</text>
</g>
<!-- SG_0_Node_0 -->
<g id="node1" class="node">
<title>SG_0_Node_0</title>
<polygon fill="none" stroke="#000000" points="371.5,-394.8528 54.5,-394.8528 54.5,-358.8528 371.5,-358.8528 371.5,-394.8528"/>
<text text-anchor="middle" x="213" y="-371.8528" font-family="Times,serif" font-size="20.00" fill="#000000">Cross&#45;Origin&#45;Resource&#45;Policy</text>
</g>
<!-- SG_0_Node_1 -->
<g id="node2" class="node">
<title>SG_0_Node_1</title>
<polygon fill="none" stroke="#000000" points="204,-237.6396 62,-237.6396 62,-201.6396 204,-201.6396 204,-237.6396"/>
<text text-anchor="middle" x="133" y="-214.6396" font-family="Times,serif" font-size="20.00" fill="#000000">Status&#45;Code</text>
</g>
<!-- SG_0_Node_0&#45;&gt;SG_0_Node_1 -->
<g id="edge1" class="edge">
<title>SG_0_Node_0&#45;&gt;SG_0_Node_1</title>
<path fill="none" stroke="#000000" d="M190.8931,-358.7651C180.1396,-348.888 167.8689,-335.836 160,-321.8528 146.9867,-298.7277 140.0605,-269.1228 136.4965,-247.7323"/>
<polygon fill="#000000" stroke="#000000" points="139.9292,-247.0246 134.9649,-237.6648 133.0088,-248.0775 139.9292,-247.0246"/>
<text text-anchor="middle" x="192" y="-294.8528" font-family="Times,serif" font-size="20.00" fill="#000000">empty</text>
</g>
<!-- SG_0_Node_2 -->
<g id="node3" class="node">
<title>SG_0_Node_2</title>
<ellipse fill="none" stroke="#000000" cx="257" cy="-219.6396" rx="34.7971" ry="21.4286"/>
<text text-anchor="middle" x="257" y="-214.6396" font-family="Times,serif" font-size="20.00" fill="#000000">1.0</text>
</g>
<!-- SG_0_Node_0&#45;&gt;SG_0_Node_2 -->
<g id="edge2" class="edge">
<title>SG_0_Node_0&#45;&gt;SG_0_Node_2</title>
<path fill="none" stroke="#000000" d="M218.0474,-358.8185C225.4412,-332.4002 239.3171,-282.8213 248.3551,-250.528"/>
<polygon fill="#000000" stroke="#000000" points="251.7804,-251.2752 251.1052,-240.7019 245.0395,-249.3885 251.7804,-251.2752"/>
<text text-anchor="middle" x="301" y="-305.8528" font-family="Times,serif" font-size="20.00" fill="#000000">[NA]</text>
<text text-anchor="middle" x="301" y="-283.8528" font-family="Times,serif" font-size="20.00" fill="#000000">same&#45;origin</text>
</g>
<!-- SG_0_Node_3 -->
<g id="node4" class="node">
<title>SG_0_Node_3</title>
<ellipse fill="none" stroke="#000000" cx="92" cy="-37.2132" rx="34.7971" ry="21.4286"/>
<text text-anchor="middle" x="92" y="-32.2132" font-family="Times,serif" font-size="20.00" fill="#000000">0.0</text>
</g>
<!-- SG_0_Node_1&#45;&gt;SG_0_Node_3 -->
<g id="edge3" class="edge">
<title>SG_0_Node_1&#45;&gt;SG_0_Node_3</title>
<path fill="none" stroke="#000000" d="M122.7916,-201.6074C116.9163,-190.3932 109.9385,-175.4791 106,-161.4264 97.3909,-130.7091 94.0526,-94.3122 92.7706,-68.8867"/>
<polygon fill="#000000" stroke="#000000" points="96.2597,-68.5525 92.3377,-58.7104 89.266,-68.8501 96.2597,-68.5525"/>
<text text-anchor="middle" x="152" y="-134.4264" font-family="Times,serif" font-size="20.00" fill="#000000">[NA]</text>
<text text-anchor="middle" x="152" y="-112.4264" font-family="Times,serif" font-size="20.00" fill="#000000">59 levels</text>
</g>
<!-- SG_0_Node_4 -->
<g id="node5" class="node">
<title>SG_0_Node_4</title>
<ellipse fill="none" stroke="#000000" cx="220" cy="-37.2132" rx="34.7971" ry="21.4286"/>
<text text-anchor="middle" x="220" y="-32.2132" font-family="Times,serif" font-size="20.00" fill="#000000">1.0</text>
</g>
<!-- SG_0_Node_1&#45;&gt;SG_0_Node_4 -->
<g id="edge4" class="edge">
<title>SG_0_Node_1&#45;&gt;SG_0_Node_4</title>
<path fill="none" stroke="#000000" d="M160.7266,-201.5099C174.0772,-191.3239 189.0859,-177.4429 198,-161.4264 213.9132,-132.8341 218.7451,-95.3048 220.0102,-69.0105"/>
<polygon fill="#000000" stroke="#000000" points="223.5142,-68.9459 220.3496,-58.8348 216.5181,-68.7125 223.5142,-68.9459"/>
<text text-anchor="middle" x="236.5" y="-145.4264" font-family="Times,serif" font-size="20.00" fill="#000000">100</text>
<text text-anchor="middle" x="236.5" y="-123.4264" font-family="Times,serif" font-size="20.00" fill="#000000">102</text>
<text text-anchor="middle" x="236.5" y="-101.4264" font-family="Times,serif" font-size="20.00" fill="#000000">103</text>
</g>
<!-- SG_1_Node_0 -->
<g id="node6" class="node">
<title>SG_1_Node_0</title>
<polygon fill="none" stroke="#000000" points="1682.5,-394.8528 1365.5,-394.8528 1365.5,-358.8528 1682.5,-358.8528 1682.5,-394.8528"/>
<text text-anchor="middle" x="1524" y="-371.8528" font-family="Times,serif" font-size="20.00" fill="#000000">Cross&#45;Origin&#45;Resource&#45;Policy</text>
</g>
<!-- SG_1_Node_2 -->
<g id="node7" class="node">
<title>SG_1_Node_2</title>
<ellipse fill="none" stroke="#000000" cx="1407" cy="-219.6396" rx="34.7971" ry="21.4286"/>
<text text-anchor="middle" x="1407" y="-214.6396" font-family="Times,serif" font-size="20.00" fill="#000000">0.0</text>
</g>
<!-- SG_1_Node_0&#45;&gt;SG_1_Node_2 -->
<g id="edge5" class="edge">
<title>SG_1_Node_0&#45;&gt;SG_1_Node_2</title>
<path fill="none" stroke="#000000" d="M1459.0643,-358.8284C1440.8747,-350.5481 1423.0675,-338.6866 1412,-321.8528 1398.328,-301.0575 1398.1211,-272.4165 1400.7371,-250.7421"/>
<polygon fill="#000000" stroke="#000000" points="1404.2178,-251.1276 1402.2014,-240.7264 1397.2915,-250.1149 1404.2178,-251.1276"/>
<text text-anchor="middle" x="1473" y="-305.8528" font-family="Times,serif" font-size="20.00" fill="#000000">[NA]</text>
<text text-anchor="middle" x="1473" y="-283.8528" font-family="Times,serif" font-size="20.00" fill="#000000">same&#45;origin</text>
</g>
<!-- SG_1_Node_1 -->
<g id="node8" class="node">
<title>SG_1_Node_1</title>
<polygon fill="none" stroke="#000000" points="1636,-237.6396 1494,-237.6396 1494,-201.6396 1636,-201.6396 1636,-237.6396"/>
<text text-anchor="middle" x="1565" y="-214.6396" font-family="Times,serif" font-size="20.00" fill="#000000">Status&#45;Code</text>
</g>
<!-- SG_1_Node_0&#45;&gt;SG_1_Node_1 -->
<g id="edge6" class="edge">
<title>SG_1_Node_0&#45;&gt;SG_1_Node_1</title>
<path fill="none" stroke="#000000" d="M1528.7032,-358.8185C1535.8017,-331.5996 1549.3119,-279.7952 1557.6974,-247.641"/>
<polygon fill="#000000" stroke="#000000" points="1561.0885,-248.5075 1560.2253,-237.9479 1554.315,-246.741 1561.0885,-248.5075"/>
<text text-anchor="middle" x="1581" y="-294.8528" font-family="Times,serif" font-size="20.00" fill="#000000">empty</text>
</g>
<!-- SG_1_Node_3 -->
<g id="node9" class="node">
<title>SG_1_Node_3</title>
<ellipse fill="none" stroke="#000000" cx="1523" cy="-37.2132" rx="34.7971" ry="21.4286"/>
<text text-anchor="middle" x="1523" y="-32.2132" font-family="Times,serif" font-size="20.00" fill="#000000">0.0</text>
</g>
<!-- SG_1_Node_1&#45;&gt;SG_1_Node_3 -->
<g id="edge7" class="edge">
<title>SG_1_Node_1&#45;&gt;SG_1_Node_3</title>
<path fill="none" stroke="#000000" d="M1557.1007,-201.5963C1552.4074,-190.2532 1546.673,-175.2067 1543,-161.4264 1534.7304,-130.4011 1529.3634,-94.0499 1526.2922,-68.7192"/>
<polygon fill="#000000" stroke="#000000" points="1529.7456,-68.1148 1525.1148,-58.5856 1522.7924,-68.9227 1529.7456,-68.1148"/>
<text text-anchor="middle" x="1562.5" y="-145.4264" font-family="Times,serif" font-size="20.00" fill="#000000">100</text>
<text text-anchor="middle" x="1562.5" y="-123.4264" font-family="Times,serif" font-size="20.00" fill="#000000">102</text>
<text text-anchor="middle" x="1562.5" y="-101.4264" font-family="Times,serif" font-size="20.00" fill="#000000">103</text>
</g>
<!-- SG_1_Node_4 -->
<g id="node10" class="node">
<title>SG_1_Node_4</title>
<ellipse fill="none" stroke="#000000" cx="1610" cy="-37.2132" rx="34.7971" ry="21.4286"/>
<text text-anchor="middle" x="1610" y="-32.2132" font-family="Times,serif" font-size="20.00" fill="#000000">1.0</text>
</g>
<!-- SG_1_Node_1&#45;&gt;SG_1_Node_4 -->
<g id="edge8" class="edge">
<title>SG_1_Node_1&#45;&gt;SG_1_Node_4</title>
<path fill="none" stroke="#000000" d="M1570.5755,-201.6269C1574.0443,-190.1668 1578.496,-174.9839 1582,-161.4264 1590.1315,-129.9646 1598.1568,-93.6782 1603.5168,-68.4818"/>
<polygon fill="#000000" stroke="#000000" points="1607.0022,-68.9161 1605.6432,-58.4087 1600.1531,-67.4702 1607.0022,-68.9161"/>
<text text-anchor="middle" x="1643" y="-134.4264" font-family="Times,serif" font-size="20.00" fill="#000000">[NA]</text>
<text text-anchor="middle" x="1643" y="-112.4264" font-family="Times,serif" font-size="20.00" fill="#000000">59 levels</text>
</g>
</g>
</svg>
