<?xml version="1.0" encoding="UTF-8" standalone="no"?>
<!DOCTYPE svg PUBLIC "-//W3C//DTD SVG 1.1//EN"
 "http://www.w3.org/Graphics/SVG/1.1/DTD/svg11.dtd">
<!-- Generated by graphviz version 2.40.1 (20161225.0304)
 -->
<!-- Title: G Pages: 1 -->
<svg width="1338pt" height="1713pt"
 viewBox="0.00 0.00 1338.00 1712.98" xmlns="http://www.w3.org/2000/svg" xmlns:xlink="http://www.w3.org/1999/xlink">
<g id="graph0" class="graph" transform="scale(1 1) rotate(0) translate(4 1708.9848)">
<title>G</title>
<polygon fill="#ffffff" stroke="transparent" points="-4,4 -4,-1708.9848 1334,-1708.9848 1334,4 -4,4"/>
<g id="clust1" class="cluster">
<title>cluster_0</title>
<polygon fill="none" stroke="#000000" points="8,-8 8,-1696.9848 661,-1696.9848 661,-8 8,-8"/>
<text text-anchor="middle" x="334.5" y="-1660.9848" font-family="Times,serif" font-size="40.00" fill="#000000">Tree 0, Class 931&#45;872</text>
</g>
<g id="clust10" class="cluster">
<title>cluster_1</title>
<polygon fill="none" stroke="#000000" points="669,-8 669,-1696.9848 1322,-1696.9848 1322,-8 669,-8"/>
<text text-anchor="middle" x="995.5" y="-1660.9848" font-family="Times,serif" font-size="40.00" fill="#000000">Tree 0, Class 931&#45;931</text>
</g>
<!-- SG_0_Node_0 -->
<g id="node1" class="node">
<title>SG_0_Node_0</title>
<polygon fill="none" stroke="#000000" points="204,-1636.9848 62,-1636.9848 62,-1600.9848 204,-1600.9848 204,-1636.9848"/>
<text text-anchor="middle" x="133" y="-1613.9848" font-family="Times,serif" font-size="20.00" fill="#000000">Status&#45;Code</text>
</g>
<!-- SG_0_Node_7 -->
<g id="node2" class="node">
<title>SG_0_Node_7</title>
<ellipse fill="none" stroke="#000000" cx="88" cy="-1285.7716" rx="34.7971" ry="21.4286"/>
<text text-anchor="middle" x="88" y="-1280.7716" font-family="Times,serif" font-size="20.00" fill="#000000">0.0</text>
</g>
<!-- SG_0_Node_0&#45;&gt;SG_0_Node_7 -->
<g id="edge1" class="edge">
<title>SG_0_Node_0&#45;&gt;SG_0_Node_7</title>
<path fill="none" stroke="#000000" d="M130.5165,-1600.5952C123.1709,-1546.2026 101.4867,-1385.6371 92.2473,-1317.2215"/>
<polygon fill="#000000" stroke="#000000" points="95.6823,-1316.5044 90.8753,-1307.0628 88.7453,-1317.4413 95.6823,-1316.5044"/>
<text text-anchor="middle" x="171" y="-1459.9848" font-family="Times,serif" font-size="20.00" fill="#000000">[NA]</text>
<text text-anchor="middle" x="171" y="-1437.9848" font-family="Times,serif" font-size="20.00" fill="#000000">52 levels</text>
</g>
<!-- SG_0_Node_1 -->
<g id="node3" class="node">
<title>SG_0_Node_1</title>
<polygon fill="none" stroke="#000000" points="401,-1303.7716 141,-1303.7716 141,-1267.7716 401,-1267.7716 401,-1303.7716"/>
<text text-anchor="middle" x="271" y="-1280.7716" font-family="Times,serif" font-size="20.00" fill="#000000">Content&#45;Security&#45;Policy</text>
</g>
<!-- SG_0_Node_0&#45;&gt;SG_0_Node_1 -->
<g id="edge2" class="edge">
<title>SG_0_Node_0&#45;&gt;SG_0_Node_1</title>
<path fill="none" stroke="#000000" d="M177.2069,-1600.7541C193.3685,-1591.948 210.2957,-1579.8001 221,-1563.9848 274.0125,-1485.6606 275.5441,-1367.5897 273.0623,-1314.0062"/>
<polygon fill="#000000" stroke="#000000" points="276.5497,-1313.6774 272.5078,-1303.8839 269.5601,-1314.0604 276.5497,-1313.6774"/>
<text text-anchor="middle" x="292.5" y="-1547.9848" font-family="Times,serif" font-size="20.00" fill="#000000">200</text>
<text text-anchor="middle" x="292.5" y="-1525.9848" font-family="Times,serif" font-size="20.00" fill="#000000">201</text>
<text text-anchor="middle" x="292.5" y="-1503.9848" font-family="Times,serif" font-size="20.00" fill="#000000">202</text>
<text text-anchor="middle" x="292.5" y="-1481.9848" font-family="Times,serif" font-size="20.00" fill="#000000">203</text>
<text text-anchor="middle" x="292.5" y="-1459.9848" font-family="Times,serif" font-size="20.00" fill="#000000">204</text>
<text text-anchor="middle" x="292.5" y="-1437.9848" font-family="Times,serif" font-size="20.00" fill="#000000">205</text>
<text text-anchor="middle" x="292.5" y="-1415.9848" font-family="Times,serif" font-size="20.00" fill="#000000">206</text>
<text text-anchor="middle" x="292.5" y="-1393.9848" font-family="Times,serif" font-size="20.00" fill="#000000">207</text>
<text text-anchor="middle" x="292.5" y="-1371.9848" font-family="Times,serif" font-size="20.00" fill="#000000">208</text>
<text text-anchor="middle" x="292.5" y="-1349.9848" font-family="Times,serif" font-size="20.00" fill="#000000">226</text>
</g>
<!-- SG_0_Node_8 -->
<g id="node4" class="node">
<title>SG_0_Node_8</title>
<ellipse fill="none" stroke="#000000" cx="93" cy="-1103.3452" rx="34.7971" ry="21.4286"/>
<text text-anchor="middle" x="93" y="-1098.3452" font-family="Times,serif" font-size="20.00" fill="#000000">0.0</text>
</g>
<!-- SG_0_Node_1&#45;&gt;SG_0_Node_8 -->
<g id="edge3" class="edge">
<title>SG_0_Node_1&#45;&gt;SG_0_Node_8</title>
<path fill="none" stroke="#000000" d="M184.828,-1267.6919C145.2786,-1257.474 104.5946,-1243.5492 93,-1227.5584 73.5812,-1200.7768 77.435,-1161.49 83.643,-1134.3016"/>
<polygon fill="#000000" stroke="#000000" points="87.0571,-1135.0759 86.0939,-1124.525 80.2672,-1133.3737 87.0571,-1135.0759"/>
<text text-anchor="middle" x="203.5" y="-1211.5584" font-family="Times,serif" font-size="20.00" fill="#000000">[NA]</text>
<text text-anchor="middle" x="203.5" y="-1189.5584" font-family="Times,serif" font-size="20.00" fill="#000000">empty</text>
<text text-anchor="middle" x="203.5" y="-1167.5584" font-family="Times,serif" font-size="20.00" fill="#000000">frame&#45;ancestors &#39;self&#39;</text>
</g>
<!-- SG_0_Node_2 -->
<g id="node5" class="node">
<title>SG_0_Node_2</title>
<polygon fill="none" stroke="#000000" points="460.5,-1121.3452 239.5,-1121.3452 239.5,-1085.3452 460.5,-1085.3452 460.5,-1121.3452"/>
<text text-anchor="middle" x="350" y="-1098.3452" font-family="Times,serif" font-size="20.00" fill="#000000">Content&#45;Disposition</text>
</g>
<!-- SG_0_Node_1&#45;&gt;SG_0_Node_2 -->
<g id="edge4" class="edge">
<title>SG_0_Node_1&#45;&gt;SG_0_Node_2</title>
<path fill="none" stroke="#000000" d="M289.1327,-1267.5522C298.9676,-1256.7402 310.5926,-1242.2982 318,-1227.5584 333.5558,-1196.6044 342.0225,-1157.4017 346.2715,-1131.4061"/>
<polygon fill="#000000" stroke="#000000" points="349.739,-1131.8844 347.7951,-1121.4695 342.8199,-1130.8235 349.739,-1131.8844"/>
<text text-anchor="middle" x="422.5" y="-1189.5584" font-family="Times,serif" font-size="20.00" fill="#000000">default&#45;src &#39;self&#39;</text>
</g>
<!-- SG_0_Node_3 -->
<g id="node6" class="node">
<title>SG_0_Node_3</title>
<polygon fill="none" stroke="#000000" points="341.5,-960.9188 186.5,-960.9188 186.5,-924.9188 341.5,-924.9188 341.5,-960.9188"/>
<text text-anchor="middle" x="264" y="-937.9188" font-family="Times,serif" font-size="20.00" fill="#000000">Content&#45;Type</text>
</g>
<!-- SG_0_Node_2&#45;&gt;SG_0_Node_3 -->
<g id="edge5" class="edge">
<title>SG_0_Node_2&#45;&gt;SG_0_Node_3</title>
<path fill="none" stroke="#000000" d="M330.2675,-1085.2414C319.4927,-1074.4668 306.6276,-1060.0236 298,-1045.132 284.4648,-1021.7696 275.3824,-992.2488 270.0354,-970.9464"/>
<polygon fill="#000000" stroke="#000000" points="273.4374,-970.1237 267.7074,-961.2121 266.6294,-971.7519 273.4374,-970.1237"/>
<text text-anchor="middle" x="330" y="-1018.132" font-family="Times,serif" font-size="20.00" fill="#000000">empty</text>
</g>
<!-- SG_0_Node_9 -->
<g id="node7" class="node">
<title>SG_0_Node_9</title>
<ellipse fill="none" stroke="#000000" cx="394" cy="-942.9188" rx="34.7971" ry="21.4286"/>
<text text-anchor="middle" x="394" y="-937.9188" font-family="Times,serif" font-size="20.00" fill="#000000">1.0</text>
</g>
<!-- SG_0_Node_2&#45;&gt;SG_0_Node_9 -->
<g id="edge6" class="edge">
<title>SG_0_Node_2&#45;&gt;SG_0_Node_9</title>
<path fill="none" stroke="#000000" d="M354.9618,-1085.2541C362.364,-1058.2653 376.3969,-1007.1005 385.4668,-974.0312"/>
<polygon fill="#000000" stroke="#000000" points="388.9528,-974.5535 388.2225,-963.9839 382.2021,-972.7019 388.9528,-974.5535"/>
<text text-anchor="middle" x="436" y="-1029.132" font-family="Times,serif" font-size="20.00" fill="#000000">[NA]</text>
<text text-anchor="middle" x="436" y="-1007.132" font-family="Times,serif" font-size="20.00" fill="#000000">attachment</text>
</g>
<!-- SG_0_Node_10 -->
<g id="node8" class="node">
<title>SG_0_Node_10</title>
<ellipse fill="none" stroke="#000000" cx="51" cy="-650.4924" rx="34.7971" ry="21.4286"/>
<text text-anchor="middle" x="51" y="-645.4924" font-family="Times,serif" font-size="20.00" fill="#000000">0.0</text>
</g>
<!-- SG_0_Node_3&#45;&gt;SG_0_Node_10 -->
<g id="edge7" class="edge">
<title>SG_0_Node_3&#45;&gt;SG_0_Node_10</title>
<path fill="none" stroke="#000000" d="M186.3924,-932.7142C129.7156,-923.4837 59.7989,-907.7736 42,-884.7056 -3.9505,-825.1525 21.1511,-729.4857 38.653,-680.9096"/>
<polygon fill="#000000" stroke="#000000" points="42.0262,-681.8813 42.2441,-671.2887 35.4681,-679.4334 42.0262,-681.8813"/>
<text text-anchor="middle" x="153" y="-868.7056" font-family="Times,serif" font-size="20.00" fill="#000000">[NA]</text>
<text text-anchor="middle" x="153" y="-846.7056" font-family="Times,serif" font-size="20.00" fill="#000000">application/javascript</text>
<text text-anchor="middle" x="153" y="-824.7056" font-family="Times,serif" font-size="20.00" fill="#000000">application/pdf</text>
<text text-anchor="middle" x="153" y="-802.7056" font-family="Times,serif" font-size="20.00" fill="#000000">audio/wav</text>
<text text-anchor="middle" x="153" y="-780.7056" font-family="Times,serif" font-size="20.00" fill="#000000">image/png</text>
<text text-anchor="middle" x="153" y="-758.7056" font-family="Times,serif" font-size="20.00" fill="#000000">text/css</text>
<text text-anchor="middle" x="153" y="-736.7056" font-family="Times,serif" font-size="20.00" fill="#000000">text/html</text>
<text text-anchor="middle" x="153" y="-714.7056" font-family="Times,serif" font-size="20.00" fill="#000000">video/mp4</text>
</g>
<!-- SG_0_Node_4 -->
<g id="node9" class="node">
<title>SG_0_Node_4</title>
<polygon fill="none" stroke="#000000" points="194.5,-668.4924 129.5,-668.4924 129.5,-632.4924 194.5,-632.4924 194.5,-668.4924"/>
<text text-anchor="middle" x="162" y="-645.4924" font-family="Times,serif" font-size="20.00" fill="#000000">body</text>
</g>
<!-- SG_0_Node_3&#45;&gt;SG_0_Node_4 -->
<g id="edge8" class="edge">
<title>SG_0_Node_3&#45;&gt;SG_0_Node_4</title>
<path fill="none" stroke="#000000" d="M270.2386,-924.8734C283.4202,-883.3197 309.6258,-779.0557 268,-708.7056 254.2481,-685.4641 227.5558,-670.8819 204.3984,-662.1245"/>
<polygon fill="#000000" stroke="#000000" points="205.333,-658.743 194.7382,-658.7198 203.0061,-665.3449 205.333,-658.743"/>
<text text-anchor="middle" x="322" y="-791.7056" font-family="Times,serif" font-size="20.00" fill="#000000">empty</text>
</g>
<!-- SG_0_Node_11 -->
<g id="node10" class="node">
<title>SG_0_Node_11</title>
<ellipse fill="none" stroke="#000000" cx="51" cy="-490.066" rx="34.7971" ry="21.4286"/>
<text text-anchor="middle" x="51" y="-485.066" font-family="Times,serif" font-size="20.00" fill="#000000">0.0</text>
</g>
<!-- SG_0_Node_4&#45;&gt;SG_0_Node_11 -->
<g id="edge9" class="edge">
<title>SG_0_Node_4&#45;&gt;SG_0_Node_11</title>
<path fill="none" stroke="#000000" d="M129.1573,-639.4079C107.339,-630.2704 80.0339,-615.0665 65,-592.2792 51.3305,-571.56 48.3581,-543.3188 48.5071,-521.7717"/>
<polygon fill="#000000" stroke="#000000" points="52.0139,-521.5922 48.8134,-511.4924 45.017,-521.3837 52.0139,-521.5922"/>
<text text-anchor="middle" x="111" y="-576.2792" font-family="Times,serif" font-size="20.00" fill="#000000">[NA]</text>
<text text-anchor="middle" x="111" y="-554.2792" font-family="Times,serif" font-size="20.00" fill="#000000">11 levels</text>
</g>
<!-- SG_0_Node_5 -->
<g id="node11" class="node">
<title>SG_0_Node_5</title>
<polygon fill="none" stroke="#000000" points="366,-508.066 104,-508.066 104,-472.066 366,-472.066 366,-508.066"/>
<text text-anchor="middle" x="235" y="-485.066" font-family="Times,serif" font-size="20.00" fill="#000000">X&#45;Content&#45;Type&#45;Options</text>
</g>
<!-- SG_0_Node_4&#45;&gt;SG_0_Node_5 -->
<g id="edge10" class="edge">
<title>SG_0_Node_4&#45;&gt;SG_0_Node_5</title>
<path fill="none" stroke="#000000" d="M160.5447,-632.4627C159.6071,-611.1888 160.5185,-575.2982 174,-548.2792 180.354,-535.5448 190.6794,-524.087 201.0433,-514.7728"/>
<polygon fill="#000000" stroke="#000000" points="203.5604,-517.2268 208.9111,-508.0823 199.0257,-511.8941 203.5604,-517.2268"/>
<text text-anchor="middle" x="419.5" y="-576.2792" font-family="Times,serif" font-size="20.00" fill="#000000">ecocnt_audio=duration=1</text>
<text text-anchor="middle" x="419.5" y="-554.2792" font-family="Times,serif" font-size="20.00" fill="#000000">ecocnt_vid=width=100,height=100,duration=2</text>
</g>
<!-- SG_0_Node_12 -->
<g id="node12" class="node">
<title>SG_0_Node_12</title>
<ellipse fill="none" stroke="#000000" cx="172" cy="-329.6396" rx="34.7971" ry="21.4286"/>
<text text-anchor="middle" x="172" y="-324.6396" font-family="Times,serif" font-size="20.00" fill="#000000">0.0</text>
</g>
<!-- SG_0_Node_5&#45;&gt;SG_0_Node_12 -->
<g id="edge11" class="edge">
<title>SG_0_Node_5&#45;&gt;SG_0_Node_12</title>
<path fill="none" stroke="#000000" d="M213.2241,-471.8436C202.2369,-461.3466 189.8234,-447.2088 183,-431.8528 173.1254,-409.6303 170.646,-382.1092 170.487,-361.2244"/>
<polygon fill="#000000" stroke="#000000" points="173.9892,-361.0054 170.5885,-350.9712 166.9896,-360.936 173.9892,-361.0054"/>
<text text-anchor="middle" x="218" y="-404.8528" font-family="Times,serif" font-size="20.00" fill="#000000">nosniff</text>
</g>
<!-- SG_0_Node_6 -->
<g id="node13" class="node">
<title>SG_0_Node_6</title>
<polygon fill="none" stroke="#000000" points="367,-347.6396 225,-347.6396 225,-311.6396 367,-311.6396 367,-347.6396"/>
<text text-anchor="middle" x="296" y="-324.6396" font-family="Times,serif" font-size="20.00" fill="#000000">Status&#45;Code</text>
</g>
<!-- SG_0_Node_5&#45;&gt;SG_0_Node_6 -->
<g id="edge12" class="edge">
<title>SG_0_Node_5&#45;&gt;SG_0_Node_6</title>
<path fill="none" stroke="#000000" d="M241.8789,-471.9749C252.4961,-444.0523 272.9529,-390.2521 285.4496,-357.3865"/>
<polygon fill="#000000" stroke="#000000" points="288.77,-358.5018 289.0526,-347.9107 282.227,-356.0139 288.77,-358.5018"/>
<text text-anchor="middle" x="305" y="-415.8528" font-family="Times,serif" font-size="20.00" fill="#000000">[NA]</text>
<text text-anchor="middle" x="305" y="-393.8528" font-family="Times,serif" font-size="20.00" fill="#000000">empty</text>
</g>
<!-- SG_0_Node_13 -->
<g id="node14" class="node">
<title>SG_0_Node_13</title>
<ellipse fill="none" stroke="#000000" cx="254" cy="-37.2132" rx="34.7971" ry="21.4286"/>
<text text-anchor="middle" x="254" y="-32.2132" font-family="Times,serif" font-size="20.00" fill="#000000">0.0</text>
</g>
<!-- SG_0_Node_6&#45;&gt;SG_0_Node_13 -->
<g id="edge13" class="edge">
<title>SG_0_Node_6&#45;&gt;SG_0_Node_13</title>
<path fill="none" stroke="#000000" d="M287.628,-311.4281C282.8211,-300.1485 277.1337,-285.2285 274,-271.4264 257.8137,-200.1343 254.4872,-113.9311 253.9488,-68.5944"/>
<polygon fill="#000000" stroke="#000000" points="257.448,-68.4788 253.8678,-58.5073 250.4483,-68.5351 257.448,-68.4788"/>
<text text-anchor="middle" x="293.5" y="-189.4264" font-family="Times,serif" font-size="20.00" fill="#000000">204</text>
<text text-anchor="middle" x="293.5" y="-167.4264" font-family="Times,serif" font-size="20.00" fill="#000000">205</text>
</g>
<!-- SG_0_Node_14 -->
<g id="node15" class="node">
<title>SG_0_Node_14</title>
<ellipse fill="none" stroke="#000000" cx="341" cy="-37.2132" rx="34.7971" ry="21.4286"/>
<text text-anchor="middle" x="341" y="-32.2132" font-family="Times,serif" font-size="20.00" fill="#000000">1.0</text>
</g>
<!-- SG_0_Node_6&#45;&gt;SG_0_Node_14 -->
<g id="edge14" class="edge">
<title>SG_0_Node_6&#45;&gt;SG_0_Node_14</title>
<path fill="none" stroke="#000000" d="M302.1434,-311.4809C305.7849,-300.0944 310.2177,-285.0428 313,-271.4264 327.6484,-199.7372 335.4888,-114.0252 338.8888,-68.7875"/>
<polygon fill="#000000" stroke="#000000" points="342.3866,-68.9438 339.6222,-58.716 335.4051,-68.4354 342.3866,-68.9438"/>
<text text-anchor="middle" x="355.5" y="-255.4264" font-family="Times,serif" font-size="20.00" fill="#000000">200</text>
<text text-anchor="middle" x="355.5" y="-233.4264" font-family="Times,serif" font-size="20.00" fill="#000000">201</text>
<text text-anchor="middle" x="355.5" y="-211.4264" font-family="Times,serif" font-size="20.00" fill="#000000">202</text>
<text text-anchor="middle" x="355.5" y="-189.4264" font-family="Times,serif" font-size="20.00" fill="#000000">203</text>
<text text-anchor="middle" x="355.5" y="-167.4264" font-family="Times,serif" font-size="20.00" fill="#000000">206</text>
<text text-anchor="middle" x="355.5" y="-145.4264" font-family="Times,serif" font-size="20.00" fill="#000000">207</text>
<text text-anchor="middle" x="355.5" y="-123.4264" font-family="Times,serif" font-size="20.00" fill="#000000">208</text>
<text text-anchor="middle" x="355.5" y="-101.4264" font-family="Times,serif" font-size="20.00" fill="#000000">226</text>
</g>
<!-- SG_1_Node_0 -->
<g id="node16" class="node">
<title>SG_1_Node_0</title>
<polygon fill="none" stroke="#000000" points="1060,-1636.9848 918,-1636.9848 918,-1600.9848 1060,-1600.9848 1060,-1636.9848"/>
<text text-anchor="middle" x="989" y="-1613.9848" font-family="Times,serif" font-size="20.00" fill="#000000">Status&#45;Code</text>
</g>
<!-- SG_1_Node_1 -->
<g id="node17" class="node">
<title>SG_1_Node_1</title>
<polygon fill="none" stroke="#000000" points="1027,-1303.7716 767,-1303.7716 767,-1267.7716 1027,-1267.7716 1027,-1303.7716"/>
<text text-anchor="middle" x="897" y="-1280.7716" font-family="Times,serif" font-size="20.00" fill="#000000">Content&#45;Security&#45;Policy</text>
</g>
<!-- SG_1_Node_0&#45;&gt;SG_1_Node_1 -->
<g id="edge15" class="edge">
<title>SG_1_Node_0&#45;&gt;SG_1_Node_1</title>
<path fill="none" stroke="#000000" d="M978.3758,-1600.9054C972.5742,-1590.4105 965.6469,-1576.7746 961,-1563.9848 928.7658,-1475.266 909.0711,-1364.5698 901.0989,-1313.7002"/>
<polygon fill="#000000" stroke="#000000" points="904.5533,-1313.1352 899.5754,-1303.7827 897.6345,-1314.1982 904.5533,-1313.1352"/>
<text text-anchor="middle" x="980.5" y="-1547.9848" font-family="Times,serif" font-size="20.00" fill="#000000">200</text>
<text text-anchor="middle" x="980.5" y="-1525.9848" font-family="Times,serif" font-size="20.00" fill="#000000">201</text>
<text text-anchor="middle" x="980.5" y="-1503.9848" font-family="Times,serif" font-size="20.00" fill="#000000">202</text>
<text text-anchor="middle" x="980.5" y="-1481.9848" font-family="Times,serif" font-size="20.00" fill="#000000">203</text>
<text text-anchor="middle" x="980.5" y="-1459.9848" font-family="Times,serif" font-size="20.00" fill="#000000">204</text>
<text text-anchor="middle" x="980.5" y="-1437.9848" font-family="Times,serif" font-size="20.00" fill="#000000">205</text>
<text text-anchor="middle" x="980.5" y="-1415.9848" font-family="Times,serif" font-size="20.00" fill="#000000">206</text>
<text text-anchor="middle" x="980.5" y="-1393.9848" font-family="Times,serif" font-size="20.00" fill="#000000">207</text>
<text text-anchor="middle" x="980.5" y="-1371.9848" font-family="Times,serif" font-size="20.00" fill="#000000">208</text>
<text text-anchor="middle" x="980.5" y="-1349.9848" font-family="Times,serif" font-size="20.00" fill="#000000">226</text>
</g>
<!-- SG_1_Node_7 -->
<g id="node18" class="node">
<title>SG_1_Node_7</title>
<ellipse fill="none" stroke="#000000" cx="1080" cy="-1285.7716" rx="34.7971" ry="21.4286"/>
<text text-anchor="middle" x="1080" y="-1280.7716" font-family="Times,serif" font-size="20.00" fill="#000000">1.0</text>
</g>
<!-- SG_1_Node_0&#45;&gt;SG_1_Node_7 -->
<g id="edge16" class="edge">
<title>SG_1_Node_0&#45;&gt;SG_1_Node_7</title>
<path fill="none" stroke="#000000" d="M994.0222,-1600.5952C1008.9073,-1546.0907 1052.9075,-1384.9759 1071.5261,-1316.8004"/>
<polygon fill="#000000" stroke="#000000" points="1074.9272,-1317.6317 1074.1854,-1307.0628 1068.1745,-1315.7875 1074.9272,-1317.6317"/>
<text text-anchor="middle" x="1110" y="-1459.9848" font-family="Times,serif" font-size="20.00" fill="#000000">[NA]</text>
<text text-anchor="middle" x="1110" y="-1437.9848" font-family="Times,serif" font-size="20.00" fill="#000000">52 levels</text>
</g>
<!-- SG_1_Node_2 -->
<g id="node19" class="node">
<title>SG_1_Node_2</title>
<polygon fill="none" stroke="#000000" points="936.5,-1121.3452 715.5,-1121.3452 715.5,-1085.3452 936.5,-1085.3452 936.5,-1121.3452"/>
<text text-anchor="middle" x="826" y="-1098.3452" font-family="Times,serif" font-size="20.00" fill="#000000">Content&#45;Disposition</text>
</g>
<!-- SG_1_Node_1&#45;&gt;SG_1_Node_2 -->
<g id="edge17" class="edge">
<title>SG_1_Node_1&#45;&gt;SG_1_Node_2</title>
<path fill="none" stroke="#000000" d="M872.8767,-1267.6849C860.9164,-1257.3251 847.4663,-1243.2727 840,-1227.5584 825.5119,-1197.0653 823.4622,-1157.7634 824.0839,-1131.6189"/>
<polygon fill="#000000" stroke="#000000" points="827.5815,-1131.7461 824.4674,-1121.6193 820.5866,-1131.4778 827.5815,-1131.7461"/>
<text text-anchor="middle" x="922.5" y="-1189.5584" font-family="Times,serif" font-size="20.00" fill="#000000">default&#45;src &#39;self&#39;</text>
</g>
<!-- SG_1_Node_8 -->
<g id="node20" class="node">
<title>SG_1_Node_8</title>
<ellipse fill="none" stroke="#000000" cx="1027" cy="-1103.3452" rx="34.7971" ry="21.4286"/>
<text text-anchor="middle" x="1027" y="-1098.3452" font-family="Times,serif" font-size="20.00" fill="#000000">1.0</text>
</g>
<!-- SG_1_Node_1&#45;&gt;SG_1_Node_8 -->
<g id="edge18" class="edge">
<title>SG_1_Node_1&#45;&gt;SG_1_Node_8</title>
<path fill="none" stroke="#000000" d="M952.0042,-1267.6933C971.5709,-1258.6103 991.9609,-1245.5983 1005,-1227.5584 1024.4803,-1200.6071 1028.5915,-1161.9276 1028.7121,-1134.9146"/>
<polygon fill="#000000" stroke="#000000" points="1032.2107,-1134.7805 1028.5758,-1124.8287 1025.2114,-1134.8751 1032.2107,-1134.7805"/>
<text text-anchor="middle" x="1137.5" y="-1211.5584" font-family="Times,serif" font-size="20.00" fill="#000000">[NA]</text>
<text text-anchor="middle" x="1137.5" y="-1189.5584" font-family="Times,serif" font-size="20.00" fill="#000000">empty</text>
<text text-anchor="middle" x="1137.5" y="-1167.5584" font-family="Times,serif" font-size="20.00" fill="#000000">frame&#45;ancestors &#39;self&#39;</text>
</g>
<!-- SG_1_Node_9 -->
<g id="node21" class="node">
<title>SG_1_Node_9</title>
<ellipse fill="none" stroke="#000000" cx="769" cy="-942.9188" rx="34.7971" ry="21.4286"/>
<text text-anchor="middle" x="769" y="-937.9188" font-family="Times,serif" font-size="20.00" fill="#000000">0.0</text>
</g>
<!-- SG_1_Node_2&#45;&gt;SG_1_Node_9 -->
<g id="edge19" class="edge">
<title>SG_1_Node_2&#45;&gt;SG_1_Node_9</title>
<path fill="none" stroke="#000000" d="M808.8263,-1085.158C799.6397,-1074.3564 789.0101,-1059.9141 783,-1045.132 773.8661,-1022.6666 770.4777,-995.3725 769.3123,-974.6418"/>
<polygon fill="#000000" stroke="#000000" points="772.8014,-974.3048 768.8869,-964.4596 765.8075,-974.5971 772.8014,-974.3048"/>
<text text-anchor="middle" x="842" y="-1029.132" font-family="Times,serif" font-size="20.00" fill="#000000">[NA]</text>
<text text-anchor="middle" x="842" y="-1007.132" font-family="Times,serif" font-size="20.00" fill="#000000">attachment</text>
</g>
<!-- SG_1_Node_3 -->
<g id="node22" class="node">
<title>SG_1_Node_3</title>
<polygon fill="none" stroke="#000000" points="1000.5,-960.9188 845.5,-960.9188 845.5,-924.9188 1000.5,-924.9188 1000.5,-960.9188"/>
<text text-anchor="middle" x="923" y="-937.9188" font-family="Times,serif" font-size="20.00" fill="#000000">Content&#45;Type</text>
</g>
<!-- SG_1_Node_2&#45;&gt;SG_1_Node_3 -->
<g id="edge20" class="edge">
<title>SG_1_Node_2&#45;&gt;SG_1_Node_3</title>
<path fill="none" stroke="#000000" d="M858.8593,-1085.1879C873.9022,-1075.2511 890.6459,-1061.5967 901,-1045.132 915.053,-1022.7855 920.2393,-992.8422 922.0977,-971.1449"/>
<polygon fill="#000000" stroke="#000000" points="925.6057,-971.1417 922.7814,-960.9302 918.6213,-970.6741 925.6057,-971.1417"/>
<text text-anchor="middle" x="949" y="-1018.132" font-family="Times,serif" font-size="20.00" fill="#000000">empty</text>
</g>
<!-- SG_1_Node_4 -->
<g id="node23" class="node">
<title>SG_1_Node_4</title>
<polygon fill="none" stroke="#000000" points="905.5,-668.4924 840.5,-668.4924 840.5,-632.4924 905.5,-632.4924 905.5,-668.4924"/>
<text text-anchor="middle" x="873" y="-645.4924" font-family="Times,serif" font-size="20.00" fill="#000000">body</text>
</g>
<!-- SG_1_Node_3&#45;&gt;SG_1_Node_4 -->
<g id="edge21" class="edge">
<title>SG_1_Node_3&#45;&gt;SG_1_Node_4</title>
<path fill="none" stroke="#000000" d="M908.4449,-924.6872C900.5933,-913.7589 891.5933,-899.2056 887,-884.7056 864.385,-813.3148 867.0311,-723.6731 870.3196,-678.8108"/>
<polygon fill="#000000" stroke="#000000" points="873.8228,-678.91 871.1323,-668.6624 866.8451,-678.3511 873.8228,-678.91"/>
<text text-anchor="middle" x="919" y="-791.7056" font-family="Times,serif" font-size="20.00" fill="#000000">empty</text>
</g>
<!-- SG_1_Node_10 -->
<g id="node24" class="node">
<title>SG_1_Node_10</title>
<ellipse fill="none" stroke="#000000" cx="973" cy="-650.4924" rx="34.7971" ry="21.4286"/>
<text text-anchor="middle" x="973" y="-645.4924" font-family="Times,serif" font-size="20.00" fill="#000000">1.0</text>
</g>
<!-- SG_1_Node_3&#45;&gt;SG_1_Node_10 -->
<g id="edge22" class="edge">
<title>SG_1_Node_3&#45;&gt;SG_1_Node_10</title>
<path fill="none" stroke="#000000" d="M933.8357,-924.7031C939.9379,-913.5449 947.0974,-898.7528 951,-884.7056 970.5845,-814.2136 973.5327,-727.6907 973.5376,-682.0899"/>
<polygon fill="#000000" stroke="#000000" points="977.037,-681.9241 973.4891,-671.941 970.037,-681.9577 977.037,-681.9241"/>
<text text-anchor="middle" x="1084" y="-868.7056" font-family="Times,serif" font-size="20.00" fill="#000000">[NA]</text>
<text text-anchor="middle" x="1084" y="-846.7056" font-family="Times,serif" font-size="20.00" fill="#000000">application/javascript</text>
<text text-anchor="middle" x="1084" y="-824.7056" font-family="Times,serif" font-size="20.00" fill="#000000">application/pdf</text>
<text text-anchor="middle" x="1084" y="-802.7056" font-family="Times,serif" font-size="20.00" fill="#000000">audio/wav</text>
<text text-anchor="middle" x="1084" y="-780.7056" font-family="Times,serif" font-size="20.00" fill="#000000">image/png</text>
<text text-anchor="middle" x="1084" y="-758.7056" font-family="Times,serif" font-size="20.00" fill="#000000">text/css</text>
<text text-anchor="middle" x="1084" y="-736.7056" font-family="Times,serif" font-size="20.00" fill="#000000">text/html</text>
<text text-anchor="middle" x="1084" y="-714.7056" font-family="Times,serif" font-size="20.00" fill="#000000">video/mp4</text>
</g>
<!-- SG_1_Node_5 -->
<g id="node25" class="node">
<title>SG_1_Node_5</title>
<polygon fill="none" stroke="#000000" points="939,-508.066 677,-508.066 677,-472.066 939,-472.066 939,-508.066"/>
<text text-anchor="middle" x="808" y="-485.066" font-family="Times,serif" font-size="20.00" fill="#000000">X&#45;Content&#45;Type&#45;Options</text>
</g>
<!-- SG_1_Node_4&#45;&gt;SG_1_Node_5 -->
<g id="edge23" class="edge">
<title>SG_1_Node_4&#45;&gt;SG_1_Node_5</title>
<path fill="none" stroke="#000000" d="M840.1923,-643.5228C796.9183,-633.5878 724.4237,-614.1205 709,-592.2792 697.7196,-576.3051 699.2897,-565.2536 709,-548.2792 717.6487,-533.1607 731.9224,-521.5817 746.9753,-512.887"/>
<polygon fill="#000000" stroke="#000000" points="748.7394,-515.9125 755.8916,-508.0961 745.4261,-509.7462 748.7394,-515.9125"/>
<text text-anchor="middle" x="954.5" y="-576.2792" font-family="Times,serif" font-size="20.00" fill="#000000">ecocnt_audio=duration=1</text>
<text text-anchor="middle" x="954.5" y="-554.2792" font-family="Times,serif" font-size="20.00" fill="#000000">ecocnt_vid=width=100,height=100,duration=2</text>
</g>
<!-- SG_1_Node_11 -->
<g id="node26" class="node">
<title>SG_1_Node_11</title>
<ellipse fill="none" stroke="#000000" cx="1222" cy="-490.066" rx="34.7971" ry="21.4286"/>
<text text-anchor="middle" x="1222" y="-485.066" font-family="Times,serif" font-size="20.00" fill="#000000">1.0</text>
</g>
<!-- SG_1_Node_4&#45;&gt;SG_1_Node_11 -->
<g id="edge24" class="edge">
<title>SG_1_Node_4&#45;&gt;SG_1_Node_11</title>
<path fill="none" stroke="#000000" d="M905.7662,-636.6648C913.2957,-633.8859 921.3422,-631.2256 929,-629.2792 987.9079,-614.3067 1155.4132,-633.5871 1200,-592.2792 1219.0817,-574.6008 1223.694,-544.6852 1224.057,-521.7725"/>
<polygon fill="#000000" stroke="#000000" points="1227.554,-521.4528 1223.9503,-511.4897 1220.5544,-521.5255 1227.554,-521.4528"/>
<text text-anchor="middle" x="1267" y="-576.2792" font-family="Times,serif" font-size="20.00" fill="#000000">[NA]</text>
<text text-anchor="middle" x="1267" y="-554.2792" font-family="Times,serif" font-size="20.00" fill="#000000">11 levels</text>
</g>
<!-- SG_1_Node_6 -->
<g id="node27" class="node">
<title>SG_1_Node_6</title>
<polygon fill="none" stroke="#000000" points="838,-347.6396 696,-347.6396 696,-311.6396 838,-311.6396 838,-347.6396"/>
<text text-anchor="middle" x="767" y="-324.6396" font-family="Times,serif" font-size="20.00" fill="#000000">Status&#45;Code</text>
</g>
<!-- SG_1_Node_5&#45;&gt;SG_1_Node_6 -->
<g id="edge25" class="edge">
<title>SG_1_Node_5&#45;&gt;SG_1_Node_6</title>
<path fill="none" stroke="#000000" d="M803.3765,-471.9749C796.2711,-444.1727 782.6091,-390.7154 774.2002,-357.8126"/>
<polygon fill="#000000" stroke="#000000" points="777.5367,-356.7327 771.6695,-347.9107 770.7547,-358.466 777.5367,-356.7327"/>
<text text-anchor="middle" x="824" y="-404.8528" font-family="Times,serif" font-size="20.00" fill="#000000">empty</text>
</g>
<!-- SG_1_Node_12 -->
<g id="node28" class="node">
<title>SG_1_Node_12</title>
<ellipse fill="none" stroke="#000000" cx="891" cy="-329.6396" rx="34.7971" ry="21.4286"/>
<text text-anchor="middle" x="891" y="-324.6396" font-family="Times,serif" font-size="20.00" fill="#000000">1.0</text>
</g>
<!-- SG_1_Node_5&#45;&gt;SG_1_Node_12 -->
<g id="edge26" class="edge">
<title>SG_1_Node_5&#45;&gt;SG_1_Node_12</title>
<path fill="none" stroke="#000000" d="M827.8843,-472.0488C838.7081,-461.3021 851.5716,-446.8581 860,-431.8528 872.43,-409.7233 880.4301,-382.038 885.184,-361.0641"/>
<polygon fill="#000000" stroke="#000000" points="888.6532,-361.5781 887.3213,-351.0673 881.8078,-360.1146 888.6532,-361.5781"/>
<text text-anchor="middle" x="912" y="-415.8528" font-family="Times,serif" font-size="20.00" fill="#000000">[NA]</text>
<text text-anchor="middle" x="912" y="-393.8528" font-family="Times,serif" font-size="20.00" fill="#000000">nosniff</text>
</g>
<!-- SG_1_Node_13 -->
<g id="node29" class="node">
<title>SG_1_Node_13</title>
<ellipse fill="none" stroke="#000000" cx="739" cy="-37.2132" rx="34.7971" ry="21.4286"/>
<text text-anchor="middle" x="739" y="-32.2132" font-family="Times,serif" font-size="20.00" fill="#000000">0.0</text>
</g>
<!-- SG_1_Node_6&#45;&gt;SG_1_Node_13 -->
<g id="edge27" class="edge">
<title>SG_1_Node_6&#45;&gt;SG_1_Node_13</title>
<path fill="none" stroke="#000000" d="M765.2485,-311.347C760.5952,-262.7494 747.881,-129.9648 742.0256,-68.8117"/>
<polygon fill="#000000" stroke="#000000" points="745.4856,-68.2258 741.0483,-58.6049 738.5174,-68.893 745.4856,-68.2258"/>
<text text-anchor="middle" x="780.5" y="-255.4264" font-family="Times,serif" font-size="20.00" fill="#000000">200</text>
<text text-anchor="middle" x="780.5" y="-233.4264" font-family="Times,serif" font-size="20.00" fill="#000000">201</text>
<text text-anchor="middle" x="780.5" y="-211.4264" font-family="Times,serif" font-size="20.00" fill="#000000">202</text>
<text text-anchor="middle" x="780.5" y="-189.4264" font-family="Times,serif" font-size="20.00" fill="#000000">203</text>
<text text-anchor="middle" x="780.5" y="-167.4264" font-family="Times,serif" font-size="20.00" fill="#000000">206</text>
<text text-anchor="middle" x="780.5" y="-145.4264" font-family="Times,serif" font-size="20.00" fill="#000000">207</text>
<text text-anchor="middle" x="780.5" y="-123.4264" font-family="Times,serif" font-size="20.00" fill="#000000">208</text>
<text text-anchor="middle" x="780.5" y="-101.4264" font-family="Times,serif" font-size="20.00" fill="#000000">226</text>
</g>
<!-- SG_1_Node_14 -->
<g id="node30" class="node">
<title>SG_1_Node_14</title>
<ellipse fill="none" stroke="#000000" cx="826" cy="-37.2132" rx="34.7971" ry="21.4286"/>
<text text-anchor="middle" x="826" y="-32.2132" font-family="Times,serif" font-size="20.00" fill="#000000">1.0</text>
</g>
<!-- SG_1_Node_6&#45;&gt;SG_1_Node_14 -->
<g id="edge28" class="edge">
<title>SG_1_Node_6&#45;&gt;SG_1_Node_14</title>
<path fill="none" stroke="#000000" d="M780.3209,-311.4644C787.6903,-300.4396 796.2868,-285.77 801,-271.4264 823.9272,-201.6523 826.9894,-114.5014 826.7751,-68.6985"/>
<polygon fill="#000000" stroke="#000000" points="830.2731,-68.4731 826.669,-58.5101 823.2734,-68.5461 830.2731,-68.4731"/>
<text text-anchor="middle" x="845.5" y="-189.4264" font-family="Times,serif" font-size="20.00" fill="#000000">204</text>
<text text-anchor="middle" x="845.5" y="-167.4264" font-family="Times,serif" font-size="20.00" fill="#000000">205</text>
</g>
</g>
</svg>
