<?xml version="1.0" encoding="UTF-8" standalone="no"?>
<!DOCTYPE svg PUBLIC "-//W3C//DTD SVG 1.1//EN"
 "http://www.w3.org/Graphics/SVG/1.1/DTD/svg11.dtd">
<!-- Generated by graphviz version 2.40.1 (20161225.0304)
 -->
<!-- Title: G Pages: 1 -->
<svg width="4623pt" height="1267pt"
 viewBox="0.00 0.00 4623.00 1266.56" xmlns="http://www.w3.org/2000/svg" xmlns:xlink="http://www.w3.org/1999/xlink">
<g id="graph0" class="graph" transform="scale(1 1) rotate(0) translate(4 1262.5584)">
<title>G</title>
<polygon fill="#ffffff" stroke="transparent" points="-4,4 -4,-1262.5584 4619,-1262.5584 4619,4 -4,4"/>
<g id="clust1" class="cluster">
<title>cluster_0</title>
<polygon fill="none" stroke="#000000" points="8,-8 8,-1250.5584 464,-1250.5584 464,-8 8,-8"/>
<text text-anchor="middle" x="236" y="-1214.5584" font-family="Times,serif" font-size="40.00" fill="#000000">Tree 0, Class js&#45;null</text>
</g>
<g id="clust9" class="cluster">
<title>cluster_1</title>
<polygon fill="none" stroke="#000000" points="472,-8 472,-1250.5584 4607,-1250.5584 4607,-8 472,-8"/>
<text text-anchor="middle" x="2539.5" y="-1214.5584" font-family="Times,serif" font-size="40.00" fill="#000000">Tree 0, Class {&#39;location&#39;: {&#39;hash&#39;: &#39;&#39;, &#39;host&#39;: &#39;&#39;, &#39;href&#39;: &#39;about:blank&#39;, &#39;port&#39;: &#39;&#39;, &#39;origin&#39;: &#39;null&#39;, &#39;search&#39;: &#39;&#39;, &#39;hostname&#39;: &#39;&#39;, &#39;pathname&#39;: &#39;blank&#39;, &#39;protocol&#39;: &#39;about:&#39;, &#39;ancestorOrigins&#39;: {&#39;0&#39;: &#39;http://localhost:8001&#39;}}}</text>
</g>
<!-- SG_0_Node_0 -->
<g id="node1" class="node">
<title>SG_0_Node_0</title>
<polygon fill="none" stroke="#000000" points="177,-1190.5584 35,-1190.5584 35,-1154.5584 177,-1154.5584 177,-1190.5584"/>
<text text-anchor="middle" x="106" y="-1167.5584" font-family="Times,serif" font-size="20.00" fill="#000000">Status&#45;Code</text>
</g>
<!-- SG_0_Node_6 -->
<g id="node2" class="node">
<title>SG_0_Node_6</title>
<ellipse fill="none" stroke="#000000" cx="74" cy="-971.3452" rx="34.7971" ry="21.4286"/>
<text text-anchor="middle" x="74" y="-966.3452" font-family="Times,serif" font-size="20.00" fill="#000000">0.0</text>
</g>
<!-- SG_0_Node_0&#45;&gt;SG_0_Node_6 -->
<g id="edge1" class="edge">
<title>SG_0_Node_0&#45;&gt;SG_0_Node_6</title>
<path fill="none" stroke="#000000" d="M103.1038,-1154.3472C97.6433,-1120.0124 85.7679,-1045.3409 78.9953,-1002.7551"/>
<polygon fill="#000000" stroke="#000000" points="82.4176,-1001.9897 77.3904,-992.6636 75.5045,-1003.0892 82.4176,-1001.9897"/>
<text text-anchor="middle" x="116.5" y="-1101.5584" font-family="Times,serif" font-size="20.00" fill="#000000">100</text>
<text text-anchor="middle" x="116.5" y="-1079.5584" font-family="Times,serif" font-size="20.00" fill="#000000">102</text>
<text text-anchor="middle" x="116.5" y="-1057.5584" font-family="Times,serif" font-size="20.00" fill="#000000">103</text>
<text text-anchor="middle" x="116.5" y="-1035.5584" font-family="Times,serif" font-size="20.00" fill="#000000">407</text>
</g>
<!-- SG_0_Node_1 -->
<g id="node3" class="node">
<title>SG_0_Node_1</title>
<polygon fill="none" stroke="#000000" points="317.5,-989.3452 126.5,-989.3452 126.5,-953.3452 317.5,-953.3452 317.5,-989.3452"/>
<text text-anchor="middle" x="222" y="-966.3452" font-family="Times,serif" font-size="20.00" fill="#000000">X&#45;Frame&#45;Options</text>
</g>
<!-- SG_0_Node_0&#45;&gt;SG_0_Node_1 -->
<g id="edge2" class="edge">
<title>SG_0_Node_0&#45;&gt;SG_0_Node_1</title>
<path fill="none" stroke="#000000" d="M117.5297,-1154.3436C124.2063,-1143.6887 132.7063,-1129.9387 140,-1117.5584 164.2613,-1076.3778 191.1408,-1027.8609 207.2948,-998.3675"/>
<polygon fill="#000000" stroke="#000000" points="210.4202,-999.947 212.1459,-989.4937 204.2781,-996.5893 210.4202,-999.947"/>
<text text-anchor="middle" x="235" y="-1079.5584" font-family="Times,serif" font-size="20.00" fill="#000000">[NA]</text>
<text text-anchor="middle" x="235" y="-1057.5584" font-family="Times,serif" font-size="20.00" fill="#000000">58 levels</text>
</g>
<!-- SG_0_Node_2 -->
<g id="node4" class="node">
<title>SG_0_Node_2</title>
<polygon fill="none" stroke="#000000" points="320.5,-828.9188 99.5,-828.9188 99.5,-792.9188 320.5,-792.9188 320.5,-828.9188"/>
<text text-anchor="middle" x="210" y="-805.9188" font-family="Times,serif" font-size="20.00" fill="#000000">Content&#45;Disposition</text>
</g>
<!-- SG_0_Node_1&#45;&gt;SG_0_Node_2 -->
<g id="edge3" class="edge">
<title>SG_0_Node_1&#45;&gt;SG_0_Node_2</title>
<path fill="none" stroke="#000000" d="M220.6468,-953.2541C218.5762,-925.5723 214.6031,-872.457 212.1394,-839.5203"/>
<polygon fill="#000000" stroke="#000000" points="215.603,-838.901 211.3667,-829.19 208.6225,-839.4232 215.603,-838.901"/>
<text text-anchor="middle" x="249" y="-897.132" font-family="Times,serif" font-size="20.00" fill="#000000">[NA]</text>
<text text-anchor="middle" x="249" y="-875.132" font-family="Times,serif" font-size="20.00" fill="#000000">empty</text>
</g>
<!-- SG_0_Node_7 -->
<g id="node5" class="node">
<title>SG_0_Node_7</title>
<ellipse fill="none" stroke="#000000" cx="373" cy="-810.9188" rx="34.7971" ry="21.4286"/>
<text text-anchor="middle" x="373" y="-805.9188" font-family="Times,serif" font-size="20.00" fill="#000000">1.0</text>
</g>
<!-- SG_0_Node_1&#45;&gt;SG_0_Node_7 -->
<g id="edge4" class="edge">
<title>SG_0_Node_1&#45;&gt;SG_0_Node_7</title>
<path fill="none" stroke="#000000" d="M242.7009,-953.3C255.2704,-942.0812 271.4498,-927.1666 285,-913.132 308.5477,-888.7426 333.6072,-859.2474 350.9368,-838.2224"/>
<polygon fill="#000000" stroke="#000000" points="353.7745,-840.2816 357.4078,-830.3292 348.3611,-835.8437 353.7745,-840.2816"/>
<text text-anchor="middle" x="348.5" y="-886.132" font-family="Times,serif" font-size="20.00" fill="#000000">deny</text>
</g>
<!-- SG_0_Node_3 -->
<g id="node6" class="node">
<title>SG_0_Node_3</title>
<polygon fill="none" stroke="#000000" points="295,-668.4924 35,-668.4924 35,-632.4924 295,-632.4924 295,-668.4924"/>
<text text-anchor="middle" x="165" y="-645.4924" font-family="Times,serif" font-size="20.00" fill="#000000">Content&#45;Security&#45;Policy</text>
</g>
<!-- SG_0_Node_2&#45;&gt;SG_0_Node_3 -->
<g id="edge5" class="edge">
<title>SG_0_Node_2&#45;&gt;SG_0_Node_3</title>
<path fill="none" stroke="#000000" d="M204.9254,-792.8277C197.1268,-765.0255 182.1319,-711.5683 172.9026,-678.6655"/>
<polygon fill="#000000" stroke="#000000" points="176.1959,-677.4466 170.1251,-668.7636 169.456,-679.3372 176.1959,-677.4466"/>
<text text-anchor="middle" x="252" y="-736.7056" font-family="Times,serif" font-size="20.00" fill="#000000">[NA]</text>
<text text-anchor="middle" x="252" y="-714.7056" font-family="Times,serif" font-size="20.00" fill="#000000">attachment</text>
</g>
<!-- SG_0_Node_8 -->
<g id="node7" class="node">
<title>SG_0_Node_8</title>
<ellipse fill="none" stroke="#000000" cx="348" cy="-650.4924" rx="34.7971" ry="21.4286"/>
<text text-anchor="middle" x="348" y="-645.4924" font-family="Times,serif" font-size="20.00" fill="#000000">1.0</text>
</g>
<!-- SG_0_Node_2&#45;&gt;SG_0_Node_8 -->
<g id="edge6" class="edge">
<title>SG_0_Node_2&#45;&gt;SG_0_Node_8</title>
<path fill="none" stroke="#000000" d="M259.5565,-792.8621C279.1935,-783.5288 300.4997,-770.3309 315,-752.7056 331.5952,-732.534 339.9097,-703.8342 344.0368,-681.9785"/>
<polygon fill="#000000" stroke="#000000" points="347.5304,-682.3098 345.7444,-671.8666 340.6281,-681.1441 347.5304,-682.3098"/>
<text text-anchor="middle" x="369" y="-725.7056" font-family="Times,serif" font-size="20.00" fill="#000000">empty</text>
</g>
<!-- SG_0_Node_4 -->
<g id="node8" class="node">
<title>SG_0_Node_4</title>
<polygon fill="none" stroke="#000000" points="158,-486.066 16,-486.066 16,-450.066 158,-450.066 158,-486.066"/>
<text text-anchor="middle" x="87" y="-463.066" font-family="Times,serif" font-size="20.00" fill="#000000">Status&#45;Code</text>
</g>
<!-- SG_0_Node_3&#45;&gt;SG_0_Node_4 -->
<g id="edge7" class="edge">
<title>SG_0_Node_3&#45;&gt;SG_0_Node_4</title>
<path fill="none" stroke="#000000" d="M86.243,-632.3507C65.8007,-623.6884 46.1381,-610.9557 34,-592.2792 18.0152,-567.6839 23.4124,-553.6351 34,-526.2792 38.788,-513.9083 47.5633,-502.5504 56.6144,-493.2155"/>
<polygon fill="#000000" stroke="#000000" points="59.123,-495.6583 63.8615,-486.1821 54.2478,-490.635 59.123,-495.6583"/>
<text text-anchor="middle" x="116.5" y="-576.2792" font-family="Times,serif" font-size="20.00" fill="#000000">[NA]</text>
<text text-anchor="middle" x="116.5" y="-554.2792" font-family="Times,serif" font-size="20.00" fill="#000000">default&#45;src &#39;self&#39;</text>
<text text-anchor="middle" x="116.5" y="-532.2792" font-family="Times,serif" font-size="20.00" fill="#000000">empty</text>
</g>
<!-- SG_0_Node_9 -->
<g id="node9" class="node">
<title>SG_0_Node_9</title>
<ellipse fill="none" stroke="#000000" cx="235" cy="-468.066" rx="34.7971" ry="21.4286"/>
<text text-anchor="middle" x="235" y="-463.066" font-family="Times,serif" font-size="20.00" fill="#000000">1.0</text>
</g>
<!-- SG_0_Node_3&#45;&gt;SG_0_Node_9 -->
<g id="edge8" class="edge">
<title>SG_0_Node_3&#45;&gt;SG_0_Node_9</title>
<path fill="none" stroke="#000000" d="M179.1402,-632.2452C187.1194,-621.1957 196.7194,-606.5254 203,-592.2792 216.3434,-562.0128 224.9755,-525.0521 229.8714,-499.3546"/>
<polygon fill="#000000" stroke="#000000" points="233.3319,-499.8873 231.6848,-489.4213 226.4457,-498.6301 233.3319,-499.8873"/>
<text text-anchor="middle" x="333.5" y="-554.2792" font-family="Times,serif" font-size="20.00" fill="#000000">frame&#45;ancestors &#39;self&#39;</text>
</g>
<!-- SG_0_Node_10 -->
<g id="node10" class="node">
<title>SG_0_Node_10</title>
<ellipse fill="none" stroke="#000000" cx="52" cy="-219.6396" rx="34.7971" ry="21.4286"/>
<text text-anchor="middle" x="52" y="-214.6396" font-family="Times,serif" font-size="20.00" fill="#000000">0.0</text>
</g>
<!-- SG_0_Node_4&#45;&gt;SG_0_Node_10 -->
<g id="edge9" class="edge">
<title>SG_0_Node_4&#45;&gt;SG_0_Node_10</title>
<path fill="none" stroke="#000000" d="M78.9661,-449.8286C74.3621,-438.5395 68.9318,-423.6187 66,-409.8528 54.3233,-355.0267 51.9677,-289.5321 51.7116,-251.4542"/>
<polygon fill="#000000" stroke="#000000" points="55.2108,-251.0087 51.6902,-241.016 48.2108,-251.0232 55.2108,-251.0087"/>
<text text-anchor="middle" x="112" y="-349.8528" font-family="Times,serif" font-size="20.00" fill="#000000">[NA]</text>
<text text-anchor="middle" x="112" y="-327.8528" font-family="Times,serif" font-size="20.00" fill="#000000">52 levels</text>
</g>
<!-- SG_0_Node_5 -->
<g id="node11" class="node">
<title>SG_0_Node_5</title>
<polygon fill="none" stroke="#000000" points="232.5,-237.6396 127.5,-237.6396 127.5,-201.6396 232.5,-201.6396 232.5,-237.6396"/>
<text text-anchor="middle" x="180" y="-214.6396" font-family="Times,serif" font-size="20.00" fill="#000000">Location</text>
</g>
<!-- SG_0_Node_4&#45;&gt;SG_0_Node_5 -->
<g id="edge10" class="edge">
<title>SG_0_Node_4&#45;&gt;SG_0_Node_5</title>
<path fill="none" stroke="#000000" d="M118.7964,-449.9484C133.2003,-440.021 148.9892,-426.363 158,-409.8528 186.2409,-358.1081 185.9135,-286.7818 183.0452,-247.8298"/>
<polygon fill="#000000" stroke="#000000" points="186.5225,-247.4136 182.1904,-237.7449 179.5476,-248.0048 186.5225,-247.4136"/>
<text text-anchor="middle" x="203.5" y="-393.8528" font-family="Times,serif" font-size="20.00" fill="#000000">301</text>
<text text-anchor="middle" x="203.5" y="-371.8528" font-family="Times,serif" font-size="20.00" fill="#000000">302</text>
<text text-anchor="middle" x="203.5" y="-349.8528" font-family="Times,serif" font-size="20.00" fill="#000000">303</text>
<text text-anchor="middle" x="203.5" y="-327.8528" font-family="Times,serif" font-size="20.00" fill="#000000">305</text>
<text text-anchor="middle" x="203.5" y="-305.8528" font-family="Times,serif" font-size="20.00" fill="#000000">307</text>
<text text-anchor="middle" x="203.5" y="-283.8528" font-family="Times,serif" font-size="20.00" fill="#000000">308</text>
</g>
<!-- SG_0_Node_11 -->
<g id="node12" class="node">
<title>SG_0_Node_11</title>
<ellipse fill="none" stroke="#000000" cx="81" cy="-37.2132" rx="34.7971" ry="21.4286"/>
<text text-anchor="middle" x="81" y="-32.2132" font-family="Times,serif" font-size="20.00" fill="#000000">0.0</text>
</g>
<!-- SG_0_Node_5&#45;&gt;SG_0_Node_11 -->
<g id="edge11" class="edge">
<title>SG_0_Node_5&#45;&gt;SG_0_Node_11</title>
<path fill="none" stroke="#000000" d="M151.4627,-201.4917C137.6198,-191.3009 121.8876,-177.4212 112,-161.4264 94.4352,-133.0127 86.8098,-95.1494 83.5072,-68.7251"/>
<polygon fill="#000000" stroke="#000000" points="86.9552,-68.062 82.3736,-58.5091 79.9979,-68.8341 86.9552,-68.062"/>
<text text-anchor="middle" x="144" y="-123.4264" font-family="Times,serif" font-size="20.00" fill="#000000">empty</text>
</g>
<!-- SG_0_Node_12 -->
<g id="node13" class="node">
<title>SG_0_Node_12</title>
<ellipse fill="none" stroke="#000000" cx="181" cy="-37.2132" rx="34.7971" ry="21.4286"/>
<text text-anchor="middle" x="181" y="-32.2132" font-family="Times,serif" font-size="20.00" fill="#000000">1.0</text>
</g>
<!-- SG_0_Node_5&#45;&gt;SG_0_Node_12 -->
<g id="edge12" class="edge">
<title>SG_0_Node_5&#45;&gt;SG_0_Node_12</title>
<path fill="none" stroke="#000000" d="M180.0995,-201.4809C180.2693,-170.507 180.6169,-107.0981 180.8271,-68.7558"/>
<polygon fill="#000000" stroke="#000000" points="184.3275,-68.6729 180.8825,-58.6538 177.3276,-68.6344 184.3275,-68.6729"/>
<text text-anchor="middle" x="317" y="-145.4264" font-family="Times,serif" font-size="20.00" fill="#000000">[NA]</text>
<text text-anchor="middle" x="317" y="-123.4264" font-family="Times,serif" font-size="20.00" fill="#000000">/</text>
<text text-anchor="middle" x="317" y="-101.4264" font-family="Times,serif" font-size="20.00" fill="#000000">http://localhost:8000/echo/</text>
</g>
<!-- SG_1_Node_0 -->
<g id="node14" class="node">
<title>SG_1_Node_0</title>
<polygon fill="none" stroke="#000000" points="733,-1190.5584 591,-1190.5584 591,-1154.5584 733,-1154.5584 733,-1190.5584"/>
<text text-anchor="middle" x="662" y="-1167.5584" font-family="Times,serif" font-size="20.00" fill="#000000">Status&#45;Code</text>
</g>
<!-- SG_1_Node_1 -->
<g id="node15" class="node">
<title>SG_1_Node_1</title>
<polygon fill="none" stroke="#000000" points="683.5,-989.3452 492.5,-989.3452 492.5,-953.3452 683.5,-953.3452 683.5,-989.3452"/>
<text text-anchor="middle" x="588" y="-966.3452" font-family="Times,serif" font-size="20.00" fill="#000000">X&#45;Frame&#45;Options</text>
</g>
<!-- SG_1_Node_0&#45;&gt;SG_1_Node_1 -->
<g id="edge13" class="edge">
<title>SG_1_Node_0&#45;&gt;SG_1_Node_1</title>
<path fill="none" stroke="#000000" d="M643.1973,-1154.3157C633.9425,-1144.3008 623.4215,-1131.1715 617,-1117.5584 599.0054,-1079.4113 592.169,-1030.5725 589.5766,-1000.1181"/>
<polygon fill="#000000" stroke="#000000" points="593.0397,-999.4936 588.8008,-989.7838 586.0593,-1000.0178 593.0397,-999.4936"/>
<text text-anchor="middle" x="663" y="-1079.5584" font-family="Times,serif" font-size="20.00" fill="#000000">[NA]</text>
<text text-anchor="middle" x="663" y="-1057.5584" font-family="Times,serif" font-size="20.00" fill="#000000">58 levels</text>
</g>
<!-- SG_1_Node_6 -->
<g id="node16" class="node">
<title>SG_1_Node_6</title>
<ellipse fill="none" stroke="#000000" cx="736" cy="-971.3452" rx="34.7971" ry="21.4286"/>
<text text-anchor="middle" x="736" y="-966.3452" font-family="Times,serif" font-size="20.00" fill="#000000">1.0</text>
</g>
<!-- SG_1_Node_0&#45;&gt;SG_1_Node_6 -->
<g id="edge14" class="edge">
<title>SG_1_Node_0&#45;&gt;SG_1_Node_6</title>
<path fill="none" stroke="#000000" d="M681.731,-1154.4956C691.4224,-1144.5299 702.4058,-1131.3904 709,-1117.5584 726.5883,-1080.6656 732.7485,-1033.4781 734.8889,-1002.8425"/>
<polygon fill="#000000" stroke="#000000" points="738.3898,-1002.9311 735.4905,-992.7406 731.4021,-1002.5149 738.3898,-1002.9311"/>
<text text-anchor="middle" x="751.5" y="-1101.5584" font-family="Times,serif" font-size="20.00" fill="#000000">100</text>
<text text-anchor="middle" x="751.5" y="-1079.5584" font-family="Times,serif" font-size="20.00" fill="#000000">102</text>
<text text-anchor="middle" x="751.5" y="-1057.5584" font-family="Times,serif" font-size="20.00" fill="#000000">103</text>
<text text-anchor="middle" x="751.5" y="-1035.5584" font-family="Times,serif" font-size="20.00" fill="#000000">407</text>
</g>
<!-- SG_1_Node_7 -->
<g id="node17" class="node">
<title>SG_1_Node_7</title>
<ellipse fill="none" stroke="#000000" cx="551" cy="-810.9188" rx="34.7971" ry="21.4286"/>
<text text-anchor="middle" x="551" y="-805.9188" font-family="Times,serif" font-size="20.00" fill="#000000">0.0</text>
</g>
<!-- SG_1_Node_1&#45;&gt;SG_1_Node_7 -->
<g id="edge15" class="edge">
<title>SG_1_Node_1&#45;&gt;SG_1_Node_7</title>
<path fill="none" stroke="#000000" d="M583.8276,-953.2541C577.603,-926.2653 565.8026,-875.1005 558.1756,-842.0312"/>
<polygon fill="#000000" stroke="#000000" points="561.5162,-840.9415 555.8583,-831.9839 554.6953,-842.5147 561.5162,-840.9415"/>
<text text-anchor="middle" x="598.5" y="-886.132" font-family="Times,serif" font-size="20.00" fill="#000000">deny</text>
</g>
<!-- SG_1_Node_2 -->
<g id="node18" class="node">
<title>SG_1_Node_2</title>
<polygon fill="none" stroke="#000000" points="824.5,-828.9188 603.5,-828.9188 603.5,-792.9188 824.5,-792.9188 824.5,-828.9188"/>
<text text-anchor="middle" x="714" y="-805.9188" font-family="Times,serif" font-size="20.00" fill="#000000">Content&#45;Disposition</text>
</g>
<!-- SG_1_Node_1&#45;&gt;SG_1_Node_2 -->
<g id="edge16" class="edge">
<title>SG_1_Node_1&#45;&gt;SG_1_Node_2</title>
<path fill="none" stroke="#000000" d="M602.2089,-953.2541C624.4231,-924.9705 667.4907,-870.1356 693.2004,-837.4014"/>
<polygon fill="#000000" stroke="#000000" points="696.2255,-839.2162 699.6497,-829.19 690.7204,-834.8925 696.2255,-839.2162"/>
<text text-anchor="middle" x="699" y="-897.132" font-family="Times,serif" font-size="20.00" fill="#000000">[NA]</text>
<text text-anchor="middle" x="699" y="-875.132" font-family="Times,serif" font-size="20.00" fill="#000000">empty</text>
</g>
<!-- SG_1_Node_8 -->
<g id="node19" class="node">
<title>SG_1_Node_8</title>
<ellipse fill="none" stroke="#000000" cx="599" cy="-650.4924" rx="34.7971" ry="21.4286"/>
<text text-anchor="middle" x="599" y="-645.4924" font-family="Times,serif" font-size="20.00" fill="#000000">0.0</text>
</g>
<!-- SG_1_Node_2&#45;&gt;SG_1_Node_8 -->
<g id="edge17" class="edge">
<title>SG_1_Node_2&#45;&gt;SG_1_Node_8</title>
<path fill="none" stroke="#000000" d="M700.53,-792.9027C692.0011,-781.4413 680.7768,-766.2582 671,-752.7056 652.9991,-727.7528 632.8579,-699.0951 618.4656,-678.4859"/>
<polygon fill="#000000" stroke="#000000" points="621.264,-676.38 612.6724,-670.1804 615.5227,-680.3846 621.264,-676.38"/>
<text text-anchor="middle" x="703" y="-725.7056" font-family="Times,serif" font-size="20.00" fill="#000000">empty</text>
</g>
<!-- SG_1_Node_3 -->
<g id="node20" class="node">
<title>SG_1_Node_3</title>
<polygon fill="none" stroke="#000000" points="912,-668.4924 652,-668.4924 652,-632.4924 912,-632.4924 912,-668.4924"/>
<text text-anchor="middle" x="782" y="-645.4924" font-family="Times,serif" font-size="20.00" fill="#000000">Content&#45;Security&#45;Policy</text>
</g>
<!-- SG_1_Node_2&#45;&gt;SG_1_Node_3 -->
<g id="edge18" class="edge">
<title>SG_1_Node_2&#45;&gt;SG_1_Node_3</title>
<path fill="none" stroke="#000000" d="M721.6683,-792.8277C733.5038,-764.9051 756.3081,-711.1049 770.2389,-678.2393"/>
<polygon fill="#000000" stroke="#000000" points="773.5752,-679.3365 774.2554,-668.7636 767.1303,-676.6047 773.5752,-679.3365"/>
<text text-anchor="middle" x="815" y="-736.7056" font-family="Times,serif" font-size="20.00" fill="#000000">[NA]</text>
<text text-anchor="middle" x="815" y="-714.7056" font-family="Times,serif" font-size="20.00" fill="#000000">attachment</text>
</g>
<!-- SG_1_Node_9 -->
<g id="node21" class="node">
<title>SG_1_Node_9</title>
<ellipse fill="none" stroke="#000000" cx="573" cy="-468.066" rx="34.7971" ry="21.4286"/>
<text text-anchor="middle" x="573" y="-463.066" font-family="Times,serif" font-size="20.00" fill="#000000">0.0</text>
</g>
<!-- SG_1_Node_3&#45;&gt;SG_1_Node_9 -->
<g id="edge19" class="edge">
<title>SG_1_Node_3&#45;&gt;SG_1_Node_9</title>
<path fill="none" stroke="#000000" d="M672.6968,-632.474C629.0397,-622.849 586.0143,-609.4138 573,-592.2792 552.8754,-565.7833 557.0087,-526.1062 563.4698,-498.7607"/>
<polygon fill="#000000" stroke="#000000" points="566.8949,-499.4954 566.0143,-488.9372 560.1185,-497.7401 566.8949,-499.4954"/>
<text text-anchor="middle" x="683.5" y="-554.2792" font-family="Times,serif" font-size="20.00" fill="#000000">frame&#45;ancestors &#39;self&#39;</text>
</g>
<!-- SG_1_Node_4 -->
<g id="node22" class="node">
<title>SG_1_Node_4</title>
<polygon fill="none" stroke="#000000" points="901,-486.066 759,-486.066 759,-450.066 901,-450.066 901,-486.066"/>
<text text-anchor="middle" x="830" y="-463.066" font-family="Times,serif" font-size="20.00" fill="#000000">Status&#45;Code</text>
</g>
<!-- SG_1_Node_3&#45;&gt;SG_1_Node_4 -->
<g id="edge20" class="edge">
<title>SG_1_Node_3&#45;&gt;SG_1_Node_4</title>
<path fill="none" stroke="#000000" d="M787.0479,-632.4197C790.2353,-620.9364 794.4138,-605.7501 798,-592.2792 806.7723,-559.3276 816.4993,-521.3551 822.9003,-496.1574"/>
<polygon fill="#000000" stroke="#000000" points="826.3618,-496.7459 825.4275,-486.1924 819.5766,-495.0251 826.3618,-496.7459"/>
<text text-anchor="middle" x="897.5" y="-576.2792" font-family="Times,serif" font-size="20.00" fill="#000000">[NA]</text>
<text text-anchor="middle" x="897.5" y="-554.2792" font-family="Times,serif" font-size="20.00" fill="#000000">default&#45;src &#39;self&#39;</text>
<text text-anchor="middle" x="897.5" y="-532.2792" font-family="Times,serif" font-size="20.00" fill="#000000">empty</text>
</g>
<!-- SG_1_Node_5 -->
<g id="node23" class="node">
<title>SG_1_Node_5</title>
<polygon fill="none" stroke="#000000" points="830.5,-237.6396 725.5,-237.6396 725.5,-201.6396 830.5,-201.6396 830.5,-237.6396"/>
<text text-anchor="middle" x="778" y="-214.6396" font-family="Times,serif" font-size="20.00" fill="#000000">Location</text>
</g>
<!-- SG_1_Node_4&#45;&gt;SG_1_Node_5 -->
<g id="edge21" class="edge">
<title>SG_1_Node_4&#45;&gt;SG_1_Node_5</title>
<path fill="none" stroke="#000000" d="M824.5725,-449.8102C821.2786,-438.387 817.1223,-423.3311 814,-409.8528 800.7799,-352.7846 788.8738,-285.2531 782.6205,-247.9595"/>
<polygon fill="#000000" stroke="#000000" points="786.0306,-247.1292 780.9381,-237.8385 779.1254,-248.2771 786.0306,-247.1292"/>
<text text-anchor="middle" x="833.5" y="-393.8528" font-family="Times,serif" font-size="20.00" fill="#000000">301</text>
<text text-anchor="middle" x="833.5" y="-371.8528" font-family="Times,serif" font-size="20.00" fill="#000000">302</text>
<text text-anchor="middle" x="833.5" y="-349.8528" font-family="Times,serif" font-size="20.00" fill="#000000">303</text>
<text text-anchor="middle" x="833.5" y="-327.8528" font-family="Times,serif" font-size="20.00" fill="#000000">305</text>
<text text-anchor="middle" x="833.5" y="-305.8528" font-family="Times,serif" font-size="20.00" fill="#000000">307</text>
<text text-anchor="middle" x="833.5" y="-283.8528" font-family="Times,serif" font-size="20.00" fill="#000000">308</text>
</g>
<!-- SG_1_Node_10 -->
<g id="node24" class="node">
<title>SG_1_Node_10</title>
<ellipse fill="none" stroke="#000000" cx="883" cy="-219.6396" rx="34.7971" ry="21.4286"/>
<text text-anchor="middle" x="883" y="-214.6396" font-family="Times,serif" font-size="20.00" fill="#000000">1.0</text>
</g>
<!-- SG_1_Node_4&#45;&gt;SG_1_Node_10 -->
<g id="edge22" class="edge">
<title>SG_1_Node_4&#45;&gt;SG_1_Node_10</title>
<path fill="none" stroke="#000000" d="M838.3037,-450.0635C843.2274,-438.7357 849.2245,-423.691 853,-409.8528 867.9607,-355.0186 876.2817,-289.1223 880.1836,-251.0423"/>
<polygon fill="#000000" stroke="#000000" points="883.6684,-251.3675 881.1688,-241.0717 876.7023,-250.6791 883.6684,-251.3675"/>
<text text-anchor="middle" x="923" y="-349.8528" font-family="Times,serif" font-size="20.00" fill="#000000">[NA]</text>
<text text-anchor="middle" x="923" y="-327.8528" font-family="Times,serif" font-size="20.00" fill="#000000">52 levels</text>
</g>
<!-- SG_1_Node_11 -->
<g id="node25" class="node">
<title>SG_1_Node_11</title>
<ellipse fill="none" stroke="#000000" cx="564" cy="-37.2132" rx="34.7971" ry="21.4286"/>
<text text-anchor="middle" x="564" y="-32.2132" font-family="Times,serif" font-size="20.00" fill="#000000">0.0</text>
</g>
<!-- SG_1_Node_5&#45;&gt;SG_1_Node_11 -->
<g id="edge23" class="edge">
<title>SG_1_Node_5&#45;&gt;SG_1_Node_11</title>
<path fill="none" stroke="#000000" d="M725.4681,-212.6859C668.6429,-203.9598 583.5231,-186.9697 564,-161.4264 543.7954,-134.9914 547.9451,-95.3019 554.4319,-67.9368"/>
<polygon fill="#000000" stroke="#000000" points="557.859,-68.6644 556.9865,-58.1056 551.0839,-66.9039 557.859,-68.6644"/>
<text text-anchor="middle" x="701" y="-145.4264" font-family="Times,serif" font-size="20.00" fill="#000000">[NA]</text>
<text text-anchor="middle" x="701" y="-123.4264" font-family="Times,serif" font-size="20.00" fill="#000000">/</text>
<text text-anchor="middle" x="701" y="-101.4264" font-family="Times,serif" font-size="20.00" fill="#000000">http://localhost:8000/echo/</text>
</g>
<!-- SG_1_Node_12 -->
<g id="node26" class="node">
<title>SG_1_Node_12</title>
<ellipse fill="none" stroke="#000000" cx="874" cy="-37.2132" rx="34.7971" ry="21.4286"/>
<text text-anchor="middle" x="874" y="-32.2132" font-family="Times,serif" font-size="20.00" fill="#000000">1.0</text>
</g>
<!-- SG_1_Node_5&#45;&gt;SG_1_Node_12 -->
<g id="edge24" class="edge">
<title>SG_1_Node_5&#45;&gt;SG_1_Node_12</title>
<path fill="none" stroke="#000000" d="M804.4732,-201.3878C817.5622,-191.077 832.5407,-177.1204 842,-161.4264 859.277,-132.7619 867.2973,-94.9423 870.9749,-68.5968"/>
<polygon fill="#000000" stroke="#000000" points="874.4802,-68.7744 872.2606,-58.4147 867.5353,-67.8974 874.4802,-68.7744"/>
<text text-anchor="middle" x="898" y="-123.4264" font-family="Times,serif" font-size="20.00" fill="#000000">empty</text>
</g>
</g>
</svg>
