<?xml version="1.0" encoding="UTF-8" standalone="no"?>
<!DOCTYPE svg PUBLIC "-//W3C//DTD SVG 1.1//EN"
 "http://www.w3.org/Graphics/SVG/1.1/DTD/svg11.dtd">
<!-- Generated by graphviz version 2.40.1 (20161225.0304)
 -->
<!-- Title: G Pages: 1 -->
<svg width="1338pt" height="1531pt"
 viewBox="0.00 0.00 1338.00 1530.56" xmlns="http://www.w3.org/2000/svg" xmlns:xlink="http://www.w3.org/1999/xlink">
<g id="graph0" class="graph" transform="scale(1 1) rotate(0) translate(4 1526.5584)">
<title>G</title>
<polygon fill="#ffffff" stroke="transparent" points="-4,4 -4,-1526.5584 1334,-1526.5584 1334,4 -4,4"/>
<g id="clust1" class="cluster">
<title>cluster_0</title>
<polygon fill="none" stroke="#000000" points="8,-8 8,-1514.5584 661,-1514.5584 661,-8 8,-8"/>
<text text-anchor="middle" x="334.5" y="-1478.5584" font-family="Times,serif" font-size="40.00" fill="#000000">Tree 0, Class 931&#45;872</text>
</g>
<g id="clust9" class="cluster">
<title>cluster_1</title>
<polygon fill="none" stroke="#000000" points="669,-8 669,-1514.5584 1322,-1514.5584 1322,-8 669,-8"/>
<text text-anchor="middle" x="995.5" y="-1478.5584" font-family="Times,serif" font-size="40.00" fill="#000000">Tree 0, Class 931&#45;931</text>
</g>
<!-- SG_0_Node_0 -->
<g id="node1" class="node">
<title>SG_0_Node_0</title>
<polygon fill="none" stroke="#000000" points="204,-1454.5584 62,-1454.5584 62,-1418.5584 204,-1418.5584 204,-1454.5584"/>
<text text-anchor="middle" x="133" y="-1431.5584" font-family="Times,serif" font-size="20.00" fill="#000000">Status&#45;Code</text>
</g>
<!-- SG_0_Node_6 -->
<g id="node2" class="node">
<title>SG_0_Node_6</title>
<ellipse fill="none" stroke="#000000" cx="92" cy="-1103.3452" rx="34.7971" ry="21.4286"/>
<text text-anchor="middle" x="92" y="-1098.3452" font-family="Times,serif" font-size="20.00" fill="#000000">0.0</text>
</g>
<!-- SG_0_Node_0&#45;&gt;SG_0_Node_6 -->
<g id="edge1" class="edge">
<title>SG_0_Node_0&#45;&gt;SG_0_Node_6</title>
<path fill="none" stroke="#000000" d="M130.7373,-1418.1688C124.0446,-1363.7762 104.2879,-1203.2107 95.8697,-1134.7951"/>
<polygon fill="#000000" stroke="#000000" points="99.3149,-1134.1341 94.6198,-1124.6364 92.3673,-1134.9891 99.3149,-1134.1341"/>
<text text-anchor="middle" x="172" y="-1277.5584" font-family="Times,serif" font-size="20.00" fill="#000000">[NA]</text>
<text text-anchor="middle" x="172" y="-1255.5584" font-family="Times,serif" font-size="20.00" fill="#000000">52 levels</text>
</g>
<!-- SG_0_Node_1 -->
<g id="node3" class="node">
<title>SG_0_Node_1</title>
<polygon fill="none" stroke="#000000" points="365.5,-1121.3452 144.5,-1121.3452 144.5,-1085.3452 365.5,-1085.3452 365.5,-1121.3452"/>
<text text-anchor="middle" x="255" y="-1098.3452" font-family="Times,serif" font-size="20.00" fill="#000000">Content&#45;Disposition</text>
</g>
<!-- SG_0_Node_0&#45;&gt;SG_0_Node_1 -->
<g id="edge2" class="edge">
<title>SG_0_Node_0&#45;&gt;SG_0_Node_1</title>
<path fill="none" stroke="#000000" d="M178.6622,-1418.5103C194.9309,-1409.7812 211.7457,-1397.6391 222,-1381.5584 272.4001,-1302.5212 265.618,-1184.8109 259.186,-1131.4492"/>
<polygon fill="#000000" stroke="#000000" points="262.6361,-1130.8378 257.8804,-1121.3703 255.6941,-1131.7371 262.6361,-1130.8378"/>
<text text-anchor="middle" x="282.5" y="-1365.5584" font-family="Times,serif" font-size="20.00" fill="#000000">200</text>
<text text-anchor="middle" x="282.5" y="-1343.5584" font-family="Times,serif" font-size="20.00" fill="#000000">201</text>
<text text-anchor="middle" x="282.5" y="-1321.5584" font-family="Times,serif" font-size="20.00" fill="#000000">202</text>
<text text-anchor="middle" x="282.5" y="-1299.5584" font-family="Times,serif" font-size="20.00" fill="#000000">203</text>
<text text-anchor="middle" x="282.5" y="-1277.5584" font-family="Times,serif" font-size="20.00" fill="#000000">204</text>
<text text-anchor="middle" x="282.5" y="-1255.5584" font-family="Times,serif" font-size="20.00" fill="#000000">205</text>
<text text-anchor="middle" x="282.5" y="-1233.5584" font-family="Times,serif" font-size="20.00" fill="#000000">206</text>
<text text-anchor="middle" x="282.5" y="-1211.5584" font-family="Times,serif" font-size="20.00" fill="#000000">207</text>
<text text-anchor="middle" x="282.5" y="-1189.5584" font-family="Times,serif" font-size="20.00" fill="#000000">208</text>
<text text-anchor="middle" x="282.5" y="-1167.5584" font-family="Times,serif" font-size="20.00" fill="#000000">226</text>
</g>
<!-- SG_0_Node_2 -->
<g id="node4" class="node">
<title>SG_0_Node_2</title>
<polygon fill="none" stroke="#000000" points="267.5,-960.9188 112.5,-960.9188 112.5,-924.9188 267.5,-924.9188 267.5,-960.9188"/>
<text text-anchor="middle" x="190" y="-937.9188" font-family="Times,serif" font-size="20.00" fill="#000000">Content&#45;Type</text>
</g>
<!-- SG_0_Node_1&#45;&gt;SG_0_Node_2 -->
<g id="edge3" class="edge">
<title>SG_0_Node_1&#45;&gt;SG_0_Node_2</title>
<path fill="none" stroke="#000000" d="M245.2686,-1085.2633C239.3383,-1073.9056 231.8096,-1058.8574 226,-1045.132 215.5858,-1020.5282 205.6478,-991.7685 198.8624,-971.0345"/>
<polygon fill="#000000" stroke="#000000" points="202.1126,-969.7099 195.706,-961.2715 195.452,-971.8633 202.1126,-969.7099"/>
<text text-anchor="middle" x="258" y="-1018.132" font-family="Times,serif" font-size="20.00" fill="#000000">empty</text>
</g>
<!-- SG_0_Node_7 -->
<g id="node5" class="node">
<title>SG_0_Node_7</title>
<ellipse fill="none" stroke="#000000" cx="320" cy="-942.9188" rx="34.7971" ry="21.4286"/>
<text text-anchor="middle" x="320" y="-937.9188" font-family="Times,serif" font-size="20.00" fill="#000000">1.0</text>
</g>
<!-- SG_0_Node_1&#45;&gt;SG_0_Node_7 -->
<g id="edge4" class="edge">
<title>SG_0_Node_1&#45;&gt;SG_0_Node_7</title>
<path fill="none" stroke="#000000" d="M267.6141,-1085.1234C274.912,-1073.9631 283.8413,-1059.1708 290,-1045.132 300.1057,-1022.0959 307.9418,-994.6836 313.0671,-974.0488"/>
<polygon fill="#000000" stroke="#000000" points="316.4945,-974.7654 315.4307,-964.2242 309.6887,-973.1281 316.4945,-974.7654"/>
<text text-anchor="middle" x="364" y="-1029.132" font-family="Times,serif" font-size="20.00" fill="#000000">[NA]</text>
<text text-anchor="middle" x="364" y="-1007.132" font-family="Times,serif" font-size="20.00" fill="#000000">attachment</text>
</g>
<!-- SG_0_Node_8 -->
<g id="node6" class="node">
<title>SG_0_Node_8</title>
<ellipse fill="none" stroke="#000000" cx="51" cy="-650.4924" rx="34.7971" ry="21.4286"/>
<text text-anchor="middle" x="51" y="-645.4924" font-family="Times,serif" font-size="20.00" fill="#000000">0.0</text>
</g>
<!-- SG_0_Node_2&#45;&gt;SG_0_Node_8 -->
<g id="edge5" class="edge">
<title>SG_0_Node_2&#45;&gt;SG_0_Node_8</title>
<path fill="none" stroke="#000000" d="M123.866,-924.8928C89.2383,-913.9766 51.9877,-899.3667 42,-884.7056 -.2427,-822.6973 23.0343,-728.5108 39.3635,-680.6668"/>
<polygon fill="#000000" stroke="#000000" points="42.6809,-681.7838 42.7165,-671.189 36.0817,-679.4492 42.6809,-681.7838"/>
<text text-anchor="middle" x="153" y="-868.7056" font-family="Times,serif" font-size="20.00" fill="#000000">[NA]</text>
<text text-anchor="middle" x="153" y="-846.7056" font-family="Times,serif" font-size="20.00" fill="#000000">application/javascript</text>
<text text-anchor="middle" x="153" y="-824.7056" font-family="Times,serif" font-size="20.00" fill="#000000">application/pdf</text>
<text text-anchor="middle" x="153" y="-802.7056" font-family="Times,serif" font-size="20.00" fill="#000000">audio/wav</text>
<text text-anchor="middle" x="153" y="-780.7056" font-family="Times,serif" font-size="20.00" fill="#000000">image/png</text>
<text text-anchor="middle" x="153" y="-758.7056" font-family="Times,serif" font-size="20.00" fill="#000000">text/css</text>
<text text-anchor="middle" x="153" y="-736.7056" font-family="Times,serif" font-size="20.00" fill="#000000">text/html</text>
<text text-anchor="middle" x="153" y="-714.7056" font-family="Times,serif" font-size="20.00" fill="#000000">video/mp4</text>
</g>
<!-- SG_0_Node_3 -->
<g id="node7" class="node">
<title>SG_0_Node_3</title>
<polygon fill="none" stroke="#000000" points="194.5,-668.4924 129.5,-668.4924 129.5,-632.4924 194.5,-632.4924 194.5,-668.4924"/>
<text text-anchor="middle" x="162" y="-645.4924" font-family="Times,serif" font-size="20.00" fill="#000000">body</text>
</g>
<!-- SG_0_Node_2&#45;&gt;SG_0_Node_3 -->
<g id="edge6" class="edge">
<title>SG_0_Node_2&#45;&gt;SG_0_Node_3</title>
<path fill="none" stroke="#000000" d="M227.812,-924.6963C243.2403,-915.116 259.4408,-901.7737 268,-884.7056 303.0645,-814.7828 307.8332,-776.026 268,-708.7056 254.2481,-685.4641 227.5558,-670.8819 204.3984,-662.1245"/>
<polygon fill="#000000" stroke="#000000" points="205.333,-658.743 194.7382,-658.7198 203.0061,-665.3449 205.333,-658.743"/>
<text text-anchor="middle" x="328" y="-791.7056" font-family="Times,serif" font-size="20.00" fill="#000000">empty</text>
</g>
<!-- SG_0_Node_9 -->
<g id="node8" class="node">
<title>SG_0_Node_9</title>
<ellipse fill="none" stroke="#000000" cx="51" cy="-490.066" rx="34.7971" ry="21.4286"/>
<text text-anchor="middle" x="51" y="-485.066" font-family="Times,serif" font-size="20.00" fill="#000000">0.0</text>
</g>
<!-- SG_0_Node_3&#45;&gt;SG_0_Node_9 -->
<g id="edge7" class="edge">
<title>SG_0_Node_3&#45;&gt;SG_0_Node_9</title>
<path fill="none" stroke="#000000" d="M129.1573,-639.4079C107.339,-630.2704 80.0339,-615.0665 65,-592.2792 51.3305,-571.56 48.3581,-543.3188 48.5071,-521.7717"/>
<polygon fill="#000000" stroke="#000000" points="52.0139,-521.5922 48.8134,-511.4924 45.017,-521.3837 52.0139,-521.5922"/>
<text text-anchor="middle" x="111" y="-576.2792" font-family="Times,serif" font-size="20.00" fill="#000000">[NA]</text>
<text text-anchor="middle" x="111" y="-554.2792" font-family="Times,serif" font-size="20.00" fill="#000000">11 levels</text>
</g>
<!-- SG_0_Node_4 -->
<g id="node9" class="node">
<title>SG_0_Node_4</title>
<polygon fill="none" stroke="#000000" points="366,-508.066 104,-508.066 104,-472.066 366,-472.066 366,-508.066"/>
<text text-anchor="middle" x="235" y="-485.066" font-family="Times,serif" font-size="20.00" fill="#000000">X&#45;Content&#45;Type&#45;Options</text>
</g>
<!-- SG_0_Node_3&#45;&gt;SG_0_Node_4 -->
<g id="edge8" class="edge">
<title>SG_0_Node_3&#45;&gt;SG_0_Node_4</title>
<path fill="none" stroke="#000000" d="M160.5447,-632.4627C159.6071,-611.1888 160.5185,-575.2982 174,-548.2792 180.354,-535.5448 190.6794,-524.087 201.0433,-514.7728"/>
<polygon fill="#000000" stroke="#000000" points="203.5604,-517.2268 208.9111,-508.0823 199.0257,-511.8941 203.5604,-517.2268"/>
<text text-anchor="middle" x="419.5" y="-576.2792" font-family="Times,serif" font-size="20.00" fill="#000000">ecocnt_audio=duration=1</text>
<text text-anchor="middle" x="419.5" y="-554.2792" font-family="Times,serif" font-size="20.00" fill="#000000">ecocnt_vid=width=100,height=100,duration=2</text>
</g>
<!-- SG_0_Node_10 -->
<g id="node10" class="node">
<title>SG_0_Node_10</title>
<ellipse fill="none" stroke="#000000" cx="172" cy="-329.6396" rx="34.7971" ry="21.4286"/>
<text text-anchor="middle" x="172" y="-324.6396" font-family="Times,serif" font-size="20.00" fill="#000000">0.0</text>
</g>
<!-- SG_0_Node_4&#45;&gt;SG_0_Node_10 -->
<g id="edge9" class="edge">
<title>SG_0_Node_4&#45;&gt;SG_0_Node_10</title>
<path fill="none" stroke="#000000" d="M213.2241,-471.8436C202.2369,-461.3466 189.8234,-447.2088 183,-431.8528 173.1254,-409.6303 170.646,-382.1092 170.487,-361.2244"/>
<polygon fill="#000000" stroke="#000000" points="173.9892,-361.0054 170.5885,-350.9712 166.9896,-360.936 173.9892,-361.0054"/>
<text text-anchor="middle" x="218" y="-404.8528" font-family="Times,serif" font-size="20.00" fill="#000000">nosniff</text>
</g>
<!-- SG_0_Node_5 -->
<g id="node11" class="node">
<title>SG_0_Node_5</title>
<polygon fill="none" stroke="#000000" points="367,-347.6396 225,-347.6396 225,-311.6396 367,-311.6396 367,-347.6396"/>
<text text-anchor="middle" x="296" y="-324.6396" font-family="Times,serif" font-size="20.00" fill="#000000">Status&#45;Code</text>
</g>
<!-- SG_0_Node_4&#45;&gt;SG_0_Node_5 -->
<g id="edge10" class="edge">
<title>SG_0_Node_4&#45;&gt;SG_0_Node_5</title>
<path fill="none" stroke="#000000" d="M241.8789,-471.9749C252.4961,-444.0523 272.9529,-390.2521 285.4496,-357.3865"/>
<polygon fill="#000000" stroke="#000000" points="288.77,-358.5018 289.0526,-347.9107 282.227,-356.0139 288.77,-358.5018"/>
<text text-anchor="middle" x="305" y="-415.8528" font-family="Times,serif" font-size="20.00" fill="#000000">[NA]</text>
<text text-anchor="middle" x="305" y="-393.8528" font-family="Times,serif" font-size="20.00" fill="#000000">empty</text>
</g>
<!-- SG_0_Node_11 -->
<g id="node12" class="node">
<title>SG_0_Node_11</title>
<ellipse fill="none" stroke="#000000" cx="252" cy="-37.2132" rx="34.7971" ry="21.4286"/>
<text text-anchor="middle" x="252" y="-32.2132" font-family="Times,serif" font-size="20.00" fill="#000000">0.0</text>
</g>
<!-- SG_0_Node_5&#45;&gt;SG_0_Node_11 -->
<g id="edge11" class="edge">
<title>SG_0_Node_5&#45;&gt;SG_0_Node_11</title>
<path fill="none" stroke="#000000" d="M281.9154,-311.6372C274.2014,-300.6718 265.3481,-286.0041 261,-271.4264 240.1108,-201.3918 244.1022,-114.346 248.345,-68.6289"/>
<polygon fill="#000000" stroke="#000000" points="251.8493,-68.7582 249.3575,-58.4606 244.8838,-68.0646 251.8493,-68.7582"/>
<text text-anchor="middle" x="280.5" y="-189.4264" font-family="Times,serif" font-size="20.00" fill="#000000">204</text>
<text text-anchor="middle" x="280.5" y="-167.4264" font-family="Times,serif" font-size="20.00" fill="#000000">205</text>
</g>
<!-- SG_0_Node_12 -->
<g id="node13" class="node">
<title>SG_0_Node_12</title>
<ellipse fill="none" stroke="#000000" cx="339" cy="-37.2132" rx="34.7971" ry="21.4286"/>
<text text-anchor="middle" x="339" y="-32.2132" font-family="Times,serif" font-size="20.00" fill="#000000">1.0</text>
</g>
<!-- SG_0_Node_5&#45;&gt;SG_0_Node_12 -->
<g id="edge12" class="edge">
<title>SG_0_Node_5&#45;&gt;SG_0_Node_12</title>
<path fill="none" stroke="#000000" d="M298.6898,-311.347C305.8359,-262.7494 325.3613,-129.9648 334.3536,-68.8117"/>
<polygon fill="#000000" stroke="#000000" points="337.8623,-69.0078 335.8544,-58.6049 330.9368,-67.9893 337.8623,-69.0078"/>
<text text-anchor="middle" x="349.5" y="-255.4264" font-family="Times,serif" font-size="20.00" fill="#000000">200</text>
<text text-anchor="middle" x="349.5" y="-233.4264" font-family="Times,serif" font-size="20.00" fill="#000000">201</text>
<text text-anchor="middle" x="349.5" y="-211.4264" font-family="Times,serif" font-size="20.00" fill="#000000">202</text>
<text text-anchor="middle" x="349.5" y="-189.4264" font-family="Times,serif" font-size="20.00" fill="#000000">203</text>
<text text-anchor="middle" x="349.5" y="-167.4264" font-family="Times,serif" font-size="20.00" fill="#000000">206</text>
<text text-anchor="middle" x="349.5" y="-145.4264" font-family="Times,serif" font-size="20.00" fill="#000000">207</text>
<text text-anchor="middle" x="349.5" y="-123.4264" font-family="Times,serif" font-size="20.00" fill="#000000">208</text>
<text text-anchor="middle" x="349.5" y="-101.4264" font-family="Times,serif" font-size="20.00" fill="#000000">226</text>
</g>
<!-- SG_1_Node_0 -->
<g id="node14" class="node">
<title>SG_1_Node_0</title>
<polygon fill="none" stroke="#000000" points="956,-1454.5584 814,-1454.5584 814,-1418.5584 956,-1418.5584 956,-1454.5584"/>
<text text-anchor="middle" x="885" y="-1431.5584" font-family="Times,serif" font-size="20.00" fill="#000000">Status&#45;Code</text>
</g>
<!-- SG_1_Node_1 -->
<g id="node15" class="node">
<title>SG_1_Node_1</title>
<polygon fill="none" stroke="#000000" points="936.5,-1121.3452 715.5,-1121.3452 715.5,-1085.3452 936.5,-1085.3452 936.5,-1121.3452"/>
<text text-anchor="middle" x="826" y="-1098.3452" font-family="Times,serif" font-size="20.00" fill="#000000">Content&#45;Disposition</text>
</g>
<!-- SG_1_Node_0&#45;&gt;SG_1_Node_1 -->
<g id="edge13" class="edge">
<title>SG_1_Node_0&#45;&gt;SG_1_Node_1</title>
<path fill="none" stroke="#000000" d="M881.7439,-1418.1688C871.9725,-1362.9835 842.8498,-1198.5077 831.0495,-1131.8631"/>
<polygon fill="#000000" stroke="#000000" points="834.4361,-1130.9146 829.2461,-1121.678 827.5433,-1132.1351 834.4361,-1130.9146"/>
<text text-anchor="middle" x="894.5" y="-1365.5584" font-family="Times,serif" font-size="20.00" fill="#000000">200</text>
<text text-anchor="middle" x="894.5" y="-1343.5584" font-family="Times,serif" font-size="20.00" fill="#000000">201</text>
<text text-anchor="middle" x="894.5" y="-1321.5584" font-family="Times,serif" font-size="20.00" fill="#000000">202</text>
<text text-anchor="middle" x="894.5" y="-1299.5584" font-family="Times,serif" font-size="20.00" fill="#000000">203</text>
<text text-anchor="middle" x="894.5" y="-1277.5584" font-family="Times,serif" font-size="20.00" fill="#000000">204</text>
<text text-anchor="middle" x="894.5" y="-1255.5584" font-family="Times,serif" font-size="20.00" fill="#000000">205</text>
<text text-anchor="middle" x="894.5" y="-1233.5584" font-family="Times,serif" font-size="20.00" fill="#000000">206</text>
<text text-anchor="middle" x="894.5" y="-1211.5584" font-family="Times,serif" font-size="20.00" fill="#000000">207</text>
<text text-anchor="middle" x="894.5" y="-1189.5584" font-family="Times,serif" font-size="20.00" fill="#000000">208</text>
<text text-anchor="middle" x="894.5" y="-1167.5584" font-family="Times,serif" font-size="20.00" fill="#000000">226</text>
</g>
<!-- SG_1_Node_6 -->
<g id="node16" class="node">
<title>SG_1_Node_6</title>
<ellipse fill="none" stroke="#000000" cx="989" cy="-1103.3452" rx="34.7971" ry="21.4286"/>
<text text-anchor="middle" x="989" y="-1098.3452" font-family="Times,serif" font-size="20.00" fill="#000000">1.0</text>
</g>
<!-- SG_1_Node_0&#45;&gt;SG_1_Node_6 -->
<g id="edge14" class="edge">
<title>SG_1_Node_0&#45;&gt;SG_1_Node_6</title>
<path fill="none" stroke="#000000" d="M897.7084,-1418.432C904.5204,-1408.034 912.599,-1394.508 918,-1381.5584 953.8144,-1295.689 975.1459,-1187.1472 984.0757,-1134.6356"/>
<polygon fill="#000000" stroke="#000000" points="987.5557,-1135.0451 985.7455,-1124.6061 980.6507,-1133.8955 987.5557,-1135.0451"/>
<text text-anchor="middle" x="1025" y="-1277.5584" font-family="Times,serif" font-size="20.00" fill="#000000">[NA]</text>
<text text-anchor="middle" x="1025" y="-1255.5584" font-family="Times,serif" font-size="20.00" fill="#000000">52 levels</text>
</g>
<!-- SG_1_Node_7 -->
<g id="node17" class="node">
<title>SG_1_Node_7</title>
<ellipse fill="none" stroke="#000000" cx="769" cy="-942.9188" rx="34.7971" ry="21.4286"/>
<text text-anchor="middle" x="769" y="-937.9188" font-family="Times,serif" font-size="20.00" fill="#000000">0.0</text>
</g>
<!-- SG_1_Node_1&#45;&gt;SG_1_Node_7 -->
<g id="edge15" class="edge">
<title>SG_1_Node_1&#45;&gt;SG_1_Node_7</title>
<path fill="none" stroke="#000000" d="M808.8263,-1085.158C799.6397,-1074.3564 789.0101,-1059.9141 783,-1045.132 773.8661,-1022.6666 770.4777,-995.3725 769.3123,-974.6418"/>
<polygon fill="#000000" stroke="#000000" points="772.8014,-974.3048 768.8869,-964.4596 765.8075,-974.5971 772.8014,-974.3048"/>
<text text-anchor="middle" x="842" y="-1029.132" font-family="Times,serif" font-size="20.00" fill="#000000">[NA]</text>
<text text-anchor="middle" x="842" y="-1007.132" font-family="Times,serif" font-size="20.00" fill="#000000">attachment</text>
</g>
<!-- SG_1_Node_2 -->
<g id="node18" class="node">
<title>SG_1_Node_2</title>
<polygon fill="none" stroke="#000000" points="1000.5,-960.9188 845.5,-960.9188 845.5,-924.9188 1000.5,-924.9188 1000.5,-960.9188"/>
<text text-anchor="middle" x="923" y="-937.9188" font-family="Times,serif" font-size="20.00" fill="#000000">Content&#45;Type</text>
</g>
<!-- SG_1_Node_1&#45;&gt;SG_1_Node_2 -->
<g id="edge16" class="edge">
<title>SG_1_Node_1&#45;&gt;SG_1_Node_2</title>
<path fill="none" stroke="#000000" d="M858.8593,-1085.1879C873.9022,-1075.2511 890.6459,-1061.5967 901,-1045.132 915.053,-1022.7855 920.2393,-992.8422 922.0977,-971.1449"/>
<polygon fill="#000000" stroke="#000000" points="925.6057,-971.1417 922.7814,-960.9302 918.6213,-970.6741 925.6057,-971.1417"/>
<text text-anchor="middle" x="949" y="-1018.132" font-family="Times,serif" font-size="20.00" fill="#000000">empty</text>
</g>
<!-- SG_1_Node_3 -->
<g id="node19" class="node">
<title>SG_1_Node_3</title>
<polygon fill="none" stroke="#000000" points="905.5,-668.4924 840.5,-668.4924 840.5,-632.4924 905.5,-632.4924 905.5,-668.4924"/>
<text text-anchor="middle" x="873" y="-645.4924" font-family="Times,serif" font-size="20.00" fill="#000000">body</text>
</g>
<!-- SG_1_Node_2&#45;&gt;SG_1_Node_3 -->
<g id="edge17" class="edge">
<title>SG_1_Node_2&#45;&gt;SG_1_Node_3</title>
<path fill="none" stroke="#000000" d="M908.4449,-924.6872C900.5933,-913.7589 891.5933,-899.2056 887,-884.7056 864.385,-813.3148 867.0311,-723.6731 870.3196,-678.8108"/>
<polygon fill="#000000" stroke="#000000" points="873.8228,-678.91 871.1323,-668.6624 866.8451,-678.3511 873.8228,-678.91"/>
<text text-anchor="middle" x="919" y="-791.7056" font-family="Times,serif" font-size="20.00" fill="#000000">empty</text>
</g>
<!-- SG_1_Node_8 -->
<g id="node20" class="node">
<title>SG_1_Node_8</title>
<ellipse fill="none" stroke="#000000" cx="973" cy="-650.4924" rx="34.7971" ry="21.4286"/>
<text text-anchor="middle" x="973" y="-645.4924" font-family="Times,serif" font-size="20.00" fill="#000000">1.0</text>
</g>
<!-- SG_1_Node_2&#45;&gt;SG_1_Node_8 -->
<g id="edge18" class="edge">
<title>SG_1_Node_2&#45;&gt;SG_1_Node_8</title>
<path fill="none" stroke="#000000" d="M933.8357,-924.7031C939.9379,-913.5449 947.0974,-898.7528 951,-884.7056 970.5845,-814.2136 973.5327,-727.6907 973.5376,-682.0899"/>
<polygon fill="#000000" stroke="#000000" points="977.037,-681.9241 973.4891,-671.941 970.037,-681.9577 977.037,-681.9241"/>
<text text-anchor="middle" x="1084" y="-868.7056" font-family="Times,serif" font-size="20.00" fill="#000000">[NA]</text>
<text text-anchor="middle" x="1084" y="-846.7056" font-family="Times,serif" font-size="20.00" fill="#000000">application/javascript</text>
<text text-anchor="middle" x="1084" y="-824.7056" font-family="Times,serif" font-size="20.00" fill="#000000">application/pdf</text>
<text text-anchor="middle" x="1084" y="-802.7056" font-family="Times,serif" font-size="20.00" fill="#000000">audio/wav</text>
<text text-anchor="middle" x="1084" y="-780.7056" font-family="Times,serif" font-size="20.00" fill="#000000">image/png</text>
<text text-anchor="middle" x="1084" y="-758.7056" font-family="Times,serif" font-size="20.00" fill="#000000">text/css</text>
<text text-anchor="middle" x="1084" y="-736.7056" font-family="Times,serif" font-size="20.00" fill="#000000">text/html</text>
<text text-anchor="middle" x="1084" y="-714.7056" font-family="Times,serif" font-size="20.00" fill="#000000">video/mp4</text>
</g>
<!-- SG_1_Node_4 -->
<g id="node21" class="node">
<title>SG_1_Node_4</title>
<polygon fill="none" stroke="#000000" points="939,-508.066 677,-508.066 677,-472.066 939,-472.066 939,-508.066"/>
<text text-anchor="middle" x="808" y="-485.066" font-family="Times,serif" font-size="20.00" fill="#000000">X&#45;Content&#45;Type&#45;Options</text>
</g>
<!-- SG_1_Node_3&#45;&gt;SG_1_Node_4 -->
<g id="edge19" class="edge">
<title>SG_1_Node_3&#45;&gt;SG_1_Node_4</title>
<path fill="none" stroke="#000000" d="M840.1923,-643.5228C796.9183,-633.5878 724.4237,-614.1205 709,-592.2792 697.7196,-576.3051 699.2897,-565.2536 709,-548.2792 717.6487,-533.1607 731.9224,-521.5817 746.9753,-512.887"/>
<polygon fill="#000000" stroke="#000000" points="748.7394,-515.9125 755.8916,-508.0961 745.4261,-509.7462 748.7394,-515.9125"/>
<text text-anchor="middle" x="954.5" y="-576.2792" font-family="Times,serif" font-size="20.00" fill="#000000">ecocnt_audio=duration=1</text>
<text text-anchor="middle" x="954.5" y="-554.2792" font-family="Times,serif" font-size="20.00" fill="#000000">ecocnt_vid=width=100,height=100,duration=2</text>
</g>
<!-- SG_1_Node_9 -->
<g id="node22" class="node">
<title>SG_1_Node_9</title>
<ellipse fill="none" stroke="#000000" cx="1222" cy="-490.066" rx="34.7971" ry="21.4286"/>
<text text-anchor="middle" x="1222" y="-485.066" font-family="Times,serif" font-size="20.00" fill="#000000">1.0</text>
</g>
<!-- SG_1_Node_3&#45;&gt;SG_1_Node_9 -->
<g id="edge20" class="edge">
<title>SG_1_Node_3&#45;&gt;SG_1_Node_9</title>
<path fill="none" stroke="#000000" d="M905.7662,-636.6648C913.2957,-633.8859 921.3422,-631.2256 929,-629.2792 987.9079,-614.3067 1155.4132,-633.5871 1200,-592.2792 1219.0817,-574.6008 1223.694,-544.6852 1224.057,-521.7725"/>
<polygon fill="#000000" stroke="#000000" points="1227.554,-521.4528 1223.9503,-511.4897 1220.5544,-521.5255 1227.554,-521.4528"/>
<text text-anchor="middle" x="1267" y="-576.2792" font-family="Times,serif" font-size="20.00" fill="#000000">[NA]</text>
<text text-anchor="middle" x="1267" y="-554.2792" font-family="Times,serif" font-size="20.00" fill="#000000">11 levels</text>
</g>
<!-- SG_1_Node_5 -->
<g id="node23" class="node">
<title>SG_1_Node_5</title>
<polygon fill="none" stroke="#000000" points="838,-347.6396 696,-347.6396 696,-311.6396 838,-311.6396 838,-347.6396"/>
<text text-anchor="middle" x="767" y="-324.6396" font-family="Times,serif" font-size="20.00" fill="#000000">Status&#45;Code</text>
</g>
<!-- SG_1_Node_4&#45;&gt;SG_1_Node_5 -->
<g id="edge21" class="edge">
<title>SG_1_Node_4&#45;&gt;SG_1_Node_5</title>
<path fill="none" stroke="#000000" d="M803.3765,-471.9749C796.2711,-444.1727 782.6091,-390.7154 774.2002,-357.8126"/>
<polygon fill="#000000" stroke="#000000" points="777.5367,-356.7327 771.6695,-347.9107 770.7547,-358.466 777.5367,-356.7327"/>
<text text-anchor="middle" x="824" y="-415.8528" font-family="Times,serif" font-size="20.00" fill="#000000">[NA]</text>
<text text-anchor="middle" x="824" y="-393.8528" font-family="Times,serif" font-size="20.00" fill="#000000">empty</text>
</g>
<!-- SG_1_Node_10 -->
<g id="node24" class="node">
<title>SG_1_Node_10</title>
<ellipse fill="none" stroke="#000000" cx="891" cy="-329.6396" rx="34.7971" ry="21.4286"/>
<text text-anchor="middle" x="891" y="-324.6396" font-family="Times,serif" font-size="20.00" fill="#000000">1.0</text>
</g>
<!-- SG_1_Node_4&#45;&gt;SG_1_Node_10 -->
<g id="edge22" class="edge">
<title>SG_1_Node_4&#45;&gt;SG_1_Node_10</title>
<path fill="none" stroke="#000000" d="M827.8843,-472.0488C838.7081,-461.3021 851.5716,-446.8581 860,-431.8528 872.43,-409.7233 880.4301,-382.038 885.184,-361.0641"/>
<polygon fill="#000000" stroke="#000000" points="888.6532,-361.5781 887.3213,-351.0673 881.8078,-360.1146 888.6532,-361.5781"/>
<text text-anchor="middle" x="912" y="-404.8528" font-family="Times,serif" font-size="20.00" fill="#000000">nosniff</text>
</g>
<!-- SG_1_Node_11 -->
<g id="node25" class="node">
<title>SG_1_Node_11</title>
<ellipse fill="none" stroke="#000000" cx="739" cy="-37.2132" rx="34.7971" ry="21.4286"/>
<text text-anchor="middle" x="739" y="-32.2132" font-family="Times,serif" font-size="20.00" fill="#000000">0.0</text>
</g>
<!-- SG_1_Node_5&#45;&gt;SG_1_Node_11 -->
<g id="edge23" class="edge">
<title>SG_1_Node_5&#45;&gt;SG_1_Node_11</title>
<path fill="none" stroke="#000000" d="M765.2485,-311.347C760.5952,-262.7494 747.881,-129.9648 742.0256,-68.8117"/>
<polygon fill="#000000" stroke="#000000" points="745.4856,-68.2258 741.0483,-58.6049 738.5174,-68.893 745.4856,-68.2258"/>
<text text-anchor="middle" x="780.5" y="-255.4264" font-family="Times,serif" font-size="20.00" fill="#000000">200</text>
<text text-anchor="middle" x="780.5" y="-233.4264" font-family="Times,serif" font-size="20.00" fill="#000000">201</text>
<text text-anchor="middle" x="780.5" y="-211.4264" font-family="Times,serif" font-size="20.00" fill="#000000">202</text>
<text text-anchor="middle" x="780.5" y="-189.4264" font-family="Times,serif" font-size="20.00" fill="#000000">203</text>
<text text-anchor="middle" x="780.5" y="-167.4264" font-family="Times,serif" font-size="20.00" fill="#000000">206</text>
<text text-anchor="middle" x="780.5" y="-145.4264" font-family="Times,serif" font-size="20.00" fill="#000000">207</text>
<text text-anchor="middle" x="780.5" y="-123.4264" font-family="Times,serif" font-size="20.00" fill="#000000">208</text>
<text text-anchor="middle" x="780.5" y="-101.4264" font-family="Times,serif" font-size="20.00" fill="#000000">226</text>
</g>
<!-- SG_1_Node_12 -->
<g id="node26" class="node">
<title>SG_1_Node_12</title>
<ellipse fill="none" stroke="#000000" cx="826" cy="-37.2132" rx="34.7971" ry="21.4286"/>
<text text-anchor="middle" x="826" y="-32.2132" font-family="Times,serif" font-size="20.00" fill="#000000">1.0</text>
</g>
<!-- SG_1_Node_5&#45;&gt;SG_1_Node_12 -->
<g id="edge24" class="edge">
<title>SG_1_Node_5&#45;&gt;SG_1_Node_12</title>
<path fill="none" stroke="#000000" d="M780.3209,-311.4644C787.6903,-300.4396 796.2868,-285.77 801,-271.4264 823.9272,-201.6523 826.9894,-114.5014 826.7751,-68.6985"/>
<polygon fill="#000000" stroke="#000000" points="830.2731,-68.4731 826.669,-58.5101 823.2734,-68.5461 830.2731,-68.4731"/>
<text text-anchor="middle" x="845.5" y="-189.4264" font-family="Times,serif" font-size="20.00" fill="#000000">204</text>
<text text-anchor="middle" x="845.5" y="-167.4264" font-family="Times,serif" font-size="20.00" fill="#000000">205</text>
</g>
</g>
</svg>
