<?xml version="1.0" encoding="UTF-8" standalone="no"?>
<!DOCTYPE svg PUBLIC "-//W3C//DTD SVG 1.1//EN"
 "http://www.w3.org/Graphics/SVG/1.1/DTD/svg11.dtd">
<!-- Generated by graphviz version 2.40.1 (20161225.0304)
 -->
<!-- Title: G Pages: 1 -->
<svg width="9381pt" height="1509pt"
 viewBox="0.00 0.00 9381.00 1508.56" xmlns="http://www.w3.org/2000/svg" xmlns:xlink="http://www.w3.org/1999/xlink">
<g id="graph0" class="graph" transform="scale(1 1) rotate(0) translate(4 1504.5584)">
<title>G</title>
<polygon fill="#ffffff" stroke="transparent" points="-4,4 -4,-1504.5584 9377,-1504.5584 9377,4 -4,4"/>
<g id="clust1" class="cluster">
<title>cluster_0</title>
<polygon fill="none" stroke="#000000" points="8,-8 8,-1492.5584 464,-1492.5584 464,-8 8,-8"/>
<text text-anchor="middle" x="236" y="-1456.5584" font-family="Times,serif" font-size="40.00" fill="#000000">Tree 0, Class </text>
</g>
<g id="clust9" class="cluster">
<title>cluster_1</title>
<polygon fill="none" stroke="#000000" points="472,-190.4264 472,-1492.5584 4386,-1492.5584 4386,-190.4264 472,-190.4264"/>
<text text-anchor="middle" x="2429" y="-1456.5584" font-family="Times,serif" font-size="40.00" fill="#000000">Tree 0, Class {&#39;code&#39;: 18, &#39;name&#39;: &#39;SecurityError&#39;, &#39;message&#39;: &#39;Blocked a frame with origin http://localhost:8001 from accessing a cross&#45;origin frame. Protocols, domains, and ports must match.&#39;}</text>
</g>
<g id="clust16" class="cluster">
<title>cluster_2</title>
<polygon fill="none" stroke="#000000" points="4394,-190.4264 4394,-1492.5584 9365,-1492.5584 9365,-190.4264 4394,-190.4264"/>
<text text-anchor="middle" x="6879.5" y="-1456.5584" font-family="Times,serif" font-size="40.00" fill="#000000">Tree 0, Class {&#39;code&#39;: 18, &#39;name&#39;: &#39;SecurityError&#39;, &#39;message&#39;: &#39;Sandbox access violation: Blocked a frame at http://localhost:8001 from accessing a cross&#45;origin frame. &#160;The frame being accessed is sandboxed and lacks the allow&#45;same&#45;origin flag.&#39;}</text>
</g>
<!-- SG_0_Node_0 -->
<g id="node1" class="node">
<title>SG_0_Node_0</title>
<polygon fill="none" stroke="#000000" points="282,-1432.5584 140,-1432.5584 140,-1396.5584 282,-1396.5584 282,-1432.5584"/>
<text text-anchor="middle" x="211" y="-1409.5584" font-family="Times,serif" font-size="20.00" fill="#000000">Status&#45;Code</text>
</g>
<!-- SG_0_Node_1 -->
<g id="node2" class="node">
<title>SG_0_Node_1</title>
<polygon fill="none" stroke="#000000" points="248.5,-1099.3452 27.5,-1099.3452 27.5,-1063.3452 248.5,-1063.3452 248.5,-1099.3452"/>
<text text-anchor="middle" x="138" y="-1076.3452" font-family="Times,serif" font-size="20.00" fill="#000000">Content&#45;Disposition</text>
</g>
<!-- SG_0_Node_0&#45;&gt;SG_0_Node_1 -->
<g id="edge1" class="edge">
<title>SG_0_Node_0&#45;&gt;SG_0_Node_1</title>
<path fill="none" stroke="#000000" d="M197.4163,-1396.1468C190.5127,-1385.8792 182.6257,-1372.5686 178,-1359.5584 146.9312,-1272.1753 139.947,-1161.199 138.4105,-1109.8228"/>
<polygon fill="#000000" stroke="#000000" points="141.9016,-1109.4185 138.1528,-1099.5091 134.9037,-1109.5934 141.9016,-1109.4185"/>
<text text-anchor="middle" x="224" y="-1255.5584" font-family="Times,serif" font-size="20.00" fill="#000000">[NA]</text>
<text text-anchor="middle" x="224" y="-1233.5584" font-family="Times,serif" font-size="20.00" fill="#000000">58 levels</text>
</g>
<!-- SG_0_Node_6 -->
<g id="node3" class="node">
<title>SG_0_Node_6</title>
<ellipse fill="none" stroke="#000000" cx="301" cy="-1081.3452" rx="34.7971" ry="21.4286"/>
<text text-anchor="middle" x="301" y="-1076.3452" font-family="Times,serif" font-size="20.00" fill="#000000">1.0</text>
</g>
<!-- SG_0_Node_0&#45;&gt;SG_0_Node_6 -->
<g id="edge2" class="edge">
<title>SG_0_Node_0&#45;&gt;SG_0_Node_6</title>
<path fill="none" stroke="#000000" d="M237.7861,-1396.4697C249.6864,-1386.9439 262.6425,-1374.1975 270,-1359.5584 310.9378,-1278.1052 308.5268,-1166.6493 304.3136,-1112.8889"/>
<polygon fill="#000000" stroke="#000000" points="307.7751,-1112.291 303.4307,-1102.6279 300.8009,-1112.8911 307.7751,-1112.291"/>
<text text-anchor="middle" x="325.5" y="-1277.5584" font-family="Times,serif" font-size="20.00" fill="#000000">100</text>
<text text-anchor="middle" x="325.5" y="-1255.5584" font-family="Times,serif" font-size="20.00" fill="#000000">102</text>
<text text-anchor="middle" x="325.5" y="-1233.5584" font-family="Times,serif" font-size="20.00" fill="#000000">103</text>
<text text-anchor="middle" x="325.5" y="-1211.5584" font-family="Times,serif" font-size="20.00" fill="#000000">407</text>
</g>
<!-- SG_0_Node_7 -->
<g id="node4" class="node">
<title>SG_0_Node_7</title>
<ellipse fill="none" stroke="#000000" cx="94" cy="-898.9188" rx="34.7971" ry="21.4286"/>
<text text-anchor="middle" x="94" y="-893.9188" font-family="Times,serif" font-size="20.00" fill="#000000">0.0</text>
</g>
<!-- SG_0_Node_1&#45;&gt;SG_0_Node_7 -->
<g id="edge3" class="edge">
<title>SG_0_Node_1&#45;&gt;SG_0_Node_7</title>
<path fill="none" stroke="#000000" d="M133.6203,-1063.1866C126.1297,-1032.1303 110.7743,-968.4662 101.5342,-930.156"/>
<polygon fill="#000000" stroke="#000000" points="104.849,-928.9717 99.1018,-920.0711 98.0441,-930.613 104.849,-928.9717"/>
<text text-anchor="middle" x="155" y="-996.132" font-family="Times,serif" font-size="20.00" fill="#000000">[NA]</text>
<text text-anchor="middle" x="155" y="-974.132" font-family="Times,serif" font-size="20.00" fill="#000000">empty</text>
</g>
<!-- SG_0_Node_2 -->
<g id="node5" class="node">
<title>SG_0_Node_2</title>
<polygon fill="none" stroke="#000000" points="337.5,-916.9188 146.5,-916.9188 146.5,-880.9188 337.5,-880.9188 337.5,-916.9188"/>
<text text-anchor="middle" x="242" y="-893.9188" font-family="Times,serif" font-size="20.00" fill="#000000">X&#45;Frame&#45;Options</text>
</g>
<!-- SG_0_Node_1&#45;&gt;SG_0_Node_2 -->
<g id="edge4" class="edge">
<title>SG_0_Node_1&#45;&gt;SG_0_Node_2</title>
<path fill="none" stroke="#000000" d="M157.485,-1063.327C168.3967,-1052.4698 181.6467,-1037.9165 191,-1023.132 210.4749,-992.3487 225.1764,-952.8669 233.676,-926.7743"/>
<polygon fill="#000000" stroke="#000000" points="237.0437,-927.733 236.7296,-917.1428 230.371,-925.6174 237.0437,-927.733"/>
<text text-anchor="middle" x="281" y="-985.132" font-family="Times,serif" font-size="20.00" fill="#000000">attachment</text>
</g>
<!-- SG_0_Node_8 -->
<g id="node6" class="node">
<title>SG_0_Node_8</title>
<ellipse fill="none" stroke="#000000" cx="84" cy="-650.4924" rx="34.7971" ry="21.4286"/>
<text text-anchor="middle" x="84" y="-645.4924" font-family="Times,serif" font-size="20.00" fill="#000000">0.0</text>
</g>
<!-- SG_0_Node_2&#45;&gt;SG_0_Node_8 -->
<g id="edge5" class="edge">
<title>SG_0_Node_2&#45;&gt;SG_0_Node_8</title>
<path fill="none" stroke="#000000" d="M225.2241,-880.7239C215.3203,-869.5732 202.8382,-854.7814 193,-840.7056 155.1097,-786.4951 118.4353,-718.236 98.7848,-679.9794"/>
<polygon fill="#000000" stroke="#000000" points="101.8281,-678.243 94.1653,-670.9264 95.593,-681.4246 101.8281,-678.243"/>
<text text-anchor="middle" x="218" y="-780.7056" font-family="Times,serif" font-size="20.00" fill="#000000">[NA]</text>
<text text-anchor="middle" x="218" y="-758.7056" font-family="Times,serif" font-size="20.00" fill="#000000">deny</text>
</g>
<!-- SG_0_Node_3 -->
<g id="node7" class="node">
<title>SG_0_Node_3</title>
<polygon fill="none" stroke="#000000" points="397,-668.4924 137,-668.4924 137,-632.4924 397,-632.4924 397,-668.4924"/>
<text text-anchor="middle" x="267" y="-645.4924" font-family="Times,serif" font-size="20.00" fill="#000000">Content&#45;Security&#45;Policy</text>
</g>
<!-- SG_0_Node_2&#45;&gt;SG_0_Node_3 -->
<g id="edge6" class="edge">
<title>SG_0_Node_2&#45;&gt;SG_0_Node_3</title>
<path fill="none" stroke="#000000" d="M243.8383,-880.6514C248.1546,-837.7606 258.9625,-730.3618 264.1432,-678.8802"/>
<polygon fill="#000000" stroke="#000000" points="267.64,-679.0868 265.159,-668.7866 260.6752,-678.3859 267.64,-679.0868"/>
<text text-anchor="middle" x="293" y="-769.7056" font-family="Times,serif" font-size="20.00" fill="#000000">empty</text>
</g>
<!-- SG_0_Node_9 -->
<g id="node8" class="node">
<title>SG_0_Node_9</title>
<ellipse fill="none" stroke="#000000" cx="51" cy="-468.066" rx="34.7971" ry="21.4286"/>
<text text-anchor="middle" x="51" y="-463.066" font-family="Times,serif" font-size="20.00" fill="#000000">0.0</text>
</g>
<!-- SG_0_Node_3&#45;&gt;SG_0_Node_9 -->
<g id="edge7" class="edge">
<title>SG_0_Node_3&#45;&gt;SG_0_Node_9</title>
<path fill="none" stroke="#000000" d="M150.3523,-632.4714C105.7587,-622.9945 62.3619,-609.6774 49,-592.2792 28.7313,-565.8879 33.6206,-526.1894 40.7053,-498.8102"/>
<polygon fill="#000000" stroke="#000000" points="44.1336,-499.5482 43.4801,-488.9735 37.3965,-497.6477 44.1336,-499.5482"/>
<text text-anchor="middle" x="159.5" y="-554.2792" font-family="Times,serif" font-size="20.00" fill="#000000">frame&#45;ancestors &#39;self&#39;</text>
</g>
<!-- SG_0_Node_4 -->
<g id="node9" class="node">
<title>SG_0_Node_4</title>
<polygon fill="none" stroke="#000000" points="362,-486.066 220,-486.066 220,-450.066 362,-450.066 362,-486.066"/>
<text text-anchor="middle" x="291" y="-463.066" font-family="Times,serif" font-size="20.00" fill="#000000">Status&#45;Code</text>
</g>
<!-- SG_0_Node_3&#45;&gt;SG_0_Node_4 -->
<g id="edge8" class="edge">
<title>SG_0_Node_3&#45;&gt;SG_0_Node_4</title>
<path fill="none" stroke="#000000" d="M269.389,-632.3337C273.576,-600.5079 282.2681,-534.4382 287.2588,-496.5029"/>
<polygon fill="#000000" stroke="#000000" points="290.7864,-496.5224 288.6207,-486.1513 283.8462,-495.6093 290.7864,-496.5224"/>
<text text-anchor="middle" x="365.5" y="-576.2792" font-family="Times,serif" font-size="20.00" fill="#000000">[NA]</text>
<text text-anchor="middle" x="365.5" y="-554.2792" font-family="Times,serif" font-size="20.00" fill="#000000">default&#45;src &#39;self&#39;</text>
<text text-anchor="middle" x="365.5" y="-532.2792" font-family="Times,serif" font-size="20.00" fill="#000000">empty</text>
</g>
<!-- SG_0_Node_5 -->
<g id="node10" class="node">
<title>SG_0_Node_5</title>
<polygon fill="none" stroke="#000000" points="282.5,-237.6396 177.5,-237.6396 177.5,-201.6396 282.5,-201.6396 282.5,-237.6396"/>
<text text-anchor="middle" x="230" y="-214.6396" font-family="Times,serif" font-size="20.00" fill="#000000">Location</text>
</g>
<!-- SG_0_Node_4&#45;&gt;SG_0_Node_5 -->
<g id="edge9" class="edge">
<title>SG_0_Node_4&#45;&gt;SG_0_Node_5</title>
<path fill="none" stroke="#000000" d="M278.453,-450.0218C271.3404,-438.9244 262.9072,-424.136 258,-409.8528 238.9978,-354.5444 232.8905,-285.8464 230.9283,-247.9926"/>
<polygon fill="#000000" stroke="#000000" points="234.4122,-247.557 230.46,-237.7269 227.4194,-247.876 234.4122,-247.557"/>
<text text-anchor="middle" x="277.5" y="-393.8528" font-family="Times,serif" font-size="20.00" fill="#000000">301</text>
<text text-anchor="middle" x="277.5" y="-371.8528" font-family="Times,serif" font-size="20.00" fill="#000000">302</text>
<text text-anchor="middle" x="277.5" y="-349.8528" font-family="Times,serif" font-size="20.00" fill="#000000">303</text>
<text text-anchor="middle" x="277.5" y="-327.8528" font-family="Times,serif" font-size="20.00" fill="#000000">305</text>
<text text-anchor="middle" x="277.5" y="-305.8528" font-family="Times,serif" font-size="20.00" fill="#000000">307</text>
<text text-anchor="middle" x="277.5" y="-283.8528" font-family="Times,serif" font-size="20.00" fill="#000000">308</text>
</g>
<!-- SG_0_Node_10 -->
<g id="node11" class="node">
<title>SG_0_Node_10</title>
<ellipse fill="none" stroke="#000000" cx="335" cy="-219.6396" rx="34.7971" ry="21.4286"/>
<text text-anchor="middle" x="335" y="-214.6396" font-family="Times,serif" font-size="20.00" fill="#000000">1.0</text>
</g>
<!-- SG_0_Node_4&#45;&gt;SG_0_Node_10 -->
<g id="edge10" class="edge">
<title>SG_0_Node_4&#45;&gt;SG_0_Node_10</title>
<path fill="none" stroke="#000000" d="M294.2354,-449.7986C301.6808,-407.7616 320.1012,-303.759 329.416,-251.1671"/>
<polygon fill="#000000" stroke="#000000" points="332.9073,-251.5237 331.205,-241.0665 326.0145,-250.3028 332.9073,-251.5237"/>
<text text-anchor="middle" x="370" y="-349.8528" font-family="Times,serif" font-size="20.00" fill="#000000">[NA]</text>
<text text-anchor="middle" x="370" y="-327.8528" font-family="Times,serif" font-size="20.00" fill="#000000">52 levels</text>
</g>
<!-- SG_0_Node_11 -->
<g id="node12" class="node">
<title>SG_0_Node_11</title>
<ellipse fill="none" stroke="#000000" cx="66" cy="-37.2132" rx="34.7971" ry="21.4286"/>
<text text-anchor="middle" x="66" y="-32.2132" font-family="Times,serif" font-size="20.00" fill="#000000">0.0</text>
</g>
<!-- SG_0_Node_5&#45;&gt;SG_0_Node_11 -->
<g id="edge11" class="edge">
<title>SG_0_Node_5&#45;&gt;SG_0_Node_11</title>
<path fill="none" stroke="#000000" d="M177.3502,-207.9099C134.5781,-197.1884 79.2452,-180.1828 66,-161.4264 46.9176,-134.4041 50.7046,-95.1651 56.8051,-68.0535"/>
<polygon fill="#000000" stroke="#000000" points="60.2122,-68.855 59.2135,-58.3073 53.4166,-67.1756 60.2122,-68.855"/>
<text text-anchor="middle" x="203" y="-145.4264" font-family="Times,serif" font-size="20.00" fill="#000000">[NA]</text>
<text text-anchor="middle" x="203" y="-123.4264" font-family="Times,serif" font-size="20.00" fill="#000000">/</text>
<text text-anchor="middle" x="203" y="-101.4264" font-family="Times,serif" font-size="20.00" fill="#000000">http://localhost:8000/echo/</text>
</g>
<!-- SG_0_Node_12 -->
<g id="node13" class="node">
<title>SG_0_Node_12</title>
<ellipse fill="none" stroke="#000000" cx="376" cy="-37.2132" rx="34.7971" ry="21.4286"/>
<text text-anchor="middle" x="376" y="-32.2132" font-family="Times,serif" font-size="20.00" fill="#000000">1.0</text>
</g>
<!-- SG_0_Node_5&#45;&gt;SG_0_Node_12 -->
<g id="edge12" class="edge">
<title>SG_0_Node_5&#45;&gt;SG_0_Node_12</title>
<path fill="none" stroke="#000000" d="M267.0457,-201.6312C299.2829,-185.8194 341.282,-164.8193 344,-161.4264 365.2639,-134.8828 372.5455,-95.8007 374.9601,-68.5881"/>
<polygon fill="#000000" stroke="#000000" points="378.4638,-68.6599 375.6856,-58.4358 371.4816,-68.1608 378.4638,-68.6599"/>
<text text-anchor="middle" x="403" y="-123.4264" font-family="Times,serif" font-size="20.00" fill="#000000">empty</text>
</g>
<!-- SG_1_Node_0 -->
<g id="node14" class="node">
<title>SG_1_Node_0</title>
<polygon fill="none" stroke="#000000" points="881,-1432.5584 739,-1432.5584 739,-1396.5584 881,-1396.5584 881,-1432.5584"/>
<text text-anchor="middle" x="810" y="-1409.5584" font-family="Times,serif" font-size="20.00" fill="#000000">Status&#45;Code</text>
</g>
<!-- SG_1_Node_1 -->
<g id="node15" class="node">
<title>SG_1_Node_1</title>
<polygon fill="none" stroke="#000000" points="785.5,-1099.3452 594.5,-1099.3452 594.5,-1063.3452 785.5,-1063.3452 785.5,-1099.3452"/>
<text text-anchor="middle" x="690" y="-1076.3452" font-family="Times,serif" font-size="20.00" fill="#000000">X&#45;Frame&#45;Options</text>
</g>
<!-- SG_1_Node_0&#45;&gt;SG_1_Node_1 -->
<g id="edge13" class="edge">
<title>SG_1_Node_0&#45;&gt;SG_1_Node_1</title>
<path fill="none" stroke="#000000" d="M773.5778,-1396.4404C759.0033,-1387.3517 743.4588,-1374.9653 734,-1359.5584 684.8113,-1279.438 684.6879,-1162.747 687.6762,-1109.6017"/>
<polygon fill="#000000" stroke="#000000" points="691.1732,-1109.7594 688.3231,-1099.5551 684.1877,-1109.3095 691.1732,-1109.7594"/>
<text text-anchor="middle" x="780" y="-1255.5584" font-family="Times,serif" font-size="20.00" fill="#000000">[NA]</text>
<text text-anchor="middle" x="780" y="-1233.5584" font-family="Times,serif" font-size="20.00" fill="#000000">56 levels</text>
</g>
<!-- SG_1_Node_2 -->
<g id="node16" class="node">
<title>SG_1_Node_2</title>
<polygon fill="none" stroke="#000000" points="981.5,-1099.3452 876.5,-1099.3452 876.5,-1063.3452 981.5,-1063.3452 981.5,-1099.3452"/>
<text text-anchor="middle" x="929" y="-1076.3452" font-family="Times,serif" font-size="20.00" fill="#000000">Location</text>
</g>
<!-- SG_1_Node_0&#45;&gt;SG_1_Node_2 -->
<g id="edge14" class="edge">
<title>SG_1_Node_0&#45;&gt;SG_1_Node_2</title>
<path fill="none" stroke="#000000" d="M816.5675,-1396.1688C836.3164,-1340.8697 895.2571,-1175.829 918.9622,-1109.4521"/>
<polygon fill="#000000" stroke="#000000" points="922.3856,-1110.2727 922.4528,-1099.678 915.7934,-1107.9183 922.3856,-1110.2727"/>
<text text-anchor="middle" x="927.5" y="-1299.5584" font-family="Times,serif" font-size="20.00" fill="#000000">301</text>
<text text-anchor="middle" x="927.5" y="-1277.5584" font-family="Times,serif" font-size="20.00" fill="#000000">302</text>
<text text-anchor="middle" x="927.5" y="-1255.5584" font-family="Times,serif" font-size="20.00" fill="#000000">303</text>
<text text-anchor="middle" x="927.5" y="-1233.5584" font-family="Times,serif" font-size="20.00" fill="#000000">305</text>
<text text-anchor="middle" x="927.5" y="-1211.5584" font-family="Times,serif" font-size="20.00" fill="#000000">307</text>
<text text-anchor="middle" x="927.5" y="-1189.5584" font-family="Times,serif" font-size="20.00" fill="#000000">308</text>
</g>
<!-- SG_1_Node_9 -->
<g id="node17" class="node">
<title>SG_1_Node_9</title>
<ellipse fill="none" stroke="#000000" cx="527" cy="-898.9188" rx="34.7971" ry="21.4286"/>
<text text-anchor="middle" x="527" y="-893.9188" font-family="Times,serif" font-size="20.00" fill="#000000">0.0</text>
</g>
<!-- SG_1_Node_1&#45;&gt;SG_1_Node_9 -->
<g id="edge23" class="edge">
<title>SG_1_Node_1&#45;&gt;SG_1_Node_9</title>
<path fill="none" stroke="#000000" d="M672.845,-1063.1117C662.1657,-1051.697 648.1896,-1036.6421 636,-1023.132 605.9973,-989.8792 572.0545,-950.9932 550.1331,-925.7089"/>
<polygon fill="#000000" stroke="#000000" points="552.6509,-923.2697 543.4584,-918.002 547.3595,-927.8525 552.6509,-923.2697"/>
<text text-anchor="middle" x="661" y="-996.132" font-family="Times,serif" font-size="20.00" fill="#000000">[NA]</text>
<text text-anchor="middle" x="661" y="-974.132" font-family="Times,serif" font-size="20.00" fill="#000000">deny</text>
</g>
<!-- SG_1_Node_3 -->
<g id="node18" class="node">
<title>SG_1_Node_3</title>
<polygon fill="none" stroke="#000000" points="800.5,-916.9188 579.5,-916.9188 579.5,-880.9188 800.5,-880.9188 800.5,-916.9188"/>
<text text-anchor="middle" x="690" y="-893.9188" font-family="Times,serif" font-size="20.00" fill="#000000">Content&#45;Disposition</text>
</g>
<!-- SG_1_Node_1&#45;&gt;SG_1_Node_3 -->
<g id="edge24" class="edge">
<title>SG_1_Node_1&#45;&gt;SG_1_Node_3</title>
<path fill="none" stroke="#000000" d="M690,-1063.1866C690,-1031.3607 690,-965.291 690,-927.3557"/>
<polygon fill="#000000" stroke="#000000" points="693.5001,-927.004 690,-917.0041 686.5001,-927.0041 693.5001,-927.004"/>
<text text-anchor="middle" x="722" y="-985.132" font-family="Times,serif" font-size="20.00" fill="#000000">empty</text>
</g>
<!-- SG_1_Node_4 -->
<g id="node19" class="node">
<title>SG_1_Node_4</title>
<polygon fill="none" stroke="#000000" points="1039.5,-916.9188 818.5,-916.9188 818.5,-880.9188 1039.5,-880.9188 1039.5,-916.9188"/>
<text text-anchor="middle" x="929" y="-893.9188" font-family="Times,serif" font-size="20.00" fill="#000000">Content&#45;Disposition</text>
</g>
<!-- SG_1_Node_2&#45;&gt;SG_1_Node_4 -->
<g id="edge15" class="edge">
<title>SG_1_Node_2&#45;&gt;SG_1_Node_4</title>
<path fill="none" stroke="#000000" d="M929,-1063.1866C929,-1031.3607 929,-965.291 929,-927.3557"/>
<polygon fill="#000000" stroke="#000000" points="932.5001,-927.004 929,-917.0041 925.5001,-927.0041 932.5001,-927.004"/>
<text text-anchor="middle" x="961" y="-985.132" font-family="Times,serif" font-size="20.00" fill="#000000">empty</text>
</g>
<!-- SG_1_Node_10 -->
<g id="node20" class="node">
<title>SG_1_Node_10</title>
<ellipse fill="none" stroke="#000000" cx="1092" cy="-898.9188" rx="34.7971" ry="21.4286"/>
<text text-anchor="middle" x="1092" y="-893.9188" font-family="Times,serif" font-size="20.00" fill="#000000">1.0</text>
</g>
<!-- SG_1_Node_2&#45;&gt;SG_1_Node_10 -->
<g id="edge16" class="edge">
<title>SG_1_Node_2&#45;&gt;SG_1_Node_10</title>
<path fill="none" stroke="#000000" d="M952.4275,-1063.3303C966.0612,-1052.3606 983.2202,-1037.6928 997,-1023.132 1026.0049,-992.4834 1054.8089,-953.2628 1072.964,-927.1771"/>
<polygon fill="#000000" stroke="#000000" points="1075.9003,-929.0844 1078.6976,-918.8655 1070.1382,-925.1095 1075.9003,-929.0844"/>
<text text-anchor="middle" x="1188" y="-1007.132" font-family="Times,serif" font-size="20.00" fill="#000000">[NA]</text>
<text text-anchor="middle" x="1188" y="-985.132" font-family="Times,serif" font-size="20.00" fill="#000000">/</text>
<text text-anchor="middle" x="1188" y="-963.132" font-family="Times,serif" font-size="20.00" fill="#000000">http://localhost:8000/echo/</text>
</g>
<!-- SG_1_Node_11 -->
<g id="node21" class="node">
<title>SG_1_Node_11</title>
<ellipse fill="none" stroke="#000000" cx="527" cy="-650.4924" rx="34.7971" ry="21.4286"/>
<text text-anchor="middle" x="527" y="-645.4924" font-family="Times,serif" font-size="20.00" fill="#000000">0.0</text>
</g>
<!-- SG_1_Node_3&#45;&gt;SG_1_Node_11 -->
<g id="edge25" class="edge">
<title>SG_1_Node_3&#45;&gt;SG_1_Node_11</title>
<path fill="none" stroke="#000000" d="M629.0264,-880.8552C608.1937,-871.8782 586.513,-858.9341 572,-840.7056 535.1345,-794.4021 527.6144,-722.8997 526.5654,-682.0277"/>
<polygon fill="#000000" stroke="#000000" points="530.0626,-681.7942 526.4229,-671.8442 523.0632,-681.8922 530.0626,-681.7942"/>
<text text-anchor="middle" x="631" y="-769.7056" font-family="Times,serif" font-size="20.00" fill="#000000">attachment</text>
</g>
<!-- SG_1_Node_5 -->
<g id="node22" class="node">
<title>SG_1_Node_5</title>
<polygon fill="none" stroke="#000000" points="840,-668.4924 580,-668.4924 580,-632.4924 840,-632.4924 840,-668.4924"/>
<text text-anchor="middle" x="710" y="-645.4924" font-family="Times,serif" font-size="20.00" fill="#000000">Content&#45;Security&#45;Policy</text>
</g>
<!-- SG_1_Node_3&#45;&gt;SG_1_Node_5 -->
<g id="edge26" class="edge">
<title>SG_1_Node_3&#45;&gt;SG_1_Node_5</title>
<path fill="none" stroke="#000000" d="M691.4706,-880.6514C694.9236,-837.7606 703.57,-730.3618 707.7146,-678.8802"/>
<polygon fill="#000000" stroke="#000000" points="711.2133,-679.0352 708.5272,-668.7866 704.2359,-678.4734 711.2133,-679.0352"/>
<text text-anchor="middle" x="737" y="-780.7056" font-family="Times,serif" font-size="20.00" fill="#000000">[NA]</text>
<text text-anchor="middle" x="737" y="-758.7056" font-family="Times,serif" font-size="20.00" fill="#000000">empty</text>
</g>
<!-- SG_1_Node_12 -->
<g id="node23" class="node">
<title>SG_1_Node_12</title>
<ellipse fill="none" stroke="#000000" cx="905" cy="-650.4924" rx="34.7971" ry="21.4286"/>
<text text-anchor="middle" x="905" y="-645.4924" font-family="Times,serif" font-size="20.00" fill="#000000">0.0</text>
</g>
<!-- SG_1_Node_4&#45;&gt;SG_1_Node_12 -->
<g id="edge17" class="edge">
<title>SG_1_Node_4&#45;&gt;SG_1_Node_12</title>
<path fill="none" stroke="#000000" d="M925.4404,-880.8922C923.2914,-869.4267 920.657,-854.2431 919,-840.7056 912.2078,-785.2147 908.2853,-720.1838 906.4016,-682.3322"/>
<polygon fill="#000000" stroke="#000000" points="909.8789,-681.7731 905.9026,-671.9527 902.887,-682.1093 909.8789,-681.7731"/>
<text text-anchor="middle" x="978" y="-780.7056" font-family="Times,serif" font-size="20.00" fill="#000000">[NA]</text>
<text text-anchor="middle" x="978" y="-758.7056" font-family="Times,serif" font-size="20.00" fill="#000000">attachment</text>
</g>
<!-- SG_1_Node_6 -->
<g id="node24" class="node">
<title>SG_1_Node_6</title>
<polygon fill="none" stroke="#000000" points="1154.5,-668.4924 963.5,-668.4924 963.5,-632.4924 1154.5,-632.4924 1154.5,-668.4924"/>
<text text-anchor="middle" x="1059" y="-645.4924" font-family="Times,serif" font-size="20.00" fill="#000000">X&#45;Frame&#45;Options</text>
</g>
<!-- SG_1_Node_4&#45;&gt;SG_1_Node_6 -->
<g id="edge18" class="edge">
<title>SG_1_Node_4&#45;&gt;SG_1_Node_6</title>
<path fill="none" stroke="#000000" d="M985.4264,-880.8525C1004.8008,-871.8353 1024.6885,-858.8649 1037,-840.7056 1070.3219,-791.5563 1067.854,-718.3892 1063.318,-678.6493"/>
<polygon fill="#000000" stroke="#000000" points="1066.7747,-678.0861 1062.0442,-668.606 1059.8303,-678.9669 1066.7747,-678.0861"/>
<text text-anchor="middle" x="1097" y="-769.7056" font-family="Times,serif" font-size="20.00" fill="#000000">empty</text>
</g>
<!-- SG_1_Node_13 -->
<g id="node25" class="node">
<title>SG_1_Node_13</title>
<ellipse fill="none" stroke="#000000" cx="518" cy="-468.066" rx="34.7971" ry="21.4286"/>
<text text-anchor="middle" x="518" y="-463.066" font-family="Times,serif" font-size="20.00" fill="#000000">0.0</text>
</g>
<!-- SG_1_Node_5&#45;&gt;SG_1_Node_13 -->
<g id="edge27" class="edge">
<title>SG_1_Node_5&#45;&gt;SG_1_Node_13</title>
<path fill="none" stroke="#000000" d="M613.7096,-632.4339C572.1697,-622.5004 530.2692,-608.8198 518,-592.2792 498.178,-565.5562 502.2491,-525.9258 508.613,-498.6532"/>
<polygon fill="#000000" stroke="#000000" points="512.0311,-499.4139 511.1193,-488.8584 505.2496,-497.6786 512.0311,-499.4139"/>
<text text-anchor="middle" x="628.5" y="-554.2792" font-family="Times,serif" font-size="20.00" fill="#000000">frame&#45;ancestors &#39;self&#39;</text>
</g>
<!-- SG_1_Node_7 -->
<g id="node26" class="node">
<title>SG_1_Node_7</title>
<polygon fill="none" stroke="#000000" points="846,-486.066 704,-486.066 704,-450.066 846,-450.066 846,-486.066"/>
<text text-anchor="middle" x="775" y="-463.066" font-family="Times,serif" font-size="20.00" fill="#000000">Status&#45;Code</text>
</g>
<!-- SG_1_Node_5&#45;&gt;SG_1_Node_7 -->
<g id="edge28" class="edge">
<title>SG_1_Node_5&#45;&gt;SG_1_Node_7</title>
<path fill="none" stroke="#000000" d="M722.0022,-632.2447C728.9217,-621.0752 737.3431,-606.2824 743,-592.2792 755.8453,-560.4817 764.8162,-521.9906 769.9256,-496.3659"/>
<polygon fill="#000000" stroke="#000000" points="773.4236,-496.7104 771.879,-486.2287 766.55,-495.3858 773.4236,-496.7104"/>
<text text-anchor="middle" x="845.5" y="-576.2792" font-family="Times,serif" font-size="20.00" fill="#000000">[NA]</text>
<text text-anchor="middle" x="845.5" y="-554.2792" font-family="Times,serif" font-size="20.00" fill="#000000">default&#45;src &#39;self&#39;</text>
<text text-anchor="middle" x="845.5" y="-532.2792" font-family="Times,serif" font-size="20.00" fill="#000000">empty</text>
</g>
<!-- SG_1_Node_14 -->
<g id="node27" class="node">
<title>SG_1_Node_14</title>
<ellipse fill="none" stroke="#000000" cx="978" cy="-468.066" rx="34.7971" ry="21.4286"/>
<text text-anchor="middle" x="978" y="-463.066" font-family="Times,serif" font-size="20.00" fill="#000000">0.0</text>
</g>
<!-- SG_1_Node_6&#45;&gt;SG_1_Node_14 -->
<g id="edge19" class="edge">
<title>SG_1_Node_6&#45;&gt;SG_1_Node_14</title>
<path fill="none" stroke="#000000" d="M1033.9694,-632.4762C1021.4823,-622.1364 1007.3068,-608.0807 999,-592.2792 983.7942,-563.3545 979.1846,-525.8808 977.982,-499.6904"/>
<polygon fill="#000000" stroke="#000000" points="981.476,-499.4433 977.6601,-489.5595 974.4795,-499.6656 981.476,-499.4433"/>
<text text-anchor="middle" x="1023.5" y="-554.2792" font-family="Times,serif" font-size="20.00" fill="#000000">deny</text>
</g>
<!-- SG_1_Node_8 -->
<g id="node28" class="node">
<title>SG_1_Node_8</title>
<polygon fill="none" stroke="#000000" points="1291,-486.066 1031,-486.066 1031,-450.066 1291,-450.066 1291,-486.066"/>
<text text-anchor="middle" x="1161" y="-463.066" font-family="Times,serif" font-size="20.00" fill="#000000">Content&#45;Security&#45;Policy</text>
</g>
<!-- SG_1_Node_6&#45;&gt;SG_1_Node_8 -->
<g id="edge20" class="edge">
<title>SG_1_Node_6&#45;&gt;SG_1_Node_8</title>
<path fill="none" stroke="#000000" d="M1069.1531,-632.3337C1087.1769,-600.0981 1124.8438,-532.7312 1145.9115,-495.0517"/>
<polygon fill="#000000" stroke="#000000" points="1149.0626,-496.5877 1150.888,-486.1513 1142.9528,-493.1715 1149.0626,-496.5877"/>
<text text-anchor="middle" x="1160" y="-565.2792" font-family="Times,serif" font-size="20.00" fill="#000000">[NA]</text>
<text text-anchor="middle" x="1160" y="-543.2792" font-family="Times,serif" font-size="20.00" fill="#000000">empty</text>
</g>
<!-- SG_1_Node_15 -->
<g id="node29" class="node">
<title>SG_1_Node_15</title>
<ellipse fill="none" stroke="#000000" cx="692" cy="-219.6396" rx="34.7971" ry="21.4286"/>
<text text-anchor="middle" x="692" y="-214.6396" font-family="Times,serif" font-size="20.00" fill="#000000">0.0</text>
</g>
<!-- SG_1_Node_7&#45;&gt;SG_1_Node_15 -->
<g id="edge29" class="edge">
<title>SG_1_Node_7&#45;&gt;SG_1_Node_15</title>
<path fill="none" stroke="#000000" d="M758.4376,-449.9646C749.3334,-439.0797 738.5834,-424.5264 732,-409.8528 708.3885,-357.226 698.4749,-290.0764 694.4936,-251.2595"/>
<polygon fill="#000000" stroke="#000000" points="697.9579,-250.7192 693.5215,-241.098 690.9898,-251.3859 697.9579,-250.7192"/>
<text text-anchor="middle" x="751.5" y="-371.8528" font-family="Times,serif" font-size="20.00" fill="#000000">100</text>
<text text-anchor="middle" x="751.5" y="-349.8528" font-family="Times,serif" font-size="20.00" fill="#000000">102</text>
<text text-anchor="middle" x="751.5" y="-327.8528" font-family="Times,serif" font-size="20.00" fill="#000000">103</text>
<text text-anchor="middle" x="751.5" y="-305.8528" font-family="Times,serif" font-size="20.00" fill="#000000">407</text>
</g>
<!-- SG_1_Node_16 -->
<g id="node30" class="node">
<title>SG_1_Node_16</title>
<ellipse fill="none" stroke="#000000" cx="779" cy="-219.6396" rx="34.7971" ry="21.4286"/>
<text text-anchor="middle" x="779" y="-214.6396" font-family="Times,serif" font-size="20.00" fill="#000000">1.0</text>
</g>
<!-- SG_1_Node_7&#45;&gt;SG_1_Node_16 -->
<g id="edge30" class="edge">
<title>SG_1_Node_7&#45;&gt;SG_1_Node_16</title>
<path fill="none" stroke="#000000" d="M775.2941,-449.7986C775.971,-407.7616 777.6456,-303.759 778.4924,-251.1671"/>
<polygon fill="#000000" stroke="#000000" points="781.9935,-251.1216 778.655,-241.0665 774.9944,-251.0088 781.9935,-251.1216"/>
<text text-anchor="middle" x="824" y="-349.8528" font-family="Times,serif" font-size="20.00" fill="#000000">[NA]</text>
<text text-anchor="middle" x="824" y="-327.8528" font-family="Times,serif" font-size="20.00" fill="#000000">52 levels</text>
</g>
<!-- SG_1_Node_17 -->
<g id="node31" class="node">
<title>SG_1_Node_17</title>
<ellipse fill="none" stroke="#000000" cx="905" cy="-219.6396" rx="34.7971" ry="21.4286"/>
<text text-anchor="middle" x="905" y="-214.6396" font-family="Times,serif" font-size="20.00" fill="#000000">0.0</text>
</g>
<!-- SG_1_Node_8&#45;&gt;SG_1_Node_17 -->
<g id="edge21" class="edge">
<title>SG_1_Node_8&#45;&gt;SG_1_Node_17</title>
<path fill="none" stroke="#000000" d="M1045.0377,-450.0124C998.2213,-440.3627 951.5688,-426.9176 936,-409.8528 896.2735,-366.3091 896.5423,-292.62 900.5736,-250.8941"/>
<polygon fill="#000000" stroke="#000000" points="904.0733,-251.0879 901.6879,-240.7651 897.1152,-250.3223 904.0733,-251.0879"/>
<text text-anchor="middle" x="1046.5" y="-338.8528" font-family="Times,serif" font-size="20.00" fill="#000000">frame&#45;ancestors &#39;self&#39;</text>
</g>
<!-- SG_1_Node_18 -->
<g id="node32" class="node">
<title>SG_1_Node_18</title>
<ellipse fill="none" stroke="#000000" cx="1162" cy="-219.6396" rx="34.7971" ry="21.4286"/>
<text text-anchor="middle" x="1162" y="-214.6396" font-family="Times,serif" font-size="20.00" fill="#000000">1.0</text>
</g>
<!-- SG_1_Node_8&#45;&gt;SG_1_Node_18 -->
<g id="edge22" class="edge">
<title>SG_1_Node_8&#45;&gt;SG_1_Node_18</title>
<path fill="none" stroke="#000000" d="M1161.0735,-449.7986C1161.2427,-407.7616 1161.6614,-303.759 1161.8731,-251.1671"/>
<polygon fill="#000000" stroke="#000000" points="1165.3734,-251.0805 1161.9137,-241.0665 1158.3734,-251.0523 1165.3734,-251.0805"/>
<text text-anchor="middle" x="1243.5" y="-360.8528" font-family="Times,serif" font-size="20.00" fill="#000000">[NA]</text>
<text text-anchor="middle" x="1243.5" y="-338.8528" font-family="Times,serif" font-size="20.00" fill="#000000">default&#45;src &#39;self&#39;</text>
<text text-anchor="middle" x="1243.5" y="-316.8528" font-family="Times,serif" font-size="20.00" fill="#000000">empty</text>
</g>
<!-- SG_2_Node_0 -->
<g id="node33" class="node">
<title>SG_2_Node_0</title>
<polygon fill="none" stroke="#000000" points="4911,-1432.5584 4769,-1432.5584 4769,-1396.5584 4911,-1396.5584 4911,-1432.5584"/>
<text text-anchor="middle" x="4840" y="-1409.5584" font-family="Times,serif" font-size="20.00" fill="#000000">Status&#45;Code</text>
</g>
<!-- SG_2_Node_1 -->
<g id="node34" class="node">
<title>SG_2_Node_1</title>
<polygon fill="none" stroke="#000000" points="4804.5,-1099.3452 4699.5,-1099.3452 4699.5,-1063.3452 4804.5,-1063.3452 4804.5,-1099.3452"/>
<text text-anchor="middle" x="4752" y="-1076.3452" font-family="Times,serif" font-size="20.00" fill="#000000">Location</text>
</g>
<!-- SG_2_Node_0&#45;&gt;SG_2_Node_1 -->
<g id="edge31" class="edge">
<title>SG_2_Node_0&#45;&gt;SG_2_Node_1</title>
<path fill="none" stroke="#000000" d="M4835.1434,-1396.1688C4820.5392,-1340.8697 4776.9527,-1175.829 4759.4229,-1109.4521"/>
<polygon fill="#000000" stroke="#000000" points="4762.7791,-1108.4528 4756.8416,-1099.678 4756.0111,-1110.2403 4762.7791,-1108.4528"/>
<text text-anchor="middle" x="4844.5" y="-1343.5584" font-family="Times,serif" font-size="20.00" fill="#000000">100</text>
<text text-anchor="middle" x="4844.5" y="-1321.5584" font-family="Times,serif" font-size="20.00" fill="#000000">102</text>
<text text-anchor="middle" x="4844.5" y="-1299.5584" font-family="Times,serif" font-size="20.00" fill="#000000">103</text>
<text text-anchor="middle" x="4844.5" y="-1277.5584" font-family="Times,serif" font-size="20.00" fill="#000000">301</text>
<text text-anchor="middle" x="4844.5" y="-1255.5584" font-family="Times,serif" font-size="20.00" fill="#000000">302</text>
<text text-anchor="middle" x="4844.5" y="-1233.5584" font-family="Times,serif" font-size="20.00" fill="#000000">303</text>
<text text-anchor="middle" x="4844.5" y="-1211.5584" font-family="Times,serif" font-size="20.00" fill="#000000">305</text>
<text text-anchor="middle" x="4844.5" y="-1189.5584" font-family="Times,serif" font-size="20.00" fill="#000000">307</text>
<text text-anchor="middle" x="4844.5" y="-1167.5584" font-family="Times,serif" font-size="20.00" fill="#000000">308</text>
<text text-anchor="middle" x="4844.5" y="-1145.5584" font-family="Times,serif" font-size="20.00" fill="#000000">407</text>
</g>
<!-- SG_2_Node_2 -->
<g id="node35" class="node">
<title>SG_2_Node_2</title>
<polygon fill="none" stroke="#000000" points="5023.5,-1099.3452 4832.5,-1099.3452 4832.5,-1063.3452 5023.5,-1063.3452 5023.5,-1099.3452"/>
<text text-anchor="middle" x="4928" y="-1076.3452" font-family="Times,serif" font-size="20.00" fill="#000000">X&#45;Frame&#45;Options</text>
</g>
<!-- SG_2_Node_0&#45;&gt;SG_2_Node_2 -->
<g id="edge32" class="edge">
<title>SG_2_Node_0&#45;&gt;SG_2_Node_2</title>
<path fill="none" stroke="#000000" d="M4850.691,-1396.503C4856.5141,-1386.0159 4863.4408,-1372.3797 4868,-1359.5584 4899.5294,-1270.892 4917.3541,-1160.1702 4924.4149,-1109.2841"/>
<polygon fill="#000000" stroke="#000000" points="4927.8846,-1109.7426 4925.7592,-1099.3632 4920.948,-1108.8026 4927.8846,-1109.7426"/>
<text text-anchor="middle" x="4965" y="-1255.5584" font-family="Times,serif" font-size="20.00" fill="#000000">[NA]</text>
<text text-anchor="middle" x="4965" y="-1233.5584" font-family="Times,serif" font-size="20.00" fill="#000000">52 levels</text>
</g>
<!-- SG_2_Node_7 -->
<g id="node36" class="node">
<title>SG_2_Node_7</title>
<ellipse fill="none" stroke="#000000" cx="4442" cy="-898.9188" rx="34.7971" ry="21.4286"/>
<text text-anchor="middle" x="4442" y="-893.9188" font-family="Times,serif" font-size="20.00" fill="#000000">0.0</text>
</g>
<!-- SG_2_Node_1&#45;&gt;SG_2_Node_7 -->
<g id="edge37" class="edge">
<title>SG_2_Node_1&#45;&gt;SG_2_Node_7</title>
<path fill="none" stroke="#000000" d="M4699.2993,-1079.1527C4620.0764,-1074.6345 4476.1234,-1061.2665 4444,-1023.132 4422.5615,-997.6818 4426.2381,-957.79 4432.5438,-930.1087"/>
<polygon fill="#000000" stroke="#000000" points="4436.0028,-930.7042 4435.0424,-920.153 4429.2134,-929.0003 4436.0028,-930.7042"/>
<text text-anchor="middle" x="4581" y="-1007.132" font-family="Times,serif" font-size="20.00" fill="#000000">[NA]</text>
<text text-anchor="middle" x="4581" y="-985.132" font-family="Times,serif" font-size="20.00" fill="#000000">/</text>
<text text-anchor="middle" x="4581" y="-963.132" font-family="Times,serif" font-size="20.00" fill="#000000">http://localhost:8000/echo/</text>
</g>
<!-- SG_2_Node_3 -->
<g id="node37" class="node">
<title>SG_2_Node_3</title>
<polygon fill="none" stroke="#000000" points="4780,-916.9188 4638,-916.9188 4638,-880.9188 4780,-880.9188 4780,-916.9188"/>
<text text-anchor="middle" x="4709" y="-893.9188" font-family="Times,serif" font-size="20.00" fill="#000000">Status&#45;Code</text>
</g>
<!-- SG_2_Node_1&#45;&gt;SG_2_Node_3 -->
<g id="edge38" class="edge">
<title>SG_2_Node_1&#45;&gt;SG_2_Node_3</title>
<path fill="none" stroke="#000000" d="M4747.7198,-1063.1866C4740.1859,-1031.2241 4724.5109,-964.7233 4715.5881,-926.8688"/>
<polygon fill="#000000" stroke="#000000" points="4718.9639,-925.9343 4713.2629,-917.0041 4712.1506,-927.5404 4718.9639,-925.9343"/>
<text text-anchor="middle" x="4770" y="-985.132" font-family="Times,serif" font-size="20.00" fill="#000000">empty</text>
</g>
<!-- SG_2_Node_4 -->
<g id="node38" class="node">
<title>SG_2_Node_4</title>
<polygon fill="none" stroke="#000000" points="5058,-916.9188 4798,-916.9188 4798,-880.9188 5058,-880.9188 5058,-916.9188"/>
<text text-anchor="middle" x="4928" y="-893.9188" font-family="Times,serif" font-size="20.00" fill="#000000">Content&#45;Security&#45;Policy</text>
</g>
<!-- SG_2_Node_2&#45;&gt;SG_2_Node_4 -->
<g id="edge33" class="edge">
<title>SG_2_Node_2&#45;&gt;SG_2_Node_4</title>
<path fill="none" stroke="#000000" d="M4928,-1063.1866C4928,-1031.3607 4928,-965.291 4928,-927.3557"/>
<polygon fill="#000000" stroke="#000000" points="4931.5001,-927.004 4928,-917.0041 4924.5001,-927.0041 4931.5001,-927.004"/>
<text text-anchor="middle" x="4960" y="-985.132" font-family="Times,serif" font-size="20.00" fill="#000000">empty</text>
</g>
<!-- SG_2_Node_8 -->
<g id="node39" class="node">
<title>SG_2_Node_8</title>
<ellipse fill="none" stroke="#000000" cx="5111" cy="-898.9188" rx="34.7971" ry="21.4286"/>
<text text-anchor="middle" x="5111" y="-893.9188" font-family="Times,serif" font-size="20.00" fill="#000000">1.0</text>
</g>
<!-- SG_2_Node_2&#45;&gt;SG_2_Node_8 -->
<g id="edge34" class="edge">
<title>SG_2_Node_2&#45;&gt;SG_2_Node_8</title>
<path fill="none" stroke="#000000" d="M4950.6213,-1063.0989C4964.1315,-1051.9299 4981.4394,-1037.1371 4996,-1023.132 5029.2551,-991.1457 5064.9761,-951.6716 5087.6294,-925.9261"/>
<polygon fill="#000000" stroke="#000000" points="5090.549,-927.9049 5094.5054,-918.0765 5085.2835,-923.2924 5090.549,-927.9049"/>
<text text-anchor="middle" x="5083" y="-996.132" font-family="Times,serif" font-size="20.00" fill="#000000">[NA]</text>
<text text-anchor="middle" x="5083" y="-974.132" font-family="Times,serif" font-size="20.00" fill="#000000">deny</text>
</g>
<!-- SG_2_Node_9 -->
<g id="node40" class="node">
<title>SG_2_Node_9</title>
<ellipse fill="none" stroke="#000000" cx="4575" cy="-650.4924" rx="34.7971" ry="21.4286"/>
<text text-anchor="middle" x="4575" y="-645.4924" font-family="Times,serif" font-size="20.00" fill="#000000">0.0</text>
</g>
<!-- SG_2_Node_3&#45;&gt;SG_2_Node_9 -->
<g id="edge39" class="edge">
<title>SG_2_Node_3&#45;&gt;SG_2_Node_9</title>
<path fill="none" stroke="#000000" d="M4695.5164,-880.7457C4687.4115,-869.4801 4677.1278,-854.5614 4669,-840.7056 4636.9209,-786.0192 4605.486,-718.8843 4588.3302,-680.7607"/>
<polygon fill="#000000" stroke="#000000" points="4591.3609,-678.9642 4584.0828,-671.2649 4584.971,-681.8224 4591.3609,-678.9642"/>
<text text-anchor="middle" x="4688.5" y="-802.7056" font-family="Times,serif" font-size="20.00" fill="#000000">100</text>
<text text-anchor="middle" x="4688.5" y="-780.7056" font-family="Times,serif" font-size="20.00" fill="#000000">102</text>
<text text-anchor="middle" x="4688.5" y="-758.7056" font-family="Times,serif" font-size="20.00" fill="#000000">103</text>
<text text-anchor="middle" x="4688.5" y="-736.7056" font-family="Times,serif" font-size="20.00" fill="#000000">407</text>
</g>
<!-- SG_2_Node_5 -->
<g id="node41" class="node">
<title>SG_2_Node_5</title>
<polygon fill="none" stroke="#000000" points="4818.5,-668.4924 4627.5,-668.4924 4627.5,-632.4924 4818.5,-632.4924 4818.5,-668.4924"/>
<text text-anchor="middle" x="4723" y="-645.4924" font-family="Times,serif" font-size="20.00" fill="#000000">X&#45;Frame&#45;Options</text>
</g>
<!-- SG_2_Node_3&#45;&gt;SG_2_Node_5 -->
<g id="edge40" class="edge">
<title>SG_2_Node_3&#45;&gt;SG_2_Node_5</title>
<path fill="none" stroke="#000000" d="M4710.0295,-880.6514C4712.4466,-837.7606 4718.499,-730.3618 4721.4002,-678.8802"/>
<polygon fill="#000000" stroke="#000000" points="4724.9007,-678.9677 4721.969,-668.7866 4717.9118,-678.5738 4724.9007,-678.9677"/>
<text text-anchor="middle" x="4738.5" y="-824.7056" font-family="Times,serif" font-size="20.00" fill="#000000">301</text>
<text text-anchor="middle" x="4738.5" y="-802.7056" font-family="Times,serif" font-size="20.00" fill="#000000">302</text>
<text text-anchor="middle" x="4738.5" y="-780.7056" font-family="Times,serif" font-size="20.00" fill="#000000">303</text>
<text text-anchor="middle" x="4738.5" y="-758.7056" font-family="Times,serif" font-size="20.00" fill="#000000">305</text>
<text text-anchor="middle" x="4738.5" y="-736.7056" font-family="Times,serif" font-size="20.00" fill="#000000">307</text>
<text text-anchor="middle" x="4738.5" y="-714.7056" font-family="Times,serif" font-size="20.00" fill="#000000">308</text>
</g>
<!-- SG_2_Node_10 -->
<g id="node42" class="node">
<title>SG_2_Node_10</title>
<ellipse fill="none" stroke="#000000" cx="4905" cy="-650.4924" rx="34.7971" ry="21.4286"/>
<text text-anchor="middle" x="4905" y="-645.4924" font-family="Times,serif" font-size="20.00" fill="#000000">0.0</text>
</g>
<!-- SG_2_Node_4&#45;&gt;SG_2_Node_10 -->
<g id="edge35" class="edge">
<title>SG_2_Node_4&#45;&gt;SG_2_Node_10</title>
<path fill="none" stroke="#000000" d="M4924.8297,-880.8759C4922.9086,-869.4041 4920.5395,-854.2195 4919,-840.7056 4912.6723,-785.1598 4908.6016,-720.1465 4906.5632,-682.3131"/>
<polygon fill="#000000" stroke="#000000" points="4910.0381,-681.7418 4906.0187,-671.939 4903.0477,-682.1087 4910.0381,-681.7418"/>
<text text-anchor="middle" x="5001.5" y="-791.7056" font-family="Times,serif" font-size="20.00" fill="#000000">[NA]</text>
<text text-anchor="middle" x="5001.5" y="-769.7056" font-family="Times,serif" font-size="20.00" fill="#000000">default&#45;src &#39;self&#39;</text>
<text text-anchor="middle" x="5001.5" y="-747.7056" font-family="Times,serif" font-size="20.00" fill="#000000">empty</text>
</g>
<!-- SG_2_Node_11 -->
<g id="node43" class="node">
<title>SG_2_Node_11</title>
<ellipse fill="none" stroke="#000000" cx="5106" cy="-650.4924" rx="34.7971" ry="21.4286"/>
<text text-anchor="middle" x="5106" y="-645.4924" font-family="Times,serif" font-size="20.00" fill="#000000">1.0</text>
</g>
<!-- SG_2_Node_4&#45;&gt;SG_2_Node_11 -->
<g id="edge36" class="edge">
<title>SG_2_Node_4&#45;&gt;SG_2_Node_11</title>
<path fill="none" stroke="#000000" d="M4997.0211,-880.8641C5033.2876,-869.9382 5072.5482,-855.3281 5084,-840.7056 5119.9203,-794.8402 5116.9715,-722.6334 5111.5367,-681.6422"/>
<polygon fill="#000000" stroke="#000000" points="5114.9912,-681.0755 5110.0849,-671.6851 5108.0644,-682.0855 5114.9912,-681.0755"/>
<text text-anchor="middle" x="5224.5" y="-769.7056" font-family="Times,serif" font-size="20.00" fill="#000000">frame&#45;ancestors &#39;self&#39;</text>
</g>
<!-- SG_2_Node_6 -->
<g id="node44" class="node">
<title>SG_2_Node_6</title>
<polygon fill="none" stroke="#000000" points="4702,-486.066 4442,-486.066 4442,-450.066 4702,-450.066 4702,-486.066"/>
<text text-anchor="middle" x="4572" y="-463.066" font-family="Times,serif" font-size="20.00" fill="#000000">Content&#45;Security&#45;Policy</text>
</g>
<!-- SG_2_Node_5&#45;&gt;SG_2_Node_6 -->
<g id="edge41" class="edge">
<title>SG_2_Node_5&#45;&gt;SG_2_Node_6</title>
<path fill="none" stroke="#000000" d="M4703.4973,-632.2621C4691.9001,-621.0989 4677.1331,-606.3064 4665,-592.2792 4637.2538,-560.2015 4608.4611,-520.5997 4590.403,-494.8605"/>
<polygon fill="#000000" stroke="#000000" points="4593.0732,-492.5706 4584.4826,-486.3694 4587.3311,-496.5742 4593.0732,-492.5706"/>
<text text-anchor="middle" x="4697" y="-565.2792" font-family="Times,serif" font-size="20.00" fill="#000000">[NA]</text>
<text text-anchor="middle" x="4697" y="-543.2792" font-family="Times,serif" font-size="20.00" fill="#000000">empty</text>
</g>
<!-- SG_2_Node_12 -->
<g id="node45" class="node">
<title>SG_2_Node_12</title>
<ellipse fill="none" stroke="#000000" cx="4755" cy="-468.066" rx="34.7971" ry="21.4286"/>
<text text-anchor="middle" x="4755" y="-463.066" font-family="Times,serif" font-size="20.00" fill="#000000">1.0</text>
</g>
<!-- SG_2_Node_5&#45;&gt;SG_2_Node_12 -->
<g id="edge42" class="edge">
<title>SG_2_Node_5&#45;&gt;SG_2_Node_12</title>
<path fill="none" stroke="#000000" d="M4726.1853,-632.3337C4731.633,-601.2775 4742.8005,-537.6134 4749.5206,-499.3032"/>
<polygon fill="#000000" stroke="#000000" points="4753.0091,-499.6727 4751.2896,-489.2183 4746.1144,-498.4632 4753.0091,-499.6727"/>
<text text-anchor="middle" x="4768.5" y="-554.2792" font-family="Times,serif" font-size="20.00" fill="#000000">deny</text>
</g>
<!-- SG_2_Node_13 -->
<g id="node46" class="node">
<title>SG_2_Node_13</title>
<ellipse fill="none" stroke="#000000" cx="4504" cy="-219.6396" rx="34.7971" ry="21.4286"/>
<text text-anchor="middle" x="4504" y="-214.6396" font-family="Times,serif" font-size="20.00" fill="#000000">0.0</text>
</g>
<!-- SG_2_Node_6&#45;&gt;SG_2_Node_13 -->
<g id="edge43" class="edge">
<title>SG_2_Node_6&#45;&gt;SG_2_Node_13</title>
<path fill="none" stroke="#000000" d="M4548.9,-449.843C4537.4995,-439.4446 4524.7691,-425.3988 4518,-409.8528 4495.344,-357.821 4496.7486,-290.2036 4500.1521,-251.1898"/>
<polygon fill="#000000" stroke="#000000" points="4503.6605,-251.2735 4501.1468,-240.9812 4496.6935,-250.5946 4503.6605,-251.2735"/>
<text text-anchor="middle" x="4600.5" y="-360.8528" font-family="Times,serif" font-size="20.00" fill="#000000">[NA]</text>
<text text-anchor="middle" x="4600.5" y="-338.8528" font-family="Times,serif" font-size="20.00" fill="#000000">default&#45;src &#39;self&#39;</text>
<text text-anchor="middle" x="4600.5" y="-316.8528" font-family="Times,serif" font-size="20.00" fill="#000000">empty</text>
</g>
<!-- SG_2_Node_14 -->
<g id="node47" class="node">
<title>SG_2_Node_14</title>
<ellipse fill="none" stroke="#000000" cx="4705" cy="-219.6396" rx="34.7971" ry="21.4286"/>
<text text-anchor="middle" x="4705" y="-214.6396" font-family="Times,serif" font-size="20.00" fill="#000000">1.0</text>
</g>
<!-- SG_2_Node_6&#45;&gt;SG_2_Node_14 -->
<g id="edge44" class="edge">
<title>SG_2_Node_6&#45;&gt;SG_2_Node_14</title>
<path fill="none" stroke="#000000" d="M4630.8329,-449.9481C4650.4656,-440.9846 4670.5022,-428.0633 4683,-409.8528 4715.7223,-362.173 4714.1324,-291.4628 4709.7523,-251.0366"/>
<polygon fill="#000000" stroke="#000000" points="4713.2094,-250.4698 4708.5338,-240.9625 4706.26,-251.3104 4713.2094,-250.4698"/>
<text text-anchor="middle" x="4822.5" y="-338.8528" font-family="Times,serif" font-size="20.00" fill="#000000">frame&#45;ancestors &#39;self&#39;</text>
</g>
</g>
</svg>
