<?xml version="1.0" encoding="UTF-8" standalone="no"?>
<!DOCTYPE svg PUBLIC "-//W3C//DTD SVG 1.1//EN"
 "http://www.w3.org/Graphics/SVG/1.1/DTD/svg11.dtd">
<!-- Generated by graphviz version 2.40.1 (20161225.0304)
 -->
<!-- Title: G Pages: 1 -->
<svg width="924pt" height="1267pt"
 viewBox="0.00 0.00 924.00 1266.56" xmlns="http://www.w3.org/2000/svg" xmlns:xlink="http://www.w3.org/1999/xlink">
<g id="graph0" class="graph" transform="scale(1 1) rotate(0) translate(4 1262.5584)">
<title>G</title>
<polygon fill="#ffffff" stroke="transparent" points="-4,4 -4,-1262.5584 920,-1262.5584 920,4 -4,4"/>
<g id="clust1" class="cluster">
<title>cluster_0</title>
<polygon fill="none" stroke="#000000" points="8,-8 8,-1250.5584 454,-1250.5584 454,-8 8,-8"/>
<text text-anchor="middle" x="231" y="-1214.5584" font-family="Times,serif" font-size="40.00" fill="#000000">Tree 0, Class error</text>
</g>
<g id="clust9" class="cluster">
<title>cluster_1</title>
<polygon fill="none" stroke="#000000" points="462,-8 462,-1250.5584 908,-1250.5584 908,-8 462,-8"/>
<text text-anchor="middle" x="685" y="-1214.5584" font-family="Times,serif" font-size="40.00" fill="#000000">Tree 0, Class load</text>
</g>
<!-- SG_0_Node_0 -->
<g id="node1" class="node">
<title>SG_0_Node_0</title>
<polygon fill="none" stroke="#000000" points="329,-1190.5584 187,-1190.5584 187,-1154.5584 329,-1154.5584 329,-1190.5584"/>
<text text-anchor="middle" x="258" y="-1167.5584" font-family="Times,serif" font-size="20.00" fill="#000000">Status&#45;Code</text>
</g>
<!-- SG_0_Node_1 -->
<g id="node2" class="node">
<title>SG_0_Node_1</title>
<polygon fill="none" stroke="#000000" points="345.5,-1033.3452 28.5,-1033.3452 28.5,-997.3452 345.5,-997.3452 345.5,-1033.3452"/>
<text text-anchor="middle" x="187" y="-1010.3452" font-family="Times,serif" font-size="20.00" fill="#000000">Cross&#45;Origin&#45;Resource&#45;Policy</text>
</g>
<!-- SG_0_Node_0&#45;&gt;SG_0_Node_1 -->
<g id="edge1" class="edge">
<title>SG_0_Node_0&#45;&gt;SG_0_Node_1</title>
<path fill="none" stroke="#000000" d="M249.6495,-1154.2329C244.7827,-1143.541 238.5327,-1129.791 233,-1117.5584 221.56,-1092.2649 208.5856,-1063.421 199.3393,-1042.8379"/>
<polygon fill="#000000" stroke="#000000" points="202.4124,-1041.1373 195.1228,-1033.4488 196.0268,-1044.005 202.4124,-1041.1373"/>
<text text-anchor="middle" x="279" y="-1101.5584" font-family="Times,serif" font-size="20.00" fill="#000000">[NA]</text>
<text text-anchor="middle" x="279" y="-1079.5584" font-family="Times,serif" font-size="20.00" fill="#000000">18 levels</text>
</g>
<!-- SG_0_Node_6 -->
<g id="node3" class="node">
<title>SG_0_Node_6</title>
<ellipse fill="none" stroke="#000000" cx="398" cy="-1015.3452" rx="34.7971" ry="21.4286"/>
<text text-anchor="middle" x="398" y="-1010.3452" font-family="Times,serif" font-size="20.00" fill="#000000">1.0</text>
</g>
<!-- SG_0_Node_0&#45;&gt;SG_0_Node_6 -->
<g id="edge2" class="edge">
<title>SG_0_Node_0&#45;&gt;SG_0_Node_6</title>
<path fill="none" stroke="#000000" d="M283.2251,-1154.3964C296.3972,-1144.3044 312.3579,-1131.0794 325,-1117.5584 346.3715,-1094.7011 366.7211,-1065.3523 380.4792,-1043.9716"/>
<polygon fill="#000000" stroke="#000000" points="383.5545,-1045.6576 385.9557,-1035.3385 377.6435,-1041.9079 383.5545,-1045.6576"/>
<text text-anchor="middle" x="405" y="-1090.5584" font-family="Times,serif" font-size="20.00" fill="#000000">44 levels</text>
</g>
<!-- SG_0_Node_2 -->
<g id="node4" class="node">
<title>SG_0_Node_2</title>
<polygon fill="none" stroke="#000000" points="280,-872.9188 18,-872.9188 18,-836.9188 280,-836.9188 280,-872.9188"/>
<text text-anchor="middle" x="149" y="-849.9188" font-family="Times,serif" font-size="20.00" fill="#000000">X&#45;Content&#45;Type&#45;Options</text>
</g>
<!-- SG_0_Node_1&#45;&gt;SG_0_Node_2 -->
<g id="edge3" class="edge">
<title>SG_0_Node_1&#45;&gt;SG_0_Node_2</title>
<path fill="none" stroke="#000000" d="M182.7148,-997.2541C176.1293,-969.4519 163.467,-915.9947 155.6733,-883.0919"/>
<polygon fill="#000000" stroke="#000000" points="159.0386,-882.114 153.3279,-873.19 152.2271,-883.7275 159.0386,-882.114"/>
<text text-anchor="middle" x="205" y="-941.132" font-family="Times,serif" font-size="20.00" fill="#000000">[NA]</text>
<text text-anchor="middle" x="205" y="-919.132" font-family="Times,serif" font-size="20.00" fill="#000000">empty</text>
</g>
<!-- SG_0_Node_7 -->
<g id="node5" class="node">
<title>SG_0_Node_7</title>
<ellipse fill="none" stroke="#000000" cx="333" cy="-854.9188" rx="34.7971" ry="21.4286"/>
<text text-anchor="middle" x="333" y="-849.9188" font-family="Times,serif" font-size="20.00" fill="#000000">1.0</text>
</g>
<!-- SG_0_Node_1&#45;&gt;SG_0_Node_7 -->
<g id="edge4" class="edge">
<title>SG_0_Node_1&#45;&gt;SG_0_Node_7</title>
<path fill="none" stroke="#000000" d="M203.8536,-997.3168C214.5403,-985.8506 228.6325,-970.6668 241,-957.132 264.4201,-931.5015 290.9195,-902.0073 309.4425,-881.3096"/>
<polygon fill="#000000" stroke="#000000" points="312.0706,-883.6212 316.128,-873.8341 306.8528,-878.9549 312.0706,-883.6212"/>
<text text-anchor="middle" x="341" y="-930.132" font-family="Times,serif" font-size="20.00" fill="#000000">same&#45;origin</text>
</g>
<!-- SG_0_Node_8 -->
<g id="node6" class="node">
<title>SG_0_Node_8</title>
<ellipse fill="none" stroke="#000000" cx="72" cy="-694.4924" rx="34.7971" ry="21.4286"/>
<text text-anchor="middle" x="72" y="-689.4924" font-family="Times,serif" font-size="20.00" fill="#000000">0.0</text>
</g>
<!-- SG_0_Node_2&#45;&gt;SG_0_Node_8 -->
<g id="edge5" class="edge">
<title>SG_0_Node_2&#45;&gt;SG_0_Node_8</title>
<path fill="none" stroke="#000000" d="M130.1544,-836.7861C119.9199,-826.0021 107.7997,-811.5593 100,-796.7056 88.2919,-774.4089 81.0994,-746.7352 76.9407,-725.8082"/>
<polygon fill="#000000" stroke="#000000" points="80.3558,-725.0287 75.0855,-715.8377 73.4739,-726.3092 80.3558,-725.0287"/>
<text text-anchor="middle" x="132" y="-769.7056" font-family="Times,serif" font-size="20.00" fill="#000000">empty</text>
</g>
<!-- SG_0_Node_3 -->
<g id="node7" class="node">
<title>SG_0_Node_3</title>
<polygon fill="none" stroke="#000000" points="279.5,-712.4924 124.5,-712.4924 124.5,-676.4924 279.5,-676.4924 279.5,-712.4924"/>
<text text-anchor="middle" x="202" y="-689.4924" font-family="Times,serif" font-size="20.00" fill="#000000">Content&#45;Type</text>
</g>
<!-- SG_0_Node_2&#45;&gt;SG_0_Node_3 -->
<g id="edge6" class="edge">
<title>SG_0_Node_2&#45;&gt;SG_0_Node_3</title>
<path fill="none" stroke="#000000" d="M154.9767,-836.8277C164.1618,-809.0255 181.8224,-755.5683 192.6925,-722.6655"/>
<polygon fill="#000000" stroke="#000000" points="196.1501,-723.3568 195.9638,-712.7636 189.5034,-721.1608 196.1501,-723.3568"/>
<text text-anchor="middle" x="217" y="-780.7056" font-family="Times,serif" font-size="20.00" fill="#000000">[NA]</text>
<text text-anchor="middle" x="217" y="-758.7056" font-family="Times,serif" font-size="20.00" fill="#000000">nosniff</text>
</g>
<!-- SG_0_Node_9 -->
<g id="node8" class="node">
<title>SG_0_Node_9</title>
<ellipse fill="none" stroke="#000000" cx="51" cy="-446.066" rx="34.7971" ry="21.4286"/>
<text text-anchor="middle" x="51" y="-441.066" font-family="Times,serif" font-size="20.00" fill="#000000">0.0</text>
</g>
<!-- SG_0_Node_3&#45;&gt;SG_0_Node_9 -->
<g id="edge7" class="edge">
<title>SG_0_Node_3&#45;&gt;SG_0_Node_9</title>
<path fill="none" stroke="#000000" d="M132.8252,-676.49C97.276,-665.6935 59.2841,-651.1955 49,-636.2792 16.149,-588.6317 29.2116,-517.0826 40.7217,-476.6838"/>
<polygon fill="#000000" stroke="#000000" points="44.1422,-477.4621 43.6609,-466.8782 37.437,-475.4522 44.1422,-477.4621"/>
<text text-anchor="middle" x="126" y="-587.2792" font-family="Times,serif" font-size="20.00" fill="#000000">application/pdf</text>
<text text-anchor="middle" x="126" y="-565.2792" font-family="Times,serif" font-size="20.00" fill="#000000">text/css</text>
<text text-anchor="middle" x="126" y="-543.2792" font-family="Times,serif" font-size="20.00" fill="#000000">text/html</text>
</g>
<!-- SG_0_Node_4 -->
<g id="node9" class="node">
<title>SG_0_Node_4</title>
<polygon fill="none" stroke="#000000" points="295,-464.066 153,-464.066 153,-428.066 295,-428.066 295,-464.066"/>
<text text-anchor="middle" x="224" y="-441.066" font-family="Times,serif" font-size="20.00" fill="#000000">Status&#45;Code</text>
</g>
<!-- SG_0_Node_3&#45;&gt;SG_0_Node_4 -->
<g id="edge8" class="edge">
<title>SG_0_Node_3&#45;&gt;SG_0_Node_4</title>
<path fill="none" stroke="#000000" d="M203.6177,-676.225C207.416,-633.3342 216.927,-525.9354 221.4861,-474.4537"/>
<polygon fill="#000000" stroke="#000000" points="224.9841,-474.63 222.3799,-464.3602 218.0113,-474.0124 224.9841,-474.63"/>
<text text-anchor="middle" x="329" y="-620.2792" font-family="Times,serif" font-size="20.00" fill="#000000">[NA]</text>
<text text-anchor="middle" x="329" y="-598.2792" font-family="Times,serif" font-size="20.00" fill="#000000">application/javascript</text>
<text text-anchor="middle" x="329" y="-576.2792" font-family="Times,serif" font-size="20.00" fill="#000000">audio/wav</text>
<text text-anchor="middle" x="329" y="-554.2792" font-family="Times,serif" font-size="20.00" fill="#000000">empty</text>
<text text-anchor="middle" x="329" y="-532.2792" font-family="Times,serif" font-size="20.00" fill="#000000">image/png</text>
<text text-anchor="middle" x="329" y="-510.2792" font-family="Times,serif" font-size="20.00" fill="#000000">video/mp4</text>
</g>
<!-- SG_0_Node_5 -->
<g id="node10" class="node">
<title>SG_0_Node_5</title>
<polygon fill="none" stroke="#000000" points="224.5,-237.6396 119.5,-237.6396 119.5,-201.6396 224.5,-201.6396 224.5,-237.6396"/>
<text text-anchor="middle" x="172" y="-214.6396" font-family="Times,serif" font-size="20.00" fill="#000000">Location</text>
</g>
<!-- SG_0_Node_4&#45;&gt;SG_0_Node_5 -->
<g id="edge9" class="edge">
<title>SG_0_Node_4&#45;&gt;SG_0_Node_5</title>
<path fill="none" stroke="#000000" d="M218.7589,-428.0426C215.4967,-416.5784 211.3072,-401.3949 208,-387.8528 196.0443,-338.8979 184.2089,-281.3972 177.5295,-247.8852"/>
<polygon fill="#000000" stroke="#000000" points="180.9257,-247.0176 175.5484,-237.8888 174.0593,-248.3784 180.9257,-247.0176"/>
<text text-anchor="middle" x="227.5" y="-371.8528" font-family="Times,serif" font-size="20.00" fill="#000000">301</text>
<text text-anchor="middle" x="227.5" y="-349.8528" font-family="Times,serif" font-size="20.00" fill="#000000">302</text>
<text text-anchor="middle" x="227.5" y="-327.8528" font-family="Times,serif" font-size="20.00" fill="#000000">303</text>
<text text-anchor="middle" x="227.5" y="-305.8528" font-family="Times,serif" font-size="20.00" fill="#000000">307</text>
<text text-anchor="middle" x="227.5" y="-283.8528" font-family="Times,serif" font-size="20.00" fill="#000000">308</text>
</g>
<!-- SG_0_Node_10 -->
<g id="node11" class="node">
<title>SG_0_Node_10</title>
<ellipse fill="none" stroke="#000000" cx="277" cy="-219.6396" rx="34.7971" ry="21.4286"/>
<text text-anchor="middle" x="277" y="-214.6396" font-family="Times,serif" font-size="20.00" fill="#000000">1.0</text>
</g>
<!-- SG_0_Node_4&#45;&gt;SG_0_Node_10 -->
<g id="edge10" class="edge">
<title>SG_0_Node_4&#45;&gt;SG_0_Node_10</title>
<path fill="none" stroke="#000000" d="M232.2061,-428.0363C237.0932,-416.6983 243.0858,-401.6525 247,-387.8528 260.2572,-341.1135 268.8302,-285.3311 273.2865,-251.2055"/>
<polygon fill="#000000" stroke="#000000" points="276.8042,-251.2865 274.5895,-240.9257 269.8597,-250.4062 276.8042,-251.2865"/>
<text text-anchor="middle" x="315" y="-338.8528" font-family="Times,serif" font-size="20.00" fill="#000000">[NA]</text>
<text text-anchor="middle" x="315" y="-316.8528" font-family="Times,serif" font-size="20.00" fill="#000000">13 levels</text>
</g>
<!-- SG_0_Node_11 -->
<g id="node12" class="node">
<title>SG_0_Node_11</title>
<ellipse fill="none" stroke="#000000" cx="61" cy="-37.2132" rx="34.7971" ry="21.4286"/>
<text text-anchor="middle" x="61" y="-32.2132" font-family="Times,serif" font-size="20.00" fill="#000000">0.0</text>
</g>
<!-- SG_0_Node_5&#45;&gt;SG_0_Node_11 -->
<g id="edge11" class="edge">
<title>SG_0_Node_5&#45;&gt;SG_0_Node_11</title>
<path fill="none" stroke="#000000" d="M123.472,-201.5295C105.3484,-192.2968 86.4157,-179.1873 75,-161.4264 57.1831,-133.7063 55.5766,-95.17 57.2187,-68.4008"/>
<polygon fill="#000000" stroke="#000000" points="60.7089,-68.6617 58.0141,-58.4154 53.731,-68.1059 60.7089,-68.6617"/>
<text text-anchor="middle" x="212" y="-145.4264" font-family="Times,serif" font-size="20.00" fill="#000000">[NA]</text>
<text text-anchor="middle" x="212" y="-123.4264" font-family="Times,serif" font-size="20.00" fill="#000000">/</text>
<text text-anchor="middle" x="212" y="-101.4264" font-family="Times,serif" font-size="20.00" fill="#000000">http://localhost:8000/echo/</text>
</g>
<!-- SG_0_Node_12 -->
<g id="node13" class="node">
<title>SG_0_Node_12</title>
<ellipse fill="none" stroke="#000000" cx="371" cy="-37.2132" rx="34.7971" ry="21.4286"/>
<text text-anchor="middle" x="371" y="-32.2132" font-family="Times,serif" font-size="20.00" fill="#000000">1.0</text>
</g>
<!-- SG_0_Node_5&#45;&gt;SG_0_Node_12 -->
<g id="edge12" class="edge">
<title>SG_0_Node_5&#45;&gt;SG_0_Node_12</title>
<path fill="none" stroke="#000000" d="M223.5526,-201.6066C226.7466,-200.522 229.9152,-199.4546 233,-198.4264 284.3382,-181.3154 313.372,-202.1577 349,-161.4264 371.1486,-136.1052 374.6382,-96.4491 373.8866,-68.7778"/>
<polygon fill="#000000" stroke="#000000" points="377.3668,-68.2762 373.3967,-58.4533 370.3747,-68.608 377.3668,-68.2762"/>
<text text-anchor="middle" x="405" y="-123.4264" font-family="Times,serif" font-size="20.00" fill="#000000">empty</text>
</g>
<!-- SG_1_Node_0 -->
<g id="node14" class="node">
<title>SG_1_Node_0</title>
<polygon fill="none" stroke="#000000" points="695,-1190.5584 553,-1190.5584 553,-1154.5584 695,-1154.5584 695,-1190.5584"/>
<text text-anchor="middle" x="624" y="-1167.5584" font-family="Times,serif" font-size="20.00" fill="#000000">Status&#45;Code</text>
</g>
<!-- SG_1_Node_6 -->
<g id="node15" class="node">
<title>SG_1_Node_6</title>
<ellipse fill="none" stroke="#000000" cx="517" cy="-1015.3452" rx="34.7971" ry="21.4286"/>
<text text-anchor="middle" x="517" y="-1010.3452" font-family="Times,serif" font-size="20.00" fill="#000000">0.0</text>
</g>
<!-- SG_1_Node_0&#45;&gt;SG_1_Node_6 -->
<g id="edge13" class="edge">
<title>SG_1_Node_0&#45;&gt;SG_1_Node_6</title>
<path fill="none" stroke="#000000" d="M599.9446,-1154.3318C588.0274,-1144.418 574.0723,-1131.3752 564,-1117.5584 547.9092,-1095.4858 535.3725,-1067.0252 527.3087,-1045.7434"/>
<polygon fill="#000000" stroke="#000000" points="530.5475,-1044.4092 523.8178,-1036.2261 523.9756,-1046.8198 530.5475,-1044.4092"/>
<text text-anchor="middle" x="610" y="-1090.5584" font-family="Times,serif" font-size="20.00" fill="#000000">44 levels</text>
</g>
<!-- SG_1_Node_1 -->
<g id="node16" class="node">
<title>SG_1_Node_1</title>
<polygon fill="none" stroke="#000000" points="886.5,-1033.3452 569.5,-1033.3452 569.5,-997.3452 886.5,-997.3452 886.5,-1033.3452"/>
<text text-anchor="middle" x="728" y="-1010.3452" font-family="Times,serif" font-size="20.00" fill="#000000">Cross&#45;Origin&#45;Resource&#45;Policy</text>
</g>
<!-- SG_1_Node_0&#45;&gt;SG_1_Node_1 -->
<g id="edge14" class="edge">
<title>SG_1_Node_0&#45;&gt;SG_1_Node_1</title>
<path fill="none" stroke="#000000" d="M635.9301,-1154.5241C654.1698,-1126.9518 689.0986,-1074.1511 710.2985,-1042.1039"/>
<polygon fill="#000000" stroke="#000000" points="713.2905,-1043.9248 715.8887,-1033.6535 707.4523,-1040.0627 713.2905,-1043.9248"/>
<text text-anchor="middle" x="734" y="-1101.5584" font-family="Times,serif" font-size="20.00" fill="#000000">[NA]</text>
<text text-anchor="middle" x="734" y="-1079.5584" font-family="Times,serif" font-size="20.00" fill="#000000">18 levels</text>
</g>
<!-- SG_1_Node_7 -->
<g id="node17" class="node">
<title>SG_1_Node_7</title>
<ellipse fill="none" stroke="#000000" cx="568" cy="-854.9188" rx="34.7971" ry="21.4286"/>
<text text-anchor="middle" x="568" y="-849.9188" font-family="Times,serif" font-size="20.00" fill="#000000">0.0</text>
</g>
<!-- SG_1_Node_1&#45;&gt;SG_1_Node_7 -->
<g id="edge15" class="edge">
<title>SG_1_Node_1&#45;&gt;SG_1_Node_7</title>
<path fill="none" stroke="#000000" d="M671.5644,-997.2953C650.0334,-988.0972 626.6821,-974.9965 610,-957.132 591.4619,-937.28 580.5826,-908.1237 574.5608,-886.0262"/>
<polygon fill="#000000" stroke="#000000" points="577.9011,-884.9588 572.0541,-876.1235 571.1151,-886.6766 577.9011,-884.9588"/>
<text text-anchor="middle" x="671" y="-930.132" font-family="Times,serif" font-size="20.00" fill="#000000">same&#45;origin</text>
</g>
<!-- SG_1_Node_2 -->
<g id="node18" class="node">
<title>SG_1_Node_2</title>
<polygon fill="none" stroke="#000000" points="883,-872.9188 621,-872.9188 621,-836.9188 883,-836.9188 883,-872.9188"/>
<text text-anchor="middle" x="752" y="-849.9188" font-family="Times,serif" font-size="20.00" fill="#000000">X&#45;Content&#45;Type&#45;Options</text>
</g>
<!-- SG_1_Node_1&#45;&gt;SG_1_Node_2 -->
<g id="edge16" class="edge">
<title>SG_1_Node_1&#45;&gt;SG_1_Node_2</title>
<path fill="none" stroke="#000000" d="M730.7065,-997.2541C734.8657,-969.4519 742.863,-915.9947 747.7853,-883.0919"/>
<polygon fill="#000000" stroke="#000000" points="751.2485,-883.5978 749.2666,-873.19 744.3255,-882.562 751.2485,-883.5978"/>
<text text-anchor="middle" x="775" y="-941.132" font-family="Times,serif" font-size="20.00" fill="#000000">[NA]</text>
<text text-anchor="middle" x="775" y="-919.132" font-family="Times,serif" font-size="20.00" fill="#000000">empty</text>
</g>
<!-- SG_1_Node_3 -->
<g id="node19" class="node">
<title>SG_1_Node_3</title>
<polygon fill="none" stroke="#000000" points="752.5,-712.4924 597.5,-712.4924 597.5,-676.4924 752.5,-676.4924 752.5,-712.4924"/>
<text text-anchor="middle" x="675" y="-689.4924" font-family="Times,serif" font-size="20.00" fill="#000000">Content&#45;Type</text>
</g>
<!-- SG_1_Node_2&#45;&gt;SG_1_Node_3 -->
<g id="edge17" class="edge">
<title>SG_1_Node_2&#45;&gt;SG_1_Node_3</title>
<path fill="none" stroke="#000000" d="M729.8926,-836.8707C718.3979,-826.3246 705.0951,-812.085 697,-796.7056 684.8491,-773.6208 679.4075,-744.241 676.9716,-722.9099"/>
<polygon fill="#000000" stroke="#000000" points="680.4445,-722.4632 675.9764,-712.8567 673.4786,-723.1528 680.4445,-722.4632"/>
<text text-anchor="middle" x="732" y="-780.7056" font-family="Times,serif" font-size="20.00" fill="#000000">[NA]</text>
<text text-anchor="middle" x="732" y="-758.7056" font-family="Times,serif" font-size="20.00" fill="#000000">nosniff</text>
</g>
<!-- SG_1_Node_8 -->
<g id="node20" class="node">
<title>SG_1_Node_8</title>
<ellipse fill="none" stroke="#000000" cx="805" cy="-694.4924" rx="34.7971" ry="21.4286"/>
<text text-anchor="middle" x="805" y="-689.4924" font-family="Times,serif" font-size="20.00" fill="#000000">1.0</text>
</g>
<!-- SG_1_Node_2&#45;&gt;SG_1_Node_8 -->
<g id="edge18" class="edge">
<title>SG_1_Node_2&#45;&gt;SG_1_Node_8</title>
<path fill="none" stroke="#000000" d="M757.9767,-836.8277C766.9562,-809.6478 784.0361,-757.9484 794.9526,-724.9051"/>
<polygon fill="#000000" stroke="#000000" points="798.3131,-725.8903 798.1268,-715.2971 791.6664,-723.6944 798.3131,-725.8903"/>
<text text-anchor="middle" x="817" y="-769.7056" font-family="Times,serif" font-size="20.00" fill="#000000">empty</text>
</g>
<!-- SG_1_Node_4 -->
<g id="node21" class="node">
<title>SG_1_Node_4</title>
<polygon fill="none" stroke="#000000" points="612,-464.066 470,-464.066 470,-428.066 612,-428.066 612,-464.066"/>
<text text-anchor="middle" x="541" y="-441.066" font-family="Times,serif" font-size="20.00" fill="#000000">Status&#45;Code</text>
</g>
<!-- SG_1_Node_3&#45;&gt;SG_1_Node_4 -->
<g id="edge19" class="edge">
<title>SG_1_Node_3&#45;&gt;SG_1_Node_4</title>
<path fill="none" stroke="#000000" d="M597.2703,-679.9316C552.1068,-669.7162 501.5042,-654.6265 488,-636.2792 453.2238,-589.031 466.8247,-558.9911 488,-504.2792 492.788,-491.9083 501.5633,-480.5504 510.6144,-471.2155"/>
<polygon fill="#000000" stroke="#000000" points="513.123,-473.6583 517.8615,-464.1821 508.2478,-468.635 513.123,-473.6583"/>
<text text-anchor="middle" x="599" y="-620.2792" font-family="Times,serif" font-size="20.00" fill="#000000">[NA]</text>
<text text-anchor="middle" x="599" y="-598.2792" font-family="Times,serif" font-size="20.00" fill="#000000">application/javascript</text>
<text text-anchor="middle" x="599" y="-576.2792" font-family="Times,serif" font-size="20.00" fill="#000000">audio/wav</text>
<text text-anchor="middle" x="599" y="-554.2792" font-family="Times,serif" font-size="20.00" fill="#000000">empty</text>
<text text-anchor="middle" x="599" y="-532.2792" font-family="Times,serif" font-size="20.00" fill="#000000">image/png</text>
<text text-anchor="middle" x="599" y="-510.2792" font-family="Times,serif" font-size="20.00" fill="#000000">video/mp4</text>
</g>
<!-- SG_1_Node_9 -->
<g id="node22" class="node">
<title>SG_1_Node_9</title>
<ellipse fill="none" stroke="#000000" cx="746" cy="-446.066" rx="34.7971" ry="21.4286"/>
<text text-anchor="middle" x="746" y="-441.066" font-family="Times,serif" font-size="20.00" fill="#000000">1.0</text>
</g>
<!-- SG_1_Node_3&#45;&gt;SG_1_Node_9 -->
<g id="edge20" class="edge">
<title>SG_1_Node_3&#45;&gt;SG_1_Node_9</title>
<path fill="none" stroke="#000000" d="M690.1849,-676.2377C698.4965,-665.3016 708.2465,-650.7483 714,-636.2792 735.1501,-583.0905 742.3227,-516.1294 744.7541,-477.4997"/>
<polygon fill="#000000" stroke="#000000" points="748.2556,-477.571 745.3219,-467.3905 741.2666,-477.1784 748.2556,-477.571"/>
<text text-anchor="middle" x="819" y="-587.2792" font-family="Times,serif" font-size="20.00" fill="#000000">application/pdf</text>
<text text-anchor="middle" x="819" y="-565.2792" font-family="Times,serif" font-size="20.00" fill="#000000">text/css</text>
<text text-anchor="middle" x="819" y="-543.2792" font-family="Times,serif" font-size="20.00" fill="#000000">text/html</text>
</g>
<!-- SG_1_Node_10 -->
<g id="node23" class="node">
<title>SG_1_Node_10</title>
<ellipse fill="none" stroke="#000000" cx="505" cy="-219.6396" rx="34.7971" ry="21.4286"/>
<text text-anchor="middle" x="505" y="-214.6396" font-family="Times,serif" font-size="20.00" fill="#000000">0.0</text>
</g>
<!-- SG_1_Node_4&#45;&gt;SG_1_Node_10 -->
<g id="edge21" class="edge">
<title>SG_1_Node_4&#45;&gt;SG_1_Node_10</title>
<path fill="none" stroke="#000000" d="M530.9193,-428.0571C525.1702,-416.8515 518.4427,-401.9382 515,-387.8528 503.6243,-341.31 502.7109,-285.4727 503.5293,-251.282"/>
<polygon fill="#000000" stroke="#000000" points="507.0369,-251.0835 503.8447,-240.981 500.0402,-250.8692 507.0369,-251.0835"/>
<text text-anchor="middle" x="561" y="-338.8528" font-family="Times,serif" font-size="20.00" fill="#000000">[NA]</text>
<text text-anchor="middle" x="561" y="-316.8528" font-family="Times,serif" font-size="20.00" fill="#000000">13 levels</text>
</g>
<!-- SG_1_Node_5 -->
<g id="node24" class="node">
<title>SG_1_Node_5</title>
<polygon fill="none" stroke="#000000" points="678.5,-237.6396 573.5,-237.6396 573.5,-201.6396 678.5,-201.6396 678.5,-237.6396"/>
<text text-anchor="middle" x="626" y="-214.6396" font-family="Times,serif" font-size="20.00" fill="#000000">Location</text>
</g>
<!-- SG_1_Node_4&#45;&gt;SG_1_Node_5 -->
<g id="edge22" class="edge">
<title>SG_1_Node_4&#45;&gt;SG_1_Node_5</title>
<path fill="none" stroke="#000000" d="M569.9181,-428.0015C583.4984,-417.9204 598.5297,-404.1132 607,-387.8528 630.217,-343.2832 630.8955,-283.2052 628.7862,-248.2211"/>
<polygon fill="#000000" stroke="#000000" points="632.2442,-247.5158 628.0284,-237.7958 625.2626,-248.0233 632.2442,-247.5158"/>
<text text-anchor="middle" x="648.5" y="-371.8528" font-family="Times,serif" font-size="20.00" fill="#000000">301</text>
<text text-anchor="middle" x="648.5" y="-349.8528" font-family="Times,serif" font-size="20.00" fill="#000000">302</text>
<text text-anchor="middle" x="648.5" y="-327.8528" font-family="Times,serif" font-size="20.00" fill="#000000">303</text>
<text text-anchor="middle" x="648.5" y="-305.8528" font-family="Times,serif" font-size="20.00" fill="#000000">307</text>
<text text-anchor="middle" x="648.5" y="-283.8528" font-family="Times,serif" font-size="20.00" fill="#000000">308</text>
</g>
<!-- SG_1_Node_11 -->
<g id="node25" class="node">
<title>SG_1_Node_11</title>
<ellipse fill="none" stroke="#000000" cx="526" cy="-37.2132" rx="34.7971" ry="21.4286"/>
<text text-anchor="middle" x="526" y="-32.2132" font-family="Times,serif" font-size="20.00" fill="#000000">0.0</text>
</g>
<!-- SG_1_Node_5&#45;&gt;SG_1_Node_11 -->
<g id="edge23" class="edge">
<title>SG_1_Node_5&#45;&gt;SG_1_Node_11</title>
<path fill="none" stroke="#000000" d="M597.5131,-201.4605C583.6836,-191.2614 567.9481,-177.3836 558,-161.4264 540.294,-133.0249 532.3484,-95.1595 528.8056,-68.7313"/>
<polygon fill="#000000" stroke="#000000" points="532.246,-68.0247 527.578,-58.5137 525.296,-68.8598 532.246,-68.0247"/>
<text text-anchor="middle" x="590" y="-123.4264" font-family="Times,serif" font-size="20.00" fill="#000000">empty</text>
</g>
<!-- SG_1_Node_12 -->
<g id="node26" class="node">
<title>SG_1_Node_12</title>
<ellipse fill="none" stroke="#000000" cx="626" cy="-37.2132" rx="34.7971" ry="21.4286"/>
<text text-anchor="middle" x="626" y="-32.2132" font-family="Times,serif" font-size="20.00" fill="#000000">1.0</text>
</g>
<!-- SG_1_Node_5&#45;&gt;SG_1_Node_12 -->
<g id="edge24" class="edge">
<title>SG_1_Node_5&#45;&gt;SG_1_Node_12</title>
<path fill="none" stroke="#000000" d="M626,-201.4809C626,-170.507 626,-107.0981 626,-68.7558"/>
<polygon fill="#000000" stroke="#000000" points="629.5001,-68.6538 626,-58.6538 622.5001,-68.6538 629.5001,-68.6538"/>
<text text-anchor="middle" x="763" y="-145.4264" font-family="Times,serif" font-size="20.00" fill="#000000">[NA]</text>
<text text-anchor="middle" x="763" y="-123.4264" font-family="Times,serif" font-size="20.00" fill="#000000">/</text>
<text text-anchor="middle" x="763" y="-101.4264" font-family="Times,serif" font-size="20.00" fill="#000000">http://localhost:8000/echo/</text>
</g>
</g>
</svg>
