<?xml version="1.0" encoding="UTF-8" standalone="no"?>
<!DOCTYPE svg PUBLIC "-//W3C//DTD SVG 1.1//EN"
 "http://www.w3.org/Graphics/SVG/1.1/DTD/svg11.dtd">
<!-- Generated by graphviz version 2.40.1 (20161225.0304)
 -->
<!-- Title: G Pages: 1 -->
<svg width="4820pt" height="1757pt"
 viewBox="0.00 0.00 4820.00 1756.98" xmlns="http://www.w3.org/2000/svg" xmlns:xlink="http://www.w3.org/1999/xlink">
<g id="graph0" class="graph" transform="scale(1 1) rotate(0) translate(4 1752.9848)">
<title>G</title>
<polygon fill="#ffffff" stroke="transparent" points="-4,4 -4,-1752.9848 4816,-1752.9848 4816,4 -4,4"/>
<g id="clust1" class="cluster">
<title>cluster_0</title>
<polygon fill="none" stroke="#000000" points="8,-8 8,-1740.9848 661,-1740.9848 661,-8 8,-8"/>
<text text-anchor="middle" x="334.5" y="-1704.9848" font-family="Times,serif" font-size="40.00" fill="#000000">Tree 0, Class js&#45;null</text>
</g>
<g id="clust11" class="cluster">
<title>cluster_1</title>
<polygon fill="none" stroke="#000000" points="669,-8 669,-1740.9848 4804,-1740.9848 4804,-8 669,-8"/>
<text text-anchor="middle" x="2736.5" y="-1704.9848" font-family="Times,serif" font-size="40.00" fill="#000000">Tree 0, Class {&#39;location&#39;: {&#39;hash&#39;: &#39;&#39;, &#39;host&#39;: &#39;&#39;, &#39;href&#39;: &#39;about:blank&#39;, &#39;port&#39;: &#39;&#39;, &#39;origin&#39;: &#39;null&#39;, &#39;search&#39;: &#39;&#39;, &#39;hostname&#39;: &#39;&#39;, &#39;pathname&#39;: &#39;blank&#39;, &#39;protocol&#39;: &#39;about:&#39;, &#39;ancestorOrigins&#39;: {&#39;0&#39;: &#39;http://localhost:8001&#39;}}}</text>
</g>
<!-- SG_0_Node_0 -->
<g id="node1" class="node">
<title>SG_0_Node_0</title>
<polygon fill="none" stroke="#000000" points="305,-1680.9848 163,-1680.9848 163,-1644.9848 305,-1644.9848 305,-1680.9848"/>
<text text-anchor="middle" x="234" y="-1657.9848" font-family="Times,serif" font-size="20.00" fill="#000000">Status&#45;Code</text>
</g>
<!-- SG_0_Node_1 -->
<g id="node2" class="node">
<title>SG_0_Node_1</title>
<polygon fill="none" stroke="#000000" points="238,-1460.9848 96,-1460.9848 96,-1424.9848 238,-1424.9848 238,-1460.9848"/>
<text text-anchor="middle" x="167" y="-1437.9848" font-family="Times,serif" font-size="20.00" fill="#000000">Status&#45;Code</text>
</g>
<!-- SG_0_Node_0&#45;&gt;SG_0_Node_1 -->
<g id="edge1" class="edge">
<title>SG_0_Node_0&#45;&gt;SG_0_Node_1</title>
<path fill="none" stroke="#000000" d="M215.7672,-1644.7285C206.851,-1634.7099 196.8127,-1621.5814 191,-1607.9848 171.6964,-1562.8317 167.4374,-1505.0666 166.7607,-1471.2319"/>
<polygon fill="#000000" stroke="#000000" points="170.2595,-1471.0956 166.6523,-1461.1337 163.2599,-1471.1708 170.2595,-1471.0956"/>
<text text-anchor="middle" x="237" y="-1558.9848" font-family="Times,serif" font-size="20.00" fill="#000000">[NA]</text>
<text text-anchor="middle" x="237" y="-1536.9848" font-family="Times,serif" font-size="20.00" fill="#000000">57 levels</text>
</g>
<!-- SG_0_Node_2 -->
<g id="node3" class="node">
<title>SG_0_Node_2</title>
<polygon fill="none" stroke="#000000" points="361.5,-1460.9848 256.5,-1460.9848 256.5,-1424.9848 361.5,-1424.9848 361.5,-1460.9848"/>
<text text-anchor="middle" x="309" y="-1437.9848" font-family="Times,serif" font-size="20.00" fill="#000000">Location</text>
</g>
<!-- SG_0_Node_0&#45;&gt;SG_0_Node_2 -->
<g id="edge2" class="edge">
<title>SG_0_Node_0&#45;&gt;SG_0_Node_2</title>
<path fill="none" stroke="#000000" d="M255.2357,-1644.6545C265.2584,-1634.8079 276.4353,-1621.856 283,-1607.9848 304.0442,-1563.5186 308.6152,-1505.53 309.3043,-1471.4663"/>
<polygon fill="#000000" stroke="#000000" points="312.8058,-1471.3299 309.4077,-1461.2949 305.8062,-1471.2588 312.8058,-1471.3299"/>
<text text-anchor="middle" x="327.5" y="-1591.9848" font-family="Times,serif" font-size="20.00" fill="#000000">301</text>
<text text-anchor="middle" x="327.5" y="-1569.9848" font-family="Times,serif" font-size="20.00" fill="#000000">302</text>
<text text-anchor="middle" x="327.5" y="-1547.9848" font-family="Times,serif" font-size="20.00" fill="#000000">303</text>
<text text-anchor="middle" x="327.5" y="-1525.9848" font-family="Times,serif" font-size="20.00" fill="#000000">307</text>
<text text-anchor="middle" x="327.5" y="-1503.9848" font-family="Times,serif" font-size="20.00" fill="#000000">308</text>
</g>
<!-- SG_0_Node_9 -->
<g id="node4" class="node">
<title>SG_0_Node_9</title>
<ellipse fill="none" stroke="#000000" cx="51" cy="-1153.7716" rx="34.7971" ry="21.4286"/>
<text text-anchor="middle" x="51" y="-1148.7716" font-family="Times,serif" font-size="20.00" fill="#000000">0.0</text>
</g>
<!-- SG_0_Node_1&#45;&gt;SG_0_Node_9 -->
<g id="edge5" class="edge">
<title>SG_0_Node_1&#45;&gt;SG_0_Node_9</title>
<path fill="none" stroke="#000000" d="M122.843,-1424.9407C106.8028,-1416.1604 90.1435,-1403.9814 80,-1387.9848 40.0185,-1324.933 42.2612,-1232.9771 46.875,-1185.2096"/>
<polygon fill="#000000" stroke="#000000" points="50.3663,-1185.476 47.9453,-1175.1615 43.4057,-1184.7345 50.3663,-1185.476"/>
<text text-anchor="middle" x="126" y="-1305.9848" font-family="Times,serif" font-size="20.00" fill="#000000">[NA]</text>
<text text-anchor="middle" x="126" y="-1283.9848" font-family="Times,serif" font-size="20.00" fill="#000000">49 levels</text>
</g>
<!-- SG_0_Node_3 -->
<g id="node5" class="node">
<title>SG_0_Node_3</title>
<polygon fill="none" stroke="#000000" points="324.5,-1171.7716 103.5,-1171.7716 103.5,-1135.7716 324.5,-1135.7716 324.5,-1171.7716"/>
<text text-anchor="middle" x="214" y="-1148.7716" font-family="Times,serif" font-size="20.00" fill="#000000">Content&#45;Disposition</text>
</g>
<!-- SG_0_Node_1&#45;&gt;SG_0_Node_3 -->
<g id="edge6" class="edge">
<title>SG_0_Node_1&#45;&gt;SG_0_Node_3</title>
<path fill="none" stroke="#000000" d="M169.9401,-1424.8933C177.8861,-1375.9978 199.8354,-1240.9334 209.4212,-1181.9471"/>
<polygon fill="#000000" stroke="#000000" points="212.9116,-1182.2883 211.0611,-1171.8564 206.0022,-1181.1655 212.9116,-1182.2883"/>
<text text-anchor="middle" x="223.5" y="-1371.9848" font-family="Times,serif" font-size="20.00" fill="#000000">200</text>
<text text-anchor="middle" x="223.5" y="-1349.9848" font-family="Times,serif" font-size="20.00" fill="#000000">201</text>
<text text-anchor="middle" x="223.5" y="-1327.9848" font-family="Times,serif" font-size="20.00" fill="#000000">202</text>
<text text-anchor="middle" x="223.5" y="-1305.9848" font-family="Times,serif" font-size="20.00" fill="#000000">203</text>
<text text-anchor="middle" x="223.5" y="-1283.9848" font-family="Times,serif" font-size="20.00" fill="#000000">206</text>
<text text-anchor="middle" x="223.5" y="-1261.9848" font-family="Times,serif" font-size="20.00" fill="#000000">207</text>
<text text-anchor="middle" x="223.5" y="-1239.9848" font-family="Times,serif" font-size="20.00" fill="#000000">208</text>
<text text-anchor="middle" x="223.5" y="-1217.9848" font-family="Times,serif" font-size="20.00" fill="#000000">226</text>
</g>
<!-- SG_0_Node_10 -->
<g id="node6" class="node">
<title>SG_0_Node_10</title>
<ellipse fill="none" stroke="#000000" cx="377" cy="-1153.7716" rx="34.7971" ry="21.4286"/>
<text text-anchor="middle" x="377" y="-1148.7716" font-family="Times,serif" font-size="20.00" fill="#000000">0.0</text>
</g>
<!-- SG_0_Node_2&#45;&gt;SG_0_Node_10 -->
<g id="edge3" class="edge">
<title>SG_0_Node_2&#45;&gt;SG_0_Node_10</title>
<path fill="none" stroke="#000000" d="M301.6839,-1424.8845C286.448,-1384.1374 255.7026,-1283.2109 293,-1211.9848 298.5816,-1201.3258 321.8256,-1185.622 342.4508,-1173.2103"/>
<polygon fill="#000000" stroke="#000000" points="344.2419,-1176.2174 351.0707,-1168.1169 340.6808,-1170.1908 344.2419,-1176.2174"/>
<text text-anchor="middle" x="325" y="-1294.9848" font-family="Times,serif" font-size="20.00" fill="#000000">empty</text>
</g>
<!-- SG_0_Node_11 -->
<g id="node7" class="node">
<title>SG_0_Node_11</title>
<ellipse fill="none" stroke="#000000" cx="464" cy="-1153.7716" rx="34.7971" ry="21.4286"/>
<text text-anchor="middle" x="464" y="-1148.7716" font-family="Times,serif" font-size="20.00" fill="#000000">1.0</text>
</g>
<!-- SG_0_Node_2&#45;&gt;SG_0_Node_11 -->
<g id="edge4" class="edge">
<title>SG_0_Node_2&#45;&gt;SG_0_Node_11</title>
<path fill="none" stroke="#000000" d="M329.1104,-1424.9732C338.9971,-1415.0216 350.2164,-1401.8791 357,-1387.9848 391.953,-1316.3933 349.7513,-1280.1435 391,-1211.9848 400.3828,-1196.4808 415.4926,-1183.4162 429.5379,-1173.6172"/>
<polygon fill="#000000" stroke="#000000" points="431.6879,-1176.3911 438.0848,-1167.9454 427.8173,-1170.5585 431.6879,-1176.3911"/>
<text text-anchor="middle" x="528" y="-1316.9848" font-family="Times,serif" font-size="20.00" fill="#000000">[NA]</text>
<text text-anchor="middle" x="528" y="-1294.9848" font-family="Times,serif" font-size="20.00" fill="#000000">/</text>
<text text-anchor="middle" x="528" y="-1272.9848" font-family="Times,serif" font-size="20.00" fill="#000000">http://localhost:8000/echo/</text>
</g>
<!-- SG_0_Node_12 -->
<g id="node8" class="node">
<title>SG_0_Node_12</title>
<ellipse fill="none" stroke="#000000" cx="83" cy="-993.3452" rx="34.7971" ry="21.4286"/>
<text text-anchor="middle" x="83" y="-988.3452" font-family="Times,serif" font-size="20.00" fill="#000000">0.0</text>
</g>
<!-- SG_0_Node_3&#45;&gt;SG_0_Node_12 -->
<g id="edge7" class="edge">
<title>SG_0_Node_3&#45;&gt;SG_0_Node_12</title>
<path fill="none" stroke="#000000" d="M154.107,-1135.6453C133.9991,-1126.6809 113.3205,-1113.7612 100,-1095.5584 85.1188,-1075.223 81.4331,-1046.5386 81.1465,-1024.7306"/>
<polygon fill="#000000" stroke="#000000" points="84.6471,-1024.6775 81.2447,-1014.6439 77.6474,-1024.6093 84.6471,-1024.6775"/>
<text text-anchor="middle" x="159" y="-1068.5584" font-family="Times,serif" font-size="20.00" fill="#000000">attachment</text>
</g>
<!-- SG_0_Node_4 -->
<g id="node9" class="node">
<title>SG_0_Node_4</title>
<polygon fill="none" stroke="#000000" points="332.5,-1011.3452 141.5,-1011.3452 141.5,-975.3452 332.5,-975.3452 332.5,-1011.3452"/>
<text text-anchor="middle" x="237" y="-988.3452" font-family="Times,serif" font-size="20.00" fill="#000000">X&#45;Frame&#45;Options</text>
</g>
<!-- SG_0_Node_3&#45;&gt;SG_0_Node_4 -->
<g id="edge8" class="edge">
<title>SG_0_Node_3&#45;&gt;SG_0_Node_4</title>
<path fill="none" stroke="#000000" d="M216.5937,-1135.6805C220.5796,-1107.8783 228.2437,-1054.4211 232.9609,-1021.5183"/>
<polygon fill="#000000" stroke="#000000" points="236.4258,-1022.0119 234.3805,-1011.6164 229.4967,-1021.0184 236.4258,-1022.0119"/>
<text text-anchor="middle" x="260" y="-1079.5584" font-family="Times,serif" font-size="20.00" fill="#000000">[NA]</text>
<text text-anchor="middle" x="260" y="-1057.5584" font-family="Times,serif" font-size="20.00" fill="#000000">empty</text>
</g>
<!-- SG_0_Node_13 -->
<g id="node10" class="node">
<title>SG_0_Node_13</title>
<ellipse fill="none" stroke="#000000" cx="139" cy="-832.9188" rx="34.7971" ry="21.4286"/>
<text text-anchor="middle" x="139" y="-827.9188" font-family="Times,serif" font-size="20.00" fill="#000000">0.0</text>
</g>
<!-- SG_0_Node_4&#45;&gt;SG_0_Node_13 -->
<g id="edge9" class="edge">
<title>SG_0_Node_4&#45;&gt;SG_0_Node_13</title>
<path fill="none" stroke="#000000" d="M225.9487,-975.2541C209.0648,-947.6152 176.6925,-894.6216 156.5655,-861.6736"/>
<polygon fill="#000000" stroke="#000000" points="159.4363,-859.659 151.2364,-852.9499 153.4626,-863.3082 159.4363,-859.659"/>
<text text-anchor="middle" x="224.5" y="-908.132" font-family="Times,serif" font-size="20.00" fill="#000000">deny</text>
</g>
<!-- SG_0_Node_5 -->
<g id="node11" class="node">
<title>SG_0_Node_5</title>
<polygon fill="none" stroke="#000000" points="452,-850.9188 192,-850.9188 192,-814.9188 452,-814.9188 452,-850.9188"/>
<text text-anchor="middle" x="322" y="-827.9188" font-family="Times,serif" font-size="20.00" fill="#000000">Content&#45;Security&#45;Policy</text>
</g>
<!-- SG_0_Node_4&#45;&gt;SG_0_Node_5 -->
<g id="edge10" class="edge">
<title>SG_0_Node_4&#45;&gt;SG_0_Node_5</title>
<path fill="none" stroke="#000000" d="M246.5854,-975.2541C261.4436,-947.2112 290.1312,-893.0671 307.5232,-860.2419"/>
<polygon fill="#000000" stroke="#000000" points="310.7301,-861.6649 312.3193,-851.19 304.5447,-858.3876 310.7301,-861.6649"/>
<text text-anchor="middle" x="322" y="-919.132" font-family="Times,serif" font-size="20.00" fill="#000000">[NA]</text>
<text text-anchor="middle" x="322" y="-897.132" font-family="Times,serif" font-size="20.00" fill="#000000">empty</text>
</g>
<!-- SG_0_Node_14 -->
<g id="node12" class="node">
<title>SG_0_Node_14</title>
<ellipse fill="none" stroke="#000000" cx="88" cy="-650.4924" rx="34.7971" ry="21.4286"/>
<text text-anchor="middle" x="88" y="-645.4924" font-family="Times,serif" font-size="20.00" fill="#000000">0.0</text>
</g>
<!-- SG_0_Node_5&#45;&gt;SG_0_Node_14 -->
<g id="edge11" class="edge">
<title>SG_0_Node_5&#45;&gt;SG_0_Node_14</title>
<path fill="none" stroke="#000000" d="M210.2503,-814.8817C164.5316,-805.1822 118.8674,-791.6918 104,-774.7056 81.9054,-749.4622 80.6315,-709.5279 83.1069,-681.7803"/>
<polygon fill="#000000" stroke="#000000" points="86.5904,-682.1209 84.2036,-671.7984 79.6323,-681.3563 86.5904,-682.1209"/>
<text text-anchor="middle" x="214.5" y="-736.7056" font-family="Times,serif" font-size="20.00" fill="#000000">frame&#45;ancestors &#39;self&#39;</text>
</g>
<!-- SG_0_Node_6 -->
<g id="node13" class="node">
<title>SG_0_Node_6</title>
<polygon fill="none" stroke="#000000" points="422.5,-668.4924 267.5,-668.4924 267.5,-632.4924 422.5,-632.4924 422.5,-668.4924"/>
<text text-anchor="middle" x="345" y="-645.4924" font-family="Times,serif" font-size="20.00" fill="#000000">Content&#45;Type</text>
</g>
<!-- SG_0_Node_5&#45;&gt;SG_0_Node_6 -->
<g id="edge12" class="edge">
<title>SG_0_Node_5&#45;&gt;SG_0_Node_6</title>
<path fill="none" stroke="#000000" d="M324.2894,-814.7602C328.302,-782.9343 336.6319,-716.8646 341.4147,-678.9293"/>
<polygon fill="#000000" stroke="#000000" points="344.9414,-678.937 342.7198,-668.5777 337.9964,-678.0613 344.9414,-678.937"/>
<text text-anchor="middle" x="419.5" y="-758.7056" font-family="Times,serif" font-size="20.00" fill="#000000">[NA]</text>
<text text-anchor="middle" x="419.5" y="-736.7056" font-family="Times,serif" font-size="20.00" fill="#000000">default&#45;src &#39;self&#39;</text>
<text text-anchor="middle" x="419.5" y="-714.7056" font-family="Times,serif" font-size="20.00" fill="#000000">empty</text>
</g>
<!-- SG_0_Node_7 -->
<g id="node14" class="node">
<title>SG_0_Node_7</title>
<polygon fill="none" stroke="#000000" points="327.5,-376.066 262.5,-376.066 262.5,-340.066 327.5,-340.066 327.5,-376.066"/>
<text text-anchor="middle" x="295" y="-353.066" font-family="Times,serif" font-size="20.00" fill="#000000">body</text>
</g>
<!-- SG_0_Node_6&#45;&gt;SG_0_Node_7 -->
<g id="edge13" class="edge">
<title>SG_0_Node_6&#45;&gt;SG_0_Node_7</title>
<path fill="none" stroke="#000000" d="M330.4449,-632.2608C322.5933,-621.3325 313.5933,-606.7792 309,-592.2792 286.385,-520.8884 289.0311,-431.2467 292.3196,-386.3844"/>
<polygon fill="#000000" stroke="#000000" points="295.8228,-386.4836 293.1323,-376.236 288.8451,-385.9247 295.8228,-386.4836"/>
<text text-anchor="middle" x="341" y="-499.2792" font-family="Times,serif" font-size="20.00" fill="#000000">empty</text>
</g>
<!-- SG_0_Node_15 -->
<g id="node15" class="node">
<title>SG_0_Node_15</title>
<ellipse fill="none" stroke="#000000" cx="395" cy="-358.066" rx="34.7971" ry="21.4286"/>
<text text-anchor="middle" x="395" y="-353.066" font-family="Times,serif" font-size="20.00" fill="#000000">1.0</text>
</g>
<!-- SG_0_Node_6&#45;&gt;SG_0_Node_15 -->
<g id="edge14" class="edge">
<title>SG_0_Node_6&#45;&gt;SG_0_Node_15</title>
<path fill="none" stroke="#000000" d="M355.8357,-632.2767C361.9379,-621.1185 369.0974,-606.3264 373,-592.2792 392.5845,-521.7872 395.5327,-435.2643 395.5376,-389.6635"/>
<polygon fill="#000000" stroke="#000000" points="399.037,-389.4977 395.4891,-379.5146 392.037,-389.5313 399.037,-389.4977"/>
<text text-anchor="middle" x="506" y="-576.2792" font-family="Times,serif" font-size="20.00" fill="#000000">[NA]</text>
<text text-anchor="middle" x="506" y="-554.2792" font-family="Times,serif" font-size="20.00" fill="#000000">application/javascript</text>
<text text-anchor="middle" x="506" y="-532.2792" font-family="Times,serif" font-size="20.00" fill="#000000">application/pdf</text>
<text text-anchor="middle" x="506" y="-510.2792" font-family="Times,serif" font-size="20.00" fill="#000000">audio/wav</text>
<text text-anchor="middle" x="506" y="-488.2792" font-family="Times,serif" font-size="20.00" fill="#000000">image/png</text>
<text text-anchor="middle" x="506" y="-466.2792" font-family="Times,serif" font-size="20.00" fill="#000000">text/css</text>
<text text-anchor="middle" x="506" y="-444.2792" font-family="Times,serif" font-size="20.00" fill="#000000">text/html</text>
<text text-anchor="middle" x="506" y="-422.2792" font-family="Times,serif" font-size="20.00" fill="#000000">video/mp4</text>
</g>
<!-- SG_0_Node_8 -->
<g id="node16" class="node">
<title>SG_0_Node_8</title>
<polygon fill="none" stroke="#000000" points="278,-215.6396 16,-215.6396 16,-179.6396 278,-179.6396 278,-215.6396"/>
<text text-anchor="middle" x="147" y="-192.6396" font-family="Times,serif" font-size="20.00" fill="#000000">X&#45;Content&#45;Type&#45;Options</text>
</g>
<!-- SG_0_Node_7&#45;&gt;SG_0_Node_8 -->
<g id="edge15" class="edge">
<title>SG_0_Node_7&#45;&gt;SG_0_Node_8</title>
<path fill="none" stroke="#000000" d="M262.2807,-355.2808C201.3774,-349.3457 74.3901,-333.1856 48,-299.8528 35.8613,-284.5207 38.2897,-272.8272 48,-255.8528 56.6487,-240.7343 70.9224,-229.1553 85.9753,-220.4606"/>
<polygon fill="#000000" stroke="#000000" points="87.7394,-223.4861 94.8916,-215.6697 84.4261,-217.3198 87.7394,-223.4861"/>
<text text-anchor="middle" x="293.5" y="-283.8528" font-family="Times,serif" font-size="20.00" fill="#000000">ecocnt_audio=duration=1</text>
<text text-anchor="middle" x="293.5" y="-261.8528" font-family="Times,serif" font-size="20.00" fill="#000000">ecocnt_vid=width=100,height=100,duration=2</text>
</g>
<!-- SG_0_Node_16 -->
<g id="node17" class="node">
<title>SG_0_Node_16</title>
<ellipse fill="none" stroke="#000000" cx="561" cy="-197.6396" rx="34.7971" ry="21.4286"/>
<text text-anchor="middle" x="561" y="-192.6396" font-family="Times,serif" font-size="20.00" fill="#000000">1.0</text>
</g>
<!-- SG_0_Node_7&#45;&gt;SG_0_Node_16 -->
<g id="edge16" class="edge">
<title>SG_0_Node_7&#45;&gt;SG_0_Node_16</title>
<path fill="none" stroke="#000000" d="M327.5589,-344.6804C335.1694,-341.8465 343.3026,-339.0514 351,-336.8528 432.8838,-313.465 478.2541,-359.5343 539,-299.8528 557.4435,-281.7325 562.1737,-252.1323 562.7411,-229.4372"/>
<polygon fill="#000000" stroke="#000000" points="566.2411,-229.2451 562.7354,-219.2471 559.2411,-229.2491 566.2411,-229.2451"/>
<text text-anchor="middle" x="605" y="-283.8528" font-family="Times,serif" font-size="20.00" fill="#000000">[NA]</text>
<text text-anchor="middle" x="605" y="-261.8528" font-family="Times,serif" font-size="20.00" fill="#000000">11 levels</text>
</g>
<!-- SG_0_Node_17 -->
<g id="node18" class="node">
<title>SG_0_Node_17</title>
<ellipse fill="none" stroke="#000000" cx="99" cy="-37.2132" rx="34.7971" ry="21.4286"/>
<text text-anchor="middle" x="99" y="-32.2132" font-family="Times,serif" font-size="20.00" fill="#000000">0.0</text>
</g>
<!-- SG_0_Node_8&#45;&gt;SG_0_Node_17 -->
<g id="edge17" class="edge">
<title>SG_0_Node_8&#45;&gt;SG_0_Node_17</title>
<path fill="none" stroke="#000000" d="M133.8364,-179.4114C126.5211,-168.3683 117.9263,-153.6983 113,-139.4264 105.0872,-116.5024 101.6283,-89.2347 100.1254,-68.6308"/>
<polygon fill="#000000" stroke="#000000" points="103.6111,-68.2886 99.5046,-58.522 96.6242,-68.7178 103.6111,-68.2886"/>
<text text-anchor="middle" x="145" y="-112.4264" font-family="Times,serif" font-size="20.00" fill="#000000">empty</text>
</g>
<!-- SG_0_Node_18 -->
<g id="node19" class="node">
<title>SG_0_Node_18</title>
<ellipse fill="none" stroke="#000000" cx="199" cy="-37.2132" rx="34.7971" ry="21.4286"/>
<text text-anchor="middle" x="199" y="-32.2132" font-family="Times,serif" font-size="20.00" fill="#000000">1.0</text>
</g>
<!-- SG_0_Node_8&#45;&gt;SG_0_Node_18 -->
<g id="edge18" class="edge">
<title>SG_0_Node_8&#45;&gt;SG_0_Node_18</title>
<path fill="none" stroke="#000000" d="M157.8807,-179.5854C164.2399,-168.3632 171.9779,-153.4483 177,-139.4264 185.2871,-116.2885 190.9623,-89.0333 194.4702,-68.4885"/>
<polygon fill="#000000" stroke="#000000" points="197.958,-68.8462 196.1095,-58.4139 191.0488,-67.7219 197.958,-68.8462"/>
<text text-anchor="middle" x="224" y="-123.4264" font-family="Times,serif" font-size="20.00" fill="#000000">[NA]</text>
<text text-anchor="middle" x="224" y="-101.4264" font-family="Times,serif" font-size="20.00" fill="#000000">nosniff</text>
</g>
<!-- SG_1_Node_0 -->
<g id="node20" class="node">
<title>SG_1_Node_0</title>
<polygon fill="none" stroke="#000000" points="1176,-1680.9848 1034,-1680.9848 1034,-1644.9848 1176,-1644.9848 1176,-1680.9848"/>
<text text-anchor="middle" x="1105" y="-1657.9848" font-family="Times,serif" font-size="20.00" fill="#000000">Status&#45;Code</text>
</g>
<!-- SG_1_Node_1 -->
<g id="node21" class="node">
<title>SG_1_Node_1</title>
<polygon fill="none" stroke="#000000" points="1077.5,-1460.9848 972.5,-1460.9848 972.5,-1424.9848 1077.5,-1424.9848 1077.5,-1460.9848"/>
<text text-anchor="middle" x="1025" y="-1437.9848" font-family="Times,serif" font-size="20.00" fill="#000000">Location</text>
</g>
<!-- SG_1_Node_0&#45;&gt;SG_1_Node_1 -->
<g id="edge19" class="edge">
<title>SG_1_Node_0&#45;&gt;SG_1_Node_1</title>
<path fill="none" stroke="#000000" d="M1098.4533,-1644.9813C1084.5066,-1606.628 1051.7828,-1516.6375 1035.1257,-1470.8307"/>
<polygon fill="#000000" stroke="#000000" points="1038.344,-1469.439 1031.6372,-1461.2371 1031.7654,-1471.8312 1038.344,-1469.439"/>
<text text-anchor="middle" x="1103.5" y="-1591.9848" font-family="Times,serif" font-size="20.00" fill="#000000">301</text>
<text text-anchor="middle" x="1103.5" y="-1569.9848" font-family="Times,serif" font-size="20.00" fill="#000000">302</text>
<text text-anchor="middle" x="1103.5" y="-1547.9848" font-family="Times,serif" font-size="20.00" fill="#000000">303</text>
<text text-anchor="middle" x="1103.5" y="-1525.9848" font-family="Times,serif" font-size="20.00" fill="#000000">307</text>
<text text-anchor="middle" x="1103.5" y="-1503.9848" font-family="Times,serif" font-size="20.00" fill="#000000">308</text>
</g>
<!-- SG_1_Node_2 -->
<g id="node22" class="node">
<title>SG_1_Node_2</title>
<polygon fill="none" stroke="#000000" points="1256,-1460.9848 1114,-1460.9848 1114,-1424.9848 1256,-1424.9848 1256,-1460.9848"/>
<text text-anchor="middle" x="1185" y="-1437.9848" font-family="Times,serif" font-size="20.00" fill="#000000">Status&#45;Code</text>
</g>
<!-- SG_1_Node_0&#45;&gt;SG_1_Node_2 -->
<g id="edge20" class="edge">
<title>SG_1_Node_0&#45;&gt;SG_1_Node_2</title>
<path fill="none" stroke="#000000" d="M1112.5289,-1644.7273C1116.8718,-1634.0582 1122.3718,-1620.3082 1127,-1607.9848 1144.9175,-1560.2766 1164.271,-1504.2035 1175.4762,-1471.2397"/>
<polygon fill="#000000" stroke="#000000" points="1178.9197,-1471.9834 1178.8158,-1461.3891 1172.2903,-1469.7359 1178.9197,-1471.9834"/>
<text text-anchor="middle" x="1212" y="-1558.9848" font-family="Times,serif" font-size="20.00" fill="#000000">[NA]</text>
<text text-anchor="middle" x="1212" y="-1536.9848" font-family="Times,serif" font-size="20.00" fill="#000000">57 levels</text>
</g>
<!-- SG_1_Node_9 -->
<g id="node23" class="node">
<title>SG_1_Node_9</title>
<ellipse fill="none" stroke="#000000" cx="715" cy="-1153.7716" rx="34.7971" ry="21.4286"/>
<text text-anchor="middle" x="715" y="-1148.7716" font-family="Times,serif" font-size="20.00" fill="#000000">0.0</text>
</g>
<!-- SG_1_Node_1&#45;&gt;SG_1_Node_9 -->
<g id="edge35" class="edge">
<title>SG_1_Node_1&#45;&gt;SG_1_Node_9</title>
<path fill="none" stroke="#000000" d="M972.2612,-1439.883C899.6331,-1434.4512 774.3381,-1420.5276 744,-1387.9848 692.2239,-1332.4462 700.2123,-1234.5814 708.5705,-1184.7742"/>
<polygon fill="#000000" stroke="#000000" points="712.0197,-1185.3684 710.3383,-1174.9079 705.1294,-1184.1338 712.0197,-1185.3684"/>
<text text-anchor="middle" x="881" y="-1316.9848" font-family="Times,serif" font-size="20.00" fill="#000000">[NA]</text>
<text text-anchor="middle" x="881" y="-1294.9848" font-family="Times,serif" font-size="20.00" fill="#000000">/</text>
<text text-anchor="middle" x="881" y="-1272.9848" font-family="Times,serif" font-size="20.00" fill="#000000">http://localhost:8000/echo/</text>
</g>
<!-- SG_1_Node_10 -->
<g id="node24" class="node">
<title>SG_1_Node_10</title>
<ellipse fill="none" stroke="#000000" cx="1022" cy="-1153.7716" rx="34.7971" ry="21.4286"/>
<text text-anchor="middle" x="1022" y="-1148.7716" font-family="Times,serif" font-size="20.00" fill="#000000">1.0</text>
</g>
<!-- SG_1_Node_1&#45;&gt;SG_1_Node_10 -->
<g id="edge36" class="edge">
<title>SG_1_Node_1&#45;&gt;SG_1_Node_10</title>
<path fill="none" stroke="#000000" d="M1024.8123,-1424.8933C1024.315,-1376.9463 1022.9581,-1246.141 1022.3287,-1185.4646"/>
<polygon fill="#000000" stroke="#000000" points="1025.8272,-1185.2899 1022.2236,-1175.3268 1018.8276,-1185.3626 1025.8272,-1185.2899"/>
<text text-anchor="middle" x="1056" y="-1294.9848" font-family="Times,serif" font-size="20.00" fill="#000000">empty</text>
</g>
<!-- SG_1_Node_3 -->
<g id="node25" class="node">
<title>SG_1_Node_3</title>
<polygon fill="none" stroke="#000000" points="1295.5,-1171.7716 1074.5,-1171.7716 1074.5,-1135.7716 1295.5,-1135.7716 1295.5,-1171.7716"/>
<text text-anchor="middle" x="1185" y="-1148.7716" font-family="Times,serif" font-size="20.00" fill="#000000">Content&#45;Disposition</text>
</g>
<!-- SG_1_Node_2&#45;&gt;SG_1_Node_3 -->
<g id="edge21" class="edge">
<title>SG_1_Node_2&#45;&gt;SG_1_Node_3</title>
<path fill="none" stroke="#000000" d="M1185,-1424.8933C1185,-1375.9978 1185,-1240.9334 1185,-1181.9471"/>
<polygon fill="#000000" stroke="#000000" points="1188.5001,-1181.8564 1185,-1171.8564 1181.5001,-1181.8564 1188.5001,-1181.8564"/>
<text text-anchor="middle" x="1204.5" y="-1371.9848" font-family="Times,serif" font-size="20.00" fill="#000000">200</text>
<text text-anchor="middle" x="1204.5" y="-1349.9848" font-family="Times,serif" font-size="20.00" fill="#000000">201</text>
<text text-anchor="middle" x="1204.5" y="-1327.9848" font-family="Times,serif" font-size="20.00" fill="#000000">202</text>
<text text-anchor="middle" x="1204.5" y="-1305.9848" font-family="Times,serif" font-size="20.00" fill="#000000">203</text>
<text text-anchor="middle" x="1204.5" y="-1283.9848" font-family="Times,serif" font-size="20.00" fill="#000000">206</text>
<text text-anchor="middle" x="1204.5" y="-1261.9848" font-family="Times,serif" font-size="20.00" fill="#000000">207</text>
<text text-anchor="middle" x="1204.5" y="-1239.9848" font-family="Times,serif" font-size="20.00" fill="#000000">208</text>
<text text-anchor="middle" x="1204.5" y="-1217.9848" font-family="Times,serif" font-size="20.00" fill="#000000">226</text>
</g>
<!-- SG_1_Node_11 -->
<g id="node26" class="node">
<title>SG_1_Node_11</title>
<ellipse fill="none" stroke="#000000" cx="1348" cy="-1153.7716" rx="34.7971" ry="21.4286"/>
<text text-anchor="middle" x="1348" y="-1148.7716" font-family="Times,serif" font-size="20.00" fill="#000000">1.0</text>
</g>
<!-- SG_1_Node_2&#45;&gt;SG_1_Node_11 -->
<g id="edge22" class="edge">
<title>SG_1_Node_2&#45;&gt;SG_1_Node_11</title>
<path fill="none" stroke="#000000" d="M1200.6431,-1424.7965C1209.2327,-1414.3792 1219.7779,-1400.8544 1228,-1387.9848 1272.687,-1318.0391 1314.382,-1229.4172 1334.8271,-1183.8509"/>
<polygon fill="#000000" stroke="#000000" points="1338.1026,-1185.099 1338.9771,-1174.5404 1331.709,-1182.2491 1338.1026,-1185.099"/>
<text text-anchor="middle" x="1367" y="-1305.9848" font-family="Times,serif" font-size="20.00" fill="#000000">[NA]</text>
<text text-anchor="middle" x="1367" y="-1283.9848" font-family="Times,serif" font-size="20.00" fill="#000000">49 levels</text>
</g>
<!-- SG_1_Node_4 -->
<g id="node27" class="node">
<title>SG_1_Node_4</title>
<polygon fill="none" stroke="#000000" points="1270.5,-1011.3452 1079.5,-1011.3452 1079.5,-975.3452 1270.5,-975.3452 1270.5,-1011.3452"/>
<text text-anchor="middle" x="1175" y="-988.3452" font-family="Times,serif" font-size="20.00" fill="#000000">X&#45;Frame&#45;Options</text>
</g>
<!-- SG_1_Node_3&#45;&gt;SG_1_Node_4 -->
<g id="edge23" class="edge">
<title>SG_1_Node_3&#45;&gt;SG_1_Node_4</title>
<path fill="none" stroke="#000000" d="M1183.8723,-1135.6805C1182.1468,-1107.9987 1178.8359,-1054.8834 1176.7828,-1021.9467"/>
<polygon fill="#000000" stroke="#000000" points="1180.2544,-1021.3792 1176.1389,-1011.6164 1173.2679,-1021.8148 1180.2544,-1021.3792"/>
<text text-anchor="middle" x="1213" y="-1079.5584" font-family="Times,serif" font-size="20.00" fill="#000000">[NA]</text>
<text text-anchor="middle" x="1213" y="-1057.5584" font-family="Times,serif" font-size="20.00" fill="#000000">empty</text>
</g>
<!-- SG_1_Node_12 -->
<g id="node28" class="node">
<title>SG_1_Node_12</title>
<ellipse fill="none" stroke="#000000" cx="1323" cy="-993.3452" rx="34.7971" ry="21.4286"/>
<text text-anchor="middle" x="1323" y="-988.3452" font-family="Times,serif" font-size="20.00" fill="#000000">1.0</text>
</g>
<!-- SG_1_Node_3&#45;&gt;SG_1_Node_12 -->
<g id="edge24" class="edge">
<title>SG_1_Node_3&#45;&gt;SG_1_Node_12</title>
<path fill="none" stroke="#000000" d="M1207.0885,-1135.6694C1219.9336,-1124.6696 1236.0836,-1110.0009 1249,-1095.5584 1269.8294,-1072.268 1290.4185,-1043.2029 1304.5698,-1022.0268"/>
<polygon fill="#000000" stroke="#000000" points="1307.6285,-1023.7465 1310.2224,-1013.4741 1301.7887,-1019.8869 1307.6285,-1023.7465"/>
<text text-anchor="middle" x="1342" y="-1068.5584" font-family="Times,serif" font-size="20.00" fill="#000000">attachment</text>
</g>
<!-- SG_1_Node_5 -->
<g id="node29" class="node">
<title>SG_1_Node_5</title>
<polygon fill="none" stroke="#000000" points="1293,-850.9188 1033,-850.9188 1033,-814.9188 1293,-814.9188 1293,-850.9188"/>
<text text-anchor="middle" x="1163" y="-827.9188" font-family="Times,serif" font-size="20.00" fill="#000000">Content&#45;Security&#45;Policy</text>
</g>
<!-- SG_1_Node_4&#45;&gt;SG_1_Node_5 -->
<g id="edge25" class="edge">
<title>SG_1_Node_4&#45;&gt;SG_1_Node_5</title>
<path fill="none" stroke="#000000" d="M1173.6468,-975.2541C1171.5762,-947.5723 1167.6031,-894.457 1165.1394,-861.5203"/>
<polygon fill="#000000" stroke="#000000" points="1168.603,-860.901 1164.3667,-851.19 1161.6225,-861.4232 1168.603,-860.901"/>
<text text-anchor="middle" x="1202" y="-919.132" font-family="Times,serif" font-size="20.00" fill="#000000">[NA]</text>
<text text-anchor="middle" x="1202" y="-897.132" font-family="Times,serif" font-size="20.00" fill="#000000">empty</text>
</g>
<!-- SG_1_Node_13 -->
<g id="node30" class="node">
<title>SG_1_Node_13</title>
<ellipse fill="none" stroke="#000000" cx="1346" cy="-832.9188" rx="34.7971" ry="21.4286"/>
<text text-anchor="middle" x="1346" y="-827.9188" font-family="Times,serif" font-size="20.00" fill="#000000">1.0</text>
</g>
<!-- SG_1_Node_4&#45;&gt;SG_1_Node_13 -->
<g id="edge26" class="edge">
<title>SG_1_Node_4&#45;&gt;SG_1_Node_13</title>
<path fill="none" stroke="#000000" d="M1194.6366,-975.3122C1207.0943,-963.8443 1223.5337,-948.6603 1238,-935.132 1265.9992,-908.9484 1297.8538,-878.7501 1319.6707,-858.0042"/>
<polygon fill="#000000" stroke="#000000" points="1322.1137,-860.5109 1326.9463,-851.0823 1317.2888,-855.4394 1322.1137,-860.5109"/>
<text text-anchor="middle" x="1308.5" y="-908.132" font-family="Times,serif" font-size="20.00" fill="#000000">deny</text>
</g>
<!-- SG_1_Node_6 -->
<g id="node31" class="node">
<title>SG_1_Node_6</title>
<polygon fill="none" stroke="#000000" points="1043.5,-668.4924 888.5,-668.4924 888.5,-632.4924 1043.5,-632.4924 1043.5,-668.4924"/>
<text text-anchor="middle" x="966" y="-645.4924" font-family="Times,serif" font-size="20.00" fill="#000000">Content&#45;Type</text>
</g>
<!-- SG_1_Node_5&#45;&gt;SG_1_Node_6 -->
<g id="edge27" class="edge">
<title>SG_1_Node_5&#45;&gt;SG_1_Node_6</title>
<path fill="none" stroke="#000000" d="M1088.9171,-814.8206C1050.2229,-803.9367 1008.2229,-789.3834 995,-774.7056 971.3161,-748.4157 965.8997,-706.552 965.1738,-678.7984"/>
<polygon fill="#000000" stroke="#000000" points="968.6721,-678.5362 965.1009,-668.5614 961.6723,-678.5862 968.6721,-678.5362"/>
<text text-anchor="middle" x="1077.5" y="-758.7056" font-family="Times,serif" font-size="20.00" fill="#000000">[NA]</text>
<text text-anchor="middle" x="1077.5" y="-736.7056" font-family="Times,serif" font-size="20.00" fill="#000000">default&#45;src &#39;self&#39;</text>
<text text-anchor="middle" x="1077.5" y="-714.7056" font-family="Times,serif" font-size="20.00" fill="#000000">empty</text>
</g>
<!-- SG_1_Node_14 -->
<g id="node32" class="node">
<title>SG_1_Node_14</title>
<ellipse fill="none" stroke="#000000" cx="1167" cy="-650.4924" rx="34.7971" ry="21.4286"/>
<text text-anchor="middle" x="1167" y="-645.4924" font-family="Times,serif" font-size="20.00" fill="#000000">1.0</text>
</g>
<!-- SG_1_Node_5&#45;&gt;SG_1_Node_14 -->
<g id="edge28" class="edge">
<title>SG_1_Node_5&#45;&gt;SG_1_Node_14</title>
<path fill="none" stroke="#000000" d="M1163.3982,-814.7602C1164.0773,-783.7862 1165.4677,-720.3773 1166.3084,-682.035"/>
<polygon fill="#000000" stroke="#000000" points="1169.8097,-682.0074 1166.5299,-671.933 1162.8114,-681.8539 1169.8097,-682.0074"/>
<text text-anchor="middle" x="1275.5" y="-736.7056" font-family="Times,serif" font-size="20.00" fill="#000000">frame&#45;ancestors &#39;self&#39;</text>
</g>
<!-- SG_1_Node_15 -->
<g id="node33" class="node">
<title>SG_1_Node_15</title>
<ellipse fill="none" stroke="#000000" cx="716" cy="-358.066" rx="34.7971" ry="21.4286"/>
<text text-anchor="middle" x="716" y="-353.066" font-family="Times,serif" font-size="20.00" fill="#000000">0.0</text>
</g>
<!-- SG_1_Node_6&#45;&gt;SG_1_Node_15 -->
<g id="edge29" class="edge">
<title>SG_1_Node_6&#45;&gt;SG_1_Node_15</title>
<path fill="none" stroke="#000000" d="M888.3183,-639.9334C831.2035,-630.4849 760.3096,-614.6547 741,-592.2792 691.7169,-535.171 700.4769,-438.7562 709.2207,-389.3323"/>
<polygon fill="#000000" stroke="#000000" points="712.709,-389.7212 711.1223,-379.2458 705.8302,-388.4243 712.709,-389.7212"/>
<text text-anchor="middle" x="852" y="-576.2792" font-family="Times,serif" font-size="20.00" fill="#000000">[NA]</text>
<text text-anchor="middle" x="852" y="-554.2792" font-family="Times,serif" font-size="20.00" fill="#000000">application/javascript</text>
<text text-anchor="middle" x="852" y="-532.2792" font-family="Times,serif" font-size="20.00" fill="#000000">application/pdf</text>
<text text-anchor="middle" x="852" y="-510.2792" font-family="Times,serif" font-size="20.00" fill="#000000">audio/wav</text>
<text text-anchor="middle" x="852" y="-488.2792" font-family="Times,serif" font-size="20.00" fill="#000000">image/png</text>
<text text-anchor="middle" x="852" y="-466.2792" font-family="Times,serif" font-size="20.00" fill="#000000">text/css</text>
<text text-anchor="middle" x="852" y="-444.2792" font-family="Times,serif" font-size="20.00" fill="#000000">text/html</text>
<text text-anchor="middle" x="852" y="-422.2792" font-family="Times,serif" font-size="20.00" fill="#000000">video/mp4</text>
</g>
<!-- SG_1_Node_7 -->
<g id="node34" class="node">
<title>SG_1_Node_7</title>
<polygon fill="none" stroke="#000000" points="1006.5,-376.066 941.5,-376.066 941.5,-340.066 1006.5,-340.066 1006.5,-376.066"/>
<text text-anchor="middle" x="974" y="-353.066" font-family="Times,serif" font-size="20.00" fill="#000000">body</text>
</g>
<!-- SG_1_Node_6&#45;&gt;SG_1_Node_7 -->
<g id="edge30" class="edge">
<title>SG_1_Node_6&#45;&gt;SG_1_Node_7</title>
<path fill="none" stroke="#000000" d="M966.5004,-632.1998C967.8529,-582.7611 971.589,-446.1962 973.2206,-386.5546"/>
<polygon fill="#000000" stroke="#000000" points="976.7249,-386.4437 973.4998,-376.3517 969.7275,-386.2522 976.7249,-386.4437"/>
<text text-anchor="middle" x="1004" y="-499.2792" font-family="Times,serif" font-size="20.00" fill="#000000">empty</text>
</g>
<!-- SG_1_Node_16 -->
<g id="node35" class="node">
<title>SG_1_Node_16</title>
<ellipse fill="none" stroke="#000000" cx="889" cy="-197.6396" rx="34.7971" ry="21.4286"/>
<text text-anchor="middle" x="889" y="-192.6396" font-family="Times,serif" font-size="20.00" fill="#000000">0.0</text>
</g>
<!-- SG_1_Node_7&#45;&gt;SG_1_Node_16 -->
<g id="edge31" class="edge">
<title>SG_1_Node_7&#45;&gt;SG_1_Node_16</title>
<path fill="none" stroke="#000000" d="M958.8303,-339.984C949.9805,-328.8733 939.0172,-314.084 931,-299.8528 918.0522,-276.8696 906.8968,-249.0882 899.3435,-228.2933"/>
<polygon fill="#000000" stroke="#000000" points="902.58,-226.9481 895.9329,-218.6978 895.9842,-229.2925 902.58,-226.9481"/>
<text text-anchor="middle" x="977" y="-283.8528" font-family="Times,serif" font-size="20.00" fill="#000000">[NA]</text>
<text text-anchor="middle" x="977" y="-261.8528" font-family="Times,serif" font-size="20.00" fill="#000000">11 levels</text>
</g>
<!-- SG_1_Node_8 -->
<g id="node36" class="node">
<title>SG_1_Node_8</title>
<polygon fill="none" stroke="#000000" points="1204,-215.6396 942,-215.6396 942,-179.6396 1204,-179.6396 1204,-215.6396"/>
<text text-anchor="middle" x="1073" y="-192.6396" font-family="Times,serif" font-size="20.00" fill="#000000">X&#45;Content&#45;Type&#45;Options</text>
</g>
<!-- SG_1_Node_7&#45;&gt;SG_1_Node_8 -->
<g id="edge32" class="edge">
<title>SG_1_Node_7&#45;&gt;SG_1_Node_8</title>
<path fill="none" stroke="#000000" d="M991.346,-339.8433C1001.3299,-328.8022 1013.6994,-314.1321 1023,-299.8528 1038.6367,-275.8456 1052.6039,-246.2341 1061.7745,-225.0736"/>
<polygon fill="#000000" stroke="#000000" points="1065.0632,-226.2837 1065.7582,-215.7117 1058.6221,-223.5428 1065.0632,-226.2837"/>
<text text-anchor="middle" x="1292.5" y="-283.8528" font-family="Times,serif" font-size="20.00" fill="#000000">ecocnt_audio=duration=1</text>
<text text-anchor="middle" x="1292.5" y="-261.8528" font-family="Times,serif" font-size="20.00" fill="#000000">ecocnt_vid=width=100,height=100,duration=2</text>
</g>
<!-- SG_1_Node_17 -->
<g id="node37" class="node">
<title>SG_1_Node_17</title>
<ellipse fill="none" stroke="#000000" cx="1020" cy="-37.2132" rx="34.7971" ry="21.4286"/>
<text text-anchor="middle" x="1020" y="-32.2132" font-family="Times,serif" font-size="20.00" fill="#000000">0.0</text>
</g>
<!-- SG_1_Node_8&#45;&gt;SG_1_Node_17 -->
<g id="edge33" class="edge">
<title>SG_1_Node_8&#45;&gt;SG_1_Node_17</title>
<path fill="none" stroke="#000000" d="M1057.6489,-179.4495C1049.2819,-168.535 1039.5319,-153.9817 1034,-139.4264 1025.3844,-116.7572 1021.9661,-89.4748 1020.6575,-68.8005"/>
<polygon fill="#000000" stroke="#000000" points="1024.145,-68.4633 1020.1491,-58.6509 1017.1538,-68.8135 1024.145,-68.4633"/>
<text text-anchor="middle" x="1069" y="-112.4264" font-family="Times,serif" font-size="20.00" fill="#000000">nosniff</text>
</g>
<!-- SG_1_Node_18 -->
<g id="node38" class="node">
<title>SG_1_Node_18</title>
<ellipse fill="none" stroke="#000000" cx="1126" cy="-37.2132" rx="34.7971" ry="21.4286"/>
<text text-anchor="middle" x="1126" y="-32.2132" font-family="Times,serif" font-size="20.00" fill="#000000">1.0</text>
</g>
<!-- SG_1_Node_8&#45;&gt;SG_1_Node_18 -->
<g id="edge34" class="edge">
<title>SG_1_Node_8&#45;&gt;SG_1_Node_18</title>
<path fill="none" stroke="#000000" d="M1084.2697,-179.6318C1090.8505,-168.4266 1098.8473,-153.5133 1104,-139.4264 1112.4428,-116.3449 1118.109,-89.0864 1121.5739,-68.526"/>
<polygon fill="#000000" stroke="#000000" points="1125.0633,-68.87 1123.1882,-58.4424 1118.1513,-67.7633 1125.0633,-68.87"/>
<text text-anchor="middle" x="1148" y="-123.4264" font-family="Times,serif" font-size="20.00" fill="#000000">[NA]</text>
<text text-anchor="middle" x="1148" y="-101.4264" font-family="Times,serif" font-size="20.00" fill="#000000">empty</text>
</g>
</g>
</svg>
