<?xml version="1.0" encoding="UTF-8" standalone="no"?>
<!DOCTYPE svg PUBLIC "-//W3C//DTD SVG 1.1//EN"
 "http://www.w3.org/Graphics/SVG/1.1/DTD/svg11.dtd">
<!-- Generated by graphviz version 2.40.1 (20161225.0304)
 -->
<!-- Title: G Pages: 1 -->
<svg width="6389pt" height="2144pt"
 viewBox="0.00 0.00 6389.00 2143.84" xmlns="http://www.w3.org/2000/svg" xmlns:xlink="http://www.w3.org/1999/xlink">
<g id="graph0" class="graph" transform="scale(1 1) rotate(0) translate(4 2139.8377)">
<title>G</title>
<polygon fill="#ffffff" stroke="transparent" points="-4,4 -4,-2139.8377 6385,-2139.8377 6385,4 -4,4"/>
<g id="clust1" class="cluster">
<title>cluster_0</title>
<polygon fill="none" stroke="#000000" points="8,-8 8,-2127.8377 1159,-2127.8377 1159,-8 8,-8"/>
<text text-anchor="middle" x="583.5" y="-2091.8377" font-family="Times,serif" font-size="40.00" fill="#000000">Tree 0, Class uncalled</text>
</g>
<g id="clust12" class="cluster">
<title>cluster_1</title>
<polygon fill="none" stroke="#000000" points="1167,-8 1167,-2127.8377 6373,-2127.8377 6373,-8 1167,-8"/>
<text text-anchor="middle" x="3770" y="-2091.8377" font-family="Times,serif" font-size="40.00" fill="#000000">Tree 0, Class {&#39;size&#39;: {&#39;transferSize&#39;: None, &#39;decodedBodySize&#39;: None, &#39;encodedBodySize&#39;: None}, &#39;timing&#39;: {&#39;duration&#39;: &gt;0, &#39;fetchStart&#39;: &gt;0, &#39;redirectEnd&#39;: 0, &#39;redirectStart&#39;: 0, &#39;secureConnectionStart&#39;: 0}, &#39;initiatorType&#39;: &#39;object&#39;, &#39;nextHopProtocol&#39;: &#39;http/1.1&#39;}</text>
</g>
<!-- SG_0_Node_0 -->
<g id="node1" class="node">
<title>SG_0_Node_0</title>
<polygon fill="none" stroke="#000000" points="483,-2067.8377 341,-2067.8377 341,-2031.8377 483,-2031.8377 483,-2067.8377"/>
<text text-anchor="middle" x="412" y="-2044.8377" font-family="Times,serif" font-size="20.00" fill="#000000">Status&#45;Code</text>
</g>
<!-- SG_0_Node_1 -->
<g id="node2" class="node">
<title>SG_0_Node_1</title>
<polygon fill="none" stroke="#000000" points="452.5,-1756.6245 261.5,-1756.6245 261.5,-1720.6245 452.5,-1720.6245 452.5,-1756.6245"/>
<text text-anchor="middle" x="357" y="-1733.6245" font-family="Times,serif" font-size="20.00" fill="#000000">X&#45;Frame&#45;Options</text>
</g>
<!-- SG_0_Node_0&#45;&gt;SG_0_Node_1 -->
<g id="edge1" class="edge">
<title>SG_0_Node_0&#45;&gt;SG_0_Node_1</title>
<path fill="none" stroke="#000000" d="M408.8052,-2031.7603C399.616,-1979.7639 373.0661,-1829.5334 361.9682,-1766.7365"/>
<polygon fill="#000000" stroke="#000000" points="365.3906,-1765.9899 360.2036,-1756.7517 358.4974,-1767.2082 365.3906,-1765.9899"/>
<text text-anchor="middle" x="421.5" y="-1978.8377" font-family="Times,serif" font-size="20.00" fill="#000000">200</text>
<text text-anchor="middle" x="421.5" y="-1956.8377" font-family="Times,serif" font-size="20.00" fill="#000000">201</text>
<text text-anchor="middle" x="421.5" y="-1934.8377" font-family="Times,serif" font-size="20.00" fill="#000000">202</text>
<text text-anchor="middle" x="421.5" y="-1912.8377" font-family="Times,serif" font-size="20.00" fill="#000000">203</text>
<text text-anchor="middle" x="421.5" y="-1890.8377" font-family="Times,serif" font-size="20.00" fill="#000000">205</text>
<text text-anchor="middle" x="421.5" y="-1868.8377" font-family="Times,serif" font-size="20.00" fill="#000000">206</text>
<text text-anchor="middle" x="421.5" y="-1846.8377" font-family="Times,serif" font-size="20.00" fill="#000000">207</text>
<text text-anchor="middle" x="421.5" y="-1824.8377" font-family="Times,serif" font-size="20.00" fill="#000000">208</text>
<text text-anchor="middle" x="421.5" y="-1802.8377" font-family="Times,serif" font-size="20.00" fill="#000000">226</text>
</g>
<!-- SG_0_Node_9 -->
<g id="node3" class="node">
<title>SG_0_Node_9</title>
<ellipse fill="none" stroke="#000000" cx="505" cy="-1738.6245" rx="34.7971" ry="21.4286"/>
<text text-anchor="middle" x="505" y="-1733.6245" font-family="Times,serif" font-size="20.00" fill="#000000">1.0</text>
</g>
<!-- SG_0_Node_0&#45;&gt;SG_0_Node_9 -->
<g id="edge2" class="edge">
<title>SG_0_Node_0&#45;&gt;SG_0_Node_9</title>
<path fill="none" stroke="#000000" d="M424.8079,-2031.7522C431.6511,-2021.367 439.7277,-2007.8401 445,-1994.8377 476.5071,-1917.1356 493.6767,-1819.1575 500.8725,-1769.9138"/>
<polygon fill="#000000" stroke="#000000" points="504.3553,-1770.2814 502.2971,-1759.8884 497.425,-1769.2965 504.3553,-1770.2814"/>
<text text-anchor="middle" x="542" y="-1901.8377" font-family="Times,serif" font-size="20.00" fill="#000000">[NA]</text>
<text text-anchor="middle" x="542" y="-1879.8377" font-family="Times,serif" font-size="20.00" fill="#000000">53 levels</text>
</g>
<!-- SG_0_Node_2 -->
<g id="node4" class="node">
<title>SG_0_Node_2</title>
<polygon fill="none" stroke="#000000" points="401.5,-1596.1981 180.5,-1596.1981 180.5,-1560.1981 401.5,-1560.1981 401.5,-1596.1981"/>
<text text-anchor="middle" x="291" y="-1573.1981" font-family="Times,serif" font-size="20.00" fill="#000000">Content&#45;Disposition</text>
</g>
<!-- SG_0_Node_1&#45;&gt;SG_0_Node_2 -->
<g id="edge3" class="edge">
<title>SG_0_Node_1&#45;&gt;SG_0_Node_2</title>
<path fill="none" stroke="#000000" d="M349.5573,-1720.5334C338.0698,-1692.6108 315.9362,-1638.8106 302.4152,-1605.9449"/>
<polygon fill="#000000" stroke="#000000" points="305.5583,-1604.3855 298.5168,-1596.4692 299.0847,-1607.0488 305.5583,-1604.3855"/>
<text text-anchor="middle" x="364" y="-1653.4113" font-family="Times,serif" font-size="20.00" fill="#000000">empty</text>
</g>
<!-- SG_0_Node_10 -->
<g id="node5" class="node">
<title>SG_0_Node_10</title>
<ellipse fill="none" stroke="#000000" cx="454" cy="-1578.1981" rx="34.7971" ry="21.4286"/>
<text text-anchor="middle" x="454" y="-1573.1981" font-family="Times,serif" font-size="20.00" fill="#000000">1.0</text>
</g>
<!-- SG_0_Node_1&#45;&gt;SG_0_Node_10 -->
<g id="edge4" class="edge">
<title>SG_0_Node_1&#45;&gt;SG_0_Node_10</title>
<path fill="none" stroke="#000000" d="M371.4795,-1720.5086C380.1867,-1709.2639 391.2412,-1694.347 400,-1680.4113 414.9108,-1656.6874 429.6192,-1628.4384 439.9109,-1607.6564"/>
<polygon fill="#000000" stroke="#000000" points="443.054,-1609.1962 444.3136,-1598.6765 436.7687,-1606.1146 443.054,-1609.1962"/>
<text text-anchor="middle" x="449" y="-1664.4113" font-family="Times,serif" font-size="20.00" fill="#000000">[NA]</text>
<text text-anchor="middle" x="449" y="-1642.4113" font-family="Times,serif" font-size="20.00" fill="#000000">deny</text>
</g>
<!-- SG_0_Node_3 -->
<g id="node6" class="node">
<title>SG_0_Node_3</title>
<polygon fill="none" stroke="#000000" points="350,-1435.7716 90,-1435.7716 90,-1399.7716 350,-1399.7716 350,-1435.7716"/>
<text text-anchor="middle" x="220" y="-1412.7716" font-family="Times,serif" font-size="20.00" fill="#000000">Content&#45;Security&#45;Policy</text>
</g>
<!-- SG_0_Node_2&#45;&gt;SG_0_Node_3 -->
<g id="edge5" class="edge">
<title>SG_0_Node_2&#45;&gt;SG_0_Node_3</title>
<path fill="none" stroke="#000000" d="M282.9934,-1560.107C270.6357,-1532.1844 246.8253,-1478.3842 232.28,-1445.5185"/>
<polygon fill="#000000" stroke="#000000" points="235.334,-1443.7708 228.0863,-1436.0428 228.9328,-1446.6037 235.334,-1443.7708"/>
<text text-anchor="middle" x="296" y="-1503.9848" font-family="Times,serif" font-size="20.00" fill="#000000">[NA]</text>
<text text-anchor="middle" x="296" y="-1481.9848" font-family="Times,serif" font-size="20.00" fill="#000000">empty</text>
</g>
<!-- SG_0_Node_11 -->
<g id="node7" class="node">
<title>SG_0_Node_11</title>
<ellipse fill="none" stroke="#000000" cx="403" cy="-1417.7716" rx="34.7971" ry="21.4286"/>
<text text-anchor="middle" x="403" y="-1412.7716" font-family="Times,serif" font-size="20.00" fill="#000000">1.0</text>
</g>
<!-- SG_0_Node_2&#45;&gt;SG_0_Node_11 -->
<g id="edge6" class="edge">
<title>SG_0_Node_2&#45;&gt;SG_0_Node_11</title>
<path fill="none" stroke="#000000" d="M303.7733,-1560.1263C311.8784,-1548.6434 322.5767,-1533.4571 332,-1519.9848 349.5543,-1494.8877 369.4369,-1466.2456 383.6873,-1445.6789"/>
<polygon fill="#000000" stroke="#000000" points="386.6098,-1447.6065 389.4266,-1437.3929 380.8553,-1443.6206 386.6098,-1447.6065"/>
<text text-anchor="middle" x="421" y="-1492.9848" font-family="Times,serif" font-size="20.00" fill="#000000">attachment</text>
</g>
<!-- SG_0_Node_4 -->
<g id="node8" class="node">
<title>SG_0_Node_4</title>
<polygon fill="none" stroke="#000000" points="234.5,-1253.3452 79.5,-1253.3452 79.5,-1217.3452 234.5,-1217.3452 234.5,-1253.3452"/>
<text text-anchor="middle" x="157" y="-1230.3452" font-family="Times,serif" font-size="20.00" fill="#000000">Content&#45;Type</text>
</g>
<!-- SG_0_Node_3&#45;&gt;SG_0_Node_4 -->
<g id="edge7" class="edge">
<title>SG_0_Node_3&#45;&gt;SG_0_Node_4</title>
<path fill="none" stroke="#000000" d="M199.7614,-1399.5595C189.3562,-1388.9638 177.5208,-1374.7291 171,-1359.5584 157.7275,-1328.6801 155.3902,-1289.7012 155.6147,-1263.7245"/>
<polygon fill="#000000" stroke="#000000" points="159.1199,-1263.5247 155.8433,-1253.4493 152.1216,-1263.3689 159.1199,-1263.5247"/>
<text text-anchor="middle" x="253.5" y="-1343.5584" font-family="Times,serif" font-size="20.00" fill="#000000">[NA]</text>
<text text-anchor="middle" x="253.5" y="-1321.5584" font-family="Times,serif" font-size="20.00" fill="#000000">default&#45;src &#39;self&#39;</text>
<text text-anchor="middle" x="253.5" y="-1299.5584" font-family="Times,serif" font-size="20.00" fill="#000000">empty</text>
</g>
<!-- SG_0_Node_12 -->
<g id="node9" class="node">
<title>SG_0_Node_12</title>
<ellipse fill="none" stroke="#000000" cx="358" cy="-1235.3452" rx="34.7971" ry="21.4286"/>
<text text-anchor="middle" x="358" y="-1230.3452" font-family="Times,serif" font-size="20.00" fill="#000000">1.0</text>
</g>
<!-- SG_0_Node_3&#45;&gt;SG_0_Node_12 -->
<g id="edge8" class="edge">
<title>SG_0_Node_3&#45;&gt;SG_0_Node_12</title>
<path fill="none" stroke="#000000" d="M281.1226,-1399.6601C301.4755,-1390.716 322.4002,-1377.8058 336,-1359.5584 355.8724,-1332.8949 359.9105,-1294.1618 359.9068,-1267.0575"/>
<polygon fill="#000000" stroke="#000000" points="363.404,-1266.8674 359.7193,-1256.934 356.4052,-1266.9971 363.404,-1266.8674"/>
<text text-anchor="middle" x="468.5" y="-1321.5584" font-family="Times,serif" font-size="20.00" fill="#000000">frame&#45;ancestors &#39;self&#39;</text>
</g>
<!-- SG_0_Node_5 -->
<g id="node10" class="node">
<title>SG_0_Node_5</title>
<polygon fill="none" stroke="#000000" points="173.5,-982.9188 108.5,-982.9188 108.5,-946.9188 173.5,-946.9188 173.5,-982.9188"/>
<text text-anchor="middle" x="141" y="-959.9188" font-family="Times,serif" font-size="20.00" fill="#000000">body</text>
</g>
<!-- SG_0_Node_4&#45;&gt;SG_0_Node_5 -->
<g id="edge9" class="edge">
<title>SG_0_Node_4&#45;&gt;SG_0_Node_5</title>
<path fill="none" stroke="#000000" d="M155.9254,-1217.1819C153.1928,-1170.9966 145.9632,-1048.8048 142.673,-993.1951"/>
<polygon fill="#000000" stroke="#000000" points="146.1546,-992.7789 142.07,-983.0031 139.1668,-993.1924 146.1546,-992.7789"/>
<text text-anchor="middle" x="264" y="-1161.132" font-family="Times,serif" font-size="20.00" fill="#000000">[NA]</text>
<text text-anchor="middle" x="264" y="-1139.132" font-family="Times,serif" font-size="20.00" fill="#000000">application/javascript</text>
<text text-anchor="middle" x="264" y="-1117.132" font-family="Times,serif" font-size="20.00" fill="#000000">application/pdf</text>
<text text-anchor="middle" x="264" y="-1095.132" font-family="Times,serif" font-size="20.00" fill="#000000">empty</text>
<text text-anchor="middle" x="264" y="-1073.132" font-family="Times,serif" font-size="20.00" fill="#000000">image/png</text>
<text text-anchor="middle" x="264" y="-1051.132" font-family="Times,serif" font-size="20.00" fill="#000000">text/css</text>
<text text-anchor="middle" x="264" y="-1029.132" font-family="Times,serif" font-size="20.00" fill="#000000">text/html</text>
</g>
<!-- SG_0_Node_13 -->
<g id="node11" class="node">
<title>SG_0_Node_13</title>
<ellipse fill="none" stroke="#000000" cx="399" cy="-964.9188" rx="34.7971" ry="21.4286"/>
<text text-anchor="middle" x="399" y="-959.9188" font-family="Times,serif" font-size="20.00" fill="#000000">1.0</text>
</g>
<!-- SG_0_Node_4&#45;&gt;SG_0_Node_13 -->
<g id="edge10" class="edge">
<title>SG_0_Node_4&#45;&gt;SG_0_Node_13</title>
<path fill="none" stroke="#000000" d="M234.7122,-1224.2789C290.2723,-1214.6823 358.3787,-1198.8972 377,-1177.132 420.5619,-1126.2155 413.5423,-1041.2852 405.6761,-995.8414"/>
<polygon fill="#000000" stroke="#000000" points="409.1112,-995.1693 403.846,-985.9754 402.2286,-996.4461 409.1112,-995.1693"/>
<text text-anchor="middle" x="464.5" y="-1106.132" font-family="Times,serif" font-size="20.00" fill="#000000">audio/wav</text>
<text text-anchor="middle" x="464.5" y="-1084.132" font-family="Times,serif" font-size="20.00" fill="#000000">video/mp4</text>
</g>
<!-- SG_0_Node_6 -->
<g id="node12" class="node">
<title>SG_0_Node_6</title>
<polygon fill="none" stroke="#000000" points="187.5,-822.4924 32.5,-822.4924 32.5,-786.4924 187.5,-786.4924 187.5,-822.4924"/>
<text text-anchor="middle" x="110" y="-799.4924" font-family="Times,serif" font-size="20.00" fill="#000000">Content&#45;Type</text>
</g>
<!-- SG_0_Node_5&#45;&gt;SG_0_Node_6 -->
<g id="edge11" class="edge">
<title>SG_0_Node_5&#45;&gt;SG_0_Node_6</title>
<path fill="none" stroke="#000000" d="M135.376,-946.7064C132.0081,-935.2996 127.8431,-920.2456 125,-906.7056 119.79,-881.8933 115.7601,-853.3173 113.1957,-832.6996"/>
<polygon fill="#000000" stroke="#000000" points="116.6626,-832.2141 111.9897,-822.7054 109.713,-833.0527 116.6626,-832.2141"/>
<text text-anchor="middle" x="171" y="-890.7056" font-family="Times,serif" font-size="20.00" fill="#000000">[NA]</text>
<text text-anchor="middle" x="171" y="-868.7056" font-family="Times,serif" font-size="20.00" fill="#000000">12 levels</text>
</g>
<!-- SG_0_Node_14 -->
<g id="node13" class="node">
<title>SG_0_Node_14</title>
<ellipse fill="none" stroke="#000000" cx="240" cy="-804.4924" rx="34.7971" ry="21.4286"/>
<text text-anchor="middle" x="240" y="-799.4924" font-family="Times,serif" font-size="20.00" fill="#000000">1.0</text>
</g>
<!-- SG_0_Node_5&#45;&gt;SG_0_Node_14 -->
<g id="edge12" class="edge">
<title>SG_0_Node_5&#45;&gt;SG_0_Node_14</title>
<path fill="none" stroke="#000000" d="M173.8421,-947.0607C189.168,-937.115 206.3397,-923.3649 217,-906.7056 230.5029,-885.6042 236.1338,-857.6223 238.4548,-836.2713"/>
<polygon fill="#000000" stroke="#000000" points="241.9612,-836.3555 239.3697,-826.0825 234.9893,-835.7294 241.9612,-836.3555"/>
<text text-anchor="middle" x="266" y="-879.7056" font-family="Times,serif" font-size="20.00" fill="#000000">empty</text>
</g>
<!-- SG_0_Node_15 -->
<g id="node14" class="node">
<title>SG_0_Node_15</title>
<ellipse fill="none" stroke="#000000" cx="80" cy="-556.066" rx="34.7971" ry="21.4286"/>
<text text-anchor="middle" x="80" y="-551.066" font-family="Times,serif" font-size="20.00" fill="#000000">0.0</text>
</g>
<!-- SG_0_Node_6&#45;&gt;SG_0_Node_15 -->
<g id="edge13" class="edge">
<title>SG_0_Node_6&#45;&gt;SG_0_Node_15</title>
<path fill="none" stroke="#000000" d="M104.0305,-786.346C100.5327,-774.9641 96.3523,-759.913 94,-746.2792 84.4695,-691.0396 81.4216,-625.6784 80.4502,-587.7383"/>
<polygon fill="#000000" stroke="#000000" points="83.9406,-587.2602 80.2191,-577.3405 76.9423,-587.4158 83.9406,-587.2602"/>
<text text-anchor="middle" x="205" y="-730.2792" font-family="Times,serif" font-size="20.00" fill="#000000">[NA]</text>
<text text-anchor="middle" x="205" y="-708.2792" font-family="Times,serif" font-size="20.00" fill="#000000">application/javascript</text>
<text text-anchor="middle" x="205" y="-686.2792" font-family="Times,serif" font-size="20.00" fill="#000000">application/pdf</text>
<text text-anchor="middle" x="205" y="-664.2792" font-family="Times,serif" font-size="20.00" fill="#000000">image/png</text>
<text text-anchor="middle" x="205" y="-642.2792" font-family="Times,serif" font-size="20.00" fill="#000000">text/css</text>
<text text-anchor="middle" x="205" y="-620.2792" font-family="Times,serif" font-size="20.00" fill="#000000">text/html</text>
</g>
<!-- SG_0_Node_7 -->
<g id="node15" class="node">
<title>SG_0_Node_7</title>
<polygon fill="none" stroke="#000000" points="370.5,-574.066 305.5,-574.066 305.5,-538.066 370.5,-538.066 370.5,-574.066"/>
<text text-anchor="middle" x="338" y="-551.066" font-family="Times,serif" font-size="20.00" fill="#000000">body</text>
</g>
<!-- SG_0_Node_6&#45;&gt;SG_0_Node_7 -->
<g id="edge14" class="edge">
<title>SG_0_Node_6&#45;&gt;SG_0_Node_7</title>
<path fill="none" stroke="#000000" d="M180.9703,-786.433C238.7107,-771.4276 311.3925,-751.6913 316,-746.2792 354.7724,-700.7362 349.9118,-625.2533 343.5986,-584.4115"/>
<polygon fill="#000000" stroke="#000000" points="347.0143,-583.6179 341.9015,-574.3384 340.1116,-584.781 347.0143,-583.6179"/>
<text text-anchor="middle" x="379" y="-675.2792" font-family="Times,serif" font-size="20.00" fill="#000000">empty</text>
</g>
<!-- SG_0_Node_16 -->
<g id="node16" class="node">
<title>SG_0_Node_16</title>
<ellipse fill="none" stroke="#000000" cx="51" cy="-197.6396" rx="34.7971" ry="21.4286"/>
<text text-anchor="middle" x="51" y="-192.6396" font-family="Times,serif" font-size="20.00" fill="#000000">0.0</text>
</g>
<!-- SG_0_Node_7&#45;&gt;SG_0_Node_16 -->
<g id="edge15" class="edge">
<title>SG_0_Node_7&#45;&gt;SG_0_Node_16</title>
<path fill="none" stroke="#000000" d="M305.3095,-554.5268C236.4717,-550.5297 80.2575,-537.2291 48,-497.8528 -16.1668,-419.5254 18.7779,-287.2013 39.3648,-227.9329"/>
<polygon fill="#000000" stroke="#000000" points="42.7004,-228.9994 42.7716,-218.4048 36.1091,-226.6426 42.7004,-228.9994"/>
<text text-anchor="middle" x="343" y="-481.8528" font-family="Times,serif" font-size="20.00" fill="#000000">[NA]</text>
<text text-anchor="middle" x="343" y="-459.8528" font-family="Times,serif" font-size="20.00" fill="#000000">ecocnt_css=h1 {color: blue}</text>
<text text-anchor="middle" x="343" y="-437.8528" font-family="Times,serif" font-size="20.00" fill="#000000">ecocnt_html=meta_refresh=0;http://localhost:8000/echo/</text>
<text text-anchor="middle" x="343" y="-415.8528" font-family="Times,serif" font-size="20.00" fill="#000000">ecocnt_html=num_frames=1,input_id=test1</text>
<text text-anchor="middle" x="343" y="-393.8528" font-family="Times,serif" font-size="20.00" fill="#000000">ecocnt_html=num_frames=2</text>
<text text-anchor="middle" x="343" y="-371.8528" font-family="Times,serif" font-size="20.00" fill="#000000">ecocnt_html=paymentAPI=true</text>
<text text-anchor="middle" x="343" y="-349.8528" font-family="Times,serif" font-size="20.00" fill="#000000">ecocnt_html=post_message=mes1</text>
<text text-anchor="middle" x="343" y="-327.8528" font-family="Times,serif" font-size="20.00" fill="#000000">ecocnt_img=width=50,height=50,type=png</text>
<text text-anchor="middle" x="343" y="-305.8528" font-family="Times,serif" font-size="20.00" fill="#000000">ecocnt_js=.,,.</text>
<text text-anchor="middle" x="343" y="-283.8528" font-family="Times,serif" font-size="20.00" fill="#000000">ecocnt_js=var a=5;</text>
<text text-anchor="middle" x="343" y="-261.8528" font-family="Times,serif" font-size="20.00" fill="#000000">ecocnt_pdf=a=a</text>
</g>
<!-- SG_0_Node_8 -->
<g id="node17" class="node">
<title>SG_0_Node_8</title>
<polygon fill="none" stroke="#000000" points="791,-215.6396 529,-215.6396 529,-179.6396 791,-179.6396 791,-215.6396"/>
<text text-anchor="middle" x="660" y="-192.6396" font-family="Times,serif" font-size="20.00" fill="#000000">X&#45;Content&#45;Type&#45;Options</text>
</g>
<!-- SG_0_Node_7&#45;&gt;SG_0_Node_8 -->
<g id="edge16" class="edge">
<title>SG_0_Node_7&#45;&gt;SG_0_Node_8</title>
<path fill="none" stroke="#000000" d="M370.5174,-554.5789C440.7052,-550.64 602.9042,-537.3753 638,-497.8528 673.1712,-458.2453 666.4362,-293.1207 662.1087,-226.0969"/>
<polygon fill="#000000" stroke="#000000" points="665.5828,-225.5949 661.416,-215.8539 658.5988,-226.0673 665.5828,-225.5949"/>
<text text-anchor="middle" x="910.5" y="-382.8528" font-family="Times,serif" font-size="20.00" fill="#000000">ecocnt_audio=duration=1</text>
<text text-anchor="middle" x="910.5" y="-360.8528" font-family="Times,serif" font-size="20.00" fill="#000000">ecocnt_vid=width=100,height=100,duration=2</text>
</g>
<!-- SG_0_Node_17 -->
<g id="node18" class="node">
<title>SG_0_Node_17</title>
<ellipse fill="none" stroke="#000000" cx="607" cy="-37.2132" rx="34.7971" ry="21.4286"/>
<text text-anchor="middle" x="607" y="-32.2132" font-family="Times,serif" font-size="20.00" fill="#000000">0.0</text>
</g>
<!-- SG_0_Node_8&#45;&gt;SG_0_Node_17 -->
<g id="edge17" class="edge">
<title>SG_0_Node_8&#45;&gt;SG_0_Node_17</title>
<path fill="none" stroke="#000000" d="M644.6489,-179.4495C636.2819,-168.535 626.5319,-153.9817 621,-139.4264 612.3844,-116.7572 608.9661,-89.4748 607.6575,-68.8005"/>
<polygon fill="#000000" stroke="#000000" points="611.145,-68.4633 607.1491,-58.6509 604.1538,-68.8135 611.145,-68.4633"/>
<text text-anchor="middle" x="656" y="-112.4264" font-family="Times,serif" font-size="20.00" fill="#000000">nosniff</text>
</g>
<!-- SG_0_Node_18 -->
<g id="node19" class="node">
<title>SG_0_Node_18</title>
<ellipse fill="none" stroke="#000000" cx="713" cy="-37.2132" rx="34.7971" ry="21.4286"/>
<text text-anchor="middle" x="713" y="-32.2132" font-family="Times,serif" font-size="20.00" fill="#000000">1.0</text>
</g>
<!-- SG_0_Node_8&#45;&gt;SG_0_Node_18 -->
<g id="edge18" class="edge">
<title>SG_0_Node_8&#45;&gt;SG_0_Node_18</title>
<path fill="none" stroke="#000000" d="M671.2697,-179.6318C677.8505,-168.4266 685.8473,-153.5133 691,-139.4264 699.4428,-116.3449 705.109,-89.0864 708.5739,-68.526"/>
<polygon fill="#000000" stroke="#000000" points="712.0633,-68.87 710.1882,-58.4424 705.1513,-67.7633 712.0633,-68.87"/>
<text text-anchor="middle" x="735" y="-123.4264" font-family="Times,serif" font-size="20.00" fill="#000000">[NA]</text>
<text text-anchor="middle" x="735" y="-101.4264" font-family="Times,serif" font-size="20.00" fill="#000000">empty</text>
</g>
<!-- SG_1_Node_0 -->
<g id="node20" class="node">
<title>SG_1_Node_0</title>
<polygon fill="none" stroke="#000000" points="1364,-2067.8377 1222,-2067.8377 1222,-2031.8377 1364,-2031.8377 1364,-2067.8377"/>
<text text-anchor="middle" x="1293" y="-2044.8377" font-family="Times,serif" font-size="20.00" fill="#000000">Status&#45;Code</text>
</g>
<!-- SG_1_Node_9 -->
<g id="node21" class="node">
<title>SG_1_Node_9</title>
<ellipse fill="none" stroke="#000000" cx="1230" cy="-1738.6245" rx="34.7971" ry="21.4286"/>
<text text-anchor="middle" x="1230" y="-1733.6245" font-family="Times,serif" font-size="20.00" fill="#000000">0.0</text>
</g>
<!-- SG_1_Node_0&#45;&gt;SG_1_Node_9 -->
<g id="edge19" class="edge">
<title>SG_1_Node_0&#45;&gt;SG_1_Node_9</title>
<path fill="none" stroke="#000000" d="M1278.8347,-2031.5411C1271.672,-2021.3072 1263.5527,-2007.9921 1259,-1994.8377 1232.1286,-1917.1967 1228.8813,-1819.1921 1229.1961,-1769.9285"/>
<polygon fill="#000000" stroke="#000000" points="1232.6961,-1769.9396 1229.315,-1759.8988 1225.6966,-1769.8566 1232.6961,-1769.9396"/>
<text text-anchor="middle" x="1305" y="-1901.8377" font-family="Times,serif" font-size="20.00" fill="#000000">[NA]</text>
<text text-anchor="middle" x="1305" y="-1879.8377" font-family="Times,serif" font-size="20.00" fill="#000000">53 levels</text>
</g>
<!-- SG_1_Node_1 -->
<g id="node22" class="node">
<title>SG_1_Node_1</title>
<polygon fill="none" stroke="#000000" points="1473.5,-1756.6245 1282.5,-1756.6245 1282.5,-1720.6245 1473.5,-1720.6245 1473.5,-1756.6245"/>
<text text-anchor="middle" x="1378" y="-1733.6245" font-family="Times,serif" font-size="20.00" fill="#000000">X&#45;Frame&#45;Options</text>
</g>
<!-- SG_1_Node_0&#45;&gt;SG_1_Node_1 -->
<g id="edge20" class="edge">
<title>SG_1_Node_0&#45;&gt;SG_1_Node_1</title>
<path fill="none" stroke="#000000" d="M1319.3738,-2031.6784C1331.0819,-2022.1365 1343.8144,-2009.397 1351,-1994.8377 1388.2671,-1919.3281 1385.3238,-1816.3151 1381.1569,-1767.0869"/>
<polygon fill="#000000" stroke="#000000" points="1384.6183,-1766.5085 1380.2074,-1756.8756 1377.6484,-1767.1567 1384.6183,-1766.5085"/>
<text text-anchor="middle" x="1402.5" y="-1978.8377" font-family="Times,serif" font-size="20.00" fill="#000000">200</text>
<text text-anchor="middle" x="1402.5" y="-1956.8377" font-family="Times,serif" font-size="20.00" fill="#000000">201</text>
<text text-anchor="middle" x="1402.5" y="-1934.8377" font-family="Times,serif" font-size="20.00" fill="#000000">202</text>
<text text-anchor="middle" x="1402.5" y="-1912.8377" font-family="Times,serif" font-size="20.00" fill="#000000">203</text>
<text text-anchor="middle" x="1402.5" y="-1890.8377" font-family="Times,serif" font-size="20.00" fill="#000000">205</text>
<text text-anchor="middle" x="1402.5" y="-1868.8377" font-family="Times,serif" font-size="20.00" fill="#000000">206</text>
<text text-anchor="middle" x="1402.5" y="-1846.8377" font-family="Times,serif" font-size="20.00" fill="#000000">207</text>
<text text-anchor="middle" x="1402.5" y="-1824.8377" font-family="Times,serif" font-size="20.00" fill="#000000">208</text>
<text text-anchor="middle" x="1402.5" y="-1802.8377" font-family="Times,serif" font-size="20.00" fill="#000000">226</text>
</g>
<!-- SG_1_Node_10 -->
<g id="node23" class="node">
<title>SG_1_Node_10</title>
<ellipse fill="none" stroke="#000000" cx="1255" cy="-1578.1981" rx="34.7971" ry="21.4286"/>
<text text-anchor="middle" x="1255" y="-1573.1981" font-family="Times,serif" font-size="20.00" fill="#000000">0.0</text>
</g>
<!-- SG_1_Node_1&#45;&gt;SG_1_Node_10 -->
<g id="edge21" class="edge">
<title>SG_1_Node_1&#45;&gt;SG_1_Node_10</title>
<path fill="none" stroke="#000000" d="M1364.1294,-1720.5334C1342.6749,-1692.5506 1301.2941,-1638.5786 1276.111,-1605.7327"/>
<polygon fill="#000000" stroke="#000000" points="1278.6358,-1603.2733 1269.7736,-1597.467 1273.0806,-1607.5325 1278.6358,-1603.2733"/>
<text text-anchor="middle" x="1357" y="-1664.4113" font-family="Times,serif" font-size="20.00" fill="#000000">[NA]</text>
<text text-anchor="middle" x="1357" y="-1642.4113" font-family="Times,serif" font-size="20.00" fill="#000000">deny</text>
</g>
<!-- SG_1_Node_2 -->
<g id="node24" class="node">
<title>SG_1_Node_2</title>
<polygon fill="none" stroke="#000000" points="1528.5,-1596.1981 1307.5,-1596.1981 1307.5,-1560.1981 1528.5,-1560.1981 1528.5,-1596.1981"/>
<text text-anchor="middle" x="1418" y="-1573.1981" font-family="Times,serif" font-size="20.00" fill="#000000">Content&#45;Disposition</text>
</g>
<!-- SG_1_Node_1&#45;&gt;SG_1_Node_2 -->
<g id="edge22" class="edge">
<title>SG_1_Node_1&#45;&gt;SG_1_Node_2</title>
<path fill="none" stroke="#000000" d="M1382.5108,-1720.5334C1389.4428,-1692.7311 1402.7716,-1639.2739 1410.9755,-1606.3711"/>
<polygon fill="#000000" stroke="#000000" points="1414.421,-1607.0189 1413.4444,-1596.4692 1407.629,-1605.3253 1414.421,-1607.0189"/>
<text text-anchor="middle" x="1435" y="-1653.4113" font-family="Times,serif" font-size="20.00" fill="#000000">empty</text>
</g>
<!-- SG_1_Node_11 -->
<g id="node25" class="node">
<title>SG_1_Node_11</title>
<ellipse fill="none" stroke="#000000" cx="1264" cy="-1417.7716" rx="34.7971" ry="21.4286"/>
<text text-anchor="middle" x="1264" y="-1412.7716" font-family="Times,serif" font-size="20.00" fill="#000000">0.0</text>
</g>
<!-- SG_1_Node_2&#45;&gt;SG_1_Node_11 -->
<g id="edge23" class="edge">
<title>SG_1_Node_2&#45;&gt;SG_1_Node_11</title>
<path fill="none" stroke="#000000" d="M1365.5665,-1560.0961C1344.815,-1550.7836 1322.1181,-1537.6134 1306,-1519.9848 1287.6717,-1499.939 1276.7701,-1470.8032 1270.6865,-1448.7628"/>
<polygon fill="#000000" stroke="#000000" points="1274.0279,-1447.7029 1268.1483,-1438.8893 1267.2484,-1449.4458 1274.0279,-1447.7029"/>
<text text-anchor="middle" x="1365" y="-1492.9848" font-family="Times,serif" font-size="20.00" fill="#000000">attachment</text>
</g>
<!-- SG_1_Node_3 -->
<g id="node26" class="node">
<title>SG_1_Node_3</title>
<polygon fill="none" stroke="#000000" points="1577,-1435.7716 1317,-1435.7716 1317,-1399.7716 1577,-1399.7716 1577,-1435.7716"/>
<text text-anchor="middle" x="1447" y="-1412.7716" font-family="Times,serif" font-size="20.00" fill="#000000">Content&#45;Security&#45;Policy</text>
</g>
<!-- SG_1_Node_2&#45;&gt;SG_1_Node_3 -->
<g id="edge24" class="edge">
<title>SG_1_Node_2&#45;&gt;SG_1_Node_3</title>
<path fill="none" stroke="#000000" d="M1421.2703,-1560.107C1426.2961,-1532.3047 1435.9594,-1478.8475 1441.9072,-1445.9447"/>
<polygon fill="#000000" stroke="#000000" points="1445.3624,-1446.5059 1443.6972,-1436.0428 1438.474,-1445.2607 1445.3624,-1446.5059"/>
<text text-anchor="middle" x="1468" y="-1503.9848" font-family="Times,serif" font-size="20.00" fill="#000000">[NA]</text>
<text text-anchor="middle" x="1468" y="-1481.9848" font-family="Times,serif" font-size="20.00" fill="#000000">empty</text>
</g>
<!-- SG_1_Node_12 -->
<g id="node27" class="node">
<title>SG_1_Node_12</title>
<ellipse fill="none" stroke="#000000" cx="1224" cy="-1235.3452" rx="34.7971" ry="21.4286"/>
<text text-anchor="middle" x="1224" y="-1230.3452" font-family="Times,serif" font-size="20.00" fill="#000000">0.0</text>
</g>
<!-- SG_1_Node_3&#45;&gt;SG_1_Node_12 -->
<g id="edge25" class="edge">
<title>SG_1_Node_3&#45;&gt;SG_1_Node_12</title>
<path fill="none" stroke="#000000" d="M1335.1053,-1399.7237C1290.3063,-1390.0926 1245.982,-1376.6609 1232,-1359.5584 1210.8971,-1333.7458 1212.3254,-1293.9284 1216.7915,-1266.3635"/>
<polygon fill="#000000" stroke="#000000" points="1220.2475,-1266.9214 1218.6113,-1256.4536 1213.3626,-1265.657 1220.2475,-1266.9214"/>
<text text-anchor="middle" x="1342.5" y="-1321.5584" font-family="Times,serif" font-size="20.00" fill="#000000">frame&#45;ancestors &#39;self&#39;</text>
</g>
<!-- SG_1_Node_4 -->
<g id="node28" class="node">
<title>SG_1_Node_4</title>
<polygon fill="none" stroke="#000000" points="1558.5,-1253.3452 1403.5,-1253.3452 1403.5,-1217.3452 1558.5,-1217.3452 1558.5,-1253.3452"/>
<text text-anchor="middle" x="1481" y="-1230.3452" font-family="Times,serif" font-size="20.00" fill="#000000">Content&#45;Type</text>
</g>
<!-- SG_1_Node_3&#45;&gt;SG_1_Node_4 -->
<g id="edge26" class="edge">
<title>SG_1_Node_3&#45;&gt;SG_1_Node_4</title>
<path fill="none" stroke="#000000" d="M1450.3844,-1399.613C1456.3414,-1367.6505 1468.7356,-1301.1497 1475.7908,-1263.2952"/>
<polygon fill="#000000" stroke="#000000" points="1479.2378,-1263.9025 1477.6293,-1253.4305 1472.3563,-1262.6199 1479.2378,-1263.9025"/>
<text text-anchor="middle" x="1552.5" y="-1343.5584" font-family="Times,serif" font-size="20.00" fill="#000000">[NA]</text>
<text text-anchor="middle" x="1552.5" y="-1321.5584" font-family="Times,serif" font-size="20.00" fill="#000000">default&#45;src &#39;self&#39;</text>
<text text-anchor="middle" x="1552.5" y="-1299.5584" font-family="Times,serif" font-size="20.00" fill="#000000">empty</text>
</g>
<!-- SG_1_Node_13 -->
<g id="node29" class="node">
<title>SG_1_Node_13</title>
<ellipse fill="none" stroke="#000000" cx="1409" cy="-964.9188" rx="34.7971" ry="21.4286"/>
<text text-anchor="middle" x="1409" y="-959.9188" font-family="Times,serif" font-size="20.00" fill="#000000">0.0</text>
</g>
<!-- SG_1_Node_4&#45;&gt;SG_1_Node_13 -->
<g id="edge27" class="edge">
<title>SG_1_Node_4&#45;&gt;SG_1_Node_13</title>
<path fill="none" stroke="#000000" d="M1447.1605,-1217.2549C1432.5703,-1207.489 1417.0339,-1193.959 1409,-1177.132 1380.8437,-1118.1593 1391.7048,-1039.0303 1401.0322,-995.9875"/>
<polygon fill="#000000" stroke="#000000" points="1404.4741,-996.636 1403.2854,-986.108 1397.6494,-995.0794 1404.4741,-996.636"/>
<text text-anchor="middle" x="1462.5" y="-1106.132" font-family="Times,serif" font-size="20.00" fill="#000000">audio/wav</text>
<text text-anchor="middle" x="1462.5" y="-1084.132" font-family="Times,serif" font-size="20.00" fill="#000000">video/mp4</text>
</g>
<!-- SG_1_Node_5 -->
<g id="node30" class="node">
<title>SG_1_Node_5</title>
<polygon fill="none" stroke="#000000" points="1584.5,-982.9188 1519.5,-982.9188 1519.5,-946.9188 1584.5,-946.9188 1584.5,-982.9188"/>
<text text-anchor="middle" x="1552" y="-959.9188" font-family="Times,serif" font-size="20.00" fill="#000000">body</text>
</g>
<!-- SG_1_Node_4&#45;&gt;SG_1_Node_5 -->
<g id="edge28" class="edge">
<title>SG_1_Node_4&#45;&gt;SG_1_Node_5</title>
<path fill="none" stroke="#000000" d="M1496.2773,-1217.1268C1504.6197,-1206.2028 1514.3697,-1191.6495 1520,-1177.132 1544.3016,-1114.4712 1550.2441,-1034.7542 1551.6344,-993.1268"/>
<polygon fill="#000000" stroke="#000000" points="1555.1387,-993.0091 1551.9079,-982.919 1548.1412,-992.8216 1555.1387,-993.0091"/>
<text text-anchor="middle" x="1661" y="-1161.132" font-family="Times,serif" font-size="20.00" fill="#000000">[NA]</text>
<text text-anchor="middle" x="1661" y="-1139.132" font-family="Times,serif" font-size="20.00" fill="#000000">application/javascript</text>
<text text-anchor="middle" x="1661" y="-1117.132" font-family="Times,serif" font-size="20.00" fill="#000000">application/pdf</text>
<text text-anchor="middle" x="1661" y="-1095.132" font-family="Times,serif" font-size="20.00" fill="#000000">empty</text>
<text text-anchor="middle" x="1661" y="-1073.132" font-family="Times,serif" font-size="20.00" fill="#000000">image/png</text>
<text text-anchor="middle" x="1661" y="-1051.132" font-family="Times,serif" font-size="20.00" fill="#000000">text/css</text>
<text text-anchor="middle" x="1661" y="-1029.132" font-family="Times,serif" font-size="20.00" fill="#000000">text/html</text>
</g>
<!-- SG_1_Node_14 -->
<g id="node31" class="node">
<title>SG_1_Node_14</title>
<ellipse fill="none" stroke="#000000" cx="1487" cy="-804.4924" rx="34.7971" ry="21.4286"/>
<text text-anchor="middle" x="1487" y="-799.4924" font-family="Times,serif" font-size="20.00" fill="#000000">0.0</text>
</g>
<!-- SG_1_Node_5&#45;&gt;SG_1_Node_14 -->
<g id="edge29" class="edge">
<title>SG_1_Node_5&#45;&gt;SG_1_Node_14</title>
<path fill="none" stroke="#000000" d="M1542.2686,-946.8368C1536.3383,-935.4792 1528.8096,-920.431 1523,-906.7056 1513.0249,-883.1393 1503.4868,-855.7602 1496.7374,-835.273"/>
<polygon fill="#000000" stroke="#000000" points="1499.9897,-833.9566 1493.5666,-825.5308 1493.3334,-836.1231 1499.9897,-833.9566"/>
<text text-anchor="middle" x="1555" y="-879.7056" font-family="Times,serif" font-size="20.00" fill="#000000">empty</text>
</g>
<!-- SG_1_Node_6 -->
<g id="node32" class="node">
<title>SG_1_Node_6</title>
<polygon fill="none" stroke="#000000" points="1694.5,-822.4924 1539.5,-822.4924 1539.5,-786.4924 1694.5,-786.4924 1694.5,-822.4924"/>
<text text-anchor="middle" x="1617" y="-799.4924" font-family="Times,serif" font-size="20.00" fill="#000000">Content&#45;Type</text>
</g>
<!-- SG_1_Node_5&#45;&gt;SG_1_Node_6 -->
<g id="edge30" class="edge">
<title>SG_1_Node_5&#45;&gt;SG_1_Node_6</title>
<path fill="none" stroke="#000000" d="M1564.6141,-946.697C1571.912,-935.5367 1580.8413,-920.7444 1587,-906.7056 1597.6142,-882.5104 1605.7246,-853.4876 1610.8201,-832.5606"/>
<polygon fill="#000000" stroke="#000000" points="1614.2545,-833.2455 1613.1422,-822.7092 1607.4412,-831.6395 1614.2545,-833.2455"/>
<text text-anchor="middle" x="1648" y="-890.7056" font-family="Times,serif" font-size="20.00" fill="#000000">[NA]</text>
<text text-anchor="middle" x="1648" y="-868.7056" font-family="Times,serif" font-size="20.00" fill="#000000">12 levels</text>
</g>
<!-- SG_1_Node_7 -->
<g id="node33" class="node">
<title>SG_1_Node_7</title>
<polygon fill="none" stroke="#000000" points="1599.5,-574.066 1534.5,-574.066 1534.5,-538.066 1599.5,-538.066 1599.5,-574.066"/>
<text text-anchor="middle" x="1567" y="-551.066" font-family="Times,serif" font-size="20.00" fill="#000000">body</text>
</g>
<!-- SG_1_Node_6&#45;&gt;SG_1_Node_7 -->
<g id="edge31" class="edge">
<title>SG_1_Node_6&#45;&gt;SG_1_Node_7</title>
<path fill="none" stroke="#000000" d="M1602.5197,-786.2368C1594.693,-775.3005 1585.693,-760.7472 1581,-746.2792 1563.1,-691.095 1563.1438,-622.3512 1564.9544,-584.4561"/>
<polygon fill="#000000" stroke="#000000" points="1568.4652,-584.3576 1565.5267,-574.1785 1561.476,-583.9684 1568.4652,-584.3576"/>
<text text-anchor="middle" x="1613" y="-675.2792" font-family="Times,serif" font-size="20.00" fill="#000000">empty</text>
</g>
<!-- SG_1_Node_15 -->
<g id="node34" class="node">
<title>SG_1_Node_15</title>
<ellipse fill="none" stroke="#000000" cx="1667" cy="-556.066" rx="34.7971" ry="21.4286"/>
<text text-anchor="middle" x="1667" y="-551.066" font-family="Times,serif" font-size="20.00" fill="#000000">1.0</text>
</g>
<!-- SG_1_Node_6&#45;&gt;SG_1_Node_15 -->
<g id="edge32" class="edge">
<title>SG_1_Node_6&#45;&gt;SG_1_Node_15</title>
<path fill="none" stroke="#000000" d="M1627.7261,-786.2456C1633.7895,-775.0764 1640.9466,-760.2836 1645,-746.2792 1660.7558,-691.8428 1665.2833,-625.5587 1666.5499,-587.3448"/>
<polygon fill="#000000" stroke="#000000" points="1670.0486,-587.4373 1666.8273,-577.3441 1663.0513,-587.2431 1670.0486,-587.4373"/>
<text text-anchor="middle" x="1776" y="-730.2792" font-family="Times,serif" font-size="20.00" fill="#000000">[NA]</text>
<text text-anchor="middle" x="1776" y="-708.2792" font-family="Times,serif" font-size="20.00" fill="#000000">application/javascript</text>
<text text-anchor="middle" x="1776" y="-686.2792" font-family="Times,serif" font-size="20.00" fill="#000000">application/pdf</text>
<text text-anchor="middle" x="1776" y="-664.2792" font-family="Times,serif" font-size="20.00" fill="#000000">image/png</text>
<text text-anchor="middle" x="1776" y="-642.2792" font-family="Times,serif" font-size="20.00" fill="#000000">text/css</text>
<text text-anchor="middle" x="1776" y="-620.2792" font-family="Times,serif" font-size="20.00" fill="#000000">text/html</text>
</g>
<!-- SG_1_Node_8 -->
<g id="node35" class="node">
<title>SG_1_Node_8</title>
<polygon fill="none" stroke="#000000" points="1486,-215.6396 1224,-215.6396 1224,-179.6396 1486,-179.6396 1486,-215.6396"/>
<text text-anchor="middle" x="1355" y="-192.6396" font-family="Times,serif" font-size="20.00" fill="#000000">X&#45;Content&#45;Type&#45;Options</text>
</g>
<!-- SG_1_Node_7&#45;&gt;SG_1_Node_8 -->
<g id="edge33" class="edge">
<title>SG_1_Node_7&#45;&gt;SG_1_Node_8</title>
<path fill="none" stroke="#000000" d="M1534.4813,-551.1314C1483.7563,-542.7119 1389.4698,-523.9185 1369,-497.8528 1305.7458,-417.3067 1331.2593,-283.7867 1346.6042,-225.8774"/>
<polygon fill="#000000" stroke="#000000" points="1350.0507,-226.5443 1349.3274,-215.9742 1343.3012,-224.6883 1350.0507,-226.5443"/>
<text text-anchor="middle" x="1614.5" y="-382.8528" font-family="Times,serif" font-size="20.00" fill="#000000">ecocnt_audio=duration=1</text>
<text text-anchor="middle" x="1614.5" y="-360.8528" font-family="Times,serif" font-size="20.00" fill="#000000">ecocnt_vid=width=100,height=100,duration=2</text>
</g>
<!-- SG_1_Node_16 -->
<g id="node36" class="node">
<title>SG_1_Node_16</title>
<ellipse fill="none" stroke="#000000" cx="1882" cy="-197.6396" rx="34.7971" ry="21.4286"/>
<text text-anchor="middle" x="1882" y="-192.6396" font-family="Times,serif" font-size="20.00" fill="#000000">1.0</text>
</g>
<!-- SG_1_Node_7&#45;&gt;SG_1_Node_16 -->
<g id="edge34" class="edge">
<title>SG_1_Node_7&#45;&gt;SG_1_Node_16</title>
<path fill="none" stroke="#000000" d="M1599.7944,-542.3471C1607.3224,-539.5626 1615.3612,-536.8725 1623,-534.8528 1674.5337,-521.2272 1823.879,-537.053 1860,-497.8528 1928.7943,-423.194 1905.8498,-288.9707 1890.7819,-228.573"/>
<polygon fill="#000000" stroke="#000000" points="1894.1611,-227.6605 1888.2652,-218.8578 1887.3848,-229.416 1894.1611,-227.6605"/>
<text text-anchor="middle" x="2201" y="-481.8528" font-family="Times,serif" font-size="20.00" fill="#000000">[NA]</text>
<text text-anchor="middle" x="2201" y="-459.8528" font-family="Times,serif" font-size="20.00" fill="#000000">ecocnt_css=h1 {color: blue}</text>
<text text-anchor="middle" x="2201" y="-437.8528" font-family="Times,serif" font-size="20.00" fill="#000000">ecocnt_html=meta_refresh=0;http://localhost:8000/echo/</text>
<text text-anchor="middle" x="2201" y="-415.8528" font-family="Times,serif" font-size="20.00" fill="#000000">ecocnt_html=num_frames=1,input_id=test1</text>
<text text-anchor="middle" x="2201" y="-393.8528" font-family="Times,serif" font-size="20.00" fill="#000000">ecocnt_html=num_frames=2</text>
<text text-anchor="middle" x="2201" y="-371.8528" font-family="Times,serif" font-size="20.00" fill="#000000">ecocnt_html=paymentAPI=true</text>
<text text-anchor="middle" x="2201" y="-349.8528" font-family="Times,serif" font-size="20.00" fill="#000000">ecocnt_html=post_message=mes1</text>
<text text-anchor="middle" x="2201" y="-327.8528" font-family="Times,serif" font-size="20.00" fill="#000000">ecocnt_img=width=50,height=50,type=png</text>
<text text-anchor="middle" x="2201" y="-305.8528" font-family="Times,serif" font-size="20.00" fill="#000000">ecocnt_js=.,,.</text>
<text text-anchor="middle" x="2201" y="-283.8528" font-family="Times,serif" font-size="20.00" fill="#000000">ecocnt_js=var a=5;</text>
<text text-anchor="middle" x="2201" y="-261.8528" font-family="Times,serif" font-size="20.00" fill="#000000">ecocnt_pdf=a=a</text>
</g>
<!-- SG_1_Node_17 -->
<g id="node37" class="node">
<title>SG_1_Node_17</title>
<ellipse fill="none" stroke="#000000" cx="1303" cy="-37.2132" rx="34.7971" ry="21.4286"/>
<text text-anchor="middle" x="1303" y="-32.2132" font-family="Times,serif" font-size="20.00" fill="#000000">0.0</text>
</g>
<!-- SG_1_Node_8&#45;&gt;SG_1_Node_17 -->
<g id="edge35" class="edge">
<title>SG_1_Node_8&#45;&gt;SG_1_Node_17</title>
<path fill="none" stroke="#000000" d="M1333.0438,-179.5845C1322.0924,-169.1366 1309.9412,-154.9923 1304,-139.4264 1295.3779,-116.8367 1295.6504,-89.3393 1297.7919,-68.557"/>
<polygon fill="#000000" stroke="#000000" points="1301.2987,-68.7152 1299.0449,-58.3629 1294.351,-67.8612 1301.2987,-68.7152"/>
<text text-anchor="middle" x="1336" y="-123.4264" font-family="Times,serif" font-size="20.00" fill="#000000">[NA]</text>
<text text-anchor="middle" x="1336" y="-101.4264" font-family="Times,serif" font-size="20.00" fill="#000000">empty</text>
</g>
<!-- SG_1_Node_18 -->
<g id="node38" class="node">
<title>SG_1_Node_18</title>
<ellipse fill="none" stroke="#000000" cx="1403" cy="-37.2132" rx="34.7971" ry="21.4286"/>
<text text-anchor="middle" x="1403" y="-32.2132" font-family="Times,serif" font-size="20.00" fill="#000000">1.0</text>
</g>
<!-- SG_1_Node_8&#45;&gt;SG_1_Node_18 -->
<g id="edge36" class="edge">
<title>SG_1_Node_8&#45;&gt;SG_1_Node_18</title>
<path fill="none" stroke="#000000" d="M1360.4129,-179.5485C1368.523,-152.4428 1383.9293,-100.9515 1393.8193,-67.8972"/>
<polygon fill="#000000" stroke="#000000" points="1397.1839,-68.8619 1396.6973,-58.2782 1390.4776,-66.8553 1397.1839,-68.8619"/>
<text text-anchor="middle" x="1420" y="-112.4264" font-family="Times,serif" font-size="20.00" fill="#000000">nosniff</text>
</g>
</g>
</svg>
