<?xml version="1.0" encoding="UTF-8" standalone="no"?>
<!DOCTYPE svg PUBLIC "-//W3C//DTD SVG 1.1//EN"
 "http://www.w3.org/Graphics/SVG/1.1/DTD/svg11.dtd">
<!-- Generated by graphviz version 2.40.1 (20161225.0304)
 -->
<!-- Title: G Pages: 1 -->
<svg width="1049pt" height="1377pt"
 viewBox="0.00 0.00 1049.00 1376.56" xmlns="http://www.w3.org/2000/svg" xmlns:xlink="http://www.w3.org/1999/xlink">
<g id="graph0" class="graph" transform="scale(1 1) rotate(0) translate(4 1372.5584)">
<title>G</title>
<polygon fill="#ffffff" stroke="transparent" points="-4,4 -4,-1372.5584 1045,-1372.5584 1045,4 -4,4"/>
<g id="clust1" class="cluster">
<title>cluster_0</title>
<polygon fill="none" stroke="#000000" points="8,-8 8,-1360.5584 454,-1360.5584 454,-8 8,-8"/>
<text text-anchor="middle" x="231" y="-1324.5584" font-family="Times,serif" font-size="40.00" fill="#000000">Tree 0, Class a=5</text>
</g>
<g id="clust9" class="cluster">
<title>cluster_1</title>
<polygon fill="none" stroke="#000000" points="462,-8 462,-1360.5584 1033,-1360.5584 1033,-8 462,-8"/>
<text text-anchor="middle" x="747.5" y="-1324.5584" font-family="Times,serif" font-size="40.00" fill="#000000">Tree 0, Class does not exist</text>
</g>
<!-- SG_0_Node_0 -->
<g id="node1" class="node">
<title>SG_0_Node_0</title>
<polygon fill="none" stroke="#000000" points="168.5,-1300.5584 103.5,-1300.5584 103.5,-1264.5584 168.5,-1264.5584 168.5,-1300.5584"/>
<text text-anchor="middle" x="136" y="-1277.5584" font-family="Times,serif" font-size="20.00" fill="#000000">body</text>
</g>
<!-- SG_0_Node_6 -->
<g id="node2" class="node">
<title>SG_0_Node_6</title>
<ellipse fill="none" stroke="#000000" cx="72" cy="-1125.3452" rx="34.7971" ry="21.4286"/>
<text text-anchor="middle" x="72" y="-1120.3452" font-family="Times,serif" font-size="20.00" fill="#000000">0.0</text>
</g>
<!-- SG_0_Node_0&#45;&gt;SG_0_Node_6 -->
<g id="edge1" class="edge">
<title>SG_0_Node_0&#45;&gt;SG_0_Node_6</title>
<path fill="none" stroke="#000000" d="M114.2079,-1264.363C103.9493,-1254.5508 92.5534,-1241.5889 86,-1227.5584 75.6725,-1205.4477 72.3724,-1177.9193 71.5448,-1157.0034"/>
<polygon fill="#000000" stroke="#000000" points="75.0378,-1156.6507 71.3133,-1146.7322 68.0396,-1156.8085 75.0378,-1156.6507"/>
<text text-anchor="middle" x="132" y="-1211.5584" font-family="Times,serif" font-size="20.00" fill="#000000">[NA]</text>
<text text-anchor="middle" x="132" y="-1189.5584" font-family="Times,serif" font-size="20.00" fill="#000000">12 levels</text>
</g>
<!-- SG_0_Node_1 -->
<g id="node3" class="node">
<title>SG_0_Node_1</title>
<polygon fill="none" stroke="#000000" points="271,-1143.3452 129,-1143.3452 129,-1107.3452 271,-1107.3452 271,-1143.3452"/>
<text text-anchor="middle" x="200" y="-1120.3452" font-family="Times,serif" font-size="20.00" fill="#000000">Status&#45;Code</text>
</g>
<!-- SG_0_Node_0&#45;&gt;SG_0_Node_1 -->
<g id="edge2" class="edge">
<title>SG_0_Node_0&#45;&gt;SG_0_Node_1</title>
<path fill="none" stroke="#000000" d="M153.4302,-1264.0669C162.0355,-1253.9839 171.8619,-1240.8688 178,-1227.5584 188.9246,-1203.8686 194.5168,-1174.5631 197.3207,-1153.4136"/>
<polygon fill="#000000" stroke="#000000" points="200.7988,-1153.8046 198.5154,-1143.4588 193.8487,-1152.9704 200.7988,-1153.8046"/>
<text text-anchor="middle" x="292.5" y="-1200.5584" font-family="Times,serif" font-size="20.00" fill="#000000">ecocnt_js=var a=5;</text>
</g>
<!-- SG_0_Node_7 -->
<g id="node4" class="node">
<title>SG_0_Node_7</title>
<ellipse fill="none" stroke="#000000" cx="51" cy="-832.9188" rx="34.7971" ry="21.4286"/>
<text text-anchor="middle" x="51" y="-827.9188" font-family="Times,serif" font-size="20.00" fill="#000000">0.0</text>
</g>
<!-- SG_0_Node_1&#45;&gt;SG_0_Node_7 -->
<g id="edge3" class="edge">
<title>SG_0_Node_1&#45;&gt;SG_0_Node_7</title>
<path fill="none" stroke="#000000" d="M162.8067,-1107.2111C146.2856,-1097.4355 127.921,-1083.9101 116,-1067.132 71.4631,-1004.4488 57.3961,-912.3368 52.9871,-864.4487"/>
<polygon fill="#000000" stroke="#000000" points="56.4658,-864.0471 52.1434,-854.374 49.4902,-864.6313 56.4658,-864.0471"/>
<text text-anchor="middle" x="162" y="-985.132" font-family="Times,serif" font-size="20.00" fill="#000000">[NA]</text>
<text text-anchor="middle" x="162" y="-963.132" font-family="Times,serif" font-size="20.00" fill="#000000">54 levels</text>
</g>
<!-- SG_0_Node_2 -->
<g id="node5" class="node">
<title>SG_0_Node_2</title>
<polygon fill="none" stroke="#000000" points="420.5,-850.9188 103.5,-850.9188 103.5,-814.9188 420.5,-814.9188 420.5,-850.9188"/>
<text text-anchor="middle" x="262" y="-827.9188" font-family="Times,serif" font-size="20.00" fill="#000000">Cross&#45;Origin&#45;Resource&#45;Policy</text>
</g>
<!-- SG_0_Node_1&#45;&gt;SG_0_Node_2 -->
<g id="edge4" class="edge">
<title>SG_0_Node_1&#45;&gt;SG_0_Node_2</title>
<path fill="none" stroke="#000000" d="M203.8784,-1107.0527C214.3821,-1057.5114 243.4349,-920.482 256.0384,-861.0371"/>
<polygon fill="#000000" stroke="#000000" points="259.4728,-861.713 258.1231,-851.2045 252.625,-860.2611 259.4728,-861.713"/>
<text text-anchor="middle" x="268.5" y="-1051.132" font-family="Times,serif" font-size="20.00" fill="#000000">200</text>
<text text-anchor="middle" x="268.5" y="-1029.132" font-family="Times,serif" font-size="20.00" fill="#000000">201</text>
<text text-anchor="middle" x="268.5" y="-1007.132" font-family="Times,serif" font-size="20.00" fill="#000000">202</text>
<text text-anchor="middle" x="268.5" y="-985.132" font-family="Times,serif" font-size="20.00" fill="#000000">203</text>
<text text-anchor="middle" x="268.5" y="-963.132" font-family="Times,serif" font-size="20.00" fill="#000000">206</text>
<text text-anchor="middle" x="268.5" y="-941.132" font-family="Times,serif" font-size="20.00" fill="#000000">207</text>
<text text-anchor="middle" x="268.5" y="-919.132" font-family="Times,serif" font-size="20.00" fill="#000000">208</text>
<text text-anchor="middle" x="268.5" y="-897.132" font-family="Times,serif" font-size="20.00" fill="#000000">226</text>
</g>
<!-- SG_0_Node_8 -->
<g id="node6" class="node">
<title>SG_0_Node_8</title>
<ellipse fill="none" stroke="#000000" cx="96" cy="-672.4924" rx="34.7971" ry="21.4286"/>
<text text-anchor="middle" x="96" y="-667.4924" font-family="Times,serif" font-size="20.00" fill="#000000">0.0</text>
</g>
<!-- SG_0_Node_2&#45;&gt;SG_0_Node_8 -->
<g id="edge5" class="edge">
<title>SG_0_Node_2&#45;&gt;SG_0_Node_8</title>
<path fill="none" stroke="#000000" d="M172.8313,-814.8376C150.3069,-806.2028 128.2224,-793.4693 113,-774.7056 97.0269,-755.0166 93.4888,-726.0268 93.5352,-703.9446"/>
<polygon fill="#000000" stroke="#000000" points="97.0397,-703.8197 93.8071,-693.7301 90.0422,-703.6334 97.0397,-703.8197"/>
<text text-anchor="middle" x="174" y="-758.7056" font-family="Times,serif" font-size="20.00" fill="#000000">[NA]</text>
<text text-anchor="middle" x="174" y="-736.7056" font-family="Times,serif" font-size="20.00" fill="#000000">same&#45;origin</text>
</g>
<!-- SG_0_Node_3 -->
<g id="node7" class="node">
<title>SG_0_Node_3</title>
<polygon fill="none" stroke="#000000" points="303.5,-690.4924 148.5,-690.4924 148.5,-654.4924 303.5,-654.4924 303.5,-690.4924"/>
<text text-anchor="middle" x="226" y="-667.4924" font-family="Times,serif" font-size="20.00" fill="#000000">Content&#45;Type</text>
</g>
<!-- SG_0_Node_2&#45;&gt;SG_0_Node_3 -->
<g id="edge6" class="edge">
<title>SG_0_Node_2&#45;&gt;SG_0_Node_3</title>
<path fill="none" stroke="#000000" d="M257.9403,-814.8277C251.7014,-787.0255 239.7055,-733.5683 232.3221,-700.6655"/>
<polygon fill="#000000" stroke="#000000" points="235.7048,-699.7545 230.1001,-690.7636 228.8746,-701.2873 235.7048,-699.7545"/>
<text text-anchor="middle" x="280" y="-747.7056" font-family="Times,serif" font-size="20.00" fill="#000000">empty</text>
</g>
<!-- SG_0_Node_9 -->
<g id="node8" class="node">
<title>SG_0_Node_9</title>
<ellipse fill="none" stroke="#000000" cx="58" cy="-424.066" rx="34.7971" ry="21.4286"/>
<text text-anchor="middle" x="58" y="-419.066" font-family="Times,serif" font-size="20.00" fill="#000000">0.0</text>
</g>
<!-- SG_0_Node_3&#45;&gt;SG_0_Node_9 -->
<g id="edge7" class="edge">
<title>SG_0_Node_3&#45;&gt;SG_0_Node_9</title>
<path fill="none" stroke="#000000" d="M171.7308,-654.4158C151.4288,-645.2388 129.742,-632.1604 115,-614.2792 76.7514,-567.8858 64.1626,-496.416 60.0235,-455.5739"/>
<polygon fill="#000000" stroke="#000000" points="63.4898,-455.0426 59.104,-445.3982 56.5182,-455.6727 63.4898,-455.0426"/>
<text text-anchor="middle" x="169.5" y="-565.2792" font-family="Times,serif" font-size="20.00" fill="#000000">audio/wav</text>
<text text-anchor="middle" x="169.5" y="-543.2792" font-family="Times,serif" font-size="20.00" fill="#000000">image/png</text>
<text text-anchor="middle" x="169.5" y="-521.2792" font-family="Times,serif" font-size="20.00" fill="#000000">video/mp4</text>
</g>
<!-- SG_0_Node_4 -->
<g id="node9" class="node">
<title>SG_0_Node_4</title>
<polygon fill="none" stroke="#000000" points="373,-442.066 111,-442.066 111,-406.066 373,-406.066 373,-442.066"/>
<text text-anchor="middle" x="242" y="-419.066" font-family="Times,serif" font-size="20.00" fill="#000000">X&#45;Content&#45;Type&#45;Options</text>
</g>
<!-- SG_0_Node_3&#45;&gt;SG_0_Node_4 -->
<g id="edge8" class="edge">
<title>SG_0_Node_3&#45;&gt;SG_0_Node_4</title>
<path fill="none" stroke="#000000" d="M226.6494,-654.3763C227.93,-620.5322 231.0898,-545.4152 236,-482.2792 236.7613,-472.4909 237.8027,-461.7977 238.8044,-452.2774"/>
<polygon fill="#000000" stroke="#000000" points="242.3054,-452.4564 239.9013,-442.1379 235.346,-451.7034 242.3054,-452.4564"/>
<text text-anchor="middle" x="347" y="-598.2792" font-family="Times,serif" font-size="20.00" fill="#000000">[NA]</text>
<text text-anchor="middle" x="347" y="-576.2792" font-family="Times,serif" font-size="20.00" fill="#000000">application/javascript</text>
<text text-anchor="middle" x="347" y="-554.2792" font-family="Times,serif" font-size="20.00" fill="#000000">application/pdf</text>
<text text-anchor="middle" x="347" y="-532.2792" font-family="Times,serif" font-size="20.00" fill="#000000">empty</text>
<text text-anchor="middle" x="347" y="-510.2792" font-family="Times,serif" font-size="20.00" fill="#000000">text/css</text>
<text text-anchor="middle" x="347" y="-488.2792" font-family="Times,serif" font-size="20.00" fill="#000000">text/html</text>
</g>
<!-- SG_0_Node_5 -->
<g id="node10" class="node">
<title>SG_0_Node_5</title>
<polygon fill="none" stroke="#000000" points="244.5,-281.6396 89.5,-281.6396 89.5,-245.6396 244.5,-245.6396 244.5,-281.6396"/>
<text text-anchor="middle" x="167" y="-258.6396" font-family="Times,serif" font-size="20.00" fill="#000000">Content&#45;Type</text>
</g>
<!-- SG_0_Node_4&#45;&gt;SG_0_Node_5 -->
<g id="edge9" class="edge">
<title>SG_0_Node_4&#45;&gt;SG_0_Node_5</title>
<path fill="none" stroke="#000000" d="M220.2447,-405.9727C208.9439,-395.4129 195.8845,-381.1747 188,-365.8528 176.0869,-342.7021 170.9312,-313.3304 168.7004,-292.0191"/>
<polygon fill="#000000" stroke="#000000" points="172.1792,-291.6247 167.8017,-281.9765 165.2071,-292.2487 172.1792,-291.6247"/>
<text text-anchor="middle" x="223" y="-349.8528" font-family="Times,serif" font-size="20.00" fill="#000000">[NA]</text>
<text text-anchor="middle" x="223" y="-327.8528" font-family="Times,serif" font-size="20.00" fill="#000000">nosniff</text>
</g>
<!-- SG_0_Node_10 -->
<g id="node11" class="node">
<title>SG_0_Node_10</title>
<ellipse fill="none" stroke="#000000" cx="297" cy="-263.6396" rx="34.7971" ry="21.4286"/>
<text text-anchor="middle" x="297" y="-258.6396" font-family="Times,serif" font-size="20.00" fill="#000000">1.0</text>
</g>
<!-- SG_0_Node_4&#45;&gt;SG_0_Node_10 -->
<g id="edge10" class="edge">
<title>SG_0_Node_4&#45;&gt;SG_0_Node_10</title>
<path fill="none" stroke="#000000" d="M248.2023,-405.9749C257.5206,-378.7949 275.245,-327.0955 286.5734,-294.0523"/>
<polygon fill="#000000" stroke="#000000" points="289.9351,-295.0389 289.8674,-284.4442 283.3134,-292.7687 289.9351,-295.0389"/>
<text text-anchor="middle" x="308" y="-338.8528" font-family="Times,serif" font-size="20.00" fill="#000000">empty</text>
</g>
<!-- SG_0_Node_11 -->
<g id="node12" class="node">
<title>SG_0_Node_11</title>
<ellipse fill="none" stroke="#000000" cx="51" cy="-37.2132" rx="34.7971" ry="21.4286"/>
<text text-anchor="middle" x="51" y="-32.2132" font-family="Times,serif" font-size="20.00" fill="#000000">0.0</text>
</g>
<!-- SG_0_Node_5&#45;&gt;SG_0_Node_11 -->
<g id="edge11" class="edge">
<title>SG_0_Node_5&#45;&gt;SG_0_Node_11</title>
<path fill="none" stroke="#000000" d="M89.1585,-246.6132C67.6628,-237.9518 46.7597,-224.9397 34,-205.4264 6.6886,-163.6595 23.1515,-103.1773 37.2916,-67.26"/>
<polygon fill="#000000" stroke="#000000" points="40.6088,-68.3962 41.1799,-57.8168 34.136,-65.731 40.6088,-68.3962"/>
<text text-anchor="middle" x="111" y="-189.4264" font-family="Times,serif" font-size="20.00" fill="#000000">[NA]</text>
<text text-anchor="middle" x="111" y="-167.4264" font-family="Times,serif" font-size="20.00" fill="#000000">application/pdf</text>
<text text-anchor="middle" x="111" y="-145.4264" font-family="Times,serif" font-size="20.00" fill="#000000">empty</text>
<text text-anchor="middle" x="111" y="-123.4264" font-family="Times,serif" font-size="20.00" fill="#000000">text/css</text>
<text text-anchor="middle" x="111" y="-101.4264" font-family="Times,serif" font-size="20.00" fill="#000000">text/html</text>
</g>
<!-- SG_0_Node_12 -->
<g id="node13" class="node">
<title>SG_0_Node_12</title>
<ellipse fill="none" stroke="#000000" cx="224" cy="-37.2132" rx="34.7971" ry="21.4286"/>
<text text-anchor="middle" x="224" y="-32.2132" font-family="Times,serif" font-size="20.00" fill="#000000">1.0</text>
</g>
<!-- SG_0_Node_5&#45;&gt;SG_0_Node_12 -->
<g id="edge12" class="edge">
<title>SG_0_Node_5&#45;&gt;SG_0_Node_12</title>
<path fill="none" stroke="#000000" d="M176.0464,-245.4114C181.3382,-234.1256 187.7858,-219.2051 192,-205.4264 206.2395,-158.8691 215.3565,-103.0359 220.0773,-68.85"/>
<polygon fill="#000000" stroke="#000000" points="223.5982,-68.9267 221.4565,-58.5506 216.6601,-67.9975 223.5982,-68.9267"/>
<text text-anchor="middle" x="326" y="-145.4264" font-family="Times,serif" font-size="20.00" fill="#000000">application/javascript</text>
</g>
<!-- SG_1_Node_0 -->
<g id="node14" class="node">
<title>SG_1_Node_0</title>
<polygon fill="none" stroke="#000000" points="837.5,-1300.5584 772.5,-1300.5584 772.5,-1264.5584 837.5,-1264.5584 837.5,-1300.5584"/>
<text text-anchor="middle" x="805" y="-1277.5584" font-family="Times,serif" font-size="20.00" fill="#000000">body</text>
</g>
<!-- SG_1_Node_1 -->
<g id="node15" class="node">
<title>SG_1_Node_1</title>
<polygon fill="none" stroke="#000000" points="758,-1143.3452 616,-1143.3452 616,-1107.3452 758,-1107.3452 758,-1143.3452"/>
<text text-anchor="middle" x="687" y="-1120.3452" font-family="Times,serif" font-size="20.00" fill="#000000">Status&#45;Code</text>
</g>
<!-- SG_1_Node_0&#45;&gt;SG_1_Node_1 -->
<g id="edge13" class="edge">
<title>SG_1_Node_0&#45;&gt;SG_1_Node_1</title>
<path fill="none" stroke="#000000" d="M772.3775,-1274.0286C748.6541,-1266.0514 717.8547,-1251.662 701,-1227.5584 685.9167,-1205.9881 683.5369,-1175.5011 684.2462,-1153.4421"/>
<polygon fill="#000000" stroke="#000000" points="687.7458,-1153.5434 684.8005,-1143.3662 680.7564,-1153.1589 687.7458,-1153.5434"/>
<text text-anchor="middle" x="801.5" y="-1200.5584" font-family="Times,serif" font-size="20.00" fill="#000000">ecocnt_js=var a=5;</text>
</g>
<!-- SG_1_Node_6 -->
<g id="node16" class="node">
<title>SG_1_Node_6</title>
<ellipse fill="none" stroke="#000000" cx="924" cy="-1125.3452" rx="34.7971" ry="21.4286"/>
<text text-anchor="middle" x="924" y="-1120.3452" font-family="Times,serif" font-size="20.00" fill="#000000">1.0</text>
</g>
<!-- SG_1_Node_0&#45;&gt;SG_1_Node_6 -->
<g id="edge14" class="edge">
<title>SG_1_Node_0&#45;&gt;SG_1_Node_6</title>
<path fill="none" stroke="#000000" d="M837.7479,-1271.9986C859.2338,-1263.3903 886.1854,-1249.0901 902,-1227.5584 917.0517,-1207.0655 922.2183,-1178.396 923.8112,-1156.6337"/>
<polygon fill="#000000" stroke="#000000" points="927.3103,-1156.7394 924.3337,-1146.5713 920.3197,-1156.3764 927.3103,-1156.7394"/>
<text text-anchor="middle" x="965" y="-1211.5584" font-family="Times,serif" font-size="20.00" fill="#000000">[NA]</text>
<text text-anchor="middle" x="965" y="-1189.5584" font-family="Times,serif" font-size="20.00" fill="#000000">12 levels</text>
</g>
<!-- SG_1_Node_2 -->
<g id="node17" class="node">
<title>SG_1_Node_2</title>
<polygon fill="none" stroke="#000000" points="820.5,-850.9188 503.5,-850.9188 503.5,-814.9188 820.5,-814.9188 820.5,-850.9188"/>
<text text-anchor="middle" x="662" y="-827.9188" font-family="Times,serif" font-size="20.00" fill="#000000">Cross&#45;Origin&#45;Resource&#45;Policy</text>
</g>
<!-- SG_1_Node_1&#45;&gt;SG_1_Node_2 -->
<g id="edge15" class="edge">
<title>SG_1_Node_1&#45;&gt;SG_1_Node_2</title>
<path fill="none" stroke="#000000" d="M685.4361,-1107.0527C681.2095,-1057.6139 669.5344,-921.049 664.4355,-861.4074"/>
<polygon fill="#000000" stroke="#000000" points="667.9024,-860.87 663.5633,-851.2045 660.9279,-861.4663 667.9024,-860.87"/>
<text text-anchor="middle" x="700.5" y="-1051.132" font-family="Times,serif" font-size="20.00" fill="#000000">200</text>
<text text-anchor="middle" x="700.5" y="-1029.132" font-family="Times,serif" font-size="20.00" fill="#000000">201</text>
<text text-anchor="middle" x="700.5" y="-1007.132" font-family="Times,serif" font-size="20.00" fill="#000000">202</text>
<text text-anchor="middle" x="700.5" y="-985.132" font-family="Times,serif" font-size="20.00" fill="#000000">203</text>
<text text-anchor="middle" x="700.5" y="-963.132" font-family="Times,serif" font-size="20.00" fill="#000000">206</text>
<text text-anchor="middle" x="700.5" y="-941.132" font-family="Times,serif" font-size="20.00" fill="#000000">207</text>
<text text-anchor="middle" x="700.5" y="-919.132" font-family="Times,serif" font-size="20.00" fill="#000000">208</text>
<text text-anchor="middle" x="700.5" y="-897.132" font-family="Times,serif" font-size="20.00" fill="#000000">226</text>
</g>
<!-- SG_1_Node_7 -->
<g id="node18" class="node">
<title>SG_1_Node_7</title>
<ellipse fill="none" stroke="#000000" cx="873" cy="-832.9188" rx="34.7971" ry="21.4286"/>
<text text-anchor="middle" x="873" y="-827.9188" font-family="Times,serif" font-size="20.00" fill="#000000">1.0</text>
</g>
<!-- SG_1_Node_1&#45;&gt;SG_1_Node_7 -->
<g id="edge16" class="edge">
<title>SG_1_Node_1&#45;&gt;SG_1_Node_7</title>
<path fill="none" stroke="#000000" d="M698.6351,-1107.0527C730.1046,-1057.5768 817.0746,-920.8439 854.965,-861.2732"/>
<polygon fill="#000000" stroke="#000000" points="857.9844,-863.0475 860.3981,-852.7313 852.0779,-859.2907 857.9844,-863.0475"/>
<text text-anchor="middle" x="881" y="-985.132" font-family="Times,serif" font-size="20.00" fill="#000000">[NA]</text>
<text text-anchor="middle" x="881" y="-963.132" font-family="Times,serif" font-size="20.00" fill="#000000">54 levels</text>
</g>
<!-- SG_1_Node_3 -->
<g id="node19" class="node">
<title>SG_1_Node_3</title>
<polygon fill="none" stroke="#000000" points="721.5,-690.4924 566.5,-690.4924 566.5,-654.4924 721.5,-654.4924 721.5,-690.4924"/>
<text text-anchor="middle" x="644" y="-667.4924" font-family="Times,serif" font-size="20.00" fill="#000000">Content&#45;Type</text>
</g>
<!-- SG_1_Node_2&#45;&gt;SG_1_Node_3 -->
<g id="edge17" class="edge">
<title>SG_1_Node_2&#45;&gt;SG_1_Node_3</title>
<path fill="none" stroke="#000000" d="M659.9702,-814.8277C656.8642,-787.1459 650.9046,-734.0306 647.2091,-701.0939"/>
<polygon fill="#000000" stroke="#000000" points="650.6433,-700.3109 646.05,-690.7636 643.687,-701.0915 650.6433,-700.3109"/>
<text text-anchor="middle" x="687" y="-747.7056" font-family="Times,serif" font-size="20.00" fill="#000000">empty</text>
</g>
<!-- SG_1_Node_8 -->
<g id="node20" class="node">
<title>SG_1_Node_8</title>
<ellipse fill="none" stroke="#000000" cx="774" cy="-672.4924" rx="34.7971" ry="21.4286"/>
<text text-anchor="middle" x="774" y="-667.4924" font-family="Times,serif" font-size="20.00" fill="#000000">1.0</text>
</g>
<!-- SG_1_Node_2&#45;&gt;SG_1_Node_8 -->
<g id="edge18" class="edge">
<title>SG_1_Node_2&#45;&gt;SG_1_Node_8</title>
<path fill="none" stroke="#000000" d="M684.4477,-814.8661C696.8613,-804.1079 711.9602,-789.6642 723,-774.7056 739.4694,-752.3901 753.1648,-723.952 762.202,-702.7405"/>
<polygon fill="#000000" stroke="#000000" points="765.5363,-703.8372 766.1377,-693.2595 759.0712,-701.1535 765.5363,-703.8372"/>
<text text-anchor="middle" x="809" y="-758.7056" font-family="Times,serif" font-size="20.00" fill="#000000">[NA]</text>
<text text-anchor="middle" x="809" y="-736.7056" font-family="Times,serif" font-size="20.00" fill="#000000">same&#45;origin</text>
</g>
<!-- SG_1_Node_4 -->
<g id="node21" class="node">
<title>SG_1_Node_4</title>
<polygon fill="none" stroke="#000000" points="747,-442.066 485,-442.066 485,-406.066 747,-406.066 747,-442.066"/>
<text text-anchor="middle" x="616" y="-419.066" font-family="Times,serif" font-size="20.00" fill="#000000">X&#45;Content&#45;Type&#45;Options</text>
</g>
<!-- SG_1_Node_3&#45;&gt;SG_1_Node_4 -->
<g id="edge19" class="edge">
<title>SG_1_Node_3&#45;&gt;SG_1_Node_4</title>
<path fill="none" stroke="#000000" d="M638.8165,-654.2919C635.7708,-642.8896 632.1147,-627.8362 630,-614.2792 621.105,-557.2555 617.8325,-489.7079 616.6497,-452.3995"/>
<polygon fill="#000000" stroke="#000000" points="620.1446,-452.1689 616.3571,-442.2742 613.1475,-452.3712 620.1446,-452.1689"/>
<text text-anchor="middle" x="741" y="-598.2792" font-family="Times,serif" font-size="20.00" fill="#000000">[NA]</text>
<text text-anchor="middle" x="741" y="-576.2792" font-family="Times,serif" font-size="20.00" fill="#000000">application/javascript</text>
<text text-anchor="middle" x="741" y="-554.2792" font-family="Times,serif" font-size="20.00" fill="#000000">application/pdf</text>
<text text-anchor="middle" x="741" y="-532.2792" font-family="Times,serif" font-size="20.00" fill="#000000">empty</text>
<text text-anchor="middle" x="741" y="-510.2792" font-family="Times,serif" font-size="20.00" fill="#000000">text/css</text>
<text text-anchor="middle" x="741" y="-488.2792" font-family="Times,serif" font-size="20.00" fill="#000000">text/html</text>
</g>
<!-- SG_1_Node_9 -->
<g id="node22" class="node">
<title>SG_1_Node_9</title>
<ellipse fill="none" stroke="#000000" cx="874" cy="-424.066" rx="34.7971" ry="21.4286"/>
<text text-anchor="middle" x="874" y="-419.066" font-family="Times,serif" font-size="20.00" fill="#000000">1.0</text>
</g>
<!-- SG_1_Node_3&#45;&gt;SG_1_Node_9 -->
<g id="edge20" class="edge">
<title>SG_1_Node_3&#45;&gt;SG_1_Node_9</title>
<path fill="none" stroke="#000000" d="M715.6576,-654.4538C773.9574,-639.462 847.3442,-619.7341 852,-614.2792 889.9196,-569.8513 886.1508,-496.805 880.0561,-455.3535"/>
<polygon fill="#000000" stroke="#000000" points="883.4806,-454.6041 878.4376,-445.2865 876.5694,-455.7153 883.4806,-454.6041"/>
<text text-anchor="middle" x="937.5" y="-565.2792" font-family="Times,serif" font-size="20.00" fill="#000000">audio/wav</text>
<text text-anchor="middle" x="937.5" y="-543.2792" font-family="Times,serif" font-size="20.00" fill="#000000">image/png</text>
<text text-anchor="middle" x="937.5" y="-521.2792" font-family="Times,serif" font-size="20.00" fill="#000000">video/mp4</text>
</g>
<!-- SG_1_Node_10 -->
<g id="node23" class="node">
<title>SG_1_Node_10</title>
<ellipse fill="none" stroke="#000000" cx="512" cy="-263.6396" rx="34.7971" ry="21.4286"/>
<text text-anchor="middle" x="512" y="-258.6396" font-family="Times,serif" font-size="20.00" fill="#000000">0.0</text>
</g>
<!-- SG_1_Node_4&#45;&gt;SG_1_Node_10 -->
<g id="edge21" class="edge">
<title>SG_1_Node_4&#45;&gt;SG_1_Node_10</title>
<path fill="none" stroke="#000000" d="M593.7681,-405.8267C581.742,-395.1172 567.2885,-380.7818 557,-365.8528 541.7079,-343.6634 529.7562,-315.4394 522.0254,-294.2741"/>
<polygon fill="#000000" stroke="#000000" points="525.3088,-293.0609 518.6734,-284.8013 518.7098,-295.396 525.3088,-293.0609"/>
<text text-anchor="middle" x="589" y="-338.8528" font-family="Times,serif" font-size="20.00" fill="#000000">empty</text>
</g>
<!-- SG_1_Node_5 -->
<g id="node24" class="node">
<title>SG_1_Node_5</title>
<polygon fill="none" stroke="#000000" points="719.5,-281.6396 564.5,-281.6396 564.5,-245.6396 719.5,-245.6396 719.5,-281.6396"/>
<text text-anchor="middle" x="642" y="-258.6396" font-family="Times,serif" font-size="20.00" fill="#000000">Content&#45;Type</text>
</g>
<!-- SG_1_Node_4&#45;&gt;SG_1_Node_5 -->
<g id="edge22" class="edge">
<title>SG_1_Node_4&#45;&gt;SG_1_Node_5</title>
<path fill="none" stroke="#000000" d="M618.932,-405.9749C623.4378,-378.1727 632.1016,-324.7154 637.434,-291.8126"/>
<polygon fill="#000000" stroke="#000000" points="640.8939,-292.3419 639.0388,-281.9107 633.984,-291.222 640.8939,-292.3419"/>
<text text-anchor="middle" x="667" y="-349.8528" font-family="Times,serif" font-size="20.00" fill="#000000">[NA]</text>
<text text-anchor="middle" x="667" y="-327.8528" font-family="Times,serif" font-size="20.00" fill="#000000">nosniff</text>
</g>
<!-- SG_1_Node_11 -->
<g id="node25" class="node">
<title>SG_1_Node_11</title>
<ellipse fill="none" stroke="#000000" cx="559" cy="-37.2132" rx="34.7971" ry="21.4286"/>
<text text-anchor="middle" x="559" y="-32.2132" font-family="Times,serif" font-size="20.00" fill="#000000">0.0</text>
</g>
<!-- SG_1_Node_5&#45;&gt;SG_1_Node_11 -->
<g id="edge23" class="edge">
<title>SG_1_Node_5&#45;&gt;SG_1_Node_11</title>
<path fill="none" stroke="#000000" d="M610.8604,-245.4555C596.8056,-235.5123 581.4829,-221.8602 573,-205.4264 550.6471,-162.1225 551.4273,-104.0968 554.7186,-68.749"/>
<polygon fill="#000000" stroke="#000000" points="558.2262,-68.8612 555.7978,-58.5484 551.265,-68.1246 558.2262,-68.8612"/>
<text text-anchor="middle" x="684" y="-145.4264" font-family="Times,serif" font-size="20.00" fill="#000000">application/javascript</text>
</g>
<!-- SG_1_Node_12 -->
<g id="node26" class="node">
<title>SG_1_Node_12</title>
<ellipse fill="none" stroke="#000000" cx="817" cy="-37.2132" rx="34.7971" ry="21.4286"/>
<text text-anchor="middle" x="817" y="-32.2132" font-family="Times,serif" font-size="20.00" fill="#000000">1.0</text>
</g>
<!-- SG_1_Node_5&#45;&gt;SG_1_Node_12 -->
<g id="edge24" class="edge">
<title>SG_1_Node_5&#45;&gt;SG_1_Node_12</title>
<path fill="none" stroke="#000000" d="M719.5888,-251.212C747.4379,-242.8423 776.5009,-228.8418 795,-205.4264 825.909,-166.3032 825.5592,-105.3639 821.7761,-68.5703"/>
<polygon fill="#000000" stroke="#000000" points="825.227,-67.9468 820.5822,-58.4244 818.275,-68.7649 825.227,-67.9468"/>
<text text-anchor="middle" x="900" y="-189.4264" font-family="Times,serif" font-size="20.00" fill="#000000">[NA]</text>
<text text-anchor="middle" x="900" y="-167.4264" font-family="Times,serif" font-size="20.00" fill="#000000">application/pdf</text>
<text text-anchor="middle" x="900" y="-145.4264" font-family="Times,serif" font-size="20.00" fill="#000000">empty</text>
<text text-anchor="middle" x="900" y="-123.4264" font-family="Times,serif" font-size="20.00" fill="#000000">text/css</text>
<text text-anchor="middle" x="900" y="-101.4264" font-family="Times,serif" font-size="20.00" fill="#000000">text/html</text>
</g>
</g>
</svg>
