<?xml version="1.0" encoding="UTF-8" standalone="no"?>
<!DOCTYPE svg PUBLIC "-//W3C//DTD SVG 1.1//EN"
 "http://www.w3.org/Graphics/SVG/1.1/DTD/svg11.dtd">
<!-- Generated by graphviz version 2.40.1 (20161225.0304)
 -->
<!-- Title: G Pages: 1 -->
<svg width="932pt" height="1179pt"
 viewBox="0.00 0.00 932.00 1178.56" xmlns="http://www.w3.org/2000/svg" xmlns:xlink="http://www.w3.org/1999/xlink">
<g id="graph0" class="graph" transform="scale(1 1) rotate(0) translate(4 1174.5584)">
<title>G</title>
<polygon fill="#ffffff" stroke="transparent" points="-4,4 -4,-1174.5584 928,-1174.5584 928,4 -4,4"/>
<g id="clust1" class="cluster">
<title>cluster_0</title>
<polygon fill="none" stroke="#000000" points="8,-8 8,-1162.5584 454,-1162.5584 454,-8 8,-8"/>
<text text-anchor="middle" x="231" y="-1126.5584" font-family="Times,serif" font-size="40.00" fill="#000000">Tree 0, Class 1</text>
</g>
<g id="clust9" class="cluster">
<title>cluster_1</title>
<polygon fill="none" stroke="#000000" points="462,-8 462,-1162.5584 908,-1162.5584 908,-8 462,-8"/>
<text text-anchor="middle" x="685" y="-1126.5584" font-family="Times,serif" font-size="40.00" fill="#000000">Tree 0, Class js&#45;NaN</text>
</g>
<!-- SG_0_Node_0 -->
<g id="node1" class="node">
<title>SG_0_Node_0</title>
<polygon fill="none" stroke="#000000" points="145.5,-1102.5584 80.5,-1102.5584 80.5,-1066.5584 145.5,-1066.5584 145.5,-1102.5584"/>
<text text-anchor="middle" x="113" y="-1079.5584" font-family="Times,serif" font-size="20.00" fill="#000000">body</text>
</g>
<!-- SG_0_Node_6 -->
<g id="node2" class="node">
<title>SG_0_Node_6</title>
<ellipse fill="none" stroke="#000000" cx="51" cy="-927.3452" rx="34.7971" ry="21.4286"/>
<text text-anchor="middle" x="51" y="-922.3452" font-family="Times,serif" font-size="20.00" fill="#000000">0.0</text>
</g>
<!-- SG_0_Node_0&#45;&gt;SG_0_Node_6 -->
<g id="edge1" class="edge">
<title>SG_0_Node_0&#45;&gt;SG_0_Node_6</title>
<path fill="none" stroke="#000000" d="M91.0933,-1066.4158C80.8054,-1056.6171 69.418,-1043.6513 63,-1029.5584 52.9105,-1007.4036 50.1617,-979.8781 49.7976,-958.9745"/>
<polygon fill="#000000" stroke="#000000" points="53.2976,-958.7106 49.7984,-948.7103 46.2976,-958.71 53.2976,-958.7106"/>
<text text-anchor="middle" x="109" y="-1013.5584" font-family="Times,serif" font-size="20.00" fill="#000000">[NA]</text>
<text text-anchor="middle" x="109" y="-991.5584" font-family="Times,serif" font-size="20.00" fill="#000000">12 levels</text>
</g>
<!-- SG_0_Node_1 -->
<g id="node3" class="node">
<title>SG_0_Node_1</title>
<polygon fill="none" stroke="#000000" points="248,-945.3452 106,-945.3452 106,-909.3452 248,-909.3452 248,-945.3452"/>
<text text-anchor="middle" x="177" y="-922.3452" font-family="Times,serif" font-size="20.00" fill="#000000">Status&#45;Code</text>
</g>
<!-- SG_0_Node_0&#45;&gt;SG_0_Node_1 -->
<g id="edge2" class="edge">
<title>SG_0_Node_0&#45;&gt;SG_0_Node_1</title>
<path fill="none" stroke="#000000" d="M130.4302,-1066.0669C139.0355,-1055.9839 148.8619,-1042.8688 155,-1029.5584 165.9246,-1005.8686 171.5168,-976.5631 174.3207,-955.4136"/>
<polygon fill="#000000" stroke="#000000" points="177.7988,-955.8046 175.5154,-945.4588 170.8487,-954.9704 177.7988,-955.8046"/>
<text text-anchor="middle" x="303.5" y="-1002.5584" font-family="Times,serif" font-size="20.00" fill="#000000">ecocnt_audio=duration=1</text>
</g>
<!-- SG_0_Node_7 -->
<g id="node4" class="node">
<title>SG_0_Node_7</title>
<ellipse fill="none" stroke="#000000" cx="51" cy="-766.9188" rx="34.7971" ry="21.4286"/>
<text text-anchor="middle" x="51" y="-761.9188" font-family="Times,serif" font-size="20.00" fill="#000000">0.0</text>
</g>
<!-- SG_0_Node_1&#45;&gt;SG_0_Node_7 -->
<g id="edge3" class="edge">
<title>SG_0_Node_1&#45;&gt;SG_0_Node_7</title>
<path fill="none" stroke="#000000" d="M153.4394,-909.2077C140.3277,-898.4221 124.235,-883.9793 112,-869.132 93.3398,-846.4878 76.6138,-817.5189 65.4168,-796.2071"/>
<polygon fill="#000000" stroke="#000000" points="68.5147,-794.578 60.8208,-787.2942 62.2932,-797.7862 68.5147,-794.578"/>
<text text-anchor="middle" x="158" y="-853.132" font-family="Times,serif" font-size="20.00" fill="#000000">[NA]</text>
<text text-anchor="middle" x="158" y="-831.132" font-family="Times,serif" font-size="20.00" fill="#000000">61 levels</text>
</g>
<!-- SG_0_Node_2 -->
<g id="node5" class="node">
<title>SG_0_Node_2</title>
<polygon fill="none" stroke="#000000" points="420.5,-784.9188 103.5,-784.9188 103.5,-748.9188 420.5,-748.9188 420.5,-784.9188"/>
<text text-anchor="middle" x="262" y="-761.9188" font-family="Times,serif" font-size="20.00" fill="#000000">Cross&#45;Origin&#45;Resource&#45;Policy</text>
</g>
<!-- SG_0_Node_1&#45;&gt;SG_0_Node_2 -->
<g id="edge4" class="edge">
<title>SG_0_Node_1&#45;&gt;SG_0_Node_2</title>
<path fill="none" stroke="#000000" d="M186.5854,-909.2541C201.4436,-881.2112 230.1312,-827.0671 247.5232,-794.2419"/>
<polygon fill="#000000" stroke="#000000" points="250.7301,-795.6649 252.3193,-785.19 244.5447,-792.3876 250.7301,-795.6649"/>
<text text-anchor="middle" x="249.5" y="-842.132" font-family="Times,serif" font-size="20.00" fill="#000000">200</text>
</g>
<!-- SG_0_Node_8 -->
<g id="node6" class="node">
<title>SG_0_Node_8</title>
<ellipse fill="none" stroke="#000000" cx="96" cy="-606.4924" rx="34.7971" ry="21.4286"/>
<text text-anchor="middle" x="96" y="-601.4924" font-family="Times,serif" font-size="20.00" fill="#000000">0.0</text>
</g>
<!-- SG_0_Node_2&#45;&gt;SG_0_Node_8 -->
<g id="edge5" class="edge">
<title>SG_0_Node_2&#45;&gt;SG_0_Node_8</title>
<path fill="none" stroke="#000000" d="M172.8313,-748.8376C150.3069,-740.2028 128.2224,-727.4693 113,-708.7056 97.0269,-689.0166 93.4888,-660.0268 93.5352,-637.9446"/>
<polygon fill="#000000" stroke="#000000" points="97.0397,-637.8197 93.8071,-627.7301 90.0422,-637.6334 97.0397,-637.8197"/>
<text text-anchor="middle" x="174" y="-692.7056" font-family="Times,serif" font-size="20.00" fill="#000000">[NA]</text>
<text text-anchor="middle" x="174" y="-670.7056" font-family="Times,serif" font-size="20.00" fill="#000000">same&#45;origin</text>
</g>
<!-- SG_0_Node_3 -->
<g id="node7" class="node">
<title>SG_0_Node_3</title>
<polygon fill="none" stroke="#000000" points="303.5,-624.4924 148.5,-624.4924 148.5,-588.4924 303.5,-588.4924 303.5,-624.4924"/>
<text text-anchor="middle" x="226" y="-601.4924" font-family="Times,serif" font-size="20.00" fill="#000000">Content&#45;Type</text>
</g>
<!-- SG_0_Node_2&#45;&gt;SG_0_Node_3 -->
<g id="edge6" class="edge">
<title>SG_0_Node_2&#45;&gt;SG_0_Node_3</title>
<path fill="none" stroke="#000000" d="M257.9403,-748.8277C251.7014,-721.0255 239.7055,-667.5683 232.3221,-634.6655"/>
<polygon fill="#000000" stroke="#000000" points="235.7048,-633.7545 230.1001,-624.7636 228.8746,-635.2873 235.7048,-633.7545"/>
<text text-anchor="middle" x="280" y="-681.7056" font-family="Times,serif" font-size="20.00" fill="#000000">empty</text>
</g>
<!-- SG_0_Node_4 -->
<g id="node8" class="node">
<title>SG_0_Node_4</title>
<polygon fill="none" stroke="#000000" points="171.5,-354.066 16.5,-354.066 16.5,-318.066 171.5,-318.066 171.5,-354.066"/>
<text text-anchor="middle" x="94" y="-331.066" font-family="Times,serif" font-size="20.00" fill="#000000">Content&#45;Type</text>
</g>
<!-- SG_0_Node_3&#45;&gt;SG_0_Node_4 -->
<g id="edge7" class="edge">
<title>SG_0_Node_3&#45;&gt;SG_0_Node_4</title>
<path fill="none" stroke="#000000" d="M151.9512,-588.3776C115.3004,-577.7596 76.6398,-563.4725 66,-548.2792 26.7385,-492.2152 50.7855,-461.0112 66,-394.2792 68.4306,-383.6184 73.0713,-372.6341 77.886,-363.1191"/>
<polygon fill="#000000" stroke="#000000" points="81.0481,-364.6281 82.6833,-354.1602 74.8772,-361.3236 81.0481,-364.6281"/>
<text text-anchor="middle" x="143" y="-477.2792" font-family="Times,serif" font-size="20.00" fill="#000000">application/pdf</text>
<text text-anchor="middle" x="143" y="-455.2792" font-family="Times,serif" font-size="20.00" fill="#000000">text/html</text>
</g>
<!-- SG_0_Node_9 -->
<g id="node9" class="node">
<title>SG_0_Node_9</title>
<ellipse fill="none" stroke="#000000" cx="224" cy="-336.066" rx="34.7971" ry="21.4286"/>
<text text-anchor="middle" x="224" y="-331.066" font-family="Times,serif" font-size="20.00" fill="#000000">1.0</text>
</g>
<!-- SG_0_Node_3&#45;&gt;SG_0_Node_9 -->
<g id="edge8" class="edge">
<title>SG_0_Node_3&#45;&gt;SG_0_Node_9</title>
<path fill="none" stroke="#000000" d="M225.8657,-588.3291C225.5308,-543.0489 224.6556,-424.7118 224.2339,-367.6871"/>
<polygon fill="#000000" stroke="#000000" points="227.7322,-367.4354 224.1582,-357.4615 220.7324,-367.4872 227.7322,-367.4354"/>
<text text-anchor="middle" x="336" y="-532.2792" font-family="Times,serif" font-size="20.00" fill="#000000">[NA]</text>
<text text-anchor="middle" x="336" y="-510.2792" font-family="Times,serif" font-size="20.00" fill="#000000">application/javascript</text>
<text text-anchor="middle" x="336" y="-488.2792" font-family="Times,serif" font-size="20.00" fill="#000000">audio/wav</text>
<text text-anchor="middle" x="336" y="-466.2792" font-family="Times,serif" font-size="20.00" fill="#000000">empty</text>
<text text-anchor="middle" x="336" y="-444.2792" font-family="Times,serif" font-size="20.00" fill="#000000">image/png</text>
<text text-anchor="middle" x="336" y="-422.2792" font-family="Times,serif" font-size="20.00" fill="#000000">text/css</text>
<text text-anchor="middle" x="336" y="-400.2792" font-family="Times,serif" font-size="20.00" fill="#000000">video/mp4</text>
</g>
<!-- SG_0_Node_10 -->
<g id="node10" class="node">
<title>SG_0_Node_10</title>
<ellipse fill="none" stroke="#000000" cx="72" cy="-197.6396" rx="34.7971" ry="21.4286"/>
<text text-anchor="middle" x="72" y="-192.6396" font-family="Times,serif" font-size="20.00" fill="#000000">0.0</text>
</g>
<!-- SG_0_Node_4&#45;&gt;SG_0_Node_10 -->
<g id="edge9" class="edge">
<title>SG_0_Node_4&#45;&gt;SG_0_Node_10</title>
<path fill="none" stroke="#000000" d="M91.1239,-317.9692C87.5298,-295.3549 81.3215,-256.2913 76.9556,-228.8205"/>
<polygon fill="#000000" stroke="#000000" points="80.4081,-228.2448 75.3818,-218.9181 73.4948,-229.3436 80.4081,-228.2448"/>
<text text-anchor="middle" x="161" y="-261.8528" font-family="Times,serif" font-size="20.00" fill="#000000">application/pdf</text>
</g>
<!-- SG_0_Node_5 -->
<g id="node11" class="node">
<title>SG_0_Node_5</title>
<polygon fill="none" stroke="#000000" points="393,-215.6396 131,-215.6396 131,-179.6396 393,-179.6396 393,-215.6396"/>
<text text-anchor="middle" x="262" y="-192.6396" font-family="Times,serif" font-size="20.00" fill="#000000">X&#45;Content&#45;Type&#45;Options</text>
</g>
<!-- SG_0_Node_4&#45;&gt;SG_0_Node_5 -->
<g id="edge10" class="edge">
<title>SG_0_Node_4&#45;&gt;SG_0_Node_5</title>
<path fill="none" stroke="#000000" d="M154.3484,-318.0327C188.9702,-306.5646 227.905,-291.3806 240,-277.8528 252.6325,-263.7239 258.0946,-242.9981 260.4182,-226.1536"/>
<polygon fill="#000000" stroke="#000000" points="263.9473,-226.07 261.5358,-215.7533 256.9873,-225.3221 263.9473,-226.07"/>
<text text-anchor="middle" x="299" y="-261.8528" font-family="Times,serif" font-size="20.00" fill="#000000">text/html</text>
</g>
<!-- SG_0_Node_11 -->
<g id="node12" class="node">
<title>SG_0_Node_11</title>
<ellipse fill="none" stroke="#000000" cx="209" cy="-37.2132" rx="34.7971" ry="21.4286"/>
<text text-anchor="middle" x="209" y="-32.2132" font-family="Times,serif" font-size="20.00" fill="#000000">0.0</text>
</g>
<!-- SG_0_Node_5&#45;&gt;SG_0_Node_11 -->
<g id="edge11" class="edge">
<title>SG_0_Node_5&#45;&gt;SG_0_Node_11</title>
<path fill="none" stroke="#000000" d="M246.6489,-179.4495C238.2819,-168.535 228.5319,-153.9817 223,-139.4264 214.3844,-116.7572 210.9661,-89.4748 209.6575,-68.8005"/>
<polygon fill="#000000" stroke="#000000" points="213.145,-68.4633 209.1491,-58.6509 206.1538,-68.8135 213.145,-68.4633"/>
<text text-anchor="middle" x="258" y="-112.4264" font-family="Times,serif" font-size="20.00" fill="#000000">nosniff</text>
</g>
<!-- SG_0_Node_12 -->
<g id="node13" class="node">
<title>SG_0_Node_12</title>
<ellipse fill="none" stroke="#000000" cx="315" cy="-37.2132" rx="34.7971" ry="21.4286"/>
<text text-anchor="middle" x="315" y="-32.2132" font-family="Times,serif" font-size="20.00" fill="#000000">1.0</text>
</g>
<!-- SG_0_Node_5&#45;&gt;SG_0_Node_12 -->
<g id="edge12" class="edge">
<title>SG_0_Node_5&#45;&gt;SG_0_Node_12</title>
<path fill="none" stroke="#000000" d="M273.2697,-179.6318C279.8505,-168.4266 287.8473,-153.5133 293,-139.4264 301.4428,-116.3449 307.109,-89.0864 310.5739,-68.526"/>
<polygon fill="#000000" stroke="#000000" points="314.0633,-68.87 312.1882,-58.4424 307.1513,-67.7633 314.0633,-68.87"/>
<text text-anchor="middle" x="337" y="-123.4264" font-family="Times,serif" font-size="20.00" fill="#000000">[NA]</text>
<text text-anchor="middle" x="337" y="-101.4264" font-family="Times,serif" font-size="20.00" fill="#000000">empty</text>
</g>
<!-- SG_1_Node_0 -->
<g id="node14" class="node">
<title>SG_1_Node_0</title>
<polygon fill="none" stroke="#000000" points="687.5,-1102.5584 622.5,-1102.5584 622.5,-1066.5584 687.5,-1066.5584 687.5,-1102.5584"/>
<text text-anchor="middle" x="655" y="-1079.5584" font-family="Times,serif" font-size="20.00" fill="#000000">body</text>
</g>
<!-- SG_1_Node_1 -->
<g id="node15" class="node">
<title>SG_1_Node_1</title>
<polygon fill="none" stroke="#000000" points="700,-945.3452 558,-945.3452 558,-909.3452 700,-909.3452 700,-945.3452"/>
<text text-anchor="middle" x="629" y="-922.3452" font-family="Times,serif" font-size="20.00" fill="#000000">Status&#45;Code</text>
</g>
<!-- SG_1_Node_0&#45;&gt;SG_1_Node_1 -->
<g id="edge13" class="edge">
<title>SG_1_Node_0&#45;&gt;SG_1_Node_1</title>
<path fill="none" stroke="#000000" d="M622.3288,-1081.746C589.4801,-1076.9803 540.4455,-1064.1417 517,-1029.5584 506.0265,-1013.372 506.8498,-1002.2735 517,-985.5584 526.4532,-969.9912 541.5727,-958.3963 557.6832,-949.8352"/>
<polygon fill="#000000" stroke="#000000" points="559.2854,-952.9476 566.7057,-945.3852 556.189,-946.6696 559.2854,-952.9476"/>
<text text-anchor="middle" x="651.5" y="-1002.5584" font-family="Times,serif" font-size="20.00" fill="#000000">ecocnt_audio=duration=1</text>
</g>
<!-- SG_1_Node_6 -->
<g id="node16" class="node">
<title>SG_1_Node_6</title>
<ellipse fill="none" stroke="#000000" cx="808" cy="-927.3452" rx="34.7971" ry="21.4286"/>
<text text-anchor="middle" x="808" y="-922.3452" font-family="Times,serif" font-size="20.00" fill="#000000">1.0</text>
</g>
<!-- SG_1_Node_0&#45;&gt;SG_1_Node_6 -->
<g id="edge14" class="edge">
<title>SG_1_Node_0&#45;&gt;SG_1_Node_6</title>
<path fill="none" stroke="#000000" d="M687.5261,-1079.6149C717.6023,-1073.2945 761.2704,-1059.3603 786,-1029.5584 802.3365,-1009.8712 807.3533,-980.8811 808.5628,-958.7984"/>
<polygon fill="#000000" stroke="#000000" points="812.0679,-958.6887 808.8836,-948.5837 805.0713,-958.4689 812.0679,-958.6887"/>
<text text-anchor="middle" x="851" y="-1013.5584" font-family="Times,serif" font-size="20.00" fill="#000000">[NA]</text>
<text text-anchor="middle" x="851" y="-991.5584" font-family="Times,serif" font-size="20.00" fill="#000000">12 levels</text>
</g>
<!-- SG_1_Node_2 -->
<g id="node17" class="node">
<title>SG_1_Node_2</title>
<polygon fill="none" stroke="#000000" points="787.5,-784.9188 470.5,-784.9188 470.5,-748.9188 787.5,-748.9188 787.5,-784.9188"/>
<text text-anchor="middle" x="629" y="-761.9188" font-family="Times,serif" font-size="20.00" fill="#000000">Cross&#45;Origin&#45;Resource&#45;Policy</text>
</g>
<!-- SG_1_Node_1&#45;&gt;SG_1_Node_2 -->
<g id="edge15" class="edge">
<title>SG_1_Node_1&#45;&gt;SG_1_Node_2</title>
<path fill="none" stroke="#000000" d="M629,-909.2541C629,-881.5723 629,-828.457 629,-795.5203"/>
<polygon fill="#000000" stroke="#000000" points="632.5001,-795.1899 629,-785.19 625.5001,-795.19 632.5001,-795.1899"/>
<text text-anchor="middle" x="648.5" y="-842.132" font-family="Times,serif" font-size="20.00" fill="#000000">200</text>
</g>
<!-- SG_1_Node_7 -->
<g id="node18" class="node">
<title>SG_1_Node_7</title>
<ellipse fill="none" stroke="#000000" cx="840" cy="-766.9188" rx="34.7971" ry="21.4286"/>
<text text-anchor="middle" x="840" y="-761.9188" font-family="Times,serif" font-size="20.00" fill="#000000">1.0</text>
</g>
<!-- SG_1_Node_1&#45;&gt;SG_1_Node_7 -->
<g id="edge16" class="edge">
<title>SG_1_Node_1&#45;&gt;SG_1_Node_7</title>
<path fill="none" stroke="#000000" d="M652.7942,-909.2541C691.4929,-879.8309 767.9836,-821.674 810.2271,-789.5556"/>
<polygon fill="#000000" stroke="#000000" points="812.3558,-792.3339 818.1978,-783.4953 808.119,-786.7616 812.3558,-792.3339"/>
<text text-anchor="middle" x="808" y="-853.132" font-family="Times,serif" font-size="20.00" fill="#000000">[NA]</text>
<text text-anchor="middle" x="808" y="-831.132" font-family="Times,serif" font-size="20.00" fill="#000000">61 levels</text>
</g>
<!-- SG_1_Node_3 -->
<g id="node19" class="node">
<title>SG_1_Node_3</title>
<polygon fill="none" stroke="#000000" points="665.5,-624.4924 510.5,-624.4924 510.5,-588.4924 665.5,-588.4924 665.5,-624.4924"/>
<text text-anchor="middle" x="588" y="-601.4924" font-family="Times,serif" font-size="20.00" fill="#000000">Content&#45;Type</text>
</g>
<!-- SG_1_Node_2&#45;&gt;SG_1_Node_3 -->
<g id="edge17" class="edge">
<title>SG_1_Node_2&#45;&gt;SG_1_Node_3</title>
<path fill="none" stroke="#000000" d="M624.3765,-748.8277C617.2711,-721.0255 603.6091,-667.5683 595.2002,-634.6655"/>
<polygon fill="#000000" stroke="#000000" points="598.5367,-633.5855 592.6695,-624.7636 591.7547,-635.3188 598.5367,-633.5855"/>
<text text-anchor="middle" x="645" y="-681.7056" font-family="Times,serif" font-size="20.00" fill="#000000">empty</text>
</g>
<!-- SG_1_Node_8 -->
<g id="node20" class="node">
<title>SG_1_Node_8</title>
<ellipse fill="none" stroke="#000000" cx="718" cy="-606.4924" rx="34.7971" ry="21.4286"/>
<text text-anchor="middle" x="718" y="-601.4924" font-family="Times,serif" font-size="20.00" fill="#000000">1.0</text>
</g>
<!-- SG_1_Node_2&#45;&gt;SG_1_Node_8 -->
<g id="edge18" class="edge">
<title>SG_1_Node_2&#45;&gt;SG_1_Node_8</title>
<path fill="none" stroke="#000000" d="M648.5845,-748.728C659.3116,-737.9252 672.1782,-723.483 681,-708.7056 694.3845,-686.2855 704.1091,-658.2431 710.2202,-637.2048"/>
<polygon fill="#000000" stroke="#000000" points="713.6131,-638.0677 712.9302,-627.4949 706.8708,-636.1859 713.6131,-638.0677"/>
<text text-anchor="middle" x="762" y="-692.7056" font-family="Times,serif" font-size="20.00" fill="#000000">[NA]</text>
<text text-anchor="middle" x="762" y="-670.7056" font-family="Times,serif" font-size="20.00" fill="#000000">same&#45;origin</text>
</g>
<!-- SG_1_Node_9 -->
<g id="node21" class="node">
<title>SG_1_Node_9</title>
<ellipse fill="none" stroke="#000000" cx="505" cy="-336.066" rx="34.7971" ry="21.4286"/>
<text text-anchor="middle" x="505" y="-331.066" font-family="Times,serif" font-size="20.00" fill="#000000">0.0</text>
</g>
<!-- SG_1_Node_3&#45;&gt;SG_1_Node_9 -->
<g id="edge19" class="edge">
<title>SG_1_Node_3&#45;&gt;SG_1_Node_9</title>
<path fill="none" stroke="#000000" d="M545.0606,-588.3807C528.482,-579.0094 511.2964,-565.7978 502,-548.2792 471.2198,-490.2754 484.7484,-410.1876 495.8117,-366.8727"/>
<polygon fill="#000000" stroke="#000000" points="499.1975,-367.7593 498.4009,-357.1945 492.4353,-365.9502 499.1975,-367.7593"/>
<text text-anchor="middle" x="613" y="-532.2792" font-family="Times,serif" font-size="20.00" fill="#000000">[NA]</text>
<text text-anchor="middle" x="613" y="-510.2792" font-family="Times,serif" font-size="20.00" fill="#000000">application/javascript</text>
<text text-anchor="middle" x="613" y="-488.2792" font-family="Times,serif" font-size="20.00" fill="#000000">audio/wav</text>
<text text-anchor="middle" x="613" y="-466.2792" font-family="Times,serif" font-size="20.00" fill="#000000">empty</text>
<text text-anchor="middle" x="613" y="-444.2792" font-family="Times,serif" font-size="20.00" fill="#000000">image/png</text>
<text text-anchor="middle" x="613" y="-422.2792" font-family="Times,serif" font-size="20.00" fill="#000000">text/css</text>
<text text-anchor="middle" x="613" y="-400.2792" font-family="Times,serif" font-size="20.00" fill="#000000">video/mp4</text>
</g>
<!-- SG_1_Node_4 -->
<g id="node22" class="node">
<title>SG_1_Node_4</title>
<polygon fill="none" stroke="#000000" points="823.5,-354.066 668.5,-354.066 668.5,-318.066 823.5,-318.066 823.5,-354.066"/>
<text text-anchor="middle" x="746" y="-331.066" font-family="Times,serif" font-size="20.00" fill="#000000">Content&#45;Type</text>
</g>
<!-- SG_1_Node_3&#45;&gt;SG_1_Node_4 -->
<g id="edge20" class="edge">
<title>SG_1_Node_3&#45;&gt;SG_1_Node_4</title>
<path fill="none" stroke="#000000" d="M645.3703,-588.4854C677.8315,-577.0923 713.9094,-561.9793 724,-548.2792 764.383,-493.4509 758.111,-407.9293 751.3669,-364.0738"/>
<polygon fill="#000000" stroke="#000000" points="754.8045,-363.4085 749.715,-354.1161 747.8988,-364.5541 754.8045,-363.4085"/>
<text text-anchor="middle" x="833" y="-477.2792" font-family="Times,serif" font-size="20.00" fill="#000000">application/pdf</text>
<text text-anchor="middle" x="833" y="-455.2792" font-family="Times,serif" font-size="20.00" fill="#000000">text/html</text>
</g>
<!-- SG_1_Node_5 -->
<g id="node23" class="node">
<title>SG_1_Node_5</title>
<polygon fill="none" stroke="#000000" points="737,-215.6396 475,-215.6396 475,-179.6396 737,-179.6396 737,-215.6396"/>
<text text-anchor="middle" x="606" y="-192.6396" font-family="Times,serif" font-size="20.00" fill="#000000">X&#45;Content&#45;Type&#45;Options</text>
</g>
<!-- SG_1_Node_4&#45;&gt;SG_1_Node_5 -->
<g id="edge21" class="edge">
<title>SG_1_Node_4&#45;&gt;SG_1_Node_5</title>
<path fill="none" stroke="#000000" d="M717.4055,-317.9309C701.6699,-307.254 682.2933,-292.9165 667,-277.8528 650.4888,-261.5894 634.7318,-240.6793 623.3696,-224.286"/>
<polygon fill="#000000" stroke="#000000" points="626.0497,-222.003 617.5325,-215.7016 620.2611,-225.939 626.0497,-222.003"/>
<text text-anchor="middle" x="714" y="-261.8528" font-family="Times,serif" font-size="20.00" fill="#000000">text/html</text>
</g>
<!-- SG_1_Node_10 -->
<g id="node24" class="node">
<title>SG_1_Node_10</title>
<ellipse fill="none" stroke="#000000" cx="790" cy="-197.6396" rx="34.7971" ry="21.4286"/>
<text text-anchor="middle" x="790" y="-192.6396" font-family="Times,serif" font-size="20.00" fill="#000000">1.0</text>
</g>
<!-- SG_1_Node_4&#45;&gt;SG_1_Node_10 -->
<g id="edge22" class="edge">
<title>SG_1_Node_4&#45;&gt;SG_1_Node_10</title>
<path fill="none" stroke="#000000" d="M751.7522,-317.9692C758.972,-295.2553 771.4666,-255.9468 780.2041,-228.4581"/>
<polygon fill="#000000" stroke="#000000" points="783.5427,-229.5085 783.2364,-218.9181 776.8716,-227.388 783.5427,-229.5085"/>
<text text-anchor="middle" x="847" y="-261.8528" font-family="Times,serif" font-size="20.00" fill="#000000">application/pdf</text>
</g>
<!-- SG_1_Node_11 -->
<g id="node25" class="node">
<title>SG_1_Node_11</title>
<ellipse fill="none" stroke="#000000" cx="510" cy="-37.2132" rx="34.7971" ry="21.4286"/>
<text text-anchor="middle" x="510" y="-32.2132" font-family="Times,serif" font-size="20.00" fill="#000000">0.0</text>
</g>
<!-- SG_1_Node_5&#45;&gt;SG_1_Node_11 -->
<g id="edge23" class="edge">
<title>SG_1_Node_5&#45;&gt;SG_1_Node_11</title>
<path fill="none" stroke="#000000" d="M578.4321,-179.5308C564.7696,-169.2591 549.0806,-155.2944 539,-139.4264 525.377,-117.9823 518.0184,-90.0264 514.1269,-68.7726"/>
<polygon fill="#000000" stroke="#000000" points="517.5342,-67.9264 512.4379,-58.6378 510.6294,-69.0771 517.5342,-67.9264"/>
<text text-anchor="middle" x="571" y="-123.4264" font-family="Times,serif" font-size="20.00" fill="#000000">[NA]</text>
<text text-anchor="middle" x="571" y="-101.4264" font-family="Times,serif" font-size="20.00" fill="#000000">empty</text>
</g>
<!-- SG_1_Node_12 -->
<g id="node26" class="node">
<title>SG_1_Node_12</title>
<ellipse fill="none" stroke="#000000" cx="610" cy="-37.2132" rx="34.7971" ry="21.4286"/>
<text text-anchor="middle" x="610" y="-32.2132" font-family="Times,serif" font-size="20.00" fill="#000000">1.0</text>
</g>
<!-- SG_1_Node_5&#45;&gt;SG_1_Node_12 -->
<g id="edge24" class="edge">
<title>SG_1_Node_5&#45;&gt;SG_1_Node_12</title>
<path fill="none" stroke="#000000" d="M606.4511,-179.5485C607.1222,-152.6336 608.3927,-101.6751 609.2175,-68.5978"/>
<polygon fill="#000000" stroke="#000000" points="612.7178,-68.6241 609.4682,-58.5399 605.72,-68.4495 612.7178,-68.6241"/>
<text text-anchor="middle" x="643" y="-112.4264" font-family="Times,serif" font-size="20.00" fill="#000000">nosniff</text>
</g>
</g>
</svg>
