<?xml version="1.0" encoding="UTF-8" standalone="no"?>
<!DOCTYPE svg PUBLIC "-//W3C//DTD SVG 1.1//EN"
 "http://www.w3.org/Graphics/SVG/1.1/DTD/svg11.dtd">
<!-- Generated by graphviz version 2.40.1 (20161225.0304)
 -->
<!-- Title: G Pages: 1 -->
<svg width="4444pt" height="2269pt"
 viewBox="0.00 0.00 4444.00 2269.41" xmlns="http://www.w3.org/2000/svg" xmlns:xlink="http://www.w3.org/1999/xlink">
<g id="graph0" class="graph" transform="scale(1 1) rotate(0) translate(4 2265.4113)">
<title>G</title>
<polygon fill="#ffffff" stroke="transparent" points="-4,4 -4,-2265.4113 4440,-2265.4113 4440,4 -4,4"/>
<g id="clust1" class="cluster">
<title>cluster_0</title>
<polygon fill="none" stroke="#000000" points="8,-1338.132 8,-2253.4113 721,-2253.4113 721,-1338.132 8,-1338.132"/>
<text text-anchor="middle" x="364.5" y="-2217.4113" font-family="Times,serif" font-size="40.00" fill="#000000">Tree 0, Class http://localhost:8001</text>
</g>
<g id="clust6" class="cluster">
<title>cluster_1</title>
<polygon fill="none" stroke="#000000" points="729,-168.4264 729,-2253.4113 1382,-2253.4113 1382,-168.4264 729,-168.4264"/>
<text text-anchor="middle" x="1055.5" y="-2217.4113" font-family="Times,serif" font-size="40.00" fill="#000000">Tree 0, Class js&#45;undefined</text>
</g>
<g id="clust15" class="cluster">
<title>cluster_2</title>
<polygon fill="none" stroke="#000000" points="1390,-8 1390,-2253.4113 4428,-2253.4113 4428,-8 1390,-8"/>
<text text-anchor="middle" x="2909" y="-2217.4113" font-family="Times,serif" font-size="40.00" fill="#000000">Tree 0, Class {&#39;code&#39;: 18, &#39;name&#39;: &#39;SecurityError&#39;, &#39;message&#39;: &#39;Blocked a frame with origin http://localhost:8001 from accessing a cross&#45;origin frame.&#39;}</text>
</g>
<!-- SG_0_Node_0 -->
<g id="node1" class="node">
<title>SG_0_Node_0</title>
<polygon fill="none" stroke="#000000" points="204,-2193.4113 62,-2193.4113 62,-2157.4113 204,-2157.4113 204,-2193.4113"/>
<text text-anchor="middle" x="133" y="-2170.4113" font-family="Times,serif" font-size="20.00" fill="#000000">Status&#45;Code</text>
</g>
<!-- SG_0_Node_3 -->
<g id="node2" class="node">
<title>SG_0_Node_3</title>
<ellipse fill="none" stroke="#000000" cx="64" cy="-1952.1981" rx="34.7971" ry="21.4286"/>
<text text-anchor="middle" x="64" y="-1947.1981" font-family="Times,serif" font-size="20.00" fill="#000000">0.0</text>
</g>
<!-- SG_0_Node_0&#45;&gt;SG_0_Node_3 -->
<g id="edge1" class="edge">
<title>SG_0_Node_0&#45;&gt;SG_0_Node_3</title>
<path fill="none" stroke="#000000" d="M121.8604,-2157.1169C115.8829,-2146.6664 108.783,-2133.1438 104,-2120.4113 86.5891,-2074.0627 75.0092,-2017.6114 68.974,-1983.315"/>
<polygon fill="#000000" stroke="#000000" points="72.4169,-1982.6838 67.2787,-1973.4183 65.5174,-1983.8658 72.4169,-1982.6838"/>
<text text-anchor="middle" x="150" y="-2071.4113" font-family="Times,serif" font-size="20.00" fill="#000000">[NA]</text>
<text text-anchor="middle" x="150" y="-2049.4113" font-family="Times,serif" font-size="20.00" fill="#000000">59 levels</text>
</g>
<!-- SG_0_Node_1 -->
<g id="node3" class="node">
<title>SG_0_Node_1</title>
<polygon fill="none" stroke="#000000" points="337.5,-1970.1981 116.5,-1970.1981 116.5,-1934.1981 337.5,-1934.1981 337.5,-1970.1981"/>
<text text-anchor="middle" x="227" y="-1947.1981" font-family="Times,serif" font-size="20.00" fill="#000000">Content&#45;Disposition</text>
</g>
<!-- SG_0_Node_0&#45;&gt;SG_0_Node_1 -->
<g id="edge2" class="edge">
<title>SG_0_Node_0&#45;&gt;SG_0_Node_1</title>
<path fill="none" stroke="#000000" d="M161.4389,-2157.1866C173.9489,-2147.7115 187.6656,-2135.0467 196,-2120.4113 221.1938,-2076.1704 226.5464,-2015.7413 227.3338,-1980.6492"/>
<polygon fill="#000000" stroke="#000000" points="230.8384,-1980.2364 227.4484,-1970.1986 223.8388,-1980.1596 230.8384,-1980.2364"/>
<text text-anchor="middle" x="244.5" y="-2082.4113" font-family="Times,serif" font-size="20.00" fill="#000000">204</text>
<text text-anchor="middle" x="244.5" y="-2060.4113" font-family="Times,serif" font-size="20.00" fill="#000000">205</text>
<text text-anchor="middle" x="244.5" y="-2038.4113" font-family="Times,serif" font-size="20.00" fill="#000000">304</text>
</g>
<!-- SG_0_Node_2 -->
<g id="node4" class="node">
<title>SG_0_Node_2</title>
<polygon fill="none" stroke="#000000" points="177,-1633.7716 35,-1633.7716 35,-1597.7716 177,-1597.7716 177,-1633.7716"/>
<text text-anchor="middle" x="106" y="-1610.7716" font-family="Times,serif" font-size="20.00" fill="#000000">Status&#45;Code</text>
</g>
<!-- SG_0_Node_1&#45;&gt;SG_0_Node_2 -->
<g id="edge3" class="edge">
<title>SG_0_Node_1&#45;&gt;SG_0_Node_2</title>
<path fill="none" stroke="#000000" d="M160.9223,-1934.1424C141.1569,-1925.3458 121.662,-1912.5141 110,-1893.9848 60.3075,-1815.0303 83.314,-1696.8673 97.6127,-1643.587"/>
<polygon fill="#000000" stroke="#000000" points="101.0196,-1644.3994 100.3322,-1633.8269 94.2764,-1642.5205 101.0196,-1644.3994"/>
<text text-anchor="middle" x="169" y="-1789.9848" font-family="Times,serif" font-size="20.00" fill="#000000">[NA]</text>
<text text-anchor="middle" x="169" y="-1767.9848" font-family="Times,serif" font-size="20.00" fill="#000000">attachment</text>
</g>
<!-- SG_0_Node_4 -->
<g id="node5" class="node">
<title>SG_0_Node_4</title>
<ellipse fill="none" stroke="#000000" cx="260" cy="-1615.7716" rx="34.7971" ry="21.4286"/>
<text text-anchor="middle" x="260" y="-1610.7716" font-family="Times,serif" font-size="20.00" fill="#000000">1.0</text>
</g>
<!-- SG_0_Node_1&#45;&gt;SG_0_Node_4 -->
<g id="edge4" class="edge">
<title>SG_0_Node_1&#45;&gt;SG_0_Node_4</title>
<path fill="none" stroke="#000000" d="M228.7742,-1934.1103C234.1115,-1879.6984 250.0693,-1717.0124 256.8722,-1647.6591"/>
<polygon fill="#000000" stroke="#000000" points="260.3893,-1647.6545 257.8823,-1637.3606 253.4228,-1646.9711 260.3893,-1647.6545"/>
<text text-anchor="middle" x="286" y="-1778.9848" font-family="Times,serif" font-size="20.00" fill="#000000">empty</text>
</g>
<!-- SG_0_Node_5 -->
<g id="node6" class="node">
<title>SG_0_Node_5</title>
<ellipse fill="none" stroke="#000000" cx="78" cy="-1367.3452" rx="34.7971" ry="21.4286"/>
<text text-anchor="middle" x="78" y="-1362.3452" font-family="Times,serif" font-size="20.00" fill="#000000">0.0</text>
</g>
<!-- SG_0_Node_2&#45;&gt;SG_0_Node_5 -->
<g id="edge5" class="edge">
<title>SG_0_Node_2&#45;&gt;SG_0_Node_5</title>
<path fill="none" stroke="#000000" d="M103.9411,-1597.5043C99.2031,-1555.4672 87.4811,-1451.4646 81.5534,-1398.8727"/>
<polygon fill="#000000" stroke="#000000" points="85.0131,-1398.3171 80.415,-1388.7721 78.0571,-1399.1012 85.0131,-1398.3171"/>
<text text-anchor="middle" x="118.5" y="-1497.5584" font-family="Times,serif" font-size="20.00" fill="#000000">204</text>
<text text-anchor="middle" x="118.5" y="-1475.5584" font-family="Times,serif" font-size="20.00" fill="#000000">205</text>
</g>
<!-- SG_0_Node_6 -->
<g id="node7" class="node">
<title>SG_0_Node_6</title>
<ellipse fill="none" stroke="#000000" cx="165" cy="-1367.3452" rx="34.7971" ry="21.4286"/>
<text text-anchor="middle" x="165" y="-1362.3452" font-family="Times,serif" font-size="20.00" fill="#000000">1.0</text>
</g>
<!-- SG_0_Node_2&#45;&gt;SG_0_Node_6 -->
<g id="edge6" class="edge">
<title>SG_0_Node_2&#45;&gt;SG_0_Node_6</title>
<path fill="none" stroke="#000000" d="M119.1923,-1597.5533C126.5174,-1586.5136 135.1126,-1571.8436 140,-1557.5584 158.3802,-1503.8361 163.3672,-1437.315 164.6479,-1398.8631"/>
<polygon fill="#000000" stroke="#000000" points="168.1484,-1398.8866 164.9188,-1388.796 161.1509,-1398.6982 168.1484,-1398.8866"/>
<text text-anchor="middle" x="182.5" y="-1486.5584" font-family="Times,serif" font-size="20.00" fill="#000000">304</text>
</g>
<!-- SG_1_Node_0 -->
<g id="node8" class="node">
<title>SG_1_Node_0</title>
<polygon fill="none" stroke="#000000" points="1191,-2193.4113 893,-2193.4113 893,-2157.4113 1191,-2157.4113 1191,-2193.4113"/>
<text text-anchor="middle" x="1042" y="-2170.4113" font-family="Times,serif" font-size="20.00" fill="#000000">Cross&#45;Origin&#45;Opener&#45;Policy</text>
</g>
<!-- SG_1_Node_1 -->
<g id="node9" class="node">
<title>SG_1_Node_1</title>
<polygon fill="none" stroke="#000000" points="1013,-1970.1981 871,-1970.1981 871,-1934.1981 1013,-1934.1981 1013,-1970.1981"/>
<text text-anchor="middle" x="942" y="-1947.1981" font-family="Times,serif" font-size="20.00" fill="#000000">Status&#45;Code</text>
</g>
<!-- SG_1_Node_0&#45;&gt;SG_1_Node_1 -->
<g id="edge7" class="edge">
<title>SG_1_Node_0&#45;&gt;SG_1_Node_1</title>
<path fill="none" stroke="#000000" d="M1033.8166,-2157.1448C1016.3032,-2118.0525 975.1022,-2026.0865 954.3715,-1979.8129"/>
<polygon fill="#000000" stroke="#000000" points="957.4389,-1978.0989 950.1562,-1970.4039 951.0507,-1980.9609 957.4389,-1978.0989"/>
<text text-anchor="middle" x="1049" y="-2071.4113" font-family="Times,serif" font-size="20.00" fill="#000000">[NA]</text>
<text text-anchor="middle" x="1049" y="-2049.4113" font-family="Times,serif" font-size="20.00" fill="#000000">empty</text>
</g>
<!-- SG_1_Node_2 -->
<g id="node10" class="node">
<title>SG_1_Node_2</title>
<polygon fill="none" stroke="#000000" points="1213,-1970.1981 1071,-1970.1981 1071,-1934.1981 1213,-1934.1981 1213,-1970.1981"/>
<text text-anchor="middle" x="1142" y="-1947.1981" font-family="Times,serif" font-size="20.00" fill="#000000">Status&#45;Code</text>
</g>
<!-- SG_1_Node_0&#45;&gt;SG_1_Node_2 -->
<g id="edge8" class="edge">
<title>SG_1_Node_0&#45;&gt;SG_1_Node_2</title>
<path fill="none" stroke="#000000" d="M1058.8116,-2157.1705C1067.547,-2146.953 1077.8588,-2133.6357 1085,-2120.4113 1109.9619,-2074.1857 1126.9449,-2014.9828 1135.5132,-1980.5506"/>
<polygon fill="#000000" stroke="#000000" points="1138.9461,-1981.245 1137.9016,-1970.7018 1132.1433,-1979.5952 1138.9461,-1981.245"/>
<text text-anchor="middle" x="1188" y="-2060.4113" font-family="Times,serif" font-size="20.00" fill="#000000">same&#45;origin</text>
</g>
<!-- SG_1_Node_10 -->
<g id="node11" class="node">
<title>SG_1_Node_10</title>
<ellipse fill="none" stroke="#000000" cx="779" cy="-1615.7716" rx="34.7971" ry="21.4286"/>
<text text-anchor="middle" x="779" y="-1610.7716" font-family="Times,serif" font-size="20.00" fill="#000000">0.0</text>
</g>
<!-- SG_1_Node_1&#45;&gt;SG_1_Node_10 -->
<g id="edge15" class="edge">
<title>SG_1_Node_1&#45;&gt;SG_1_Node_10</title>
<path fill="none" stroke="#000000" d="M896.7785,-1934.1402C878.5077,-1924.7185 858.7641,-1911.4541 846,-1893.9848 790.6312,-1818.2056 780.4946,-1702.7714 778.9845,-1647.4694"/>
<polygon fill="#000000" stroke="#000000" points="782.4795,-1647.1708 778.7866,-1637.2403 775.4808,-1647.3062 782.4795,-1647.1708"/>
<text text-anchor="middle" x="892" y="-1789.9848" font-family="Times,serif" font-size="20.00" fill="#000000">[NA]</text>
<text text-anchor="middle" x="892" y="-1767.9848" font-family="Times,serif" font-size="20.00" fill="#000000">52 levels</text>
</g>
<!-- SG_1_Node_3 -->
<g id="node12" class="node">
<title>SG_1_Node_3</title>
<polygon fill="none" stroke="#000000" points="1052.5,-1633.7716 831.5,-1633.7716 831.5,-1597.7716 1052.5,-1597.7716 1052.5,-1633.7716"/>
<text text-anchor="middle" x="942" y="-1610.7716" font-family="Times,serif" font-size="20.00" fill="#000000">Content&#45;Disposition</text>
</g>
<!-- SG_1_Node_1&#45;&gt;SG_1_Node_3 -->
<g id="edge16" class="edge">
<title>SG_1_Node_1&#45;&gt;SG_1_Node_3</title>
<path fill="none" stroke="#000000" d="M942,-1934.1103C942,-1878.7761 942,-1711.466 942,-1644.2138"/>
<polygon fill="#000000" stroke="#000000" points="945.5001,-1643.9488 942,-1633.9488 938.5001,-1643.9489 945.5001,-1643.9488"/>
<text text-anchor="middle" x="961.5" y="-1877.9848" font-family="Times,serif" font-size="20.00" fill="#000000">200</text>
<text text-anchor="middle" x="961.5" y="-1855.9848" font-family="Times,serif" font-size="20.00" fill="#000000">201</text>
<text text-anchor="middle" x="961.5" y="-1833.9848" font-family="Times,serif" font-size="20.00" fill="#000000">202</text>
<text text-anchor="middle" x="961.5" y="-1811.9848" font-family="Times,serif" font-size="20.00" fill="#000000">203</text>
<text text-anchor="middle" x="961.5" y="-1789.9848" font-family="Times,serif" font-size="20.00" fill="#000000">204</text>
<text text-anchor="middle" x="961.5" y="-1767.9848" font-family="Times,serif" font-size="20.00" fill="#000000">205</text>
<text text-anchor="middle" x="961.5" y="-1745.9848" font-family="Times,serif" font-size="20.00" fill="#000000">206</text>
<text text-anchor="middle" x="961.5" y="-1723.9848" font-family="Times,serif" font-size="20.00" fill="#000000">207</text>
<text text-anchor="middle" x="961.5" y="-1701.9848" font-family="Times,serif" font-size="20.00" fill="#000000">208</text>
<text text-anchor="middle" x="961.5" y="-1679.9848" font-family="Times,serif" font-size="20.00" fill="#000000">226</text>
</g>
<!-- SG_1_Node_4 -->
<g id="node13" class="node">
<title>SG_1_Node_4</title>
<polygon fill="none" stroke="#000000" points="1213,-1633.7716 1071,-1633.7716 1071,-1597.7716 1213,-1597.7716 1213,-1633.7716"/>
<text text-anchor="middle" x="1142" y="-1610.7716" font-family="Times,serif" font-size="20.00" fill="#000000">Status&#45;Code</text>
</g>
<!-- SG_1_Node_2&#45;&gt;SG_1_Node_4 -->
<g id="edge9" class="edge">
<title>SG_1_Node_2&#45;&gt;SG_1_Node_4</title>
<path fill="none" stroke="#000000" d="M1142,-1934.1103C1142,-1878.7761 1142,-1711.466 1142,-1644.2138"/>
<polygon fill="#000000" stroke="#000000" points="1145.5001,-1643.9488 1142,-1633.9488 1138.5001,-1643.9489 1145.5001,-1643.9488"/>
<text text-anchor="middle" x="1161.5" y="-1855.9848" font-family="Times,serif" font-size="20.00" fill="#000000">100</text>
<text text-anchor="middle" x="1161.5" y="-1833.9848" font-family="Times,serif" font-size="20.00" fill="#000000">101</text>
<text text-anchor="middle" x="1161.5" y="-1811.9848" font-family="Times,serif" font-size="20.00" fill="#000000">102</text>
<text text-anchor="middle" x="1161.5" y="-1789.9848" font-family="Times,serif" font-size="20.00" fill="#000000">103</text>
<text text-anchor="middle" x="1161.5" y="-1767.9848" font-family="Times,serif" font-size="20.00" fill="#000000">204</text>
<text text-anchor="middle" x="1161.5" y="-1745.9848" font-family="Times,serif" font-size="20.00" fill="#000000">205</text>
<text text-anchor="middle" x="1161.5" y="-1723.9848" font-family="Times,serif" font-size="20.00" fill="#000000">304</text>
<text text-anchor="middle" x="1161.5" y="-1701.9848" font-family="Times,serif" font-size="20.00" fill="#000000">407</text>
</g>
<!-- SG_1_Node_11 -->
<g id="node14" class="node">
<title>SG_1_Node_11</title>
<ellipse fill="none" stroke="#000000" cx="1266" cy="-1615.7716" rx="34.7971" ry="21.4286"/>
<text text-anchor="middle" x="1266" y="-1610.7716" font-family="Times,serif" font-size="20.00" fill="#000000">1.0</text>
</g>
<!-- SG_1_Node_2&#45;&gt;SG_1_Node_11 -->
<g id="edge10" class="edge">
<title>SG_1_Node_2&#45;&gt;SG_1_Node_11</title>
<path fill="none" stroke="#000000" d="M1157.9379,-1934.157C1166.9454,-1923.1783 1177.8078,-1908.5102 1185,-1893.9848 1226.7676,-1809.6312 1250.7506,-1699.9611 1260.6337,-1647.0443"/>
<polygon fill="#000000" stroke="#000000" points="1264.125,-1647.4083 1262.4768,-1636.9424 1257.2387,-1646.1518 1264.125,-1647.4083"/>
<text text-anchor="middle" x="1301" y="-1789.9848" font-family="Times,serif" font-size="20.00" fill="#000000">[NA]</text>
<text text-anchor="middle" x="1301" y="-1767.9848" font-family="Times,serif" font-size="20.00" fill="#000000">54 levels</text>
</g>
<!-- SG_1_Node_5 -->
<g id="node15" class="node">
<title>SG_1_Node_5</title>
<polygon fill="none" stroke="#000000" points="915.5,-1385.3452 760.5,-1385.3452 760.5,-1349.3452 915.5,-1349.3452 915.5,-1385.3452"/>
<text text-anchor="middle" x="838" y="-1362.3452" font-family="Times,serif" font-size="20.00" fill="#000000">Content&#45;Type</text>
</g>
<!-- SG_1_Node_3&#45;&gt;SG_1_Node_5 -->
<g id="edge17" class="edge">
<title>SG_1_Node_3&#45;&gt;SG_1_Node_5</title>
<path fill="none" stroke="#000000" d="M916.4544,-1597.7433C903.6415,-1587.4 888.9781,-1573.3448 880,-1557.5584 850.3531,-1505.4294 841.626,-1434.2512 839.062,-1395.4265"/>
<polygon fill="#000000" stroke="#000000" points="842.5527,-1395.1615 838.49,-1385.3766 835.564,-1395.5594 842.5527,-1395.1615"/>
<text text-anchor="middle" x="912" y="-1497.5584" font-family="Times,serif" font-size="20.00" fill="#000000">[NA]</text>
<text text-anchor="middle" x="912" y="-1475.5584" font-family="Times,serif" font-size="20.00" fill="#000000">empty</text>
</g>
<!-- SG_1_Node_12 -->
<g id="node16" class="node">
<title>SG_1_Node_12</title>
<ellipse fill="none" stroke="#000000" cx="968" cy="-1367.3452" rx="34.7971" ry="21.4286"/>
<text text-anchor="middle" x="968" y="-1362.3452" font-family="Times,serif" font-size="20.00" fill="#000000">1.0</text>
</g>
<!-- SG_1_Node_3&#45;&gt;SG_1_Node_12 -->
<g id="edge18" class="edge">
<title>SG_1_Node_3&#45;&gt;SG_1_Node_12</title>
<path fill="none" stroke="#000000" d="M943.9118,-1597.5043C948.3114,-1555.4672 959.1962,-1451.4646 964.7004,-1398.8727"/>
<polygon fill="#000000" stroke="#000000" points="968.1975,-1399.0821 965.7575,-1388.7721 961.2355,-1398.3534 968.1975,-1399.0821"/>
<text text-anchor="middle" x="1020" y="-1486.5584" font-family="Times,serif" font-size="20.00" fill="#000000">attachment</text>
</g>
<!-- SG_1_Node_13 -->
<g id="node17" class="node">
<title>SG_1_Node_13</title>
<ellipse fill="none" stroke="#000000" cx="1061" cy="-1367.3452" rx="34.7971" ry="21.4286"/>
<text text-anchor="middle" x="1061" y="-1362.3452" font-family="Times,serif" font-size="20.00" fill="#000000">0.0</text>
</g>
<!-- SG_1_Node_4&#45;&gt;SG_1_Node_13 -->
<g id="edge11" class="edge">
<title>SG_1_Node_4&#45;&gt;SG_1_Node_13</title>
<path fill="none" stroke="#000000" d="M1136.7498,-1597.5565C1126.8595,-1563.5496 1104.5211,-1488.1749 1083,-1425.5584 1079.8279,-1416.3292 1076.1554,-1406.3654 1072.7304,-1397.3345"/>
<polygon fill="#000000" stroke="#000000" points="1075.9926,-1396.066 1069.1466,-1387.9801 1069.4559,-1398.5704 1075.9926,-1396.066"/>
<text text-anchor="middle" x="1143.5" y="-1541.5584" font-family="Times,serif" font-size="20.00" fill="#000000">100</text>
<text text-anchor="middle" x="1143.5" y="-1519.5584" font-family="Times,serif" font-size="20.00" fill="#000000">101</text>
<text text-anchor="middle" x="1143.5" y="-1497.5584" font-family="Times,serif" font-size="20.00" fill="#000000">102</text>
<text text-anchor="middle" x="1143.5" y="-1475.5584" font-family="Times,serif" font-size="20.00" fill="#000000">103</text>
<text text-anchor="middle" x="1143.5" y="-1453.5584" font-family="Times,serif" font-size="20.00" fill="#000000">304</text>
<text text-anchor="middle" x="1143.5" y="-1431.5584" font-family="Times,serif" font-size="20.00" fill="#000000">407</text>
</g>
<!-- SG_1_Node_6 -->
<g id="node18" class="node">
<title>SG_1_Node_6</title>
<polygon fill="none" stroke="#000000" points="1334.5,-1385.3452 1113.5,-1385.3452 1113.5,-1349.3452 1334.5,-1349.3452 1334.5,-1385.3452"/>
<text text-anchor="middle" x="1224" y="-1362.3452" font-family="Times,serif" font-size="20.00" fill="#000000">Content&#45;Disposition</text>
</g>
<!-- SG_1_Node_4&#45;&gt;SG_1_Node_6 -->
<g id="edge12" class="edge">
<title>SG_1_Node_4&#45;&gt;SG_1_Node_6</title>
<path fill="none" stroke="#000000" d="M1150.4256,-1597.6341C1155.5516,-1586.2555 1162.0435,-1571.2049 1167,-1557.5584 1187.6546,-1500.6914 1206.7784,-1432.3991 1216.7631,-1395.0726"/>
<polygon fill="#000000" stroke="#000000" points="1220.1475,-1395.9643 1219.3306,-1385.401 1213.3819,-1394.1682 1220.1475,-1395.9643"/>
<text text-anchor="middle" x="1227.5" y="-1497.5584" font-family="Times,serif" font-size="20.00" fill="#000000">204</text>
<text text-anchor="middle" x="1227.5" y="-1475.5584" font-family="Times,serif" font-size="20.00" fill="#000000">205</text>
</g>
<!-- SG_1_Node_14 -->
<g id="node19" class="node">
<title>SG_1_Node_14</title>
<ellipse fill="none" stroke="#000000" cx="772" cy="-1074.9188" rx="34.7971" ry="21.4286"/>
<text text-anchor="middle" x="772" y="-1069.9188" font-family="Times,serif" font-size="20.00" fill="#000000">0.0</text>
</g>
<!-- SG_1_Node_5&#45;&gt;SG_1_Node_14 -->
<g id="edge19" class="edge">
<title>SG_1_Node_5&#45;&gt;SG_1_Node_14</title>
<path fill="none" stroke="#000000" d="M804.1605,-1349.2549C789.5703,-1339.489 774.0339,-1325.959 766,-1309.132 734.1472,-1242.417 750.5482,-1152.3752 762.7409,-1105.7583"/>
<polygon fill="#000000" stroke="#000000" points="766.1599,-1106.5238 765.4124,-1095.9554 759.4062,-1104.6832 766.1599,-1106.5238"/>
<text text-anchor="middle" x="877" y="-1293.132" font-family="Times,serif" font-size="20.00" fill="#000000">[NA]</text>
<text text-anchor="middle" x="877" y="-1271.132" font-family="Times,serif" font-size="20.00" fill="#000000">application/javascript</text>
<text text-anchor="middle" x="877" y="-1249.132" font-family="Times,serif" font-size="20.00" fill="#000000">application/pdf</text>
<text text-anchor="middle" x="877" y="-1227.132" font-family="Times,serif" font-size="20.00" fill="#000000">audio/wav</text>
<text text-anchor="middle" x="877" y="-1205.132" font-family="Times,serif" font-size="20.00" fill="#000000">image/png</text>
<text text-anchor="middle" x="877" y="-1183.132" font-family="Times,serif" font-size="20.00" fill="#000000">text/css</text>
<text text-anchor="middle" x="877" y="-1161.132" font-family="Times,serif" font-size="20.00" fill="#000000">text/html</text>
<text text-anchor="middle" x="877" y="-1139.132" font-family="Times,serif" font-size="20.00" fill="#000000">video/mp4</text>
</g>
<!-- SG_1_Node_7 -->
<g id="node20" class="node">
<title>SG_1_Node_7</title>
<polygon fill="none" stroke="#000000" points="915.5,-1092.9188 850.5,-1092.9188 850.5,-1056.9188 915.5,-1056.9188 915.5,-1092.9188"/>
<text text-anchor="middle" x="883" y="-1069.9188" font-family="Times,serif" font-size="20.00" fill="#000000">body</text>
</g>
<!-- SG_1_Node_5&#45;&gt;SG_1_Node_7 -->
<g id="edge20" class="edge">
<title>SG_1_Node_5&#45;&gt;SG_1_Node_7</title>
<path fill="none" stroke="#000000" d="M889.9496,-1349.2901C933.4199,-1333.9361 988.8618,-1313.6732 992,-1309.132 1036.4702,-1244.7806 1032.2259,-1200.2185 992,-1133.132 977.5523,-1109.037 949.3625,-1094.3602 925.2709,-1085.771"/>
<polygon fill="#000000" stroke="#000000" points="926.1865,-1082.3872 915.593,-1082.5588 923.9813,-1089.0308 926.1865,-1082.3872"/>
<text text-anchor="middle" x="1055" y="-1216.132" font-family="Times,serif" font-size="20.00" fill="#000000">empty</text>
</g>
<!-- SG_1_Node_15 -->
<g id="node21" class="node">
<title>SG_1_Node_15</title>
<ellipse fill="none" stroke="#000000" cx="1129" cy="-1074.9188" rx="34.7971" ry="21.4286"/>
<text text-anchor="middle" x="1129" y="-1069.9188" font-family="Times,serif" font-size="20.00" fill="#000000">0.0</text>
</g>
<!-- SG_1_Node_6&#45;&gt;SG_1_Node_15 -->
<g id="edge13" class="edge">
<title>SG_1_Node_6&#45;&gt;SG_1_Node_15</title>
<path fill="none" stroke="#000000" d="M1194.3485,-1349.0953C1180.6658,-1339.0532 1165.5848,-1325.3352 1157,-1309.132 1122.2267,-1243.5002 1122.6715,-1153.3032 1125.8859,-1106.2931"/>
<polygon fill="#000000" stroke="#000000" points="1129.3906,-1106.3658 1126.6721,-1096.1257 1122.4114,-1105.8261 1129.3906,-1106.3658"/>
<text text-anchor="middle" x="1189" y="-1227.132" font-family="Times,serif" font-size="20.00" fill="#000000">[NA]</text>
<text text-anchor="middle" x="1189" y="-1205.132" font-family="Times,serif" font-size="20.00" fill="#000000">empty</text>
</g>
<!-- SG_1_Node_16 -->
<g id="node22" class="node">
<title>SG_1_Node_16</title>
<ellipse fill="none" stroke="#000000" cx="1229" cy="-1074.9188" rx="34.7971" ry="21.4286"/>
<text text-anchor="middle" x="1229" y="-1069.9188" font-family="Times,serif" font-size="20.00" fill="#000000">1.0</text>
</g>
<!-- SG_1_Node_6&#45;&gt;SG_1_Node_16 -->
<g id="edge14" class="edge">
<title>SG_1_Node_6&#45;&gt;SG_1_Node_16</title>
<path fill="none" stroke="#000000" d="M1224.3128,-1349.0527C1225.1437,-1300.455 1227.4141,-1167.6704 1228.4597,-1106.5173"/>
<polygon fill="#000000" stroke="#000000" points="1231.9627,-1106.369 1228.6342,-1096.3106 1224.9637,-1106.2492 1231.9627,-1106.369"/>
<text text-anchor="middle" x="1286" y="-1216.132" font-family="Times,serif" font-size="20.00" fill="#000000">attachment</text>
</g>
<!-- SG_1_Node_17 -->
<g id="node23" class="node">
<title>SG_1_Node_17</title>
<ellipse fill="none" stroke="#000000" cx="772" cy="-782.4924" rx="34.7971" ry="21.4286"/>
<text text-anchor="middle" x="772" y="-777.4924" font-family="Times,serif" font-size="20.00" fill="#000000">0.0</text>
</g>
<!-- SG_1_Node_7&#45;&gt;SG_1_Node_17 -->
<g id="edge21" class="edge">
<title>SG_1_Node_7&#45;&gt;SG_1_Node_17</title>
<path fill="none" stroke="#000000" d="M850.2738,-1066.9754C824.8773,-1058.9127 791.3326,-1043.6693 775,-1016.7056 736.4307,-953.031 751.4896,-860.6532 763.2004,-813.1858"/>
<polygon fill="#000000" stroke="#000000" points="766.5923,-814.0487 765.7017,-803.4914 759.8143,-812.2999 766.5923,-814.0487"/>
<text text-anchor="middle" x="821" y="-934.7056" font-family="Times,serif" font-size="20.00" fill="#000000">[NA]</text>
<text text-anchor="middle" x="821" y="-912.7056" font-family="Times,serif" font-size="20.00" fill="#000000">11 levels</text>
</g>
<!-- SG_1_Node_8 -->
<g id="node24" class="node">
<title>SG_1_Node_8</title>
<polygon fill="none" stroke="#000000" points="1087,-800.4924 825,-800.4924 825,-764.4924 1087,-764.4924 1087,-800.4924"/>
<text text-anchor="middle" x="956" y="-777.4924" font-family="Times,serif" font-size="20.00" fill="#000000">X&#45;Content&#45;Type&#45;Options</text>
</g>
<!-- SG_1_Node_7&#45;&gt;SG_1_Node_8 -->
<g id="edge22" class="edge">
<title>SG_1_Node_7&#45;&gt;SG_1_Node_8</title>
<path fill="none" stroke="#000000" d="M879.5985,-1056.8254C872.825,-1016.0411 861.0554,-914.724 895,-840.7056 900.8839,-827.8755 910.9891,-816.4519 921.3011,-807.1954"/>
<polygon fill="#000000" stroke="#000000" points="923.7828,-809.6806 929.1606,-800.552 919.2639,-804.3345 923.7828,-809.6806"/>
<text text-anchor="middle" x="1140.5" y="-934.7056" font-family="Times,serif" font-size="20.00" fill="#000000">ecocnt_audio=duration=1</text>
<text text-anchor="middle" x="1140.5" y="-912.7056" font-family="Times,serif" font-size="20.00" fill="#000000">ecocnt_vid=width=100,height=100,duration=2</text>
</g>
<!-- SG_1_Node_18 -->
<g id="node25" class="node">
<title>SG_1_Node_18</title>
<ellipse fill="none" stroke="#000000" cx="893" cy="-490.066" rx="34.7971" ry="21.4286"/>
<text text-anchor="middle" x="893" y="-485.066" font-family="Times,serif" font-size="20.00" fill="#000000">0.0</text>
</g>
<!-- SG_1_Node_8&#45;&gt;SG_1_Node_18 -->
<g id="edge23" class="edge">
<title>SG_1_Node_8&#45;&gt;SG_1_Node_18</title>
<path fill="none" stroke="#000000" d="M930.2643,-764.2516C918.0885,-754.0362 904.7613,-740.1625 898,-724.2792 869.1813,-656.5802 878.5964,-567.6004 886.5995,-521.2249"/>
<polygon fill="#000000" stroke="#000000" points="890.078,-521.6585 888.4252,-511.1934 883.1911,-520.405 890.078,-521.6585"/>
<text text-anchor="middle" x="933" y="-631.2792" font-family="Times,serif" font-size="20.00" fill="#000000">nosniff</text>
</g>
<!-- SG_1_Node_9 -->
<g id="node26" class="node">
<title>SG_1_Node_9</title>
<polygon fill="none" stroke="#000000" points="1088,-508.066 946,-508.066 946,-472.066 1088,-472.066 1088,-508.066"/>
<text text-anchor="middle" x="1017" y="-485.066" font-family="Times,serif" font-size="20.00" fill="#000000">Status&#45;Code</text>
</g>
<!-- SG_1_Node_8&#45;&gt;SG_1_Node_9 -->
<g id="edge24" class="edge">
<title>SG_1_Node_8&#45;&gt;SG_1_Node_9</title>
<path fill="none" stroke="#000000" d="M961.4143,-764.2335C964.7033,-752.8092 968.859,-737.7532 972,-724.2792 989.2381,-650.3321 1004.8706,-562.145 1012.3524,-518.063"/>
<polygon fill="#000000" stroke="#000000" points="1015.8224,-518.5339 1014.0332,-508.0913 1008.9197,-517.3704 1015.8224,-518.5339"/>
<text text-anchor="middle" x="1038" y="-642.2792" font-family="Times,serif" font-size="20.00" fill="#000000">[NA]</text>
<text text-anchor="middle" x="1038" y="-620.2792" font-family="Times,serif" font-size="20.00" fill="#000000">empty</text>
</g>
<!-- SG_1_Node_19 -->
<g id="node27" class="node">
<title>SG_1_Node_19</title>
<ellipse fill="none" stroke="#000000" cx="973" cy="-197.6396" rx="34.7971" ry="21.4286"/>
<text text-anchor="middle" x="973" y="-192.6396" font-family="Times,serif" font-size="20.00" fill="#000000">0.0</text>
</g>
<!-- SG_1_Node_9&#45;&gt;SG_1_Node_19 -->
<g id="edge25" class="edge">
<title>SG_1_Node_9&#45;&gt;SG_1_Node_19</title>
<path fill="none" stroke="#000000" d="M1002.9154,-472.0636C995.2014,-461.0982 986.3481,-446.4305 982,-431.8528 961.1108,-361.8182 965.1022,-274.7724 969.345,-229.0553"/>
<polygon fill="#000000" stroke="#000000" points="972.8493,-229.1847 970.3575,-218.887 965.8838,-228.491 972.8493,-229.1847"/>
<text text-anchor="middle" x="1001.5" y="-349.8528" font-family="Times,serif" font-size="20.00" fill="#000000">204</text>
<text text-anchor="middle" x="1001.5" y="-327.8528" font-family="Times,serif" font-size="20.00" fill="#000000">205</text>
</g>
<!-- SG_1_Node_20 -->
<g id="node28" class="node">
<title>SG_1_Node_20</title>
<ellipse fill="none" stroke="#000000" cx="1060" cy="-197.6396" rx="34.7971" ry="21.4286"/>
<text text-anchor="middle" x="1060" y="-192.6396" font-family="Times,serif" font-size="20.00" fill="#000000">1.0</text>
</g>
<!-- SG_1_Node_9&#45;&gt;SG_1_Node_20 -->
<g id="edge26" class="edge">
<title>SG_1_Node_9&#45;&gt;SG_1_Node_20</title>
<path fill="none" stroke="#000000" d="M1019.6898,-471.7734C1026.8359,-423.1758 1046.3613,-290.3912 1055.3536,-229.2381"/>
<polygon fill="#000000" stroke="#000000" points="1058.8623,-229.4342 1056.8544,-219.0313 1051.9368,-228.4157 1058.8623,-229.4342"/>
<text text-anchor="middle" x="1070.5" y="-415.8528" font-family="Times,serif" font-size="20.00" fill="#000000">200</text>
<text text-anchor="middle" x="1070.5" y="-393.8528" font-family="Times,serif" font-size="20.00" fill="#000000">201</text>
<text text-anchor="middle" x="1070.5" y="-371.8528" font-family="Times,serif" font-size="20.00" fill="#000000">202</text>
<text text-anchor="middle" x="1070.5" y="-349.8528" font-family="Times,serif" font-size="20.00" fill="#000000">203</text>
<text text-anchor="middle" x="1070.5" y="-327.8528" font-family="Times,serif" font-size="20.00" fill="#000000">206</text>
<text text-anchor="middle" x="1070.5" y="-305.8528" font-family="Times,serif" font-size="20.00" fill="#000000">207</text>
<text text-anchor="middle" x="1070.5" y="-283.8528" font-family="Times,serif" font-size="20.00" fill="#000000">208</text>
<text text-anchor="middle" x="1070.5" y="-261.8528" font-family="Times,serif" font-size="20.00" fill="#000000">226</text>
</g>
<!-- SG_2_Node_0 -->
<g id="node29" class="node">
<title>SG_2_Node_0</title>
<polygon fill="none" stroke="#000000" points="1763,-2193.4113 1621,-2193.4113 1621,-2157.4113 1763,-2157.4113 1763,-2193.4113"/>
<text text-anchor="middle" x="1692" y="-2170.4113" font-family="Times,serif" font-size="20.00" fill="#000000">Status&#45;Code</text>
</g>
<!-- SG_2_Node_1 -->
<g id="node30" class="node">
<title>SG_2_Node_1</title>
<polygon fill="none" stroke="#000000" points="1740,-1970.1981 1442,-1970.1981 1442,-1934.1981 1740,-1934.1981 1740,-1970.1981"/>
<text text-anchor="middle" x="1591" y="-1947.1981" font-family="Times,serif" font-size="20.00" fill="#000000">Cross&#45;Origin&#45;Opener&#45;Policy</text>
</g>
<!-- SG_2_Node_0&#45;&gt;SG_2_Node_1 -->
<g id="edge27" class="edge">
<title>SG_2_Node_0&#45;&gt;SG_2_Node_1</title>
<path fill="none" stroke="#000000" d="M1680.539,-2157.1745C1674.1287,-2146.6289 1666.2047,-2132.9946 1660,-2120.4113 1636.2163,-2072.1772 1613.5281,-2013.6392 1601.0116,-1979.8765"/>
<polygon fill="#000000" stroke="#000000" points="1604.2013,-1978.4093 1597.4638,-1970.2327 1597.6317,-1980.8262 1604.2013,-1978.4093"/>
<text text-anchor="middle" x="1706" y="-2071.4113" font-family="Times,serif" font-size="20.00" fill="#000000">[NA]</text>
<text text-anchor="middle" x="1706" y="-2049.4113" font-family="Times,serif" font-size="20.00" fill="#000000">57 levels</text>
</g>
<!-- SG_2_Node_8 -->
<g id="node31" class="node">
<title>SG_2_Node_8</title>
<ellipse fill="none" stroke="#000000" cx="1793" cy="-1952.1981" rx="34.7971" ry="21.4286"/>
<text text-anchor="middle" x="1793" y="-1947.1981" font-family="Times,serif" font-size="20.00" fill="#000000">1.0</text>
</g>
<!-- SG_2_Node_0&#45;&gt;SG_2_Node_8 -->
<g id="edge28" class="edge">
<title>SG_2_Node_0&#45;&gt;SG_2_Node_8</title>
<path fill="none" stroke="#000000" d="M1718.1103,-2157.2079C1730.1027,-2147.5714 1743.5135,-2134.7646 1752,-2120.4113 1777.4406,-2077.383 1787.1299,-2019.2748 1790.7967,-1983.8353"/>
<polygon fill="#000000" stroke="#000000" points="1794.3068,-1983.8886 1791.752,-1973.6064 1787.3372,-1983.2376 1794.3068,-1983.8886"/>
<text text-anchor="middle" x="1806.5" y="-2104.4113" font-family="Times,serif" font-size="20.00" fill="#000000">100</text>
<text text-anchor="middle" x="1806.5" y="-2082.4113" font-family="Times,serif" font-size="20.00" fill="#000000">101</text>
<text text-anchor="middle" x="1806.5" y="-2060.4113" font-family="Times,serif" font-size="20.00" fill="#000000">102</text>
<text text-anchor="middle" x="1806.5" y="-2038.4113" font-family="Times,serif" font-size="20.00" fill="#000000">103</text>
<text text-anchor="middle" x="1806.5" y="-2016.4113" font-family="Times,serif" font-size="20.00" fill="#000000">407</text>
</g>
<!-- SG_2_Node_9 -->
<g id="node32" class="node">
<title>SG_2_Node_9</title>
<ellipse fill="none" stroke="#000000" cx="1493" cy="-1615.7716" rx="34.7971" ry="21.4286"/>
<text text-anchor="middle" x="1493" y="-1610.7716" font-family="Times,serif" font-size="20.00" fill="#000000">0.0</text>
</g>
<!-- SG_2_Node_1&#45;&gt;SG_2_Node_9 -->
<g id="edge29" class="edge">
<title>SG_2_Node_1&#45;&gt;SG_2_Node_9</title>
<path fill="none" stroke="#000000" d="M1539.6622,-1934.1797C1521.6106,-1925.0819 1503.2775,-1912.0438 1493,-1893.9848 1447.7753,-1814.519 1469.4336,-1700.4514 1483.7898,-1646.4059"/>
<polygon fill="#000000" stroke="#000000" points="1487.1738,-1647.3 1486.4546,-1636.7296 1480.425,-1645.4414 1487.1738,-1647.3"/>
<text text-anchor="middle" x="1554" y="-1778.9848" font-family="Times,serif" font-size="20.00" fill="#000000">same&#45;origin</text>
</g>
<!-- SG_2_Node_2 -->
<g id="node33" class="node">
<title>SG_2_Node_2</title>
<polygon fill="none" stroke="#000000" points="1722,-1633.7716 1580,-1633.7716 1580,-1597.7716 1722,-1597.7716 1722,-1633.7716"/>
<text text-anchor="middle" x="1651" y="-1610.7716" font-family="Times,serif" font-size="20.00" fill="#000000">Status&#45;Code</text>
</g>
<!-- SG_2_Node_1&#45;&gt;SG_2_Node_2 -->
<g id="edge30" class="edge">
<title>SG_2_Node_1&#45;&gt;SG_2_Node_2</title>
<path fill="none" stroke="#000000" d="M1601.7294,-1933.9521C1607.7939,-1922.7833 1614.9511,-1907.9905 1619,-1893.9848 1644.5994,-1805.434 1649.8327,-1695.4523 1650.8251,-1644.349"/>
<polygon fill="#000000" stroke="#000000" points="1654.3287,-1644.1348 1650.9814,-1634.0826 1647.3295,-1644.0281 1654.3287,-1644.1348"/>
<text text-anchor="middle" x="1681" y="-1789.9848" font-family="Times,serif" font-size="20.00" fill="#000000">[NA]</text>
<text text-anchor="middle" x="1681" y="-1767.9848" font-family="Times,serif" font-size="20.00" fill="#000000">empty</text>
</g>
<!-- SG_2_Node_3 -->
<g id="node34" class="node">
<title>SG_2_Node_3</title>
<polygon fill="none" stroke="#000000" points="1666.5,-1385.3452 1445.5,-1385.3452 1445.5,-1349.3452 1666.5,-1349.3452 1666.5,-1385.3452"/>
<text text-anchor="middle" x="1556" y="-1362.3452" font-family="Times,serif" font-size="20.00" fill="#000000">Content&#45;Disposition</text>
</g>
<!-- SG_2_Node_2&#45;&gt;SG_2_Node_3 -->
<g id="edge31" class="edge">
<title>SG_2_Node_2&#45;&gt;SG_2_Node_3</title>
<path fill="none" stroke="#000000" d="M1613.2907,-1597.6812C1597.4732,-1588.0588 1580.563,-1574.646 1571,-1557.5584 1542.3127,-1506.2988 1546.1708,-1434.7856 1551.2514,-1395.6728"/>
<polygon fill="#000000" stroke="#000000" points="1554.7489,-1395.9369 1552.6908,-1385.544 1547.8186,-1394.952 1554.7489,-1395.9369"/>
<text text-anchor="middle" x="1617" y="-1486.5584" font-family="Times,serif" font-size="20.00" fill="#000000">11 levels</text>
</g>
<!-- SG_2_Node_10 -->
<g id="node35" class="node">
<title>SG_2_Node_10</title>
<ellipse fill="none" stroke="#000000" cx="1719" cy="-1367.3452" rx="34.7971" ry="21.4286"/>
<text text-anchor="middle" x="1719" y="-1362.3452" font-family="Times,serif" font-size="20.00" fill="#000000">1.0</text>
</g>
<!-- SG_2_Node_2&#45;&gt;SG_2_Node_10 -->
<g id="edge32" class="edge">
<title>SG_2_Node_2&#45;&gt;SG_2_Node_10</title>
<path fill="none" stroke="#000000" d="M1656.0002,-1597.5043C1667.5595,-1555.2744 1696.2361,-1450.5093 1710.5674,-1398.1523"/>
<polygon fill="#000000" stroke="#000000" points="1713.9687,-1398.983 1713.2331,-1388.4138 1707.2171,-1397.1349 1713.9687,-1398.983"/>
<text text-anchor="middle" x="1748" y="-1497.5584" font-family="Times,serif" font-size="20.00" fill="#000000">[NA]</text>
<text text-anchor="middle" x="1748" y="-1475.5584" font-family="Times,serif" font-size="20.00" fill="#000000">46 levels</text>
</g>
<!-- SG_2_Node_11 -->
<g id="node36" class="node">
<title>SG_2_Node_11</title>
<ellipse fill="none" stroke="#000000" cx="1495" cy="-1074.9188" rx="34.7971" ry="21.4286"/>
<text text-anchor="middle" x="1495" y="-1069.9188" font-family="Times,serif" font-size="20.00" fill="#000000">0.0</text>
</g>
<!-- SG_2_Node_3&#45;&gt;SG_2_Node_11 -->
<g id="edge33" class="edge">
<title>SG_2_Node_3&#45;&gt;SG_2_Node_11</title>
<path fill="none" stroke="#000000" d="M1536.28,-1349.1098C1526.2064,-1338.507 1514.8633,-1324.273 1509,-1309.132 1482.4569,-1240.5887 1486.3766,-1152.3085 1491.0024,-1106.1693"/>
<polygon fill="#000000" stroke="#000000" points="1494.4867,-1106.5019 1492.0821,-1096.1836 1487.5273,-1105.7493 1494.4867,-1106.5019"/>
<text text-anchor="middle" x="1568" y="-1216.132" font-family="Times,serif" font-size="20.00" fill="#000000">attachment</text>
</g>
<!-- SG_2_Node_4 -->
<g id="node37" class="node">
<title>SG_2_Node_4</title>
<polygon fill="none" stroke="#000000" points="1720,-1092.9188 1578,-1092.9188 1578,-1056.9188 1720,-1056.9188 1720,-1092.9188"/>
<text text-anchor="middle" x="1649" y="-1069.9188" font-family="Times,serif" font-size="20.00" fill="#000000">Status&#45;Code</text>
</g>
<!-- SG_2_Node_3&#45;&gt;SG_2_Node_4 -->
<g id="edge34" class="edge">
<title>SG_2_Node_3&#45;&gt;SG_2_Node_4</title>
<path fill="none" stroke="#000000" d="M1587.9515,-1349.3112C1602.3921,-1339.4036 1618.1671,-1325.7381 1627,-1309.132 1662.6004,-1242.2024 1658.141,-1149.197 1652.9982,-1103.1168"/>
<polygon fill="#000000" stroke="#000000" points="1656.447,-1102.4824 1651.7685,-1092.9766 1649.4979,-1103.3253 1656.447,-1102.4824"/>
<text text-anchor="middle" x="1688" y="-1227.132" font-family="Times,serif" font-size="20.00" fill="#000000">[NA]</text>
<text text-anchor="middle" x="1688" y="-1205.132" font-family="Times,serif" font-size="20.00" fill="#000000">empty</text>
</g>
<!-- SG_2_Node_12 -->
<g id="node38" class="node">
<title>SG_2_Node_12</title>
<ellipse fill="none" stroke="#000000" cx="1584" cy="-782.4924" rx="34.7971" ry="21.4286"/>
<text text-anchor="middle" x="1584" y="-777.4924" font-family="Times,serif" font-size="20.00" fill="#000000">0.0</text>
</g>
<!-- SG_2_Node_4&#45;&gt;SG_2_Node_12 -->
<g id="edge35" class="edge">
<title>SG_2_Node_4&#45;&gt;SG_2_Node_12</title>
<path fill="none" stroke="#000000" d="M1644.934,-1056.6262C1634.1094,-1007.928 1604.4943,-874.6938 1590.9394,-813.712"/>
<polygon fill="#000000" stroke="#000000" points="1594.3414,-812.8864 1588.7549,-803.8842 1587.5082,-814.4054 1594.3414,-812.8864"/>
<text text-anchor="middle" x="1654.5" y="-945.7056" font-family="Times,serif" font-size="20.00" fill="#000000">204</text>
<text text-anchor="middle" x="1654.5" y="-923.7056" font-family="Times,serif" font-size="20.00" fill="#000000">205</text>
<text text-anchor="middle" x="1654.5" y="-901.7056" font-family="Times,serif" font-size="20.00" fill="#000000">304</text>
</g>
<!-- SG_2_Node_5 -->
<g id="node39" class="node">
<title>SG_2_Node_5</title>
<polygon fill="none" stroke="#000000" points="1791.5,-800.4924 1636.5,-800.4924 1636.5,-764.4924 1791.5,-764.4924 1791.5,-800.4924"/>
<text text-anchor="middle" x="1714" y="-777.4924" font-family="Times,serif" font-size="20.00" fill="#000000">Content&#45;Type</text>
</g>
<!-- SG_2_Node_4&#45;&gt;SG_2_Node_5 -->
<g id="edge36" class="edge">
<title>SG_2_Node_4&#45;&gt;SG_2_Node_5</title>
<path fill="none" stroke="#000000" d="M1659.9329,-1056.662C1666.1504,-1045.4893 1673.5593,-1030.6962 1678,-1016.7056 1700.8809,-944.6181 1709.4645,-855.2804 1712.4855,-810.6448"/>
<polygon fill="#000000" stroke="#000000" points="1715.9856,-810.7514 1713.1242,-800.5503 1708.9996,-810.3093 1715.9856,-810.7514"/>
<text text-anchor="middle" x="1729.5" y="-1000.7056" font-family="Times,serif" font-size="20.00" fill="#000000">200</text>
<text text-anchor="middle" x="1729.5" y="-978.7056" font-family="Times,serif" font-size="20.00" fill="#000000">201</text>
<text text-anchor="middle" x="1729.5" y="-956.7056" font-family="Times,serif" font-size="20.00" fill="#000000">202</text>
<text text-anchor="middle" x="1729.5" y="-934.7056" font-family="Times,serif" font-size="20.00" fill="#000000">203</text>
<text text-anchor="middle" x="1729.5" y="-912.7056" font-family="Times,serif" font-size="20.00" fill="#000000">206</text>
<text text-anchor="middle" x="1729.5" y="-890.7056" font-family="Times,serif" font-size="20.00" fill="#000000">207</text>
<text text-anchor="middle" x="1729.5" y="-868.7056" font-family="Times,serif" font-size="20.00" fill="#000000">208</text>
<text text-anchor="middle" x="1729.5" y="-846.7056" font-family="Times,serif" font-size="20.00" fill="#000000">226</text>
</g>
<!-- SG_2_Node_6 -->
<g id="node40" class="node">
<title>SG_2_Node_6</title>
<polygon fill="none" stroke="#000000" points="1696.5,-508.066 1631.5,-508.066 1631.5,-472.066 1696.5,-472.066 1696.5,-508.066"/>
<text text-anchor="middle" x="1664" y="-485.066" font-family="Times,serif" font-size="20.00" fill="#000000">body</text>
</g>
<!-- SG_2_Node_5&#45;&gt;SG_2_Node_6 -->
<g id="edge37" class="edge">
<title>SG_2_Node_5&#45;&gt;SG_2_Node_6</title>
<path fill="none" stroke="#000000" d="M1699.4449,-764.2608C1691.5933,-753.3325 1682.5933,-738.7792 1678,-724.2792 1655.385,-652.8884 1658.0311,-563.2467 1661.3196,-518.3844"/>
<polygon fill="#000000" stroke="#000000" points="1664.8228,-518.4836 1662.1323,-508.236 1657.8451,-517.9247 1664.8228,-518.4836"/>
<text text-anchor="middle" x="1710" y="-631.2792" font-family="Times,serif" font-size="20.00" fill="#000000">empty</text>
</g>
<!-- SG_2_Node_13 -->
<g id="node41" class="node">
<title>SG_2_Node_13</title>
<ellipse fill="none" stroke="#000000" cx="1764" cy="-490.066" rx="34.7971" ry="21.4286"/>
<text text-anchor="middle" x="1764" y="-485.066" font-family="Times,serif" font-size="20.00" fill="#000000">1.0</text>
</g>
<!-- SG_2_Node_5&#45;&gt;SG_2_Node_13 -->
<g id="edge38" class="edge">
<title>SG_2_Node_5&#45;&gt;SG_2_Node_13</title>
<path fill="none" stroke="#000000" d="M1724.8357,-764.2767C1730.9379,-753.1185 1738.0974,-738.3264 1742,-724.2792 1761.5845,-653.7872 1764.5327,-567.2643 1764.5376,-521.6635"/>
<polygon fill="#000000" stroke="#000000" points="1768.037,-521.4977 1764.4891,-511.5146 1761.037,-521.5313 1768.037,-521.4977"/>
<text text-anchor="middle" x="1875" y="-708.2792" font-family="Times,serif" font-size="20.00" fill="#000000">[NA]</text>
<text text-anchor="middle" x="1875" y="-686.2792" font-family="Times,serif" font-size="20.00" fill="#000000">application/javascript</text>
<text text-anchor="middle" x="1875" y="-664.2792" font-family="Times,serif" font-size="20.00" fill="#000000">application/pdf</text>
<text text-anchor="middle" x="1875" y="-642.2792" font-family="Times,serif" font-size="20.00" fill="#000000">audio/wav</text>
<text text-anchor="middle" x="1875" y="-620.2792" font-family="Times,serif" font-size="20.00" fill="#000000">image/png</text>
<text text-anchor="middle" x="1875" y="-598.2792" font-family="Times,serif" font-size="20.00" fill="#000000">text/css</text>
<text text-anchor="middle" x="1875" y="-576.2792" font-family="Times,serif" font-size="20.00" fill="#000000">text/html</text>
<text text-anchor="middle" x="1875" y="-554.2792" font-family="Times,serif" font-size="20.00" fill="#000000">video/mp4</text>
</g>
<!-- SG_2_Node_7 -->
<g id="node42" class="node">
<title>SG_2_Node_7</title>
<polygon fill="none" stroke="#000000" points="1737,-215.6396 1475,-215.6396 1475,-179.6396 1737,-179.6396 1737,-215.6396"/>
<text text-anchor="middle" x="1606" y="-192.6396" font-family="Times,serif" font-size="20.00" fill="#000000">X&#45;Content&#45;Type&#45;Options</text>
</g>
<!-- SG_2_Node_6&#45;&gt;SG_2_Node_7 -->
<g id="edge39" class="edge">
<title>SG_2_Node_6&#45;&gt;SG_2_Node_7</title>
<path fill="none" stroke="#000000" d="M1645.759,-471.8627C1636.2707,-461.1645 1625.5254,-446.8284 1620,-431.8528 1594.0125,-361.4187 1598.1874,-271.0061 1602.5642,-225.8881"/>
<polygon fill="#000000" stroke="#000000" points="1606.0717,-225.9988 1603.6341,-215.6882 1599.1099,-225.2684 1606.0717,-225.9988"/>
<text text-anchor="middle" x="1865.5" y="-349.8528" font-family="Times,serif" font-size="20.00" fill="#000000">ecocnt_audio=duration=1</text>
<text text-anchor="middle" x="1865.5" y="-327.8528" font-family="Times,serif" font-size="20.00" fill="#000000">ecocnt_vid=width=100,height=100,duration=2</text>
</g>
<!-- SG_2_Node_14 -->
<g id="node43" class="node">
<title>SG_2_Node_14</title>
<ellipse fill="none" stroke="#000000" cx="2133" cy="-197.6396" rx="34.7971" ry="21.4286"/>
<text text-anchor="middle" x="2133" y="-192.6396" font-family="Times,serif" font-size="20.00" fill="#000000">1.0</text>
</g>
<!-- SG_2_Node_6&#45;&gt;SG_2_Node_14 -->
<g id="edge40" class="edge">
<title>SG_2_Node_6&#45;&gt;SG_2_Node_14</title>
<path fill="none" stroke="#000000" d="M1696.7089,-476.003C1704.2414,-473.2363 1712.3036,-470.6405 1720,-468.8528 1805.0139,-449.1064 2049.3071,-493.5883 2111,-431.8528 2164.6342,-378.1815 2152.0081,-279.0571 2141.0472,-228.7197"/>
<polygon fill="#000000" stroke="#000000" points="2144.4077,-227.7154 2138.758,-218.7527 2137.5854,-229.2824 2144.4077,-227.7154"/>
<text text-anchor="middle" x="2196" y="-349.8528" font-family="Times,serif" font-size="20.00" fill="#000000">[NA]</text>
<text text-anchor="middle" x="2196" y="-327.8528" font-family="Times,serif" font-size="20.00" fill="#000000">11 levels</text>
</g>
<!-- SG_2_Node_15 -->
<g id="node44" class="node">
<title>SG_2_Node_15</title>
<ellipse fill="none" stroke="#000000" cx="1556" cy="-37.2132" rx="34.7971" ry="21.4286"/>
<text text-anchor="middle" x="1556" y="-32.2132" font-family="Times,serif" font-size="20.00" fill="#000000">0.0</text>
</g>
<!-- SG_2_Node_7&#45;&gt;SG_2_Node_15 -->
<g id="edge41" class="edge">
<title>SG_2_Node_7&#45;&gt;SG_2_Node_15</title>
<path fill="none" stroke="#000000" d="M1592.0384,-179.525C1584.2847,-168.521 1575.184,-153.8522 1570,-139.4264 1561.7986,-116.604 1558.3564,-89.3305 1556.9333,-68.6985"/>
<polygon fill="#000000" stroke="#000000" points="1560.4197,-68.359 1556.3586,-58.5735 1553.431,-68.7557 1560.4197,-68.359"/>
<text text-anchor="middle" x="1602" y="-123.4264" font-family="Times,serif" font-size="20.00" fill="#000000">[NA]</text>
<text text-anchor="middle" x="1602" y="-101.4264" font-family="Times,serif" font-size="20.00" fill="#000000">empty</text>
</g>
<!-- SG_2_Node_16 -->
<g id="node45" class="node">
<title>SG_2_Node_16</title>
<ellipse fill="none" stroke="#000000" cx="1656" cy="-37.2132" rx="34.7971" ry="21.4286"/>
<text text-anchor="middle" x="1656" y="-32.2132" font-family="Times,serif" font-size="20.00" fill="#000000">1.0</text>
</g>
<!-- SG_2_Node_7&#45;&gt;SG_2_Node_16 -->
<g id="edge42" class="edge">
<title>SG_2_Node_7&#45;&gt;SG_2_Node_16</title>
<path fill="none" stroke="#000000" d="M1616.1012,-179.4966C1622.0168,-168.242 1629.2371,-153.3243 1634,-139.4264 1641.9679,-116.1767 1647.6615,-88.9279 1651.2577,-68.414"/>
<polygon fill="#000000" stroke="#000000" points="1654.742,-68.7991 1652.948,-58.3573 1647.8388,-67.6388 1654.742,-68.7991"/>
<text text-anchor="middle" x="1680" y="-112.4264" font-family="Times,serif" font-size="20.00" fill="#000000">nosniff</text>
</g>
</g>
</svg>
