<?xml version="1.0" encoding="UTF-8" standalone="no"?>
<!DOCTYPE svg PUBLIC "-//W3C//DTD SVG 1.1//EN"
 "http://www.w3.org/Graphics/SVG/1.1/DTD/svg11.dtd">
<!-- Generated by graphviz version 2.40.1 (20161225.0304)
 -->
<!-- Title: G Pages: 1 -->
<svg width="1744pt" height="1333pt"
 viewBox="0.00 0.00 1744.00 1332.56" xmlns="http://www.w3.org/2000/svg" xmlns:xlink="http://www.w3.org/1999/xlink">
<g id="graph0" class="graph" transform="scale(1 1) rotate(0) translate(4 1328.5584)">
<title>G</title>
<polygon fill="#ffffff" stroke="transparent" points="-4,4 -4,-1328.5584 1740,-1328.5584 1740,4 -4,4"/>
<g id="clust1" class="cluster">
<title>cluster_0</title>
<polygon fill="none" stroke="#000000" points="8,-8 8,-1316.5584 629,-1316.5584 629,-8 8,-8"/>
<text text-anchor="middle" x="318.5" y="-1280.5584" font-family="Times,serif" font-size="40.00" fill="#000000">Tree 0, Class 0</text>
</g>
<g id="clust9" class="cluster">
<title>cluster_1</title>
<polygon fill="none" stroke="#000000" points="637,-8 637,-1316.5584 1258,-1316.5584 1258,-8 637,-8"/>
<text text-anchor="middle" x="947.5" y="-1280.5584" font-family="Times,serif" font-size="40.00" fill="#000000">Tree 0, Class 1</text>
</g>
<g id="clust17" class="cluster">
<title>cluster_2</title>
<polygon fill="none" stroke="#000000" points="1266,-8 1266,-1316.5584 1728,-1316.5584 1728,-8 1266,-8"/>
<text text-anchor="middle" x="1497" y="-1280.5584" font-family="Times,serif" font-size="40.00" fill="#000000">Tree 0, Class 2</text>
</g>
<!-- SG_0_Node_0 -->
<g id="node1" class="node">
<title>SG_0_Node_0</title>
<polygon fill="none" stroke="#000000" points="321.5,-1256.5584 256.5,-1256.5584 256.5,-1220.5584 321.5,-1220.5584 321.5,-1256.5584"/>
<text text-anchor="middle" x="289" y="-1233.5584" font-family="Times,serif" font-size="20.00" fill="#000000">body</text>
</g>
<!-- SG_0_Node_1 -->
<g id="node2" class="node">
<title>SG_0_Node_1</title>
<polygon fill="none" stroke="#000000" points="203.5,-1099.3452 48.5,-1099.3452 48.5,-1063.3452 203.5,-1063.3452 203.5,-1099.3452"/>
<text text-anchor="middle" x="126" y="-1076.3452" font-family="Times,serif" font-size="20.00" fill="#000000">Content&#45;Type</text>
</g>
<!-- SG_0_Node_0&#45;&gt;SG_0_Node_1 -->
<g id="edge1" class="edge">
<title>SG_0_Node_0&#45;&gt;SG_0_Node_1</title>
<path fill="none" stroke="#000000" d="M256.1602,-1236.0042C196.4064,-1230.6013 73.6878,-1215.7691 48,-1183.5584 35.8071,-1168.2695 39.2339,-1157.0391 48,-1139.5584 55.0212,-1125.5573 67.1843,-1114.0632 79.8452,-1105.0963"/>
<polygon fill="#000000" stroke="#000000" points="81.7855,-1108.0093 88.188,-1099.5678 77.9187,-1102.1742 81.7855,-1108.0093"/>
<text text-anchor="middle" x="277.5" y="-1167.5584" font-family="Times,serif" font-size="20.00" fill="#000000">ecocnt_html=num_frames=1,input_id=test1</text>
<text text-anchor="middle" x="277.5" y="-1145.5584" font-family="Times,serif" font-size="20.00" fill="#000000">ecocnt_html=num_frames=2</text>
</g>
<!-- SG_0_Node_6 -->
<g id="node3" class="node">
<title>SG_0_Node_6</title>
<ellipse fill="none" stroke="#000000" cx="529" cy="-1081.3452" rx="34.7971" ry="21.4286"/>
<text text-anchor="middle" x="529" y="-1076.3452" font-family="Times,serif" font-size="20.00" fill="#000000">1.0</text>
</g>
<!-- SG_0_Node_0&#45;&gt;SG_0_Node_6 -->
<g id="edge2" class="edge">
<title>SG_0_Node_0&#45;&gt;SG_0_Node_6</title>
<path fill="none" stroke="#000000" d="M321.5783,-1234.5655C375.8923,-1227.2434 481.5152,-1209.9548 507,-1183.5584 524.9587,-1164.9574 529.7436,-1135.4115 530.4549,-1112.8591"/>
<polygon fill="#000000" stroke="#000000" points="533.9555,-1112.7649 530.5225,-1102.7417 526.9557,-1112.718 533.9555,-1112.7649"/>
<text text-anchor="middle" x="573" y="-1167.5584" font-family="Times,serif" font-size="20.00" fill="#000000">[NA]</text>
<text text-anchor="middle" x="573" y="-1145.5584" font-family="Times,serif" font-size="20.00" fill="#000000">11 levels</text>
</g>
<!-- SG_0_Node_2 -->
<g id="node4" class="node">
<title>SG_0_Node_2</title>
<polygon fill="none" stroke="#000000" points="236.5,-828.9188 15.5,-828.9188 15.5,-792.9188 236.5,-792.9188 236.5,-828.9188"/>
<text text-anchor="middle" x="126" y="-805.9188" font-family="Times,serif" font-size="20.00" fill="#000000">Content&#45;Disposition</text>
</g>
<!-- SG_0_Node_1&#45;&gt;SG_0_Node_2 -->
<g id="edge3" class="edge">
<title>SG_0_Node_1&#45;&gt;SG_0_Node_2</title>
<path fill="none" stroke="#000000" d="M126,-1063.1819C126,-1016.9966 126,-894.8048 126,-839.1951"/>
<polygon fill="#000000" stroke="#000000" points="129.5001,-839.0031 126,-829.0031 122.5001,-839.0032 129.5001,-839.0031"/>
<text text-anchor="middle" x="173" y="-952.132" font-family="Times,serif" font-size="20.00" fill="#000000">empty</text>
<text text-anchor="middle" x="173" y="-930.132" font-family="Times,serif" font-size="20.00" fill="#000000">text/html</text>
</g>
<!-- SG_0_Node_7 -->
<g id="node5" class="node">
<title>SG_0_Node_7</title>
<ellipse fill="none" stroke="#000000" cx="289" cy="-810.9188" rx="34.7971" ry="21.4286"/>
<text text-anchor="middle" x="289" y="-805.9188" font-family="Times,serif" font-size="20.00" fill="#000000">1.0</text>
</g>
<!-- SG_0_Node_1&#45;&gt;SG_0_Node_7 -->
<g id="edge4" class="edge">
<title>SG_0_Node_1&#45;&gt;SG_0_Node_7</title>
<path fill="none" stroke="#000000" d="M171.3915,-1063.2249C190.0191,-1053.7612 210.3671,-1040.4816 224,-1023.132 266.5577,-968.9719 281.3747,-886.9748 286.4416,-842.4254"/>
<polygon fill="#000000" stroke="#000000" points="289.9512,-842.515 287.5062,-832.2062 282.9888,-841.7897 289.9512,-842.515"/>
<text text-anchor="middle" x="393" y="-1007.132" font-family="Times,serif" font-size="20.00" fill="#000000">[NA]</text>
<text text-anchor="middle" x="393" y="-985.132" font-family="Times,serif" font-size="20.00" fill="#000000">application/javascript</text>
<text text-anchor="middle" x="393" y="-963.132" font-family="Times,serif" font-size="20.00" fill="#000000">application/pdf</text>
<text text-anchor="middle" x="393" y="-941.132" font-family="Times,serif" font-size="20.00" fill="#000000">audio/wav</text>
<text text-anchor="middle" x="393" y="-919.132" font-family="Times,serif" font-size="20.00" fill="#000000">image/png</text>
<text text-anchor="middle" x="393" y="-897.132" font-family="Times,serif" font-size="20.00" fill="#000000">text/css</text>
<text text-anchor="middle" x="393" y="-875.132" font-family="Times,serif" font-size="20.00" fill="#000000">video/mp4</text>
</g>
<!-- SG_0_Node_3 -->
<g id="node6" class="node">
<title>SG_0_Node_3</title>
<polygon fill="none" stroke="#000000" points="177,-668.4924 35,-668.4924 35,-632.4924 177,-632.4924 177,-668.4924"/>
<text text-anchor="middle" x="106" y="-645.4924" font-family="Times,serif" font-size="20.00" fill="#000000">Status&#45;Code</text>
</g>
<!-- SG_0_Node_2&#45;&gt;SG_0_Node_3 -->
<g id="edge5" class="edge">
<title>SG_0_Node_2&#45;&gt;SG_0_Node_3</title>
<path fill="none" stroke="#000000" d="M123.7446,-792.8277C120.2936,-765.1459 113.6718,-712.0306 109.5657,-679.0939"/>
<polygon fill="#000000" stroke="#000000" points="112.9881,-678.2537 108.2778,-668.7636 106.0419,-679.1198 112.9881,-678.2537"/>
<text text-anchor="middle" x="150" y="-725.7056" font-family="Times,serif" font-size="20.00" fill="#000000">empty</text>
</g>
<!-- SG_0_Node_8 -->
<g id="node7" class="node">
<title>SG_0_Node_8</title>
<ellipse fill="none" stroke="#000000" cx="230" cy="-650.4924" rx="34.7971" ry="21.4286"/>
<text text-anchor="middle" x="230" y="-645.4924" font-family="Times,serif" font-size="20.00" fill="#000000">1.0</text>
</g>
<!-- SG_0_Node_2&#45;&gt;SG_0_Node_8 -->
<g id="edge6" class="edge">
<title>SG_0_Node_2&#45;&gt;SG_0_Node_8</title>
<path fill="none" stroke="#000000" d="M148.674,-792.7784C160.9243,-782.0998 175.6214,-767.7625 186,-752.7056 201.2394,-730.5969 212.9008,-702.3659 220.3774,-681.1774"/>
<polygon fill="#000000" stroke="#000000" points="223.6968,-682.2872 223.6123,-671.6927 217.0715,-680.0275 223.6968,-682.2872"/>
<text text-anchor="middle" x="268" y="-736.7056" font-family="Times,serif" font-size="20.00" fill="#000000">[NA]</text>
<text text-anchor="middle" x="268" y="-714.7056" font-family="Times,serif" font-size="20.00" fill="#000000">attachment</text>
</g>
<!-- SG_0_Node_9 -->
<g id="node8" class="node">
<title>SG_0_Node_9</title>
<ellipse fill="none" stroke="#000000" cx="74" cy="-490.066" rx="34.7971" ry="21.4286"/>
<text text-anchor="middle" x="74" y="-485.066" font-family="Times,serif" font-size="20.00" fill="#000000">0.0</text>
</g>
<!-- SG_0_Node_3&#45;&gt;SG_0_Node_9 -->
<g id="edge7" class="edge">
<title>SG_0_Node_3&#45;&gt;SG_0_Node_9</title>
<path fill="none" stroke="#000000" d="M99.5474,-632.3456C95.7113,-620.9635 91.0201,-605.9124 88,-592.2792 82.7879,-568.7509 79.1873,-541.7202 76.944,-521.3678"/>
<polygon fill="#000000" stroke="#000000" points="80.4212,-520.966 75.8933,-511.3875 73.4596,-521.699 80.4212,-520.966"/>
<text text-anchor="middle" x="134" y="-576.2792" font-family="Times,serif" font-size="20.00" fill="#000000">[NA]</text>
<text text-anchor="middle" x="134" y="-554.2792" font-family="Times,serif" font-size="20.00" fill="#000000">49 levels</text>
</g>
<!-- SG_0_Node_4 -->
<g id="node9" class="node">
<title>SG_0_Node_4</title>
<polygon fill="none" stroke="#000000" points="273,-508.066 131,-508.066 131,-472.066 273,-472.066 273,-508.066"/>
<text text-anchor="middle" x="202" y="-485.066" font-family="Times,serif" font-size="20.00" fill="#000000">Status&#45;Code</text>
</g>
<!-- SG_0_Node_3&#45;&gt;SG_0_Node_4 -->
<g id="edge8" class="edge">
<title>SG_0_Node_3&#45;&gt;SG_0_Node_4</title>
<path fill="none" stroke="#000000" d="M138.4221,-632.2451C153.2647,-622.2869 169.7851,-608.6405 180,-592.2792 193.898,-570.0188 199.1149,-540.3019 201.0234,-518.6501"/>
<polygon fill="#000000" stroke="#000000" points="204.5311,-518.6601 201.7333,-508.4414 197.548,-518.1744 204.5311,-518.6601"/>
<text text-anchor="middle" x="242" y="-565.2792" font-family="Times,serif" font-size="20.00" fill="#000000">13 levels</text>
</g>
<!-- SG_0_Node_5 -->
<g id="node10" class="node">
<title>SG_0_Node_5</title>
<polygon fill="none" stroke="#000000" points="196.5,-237.6396 91.5,-237.6396 91.5,-201.6396 196.5,-201.6396 196.5,-237.6396"/>
<text text-anchor="middle" x="144" y="-214.6396" font-family="Times,serif" font-size="20.00" fill="#000000">Location</text>
</g>
<!-- SG_0_Node_4&#45;&gt;SG_0_Node_5 -->
<g id="edge9" class="edge">
<title>SG_0_Node_4&#45;&gt;SG_0_Node_5</title>
<path fill="none" stroke="#000000" d="M189.1371,-471.8158C182.0072,-460.7653 173.6643,-446.0949 169,-431.8528 148.2265,-368.4216 144.3041,-289.3279 143.8075,-247.9197"/>
<polygon fill="#000000" stroke="#000000" points="147.3066,-247.7386 143.7469,-237.7597 140.3067,-247.7804 147.3066,-247.7386"/>
<text text-anchor="middle" x="188.5" y="-404.8528" font-family="Times,serif" font-size="20.00" fill="#000000">301</text>
<text text-anchor="middle" x="188.5" y="-382.8528" font-family="Times,serif" font-size="20.00" fill="#000000">302</text>
<text text-anchor="middle" x="188.5" y="-360.8528" font-family="Times,serif" font-size="20.00" fill="#000000">303</text>
<text text-anchor="middle" x="188.5" y="-338.8528" font-family="Times,serif" font-size="20.00" fill="#000000">305</text>
<text text-anchor="middle" x="188.5" y="-316.8528" font-family="Times,serif" font-size="20.00" fill="#000000">307</text>
<text text-anchor="middle" x="188.5" y="-294.8528" font-family="Times,serif" font-size="20.00" fill="#000000">308</text>
</g>
<!-- SG_0_Node_10 -->
<g id="node11" class="node">
<title>SG_0_Node_10</title>
<ellipse fill="none" stroke="#000000" cx="249" cy="-219.6396" rx="34.7971" ry="21.4286"/>
<text text-anchor="middle" x="249" y="-214.6396" font-family="Times,serif" font-size="20.00" fill="#000000">1.0</text>
</g>
<!-- SG_0_Node_4&#45;&gt;SG_0_Node_10 -->
<g id="edge10" class="edge">
<title>SG_0_Node_4&#45;&gt;SG_0_Node_10</title>
<path fill="none" stroke="#000000" d="M205.1568,-471.9027C213.0428,-426.5283 233.679,-307.7931 243.5659,-250.9059"/>
<polygon fill="#000000" stroke="#000000" points="247.0174,-251.4868 245.2815,-241.0351 240.1207,-250.2881 247.0174,-251.4868"/>
<text text-anchor="middle" x="257.5" y="-415.8528" font-family="Times,serif" font-size="20.00" fill="#000000">100</text>
<text text-anchor="middle" x="257.5" y="-393.8528" font-family="Times,serif" font-size="20.00" fill="#000000">101</text>
<text text-anchor="middle" x="257.5" y="-371.8528" font-family="Times,serif" font-size="20.00" fill="#000000">102</text>
<text text-anchor="middle" x="257.5" y="-349.8528" font-family="Times,serif" font-size="20.00" fill="#000000">103</text>
<text text-anchor="middle" x="257.5" y="-327.8528" font-family="Times,serif" font-size="20.00" fill="#000000">204</text>
<text text-anchor="middle" x="257.5" y="-305.8528" font-family="Times,serif" font-size="20.00" fill="#000000">304</text>
<text text-anchor="middle" x="257.5" y="-283.8528" font-family="Times,serif" font-size="20.00" fill="#000000">407</text>
</g>
<!-- SG_0_Node_11 -->
<g id="node12" class="node">
<title>SG_0_Node_11</title>
<ellipse fill="none" stroke="#000000" cx="76" cy="-37.2132" rx="34.7971" ry="21.4286"/>
<text text-anchor="middle" x="76" y="-32.2132" font-family="Times,serif" font-size="20.00" fill="#000000">0.0</text>
</g>
<!-- SG_0_Node_5&#45;&gt;SG_0_Node_11 -->
<g id="edge11" class="edge">
<title>SG_0_Node_5&#45;&gt;SG_0_Node_11</title>
<path fill="none" stroke="#000000" d="M118.9517,-201.4803C106.8006,-191.1948 93.2865,-177.233 86,-161.4264 72.4674,-132.0703 71.3249,-94.6688 72.7194,-68.6133"/>
<polygon fill="#000000" stroke="#000000" points="76.2177,-68.7578 73.4145,-58.5406 69.2343,-68.2758 76.2177,-68.7578"/>
<text text-anchor="middle" x="118" y="-123.4264" font-family="Times,serif" font-size="20.00" fill="#000000">empty</text>
</g>
<!-- SG_0_Node_12 -->
<g id="node13" class="node">
<title>SG_0_Node_12</title>
<ellipse fill="none" stroke="#000000" cx="176" cy="-37.2132" rx="34.7971" ry="21.4286"/>
<text text-anchor="middle" x="176" y="-32.2132" font-family="Times,serif" font-size="20.00" fill="#000000">1.0</text>
</g>
<!-- SG_0_Node_5&#45;&gt;SG_0_Node_12 -->
<g id="edge12" class="edge">
<title>SG_0_Node_5&#45;&gt;SG_0_Node_12</title>
<path fill="none" stroke="#000000" d="M147.1853,-201.4809C152.633,-170.4246 163.8005,-106.7606 170.5206,-68.4504"/>
<polygon fill="#000000" stroke="#000000" points="174.0091,-68.8198 172.2896,-58.3655 167.1144,-67.6104 174.0091,-68.8198"/>
<text text-anchor="middle" x="302" y="-145.4264" font-family="Times,serif" font-size="20.00" fill="#000000">[NA]</text>
<text text-anchor="middle" x="302" y="-123.4264" font-family="Times,serif" font-size="20.00" fill="#000000">/</text>
<text text-anchor="middle" x="302" y="-101.4264" font-family="Times,serif" font-size="20.00" fill="#000000">http://localhost:8000/echo/</text>
</g>
<!-- SG_1_Node_0 -->
<g id="node14" class="node">
<title>SG_1_Node_0</title>
<polygon fill="none" stroke="#000000" points="767.5,-1256.5584 702.5,-1256.5584 702.5,-1220.5584 767.5,-1220.5584 767.5,-1256.5584"/>
<text text-anchor="middle" x="735" y="-1233.5584" font-family="Times,serif" font-size="20.00" fill="#000000">body</text>
</g>
<!-- SG_1_Node_6 -->
<g id="node15" class="node">
<title>SG_1_Node_6</title>
<ellipse fill="none" stroke="#000000" cx="680" cy="-1081.3452" rx="34.7971" ry="21.4286"/>
<text text-anchor="middle" x="680" y="-1076.3452" font-family="Times,serif" font-size="20.00" fill="#000000">0.0</text>
</g>
<!-- SG_1_Node_0&#45;&gt;SG_1_Node_6 -->
<g id="edge13" class="edge">
<title>SG_1_Node_0&#45;&gt;SG_1_Node_6</title>
<path fill="none" stroke="#000000" d="M707.6374,-1220.4714C695.8616,-1211.0265 683.357,-1198.3473 677,-1183.5584 667.4039,-1161.2341 668.9269,-1133.5623 672.4221,-1112.6431"/>
<polygon fill="#000000" stroke="#000000" points="675.8875,-1113.1549 674.3185,-1102.6769 669.0108,-1111.8464 675.8875,-1113.1549"/>
<text text-anchor="middle" x="723" y="-1167.5584" font-family="Times,serif" font-size="20.00" fill="#000000">[NA]</text>
<text text-anchor="middle" x="723" y="-1145.5584" font-family="Times,serif" font-size="20.00" fill="#000000">12 levels</text>
</g>
<!-- SG_1_Node_1 -->
<g id="node16" class="node">
<title>SG_1_Node_1</title>
<polygon fill="none" stroke="#000000" points="887.5,-1099.3452 732.5,-1099.3452 732.5,-1063.3452 887.5,-1063.3452 887.5,-1099.3452"/>
<text text-anchor="middle" x="810" y="-1076.3452" font-family="Times,serif" font-size="20.00" fill="#000000">Content&#45;Type</text>
</g>
<!-- SG_1_Node_0&#45;&gt;SG_1_Node_1 -->
<g id="edge14" class="edge">
<title>SG_1_Node_0&#45;&gt;SG_1_Node_1</title>
<path fill="none" stroke="#000000" d="M747.3042,-1220.4308C754.1562,-1209.9204 762.5741,-1196.2849 769,-1183.5584 781.3678,-1159.064 792.7542,-1129.9094 800.3725,-1109.0178"/>
<polygon fill="#000000" stroke="#000000" points="803.711,-1110.0769 803.7975,-1099.4824 797.1231,-1107.7105 803.711,-1110.0769"/>
<text text-anchor="middle" x="1017.5" y="-1156.5584" font-family="Times,serif" font-size="20.00" fill="#000000">ecocnt_html=num_frames=1,input_id=test1</text>
</g>
<!-- SG_1_Node_7 -->
<g id="node17" class="node">
<title>SG_1_Node_7</title>
<ellipse fill="none" stroke="#000000" cx="691" cy="-810.9188" rx="34.7971" ry="21.4286"/>
<text text-anchor="middle" x="691" y="-805.9188" font-family="Times,serif" font-size="20.00" fill="#000000">0.0</text>
</g>
<!-- SG_1_Node_1&#45;&gt;SG_1_Node_7 -->
<g id="edge15" class="edge">
<title>SG_1_Node_1&#45;&gt;SG_1_Node_7</title>
<path fill="none" stroke="#000000" d="M754.6365,-1063.247C735.742,-1054.2261 716.4987,-1041.2616 705,-1023.132 669.6651,-967.4209 676.8344,-886.1002 684.3891,-842.0574"/>
<polygon fill="#000000" stroke="#000000" points="687.8327,-842.683 686.1918,-832.216 680.9472,-841.4217 687.8327,-842.683"/>
<text text-anchor="middle" x="816" y="-1007.132" font-family="Times,serif" font-size="20.00" fill="#000000">[NA]</text>
<text text-anchor="middle" x="816" y="-985.132" font-family="Times,serif" font-size="20.00" fill="#000000">application/javascript</text>
<text text-anchor="middle" x="816" y="-963.132" font-family="Times,serif" font-size="20.00" fill="#000000">application/pdf</text>
<text text-anchor="middle" x="816" y="-941.132" font-family="Times,serif" font-size="20.00" fill="#000000">audio/wav</text>
<text text-anchor="middle" x="816" y="-919.132" font-family="Times,serif" font-size="20.00" fill="#000000">image/png</text>
<text text-anchor="middle" x="816" y="-897.132" font-family="Times,serif" font-size="20.00" fill="#000000">text/css</text>
<text text-anchor="middle" x="816" y="-875.132" font-family="Times,serif" font-size="20.00" fill="#000000">video/mp4</text>
</g>
<!-- SG_1_Node_2 -->
<g id="node18" class="node">
<title>SG_1_Node_2</title>
<polygon fill="none" stroke="#000000" points="1059.5,-828.9188 838.5,-828.9188 838.5,-792.9188 1059.5,-792.9188 1059.5,-828.9188"/>
<text text-anchor="middle" x="949" y="-805.9188" font-family="Times,serif" font-size="20.00" fill="#000000">Content&#45;Disposition</text>
</g>
<!-- SG_1_Node_1&#45;&gt;SG_1_Node_2 -->
<g id="edge16" class="edge">
<title>SG_1_Node_1&#45;&gt;SG_1_Node_2</title>
<path fill="none" stroke="#000000" d="M873.6011,-1063.344C893.8059,-1054.4787 914.2028,-1041.5908 927,-1023.132 965.6999,-967.3111 960.2449,-882.5703 954.0359,-838.9851"/>
<polygon fill="#000000" stroke="#000000" points="957.4921,-838.4324 952.509,-829.0826 950.5739,-839.4992 957.4921,-838.4324"/>
<text text-anchor="middle" x="1005" y="-952.132" font-family="Times,serif" font-size="20.00" fill="#000000">empty</text>
<text text-anchor="middle" x="1005" y="-930.132" font-family="Times,serif" font-size="20.00" fill="#000000">text/html</text>
</g>
<!-- SG_1_Node_8 -->
<g id="node19" class="node">
<title>SG_1_Node_8</title>
<ellipse fill="none" stroke="#000000" cx="876" cy="-650.4924" rx="34.7971" ry="21.4286"/>
<text text-anchor="middle" x="876" y="-645.4924" font-family="Times,serif" font-size="20.00" fill="#000000">0.0</text>
</g>
<!-- SG_1_Node_2&#45;&gt;SG_1_Node_8 -->
<g id="edge17" class="edge">
<title>SG_1_Node_2&#45;&gt;SG_1_Node_8</title>
<path fill="none" stroke="#000000" d="M923.8865,-792.6705C911.6263,-782.3607 897.8583,-768.4039 890,-752.7056 879.026,-730.7832 875.7847,-703.0836 875.1444,-682.0514"/>
<polygon fill="#000000" stroke="#000000" points="878.6438,-681.9773 875.0178,-672.0223 871.6444,-682.0657 878.6438,-681.9773"/>
<text text-anchor="middle" x="949" y="-736.7056" font-family="Times,serif" font-size="20.00" fill="#000000">[NA]</text>
<text text-anchor="middle" x="949" y="-714.7056" font-family="Times,serif" font-size="20.00" fill="#000000">attachment</text>
</g>
<!-- SG_1_Node_3 -->
<g id="node20" class="node">
<title>SG_1_Node_3</title>
<polygon fill="none" stroke="#000000" points="1101,-668.4924 959,-668.4924 959,-632.4924 1101,-632.4924 1101,-668.4924"/>
<text text-anchor="middle" x="1030" y="-645.4924" font-family="Times,serif" font-size="20.00" fill="#000000">Status&#45;Code</text>
</g>
<!-- SG_1_Node_2&#45;&gt;SG_1_Node_3 -->
<g id="edge18" class="edge">
<title>SG_1_Node_2&#45;&gt;SG_1_Node_3</title>
<path fill="none" stroke="#000000" d="M973.3308,-792.6708C985.5298,-782.2653 999.4826,-768.2207 1008,-752.7056 1020.6288,-729.7014 1026.0101,-700.0808 1028.3021,-678.6537"/>
<polygon fill="#000000" stroke="#000000" points="1031.7993,-678.8424 1029.2193,-668.5665 1024.828,-678.2085 1031.7993,-678.8424"/>
<text text-anchor="middle" x="1055" y="-725.7056" font-family="Times,serif" font-size="20.00" fill="#000000">empty</text>
</g>
<!-- SG_1_Node_4 -->
<g id="node21" class="node">
<title>SG_1_Node_4</title>
<polygon fill="none" stroke="#000000" points="1037,-508.066 895,-508.066 895,-472.066 1037,-472.066 1037,-508.066"/>
<text text-anchor="middle" x="966" y="-485.066" font-family="Times,serif" font-size="20.00" fill="#000000">Status&#45;Code</text>
</g>
<!-- SG_1_Node_3&#45;&gt;SG_1_Node_4 -->
<g id="edge19" class="edge">
<title>SG_1_Node_3&#45;&gt;SG_1_Node_4</title>
<path fill="none" stroke="#000000" d="M1009.4901,-632.2926C998.9155,-621.7006 986.8344,-607.4655 980,-592.2792 969.4841,-568.9125 966.3494,-539.741 965.6302,-518.5501"/>
<polygon fill="#000000" stroke="#000000" points="969.1247,-518.2054 965.448,-508.269 962.1258,-518.3295 969.1247,-518.2054"/>
<text text-anchor="middle" x="1026" y="-565.2792" font-family="Times,serif" font-size="20.00" fill="#000000">13 levels</text>
</g>
<!-- SG_1_Node_9 -->
<g id="node22" class="node">
<title>SG_1_Node_9</title>
<ellipse fill="none" stroke="#000000" cx="1094" cy="-490.066" rx="34.7971" ry="21.4286"/>
<text text-anchor="middle" x="1094" y="-485.066" font-family="Times,serif" font-size="20.00" fill="#000000">1.0</text>
</g>
<!-- SG_1_Node_3&#45;&gt;SG_1_Node_9 -->
<g id="edge20" class="edge">
<title>SG_1_Node_3&#45;&gt;SG_1_Node_9</title>
<path fill="none" stroke="#000000" d="M1046.138,-632.3171C1055.0173,-621.4076 1065.5173,-606.8543 1072,-592.2792 1081.988,-569.8231 1087.5648,-542.5284 1090.6027,-521.7952"/>
<polygon fill="#000000" stroke="#000000" points="1094.1081,-521.9883 1091.9697,-511.6115 1087.1703,-521.0569 1094.1081,-521.9883"/>
<text text-anchor="middle" x="1131" y="-576.2792" font-family="Times,serif" font-size="20.00" fill="#000000">[NA]</text>
<text text-anchor="middle" x="1131" y="-554.2792" font-family="Times,serif" font-size="20.00" fill="#000000">49 levels</text>
</g>
<!-- SG_1_Node_10 -->
<g id="node23" class="node">
<title>SG_1_Node_10</title>
<ellipse fill="none" stroke="#000000" cx="886" cy="-219.6396" rx="34.7971" ry="21.4286"/>
<text text-anchor="middle" x="886" y="-214.6396" font-family="Times,serif" font-size="20.00" fill="#000000">0.0</text>
</g>
<!-- SG_1_Node_4&#45;&gt;SG_1_Node_10 -->
<g id="edge21" class="edge">
<title>SG_1_Node_4&#45;&gt;SG_1_Node_10</title>
<path fill="none" stroke="#000000" d="M951.5595,-471.9462C943.477,-460.9404 933.8739,-446.2714 928,-431.8528 903.0506,-370.6098 892.5527,-293.2204 888.4296,-250.8683"/>
<polygon fill="#000000" stroke="#000000" points="891.9129,-250.5252 887.5138,-240.8868 884.9422,-251.1648 891.9129,-250.5252"/>
<text text-anchor="middle" x="947.5" y="-415.8528" font-family="Times,serif" font-size="20.00" fill="#000000">100</text>
<text text-anchor="middle" x="947.5" y="-393.8528" font-family="Times,serif" font-size="20.00" fill="#000000">101</text>
<text text-anchor="middle" x="947.5" y="-371.8528" font-family="Times,serif" font-size="20.00" fill="#000000">102</text>
<text text-anchor="middle" x="947.5" y="-349.8528" font-family="Times,serif" font-size="20.00" fill="#000000">103</text>
<text text-anchor="middle" x="947.5" y="-327.8528" font-family="Times,serif" font-size="20.00" fill="#000000">204</text>
<text text-anchor="middle" x="947.5" y="-305.8528" font-family="Times,serif" font-size="20.00" fill="#000000">304</text>
<text text-anchor="middle" x="947.5" y="-283.8528" font-family="Times,serif" font-size="20.00" fill="#000000">407</text>
</g>
<!-- SG_1_Node_5 -->
<g id="node24" class="node">
<title>SG_1_Node_5</title>
<polygon fill="none" stroke="#000000" points="1043.5,-237.6396 938.5,-237.6396 938.5,-201.6396 1043.5,-201.6396 1043.5,-237.6396"/>
<text text-anchor="middle" x="991" y="-214.6396" font-family="Times,serif" font-size="20.00" fill="#000000">Location</text>
</g>
<!-- SG_1_Node_4&#45;&gt;SG_1_Node_5 -->
<g id="edge22" class="edge">
<title>SG_1_Node_4&#45;&gt;SG_1_Node_5</title>
<path fill="none" stroke="#000000" d="M967.6791,-471.9027C971.9488,-425.7174 983.245,-303.5256 988.386,-247.9158"/>
<polygon fill="#000000" stroke="#000000" points="991.8927,-248.0037 989.3282,-237.7239 984.9224,-247.3592 991.8927,-248.0037"/>
<text text-anchor="middle" x="1004.5" y="-404.8528" font-family="Times,serif" font-size="20.00" fill="#000000">301</text>
<text text-anchor="middle" x="1004.5" y="-382.8528" font-family="Times,serif" font-size="20.00" fill="#000000">302</text>
<text text-anchor="middle" x="1004.5" y="-360.8528" font-family="Times,serif" font-size="20.00" fill="#000000">303</text>
<text text-anchor="middle" x="1004.5" y="-338.8528" font-family="Times,serif" font-size="20.00" fill="#000000">305</text>
<text text-anchor="middle" x="1004.5" y="-316.8528" font-family="Times,serif" font-size="20.00" fill="#000000">307</text>
<text text-anchor="middle" x="1004.5" y="-294.8528" font-family="Times,serif" font-size="20.00" fill="#000000">308</text>
</g>
<!-- SG_1_Node_11 -->
<g id="node25" class="node">
<title>SG_1_Node_11</title>
<ellipse fill="none" stroke="#000000" cx="707" cy="-37.2132" rx="34.7971" ry="21.4286"/>
<text text-anchor="middle" x="707" y="-32.2132" font-family="Times,serif" font-size="20.00" fill="#000000">0.0</text>
</g>
<!-- SG_1_Node_5&#45;&gt;SG_1_Node_11 -->
<g id="edge23" class="edge">
<title>SG_1_Node_5&#45;&gt;SG_1_Node_11</title>
<path fill="none" stroke="#000000" d="M941.2647,-201.6186C937.4741,-200.468 933.689,-199.3878 930,-198.4264 838.7159,-174.6361 785.5704,-230.1973 721,-161.4264 697.9496,-136.8765 697.6995,-96.4498 701.0779,-68.4141"/>
<polygon fill="#000000" stroke="#000000" points="704.5684,-68.7278 702.5104,-58.3347 697.6381,-67.7427 704.5684,-68.7278"/>
<text text-anchor="middle" x="858" y="-145.4264" font-family="Times,serif" font-size="20.00" fill="#000000">[NA]</text>
<text text-anchor="middle" x="858" y="-123.4264" font-family="Times,serif" font-size="20.00" fill="#000000">/</text>
<text text-anchor="middle" x="858" y="-101.4264" font-family="Times,serif" font-size="20.00" fill="#000000">http://localhost:8000/echo/</text>
</g>
<!-- SG_1_Node_12 -->
<g id="node26" class="node">
<title>SG_1_Node_12</title>
<ellipse fill="none" stroke="#000000" cx="1017" cy="-37.2132" rx="34.7971" ry="21.4286"/>
<text text-anchor="middle" x="1017" y="-32.2132" font-family="Times,serif" font-size="20.00" fill="#000000">1.0</text>
</g>
<!-- SG_1_Node_5&#45;&gt;SG_1_Node_12 -->
<g id="edge24" class="edge">
<title>SG_1_Node_5&#45;&gt;SG_1_Node_12</title>
<path fill="none" stroke="#000000" d="M993.588,-201.4809C998.0143,-170.4246 1007.0879,-106.7606 1012.548,-68.4504"/>
<polygon fill="#000000" stroke="#000000" points="1016.0392,-68.7593 1013.9853,-58.3655 1009.1093,-67.7716 1016.0392,-68.7593"/>
<text text-anchor="middle" x="1040" y="-123.4264" font-family="Times,serif" font-size="20.00" fill="#000000">empty</text>
</g>
<!-- SG_2_Node_0 -->
<g id="node27" class="node">
<title>SG_2_Node_0</title>
<polygon fill="none" stroke="#000000" points="1396.5,-1256.5584 1331.5,-1256.5584 1331.5,-1220.5584 1396.5,-1220.5584 1396.5,-1256.5584"/>
<text text-anchor="middle" x="1364" y="-1233.5584" font-family="Times,serif" font-size="20.00" fill="#000000">body</text>
</g>
<!-- SG_2_Node_6 -->
<g id="node28" class="node">
<title>SG_2_Node_6</title>
<ellipse fill="none" stroke="#000000" cx="1309" cy="-1081.3452" rx="34.7971" ry="21.4286"/>
<text text-anchor="middle" x="1309" y="-1076.3452" font-family="Times,serif" font-size="20.00" fill="#000000">0.0</text>
</g>
<!-- SG_2_Node_0&#45;&gt;SG_2_Node_6 -->
<g id="edge25" class="edge">
<title>SG_2_Node_0&#45;&gt;SG_2_Node_6</title>
<path fill="none" stroke="#000000" d="M1336.6374,-1220.4714C1324.8616,-1211.0265 1312.357,-1198.3473 1306,-1183.5584 1296.4039,-1161.2341 1297.9269,-1133.5623 1301.4221,-1112.6431"/>
<polygon fill="#000000" stroke="#000000" points="1304.8875,-1113.1549 1303.3185,-1102.6769 1298.0108,-1111.8464 1304.8875,-1113.1549"/>
<text text-anchor="middle" x="1352" y="-1167.5584" font-family="Times,serif" font-size="20.00" fill="#000000">[NA]</text>
<text text-anchor="middle" x="1352" y="-1145.5584" font-family="Times,serif" font-size="20.00" fill="#000000">12 levels</text>
</g>
<!-- SG_2_Node_1 -->
<g id="node29" class="node">
<title>SG_2_Node_1</title>
<polygon fill="none" stroke="#000000" points="1516.5,-1099.3452 1361.5,-1099.3452 1361.5,-1063.3452 1516.5,-1063.3452 1516.5,-1099.3452"/>
<text text-anchor="middle" x="1439" y="-1076.3452" font-family="Times,serif" font-size="20.00" fill="#000000">Content&#45;Type</text>
</g>
<!-- SG_2_Node_0&#45;&gt;SG_2_Node_1 -->
<g id="edge26" class="edge">
<title>SG_2_Node_0&#45;&gt;SG_2_Node_1</title>
<path fill="none" stroke="#000000" d="M1376.3042,-1220.4308C1383.1562,-1209.9204 1391.5741,-1196.2849 1398,-1183.5584 1410.3678,-1159.064 1421.7542,-1129.9094 1429.3725,-1109.0178"/>
<polygon fill="#000000" stroke="#000000" points="1432.711,-1110.0769 1432.7975,-1099.4824 1426.1231,-1107.7105 1432.711,-1110.0769"/>
<text text-anchor="middle" x="1567" y="-1156.5584" font-family="Times,serif" font-size="20.00" fill="#000000">ecocnt_html=num_frames=2</text>
</g>
<!-- SG_2_Node_7 -->
<g id="node30" class="node">
<title>SG_2_Node_7</title>
<ellipse fill="none" stroke="#000000" cx="1330" cy="-810.9188" rx="34.7971" ry="21.4286"/>
<text text-anchor="middle" x="1330" y="-805.9188" font-family="Times,serif" font-size="20.00" fill="#000000">0.0</text>
</g>
<!-- SG_2_Node_1&#45;&gt;SG_2_Node_7 -->
<g id="edge27" class="edge">
<title>SG_2_Node_1&#45;&gt;SG_2_Node_7</title>
<path fill="none" stroke="#000000" d="M1390.7922,-1063.1437C1373.0547,-1053.9235 1354.7025,-1040.8474 1344,-1023.132 1309.958,-966.7842 1316.544,-885.9853 1323.678,-842.1282"/>
<polygon fill="#000000" stroke="#000000" points="1327.1624,-842.5201 1325.4314,-832.0677 1320.2663,-841.3182 1327.1624,-842.5201"/>
<text text-anchor="middle" x="1455" y="-1007.132" font-family="Times,serif" font-size="20.00" fill="#000000">[NA]</text>
<text text-anchor="middle" x="1455" y="-985.132" font-family="Times,serif" font-size="20.00" fill="#000000">application/javascript</text>
<text text-anchor="middle" x="1455" y="-963.132" font-family="Times,serif" font-size="20.00" fill="#000000">application/pdf</text>
<text text-anchor="middle" x="1455" y="-941.132" font-family="Times,serif" font-size="20.00" fill="#000000">audio/wav</text>
<text text-anchor="middle" x="1455" y="-919.132" font-family="Times,serif" font-size="20.00" fill="#000000">image/png</text>
<text text-anchor="middle" x="1455" y="-897.132" font-family="Times,serif" font-size="20.00" fill="#000000">text/css</text>
<text text-anchor="middle" x="1455" y="-875.132" font-family="Times,serif" font-size="20.00" fill="#000000">video/mp4</text>
</g>
<!-- SG_2_Node_2 -->
<g id="node31" class="node">
<title>SG_2_Node_2</title>
<polygon fill="none" stroke="#000000" points="1698.5,-828.9188 1477.5,-828.9188 1477.5,-792.9188 1698.5,-792.9188 1698.5,-828.9188"/>
<text text-anchor="middle" x="1588" y="-805.9188" font-family="Times,serif" font-size="20.00" fill="#000000">Content&#45;Disposition</text>
</g>
<!-- SG_2_Node_1&#45;&gt;SG_2_Node_2 -->
<g id="edge28" class="edge">
<title>SG_2_Node_1&#45;&gt;SG_2_Node_2</title>
<path fill="none" stroke="#000000" d="M1510.9111,-1063.3112C1531.8407,-1054.565 1552.6423,-1041.7579 1566,-1023.132 1605.585,-967.9352 1599.7471,-882.9245 1593.2496,-839.1357"/>
<polygon fill="#000000" stroke="#000000" points="1596.6932,-838.5045 1591.654,-829.1848 1589.7815,-839.6129 1596.6932,-838.5045"/>
<text text-anchor="middle" x="1644" y="-952.132" font-family="Times,serif" font-size="20.00" fill="#000000">empty</text>
<text text-anchor="middle" x="1644" y="-930.132" font-family="Times,serif" font-size="20.00" fill="#000000">text/html</text>
</g>
<!-- SG_2_Node_8 -->
<g id="node32" class="node">
<title>SG_2_Node_8</title>
<ellipse fill="none" stroke="#000000" cx="1444" cy="-650.4924" rx="34.7971" ry="21.4286"/>
<text text-anchor="middle" x="1444" y="-645.4924" font-family="Times,serif" font-size="20.00" fill="#000000">0.0</text>
</g>
<!-- SG_2_Node_2&#45;&gt;SG_2_Node_8 -->
<g id="edge29" class="edge">
<title>SG_2_Node_2&#45;&gt;SG_2_Node_8</title>
<path fill="none" stroke="#000000" d="M1526.5921,-792.9033C1505.5918,-783.9316 1483.7119,-770.9784 1469,-752.7056 1452.9518,-732.7731 1446.981,-704.0506 1444.8642,-682.1256"/>
<polygon fill="#000000" stroke="#000000" points="1448.3414,-681.6887 1444.1073,-671.9767 1441.3608,-682.2093 1448.3414,-681.6887"/>
<text text-anchor="middle" x="1528" y="-736.7056" font-family="Times,serif" font-size="20.00" fill="#000000">[NA]</text>
<text text-anchor="middle" x="1528" y="-714.7056" font-family="Times,serif" font-size="20.00" fill="#000000">attachment</text>
</g>
<!-- SG_2_Node_3 -->
<g id="node33" class="node">
<title>SG_2_Node_3</title>
<polygon fill="none" stroke="#000000" points="1669,-668.4924 1527,-668.4924 1527,-632.4924 1669,-632.4924 1669,-668.4924"/>
<text text-anchor="middle" x="1598" y="-645.4924" font-family="Times,serif" font-size="20.00" fill="#000000">Status&#45;Code</text>
</g>
<!-- SG_2_Node_2&#45;&gt;SG_2_Node_3 -->
<g id="edge30" class="edge">
<title>SG_2_Node_2&#45;&gt;SG_2_Node_3</title>
<path fill="none" stroke="#000000" d="M1589.1277,-792.8277C1590.8532,-765.1459 1594.1641,-712.0306 1596.2172,-679.0939"/>
<polygon fill="#000000" stroke="#000000" points="1599.7321,-678.962 1596.8611,-668.7636 1592.7456,-678.5264 1599.7321,-678.962"/>
<text text-anchor="middle" x="1626" y="-725.7056" font-family="Times,serif" font-size="20.00" fill="#000000">empty</text>
</g>
<!-- SG_2_Node_4 -->
<g id="node34" class="node">
<title>SG_2_Node_4</title>
<polygon fill="none" stroke="#000000" points="1561,-508.066 1419,-508.066 1419,-472.066 1561,-472.066 1561,-508.066"/>
<text text-anchor="middle" x="1490" y="-485.066" font-family="Times,serif" font-size="20.00" fill="#000000">Status&#45;Code</text>
</g>
<!-- SG_2_Node_3&#45;&gt;SG_2_Node_4 -->
<g id="edge31" class="edge">
<title>SG_2_Node_3&#45;&gt;SG_2_Node_4</title>
<path fill="none" stroke="#000000" d="M1556.0823,-632.2923C1538.933,-622.7822 1520.4648,-609.4887 1509,-592.2792 1494.4468,-570.4339 1490.2968,-540.4223 1489.4269,-518.5726"/>
<polygon fill="#000000" stroke="#000000" points="1492.9207,-518.2079 1489.2324,-508.2758 1485.9219,-518.3401 1492.9207,-518.2079"/>
<text text-anchor="middle" x="1555" y="-565.2792" font-family="Times,serif" font-size="20.00" fill="#000000">13 levels</text>
</g>
<!-- SG_2_Node_9 -->
<g id="node35" class="node">
<title>SG_2_Node_9</title>
<ellipse fill="none" stroke="#000000" cx="1618" cy="-490.066" rx="34.7971" ry="21.4286"/>
<text text-anchor="middle" x="1618" y="-485.066" font-family="Times,serif" font-size="20.00" fill="#000000">1.0</text>
</g>
<!-- SG_2_Node_3&#45;&gt;SG_2_Node_9 -->
<g id="edge32" class="edge">
<title>SG_2_Node_3&#45;&gt;SG_2_Node_9</title>
<path fill="none" stroke="#000000" d="M1600.2554,-632.4013C1603.6108,-605.4864 1609.9637,-554.5279 1614.0874,-521.4506"/>
<polygon fill="#000000" stroke="#000000" points="1617.5772,-521.7489 1615.3412,-511.3927 1610.6309,-520.8829 1617.5772,-521.7489"/>
<text text-anchor="middle" x="1656" y="-576.2792" font-family="Times,serif" font-size="20.00" fill="#000000">[NA]</text>
<text text-anchor="middle" x="1656" y="-554.2792" font-family="Times,serif" font-size="20.00" fill="#000000">49 levels</text>
</g>
<!-- SG_2_Node_10 -->
<g id="node36" class="node">
<title>SG_2_Node_10</title>
<ellipse fill="none" stroke="#000000" cx="1438" cy="-219.6396" rx="34.7971" ry="21.4286"/>
<text text-anchor="middle" x="1438" y="-214.6396" font-family="Times,serif" font-size="20.00" fill="#000000">0.0</text>
</g>
<!-- SG_2_Node_4&#45;&gt;SG_2_Node_10 -->
<g id="edge33" class="edge">
<title>SG_2_Node_4&#45;&gt;SG_2_Node_10</title>
<path fill="none" stroke="#000000" d="M1484.4823,-471.8306C1481.1544,-460.4152 1476.9941,-445.3602 1474,-431.8528 1459.8652,-368.0852 1448.25,-292.4689 1442.3029,-250.9089"/>
<polygon fill="#000000" stroke="#000000" points="1445.7476,-250.2709 1440.8808,-240.8601 1438.8167,-251.2519 1445.7476,-250.2709"/>
<text text-anchor="middle" x="1493.5" y="-415.8528" font-family="Times,serif" font-size="20.00" fill="#000000">100</text>
<text text-anchor="middle" x="1493.5" y="-393.8528" font-family="Times,serif" font-size="20.00" fill="#000000">101</text>
<text text-anchor="middle" x="1493.5" y="-371.8528" font-family="Times,serif" font-size="20.00" fill="#000000">102</text>
<text text-anchor="middle" x="1493.5" y="-349.8528" font-family="Times,serif" font-size="20.00" fill="#000000">103</text>
<text text-anchor="middle" x="1493.5" y="-327.8528" font-family="Times,serif" font-size="20.00" fill="#000000">204</text>
<text text-anchor="middle" x="1493.5" y="-305.8528" font-family="Times,serif" font-size="20.00" fill="#000000">304</text>
<text text-anchor="middle" x="1493.5" y="-283.8528" font-family="Times,serif" font-size="20.00" fill="#000000">407</text>
</g>
<!-- SG_2_Node_5 -->
<g id="node37" class="node">
<title>SG_2_Node_5</title>
<polygon fill="none" stroke="#000000" points="1595.5,-237.6396 1490.5,-237.6396 1490.5,-201.6396 1595.5,-201.6396 1595.5,-237.6396"/>
<text text-anchor="middle" x="1543" y="-214.6396" font-family="Times,serif" font-size="20.00" fill="#000000">Location</text>
</g>
<!-- SG_2_Node_4&#45;&gt;SG_2_Node_5 -->
<g id="edge34" class="edge">
<title>SG_2_Node_4&#45;&gt;SG_2_Node_5</title>
<path fill="none" stroke="#000000" d="M1498.4944,-471.8265C1503.4255,-460.5366 1509.363,-445.6157 1513,-431.8528 1530.0607,-367.2929 1537.9445,-288.9597 1541.1337,-247.8913"/>
<polygon fill="#000000" stroke="#000000" points="1544.632,-248.0416 1541.8794,-237.8106 1537.6511,-247.5252 1544.632,-248.0416"/>
<text text-anchor="middle" x="1557.5" y="-404.8528" font-family="Times,serif" font-size="20.00" fill="#000000">301</text>
<text text-anchor="middle" x="1557.5" y="-382.8528" font-family="Times,serif" font-size="20.00" fill="#000000">302</text>
<text text-anchor="middle" x="1557.5" y="-360.8528" font-family="Times,serif" font-size="20.00" fill="#000000">303</text>
<text text-anchor="middle" x="1557.5" y="-338.8528" font-family="Times,serif" font-size="20.00" fill="#000000">305</text>
<text text-anchor="middle" x="1557.5" y="-316.8528" font-family="Times,serif" font-size="20.00" fill="#000000">307</text>
<text text-anchor="middle" x="1557.5" y="-294.8528" font-family="Times,serif" font-size="20.00" fill="#000000">308</text>
</g>
<!-- SG_2_Node_11 -->
<g id="node38" class="node">
<title>SG_2_Node_11</title>
<ellipse fill="none" stroke="#000000" cx="1327" cy="-37.2132" rx="34.7971" ry="21.4286"/>
<text text-anchor="middle" x="1327" y="-32.2132" font-family="Times,serif" font-size="20.00" fill="#000000">0.0</text>
</g>
<!-- SG_2_Node_5&#45;&gt;SG_2_Node_11 -->
<g id="edge35" class="edge">
<title>SG_2_Node_5&#45;&gt;SG_2_Node_11</title>
<path fill="none" stroke="#000000" d="M1492.198,-201.5451C1488.7587,-200.4524 1485.3361,-199.402 1482,-198.4264 1414.0226,-178.5476 1370.883,-217.0176 1327,-161.4264 1306.3845,-135.3106 1310.6186,-95.5555 1317.2373,-68.0879"/>
<polygon fill="#000000" stroke="#000000" points="1320.6748,-68.7786 1319.8439,-58.2164 1313.9068,-66.9914 1320.6748,-68.7786"/>
<text text-anchor="middle" x="1464" y="-145.4264" font-family="Times,serif" font-size="20.00" fill="#000000">[NA]</text>
<text text-anchor="middle" x="1464" y="-123.4264" font-family="Times,serif" font-size="20.00" fill="#000000">/</text>
<text text-anchor="middle" x="1464" y="-101.4264" font-family="Times,serif" font-size="20.00" fill="#000000">http://localhost:8000/echo/</text>
</g>
<!-- SG_2_Node_12 -->
<g id="node39" class="node">
<title>SG_2_Node_12</title>
<ellipse fill="none" stroke="#000000" cx="1637" cy="-37.2132" rx="34.7971" ry="21.4286"/>
<text text-anchor="middle" x="1637" y="-32.2132" font-family="Times,serif" font-size="20.00" fill="#000000">1.0</text>
</g>
<!-- SG_2_Node_5&#45;&gt;SG_2_Node_12 -->
<g id="edge36" class="edge">
<title>SG_2_Node_5&#45;&gt;SG_2_Node_12</title>
<path fill="none" stroke="#000000" d="M1568.3242,-201.4827C1581.0744,-191.1031 1595.7485,-177.0541 1605,-161.4264 1621.95,-132.7945 1630.0149,-95.2719 1633.7924,-68.9899"/>
<polygon fill="#000000" stroke="#000000" points="1637.2961,-69.1888 1635.1216,-58.8195 1630.3551,-68.2816 1637.2961,-69.1888"/>
<text text-anchor="middle" x="1661" y="-123.4264" font-family="Times,serif" font-size="20.00" fill="#000000">empty</text>
</g>
</g>
</svg>
