<?xml version="1.0" encoding="UTF-8" standalone="no"?>
<!DOCTYPE svg PUBLIC "-//W3C//DTD SVG 1.1//EN"
 "http://www.w3.org/Graphics/SVG/1.1/DTD/svg11.dtd">
<!-- Generated by graphviz version 2.40.1 (20161225.0304)
 -->
<!-- Title: G Pages: 1 -->
<svg width="4486pt" height="713pt"
 viewBox="0.00 0.00 4486.00 712.85" xmlns="http://www.w3.org/2000/svg" xmlns:xlink="http://www.w3.org/1999/xlink">
<g id="graph0" class="graph" transform="scale(1 1) rotate(0) translate(4 708.8528)">
<title>G</title>
<polygon fill="#ffffff" stroke="transparent" points="-4,4 -4,-708.8528 4482,-708.8528 4482,4 -4,4"/>
<g id="clust1" class="cluster">
<title>cluster_0</title>
<polygon fill="none" stroke="#000000" points="8,-8 8,-696.8528 548,-696.8528 548,-8 8,-8"/>
<text text-anchor="middle" x="278" y="-660.8528" font-family="Times,serif" font-size="40.00" fill="#000000">Tree 0, Class js&#45;undefined</text>
</g>
<g id="clust6" class="cluster">
<title>cluster_1</title>
<polygon fill="none" stroke="#000000" points="556,-8 556,-696.8528 4470,-696.8528 4470,-8 556,-8"/>
<text text-anchor="middle" x="2513" y="-660.8528" font-family="Times,serif" font-size="40.00" fill="#000000">Tree 0, Class {&#39;code&#39;: 18, &#39;name&#39;: &#39;SecurityError&#39;, &#39;message&#39;: &#39;Blocked a frame with origin http://localhost:8001 from accessing a cross&#45;origin frame. Protocols, domains, and ports must match.&#39;}</text>
</g>
<!-- SG_0_Node_0 -->
<g id="node1" class="node">
<title>SG_0_Node_0</title>
<polygon fill="none" stroke="#000000" points="285.5,-636.8528 64.5,-636.8528 64.5,-600.8528 285.5,-600.8528 285.5,-636.8528"/>
<text text-anchor="middle" x="175" y="-613.8528" font-family="Times,serif" font-size="20.00" fill="#000000">Content&#45;Disposition</text>
</g>
<!-- SG_0_Node_1 -->
<g id="node2" class="node">
<title>SG_0_Node_1</title>
<polygon fill="none" stroke="#000000" points="242,-482.8528 100,-482.8528 100,-446.8528 242,-446.8528 242,-482.8528"/>
<text text-anchor="middle" x="171" y="-459.8528" font-family="Times,serif" font-size="20.00" fill="#000000">Status&#45;Code</text>
</g>
<!-- SG_0_Node_0&#45;&gt;SG_0_Node_1 -->
<g id="edge1" class="edge">
<title>SG_0_Node_0&#45;&gt;SG_0_Node_1</title>
<path fill="none" stroke="#000000" d="M174.5254,-600.5822C173.8368,-574.0695 172.5541,-524.6859 171.7404,-493.3599"/>
<polygon fill="#000000" stroke="#000000" points="175.2325,-493.0053 171.4739,-483.0996 168.2349,-493.1871 175.2325,-493.0053"/>
<text text-anchor="middle" x="205" y="-536.8528" font-family="Times,serif" font-size="20.00" fill="#000000">empty</text>
</g>
<!-- SG_0_Node_2 -->
<g id="node3" class="node">
<title>SG_0_Node_2</title>
<polygon fill="none" stroke="#000000" points="402,-482.8528 260,-482.8528 260,-446.8528 402,-446.8528 402,-482.8528"/>
<text text-anchor="middle" x="331" y="-459.8528" font-family="Times,serif" font-size="20.00" fill="#000000">Status&#45;Code</text>
</g>
<!-- SG_0_Node_0&#45;&gt;SG_0_Node_2 -->
<g id="edge2" class="edge">
<title>SG_0_Node_0&#45;&gt;SG_0_Node_2</title>
<path fill="none" stroke="#000000" d="M198.2737,-600.7651C211.2275,-590.3793 227.4279,-576.8525 241,-563.8528 265.5829,-540.3067 291.5137,-511.2764 309.1934,-490.7568"/>
<polygon fill="#000000" stroke="#000000" points="311.9311,-492.9407 315.7754,-483.0679 306.6134,-488.3885 311.9311,-492.9407"/>
<text text-anchor="middle" x="342" y="-547.8528" font-family="Times,serif" font-size="20.00" fill="#000000">[NA]</text>
<text text-anchor="middle" x="342" y="-525.8528" font-family="Times,serif" font-size="20.00" fill="#000000">attachment</text>
</g>
<!-- SG_0_Node_4 -->
<g id="node4" class="node">
<title>SG_0_Node_4</title>
<ellipse fill="none" stroke="#000000" cx="76" cy="-219.6396" rx="34.7971" ry="21.4286"/>
<text text-anchor="middle" x="76" y="-214.6396" font-family="Times,serif" font-size="20.00" fill="#000000">0.0</text>
</g>
<!-- SG_0_Node_1&#45;&gt;SG_0_Node_4 -->
<g id="edge7" class="edge">
<title>SG_0_Node_1&#45;&gt;SG_0_Node_4</title>
<path fill="none" stroke="#000000" d="M123.6664,-446.7525C107.6042,-438.114 91.3673,-426.0475 82,-409.8528 53.2992,-360.2331 60.7447,-290.5043 68.5249,-250.7136"/>
<polygon fill="#000000" stroke="#000000" points="71.9771,-251.3032 70.593,-240.7992 65.1246,-249.8737 71.9771,-251.3032"/>
<text text-anchor="middle" x="128" y="-349.8528" font-family="Times,serif" font-size="20.00" fill="#000000">[NA]</text>
<text text-anchor="middle" x="128" y="-327.8528" font-family="Times,serif" font-size="20.00" fill="#000000">58 levels</text>
</g>
<!-- SG_0_Node_5 -->
<g id="node5" class="node">
<title>SG_0_Node_5</title>
<ellipse fill="none" stroke="#000000" cx="204" cy="-219.6396" rx="34.7971" ry="21.4286"/>
<text text-anchor="middle" x="204" y="-214.6396" font-family="Times,serif" font-size="20.00" fill="#000000">1.0</text>
</g>
<!-- SG_0_Node_1&#45;&gt;SG_0_Node_5 -->
<g id="edge8" class="edge">
<title>SG_0_Node_1&#45;&gt;SG_0_Node_5</title>
<path fill="none" stroke="#000000" d="M173.4266,-446.8217C179.0106,-405.3283 192.8259,-302.671 199.812,-250.7593"/>
<polygon fill="#000000" stroke="#000000" points="203.2886,-251.1668 201.1537,-240.7893 196.3512,-250.2331 203.2886,-251.1668"/>
<text text-anchor="middle" x="214.5" y="-371.8528" font-family="Times,serif" font-size="20.00" fill="#000000">100</text>
<text text-anchor="middle" x="214.5" y="-349.8528" font-family="Times,serif" font-size="20.00" fill="#000000">102</text>
<text text-anchor="middle" x="214.5" y="-327.8528" font-family="Times,serif" font-size="20.00" fill="#000000">103</text>
<text text-anchor="middle" x="214.5" y="-305.8528" font-family="Times,serif" font-size="20.00" fill="#000000">407</text>
</g>
<!-- SG_0_Node_3 -->
<g id="node6" class="node">
<title>SG_0_Node_3</title>
<polygon fill="none" stroke="#000000" points="367.5,-237.6396 262.5,-237.6396 262.5,-201.6396 367.5,-201.6396 367.5,-237.6396"/>
<text text-anchor="middle" x="315" y="-214.6396" font-family="Times,serif" font-size="20.00" fill="#000000">Location</text>
</g>
<!-- SG_0_Node_2&#45;&gt;SG_0_Node_3 -->
<g id="edge3" class="edge">
<title>SG_0_Node_2&#45;&gt;SG_0_Node_3</title>
<path fill="none" stroke="#000000" d="M329.8235,-446.8217C327.0669,-404.5742 320.1729,-298.9192 316.8492,-247.9798"/>
<polygon fill="#000000" stroke="#000000" points="320.322,-247.448 316.1782,-237.6972 313.3369,-247.9039 320.322,-247.448"/>
<text text-anchor="middle" x="346.5" y="-393.8528" font-family="Times,serif" font-size="20.00" fill="#000000">301</text>
<text text-anchor="middle" x="346.5" y="-371.8528" font-family="Times,serif" font-size="20.00" fill="#000000">302</text>
<text text-anchor="middle" x="346.5" y="-349.8528" font-family="Times,serif" font-size="20.00" fill="#000000">303</text>
<text text-anchor="middle" x="346.5" y="-327.8528" font-family="Times,serif" font-size="20.00" fill="#000000">305</text>
<text text-anchor="middle" x="346.5" y="-305.8528" font-family="Times,serif" font-size="20.00" fill="#000000">307</text>
<text text-anchor="middle" x="346.5" y="-283.8528" font-family="Times,serif" font-size="20.00" fill="#000000">308</text>
</g>
<!-- SG_0_Node_6 -->
<g id="node7" class="node">
<title>SG_0_Node_6</title>
<ellipse fill="none" stroke="#000000" cx="420" cy="-219.6396" rx="34.7971" ry="21.4286"/>
<text text-anchor="middle" x="420" y="-214.6396" font-family="Times,serif" font-size="20.00" fill="#000000">1.0</text>
</g>
<!-- SG_0_Node_2&#45;&gt;SG_0_Node_6 -->
<g id="edge4" class="edge">
<title>SG_0_Node_2&#45;&gt;SG_0_Node_6</title>
<path fill="none" stroke="#000000" d="M346.5148,-446.5538C354.5159,-436.3192 363.858,-423.0041 370,-409.8528 394.697,-356.9718 408.7047,-289.9075 415.2871,-251.1753"/>
<polygon fill="#000000" stroke="#000000" points="418.7851,-251.472 416.9495,-241.0374 411.8774,-250.3392 418.7851,-251.472"/>
<text text-anchor="middle" x="455" y="-349.8528" font-family="Times,serif" font-size="20.00" fill="#000000">[NA]</text>
<text text-anchor="middle" x="455" y="-327.8528" font-family="Times,serif" font-size="20.00" fill="#000000">56 levels</text>
</g>
<!-- SG_0_Node_7 -->
<g id="node8" class="node">
<title>SG_0_Node_7</title>
<ellipse fill="none" stroke="#000000" cx="108" cy="-37.2132" rx="34.7971" ry="21.4286"/>
<text text-anchor="middle" x="108" y="-32.2132" font-family="Times,serif" font-size="20.00" fill="#000000">0.0</text>
</g>
<!-- SG_0_Node_3&#45;&gt;SG_0_Node_7 -->
<g id="edge5" class="edge">
<title>SG_0_Node_3&#45;&gt;SG_0_Node_7</title>
<path fill="none" stroke="#000000" d="M262.4062,-202.7239C257.545,-201.2401 252.687,-199.7869 248,-198.4264 186.1926,-180.4857 147.2663,-212.4184 108,-161.4264 87.7001,-135.0645 91.8694,-95.36 98.3867,-67.9714"/>
<polygon fill="#000000" stroke="#000000" points="101.8162,-68.6906 100.9534,-58.131 95.0428,-66.9238 101.8162,-68.6906"/>
<text text-anchor="middle" x="245" y="-145.4264" font-family="Times,serif" font-size="20.00" fill="#000000">[NA]</text>
<text text-anchor="middle" x="245" y="-123.4264" font-family="Times,serif" font-size="20.00" fill="#000000">/</text>
<text text-anchor="middle" x="245" y="-101.4264" font-family="Times,serif" font-size="20.00" fill="#000000">http://localhost:8000/echo/</text>
</g>
<!-- SG_0_Node_8 -->
<g id="node9" class="node">
<title>SG_0_Node_8</title>
<ellipse fill="none" stroke="#000000" cx="418" cy="-37.2132" rx="34.7971" ry="21.4286"/>
<text text-anchor="middle" x="418" y="-32.2132" font-family="Times,serif" font-size="20.00" fill="#000000">1.0</text>
</g>
<!-- SG_0_Node_3&#45;&gt;SG_0_Node_8 -->
<g id="edge6" class="edge">
<title>SG_0_Node_3&#45;&gt;SG_0_Node_8</title>
<path fill="none" stroke="#000000" d="M345.1104,-201.4593C359.465,-191.3486 375.7088,-177.5499 386,-161.4264 404.0068,-133.2147 411.9,-95.3162 415.3482,-68.8284"/>
<polygon fill="#000000" stroke="#000000" points="418.8608,-68.9215 416.5352,-58.5851 411.9073,-68.1157 418.8608,-68.9215"/>
<text text-anchor="middle" x="442" y="-123.4264" font-family="Times,serif" font-size="20.00" fill="#000000">empty</text>
</g>
<!-- SG_1_Node_0 -->
<g id="node10" class="node">
<title>SG_1_Node_0</title>
<polygon fill="none" stroke="#000000" points="860.5,-636.8528 639.5,-636.8528 639.5,-600.8528 860.5,-600.8528 860.5,-636.8528"/>
<text text-anchor="middle" x="750" y="-613.8528" font-family="Times,serif" font-size="20.00" fill="#000000">Content&#45;Disposition</text>
</g>
<!-- SG_1_Node_1 -->
<g id="node11" class="node">
<title>SG_1_Node_1</title>
<polygon fill="none" stroke="#000000" points="811,-482.8528 669,-482.8528 669,-446.8528 811,-446.8528 811,-482.8528"/>
<text text-anchor="middle" x="740" y="-459.8528" font-family="Times,serif" font-size="20.00" fill="#000000">Status&#45;Code</text>
</g>
<!-- SG_1_Node_0&#45;&gt;SG_1_Node_1 -->
<g id="edge9" class="edge">
<title>SG_1_Node_0&#45;&gt;SG_1_Node_1</title>
<path fill="none" stroke="#000000" d="M748.8136,-600.5822C747.092,-574.0695 743.8853,-524.6859 741.8511,-493.3599"/>
<polygon fill="#000000" stroke="#000000" points="745.3256,-492.8518 741.1849,-483.0996 738.3403,-493.3054 745.3256,-492.8518"/>
<text text-anchor="middle" x="805" y="-547.8528" font-family="Times,serif" font-size="20.00" fill="#000000">[NA]</text>
<text text-anchor="middle" x="805" y="-525.8528" font-family="Times,serif" font-size="20.00" fill="#000000">attachment</text>
</g>
<!-- SG_1_Node_2 -->
<g id="node12" class="node">
<title>SG_1_Node_2</title>
<polygon fill="none" stroke="#000000" points="971,-482.8528 829,-482.8528 829,-446.8528 971,-446.8528 971,-482.8528"/>
<text text-anchor="middle" x="900" y="-459.8528" font-family="Times,serif" font-size="20.00" fill="#000000">Status&#45;Code</text>
</g>
<!-- SG_1_Node_0&#45;&gt;SG_1_Node_2 -->
<g id="edge10" class="edge">
<title>SG_1_Node_0&#45;&gt;SG_1_Node_2</title>
<path fill="none" stroke="#000000" d="M812.6028,-600.831C832.6045,-592.4027 853.3342,-580.4522 868,-563.8528 885.4725,-544.0767 893.4242,-514.6305 897.0314,-492.9918"/>
<polygon fill="#000000" stroke="#000000" points="900.4982,-493.4729 898.4759,-483.0729 893.5712,-492.4641 900.4982,-493.4729"/>
<text text-anchor="middle" x="922" y="-536.8528" font-family="Times,serif" font-size="20.00" fill="#000000">empty</text>
</g>
<!-- SG_1_Node_4 -->
<g id="node13" class="node">
<title>SG_1_Node_4</title>
<ellipse fill="none" stroke="#000000" cx="624" cy="-219.6396" rx="34.7971" ry="21.4286"/>
<text text-anchor="middle" x="624" y="-214.6396" font-family="Times,serif" font-size="20.00" fill="#000000">0.0</text>
</g>
<!-- SG_1_Node_1&#45;&gt;SG_1_Node_4 -->
<g id="edge13" class="edge">
<title>SG_1_Node_1&#45;&gt;SG_1_Node_4</title>
<path fill="none" stroke="#000000" d="M690.3205,-446.6222C673.6052,-438.0148 656.5412,-426.0029 646,-409.8528 614.3922,-361.4269 615.582,-290.9846 619.5911,-250.8067"/>
<polygon fill="#000000" stroke="#000000" points="623.0772,-251.1254 620.712,-240.7979 616.1207,-250.3462 623.0772,-251.1254"/>
<text text-anchor="middle" x="692" y="-349.8528" font-family="Times,serif" font-size="20.00" fill="#000000">[NA]</text>
<text text-anchor="middle" x="692" y="-327.8528" font-family="Times,serif" font-size="20.00" fill="#000000">56 levels</text>
</g>
<!-- SG_1_Node_3 -->
<g id="node14" class="node">
<title>SG_1_Node_3</title>
<polygon fill="none" stroke="#000000" points="804.5,-237.6396 699.5,-237.6396 699.5,-201.6396 804.5,-201.6396 804.5,-237.6396"/>
<text text-anchor="middle" x="752" y="-214.6396" font-family="Times,serif" font-size="20.00" fill="#000000">Location</text>
</g>
<!-- SG_1_Node_1&#45;&gt;SG_1_Node_3 -->
<g id="edge14" class="edge">
<title>SG_1_Node_1&#45;&gt;SG_1_Node_3</title>
<path fill="none" stroke="#000000" d="M740.8824,-446.8217C742.9499,-404.5742 748.1203,-298.9192 750.6131,-247.9798"/>
<polygon fill="#000000" stroke="#000000" points="754.1233,-247.8563 751.1163,-237.6972 747.1316,-247.5141 754.1233,-247.8563"/>
<text text-anchor="middle" x="768.5" y="-393.8528" font-family="Times,serif" font-size="20.00" fill="#000000">301</text>
<text text-anchor="middle" x="768.5" y="-371.8528" font-family="Times,serif" font-size="20.00" fill="#000000">302</text>
<text text-anchor="middle" x="768.5" y="-349.8528" font-family="Times,serif" font-size="20.00" fill="#000000">303</text>
<text text-anchor="middle" x="768.5" y="-327.8528" font-family="Times,serif" font-size="20.00" fill="#000000">305</text>
<text text-anchor="middle" x="768.5" y="-305.8528" font-family="Times,serif" font-size="20.00" fill="#000000">307</text>
<text text-anchor="middle" x="768.5" y="-283.8528" font-family="Times,serif" font-size="20.00" fill="#000000">308</text>
</g>
<!-- SG_1_Node_5 -->
<g id="node15" class="node">
<title>SG_1_Node_5</title>
<ellipse fill="none" stroke="#000000" cx="870" cy="-219.6396" rx="34.7971" ry="21.4286"/>
<text text-anchor="middle" x="870" y="-214.6396" font-family="Times,serif" font-size="20.00" fill="#000000">0.0</text>
</g>
<!-- SG_1_Node_2&#45;&gt;SG_1_Node_5 -->
<g id="edge11" class="edge">
<title>SG_1_Node_2&#45;&gt;SG_1_Node_5</title>
<path fill="none" stroke="#000000" d="M897.638,-446.5231C896.2673,-435.8298 894.5173,-422.0798 893,-409.8528 886.0839,-354.1199 878.2864,-289.1663 873.7782,-251.3952"/>
<polygon fill="#000000" stroke="#000000" points="877.2029,-250.5546 872.5433,-241.0394 870.2521,-251.3835 877.2029,-250.5546"/>
<text text-anchor="middle" x="912.5" y="-371.8528" font-family="Times,serif" font-size="20.00" fill="#000000">100</text>
<text text-anchor="middle" x="912.5" y="-349.8528" font-family="Times,serif" font-size="20.00" fill="#000000">102</text>
<text text-anchor="middle" x="912.5" y="-327.8528" font-family="Times,serif" font-size="20.00" fill="#000000">103</text>
<text text-anchor="middle" x="912.5" y="-305.8528" font-family="Times,serif" font-size="20.00" fill="#000000">407</text>
</g>
<!-- SG_1_Node_6 -->
<g id="node16" class="node">
<title>SG_1_Node_6</title>
<ellipse fill="none" stroke="#000000" cx="957" cy="-219.6396" rx="34.7971" ry="21.4286"/>
<text text-anchor="middle" x="957" y="-214.6396" font-family="Times,serif" font-size="20.00" fill="#000000">1.0</text>
</g>
<!-- SG_1_Node_2&#45;&gt;SG_1_Node_6 -->
<g id="edge12" class="edge">
<title>SG_1_Node_2&#45;&gt;SG_1_Node_6</title>
<path fill="none" stroke="#000000" d="M913.2215,-446.4049C919.9304,-436.1266 927.5765,-422.8174 932,-409.8528 950.3352,-356.1152 955.3371,-289.5991 956.6328,-251.1524"/>
<polygon fill="#000000" stroke="#000000" points="960.1333,-251.1786 956.908,-241.0867 953.1359,-250.9873 960.1333,-251.1786"/>
<text text-anchor="middle" x="1001" y="-349.8528" font-family="Times,serif" font-size="20.00" fill="#000000">[NA]</text>
<text text-anchor="middle" x="1001" y="-327.8528" font-family="Times,serif" font-size="20.00" fill="#000000">58 levels</text>
</g>
<!-- SG_1_Node_7 -->
<g id="node17" class="node">
<title>SG_1_Node_7</title>
<ellipse fill="none" stroke="#000000" cx="702" cy="-37.2132" rx="34.7971" ry="21.4286"/>
<text text-anchor="middle" x="702" y="-32.2132" font-family="Times,serif" font-size="20.00" fill="#000000">0.0</text>
</g>
<!-- SG_1_Node_3&#45;&gt;SG_1_Node_7 -->
<g id="edge15" class="edge">
<title>SG_1_Node_3&#45;&gt;SG_1_Node_7</title>
<path fill="none" stroke="#000000" d="M737.9109,-201.57C730.1134,-190.5814 721.0113,-175.913 716,-161.4264 705.5088,-131.0989 702.4665,-94.3625 701.7682,-68.7404"/>
<polygon fill="#000000" stroke="#000000" points="705.2636,-68.4313 701.5975,-58.491 698.2646,-68.5479 705.2636,-68.4313"/>
<text text-anchor="middle" x="748" y="-123.4264" font-family="Times,serif" font-size="20.00" fill="#000000">empty</text>
</g>
<!-- SG_1_Node_8 -->
<g id="node18" class="node">
<title>SG_1_Node_8</title>
<ellipse fill="none" stroke="#000000" cx="802" cy="-37.2132" rx="34.7971" ry="21.4286"/>
<text text-anchor="middle" x="802" y="-32.2132" font-family="Times,serif" font-size="20.00" fill="#000000">1.0</text>
</g>
<!-- SG_1_Node_3&#45;&gt;SG_1_Node_8 -->
<g id="edge16" class="edge">
<title>SG_1_Node_3&#45;&gt;SG_1_Node_8</title>
<path fill="none" stroke="#000000" d="M762.2842,-201.5575C768.2666,-190.3251 775.493,-175.4093 780,-161.4264 789.8764,-130.7852 795.6644,-94.377 798.8027,-68.9281"/>
<polygon fill="#000000" stroke="#000000" points="802.3087,-69.0791 799.9897,-58.7412 795.3558,-68.2689 802.3087,-69.0791"/>
<text text-anchor="middle" x="932" y="-145.4264" font-family="Times,serif" font-size="20.00" fill="#000000">[NA]</text>
<text text-anchor="middle" x="932" y="-123.4264" font-family="Times,serif" font-size="20.00" fill="#000000">/</text>
<text text-anchor="middle" x="932" y="-101.4264" font-family="Times,serif" font-size="20.00" fill="#000000">http://localhost:8000/echo/</text>
</g>
</g>
</svg>
