<?xml version="1.0" encoding="UTF-8" standalone="no"?>
<!DOCTYPE svg PUBLIC "-//W3C//DTD SVG 1.1//EN"
 "http://www.w3.org/Graphics/SVG/1.1/DTD/svg11.dtd">
<!-- Generated by graphviz version 2.40.1 (20161225.0304)
 -->
<!-- Title: G Pages: 1 -->
<svg width="1998pt" height="1634pt"
 viewBox="0.00 0.00 1998.00 1634.13" xmlns="http://www.w3.org/2000/svg" xmlns:xlink="http://www.w3.org/1999/xlink">
<g id="graph0" class="graph" transform="scale(1 1) rotate(0) translate(4 1630.132)">
<title>G</title>
<polygon fill="#ffffff" stroke="transparent" points="-4,4 -4,-1630.132 1994,-1630.132 1994,4 -4,4"/>
<g id="clust1" class="cluster">
<title>cluster_0</title>
<polygon fill="none" stroke="#000000" points="8,-8 8,-1618.132 1265,-1618.132 1265,-8 8,-8"/>
<text text-anchor="middle" x="636.5" y="-1582.132" font-family="Times,serif" font-size="40.00" fill="#000000">Tree 0, Class Origin: https://127.0.0.1:44300, Message: mes1</text>
</g>
<g id="clust10" class="cluster">
<title>cluster_1</title>
<polygon fill="none" stroke="#000000" points="1273,-8 1273,-1618.132 1879,-1618.132 1879,-8 1273,-8"/>
<text text-anchor="middle" x="1576" y="-1582.132" font-family="Times,serif" font-size="40.00" fill="#000000">Tree 0, Class uncalled</text>
</g>
<!-- SG_0_Node_0 -->
<g id="node1" class="node">
<title>SG_0_Node_0</title>
<polygon fill="none" stroke="#000000" points="213.5,-1558.132 148.5,-1558.132 148.5,-1522.132 213.5,-1522.132 213.5,-1558.132"/>
<text text-anchor="middle" x="181" y="-1535.132" font-family="Times,serif" font-size="20.00" fill="#000000">body</text>
</g>
<!-- SG_0_Node_10 -->
<g id="node2" class="node">
<title>SG_0_Node_10</title>
<ellipse fill="none" stroke="#000000" cx="117" cy="-1382.9188" rx="34.7971" ry="21.4286"/>
<text text-anchor="middle" x="117" y="-1377.9188" font-family="Times,serif" font-size="20.00" fill="#000000">0.0</text>
</g>
<!-- SG_0_Node_0&#45;&gt;SG_0_Node_10 -->
<g id="edge1" class="edge">
<title>SG_0_Node_0&#45;&gt;SG_0_Node_10</title>
<path fill="none" stroke="#000000" d="M159.7021,-1521.8309C149.6635,-1511.9918 138.4912,-1499.0377 132,-1485.132 121.6634,-1462.9888 118.0807,-1435.4626 116.9906,-1414.5557"/>
<polygon fill="#000000" stroke="#000000" points="120.4788,-1414.1588 116.6252,-1404.2897 113.4832,-1414.4079 120.4788,-1414.1588"/>
<text text-anchor="middle" x="178" y="-1469.132" font-family="Times,serif" font-size="20.00" fill="#000000">[NA]</text>
<text text-anchor="middle" x="178" y="-1447.132" font-family="Times,serif" font-size="20.00" fill="#000000">12 levels</text>
</g>
<!-- SG_0_Node_1 -->
<g id="node3" class="node">
<title>SG_0_Node_1</title>
<polygon fill="none" stroke="#000000" points="324.5,-1400.9188 169.5,-1400.9188 169.5,-1364.9188 324.5,-1364.9188 324.5,-1400.9188"/>
<text text-anchor="middle" x="247" y="-1377.9188" font-family="Times,serif" font-size="20.00" fill="#000000">Content&#45;Type</text>
</g>
<!-- SG_0_Node_0&#45;&gt;SG_0_Node_1 -->
<g id="edge2" class="edge">
<title>SG_0_Node_0&#45;&gt;SG_0_Node_1</title>
<path fill="none" stroke="#000000" d="M198.8067,-1521.6838C207.6064,-1511.6127 217.6689,-1498.4952 224,-1485.132 235.1923,-1461.5081 241.0668,-1432.1945 244.0668,-1411.0252"/>
<polygon fill="#000000" stroke="#000000" points="247.5441,-1411.4255 245.3531,-1401.0597 240.6017,-1410.5294 247.5441,-1411.4255"/>
<text text-anchor="middle" x="417" y="-1458.132" font-family="Times,serif" font-size="20.00" fill="#000000">ecocnt_html=post_message=mes1</text>
</g>
<!-- SG_0_Node_11 -->
<g id="node4" class="node">
<title>SG_0_Node_11</title>
<ellipse fill="none" stroke="#000000" cx="149" cy="-1112.4924" rx="34.7971" ry="21.4286"/>
<text text-anchor="middle" x="149" y="-1107.4924" font-family="Times,serif" font-size="20.00" fill="#000000">0.0</text>
</g>
<!-- SG_0_Node_1&#45;&gt;SG_0_Node_11 -->
<g id="edge3" class="edge">
<title>SG_0_Node_1&#45;&gt;SG_0_Node_11</title>
<path fill="none" stroke="#000000" d="M206.4621,-1364.7965C190.0956,-1355.3008 172.7934,-1341.997 163,-1324.7056 130.6405,-1267.5709 136.4837,-1187.4078 143.0685,-1143.7825"/>
<polygon fill="#000000" stroke="#000000" points="146.5462,-1144.2013 144.6914,-1133.7701 139.6364,-1143.0812 146.5462,-1144.2013"/>
<text text-anchor="middle" x="274" y="-1308.7056" font-family="Times,serif" font-size="20.00" fill="#000000">[NA]</text>
<text text-anchor="middle" x="274" y="-1286.7056" font-family="Times,serif" font-size="20.00" fill="#000000">application/javascript</text>
<text text-anchor="middle" x="274" y="-1264.7056" font-family="Times,serif" font-size="20.00" fill="#000000">application/pdf</text>
<text text-anchor="middle" x="274" y="-1242.7056" font-family="Times,serif" font-size="20.00" fill="#000000">audio/wav</text>
<text text-anchor="middle" x="274" y="-1220.7056" font-family="Times,serif" font-size="20.00" fill="#000000">image/png</text>
<text text-anchor="middle" x="274" y="-1198.7056" font-family="Times,serif" font-size="20.00" fill="#000000">text/css</text>
<text text-anchor="middle" x="274" y="-1176.7056" font-family="Times,serif" font-size="20.00" fill="#000000">video/mp4</text>
</g>
<!-- SG_0_Node_2 -->
<g id="node5" class="node">
<title>SG_0_Node_2</title>
<polygon fill="none" stroke="#000000" points="517.5,-1130.4924 296.5,-1130.4924 296.5,-1094.4924 517.5,-1094.4924 517.5,-1130.4924"/>
<text text-anchor="middle" x="407" y="-1107.4924" font-family="Times,serif" font-size="20.00" fill="#000000">Content&#45;Disposition</text>
</g>
<!-- SG_0_Node_1&#45;&gt;SG_0_Node_2 -->
<g id="edge4" class="edge">
<title>SG_0_Node_1&#45;&gt;SG_0_Node_2</title>
<path fill="none" stroke="#000000" d="M324.6477,-1366.3605C347.5038,-1357.6915 370.2982,-1344.557 385,-1324.7056 425.5269,-1269.9836 419.1922,-1184.4156 412.4012,-1140.5255"/>
<polygon fill="#000000" stroke="#000000" points="415.8365,-1139.8471 410.7381,-1130.5596 408.932,-1140.9994 415.8365,-1139.8471"/>
<text text-anchor="middle" x="464" y="-1253.7056" font-family="Times,serif" font-size="20.00" fill="#000000">empty</text>
<text text-anchor="middle" x="464" y="-1231.7056" font-family="Times,serif" font-size="20.00" fill="#000000">text/html</text>
</g>
<!-- SG_0_Node_12 -->
<g id="node6" class="node">
<title>SG_0_Node_12</title>
<ellipse fill="none" stroke="#000000" cx="316" cy="-952.066" rx="34.7971" ry="21.4286"/>
<text text-anchor="middle" x="316" y="-947.066" font-family="Times,serif" font-size="20.00" fill="#000000">0.0</text>
</g>
<!-- SG_0_Node_2&#45;&gt;SG_0_Node_12 -->
<g id="edge5" class="edge">
<title>SG_0_Node_2&#45;&gt;SG_0_Node_12</title>
<path fill="none" stroke="#000000" d="M360.6746,-1094.4344C343.4415,-1085.1833 325.7258,-1072.0464 316,-1054.2792 304.1375,-1032.6087 305.1772,-1004.2791 308.5944,-982.9421"/>
<polygon fill="#000000" stroke="#000000" points="312.0396,-983.5589 310.4167,-973.0891 305.1563,-982.2858 312.0396,-983.5589"/>
<text text-anchor="middle" x="375" y="-1038.2792" font-family="Times,serif" font-size="20.00" fill="#000000">[NA]</text>
<text text-anchor="middle" x="375" y="-1016.2792" font-family="Times,serif" font-size="20.00" fill="#000000">attachment</text>
</g>
<!-- SG_0_Node_3 -->
<g id="node7" class="node">
<title>SG_0_Node_3</title>
<polygon fill="none" stroke="#000000" points="541,-970.066 399,-970.066 399,-934.066 541,-934.066 541,-970.066"/>
<text text-anchor="middle" x="470" y="-947.066" font-family="Times,serif" font-size="20.00" fill="#000000">Status&#45;Code</text>
</g>
<!-- SG_0_Node_2&#45;&gt;SG_0_Node_3 -->
<g id="edge6" class="edge">
<title>SG_0_Node_2&#45;&gt;SG_0_Node_3</title>
<path fill="none" stroke="#000000" d="M417.8132,-1094.3057C424.2273,-1083.0352 432.2091,-1068.116 438,-1054.2792 448.2559,-1029.7739 457.0308,-1000.7871 462.7836,-979.9524"/>
<polygon fill="#000000" stroke="#000000" points="466.2022,-980.7183 465.4332,-970.1514 459.4447,-978.8914 466.2022,-980.7183"/>
<text text-anchor="middle" x="485" y="-1027.2792" font-family="Times,serif" font-size="20.00" fill="#000000">empty</text>
</g>
<!-- SG_0_Node_4 -->
<g id="node8" class="node">
<title>SG_0_Node_4</title>
<polygon fill="none" stroke="#000000" points="431,-812.8528 289,-812.8528 289,-776.8528 431,-776.8528 431,-812.8528"/>
<text text-anchor="middle" x="360" y="-789.8528" font-family="Times,serif" font-size="20.00" fill="#000000">Status&#45;Code</text>
</g>
<!-- SG_0_Node_3&#45;&gt;SG_0_Node_4 -->
<g id="edge7" class="edge">
<title>SG_0_Node_3&#45;&gt;SG_0_Node_4</title>
<path fill="none" stroke="#000000" d="M450.6461,-933.9848C439.4796,-922.9923 425.5967,-908.3237 415,-893.8528 398.3532,-871.1199 383.1089,-842.8156 372.9134,-822.3009"/>
<polygon fill="#000000" stroke="#000000" points="375.9983,-820.6419 368.4637,-813.1934 369.7088,-823.7148 375.9983,-820.6419"/>
<text text-anchor="middle" x="461" y="-866.8528" font-family="Times,serif" font-size="20.00" fill="#000000">16 levels</text>
</g>
<!-- SG_0_Node_5 -->
<g id="node9" class="node">
<title>SG_0_Node_5</title>
<polygon fill="none" stroke="#000000" points="709,-812.8528 449,-812.8528 449,-776.8528 709,-776.8528 709,-812.8528"/>
<text text-anchor="middle" x="579" y="-789.8528" font-family="Times,serif" font-size="20.00" fill="#000000">Content&#45;Security&#45;Policy</text>
</g>
<!-- SG_0_Node_3&#45;&gt;SG_0_Node_5 -->
<g id="edge8" class="edge">
<title>SG_0_Node_3&#45;&gt;SG_0_Node_5</title>
<path fill="none" stroke="#000000" d="M482.5037,-934.0317C501.6203,-906.4594 538.2283,-853.6587 560.4475,-821.6115"/>
<polygon fill="#000000" stroke="#000000" points="563.4849,-823.3733 566.3064,-813.1611 557.7323,-819.3849 563.4849,-823.3733"/>
<text text-anchor="middle" x="586" y="-877.8528" font-family="Times,serif" font-size="20.00" fill="#000000">[NA]</text>
<text text-anchor="middle" x="586" y="-855.8528" font-family="Times,serif" font-size="20.00" fill="#000000">46 levels</text>
</g>
<!-- SG_0_Node_13 -->
<g id="node10" class="node">
<title>SG_0_Node_13</title>
<ellipse fill="none" stroke="#000000" cx="322" cy="-483.6396" rx="34.7971" ry="21.4286"/>
<text text-anchor="middle" x="322" y="-478.6396" font-family="Times,serif" font-size="20.00" fill="#000000">0.0</text>
</g>
<!-- SG_0_Node_4&#45;&gt;SG_0_Node_13 -->
<g id="edge11" class="edge">
<title>SG_0_Node_4&#45;&gt;SG_0_Node_13</title>
<path fill="none" stroke="#000000" d="M356.7727,-776.5538C354.947,-765.8708 352.697,-752.1208 351,-739.8528 339.8231,-659.0511 329.8647,-563.4675 325.0529,-515.0833"/>
<polygon fill="#000000" stroke="#000000" points="328.5173,-514.5497 324.0511,-504.9422 321.5512,-515.2378 328.5173,-514.5497"/>
<text text-anchor="middle" x="370.5" y="-701.8528" font-family="Times,serif" font-size="20.00" fill="#000000">100</text>
<text text-anchor="middle" x="370.5" y="-679.8528" font-family="Times,serif" font-size="20.00" fill="#000000">101</text>
<text text-anchor="middle" x="370.5" y="-657.8528" font-family="Times,serif" font-size="20.00" fill="#000000">102</text>
<text text-anchor="middle" x="370.5" y="-635.8528" font-family="Times,serif" font-size="20.00" fill="#000000">103</text>
<text text-anchor="middle" x="370.5" y="-613.8528" font-family="Times,serif" font-size="20.00" fill="#000000">204</text>
<text text-anchor="middle" x="370.5" y="-591.8528" font-family="Times,serif" font-size="20.00" fill="#000000">304</text>
<text text-anchor="middle" x="370.5" y="-569.8528" font-family="Times,serif" font-size="20.00" fill="#000000">407</text>
</g>
<!-- SG_0_Node_6 -->
<g id="node11" class="node">
<title>SG_0_Node_6</title>
<polygon fill="none" stroke="#000000" points="479.5,-501.6396 374.5,-501.6396 374.5,-465.6396 479.5,-465.6396 479.5,-501.6396"/>
<text text-anchor="middle" x="427" y="-478.6396" font-family="Times,serif" font-size="20.00" fill="#000000">Location</text>
</g>
<!-- SG_0_Node_4&#45;&gt;SG_0_Node_6 -->
<g id="edge12" class="edge">
<title>SG_0_Node_4&#45;&gt;SG_0_Node_6</title>
<path fill="none" stroke="#000000" d="M372.0025,-776.7677C378.3359,-766.3826 385.671,-752.8558 390,-739.8528 416.5388,-660.1389 424.0484,-560.2222 426.1688,-512.1142"/>
<polygon fill="#000000" stroke="#000000" points="429.6768,-511.9791 426.5727,-501.8492 422.6822,-511.7039 429.6768,-511.9791"/>
<text text-anchor="middle" x="443.5" y="-723.8528" font-family="Times,serif" font-size="20.00" fill="#000000">301</text>
<text text-anchor="middle" x="443.5" y="-701.8528" font-family="Times,serif" font-size="20.00" fill="#000000">302</text>
<text text-anchor="middle" x="443.5" y="-679.8528" font-family="Times,serif" font-size="20.00" fill="#000000">303</text>
<text text-anchor="middle" x="443.5" y="-657.8528" font-family="Times,serif" font-size="20.00" fill="#000000">305</text>
<text text-anchor="middle" x="443.5" y="-635.8528" font-family="Times,serif" font-size="20.00" fill="#000000">307</text>
<text text-anchor="middle" x="443.5" y="-613.8528" font-family="Times,serif" font-size="20.00" fill="#000000">308</text>
<text text-anchor="middle" x="443.5" y="-591.8528" font-family="Times,serif" font-size="20.00" fill="#000000">406</text>
<text text-anchor="middle" x="443.5" y="-569.8528" font-family="Times,serif" font-size="20.00" fill="#000000">413</text>
<text text-anchor="middle" x="443.5" y="-547.8528" font-family="Times,serif" font-size="20.00" fill="#000000">423</text>
</g>
<!-- SG_0_Node_14 -->
<g id="node12" class="node">
<title>SG_0_Node_14</title>
<ellipse fill="none" stroke="#000000" cx="555" cy="-483.6396" rx="34.7971" ry="21.4286"/>
<text text-anchor="middle" x="555" y="-478.6396" font-family="Times,serif" font-size="20.00" fill="#000000">0.0</text>
</g>
<!-- SG_0_Node_5&#45;&gt;SG_0_Node_14 -->
<g id="edge9" class="edge">
<title>SG_0_Node_5&#45;&gt;SG_0_Node_14</title>
<path fill="none" stroke="#000000" d="M575.0896,-776.6058C572.9529,-765.9402 570.4529,-752.1902 569,-739.8528 559.5065,-659.2354 556.4347,-563.5738 555.4527,-515.1293"/>
<polygon fill="#000000" stroke="#000000" points="558.9492,-514.908 555.2638,-504.9748 551.9505,-515.0382 558.9492,-514.908"/>
<text text-anchor="middle" x="651.5" y="-635.8528" font-family="Times,serif" font-size="20.00" fill="#000000">default&#45;src &#39;self&#39;</text>
</g>
<!-- SG_0_Node_15 -->
<g id="node13" class="node">
<title>SG_0_Node_15</title>
<ellipse fill="none" stroke="#000000" cx="756" cy="-483.6396" rx="34.7971" ry="21.4286"/>
<text text-anchor="middle" x="756" y="-478.6396" font-family="Times,serif" font-size="20.00" fill="#000000">1.0</text>
</g>
<!-- SG_0_Node_5&#45;&gt;SG_0_Node_15 -->
<g id="edge10" class="edge">
<title>SG_0_Node_5&#45;&gt;SG_0_Node_15</title>
<path fill="none" stroke="#000000" d="M653.1931,-776.7505C687.6506,-766.7741 723.3521,-753.6368 734,-739.8528 785.0674,-673.7449 773.2375,-567.4016 763.1724,-514.9541"/>
<polygon fill="#000000" stroke="#000000" points="766.554,-514.0186 761.1384,-504.9125 759.6934,-515.4083 766.554,-514.0186"/>
<text text-anchor="middle" x="881.5" y="-657.8528" font-family="Times,serif" font-size="20.00" fill="#000000">[NA]</text>
<text text-anchor="middle" x="881.5" y="-635.8528" font-family="Times,serif" font-size="20.00" fill="#000000">empty</text>
<text text-anchor="middle" x="881.5" y="-613.8528" font-family="Times,serif" font-size="20.00" fill="#000000">frame&#45;ancestors &#39;self&#39;</text>
</g>
<!-- SG_0_Node_7 -->
<g id="node14" class="node">
<title>SG_0_Node_7</title>
<polygon fill="none" stroke="#000000" points="252,-322.4264 110,-322.4264 110,-286.4264 252,-286.4264 252,-322.4264"/>
<text text-anchor="middle" x="181" y="-299.4264" font-family="Times,serif" font-size="20.00" fill="#000000">Status&#45;Code</text>
</g>
<!-- SG_0_Node_6&#45;&gt;SG_0_Node_7 -->
<g id="edge13" class="edge">
<title>SG_0_Node_6&#45;&gt;SG_0_Node_7</title>
<path fill="none" stroke="#000000" d="M376.9062,-465.6075C373.2331,-464.4737 369.5699,-463.3992 366,-462.4264 285.0993,-440.3814 234.1603,-490.2716 181,-425.4264 159.9542,-399.7546 164.8906,-359.6711 171.7519,-332.7498"/>
<polygon fill="#000000" stroke="#000000" points="175.2147,-333.3619 174.5298,-322.7892 168.472,-331.4814 175.2147,-333.3619"/>
<text text-anchor="middle" x="318" y="-409.4264" font-family="Times,serif" font-size="20.00" fill="#000000">[NA]</text>
<text text-anchor="middle" x="318" y="-387.4264" font-family="Times,serif" font-size="20.00" fill="#000000">/</text>
<text text-anchor="middle" x="318" y="-365.4264" font-family="Times,serif" font-size="20.00" fill="#000000">http://localhost:8000/echo/</text>
</g>
<!-- SG_0_Node_8 -->
<g id="node15" class="node">
<title>SG_0_Node_8</title>
<polygon fill="none" stroke="#000000" points="621,-322.4264 361,-322.4264 361,-286.4264 621,-286.4264 621,-322.4264"/>
<text text-anchor="middle" x="491" y="-299.4264" font-family="Times,serif" font-size="20.00" fill="#000000">Content&#45;Security&#45;Policy</text>
</g>
<!-- SG_0_Node_6&#45;&gt;SG_0_Node_8 -->
<g id="edge14" class="edge">
<title>SG_0_Node_6&#45;&gt;SG_0_Node_8</title>
<path fill="none" stroke="#000000" d="M438.4236,-465.589C445.1402,-454.3681 453.388,-439.4534 459,-425.4264 471.3595,-394.5343 480.3823,-357.3071 485.6381,-332.3759"/>
<polygon fill="#000000" stroke="#000000" points="489.0835,-332.9968 487.6588,-322.4982 482.2256,-331.5938 489.0835,-332.9968"/>
<text text-anchor="middle" x="511" y="-387.4264" font-family="Times,serif" font-size="20.00" fill="#000000">empty</text>
</g>
<!-- SG_0_Node_16 -->
<g id="node16" class="node">
<title>SG_0_Node_16</title>
<ellipse fill="none" stroke="#000000" cx="134" cy="-37.2132" rx="34.7971" ry="21.4286"/>
<text text-anchor="middle" x="134" y="-32.2132" font-family="Times,serif" font-size="20.00" fill="#000000">0.0</text>
</g>
<!-- SG_0_Node_7&#45;&gt;SG_0_Node_16 -->
<g id="edge17" class="edge">
<title>SG_0_Node_7&#45;&gt;SG_0_Node_16</title>
<path fill="none" stroke="#000000" d="M174.1618,-286.3261C170.3823,-275.7094 165.8823,-261.9594 163,-249.4264 148.4329,-186.0861 140.2389,-110.3135 136.5059,-68.6114"/>
<polygon fill="#000000" stroke="#000000" points="139.9823,-68.1864 135.6312,-58.5263 133.0085,-68.7913 139.9823,-68.1864"/>
<text text-anchor="middle" x="182.5" y="-233.4264" font-family="Times,serif" font-size="20.00" fill="#000000">301</text>
<text text-anchor="middle" x="182.5" y="-211.4264" font-family="Times,serif" font-size="20.00" fill="#000000">302</text>
<text text-anchor="middle" x="182.5" y="-189.4264" font-family="Times,serif" font-size="20.00" fill="#000000">303</text>
<text text-anchor="middle" x="182.5" y="-167.4264" font-family="Times,serif" font-size="20.00" fill="#000000">305</text>
<text text-anchor="middle" x="182.5" y="-145.4264" font-family="Times,serif" font-size="20.00" fill="#000000">307</text>
<text text-anchor="middle" x="182.5" y="-123.4264" font-family="Times,serif" font-size="20.00" fill="#000000">308</text>
<text text-anchor="middle" x="182.5" y="-101.4264" font-family="Times,serif" font-size="20.00" fill="#000000">413</text>
</g>
<!-- SG_0_Node_17 -->
<g id="node17" class="node">
<title>SG_0_Node_17</title>
<ellipse fill="none" stroke="#000000" cx="230" cy="-37.2132" rx="43.6818" ry="21.4286"/>
<text text-anchor="middle" x="230" y="-32.2132" font-family="Times,serif" font-size="20.00" fill="#000000">0.25</text>
</g>
<!-- SG_0_Node_7&#45;&gt;SG_0_Node_17 -->
<g id="edge18" class="edge">
<title>SG_0_Node_7&#45;&gt;SG_0_Node_17</title>
<path fill="none" stroke="#000000" d="M189.1962,-286.1899C193.621,-275.6443 198.8142,-262.01 202,-249.4264 217.9413,-186.4595 225.1669,-110.5505 228.1471,-68.7242"/>
<polygon fill="#000000" stroke="#000000" points="231.6485,-68.8208 228.8318,-58.6072 224.6645,-68.348 231.6485,-68.8208"/>
<text text-anchor="middle" x="244.5" y="-178.4264" font-family="Times,serif" font-size="20.00" fill="#000000">406</text>
<text text-anchor="middle" x="244.5" y="-156.4264" font-family="Times,serif" font-size="20.00" fill="#000000">423</text>
</g>
<!-- SG_0_Node_18 -->
<g id="node18" class="node">
<title>SG_0_Node_18</title>
<ellipse fill="none" stroke="#000000" cx="329" cy="-37.2132" rx="34.7971" ry="21.4286"/>
<text text-anchor="middle" x="329" y="-32.2132" font-family="Times,serif" font-size="20.00" fill="#000000">0.0</text>
</g>
<!-- SG_0_Node_8&#45;&gt;SG_0_Node_18 -->
<g id="edge15" class="edge">
<title>SG_0_Node_8&#45;&gt;SG_0_Node_18</title>
<path fill="none" stroke="#000000" d="M411.2781,-286.4146C376.0656,-276.6939 340.2998,-263.7577 330,-249.4264 291.2013,-195.4413 306.6011,-112.1266 319.071,-67.6501"/>
<polygon fill="#000000" stroke="#000000" points="322.4465,-68.5769 321.9046,-57.9959 315.7299,-66.6054 322.4465,-68.5769"/>
<text text-anchor="middle" x="412.5" y="-167.4264" font-family="Times,serif" font-size="20.00" fill="#000000">default&#45;src &#39;self&#39;</text>
</g>
<!-- SG_0_Node_19 -->
<g id="node19" class="node">
<title>SG_0_Node_19</title>
<ellipse fill="none" stroke="#000000" cx="530" cy="-37.2132" rx="34.7971" ry="21.4286"/>
<text text-anchor="middle" x="530" y="-32.2132" font-family="Times,serif" font-size="20.00" fill="#000000">1.0</text>
</g>
<!-- SG_0_Node_8&#45;&gt;SG_0_Node_19 -->
<g id="edge16" class="edge">
<title>SG_0_Node_8&#45;&gt;SG_0_Node_19</title>
<path fill="none" stroke="#000000" d="M493.6806,-286.0598C500.2446,-241.0859 517.1846,-125.0191 525.3986,-68.7405"/>
<polygon fill="#000000" stroke="#000000" points="528.8919,-69.0399 526.8729,-58.6392 521.9653,-68.0289 528.8919,-69.0399"/>
<text text-anchor="middle" x="631.5" y="-189.4264" font-family="Times,serif" font-size="20.00" fill="#000000">[NA]</text>
<text text-anchor="middle" x="631.5" y="-167.4264" font-family="Times,serif" font-size="20.00" fill="#000000">empty</text>
<text text-anchor="middle" x="631.5" y="-145.4264" font-family="Times,serif" font-size="20.00" fill="#000000">frame&#45;ancestors &#39;self&#39;</text>
</g>
<!-- SG_1_Node_0 -->
<g id="node20" class="node">
<title>SG_1_Node_0</title>
<polygon fill="none" stroke="#000000" points="1614.5,-1558.132 1549.5,-1558.132 1549.5,-1522.132 1614.5,-1522.132 1614.5,-1558.132"/>
<text text-anchor="middle" x="1582" y="-1535.132" font-family="Times,serif" font-size="20.00" fill="#000000">body</text>
</g>
<!-- SG_1_Node_1 -->
<g id="node21" class="node">
<title>SG_1_Node_1</title>
<polygon fill="none" stroke="#000000" points="1534.5,-1400.9188 1379.5,-1400.9188 1379.5,-1364.9188 1534.5,-1364.9188 1534.5,-1400.9188"/>
<text text-anchor="middle" x="1457" y="-1377.9188" font-family="Times,serif" font-size="20.00" fill="#000000">Content&#45;Type</text>
</g>
<!-- SG_1_Node_0&#45;&gt;SG_1_Node_1 -->
<g id="edge19" class="edge">
<title>SG_1_Node_0&#45;&gt;SG_1_Node_1</title>
<path fill="none" stroke="#000000" d="M1549.483,-1535.0745C1501.9088,-1526.9358 1417.0147,-1509.357 1399,-1485.132 1387.3306,-1469.4398 1391.533,-1459.2059 1399,-1441.132 1404.2526,-1428.4183 1413.7765,-1417.0234 1423.609,-1407.7575"/>
<polygon fill="#000000" stroke="#000000" points="1425.9589,-1410.3516 1431.1225,-1401.1002 1421.3167,-1405.1123 1425.9589,-1410.3516"/>
<text text-anchor="middle" x="1578" y="-1458.132" font-family="Times,serif" font-size="20.00" fill="#000000">ecocnt_html=post_message=mes1</text>
</g>
<!-- SG_1_Node_10 -->
<g id="node22" class="node">
<title>SG_1_Node_10</title>
<ellipse fill="none" stroke="#000000" cx="1779" cy="-1382.9188" rx="34.7971" ry="21.4286"/>
<text text-anchor="middle" x="1779" y="-1377.9188" font-family="Times,serif" font-size="20.00" fill="#000000">1.0</text>
</g>
<!-- SG_1_Node_0&#45;&gt;SG_1_Node_10 -->
<g id="edge20" class="edge">
<title>SG_1_Node_0&#45;&gt;SG_1_Node_10</title>
<path fill="none" stroke="#000000" d="M1614.761,-1533.9151C1659.8905,-1524.6939 1737.7987,-1506.1972 1757,-1485.132 1774.3122,-1466.1394 1779.2045,-1436.8919 1780.1193,-1414.5412"/>
<polygon fill="#000000" stroke="#000000" points="1783.6193,-1414.5667 1780.2882,-1404.5092 1776.6203,-1414.4488 1783.6193,-1414.5667"/>
<text text-anchor="middle" x="1822" y="-1469.132" font-family="Times,serif" font-size="20.00" fill="#000000">[NA]</text>
<text text-anchor="middle" x="1822" y="-1447.132" font-family="Times,serif" font-size="20.00" fill="#000000">12 levels</text>
</g>
<!-- SG_1_Node_2 -->
<g id="node23" class="node">
<title>SG_1_Node_2</title>
<polygon fill="none" stroke="#000000" points="1567.5,-1130.4924 1346.5,-1130.4924 1346.5,-1094.4924 1567.5,-1094.4924 1567.5,-1130.4924"/>
<text text-anchor="middle" x="1457" y="-1107.4924" font-family="Times,serif" font-size="20.00" fill="#000000">Content&#45;Disposition</text>
</g>
<!-- SG_1_Node_1&#45;&gt;SG_1_Node_2 -->
<g id="edge21" class="edge">
<title>SG_1_Node_1&#45;&gt;SG_1_Node_2</title>
<path fill="none" stroke="#000000" d="M1457,-1364.7555C1457,-1318.5702 1457,-1196.3784 1457,-1140.7687"/>
<polygon fill="#000000" stroke="#000000" points="1460.5001,-1140.5767 1457,-1130.5767 1453.5001,-1140.5768 1460.5001,-1140.5767"/>
<text text-anchor="middle" x="1504" y="-1253.7056" font-family="Times,serif" font-size="20.00" fill="#000000">empty</text>
<text text-anchor="middle" x="1504" y="-1231.7056" font-family="Times,serif" font-size="20.00" fill="#000000">text/html</text>
</g>
<!-- SG_1_Node_11 -->
<g id="node24" class="node">
<title>SG_1_Node_11</title>
<ellipse fill="none" stroke="#000000" cx="1620" cy="-1112.4924" rx="34.7971" ry="21.4286"/>
<text text-anchor="middle" x="1620" y="-1107.4924" font-family="Times,serif" font-size="20.00" fill="#000000">1.0</text>
</g>
<!-- SG_1_Node_1&#45;&gt;SG_1_Node_11 -->
<g id="edge22" class="edge">
<title>SG_1_Node_1&#45;&gt;SG_1_Node_11</title>
<path fill="none" stroke="#000000" d="M1502.3915,-1364.7985C1521.0191,-1355.3348 1541.3671,-1342.0552 1555,-1324.7056 1597.5577,-1270.5455 1612.3747,-1188.5484 1617.4416,-1143.999"/>
<polygon fill="#000000" stroke="#000000" points="1620.9512,-1144.0886 1618.5062,-1133.7798 1613.9888,-1143.3633 1620.9512,-1144.0886"/>
<text text-anchor="middle" x="1724" y="-1308.7056" font-family="Times,serif" font-size="20.00" fill="#000000">[NA]</text>
<text text-anchor="middle" x="1724" y="-1286.7056" font-family="Times,serif" font-size="20.00" fill="#000000">application/javascript</text>
<text text-anchor="middle" x="1724" y="-1264.7056" font-family="Times,serif" font-size="20.00" fill="#000000">application/pdf</text>
<text text-anchor="middle" x="1724" y="-1242.7056" font-family="Times,serif" font-size="20.00" fill="#000000">audio/wav</text>
<text text-anchor="middle" x="1724" y="-1220.7056" font-family="Times,serif" font-size="20.00" fill="#000000">image/png</text>
<text text-anchor="middle" x="1724" y="-1198.7056" font-family="Times,serif" font-size="20.00" fill="#000000">text/css</text>
<text text-anchor="middle" x="1724" y="-1176.7056" font-family="Times,serif" font-size="20.00" fill="#000000">video/mp4</text>
</g>
<!-- SG_1_Node_3 -->
<g id="node25" class="node">
<title>SG_1_Node_3</title>
<polygon fill="none" stroke="#000000" points="1528,-970.066 1386,-970.066 1386,-934.066 1528,-934.066 1528,-970.066"/>
<text text-anchor="middle" x="1457" y="-947.066" font-family="Times,serif" font-size="20.00" fill="#000000">Status&#45;Code</text>
</g>
<!-- SG_1_Node_2&#45;&gt;SG_1_Node_3 -->
<g id="edge23" class="edge">
<title>SG_1_Node_2&#45;&gt;SG_1_Node_3</title>
<path fill="none" stroke="#000000" d="M1457,-1094.4013C1457,-1066.7194 1457,-1013.6042 1457,-980.6675"/>
<polygon fill="#000000" stroke="#000000" points="1460.5001,-980.3371 1457,-970.3371 1453.5001,-980.3372 1460.5001,-980.3371"/>
<text text-anchor="middle" x="1489" y="-1027.2792" font-family="Times,serif" font-size="20.00" fill="#000000">empty</text>
</g>
<!-- SG_1_Node_12 -->
<g id="node26" class="node">
<title>SG_1_Node_12</title>
<ellipse fill="none" stroke="#000000" cx="1581" cy="-952.066" rx="34.7971" ry="21.4286"/>
<text text-anchor="middle" x="1581" y="-947.066" font-family="Times,serif" font-size="20.00" fill="#000000">1.0</text>
</g>
<!-- SG_1_Node_2&#45;&gt;SG_1_Node_12 -->
<g id="edge24" class="edge">
<title>SG_1_Node_2&#45;&gt;SG_1_Node_12</title>
<path fill="none" stroke="#000000" d="M1482.2481,-1094.4636C1495.9913,-1083.82 1512.6571,-1069.4804 1525,-1054.2792 1542.918,-1032.2119 1558.0345,-1003.5832 1568.0284,-982.2399"/>
<polygon fill="#000000" stroke="#000000" points="1571.2795,-983.5461 1572.2513,-972.9959 1564.9125,-980.6374 1571.2795,-983.5461"/>
<text text-anchor="middle" x="1612" y="-1038.2792" font-family="Times,serif" font-size="20.00" fill="#000000">[NA]</text>
<text text-anchor="middle" x="1612" y="-1016.2792" font-family="Times,serif" font-size="20.00" fill="#000000">attachment</text>
</g>
<!-- SG_1_Node_4 -->
<g id="node27" class="node">
<title>SG_1_Node_4</title>
<polygon fill="none" stroke="#000000" points="1587,-812.8528 1327,-812.8528 1327,-776.8528 1587,-776.8528 1587,-812.8528"/>
<text text-anchor="middle" x="1457" y="-789.8528" font-family="Times,serif" font-size="20.00" fill="#000000">Content&#45;Security&#45;Policy</text>
</g>
<!-- SG_1_Node_3&#45;&gt;SG_1_Node_4 -->
<g id="edge25" class="edge">
<title>SG_1_Node_3&#45;&gt;SG_1_Node_4</title>
<path fill="none" stroke="#000000" d="M1457,-934.0317C1457,-906.9307 1457,-855.4565 1457,-823.2729"/>
<polygon fill="#000000" stroke="#000000" points="1460.5001,-823.1611 1457,-813.1611 1453.5001,-823.1611 1460.5001,-823.1611"/>
<text text-anchor="middle" x="1503" y="-877.8528" font-family="Times,serif" font-size="20.00" fill="#000000">[NA]</text>
<text text-anchor="middle" x="1503" y="-855.8528" font-family="Times,serif" font-size="20.00" fill="#000000">46 levels</text>
</g>
<!-- SG_1_Node_5 -->
<g id="node28" class="node">
<title>SG_1_Node_5</title>
<polygon fill="none" stroke="#000000" points="1828,-812.8528 1686,-812.8528 1686,-776.8528 1828,-776.8528 1828,-812.8528"/>
<text text-anchor="middle" x="1757" y="-789.8528" font-family="Times,serif" font-size="20.00" fill="#000000">Status&#45;Code</text>
</g>
<!-- SG_1_Node_3&#45;&gt;SG_1_Node_5 -->
<g id="edge26" class="edge">
<title>SG_1_Node_3&#45;&gt;SG_1_Node_5</title>
<path fill="none" stroke="#000000" d="M1491.4138,-934.0317C1546.3108,-905.2632 1653.6168,-849.0302 1713.666,-817.5617"/>
<polygon fill="#000000" stroke="#000000" points="1715.2939,-820.6602 1722.5267,-812.9183 1712.0446,-814.46 1715.2939,-820.6602"/>
<text text-anchor="middle" x="1697" y="-866.8528" font-family="Times,serif" font-size="20.00" fill="#000000">16 levels</text>
</g>
<!-- SG_1_Node_13 -->
<g id="node29" class="node">
<title>SG_1_Node_13</title>
<ellipse fill="none" stroke="#000000" cx="1316" cy="-483.6396" rx="34.7971" ry="21.4286"/>
<text text-anchor="middle" x="1316" y="-478.6396" font-family="Times,serif" font-size="20.00" fill="#000000">0.0</text>
</g>
<!-- SG_1_Node_4&#45;&gt;SG_1_Node_13 -->
<g id="edge35" class="edge">
<title>SG_1_Node_4&#45;&gt;SG_1_Node_13</title>
<path fill="none" stroke="#000000" d="M1379.1515,-776.8048C1344.4438,-767.0302 1309.096,-754.0574 1299,-739.8528 1250.455,-671.552 1282.3638,-565.4198 1302.7514,-513.8346"/>
<polygon fill="#000000" stroke="#000000" points="1306.1155,-514.8537 1306.6481,-504.2723 1299.6331,-512.2121 1306.1155,-514.8537"/>
<text text-anchor="middle" x="1409.5" y="-657.8528" font-family="Times,serif" font-size="20.00" fill="#000000">[NA]</text>
<text text-anchor="middle" x="1409.5" y="-635.8528" font-family="Times,serif" font-size="20.00" fill="#000000">empty</text>
<text text-anchor="middle" x="1409.5" y="-613.8528" font-family="Times,serif" font-size="20.00" fill="#000000">frame&#45;ancestors &#39;self&#39;</text>
</g>
<!-- SG_1_Node_14 -->
<g id="node30" class="node">
<title>SG_1_Node_14</title>
<ellipse fill="none" stroke="#000000" cx="1524" cy="-483.6396" rx="34.7971" ry="21.4286"/>
<text text-anchor="middle" x="1524" y="-478.6396" font-family="Times,serif" font-size="20.00" fill="#000000">1.0</text>
</g>
<!-- SG_1_Node_4&#45;&gt;SG_1_Node_14 -->
<g id="edge36" class="edge">
<title>SG_1_Node_4&#45;&gt;SG_1_Node_14</title>
<path fill="none" stroke="#000000" d="M1489.9089,-776.6869C1503.0696,-767.5221 1516.7945,-755.0901 1524,-739.8528 1559.1508,-665.5203 1543.5385,-564.9472 1532.1453,-514.7855"/>
<polygon fill="#000000" stroke="#000000" points="1535.5084,-513.7984 1529.7979,-504.8742 1528.6969,-515.4117 1535.5084,-513.7984"/>
<text text-anchor="middle" x="1627.5" y="-635.8528" font-family="Times,serif" font-size="20.00" fill="#000000">default&#45;src &#39;self&#39;</text>
</g>
<!-- SG_1_Node_6 -->
<g id="node31" class="node">
<title>SG_1_Node_6</title>
<polygon fill="none" stroke="#000000" points="1681.5,-501.6396 1576.5,-501.6396 1576.5,-465.6396 1681.5,-465.6396 1681.5,-501.6396"/>
<text text-anchor="middle" x="1629" y="-478.6396" font-family="Times,serif" font-size="20.00" fill="#000000">Location</text>
</g>
<!-- SG_1_Node_5&#45;&gt;SG_1_Node_6 -->
<g id="edge27" class="edge">
<title>SG_1_Node_5&#45;&gt;SG_1_Node_6</title>
<path fill="none" stroke="#000000" d="M1755.7494,-776.734C1751.9371,-725.5699 1739.1581,-581.1611 1714,-541.8528 1704.8976,-527.6308 1690.9492,-515.9815 1676.9667,-506.9416"/>
<polygon fill="#000000" stroke="#000000" points="1678.6583,-503.8736 1668.2993,-501.6505 1675.0109,-509.8483 1678.6583,-503.8736"/>
<text text-anchor="middle" x="1771.5" y="-723.8528" font-family="Times,serif" font-size="20.00" fill="#000000">301</text>
<text text-anchor="middle" x="1771.5" y="-701.8528" font-family="Times,serif" font-size="20.00" fill="#000000">302</text>
<text text-anchor="middle" x="1771.5" y="-679.8528" font-family="Times,serif" font-size="20.00" fill="#000000">303</text>
<text text-anchor="middle" x="1771.5" y="-657.8528" font-family="Times,serif" font-size="20.00" fill="#000000">305</text>
<text text-anchor="middle" x="1771.5" y="-635.8528" font-family="Times,serif" font-size="20.00" fill="#000000">307</text>
<text text-anchor="middle" x="1771.5" y="-613.8528" font-family="Times,serif" font-size="20.00" fill="#000000">308</text>
<text text-anchor="middle" x="1771.5" y="-591.8528" font-family="Times,serif" font-size="20.00" fill="#000000">406</text>
<text text-anchor="middle" x="1771.5" y="-569.8528" font-family="Times,serif" font-size="20.00" fill="#000000">413</text>
<text text-anchor="middle" x="1771.5" y="-547.8528" font-family="Times,serif" font-size="20.00" fill="#000000">423</text>
</g>
<!-- SG_1_Node_15 -->
<g id="node32" class="node">
<title>SG_1_Node_15</title>
<ellipse fill="none" stroke="#000000" cx="1832" cy="-483.6396" rx="34.7971" ry="21.4286"/>
<text text-anchor="middle" x="1832" y="-478.6396" font-family="Times,serif" font-size="20.00" fill="#000000">1.0</text>
</g>
<!-- SG_1_Node_5&#45;&gt;SG_1_Node_15 -->
<g id="edge28" class="edge">
<title>SG_1_Node_5&#45;&gt;SG_1_Node_15</title>
<path fill="none" stroke="#000000" d="M1775.3458,-776.6442C1784.293,-766.6386 1794.3248,-753.5074 1800,-739.8528 1831.656,-663.6881 1834.3378,-564.6508 1833.3423,-514.9665"/>
<polygon fill="#000000" stroke="#000000" points="1836.8381,-514.7589 1833.0737,-504.8554 1829.8405,-514.9449 1836.8381,-514.7589"/>
<text text-anchor="middle" x="1852.5" y="-701.8528" font-family="Times,serif" font-size="20.00" fill="#000000">100</text>
<text text-anchor="middle" x="1852.5" y="-679.8528" font-family="Times,serif" font-size="20.00" fill="#000000">101</text>
<text text-anchor="middle" x="1852.5" y="-657.8528" font-family="Times,serif" font-size="20.00" fill="#000000">102</text>
<text text-anchor="middle" x="1852.5" y="-635.8528" font-family="Times,serif" font-size="20.00" fill="#000000">103</text>
<text text-anchor="middle" x="1852.5" y="-613.8528" font-family="Times,serif" font-size="20.00" fill="#000000">204</text>
<text text-anchor="middle" x="1852.5" y="-591.8528" font-family="Times,serif" font-size="20.00" fill="#000000">304</text>
<text text-anchor="middle" x="1852.5" y="-569.8528" font-family="Times,serif" font-size="20.00" fill="#000000">407</text>
</g>
<!-- SG_1_Node_7 -->
<g id="node33" class="node">
<title>SG_1_Node_7</title>
<polygon fill="none" stroke="#000000" points="1627,-322.4264 1367,-322.4264 1367,-286.4264 1627,-286.4264 1627,-322.4264"/>
<text text-anchor="middle" x="1497" y="-299.4264" font-family="Times,serif" font-size="20.00" fill="#000000">Content&#45;Security&#45;Policy</text>
</g>
<!-- SG_1_Node_6&#45;&gt;SG_1_Node_7 -->
<g id="edge29" class="edge">
<title>SG_1_Node_6&#45;&gt;SG_1_Node_7</title>
<path fill="none" stroke="#000000" d="M1615.6167,-465.4695C1592.1947,-433.6699 1543.6849,-367.8094 1516.5173,-330.9245"/>
<polygon fill="#000000" stroke="#000000" points="1519.1673,-328.6207 1510.4187,-322.6447 1513.5311,-332.772 1519.1673,-328.6207"/>
<text text-anchor="middle" x="1617" y="-387.4264" font-family="Times,serif" font-size="20.00" fill="#000000">empty</text>
</g>
<!-- SG_1_Node_8 -->
<g id="node34" class="node">
<title>SG_1_Node_8</title>
<polygon fill="none" stroke="#000000" points="1828,-322.4264 1686,-322.4264 1686,-286.4264 1828,-286.4264 1828,-322.4264"/>
<text text-anchor="middle" x="1757" y="-299.4264" font-family="Times,serif" font-size="20.00" fill="#000000">Status&#45;Code</text>
</g>
<!-- SG_1_Node_6&#45;&gt;SG_1_Node_8 -->
<g id="edge30" class="edge">
<title>SG_1_Node_6&#45;&gt;SG_1_Node_8</title>
<path fill="none" stroke="#000000" d="M1641.9777,-465.4695C1664.69,-433.6699 1711.7298,-367.8094 1738.0742,-330.9245"/>
<polygon fill="#000000" stroke="#000000" points="1741.0239,-332.8165 1743.9879,-322.6447 1735.3276,-328.748 1741.0239,-332.8165"/>
<text text-anchor="middle" x="1853" y="-409.4264" font-family="Times,serif" font-size="20.00" fill="#000000">[NA]</text>
<text text-anchor="middle" x="1853" y="-387.4264" font-family="Times,serif" font-size="20.00" fill="#000000">/</text>
<text text-anchor="middle" x="1853" y="-365.4264" font-family="Times,serif" font-size="20.00" fill="#000000">http://localhost:8000/echo/</text>
</g>
<!-- SG_1_Node_16 -->
<g id="node35" class="node">
<title>SG_1_Node_16</title>
<ellipse fill="none" stroke="#000000" cx="1316" cy="-37.2132" rx="34.7971" ry="21.4286"/>
<text text-anchor="middle" x="1316" y="-32.2132" font-family="Times,serif" font-size="20.00" fill="#000000">0.0</text>
</g>
<!-- SG_1_Node_7&#45;&gt;SG_1_Node_16 -->
<g id="edge33" class="edge">
<title>SG_1_Node_7&#45;&gt;SG_1_Node_16</title>
<path fill="none" stroke="#000000" d="M1388.841,-286.4071C1349.1006,-277.3997 1310.8739,-265.0481 1299,-249.4264 1258.4532,-196.0813 1283.859,-111.867 1302.1413,-67.2562"/>
<polygon fill="#000000" stroke="#000000" points="1305.4506,-68.4172 1306.1355,-57.8445 1299.0069,-65.6825 1305.4506,-68.4172"/>
<text text-anchor="middle" x="1409.5" y="-189.4264" font-family="Times,serif" font-size="20.00" fill="#000000">[NA]</text>
<text text-anchor="middle" x="1409.5" y="-167.4264" font-family="Times,serif" font-size="20.00" fill="#000000">empty</text>
<text text-anchor="middle" x="1409.5" y="-145.4264" font-family="Times,serif" font-size="20.00" fill="#000000">frame&#45;ancestors &#39;self&#39;</text>
</g>
<!-- SG_1_Node_17 -->
<g id="node36" class="node">
<title>SG_1_Node_17</title>
<ellipse fill="none" stroke="#000000" cx="1556" cy="-37.2132" rx="34.7971" ry="21.4286"/>
<text text-anchor="middle" x="1556" y="-32.2132" font-family="Times,serif" font-size="20.00" fill="#000000">1.0</text>
</g>
<!-- SG_1_Node_7&#45;&gt;SG_1_Node_17 -->
<g id="edge34" class="edge">
<title>SG_1_Node_7&#45;&gt;SG_1_Node_17</title>
<path fill="none" stroke="#000000" d="M1507.7225,-286.1782C1513.3975,-275.7422 1520.0007,-262.2186 1524,-249.4264 1543.4834,-187.1063 1551.2875,-110.6635 1554.2724,-68.6372"/>
<polygon fill="#000000" stroke="#000000" points="1557.7768,-68.6865 1554.9469,-58.4766 1550.7921,-68.2228 1557.7768,-68.6865"/>
<text text-anchor="middle" x="1634.5" y="-167.4264" font-family="Times,serif" font-size="20.00" fill="#000000">default&#45;src &#39;self&#39;</text>
</g>
<!-- SG_1_Node_18 -->
<g id="node37" class="node">
<title>SG_1_Node_18</title>
<ellipse fill="none" stroke="#000000" cx="1738" cy="-37.2132" rx="43.6818" ry="21.4286"/>
<text text-anchor="middle" x="1738" y="-32.2132" font-family="Times,serif" font-size="20.00" fill="#000000">0.75</text>
</g>
<!-- SG_1_Node_8&#45;&gt;SG_1_Node_18 -->
<g id="edge31" class="edge">
<title>SG_1_Node_8&#45;&gt;SG_1_Node_18</title>
<path fill="none" stroke="#000000" d="M1755.6941,-286.0598C1752.4962,-241.0859 1744.2434,-125.0191 1740.2417,-68.7405"/>
<polygon fill="#000000" stroke="#000000" points="1743.724,-68.3658 1739.5235,-58.6392 1736.7416,-68.8623 1743.724,-68.3658"/>
<text text-anchor="middle" x="1771.5" y="-178.4264" font-family="Times,serif" font-size="20.00" fill="#000000">406</text>
<text text-anchor="middle" x="1771.5" y="-156.4264" font-family="Times,serif" font-size="20.00" fill="#000000">423</text>
</g>
<!-- SG_1_Node_19 -->
<g id="node38" class="node">
<title>SG_1_Node_19</title>
<ellipse fill="none" stroke="#000000" cx="1834" cy="-37.2132" rx="34.7971" ry="21.4286"/>
<text text-anchor="middle" x="1834" y="-32.2132" font-family="Times,serif" font-size="20.00" fill="#000000">1.0</text>
</g>
<!-- SG_1_Node_8&#45;&gt;SG_1_Node_19 -->
<g id="edge32" class="edge">
<title>SG_1_Node_8&#45;&gt;SG_1_Node_19</title>
<path fill="none" stroke="#000000" d="M1772.4926,-286.2406C1780.3985,-276.0392 1789.4863,-262.7198 1795,-249.4264 1820.27,-188.5011 1829.2283,-110.9923 1832.3588,-68.5347"/>
<polygon fill="#000000" stroke="#000000" points="1835.8528,-68.7404 1833.0355,-58.5271 1828.8687,-68.2681 1835.8528,-68.7404"/>
<text text-anchor="middle" x="1848.5" y="-233.4264" font-family="Times,serif" font-size="20.00" fill="#000000">301</text>
<text text-anchor="middle" x="1848.5" y="-211.4264" font-family="Times,serif" font-size="20.00" fill="#000000">302</text>
<text text-anchor="middle" x="1848.5" y="-189.4264" font-family="Times,serif" font-size="20.00" fill="#000000">303</text>
<text text-anchor="middle" x="1848.5" y="-167.4264" font-family="Times,serif" font-size="20.00" fill="#000000">305</text>
<text text-anchor="middle" x="1848.5" y="-145.4264" font-family="Times,serif" font-size="20.00" fill="#000000">307</text>
<text text-anchor="middle" x="1848.5" y="-123.4264" font-family="Times,serif" font-size="20.00" fill="#000000">308</text>
<text text-anchor="middle" x="1848.5" y="-101.4264" font-family="Times,serif" font-size="20.00" fill="#000000">413</text>
</g>
</g>
</svg>
